%TF.GenerationSoftware,KiCad,Pcbnew,9.0.2*%
%TF.CreationDate,2025-06-05T09:54:10-05:00*%
%TF.ProjectId,Flight Computer v3,466c6967-6874-4204-936f-6d7075746572,rev?*%
%TF.SameCoordinates,Original*%
%TF.FileFunction,Copper,L5,Inr*%
%TF.FilePolarity,Positive*%
%FSLAX46Y46*%
G04 Gerber Fmt 4.6, Leading zero omitted, Abs format (unit mm)*
G04 Created by KiCad (PCBNEW 9.0.2) date 2025-06-05 09:54:10*
%MOMM*%
%LPD*%
G01*
G04 APERTURE LIST*
G04 Aperture macros list*
%AMRoundRect*
0 Rectangle with rounded corners*
0 $1 Rounding radius*
0 $2 $3 $4 $5 $6 $7 $8 $9 X,Y pos of 4 corners*
0 Add a 4 corners polygon primitive as box body*
4,1,4,$2,$3,$4,$5,$6,$7,$8,$9,$2,$3,0*
0 Add four circle primitives for the rounded corners*
1,1,$1+$1,$2,$3*
1,1,$1+$1,$4,$5*
1,1,$1+$1,$6,$7*
1,1,$1+$1,$8,$9*
0 Add four rect primitives between the rounded corners*
20,1,$1+$1,$2,$3,$4,$5,0*
20,1,$1+$1,$4,$5,$6,$7,0*
20,1,$1+$1,$6,$7,$8,$9,0*
20,1,$1+$1,$8,$9,$2,$3,0*%
G04 Aperture macros list end*
%TA.AperFunction,ComponentPad*%
%ADD10C,3.100000*%
%TD*%
%TA.AperFunction,ComponentPad*%
%ADD11R,1.700000X1.700000*%
%TD*%
%TA.AperFunction,ComponentPad*%
%ADD12C,1.700000*%
%TD*%
%TA.AperFunction,ComponentPad*%
%ADD13RoundRect,0.249999X0.850001X-0.850001X0.850001X0.850001X-0.850001X0.850001X-0.850001X-0.850001X0*%
%TD*%
%TA.AperFunction,ComponentPad*%
%ADD14C,2.200000*%
%TD*%
%TA.AperFunction,HeatsinkPad*%
%ADD15O,1.000000X1.800000*%
%TD*%
%TA.AperFunction,HeatsinkPad*%
%ADD16O,1.000000X2.100000*%
%TD*%
%TA.AperFunction,ViaPad*%
%ADD17C,0.600000*%
%TD*%
%TA.AperFunction,Conductor*%
%ADD18C,0.200000*%
%TD*%
G04 APERTURE END LIST*
D10*
%TO.N,GND*%
%TO.C,H604*%
X124700000Y-109500000D03*
%TD*%
%TO.N,GND*%
%TO.C,H601*%
X100700000Y-55500000D03*
%TD*%
D11*
%TO.N,VCC*%
%TO.C,J604*%
X104630000Y-104450000D03*
D12*
%TO.N,GND*%
X102090000Y-104450000D03*
%TD*%
D10*
%TO.N,GND*%
%TO.C,H603*%
X100700000Y-109500000D03*
%TD*%
D13*
%TO.N,VCC*%
%TO.C,J603*%
X124000000Y-104330000D03*
D14*
%TO.N,Pyro_Power*%
X124000000Y-101790000D03*
%TO.N,Pyro1*%
X124000000Y-99250000D03*
%TO.N,GND*%
X124000000Y-96710000D03*
%TO.N,Pyro2*%
X124000000Y-94170000D03*
%TO.N,GND*%
X124000000Y-91630000D03*
%TO.N,Pyro3*%
X124000000Y-89090000D03*
%TO.N,GND*%
X124000000Y-86550000D03*
%TD*%
D10*
%TO.N,GND*%
%TO.C,H602*%
X124700000Y-55500000D03*
%TD*%
D11*
%TO.N,Servo1*%
%TO.C,J605*%
X100210000Y-80640000D03*
D12*
%TO.N,Servo2*%
X100210000Y-83180000D03*
%TO.N,Servo3*%
X100210000Y-85720000D03*
%TO.N,Servo4*%
X100210000Y-88260000D03*
%TO.N,GND*%
X100210000Y-90800000D03*
%TD*%
D15*
%TO.N,GND*%
%TO.C,J601*%
X116995000Y-109900000D03*
D16*
X116995000Y-105720000D03*
D15*
X108355000Y-109900000D03*
D16*
X108355000Y-105720000D03*
%TD*%
D17*
%TO.N,GND*%
X115020000Y-106980000D03*
X114770000Y-84540000D03*
X120400000Y-77200000D03*
X113910000Y-72960000D03*
X106000000Y-64200000D03*
X106900000Y-106400000D03*
X111600000Y-79000000D03*
X113000000Y-81400000D03*
X105400000Y-89160000D03*
X111830000Y-70420000D03*
X107267000Y-79500000D03*
X105200000Y-107400000D03*
X118700000Y-106100000D03*
X119800000Y-108200000D03*
%TO.N,+3.3V*%
X107429008Y-86318679D03*
X111739002Y-82060998D03*
X103480000Y-69300000D03*
X126000000Y-79500000D03*
X115000000Y-86437500D03*
X116600000Y-78900000D03*
X118600000Y-65700000D03*
X120850000Y-70950000D03*
X109200000Y-79723000D03*
X113500000Y-87617500D03*
X124290000Y-83870000D03*
X108700000Y-63600000D03*
X112800000Y-107100000D03*
X112200000Y-94500000D03*
X110400000Y-63600000D03*
X113400000Y-55000000D03*
X126400000Y-68600000D03*
X116100000Y-74500000D03*
X108200000Y-93300000D03*
X104800000Y-86500000D03*
X104300000Y-91800000D03*
%TO.N,VCC*%
X115060000Y-100520000D03*
X116600000Y-103190000D03*
X115870000Y-96440000D03*
X122000000Y-70200000D03*
X117860000Y-86740000D03*
X108000000Y-103190000D03*
%TO.N,SPI_MISO*%
X124180000Y-79230000D03*
X105900000Y-70550000D03*
X109680000Y-85800000D03*
X112468266Y-83156443D03*
X120930000Y-54800000D03*
X116617024Y-81017024D03*
%TO.N,SPI_SCK*%
X105370597Y-70051738D03*
X123356051Y-80173949D03*
X114325707Y-82631000D03*
X115700000Y-54800000D03*
%TO.N,SWDIO*%
X112970000Y-92870000D03*
%TO.N,I2C_SCL*%
X117435083Y-85225083D03*
X120630000Y-78710000D03*
X106125789Y-75845000D03*
%TO.N,I2C_SDA*%
X101500000Y-70400000D03*
X119930000Y-80250000D03*
X109030000Y-92880000D03*
%TO.N,SWCLK*%
X110431650Y-94311650D03*
%TO.N,SPI_MOSI*%
X119222354Y-78047646D03*
X118310000Y-54800000D03*
X111620000Y-83560000D03*
X104843597Y-71460000D03*
%TO.N,NRST*%
X109060000Y-89250000D03*
%TO.N,Pyro_Power*%
X115575000Y-94170002D03*
X122236886Y-88266760D03*
X115160000Y-99100000D03*
X123000000Y-98000000D03*
X122600000Y-92800000D03*
%TO.N,Servo4*%
X106289141Y-91275567D03*
%TO.N,Servo3*%
X106720000Y-90690000D03*
%TO.N,{slash}GPS_RESET*%
X118560000Y-69360000D03*
%TO.N,{slash}GPS_SAFEBOOT*%
X98860000Y-69370000D03*
X107880000Y-85150000D03*
%TO.N,Pyro1_Trigger*%
X117317000Y-97751601D03*
%TO.N,Pyro2_Trigger*%
X119600490Y-91679027D03*
%TO.N,Pyro3_Trigger*%
X116970000Y-88650000D03*
%TO.N,Pyro3_Cont*%
X120000000Y-90760000D03*
%TO.N,/Radio/CTL*%
X101700000Y-63420000D03*
X106447354Y-73762646D03*
%TO.N,IMU_INT1*%
X111103883Y-90103883D03*
%TO.N,IMU_INT2*%
X116968655Y-84667429D03*
%TO.N,GPS_RX*%
X110600000Y-78297000D03*
%TO.N,GPS_TX*%
X109810000Y-78640000D03*
%TO.N,GPS_INT*%
X117728032Y-67476640D03*
%TO.N,IMU_CS*%
X115717316Y-83407316D03*
%TO.N,Baro_CS*%
X109777673Y-88095173D03*
%TD*%
D18*
%TO.N,VCC*%
X121060000Y-86740000D02*
X117860000Y-86740000D01*
X122000000Y-70200000D02*
X122000000Y-85800000D01*
X122000000Y-85800000D02*
X121060000Y-86740000D01*
%TD*%
%TA.AperFunction,Conductor*%
%TO.N,GND*%
G36*
X124972992Y-52800681D02*
G01*
X125253256Y-52817633D01*
X125265111Y-52819073D01*
X125538349Y-52869145D01*
X125549951Y-52872005D01*
X125815162Y-52954649D01*
X125826325Y-52958882D01*
X126079646Y-53072892D01*
X126090231Y-53078448D01*
X126327951Y-53222154D01*
X126337776Y-53228936D01*
X126556443Y-53400250D01*
X126565392Y-53408177D01*
X126761822Y-53604607D01*
X126769749Y-53613556D01*
X126909420Y-53791834D01*
X126941058Y-53832216D01*
X126947849Y-53842055D01*
X127091551Y-54079768D01*
X127097107Y-54090353D01*
X127211114Y-54343667D01*
X127215353Y-54354845D01*
X127297993Y-54620045D01*
X127300854Y-54631653D01*
X127350925Y-54904881D01*
X127352366Y-54916748D01*
X127369319Y-55197006D01*
X127369500Y-55202984D01*
X127369500Y-109797015D01*
X127369319Y-109802993D01*
X127352366Y-110083251D01*
X127350925Y-110095118D01*
X127300854Y-110368346D01*
X127297993Y-110379954D01*
X127215353Y-110645154D01*
X127211114Y-110656332D01*
X127097107Y-110909646D01*
X127091551Y-110920231D01*
X126947849Y-111157944D01*
X126941058Y-111167783D01*
X126769749Y-111386443D01*
X126761822Y-111395392D01*
X126565392Y-111591822D01*
X126556443Y-111599749D01*
X126337783Y-111771058D01*
X126327944Y-111777849D01*
X126090231Y-111921551D01*
X126079646Y-111927107D01*
X125826332Y-112041114D01*
X125815154Y-112045353D01*
X125549954Y-112127993D01*
X125538346Y-112130854D01*
X125265118Y-112180925D01*
X125253251Y-112182366D01*
X124993387Y-112198085D01*
X124972991Y-112199319D01*
X124967015Y-112199500D01*
X100372986Y-112199500D01*
X100367009Y-112199319D01*
X100344252Y-112197942D01*
X100086749Y-112182366D01*
X100074882Y-112180925D01*
X99801654Y-112130854D01*
X99790047Y-112127993D01*
X99524846Y-112045354D01*
X99513667Y-112041115D01*
X99260353Y-111927107D01*
X99249768Y-111921551D01*
X99012055Y-111777849D01*
X99002216Y-111771058D01*
X98783556Y-111599749D01*
X98774607Y-111591822D01*
X98578177Y-111395392D01*
X98570250Y-111386443D01*
X98478914Y-111269861D01*
X98398936Y-111167776D01*
X98392162Y-111157962D01*
X98248448Y-110920231D01*
X98242892Y-110909646D01*
X98128884Y-110656332D01*
X98124646Y-110645157D01*
X98050943Y-110408632D01*
X98042006Y-110379952D01*
X98039145Y-110368345D01*
X98033858Y-110339496D01*
X97989073Y-110095110D01*
X97987633Y-110083255D01*
X97970681Y-109802991D01*
X97970500Y-109797014D01*
X97970500Y-109365634D01*
X98650000Y-109365634D01*
X98650000Y-109634365D01*
X98685075Y-109900785D01*
X98685075Y-109900790D01*
X98754627Y-110160364D01*
X98857463Y-110408632D01*
X98991832Y-110641366D01*
X99084417Y-110762025D01*
X99584727Y-110261715D01*
X99670278Y-110379466D01*
X99820534Y-110529722D01*
X99938282Y-110615270D01*
X99437972Y-111115581D01*
X99558633Y-111208167D01*
X99791367Y-111342536D01*
X100039635Y-111445372D01*
X100299211Y-111514924D01*
X100565634Y-111549999D01*
X100565637Y-111550000D01*
X100834363Y-111550000D01*
X100834365Y-111549999D01*
X101100785Y-111514924D01*
X101100790Y-111514924D01*
X101360364Y-111445372D01*
X101608632Y-111342536D01*
X101841362Y-111208170D01*
X101962025Y-111115580D01*
X101461716Y-110615271D01*
X101579466Y-110529722D01*
X101729722Y-110379466D01*
X101815271Y-110261716D01*
X102315580Y-110762025D01*
X102408170Y-110641362D01*
X102542536Y-110408632D01*
X102645372Y-110160362D01*
X102666002Y-110083371D01*
X102666002Y-110083370D01*
X102714924Y-109900790D01*
X102714924Y-109900785D01*
X102749999Y-109634365D01*
X102750000Y-109634363D01*
X102750000Y-109401506D01*
X107355000Y-109401506D01*
X107355000Y-109649999D01*
X107355001Y-109650000D01*
X108055000Y-109650000D01*
X108055000Y-110150000D01*
X107355001Y-110150000D01*
X107355000Y-110150001D01*
X107355000Y-110398493D01*
X107393429Y-110591688D01*
X107393429Y-110591690D01*
X107468808Y-110773673D01*
X107468814Y-110773685D01*
X107578249Y-110937462D01*
X107578252Y-110937466D01*
X107717533Y-111076747D01*
X107717537Y-111076750D01*
X107881314Y-111186185D01*
X107881326Y-111186191D01*
X108063304Y-111261568D01*
X108063315Y-111261571D01*
X108105000Y-111269862D01*
X108105000Y-110466988D01*
X108114940Y-110484205D01*
X108170795Y-110540060D01*
X108239204Y-110579556D01*
X108315504Y-110600000D01*
X108394496Y-110600000D01*
X108470796Y-110579556D01*
X108539205Y-110540060D01*
X108595060Y-110484205D01*
X108605000Y-110466988D01*
X108605000Y-111269861D01*
X108646684Y-111261571D01*
X108646695Y-111261568D01*
X108828673Y-111186191D01*
X108828685Y-111186185D01*
X108992462Y-111076750D01*
X108992466Y-111076747D01*
X109131747Y-110937466D01*
X109131750Y-110937462D01*
X109241185Y-110773685D01*
X109241191Y-110773673D01*
X109316570Y-110591690D01*
X109316570Y-110591688D01*
X109354999Y-110398493D01*
X109355000Y-110398490D01*
X109355000Y-110150001D01*
X109354999Y-110150000D01*
X108655000Y-110150000D01*
X108655000Y-109650000D01*
X109354999Y-109650000D01*
X109355000Y-109649999D01*
X109355000Y-109401509D01*
X109354999Y-109401506D01*
X115995000Y-109401506D01*
X115995000Y-109649999D01*
X115995001Y-109650000D01*
X116695000Y-109650000D01*
X116695000Y-110150000D01*
X115995001Y-110150000D01*
X115995000Y-110150001D01*
X115995000Y-110398493D01*
X116033429Y-110591688D01*
X116033429Y-110591690D01*
X116108808Y-110773673D01*
X116108814Y-110773685D01*
X116218249Y-110937462D01*
X116218252Y-110937466D01*
X116357533Y-111076747D01*
X116357537Y-111076750D01*
X116521314Y-111186185D01*
X116521326Y-111186191D01*
X116703304Y-111261568D01*
X116703315Y-111261571D01*
X116745000Y-111269862D01*
X116745000Y-110466988D01*
X116754940Y-110484205D01*
X116810795Y-110540060D01*
X116879204Y-110579556D01*
X116955504Y-110600000D01*
X117034496Y-110600000D01*
X117110796Y-110579556D01*
X117179205Y-110540060D01*
X117235060Y-110484205D01*
X117245000Y-110466988D01*
X117245000Y-111269861D01*
X117286684Y-111261571D01*
X117286695Y-111261568D01*
X117468673Y-111186191D01*
X117468685Y-111186185D01*
X117632462Y-111076750D01*
X117632466Y-111076747D01*
X117701922Y-111007292D01*
X117771747Y-110937466D01*
X117771750Y-110937462D01*
X117881185Y-110773685D01*
X117881191Y-110773673D01*
X117956570Y-110591690D01*
X117956570Y-110591688D01*
X117994999Y-110398493D01*
X117995000Y-110398490D01*
X117995000Y-110150001D01*
X117994999Y-110150000D01*
X117295000Y-110150000D01*
X117295000Y-109650000D01*
X117994999Y-109650000D01*
X117995000Y-109649999D01*
X117995000Y-109401509D01*
X117994999Y-109401504D01*
X117991062Y-109381708D01*
X117987865Y-109365634D01*
X122650000Y-109365634D01*
X122650000Y-109634365D01*
X122685075Y-109900785D01*
X122685075Y-109900790D01*
X122754627Y-110160364D01*
X122857463Y-110408632D01*
X122991832Y-110641366D01*
X123084417Y-110762025D01*
X123584727Y-110261715D01*
X123670278Y-110379466D01*
X123820534Y-110529722D01*
X123938282Y-110615270D01*
X123437972Y-111115581D01*
X123558633Y-111208167D01*
X123791367Y-111342536D01*
X124039635Y-111445372D01*
X124299211Y-111514924D01*
X124565634Y-111549999D01*
X124565637Y-111550000D01*
X124834363Y-111550000D01*
X124834365Y-111549999D01*
X125100785Y-111514924D01*
X125100790Y-111514924D01*
X125360364Y-111445372D01*
X125608632Y-111342536D01*
X125841362Y-111208170D01*
X125962025Y-111115580D01*
X125461716Y-110615271D01*
X125579466Y-110529722D01*
X125729722Y-110379466D01*
X125815271Y-110261716D01*
X126315580Y-110762025D01*
X126408170Y-110641362D01*
X126542536Y-110408632D01*
X126645372Y-110160364D01*
X126714924Y-109900790D01*
X126714924Y-109900785D01*
X126749999Y-109634365D01*
X126750000Y-109634363D01*
X126750000Y-109365637D01*
X126749999Y-109365634D01*
X126714924Y-109099214D01*
X126714924Y-109099209D01*
X126645372Y-108839635D01*
X126542536Y-108591367D01*
X126408167Y-108358633D01*
X126315580Y-108237972D01*
X125815270Y-108738281D01*
X125729722Y-108620534D01*
X125579466Y-108470278D01*
X125461715Y-108384727D01*
X125962026Y-107884417D01*
X125841366Y-107791832D01*
X125608632Y-107657463D01*
X125360364Y-107554627D01*
X125100788Y-107485075D01*
X124834365Y-107450000D01*
X124565634Y-107450000D01*
X124299214Y-107485075D01*
X124299209Y-107485075D01*
X124039635Y-107554627D01*
X123791367Y-107657463D01*
X123558630Y-107791834D01*
X123437972Y-107884417D01*
X123938283Y-108384728D01*
X123820534Y-108470278D01*
X123670278Y-108620534D01*
X123584728Y-108738283D01*
X123084417Y-108237972D01*
X122991834Y-108358630D01*
X122857463Y-108591367D01*
X122754627Y-108839635D01*
X122685075Y-109099209D01*
X122685075Y-109099214D01*
X122650000Y-109365634D01*
X117987865Y-109365634D01*
X117956570Y-109208311D01*
X117956570Y-109208309D01*
X117881191Y-109026326D01*
X117881185Y-109026314D01*
X117771750Y-108862537D01*
X117771747Y-108862533D01*
X117632466Y-108723252D01*
X117632462Y-108723249D01*
X117468685Y-108613814D01*
X117468673Y-108613808D01*
X117286691Y-108538429D01*
X117245000Y-108530136D01*
X117245000Y-109333011D01*
X117235060Y-109315795D01*
X117179205Y-109259940D01*
X117110796Y-109220444D01*
X117034496Y-109200000D01*
X116955504Y-109200000D01*
X116879204Y-109220444D01*
X116810795Y-109259940D01*
X116754940Y-109315795D01*
X116745000Y-109333011D01*
X116745000Y-108530136D01*
X116703308Y-108538429D01*
X116521326Y-108613808D01*
X116521314Y-108613814D01*
X116357537Y-108723249D01*
X116357533Y-108723252D01*
X116218252Y-108862533D01*
X116218249Y-108862537D01*
X116108814Y-109026314D01*
X116108808Y-109026326D01*
X116033429Y-109208309D01*
X116033429Y-109208311D01*
X115995000Y-109401506D01*
X109354999Y-109401506D01*
X109316570Y-109208311D01*
X109316570Y-109208309D01*
X109241191Y-109026326D01*
X109241185Y-109026314D01*
X109131750Y-108862537D01*
X109131747Y-108862533D01*
X108992466Y-108723252D01*
X108992462Y-108723249D01*
X108828685Y-108613814D01*
X108828673Y-108613808D01*
X108646691Y-108538429D01*
X108605000Y-108530136D01*
X108605000Y-109333011D01*
X108595060Y-109315795D01*
X108539205Y-109259940D01*
X108470796Y-109220444D01*
X108394496Y-109200000D01*
X108315504Y-109200000D01*
X108239204Y-109220444D01*
X108170795Y-109259940D01*
X108114940Y-109315795D01*
X108105000Y-109333011D01*
X108105000Y-108530136D01*
X108063308Y-108538429D01*
X107881326Y-108613808D01*
X107881314Y-108613814D01*
X107717537Y-108723249D01*
X107717533Y-108723252D01*
X107578252Y-108862533D01*
X107578249Y-108862537D01*
X107468814Y-109026314D01*
X107468808Y-109026326D01*
X107393429Y-109208309D01*
X107393429Y-109208311D01*
X107355000Y-109401506D01*
X102750000Y-109401506D01*
X102750000Y-109365637D01*
X102749999Y-109365634D01*
X102714924Y-109099214D01*
X102714924Y-109099209D01*
X102645372Y-108839635D01*
X102542536Y-108591367D01*
X102408167Y-108358633D01*
X102315580Y-108237972D01*
X101815270Y-108738281D01*
X101729722Y-108620534D01*
X101579466Y-108470278D01*
X101461715Y-108384727D01*
X101962026Y-107884417D01*
X101841366Y-107791832D01*
X101608632Y-107657463D01*
X101360364Y-107554627D01*
X101100788Y-107485075D01*
X100834365Y-107450000D01*
X100565634Y-107450000D01*
X100299214Y-107485075D01*
X100299209Y-107485075D01*
X100039635Y-107554627D01*
X99791367Y-107657463D01*
X99558630Y-107791834D01*
X99437972Y-107884417D01*
X99938283Y-108384728D01*
X99820534Y-108470278D01*
X99670278Y-108620534D01*
X99584728Y-108738283D01*
X99084417Y-108237972D01*
X98991834Y-108358630D01*
X98857463Y-108591367D01*
X98754627Y-108839635D01*
X98685075Y-109099209D01*
X98685075Y-109099214D01*
X98650000Y-109365634D01*
X97970500Y-109365634D01*
X97970500Y-104343749D01*
X100740000Y-104343749D01*
X100740000Y-104556250D01*
X100773240Y-104766121D01*
X100838904Y-104968215D01*
X100935376Y-105157553D01*
X100935380Y-105157559D01*
X100974728Y-105211716D01*
X100974729Y-105211716D01*
X101607037Y-104579407D01*
X101624075Y-104642993D01*
X101689901Y-104757007D01*
X101782993Y-104850099D01*
X101897007Y-104915925D01*
X101960589Y-104932962D01*
X101328282Y-105565269D01*
X101328282Y-105565270D01*
X101382440Y-105604619D01*
X101382446Y-105604623D01*
X101571784Y-105701095D01*
X101773878Y-105766759D01*
X101983750Y-105800000D01*
X102196250Y-105800000D01*
X102406121Y-105766759D01*
X102608215Y-105701095D01*
X102797556Y-105604620D01*
X102851716Y-105565270D01*
X102219408Y-104932962D01*
X102282993Y-104915925D01*
X102397007Y-104850099D01*
X102490099Y-104757007D01*
X102555925Y-104642993D01*
X102572962Y-104579408D01*
X103205270Y-105211716D01*
X103244620Y-105157556D01*
X103341096Y-104968213D01*
X103386345Y-104828951D01*
X103422309Y-104779450D01*
X103480500Y-104760543D01*
X103538691Y-104779450D01*
X103574655Y-104828950D01*
X103579500Y-104859543D01*
X103579500Y-105319746D01*
X103579501Y-105319758D01*
X103591132Y-105378227D01*
X103591133Y-105378231D01*
X103635448Y-105444552D01*
X103701769Y-105488867D01*
X103746231Y-105497711D01*
X103760241Y-105500498D01*
X103760246Y-105500498D01*
X103760252Y-105500500D01*
X103760253Y-105500500D01*
X105499747Y-105500500D01*
X105499748Y-105500500D01*
X105558231Y-105488867D01*
X105624552Y-105444552D01*
X105668867Y-105378231D01*
X105680500Y-105319748D01*
X105680500Y-105071506D01*
X107355000Y-105071506D01*
X107355000Y-105469999D01*
X107355001Y-105470000D01*
X108055000Y-105470000D01*
X108055000Y-105970000D01*
X107355001Y-105970000D01*
X107355000Y-105970001D01*
X107355000Y-106368493D01*
X107393429Y-106561688D01*
X107393429Y-106561690D01*
X107468808Y-106743673D01*
X107468814Y-106743685D01*
X107578249Y-106907462D01*
X107578252Y-106907466D01*
X107717533Y-107046747D01*
X107717537Y-107046750D01*
X107881314Y-107156185D01*
X107881326Y-107156191D01*
X108063304Y-107231568D01*
X108063315Y-107231571D01*
X108105000Y-107239862D01*
X108105000Y-106436988D01*
X108114940Y-106454205D01*
X108170795Y-106510060D01*
X108239204Y-106549556D01*
X108315504Y-106570000D01*
X108394496Y-106570000D01*
X108470796Y-106549556D01*
X108539205Y-106510060D01*
X108595060Y-106454205D01*
X108605000Y-106436988D01*
X108605000Y-107239861D01*
X108646684Y-107231571D01*
X108646695Y-107231568D01*
X108828673Y-107156191D01*
X108828685Y-107156185D01*
X108992462Y-107046750D01*
X108992466Y-107046747D01*
X109005105Y-107034108D01*
X112299500Y-107034108D01*
X112299500Y-107165892D01*
X112319320Y-107239861D01*
X112333609Y-107293190D01*
X112399496Y-107407309D01*
X112399498Y-107407311D01*
X112399500Y-107407314D01*
X112492686Y-107500500D01*
X112492688Y-107500501D01*
X112492690Y-107500503D01*
X112606810Y-107566390D01*
X112606808Y-107566390D01*
X112606812Y-107566391D01*
X112606814Y-107566392D01*
X112734108Y-107600500D01*
X112734110Y-107600500D01*
X112865890Y-107600500D01*
X112865892Y-107600500D01*
X112993186Y-107566392D01*
X112993188Y-107566390D01*
X112993190Y-107566390D01*
X113107309Y-107500503D01*
X113107309Y-107500502D01*
X113107314Y-107500500D01*
X113200500Y-107407314D01*
X113266392Y-107293186D01*
X113300500Y-107165892D01*
X113300500Y-107034108D01*
X113266392Y-106906814D01*
X113266390Y-106906811D01*
X113266390Y-106906809D01*
X113200503Y-106792690D01*
X113200501Y-106792688D01*
X113200500Y-106792686D01*
X113107314Y-106699500D01*
X113107311Y-106699498D01*
X113107309Y-106699496D01*
X112993189Y-106633609D01*
X112993191Y-106633609D01*
X112943799Y-106620375D01*
X112865892Y-106599500D01*
X112734108Y-106599500D01*
X112656200Y-106620375D01*
X112606809Y-106633609D01*
X112492690Y-106699496D01*
X112399496Y-106792690D01*
X112333609Y-106906809D01*
X112333608Y-106906814D01*
X112299500Y-107034108D01*
X109005105Y-107034108D01*
X109081599Y-106957615D01*
X109131747Y-106907466D01*
X109131750Y-106907462D01*
X109241185Y-106743685D01*
X109241191Y-106743673D01*
X109309717Y-106578235D01*
X109349453Y-106531709D01*
X109408948Y-106517425D01*
X109465476Y-106540839D01*
X109471171Y-106546103D01*
X109507158Y-106582090D01*
X109507160Y-106582091D01*
X109507162Y-106582093D01*
X109610337Y-106641661D01*
X109610335Y-106641661D01*
X109610339Y-106641662D01*
X109610341Y-106641663D01*
X109725427Y-106672500D01*
X109725429Y-106672500D01*
X109844571Y-106672500D01*
X109844573Y-106672500D01*
X109959659Y-106641663D01*
X109959661Y-106641661D01*
X109959663Y-106641661D01*
X110062837Y-106582093D01*
X110062837Y-106582092D01*
X110062842Y-106582090D01*
X110147090Y-106497842D01*
X110206663Y-106394659D01*
X110237500Y-106279573D01*
X110237500Y-106160427D01*
X115112500Y-106160427D01*
X115112500Y-106279573D01*
X115120518Y-106309496D01*
X115143338Y-106394663D01*
X115202906Y-106497837D01*
X115202908Y-106497839D01*
X115202910Y-106497842D01*
X115287158Y-106582090D01*
X115287160Y-106582091D01*
X115287162Y-106582093D01*
X115390337Y-106641661D01*
X115390335Y-106641661D01*
X115390339Y-106641662D01*
X115390341Y-106641663D01*
X115505427Y-106672500D01*
X115505429Y-106672500D01*
X115624571Y-106672500D01*
X115624573Y-106672500D01*
X115739659Y-106641663D01*
X115739661Y-106641661D01*
X115739663Y-106641661D01*
X115842837Y-106582093D01*
X115842837Y-106582092D01*
X115842842Y-106582090D01*
X115878816Y-106546115D01*
X115933330Y-106518339D01*
X115993762Y-106527910D01*
X116037027Y-106571174D01*
X116040282Y-106578234D01*
X116108810Y-106743676D01*
X116108814Y-106743685D01*
X116218249Y-106907462D01*
X116218252Y-106907466D01*
X116357533Y-107046747D01*
X116357537Y-107046750D01*
X116521314Y-107156185D01*
X116521326Y-107156191D01*
X116703304Y-107231568D01*
X116703315Y-107231571D01*
X116745000Y-107239862D01*
X116745000Y-106436988D01*
X116754940Y-106454205D01*
X116810795Y-106510060D01*
X116879204Y-106549556D01*
X116955504Y-106570000D01*
X117034496Y-106570000D01*
X117110796Y-106549556D01*
X117179205Y-106510060D01*
X117235060Y-106454205D01*
X117245000Y-106436988D01*
X117245000Y-107239861D01*
X117286684Y-107231571D01*
X117286695Y-107231568D01*
X117468673Y-107156191D01*
X117468685Y-107156185D01*
X117632462Y-107046750D01*
X117632466Y-107046747D01*
X117771747Y-106907466D01*
X117771750Y-106907462D01*
X117881185Y-106743685D01*
X117881191Y-106743673D01*
X117956570Y-106561690D01*
X117956570Y-106561688D01*
X117994999Y-106368493D01*
X117995000Y-106368490D01*
X117995000Y-105970001D01*
X117994999Y-105970000D01*
X117295000Y-105970000D01*
X117295000Y-105470000D01*
X117994999Y-105470000D01*
X117995000Y-105469999D01*
X117995000Y-105071509D01*
X117994999Y-105071506D01*
X117956570Y-104878311D01*
X117956570Y-104878309D01*
X117881191Y-104696326D01*
X117881185Y-104696314D01*
X117771750Y-104532537D01*
X117771747Y-104532533D01*
X117632466Y-104393252D01*
X117632462Y-104393249D01*
X117468685Y-104283814D01*
X117468673Y-104283808D01*
X117286691Y-104208429D01*
X117245000Y-104200136D01*
X117245000Y-105003011D01*
X117235060Y-104985795D01*
X117179205Y-104929940D01*
X117110796Y-104890444D01*
X117034496Y-104870000D01*
X116955504Y-104870000D01*
X116879204Y-104890444D01*
X116810795Y-104929940D01*
X116754940Y-104985795D01*
X116745000Y-105003011D01*
X116745000Y-104200136D01*
X116703308Y-104208429D01*
X116521326Y-104283808D01*
X116521314Y-104283814D01*
X116357537Y-104393249D01*
X116357533Y-104393252D01*
X116218252Y-104532533D01*
X116218249Y-104532537D01*
X116108814Y-104696314D01*
X116108808Y-104696326D01*
X116033429Y-104878309D01*
X116033429Y-104878311D01*
X115995000Y-105071506D01*
X115995000Y-105469999D01*
X115995001Y-105470000D01*
X116695000Y-105470000D01*
X116695000Y-105970000D01*
X115995939Y-105970000D01*
X115937748Y-105951093D01*
X115925941Y-105941009D01*
X115842842Y-105857910D01*
X115842839Y-105857908D01*
X115842837Y-105857906D01*
X115739662Y-105798338D01*
X115739664Y-105798338D01*
X115695008Y-105786373D01*
X115624573Y-105767500D01*
X115505427Y-105767500D01*
X115434991Y-105786373D01*
X115390336Y-105798338D01*
X115287162Y-105857906D01*
X115202906Y-105942162D01*
X115143338Y-106045336D01*
X115143337Y-106045341D01*
X115112500Y-106160427D01*
X110237500Y-106160427D01*
X110206663Y-106045341D01*
X110206661Y-106045338D01*
X110206661Y-106045336D01*
X110147093Y-105942162D01*
X110147091Y-105942160D01*
X110147090Y-105942158D01*
X110062842Y-105857910D01*
X110062839Y-105857908D01*
X110062837Y-105857906D01*
X109959662Y-105798338D01*
X109959664Y-105798338D01*
X109915008Y-105786373D01*
X109844573Y-105767500D01*
X109725427Y-105767500D01*
X109654991Y-105786373D01*
X109610336Y-105798338D01*
X109507162Y-105857906D01*
X109507161Y-105857907D01*
X109507158Y-105857909D01*
X109507158Y-105857910D01*
X109424062Y-105941005D01*
X109369548Y-105968781D01*
X109354061Y-105970000D01*
X108655000Y-105970000D01*
X108655000Y-105470000D01*
X109354999Y-105470000D01*
X109355000Y-105469999D01*
X109355000Y-105071509D01*
X109354999Y-105071506D01*
X109316570Y-104878311D01*
X109316570Y-104878309D01*
X109241191Y-104696326D01*
X109241185Y-104696314D01*
X109131750Y-104532537D01*
X109131747Y-104532533D01*
X108992466Y-104393252D01*
X108992462Y-104393249D01*
X108828685Y-104283814D01*
X108828673Y-104283808D01*
X108646691Y-104208429D01*
X108605000Y-104200136D01*
X108605000Y-105003011D01*
X108595060Y-104985795D01*
X108539205Y-104929940D01*
X108470796Y-104890444D01*
X108394496Y-104870000D01*
X108315504Y-104870000D01*
X108239204Y-104890444D01*
X108170795Y-104929940D01*
X108114940Y-104985795D01*
X108105000Y-105003011D01*
X108105000Y-104200136D01*
X108063308Y-104208429D01*
X107881326Y-104283808D01*
X107881314Y-104283814D01*
X107717537Y-104393249D01*
X107717533Y-104393252D01*
X107578252Y-104532533D01*
X107578249Y-104532537D01*
X107468814Y-104696314D01*
X107468808Y-104696326D01*
X107393429Y-104878309D01*
X107393429Y-104878311D01*
X107355000Y-105071506D01*
X105680500Y-105071506D01*
X105680500Y-103580252D01*
X105668867Y-103521769D01*
X105624552Y-103455448D01*
X105580083Y-103425734D01*
X105558233Y-103411134D01*
X105558231Y-103411133D01*
X105558228Y-103411132D01*
X105558227Y-103411132D01*
X105499758Y-103399501D01*
X105499748Y-103399500D01*
X103760252Y-103399500D01*
X103760251Y-103399500D01*
X103760241Y-103399501D01*
X103701772Y-103411132D01*
X103701766Y-103411134D01*
X103635451Y-103455445D01*
X103635445Y-103455451D01*
X103591134Y-103521766D01*
X103591132Y-103521772D01*
X103579501Y-103580241D01*
X103579500Y-103580253D01*
X103579500Y-104040456D01*
X103560593Y-104098647D01*
X103511093Y-104134611D01*
X103449907Y-104134611D01*
X103400407Y-104098647D01*
X103386345Y-104071049D01*
X103341095Y-103931784D01*
X103244623Y-103742446D01*
X103244619Y-103742440D01*
X103205270Y-103688282D01*
X103205269Y-103688282D01*
X102572962Y-104320589D01*
X102555925Y-104257007D01*
X102490099Y-104142993D01*
X102397007Y-104049901D01*
X102282993Y-103984075D01*
X102219407Y-103967037D01*
X102851716Y-103334729D01*
X102851716Y-103334728D01*
X102797559Y-103295380D01*
X102797553Y-103295376D01*
X102621805Y-103205829D01*
X102621802Y-103205826D01*
X102608220Y-103198906D01*
X102406121Y-103133240D01*
X102348463Y-103124108D01*
X107499500Y-103124108D01*
X107499500Y-103255892D01*
X107502508Y-103267117D01*
X107533609Y-103383190D01*
X107599496Y-103497309D01*
X107599498Y-103497311D01*
X107599500Y-103497314D01*
X107692686Y-103590500D01*
X107692688Y-103590501D01*
X107692690Y-103590503D01*
X107806810Y-103656390D01*
X107806808Y-103656390D01*
X107806812Y-103656391D01*
X107806814Y-103656392D01*
X107934108Y-103690500D01*
X107934110Y-103690500D01*
X108065890Y-103690500D01*
X108065892Y-103690500D01*
X108193186Y-103656392D01*
X108193188Y-103656390D01*
X108193190Y-103656390D01*
X108307309Y-103590503D01*
X108307309Y-103590502D01*
X108307314Y-103590500D01*
X108400500Y-103497314D01*
X108424670Y-103455451D01*
X108466390Y-103383190D01*
X108466390Y-103383188D01*
X108466392Y-103383186D01*
X108500500Y-103255892D01*
X108500500Y-103124108D01*
X116099500Y-103124108D01*
X116099500Y-103255892D01*
X116102508Y-103267117D01*
X116133609Y-103383190D01*
X116199496Y-103497309D01*
X116199498Y-103497311D01*
X116199500Y-103497314D01*
X116292686Y-103590500D01*
X116292688Y-103590501D01*
X116292690Y-103590503D01*
X116406810Y-103656390D01*
X116406808Y-103656390D01*
X116406812Y-103656391D01*
X116406814Y-103656392D01*
X116534108Y-103690500D01*
X116534110Y-103690500D01*
X116665890Y-103690500D01*
X116665892Y-103690500D01*
X116793186Y-103656392D01*
X116793188Y-103656390D01*
X116793190Y-103656390D01*
X116907309Y-103590503D01*
X116907309Y-103590502D01*
X116907314Y-103590500D01*
X117000500Y-103497314D01*
X117024670Y-103455451D01*
X117066390Y-103383190D01*
X117066390Y-103383188D01*
X117066392Y-103383186D01*
X117100500Y-103255892D01*
X117100500Y-103124108D01*
X117066392Y-102996814D01*
X117066390Y-102996811D01*
X117066390Y-102996809D01*
X117000503Y-102882690D01*
X117000501Y-102882688D01*
X117000500Y-102882686D01*
X116907314Y-102789500D01*
X116907311Y-102789498D01*
X116907309Y-102789496D01*
X116793189Y-102723609D01*
X116793191Y-102723609D01*
X116743799Y-102710375D01*
X116665892Y-102689500D01*
X116534108Y-102689500D01*
X116456200Y-102710375D01*
X116406809Y-102723609D01*
X116292690Y-102789496D01*
X116199496Y-102882690D01*
X116133609Y-102996809D01*
X116124085Y-103032353D01*
X116099500Y-103124108D01*
X108500500Y-103124108D01*
X108466392Y-102996814D01*
X108466390Y-102996811D01*
X108466390Y-102996809D01*
X108400503Y-102882690D01*
X108400501Y-102882688D01*
X108400500Y-102882686D01*
X108307314Y-102789500D01*
X108307311Y-102789498D01*
X108307309Y-102789496D01*
X108193189Y-102723609D01*
X108193191Y-102723609D01*
X108143799Y-102710375D01*
X108065892Y-102689500D01*
X107934108Y-102689500D01*
X107856200Y-102710375D01*
X107806809Y-102723609D01*
X107692690Y-102789496D01*
X107599496Y-102882690D01*
X107533609Y-102996809D01*
X107524085Y-103032353D01*
X107499500Y-103124108D01*
X102348463Y-103124108D01*
X102196250Y-103100000D01*
X101983750Y-103100000D01*
X101773878Y-103133240D01*
X101571784Y-103198904D01*
X101382446Y-103295376D01*
X101382442Y-103295378D01*
X101328282Y-103334728D01*
X101960591Y-103967037D01*
X101897007Y-103984075D01*
X101782993Y-104049901D01*
X101689901Y-104142993D01*
X101624075Y-104257007D01*
X101607037Y-104320591D01*
X100974728Y-103688282D01*
X100935378Y-103742442D01*
X100935376Y-103742446D01*
X100838904Y-103931784D01*
X100773240Y-104133878D01*
X100740000Y-104343749D01*
X97970500Y-104343749D01*
X97970500Y-100454108D01*
X114559500Y-100454108D01*
X114559500Y-100585892D01*
X114560602Y-100590004D01*
X114593609Y-100713190D01*
X114659496Y-100827309D01*
X114659498Y-100827311D01*
X114659500Y-100827314D01*
X114752686Y-100920500D01*
X114752688Y-100920501D01*
X114752690Y-100920503D01*
X114866810Y-100986390D01*
X114866808Y-100986390D01*
X114866812Y-100986391D01*
X114866814Y-100986392D01*
X114994108Y-101020500D01*
X114994110Y-101020500D01*
X115125890Y-101020500D01*
X115125892Y-101020500D01*
X115253186Y-100986392D01*
X115253188Y-100986390D01*
X115253190Y-100986390D01*
X115367309Y-100920503D01*
X115367309Y-100920502D01*
X115367314Y-100920500D01*
X115460500Y-100827314D01*
X115526392Y-100713186D01*
X115560500Y-100585892D01*
X115560500Y-100454108D01*
X115526392Y-100326814D01*
X115526390Y-100326811D01*
X115526390Y-100326809D01*
X115460503Y-100212690D01*
X115460501Y-100212688D01*
X115460500Y-100212686D01*
X115367314Y-100119500D01*
X115367311Y-100119498D01*
X115367309Y-100119496D01*
X115253189Y-100053609D01*
X115253191Y-100053609D01*
X115203799Y-100040375D01*
X115125892Y-100019500D01*
X114994108Y-100019500D01*
X114916200Y-100040375D01*
X114866809Y-100053609D01*
X114752690Y-100119496D01*
X114659496Y-100212690D01*
X114593609Y-100326809D01*
X114584103Y-100362287D01*
X114559500Y-100454108D01*
X97970500Y-100454108D01*
X97970500Y-99034108D01*
X114659500Y-99034108D01*
X114659500Y-99165892D01*
X114689579Y-99278151D01*
X114693609Y-99293190D01*
X114759496Y-99407309D01*
X114759498Y-99407311D01*
X114759500Y-99407314D01*
X114852686Y-99500500D01*
X114852688Y-99500501D01*
X114852690Y-99500503D01*
X114966810Y-99566390D01*
X114966808Y-99566390D01*
X114966812Y-99566391D01*
X114966814Y-99566392D01*
X115094108Y-99600500D01*
X115094110Y-99600500D01*
X115225890Y-99600500D01*
X115225892Y-99600500D01*
X115353186Y-99566392D01*
X115353188Y-99566390D01*
X115353190Y-99566390D01*
X115467309Y-99500503D01*
X115467309Y-99500502D01*
X115467314Y-99500500D01*
X115560500Y-99407314D01*
X115592231Y-99352355D01*
X115626390Y-99293190D01*
X115626390Y-99293188D01*
X115626392Y-99293186D01*
X115660500Y-99165892D01*
X115660500Y-99034108D01*
X115626392Y-98906814D01*
X115626390Y-98906811D01*
X115626390Y-98906809D01*
X115560503Y-98792690D01*
X115560501Y-98792688D01*
X115560500Y-98792686D01*
X115467314Y-98699500D01*
X115467311Y-98699498D01*
X115467309Y-98699496D01*
X115353189Y-98633609D01*
X115353191Y-98633609D01*
X115303799Y-98620375D01*
X115225892Y-98599500D01*
X115094108Y-98599500D01*
X115016200Y-98620375D01*
X114966809Y-98633609D01*
X114852690Y-98699496D01*
X114759496Y-98792690D01*
X114693609Y-98906809D01*
X114693608Y-98906814D01*
X114659500Y-99034108D01*
X97970500Y-99034108D01*
X97970500Y-97685709D01*
X116816500Y-97685709D01*
X116816500Y-97817493D01*
X116846579Y-97929752D01*
X116850609Y-97944791D01*
X116916496Y-98058910D01*
X116916498Y-98058912D01*
X116916500Y-98058915D01*
X117009686Y-98152101D01*
X117009688Y-98152102D01*
X117009690Y-98152104D01*
X117123810Y-98217991D01*
X117123808Y-98217991D01*
X117123812Y-98217992D01*
X117123814Y-98217993D01*
X117251108Y-98252101D01*
X117251110Y-98252101D01*
X117382890Y-98252101D01*
X117382892Y-98252101D01*
X117510186Y-98217993D01*
X117510188Y-98217991D01*
X117510190Y-98217991D01*
X117624309Y-98152104D01*
X117624309Y-98152103D01*
X117624314Y-98152101D01*
X117717500Y-98058915D01*
X117725661Y-98044780D01*
X117783390Y-97944791D01*
X117783390Y-97944789D01*
X117783392Y-97944787D01*
X117817500Y-97817493D01*
X117817500Y-97685709D01*
X117783392Y-97558415D01*
X117783390Y-97558412D01*
X117783390Y-97558410D01*
X117717503Y-97444291D01*
X117717501Y-97444289D01*
X117717500Y-97444287D01*
X117624314Y-97351101D01*
X117624311Y-97351099D01*
X117624309Y-97351097D01*
X117510189Y-97285210D01*
X117510191Y-97285210D01*
X117460799Y-97271976D01*
X117382892Y-97251101D01*
X117251108Y-97251101D01*
X117173200Y-97271976D01*
X117123809Y-97285210D01*
X117009690Y-97351097D01*
X116916496Y-97444291D01*
X116850609Y-97558410D01*
X116831539Y-97629579D01*
X116816500Y-97685709D01*
X97970500Y-97685709D01*
X97970500Y-96374108D01*
X115369500Y-96374108D01*
X115369500Y-96505892D01*
X115390448Y-96584073D01*
X115403609Y-96633190D01*
X115469496Y-96747309D01*
X115469498Y-96747311D01*
X115469500Y-96747314D01*
X115562686Y-96840500D01*
X115562688Y-96840501D01*
X115562690Y-96840503D01*
X115676810Y-96906390D01*
X115676808Y-96906390D01*
X115676812Y-96906391D01*
X115676814Y-96906392D01*
X115804108Y-96940500D01*
X115804110Y-96940500D01*
X115935890Y-96940500D01*
X115935892Y-96940500D01*
X116063186Y-96906392D01*
X116063188Y-96906390D01*
X116063190Y-96906390D01*
X116177309Y-96840503D01*
X116177309Y-96840502D01*
X116177314Y-96840500D01*
X116270500Y-96747314D01*
X116336392Y-96633186D01*
X116370500Y-96505892D01*
X116370500Y-96374108D01*
X116336392Y-96246814D01*
X116336390Y-96246811D01*
X116336390Y-96246809D01*
X116270503Y-96132690D01*
X116270501Y-96132688D01*
X116270500Y-96132686D01*
X116177314Y-96039500D01*
X116177311Y-96039498D01*
X116177309Y-96039496D01*
X116063189Y-95973609D01*
X116063191Y-95973609D01*
X116013799Y-95960375D01*
X115935892Y-95939500D01*
X115804108Y-95939500D01*
X115726200Y-95960375D01*
X115676809Y-95973609D01*
X115562690Y-96039496D01*
X115469496Y-96132690D01*
X115403609Y-96246809D01*
X115403608Y-96246814D01*
X115369500Y-96374108D01*
X97970500Y-96374108D01*
X97970500Y-94245758D01*
X109931150Y-94245758D01*
X109931150Y-94377542D01*
X109946307Y-94434108D01*
X109965259Y-94504840D01*
X110031146Y-94618959D01*
X110031148Y-94618961D01*
X110031150Y-94618964D01*
X110124336Y-94712150D01*
X110124338Y-94712151D01*
X110124340Y-94712153D01*
X110238460Y-94778040D01*
X110238458Y-94778040D01*
X110238462Y-94778041D01*
X110238464Y-94778042D01*
X110365758Y-94812150D01*
X110365760Y-94812150D01*
X110497540Y-94812150D01*
X110497542Y-94812150D01*
X110624836Y-94778042D01*
X110624838Y-94778040D01*
X110624840Y-94778040D01*
X110738959Y-94712153D01*
X110738959Y-94712152D01*
X110738964Y-94712150D01*
X110832150Y-94618964D01*
X110862791Y-94565892D01*
X110898040Y-94504840D01*
X110898040Y-94504838D01*
X110898042Y-94504836D01*
X110916993Y-94434108D01*
X111699500Y-94434108D01*
X111699500Y-94565892D01*
X111718390Y-94636392D01*
X111733609Y-94693190D01*
X111799496Y-94807309D01*
X111799498Y-94807311D01*
X111799500Y-94807314D01*
X111892686Y-94900500D01*
X111892688Y-94900501D01*
X111892690Y-94900503D01*
X112006810Y-94966390D01*
X112006808Y-94966390D01*
X112006812Y-94966391D01*
X112006814Y-94966392D01*
X112134108Y-95000500D01*
X112134110Y-95000500D01*
X112265890Y-95000500D01*
X112265892Y-95000500D01*
X112393186Y-94966392D01*
X112393188Y-94966390D01*
X112393190Y-94966390D01*
X112507309Y-94900503D01*
X112507309Y-94900502D01*
X112507314Y-94900500D01*
X112600500Y-94807314D01*
X112617400Y-94778042D01*
X112666390Y-94693190D01*
X112666390Y-94693188D01*
X112666392Y-94693186D01*
X112700500Y-94565892D01*
X112700500Y-94434108D01*
X112666392Y-94306814D01*
X112666390Y-94306811D01*
X112666390Y-94306809D01*
X112600503Y-94192690D01*
X112600501Y-94192688D01*
X112600500Y-94192686D01*
X112511924Y-94104110D01*
X115074500Y-94104110D01*
X115074500Y-94235894D01*
X115093503Y-94306814D01*
X115108609Y-94363192D01*
X115174496Y-94477311D01*
X115174498Y-94477313D01*
X115174500Y-94477316D01*
X115267686Y-94570502D01*
X115267688Y-94570503D01*
X115267690Y-94570505D01*
X115381810Y-94636392D01*
X115381808Y-94636392D01*
X115381812Y-94636393D01*
X115381814Y-94636394D01*
X115509108Y-94670502D01*
X115509110Y-94670502D01*
X115640890Y-94670502D01*
X115640892Y-94670502D01*
X115768186Y-94636394D01*
X115768188Y-94636392D01*
X115768190Y-94636392D01*
X115882309Y-94570505D01*
X115882309Y-94570504D01*
X115882314Y-94570502D01*
X115975500Y-94477316D01*
X116041392Y-94363188D01*
X116075500Y-94235894D01*
X116075500Y-94104110D01*
X116041392Y-93976816D01*
X116041390Y-93976813D01*
X116041390Y-93976811D01*
X115975503Y-93862692D01*
X115975501Y-93862690D01*
X115975500Y-93862688D01*
X115882314Y-93769502D01*
X115882311Y-93769500D01*
X115882309Y-93769498D01*
X115768189Y-93703611D01*
X115768191Y-93703611D01*
X115718799Y-93690377D01*
X115640892Y-93669502D01*
X115509108Y-93669502D01*
X115431200Y-93690377D01*
X115381809Y-93703611D01*
X115267690Y-93769498D01*
X115174496Y-93862692D01*
X115108609Y-93976811D01*
X115089539Y-94047980D01*
X115074500Y-94104110D01*
X112511924Y-94104110D01*
X112507314Y-94099500D01*
X112507311Y-94099498D01*
X112507309Y-94099496D01*
X112393189Y-94033609D01*
X112393191Y-94033609D01*
X112343799Y-94020375D01*
X112265892Y-93999500D01*
X112134108Y-93999500D01*
X112056200Y-94020375D01*
X112006809Y-94033609D01*
X111892690Y-94099496D01*
X111799496Y-94192690D01*
X111733609Y-94306809D01*
X111733608Y-94306814D01*
X111699500Y-94434108D01*
X110916993Y-94434108D01*
X110932150Y-94377542D01*
X110932150Y-94245758D01*
X110898042Y-94118464D01*
X110898040Y-94118461D01*
X110898040Y-94118459D01*
X110832153Y-94004340D01*
X110832151Y-94004338D01*
X110832150Y-94004336D01*
X110738964Y-93911150D01*
X110738961Y-93911148D01*
X110738959Y-93911146D01*
X110624839Y-93845259D01*
X110624841Y-93845259D01*
X110575449Y-93832025D01*
X110497542Y-93811150D01*
X110365758Y-93811150D01*
X110287850Y-93832025D01*
X110238459Y-93845259D01*
X110124340Y-93911146D01*
X110031146Y-94004340D01*
X109965259Y-94118459D01*
X109965258Y-94118464D01*
X109931150Y-94245758D01*
X97970500Y-94245758D01*
X97970500Y-93234108D01*
X107699500Y-93234108D01*
X107699500Y-93365892D01*
X107710105Y-93405471D01*
X107733609Y-93493190D01*
X107799496Y-93607309D01*
X107799498Y-93607311D01*
X107799500Y-93607314D01*
X107892686Y-93700500D01*
X107892688Y-93700501D01*
X107892690Y-93700503D01*
X108006810Y-93766390D01*
X108006808Y-93766390D01*
X108006812Y-93766391D01*
X108006814Y-93766392D01*
X108134108Y-93800500D01*
X108134110Y-93800500D01*
X108265890Y-93800500D01*
X108265892Y-93800500D01*
X108393186Y-93766392D01*
X108393188Y-93766390D01*
X108393190Y-93766390D01*
X108507309Y-93700503D01*
X108507309Y-93700502D01*
X108507314Y-93700500D01*
X108600500Y-93607314D01*
X108666392Y-93493186D01*
X108689895Y-93405468D01*
X108723218Y-93354156D01*
X108780339Y-93332229D01*
X108830649Y-93344309D01*
X108830816Y-93343908D01*
X108833348Y-93344957D01*
X108835027Y-93345360D01*
X108836810Y-93346390D01*
X108836814Y-93346392D01*
X108964108Y-93380500D01*
X108964110Y-93380500D01*
X109095890Y-93380500D01*
X109095892Y-93380500D01*
X109223186Y-93346392D01*
X109223188Y-93346390D01*
X109223190Y-93346390D01*
X109337309Y-93280503D01*
X109337309Y-93280502D01*
X109337314Y-93280500D01*
X109430500Y-93187314D01*
X109436274Y-93177314D01*
X109496390Y-93073190D01*
X109496390Y-93073188D01*
X109496392Y-93073186D01*
X109530500Y-92945892D01*
X109530500Y-92814108D01*
X109527821Y-92804108D01*
X112469500Y-92804108D01*
X112469500Y-92935892D01*
X112499579Y-93048151D01*
X112503609Y-93063190D01*
X112569496Y-93177309D01*
X112569498Y-93177311D01*
X112569500Y-93177314D01*
X112662686Y-93270500D01*
X112662688Y-93270501D01*
X112662690Y-93270503D01*
X112776810Y-93336390D01*
X112776808Y-93336390D01*
X112776812Y-93336391D01*
X112776814Y-93336392D01*
X112904108Y-93370500D01*
X112904110Y-93370500D01*
X113035890Y-93370500D01*
X113035892Y-93370500D01*
X113163186Y-93336392D01*
X113163188Y-93336390D01*
X113163190Y-93336390D01*
X113277309Y-93270503D01*
X113277309Y-93270502D01*
X113277314Y-93270500D01*
X113370500Y-93177314D01*
X113410918Y-93107309D01*
X113436390Y-93063190D01*
X113436390Y-93063188D01*
X113436392Y-93063186D01*
X113470500Y-92935892D01*
X113470500Y-92804108D01*
X113436392Y-92676814D01*
X113436390Y-92676811D01*
X113436390Y-92676809D01*
X113370503Y-92562690D01*
X113370501Y-92562688D01*
X113370500Y-92562686D01*
X113277314Y-92469500D01*
X113277311Y-92469498D01*
X113277309Y-92469496D01*
X113163189Y-92403609D01*
X113163191Y-92403609D01*
X113113799Y-92390375D01*
X113035892Y-92369500D01*
X112904108Y-92369500D01*
X112826200Y-92390375D01*
X112776809Y-92403609D01*
X112662690Y-92469496D01*
X112569496Y-92562690D01*
X112503609Y-92676809D01*
X112488256Y-92734108D01*
X112469500Y-92804108D01*
X109527821Y-92804108D01*
X109496392Y-92686814D01*
X109496390Y-92686811D01*
X109496390Y-92686809D01*
X109430503Y-92572690D01*
X109430501Y-92572688D01*
X109430500Y-92572686D01*
X109337314Y-92479500D01*
X109337311Y-92479498D01*
X109337309Y-92479496D01*
X109223189Y-92413609D01*
X109223191Y-92413609D01*
X109170519Y-92399496D01*
X109095892Y-92379500D01*
X108964108Y-92379500D01*
X108889481Y-92399496D01*
X108836809Y-92413609D01*
X108722690Y-92479496D01*
X108629496Y-92572690D01*
X108563609Y-92686809D01*
X108540105Y-92774529D01*
X108506780Y-92825844D01*
X108449659Y-92847770D01*
X108399350Y-92835691D01*
X108399184Y-92836092D01*
X108396652Y-92835043D01*
X108394976Y-92834641D01*
X108393189Y-92833609D01*
X108393186Y-92833608D01*
X108265892Y-92799500D01*
X108134108Y-92799500D01*
X108056200Y-92820375D01*
X108006809Y-92833609D01*
X107892690Y-92899496D01*
X107799496Y-92992690D01*
X107733609Y-93106809D01*
X107714719Y-93177309D01*
X107699500Y-93234108D01*
X97970500Y-93234108D01*
X97970500Y-90693749D01*
X98860000Y-90693749D01*
X98860000Y-90906250D01*
X98893240Y-91116121D01*
X98958904Y-91318215D01*
X99055376Y-91507553D01*
X99055380Y-91507559D01*
X99094728Y-91561716D01*
X99094729Y-91561716D01*
X99727037Y-90929407D01*
X99744075Y-90992993D01*
X99809901Y-91107007D01*
X99902993Y-91200099D01*
X100017007Y-91265925D01*
X100080589Y-91282962D01*
X99448282Y-91915269D01*
X99448282Y-91915270D01*
X99502440Y-91954619D01*
X99502446Y-91954623D01*
X99691784Y-92051095D01*
X99893878Y-92116759D01*
X100103750Y-92150000D01*
X100316250Y-92150000D01*
X100526121Y-92116759D01*
X100728215Y-92051095D01*
X100917556Y-91954620D01*
X100971716Y-91915270D01*
X100790554Y-91734108D01*
X103799500Y-91734108D01*
X103799500Y-91865892D01*
X103812731Y-91915270D01*
X103833609Y-91993190D01*
X103899496Y-92107309D01*
X103899498Y-92107311D01*
X103899500Y-92107314D01*
X103992686Y-92200500D01*
X103992688Y-92200501D01*
X103992690Y-92200503D01*
X104106810Y-92266390D01*
X104106808Y-92266390D01*
X104106812Y-92266391D01*
X104106814Y-92266392D01*
X104234108Y-92300500D01*
X104234110Y-92300500D01*
X104365890Y-92300500D01*
X104365892Y-92300500D01*
X104493186Y-92266392D01*
X104493188Y-92266390D01*
X104493190Y-92266390D01*
X104607309Y-92200503D01*
X104607309Y-92200502D01*
X104607314Y-92200500D01*
X104700500Y-92107314D01*
X104766392Y-91993186D01*
X104800500Y-91865892D01*
X104800500Y-91734108D01*
X104766392Y-91606814D01*
X104766390Y-91606811D01*
X104766390Y-91606809D01*
X104700503Y-91492690D01*
X104700501Y-91492688D01*
X104700500Y-91492686D01*
X104607314Y-91399500D01*
X104607311Y-91399498D01*
X104607309Y-91399496D01*
X104493189Y-91333609D01*
X104493191Y-91333609D01*
X104435738Y-91318215D01*
X104365892Y-91299500D01*
X104234108Y-91299500D01*
X104164262Y-91318215D01*
X104106809Y-91333609D01*
X103992690Y-91399496D01*
X103899496Y-91492690D01*
X103833609Y-91606809D01*
X103819626Y-91658997D01*
X103799500Y-91734108D01*
X100790554Y-91734108D01*
X100339408Y-91282962D01*
X100402993Y-91265925D01*
X100517007Y-91200099D01*
X100610099Y-91107007D01*
X100675925Y-90992993D01*
X100692962Y-90929408D01*
X101325270Y-91561716D01*
X101364620Y-91507556D01*
X101461095Y-91318215D01*
X101496362Y-91209675D01*
X105788641Y-91209675D01*
X105788641Y-91341459D01*
X105796749Y-91371717D01*
X105822750Y-91468757D01*
X105888637Y-91582876D01*
X105888639Y-91582878D01*
X105888641Y-91582881D01*
X105981827Y-91676067D01*
X105981829Y-91676068D01*
X105981831Y-91676070D01*
X106095951Y-91741957D01*
X106095949Y-91741957D01*
X106095953Y-91741958D01*
X106095955Y-91741959D01*
X106223249Y-91776067D01*
X106223251Y-91776067D01*
X106355031Y-91776067D01*
X106355033Y-91776067D01*
X106482327Y-91741959D01*
X106482329Y-91741957D01*
X106482331Y-91741957D01*
X106596450Y-91676070D01*
X106596450Y-91676069D01*
X106596455Y-91676067D01*
X106659387Y-91613135D01*
X119099990Y-91613135D01*
X119099990Y-91744919D01*
X119108336Y-91776067D01*
X119134099Y-91872217D01*
X119199986Y-91986336D01*
X119199988Y-91986338D01*
X119199990Y-91986341D01*
X119293176Y-92079527D01*
X119293178Y-92079528D01*
X119293180Y-92079530D01*
X119407300Y-92145417D01*
X119407298Y-92145417D01*
X119407302Y-92145418D01*
X119407304Y-92145419D01*
X119534598Y-92179527D01*
X119534600Y-92179527D01*
X119666380Y-92179527D01*
X119666382Y-92179527D01*
X119793676Y-92145419D01*
X119793678Y-92145417D01*
X119793680Y-92145417D01*
X119907799Y-92079530D01*
X119907799Y-92079529D01*
X119907804Y-92079527D01*
X120000990Y-91986341D01*
X120011748Y-91967708D01*
X120066880Y-91872217D01*
X120066880Y-91872215D01*
X120066882Y-91872213D01*
X120100990Y-91744919D01*
X120100990Y-91613135D01*
X120066882Y-91485841D01*
X120066880Y-91485838D01*
X120066880Y-91485836D01*
X120018589Y-91402194D01*
X120005867Y-91342346D01*
X120030754Y-91286450D01*
X120078700Y-91257068D01*
X120193186Y-91226392D01*
X120193188Y-91226390D01*
X120193190Y-91226390D01*
X120307309Y-91160503D01*
X120307309Y-91160502D01*
X120307314Y-91160500D01*
X120400500Y-91067314D01*
X120440918Y-90997309D01*
X120466390Y-90953190D01*
X120466391Y-90953187D01*
X120466392Y-90953186D01*
X120500500Y-90825892D01*
X120500500Y-90694108D01*
X120466392Y-90566814D01*
X120466390Y-90566811D01*
X120466390Y-90566809D01*
X120400503Y-90452690D01*
X120400501Y-90452688D01*
X120400500Y-90452686D01*
X120307314Y-90359500D01*
X120307311Y-90359498D01*
X120307309Y-90359496D01*
X120193189Y-90293609D01*
X120193191Y-90293609D01*
X120143799Y-90280375D01*
X120065892Y-90259500D01*
X119934108Y-90259500D01*
X119856200Y-90280375D01*
X119806809Y-90293609D01*
X119692690Y-90359496D01*
X119599496Y-90452690D01*
X119533609Y-90566809D01*
X119522838Y-90607007D01*
X119499500Y-90694108D01*
X119499500Y-90825892D01*
X119514852Y-90883186D01*
X119533608Y-90953187D01*
X119581901Y-91036832D01*
X119594622Y-91096680D01*
X119569735Y-91152576D01*
X119521788Y-91181958D01*
X119407304Y-91212634D01*
X119407300Y-91212636D01*
X119293180Y-91278523D01*
X119199986Y-91371717D01*
X119134099Y-91485836D01*
X119115029Y-91557005D01*
X119099990Y-91613135D01*
X106659387Y-91613135D01*
X106689641Y-91582881D01*
X106701861Y-91561716D01*
X106704500Y-91557146D01*
X106755531Y-91468757D01*
X106755531Y-91468755D01*
X106755533Y-91468753D01*
X106789641Y-91341459D01*
X106789641Y-91265460D01*
X106808548Y-91207269D01*
X106858048Y-91171305D01*
X106862980Y-91169844D01*
X106913186Y-91156392D01*
X107027314Y-91090500D01*
X107120500Y-90997314D01*
X107137276Y-90968257D01*
X107186390Y-90883190D01*
X107186390Y-90883188D01*
X107186392Y-90883186D01*
X107220500Y-90755892D01*
X107220500Y-90624108D01*
X107186392Y-90496814D01*
X107186390Y-90496811D01*
X107186390Y-90496809D01*
X107120503Y-90382690D01*
X107120501Y-90382688D01*
X107120500Y-90382686D01*
X107027314Y-90289500D01*
X107027311Y-90289498D01*
X107027309Y-90289496D01*
X106913189Y-90223609D01*
X106913191Y-90223609D01*
X106863799Y-90210375D01*
X106785892Y-90189500D01*
X106654108Y-90189500D01*
X106576200Y-90210375D01*
X106526809Y-90223609D01*
X106412690Y-90289496D01*
X106319496Y-90382690D01*
X106253609Y-90496809D01*
X106219500Y-90624109D01*
X106219500Y-90700106D01*
X106200593Y-90758297D01*
X106151093Y-90794261D01*
X106146135Y-90795729D01*
X106130201Y-90799999D01*
X106095950Y-90809176D01*
X105981831Y-90875063D01*
X105888637Y-90968257D01*
X105822750Y-91082376D01*
X105813708Y-91116121D01*
X105788641Y-91209675D01*
X101496362Y-91209675D01*
X101526759Y-91116121D01*
X101560000Y-90906250D01*
X101560000Y-90693749D01*
X101526759Y-90483878D01*
X101461095Y-90281784D01*
X101364623Y-90092446D01*
X101364621Y-90092444D01*
X101362625Y-90089696D01*
X101362624Y-90089694D01*
X101362623Y-90089693D01*
X101325270Y-90038282D01*
X101325269Y-90038282D01*
X100692962Y-90670589D01*
X100675925Y-90607007D01*
X100610099Y-90492993D01*
X100517007Y-90399901D01*
X100402993Y-90334075D01*
X100339407Y-90317037D01*
X100618453Y-90037991D01*
X110603383Y-90037991D01*
X110603383Y-90169775D01*
X110633395Y-90281784D01*
X110637492Y-90297073D01*
X110703379Y-90411192D01*
X110703381Y-90411194D01*
X110703383Y-90411197D01*
X110796569Y-90504383D01*
X110796571Y-90504384D01*
X110796573Y-90504386D01*
X110910693Y-90570273D01*
X110910691Y-90570273D01*
X110910695Y-90570274D01*
X110910697Y-90570275D01*
X111037991Y-90604383D01*
X111037993Y-90604383D01*
X111169773Y-90604383D01*
X111169775Y-90604383D01*
X111297069Y-90570275D01*
X111297071Y-90570273D01*
X111297073Y-90570273D01*
X111411192Y-90504386D01*
X111411192Y-90504385D01*
X111411197Y-90504383D01*
X111504383Y-90411197D01*
X111510905Y-90399901D01*
X111570273Y-90297073D01*
X111570273Y-90297071D01*
X111570275Y-90297069D01*
X111604383Y-90169775D01*
X111604383Y-90037991D01*
X111570275Y-89910697D01*
X111570273Y-89910694D01*
X111570273Y-89910692D01*
X111504386Y-89796573D01*
X111504384Y-89796571D01*
X111504383Y-89796569D01*
X111411197Y-89703383D01*
X111411194Y-89703381D01*
X111411192Y-89703379D01*
X111297072Y-89637492D01*
X111297074Y-89637492D01*
X111247682Y-89624258D01*
X111169775Y-89603383D01*
X111037991Y-89603383D01*
X110960083Y-89624258D01*
X110910692Y-89637492D01*
X110796573Y-89703379D01*
X110703379Y-89796573D01*
X110637492Y-89910692D01*
X110618422Y-89981861D01*
X110603383Y-90037991D01*
X100618453Y-90037991D01*
X100971716Y-89684729D01*
X100971716Y-89684728D01*
X100917559Y-89645380D01*
X100917553Y-89645376D01*
X100728215Y-89548904D01*
X100526122Y-89483241D01*
X100471822Y-89474640D01*
X100417306Y-89446862D01*
X100389529Y-89392345D01*
X100399101Y-89331913D01*
X100442366Y-89288649D01*
X100467993Y-89279762D01*
X100516420Y-89270130D01*
X100707598Y-89190941D01*
X100717824Y-89184108D01*
X108559500Y-89184108D01*
X108559500Y-89315892D01*
X108563793Y-89331913D01*
X108593609Y-89443190D01*
X108659496Y-89557309D01*
X108659498Y-89557311D01*
X108659500Y-89557314D01*
X108752686Y-89650500D01*
X108752688Y-89650501D01*
X108752690Y-89650503D01*
X108866810Y-89716390D01*
X108866808Y-89716390D01*
X108866812Y-89716391D01*
X108866814Y-89716392D01*
X108994108Y-89750500D01*
X108994110Y-89750500D01*
X109125890Y-89750500D01*
X109125892Y-89750500D01*
X109253186Y-89716392D01*
X109253188Y-89716390D01*
X109253190Y-89716390D01*
X109367309Y-89650503D01*
X109367309Y-89650502D01*
X109367314Y-89650500D01*
X109460500Y-89557314D01*
X109526392Y-89443186D01*
X109560500Y-89315892D01*
X109560500Y-89184108D01*
X109526392Y-89056814D01*
X109526390Y-89056811D01*
X109526390Y-89056809D01*
X109460503Y-88942690D01*
X109460501Y-88942688D01*
X109460500Y-88942686D01*
X109367314Y-88849500D01*
X109367311Y-88849498D01*
X109367309Y-88849496D01*
X109253189Y-88783609D01*
X109253191Y-88783609D01*
X109192174Y-88767260D01*
X109125892Y-88749500D01*
X108994108Y-88749500D01*
X108927826Y-88767260D01*
X108866809Y-88783609D01*
X108752690Y-88849496D01*
X108659496Y-88942690D01*
X108593609Y-89056809D01*
X108593608Y-89056814D01*
X108559500Y-89184108D01*
X100717824Y-89184108D01*
X100879655Y-89075977D01*
X101025977Y-88929655D01*
X101140941Y-88757598D01*
X101220130Y-88566420D01*
X101260500Y-88363465D01*
X101260500Y-88156535D01*
X101235187Y-88029281D01*
X109277173Y-88029281D01*
X109277173Y-88161065D01*
X109299069Y-88242781D01*
X109311282Y-88288363D01*
X109377169Y-88402482D01*
X109377171Y-88402484D01*
X109377173Y-88402487D01*
X109470359Y-88495673D01*
X109470361Y-88495674D01*
X109470363Y-88495676D01*
X109584483Y-88561563D01*
X109584481Y-88561563D01*
X109584485Y-88561564D01*
X109584487Y-88561565D01*
X109711781Y-88595673D01*
X109711783Y-88595673D01*
X109843563Y-88595673D01*
X109843565Y-88595673D01*
X109886727Y-88584108D01*
X116469500Y-88584108D01*
X116469500Y-88715892D01*
X116480675Y-88757597D01*
X116503609Y-88843190D01*
X116569496Y-88957309D01*
X116569498Y-88957311D01*
X116569500Y-88957314D01*
X116662686Y-89050500D01*
X116662688Y-89050501D01*
X116662690Y-89050503D01*
X116776810Y-89116390D01*
X116776808Y-89116390D01*
X116776812Y-89116391D01*
X116776814Y-89116392D01*
X116904108Y-89150500D01*
X116904110Y-89150500D01*
X117035890Y-89150500D01*
X117035892Y-89150500D01*
X117163186Y-89116392D01*
X117163188Y-89116390D01*
X117163190Y-89116390D01*
X117277309Y-89050503D01*
X117277309Y-89050502D01*
X117277314Y-89050500D01*
X117370500Y-88957314D01*
X117436392Y-88843186D01*
X117470500Y-88715892D01*
X117470500Y-88584108D01*
X117436392Y-88456814D01*
X117436390Y-88456811D01*
X117436390Y-88456809D01*
X117370503Y-88342690D01*
X117370501Y-88342688D01*
X117370500Y-88342686D01*
X117277314Y-88249500D01*
X117277311Y-88249498D01*
X117277309Y-88249496D01*
X117193083Y-88200868D01*
X121736386Y-88200868D01*
X121736386Y-88332652D01*
X121756679Y-88408386D01*
X121770495Y-88459950D01*
X121836382Y-88574069D01*
X121836384Y-88574071D01*
X121836386Y-88574074D01*
X121929572Y-88667260D01*
X121929574Y-88667261D01*
X121929576Y-88667263D01*
X122043696Y-88733150D01*
X122043694Y-88733150D01*
X122043698Y-88733151D01*
X122043700Y-88733152D01*
X122170994Y-88767260D01*
X122170996Y-88767260D01*
X122302776Y-88767260D01*
X122302778Y-88767260D01*
X122430072Y-88733152D01*
X122430074Y-88733150D01*
X122430076Y-88733150D01*
X122544195Y-88667263D01*
X122544195Y-88667262D01*
X122544200Y-88667260D01*
X122586991Y-88624468D01*
X122641505Y-88596692D01*
X122701937Y-88606263D01*
X122745202Y-88649527D01*
X122754774Y-88709959D01*
X122751148Y-88725065D01*
X122731522Y-88785468D01*
X122699500Y-88987644D01*
X122699500Y-89192355D01*
X122731521Y-89394529D01*
X122794780Y-89589219D01*
X122887712Y-89771609D01*
X122887714Y-89771613D01*
X123008029Y-89937213D01*
X123008031Y-89937215D01*
X123008034Y-89937219D01*
X123152781Y-90081966D01*
X123170952Y-90095168D01*
X123206917Y-90144665D01*
X123206919Y-90205850D01*
X123170957Y-90255352D01*
X123164508Y-90259662D01*
X123161419Y-90261555D01*
X123059301Y-90335746D01*
X123829767Y-91106212D01*
X123787708Y-91117482D01*
X123662292Y-91189890D01*
X123559890Y-91292292D01*
X123487482Y-91417708D01*
X123476212Y-91459766D01*
X122705746Y-90689301D01*
X122631556Y-90791418D01*
X122517221Y-91015812D01*
X122439395Y-91255336D01*
X122400000Y-91504073D01*
X122400000Y-91755926D01*
X122439396Y-92004665D01*
X122502868Y-92200014D01*
X122502868Y-92261199D01*
X122466904Y-92310699D01*
X122434339Y-92326232D01*
X122406811Y-92333608D01*
X122406810Y-92333609D01*
X122292690Y-92399496D01*
X122199496Y-92492690D01*
X122133609Y-92606809D01*
X122133608Y-92606814D01*
X122099500Y-92734108D01*
X122099500Y-92865892D01*
X122114450Y-92921686D01*
X122133609Y-92993190D01*
X122199496Y-93107309D01*
X122199498Y-93107311D01*
X122199500Y-93107314D01*
X122292686Y-93200500D01*
X122292688Y-93200501D01*
X122292690Y-93200503D01*
X122406810Y-93266390D01*
X122406808Y-93266390D01*
X122406812Y-93266391D01*
X122406814Y-93266392D01*
X122534108Y-93300500D01*
X122534110Y-93300500D01*
X122665890Y-93300500D01*
X122665892Y-93300500D01*
X122793186Y-93266392D01*
X122830487Y-93244855D01*
X122890335Y-93232134D01*
X122946231Y-93257020D01*
X122976824Y-93310008D01*
X122970429Y-93370858D01*
X122960081Y-93388782D01*
X122887714Y-93488386D01*
X122887712Y-93488390D01*
X122794780Y-93670780D01*
X122731521Y-93865470D01*
X122699500Y-94067644D01*
X122699500Y-94272355D01*
X122731521Y-94474529D01*
X122794780Y-94669219D01*
X122887712Y-94851609D01*
X122887714Y-94851613D01*
X123008029Y-95017213D01*
X123008031Y-95017215D01*
X123008034Y-95017219D01*
X123152781Y-95161966D01*
X123170952Y-95175168D01*
X123206917Y-95224665D01*
X123206919Y-95285850D01*
X123170957Y-95335352D01*
X123164508Y-95339662D01*
X123161419Y-95341555D01*
X123059301Y-95415746D01*
X123829767Y-96186212D01*
X123787708Y-96197482D01*
X123662292Y-96269890D01*
X123559890Y-96372292D01*
X123487482Y-96497708D01*
X123476212Y-96539766D01*
X122705746Y-95769301D01*
X122631556Y-95871418D01*
X122517221Y-96095812D01*
X122439395Y-96335336D01*
X122400000Y-96584073D01*
X122400000Y-96835926D01*
X122439395Y-97084663D01*
X122517221Y-97324187D01*
X122631558Y-97548585D01*
X122633347Y-97551504D01*
X122647635Y-97610998D01*
X122624225Y-97667527D01*
X122618945Y-97673240D01*
X122599499Y-97692685D01*
X122533609Y-97806809D01*
X122514539Y-97877978D01*
X122499500Y-97934108D01*
X122499500Y-98065892D01*
X122522600Y-98152104D01*
X122533609Y-98193190D01*
X122599496Y-98307309D01*
X122599498Y-98307311D01*
X122599500Y-98307314D01*
X122692686Y-98400500D01*
X122692688Y-98400501D01*
X122692690Y-98400503D01*
X122806810Y-98466390D01*
X122806811Y-98466390D01*
X122806814Y-98466392D01*
X122806816Y-98466392D01*
X122812806Y-98468874D01*
X122812199Y-98470339D01*
X122856947Y-98499398D01*
X122878874Y-98556520D01*
X122868220Y-98606647D01*
X122794780Y-98750780D01*
X122731521Y-98945470D01*
X122699500Y-99147644D01*
X122699500Y-99352355D01*
X122731521Y-99554529D01*
X122794780Y-99749219D01*
X122887712Y-99931609D01*
X122887714Y-99931613D01*
X123008029Y-100097213D01*
X123008031Y-100097215D01*
X123008034Y-100097219D01*
X123152781Y-100241966D01*
X123152784Y-100241968D01*
X123152786Y-100241970D01*
X123318386Y-100362285D01*
X123318390Y-100362287D01*
X123454797Y-100431790D01*
X123498062Y-100475055D01*
X123507633Y-100535487D01*
X123479856Y-100590004D01*
X123454797Y-100608210D01*
X123318390Y-100677712D01*
X123318386Y-100677714D01*
X123152786Y-100798029D01*
X123008029Y-100942786D01*
X122887714Y-101108386D01*
X122887712Y-101108390D01*
X122794780Y-101290780D01*
X122731521Y-101485470D01*
X122699500Y-101687644D01*
X122699500Y-101892355D01*
X122731521Y-102094529D01*
X122794780Y-102289219D01*
X122887712Y-102471609D01*
X122887714Y-102471613D01*
X123008029Y-102637213D01*
X123008031Y-102637215D01*
X123008034Y-102637219D01*
X123152781Y-102781966D01*
X123152784Y-102781968D01*
X123152786Y-102781970D01*
X123246983Y-102850407D01*
X123282947Y-102899907D01*
X123282948Y-102961092D01*
X123246984Y-103010592D01*
X123188794Y-103029500D01*
X123095732Y-103029500D01*
X123065303Y-103032353D01*
X122937113Y-103077208D01*
X122827854Y-103157845D01*
X122827845Y-103157854D01*
X122747207Y-103267115D01*
X122702355Y-103395295D01*
X122702353Y-103395304D01*
X122699500Y-103425724D01*
X122699500Y-105234267D01*
X122702353Y-105264696D01*
X122702353Y-105264698D01*
X122702354Y-105264700D01*
X122721616Y-105319748D01*
X122747208Y-105392886D01*
X122827845Y-105502145D01*
X122827854Y-105502154D01*
X122937115Y-105582792D01*
X122937116Y-105582792D01*
X122937117Y-105582793D01*
X123065300Y-105627646D01*
X123095733Y-105630500D01*
X124904266Y-105630499D01*
X124904267Y-105630499D01*
X124910352Y-105629928D01*
X124934700Y-105627646D01*
X125062883Y-105582793D01*
X125172150Y-105502150D01*
X125173370Y-105500498D01*
X125252792Y-105392884D01*
X125252791Y-105392884D01*
X125252793Y-105392883D01*
X125297646Y-105264700D01*
X125300500Y-105234267D01*
X125300499Y-103425734D01*
X125297646Y-103395300D01*
X125252793Y-103267117D01*
X125252791Y-103267115D01*
X125252791Y-103267113D01*
X125172154Y-103157854D01*
X125172145Y-103157845D01*
X125062884Y-103077207D01*
X124934704Y-103032355D01*
X124934695Y-103032353D01*
X124904275Y-103029500D01*
X124904267Y-103029500D01*
X124811208Y-103029500D01*
X124753017Y-103010593D01*
X124717053Y-102961093D01*
X124717053Y-102899907D01*
X124753017Y-102850407D01*
X124753018Y-102850407D01*
X124836849Y-102789500D01*
X124847219Y-102781966D01*
X124991966Y-102637219D01*
X125112287Y-102471610D01*
X125205220Y-102289219D01*
X125268477Y-102094534D01*
X125300500Y-101892352D01*
X125300500Y-101687648D01*
X125300500Y-101687644D01*
X125268478Y-101485470D01*
X125268477Y-101485466D01*
X125205220Y-101290781D01*
X125112287Y-101108390D01*
X125112285Y-101108386D01*
X124991970Y-100942786D01*
X124991968Y-100942784D01*
X124991966Y-100942781D01*
X124847219Y-100798034D01*
X124847215Y-100798031D01*
X124847213Y-100798029D01*
X124681613Y-100677714D01*
X124681609Y-100677712D01*
X124610847Y-100641657D01*
X124545201Y-100608209D01*
X124501937Y-100564945D01*
X124492366Y-100504513D01*
X124520143Y-100449997D01*
X124545199Y-100431791D01*
X124681610Y-100362287D01*
X124847219Y-100241966D01*
X124991966Y-100097219D01*
X125112287Y-99931610D01*
X125205220Y-99749219D01*
X125268477Y-99554534D01*
X125277035Y-99500503D01*
X125300500Y-99352355D01*
X125300500Y-99147644D01*
X125268478Y-98945470D01*
X125255918Y-98906814D01*
X125205220Y-98750781D01*
X125112287Y-98568390D01*
X125112285Y-98568386D01*
X124991970Y-98402786D01*
X124991968Y-98402784D01*
X124991966Y-98402781D01*
X124847219Y-98258034D01*
X124847215Y-98258031D01*
X124847213Y-98258029D01*
X124829047Y-98244831D01*
X124793083Y-98195331D01*
X124793082Y-98134146D01*
X124829046Y-98084646D01*
X124835508Y-98080328D01*
X124838574Y-98078448D01*
X124940697Y-98004251D01*
X124170233Y-97233787D01*
X124212292Y-97222518D01*
X124337708Y-97150110D01*
X124440110Y-97047708D01*
X124512518Y-96922292D01*
X124523787Y-96880232D01*
X125294251Y-97650696D01*
X125368444Y-97548580D01*
X125482778Y-97324187D01*
X125560604Y-97084663D01*
X125600000Y-96835926D01*
X125600000Y-96584073D01*
X125560604Y-96335336D01*
X125482778Y-96095812D01*
X125368443Y-95871417D01*
X125368441Y-95871413D01*
X125294252Y-95769301D01*
X124523787Y-96539765D01*
X124512518Y-96497708D01*
X124440110Y-96372292D01*
X124337708Y-96269890D01*
X124212292Y-96197482D01*
X124170231Y-96186211D01*
X124940697Y-95415746D01*
X124838583Y-95341556D01*
X124835503Y-95339669D01*
X124795769Y-95293141D01*
X124790973Y-95232143D01*
X124822946Y-95179976D01*
X124829026Y-95175183D01*
X124847219Y-95161966D01*
X124991966Y-95017219D01*
X125112287Y-94851610D01*
X125205220Y-94669219D01*
X125268477Y-94474534D01*
X125279966Y-94401996D01*
X125300500Y-94272355D01*
X125300500Y-94067644D01*
X125268478Y-93865470D01*
X125268477Y-93865466D01*
X125205220Y-93670781D01*
X125112287Y-93488390D01*
X125112285Y-93488386D01*
X124991970Y-93322786D01*
X124991968Y-93322784D01*
X124991966Y-93322781D01*
X124847219Y-93178034D01*
X124847215Y-93178031D01*
X124847213Y-93178029D01*
X124829047Y-93164831D01*
X124793083Y-93115331D01*
X124793082Y-93054146D01*
X124829046Y-93004646D01*
X124835508Y-93000328D01*
X124838574Y-92998448D01*
X124940697Y-92924251D01*
X124170233Y-92153787D01*
X124212292Y-92142518D01*
X124337708Y-92070110D01*
X124440110Y-91967708D01*
X124512518Y-91842292D01*
X124523787Y-91800232D01*
X125294251Y-92570696D01*
X125368444Y-92468580D01*
X125482778Y-92244187D01*
X125560604Y-92004663D01*
X125600000Y-91755926D01*
X125600000Y-91504073D01*
X125560604Y-91255336D01*
X125482778Y-91015812D01*
X125368443Y-90791417D01*
X125368441Y-90791413D01*
X125294252Y-90689301D01*
X124523787Y-91459765D01*
X124512518Y-91417708D01*
X124440110Y-91292292D01*
X124337708Y-91189890D01*
X124212292Y-91117482D01*
X124170231Y-91106211D01*
X124940697Y-90335746D01*
X124838583Y-90261556D01*
X124835503Y-90259669D01*
X124795769Y-90213141D01*
X124790973Y-90152143D01*
X124822946Y-90099976D01*
X124829026Y-90095183D01*
X124847219Y-90081966D01*
X124991966Y-89937219D01*
X125072180Y-89826813D01*
X125112285Y-89771613D01*
X125112287Y-89771610D01*
X125205220Y-89589219D01*
X125268477Y-89394534D01*
X125273120Y-89365221D01*
X125300500Y-89192355D01*
X125300500Y-88987644D01*
X125268478Y-88785470D01*
X125268477Y-88785466D01*
X125205220Y-88590781D01*
X125112287Y-88408390D01*
X125112285Y-88408386D01*
X124991970Y-88242786D01*
X124991968Y-88242784D01*
X124991966Y-88242781D01*
X124847219Y-88098034D01*
X124847215Y-88098031D01*
X124847213Y-88098029D01*
X124829047Y-88084831D01*
X124793083Y-88035331D01*
X124793082Y-87974146D01*
X124829046Y-87924646D01*
X124835508Y-87920328D01*
X124838574Y-87918448D01*
X124940696Y-87844251D01*
X124170232Y-87073787D01*
X124212292Y-87062518D01*
X124337708Y-86990110D01*
X124440110Y-86887708D01*
X124512518Y-86762292D01*
X124523787Y-86720232D01*
X125294251Y-87490696D01*
X125368444Y-87388580D01*
X125482778Y-87164187D01*
X125560604Y-86924663D01*
X125600000Y-86675926D01*
X125600000Y-86424073D01*
X125560604Y-86175336D01*
X125482778Y-85935812D01*
X125368443Y-85711417D01*
X125368441Y-85711413D01*
X125294252Y-85609301D01*
X124523787Y-86379765D01*
X124512518Y-86337708D01*
X124440110Y-86212292D01*
X124337708Y-86109890D01*
X124212292Y-86037482D01*
X124170231Y-86026211D01*
X124940697Y-85255746D01*
X124838586Y-85181558D01*
X124838582Y-85181556D01*
X124614187Y-85067221D01*
X124374663Y-84989395D01*
X124125926Y-84950000D01*
X123874074Y-84950000D01*
X123625336Y-84989395D01*
X123385812Y-85067221D01*
X123161418Y-85181556D01*
X123059301Y-85255746D01*
X123829767Y-86026212D01*
X123787708Y-86037482D01*
X123662292Y-86109890D01*
X123559890Y-86212292D01*
X123487482Y-86337708D01*
X123476212Y-86379767D01*
X122705746Y-85609301D01*
X122631556Y-85711418D01*
X122517221Y-85935812D01*
X122439395Y-86175336D01*
X122400000Y-86424073D01*
X122400000Y-86675926D01*
X122439395Y-86924663D01*
X122517221Y-87164187D01*
X122631556Y-87388582D01*
X122631558Y-87388586D01*
X122705746Y-87490697D01*
X123476211Y-86720231D01*
X123487482Y-86762292D01*
X123559890Y-86887708D01*
X123662292Y-86990110D01*
X123787708Y-87062518D01*
X123829765Y-87073787D01*
X123059301Y-87844252D01*
X123161415Y-87918442D01*
X123164497Y-87920331D01*
X123204230Y-87966861D01*
X123209024Y-88027858D01*
X123177050Y-88080024D01*
X123170955Y-88084829D01*
X123152785Y-88098030D01*
X123008029Y-88242786D01*
X122916479Y-88368796D01*
X122866979Y-88404760D01*
X122805794Y-88404761D01*
X122756294Y-88368797D01*
X122737386Y-88310606D01*
X122737386Y-88200869D01*
X122737386Y-88200868D01*
X122703278Y-88073574D01*
X122703276Y-88073571D01*
X122703276Y-88073569D01*
X122637389Y-87959450D01*
X122637387Y-87959448D01*
X122637386Y-87959446D01*
X122544200Y-87866260D01*
X122544197Y-87866258D01*
X122544195Y-87866256D01*
X122430075Y-87800369D01*
X122430077Y-87800369D01*
X122380685Y-87787135D01*
X122302778Y-87766260D01*
X122170994Y-87766260D01*
X122093086Y-87787135D01*
X122043695Y-87800369D01*
X121929576Y-87866256D01*
X121836382Y-87959450D01*
X121770495Y-88073569D01*
X121763941Y-88098029D01*
X121736386Y-88200868D01*
X117193083Y-88200868D01*
X117163189Y-88183609D01*
X117163191Y-88183609D01*
X117113799Y-88170375D01*
X117035892Y-88149500D01*
X116904108Y-88149500D01*
X116826200Y-88170375D01*
X116776809Y-88183609D01*
X116662690Y-88249496D01*
X116569496Y-88342690D01*
X116503609Y-88456809D01*
X116493196Y-88495673D01*
X116469500Y-88584108D01*
X109886727Y-88584108D01*
X109970859Y-88561565D01*
X109970861Y-88561563D01*
X109970863Y-88561563D01*
X110084982Y-88495676D01*
X110084982Y-88495675D01*
X110084987Y-88495673D01*
X110178173Y-88402487D01*
X110200701Y-88363467D01*
X110244063Y-88288363D01*
X110244063Y-88288361D01*
X110244065Y-88288359D01*
X110278173Y-88161065D01*
X110278173Y-88029281D01*
X110244065Y-87901987D01*
X110244063Y-87901984D01*
X110244063Y-87901982D01*
X110178176Y-87787863D01*
X110178174Y-87787861D01*
X110178173Y-87787859D01*
X110084987Y-87694673D01*
X110084984Y-87694671D01*
X110084982Y-87694669D01*
X109974455Y-87630856D01*
X109974454Y-87630856D01*
X109970862Y-87628782D01*
X109970859Y-87628781D01*
X109843565Y-87594673D01*
X109711781Y-87594673D01*
X109633873Y-87615548D01*
X109584482Y-87628782D01*
X109470363Y-87694669D01*
X109377169Y-87787863D01*
X109311282Y-87901982D01*
X109295885Y-87959446D01*
X109277173Y-88029281D01*
X101235187Y-88029281D01*
X101232944Y-88018003D01*
X101222772Y-87966861D01*
X101220130Y-87953580D01*
X101140941Y-87762402D01*
X101025977Y-87590345D01*
X100987240Y-87551608D01*
X112999500Y-87551608D01*
X112999500Y-87683392D01*
X113021704Y-87766260D01*
X113033609Y-87810690D01*
X113099496Y-87924809D01*
X113099498Y-87924811D01*
X113099500Y-87924814D01*
X113192686Y-88018000D01*
X113192688Y-88018001D01*
X113192690Y-88018003D01*
X113306810Y-88083890D01*
X113306808Y-88083890D01*
X113306812Y-88083891D01*
X113306814Y-88083892D01*
X113434108Y-88118000D01*
X113434110Y-88118000D01*
X113565890Y-88118000D01*
X113565892Y-88118000D01*
X113693186Y-88083892D01*
X113693188Y-88083890D01*
X113693190Y-88083890D01*
X113807309Y-88018003D01*
X113807309Y-88018002D01*
X113807314Y-88018000D01*
X113900500Y-87924814D01*
X113903090Y-87920328D01*
X113966390Y-87810690D01*
X113966390Y-87810688D01*
X113966392Y-87810686D01*
X114000500Y-87683392D01*
X114000500Y-87551608D01*
X113966392Y-87424314D01*
X113966390Y-87424311D01*
X113966390Y-87424309D01*
X113900503Y-87310190D01*
X113900501Y-87310188D01*
X113900500Y-87310186D01*
X113807314Y-87217000D01*
X113807311Y-87216998D01*
X113807309Y-87216996D01*
X113693189Y-87151109D01*
X113693191Y-87151109D01*
X113643799Y-87137875D01*
X113565892Y-87117000D01*
X113434108Y-87117000D01*
X113356200Y-87137875D01*
X113306809Y-87151109D01*
X113192690Y-87216996D01*
X113099496Y-87310190D01*
X113033609Y-87424309D01*
X113033608Y-87424314D01*
X112999500Y-87551608D01*
X100987240Y-87551608D01*
X100879655Y-87444023D01*
X100879651Y-87444020D01*
X100707597Y-87329058D01*
X100516418Y-87249869D01*
X100313467Y-87209500D01*
X100313465Y-87209500D01*
X100106535Y-87209500D01*
X100106532Y-87209500D01*
X99903581Y-87249869D01*
X99712402Y-87329058D01*
X99540348Y-87444020D01*
X99394020Y-87590348D01*
X99279058Y-87762402D01*
X99199869Y-87953581D01*
X99159500Y-88156532D01*
X99159500Y-88363467D01*
X99199869Y-88566418D01*
X99279058Y-88757597D01*
X99394020Y-88929651D01*
X99394023Y-88929655D01*
X99540345Y-89075977D01*
X99712402Y-89190941D01*
X99903580Y-89270130D01*
X99952003Y-89279762D01*
X100005386Y-89309657D01*
X100031003Y-89365221D01*
X100019067Y-89425231D01*
X99974138Y-89466765D01*
X99948177Y-89474640D01*
X99893877Y-89483241D01*
X99691784Y-89548904D01*
X99502446Y-89645376D01*
X99502442Y-89645378D01*
X99448282Y-89684728D01*
X100080591Y-90317037D01*
X100017007Y-90334075D01*
X99902993Y-90399901D01*
X99809901Y-90492993D01*
X99744075Y-90607007D01*
X99727037Y-90670591D01*
X99094728Y-90038282D01*
X99055378Y-90092442D01*
X99055376Y-90092446D01*
X98958904Y-90281784D01*
X98893240Y-90483878D01*
X98860000Y-90693749D01*
X97970500Y-90693749D01*
X97970500Y-85616532D01*
X99159500Y-85616532D01*
X99159500Y-85823467D01*
X99199869Y-86026418D01*
X99279058Y-86217597D01*
X99394020Y-86389651D01*
X99394023Y-86389655D01*
X99540345Y-86535977D01*
X99712402Y-86650941D01*
X99903580Y-86730130D01*
X100106535Y-86770500D01*
X100106536Y-86770500D01*
X100313464Y-86770500D01*
X100313465Y-86770500D01*
X100516420Y-86730130D01*
X100707598Y-86650941D01*
X100879655Y-86535977D01*
X100981524Y-86434108D01*
X104299500Y-86434108D01*
X104299500Y-86565892D01*
X104322289Y-86650941D01*
X104333609Y-86693190D01*
X104399496Y-86807309D01*
X104399498Y-86807311D01*
X104399500Y-86807314D01*
X104492686Y-86900500D01*
X104492688Y-86900501D01*
X104492690Y-86900503D01*
X104606810Y-86966390D01*
X104606808Y-86966390D01*
X104606812Y-86966391D01*
X104606814Y-86966392D01*
X104734108Y-87000500D01*
X104734110Y-87000500D01*
X104865890Y-87000500D01*
X104865892Y-87000500D01*
X104993186Y-86966392D01*
X104993188Y-86966390D01*
X104993190Y-86966390D01*
X105107309Y-86900503D01*
X105107309Y-86900502D01*
X105107314Y-86900500D01*
X105200500Y-86807314D01*
X105226494Y-86762292D01*
X105266390Y-86693190D01*
X105266390Y-86693188D01*
X105266392Y-86693186D01*
X105300500Y-86565892D01*
X105300500Y-86434108D01*
X105266392Y-86306814D01*
X105262747Y-86300500D01*
X105260032Y-86295797D01*
X105260031Y-86295795D01*
X105235200Y-86252787D01*
X106928508Y-86252787D01*
X106928508Y-86384571D01*
X106943226Y-86439500D01*
X106962617Y-86511869D01*
X107028504Y-86625988D01*
X107028506Y-86625990D01*
X107028508Y-86625993D01*
X107121694Y-86719179D01*
X107121696Y-86719180D01*
X107121698Y-86719182D01*
X107235818Y-86785069D01*
X107235816Y-86785069D01*
X107235820Y-86785070D01*
X107235822Y-86785071D01*
X107363116Y-86819179D01*
X107363118Y-86819179D01*
X107494898Y-86819179D01*
X107494900Y-86819179D01*
X107622194Y-86785071D01*
X107622196Y-86785069D01*
X107622198Y-86785069D01*
X107736317Y-86719182D01*
X107736317Y-86719181D01*
X107736322Y-86719179D01*
X107829508Y-86625993D01*
X107831577Y-86622409D01*
X107895398Y-86511869D01*
X107895398Y-86511867D01*
X107895400Y-86511865D01*
X107929508Y-86384571D01*
X107929508Y-86371608D01*
X114499500Y-86371608D01*
X114499500Y-86503392D01*
X114516246Y-86565890D01*
X114533609Y-86630690D01*
X114599496Y-86744809D01*
X114599498Y-86744811D01*
X114599500Y-86744814D01*
X114692686Y-86838000D01*
X114692688Y-86838001D01*
X114692690Y-86838003D01*
X114806810Y-86903890D01*
X114806808Y-86903890D01*
X114806812Y-86903891D01*
X114806814Y-86903892D01*
X114934108Y-86938000D01*
X114934110Y-86938000D01*
X115065890Y-86938000D01*
X115065892Y-86938000D01*
X115193186Y-86903892D01*
X115193188Y-86903890D01*
X115193190Y-86903890D01*
X115307309Y-86838003D01*
X115307309Y-86838002D01*
X115307314Y-86838000D01*
X115400500Y-86744814D01*
X115415299Y-86719182D01*
X115441323Y-86674108D01*
X117359500Y-86674108D01*
X117359500Y-86805892D01*
X117368104Y-86838003D01*
X117393609Y-86933190D01*
X117459496Y-87047309D01*
X117459498Y-87047311D01*
X117459500Y-87047314D01*
X117552686Y-87140500D01*
X117552688Y-87140501D01*
X117552690Y-87140503D01*
X117666810Y-87206390D01*
X117666808Y-87206390D01*
X117666812Y-87206391D01*
X117666814Y-87206392D01*
X117794108Y-87240500D01*
X117794110Y-87240500D01*
X117925890Y-87240500D01*
X117925892Y-87240500D01*
X118053186Y-87206392D01*
X118053188Y-87206390D01*
X118053190Y-87206390D01*
X118167309Y-87140503D01*
X118167309Y-87140502D01*
X118167314Y-87140500D01*
X118238319Y-87069494D01*
X118292834Y-87041719D01*
X118308321Y-87040500D01*
X121099563Y-87040500D01*
X121099563Y-87040499D01*
X121175989Y-87020021D01*
X121244511Y-86980460D01*
X121300460Y-86924511D01*
X122240460Y-85984511D01*
X122278757Y-85918179D01*
X122280020Y-85915992D01*
X122280020Y-85915990D01*
X122280022Y-85915988D01*
X122300500Y-85839562D01*
X122300500Y-85760438D01*
X122300500Y-83804108D01*
X123789500Y-83804108D01*
X123789500Y-83935892D01*
X123805600Y-83995977D01*
X123823609Y-84063190D01*
X123889496Y-84177309D01*
X123889498Y-84177311D01*
X123889500Y-84177314D01*
X123982686Y-84270500D01*
X123982688Y-84270501D01*
X123982690Y-84270503D01*
X124096810Y-84336390D01*
X124096808Y-84336390D01*
X124096812Y-84336391D01*
X124096814Y-84336392D01*
X124224108Y-84370500D01*
X124224110Y-84370500D01*
X124355890Y-84370500D01*
X124355892Y-84370500D01*
X124483186Y-84336392D01*
X124483188Y-84336390D01*
X124483190Y-84336390D01*
X124597309Y-84270503D01*
X124597309Y-84270502D01*
X124597314Y-84270500D01*
X124690500Y-84177314D01*
X124756392Y-84063186D01*
X124790500Y-83935892D01*
X124790500Y-83804108D01*
X124756392Y-83676814D01*
X124756390Y-83676811D01*
X124756390Y-83676809D01*
X124690503Y-83562690D01*
X124690501Y-83562688D01*
X124690500Y-83562686D01*
X124597314Y-83469500D01*
X124597311Y-83469498D01*
X124597309Y-83469496D01*
X124483189Y-83403609D01*
X124483191Y-83403609D01*
X124433799Y-83390375D01*
X124355892Y-83369500D01*
X124224108Y-83369500D01*
X124146200Y-83390375D01*
X124096809Y-83403609D01*
X123982690Y-83469496D01*
X123889496Y-83562690D01*
X123823609Y-83676809D01*
X123823608Y-83676814D01*
X123789500Y-83804108D01*
X122300500Y-83804108D01*
X122300500Y-80108057D01*
X122855551Y-80108057D01*
X122855551Y-80239841D01*
X122875928Y-80315890D01*
X122889660Y-80367139D01*
X122955547Y-80481258D01*
X122955549Y-80481260D01*
X122955551Y-80481263D01*
X123048737Y-80574449D01*
X123048739Y-80574450D01*
X123048741Y-80574452D01*
X123162861Y-80640339D01*
X123162859Y-80640339D01*
X123162863Y-80640340D01*
X123162865Y-80640341D01*
X123290159Y-80674449D01*
X123290161Y-80674449D01*
X123421941Y-80674449D01*
X123421943Y-80674449D01*
X123549237Y-80640341D01*
X123549239Y-80640339D01*
X123549241Y-80640339D01*
X123663360Y-80574452D01*
X123663360Y-80574451D01*
X123663365Y-80574449D01*
X123756551Y-80481263D01*
X123822443Y-80367135D01*
X123856551Y-80239841D01*
X123856551Y-80108057D01*
X123822443Y-79980763D01*
X123822441Y-79980760D01*
X123822441Y-79980758D01*
X123756554Y-79866639D01*
X123756552Y-79866637D01*
X123756551Y-79866635D01*
X123663365Y-79773449D01*
X123663362Y-79773447D01*
X123663360Y-79773445D01*
X123549240Y-79707558D01*
X123549242Y-79707558D01*
X123495603Y-79693186D01*
X123421943Y-79673449D01*
X123290159Y-79673449D01*
X123216499Y-79693186D01*
X123162860Y-79707558D01*
X123048741Y-79773445D01*
X122955547Y-79866639D01*
X122889660Y-79980758D01*
X122876383Y-80030309D01*
X122855551Y-80108057D01*
X122300500Y-80108057D01*
X122300500Y-79164108D01*
X123679500Y-79164108D01*
X123679500Y-79295892D01*
X123709579Y-79408151D01*
X123713609Y-79423190D01*
X123779496Y-79537309D01*
X123779498Y-79537311D01*
X123779500Y-79537314D01*
X123872686Y-79630500D01*
X123872688Y-79630501D01*
X123872690Y-79630503D01*
X123986810Y-79696390D01*
X123986808Y-79696390D01*
X123986812Y-79696391D01*
X123986814Y-79696392D01*
X124114108Y-79730500D01*
X124114110Y-79730500D01*
X124245890Y-79730500D01*
X124245892Y-79730500D01*
X124373186Y-79696392D01*
X124373188Y-79696390D01*
X124373190Y-79696390D01*
X124487309Y-79630503D01*
X124487309Y-79630502D01*
X124487314Y-79630500D01*
X124580500Y-79537314D01*
X124640086Y-79434108D01*
X125499500Y-79434108D01*
X125499500Y-79565892D01*
X125520816Y-79645445D01*
X125533609Y-79693190D01*
X125599496Y-79807309D01*
X125599498Y-79807311D01*
X125599500Y-79807314D01*
X125692686Y-79900500D01*
X125692688Y-79900501D01*
X125692690Y-79900503D01*
X125806810Y-79966390D01*
X125806808Y-79966390D01*
X125806812Y-79966391D01*
X125806814Y-79966392D01*
X125934108Y-80000500D01*
X125934110Y-80000500D01*
X126065890Y-80000500D01*
X126065892Y-80000500D01*
X126193186Y-79966392D01*
X126193188Y-79966390D01*
X126193190Y-79966390D01*
X126307309Y-79900503D01*
X126307309Y-79900502D01*
X126307314Y-79900500D01*
X126400500Y-79807314D01*
X126444849Y-79730500D01*
X126466390Y-79693190D01*
X126466390Y-79693188D01*
X126466392Y-79693186D01*
X126500500Y-79565892D01*
X126500500Y-79434108D01*
X126466392Y-79306814D01*
X126466390Y-79306811D01*
X126466390Y-79306809D01*
X126400503Y-79192690D01*
X126400501Y-79192688D01*
X126400500Y-79192686D01*
X126307314Y-79099500D01*
X126307311Y-79099498D01*
X126307309Y-79099496D01*
X126193189Y-79033609D01*
X126193191Y-79033609D01*
X126132375Y-79017314D01*
X126065892Y-78999500D01*
X125934108Y-78999500D01*
X125867625Y-79017314D01*
X125806809Y-79033609D01*
X125692690Y-79099496D01*
X125599496Y-79192690D01*
X125533609Y-79306809D01*
X125533608Y-79306814D01*
X125499500Y-79434108D01*
X124640086Y-79434108D01*
X124646392Y-79423186D01*
X124680500Y-79295892D01*
X124680500Y-79164108D01*
X124646392Y-79036814D01*
X124646390Y-79036811D01*
X124646390Y-79036809D01*
X124580503Y-78922690D01*
X124580501Y-78922688D01*
X124580500Y-78922686D01*
X124487314Y-78829500D01*
X124487311Y-78829498D01*
X124487309Y-78829496D01*
X124373189Y-78763609D01*
X124373191Y-78763609D01*
X124292106Y-78741883D01*
X124245892Y-78729500D01*
X124114108Y-78729500D01*
X124067894Y-78741883D01*
X123986809Y-78763609D01*
X123872690Y-78829496D01*
X123779496Y-78922690D01*
X123713609Y-79036809D01*
X123698503Y-79093186D01*
X123679500Y-79164108D01*
X122300500Y-79164108D01*
X122300500Y-70648321D01*
X122319407Y-70590130D01*
X122329490Y-70578323D01*
X122400500Y-70507314D01*
X122400503Y-70507309D01*
X122466390Y-70393190D01*
X122466390Y-70393188D01*
X122466392Y-70393186D01*
X122500500Y-70265892D01*
X122500500Y-70134108D01*
X122466392Y-70006814D01*
X122466390Y-70006811D01*
X122466390Y-70006809D01*
X122400503Y-69892690D01*
X122400501Y-69892688D01*
X122400500Y-69892686D01*
X122307314Y-69799500D01*
X122307311Y-69799498D01*
X122307309Y-69799496D01*
X122193189Y-69733609D01*
X122193191Y-69733609D01*
X122143799Y-69720375D01*
X122065892Y-69699500D01*
X121934108Y-69699500D01*
X121856200Y-69720375D01*
X121806809Y-69733609D01*
X121692690Y-69799496D01*
X121599496Y-69892690D01*
X121533609Y-70006809D01*
X121533608Y-70006814D01*
X121499500Y-70134108D01*
X121499500Y-70265892D01*
X121517778Y-70334108D01*
X121533609Y-70393190D01*
X121599496Y-70507309D01*
X121599498Y-70507311D01*
X121599500Y-70507314D01*
X121670505Y-70578319D01*
X121698281Y-70632834D01*
X121699500Y-70648321D01*
X121699500Y-85634521D01*
X121680593Y-85692712D01*
X121670504Y-85704525D01*
X120964525Y-86410504D01*
X120910008Y-86438281D01*
X120894521Y-86439500D01*
X118308321Y-86439500D01*
X118250130Y-86420593D01*
X118238323Y-86410509D01*
X118167314Y-86339500D01*
X118167311Y-86339498D01*
X118167309Y-86339496D01*
X118053189Y-86273609D01*
X118053191Y-86273609D01*
X118003799Y-86260375D01*
X117925892Y-86239500D01*
X117794108Y-86239500D01*
X117716200Y-86260375D01*
X117666809Y-86273609D01*
X117552690Y-86339496D01*
X117459496Y-86432690D01*
X117393609Y-86546809D01*
X117388496Y-86565892D01*
X117359500Y-86674108D01*
X115441323Y-86674108D01*
X115466390Y-86630690D01*
X115466390Y-86630688D01*
X115466392Y-86630686D01*
X115500500Y-86503392D01*
X115500500Y-86371608D01*
X115466392Y-86244314D01*
X115466390Y-86244311D01*
X115466390Y-86244309D01*
X115400503Y-86130190D01*
X115400501Y-86130188D01*
X115400500Y-86130186D01*
X115307314Y-86037000D01*
X115307311Y-86036998D01*
X115307309Y-86036996D01*
X115193189Y-85971109D01*
X115193191Y-85971109D01*
X115143799Y-85957875D01*
X115065892Y-85937000D01*
X114934108Y-85937000D01*
X114856200Y-85957875D01*
X114806809Y-85971109D01*
X114692690Y-86036996D01*
X114599496Y-86130190D01*
X114533609Y-86244309D01*
X114519814Y-86295795D01*
X114499500Y-86371608D01*
X107929508Y-86371608D01*
X107929508Y-86252787D01*
X107895400Y-86125493D01*
X107895398Y-86125490D01*
X107895398Y-86125488D01*
X107829511Y-86011369D01*
X107829509Y-86011367D01*
X107829508Y-86011365D01*
X107736322Y-85918179D01*
X107736319Y-85918177D01*
X107736317Y-85918175D01*
X107622197Y-85852288D01*
X107622199Y-85852288D01*
X107572807Y-85839054D01*
X107494900Y-85818179D01*
X107363116Y-85818179D01*
X107285208Y-85839054D01*
X107235817Y-85852288D01*
X107121698Y-85918175D01*
X107028504Y-86011369D01*
X106962617Y-86125488D01*
X106961357Y-86130190D01*
X106928508Y-86252787D01*
X105235200Y-86252787D01*
X105200503Y-86192690D01*
X105200501Y-86192688D01*
X105200500Y-86192686D01*
X105107314Y-86099500D01*
X105107311Y-86099498D01*
X105107309Y-86099496D01*
X104993189Y-86033609D01*
X104993191Y-86033609D01*
X104943799Y-86020375D01*
X104865892Y-85999500D01*
X104734108Y-85999500D01*
X104656200Y-86020375D01*
X104606809Y-86033609D01*
X104492690Y-86099496D01*
X104399496Y-86192690D01*
X104333609Y-86306809D01*
X104333608Y-86306814D01*
X104299500Y-86434108D01*
X100981524Y-86434108D01*
X101025977Y-86389655D01*
X101029884Y-86383806D01*
X101037362Y-86372617D01*
X101103516Y-86273609D01*
X101140941Y-86217598D01*
X101220130Y-86026420D01*
X101260500Y-85823465D01*
X101260500Y-85734108D01*
X109179500Y-85734108D01*
X109179500Y-85865892D01*
X109192923Y-85915988D01*
X109213609Y-85993190D01*
X109279496Y-86107309D01*
X109279498Y-86107311D01*
X109279500Y-86107314D01*
X109372686Y-86200500D01*
X109372688Y-86200501D01*
X109372690Y-86200503D01*
X109486810Y-86266390D01*
X109486808Y-86266390D01*
X109486812Y-86266391D01*
X109486814Y-86266392D01*
X109614108Y-86300500D01*
X109614110Y-86300500D01*
X109745890Y-86300500D01*
X109745892Y-86300500D01*
X109873186Y-86266392D01*
X109873188Y-86266390D01*
X109873190Y-86266390D01*
X109987309Y-86200503D01*
X109987309Y-86200502D01*
X109987314Y-86200500D01*
X110080500Y-86107314D01*
X110080503Y-86107309D01*
X110146390Y-85993190D01*
X110146390Y-85993188D01*
X110146392Y-85993186D01*
X110180500Y-85865892D01*
X110180500Y-85734108D01*
X110146392Y-85606814D01*
X110146390Y-85606811D01*
X110146390Y-85606809D01*
X110080503Y-85492690D01*
X110080501Y-85492688D01*
X110080500Y-85492686D01*
X109987314Y-85399500D01*
X109987311Y-85399498D01*
X109987309Y-85399496D01*
X109873189Y-85333609D01*
X109873191Y-85333609D01*
X109823799Y-85320375D01*
X109745892Y-85299500D01*
X109614108Y-85299500D01*
X109536200Y-85320375D01*
X109486809Y-85333609D01*
X109372690Y-85399496D01*
X109279496Y-85492690D01*
X109213609Y-85606809D01*
X109206184Y-85634521D01*
X109179500Y-85734108D01*
X101260500Y-85734108D01*
X101260500Y-85616535D01*
X101220130Y-85413580D01*
X101140941Y-85222402D01*
X101048537Y-85084108D01*
X107379500Y-85084108D01*
X107379500Y-85215892D01*
X107409579Y-85328151D01*
X107413609Y-85343190D01*
X107479496Y-85457309D01*
X107479498Y-85457311D01*
X107479500Y-85457314D01*
X107572686Y-85550500D01*
X107572688Y-85550501D01*
X107572690Y-85550503D01*
X107686810Y-85616390D01*
X107686808Y-85616390D01*
X107686812Y-85616391D01*
X107686814Y-85616392D01*
X107814108Y-85650500D01*
X107814110Y-85650500D01*
X107945890Y-85650500D01*
X107945892Y-85650500D01*
X108073186Y-85616392D01*
X108073188Y-85616390D01*
X108073190Y-85616390D01*
X108187309Y-85550503D01*
X108187309Y-85550502D01*
X108187314Y-85550500D01*
X108280500Y-85457314D01*
X108280503Y-85457309D01*
X108346390Y-85343190D01*
X108346390Y-85343188D01*
X108346392Y-85343186D01*
X108380500Y-85215892D01*
X108380500Y-85084108D01*
X108346392Y-84956814D01*
X108346390Y-84956811D01*
X108346390Y-84956809D01*
X108280503Y-84842690D01*
X108280501Y-84842688D01*
X108280500Y-84842686D01*
X108187314Y-84749500D01*
X108187311Y-84749498D01*
X108187309Y-84749496D01*
X108073189Y-84683609D01*
X108073191Y-84683609D01*
X108020534Y-84669500D01*
X107945892Y-84649500D01*
X107814108Y-84649500D01*
X107739466Y-84669500D01*
X107686809Y-84683609D01*
X107572690Y-84749496D01*
X107479496Y-84842690D01*
X107413609Y-84956809D01*
X107413608Y-84956814D01*
X107379500Y-85084108D01*
X101048537Y-85084108D01*
X101025977Y-85050345D01*
X100879655Y-84904023D01*
X100814690Y-84860615D01*
X100707597Y-84789058D01*
X100516418Y-84709869D01*
X100313467Y-84669500D01*
X100313465Y-84669500D01*
X100106535Y-84669500D01*
X100106532Y-84669500D01*
X99903581Y-84709869D01*
X99712402Y-84789058D01*
X99540348Y-84904020D01*
X99394020Y-85050348D01*
X99279058Y-85222402D01*
X99199869Y-85413581D01*
X99159500Y-85616532D01*
X97970500Y-85616532D01*
X97970500Y-84601537D01*
X116468155Y-84601537D01*
X116468155Y-84733321D01*
X116474953Y-84758691D01*
X116502264Y-84860619D01*
X116568151Y-84974738D01*
X116568153Y-84974740D01*
X116568155Y-84974743D01*
X116661341Y-85067929D01*
X116661343Y-85067930D01*
X116661345Y-85067932D01*
X116775465Y-85133819D01*
X116775466Y-85133819D01*
X116775469Y-85133821D01*
X116861206Y-85156794D01*
X116912520Y-85190117D01*
X116934447Y-85247238D01*
X116934583Y-85252420D01*
X116934583Y-85290975D01*
X116946007Y-85333609D01*
X116968692Y-85418273D01*
X117034579Y-85532392D01*
X117034581Y-85532394D01*
X117034583Y-85532397D01*
X117127769Y-85625583D01*
X117127771Y-85625584D01*
X117127773Y-85625586D01*
X117241893Y-85691473D01*
X117241891Y-85691473D01*
X117241895Y-85691474D01*
X117241897Y-85691475D01*
X117369191Y-85725583D01*
X117369193Y-85725583D01*
X117500973Y-85725583D01*
X117500975Y-85725583D01*
X117628269Y-85691475D01*
X117628271Y-85691473D01*
X117628273Y-85691473D01*
X117742392Y-85625586D01*
X117742392Y-85625585D01*
X117742397Y-85625583D01*
X117835583Y-85532397D01*
X117858510Y-85492686D01*
X117901473Y-85418273D01*
X117901473Y-85418271D01*
X117901475Y-85418269D01*
X117935583Y-85290975D01*
X117935583Y-85159191D01*
X117901475Y-85031897D01*
X117901473Y-85031894D01*
X117901473Y-85031892D01*
X117835586Y-84917773D01*
X117835584Y-84917771D01*
X117835583Y-84917769D01*
X117742397Y-84824583D01*
X117742394Y-84824581D01*
X117742392Y-84824579D01*
X117628272Y-84758692D01*
X117628273Y-84758692D01*
X117542532Y-84735718D01*
X117491217Y-84702393D01*
X117469291Y-84645272D01*
X117469155Y-84640091D01*
X117469155Y-84601538D01*
X117469155Y-84601537D01*
X117435047Y-84474243D01*
X117435045Y-84474240D01*
X117435045Y-84474238D01*
X117369158Y-84360119D01*
X117369156Y-84360117D01*
X117369155Y-84360115D01*
X117275969Y-84266929D01*
X117275966Y-84266927D01*
X117275964Y-84266925D01*
X117161844Y-84201038D01*
X117161846Y-84201038D01*
X117112454Y-84187804D01*
X117034547Y-84166929D01*
X116902763Y-84166929D01*
X116824855Y-84187804D01*
X116775464Y-84201038D01*
X116661345Y-84266925D01*
X116568151Y-84360119D01*
X116502264Y-84474238D01*
X116502263Y-84474243D01*
X116468155Y-84601537D01*
X97970500Y-84601537D01*
X97970500Y-83076532D01*
X99159500Y-83076532D01*
X99159500Y-83283467D01*
X99199869Y-83486418D01*
X99279058Y-83677597D01*
X99363590Y-83804109D01*
X99394023Y-83849655D01*
X99540345Y-83995977D01*
X99712402Y-84110941D01*
X99903580Y-84190130D01*
X100106535Y-84230500D01*
X100106536Y-84230500D01*
X100313464Y-84230500D01*
X100313465Y-84230500D01*
X100516420Y-84190130D01*
X100707598Y-84110941D01*
X100879655Y-83995977D01*
X101025977Y-83849655D01*
X101140941Y-83677598D01*
X101216946Y-83494108D01*
X111119500Y-83494108D01*
X111119500Y-83625892D01*
X111143276Y-83714625D01*
X111153609Y-83753190D01*
X111219496Y-83867309D01*
X111219498Y-83867311D01*
X111219500Y-83867314D01*
X111312686Y-83960500D01*
X111312688Y-83960501D01*
X111312690Y-83960503D01*
X111426810Y-84026390D01*
X111426808Y-84026390D01*
X111426812Y-84026391D01*
X111426814Y-84026392D01*
X111554108Y-84060500D01*
X111554110Y-84060500D01*
X111685890Y-84060500D01*
X111685892Y-84060500D01*
X111813186Y-84026392D01*
X111813188Y-84026390D01*
X111813190Y-84026390D01*
X111927309Y-83960503D01*
X111927309Y-83960502D01*
X111927314Y-83960500D01*
X112020500Y-83867314D01*
X112020503Y-83867309D01*
X112086390Y-83753190D01*
X112086390Y-83753188D01*
X112086392Y-83753186D01*
X112108527Y-83670574D01*
X112141850Y-83619263D01*
X112198971Y-83597336D01*
X112253655Y-83610465D01*
X112275076Y-83622833D01*
X112275077Y-83622833D01*
X112275080Y-83622835D01*
X112402374Y-83656943D01*
X112402376Y-83656943D01*
X112534156Y-83656943D01*
X112534158Y-83656943D01*
X112661452Y-83622835D01*
X112661454Y-83622833D01*
X112661456Y-83622833D01*
X112775575Y-83556946D01*
X112775575Y-83556945D01*
X112775580Y-83556943D01*
X112868766Y-83463757D01*
X112934658Y-83349629D01*
X112936857Y-83341424D01*
X115216816Y-83341424D01*
X115216816Y-83473208D01*
X115246895Y-83585467D01*
X115250925Y-83600506D01*
X115316812Y-83714625D01*
X115316814Y-83714627D01*
X115316816Y-83714630D01*
X115410002Y-83807816D01*
X115410004Y-83807817D01*
X115410006Y-83807819D01*
X115524126Y-83873706D01*
X115524124Y-83873706D01*
X115524128Y-83873707D01*
X115524130Y-83873708D01*
X115651424Y-83907816D01*
X115651426Y-83907816D01*
X115783206Y-83907816D01*
X115783208Y-83907816D01*
X115910502Y-83873708D01*
X115910504Y-83873706D01*
X115910506Y-83873706D01*
X116024625Y-83807819D01*
X116024625Y-83807818D01*
X116024630Y-83807816D01*
X116117816Y-83714630D01*
X116117819Y-83714625D01*
X116183706Y-83600506D01*
X116183706Y-83600504D01*
X116183708Y-83600502D01*
X116217816Y-83473208D01*
X116217816Y-83341424D01*
X116183708Y-83214130D01*
X116183706Y-83214127D01*
X116183706Y-83214125D01*
X116117819Y-83100006D01*
X116117817Y-83100004D01*
X116117816Y-83100002D01*
X116024630Y-83006816D01*
X116024627Y-83006814D01*
X116024625Y-83006812D01*
X115910505Y-82940925D01*
X115910507Y-82940925D01*
X115861115Y-82927691D01*
X115783208Y-82906816D01*
X115651424Y-82906816D01*
X115573516Y-82927691D01*
X115524125Y-82940925D01*
X115410006Y-83006812D01*
X115316812Y-83100006D01*
X115250925Y-83214125D01*
X115250924Y-83214130D01*
X115216816Y-83341424D01*
X112936857Y-83341424D01*
X112968766Y-83222335D01*
X112968766Y-83090551D01*
X112934658Y-82963257D01*
X112934656Y-82963253D01*
X112934656Y-82963252D01*
X112868769Y-82849133D01*
X112868767Y-82849131D01*
X112868766Y-82849129D01*
X112775580Y-82755943D01*
X112775577Y-82755941D01*
X112775575Y-82755939D01*
X112661455Y-82690052D01*
X112661457Y-82690052D01*
X112612065Y-82676818D01*
X112534158Y-82655943D01*
X112402374Y-82655943D01*
X112324466Y-82676818D01*
X112275075Y-82690052D01*
X112160956Y-82755939D01*
X112067762Y-82849133D01*
X112001875Y-82963253D01*
X112001873Y-82963257D01*
X111979738Y-83045866D01*
X111946414Y-83097180D01*
X111889292Y-83119106D01*
X111834611Y-83105978D01*
X111813188Y-83093609D01*
X111813187Y-83093608D01*
X111813186Y-83093608D01*
X111685892Y-83059500D01*
X111554108Y-83059500D01*
X111476200Y-83080375D01*
X111426809Y-83093609D01*
X111312690Y-83159496D01*
X111219496Y-83252690D01*
X111153609Y-83366809D01*
X111153608Y-83366814D01*
X111119500Y-83494108D01*
X101216946Y-83494108D01*
X101220130Y-83486420D01*
X101260500Y-83283465D01*
X101260500Y-83076535D01*
X101220130Y-82873580D01*
X101140941Y-82682402D01*
X101062568Y-82565108D01*
X113825207Y-82565108D01*
X113825207Y-82696892D01*
X113841030Y-82755943D01*
X113859316Y-82824190D01*
X113925203Y-82938309D01*
X113925205Y-82938311D01*
X113925207Y-82938314D01*
X114018393Y-83031500D01*
X114018395Y-83031501D01*
X114018397Y-83031503D01*
X114132517Y-83097390D01*
X114132515Y-83097390D01*
X114132519Y-83097391D01*
X114132521Y-83097392D01*
X114259815Y-83131500D01*
X114259817Y-83131500D01*
X114391597Y-83131500D01*
X114391599Y-83131500D01*
X114518893Y-83097392D01*
X114518895Y-83097390D01*
X114518897Y-83097390D01*
X114633016Y-83031503D01*
X114633016Y-83031502D01*
X114633021Y-83031500D01*
X114726207Y-82938314D01*
X114726210Y-82938309D01*
X114792097Y-82824190D01*
X114792097Y-82824188D01*
X114792099Y-82824186D01*
X114826207Y-82696892D01*
X114826207Y-82565108D01*
X114792099Y-82437814D01*
X114792097Y-82437811D01*
X114792097Y-82437809D01*
X114726210Y-82323690D01*
X114726208Y-82323688D01*
X114726207Y-82323686D01*
X114633021Y-82230500D01*
X114633018Y-82230498D01*
X114633016Y-82230496D01*
X114518896Y-82164609D01*
X114518898Y-82164609D01*
X114469506Y-82151375D01*
X114391599Y-82130500D01*
X114259815Y-82130500D01*
X114181907Y-82151375D01*
X114132516Y-82164609D01*
X114018397Y-82230496D01*
X113925203Y-82323690D01*
X113859316Y-82437809D01*
X113859315Y-82437814D01*
X113825207Y-82565108D01*
X101062568Y-82565108D01*
X101025977Y-82510345D01*
X100879655Y-82364023D01*
X100819286Y-82323686D01*
X100707597Y-82249058D01*
X100516418Y-82169869D01*
X100313467Y-82129500D01*
X100313465Y-82129500D01*
X100106535Y-82129500D01*
X100106532Y-82129500D01*
X99903581Y-82169869D01*
X99712402Y-82249058D01*
X99540348Y-82364020D01*
X99394020Y-82510348D01*
X99279058Y-82682402D01*
X99199869Y-82873581D01*
X99159500Y-83076532D01*
X97970500Y-83076532D01*
X97970500Y-81995106D01*
X111238502Y-81995106D01*
X111238502Y-82126890D01*
X111266263Y-82230496D01*
X111272611Y-82254188D01*
X111338498Y-82368307D01*
X111338500Y-82368309D01*
X111338502Y-82368312D01*
X111431688Y-82461498D01*
X111431690Y-82461499D01*
X111431692Y-82461501D01*
X111545812Y-82527388D01*
X111545810Y-82527388D01*
X111545814Y-82527389D01*
X111545816Y-82527390D01*
X111673110Y-82561498D01*
X111673112Y-82561498D01*
X111804892Y-82561498D01*
X111804894Y-82561498D01*
X111932188Y-82527390D01*
X111932190Y-82527388D01*
X111932192Y-82527388D01*
X112046311Y-82461501D01*
X112046311Y-82461500D01*
X112046316Y-82461498D01*
X112139502Y-82368312D01*
X112205394Y-82254184D01*
X112239502Y-82126890D01*
X112239502Y-81995106D01*
X112205394Y-81867812D01*
X112205392Y-81867809D01*
X112205392Y-81867807D01*
X112139505Y-81753688D01*
X112139503Y-81753686D01*
X112139502Y-81753684D01*
X112046316Y-81660498D01*
X112046313Y-81660496D01*
X112046311Y-81660494D01*
X111932191Y-81594607D01*
X111932193Y-81594607D01*
X111882801Y-81581373D01*
X111804894Y-81560498D01*
X111673110Y-81560498D01*
X111595202Y-81581373D01*
X111545811Y-81594607D01*
X111431692Y-81660494D01*
X111338498Y-81753688D01*
X111272611Y-81867807D01*
X111272610Y-81867812D01*
X111238502Y-81995106D01*
X97970500Y-81995106D01*
X97970500Y-79770253D01*
X99159500Y-79770253D01*
X99159500Y-81509746D01*
X99159501Y-81509758D01*
X99169595Y-81560498D01*
X99171133Y-81568231D01*
X99215448Y-81634552D01*
X99281769Y-81678867D01*
X99326231Y-81687711D01*
X99340241Y-81690498D01*
X99340246Y-81690498D01*
X99340252Y-81690500D01*
X99340253Y-81690500D01*
X101079747Y-81690500D01*
X101079748Y-81690500D01*
X101138231Y-81678867D01*
X101204552Y-81634552D01*
X101248867Y-81568231D01*
X101260500Y-81509748D01*
X101260500Y-80951132D01*
X116116524Y-80951132D01*
X116116524Y-81082916D01*
X116146603Y-81195175D01*
X116150633Y-81210214D01*
X116216520Y-81324333D01*
X116216522Y-81324335D01*
X116216524Y-81324338D01*
X116309710Y-81417524D01*
X116309712Y-81417525D01*
X116309714Y-81417527D01*
X116423834Y-81483414D01*
X116423832Y-81483414D01*
X116423836Y-81483415D01*
X116423838Y-81483416D01*
X116551132Y-81517524D01*
X116551134Y-81517524D01*
X116682914Y-81517524D01*
X116682916Y-81517524D01*
X116810210Y-81483416D01*
X116810212Y-81483414D01*
X116810214Y-81483414D01*
X116924333Y-81417527D01*
X116924333Y-81417526D01*
X116924338Y-81417524D01*
X117017524Y-81324338D01*
X117083416Y-81210210D01*
X117117524Y-81082916D01*
X117117524Y-80951132D01*
X117083416Y-80823838D01*
X117083414Y-80823835D01*
X117083414Y-80823833D01*
X117017527Y-80709714D01*
X117017525Y-80709712D01*
X117017524Y-80709710D01*
X116924338Y-80616524D01*
X116924335Y-80616522D01*
X116924333Y-80616520D01*
X116810213Y-80550633D01*
X116810215Y-80550633D01*
X116760823Y-80537399D01*
X116682916Y-80516524D01*
X116551132Y-80516524D01*
X116473224Y-80537399D01*
X116423833Y-80550633D01*
X116309714Y-80616520D01*
X116216520Y-80709714D01*
X116150633Y-80823833D01*
X116150632Y-80823838D01*
X116116524Y-80951132D01*
X101260500Y-80951132D01*
X101260500Y-79770252D01*
X101248867Y-79711769D01*
X101212343Y-79657108D01*
X108699500Y-79657108D01*
X108699500Y-79788892D01*
X108715739Y-79849496D01*
X108733609Y-79916190D01*
X108799496Y-80030309D01*
X108799498Y-80030311D01*
X108799500Y-80030314D01*
X108892686Y-80123500D01*
X108892688Y-80123501D01*
X108892690Y-80123503D01*
X109006810Y-80189390D01*
X109006808Y-80189390D01*
X109006812Y-80189391D01*
X109006814Y-80189392D01*
X109134108Y-80223500D01*
X109134110Y-80223500D01*
X109265890Y-80223500D01*
X109265892Y-80223500D01*
X109393186Y-80189392D01*
X109393188Y-80189390D01*
X109393190Y-80189390D01*
X109402339Y-80184108D01*
X119429500Y-80184108D01*
X119429500Y-80315892D01*
X119459579Y-80428151D01*
X119463609Y-80443190D01*
X119529496Y-80557309D01*
X119529498Y-80557311D01*
X119529500Y-80557314D01*
X119622686Y-80650500D01*
X119622688Y-80650501D01*
X119622690Y-80650503D01*
X119736810Y-80716390D01*
X119736808Y-80716390D01*
X119736812Y-80716391D01*
X119736814Y-80716392D01*
X119864108Y-80750500D01*
X119864110Y-80750500D01*
X119995890Y-80750500D01*
X119995892Y-80750500D01*
X120123186Y-80716392D01*
X120123188Y-80716390D01*
X120123190Y-80716390D01*
X120237309Y-80650503D01*
X120237309Y-80650502D01*
X120237314Y-80650500D01*
X120330500Y-80557314D01*
X120396392Y-80443186D01*
X120430500Y-80315892D01*
X120430500Y-80184108D01*
X120396392Y-80056814D01*
X120396390Y-80056811D01*
X120396390Y-80056809D01*
X120330503Y-79942690D01*
X120330501Y-79942688D01*
X120330500Y-79942686D01*
X120237314Y-79849500D01*
X120237311Y-79849498D01*
X120237309Y-79849496D01*
X120123189Y-79783609D01*
X120123191Y-79783609D01*
X120073299Y-79770241D01*
X119995892Y-79749500D01*
X119864108Y-79749500D01*
X119786701Y-79770241D01*
X119736809Y-79783609D01*
X119622690Y-79849496D01*
X119529496Y-79942690D01*
X119463609Y-80056809D01*
X119463608Y-80056814D01*
X119429500Y-80184108D01*
X109402339Y-80184108D01*
X109507309Y-80123503D01*
X109507309Y-80123502D01*
X109507314Y-80123500D01*
X109600500Y-80030314D01*
X109617713Y-80000500D01*
X109666390Y-79916190D01*
X109666390Y-79916188D01*
X109666392Y-79916186D01*
X109700500Y-79788892D01*
X109700500Y-79657108D01*
X109666392Y-79529814D01*
X109666390Y-79529811D01*
X109666390Y-79529809D01*
X109600503Y-79415690D01*
X109600501Y-79415688D01*
X109600500Y-79415686D01*
X109507314Y-79322500D01*
X109507311Y-79322498D01*
X109507309Y-79322496D01*
X109393189Y-79256609D01*
X109393191Y-79256609D01*
X109343799Y-79243375D01*
X109265892Y-79222500D01*
X109134108Y-79222500D01*
X109056200Y-79243375D01*
X109006809Y-79256609D01*
X108892690Y-79322496D01*
X108799496Y-79415690D01*
X108733609Y-79529809D01*
X108723941Y-79565892D01*
X108699500Y-79657108D01*
X101212343Y-79657108D01*
X101204552Y-79645448D01*
X101182186Y-79630503D01*
X101138233Y-79601134D01*
X101138231Y-79601133D01*
X101138228Y-79601132D01*
X101138227Y-79601132D01*
X101079758Y-79589501D01*
X101079748Y-79589500D01*
X99340252Y-79589500D01*
X99340251Y-79589500D01*
X99340241Y-79589501D01*
X99281772Y-79601132D01*
X99281766Y-79601134D01*
X99215451Y-79645445D01*
X99215445Y-79645451D01*
X99171134Y-79711766D01*
X99171132Y-79711772D01*
X99159501Y-79770241D01*
X99159500Y-79770253D01*
X97970500Y-79770253D01*
X97970500Y-78574108D01*
X109309500Y-78574108D01*
X109309500Y-78705892D01*
X109324907Y-78763392D01*
X109343609Y-78833190D01*
X109409496Y-78947309D01*
X109409498Y-78947311D01*
X109409500Y-78947314D01*
X109502686Y-79040500D01*
X109502688Y-79040501D01*
X109502690Y-79040503D01*
X109616810Y-79106390D01*
X109616808Y-79106390D01*
X109616812Y-79106391D01*
X109616814Y-79106392D01*
X109744108Y-79140500D01*
X109744110Y-79140500D01*
X109875890Y-79140500D01*
X109875892Y-79140500D01*
X110003186Y-79106392D01*
X110003188Y-79106390D01*
X110003190Y-79106390D01*
X110117309Y-79040503D01*
X110117309Y-79040502D01*
X110117314Y-79040500D01*
X110210500Y-78947314D01*
X110275860Y-78834108D01*
X116099500Y-78834108D01*
X116099500Y-78965892D01*
X116119491Y-79040500D01*
X116133609Y-79093190D01*
X116199496Y-79207309D01*
X116199498Y-79207311D01*
X116199500Y-79207314D01*
X116292686Y-79300500D01*
X116292688Y-79300501D01*
X116292690Y-79300503D01*
X116406810Y-79366390D01*
X116406808Y-79366390D01*
X116406812Y-79366391D01*
X116406814Y-79366392D01*
X116534108Y-79400500D01*
X116534110Y-79400500D01*
X116665890Y-79400500D01*
X116665892Y-79400500D01*
X116793186Y-79366392D01*
X116793188Y-79366390D01*
X116793190Y-79366390D01*
X116907309Y-79300503D01*
X116907309Y-79300502D01*
X116907314Y-79300500D01*
X117000500Y-79207314D01*
X117018354Y-79176390D01*
X117066390Y-79093190D01*
X117066390Y-79093188D01*
X117066392Y-79093186D01*
X117100500Y-78965892D01*
X117100500Y-78834108D01*
X117066392Y-78706814D01*
X117066390Y-78706811D01*
X117066390Y-78706809D01*
X117030189Y-78644108D01*
X120129500Y-78644108D01*
X120129500Y-78775892D01*
X120144853Y-78833190D01*
X120163609Y-78903190D01*
X120229496Y-79017309D01*
X120229498Y-79017311D01*
X120229500Y-79017314D01*
X120322686Y-79110500D01*
X120322688Y-79110501D01*
X120322690Y-79110503D01*
X120436810Y-79176390D01*
X120436808Y-79176390D01*
X120436812Y-79176391D01*
X120436814Y-79176392D01*
X120564108Y-79210500D01*
X120564110Y-79210500D01*
X120695890Y-79210500D01*
X120695892Y-79210500D01*
X120823186Y-79176392D01*
X120823188Y-79176390D01*
X120823190Y-79176390D01*
X120937309Y-79110503D01*
X120937309Y-79110502D01*
X120937314Y-79110500D01*
X121030500Y-79017314D01*
X121070918Y-78947309D01*
X121096390Y-78903190D01*
X121096390Y-78903188D01*
X121096392Y-78903186D01*
X121130500Y-78775892D01*
X121130500Y-78644108D01*
X121096392Y-78516814D01*
X121096390Y-78516811D01*
X121096390Y-78516809D01*
X121030503Y-78402690D01*
X121030501Y-78402688D01*
X121030500Y-78402686D01*
X120937314Y-78309500D01*
X120937311Y-78309498D01*
X120937309Y-78309496D01*
X120823189Y-78243609D01*
X120823191Y-78243609D01*
X120770414Y-78229468D01*
X120695892Y-78209500D01*
X120564108Y-78209500D01*
X120489586Y-78229468D01*
X120436809Y-78243609D01*
X120322690Y-78309496D01*
X120229496Y-78402690D01*
X120163609Y-78516809D01*
X120155213Y-78548146D01*
X120129500Y-78644108D01*
X117030189Y-78644108D01*
X117000503Y-78592690D01*
X117000501Y-78592688D01*
X117000500Y-78592686D01*
X116907314Y-78499500D01*
X116907311Y-78499498D01*
X116907309Y-78499496D01*
X116793189Y-78433609D01*
X116793191Y-78433609D01*
X116743799Y-78420375D01*
X116665892Y-78399500D01*
X116534108Y-78399500D01*
X116456200Y-78420375D01*
X116406809Y-78433609D01*
X116292690Y-78499496D01*
X116199496Y-78592690D01*
X116133609Y-78706809D01*
X116133608Y-78706814D01*
X116099500Y-78834108D01*
X110275860Y-78834108D01*
X110276392Y-78833186D01*
X110277034Y-78830786D01*
X110278003Y-78829294D01*
X110278874Y-78827193D01*
X110279263Y-78827354D01*
X110310349Y-78779473D01*
X110367468Y-78757538D01*
X110400158Y-78763156D01*
X110400546Y-78761712D01*
X110406812Y-78763391D01*
X110406814Y-78763392D01*
X110534108Y-78797500D01*
X110534110Y-78797500D01*
X110665890Y-78797500D01*
X110665892Y-78797500D01*
X110793186Y-78763392D01*
X110793188Y-78763390D01*
X110793190Y-78763390D01*
X110830442Y-78741883D01*
X110907309Y-78697503D01*
X110907309Y-78697502D01*
X110907314Y-78697500D01*
X111000500Y-78604314D01*
X111007211Y-78592690D01*
X111066390Y-78490190D01*
X111066390Y-78490188D01*
X111066392Y-78490186D01*
X111100500Y-78362892D01*
X111100500Y-78231108D01*
X111066392Y-78103814D01*
X111000500Y-77989686D01*
X110992568Y-77981754D01*
X118721854Y-77981754D01*
X118721854Y-78113538D01*
X118737950Y-78173608D01*
X118755963Y-78240836D01*
X118821850Y-78354955D01*
X118821852Y-78354957D01*
X118821854Y-78354960D01*
X118915040Y-78448146D01*
X118915042Y-78448147D01*
X118915044Y-78448149D01*
X119029164Y-78514036D01*
X119029162Y-78514036D01*
X119029166Y-78514037D01*
X119029168Y-78514038D01*
X119156462Y-78548146D01*
X119156464Y-78548146D01*
X119288244Y-78548146D01*
X119288246Y-78548146D01*
X119415540Y-78514038D01*
X119415542Y-78514036D01*
X119415544Y-78514036D01*
X119529663Y-78448149D01*
X119529663Y-78448148D01*
X119529668Y-78448146D01*
X119622854Y-78354960D01*
X119635714Y-78332686D01*
X119688744Y-78240836D01*
X119688744Y-78240834D01*
X119688746Y-78240832D01*
X119722854Y-78113538D01*
X119722854Y-77981754D01*
X119688746Y-77854460D01*
X119688744Y-77854457D01*
X119688744Y-77854455D01*
X119622857Y-77740336D01*
X119622855Y-77740334D01*
X119622854Y-77740332D01*
X119529668Y-77647146D01*
X119529665Y-77647144D01*
X119529663Y-77647142D01*
X119415543Y-77581255D01*
X119415545Y-77581255D01*
X119366153Y-77568021D01*
X119288246Y-77547146D01*
X119156462Y-77547146D01*
X119078554Y-77568021D01*
X119029163Y-77581255D01*
X118915044Y-77647142D01*
X118821850Y-77740336D01*
X118755963Y-77854455D01*
X118736893Y-77925624D01*
X118721854Y-77981754D01*
X110992568Y-77981754D01*
X110907314Y-77896500D01*
X110907311Y-77896498D01*
X110907309Y-77896496D01*
X110793189Y-77830609D01*
X110793191Y-77830609D01*
X110743799Y-77817375D01*
X110665892Y-77796500D01*
X110534108Y-77796500D01*
X110456200Y-77817375D01*
X110406809Y-77830609D01*
X110292690Y-77896496D01*
X110199496Y-77989690D01*
X110133609Y-78103810D01*
X110133605Y-78103818D01*
X110132960Y-78106228D01*
X110131988Y-78107724D01*
X110131126Y-78109806D01*
X110130739Y-78109646D01*
X110099632Y-78157540D01*
X110042509Y-78179462D01*
X110009840Y-78173845D01*
X110009454Y-78175288D01*
X110003187Y-78173608D01*
X110003186Y-78173608D01*
X109875892Y-78139500D01*
X109744108Y-78139500D01*
X109676781Y-78157540D01*
X109616809Y-78173609D01*
X109502690Y-78239496D01*
X109409496Y-78332690D01*
X109343609Y-78446809D01*
X109329492Y-78499496D01*
X109309500Y-78574108D01*
X97970500Y-78574108D01*
X97970500Y-75779108D01*
X105625289Y-75779108D01*
X105625289Y-75910892D01*
X105655368Y-76023151D01*
X105659398Y-76038190D01*
X105725285Y-76152309D01*
X105725287Y-76152311D01*
X105725289Y-76152314D01*
X105818475Y-76245500D01*
X105818477Y-76245501D01*
X105818479Y-76245503D01*
X105932599Y-76311390D01*
X105932597Y-76311390D01*
X105932601Y-76311391D01*
X105932603Y-76311392D01*
X106059897Y-76345500D01*
X106059899Y-76345500D01*
X106191679Y-76345500D01*
X106191681Y-76345500D01*
X106318975Y-76311392D01*
X106318977Y-76311390D01*
X106318979Y-76311390D01*
X106433098Y-76245503D01*
X106433098Y-76245502D01*
X106433103Y-76245500D01*
X106526289Y-76152314D01*
X106592181Y-76038186D01*
X106626289Y-75910892D01*
X106626289Y-75779108D01*
X106592181Y-75651814D01*
X106592179Y-75651811D01*
X106592179Y-75651809D01*
X106526292Y-75537690D01*
X106526290Y-75537688D01*
X106526289Y-75537686D01*
X106433103Y-75444500D01*
X106433100Y-75444498D01*
X106433098Y-75444496D01*
X106318978Y-75378609D01*
X106318980Y-75378609D01*
X106269588Y-75365375D01*
X106191681Y-75344500D01*
X106059897Y-75344500D01*
X105981989Y-75365375D01*
X105932598Y-75378609D01*
X105818479Y-75444496D01*
X105725285Y-75537690D01*
X105659398Y-75651809D01*
X105659397Y-75651814D01*
X105625289Y-75779108D01*
X97970500Y-75779108D01*
X97970500Y-74434108D01*
X115599500Y-74434108D01*
X115599500Y-74565892D01*
X115629579Y-74678151D01*
X115633609Y-74693190D01*
X115699496Y-74807309D01*
X115699498Y-74807311D01*
X115699500Y-74807314D01*
X115792686Y-74900500D01*
X115792688Y-74900501D01*
X115792690Y-74900503D01*
X115906810Y-74966390D01*
X115906808Y-74966390D01*
X115906812Y-74966391D01*
X115906814Y-74966392D01*
X116034108Y-75000500D01*
X116034110Y-75000500D01*
X116165890Y-75000500D01*
X116165892Y-75000500D01*
X116293186Y-74966392D01*
X116293188Y-74966390D01*
X116293190Y-74966390D01*
X116407309Y-74900503D01*
X116407309Y-74900502D01*
X116407314Y-74900500D01*
X116500500Y-74807314D01*
X116566392Y-74693186D01*
X116600500Y-74565892D01*
X116600500Y-74434108D01*
X116566392Y-74306814D01*
X116566390Y-74306811D01*
X116566390Y-74306809D01*
X116500503Y-74192690D01*
X116500501Y-74192688D01*
X116500500Y-74192686D01*
X116407314Y-74099500D01*
X116407311Y-74099498D01*
X116407309Y-74099496D01*
X116293189Y-74033609D01*
X116293191Y-74033609D01*
X116243799Y-74020375D01*
X116165892Y-73999500D01*
X116034108Y-73999500D01*
X115956200Y-74020375D01*
X115906809Y-74033609D01*
X115792690Y-74099496D01*
X115699496Y-74192690D01*
X115633609Y-74306809D01*
X115633608Y-74306814D01*
X115599500Y-74434108D01*
X97970500Y-74434108D01*
X97970500Y-73696754D01*
X105946854Y-73696754D01*
X105946854Y-73828538D01*
X105976933Y-73940797D01*
X105980963Y-73955836D01*
X106046850Y-74069955D01*
X106046852Y-74069957D01*
X106046854Y-74069960D01*
X106140040Y-74163146D01*
X106140042Y-74163147D01*
X106140044Y-74163149D01*
X106254164Y-74229036D01*
X106254162Y-74229036D01*
X106254166Y-74229037D01*
X106254168Y-74229038D01*
X106381462Y-74263146D01*
X106381464Y-74263146D01*
X106513244Y-74263146D01*
X106513246Y-74263146D01*
X106640540Y-74229038D01*
X106640542Y-74229036D01*
X106640544Y-74229036D01*
X106754663Y-74163149D01*
X106754663Y-74163148D01*
X106754668Y-74163146D01*
X106847854Y-74069960D01*
X106913746Y-73955832D01*
X106947854Y-73828538D01*
X106947854Y-73696754D01*
X106913746Y-73569460D01*
X106913744Y-73569457D01*
X106913744Y-73569455D01*
X106847857Y-73455336D01*
X106847855Y-73455334D01*
X106847854Y-73455332D01*
X106754668Y-73362146D01*
X106754665Y-73362144D01*
X106754663Y-73362142D01*
X106640543Y-73296255D01*
X106640545Y-73296255D01*
X106591153Y-73283021D01*
X106513246Y-73262146D01*
X106381462Y-73262146D01*
X106303554Y-73283021D01*
X106254163Y-73296255D01*
X106140044Y-73362142D01*
X106046850Y-73455336D01*
X105980963Y-73569455D01*
X105980962Y-73569460D01*
X105946854Y-73696754D01*
X97970500Y-73696754D01*
X97970500Y-71394108D01*
X104343097Y-71394108D01*
X104343097Y-71525892D01*
X104373176Y-71638151D01*
X104377206Y-71653190D01*
X104443093Y-71767309D01*
X104443095Y-71767311D01*
X104443097Y-71767314D01*
X104536283Y-71860500D01*
X104536285Y-71860501D01*
X104536287Y-71860503D01*
X104650407Y-71926390D01*
X104650405Y-71926390D01*
X104650409Y-71926391D01*
X104650411Y-71926392D01*
X104777705Y-71960500D01*
X104777707Y-71960500D01*
X104909487Y-71960500D01*
X104909489Y-71960500D01*
X105036783Y-71926392D01*
X105036785Y-71926390D01*
X105036787Y-71926390D01*
X105150906Y-71860503D01*
X105150906Y-71860502D01*
X105150911Y-71860500D01*
X105244097Y-71767314D01*
X105309989Y-71653186D01*
X105344097Y-71525892D01*
X105344097Y-71394108D01*
X105309989Y-71266814D01*
X105309987Y-71266811D01*
X105309987Y-71266809D01*
X105244100Y-71152690D01*
X105244098Y-71152688D01*
X105244097Y-71152686D01*
X105150911Y-71059500D01*
X105150908Y-71059498D01*
X105150906Y-71059496D01*
X105036786Y-70993609D01*
X105036788Y-70993609D01*
X104987396Y-70980375D01*
X104909489Y-70959500D01*
X104777705Y-70959500D01*
X104699797Y-70980375D01*
X104650406Y-70993609D01*
X104536287Y-71059496D01*
X104443093Y-71152690D01*
X104377206Y-71266809D01*
X104377205Y-71266814D01*
X104343097Y-71394108D01*
X97970500Y-71394108D01*
X97970500Y-70334108D01*
X100999500Y-70334108D01*
X100999500Y-70465892D01*
X101022636Y-70552238D01*
X101033609Y-70593190D01*
X101099496Y-70707309D01*
X101099498Y-70707311D01*
X101099500Y-70707314D01*
X101192686Y-70800500D01*
X101192688Y-70800501D01*
X101192690Y-70800503D01*
X101306810Y-70866390D01*
X101306808Y-70866390D01*
X101306812Y-70866391D01*
X101306814Y-70866392D01*
X101434108Y-70900500D01*
X101434110Y-70900500D01*
X101565890Y-70900500D01*
X101565892Y-70900500D01*
X101693186Y-70866392D01*
X101693188Y-70866390D01*
X101693190Y-70866390D01*
X101807309Y-70800503D01*
X101807309Y-70800502D01*
X101807314Y-70800500D01*
X101900500Y-70707314D01*
X101947669Y-70625615D01*
X101966390Y-70593190D01*
X101966390Y-70593188D01*
X101966392Y-70593186D01*
X102000500Y-70465892D01*
X102000500Y-70334108D01*
X101966392Y-70206814D01*
X101966390Y-70206811D01*
X101966390Y-70206809D01*
X101900503Y-70092690D01*
X101900501Y-70092688D01*
X101900500Y-70092686D01*
X101807314Y-69999500D01*
X101807311Y-69999498D01*
X101807309Y-69999496D01*
X101783666Y-69985846D01*
X104870097Y-69985846D01*
X104870097Y-70117630D01*
X104893992Y-70206809D01*
X104904206Y-70244928D01*
X104970093Y-70359047D01*
X104970095Y-70359049D01*
X104970097Y-70359052D01*
X105063283Y-70452238D01*
X105063285Y-70452239D01*
X105063287Y-70452241D01*
X105177407Y-70518128D01*
X105177405Y-70518128D01*
X105177409Y-70518129D01*
X105177411Y-70518130D01*
X105304705Y-70552238D01*
X105306479Y-70552238D01*
X105307686Y-70552630D01*
X105311139Y-70553085D01*
X105311054Y-70553724D01*
X105364670Y-70571145D01*
X105400634Y-70620645D01*
X105402098Y-70625588D01*
X105423995Y-70707309D01*
X105433609Y-70743190D01*
X105499496Y-70857309D01*
X105499498Y-70857311D01*
X105499500Y-70857314D01*
X105592686Y-70950500D01*
X105592688Y-70950501D01*
X105592690Y-70950503D01*
X105706810Y-71016390D01*
X105706808Y-71016390D01*
X105706812Y-71016391D01*
X105706814Y-71016392D01*
X105834108Y-71050500D01*
X105834110Y-71050500D01*
X105965890Y-71050500D01*
X105965892Y-71050500D01*
X106093186Y-71016392D01*
X106093188Y-71016390D01*
X106093190Y-71016390D01*
X106207309Y-70950503D01*
X106207309Y-70950502D01*
X106207314Y-70950500D01*
X106273706Y-70884108D01*
X120349500Y-70884108D01*
X120349500Y-71015892D01*
X120358773Y-71050500D01*
X120383609Y-71143190D01*
X120449496Y-71257309D01*
X120449498Y-71257311D01*
X120449500Y-71257314D01*
X120542686Y-71350500D01*
X120542688Y-71350501D01*
X120542690Y-71350503D01*
X120656810Y-71416390D01*
X120656808Y-71416390D01*
X120656812Y-71416391D01*
X120656814Y-71416392D01*
X120784108Y-71450500D01*
X120784110Y-71450500D01*
X120915890Y-71450500D01*
X120915892Y-71450500D01*
X121043186Y-71416392D01*
X121043188Y-71416390D01*
X121043190Y-71416390D01*
X121157309Y-71350503D01*
X121157309Y-71350502D01*
X121157314Y-71350500D01*
X121250500Y-71257314D01*
X121316392Y-71143186D01*
X121350500Y-71015892D01*
X121350500Y-70884108D01*
X121316392Y-70756814D01*
X121316390Y-70756811D01*
X121316390Y-70756809D01*
X121250503Y-70642690D01*
X121250501Y-70642688D01*
X121250500Y-70642686D01*
X121157314Y-70549500D01*
X121157311Y-70549498D01*
X121157309Y-70549496D01*
X121043189Y-70483609D01*
X121043191Y-70483609D01*
X120977068Y-70465892D01*
X120915892Y-70449500D01*
X120784108Y-70449500D01*
X120722932Y-70465892D01*
X120656809Y-70483609D01*
X120542690Y-70549496D01*
X120449496Y-70642690D01*
X120383609Y-70756809D01*
X120383608Y-70756814D01*
X120349500Y-70884108D01*
X106273706Y-70884108D01*
X106300500Y-70857314D01*
X106309504Y-70841717D01*
X106317357Y-70828118D01*
X106358524Y-70756814D01*
X106366392Y-70743186D01*
X106400500Y-70615892D01*
X106400500Y-70484108D01*
X106366392Y-70356814D01*
X106366390Y-70356811D01*
X106366390Y-70356809D01*
X106300503Y-70242690D01*
X106300501Y-70242688D01*
X106300500Y-70242686D01*
X106207314Y-70149500D01*
X106207311Y-70149498D01*
X106207309Y-70149496D01*
X106093189Y-70083609D01*
X106093191Y-70083609D01*
X106043799Y-70070375D01*
X105965892Y-70049500D01*
X105965890Y-70049500D01*
X105964118Y-70049500D01*
X105962910Y-70049107D01*
X105959458Y-70048653D01*
X105959542Y-70048013D01*
X105905927Y-70030593D01*
X105869963Y-69981093D01*
X105868498Y-69976149D01*
X105836989Y-69858552D01*
X105836987Y-69858549D01*
X105836987Y-69858547D01*
X105771100Y-69744428D01*
X105771098Y-69744426D01*
X105771097Y-69744424D01*
X105677911Y-69651238D01*
X105677908Y-69651236D01*
X105677906Y-69651234D01*
X105563786Y-69585347D01*
X105563788Y-69585347D01*
X105514396Y-69572113D01*
X105436489Y-69551238D01*
X105304705Y-69551238D01*
X105226797Y-69572113D01*
X105177406Y-69585347D01*
X105063287Y-69651234D01*
X104970093Y-69744428D01*
X104904206Y-69858547D01*
X104895059Y-69892686D01*
X104870097Y-69985846D01*
X101783666Y-69985846D01*
X101693189Y-69933609D01*
X101693191Y-69933609D01*
X101643799Y-69920375D01*
X101565892Y-69899500D01*
X101434108Y-69899500D01*
X101356200Y-69920375D01*
X101306809Y-69933609D01*
X101192690Y-69999496D01*
X101099496Y-70092690D01*
X101033609Y-70206809D01*
X101023395Y-70244928D01*
X100999500Y-70334108D01*
X97970500Y-70334108D01*
X97970500Y-69304108D01*
X98359500Y-69304108D01*
X98359500Y-69435892D01*
X98374852Y-69493186D01*
X98393609Y-69563190D01*
X98459496Y-69677309D01*
X98459498Y-69677311D01*
X98459500Y-69677314D01*
X98552686Y-69770500D01*
X98552688Y-69770501D01*
X98552690Y-69770503D01*
X98666810Y-69836390D01*
X98666808Y-69836390D01*
X98666812Y-69836391D01*
X98666814Y-69836392D01*
X98794108Y-69870500D01*
X98794110Y-69870500D01*
X98925890Y-69870500D01*
X98925892Y-69870500D01*
X99053186Y-69836392D01*
X99053188Y-69836390D01*
X99053190Y-69836390D01*
X99167309Y-69770503D01*
X99167309Y-69770502D01*
X99167314Y-69770500D01*
X99260500Y-69677314D01*
X99266274Y-69667314D01*
X99326390Y-69563190D01*
X99326390Y-69563188D01*
X99326392Y-69563186D01*
X99360500Y-69435892D01*
X99360500Y-69304108D01*
X99341744Y-69234108D01*
X102979500Y-69234108D01*
X102979500Y-69365892D01*
X102995577Y-69425892D01*
X103013609Y-69493190D01*
X103079496Y-69607309D01*
X103079498Y-69607311D01*
X103079500Y-69607314D01*
X103172686Y-69700500D01*
X103172688Y-69700501D01*
X103172690Y-69700503D01*
X103286810Y-69766390D01*
X103286808Y-69766390D01*
X103286812Y-69766391D01*
X103286814Y-69766392D01*
X103414108Y-69800500D01*
X103414110Y-69800500D01*
X103545890Y-69800500D01*
X103545892Y-69800500D01*
X103673186Y-69766392D01*
X103673188Y-69766390D01*
X103673190Y-69766390D01*
X103787309Y-69700503D01*
X103787309Y-69700502D01*
X103787314Y-69700500D01*
X103880500Y-69607314D01*
X103905975Y-69563190D01*
X103946390Y-69493190D01*
X103946390Y-69493188D01*
X103946392Y-69493186D01*
X103980500Y-69365892D01*
X103980500Y-69294108D01*
X118059500Y-69294108D01*
X118059500Y-69425892D01*
X118077531Y-69493186D01*
X118093609Y-69553190D01*
X118159496Y-69667309D01*
X118159498Y-69667311D01*
X118159500Y-69667314D01*
X118252686Y-69760500D01*
X118252688Y-69760501D01*
X118252690Y-69760503D01*
X118366810Y-69826390D01*
X118366808Y-69826390D01*
X118366812Y-69826391D01*
X118366814Y-69826392D01*
X118494108Y-69860500D01*
X118494110Y-69860500D01*
X118625890Y-69860500D01*
X118625892Y-69860500D01*
X118753186Y-69826392D01*
X118753188Y-69826390D01*
X118753190Y-69826390D01*
X118867309Y-69760503D01*
X118867309Y-69760502D01*
X118867314Y-69760500D01*
X118960500Y-69667314D01*
X119007824Y-69585347D01*
X119026390Y-69553190D01*
X119026390Y-69553188D01*
X119026392Y-69553186D01*
X119060500Y-69425892D01*
X119060500Y-69294108D01*
X119026392Y-69166814D01*
X119026390Y-69166811D01*
X119026390Y-69166809D01*
X118960503Y-69052690D01*
X118960501Y-69052688D01*
X118960500Y-69052686D01*
X118867314Y-68959500D01*
X118867311Y-68959498D01*
X118867309Y-68959496D01*
X118753189Y-68893609D01*
X118753191Y-68893609D01*
X118703799Y-68880375D01*
X118625892Y-68859500D01*
X118494108Y-68859500D01*
X118416200Y-68880375D01*
X118366809Y-68893609D01*
X118252690Y-68959496D01*
X118159496Y-69052690D01*
X118093609Y-69166809D01*
X118075577Y-69234108D01*
X118059500Y-69294108D01*
X103980500Y-69294108D01*
X103980500Y-69234108D01*
X103946392Y-69106814D01*
X103946390Y-69106811D01*
X103946390Y-69106809D01*
X103880503Y-68992690D01*
X103880501Y-68992688D01*
X103880500Y-68992686D01*
X103787314Y-68899500D01*
X103787311Y-68899498D01*
X103787309Y-68899496D01*
X103673189Y-68833609D01*
X103673191Y-68833609D01*
X103623799Y-68820375D01*
X103545892Y-68799500D01*
X103414108Y-68799500D01*
X103336200Y-68820375D01*
X103286809Y-68833609D01*
X103172690Y-68899496D01*
X103079496Y-68992690D01*
X103013609Y-69106809D01*
X102997531Y-69166814D01*
X102979500Y-69234108D01*
X99341744Y-69234108D01*
X99326392Y-69176814D01*
X99326390Y-69176811D01*
X99326390Y-69176809D01*
X99260503Y-69062690D01*
X99260501Y-69062688D01*
X99260500Y-69062686D01*
X99167314Y-68969500D01*
X99167311Y-68969498D01*
X99167309Y-68969496D01*
X99053189Y-68903609D01*
X99053191Y-68903609D01*
X99003799Y-68890375D01*
X98925892Y-68869500D01*
X98794108Y-68869500D01*
X98716200Y-68890375D01*
X98666809Y-68903609D01*
X98552690Y-68969496D01*
X98459496Y-69062690D01*
X98393609Y-69176809D01*
X98393608Y-69176814D01*
X98359500Y-69304108D01*
X97970500Y-69304108D01*
X97970500Y-68534108D01*
X125899500Y-68534108D01*
X125899500Y-68665892D01*
X125929579Y-68778151D01*
X125933609Y-68793190D01*
X125999496Y-68907309D01*
X125999498Y-68907311D01*
X125999500Y-68907314D01*
X126092686Y-69000500D01*
X126092688Y-69000501D01*
X126092690Y-69000503D01*
X126206810Y-69066390D01*
X126206808Y-69066390D01*
X126206812Y-69066391D01*
X126206814Y-69066392D01*
X126334108Y-69100500D01*
X126334110Y-69100500D01*
X126465890Y-69100500D01*
X126465892Y-69100500D01*
X126593186Y-69066392D01*
X126593188Y-69066390D01*
X126593190Y-69066390D01*
X126707309Y-69000503D01*
X126707309Y-69000502D01*
X126707314Y-69000500D01*
X126800500Y-68907314D01*
X126802640Y-68903608D01*
X126866390Y-68793190D01*
X126866390Y-68793188D01*
X126866392Y-68793186D01*
X126900500Y-68665892D01*
X126900500Y-68534108D01*
X126866392Y-68406814D01*
X126866390Y-68406811D01*
X126866390Y-68406809D01*
X126800503Y-68292690D01*
X126800501Y-68292688D01*
X126800500Y-68292686D01*
X126707314Y-68199500D01*
X126707311Y-68199498D01*
X126707309Y-68199496D01*
X126593189Y-68133609D01*
X126593191Y-68133609D01*
X126543799Y-68120375D01*
X126465892Y-68099500D01*
X126334108Y-68099500D01*
X126256200Y-68120375D01*
X126206809Y-68133609D01*
X126092690Y-68199496D01*
X125999496Y-68292690D01*
X125933609Y-68406809D01*
X125933608Y-68406814D01*
X125899500Y-68534108D01*
X97970500Y-68534108D01*
X97970500Y-67410748D01*
X117227532Y-67410748D01*
X117227532Y-67542532D01*
X117257611Y-67654791D01*
X117261641Y-67669830D01*
X117327528Y-67783949D01*
X117327530Y-67783951D01*
X117327532Y-67783954D01*
X117420718Y-67877140D01*
X117420720Y-67877141D01*
X117420722Y-67877143D01*
X117534842Y-67943030D01*
X117534840Y-67943030D01*
X117534844Y-67943031D01*
X117534846Y-67943032D01*
X117662140Y-67977140D01*
X117662142Y-67977140D01*
X117793922Y-67977140D01*
X117793924Y-67977140D01*
X117921218Y-67943032D01*
X117921220Y-67943030D01*
X117921222Y-67943030D01*
X118035341Y-67877143D01*
X118035341Y-67877142D01*
X118035346Y-67877140D01*
X118128532Y-67783954D01*
X118194424Y-67669826D01*
X118228532Y-67542532D01*
X118228532Y-67410748D01*
X118194424Y-67283454D01*
X118194422Y-67283451D01*
X118194422Y-67283449D01*
X118128535Y-67169330D01*
X118128533Y-67169328D01*
X118128532Y-67169326D01*
X118035346Y-67076140D01*
X118035343Y-67076138D01*
X118035341Y-67076136D01*
X117921221Y-67010249D01*
X117921223Y-67010249D01*
X117871831Y-66997015D01*
X117793924Y-66976140D01*
X117662140Y-66976140D01*
X117584232Y-66997015D01*
X117534841Y-67010249D01*
X117420722Y-67076136D01*
X117327528Y-67169330D01*
X117261641Y-67283449D01*
X117261640Y-67283454D01*
X117227532Y-67410748D01*
X97970500Y-67410748D01*
X97970500Y-65634108D01*
X118099500Y-65634108D01*
X118099500Y-65765892D01*
X118129579Y-65878151D01*
X118133609Y-65893190D01*
X118199496Y-66007309D01*
X118199498Y-66007311D01*
X118199500Y-66007314D01*
X118292686Y-66100500D01*
X118292688Y-66100501D01*
X118292690Y-66100503D01*
X118406810Y-66166390D01*
X118406808Y-66166390D01*
X118406812Y-66166391D01*
X118406814Y-66166392D01*
X118534108Y-66200500D01*
X118534110Y-66200500D01*
X118665890Y-66200500D01*
X118665892Y-66200500D01*
X118793186Y-66166392D01*
X118793188Y-66166390D01*
X118793190Y-66166390D01*
X118907309Y-66100503D01*
X118907309Y-66100502D01*
X118907314Y-66100500D01*
X119000500Y-66007314D01*
X119066392Y-65893186D01*
X119100500Y-65765892D01*
X119100500Y-65634108D01*
X119066392Y-65506814D01*
X119066390Y-65506811D01*
X119066390Y-65506809D01*
X119000503Y-65392690D01*
X119000501Y-65392688D01*
X119000500Y-65392686D01*
X118907314Y-65299500D01*
X118907311Y-65299498D01*
X118907309Y-65299496D01*
X118793189Y-65233609D01*
X118793191Y-65233609D01*
X118743799Y-65220375D01*
X118665892Y-65199500D01*
X118534108Y-65199500D01*
X118456200Y-65220375D01*
X118406809Y-65233609D01*
X118292690Y-65299496D01*
X118199496Y-65392690D01*
X118133609Y-65506809D01*
X118133608Y-65506814D01*
X118099500Y-65634108D01*
X97970500Y-65634108D01*
X97970500Y-63354108D01*
X101199500Y-63354108D01*
X101199500Y-63485892D01*
X101212420Y-63534109D01*
X101233609Y-63613190D01*
X101299496Y-63727309D01*
X101299498Y-63727311D01*
X101299500Y-63727314D01*
X101392686Y-63820500D01*
X101392688Y-63820501D01*
X101392690Y-63820503D01*
X101506810Y-63886390D01*
X101506808Y-63886390D01*
X101506812Y-63886391D01*
X101506814Y-63886392D01*
X101634108Y-63920500D01*
X101634110Y-63920500D01*
X101765890Y-63920500D01*
X101765892Y-63920500D01*
X101893186Y-63886392D01*
X101893188Y-63886390D01*
X101893190Y-63886390D01*
X102007309Y-63820503D01*
X102007309Y-63820502D01*
X102007314Y-63820500D01*
X102100500Y-63727314D01*
X102166392Y-63613186D01*
X102187581Y-63534108D01*
X108199500Y-63534108D01*
X108199500Y-63665892D01*
X108215958Y-63727314D01*
X108233609Y-63793190D01*
X108299496Y-63907309D01*
X108299498Y-63907311D01*
X108299500Y-63907314D01*
X108392686Y-64000500D01*
X108392688Y-64000501D01*
X108392690Y-64000503D01*
X108506810Y-64066390D01*
X108506808Y-64066390D01*
X108506812Y-64066391D01*
X108506814Y-64066392D01*
X108634108Y-64100500D01*
X108634110Y-64100500D01*
X108765890Y-64100500D01*
X108765892Y-64100500D01*
X108893186Y-64066392D01*
X108893188Y-64066390D01*
X108893190Y-64066390D01*
X109007309Y-64000503D01*
X109007309Y-64000502D01*
X109007314Y-64000500D01*
X109100500Y-63907314D01*
X109100503Y-63907309D01*
X109166390Y-63793190D01*
X109166390Y-63793188D01*
X109166392Y-63793186D01*
X109200500Y-63665892D01*
X109200500Y-63534108D01*
X109899500Y-63534108D01*
X109899500Y-63665892D01*
X109915958Y-63727314D01*
X109933609Y-63793190D01*
X109999496Y-63907309D01*
X109999498Y-63907311D01*
X109999500Y-63907314D01*
X110092686Y-64000500D01*
X110092688Y-64000501D01*
X110092690Y-64000503D01*
X110206810Y-64066390D01*
X110206808Y-64066390D01*
X110206812Y-64066391D01*
X110206814Y-64066392D01*
X110334108Y-64100500D01*
X110334110Y-64100500D01*
X110465890Y-64100500D01*
X110465892Y-64100500D01*
X110593186Y-64066392D01*
X110593188Y-64066390D01*
X110593190Y-64066390D01*
X110707309Y-64000503D01*
X110707309Y-64000502D01*
X110707314Y-64000500D01*
X110800500Y-63907314D01*
X110800503Y-63907309D01*
X110866390Y-63793190D01*
X110866390Y-63793188D01*
X110866392Y-63793186D01*
X110900500Y-63665892D01*
X110900500Y-63534108D01*
X110866392Y-63406814D01*
X110866390Y-63406811D01*
X110866390Y-63406809D01*
X110800503Y-63292690D01*
X110800501Y-63292688D01*
X110800500Y-63292686D01*
X110707314Y-63199500D01*
X110707311Y-63199498D01*
X110707309Y-63199496D01*
X110593189Y-63133609D01*
X110593191Y-63133609D01*
X110543799Y-63120375D01*
X110465892Y-63099500D01*
X110334108Y-63099500D01*
X110256200Y-63120375D01*
X110206809Y-63133609D01*
X110092690Y-63199496D01*
X109999496Y-63292690D01*
X109933609Y-63406809D01*
X109933608Y-63406814D01*
X109899500Y-63534108D01*
X109200500Y-63534108D01*
X109166392Y-63406814D01*
X109166390Y-63406811D01*
X109166390Y-63406809D01*
X109100503Y-63292690D01*
X109100501Y-63292688D01*
X109100500Y-63292686D01*
X109007314Y-63199500D01*
X109007311Y-63199498D01*
X109007309Y-63199496D01*
X108893189Y-63133609D01*
X108893191Y-63133609D01*
X108843799Y-63120375D01*
X108765892Y-63099500D01*
X108634108Y-63099500D01*
X108556200Y-63120375D01*
X108506809Y-63133609D01*
X108392690Y-63199496D01*
X108299496Y-63292690D01*
X108233609Y-63406809D01*
X108233608Y-63406814D01*
X108199500Y-63534108D01*
X102187581Y-63534108D01*
X102200500Y-63485892D01*
X102200500Y-63354108D01*
X102166392Y-63226814D01*
X102166390Y-63226811D01*
X102166390Y-63226809D01*
X102100503Y-63112690D01*
X102100501Y-63112688D01*
X102100500Y-63112686D01*
X102007314Y-63019500D01*
X102007311Y-63019498D01*
X102007309Y-63019496D01*
X101893189Y-62953609D01*
X101893191Y-62953609D01*
X101843799Y-62940375D01*
X101765892Y-62919500D01*
X101634108Y-62919500D01*
X101556200Y-62940375D01*
X101506809Y-62953609D01*
X101392690Y-63019496D01*
X101299496Y-63112690D01*
X101233609Y-63226809D01*
X101233608Y-63226814D01*
X101199500Y-63354108D01*
X97970500Y-63354108D01*
X97970500Y-55365634D01*
X98650000Y-55365634D01*
X98650000Y-55634365D01*
X98685075Y-55900785D01*
X98685075Y-55900790D01*
X98754627Y-56160364D01*
X98857463Y-56408632D01*
X98991832Y-56641366D01*
X99084417Y-56762025D01*
X99584727Y-56261715D01*
X99670278Y-56379466D01*
X99820534Y-56529722D01*
X99938282Y-56615270D01*
X99437972Y-57115581D01*
X99558633Y-57208167D01*
X99791367Y-57342536D01*
X100039635Y-57445372D01*
X100299211Y-57514924D01*
X100565634Y-57549999D01*
X100565637Y-57550000D01*
X100834363Y-57550000D01*
X100834365Y-57549999D01*
X101100785Y-57514924D01*
X101100790Y-57514924D01*
X101360364Y-57445372D01*
X101608632Y-57342536D01*
X101841362Y-57208170D01*
X101962025Y-57115580D01*
X101461716Y-56615271D01*
X101579466Y-56529722D01*
X101729722Y-56379466D01*
X101815271Y-56261716D01*
X102315580Y-56762025D01*
X102408170Y-56641362D01*
X102542536Y-56408632D01*
X102645372Y-56160364D01*
X102714924Y-55900790D01*
X102714924Y-55900785D01*
X102749999Y-55634365D01*
X102750000Y-55634363D01*
X102750000Y-55365637D01*
X102749999Y-55365634D01*
X102714924Y-55099214D01*
X102714923Y-55099209D01*
X102675813Y-54953242D01*
X102670686Y-54934108D01*
X112899500Y-54934108D01*
X112899500Y-55065892D01*
X112908429Y-55099214D01*
X112933609Y-55193190D01*
X112999496Y-55307309D01*
X112999498Y-55307311D01*
X112999500Y-55307314D01*
X113092686Y-55400500D01*
X113092688Y-55400501D01*
X113092690Y-55400503D01*
X113206810Y-55466390D01*
X113206808Y-55466390D01*
X113206812Y-55466391D01*
X113206814Y-55466392D01*
X113334108Y-55500500D01*
X113334110Y-55500500D01*
X113465890Y-55500500D01*
X113465892Y-55500500D01*
X113593186Y-55466392D01*
X113593188Y-55466390D01*
X113593190Y-55466390D01*
X113707309Y-55400503D01*
X113707309Y-55400502D01*
X113707314Y-55400500D01*
X113742180Y-55365634D01*
X122650000Y-55365634D01*
X122650000Y-55634365D01*
X122685075Y-55900785D01*
X122685075Y-55900790D01*
X122754627Y-56160364D01*
X122857463Y-56408632D01*
X122991832Y-56641366D01*
X123084417Y-56762025D01*
X123584727Y-56261715D01*
X123670278Y-56379466D01*
X123820534Y-56529722D01*
X123938282Y-56615270D01*
X123437972Y-57115581D01*
X123558633Y-57208167D01*
X123791367Y-57342536D01*
X124039635Y-57445372D01*
X124299211Y-57514924D01*
X124565634Y-57549999D01*
X124565637Y-57550000D01*
X124834363Y-57550000D01*
X124834365Y-57549999D01*
X125100785Y-57514924D01*
X125100790Y-57514924D01*
X125360364Y-57445372D01*
X125608632Y-57342536D01*
X125841362Y-57208170D01*
X125962025Y-57115580D01*
X125461716Y-56615271D01*
X125579466Y-56529722D01*
X125729722Y-56379466D01*
X125815271Y-56261716D01*
X126315580Y-56762025D01*
X126408170Y-56641362D01*
X126542536Y-56408632D01*
X126645372Y-56160364D01*
X126714924Y-55900790D01*
X126714924Y-55900785D01*
X126749999Y-55634365D01*
X126750000Y-55634363D01*
X126750000Y-55365637D01*
X126749999Y-55365634D01*
X126714924Y-55099214D01*
X126714924Y-55099209D01*
X126645372Y-54839635D01*
X126542536Y-54591367D01*
X126408167Y-54358633D01*
X126315580Y-54237972D01*
X125815270Y-54738281D01*
X125729722Y-54620534D01*
X125579466Y-54470278D01*
X125461715Y-54384727D01*
X125962026Y-53884417D01*
X125841366Y-53791832D01*
X125608632Y-53657463D01*
X125360364Y-53554627D01*
X125100788Y-53485075D01*
X124834365Y-53450000D01*
X124565634Y-53450000D01*
X124299214Y-53485075D01*
X124299209Y-53485075D01*
X124039635Y-53554627D01*
X123791367Y-53657463D01*
X123558630Y-53791834D01*
X123437972Y-53884417D01*
X123938283Y-54384728D01*
X123820534Y-54470278D01*
X123670278Y-54620534D01*
X123584728Y-54738283D01*
X123084417Y-54237972D01*
X122991834Y-54358630D01*
X122857463Y-54591367D01*
X122754627Y-54839635D01*
X122685075Y-55099209D01*
X122685075Y-55099214D01*
X122650000Y-55365634D01*
X113742180Y-55365634D01*
X113800500Y-55307314D01*
X113823909Y-55266768D01*
X113866390Y-55193190D01*
X113866390Y-55193188D01*
X113866392Y-55193186D01*
X113900500Y-55065892D01*
X113900500Y-54934108D01*
X113866392Y-54806814D01*
X113824415Y-54734108D01*
X115199500Y-54734108D01*
X115199500Y-54865892D01*
X115217778Y-54934108D01*
X115233609Y-54993190D01*
X115299496Y-55107309D01*
X115299498Y-55107311D01*
X115299500Y-55107314D01*
X115392686Y-55200500D01*
X115392688Y-55200501D01*
X115392690Y-55200503D01*
X115506810Y-55266390D01*
X115506808Y-55266390D01*
X115506812Y-55266391D01*
X115506814Y-55266392D01*
X115634108Y-55300500D01*
X115634110Y-55300500D01*
X115765890Y-55300500D01*
X115765892Y-55300500D01*
X115893186Y-55266392D01*
X115893188Y-55266390D01*
X115893190Y-55266390D01*
X116007309Y-55200503D01*
X116007309Y-55200502D01*
X116007314Y-55200500D01*
X116100500Y-55107314D01*
X116105177Y-55099214D01*
X116166390Y-54993190D01*
X116166390Y-54993188D01*
X116166392Y-54993186D01*
X116200500Y-54865892D01*
X116200500Y-54734108D01*
X117809500Y-54734108D01*
X117809500Y-54865892D01*
X117827778Y-54934108D01*
X117843609Y-54993190D01*
X117909496Y-55107309D01*
X117909498Y-55107311D01*
X117909500Y-55107314D01*
X118002686Y-55200500D01*
X118002688Y-55200501D01*
X118002690Y-55200503D01*
X118116810Y-55266390D01*
X118116808Y-55266390D01*
X118116812Y-55266391D01*
X118116814Y-55266392D01*
X118244108Y-55300500D01*
X118244110Y-55300500D01*
X118375890Y-55300500D01*
X118375892Y-55300500D01*
X118503186Y-55266392D01*
X118503188Y-55266390D01*
X118503190Y-55266390D01*
X118617309Y-55200503D01*
X118617309Y-55200502D01*
X118617314Y-55200500D01*
X118710500Y-55107314D01*
X118715177Y-55099214D01*
X118776390Y-54993190D01*
X118776390Y-54993188D01*
X118776392Y-54993186D01*
X118810500Y-54865892D01*
X118810500Y-54734108D01*
X120429500Y-54734108D01*
X120429500Y-54865892D01*
X120447778Y-54934108D01*
X120463609Y-54993190D01*
X120529496Y-55107309D01*
X120529498Y-55107311D01*
X120529500Y-55107314D01*
X120622686Y-55200500D01*
X120622688Y-55200501D01*
X120622690Y-55200503D01*
X120736810Y-55266390D01*
X120736808Y-55266390D01*
X120736812Y-55266391D01*
X120736814Y-55266392D01*
X120864108Y-55300500D01*
X120864110Y-55300500D01*
X120995890Y-55300500D01*
X120995892Y-55300500D01*
X121123186Y-55266392D01*
X121123188Y-55266390D01*
X121123190Y-55266390D01*
X121237309Y-55200503D01*
X121237309Y-55200502D01*
X121237314Y-55200500D01*
X121330500Y-55107314D01*
X121335177Y-55099214D01*
X121396390Y-54993190D01*
X121396390Y-54993188D01*
X121396392Y-54993186D01*
X121430500Y-54865892D01*
X121430500Y-54734108D01*
X121396392Y-54606814D01*
X121396390Y-54606811D01*
X121396390Y-54606809D01*
X121330503Y-54492690D01*
X121330501Y-54492688D01*
X121330500Y-54492686D01*
X121237314Y-54399500D01*
X121237311Y-54399498D01*
X121237309Y-54399496D01*
X121123189Y-54333609D01*
X121123191Y-54333609D01*
X121073799Y-54320375D01*
X120995892Y-54299500D01*
X120864108Y-54299500D01*
X120786200Y-54320375D01*
X120736809Y-54333609D01*
X120622690Y-54399496D01*
X120529496Y-54492690D01*
X120463609Y-54606809D01*
X120456952Y-54631653D01*
X120429500Y-54734108D01*
X118810500Y-54734108D01*
X118776392Y-54606814D01*
X118776390Y-54606811D01*
X118776390Y-54606809D01*
X118710503Y-54492690D01*
X118710501Y-54492688D01*
X118710500Y-54492686D01*
X118617314Y-54399500D01*
X118617311Y-54399498D01*
X118617309Y-54399496D01*
X118503189Y-54333609D01*
X118503191Y-54333609D01*
X118453799Y-54320375D01*
X118375892Y-54299500D01*
X118244108Y-54299500D01*
X118166200Y-54320375D01*
X118116809Y-54333609D01*
X118002690Y-54399496D01*
X117909496Y-54492690D01*
X117843609Y-54606809D01*
X117836952Y-54631653D01*
X117809500Y-54734108D01*
X116200500Y-54734108D01*
X116166392Y-54606814D01*
X116166390Y-54606811D01*
X116166390Y-54606809D01*
X116100503Y-54492690D01*
X116100501Y-54492688D01*
X116100500Y-54492686D01*
X116007314Y-54399500D01*
X116007311Y-54399498D01*
X116007309Y-54399496D01*
X115893189Y-54333609D01*
X115893191Y-54333609D01*
X115843799Y-54320375D01*
X115765892Y-54299500D01*
X115634108Y-54299500D01*
X115556200Y-54320375D01*
X115506809Y-54333609D01*
X115392690Y-54399496D01*
X115299496Y-54492690D01*
X115233609Y-54606809D01*
X115226952Y-54631653D01*
X115199500Y-54734108D01*
X113824415Y-54734108D01*
X113800500Y-54692686D01*
X113707314Y-54599500D01*
X113707311Y-54599498D01*
X113707309Y-54599496D01*
X113593189Y-54533609D01*
X113593191Y-54533609D01*
X113543799Y-54520375D01*
X113465892Y-54499500D01*
X113334108Y-54499500D01*
X113256200Y-54520375D01*
X113206809Y-54533609D01*
X113092690Y-54599496D01*
X112999496Y-54692690D01*
X112933609Y-54806809D01*
X112933608Y-54806814D01*
X112899500Y-54934108D01*
X102670686Y-54934108D01*
X102645372Y-54839635D01*
X102542536Y-54591367D01*
X102408167Y-54358633D01*
X102315580Y-54237972D01*
X101815270Y-54738281D01*
X101729722Y-54620534D01*
X101579466Y-54470278D01*
X101461715Y-54384727D01*
X101962026Y-53884417D01*
X101841366Y-53791832D01*
X101608632Y-53657463D01*
X101360364Y-53554627D01*
X101100788Y-53485075D01*
X100834365Y-53450000D01*
X100565634Y-53450000D01*
X100299214Y-53485075D01*
X100299209Y-53485075D01*
X100039635Y-53554627D01*
X99791367Y-53657463D01*
X99558630Y-53791834D01*
X99437972Y-53884417D01*
X99938283Y-54384728D01*
X99820534Y-54470278D01*
X99670278Y-54620534D01*
X99584728Y-54738283D01*
X99084417Y-54237972D01*
X98991834Y-54358630D01*
X98857463Y-54591367D01*
X98754627Y-54839635D01*
X98685075Y-55099209D01*
X98685075Y-55099214D01*
X98650000Y-55365634D01*
X97970500Y-55365634D01*
X97970500Y-55202984D01*
X97970681Y-55197007D01*
X97972893Y-55160438D01*
X97987633Y-54916742D01*
X97989072Y-54904891D01*
X98039146Y-54631647D01*
X98042006Y-54620047D01*
X98081693Y-54492686D01*
X98124648Y-54354837D01*
X98128879Y-54343679D01*
X98242895Y-54090346D01*
X98248444Y-54079775D01*
X98392166Y-53842029D01*
X98398930Y-53832230D01*
X98570257Y-53613547D01*
X98578169Y-53604615D01*
X98774615Y-53408169D01*
X98783547Y-53400257D01*
X99002230Y-53228930D01*
X99012040Y-53222159D01*
X99249775Y-53078444D01*
X99260346Y-53072895D01*
X99513679Y-52958879D01*
X99524837Y-52954648D01*
X99790049Y-52872005D01*
X99801647Y-52869146D01*
X100074891Y-52819072D01*
X100086742Y-52817633D01*
X100367009Y-52800681D01*
X100372986Y-52800500D01*
X100417595Y-52800500D01*
X124922405Y-52800500D01*
X124967015Y-52800500D01*
X124972992Y-52800681D01*
G37*
%TD.AperFunction*%
%TD*%
M02*
