%TF.GenerationSoftware,KiCad,Pcbnew,9.0.2*%
%TF.CreationDate,2025-06-25T09:04:58-05:00*%
%TF.ProjectId,Flight Computer,466c6967-6874-4204-936f-6d7075746572,rev?*%
%TF.SameCoordinates,Original*%
%TF.FileFunction,Copper,L3,Inr*%
%TF.FilePolarity,Positive*%
%FSLAX46Y46*%
G04 Gerber Fmt 4.6, Leading zero omitted, Abs format (unit mm)*
G04 Created by KiCad (PCBNEW 9.0.2) date 2025-06-25 09:04:58*
%MOMM*%
%LPD*%
G01*
G04 APERTURE LIST*
G04 Aperture macros list*
%AMRoundRect*
0 Rectangle with rounded corners*
0 $1 Rounding radius*
0 $2 $3 $4 $5 $6 $7 $8 $9 X,Y pos of 4 corners*
0 Add a 4 corners polygon primitive as box body*
4,1,4,$2,$3,$4,$5,$6,$7,$8,$9,$2,$3,0*
0 Add four circle primitives for the rounded corners*
1,1,$1+$1,$2,$3*
1,1,$1+$1,$4,$5*
1,1,$1+$1,$6,$7*
1,1,$1+$1,$8,$9*
0 Add four rect primitives between the rounded corners*
20,1,$1+$1,$2,$3,$4,$5,0*
20,1,$1+$1,$4,$5,$6,$7,0*
20,1,$1+$1,$6,$7,$8,$9,0*
20,1,$1+$1,$8,$9,$2,$3,0*%
G04 Aperture macros list end*
%TA.AperFunction,ComponentPad*%
%ADD10C,3.100000*%
%TD*%
%TA.AperFunction,ComponentPad*%
%ADD11RoundRect,0.249999X-0.850001X0.850001X-0.850001X-0.850001X0.850001X-0.850001X0.850001X0.850001X0*%
%TD*%
%TA.AperFunction,ComponentPad*%
%ADD12C,2.200000*%
%TD*%
%TA.AperFunction,ComponentPad*%
%ADD13R,1.700000X1.700000*%
%TD*%
%TA.AperFunction,ComponentPad*%
%ADD14C,1.700000*%
%TD*%
%TA.AperFunction,HeatsinkPad*%
%ADD15O,2.100000X1.000000*%
%TD*%
%TA.AperFunction,HeatsinkPad*%
%ADD16O,1.800000X1.000000*%
%TD*%
%TA.AperFunction,ComponentPad*%
%ADD17RoundRect,0.249999X0.850001X-0.850001X0.850001X0.850001X-0.850001X0.850001X-0.850001X-0.850001X0*%
%TD*%
%TA.AperFunction,ViaPad*%
%ADD18C,0.600000*%
%TD*%
%TA.AperFunction,Conductor*%
%ADD19C,0.600000*%
%TD*%
%TA.AperFunction,Conductor*%
%ADD20C,1.200000*%
%TD*%
%TA.AperFunction,Conductor*%
%ADD21C,0.200000*%
%TD*%
G04 APERTURE END LIST*
D10*
%TO.N,GND*%
%TO.C,H504*%
X124700000Y-109500000D03*
%TD*%
%TO.N,GND*%
%TO.C,H501*%
X100700000Y-55500000D03*
%TD*%
D11*
%TO.N,GND*%
%TO.C,J504*%
X101640000Y-96580000D03*
D12*
%TO.N,/Pyro3*%
X101640000Y-99120000D03*
%TO.N,GND*%
X101640000Y-101659999D03*
%TO.N,VCC*%
X101640000Y-104200000D03*
%TD*%
D13*
%TO.N,/Servo1*%
%TO.C,J507*%
X99920000Y-61950000D03*
D14*
%TO.N,/Servo2*%
X99920000Y-64490000D03*
%TO.N,/Servo3*%
X99920000Y-67030000D03*
%TO.N,/Servo4*%
X99920000Y-69570000D03*
%TO.N,GND*%
X99920000Y-72110000D03*
%TD*%
D15*
%TO.N,GND*%
%TO.C,J502*%
X104455000Y-75890000D03*
D16*
X100275000Y-75890000D03*
D15*
X104455000Y-84530000D03*
D16*
X100275000Y-84530000D03*
%TD*%
D17*
%TO.N,VCC*%
%TO.C,J503*%
X123700000Y-104200000D03*
D12*
%TO.N,Pyro_Power*%
X123700000Y-101660000D03*
%TO.N,/Pyro1*%
X123700000Y-99120001D03*
%TO.N,GND*%
X123700000Y-96580000D03*
%TO.N,/Pyro2*%
X123700000Y-94040000D03*
%TO.N,GND*%
X123700000Y-91500000D03*
%TD*%
D10*
%TO.N,GND*%
%TO.C,H503*%
X100700000Y-109500000D03*
%TD*%
%TO.N,GND*%
%TO.C,H502*%
X124700000Y-55500000D03*
%TD*%
D18*
%TO.N,GND*%
X107520000Y-76830000D03*
X120760000Y-106340000D03*
X119910000Y-81100000D03*
X110050000Y-55660000D03*
X109890000Y-90450000D03*
X126340000Y-82890000D03*
X109580000Y-57670000D03*
X108180000Y-56750000D03*
X107870000Y-53660000D03*
X126400000Y-75500000D03*
X107860000Y-55670000D03*
X116100000Y-58410000D03*
X114640000Y-86830000D03*
X113840000Y-54580000D03*
X112070000Y-91740000D03*
X107840000Y-54650000D03*
X110110000Y-53610000D03*
X108290000Y-57660000D03*
X110080000Y-54670000D03*
X123210000Y-87130000D03*
X111370000Y-79160000D03*
X104390000Y-73460000D03*
X109080000Y-86350000D03*
X109700000Y-56740000D03*
X111620000Y-89330000D03*
X114510000Y-90780000D03*
X110950000Y-62770000D03*
X99990000Y-80520000D03*
%TO.N,+3.3V*%
X108915000Y-94035000D03*
X119641714Y-86558286D03*
X116590000Y-54350000D03*
X117270000Y-108500000D03*
X101360000Y-90670000D03*
X113930000Y-91330000D03*
X109551789Y-80016472D03*
X119712646Y-90702646D03*
X119400000Y-64000000D03*
X126470000Y-87640000D03*
X105100000Y-87260000D03*
X117010000Y-58400000D03*
X111180000Y-85440000D03*
X107660000Y-108500000D03*
X119570000Y-79710000D03*
X114497354Y-84652646D03*
X111170000Y-58030000D03*
X115590000Y-68670000D03*
%TO.N,VCC*%
X112565000Y-95950000D03*
X103970000Y-96610000D03*
X113719500Y-110850938D03*
X99040000Y-91920000D03*
X116420000Y-104200000D03*
%TO.N,/SWDIO*%
X109705958Y-80754042D03*
X125900000Y-80500000D03*
%TO.N,/NRST*%
X116395000Y-90275000D03*
%TO.N,/SWCLK*%
X114492638Y-79591085D03*
%TO.N,/USB_DP_N*%
X108359479Y-81040521D03*
X104152385Y-80532907D03*
X103457906Y-79736802D03*
%TO.N,/USB_DP_P*%
X108960521Y-80439479D03*
%TO.N,Pyro_Power*%
X104040101Y-98080101D03*
X121330000Y-93313000D03*
X103910000Y-106690000D03*
X120120000Y-100150000D03*
%TO.N,/I2C_SDA*%
X109617646Y-88227646D03*
X117520000Y-80260000D03*
X105970000Y-68710000D03*
%TO.N,/I2C_SCL*%
X109660000Y-87240000D03*
X106240000Y-90860000D03*
X107948000Y-75050000D03*
%TO.N,/SPI_SCK*%
X113900000Y-79170000D03*
X122980000Y-70980000D03*
X112950000Y-82320000D03*
X117010000Y-77066000D03*
X118682002Y-87720000D03*
%TO.N,/SPI_MOSI*%
X116210000Y-87690000D03*
X110967000Y-87690000D03*
X121699306Y-77940000D03*
X119010000Y-77923000D03*
%TO.N,/SPI_CS1*%
X119126000Y-54356000D03*
X118277840Y-88623880D03*
%TO.N,/SPI_MISO*%
X112299749Y-88540000D03*
X121020000Y-78450000D03*
X112223343Y-82503769D03*
%TO.N,/Pyro1_Cont*%
X113441052Y-93018726D03*
X114140000Y-103023000D03*
%TO.N,/Pyro2_Cont*%
X113454192Y-92286575D03*
%TO.N,/{slash}GPS_SAFEBOOT*%
X105200000Y-66780000D03*
%TO.N,/Armed*%
X113620000Y-94650000D03*
X114260000Y-100933000D03*
%TO.N,/Pyro2_Trigger*%
X114690000Y-99750000D03*
X115099920Y-91337985D03*
%TO.N,/Pyro3_Trigger*%
X115620000Y-90830000D03*
X110470000Y-100720000D03*
%TO.N,/MCU/FLASH_CS*%
X119690000Y-77310000D03*
X118376000Y-82928998D03*
%TO.N,/MCU/{slash}FLASH_WP*%
X116632710Y-86788001D03*
X122970000Y-77960000D03*
%TO.N,/MCU/{slash}FLASH_RESET*%
X121700000Y-70830000D03*
X119101670Y-82885031D03*
%TO.N,/BARO_CS*%
X116050000Y-84550000D03*
%TO.N,/IMU_INT2*%
X119030000Y-81020000D03*
%TO.N,/LORA_SEL*%
X117776781Y-82517334D03*
X115010646Y-77005354D03*
%TO.N,/LORA_RESET*%
X106890000Y-83600000D03*
X113010000Y-77190000D03*
%TO.N,/LORA_DIO0*%
X117563347Y-88758165D03*
X125200000Y-69900000D03*
%TO.N,/IMU_INT1*%
X111446050Y-84264284D03*
%TO.N,/IMU_CS*%
X115213000Y-80217088D03*
%TO.N,/GPS_TX*%
X110430000Y-77790000D03*
%TO.N,/GPS_INT*%
X117856000Y-86442003D03*
X115570000Y-64770000D03*
%TO.N,/GPS_RX*%
X112320000Y-78340000D03*
%TO.N,VBUS*%
X101730000Y-88590000D03*
X102475000Y-83315000D03*
X102780000Y-77960000D03*
%TO.N,Net-(J502-CC2)*%
X103200000Y-81980000D03*
%TO.N,Net-(J502-CC1)*%
X102999000Y-78960000D03*
%TO.N,Net-(R709-Pad2)*%
X124770000Y-90270000D03*
%TD*%
D19*
%TO.N,Pyro_Power*%
X104040101Y-100230101D02*
X105470000Y-101660000D01*
D20*
X121330000Y-99710000D02*
X121330000Y-93500000D01*
D21*
X103910000Y-100360202D02*
X104040101Y-100230101D01*
D19*
X105470000Y-101660000D02*
X123700000Y-101660000D01*
X120120000Y-100150000D02*
X121770000Y-100150000D01*
D20*
X121780000Y-100160000D02*
X121330000Y-99710000D01*
D21*
X103910000Y-106690000D02*
X103910000Y-100360202D01*
D20*
X123700000Y-101660000D02*
X123280000Y-101660000D01*
D19*
X104040101Y-98080101D02*
X104040101Y-100230101D01*
D20*
X123280000Y-101660000D02*
X121780000Y-100160000D01*
D21*
%TO.N,/I2C_SDA*%
X109617646Y-88227646D02*
X109617646Y-88162354D01*
X105970000Y-68710000D02*
X117520000Y-80260000D01*
X109617646Y-88162354D02*
X117520000Y-80260000D01*
%TO.N,/I2C_SCL*%
X110560000Y-78900000D02*
X109680000Y-78020000D01*
X106240000Y-90860000D02*
X109660000Y-87440000D01*
X109660000Y-87240000D02*
X110560000Y-86340000D01*
X109660000Y-87440000D02*
X109660000Y-87240000D01*
X109680000Y-78020000D02*
X109680000Y-76782000D01*
X110560000Y-86340000D02*
X110560000Y-78900000D01*
X109680000Y-76782000D02*
X107948000Y-75050000D01*
%TO.N,/SPI_MOSI*%
X119010000Y-77923000D02*
X121682306Y-77923000D01*
X121682306Y-77923000D02*
X121699306Y-77940000D01*
X110967000Y-87690000D02*
X116210000Y-87690000D01*
%TO.N,/SPI_CS1*%
X124460000Y-82804000D02*
X124460000Y-66548000D01*
X124460000Y-66548000D02*
X119126000Y-61214000D01*
X118277840Y-88623880D02*
X118640120Y-88623880D01*
X118640120Y-88623880D02*
X124460000Y-82804000D01*
X119126000Y-61214000D02*
X119126000Y-54356000D01*
%TO.N,/Pyro3_Trigger*%
X115627920Y-90837920D02*
X115620000Y-90830000D01*
X110470000Y-100720000D02*
X112410000Y-100720000D01*
X112410000Y-100720000D02*
X115627920Y-97502080D01*
X115627920Y-97502080D02*
X115627920Y-90837920D01*
%TO.N,/MCU/FLASH_CS*%
X118376000Y-82928998D02*
X118376000Y-77654000D01*
X118720000Y-77310000D02*
X119690000Y-77310000D01*
X118376000Y-77654000D02*
X118720000Y-77310000D01*
%TO.N,/MCU/{slash}FLASH_WP*%
X116632710Y-86788001D02*
X122970000Y-80450711D01*
X122970000Y-80450711D02*
X122970000Y-77960000D01*
%TO.N,/MCU/{slash}FLASH_RESET*%
X122227306Y-71357306D02*
X121700000Y-70830000D01*
X119101670Y-82885031D02*
X122227306Y-79759395D01*
X122227306Y-79759395D02*
X122227306Y-71357306D01*
%TO.N,/LORA_SEL*%
X118048000Y-80042708D02*
X115010646Y-77005354D01*
X117849000Y-82079970D02*
X118048000Y-81880970D01*
X117776781Y-82517334D02*
X117849000Y-82445115D01*
X118048000Y-81880970D02*
X118048000Y-80042708D01*
X117849000Y-82445115D02*
X117849000Y-82079970D01*
%TO.N,/LORA_DIO0*%
X117957062Y-89151880D02*
X117563347Y-88758165D01*
X125200000Y-69900000D02*
X125200000Y-83010000D01*
X125200000Y-83010000D02*
X119058120Y-89151880D01*
X119058120Y-89151880D02*
X117957062Y-89151880D01*
%TO.N,/GPS_INT*%
X123698000Y-69342000D02*
X119126000Y-64770000D01*
X123698000Y-80600003D02*
X123698000Y-69342000D01*
X117856000Y-86442003D02*
X123698000Y-80600003D01*
X119126000Y-64770000D02*
X115570000Y-64770000D01*
%TD*%
%TA.AperFunction,Conductor*%
%TO.N,+3.3V*%
G36*
X117639292Y-80760160D02*
G01*
X117661249Y-80760682D01*
X117672555Y-80768333D01*
X117685817Y-80771592D01*
X117700928Y-80787534D01*
X117719114Y-80799841D01*
X117724488Y-80812390D01*
X117733883Y-80822301D01*
X117737975Y-80843879D01*
X117746622Y-80864067D01*
X117747500Y-80878796D01*
X117747500Y-81705137D01*
X117727815Y-81772176D01*
X117711181Y-81792818D01*
X117608541Y-81895457D01*
X117608535Y-81895465D01*
X117568982Y-81963974D01*
X117568980Y-81963978D01*
X117568979Y-81963980D01*
X117568979Y-81963981D01*
X117552030Y-82027230D01*
X117515666Y-82086889D01*
X117494258Y-82102520D01*
X117469473Y-82116829D01*
X117469464Y-82116836D01*
X117376283Y-82210017D01*
X117376281Y-82210020D01*
X117310389Y-82324146D01*
X117276281Y-82451442D01*
X117276281Y-82583225D01*
X117310389Y-82710521D01*
X117326204Y-82737912D01*
X117376281Y-82824648D01*
X117469467Y-82917834D01*
X117583595Y-82983726D01*
X117710889Y-83017834D01*
X117710891Y-83017834D01*
X117786499Y-83017834D01*
X117853538Y-83037519D01*
X117899293Y-83090323D01*
X117906273Y-83109739D01*
X117909607Y-83122182D01*
X117909607Y-83122183D01*
X117931193Y-83159571D01*
X117975500Y-83236312D01*
X118068686Y-83329498D01*
X118152420Y-83377842D01*
X118174342Y-83390499D01*
X118182814Y-83395390D01*
X118310108Y-83429498D01*
X118310110Y-83429498D01*
X118441890Y-83429498D01*
X118441892Y-83429498D01*
X118569186Y-83395390D01*
X118683314Y-83329498D01*
X118684547Y-83328264D01*
X118685848Y-83327554D01*
X118689765Y-83324549D01*
X118690233Y-83325159D01*
X118745866Y-83294777D01*
X118815558Y-83299756D01*
X118834228Y-83308551D01*
X118908484Y-83351423D01*
X119035778Y-83385531D01*
X119035780Y-83385531D01*
X119167560Y-83385531D01*
X119167562Y-83385531D01*
X119294856Y-83351423D01*
X119306000Y-83344989D01*
X119373900Y-83328515D01*
X119439927Y-83351366D01*
X119483119Y-83406287D01*
X119489762Y-83475840D01*
X119457747Y-83537943D01*
X119455683Y-83540056D01*
X116744557Y-86251182D01*
X116683234Y-86284667D01*
X116656876Y-86287501D01*
X116566818Y-86287501D01*
X116439522Y-86321609D01*
X116325396Y-86387501D01*
X116325393Y-86387503D01*
X116232212Y-86480684D01*
X116232210Y-86480687D01*
X116166318Y-86594813D01*
X116149571Y-86657316D01*
X116132210Y-86722109D01*
X116132210Y-86853893D01*
X116146813Y-86908394D01*
X116166318Y-86981188D01*
X116186699Y-87016489D01*
X116203171Y-87084389D01*
X116180318Y-87150416D01*
X116125396Y-87193606D01*
X116111410Y-87198261D01*
X116016814Y-87223608D01*
X116016812Y-87223608D01*
X116016812Y-87223609D01*
X115902686Y-87289500D01*
X115902683Y-87289502D01*
X115839005Y-87353181D01*
X115777682Y-87386666D01*
X115751324Y-87389500D01*
X115087676Y-87389500D01*
X115020637Y-87369815D01*
X114974882Y-87317011D01*
X114964938Y-87247853D01*
X114993963Y-87184297D01*
X114999995Y-87177819D01*
X115011307Y-87166507D01*
X115040500Y-87137314D01*
X115106392Y-87023186D01*
X115140500Y-86895892D01*
X115140500Y-86764108D01*
X115106392Y-86636814D01*
X115105454Y-86635190D01*
X115082144Y-86594815D01*
X115040500Y-86522686D01*
X114947314Y-86429500D01*
X114890250Y-86396554D01*
X114833187Y-86363608D01*
X114769539Y-86346554D01*
X114705892Y-86329500D01*
X114574108Y-86329500D01*
X114446812Y-86363608D01*
X114332686Y-86429500D01*
X114332683Y-86429502D01*
X114239502Y-86522683D01*
X114239500Y-86522686D01*
X114173608Y-86636812D01*
X114139500Y-86764108D01*
X114139500Y-86895891D01*
X114173608Y-87023187D01*
X114206554Y-87080250D01*
X114239500Y-87137314D01*
X114239502Y-87137316D01*
X114280005Y-87177819D01*
X114313490Y-87239142D01*
X114308506Y-87308834D01*
X114266634Y-87364767D01*
X114201170Y-87389184D01*
X114192324Y-87389500D01*
X111425676Y-87389500D01*
X111404116Y-87383169D01*
X111381714Y-87381445D01*
X111367958Y-87372552D01*
X111358637Y-87369815D01*
X111350829Y-87364363D01*
X111344028Y-87359214D01*
X111274314Y-87289500D01*
X111180082Y-87235095D01*
X111173919Y-87230429D01*
X111157543Y-87208305D01*
X111138550Y-87188385D01*
X111137054Y-87180624D01*
X111132351Y-87174270D01*
X111130535Y-87146800D01*
X111125328Y-87119778D01*
X111128265Y-87112440D01*
X111127744Y-87104552D01*
X111141066Y-87080464D01*
X111151296Y-87054913D01*
X111161077Y-87043893D01*
X113720862Y-84484108D01*
X115549500Y-84484108D01*
X115549500Y-84615892D01*
X115566554Y-84679539D01*
X115583608Y-84743187D01*
X115616554Y-84800250D01*
X115649500Y-84857314D01*
X115742686Y-84950500D01*
X115856814Y-85016392D01*
X115984108Y-85050500D01*
X115984110Y-85050500D01*
X116115890Y-85050500D01*
X116115892Y-85050500D01*
X116243186Y-85016392D01*
X116357314Y-84950500D01*
X116450500Y-84857314D01*
X116516392Y-84743186D01*
X116550500Y-84615892D01*
X116550500Y-84484108D01*
X116516392Y-84356814D01*
X116450500Y-84242686D01*
X116357314Y-84149500D01*
X116272442Y-84100499D01*
X116243187Y-84083608D01*
X116178931Y-84066391D01*
X116115892Y-84049500D01*
X115984108Y-84049500D01*
X115856812Y-84083608D01*
X115742686Y-84149500D01*
X115742683Y-84149502D01*
X115649502Y-84242683D01*
X115649500Y-84242686D01*
X115583608Y-84356812D01*
X115556637Y-84457471D01*
X115549500Y-84484108D01*
X113720862Y-84484108D01*
X117408151Y-80796818D01*
X117432746Y-80783388D01*
X117455622Y-80767201D01*
X117465365Y-80765577D01*
X117469474Y-80763334D01*
X117490297Y-80760624D01*
X117493072Y-80760500D01*
X117585892Y-80760500D01*
X117604466Y-80755523D01*
X117617965Y-80754920D01*
X117639292Y-80760160D01*
G37*
%TD.AperFunction*%
%TA.AperFunction,Conductor*%
G36*
X120424921Y-78230543D02*
G01*
X120449746Y-78233511D01*
X120457869Y-78240217D01*
X120467974Y-78243185D01*
X120484343Y-78262076D01*
X120503625Y-78277996D01*
X120506832Y-78288030D01*
X120513729Y-78295989D01*
X120517286Y-78320731D01*
X120524900Y-78344547D01*
X120522998Y-78360453D01*
X120523673Y-78365147D01*
X120520710Y-78379592D01*
X120519500Y-78384106D01*
X120519500Y-78384108D01*
X120519500Y-78515892D01*
X120530996Y-78558796D01*
X120553608Y-78643187D01*
X120563027Y-78659500D01*
X120619500Y-78757314D01*
X120712686Y-78850500D01*
X120826814Y-78916392D01*
X120954108Y-78950500D01*
X120954110Y-78950500D01*
X121085890Y-78950500D01*
X121085892Y-78950500D01*
X121213186Y-78916392D01*
X121327314Y-78850500D01*
X121420500Y-78757314D01*
X121486392Y-78643186D01*
X121516075Y-78532404D01*
X121529504Y-78510373D01*
X121539418Y-78486544D01*
X121547393Y-78481025D01*
X121552439Y-78472747D01*
X121575648Y-78461472D01*
X121596872Y-78446785D01*
X121610358Y-78444610D01*
X121615285Y-78442217D01*
X121631615Y-78440572D01*
X121633722Y-78440500D01*
X121765198Y-78440500D01*
X121784411Y-78435351D01*
X121798572Y-78434868D01*
X121819233Y-78440175D01*
X121840555Y-78440682D01*
X121852394Y-78448693D01*
X121866245Y-78452252D01*
X121880757Y-78467888D01*
X121898420Y-78479841D01*
X121904048Y-78492982D01*
X121913776Y-78503463D01*
X121917530Y-78524461D01*
X121925928Y-78544067D01*
X121926806Y-78558796D01*
X121926806Y-79583562D01*
X121907121Y-79650601D01*
X121890487Y-79671243D01*
X120587119Y-80974610D01*
X120525796Y-81008095D01*
X120456104Y-81003111D01*
X120400171Y-80961239D01*
X120379664Y-80919024D01*
X120376392Y-80906814D01*
X120350368Y-80861740D01*
X120310500Y-80792686D01*
X120217314Y-80699500D01*
X120158747Y-80665686D01*
X120103187Y-80633608D01*
X120039539Y-80616554D01*
X119975892Y-80599500D01*
X119844108Y-80599500D01*
X119716812Y-80633608D01*
X119602686Y-80699500D01*
X119602678Y-80699506D01*
X119597672Y-80704512D01*
X119536346Y-80737992D01*
X119466655Y-80733001D01*
X119422318Y-80704504D01*
X119337316Y-80619502D01*
X119337314Y-80619500D01*
X119279100Y-80585890D01*
X119223187Y-80553608D01*
X119130656Y-80528815D01*
X119095892Y-80519500D01*
X118964108Y-80519500D01*
X118832593Y-80554739D01*
X118762743Y-80553076D01*
X118704881Y-80513913D01*
X118677377Y-80449685D01*
X118676500Y-80434964D01*
X118676500Y-78513394D01*
X118696185Y-78446355D01*
X118748989Y-78400600D01*
X118818147Y-78390656D01*
X118832574Y-78393615D01*
X118944108Y-78423500D01*
X118944111Y-78423500D01*
X119075890Y-78423500D01*
X119075892Y-78423500D01*
X119203186Y-78389392D01*
X119317314Y-78323500D01*
X119380995Y-78259819D01*
X119442318Y-78226334D01*
X119468676Y-78223500D01*
X120400935Y-78223500D01*
X120424921Y-78230543D01*
G37*
%TD.AperFunction*%
%TA.AperFunction,Conductor*%
G36*
X124973736Y-52800726D02*
G01*
X125251742Y-52817542D01*
X125266605Y-52819347D01*
X125341845Y-52833135D01*
X125536866Y-52868874D01*
X125551395Y-52872455D01*
X125813713Y-52954197D01*
X125827709Y-52959505D01*
X126078264Y-53072270D01*
X126091522Y-53079228D01*
X126326658Y-53221373D01*
X126338969Y-53229871D01*
X126495728Y-53352683D01*
X126555261Y-53399324D01*
X126566469Y-53409254D01*
X126760745Y-53603530D01*
X126770675Y-53614738D01*
X126940124Y-53831024D01*
X126948630Y-53843347D01*
X127090770Y-54078476D01*
X127097729Y-54091735D01*
X127210494Y-54342290D01*
X127215803Y-54356290D01*
X127297542Y-54618597D01*
X127301126Y-54633137D01*
X127350652Y-54903394D01*
X127352457Y-54918258D01*
X127369274Y-55196263D01*
X127369500Y-55203750D01*
X127369500Y-109796249D01*
X127369274Y-109803736D01*
X127352457Y-110081741D01*
X127350652Y-110096605D01*
X127301126Y-110366862D01*
X127297542Y-110381402D01*
X127215803Y-110643709D01*
X127210494Y-110657709D01*
X127097729Y-110908264D01*
X127090770Y-110921523D01*
X126948630Y-111156652D01*
X126940124Y-111168975D01*
X126770675Y-111385261D01*
X126760745Y-111396469D01*
X126566469Y-111590745D01*
X126555261Y-111600675D01*
X126338975Y-111770124D01*
X126326652Y-111778630D01*
X126091523Y-111920770D01*
X126078264Y-111927729D01*
X125827709Y-112040494D01*
X125813709Y-112045803D01*
X125551402Y-112127542D01*
X125536862Y-112131126D01*
X125266605Y-112180652D01*
X125251741Y-112182457D01*
X124973736Y-112199274D01*
X124966249Y-112199500D01*
X100373752Y-112199500D01*
X100366265Y-112199274D01*
X100088259Y-112182457D01*
X100073394Y-112180652D01*
X99803134Y-112131125D01*
X99788600Y-112127543D01*
X99526282Y-112045802D01*
X99512292Y-112040496D01*
X99261736Y-111927730D01*
X99248477Y-111920771D01*
X99013347Y-111778630D01*
X99001024Y-111770124D01*
X98784738Y-111600675D01*
X98773530Y-111590745D01*
X98579254Y-111396469D01*
X98569324Y-111385261D01*
X98399871Y-111168969D01*
X98391373Y-111156658D01*
X98249225Y-110921516D01*
X98242270Y-110908264D01*
X98129501Y-110657702D01*
X98124200Y-110643726D01*
X98042453Y-110381387D01*
X98038874Y-110366865D01*
X97989347Y-110096605D01*
X97987542Y-110081740D01*
X97970726Y-109803735D01*
X97970500Y-109796248D01*
X97970500Y-109385258D01*
X98949500Y-109385258D01*
X98949500Y-109614741D01*
X98967625Y-109752404D01*
X98979452Y-109842238D01*
X98979453Y-109842240D01*
X99038842Y-110063887D01*
X99126650Y-110275876D01*
X99126657Y-110275890D01*
X99241392Y-110474617D01*
X99381081Y-110656661D01*
X99381089Y-110656670D01*
X99543330Y-110818911D01*
X99543338Y-110818918D01*
X99725382Y-110958607D01*
X99725385Y-110958608D01*
X99725388Y-110958611D01*
X99924112Y-111073344D01*
X99924117Y-111073346D01*
X99924123Y-111073349D01*
X100015480Y-111111190D01*
X100136113Y-111161158D01*
X100357762Y-111220548D01*
X100585266Y-111250500D01*
X100585273Y-111250500D01*
X100814727Y-111250500D01*
X100814734Y-111250500D01*
X101042238Y-111220548D01*
X101263887Y-111161158D01*
X101475888Y-111073344D01*
X101674612Y-110958611D01*
X101856661Y-110818919D01*
X101856665Y-110818914D01*
X101856670Y-110818911D01*
X101890535Y-110785046D01*
X113219000Y-110785046D01*
X113219000Y-110916830D01*
X113230194Y-110958607D01*
X113253108Y-111044125D01*
X113269977Y-111073342D01*
X113319000Y-111158252D01*
X113412186Y-111251438D01*
X113526314Y-111317330D01*
X113653608Y-111351438D01*
X113653610Y-111351438D01*
X113785390Y-111351438D01*
X113785392Y-111351438D01*
X113912686Y-111317330D01*
X114026814Y-111251438D01*
X114120000Y-111158252D01*
X114185892Y-111044124D01*
X114220000Y-110916830D01*
X114220000Y-110785046D01*
X114185892Y-110657752D01*
X114120000Y-110543624D01*
X114026814Y-110450438D01*
X113969750Y-110417492D01*
X113912687Y-110384546D01*
X113846688Y-110366862D01*
X113785392Y-110350438D01*
X113653608Y-110350438D01*
X113526312Y-110384546D01*
X113412186Y-110450438D01*
X113412183Y-110450440D01*
X113319002Y-110543621D01*
X113319000Y-110543624D01*
X113253108Y-110657750D01*
X113219000Y-110785046D01*
X101890535Y-110785046D01*
X102018911Y-110656670D01*
X102018914Y-110656665D01*
X102018919Y-110656661D01*
X102158611Y-110474612D01*
X102273344Y-110275888D01*
X102361158Y-110063887D01*
X102420548Y-109842238D01*
X102450500Y-109614734D01*
X102450500Y-109385266D01*
X102450499Y-109385258D01*
X122949500Y-109385258D01*
X122949500Y-109614741D01*
X122967625Y-109752404D01*
X122979452Y-109842238D01*
X122979453Y-109842240D01*
X123038842Y-110063887D01*
X123126650Y-110275876D01*
X123126657Y-110275890D01*
X123241392Y-110474617D01*
X123381081Y-110656661D01*
X123381089Y-110656670D01*
X123543330Y-110818911D01*
X123543338Y-110818918D01*
X123725382Y-110958607D01*
X123725385Y-110958608D01*
X123725388Y-110958611D01*
X123924112Y-111073344D01*
X123924117Y-111073346D01*
X123924123Y-111073349D01*
X124015480Y-111111190D01*
X124136113Y-111161158D01*
X124357762Y-111220548D01*
X124585266Y-111250500D01*
X124585273Y-111250500D01*
X124814727Y-111250500D01*
X124814734Y-111250500D01*
X125042238Y-111220548D01*
X125263887Y-111161158D01*
X125475888Y-111073344D01*
X125674612Y-110958611D01*
X125856661Y-110818919D01*
X125856665Y-110818914D01*
X125856670Y-110818911D01*
X126018911Y-110656670D01*
X126018914Y-110656665D01*
X126018919Y-110656661D01*
X126158611Y-110474612D01*
X126273344Y-110275888D01*
X126361158Y-110063887D01*
X126420548Y-109842238D01*
X126450500Y-109614734D01*
X126450500Y-109385266D01*
X126420548Y-109157762D01*
X126361158Y-108936113D01*
X126273344Y-108724112D01*
X126158611Y-108525388D01*
X126158608Y-108525385D01*
X126158607Y-108525382D01*
X126018918Y-108343338D01*
X126018911Y-108343330D01*
X125856670Y-108181089D01*
X125856661Y-108181081D01*
X125674617Y-108041392D01*
X125475890Y-107926657D01*
X125475876Y-107926650D01*
X125263887Y-107838842D01*
X125042238Y-107779452D01*
X125004215Y-107774446D01*
X124814741Y-107749500D01*
X124814734Y-107749500D01*
X124585266Y-107749500D01*
X124585258Y-107749500D01*
X124368715Y-107778009D01*
X124357762Y-107779452D01*
X124264076Y-107804554D01*
X124136112Y-107838842D01*
X123924123Y-107926650D01*
X123924109Y-107926657D01*
X123725382Y-108041392D01*
X123543338Y-108181081D01*
X123381081Y-108343338D01*
X123241392Y-108525382D01*
X123126657Y-108724109D01*
X123126650Y-108724123D01*
X123038842Y-108936112D01*
X122979453Y-109157759D01*
X122979451Y-109157770D01*
X122949500Y-109385258D01*
X102450499Y-109385258D01*
X102420548Y-109157762D01*
X102361158Y-108936113D01*
X102273344Y-108724112D01*
X102158611Y-108525388D01*
X102158608Y-108525385D01*
X102158607Y-108525382D01*
X102018918Y-108343338D01*
X102018911Y-108343330D01*
X101856670Y-108181089D01*
X101856661Y-108181081D01*
X101674617Y-108041392D01*
X101475890Y-107926657D01*
X101475876Y-107926650D01*
X101263887Y-107838842D01*
X101042238Y-107779452D01*
X101004215Y-107774446D01*
X100814741Y-107749500D01*
X100814734Y-107749500D01*
X100585266Y-107749500D01*
X100585258Y-107749500D01*
X100368715Y-107778009D01*
X100357762Y-107779452D01*
X100264076Y-107804554D01*
X100136112Y-107838842D01*
X99924123Y-107926650D01*
X99924109Y-107926657D01*
X99725382Y-108041392D01*
X99543338Y-108181081D01*
X99381081Y-108343338D01*
X99241392Y-108525382D01*
X99126657Y-108724109D01*
X99126650Y-108724123D01*
X99038842Y-108936112D01*
X98979453Y-109157759D01*
X98979451Y-109157770D01*
X98949500Y-109385258D01*
X97970500Y-109385258D01*
X97970500Y-106624108D01*
X103409500Y-106624108D01*
X103409500Y-106755891D01*
X103443608Y-106883187D01*
X103476554Y-106940250D01*
X103509500Y-106997314D01*
X103602686Y-107090500D01*
X103716814Y-107156392D01*
X103844108Y-107190500D01*
X103844110Y-107190500D01*
X103975890Y-107190500D01*
X103975892Y-107190500D01*
X104103186Y-107156392D01*
X104217314Y-107090500D01*
X104310500Y-106997314D01*
X104376392Y-106883186D01*
X104410500Y-106755892D01*
X104410500Y-106624108D01*
X104376392Y-106496814D01*
X104310500Y-106382686D01*
X104281475Y-106353661D01*
X104281475Y-106353660D01*
X104246819Y-106319004D01*
X104222304Y-106274108D01*
X120259500Y-106274108D01*
X120259500Y-106405891D01*
X120293608Y-106533187D01*
X120326554Y-106590250D01*
X120359500Y-106647314D01*
X120452686Y-106740500D01*
X120566814Y-106806392D01*
X120694108Y-106840500D01*
X120694110Y-106840500D01*
X120825890Y-106840500D01*
X120825892Y-106840500D01*
X120953186Y-106806392D01*
X121067314Y-106740500D01*
X121160500Y-106647314D01*
X121226392Y-106533186D01*
X121260500Y-106405892D01*
X121260500Y-106274108D01*
X121226392Y-106146814D01*
X121160500Y-106032686D01*
X121067314Y-105939500D01*
X121010250Y-105906554D01*
X120953187Y-105873608D01*
X120889539Y-105856554D01*
X120825892Y-105839500D01*
X120694108Y-105839500D01*
X120566812Y-105873608D01*
X120452686Y-105939500D01*
X120452683Y-105939502D01*
X120359502Y-106032683D01*
X120359500Y-106032686D01*
X120293608Y-106146812D01*
X120259500Y-106274108D01*
X104222304Y-106274108D01*
X104213334Y-106257681D01*
X104210500Y-106231323D01*
X104210500Y-104134108D01*
X115919500Y-104134108D01*
X115919500Y-104265891D01*
X115953608Y-104393187D01*
X115986554Y-104450250D01*
X116019500Y-104507314D01*
X116112686Y-104600500D01*
X116226814Y-104666392D01*
X116354108Y-104700500D01*
X116354110Y-104700500D01*
X116485890Y-104700500D01*
X116485892Y-104700500D01*
X116613186Y-104666392D01*
X116727314Y-104600500D01*
X116820500Y-104507314D01*
X116886392Y-104393186D01*
X116920500Y-104265892D01*
X116920500Y-104134108D01*
X116886392Y-104006814D01*
X116820500Y-103892686D01*
X116727314Y-103799500D01*
X116670250Y-103766554D01*
X116613187Y-103733608D01*
X116549539Y-103716554D01*
X116485892Y-103699500D01*
X116354108Y-103699500D01*
X116226812Y-103733608D01*
X116112686Y-103799500D01*
X116112683Y-103799502D01*
X116019502Y-103892683D01*
X116019500Y-103892686D01*
X115953608Y-104006812D01*
X115919500Y-104134108D01*
X104210500Y-104134108D01*
X104210500Y-102957108D01*
X113639500Y-102957108D01*
X113639500Y-103088891D01*
X113673608Y-103216187D01*
X113701961Y-103265294D01*
X113739500Y-103330314D01*
X113832686Y-103423500D01*
X113946814Y-103489392D01*
X114074108Y-103523500D01*
X114074110Y-103523500D01*
X114205890Y-103523500D01*
X114205892Y-103523500D01*
X114333186Y-103489392D01*
X114447314Y-103423500D01*
X114540500Y-103330314D01*
X114606392Y-103216186D01*
X114640500Y-103088892D01*
X114640500Y-102957108D01*
X114606392Y-102829814D01*
X114540500Y-102715686D01*
X114447314Y-102622500D01*
X114390250Y-102589554D01*
X114333187Y-102556608D01*
X114269539Y-102539554D01*
X114205892Y-102522500D01*
X114074108Y-102522500D01*
X113946812Y-102556608D01*
X113832686Y-102622500D01*
X113832683Y-102622502D01*
X113739502Y-102715683D01*
X113739500Y-102715686D01*
X113673608Y-102829812D01*
X113639500Y-102957108D01*
X104210500Y-102957108D01*
X104210500Y-101407676D01*
X104230185Y-101340637D01*
X104282989Y-101294882D01*
X104352147Y-101284938D01*
X104415703Y-101313963D01*
X104422181Y-101319995D01*
X105069500Y-101967314D01*
X105162686Y-102060500D01*
X105276814Y-102126392D01*
X105404108Y-102160500D01*
X122419445Y-102160500D01*
X122486484Y-102180185D01*
X122529930Y-102228205D01*
X122587712Y-102341609D01*
X122587715Y-102341613D01*
X122708028Y-102507213D01*
X122852782Y-102651967D01*
X122852784Y-102651968D01*
X122884734Y-102675181D01*
X122927400Y-102730510D01*
X122933381Y-102800123D01*
X122900776Y-102861919D01*
X122839938Y-102896277D01*
X122811857Y-102899500D01*
X122795741Y-102899500D01*
X122784937Y-102900513D01*
X122765300Y-102902354D01*
X122765297Y-102902354D01*
X122765296Y-102902355D01*
X122765294Y-102902355D01*
X122637117Y-102947206D01*
X122527849Y-103027849D01*
X122447206Y-103137118D01*
X122402353Y-103265297D01*
X122402353Y-103265299D01*
X122399500Y-103295729D01*
X122399500Y-105104260D01*
X122399501Y-105104266D01*
X122402354Y-105134700D01*
X122402354Y-105134702D01*
X122402355Y-105134703D01*
X122402355Y-105134705D01*
X122447206Y-105262882D01*
X122527849Y-105372150D01*
X122572655Y-105405218D01*
X122637117Y-105452793D01*
X122679844Y-105467744D01*
X122765298Y-105497646D01*
X122772323Y-105498304D01*
X122795733Y-105500500D01*
X124604266Y-105500499D01*
X124634700Y-105497646D01*
X124762883Y-105452793D01*
X124872150Y-105372150D01*
X124952793Y-105262883D01*
X124977608Y-105191966D01*
X124997646Y-105134702D01*
X124997646Y-105134700D01*
X125000500Y-105104267D01*
X125000499Y-103295734D01*
X124997646Y-103265300D01*
X124952793Y-103137117D01*
X124872150Y-103027849D01*
X124776298Y-102957108D01*
X124762883Y-102947207D01*
X124762881Y-102947206D01*
X124634701Y-102902353D01*
X124604271Y-102899500D01*
X124604267Y-102899500D01*
X124588151Y-102899500D01*
X124521112Y-102879815D01*
X124475357Y-102827011D01*
X124465413Y-102757853D01*
X124494438Y-102694297D01*
X124515266Y-102675182D01*
X124547213Y-102651971D01*
X124547215Y-102651968D01*
X124547219Y-102651966D01*
X124691966Y-102507219D01*
X124691968Y-102507215D01*
X124691971Y-102507213D01*
X124744732Y-102434590D01*
X124812287Y-102341610D01*
X124905220Y-102159219D01*
X124968477Y-101964534D01*
X125000500Y-101762352D01*
X125000500Y-101557648D01*
X125000500Y-101557647D01*
X124968477Y-101355465D01*
X124905218Y-101160776D01*
X124832394Y-101017853D01*
X124812287Y-100978390D01*
X124790076Y-100947819D01*
X124691971Y-100812786D01*
X124547213Y-100668028D01*
X124381613Y-100547715D01*
X124381612Y-100547714D01*
X124381610Y-100547713D01*
X124288920Y-100500485D01*
X124238124Y-100452510D01*
X124221329Y-100384689D01*
X124243866Y-100318554D01*
X124288919Y-100279516D01*
X124381610Y-100232288D01*
X124431144Y-100196299D01*
X124547213Y-100111972D01*
X124547215Y-100111969D01*
X124547219Y-100111967D01*
X124691966Y-99967220D01*
X124691968Y-99967216D01*
X124691971Y-99967214D01*
X124744732Y-99894591D01*
X124812287Y-99801611D01*
X124905220Y-99619220D01*
X124968477Y-99424535D01*
X125000500Y-99222353D01*
X125000500Y-99017649D01*
X124968477Y-98815467D01*
X124968476Y-98815465D01*
X124905218Y-98620777D01*
X124871503Y-98554608D01*
X124812287Y-98438391D01*
X124804556Y-98427750D01*
X124691971Y-98272787D01*
X124547213Y-98128029D01*
X124381613Y-98007716D01*
X124381612Y-98007715D01*
X124381610Y-98007714D01*
X124288917Y-97960484D01*
X124238122Y-97912510D01*
X124221327Y-97844689D01*
X124243864Y-97778554D01*
X124288917Y-97739516D01*
X124381610Y-97692287D01*
X124449612Y-97642881D01*
X124547213Y-97571971D01*
X124547215Y-97571968D01*
X124547219Y-97571966D01*
X124691966Y-97427219D01*
X124691968Y-97427215D01*
X124691971Y-97427213D01*
X124765326Y-97326247D01*
X124812287Y-97261610D01*
X124905220Y-97079219D01*
X124968477Y-96884534D01*
X125000500Y-96682352D01*
X125000500Y-96477648D01*
X124990798Y-96416391D01*
X124968477Y-96275465D01*
X124925497Y-96143187D01*
X124905220Y-96080781D01*
X124905218Y-96080778D01*
X124905218Y-96080776D01*
X124871503Y-96014607D01*
X124812287Y-95898390D01*
X124801911Y-95884108D01*
X124691971Y-95732786D01*
X124547213Y-95588028D01*
X124381614Y-95467715D01*
X124345865Y-95449500D01*
X124288917Y-95420483D01*
X124238123Y-95372511D01*
X124221328Y-95304690D01*
X124243865Y-95238555D01*
X124288917Y-95199516D01*
X124381610Y-95152287D01*
X124431017Y-95116391D01*
X124547213Y-95031971D01*
X124547215Y-95031968D01*
X124547219Y-95031966D01*
X124691966Y-94887219D01*
X124691968Y-94887215D01*
X124691971Y-94887213D01*
X124744732Y-94814590D01*
X124812287Y-94721610D01*
X124905220Y-94539219D01*
X124968477Y-94344534D01*
X125000500Y-94142352D01*
X125000500Y-93937648D01*
X124968477Y-93735466D01*
X124905220Y-93540781D01*
X124905218Y-93540778D01*
X124905218Y-93540776D01*
X124844266Y-93421153D01*
X124812287Y-93358390D01*
X124788783Y-93326039D01*
X124691971Y-93192786D01*
X124547213Y-93048028D01*
X124381614Y-92927715D01*
X124375006Y-92924348D01*
X124288917Y-92880483D01*
X124238123Y-92832511D01*
X124221328Y-92764690D01*
X124243865Y-92698555D01*
X124288917Y-92659516D01*
X124381610Y-92612287D01*
X124426840Y-92579426D01*
X124547213Y-92491971D01*
X124547215Y-92491968D01*
X124547219Y-92491966D01*
X124691966Y-92347219D01*
X124691968Y-92347215D01*
X124691971Y-92347213D01*
X124779082Y-92227313D01*
X124812287Y-92181610D01*
X124905220Y-91999219D01*
X124968477Y-91804534D01*
X125000500Y-91602352D01*
X125000500Y-91397648D01*
X124976543Y-91246391D01*
X124968477Y-91195465D01*
X124905218Y-91000776D01*
X124863171Y-90918255D01*
X124850275Y-90849586D01*
X124876551Y-90784845D01*
X124933658Y-90744588D01*
X124941548Y-90742189D01*
X124963186Y-90736392D01*
X125077314Y-90670500D01*
X125170500Y-90577314D01*
X125236392Y-90463186D01*
X125270500Y-90335892D01*
X125270500Y-90204108D01*
X125236392Y-90076814D01*
X125170500Y-89962686D01*
X125077314Y-89869500D01*
X125009764Y-89830500D01*
X124963187Y-89803608D01*
X124854552Y-89774500D01*
X124835892Y-89769500D01*
X124704108Y-89769500D01*
X124576812Y-89803608D01*
X124462686Y-89869500D01*
X124462683Y-89869502D01*
X124369502Y-89962683D01*
X124369500Y-89962686D01*
X124303608Y-90076814D01*
X124285959Y-90142683D01*
X124275341Y-90182309D01*
X124238976Y-90241969D01*
X124176129Y-90272498D01*
X124117248Y-90268146D01*
X124082366Y-90256812D01*
X124004534Y-90231522D01*
X123829995Y-90203878D01*
X123802352Y-90199500D01*
X123597648Y-90199500D01*
X123573329Y-90203351D01*
X123395465Y-90231522D01*
X123200776Y-90294781D01*
X123018386Y-90387715D01*
X122852786Y-90508028D01*
X122708028Y-90652786D01*
X122587715Y-90818386D01*
X122494781Y-91000776D01*
X122431522Y-91195465D01*
X122399500Y-91397648D01*
X122399500Y-91602351D01*
X122431522Y-91804534D01*
X122494781Y-91999223D01*
X122542761Y-92093387D01*
X122566766Y-92140500D01*
X122587715Y-92181613D01*
X122708028Y-92347213D01*
X122852786Y-92491971D01*
X122973160Y-92579426D01*
X123018390Y-92612287D01*
X123087158Y-92647326D01*
X123111080Y-92659515D01*
X123161876Y-92707490D01*
X123178671Y-92775311D01*
X123156134Y-92841446D01*
X123111080Y-92880485D01*
X123018386Y-92927715D01*
X122852786Y-93048028D01*
X122708028Y-93192786D01*
X122587715Y-93358386D01*
X122494781Y-93540776D01*
X122431522Y-93735465D01*
X122399500Y-93937648D01*
X122399500Y-94142351D01*
X122431522Y-94344534D01*
X122494781Y-94539223D01*
X122587715Y-94721613D01*
X122708028Y-94887213D01*
X122852786Y-95031971D01*
X122968983Y-95116391D01*
X123018390Y-95152287D01*
X123109840Y-95198883D01*
X123111080Y-95199515D01*
X123161876Y-95247490D01*
X123178671Y-95315311D01*
X123156134Y-95381446D01*
X123111080Y-95420485D01*
X123018386Y-95467715D01*
X122852786Y-95588028D01*
X122708028Y-95732786D01*
X122587715Y-95898386D01*
X122494781Y-96080776D01*
X122431522Y-96275465D01*
X122399500Y-96477648D01*
X122399500Y-96682351D01*
X122431522Y-96884534D01*
X122494781Y-97079223D01*
X122587715Y-97261613D01*
X122708028Y-97427213D01*
X122852786Y-97571971D01*
X123018385Y-97692284D01*
X123018387Y-97692285D01*
X123018390Y-97692287D01*
X123111082Y-97739516D01*
X123161877Y-97787489D01*
X123178672Y-97855310D01*
X123156135Y-97921445D01*
X123111081Y-97960484D01*
X123018391Y-98007712D01*
X123018389Y-98007713D01*
X122852786Y-98128029D01*
X122708028Y-98272787D01*
X122587715Y-98438387D01*
X122494781Y-98620777D01*
X122431522Y-98815466D01*
X122399500Y-99017649D01*
X122399500Y-99222352D01*
X122419794Y-99350483D01*
X122410839Y-99419777D01*
X122365843Y-99473228D01*
X122299092Y-99493868D01*
X122231778Y-99475143D01*
X122209640Y-99457562D01*
X122166819Y-99414741D01*
X122133334Y-99353418D01*
X122130500Y-99327060D01*
X122130500Y-93421155D01*
X122130499Y-93421153D01*
X122130115Y-93419223D01*
X122099737Y-93266503D01*
X122069201Y-93192781D01*
X122039397Y-93120827D01*
X122039390Y-93120814D01*
X121951789Y-92989711D01*
X121951786Y-92989707D01*
X121840292Y-92878213D01*
X121840288Y-92878210D01*
X121709185Y-92790609D01*
X121709172Y-92790602D01*
X121563501Y-92730264D01*
X121563489Y-92730261D01*
X121408845Y-92699500D01*
X121408842Y-92699500D01*
X121251158Y-92699500D01*
X121251155Y-92699500D01*
X121096510Y-92730261D01*
X121096498Y-92730264D01*
X120950827Y-92790602D01*
X120950814Y-92790609D01*
X120819711Y-92878210D01*
X120819707Y-92878213D01*
X120708213Y-92989707D01*
X120708210Y-92989711D01*
X120620609Y-93120814D01*
X120620602Y-93120827D01*
X120560264Y-93266498D01*
X120560261Y-93266510D01*
X120529500Y-93421153D01*
X120529500Y-99525500D01*
X120509815Y-99592539D01*
X120457011Y-99638294D01*
X120405500Y-99649500D01*
X120054108Y-99649500D01*
X119926812Y-99683608D01*
X119812686Y-99749500D01*
X119812683Y-99749502D01*
X119719502Y-99842683D01*
X119719500Y-99842686D01*
X119653608Y-99956812D01*
X119619500Y-100084108D01*
X119619500Y-100215891D01*
X119653608Y-100343187D01*
X119680636Y-100390000D01*
X119719500Y-100457314D01*
X119812686Y-100550500D01*
X119926814Y-100616392D01*
X120054108Y-100650500D01*
X121087060Y-100650500D01*
X121154099Y-100670185D01*
X121174741Y-100686819D01*
X121435741Y-100947819D01*
X121469226Y-101009142D01*
X121464242Y-101078834D01*
X121422370Y-101134767D01*
X121356906Y-101159184D01*
X121348060Y-101159500D01*
X114879065Y-101159500D01*
X114812026Y-101139815D01*
X114766271Y-101087011D01*
X114756327Y-101017853D01*
X114759290Y-101003408D01*
X114760197Y-101000021D01*
X114760500Y-100998892D01*
X114760500Y-100867108D01*
X114726392Y-100739814D01*
X114660500Y-100625686D01*
X114567314Y-100532500D01*
X114510250Y-100499554D01*
X114453187Y-100466608D01*
X114389539Y-100449554D01*
X114325892Y-100432500D01*
X114194108Y-100432500D01*
X114066812Y-100466608D01*
X113952686Y-100532500D01*
X113952683Y-100532502D01*
X113859502Y-100625683D01*
X113859500Y-100625686D01*
X113793608Y-100739812D01*
X113759500Y-100867108D01*
X113759500Y-100998893D01*
X113760710Y-101003408D01*
X113759047Y-101073258D01*
X113719883Y-101131120D01*
X113655654Y-101158623D01*
X113640935Y-101159500D01*
X112694833Y-101159500D01*
X112627794Y-101139815D01*
X112582039Y-101087011D01*
X112572095Y-101017853D01*
X112601120Y-100954297D01*
X112607152Y-100947819D01*
X112650460Y-100904511D01*
X113304472Y-100250499D01*
X113979511Y-99575459D01*
X114040832Y-99541976D01*
X114110524Y-99546960D01*
X114166457Y-99588832D01*
X114190874Y-99654296D01*
X114190130Y-99679325D01*
X114189500Y-99684105D01*
X114189500Y-99684108D01*
X114189500Y-99815892D01*
X114206554Y-99879539D01*
X114223608Y-99943187D01*
X114237483Y-99967219D01*
X114289500Y-100057314D01*
X114382686Y-100150500D01*
X114496814Y-100216392D01*
X114624108Y-100250500D01*
X114624110Y-100250500D01*
X114755890Y-100250500D01*
X114755892Y-100250500D01*
X114883186Y-100216392D01*
X114997314Y-100150500D01*
X115090500Y-100057314D01*
X115156392Y-99943186D01*
X115190500Y-99815892D01*
X115190500Y-99684108D01*
X115156392Y-99556814D01*
X115090500Y-99442686D01*
X114997314Y-99349500D01*
X114940250Y-99316554D01*
X114883187Y-99283608D01*
X114819539Y-99266554D01*
X114755892Y-99249500D01*
X114624108Y-99249500D01*
X114624105Y-99249500D01*
X114619325Y-99250130D01*
X114550290Y-99239362D01*
X114498035Y-99192981D01*
X114479151Y-99125712D01*
X114499633Y-99058912D01*
X114515456Y-99039514D01*
X115868380Y-97686591D01*
X115872416Y-97679601D01*
X115907941Y-97618069D01*
X115928420Y-97541642D01*
X115928420Y-91280756D01*
X115948105Y-91213717D01*
X115964739Y-91193075D01*
X115990501Y-91167313D01*
X116020500Y-91137314D01*
X116086392Y-91023186D01*
X116120500Y-90895892D01*
X116120500Y-90881203D01*
X116140185Y-90814164D01*
X116192989Y-90768409D01*
X116262147Y-90758465D01*
X116276577Y-90761424D01*
X116329108Y-90775500D01*
X116329111Y-90775500D01*
X116460890Y-90775500D01*
X116460892Y-90775500D01*
X116588186Y-90741392D01*
X116702314Y-90675500D01*
X116795500Y-90582314D01*
X116861392Y-90468186D01*
X116895500Y-90340892D01*
X116895500Y-90209108D01*
X116861392Y-90081814D01*
X116795500Y-89967686D01*
X116702314Y-89874500D01*
X116626104Y-89830500D01*
X116588187Y-89808608D01*
X116524539Y-89791554D01*
X116460892Y-89774500D01*
X116329108Y-89774500D01*
X116201812Y-89808608D01*
X116087686Y-89874500D01*
X116087683Y-89874502D01*
X115994502Y-89967683D01*
X115994500Y-89967686D01*
X115928608Y-90081812D01*
X115894500Y-90209108D01*
X115894500Y-90223796D01*
X115874815Y-90290835D01*
X115822011Y-90336590D01*
X115752853Y-90346534D01*
X115738408Y-90343571D01*
X115685893Y-90329500D01*
X115685892Y-90329500D01*
X115554108Y-90329500D01*
X115426812Y-90363608D01*
X115312686Y-90429500D01*
X115312683Y-90429502D01*
X115219502Y-90522683D01*
X115219498Y-90522689D01*
X115186819Y-90579289D01*
X115136251Y-90627504D01*
X115067644Y-90640725D01*
X115002780Y-90614756D01*
X114972046Y-90579287D01*
X114970907Y-90577314D01*
X114910500Y-90472686D01*
X114817314Y-90379500D01*
X114750443Y-90340892D01*
X114703187Y-90313608D01*
X114608734Y-90288300D01*
X114575892Y-90279500D01*
X114444108Y-90279500D01*
X114316812Y-90313608D01*
X114202686Y-90379500D01*
X114202683Y-90379502D01*
X114109502Y-90472683D01*
X114109500Y-90472686D01*
X114043608Y-90586812D01*
X114019846Y-90675497D01*
X114009500Y-90714108D01*
X114009500Y-90845892D01*
X114022897Y-90895890D01*
X114043608Y-90973187D01*
X114059537Y-91000776D01*
X114109500Y-91087314D01*
X114202686Y-91180500D01*
X114316814Y-91246392D01*
X114444108Y-91280500D01*
X114444110Y-91280500D01*
X114475420Y-91280500D01*
X114542459Y-91300185D01*
X114588214Y-91352989D01*
X114597554Y-91395922D01*
X114598359Y-91395817D01*
X114599420Y-91403876D01*
X114599420Y-91403877D01*
X114607139Y-91432686D01*
X114633528Y-91531172D01*
X114666474Y-91588235D01*
X114699420Y-91645299D01*
X114792606Y-91738485D01*
X114906734Y-91804377D01*
X115034028Y-91838485D01*
X115034030Y-91838485D01*
X115165808Y-91838485D01*
X115165812Y-91838485D01*
X115171323Y-91837008D01*
X115241169Y-91838667D01*
X115299034Y-91877826D01*
X115326542Y-91942052D01*
X115327420Y-91956781D01*
X115327420Y-97326247D01*
X115307735Y-97393286D01*
X115291101Y-97413928D01*
X112321848Y-100383181D01*
X112260525Y-100416666D01*
X112234167Y-100419500D01*
X110928676Y-100419500D01*
X110861637Y-100399815D01*
X110840995Y-100383181D01*
X110777316Y-100319502D01*
X110777314Y-100319500D01*
X110708058Y-100279515D01*
X110663187Y-100253608D01*
X110583603Y-100232284D01*
X110535892Y-100219500D01*
X110404108Y-100219500D01*
X110276812Y-100253608D01*
X110162686Y-100319500D01*
X110162683Y-100319502D01*
X110069502Y-100412683D01*
X110069500Y-100412686D01*
X110003608Y-100526812D01*
X109969500Y-100654108D01*
X109969500Y-100785891D01*
X110003609Y-100913188D01*
X110003609Y-100913189D01*
X110038430Y-100973500D01*
X110054903Y-101041400D01*
X110032051Y-101107427D01*
X109977130Y-101150617D01*
X109931043Y-101159500D01*
X105728676Y-101159500D01*
X105661637Y-101139815D01*
X105640995Y-101123181D01*
X104576920Y-100059106D01*
X104543435Y-99997783D01*
X104540601Y-99971425D01*
X104540601Y-98014211D01*
X104540601Y-98014209D01*
X104506493Y-97886915D01*
X104440601Y-97772787D01*
X104347415Y-97679601D01*
X104283814Y-97642881D01*
X104233288Y-97613709D01*
X104169640Y-97596655D01*
X104105993Y-97579601D01*
X103974209Y-97579601D01*
X103846913Y-97613709D01*
X103732787Y-97679601D01*
X103732784Y-97679603D01*
X103639603Y-97772784D01*
X103639601Y-97772787D01*
X103573709Y-97886913D01*
X103539601Y-98014209D01*
X103539601Y-100295992D01*
X103573709Y-100423289D01*
X103592886Y-100456502D01*
X103609500Y-100518504D01*
X103609500Y-106231323D01*
X103589815Y-106298362D01*
X103573182Y-106319004D01*
X103509500Y-106382686D01*
X103443608Y-106496812D01*
X103409500Y-106624108D01*
X97970500Y-106624108D01*
X97970500Y-95675729D01*
X100339500Y-95675729D01*
X100339500Y-97484260D01*
X100339501Y-97484266D01*
X100342354Y-97514700D01*
X100342354Y-97514702D01*
X100342355Y-97514703D01*
X100342355Y-97514705D01*
X100387206Y-97642882D01*
X100467849Y-97752150D01*
X100495812Y-97772787D01*
X100577117Y-97832793D01*
X100611114Y-97844689D01*
X100705298Y-97877646D01*
X100714431Y-97878502D01*
X100735733Y-97880500D01*
X100751845Y-97880499D01*
X100818883Y-97900180D01*
X100864641Y-97952982D01*
X100874588Y-98022140D01*
X100845566Y-98085697D01*
X100824736Y-98104816D01*
X100792784Y-98128030D01*
X100648028Y-98272786D01*
X100527715Y-98438386D01*
X100434781Y-98620776D01*
X100371522Y-98815465D01*
X100339500Y-99017648D01*
X100339500Y-99222351D01*
X100371522Y-99424534D01*
X100434781Y-99619223D01*
X100527715Y-99801613D01*
X100648028Y-99967213D01*
X100792786Y-100111971D01*
X100958385Y-100232284D01*
X100958387Y-100232285D01*
X100958390Y-100232287D01*
X101051080Y-100279515D01*
X101101875Y-100327488D01*
X101118670Y-100395309D01*
X101096133Y-100461444D01*
X101051079Y-100500483D01*
X100958391Y-100547710D01*
X100958389Y-100547711D01*
X100792786Y-100668027D01*
X100648028Y-100812785D01*
X100527715Y-100978385D01*
X100434781Y-101160775D01*
X100371522Y-101355464D01*
X100339500Y-101557647D01*
X100339500Y-101762350D01*
X100371522Y-101964533D01*
X100434781Y-102159222D01*
X100527715Y-102341612D01*
X100648028Y-102507212D01*
X100792786Y-102651970D01*
X100958385Y-102772283D01*
X100958387Y-102772284D01*
X100958390Y-102772286D01*
X101051082Y-102819515D01*
X101101877Y-102867488D01*
X101118672Y-102935309D01*
X101096135Y-103001444D01*
X101051081Y-103040483D01*
X100958391Y-103087711D01*
X100958389Y-103087712D01*
X100792786Y-103208028D01*
X100648028Y-103352786D01*
X100527715Y-103518386D01*
X100434781Y-103700776D01*
X100371522Y-103895465D01*
X100339500Y-104097648D01*
X100339500Y-104302351D01*
X100371522Y-104504534D01*
X100434781Y-104699223D01*
X100527715Y-104881613D01*
X100648028Y-105047213D01*
X100792786Y-105191971D01*
X100947749Y-105304556D01*
X100958390Y-105312287D01*
X101074607Y-105371503D01*
X101140776Y-105405218D01*
X101140778Y-105405218D01*
X101140781Y-105405220D01*
X101245137Y-105439127D01*
X101335465Y-105468477D01*
X101436557Y-105484488D01*
X101537648Y-105500500D01*
X101537649Y-105500500D01*
X101742351Y-105500500D01*
X101742352Y-105500500D01*
X101944534Y-105468477D01*
X102139219Y-105405220D01*
X102321610Y-105312287D01*
X102414590Y-105244732D01*
X102487213Y-105191971D01*
X102487215Y-105191968D01*
X102487219Y-105191966D01*
X102631966Y-105047219D01*
X102631968Y-105047215D01*
X102631971Y-105047213D01*
X102684732Y-104974590D01*
X102752287Y-104881610D01*
X102845220Y-104699219D01*
X102908477Y-104504534D01*
X102940500Y-104302352D01*
X102940500Y-104097648D01*
X102908477Y-103895466D01*
X102845220Y-103700781D01*
X102845218Y-103700778D01*
X102845218Y-103700776D01*
X102811503Y-103634607D01*
X102752287Y-103518390D01*
X102731218Y-103489391D01*
X102631971Y-103352786D01*
X102487213Y-103208028D01*
X102321613Y-103087715D01*
X102321612Y-103087714D01*
X102321610Y-103087713D01*
X102228917Y-103040483D01*
X102178122Y-102992509D01*
X102161327Y-102924688D01*
X102183864Y-102858553D01*
X102228917Y-102819515D01*
X102321610Y-102772286D01*
X102428954Y-102694297D01*
X102487213Y-102651970D01*
X102487215Y-102651967D01*
X102487219Y-102651965D01*
X102631966Y-102507218D01*
X102631970Y-102507213D01*
X102631971Y-102507212D01*
X102684732Y-102434589D01*
X102752287Y-102341609D01*
X102845220Y-102159218D01*
X102908477Y-101964533D01*
X102940500Y-101762351D01*
X102940500Y-101557647D01*
X102908477Y-101355465D01*
X102845220Y-101160780D01*
X102845218Y-101160776D01*
X102845218Y-101160775D01*
X102800625Y-101073258D01*
X102752287Y-100978389D01*
X102704917Y-100913189D01*
X102631971Y-100812785D01*
X102487213Y-100668027D01*
X102321613Y-100547714D01*
X102321612Y-100547713D01*
X102321610Y-100547712D01*
X102228920Y-100500484D01*
X102178124Y-100452509D01*
X102161329Y-100384688D01*
X102183866Y-100318553D01*
X102228919Y-100279515D01*
X102321610Y-100232287D01*
X102415312Y-100164209D01*
X102487213Y-100111971D01*
X102487215Y-100111968D01*
X102487219Y-100111966D01*
X102631966Y-99967219D01*
X102631970Y-99967214D01*
X102631971Y-99967213D01*
X102684732Y-99894590D01*
X102752287Y-99801610D01*
X102845220Y-99619219D01*
X102908477Y-99424534D01*
X102940500Y-99222352D01*
X102940500Y-99017648D01*
X102908477Y-98815466D01*
X102845220Y-98620781D01*
X102845218Y-98620777D01*
X102845218Y-98620776D01*
X102811503Y-98554607D01*
X102752287Y-98438390D01*
X102744556Y-98427749D01*
X102631971Y-98272786D01*
X102487217Y-98128032D01*
X102487212Y-98128028D01*
X102455265Y-98104817D01*
X102412599Y-98049487D01*
X102406620Y-97979874D01*
X102439226Y-97918079D01*
X102500064Y-97883722D01*
X102528150Y-97880499D01*
X102544260Y-97880499D01*
X102544266Y-97880499D01*
X102574700Y-97877646D01*
X102702883Y-97832793D01*
X102812150Y-97752150D01*
X102892793Y-97642883D01*
X102928219Y-97541642D01*
X102937646Y-97514702D01*
X102937646Y-97514700D01*
X102940500Y-97484267D01*
X102940499Y-96544108D01*
X103469500Y-96544108D01*
X103469500Y-96675891D01*
X103503608Y-96803187D01*
X103536554Y-96860250D01*
X103569500Y-96917314D01*
X103662686Y-97010500D01*
X103776814Y-97076392D01*
X103904108Y-97110500D01*
X103904110Y-97110500D01*
X104035890Y-97110500D01*
X104035892Y-97110500D01*
X104163186Y-97076392D01*
X104277314Y-97010500D01*
X104370500Y-96917314D01*
X104436392Y-96803186D01*
X104470500Y-96675892D01*
X104470500Y-96544108D01*
X104436392Y-96416814D01*
X104436148Y-96416392D01*
X104398105Y-96350500D01*
X104370500Y-96302686D01*
X104277314Y-96209500D01*
X104220250Y-96176554D01*
X104163187Y-96143608D01*
X104099539Y-96126554D01*
X104035892Y-96109500D01*
X103904108Y-96109500D01*
X103776812Y-96143608D01*
X103662686Y-96209500D01*
X103662683Y-96209502D01*
X103569502Y-96302683D01*
X103569500Y-96302686D01*
X103503608Y-96416812D01*
X103469500Y-96544108D01*
X102940499Y-96544108D01*
X102940499Y-95884108D01*
X112064500Y-95884108D01*
X112064500Y-96015891D01*
X112098608Y-96143187D01*
X112131554Y-96200250D01*
X112164500Y-96257314D01*
X112257686Y-96350500D01*
X112371814Y-96416392D01*
X112499108Y-96450500D01*
X112499110Y-96450500D01*
X112630890Y-96450500D01*
X112630892Y-96450500D01*
X112758186Y-96416392D01*
X112872314Y-96350500D01*
X112965500Y-96257314D01*
X113031392Y-96143186D01*
X113065500Y-96015892D01*
X113065500Y-95884108D01*
X113031392Y-95756814D01*
X112965500Y-95642686D01*
X112872314Y-95549500D01*
X112815250Y-95516554D01*
X112758187Y-95483608D01*
X112694539Y-95466554D01*
X112630892Y-95449500D01*
X112499108Y-95449500D01*
X112371812Y-95483608D01*
X112257686Y-95549500D01*
X112257683Y-95549502D01*
X112164502Y-95642683D01*
X112164500Y-95642686D01*
X112098608Y-95756812D01*
X112064500Y-95884108D01*
X102940499Y-95884108D01*
X102940499Y-95675734D01*
X102937646Y-95645300D01*
X102892793Y-95517117D01*
X102856331Y-95467713D01*
X102812150Y-95407849D01*
X102738123Y-95353215D01*
X102702883Y-95327207D01*
X102702881Y-95327206D01*
X102574701Y-95282353D01*
X102544270Y-95279500D01*
X100735739Y-95279500D01*
X100721751Y-95280811D01*
X100705300Y-95282354D01*
X100705297Y-95282354D01*
X100705296Y-95282355D01*
X100705294Y-95282355D01*
X100577117Y-95327206D01*
X100467849Y-95407849D01*
X100387206Y-95517118D01*
X100342353Y-95645297D01*
X100342353Y-95645299D01*
X100339500Y-95675729D01*
X97970500Y-95675729D01*
X97970500Y-94584108D01*
X113119500Y-94584108D01*
X113119500Y-94715891D01*
X113153608Y-94843187D01*
X113186554Y-94900250D01*
X113219500Y-94957314D01*
X113312686Y-95050500D01*
X113426814Y-95116392D01*
X113554108Y-95150500D01*
X113554110Y-95150500D01*
X113685890Y-95150500D01*
X113685892Y-95150500D01*
X113813186Y-95116392D01*
X113927314Y-95050500D01*
X114020500Y-94957314D01*
X114086392Y-94843186D01*
X114120500Y-94715892D01*
X114120500Y-94584108D01*
X114086392Y-94456814D01*
X114020500Y-94342686D01*
X113927314Y-94249500D01*
X113870250Y-94216554D01*
X113813187Y-94183608D01*
X113749539Y-94166554D01*
X113685892Y-94149500D01*
X113554108Y-94149500D01*
X113426812Y-94183608D01*
X113312686Y-94249500D01*
X113312683Y-94249502D01*
X113219502Y-94342683D01*
X113219500Y-94342686D01*
X113153608Y-94456812D01*
X113119500Y-94584108D01*
X97970500Y-94584108D01*
X97970500Y-92952834D01*
X112940552Y-92952834D01*
X112940552Y-93084618D01*
X112950254Y-93120827D01*
X112974660Y-93211913D01*
X113006175Y-93266498D01*
X113040552Y-93326040D01*
X113133738Y-93419226D01*
X113247866Y-93485118D01*
X113375160Y-93519226D01*
X113375162Y-93519226D01*
X113506942Y-93519226D01*
X113506944Y-93519226D01*
X113634238Y-93485118D01*
X113748366Y-93419226D01*
X113841552Y-93326040D01*
X113907444Y-93211912D01*
X113941552Y-93084618D01*
X113941552Y-92952834D01*
X113907444Y-92825540D01*
X113849900Y-92725871D01*
X113833428Y-92657975D01*
X113852748Y-92602151D01*
X113850628Y-92600927D01*
X113854690Y-92593890D01*
X113854692Y-92593889D01*
X113920584Y-92479761D01*
X113954692Y-92352467D01*
X113954692Y-92220683D01*
X113920584Y-92093389D01*
X113854692Y-91979261D01*
X113761506Y-91886075D01*
X113704442Y-91853129D01*
X113647379Y-91820183D01*
X113583731Y-91803129D01*
X113520084Y-91786075D01*
X113388300Y-91786075D01*
X113261004Y-91820183D01*
X113146878Y-91886075D01*
X113146875Y-91886077D01*
X113053694Y-91979258D01*
X113053692Y-91979261D01*
X112987800Y-92093387D01*
X112964161Y-92181610D01*
X112953692Y-92220683D01*
X112953692Y-92352467D01*
X112971921Y-92420500D01*
X112987801Y-92479763D01*
X112987801Y-92479764D01*
X113045341Y-92579426D01*
X113061814Y-92647326D01*
X113042492Y-92703148D01*
X113044615Y-92704374D01*
X112974661Y-92825536D01*
X112974661Y-92825537D01*
X112974660Y-92825539D01*
X112974660Y-92825540D01*
X112940552Y-92952834D01*
X97970500Y-92952834D01*
X97970500Y-91854108D01*
X98539500Y-91854108D01*
X98539500Y-91985891D01*
X98573608Y-92113187D01*
X98606554Y-92170250D01*
X98639500Y-92227314D01*
X98732686Y-92320500D01*
X98846814Y-92386392D01*
X98974108Y-92420500D01*
X98974110Y-92420500D01*
X99105890Y-92420500D01*
X99105892Y-92420500D01*
X99233186Y-92386392D01*
X99347314Y-92320500D01*
X99440500Y-92227314D01*
X99506392Y-92113186D01*
X99540500Y-91985892D01*
X99540500Y-91854108D01*
X99506392Y-91726814D01*
X99475962Y-91674108D01*
X111569500Y-91674108D01*
X111569500Y-91805892D01*
X111578233Y-91838484D01*
X111603608Y-91933187D01*
X111630208Y-91979258D01*
X111669500Y-92047314D01*
X111762686Y-92140500D01*
X111876814Y-92206392D01*
X112004108Y-92240500D01*
X112004110Y-92240500D01*
X112135890Y-92240500D01*
X112135892Y-92240500D01*
X112263186Y-92206392D01*
X112377314Y-92140500D01*
X112470500Y-92047314D01*
X112536392Y-91933186D01*
X112570500Y-91805892D01*
X112570500Y-91674108D01*
X112536392Y-91546814D01*
X112470500Y-91432686D01*
X112377314Y-91339500D01*
X112275567Y-91280756D01*
X112263187Y-91273608D01*
X112199539Y-91256554D01*
X112135892Y-91239500D01*
X112004108Y-91239500D01*
X111876812Y-91273608D01*
X111762686Y-91339500D01*
X111762683Y-91339502D01*
X111669502Y-91432683D01*
X111669500Y-91432686D01*
X111603608Y-91546812D01*
X111577219Y-91645299D01*
X111569500Y-91674108D01*
X99475962Y-91674108D01*
X99440500Y-91612686D01*
X99347314Y-91519500D01*
X99290250Y-91486554D01*
X99233187Y-91453608D01*
X99155092Y-91432683D01*
X99105892Y-91419500D01*
X98974108Y-91419500D01*
X98846812Y-91453608D01*
X98732686Y-91519500D01*
X98732683Y-91519502D01*
X98639502Y-91612683D01*
X98639500Y-91612686D01*
X98573608Y-91726812D01*
X98539500Y-91854108D01*
X97970500Y-91854108D01*
X97970500Y-88524108D01*
X101229500Y-88524108D01*
X101229500Y-88655891D01*
X101263608Y-88783187D01*
X101278160Y-88808391D01*
X101329500Y-88897314D01*
X101422686Y-88990500D01*
X101536814Y-89056392D01*
X101664108Y-89090500D01*
X101664110Y-89090500D01*
X101795890Y-89090500D01*
X101795892Y-89090500D01*
X101923186Y-89056392D01*
X102037314Y-88990500D01*
X102130500Y-88897314D01*
X102196392Y-88783186D01*
X102230500Y-88655892D01*
X102230500Y-88524108D01*
X102196392Y-88396814D01*
X102130500Y-88282686D01*
X102037314Y-88189500D01*
X101950712Y-88139500D01*
X101923187Y-88123608D01*
X101859539Y-88106554D01*
X101795892Y-88089500D01*
X101664108Y-88089500D01*
X101536812Y-88123608D01*
X101422686Y-88189500D01*
X101422683Y-88189502D01*
X101329502Y-88282683D01*
X101329500Y-88282686D01*
X101263608Y-88396812D01*
X101229500Y-88524108D01*
X97970500Y-88524108D01*
X97970500Y-84598995D01*
X99174499Y-84598995D01*
X99201418Y-84734322D01*
X99201421Y-84734332D01*
X99254221Y-84861804D01*
X99254228Y-84861817D01*
X99330885Y-84976541D01*
X99330888Y-84976545D01*
X99428454Y-85074111D01*
X99428458Y-85074114D01*
X99543182Y-85150771D01*
X99543195Y-85150778D01*
X99670667Y-85203578D01*
X99670672Y-85203580D01*
X99670676Y-85203580D01*
X99670677Y-85203581D01*
X99806004Y-85230500D01*
X99806007Y-85230500D01*
X100743995Y-85230500D01*
X100835041Y-85212389D01*
X100879328Y-85203580D01*
X101006811Y-85150775D01*
X101121542Y-85074114D01*
X101219114Y-84976542D01*
X101295775Y-84861811D01*
X101348580Y-84734328D01*
X101362413Y-84664784D01*
X101375500Y-84598995D01*
X103204499Y-84598995D01*
X103231418Y-84734322D01*
X103231421Y-84734332D01*
X103284221Y-84861804D01*
X103284228Y-84861817D01*
X103360885Y-84976541D01*
X103360888Y-84976545D01*
X103458454Y-85074111D01*
X103458458Y-85074114D01*
X103573182Y-85150771D01*
X103573195Y-85150778D01*
X103700667Y-85203578D01*
X103700672Y-85203580D01*
X103700676Y-85203580D01*
X103700677Y-85203581D01*
X103836004Y-85230500D01*
X103836007Y-85230500D01*
X105073995Y-85230500D01*
X105165041Y-85212389D01*
X105209328Y-85203580D01*
X105336811Y-85150775D01*
X105451542Y-85074114D01*
X105549114Y-84976542D01*
X105625775Y-84861811D01*
X105678580Y-84734328D01*
X105692413Y-84664784D01*
X105705500Y-84598995D01*
X105705500Y-84461004D01*
X105678581Y-84325677D01*
X105678580Y-84325676D01*
X105678580Y-84325672D01*
X105678578Y-84325667D01*
X105625778Y-84198195D01*
X105625771Y-84198182D01*
X105549114Y-84083458D01*
X105549111Y-84083454D01*
X105451545Y-83985888D01*
X105451541Y-83985885D01*
X105336817Y-83909228D01*
X105336804Y-83909221D01*
X105209332Y-83856421D01*
X105209322Y-83856418D01*
X105073995Y-83829500D01*
X105073993Y-83829500D01*
X103836007Y-83829500D01*
X103836005Y-83829500D01*
X103700677Y-83856418D01*
X103700667Y-83856421D01*
X103573195Y-83909221D01*
X103573182Y-83909228D01*
X103458458Y-83985885D01*
X103458454Y-83985888D01*
X103360888Y-84083454D01*
X103360885Y-84083458D01*
X103284228Y-84198182D01*
X103284221Y-84198195D01*
X103231421Y-84325667D01*
X103231418Y-84325677D01*
X103204500Y-84461004D01*
X103204500Y-84461007D01*
X103204500Y-84598993D01*
X103204500Y-84598995D01*
X103204499Y-84598995D01*
X101375500Y-84598995D01*
X101375500Y-84461004D01*
X101348581Y-84325677D01*
X101348580Y-84325676D01*
X101348580Y-84325672D01*
X101348578Y-84325667D01*
X101295778Y-84198195D01*
X101295771Y-84198182D01*
X101219114Y-84083458D01*
X101219111Y-84083454D01*
X101121545Y-83985888D01*
X101121541Y-83985885D01*
X101006817Y-83909228D01*
X101006804Y-83909221D01*
X100879332Y-83856421D01*
X100879322Y-83856418D01*
X100743995Y-83829500D01*
X100743993Y-83829500D01*
X99806007Y-83829500D01*
X99806005Y-83829500D01*
X99670677Y-83856418D01*
X99670667Y-83856421D01*
X99543195Y-83909221D01*
X99543182Y-83909228D01*
X99428458Y-83985885D01*
X99428454Y-83985888D01*
X99330888Y-84083454D01*
X99330885Y-84083458D01*
X99254228Y-84198182D01*
X99254221Y-84198195D01*
X99201421Y-84325667D01*
X99201418Y-84325677D01*
X99174500Y-84461004D01*
X99174500Y-84461007D01*
X99174500Y-84598993D01*
X99174500Y-84598995D01*
X99174499Y-84598995D01*
X97970500Y-84598995D01*
X97970500Y-83249108D01*
X101974500Y-83249108D01*
X101974500Y-83380892D01*
X101978385Y-83395390D01*
X102008608Y-83508187D01*
X102016388Y-83521662D01*
X102074500Y-83622314D01*
X102167686Y-83715500D01*
X102281814Y-83781392D01*
X102409108Y-83815500D01*
X102409110Y-83815500D01*
X102540890Y-83815500D01*
X102540892Y-83815500D01*
X102668186Y-83781392D01*
X102782314Y-83715500D01*
X102875500Y-83622314D01*
X102941392Y-83508186D01*
X102975500Y-83380892D01*
X102975500Y-83249108D01*
X102941392Y-83121814D01*
X102894403Y-83040427D01*
X103502500Y-83040427D01*
X103502500Y-83159573D01*
X103511281Y-83192345D01*
X103533337Y-83274660D01*
X103543743Y-83292683D01*
X103592910Y-83377842D01*
X103677158Y-83462090D01*
X103780341Y-83521663D01*
X103895427Y-83552500D01*
X103895429Y-83552500D01*
X104014571Y-83552500D01*
X104014573Y-83552500D01*
X104083213Y-83534108D01*
X106389500Y-83534108D01*
X106389500Y-83665892D01*
X106402792Y-83715499D01*
X106423608Y-83793187D01*
X106436490Y-83815499D01*
X106489500Y-83907314D01*
X106582686Y-84000500D01*
X106696814Y-84066392D01*
X106824108Y-84100500D01*
X106824110Y-84100500D01*
X106955890Y-84100500D01*
X106955892Y-84100500D01*
X107083186Y-84066392D01*
X107197314Y-84000500D01*
X107290500Y-83907314D01*
X107356392Y-83793186D01*
X107390500Y-83665892D01*
X107390500Y-83534108D01*
X107356392Y-83406814D01*
X107290500Y-83292686D01*
X107197314Y-83199500D01*
X107128155Y-83159571D01*
X107083187Y-83133608D01*
X107019539Y-83116554D01*
X106955892Y-83099500D01*
X106824108Y-83099500D01*
X106696812Y-83133608D01*
X106582686Y-83199500D01*
X106582683Y-83199502D01*
X106489502Y-83292683D01*
X106489500Y-83292686D01*
X106423608Y-83406812D01*
X106396446Y-83508186D01*
X106389500Y-83534108D01*
X104083213Y-83534108D01*
X104129659Y-83521663D01*
X104232842Y-83462090D01*
X104317090Y-83377842D01*
X104376663Y-83274659D01*
X104407500Y-83159573D01*
X104407500Y-83040427D01*
X104376663Y-82925341D01*
X104317090Y-82822158D01*
X104232842Y-82737910D01*
X104161908Y-82696956D01*
X104129660Y-82678337D01*
X104072116Y-82662918D01*
X104014573Y-82647500D01*
X103895427Y-82647500D01*
X103780339Y-82678337D01*
X103677158Y-82737910D01*
X103677155Y-82737912D01*
X103592912Y-82822155D01*
X103592910Y-82822158D01*
X103533337Y-82925339D01*
X103508554Y-83017833D01*
X103502500Y-83040427D01*
X102894403Y-83040427D01*
X102875500Y-83007686D01*
X102782314Y-82914500D01*
X102725250Y-82881554D01*
X102668187Y-82848608D01*
X102604539Y-82831554D01*
X102540892Y-82814500D01*
X102409108Y-82814500D01*
X102281812Y-82848608D01*
X102167686Y-82914500D01*
X102167683Y-82914502D01*
X102074502Y-83007683D01*
X102074500Y-83007686D01*
X102008608Y-83121812D01*
X101989129Y-83194511D01*
X101974500Y-83249108D01*
X97970500Y-83249108D01*
X97970500Y-81914108D01*
X102699500Y-81914108D01*
X102699500Y-82045891D01*
X102733608Y-82173187D01*
X102747042Y-82196455D01*
X102799500Y-82287314D01*
X102892686Y-82380500D01*
X103006814Y-82446392D01*
X103134108Y-82480500D01*
X103134110Y-82480500D01*
X103265890Y-82480500D01*
X103265892Y-82480500D01*
X103393186Y-82446392D01*
X103507314Y-82380500D01*
X103600500Y-82287314D01*
X103666392Y-82173186D01*
X103700500Y-82045892D01*
X103700500Y-81914108D01*
X103666392Y-81786814D01*
X103600500Y-81672686D01*
X103507314Y-81579500D01*
X103435427Y-81537996D01*
X103393187Y-81513608D01*
X103329539Y-81496554D01*
X103265892Y-81479500D01*
X103134108Y-81479500D01*
X103006812Y-81513608D01*
X102892686Y-81579500D01*
X102892683Y-81579502D01*
X102799502Y-81672683D01*
X102799500Y-81672686D01*
X102733608Y-81786812D01*
X102699500Y-81914108D01*
X97970500Y-81914108D01*
X97970500Y-80454108D01*
X99489500Y-80454108D01*
X99489500Y-80585892D01*
X99493146Y-80599500D01*
X99523608Y-80713187D01*
X99550925Y-80760500D01*
X99589500Y-80827314D01*
X99682686Y-80920500D01*
X99796814Y-80986392D01*
X99924108Y-81020500D01*
X99924110Y-81020500D01*
X100055890Y-81020500D01*
X100055892Y-81020500D01*
X100183186Y-80986392D01*
X100297314Y-80920500D01*
X100390500Y-80827314D01*
X100456392Y-80713186D01*
X100490500Y-80585892D01*
X100490500Y-80454108D01*
X100456392Y-80326814D01*
X100390500Y-80212686D01*
X100297314Y-80119500D01*
X100205542Y-80066515D01*
X100183187Y-80053608D01*
X100099904Y-80031293D01*
X100055892Y-80019500D01*
X99924108Y-80019500D01*
X99796812Y-80053608D01*
X99682686Y-80119500D01*
X99682683Y-80119502D01*
X99589502Y-80212683D01*
X99589500Y-80212686D01*
X99523608Y-80326812D01*
X99491477Y-80446728D01*
X99489500Y-80454108D01*
X97970500Y-80454108D01*
X97970500Y-77894108D01*
X102279500Y-77894108D01*
X102279500Y-78025892D01*
X102288521Y-78059560D01*
X102313608Y-78153187D01*
X102335151Y-78190500D01*
X102379500Y-78267314D01*
X102472686Y-78360500D01*
X102558847Y-78410245D01*
X102593853Y-78430456D01*
X102592729Y-78432401D01*
X102638044Y-78468922D01*
X102660106Y-78535217D01*
X102642824Y-78602916D01*
X102623868Y-78627318D01*
X102598500Y-78652686D01*
X102532608Y-78766812D01*
X102498500Y-78894108D01*
X102498500Y-79025891D01*
X102532608Y-79153187D01*
X102565554Y-79210250D01*
X102598500Y-79267314D01*
X102691686Y-79360500D01*
X102805814Y-79426392D01*
X102888606Y-79448576D01*
X102948266Y-79484940D01*
X102978795Y-79547787D01*
X102976287Y-79600442D01*
X102957406Y-79670908D01*
X102957406Y-79670910D01*
X102957406Y-79802694D01*
X102974460Y-79866341D01*
X102991514Y-79929989D01*
X103005292Y-79953853D01*
X103057406Y-80044116D01*
X103150592Y-80137302D01*
X103264720Y-80203194D01*
X103392014Y-80237302D01*
X103392016Y-80237302D01*
X103523796Y-80237302D01*
X103523798Y-80237302D01*
X103523799Y-80237301D01*
X103531854Y-80236241D01*
X103532141Y-80238420D01*
X103590490Y-80239805D01*
X103648355Y-80278963D01*
X103675864Y-80343190D01*
X103672517Y-80390012D01*
X103651885Y-80467013D01*
X103651885Y-80467015D01*
X103651885Y-80598799D01*
X103662808Y-80639565D01*
X103685993Y-80726094D01*
X103705963Y-80760682D01*
X103751885Y-80840221D01*
X103845071Y-80933407D01*
X103959199Y-80999299D01*
X104086493Y-81033407D01*
X104086495Y-81033407D01*
X104218275Y-81033407D01*
X104218277Y-81033407D01*
X104345571Y-80999299D01*
X104459699Y-80933407D01*
X104552885Y-80840221D01*
X104618777Y-80726093D01*
X104652885Y-80598799D01*
X104652885Y-80467015D01*
X104618777Y-80339721D01*
X104552885Y-80225593D01*
X104459699Y-80132407D01*
X104402635Y-80099461D01*
X104345572Y-80066515D01*
X104261972Y-80044115D01*
X104218277Y-80032407D01*
X104086493Y-80032407D01*
X104086491Y-80032407D01*
X104078437Y-80033468D01*
X104078150Y-80031293D01*
X104019771Y-80029893D01*
X103961915Y-79990721D01*
X103934422Y-79926487D01*
X103937772Y-79879699D01*
X103958406Y-79802694D01*
X103958406Y-79670910D01*
X103924298Y-79543616D01*
X103858406Y-79429488D01*
X103765220Y-79336302D01*
X103651092Y-79270410D01*
X103568298Y-79248225D01*
X103508639Y-79211861D01*
X103478110Y-79149014D01*
X103480617Y-79096362D01*
X103499500Y-79025892D01*
X103499500Y-78894108D01*
X103465392Y-78766814D01*
X103399500Y-78652686D01*
X103306314Y-78559500D01*
X103192186Y-78493608D01*
X103192185Y-78493607D01*
X103185147Y-78489544D01*
X103186269Y-78487600D01*
X103140947Y-78451065D01*
X103118892Y-78384767D01*
X103136182Y-78317071D01*
X103155127Y-78292686D01*
X103180500Y-78267314D01*
X103246392Y-78153186D01*
X103280500Y-78025892D01*
X103280500Y-77894108D01*
X103246392Y-77766814D01*
X103180500Y-77652686D01*
X103087314Y-77559500D01*
X102989776Y-77503186D01*
X102973187Y-77493608D01*
X102883194Y-77469495D01*
X102845892Y-77459500D01*
X102714108Y-77459500D01*
X102586812Y-77493608D01*
X102472686Y-77559500D01*
X102472683Y-77559502D01*
X102379502Y-77652683D01*
X102379500Y-77652686D01*
X102313608Y-77766812D01*
X102312084Y-77772500D01*
X102279500Y-77894108D01*
X97970500Y-77894108D01*
X97970500Y-77260427D01*
X103502500Y-77260427D01*
X103502500Y-77379573D01*
X103517083Y-77433997D01*
X103533337Y-77494660D01*
X103555122Y-77532391D01*
X103592910Y-77597842D01*
X103677158Y-77682090D01*
X103780341Y-77741663D01*
X103895427Y-77772500D01*
X103895429Y-77772500D01*
X104014571Y-77772500D01*
X104014573Y-77772500D01*
X104129659Y-77741663D01*
X104232842Y-77682090D01*
X104317090Y-77597842D01*
X104376663Y-77494659D01*
X104407500Y-77379573D01*
X104407500Y-77260427D01*
X104376663Y-77145341D01*
X104317090Y-77042158D01*
X104232842Y-76957910D01*
X104181250Y-76928123D01*
X104129660Y-76898337D01*
X104071237Y-76882683D01*
X104014573Y-76867500D01*
X103895427Y-76867500D01*
X103780339Y-76898337D01*
X103677158Y-76957910D01*
X103677155Y-76957912D01*
X103592912Y-77042155D01*
X103592910Y-77042158D01*
X103533337Y-77145339D01*
X103510520Y-77230497D01*
X103502500Y-77260427D01*
X97970500Y-77260427D01*
X97970500Y-76764108D01*
X107019500Y-76764108D01*
X107019500Y-76895892D01*
X107031175Y-76939464D01*
X107053608Y-77023187D01*
X107085743Y-77078846D01*
X107119500Y-77137314D01*
X107212686Y-77230500D01*
X107326814Y-77296392D01*
X107454108Y-77330500D01*
X107454110Y-77330500D01*
X107585890Y-77330500D01*
X107585892Y-77330500D01*
X107713186Y-77296392D01*
X107827314Y-77230500D01*
X107920500Y-77137314D01*
X107986392Y-77023186D01*
X108020500Y-76895892D01*
X108020500Y-76764108D01*
X107986392Y-76636814D01*
X107920500Y-76522686D01*
X107827314Y-76429500D01*
X107770250Y-76396554D01*
X107713187Y-76363608D01*
X107649539Y-76346554D01*
X107585892Y-76329500D01*
X107454108Y-76329500D01*
X107326812Y-76363608D01*
X107212686Y-76429500D01*
X107212683Y-76429502D01*
X107119502Y-76522683D01*
X107119500Y-76522686D01*
X107053608Y-76636812D01*
X107029237Y-76727769D01*
X107019500Y-76764108D01*
X97970500Y-76764108D01*
X97970500Y-75958995D01*
X99174499Y-75958995D01*
X99201418Y-76094322D01*
X99201421Y-76094332D01*
X99254221Y-76221804D01*
X99254228Y-76221817D01*
X99330885Y-76336541D01*
X99330888Y-76336545D01*
X99428454Y-76434111D01*
X99428458Y-76434114D01*
X99543182Y-76510771D01*
X99543195Y-76510778D01*
X99670667Y-76563578D01*
X99670672Y-76563580D01*
X99670676Y-76563580D01*
X99670677Y-76563581D01*
X99806004Y-76590500D01*
X99806007Y-76590500D01*
X100743995Y-76590500D01*
X100835041Y-76572389D01*
X100879328Y-76563580D01*
X101006811Y-76510775D01*
X101121542Y-76434114D01*
X101219114Y-76336542D01*
X101295775Y-76221811D01*
X101348580Y-76094328D01*
X101367244Y-76000499D01*
X101375500Y-75958995D01*
X103204499Y-75958995D01*
X103231418Y-76094322D01*
X103231421Y-76094332D01*
X103284221Y-76221804D01*
X103284228Y-76221817D01*
X103360885Y-76336541D01*
X103360888Y-76336545D01*
X103458454Y-76434111D01*
X103458458Y-76434114D01*
X103573182Y-76510771D01*
X103573195Y-76510778D01*
X103700667Y-76563578D01*
X103700672Y-76563580D01*
X103700676Y-76563580D01*
X103700677Y-76563581D01*
X103836004Y-76590500D01*
X103836007Y-76590500D01*
X105073995Y-76590500D01*
X105165041Y-76572389D01*
X105209328Y-76563580D01*
X105336811Y-76510775D01*
X105451542Y-76434114D01*
X105549114Y-76336542D01*
X105625775Y-76221811D01*
X105678580Y-76094328D01*
X105697244Y-76000499D01*
X105705500Y-75958995D01*
X105705500Y-75821004D01*
X105678581Y-75685677D01*
X105678580Y-75685676D01*
X105678580Y-75685672D01*
X105628966Y-75565892D01*
X105625778Y-75558195D01*
X105625771Y-75558182D01*
X105549114Y-75443458D01*
X105549111Y-75443454D01*
X105451545Y-75345888D01*
X105451541Y-75345885D01*
X105336817Y-75269228D01*
X105336804Y-75269221D01*
X105209332Y-75216421D01*
X105209322Y-75216418D01*
X105073995Y-75189500D01*
X105073993Y-75189500D01*
X103836007Y-75189500D01*
X103836005Y-75189500D01*
X103700677Y-75216418D01*
X103700667Y-75216421D01*
X103573195Y-75269221D01*
X103573182Y-75269228D01*
X103458458Y-75345885D01*
X103458454Y-75345888D01*
X103360888Y-75443454D01*
X103360885Y-75443458D01*
X103284228Y-75558182D01*
X103284221Y-75558195D01*
X103231421Y-75685667D01*
X103231418Y-75685677D01*
X103204500Y-75821004D01*
X103204500Y-75821007D01*
X103204500Y-75958993D01*
X103204500Y-75958995D01*
X103204499Y-75958995D01*
X101375500Y-75958995D01*
X101375500Y-75821004D01*
X101348581Y-75685677D01*
X101348580Y-75685676D01*
X101348580Y-75685672D01*
X101298966Y-75565892D01*
X101295778Y-75558195D01*
X101295771Y-75558182D01*
X101219114Y-75443458D01*
X101219111Y-75443454D01*
X101121545Y-75345888D01*
X101121541Y-75345885D01*
X101006817Y-75269228D01*
X101006804Y-75269221D01*
X100879332Y-75216421D01*
X100879322Y-75216418D01*
X100743995Y-75189500D01*
X100743993Y-75189500D01*
X99806007Y-75189500D01*
X99806005Y-75189500D01*
X99670677Y-75216418D01*
X99670667Y-75216421D01*
X99543195Y-75269221D01*
X99543182Y-75269228D01*
X99428458Y-75345885D01*
X99428454Y-75345888D01*
X99330888Y-75443454D01*
X99330885Y-75443458D01*
X99254228Y-75558182D01*
X99254221Y-75558195D01*
X99201421Y-75685667D01*
X99201418Y-75685677D01*
X99174500Y-75821004D01*
X99174500Y-75821007D01*
X99174500Y-75958993D01*
X99174500Y-75958995D01*
X99174499Y-75958995D01*
X97970500Y-75958995D01*
X97970500Y-73394108D01*
X103889500Y-73394108D01*
X103889500Y-73525891D01*
X103923608Y-73653187D01*
X103956554Y-73710250D01*
X103989500Y-73767314D01*
X104082686Y-73860500D01*
X104196814Y-73926392D01*
X104324108Y-73960500D01*
X104324110Y-73960500D01*
X104455890Y-73960500D01*
X104455892Y-73960500D01*
X104583186Y-73926392D01*
X104697314Y-73860500D01*
X104790500Y-73767314D01*
X104856392Y-73653186D01*
X104890500Y-73525892D01*
X104890500Y-73394108D01*
X104856392Y-73266814D01*
X104790500Y-73152686D01*
X104697314Y-73059500D01*
X104640250Y-73026554D01*
X104583187Y-72993608D01*
X104519539Y-72976554D01*
X104455892Y-72959500D01*
X104324108Y-72959500D01*
X104196812Y-72993608D01*
X104082686Y-73059500D01*
X104082683Y-73059502D01*
X103989502Y-73152683D01*
X103989500Y-73152686D01*
X103923608Y-73266812D01*
X103889500Y-73394108D01*
X97970500Y-73394108D01*
X97970500Y-72006530D01*
X98869500Y-72006530D01*
X98869500Y-72213469D01*
X98909868Y-72416412D01*
X98909870Y-72416420D01*
X98989058Y-72607596D01*
X99104024Y-72779657D01*
X99250342Y-72925975D01*
X99250345Y-72925977D01*
X99422402Y-73040941D01*
X99613580Y-73120130D01*
X99816530Y-73160499D01*
X99816534Y-73160500D01*
X99816535Y-73160500D01*
X100023466Y-73160500D01*
X100023467Y-73160499D01*
X100226420Y-73120130D01*
X100417598Y-73040941D01*
X100589655Y-72925977D01*
X100735977Y-72779655D01*
X100850941Y-72607598D01*
X100930130Y-72416420D01*
X100970500Y-72213465D01*
X100970500Y-72006535D01*
X100930130Y-71803580D01*
X100850941Y-71612402D01*
X100735977Y-71440345D01*
X100735975Y-71440342D01*
X100589657Y-71294024D01*
X100494581Y-71230497D01*
X100417598Y-71179059D01*
X100403419Y-71173186D01*
X100226420Y-71099870D01*
X100226412Y-71099868D01*
X100023469Y-71059500D01*
X100023465Y-71059500D01*
X99816535Y-71059500D01*
X99816530Y-71059500D01*
X99613587Y-71099868D01*
X99613579Y-71099870D01*
X99422403Y-71179058D01*
X99250342Y-71294024D01*
X99104024Y-71440342D01*
X98989058Y-71612403D01*
X98909870Y-71803579D01*
X98909868Y-71803587D01*
X98869500Y-72006530D01*
X97970500Y-72006530D01*
X97970500Y-69466530D01*
X98869500Y-69466530D01*
X98869500Y-69673469D01*
X98909868Y-69876412D01*
X98909870Y-69876420D01*
X98989058Y-70067596D01*
X99104024Y-70239657D01*
X99250342Y-70385975D01*
X99250345Y-70385977D01*
X99422402Y-70500941D01*
X99613580Y-70580130D01*
X99816530Y-70620499D01*
X99816534Y-70620500D01*
X99816535Y-70620500D01*
X100023466Y-70620500D01*
X100023467Y-70620499D01*
X100226420Y-70580130D01*
X100417598Y-70500941D01*
X100589655Y-70385977D01*
X100735977Y-70239655D01*
X100850941Y-70067598D01*
X100930130Y-69876420D01*
X100970500Y-69673465D01*
X100970500Y-69466535D01*
X100930130Y-69263580D01*
X100850941Y-69072402D01*
X100735977Y-68900345D01*
X100735975Y-68900342D01*
X100589658Y-68754025D01*
X100589650Y-68754019D01*
X100567371Y-68739132D01*
X100567297Y-68739084D01*
X100425154Y-68644108D01*
X105469500Y-68644108D01*
X105469500Y-68775892D01*
X105481814Y-68821848D01*
X105503608Y-68903187D01*
X105536554Y-68960250D01*
X105569500Y-69017314D01*
X105662686Y-69110500D01*
X105776814Y-69176392D01*
X105904108Y-69210500D01*
X105904110Y-69210500D01*
X105994167Y-69210500D01*
X106061206Y-69230185D01*
X106081848Y-69246819D01*
X113378187Y-76543158D01*
X113411672Y-76604481D01*
X113406688Y-76674173D01*
X113364816Y-76730106D01*
X113299352Y-76754523D01*
X113231079Y-76739671D01*
X113228506Y-76738226D01*
X113203189Y-76723609D01*
X113203186Y-76723608D01*
X113075892Y-76689500D01*
X112944108Y-76689500D01*
X112816812Y-76723608D01*
X112702686Y-76789500D01*
X112702683Y-76789502D01*
X112609502Y-76882683D01*
X112609500Y-76882686D01*
X112543608Y-76996812D01*
X112509500Y-77124108D01*
X112509500Y-77255891D01*
X112543608Y-77383187D01*
X112572944Y-77433997D01*
X112609500Y-77497314D01*
X112702686Y-77590500D01*
X112816814Y-77656392D01*
X112944108Y-77690500D01*
X112944110Y-77690500D01*
X113075890Y-77690500D01*
X113075892Y-77690500D01*
X113203186Y-77656392D01*
X113317314Y-77590500D01*
X113410500Y-77497314D01*
X113476392Y-77383186D01*
X113510500Y-77255892D01*
X113510500Y-77124108D01*
X113476392Y-76996814D01*
X113476389Y-76996808D01*
X113461774Y-76971494D01*
X113445300Y-76903594D01*
X113468152Y-76837567D01*
X113523072Y-76794376D01*
X113592626Y-76787734D01*
X113654729Y-76819749D01*
X113656841Y-76821812D01*
X116983181Y-80148152D01*
X116997884Y-80175079D01*
X117014477Y-80200898D01*
X117015368Y-80207098D01*
X117016666Y-80209475D01*
X117019500Y-80235833D01*
X117019500Y-80284166D01*
X116999815Y-80351205D01*
X116983181Y-80371847D01*
X111072181Y-86282847D01*
X111010858Y-86316332D01*
X110941166Y-86311348D01*
X110885233Y-86269476D01*
X110860816Y-86204012D01*
X110860500Y-86195166D01*
X110860500Y-84685910D01*
X110880185Y-84618871D01*
X110932989Y-84573116D01*
X111002147Y-84563172D01*
X111065703Y-84592197D01*
X111072181Y-84598229D01*
X111138736Y-84664784D01*
X111252864Y-84730676D01*
X111380158Y-84764784D01*
X111380160Y-84764784D01*
X111511940Y-84764784D01*
X111511942Y-84764784D01*
X111639236Y-84730676D01*
X111753364Y-84664784D01*
X111846550Y-84571598D01*
X111912442Y-84457470D01*
X111946550Y-84330176D01*
X111946550Y-84198392D01*
X111912442Y-84071098D01*
X111909724Y-84066391D01*
X111871682Y-84000500D01*
X111846550Y-83956970D01*
X111753364Y-83863784D01*
X111669734Y-83815500D01*
X111639237Y-83797892D01*
X111575589Y-83780838D01*
X111511942Y-83763784D01*
X111380158Y-83763784D01*
X111252862Y-83797892D01*
X111138736Y-83863784D01*
X111138733Y-83863786D01*
X111072181Y-83930339D01*
X111010858Y-83963824D01*
X110941166Y-83958840D01*
X110885233Y-83916968D01*
X110860816Y-83851504D01*
X110860500Y-83842658D01*
X110860500Y-82437877D01*
X111722843Y-82437877D01*
X111722843Y-82569661D01*
X111739897Y-82633308D01*
X111756951Y-82696956D01*
X111789897Y-82754019D01*
X111822843Y-82811083D01*
X111916029Y-82904269D01*
X112030157Y-82970161D01*
X112157451Y-83004269D01*
X112157453Y-83004269D01*
X112289233Y-83004269D01*
X112289235Y-83004269D01*
X112416529Y-82970161D01*
X112530657Y-82904269D01*
X112621664Y-82813261D01*
X112682983Y-82779779D01*
X112748907Y-82784493D01*
X112748963Y-82784288D01*
X112750029Y-82784573D01*
X112752675Y-82784763D01*
X112756792Y-82786383D01*
X112756810Y-82786390D01*
X112756811Y-82786390D01*
X112756814Y-82786392D01*
X112884108Y-82820500D01*
X112884110Y-82820500D01*
X113015890Y-82820500D01*
X113015892Y-82820500D01*
X113143186Y-82786392D01*
X113257314Y-82720500D01*
X113350500Y-82627314D01*
X113416392Y-82513186D01*
X113450500Y-82385892D01*
X113450500Y-82254108D01*
X113416392Y-82126814D01*
X113350500Y-82012686D01*
X113257314Y-81919500D01*
X113200250Y-81886554D01*
X113143187Y-81853608D01*
X113079539Y-81836554D01*
X113015892Y-81819500D01*
X112884108Y-81819500D01*
X112756812Y-81853608D01*
X112642686Y-81919500D01*
X112642682Y-81919503D01*
X112551679Y-82010505D01*
X112490356Y-82043989D01*
X112424435Y-82039273D01*
X112424380Y-82039481D01*
X112423304Y-82039192D01*
X112420664Y-82039004D01*
X112416551Y-82037386D01*
X112416532Y-82037378D01*
X112416529Y-82037377D01*
X112289235Y-82003269D01*
X112157451Y-82003269D01*
X112030155Y-82037377D01*
X111916029Y-82103269D01*
X111916026Y-82103271D01*
X111822845Y-82196452D01*
X111822843Y-82196455D01*
X111756951Y-82310581D01*
X111737137Y-82384531D01*
X111722843Y-82437877D01*
X110860500Y-82437877D01*
X110860500Y-79656804D01*
X110880185Y-79589765D01*
X110932989Y-79544010D01*
X111002147Y-79534066D01*
X111055570Y-79556569D01*
X111055648Y-79556436D01*
X111056710Y-79557049D01*
X111059988Y-79558430D01*
X111062681Y-79560496D01*
X111062683Y-79560497D01*
X111062686Y-79560500D01*
X111176814Y-79626392D01*
X111304108Y-79660500D01*
X111304110Y-79660500D01*
X111435890Y-79660500D01*
X111435892Y-79660500D01*
X111563186Y-79626392D01*
X111677314Y-79560500D01*
X111770500Y-79467314D01*
X111836392Y-79353186D01*
X111870500Y-79225892D01*
X111870500Y-79104108D01*
X113399500Y-79104108D01*
X113399500Y-79235892D01*
X113407920Y-79267316D01*
X113433608Y-79363187D01*
X113466554Y-79420250D01*
X113499500Y-79477314D01*
X113592686Y-79570500D01*
X113706814Y-79636392D01*
X113834108Y-79670500D01*
X113834110Y-79670500D01*
X113900613Y-79670500D01*
X113967652Y-79690185D01*
X114013407Y-79742989D01*
X114020388Y-79762407D01*
X114026246Y-79784272D01*
X114044904Y-79816588D01*
X114092138Y-79898399D01*
X114185324Y-79991585D01*
X114299452Y-80057477D01*
X114426746Y-80091585D01*
X114426748Y-80091585D01*
X114558528Y-80091585D01*
X114558530Y-80091585D01*
X114558531Y-80091584D01*
X114566586Y-80090524D01*
X114566833Y-80092403D01*
X114626248Y-80093813D01*
X114684113Y-80132971D01*
X114711622Y-80197198D01*
X114712500Y-80211928D01*
X114712500Y-80282980D01*
X114717170Y-80300408D01*
X114746608Y-80410275D01*
X114767655Y-80446728D01*
X114812500Y-80524402D01*
X114905686Y-80617588D01*
X115019814Y-80683480D01*
X115147108Y-80717588D01*
X115147110Y-80717588D01*
X115278890Y-80717588D01*
X115278892Y-80717588D01*
X115406186Y-80683480D01*
X115520314Y-80617588D01*
X115613500Y-80524402D01*
X115679392Y-80410274D01*
X115713500Y-80282980D01*
X115713500Y-80151196D01*
X115679392Y-80023902D01*
X115676850Y-80019500D01*
X115650054Y-79973087D01*
X115613500Y-79909774D01*
X115520314Y-79816588D01*
X115463250Y-79783642D01*
X115406187Y-79750696D01*
X115342539Y-79733642D01*
X115278892Y-79716588D01*
X115147108Y-79716588D01*
X115147106Y-79716588D01*
X115139052Y-79717649D01*
X115138805Y-79715773D01*
X115079371Y-79714353D01*
X115021512Y-79675185D01*
X114994014Y-79610954D01*
X114993138Y-79596244D01*
X114993138Y-79525195D01*
X114993138Y-79525193D01*
X114959030Y-79397899D01*
X114893138Y-79283771D01*
X114799952Y-79190585D01*
X114727949Y-79149014D01*
X114685825Y-79124693D01*
X114586397Y-79098052D01*
X114558530Y-79090585D01*
X114492025Y-79090585D01*
X114424986Y-79070900D01*
X114379231Y-79018096D01*
X114372250Y-78998678D01*
X114366392Y-78976814D01*
X114300500Y-78862686D01*
X114207314Y-78769500D01*
X114150250Y-78736554D01*
X114093187Y-78703608D01*
X114029539Y-78686554D01*
X113965892Y-78669500D01*
X113834108Y-78669500D01*
X113706812Y-78703608D01*
X113592686Y-78769500D01*
X113592683Y-78769502D01*
X113499502Y-78862683D01*
X113499500Y-78862686D01*
X113433608Y-78976812D01*
X113408398Y-79070900D01*
X113399500Y-79104108D01*
X111870500Y-79104108D01*
X111870500Y-79094108D01*
X111836392Y-78966814D01*
X111770500Y-78852686D01*
X111677314Y-78759500D01*
X111601085Y-78715489D01*
X111563187Y-78693608D01*
X111499539Y-78676554D01*
X111435892Y-78659500D01*
X111304108Y-78659500D01*
X111176812Y-78693608D01*
X111062686Y-78759500D01*
X111062682Y-78759503D01*
X111026817Y-78795368D01*
X110965494Y-78828853D01*
X110895802Y-78823867D01*
X110839869Y-78781995D01*
X110831756Y-78769696D01*
X110800460Y-78715489D01*
X110744511Y-78659540D01*
X110552787Y-78467816D01*
X110519302Y-78406493D01*
X110524286Y-78336801D01*
X110566158Y-78280868D01*
X110576383Y-78274108D01*
X111819500Y-78274108D01*
X111819500Y-78405892D01*
X111836092Y-78467816D01*
X111853608Y-78533187D01*
X111886554Y-78590250D01*
X111919500Y-78647314D01*
X112012686Y-78740500D01*
X112126814Y-78806392D01*
X112254108Y-78840500D01*
X112254110Y-78840500D01*
X112385890Y-78840500D01*
X112385892Y-78840500D01*
X112513186Y-78806392D01*
X112627314Y-78740500D01*
X112720500Y-78647314D01*
X112786392Y-78533186D01*
X112820500Y-78405892D01*
X112820500Y-78274108D01*
X112786392Y-78146814D01*
X112720500Y-78032686D01*
X112627314Y-77939500D01*
X112570250Y-77906554D01*
X112513187Y-77873608D01*
X112447061Y-77855890D01*
X112385892Y-77839500D01*
X112254108Y-77839500D01*
X112126812Y-77873608D01*
X112012686Y-77939500D01*
X112012683Y-77939502D01*
X111919502Y-78032683D01*
X111919500Y-78032686D01*
X111853608Y-78146812D01*
X111833851Y-78220548D01*
X111819500Y-78274108D01*
X110576383Y-78274108D01*
X110578234Y-78272884D01*
X110592473Y-78264621D01*
X110623186Y-78256392D01*
X110737314Y-78190500D01*
X110830500Y-78097314D01*
X110896392Y-77983186D01*
X110930500Y-77855892D01*
X110930500Y-77724108D01*
X110896392Y-77596814D01*
X110830500Y-77482686D01*
X110737314Y-77389500D01*
X110680250Y-77356554D01*
X110623187Y-77323608D01*
X110545909Y-77302902D01*
X110495892Y-77289500D01*
X110364108Y-77289500D01*
X110236814Y-77323608D01*
X110236813Y-77323608D01*
X110236811Y-77323609D01*
X110236810Y-77323609D01*
X110166500Y-77364203D01*
X110098600Y-77380676D01*
X110032573Y-77357823D01*
X109989382Y-77302902D01*
X109980500Y-77256816D01*
X109980500Y-76742439D01*
X109980500Y-76742438D01*
X109960021Y-76666011D01*
X109943163Y-76636812D01*
X109920464Y-76597495D01*
X109920458Y-76597487D01*
X108484819Y-75161848D01*
X108451334Y-75100525D01*
X108448500Y-75074167D01*
X108448500Y-74984110D01*
X108448500Y-74984108D01*
X108414392Y-74856814D01*
X108348500Y-74742686D01*
X108255314Y-74649500D01*
X108198250Y-74616554D01*
X108141187Y-74583608D01*
X108077539Y-74566554D01*
X108013892Y-74549500D01*
X107882108Y-74549500D01*
X107754812Y-74583608D01*
X107640686Y-74649500D01*
X107640683Y-74649502D01*
X107547502Y-74742683D01*
X107547500Y-74742686D01*
X107481608Y-74856812D01*
X107447500Y-74984108D01*
X107447500Y-75115892D01*
X107459814Y-75161848D01*
X107481608Y-75243187D01*
X107496643Y-75269228D01*
X107547500Y-75357314D01*
X107640686Y-75450500D01*
X107754814Y-75516392D01*
X107882108Y-75550500D01*
X107882110Y-75550500D01*
X107972167Y-75550500D01*
X108039206Y-75570185D01*
X108059848Y-75586819D01*
X109343181Y-76870152D01*
X109376666Y-76931475D01*
X109379500Y-76957833D01*
X109379500Y-78059562D01*
X109393152Y-78110513D01*
X109399979Y-78135990D01*
X109399980Y-78135991D01*
X109425654Y-78180460D01*
X109439537Y-78204507D01*
X109439542Y-78204513D01*
X110223181Y-78988152D01*
X110256666Y-79049475D01*
X110259500Y-79075833D01*
X110259500Y-80300408D01*
X110239815Y-80367447D01*
X110187011Y-80413202D01*
X110117853Y-80423146D01*
X110054297Y-80394121D01*
X110047819Y-80388089D01*
X110013274Y-80353544D01*
X110013272Y-80353542D01*
X109932337Y-80306814D01*
X109899145Y-80287650D01*
X109835497Y-80270596D01*
X109771850Y-80253542D01*
X109640066Y-80253542D01*
X109551000Y-80277407D01*
X109481150Y-80275744D01*
X109423288Y-80236581D01*
X109411520Y-80219632D01*
X109405656Y-80209475D01*
X109361021Y-80132165D01*
X109267835Y-80038979D01*
X109199456Y-79999500D01*
X109153708Y-79973087D01*
X109081924Y-79953853D01*
X109026413Y-79938979D01*
X108894629Y-79938979D01*
X108767333Y-79973087D01*
X108653207Y-80038979D01*
X108653204Y-80038981D01*
X108560023Y-80132162D01*
X108560021Y-80132165D01*
X108494129Y-80246291D01*
X108460021Y-80373587D01*
X108460021Y-80416021D01*
X108440336Y-80483060D01*
X108387532Y-80528815D01*
X108336021Y-80540021D01*
X108293587Y-80540021D01*
X108166291Y-80574129D01*
X108052165Y-80640021D01*
X108052162Y-80640023D01*
X107958981Y-80733204D01*
X107958979Y-80733207D01*
X107893087Y-80847333D01*
X107858979Y-80974629D01*
X107858979Y-81106412D01*
X107893087Y-81233708D01*
X107905116Y-81254542D01*
X107958979Y-81347835D01*
X108052165Y-81441021D01*
X108166293Y-81506913D01*
X108293587Y-81541021D01*
X108293589Y-81541021D01*
X108425369Y-81541021D01*
X108425371Y-81541021D01*
X108552665Y-81506913D01*
X108666793Y-81441021D01*
X108759979Y-81347835D01*
X108825871Y-81233707D01*
X108859979Y-81106413D01*
X108859979Y-81063979D01*
X108879664Y-80996940D01*
X108932468Y-80951185D01*
X108962994Y-80941768D01*
X108973413Y-80939979D01*
X109026413Y-80939979D01*
X109120984Y-80914638D01*
X109126586Y-80913677D01*
X109155858Y-80917074D01*
X109185327Y-80917776D01*
X109190175Y-80921057D01*
X109195989Y-80921732D01*
X109218780Y-80940417D01*
X109243189Y-80956938D01*
X109248817Y-80965044D01*
X109250021Y-80966031D01*
X109250473Y-80967428D01*
X109254958Y-80973888D01*
X109305458Y-81061356D01*
X109398644Y-81154542D01*
X109512772Y-81220434D01*
X109640066Y-81254542D01*
X109640068Y-81254542D01*
X109771848Y-81254542D01*
X109771850Y-81254542D01*
X109899144Y-81220434D01*
X110013272Y-81154542D01*
X110047819Y-81119995D01*
X110109142Y-81086510D01*
X110178834Y-81091494D01*
X110234767Y-81133366D01*
X110259184Y-81198830D01*
X110259500Y-81207676D01*
X110259500Y-86164166D01*
X110239815Y-86231205D01*
X110223181Y-86251847D01*
X109771847Y-86703181D01*
X109744919Y-86717884D01*
X109719101Y-86734477D01*
X109712900Y-86735368D01*
X109710524Y-86736666D01*
X109684166Y-86739500D01*
X109647825Y-86739500D01*
X109580786Y-86719815D01*
X109535031Y-86667011D01*
X109525087Y-86597853D01*
X109540437Y-86553501D01*
X109546391Y-86543187D01*
X109546392Y-86543186D01*
X109580500Y-86415892D01*
X109580500Y-86284108D01*
X109546392Y-86156814D01*
X109480500Y-86042686D01*
X109387314Y-85949500D01*
X109330250Y-85916554D01*
X109273187Y-85883608D01*
X109209539Y-85866554D01*
X109145892Y-85849500D01*
X109014108Y-85849500D01*
X108886812Y-85883608D01*
X108772686Y-85949500D01*
X108772683Y-85949502D01*
X108679502Y-86042683D01*
X108679500Y-86042686D01*
X108613608Y-86156812D01*
X108579500Y-86284108D01*
X108579500Y-86415891D01*
X108613608Y-86543187D01*
X108619563Y-86553501D01*
X108679500Y-86657314D01*
X108772686Y-86750500D01*
X108886814Y-86816392D01*
X109014108Y-86850500D01*
X109014110Y-86850500D01*
X109092175Y-86850500D01*
X109159214Y-86870185D01*
X109204969Y-86922989D01*
X109214913Y-86992147D01*
X109199563Y-87036499D01*
X109193608Y-87046812D01*
X109169359Y-87137313D01*
X109159500Y-87174108D01*
X109159500Y-87305892D01*
X109183004Y-87393612D01*
X109185272Y-87402075D01*
X109183609Y-87471925D01*
X109153178Y-87521849D01*
X106351847Y-90323181D01*
X106290524Y-90356666D01*
X106264166Y-90359500D01*
X106174108Y-90359500D01*
X106046812Y-90393608D01*
X105932686Y-90459500D01*
X105932683Y-90459502D01*
X105839502Y-90552683D01*
X105839500Y-90552686D01*
X105773608Y-90666812D01*
X105752769Y-90744588D01*
X105739500Y-90794108D01*
X105739500Y-90925892D01*
X105746094Y-90950500D01*
X105773608Y-91053187D01*
X105793311Y-91087313D01*
X105839500Y-91167314D01*
X105932686Y-91260500D01*
X106046814Y-91326392D01*
X106174108Y-91360500D01*
X106174110Y-91360500D01*
X106305890Y-91360500D01*
X106305892Y-91360500D01*
X106433186Y-91326392D01*
X106547314Y-91260500D01*
X106640500Y-91167314D01*
X106706392Y-91053186D01*
X106740500Y-90925892D01*
X106740500Y-90835832D01*
X106760185Y-90768793D01*
X106776819Y-90748151D01*
X107140862Y-90384108D01*
X109389500Y-90384108D01*
X109389500Y-90515892D01*
X109391321Y-90522689D01*
X109423608Y-90643187D01*
X109445842Y-90681696D01*
X109489500Y-90757314D01*
X109582686Y-90850500D01*
X109696814Y-90916392D01*
X109824108Y-90950500D01*
X109824110Y-90950500D01*
X109955890Y-90950500D01*
X109955892Y-90950500D01*
X110083186Y-90916392D01*
X110197314Y-90850500D01*
X110290500Y-90757314D01*
X110356392Y-90643186D01*
X110390500Y-90515892D01*
X110390500Y-90384108D01*
X110356392Y-90256814D01*
X110290500Y-90142686D01*
X110197314Y-90049500D01*
X110140250Y-90016554D01*
X110083187Y-89983608D01*
X110005092Y-89962683D01*
X109955892Y-89949500D01*
X109824108Y-89949500D01*
X109696812Y-89983608D01*
X109582686Y-90049500D01*
X109582683Y-90049502D01*
X109489502Y-90142683D01*
X109489500Y-90142686D01*
X109423608Y-90256812D01*
X109400362Y-90343571D01*
X109389500Y-90384108D01*
X107140862Y-90384108D01*
X107236670Y-90288300D01*
X108093073Y-89431897D01*
X109019742Y-88505227D01*
X109081063Y-88471744D01*
X109150755Y-88476728D01*
X109206688Y-88518600D01*
X109214808Y-88530910D01*
X109217146Y-88534960D01*
X109310332Y-88628146D01*
X109424460Y-88694038D01*
X109551754Y-88728146D01*
X109551756Y-88728146D01*
X109683536Y-88728146D01*
X109683538Y-88728146D01*
X109810832Y-88694038D01*
X109924960Y-88628146D01*
X110018146Y-88534960D01*
X110084038Y-88420832D01*
X110118146Y-88293538D01*
X110118146Y-88161754D01*
X110117411Y-88156174D01*
X110117998Y-88152403D01*
X110116665Y-88148828D01*
X110123338Y-88118151D01*
X110128173Y-88087138D01*
X110130941Y-88083200D01*
X110131517Y-88080555D01*
X110152661Y-88052308D01*
X110320888Y-87884082D01*
X110382208Y-87850600D01*
X110451900Y-87855584D01*
X110507833Y-87897456D01*
X110515953Y-87909765D01*
X110517930Y-87913189D01*
X110566500Y-87997314D01*
X110659686Y-88090500D01*
X110773814Y-88156392D01*
X110901108Y-88190500D01*
X110901110Y-88190500D01*
X111032890Y-88190500D01*
X111032892Y-88190500D01*
X111160186Y-88156392D01*
X111274314Y-88090500D01*
X111337995Y-88026819D01*
X111399318Y-87993334D01*
X111425676Y-87990500D01*
X111842073Y-87990500D01*
X111909112Y-88010185D01*
X111954867Y-88062989D01*
X111964811Y-88132147D01*
X111935786Y-88195703D01*
X111929754Y-88202181D01*
X111899251Y-88232683D01*
X111899249Y-88232686D01*
X111833357Y-88346812D01*
X111813524Y-88420832D01*
X111799249Y-88474108D01*
X111799249Y-88605892D01*
X111817469Y-88673890D01*
X111815806Y-88743740D01*
X111776643Y-88801602D01*
X111712415Y-88829106D01*
X111694019Y-88828998D01*
X111694019Y-88829500D01*
X111554108Y-88829500D01*
X111426812Y-88863608D01*
X111312686Y-88929500D01*
X111312683Y-88929502D01*
X111219502Y-89022683D01*
X111219500Y-89022686D01*
X111153608Y-89136812D01*
X111121504Y-89256628D01*
X111119500Y-89264108D01*
X111119500Y-89395892D01*
X111134636Y-89452380D01*
X111153608Y-89523187D01*
X111186554Y-89580250D01*
X111219500Y-89637314D01*
X111312686Y-89730500D01*
X111426814Y-89796392D01*
X111554108Y-89830500D01*
X111554110Y-89830500D01*
X111685890Y-89830500D01*
X111685892Y-89830500D01*
X111813186Y-89796392D01*
X111927314Y-89730500D01*
X112020500Y-89637314D01*
X112086392Y-89523186D01*
X112120500Y-89395892D01*
X112120500Y-89264108D01*
X112102279Y-89196106D01*
X112103942Y-89126260D01*
X112143104Y-89068397D01*
X112207332Y-89040893D01*
X112225730Y-89041002D01*
X112225730Y-89040500D01*
X112365639Y-89040500D01*
X112365641Y-89040500D01*
X112492935Y-89006392D01*
X112607063Y-88940500D01*
X112700249Y-88847314D01*
X112766141Y-88733186D01*
X112800249Y-88605892D01*
X112800249Y-88474108D01*
X112766141Y-88346814D01*
X112700249Y-88232686D01*
X112669744Y-88202181D01*
X112636259Y-88140858D01*
X112641243Y-88071166D01*
X112683115Y-88015233D01*
X112748579Y-87990816D01*
X112757425Y-87990500D01*
X115751324Y-87990500D01*
X115818363Y-88010185D01*
X115839005Y-88026819D01*
X115902686Y-88090500D01*
X116016814Y-88156392D01*
X116144108Y-88190500D01*
X116144110Y-88190500D01*
X116275890Y-88190500D01*
X116275892Y-88190500D01*
X116403186Y-88156392D01*
X116517314Y-88090500D01*
X116610500Y-87997314D01*
X116676392Y-87883186D01*
X116710500Y-87755892D01*
X116710500Y-87624108D01*
X116676392Y-87496814D01*
X116676390Y-87496810D01*
X116656011Y-87461512D01*
X116639538Y-87393612D01*
X116662391Y-87327585D01*
X116717312Y-87284394D01*
X116731289Y-87279742D01*
X116825896Y-87254393D01*
X116940024Y-87188501D01*
X117033210Y-87095315D01*
X117099102Y-86981187D01*
X117133210Y-86853893D01*
X117133210Y-86763833D01*
X117141853Y-86734395D01*
X117148377Y-86704407D01*
X117152132Y-86699390D01*
X117152895Y-86696794D01*
X117169528Y-86676153D01*
X117188368Y-86657313D01*
X117209779Y-86635901D01*
X117271099Y-86602417D01*
X117340791Y-86607401D01*
X117396725Y-86649271D01*
X117404846Y-86661582D01*
X117455500Y-86749317D01*
X117548686Y-86842503D01*
X117662814Y-86908395D01*
X117790108Y-86942503D01*
X117790110Y-86942503D01*
X117921890Y-86942503D01*
X117921892Y-86942503D01*
X118049186Y-86908395D01*
X118163314Y-86842503D01*
X118256500Y-86749317D01*
X118322392Y-86635189D01*
X118356500Y-86507895D01*
X118356500Y-86417835D01*
X118376185Y-86350796D01*
X118392819Y-86330154D01*
X123944207Y-80778767D01*
X123945546Y-80780106D01*
X123993543Y-80745054D01*
X124063289Y-80740894D01*
X124124212Y-80775102D01*
X124156969Y-80836816D01*
X124159500Y-80861740D01*
X124159500Y-82628167D01*
X124139815Y-82695206D01*
X124123181Y-82715848D01*
X119322625Y-87516403D01*
X119261302Y-87549888D01*
X119191610Y-87544904D01*
X119135677Y-87503032D01*
X119127557Y-87490723D01*
X119116704Y-87471925D01*
X119082502Y-87412686D01*
X118989316Y-87319500D01*
X118920445Y-87279737D01*
X118875189Y-87253608D01*
X118788682Y-87230429D01*
X118747894Y-87219500D01*
X118616110Y-87219500D01*
X118488814Y-87253608D01*
X118374688Y-87319500D01*
X118374685Y-87319502D01*
X118281504Y-87412683D01*
X118281502Y-87412686D01*
X118215610Y-87526812D01*
X118209427Y-87549888D01*
X118181502Y-87654108D01*
X118181502Y-87785892D01*
X118214693Y-87909765D01*
X118215611Y-87913188D01*
X118215611Y-87913189D01*
X118239416Y-87954420D01*
X118255889Y-88022320D01*
X118233037Y-88088347D01*
X118178115Y-88131538D01*
X118164124Y-88136194D01*
X118151787Y-88139500D01*
X118084652Y-88157488D01*
X117970526Y-88223380D01*
X117916118Y-88277787D01*
X117854794Y-88311271D01*
X117785103Y-88306285D01*
X117766438Y-88297491D01*
X117756536Y-88291774D01*
X117756533Y-88291773D01*
X117629239Y-88257665D01*
X117497455Y-88257665D01*
X117370159Y-88291773D01*
X117256033Y-88357665D01*
X117256030Y-88357667D01*
X117162849Y-88450848D01*
X117162847Y-88450851D01*
X117096955Y-88564977D01*
X117072596Y-88655890D01*
X117062847Y-88692273D01*
X117062847Y-88824057D01*
X117069079Y-88847314D01*
X117096955Y-88951352D01*
X117119556Y-88990497D01*
X117162847Y-89065479D01*
X117256033Y-89158665D01*
X117370161Y-89224557D01*
X117497455Y-89258665D01*
X117497457Y-89258665D01*
X117587514Y-89258665D01*
X117654553Y-89278350D01*
X117675195Y-89294984D01*
X117716602Y-89336391D01*
X117772551Y-89392340D01*
X117772553Y-89392341D01*
X117772557Y-89392344D01*
X117841066Y-89431897D01*
X117841073Y-89431901D01*
X117917500Y-89452380D01*
X117917502Y-89452380D01*
X119097680Y-89452380D01*
X119097682Y-89452380D01*
X119174109Y-89431901D01*
X119242631Y-89392340D01*
X119298580Y-89336391D01*
X121570863Y-87064108D01*
X122709500Y-87064108D01*
X122709500Y-87195892D01*
X122716927Y-87223609D01*
X122743608Y-87323187D01*
X122776554Y-87380250D01*
X122809500Y-87437314D01*
X122902686Y-87530500D01*
X123016814Y-87596392D01*
X123144108Y-87630500D01*
X123144110Y-87630500D01*
X123275890Y-87630500D01*
X123275892Y-87630500D01*
X123403186Y-87596392D01*
X123517314Y-87530500D01*
X123610500Y-87437314D01*
X123676392Y-87323186D01*
X123710500Y-87195892D01*
X123710500Y-87064108D01*
X123676392Y-86936814D01*
X123610500Y-86822686D01*
X123517314Y-86729500D01*
X123424915Y-86676153D01*
X123403187Y-86663608D01*
X123303188Y-86636814D01*
X123275892Y-86629500D01*
X123144108Y-86629500D01*
X123016812Y-86663608D01*
X122902686Y-86729500D01*
X122902683Y-86729502D01*
X122809502Y-86822683D01*
X122809500Y-86822686D01*
X122743608Y-86936812D01*
X122716898Y-87036499D01*
X122709500Y-87064108D01*
X121570863Y-87064108D01*
X125440460Y-83194511D01*
X125449004Y-83179712D01*
X125480021Y-83125989D01*
X125500500Y-83049562D01*
X125500500Y-82824108D01*
X125839500Y-82824108D01*
X125839500Y-82955892D01*
X125853377Y-83007683D01*
X125873608Y-83083187D01*
X125902719Y-83133608D01*
X125939500Y-83197314D01*
X126032686Y-83290500D01*
X126146814Y-83356392D01*
X126274108Y-83390500D01*
X126274110Y-83390500D01*
X126405890Y-83390500D01*
X126405892Y-83390500D01*
X126533186Y-83356392D01*
X126647314Y-83290500D01*
X126740500Y-83197314D01*
X126806392Y-83083186D01*
X126840500Y-82955892D01*
X126840500Y-82824108D01*
X126806392Y-82696814D01*
X126740500Y-82582686D01*
X126647314Y-82489500D01*
X126572649Y-82446392D01*
X126533187Y-82423608D01*
X126469539Y-82406554D01*
X126405892Y-82389500D01*
X126274108Y-82389500D01*
X126146812Y-82423608D01*
X126032686Y-82489500D01*
X126032683Y-82489502D01*
X125939502Y-82582683D01*
X125939500Y-82582686D01*
X125873608Y-82696812D01*
X125850115Y-82784493D01*
X125839500Y-82824108D01*
X125500500Y-82824108D01*
X125500500Y-81062051D01*
X125520185Y-80995012D01*
X125572989Y-80949257D01*
X125642147Y-80939313D01*
X125686499Y-80954663D01*
X125706814Y-80966392D01*
X125834108Y-81000500D01*
X125834110Y-81000500D01*
X125965890Y-81000500D01*
X125965892Y-81000500D01*
X126093186Y-80966392D01*
X126207314Y-80900500D01*
X126300500Y-80807314D01*
X126366392Y-80693186D01*
X126400500Y-80565892D01*
X126400500Y-80434108D01*
X126366392Y-80306814D01*
X126362693Y-80300408D01*
X126331450Y-80246293D01*
X126300500Y-80192686D01*
X126207314Y-80099500D01*
X126134528Y-80057477D01*
X126093187Y-80033608D01*
X126029539Y-80016554D01*
X125965892Y-79999500D01*
X125834108Y-79999500D01*
X125706814Y-80033608D01*
X125706813Y-80033608D01*
X125706811Y-80033609D01*
X125706808Y-80033610D01*
X125686498Y-80045336D01*
X125618598Y-80061807D01*
X125552571Y-80038954D01*
X125509382Y-79984032D01*
X125500500Y-79937948D01*
X125500500Y-75434108D01*
X125899500Y-75434108D01*
X125899500Y-75565892D01*
X125905107Y-75586819D01*
X125933608Y-75693187D01*
X125966554Y-75750250D01*
X125999500Y-75807314D01*
X126092686Y-75900500D01*
X126206814Y-75966392D01*
X126334108Y-76000500D01*
X126334110Y-76000500D01*
X126465890Y-76000500D01*
X126465892Y-76000500D01*
X126593186Y-75966392D01*
X126707314Y-75900500D01*
X126800500Y-75807314D01*
X126866392Y-75693186D01*
X126900500Y-75565892D01*
X126900500Y-75434108D01*
X126866392Y-75306814D01*
X126800500Y-75192686D01*
X126707314Y-75099500D01*
X126650250Y-75066554D01*
X126593187Y-75033608D01*
X126529539Y-75016554D01*
X126465892Y-74999500D01*
X126334108Y-74999500D01*
X126206812Y-75033608D01*
X126092686Y-75099500D01*
X126092683Y-75099502D01*
X125999502Y-75192683D01*
X125999500Y-75192686D01*
X125933608Y-75306812D01*
X125920076Y-75357316D01*
X125899500Y-75434108D01*
X125500500Y-75434108D01*
X125500500Y-70358676D01*
X125520185Y-70291637D01*
X125536819Y-70270995D01*
X125568159Y-70239655D01*
X125600500Y-70207314D01*
X125666392Y-70093186D01*
X125700500Y-69965892D01*
X125700500Y-69834108D01*
X125666392Y-69706814D01*
X125600500Y-69592686D01*
X125507314Y-69499500D01*
X125442451Y-69462051D01*
X125393187Y-69433608D01*
X125329539Y-69416554D01*
X125265892Y-69399500D01*
X125134108Y-69399500D01*
X125006814Y-69433608D01*
X125006813Y-69433608D01*
X125006811Y-69433609D01*
X125006810Y-69433609D01*
X124946500Y-69468430D01*
X124878600Y-69484903D01*
X124812573Y-69462051D01*
X124769383Y-69407130D01*
X124760500Y-69361043D01*
X124760500Y-66508439D01*
X124740020Y-66432009D01*
X124740017Y-66432004D01*
X124700464Y-66363495D01*
X124700458Y-66363487D01*
X119462819Y-61125848D01*
X119429334Y-61064525D01*
X119426500Y-61038167D01*
X119426500Y-55385258D01*
X122949500Y-55385258D01*
X122949500Y-55614741D01*
X122965451Y-55735891D01*
X122979452Y-55842238D01*
X123037934Y-56060497D01*
X123038842Y-56063887D01*
X123126650Y-56275876D01*
X123126657Y-56275890D01*
X123241392Y-56474617D01*
X123381081Y-56656661D01*
X123381089Y-56656670D01*
X123543330Y-56818911D01*
X123543338Y-56818918D01*
X123725382Y-56958607D01*
X123725385Y-56958608D01*
X123725388Y-56958611D01*
X123924112Y-57073344D01*
X123924117Y-57073346D01*
X123924123Y-57073349D01*
X124015480Y-57111190D01*
X124136113Y-57161158D01*
X124357762Y-57220548D01*
X124585266Y-57250500D01*
X124585273Y-57250500D01*
X124814727Y-57250500D01*
X124814734Y-57250500D01*
X125042238Y-57220548D01*
X125263887Y-57161158D01*
X125475888Y-57073344D01*
X125674612Y-56958611D01*
X125856661Y-56818919D01*
X125856665Y-56818914D01*
X125856670Y-56818911D01*
X126018911Y-56656670D01*
X126018914Y-56656665D01*
X126018919Y-56656661D01*
X126158611Y-56474612D01*
X126273344Y-56275888D01*
X126361158Y-56063887D01*
X126420548Y-55842238D01*
X126450500Y-55614734D01*
X126450500Y-55385266D01*
X126420548Y-55157762D01*
X126361158Y-54936113D01*
X126286760Y-54756500D01*
X126273349Y-54724123D01*
X126273346Y-54724117D01*
X126273344Y-54724112D01*
X126158611Y-54525388D01*
X126158608Y-54525385D01*
X126158607Y-54525382D01*
X126052277Y-54386812D01*
X126018919Y-54343339D01*
X126018918Y-54343338D01*
X126018911Y-54343330D01*
X125856670Y-54181089D01*
X125856661Y-54181081D01*
X125674617Y-54041392D01*
X125621110Y-54010500D01*
X125590620Y-53992896D01*
X125475890Y-53926657D01*
X125475876Y-53926650D01*
X125263887Y-53838842D01*
X125042238Y-53779452D01*
X125004215Y-53774446D01*
X124814741Y-53749500D01*
X124814734Y-53749500D01*
X124585266Y-53749500D01*
X124585258Y-53749500D01*
X124368715Y-53778009D01*
X124357762Y-53779452D01*
X124269185Y-53803186D01*
X124136112Y-53838842D01*
X123924123Y-53926650D01*
X123924109Y-53926657D01*
X123725382Y-54041392D01*
X123543338Y-54181081D01*
X123381081Y-54343338D01*
X123241392Y-54525382D01*
X123126657Y-54724109D01*
X123126650Y-54724123D01*
X123038842Y-54936112D01*
X122979453Y-55157759D01*
X122979451Y-55157770D01*
X122949500Y-55385258D01*
X119426500Y-55385258D01*
X119426500Y-54814676D01*
X119446185Y-54747637D01*
X119462819Y-54726995D01*
X119473924Y-54715890D01*
X119526500Y-54663314D01*
X119592392Y-54549186D01*
X119626500Y-54421892D01*
X119626500Y-54290108D01*
X119592392Y-54162814D01*
X119526500Y-54048686D01*
X119433314Y-53955500D01*
X119367174Y-53917314D01*
X119319187Y-53889608D01*
X119255539Y-53872554D01*
X119191892Y-53855500D01*
X119060108Y-53855500D01*
X118932812Y-53889608D01*
X118818686Y-53955500D01*
X118818683Y-53955502D01*
X118725502Y-54048683D01*
X118725500Y-54048686D01*
X118659608Y-54162812D01*
X118625500Y-54290108D01*
X118625500Y-54421891D01*
X118659608Y-54549187D01*
X118679770Y-54584108D01*
X118725500Y-54663314D01*
X118725502Y-54663316D01*
X118789181Y-54726995D01*
X118822666Y-54788318D01*
X118825500Y-54814676D01*
X118825500Y-61253562D01*
X118839152Y-61304513D01*
X118845979Y-61329990D01*
X118845982Y-61329995D01*
X118885535Y-61398504D01*
X118885541Y-61398512D01*
X124123181Y-66636152D01*
X124156666Y-66697475D01*
X124159500Y-66723833D01*
X124159500Y-69080261D01*
X124139815Y-69147300D01*
X124087011Y-69193055D01*
X124017853Y-69202999D01*
X123954297Y-69173974D01*
X123943715Y-69162744D01*
X119310512Y-64529541D01*
X119310504Y-64529535D01*
X119241995Y-64489982D01*
X119241990Y-64489979D01*
X119216513Y-64483152D01*
X119165562Y-64469500D01*
X119165560Y-64469500D01*
X116028676Y-64469500D01*
X115961637Y-64449815D01*
X115940995Y-64433181D01*
X115877316Y-64369502D01*
X115877314Y-64369500D01*
X115820250Y-64336554D01*
X115763187Y-64303608D01*
X115699539Y-64286554D01*
X115635892Y-64269500D01*
X115504108Y-64269500D01*
X115376812Y-64303608D01*
X115262686Y-64369500D01*
X115262683Y-64369502D01*
X115169502Y-64462683D01*
X115169500Y-64462686D01*
X115103608Y-64576812D01*
X115069500Y-64704108D01*
X115069500Y-64835891D01*
X115103608Y-64963187D01*
X115117701Y-64987596D01*
X115169500Y-65077314D01*
X115262686Y-65170500D01*
X115376814Y-65236392D01*
X115504108Y-65270500D01*
X115504110Y-65270500D01*
X115635890Y-65270500D01*
X115635892Y-65270500D01*
X115763186Y-65236392D01*
X115877314Y-65170500D01*
X115940995Y-65106819D01*
X116002318Y-65073334D01*
X116028676Y-65070500D01*
X118950167Y-65070500D01*
X119017206Y-65090185D01*
X119037848Y-65106819D01*
X123361181Y-69430152D01*
X123394666Y-69491475D01*
X123397500Y-69517833D01*
X123397500Y-70428341D01*
X123377815Y-70495380D01*
X123325011Y-70541135D01*
X123255853Y-70551079D01*
X123211500Y-70535728D01*
X123173189Y-70513609D01*
X123173186Y-70513608D01*
X123045892Y-70479500D01*
X122914108Y-70479500D01*
X122786812Y-70513608D01*
X122672686Y-70579500D01*
X122672683Y-70579502D01*
X122579502Y-70672683D01*
X122579500Y-70672686D01*
X122513608Y-70786814D01*
X122484381Y-70895891D01*
X122477941Y-70919927D01*
X122474781Y-70925111D01*
X122474348Y-70931167D01*
X122456809Y-70954595D01*
X122441576Y-70979587D01*
X122436114Y-70982240D01*
X122432476Y-70987100D01*
X122405056Y-70997327D01*
X122378729Y-71010116D01*
X122372700Y-71009395D01*
X122367012Y-71011517D01*
X122338412Y-71005295D01*
X122309353Y-71001821D01*
X122303154Y-70997625D01*
X122298739Y-70996665D01*
X122270485Y-70975514D01*
X122236819Y-70941848D01*
X122203334Y-70880525D01*
X122200500Y-70854167D01*
X122200500Y-70764110D01*
X122200500Y-70764108D01*
X122166392Y-70636814D01*
X122100500Y-70522686D01*
X122007314Y-70429500D01*
X121931927Y-70385975D01*
X121893187Y-70363608D01*
X121829539Y-70346554D01*
X121765892Y-70329500D01*
X121634108Y-70329500D01*
X121506812Y-70363608D01*
X121392686Y-70429500D01*
X121392683Y-70429502D01*
X121299502Y-70522683D01*
X121299500Y-70522686D01*
X121233608Y-70636812D01*
X121223997Y-70672683D01*
X121199500Y-70764108D01*
X121199500Y-70895892D01*
X121204381Y-70914108D01*
X121233608Y-71023187D01*
X121246717Y-71045892D01*
X121299500Y-71137314D01*
X121392686Y-71230500D01*
X121491090Y-71287314D01*
X121502712Y-71294024D01*
X121506814Y-71296392D01*
X121634108Y-71330500D01*
X121634110Y-71330500D01*
X121724167Y-71330500D01*
X121753607Y-71339144D01*
X121783594Y-71345668D01*
X121788609Y-71349422D01*
X121791206Y-71350185D01*
X121811848Y-71366819D01*
X121890487Y-71445458D01*
X121923972Y-71506781D01*
X121926806Y-71533139D01*
X121926806Y-77321203D01*
X121907121Y-77388242D01*
X121854317Y-77433997D01*
X121785159Y-77443941D01*
X121770714Y-77440978D01*
X121765199Y-77439500D01*
X121765198Y-77439500D01*
X121633414Y-77439500D01*
X121506118Y-77473608D01*
X121391992Y-77539500D01*
X121391989Y-77539502D01*
X121345311Y-77586181D01*
X121283988Y-77619666D01*
X121257630Y-77622500D01*
X120286021Y-77622500D01*
X120218982Y-77602815D01*
X120173227Y-77550011D01*
X120163283Y-77480853D01*
X120166242Y-77466423D01*
X120190500Y-77375892D01*
X120190500Y-77244108D01*
X120156392Y-77116814D01*
X120090500Y-77002686D01*
X119997314Y-76909500D01*
X119933769Y-76872812D01*
X119883187Y-76843608D01*
X119794142Y-76819749D01*
X119755892Y-76809500D01*
X119624108Y-76809500D01*
X119496812Y-76843608D01*
X119382686Y-76909500D01*
X119382683Y-76909502D01*
X119319005Y-76973181D01*
X119257682Y-77006666D01*
X119231324Y-77009500D01*
X118680438Y-77009500D01*
X118642224Y-77019739D01*
X118604009Y-77029979D01*
X118604004Y-77029982D01*
X118535495Y-77069535D01*
X118535487Y-77069541D01*
X118135541Y-77469487D01*
X118135535Y-77469495D01*
X118095982Y-77538004D01*
X118095979Y-77538009D01*
X118090221Y-77559500D01*
X118078615Y-77602815D01*
X118075500Y-77614439D01*
X118075500Y-79345875D01*
X118055815Y-79412914D01*
X118003011Y-79458669D01*
X117933853Y-79468613D01*
X117870297Y-79439588D01*
X117863819Y-79433556D01*
X115547465Y-77117202D01*
X115532761Y-77090274D01*
X115516169Y-77064456D01*
X115515277Y-77058255D01*
X115513980Y-77055879D01*
X115511146Y-77029521D01*
X115511146Y-77000108D01*
X116509500Y-77000108D01*
X116509500Y-77131892D01*
X116513103Y-77145339D01*
X116543608Y-77259187D01*
X116576554Y-77316250D01*
X116609500Y-77373314D01*
X116702686Y-77466500D01*
X116816814Y-77532392D01*
X116944108Y-77566500D01*
X116944110Y-77566500D01*
X117075890Y-77566500D01*
X117075892Y-77566500D01*
X117203186Y-77532392D01*
X117317314Y-77466500D01*
X117410500Y-77373314D01*
X117476392Y-77259186D01*
X117510500Y-77131892D01*
X117510500Y-77000108D01*
X117476392Y-76872814D01*
X117410500Y-76758686D01*
X117317314Y-76665500D01*
X117260250Y-76632554D01*
X117203187Y-76599608D01*
X117139539Y-76582554D01*
X117075892Y-76565500D01*
X116944108Y-76565500D01*
X116816812Y-76599608D01*
X116702686Y-76665500D01*
X116702683Y-76665502D01*
X116609502Y-76758683D01*
X116609500Y-76758686D01*
X116543608Y-76872812D01*
X116527890Y-76931475D01*
X116509500Y-77000108D01*
X115511146Y-77000108D01*
X115511146Y-76939464D01*
X115511146Y-76939462D01*
X115477038Y-76812168D01*
X115411146Y-76698040D01*
X115317960Y-76604854D01*
X115249797Y-76565500D01*
X115203833Y-76538962D01*
X115140185Y-76521908D01*
X115076538Y-76504854D01*
X114944754Y-76504854D01*
X114817458Y-76538962D01*
X114703332Y-76604854D01*
X114703329Y-76604856D01*
X114610148Y-76698037D01*
X114610141Y-76698046D01*
X114607804Y-76702095D01*
X114557234Y-76750307D01*
X114488626Y-76763526D01*
X114423763Y-76737554D01*
X114412740Y-76727769D01*
X106506819Y-68821848D01*
X106473334Y-68760525D01*
X106470500Y-68734167D01*
X106470500Y-68644110D01*
X106470500Y-68644108D01*
X106436392Y-68516814D01*
X106370500Y-68402686D01*
X106277314Y-68309500D01*
X106220250Y-68276554D01*
X106163187Y-68243608D01*
X106099539Y-68226554D01*
X106035892Y-68209500D01*
X105904108Y-68209500D01*
X105776812Y-68243608D01*
X105662686Y-68309500D01*
X105662683Y-68309502D01*
X105569502Y-68402683D01*
X105569500Y-68402686D01*
X105503608Y-68516812D01*
X105492071Y-68559870D01*
X105469500Y-68644108D01*
X100425154Y-68644108D01*
X100417598Y-68639059D01*
X100226420Y-68559870D01*
X100226412Y-68559868D01*
X100023469Y-68519500D01*
X100023465Y-68519500D01*
X99816535Y-68519500D01*
X99816530Y-68519500D01*
X99613587Y-68559868D01*
X99613579Y-68559870D01*
X99422403Y-68639058D01*
X99250342Y-68754024D01*
X99104024Y-68900342D01*
X98989058Y-69072403D01*
X98909870Y-69263579D01*
X98909868Y-69263587D01*
X98869500Y-69466530D01*
X97970500Y-69466530D01*
X97970500Y-66926530D01*
X98869500Y-66926530D01*
X98869500Y-67133469D01*
X98909868Y-67336412D01*
X98909870Y-67336420D01*
X98989058Y-67527596D01*
X99104024Y-67699657D01*
X99250342Y-67845975D01*
X99250345Y-67845977D01*
X99422402Y-67960941D01*
X99613580Y-68040130D01*
X99816530Y-68080499D01*
X99816534Y-68080500D01*
X99816535Y-68080500D01*
X100023466Y-68080500D01*
X100023467Y-68080499D01*
X100226420Y-68040130D01*
X100417598Y-67960941D01*
X100589655Y-67845977D01*
X100735977Y-67699655D01*
X100850941Y-67527598D01*
X100930130Y-67336420D01*
X100970500Y-67133465D01*
X100970500Y-66926535D01*
X100930130Y-66723580D01*
X100926207Y-66714108D01*
X104699500Y-66714108D01*
X104699500Y-66845891D01*
X104733608Y-66973187D01*
X104766554Y-67030250D01*
X104799500Y-67087314D01*
X104892686Y-67180500D01*
X105006814Y-67246392D01*
X105134108Y-67280500D01*
X105134110Y-67280500D01*
X105265890Y-67280500D01*
X105265892Y-67280500D01*
X105393186Y-67246392D01*
X105507314Y-67180500D01*
X105600500Y-67087314D01*
X105666392Y-66973186D01*
X105700500Y-66845892D01*
X105700500Y-66714108D01*
X105666392Y-66586814D01*
X105600500Y-66472686D01*
X105507314Y-66379500D01*
X105450250Y-66346554D01*
X105393187Y-66313608D01*
X105329539Y-66296554D01*
X105265892Y-66279500D01*
X105134108Y-66279500D01*
X105006812Y-66313608D01*
X104892686Y-66379500D01*
X104892683Y-66379502D01*
X104799502Y-66472683D01*
X104799500Y-66472686D01*
X104733608Y-66586812D01*
X104699500Y-66714108D01*
X100926207Y-66714108D01*
X100850941Y-66532402D01*
X100735977Y-66360345D01*
X100735975Y-66360342D01*
X100589657Y-66214024D01*
X100503626Y-66156541D01*
X100417598Y-66099059D01*
X100226420Y-66019870D01*
X100226412Y-66019868D01*
X100023469Y-65979500D01*
X100023465Y-65979500D01*
X99816535Y-65979500D01*
X99816530Y-65979500D01*
X99613587Y-66019868D01*
X99613579Y-66019870D01*
X99422403Y-66099058D01*
X99250342Y-66214024D01*
X99104024Y-66360342D01*
X98989058Y-66532403D01*
X98909870Y-66723579D01*
X98909868Y-66723587D01*
X98869500Y-66926530D01*
X97970500Y-66926530D01*
X97970500Y-64386530D01*
X98869500Y-64386530D01*
X98869500Y-64593469D01*
X98909868Y-64796412D01*
X98909870Y-64796420D01*
X98989058Y-64987596D01*
X99104024Y-65159657D01*
X99250342Y-65305975D01*
X99250345Y-65305977D01*
X99422402Y-65420941D01*
X99613580Y-65500130D01*
X99816530Y-65540499D01*
X99816534Y-65540500D01*
X99816535Y-65540500D01*
X100023466Y-65540500D01*
X100023467Y-65540499D01*
X100226420Y-65500130D01*
X100417598Y-65420941D01*
X100589655Y-65305977D01*
X100735977Y-65159655D01*
X100850941Y-64987598D01*
X100930130Y-64796420D01*
X100970500Y-64593465D01*
X100970500Y-64386535D01*
X100930130Y-64183580D01*
X100850941Y-63992402D01*
X100735977Y-63820345D01*
X100735975Y-63820342D01*
X100589657Y-63674024D01*
X100503626Y-63616541D01*
X100417598Y-63559059D01*
X100226420Y-63479870D01*
X100226412Y-63479868D01*
X100023469Y-63439500D01*
X100023465Y-63439500D01*
X99816535Y-63439500D01*
X99816530Y-63439500D01*
X99613587Y-63479868D01*
X99613579Y-63479870D01*
X99422403Y-63559058D01*
X99250342Y-63674024D01*
X99104024Y-63820342D01*
X98989058Y-63992403D01*
X98909870Y-64183579D01*
X98909868Y-64183587D01*
X98869500Y-64386530D01*
X97970500Y-64386530D01*
X97970500Y-61080247D01*
X98869500Y-61080247D01*
X98869500Y-62819752D01*
X98881131Y-62878229D01*
X98881132Y-62878230D01*
X98925447Y-62944552D01*
X98991769Y-62988867D01*
X98991770Y-62988868D01*
X99050247Y-63000499D01*
X99050250Y-63000500D01*
X99050252Y-63000500D01*
X100789750Y-63000500D01*
X100789751Y-63000499D01*
X100804568Y-62997552D01*
X100848229Y-62988868D01*
X100848229Y-62988867D01*
X100848231Y-62988867D01*
X100914552Y-62944552D01*
X100958867Y-62878231D01*
X100958867Y-62878229D01*
X100958868Y-62878229D01*
X100970499Y-62819752D01*
X100970500Y-62819750D01*
X100970500Y-62704108D01*
X110449500Y-62704108D01*
X110449500Y-62835891D01*
X110483608Y-62963187D01*
X110505151Y-63000499D01*
X110549500Y-63077314D01*
X110642686Y-63170500D01*
X110756814Y-63236392D01*
X110884108Y-63270500D01*
X110884110Y-63270500D01*
X111015890Y-63270500D01*
X111015892Y-63270500D01*
X111143186Y-63236392D01*
X111257314Y-63170500D01*
X111350500Y-63077314D01*
X111416392Y-62963186D01*
X111450500Y-62835892D01*
X111450500Y-62704108D01*
X111416392Y-62576814D01*
X111350500Y-62462686D01*
X111257314Y-62369500D01*
X111200250Y-62336554D01*
X111143187Y-62303608D01*
X111079539Y-62286554D01*
X111015892Y-62269500D01*
X110884108Y-62269500D01*
X110756812Y-62303608D01*
X110642686Y-62369500D01*
X110642683Y-62369502D01*
X110549502Y-62462683D01*
X110549500Y-62462686D01*
X110483608Y-62576812D01*
X110449500Y-62704108D01*
X100970500Y-62704108D01*
X100970500Y-61080249D01*
X100970499Y-61080247D01*
X100958868Y-61021770D01*
X100958867Y-61021769D01*
X100914552Y-60955447D01*
X100848230Y-60911132D01*
X100848229Y-60911131D01*
X100789752Y-60899500D01*
X100789748Y-60899500D01*
X99050252Y-60899500D01*
X99050247Y-60899500D01*
X98991770Y-60911131D01*
X98991769Y-60911132D01*
X98925447Y-60955447D01*
X98881132Y-61021769D01*
X98881131Y-61021770D01*
X98869500Y-61080247D01*
X97970500Y-61080247D01*
X97970500Y-58344108D01*
X115599500Y-58344108D01*
X115599500Y-58475891D01*
X115633608Y-58603187D01*
X115666554Y-58660250D01*
X115699500Y-58717314D01*
X115792686Y-58810500D01*
X115906814Y-58876392D01*
X116034108Y-58910500D01*
X116034110Y-58910500D01*
X116165890Y-58910500D01*
X116165892Y-58910500D01*
X116293186Y-58876392D01*
X116407314Y-58810500D01*
X116500500Y-58717314D01*
X116566392Y-58603186D01*
X116600500Y-58475892D01*
X116600500Y-58344108D01*
X116566392Y-58216814D01*
X116500500Y-58102686D01*
X116407314Y-58009500D01*
X116350250Y-57976554D01*
X116293187Y-57943608D01*
X116229539Y-57926554D01*
X116165892Y-57909500D01*
X116034108Y-57909500D01*
X115906812Y-57943608D01*
X115792686Y-58009500D01*
X115792683Y-58009502D01*
X115699502Y-58102683D01*
X115699500Y-58102686D01*
X115633608Y-58216812D01*
X115599500Y-58344108D01*
X97970500Y-58344108D01*
X97970500Y-55385258D01*
X98949500Y-55385258D01*
X98949500Y-55614741D01*
X98965451Y-55735891D01*
X98979452Y-55842238D01*
X99037934Y-56060497D01*
X99038842Y-56063887D01*
X99126650Y-56275876D01*
X99126657Y-56275890D01*
X99241392Y-56474617D01*
X99381081Y-56656661D01*
X99381089Y-56656670D01*
X99543330Y-56818911D01*
X99543338Y-56818918D01*
X99725382Y-56958607D01*
X99725385Y-56958608D01*
X99725388Y-56958611D01*
X99924112Y-57073344D01*
X99924117Y-57073346D01*
X99924123Y-57073349D01*
X100015480Y-57111190D01*
X100136113Y-57161158D01*
X100357762Y-57220548D01*
X100585266Y-57250500D01*
X100585273Y-57250500D01*
X100814727Y-57250500D01*
X100814734Y-57250500D01*
X101042238Y-57220548D01*
X101263887Y-57161158D01*
X101475888Y-57073344D01*
X101674612Y-56958611D01*
X101856661Y-56818919D01*
X101856665Y-56818914D01*
X101856670Y-56818911D01*
X102018911Y-56656670D01*
X102018914Y-56656665D01*
X102018919Y-56656661D01*
X102158611Y-56474612D01*
X102273344Y-56275888D01*
X102361158Y-56063887D01*
X102420548Y-55842238D01*
X102450500Y-55614734D01*
X102450500Y-55385266D01*
X102420548Y-55157762D01*
X102361158Y-54936113D01*
X102286760Y-54756500D01*
X102273349Y-54724123D01*
X102273346Y-54724117D01*
X102273344Y-54724112D01*
X102192513Y-54584108D01*
X107339500Y-54584108D01*
X107339500Y-54715892D01*
X107344859Y-54735891D01*
X107373608Y-54843187D01*
X107406554Y-54900250D01*
X107439500Y-54957314D01*
X107532686Y-55050500D01*
X107546345Y-55058386D01*
X107594561Y-55108953D01*
X107607784Y-55177560D01*
X107581816Y-55242425D01*
X107558004Y-55263079D01*
X107559135Y-55264552D01*
X107552683Y-55269502D01*
X107459502Y-55362683D01*
X107459500Y-55362686D01*
X107393608Y-55476812D01*
X107359500Y-55604108D01*
X107359500Y-55735891D01*
X107393608Y-55863187D01*
X107426554Y-55920250D01*
X107459500Y-55977314D01*
X107552686Y-56070500D01*
X107666814Y-56136392D01*
X107789799Y-56169345D01*
X107849457Y-56205709D01*
X107879987Y-56268555D01*
X107871693Y-56337931D01*
X107845386Y-56376800D01*
X107779500Y-56442686D01*
X107713608Y-56556812D01*
X107679500Y-56684108D01*
X107679500Y-56815891D01*
X107713608Y-56943187D01*
X107746554Y-57000250D01*
X107779500Y-57057314D01*
X107872686Y-57150500D01*
X107872689Y-57150502D01*
X107879135Y-57155448D01*
X107878140Y-57156744D01*
X107919788Y-57200416D01*
X107933017Y-57269022D01*
X107907054Y-57333889D01*
X107897261Y-57344924D01*
X107889504Y-57352681D01*
X107889500Y-57352686D01*
X107823608Y-57466812D01*
X107789500Y-57594108D01*
X107789500Y-57725892D01*
X107806554Y-57789539D01*
X107823608Y-57853187D01*
X107829382Y-57863187D01*
X107889500Y-57967314D01*
X107982686Y-58060500D01*
X108096814Y-58126392D01*
X108224108Y-58160500D01*
X108224110Y-58160500D01*
X108355890Y-58160500D01*
X108355892Y-58160500D01*
X108483186Y-58126392D01*
X108597314Y-58060500D01*
X108690500Y-57967314D01*
X108756392Y-57853186D01*
X108790500Y-57725892D01*
X108790500Y-57604108D01*
X109079500Y-57604108D01*
X109079500Y-57735891D01*
X109113608Y-57863187D01*
X109140347Y-57909500D01*
X109179500Y-57977314D01*
X109272686Y-58070500D01*
X109386814Y-58136392D01*
X109514108Y-58170500D01*
X109514110Y-58170500D01*
X109645890Y-58170500D01*
X109645892Y-58170500D01*
X109773186Y-58136392D01*
X109887314Y-58070500D01*
X109980500Y-57977314D01*
X110046392Y-57863186D01*
X110080500Y-57735892D01*
X110080500Y-57604108D01*
X110046392Y-57476814D01*
X110040618Y-57466814D01*
X110037563Y-57461521D01*
X109980500Y-57362686D01*
X109963722Y-57345908D01*
X109930237Y-57284585D01*
X109935221Y-57214893D01*
X109977093Y-57158960D01*
X109989391Y-57150847D01*
X110007314Y-57140500D01*
X110100500Y-57047314D01*
X110166392Y-56933186D01*
X110200500Y-56805892D01*
X110200500Y-56674108D01*
X110166392Y-56546814D01*
X110100500Y-56432686D01*
X110039569Y-56371755D01*
X110006084Y-56310432D01*
X110011068Y-56240740D01*
X110052940Y-56184807D01*
X110111068Y-56161134D01*
X110115881Y-56160500D01*
X110115892Y-56160500D01*
X110243186Y-56126392D01*
X110357314Y-56060500D01*
X110450500Y-55967314D01*
X110516392Y-55853186D01*
X110550500Y-55725892D01*
X110550500Y-55594108D01*
X110516392Y-55466814D01*
X110450500Y-55352686D01*
X110362741Y-55264927D01*
X110329256Y-55203604D01*
X110334240Y-55133912D01*
X110376112Y-55077979D01*
X110386464Y-55071151D01*
X110387306Y-55070504D01*
X110387314Y-55070500D01*
X110480500Y-54977314D01*
X110546392Y-54863186D01*
X110580500Y-54735892D01*
X110580500Y-54604108D01*
X110556385Y-54514108D01*
X113339500Y-54514108D01*
X113339500Y-54645891D01*
X113373608Y-54773187D01*
X113382344Y-54788318D01*
X113439500Y-54887314D01*
X113532686Y-54980500D01*
X113631521Y-55037563D01*
X113640507Y-55042751D01*
X113646814Y-55046392D01*
X113774108Y-55080500D01*
X113774110Y-55080500D01*
X113905890Y-55080500D01*
X113905892Y-55080500D01*
X114033186Y-55046392D01*
X114147314Y-54980500D01*
X114240500Y-54887314D01*
X114306392Y-54773186D01*
X114340500Y-54645892D01*
X114340500Y-54514108D01*
X114306392Y-54386814D01*
X114240500Y-54272686D01*
X114147314Y-54179500D01*
X114084311Y-54143125D01*
X114033187Y-54113608D01*
X113951554Y-54091735D01*
X113905892Y-54079500D01*
X113774108Y-54079500D01*
X113646812Y-54113608D01*
X113532686Y-54179500D01*
X113532683Y-54179502D01*
X113439502Y-54272683D01*
X113439500Y-54272686D01*
X113373608Y-54386812D01*
X113339500Y-54514108D01*
X110556385Y-54514108D01*
X110546392Y-54476814D01*
X110480500Y-54362686D01*
X110387314Y-54269500D01*
X110364011Y-54256045D01*
X110315797Y-54205480D01*
X110302575Y-54136872D01*
X110328543Y-54072008D01*
X110364011Y-54041274D01*
X110417314Y-54010500D01*
X110510500Y-53917314D01*
X110576392Y-53803186D01*
X110610500Y-53675892D01*
X110610500Y-53544108D01*
X110576392Y-53416814D01*
X110510500Y-53302686D01*
X110417314Y-53209500D01*
X110330712Y-53159500D01*
X110303187Y-53143608D01*
X110239539Y-53126554D01*
X110175892Y-53109500D01*
X110044108Y-53109500D01*
X109916812Y-53143608D01*
X109802686Y-53209500D01*
X109802683Y-53209502D01*
X109709502Y-53302683D01*
X109709500Y-53302686D01*
X109643608Y-53416812D01*
X109609500Y-53544108D01*
X109609500Y-53675891D01*
X109643608Y-53803187D01*
X109664194Y-53838842D01*
X109709500Y-53917314D01*
X109802686Y-54010500D01*
X109825986Y-54023952D01*
X109874201Y-54074518D01*
X109887425Y-54143125D01*
X109861457Y-54207990D01*
X109825988Y-54238725D01*
X109772689Y-54269498D01*
X109772683Y-54269502D01*
X109679502Y-54362683D01*
X109679500Y-54362686D01*
X109613608Y-54476812D01*
X109579500Y-54604108D01*
X109579500Y-54735891D01*
X109613608Y-54863187D01*
X109627538Y-54887314D01*
X109679500Y-54977314D01*
X109679502Y-54977316D01*
X109767258Y-55065072D01*
X109800743Y-55126395D01*
X109795759Y-55196087D01*
X109753887Y-55252020D01*
X109743536Y-55258847D01*
X109742683Y-55259502D01*
X109649502Y-55352683D01*
X109649500Y-55352686D01*
X109583608Y-55466812D01*
X109549500Y-55594108D01*
X109549500Y-55725892D01*
X109566554Y-55789539D01*
X109583608Y-55853187D01*
X109589382Y-55863187D01*
X109649500Y-55967314D01*
X109649502Y-55967316D01*
X109710430Y-56028244D01*
X109743915Y-56089567D01*
X109738931Y-56159259D01*
X109697059Y-56215192D01*
X109638942Y-56238863D01*
X109634112Y-56239499D01*
X109506812Y-56273608D01*
X109392686Y-56339500D01*
X109392683Y-56339502D01*
X109299502Y-56432683D01*
X109299500Y-56432686D01*
X109233608Y-56546812D01*
X109204175Y-56656661D01*
X109199500Y-56674108D01*
X109199500Y-56805892D01*
X109202990Y-56818918D01*
X109233608Y-56933187D01*
X109239382Y-56943187D01*
X109299500Y-57047314D01*
X109299502Y-57047316D01*
X109316277Y-57064091D01*
X109349762Y-57125414D01*
X109344778Y-57195106D01*
X109302906Y-57251039D01*
X109290598Y-57259158D01*
X109272689Y-57269497D01*
X109272683Y-57269502D01*
X109179502Y-57362683D01*
X109179500Y-57362686D01*
X109113608Y-57476812D01*
X109079500Y-57604108D01*
X108790500Y-57604108D01*
X108790500Y-57594108D01*
X108756392Y-57466814D01*
X108690500Y-57352686D01*
X108597314Y-57259500D01*
X108597311Y-57259498D01*
X108590865Y-57254552D01*
X108591859Y-57253255D01*
X108550208Y-57209577D01*
X108536983Y-57140970D01*
X108562949Y-57076105D01*
X108572736Y-57065077D01*
X108580500Y-57057314D01*
X108646392Y-56943186D01*
X108680500Y-56815892D01*
X108680500Y-56684108D01*
X108646392Y-56556814D01*
X108640618Y-56546814D01*
X108598935Y-56474617D01*
X108580500Y-56442686D01*
X108487314Y-56349500D01*
X108430250Y-56316554D01*
X108373187Y-56283608D01*
X108294334Y-56262480D01*
X108250201Y-56250654D01*
X108190541Y-56214290D01*
X108160012Y-56151443D01*
X108168307Y-56082067D01*
X108194609Y-56043204D01*
X108260500Y-55977314D01*
X108326392Y-55863186D01*
X108360500Y-55735892D01*
X108360500Y-55604108D01*
X108326392Y-55476814D01*
X108320618Y-55466814D01*
X108317563Y-55461521D01*
X108260500Y-55362686D01*
X108167314Y-55269500D01*
X108153652Y-55261612D01*
X108105438Y-55211044D01*
X108092216Y-55142437D01*
X108118185Y-55077573D01*
X108142010Y-55056940D01*
X108140865Y-55055448D01*
X108147306Y-55050504D01*
X108147314Y-55050500D01*
X108240500Y-54957314D01*
X108306392Y-54843186D01*
X108340500Y-54715892D01*
X108340500Y-54584108D01*
X108306392Y-54456814D01*
X108240500Y-54342686D01*
X108152741Y-54254927D01*
X108119256Y-54193604D01*
X108124240Y-54123912D01*
X108166112Y-54067979D01*
X108176464Y-54061151D01*
X108177306Y-54060504D01*
X108177314Y-54060500D01*
X108270500Y-53967314D01*
X108336392Y-53853186D01*
X108370500Y-53725892D01*
X108370500Y-53594108D01*
X108336392Y-53466814D01*
X108270500Y-53352686D01*
X108177314Y-53259500D01*
X108111269Y-53221369D01*
X108063187Y-53193608D01*
X107999539Y-53176554D01*
X107935892Y-53159500D01*
X107804108Y-53159500D01*
X107676812Y-53193608D01*
X107562686Y-53259500D01*
X107562683Y-53259502D01*
X107469502Y-53352683D01*
X107469500Y-53352686D01*
X107403608Y-53466812D01*
X107382897Y-53544108D01*
X107369500Y-53594108D01*
X107369500Y-53725892D01*
X107386554Y-53789539D01*
X107403608Y-53853187D01*
X107424636Y-53889608D01*
X107469500Y-53967314D01*
X107469502Y-53967316D01*
X107557258Y-54055072D01*
X107590743Y-54116395D01*
X107585759Y-54186087D01*
X107543887Y-54242020D01*
X107533536Y-54248847D01*
X107532683Y-54249502D01*
X107439502Y-54342683D01*
X107439500Y-54342686D01*
X107373608Y-54456812D01*
X107348857Y-54549186D01*
X107339500Y-54584108D01*
X102192513Y-54584108D01*
X102158611Y-54525388D01*
X102158608Y-54525385D01*
X102158607Y-54525382D01*
X102052277Y-54386812D01*
X102018919Y-54343339D01*
X102018918Y-54343338D01*
X102018911Y-54343330D01*
X101856670Y-54181089D01*
X101856661Y-54181081D01*
X101674617Y-54041392D01*
X101621110Y-54010500D01*
X101590620Y-53992896D01*
X101475890Y-53926657D01*
X101475876Y-53926650D01*
X101263887Y-53838842D01*
X101042238Y-53779452D01*
X101004215Y-53774446D01*
X100814741Y-53749500D01*
X100814734Y-53749500D01*
X100585266Y-53749500D01*
X100585258Y-53749500D01*
X100368715Y-53778009D01*
X100357762Y-53779452D01*
X100269185Y-53803186D01*
X100136112Y-53838842D01*
X99924123Y-53926650D01*
X99924109Y-53926657D01*
X99725382Y-54041392D01*
X99543338Y-54181081D01*
X99381081Y-54343338D01*
X99241392Y-54525382D01*
X99126657Y-54724109D01*
X99126650Y-54724123D01*
X99038842Y-54936112D01*
X98979453Y-55157759D01*
X98979451Y-55157770D01*
X98949500Y-55385258D01*
X97970500Y-55385258D01*
X97970500Y-55203750D01*
X97970726Y-55196263D01*
X97973982Y-55142437D01*
X97987542Y-54918256D01*
X97989347Y-54903394D01*
X97992294Y-54887316D01*
X98038874Y-54633130D01*
X98042452Y-54618616D01*
X98124202Y-54356268D01*
X98129499Y-54342302D01*
X98242276Y-54091722D01*
X98249221Y-54078489D01*
X98391378Y-53843333D01*
X98399865Y-53831037D01*
X98569331Y-53614729D01*
X98579246Y-53603538D01*
X98773538Y-53409246D01*
X98784729Y-53399331D01*
X99001037Y-53229865D01*
X99013333Y-53221378D01*
X99248489Y-53079221D01*
X99261722Y-53072276D01*
X99512302Y-52959499D01*
X99526268Y-52954202D01*
X99788616Y-52872452D01*
X99803130Y-52868874D01*
X100073398Y-52819346D01*
X100088256Y-52817542D01*
X100366265Y-52800726D01*
X100373752Y-52800500D01*
X100417595Y-52800500D01*
X124922405Y-52800500D01*
X124966249Y-52800500D01*
X124973736Y-52800726D01*
G37*
%TD.AperFunction*%
%TD*%
M02*
