%TF.GenerationSoftware,KiCad,Pcbnew,9.0.2*%
%TF.CreationDate,2025-06-24T12:42:33-05:00*%
%TF.ProjectId,Flight Computer,466c6967-6874-4204-936f-6d7075746572,rev?*%
%TF.SameCoordinates,Original*%
%TF.FileFunction,Soldermask,Bot*%
%TF.FilePolarity,Negative*%
%FSLAX46Y46*%
G04 Gerber Fmt 4.6, Leading zero omitted, Abs format (unit mm)*
G04 Created by KiCad (PCBNEW 9.0.2) date 2025-06-24 12:42:33*
%MOMM*%
%LPD*%
G01*
G04 APERTURE LIST*
G04 Aperture macros list*
%AMRoundRect*
0 Rectangle with rounded corners*
0 $1 Rounding radius*
0 $2 $3 $4 $5 $6 $7 $8 $9 X,Y pos of 4 corners*
0 Add a 4 corners polygon primitive as box body*
4,1,4,$2,$3,$4,$5,$6,$7,$8,$9,$2,$3,0*
0 Add four circle primitives for the rounded corners*
1,1,$1+$1,$2,$3*
1,1,$1+$1,$4,$5*
1,1,$1+$1,$6,$7*
1,1,$1+$1,$8,$9*
0 Add four rect primitives between the rounded corners*
20,1,$1+$1,$2,$3,$4,$5,0*
20,1,$1+$1,$4,$5,$6,$7,0*
20,1,$1+$1,$6,$7,$8,$9,0*
20,1,$1+$1,$8,$9,$2,$3,0*%
G04 Aperture macros list end*
%ADD10C,3.201600*%
%ADD11C,5.501600*%
%ADD12RoundRect,0.261545X-0.889255X0.889255X-0.889255X-0.889255X0.889255X-0.889255X0.889255X0.889255X0*%
%ADD13C,2.301600*%
%ADD14RoundRect,0.050800X-0.850000X-0.850000X0.850000X-0.850000X0.850000X0.850000X-0.850000X0.850000X0*%
%ADD15C,1.801600*%
%ADD16C,0.751600*%
%ADD17O,2.201600X1.101600*%
%ADD18O,1.901600X1.101600*%
%ADD19RoundRect,0.261545X0.889255X-0.889255X0.889255X0.889255X-0.889255X0.889255X-0.889255X-0.889255X0*%
%ADD20RoundRect,0.202740X-0.473060X-1.348060X0.473060X-1.348060X0.473060X1.348060X-0.473060X1.348060X0*%
%ADD21RoundRect,0.262900X-0.044194X-0.415991X0.415991X0.044194X0.044194X0.415991X-0.415991X-0.044194X0*%
%ADD22RoundRect,0.202740X1.348060X-0.473060X1.348060X0.473060X-1.348060X0.473060X-1.348060X-0.473060X0*%
%ADD23RoundRect,0.262900X0.262900X-0.275400X0.262900X0.275400X-0.262900X0.275400X-0.262900X-0.275400X0*%
%ADD24RoundRect,0.262900X-0.415991X0.044194X0.044194X-0.415991X0.415991X-0.044194X-0.044194X0.415991X0*%
%ADD25RoundRect,0.175400X0.309359X0.557412X-0.557412X-0.309359X-0.309359X-0.557412X0.557412X0.309359X0*%
%ADD26RoundRect,0.262900X0.275400X0.262900X-0.275400X0.262900X-0.275400X-0.262900X0.275400X-0.262900X0*%
%ADD27RoundRect,0.225400X0.371797X0.053033X0.053033X0.371797X-0.371797X-0.053033X-0.053033X-0.371797X0*%
%ADD28RoundRect,0.262900X-0.262900X0.325400X-0.262900X-0.325400X0.262900X-0.325400X0.262900X0.325400X0*%
%ADD29RoundRect,0.225400X-0.225400X-0.300400X0.225400X-0.300400X0.225400X0.300400X-0.225400X0.300400X0*%
%ADD30RoundRect,0.102000X0.530330X-0.813173X0.813173X-0.530330X-0.530330X0.813173X-0.813173X0.530330X0*%
%ADD31RoundRect,0.250400X0.250400X0.275400X-0.250400X0.275400X-0.250400X-0.275400X0.250400X-0.275400X0*%
%ADD32RoundRect,0.175400X0.612900X0.175400X-0.612900X0.175400X-0.612900X-0.175400X0.612900X-0.175400X0*%
%ADD33RoundRect,0.342900X0.342900X-1.182900X0.342900X1.182900X-0.342900X1.182900X-0.342900X-1.182900X0*%
%ADD34RoundRect,0.262900X-0.262900X0.275400X-0.262900X-0.275400X0.262900X-0.275400X0.262900X0.275400X0*%
%ADD35RoundRect,0.262900X0.008839X0.380636X-0.380636X-0.008839X-0.008839X-0.380636X0.380636X0.008839X0*%
%ADD36RoundRect,0.262900X0.044194X0.415991X-0.415991X-0.044194X-0.044194X-0.415991X0.415991X0.044194X0*%
%ADD37RoundRect,0.225400X0.225400X0.300400X-0.225400X0.300400X-0.225400X-0.300400X0.225400X-0.300400X0*%
%ADD38RoundRect,0.100400X0.583929X-0.441942X-0.441942X0.583929X-0.583929X0.441942X0.441942X-0.583929X0*%
%ADD39RoundRect,0.100400X0.583929X0.441942X0.441942X0.583929X-0.583929X-0.441942X-0.441942X-0.583929X0*%
%ADD40RoundRect,0.270000X-0.415800X-1.380800X0.415800X-1.380800X0.415800X1.380800X-0.415800X1.380800X0*%
%ADD41RoundRect,0.268815X-0.456985X-1.631985X0.456985X-1.631985X0.456985X1.631985X-0.456985X1.631985X0*%
%ADD42RoundRect,0.400400X0.650400X0.400400X-0.650400X0.400400X-0.650400X-0.400400X0.650400X-0.400400X0*%
%ADD43RoundRect,0.525400X0.525400X1.425400X-0.525400X1.425400X-0.525400X-1.425400X0.525400X-1.425400X0*%
%ADD44RoundRect,0.262900X0.325400X0.262900X-0.325400X0.262900X-0.325400X-0.262900X0.325400X-0.262900X0*%
%ADD45RoundRect,0.175400X-0.612900X-0.175400X0.612900X-0.175400X0.612900X0.175400X-0.612900X0.175400X0*%
G04 APERTURE END LIST*
D10*
%TO.C,H504*%
X124700000Y-109500000D03*
D11*
X124700000Y-109500000D03*
%TD*%
D10*
%TO.C,H501*%
X100700000Y-55500000D03*
D11*
X100700000Y-55500000D03*
%TD*%
D12*
%TO.C,J504*%
X101640000Y-96580000D03*
D13*
X101640000Y-99120000D03*
X101640000Y-101659999D03*
X101640000Y-104200000D03*
%TD*%
D14*
%TO.C,J507*%
X99920000Y-61950000D03*
D15*
X99920000Y-64490000D03*
X99920000Y-67030000D03*
X99920000Y-69570000D03*
X99920000Y-72110000D03*
%TD*%
D16*
%TO.C,J502*%
X103955000Y-77320000D03*
X103955000Y-83100000D03*
D17*
X104455000Y-75890000D03*
D18*
X100275000Y-75890000D03*
D17*
X104455000Y-84530000D03*
D18*
X100275000Y-84530000D03*
%TD*%
D19*
%TO.C,J503*%
X123700000Y-104200000D03*
D13*
X123700000Y-101660000D03*
X123700000Y-99120001D03*
X123700000Y-96580000D03*
X123700000Y-94040000D03*
X123700000Y-91500000D03*
%TD*%
D10*
%TO.C,H503*%
X100700000Y-109500000D03*
D11*
X100700000Y-109500000D03*
%TD*%
D20*
%TO.C,J506*%
X120550000Y-54350000D03*
X118010000Y-54350000D03*
X115470000Y-54350000D03*
%TD*%
D10*
%TO.C,H502*%
X124700000Y-55500000D03*
D11*
X124700000Y-55500000D03*
%TD*%
D21*
%TO.C,C302*%
X120420000Y-84610000D03*
X121639760Y-83390240D03*
%TD*%
%TO.C,C303*%
X120650120Y-90279880D03*
X121869880Y-89060120D03*
%TD*%
D22*
%TO.C,J501*%
X125560000Y-84120000D03*
X125560000Y-81580000D03*
X125560000Y-79040001D03*
%TD*%
D23*
%TO.C,R401*%
X106230000Y-66772500D03*
X106230000Y-64947500D03*
%TD*%
D21*
%TO.C,C308*%
X120490120Y-86749880D03*
X121709880Y-85530120D03*
%TD*%
D24*
%TO.C,C304*%
X116440120Y-94560120D03*
X117659880Y-95779880D03*
%TD*%
D25*
%TO.C,Q702*%
X112650000Y-98180000D03*
X113993503Y-99523503D03*
X111995926Y-100177577D03*
%TD*%
D26*
%TO.C,R501*%
X101690000Y-81960000D03*
X99865000Y-81960000D03*
%TD*%
D27*
%TO.C,R709*%
X115313363Y-97843363D03*
X114146637Y-96676637D03*
%TD*%
D28*
%TO.C,C201*%
X118150000Y-108497499D03*
X118150000Y-110222501D03*
%TD*%
D29*
%TO.C,R705*%
X119390000Y-103240000D03*
X121040000Y-103240000D03*
%TD*%
D26*
%TO.C,R502*%
X101712500Y-78960000D03*
X99887500Y-78960000D03*
%TD*%
D30*
%TO.C,Y301*%
X118302944Y-93697056D03*
X119151472Y-92848528D03*
X120000000Y-92000000D03*
%TD*%
D31*
%TO.C,C601*%
X116900000Y-57580000D03*
X115350000Y-57580000D03*
%TD*%
D24*
%TO.C,C309*%
X105050000Y-91220000D03*
X106269760Y-92439760D03*
%TD*%
D32*
%TO.C,D501*%
X100920000Y-89830000D03*
X100920000Y-91730000D03*
X99044999Y-90780000D03*
%TD*%
D33*
%TO.C,U601*%
X123010000Y-75290000D03*
X121009999Y-75290000D03*
X119010000Y-75290000D03*
X117010000Y-75290000D03*
X115010000Y-75290000D03*
X113010000Y-75290000D03*
X111010001Y-75290000D03*
X109010000Y-75290000D03*
X109010000Y-60240000D03*
X111010001Y-60240000D03*
X113010000Y-60240000D03*
X115010000Y-60240000D03*
X117010000Y-60240000D03*
X119010000Y-60240000D03*
X121009999Y-60240000D03*
X123010000Y-60240000D03*
%TD*%
D34*
%TO.C,R302*%
X125550000Y-85810000D03*
X125550000Y-87635000D03*
%TD*%
D35*
%TO.C,R303*%
X118245235Y-79534765D03*
X116954765Y-80825235D03*
%TD*%
D36*
%TO.C,C306*%
X104789880Y-88450120D03*
X103570120Y-89669880D03*
%TD*%
D37*
%TO.C,R702*%
X121030000Y-101660000D03*
X119380000Y-101660000D03*
%TD*%
D36*
%TO.C,C305*%
X109259880Y-94900120D03*
X108040120Y-96119880D03*
%TD*%
D38*
%TO.C,U302*%
X119315533Y-88954467D03*
X118961980Y-89308020D03*
X118608427Y-89661573D03*
X118254873Y-90015127D03*
X117901320Y-90368680D03*
X117547766Y-90722234D03*
X117194213Y-91075787D03*
X116840660Y-91429340D03*
X116487106Y-91782894D03*
X116133553Y-92136447D03*
X115780000Y-92490000D03*
X115426446Y-92843554D03*
X115072893Y-93197107D03*
X114719339Y-93550661D03*
X114365786Y-93904214D03*
X114012233Y-94257767D03*
D39*
X111289871Y-94257767D03*
X110936318Y-93904214D03*
X110582765Y-93550661D03*
X110229211Y-93197107D03*
X109875658Y-92843554D03*
X109522104Y-92490000D03*
X109168551Y-92136447D03*
X108814998Y-91782894D03*
X108461444Y-91429340D03*
X108107891Y-91075787D03*
X107754338Y-90722234D03*
X107400784Y-90368680D03*
X107047231Y-90015127D03*
X106693677Y-89661573D03*
X106340124Y-89308020D03*
X105986571Y-88954467D03*
D38*
X105986571Y-86232105D03*
X106340124Y-85878552D03*
X106693677Y-85524999D03*
X107047231Y-85171445D03*
X107400784Y-84817892D03*
X107754338Y-84464338D03*
X108107891Y-84110785D03*
X108461444Y-83757232D03*
X108814998Y-83403678D03*
X109168551Y-83050125D03*
X109522104Y-82696572D03*
X109875658Y-82343018D03*
X110229211Y-81989465D03*
X110582765Y-81635911D03*
X110936318Y-81282358D03*
X111289871Y-80928805D03*
D39*
X114012233Y-80928805D03*
X114365786Y-81282358D03*
X114719339Y-81635911D03*
X115072893Y-81989465D03*
X115426446Y-82343018D03*
X115780000Y-82696572D03*
X116133553Y-83050125D03*
X116487106Y-83403678D03*
X116840660Y-83757232D03*
X117194213Y-84110785D03*
X117547766Y-84464338D03*
X117901320Y-84817892D03*
X118254873Y-85171445D03*
X118608427Y-85524999D03*
X118961980Y-85878552D03*
X119315533Y-86232105D03*
%TD*%
D40*
%TO.C,J601*%
X108965000Y-54600000D03*
D41*
X106140000Y-54850000D03*
X111790000Y-54850000D03*
%TD*%
D42*
%TO.C,U201*%
X115820000Y-106200000D03*
X115819999Y-108500000D03*
D43*
X109520001Y-108500000D03*
D42*
X115820000Y-110800000D03*
%TD*%
D44*
%TO.C,C307*%
X109705002Y-79350000D03*
X107980000Y-79350000D03*
%TD*%
D45*
%TO.C,Q703*%
X107192500Y-103672500D03*
X107192500Y-101772500D03*
X109067501Y-102722500D03*
%TD*%
M02*
