%TF.GenerationSoftware,KiCad,Pcbnew,9.0.2*%
%TF.CreationDate,2025-06-24T12:42:33-05:00*%
%TF.ProjectId,Flight Computer,466c6967-6874-4204-936f-6d7075746572,rev?*%
%TF.SameCoordinates,Original*%
%TF.FileFunction,Legend,Bot*%
%TF.FilePolarity,Positive*%
%FSLAX46Y46*%
G04 Gerber Fmt 4.6, Leading zero omitted, Abs format (unit mm)*
G04 Created by KiCad (PCBNEW 9.0.2) date 2025-06-24 12:42:33*
%MOMM*%
%LPD*%
G01*
G04 APERTURE LIST*
%ADD10C,0.150000*%
%ADD11C,0.120000*%
%ADD12C,0.127000*%
%ADD13C,0.200000*%
G04 APERTURE END LIST*
D10*
X120972782Y-82745852D02*
X121023290Y-82745852D01*
X121023290Y-82745852D02*
X121124305Y-82695345D01*
X121124305Y-82695345D02*
X121174813Y-82644837D01*
X121174813Y-82644837D02*
X121225320Y-82543822D01*
X121225320Y-82543822D02*
X121225320Y-82442807D01*
X121225320Y-82442807D02*
X121200066Y-82367045D01*
X121200066Y-82367045D02*
X121124305Y-82240776D01*
X121124305Y-82240776D02*
X121048544Y-82165015D01*
X121048544Y-82165015D02*
X120922275Y-82089253D01*
X120922275Y-82089253D02*
X120846513Y-82063999D01*
X120846513Y-82063999D02*
X120745498Y-82063999D01*
X120745498Y-82063999D02*
X120644483Y-82114507D01*
X120644483Y-82114507D02*
X120593975Y-82165015D01*
X120593975Y-82165015D02*
X120543467Y-82266030D01*
X120543467Y-82266030D02*
X120543467Y-82316537D01*
X120316183Y-82442807D02*
X119987883Y-82771106D01*
X119987883Y-82771106D02*
X120366691Y-82796360D01*
X120366691Y-82796360D02*
X120290929Y-82872121D01*
X120290929Y-82872121D02*
X120265675Y-82947883D01*
X120265675Y-82947883D02*
X120265675Y-82998390D01*
X120265675Y-82998390D02*
X120290929Y-83074152D01*
X120290929Y-83074152D02*
X120417198Y-83200421D01*
X120417198Y-83200421D02*
X120492960Y-83225675D01*
X120492960Y-83225675D02*
X120543467Y-83225675D01*
X120543467Y-83225675D02*
X120619229Y-83200421D01*
X120619229Y-83200421D02*
X120770752Y-83048898D01*
X120770752Y-83048898D02*
X120796005Y-82973137D01*
X120796005Y-82973137D02*
X120796005Y-82922629D01*
X119659584Y-83099406D02*
X119609076Y-83149914D01*
X119609076Y-83149914D02*
X119583822Y-83225675D01*
X119583822Y-83225675D02*
X119583822Y-83276183D01*
X119583822Y-83276183D02*
X119609076Y-83351944D01*
X119609076Y-83351944D02*
X119684837Y-83478213D01*
X119684837Y-83478213D02*
X119811107Y-83604482D01*
X119811107Y-83604482D02*
X119937376Y-83680244D01*
X119937376Y-83680244D02*
X120013137Y-83705497D01*
X120013137Y-83705497D02*
X120063645Y-83705497D01*
X120063645Y-83705497D02*
X120139406Y-83680244D01*
X120139406Y-83680244D02*
X120189914Y-83629736D01*
X120189914Y-83629736D02*
X120215168Y-83553975D01*
X120215168Y-83553975D02*
X120215168Y-83503467D01*
X120215168Y-83503467D02*
X120189914Y-83427705D01*
X120189914Y-83427705D02*
X120114152Y-83301436D01*
X120114152Y-83301436D02*
X119987883Y-83175167D01*
X119987883Y-83175167D02*
X119861614Y-83099406D01*
X119861614Y-83099406D02*
X119785853Y-83074152D01*
X119785853Y-83074152D02*
X119735345Y-83074152D01*
X119735345Y-83074152D02*
X119659584Y-83099406D01*
X119331284Y-83528721D02*
X119280776Y-83528721D01*
X119280776Y-83528721D02*
X119205015Y-83553975D01*
X119205015Y-83553975D02*
X119078746Y-83680244D01*
X119078746Y-83680244D02*
X119053492Y-83756005D01*
X119053492Y-83756005D02*
X119053492Y-83806513D01*
X119053492Y-83806513D02*
X119078746Y-83882274D01*
X119078746Y-83882274D02*
X119129253Y-83932782D01*
X119129253Y-83932782D02*
X119230269Y-83983290D01*
X119230269Y-83983290D02*
X119836360Y-83983290D01*
X119836360Y-83983290D02*
X119508061Y-84311589D01*
X122877168Y-90100238D02*
X122927676Y-90100238D01*
X122927676Y-90100238D02*
X123028691Y-90049731D01*
X123028691Y-90049731D02*
X123079199Y-89999223D01*
X123079199Y-89999223D02*
X123129706Y-89898208D01*
X123129706Y-89898208D02*
X123129706Y-89797193D01*
X123129706Y-89797193D02*
X123104452Y-89721431D01*
X123104452Y-89721431D02*
X123028691Y-89595162D01*
X123028691Y-89595162D02*
X122952930Y-89519401D01*
X122952930Y-89519401D02*
X122826661Y-89443639D01*
X122826661Y-89443639D02*
X122750899Y-89418385D01*
X122750899Y-89418385D02*
X122649884Y-89418385D01*
X122649884Y-89418385D02*
X122548869Y-89468893D01*
X122548869Y-89468893D02*
X122498361Y-89519401D01*
X122498361Y-89519401D02*
X122447853Y-89620416D01*
X122447853Y-89620416D02*
X122447853Y-89670923D01*
X122220569Y-89797193D02*
X121892269Y-90125492D01*
X121892269Y-90125492D02*
X122271077Y-90150746D01*
X122271077Y-90150746D02*
X122195315Y-90226507D01*
X122195315Y-90226507D02*
X122170061Y-90302269D01*
X122170061Y-90302269D02*
X122170061Y-90352776D01*
X122170061Y-90352776D02*
X122195315Y-90428538D01*
X122195315Y-90428538D02*
X122321584Y-90554807D01*
X122321584Y-90554807D02*
X122397346Y-90580061D01*
X122397346Y-90580061D02*
X122447853Y-90580061D01*
X122447853Y-90580061D02*
X122523615Y-90554807D01*
X122523615Y-90554807D02*
X122675138Y-90403284D01*
X122675138Y-90403284D02*
X122700391Y-90327523D01*
X122700391Y-90327523D02*
X122700391Y-90277015D01*
X121563970Y-90453792D02*
X121513462Y-90504300D01*
X121513462Y-90504300D02*
X121488208Y-90580061D01*
X121488208Y-90580061D02*
X121488208Y-90630569D01*
X121488208Y-90630569D02*
X121513462Y-90706330D01*
X121513462Y-90706330D02*
X121589223Y-90832599D01*
X121589223Y-90832599D02*
X121715493Y-90958868D01*
X121715493Y-90958868D02*
X121841762Y-91034630D01*
X121841762Y-91034630D02*
X121917523Y-91059883D01*
X121917523Y-91059883D02*
X121968031Y-91059883D01*
X121968031Y-91059883D02*
X122043792Y-91034630D01*
X122043792Y-91034630D02*
X122094300Y-90984122D01*
X122094300Y-90984122D02*
X122119554Y-90908361D01*
X122119554Y-90908361D02*
X122119554Y-90857853D01*
X122119554Y-90857853D02*
X122094300Y-90782091D01*
X122094300Y-90782091D02*
X122018538Y-90655822D01*
X122018538Y-90655822D02*
X121892269Y-90529553D01*
X121892269Y-90529553D02*
X121766000Y-90453792D01*
X121766000Y-90453792D02*
X121690239Y-90428538D01*
X121690239Y-90428538D02*
X121639731Y-90428538D01*
X121639731Y-90428538D02*
X121563970Y-90453792D01*
X121210416Y-90807346D02*
X120882116Y-91135645D01*
X120882116Y-91135645D02*
X121260924Y-91160899D01*
X121260924Y-91160899D02*
X121185162Y-91236660D01*
X121185162Y-91236660D02*
X121159908Y-91312422D01*
X121159908Y-91312422D02*
X121159908Y-91362929D01*
X121159908Y-91362929D02*
X121185162Y-91438691D01*
X121185162Y-91438691D02*
X121311431Y-91564960D01*
X121311431Y-91564960D02*
X121387193Y-91590214D01*
X121387193Y-91590214D02*
X121437700Y-91590214D01*
X121437700Y-91590214D02*
X121513462Y-91564960D01*
X121513462Y-91564960D02*
X121664985Y-91413437D01*
X121664985Y-91413437D02*
X121690239Y-91337676D01*
X121690239Y-91337676D02*
X121690239Y-91287168D01*
X107069286Y-64019164D02*
X107319286Y-63662021D01*
X107497857Y-64019164D02*
X107497857Y-63269164D01*
X107497857Y-63269164D02*
X107212143Y-63269164D01*
X107212143Y-63269164D02*
X107140714Y-63304878D01*
X107140714Y-63304878D02*
X107105000Y-63340592D01*
X107105000Y-63340592D02*
X107069286Y-63412021D01*
X107069286Y-63412021D02*
X107069286Y-63519164D01*
X107069286Y-63519164D02*
X107105000Y-63590592D01*
X107105000Y-63590592D02*
X107140714Y-63626307D01*
X107140714Y-63626307D02*
X107212143Y-63662021D01*
X107212143Y-63662021D02*
X107497857Y-63662021D01*
X106426429Y-63519164D02*
X106426429Y-64019164D01*
X106605000Y-63233450D02*
X106783571Y-63769164D01*
X106783571Y-63769164D02*
X106319286Y-63769164D01*
X105890714Y-63269164D02*
X105819285Y-63269164D01*
X105819285Y-63269164D02*
X105747857Y-63304878D01*
X105747857Y-63304878D02*
X105712143Y-63340592D01*
X105712143Y-63340592D02*
X105676428Y-63412021D01*
X105676428Y-63412021D02*
X105640714Y-63554878D01*
X105640714Y-63554878D02*
X105640714Y-63733450D01*
X105640714Y-63733450D02*
X105676428Y-63876307D01*
X105676428Y-63876307D02*
X105712143Y-63947735D01*
X105712143Y-63947735D02*
X105747857Y-63983450D01*
X105747857Y-63983450D02*
X105819285Y-64019164D01*
X105819285Y-64019164D02*
X105890714Y-64019164D01*
X105890714Y-64019164D02*
X105962143Y-63983450D01*
X105962143Y-63983450D02*
X105997857Y-63947735D01*
X105997857Y-63947735D02*
X106033571Y-63876307D01*
X106033571Y-63876307D02*
X106069285Y-63733450D01*
X106069285Y-63733450D02*
X106069285Y-63554878D01*
X106069285Y-63554878D02*
X106033571Y-63412021D01*
X106033571Y-63412021D02*
X105997857Y-63340592D01*
X105997857Y-63340592D02*
X105962143Y-63304878D01*
X105962143Y-63304878D02*
X105890714Y-63269164D01*
X104926428Y-64019164D02*
X105354999Y-64019164D01*
X105140714Y-64019164D02*
X105140714Y-63269164D01*
X105140714Y-63269164D02*
X105212142Y-63376307D01*
X105212142Y-63376307D02*
X105283571Y-63447735D01*
X105283571Y-63447735D02*
X105354999Y-63483450D01*
X122782782Y-86655852D02*
X122833290Y-86655852D01*
X122833290Y-86655852D02*
X122934305Y-86605345D01*
X122934305Y-86605345D02*
X122984813Y-86554837D01*
X122984813Y-86554837D02*
X123035320Y-86453822D01*
X123035320Y-86453822D02*
X123035320Y-86352807D01*
X123035320Y-86352807D02*
X123010066Y-86277045D01*
X123010066Y-86277045D02*
X122934305Y-86150776D01*
X122934305Y-86150776D02*
X122858544Y-86075015D01*
X122858544Y-86075015D02*
X122732275Y-85999253D01*
X122732275Y-85999253D02*
X122656513Y-85973999D01*
X122656513Y-85973999D02*
X122555498Y-85973999D01*
X122555498Y-85973999D02*
X122454483Y-86024507D01*
X122454483Y-86024507D02*
X122403975Y-86075015D01*
X122403975Y-86075015D02*
X122353467Y-86176030D01*
X122353467Y-86176030D02*
X122353467Y-86226537D01*
X122126183Y-86352807D02*
X121797883Y-86681106D01*
X121797883Y-86681106D02*
X122176691Y-86706360D01*
X122176691Y-86706360D02*
X122100929Y-86782121D01*
X122100929Y-86782121D02*
X122075675Y-86857883D01*
X122075675Y-86857883D02*
X122075675Y-86908390D01*
X122075675Y-86908390D02*
X122100929Y-86984152D01*
X122100929Y-86984152D02*
X122227198Y-87110421D01*
X122227198Y-87110421D02*
X122302960Y-87135675D01*
X122302960Y-87135675D02*
X122353467Y-87135675D01*
X122353467Y-87135675D02*
X122429229Y-87110421D01*
X122429229Y-87110421D02*
X122580752Y-86958898D01*
X122580752Y-86958898D02*
X122606005Y-86883137D01*
X122606005Y-86883137D02*
X122606005Y-86832629D01*
X121469584Y-87009406D02*
X121419076Y-87059914D01*
X121419076Y-87059914D02*
X121393822Y-87135675D01*
X121393822Y-87135675D02*
X121393822Y-87186183D01*
X121393822Y-87186183D02*
X121419076Y-87261944D01*
X121419076Y-87261944D02*
X121494837Y-87388213D01*
X121494837Y-87388213D02*
X121621107Y-87514482D01*
X121621107Y-87514482D02*
X121747376Y-87590244D01*
X121747376Y-87590244D02*
X121823137Y-87615497D01*
X121823137Y-87615497D02*
X121873645Y-87615497D01*
X121873645Y-87615497D02*
X121949406Y-87590244D01*
X121949406Y-87590244D02*
X121999914Y-87539736D01*
X121999914Y-87539736D02*
X122025168Y-87463975D01*
X122025168Y-87463975D02*
X122025168Y-87413467D01*
X122025168Y-87413467D02*
X121999914Y-87337705D01*
X121999914Y-87337705D02*
X121924152Y-87211436D01*
X121924152Y-87211436D02*
X121797883Y-87085167D01*
X121797883Y-87085167D02*
X121671614Y-87009406D01*
X121671614Y-87009406D02*
X121595853Y-86984152D01*
X121595853Y-86984152D02*
X121545345Y-86984152D01*
X121545345Y-86984152D02*
X121469584Y-87009406D01*
X121217045Y-87716513D02*
X121242299Y-87640751D01*
X121242299Y-87640751D02*
X121242299Y-87590244D01*
X121242299Y-87590244D02*
X121217045Y-87514482D01*
X121217045Y-87514482D02*
X121191792Y-87489229D01*
X121191792Y-87489229D02*
X121116030Y-87463975D01*
X121116030Y-87463975D02*
X121065522Y-87463975D01*
X121065522Y-87463975D02*
X120989761Y-87489229D01*
X120989761Y-87489229D02*
X120888746Y-87590244D01*
X120888746Y-87590244D02*
X120863492Y-87666005D01*
X120863492Y-87666005D02*
X120863492Y-87716513D01*
X120863492Y-87716513D02*
X120888746Y-87792274D01*
X120888746Y-87792274D02*
X120914000Y-87817528D01*
X120914000Y-87817528D02*
X120989761Y-87842782D01*
X120989761Y-87842782D02*
X121040269Y-87842782D01*
X121040269Y-87842782D02*
X121116030Y-87817528D01*
X121116030Y-87817528D02*
X121217045Y-87716513D01*
X121217045Y-87716513D02*
X121292807Y-87691259D01*
X121292807Y-87691259D02*
X121343314Y-87691259D01*
X121343314Y-87691259D02*
X121419076Y-87716513D01*
X121419076Y-87716513D02*
X121520091Y-87817528D01*
X121520091Y-87817528D02*
X121545345Y-87893290D01*
X121545345Y-87893290D02*
X121545345Y-87943797D01*
X121545345Y-87943797D02*
X121520091Y-88019559D01*
X121520091Y-88019559D02*
X121419076Y-88120574D01*
X121419076Y-88120574D02*
X121343314Y-88145828D01*
X121343314Y-88145828D02*
X121292807Y-88145828D01*
X121292807Y-88145828D02*
X121217045Y-88120574D01*
X121217045Y-88120574D02*
X121116030Y-88019559D01*
X121116030Y-88019559D02*
X121090776Y-87943797D01*
X121090776Y-87943797D02*
X121090776Y-87893290D01*
X121090776Y-87893290D02*
X121116030Y-87817528D01*
X116544147Y-96852782D02*
X116544147Y-96903290D01*
X116544147Y-96903290D02*
X116594654Y-97004305D01*
X116594654Y-97004305D02*
X116645162Y-97054813D01*
X116645162Y-97054813D02*
X116746177Y-97105320D01*
X116746177Y-97105320D02*
X116847192Y-97105320D01*
X116847192Y-97105320D02*
X116922954Y-97080066D01*
X116922954Y-97080066D02*
X117049223Y-97004305D01*
X117049223Y-97004305D02*
X117124984Y-96928544D01*
X117124984Y-96928544D02*
X117200746Y-96802275D01*
X117200746Y-96802275D02*
X117226000Y-96726513D01*
X117226000Y-96726513D02*
X117226000Y-96625498D01*
X117226000Y-96625498D02*
X117175492Y-96524483D01*
X117175492Y-96524483D02*
X117124984Y-96473975D01*
X117124984Y-96473975D02*
X117023969Y-96423467D01*
X117023969Y-96423467D02*
X116973462Y-96423467D01*
X116847192Y-96196183D02*
X116518893Y-95867883D01*
X116518893Y-95867883D02*
X116493639Y-96246691D01*
X116493639Y-96246691D02*
X116417878Y-96170929D01*
X116417878Y-96170929D02*
X116342116Y-96145675D01*
X116342116Y-96145675D02*
X116291609Y-96145675D01*
X116291609Y-96145675D02*
X116215847Y-96170929D01*
X116215847Y-96170929D02*
X116089578Y-96297198D01*
X116089578Y-96297198D02*
X116064324Y-96372960D01*
X116064324Y-96372960D02*
X116064324Y-96423467D01*
X116064324Y-96423467D02*
X116089578Y-96499229D01*
X116089578Y-96499229D02*
X116241101Y-96650752D01*
X116241101Y-96650752D02*
X116316862Y-96676005D01*
X116316862Y-96676005D02*
X116367370Y-96676005D01*
X116190593Y-95539584D02*
X116140085Y-95489076D01*
X116140085Y-95489076D02*
X116064324Y-95463822D01*
X116064324Y-95463822D02*
X116013816Y-95463822D01*
X116013816Y-95463822D02*
X115938055Y-95489076D01*
X115938055Y-95489076D02*
X115811786Y-95564837D01*
X115811786Y-95564837D02*
X115685517Y-95691107D01*
X115685517Y-95691107D02*
X115609755Y-95817376D01*
X115609755Y-95817376D02*
X115584502Y-95893137D01*
X115584502Y-95893137D02*
X115584502Y-95943645D01*
X115584502Y-95943645D02*
X115609755Y-96019406D01*
X115609755Y-96019406D02*
X115660263Y-96069914D01*
X115660263Y-96069914D02*
X115736024Y-96095168D01*
X115736024Y-96095168D02*
X115786532Y-96095168D01*
X115786532Y-96095168D02*
X115862294Y-96069914D01*
X115862294Y-96069914D02*
X115988563Y-95994152D01*
X115988563Y-95994152D02*
X116114832Y-95867883D01*
X116114832Y-95867883D02*
X116190593Y-95741614D01*
X116190593Y-95741614D02*
X116215847Y-95665853D01*
X116215847Y-95665853D02*
X116215847Y-95615345D01*
X116215847Y-95615345D02*
X116190593Y-95539584D01*
X115382471Y-95085015D02*
X115028917Y-95438568D01*
X115710770Y-95009253D02*
X115458232Y-95514330D01*
X115458232Y-95514330D02*
X115129933Y-95186030D01*
X110910592Y-98944285D02*
X110874878Y-98872856D01*
X110874878Y-98872856D02*
X110803450Y-98801428D01*
X110803450Y-98801428D02*
X110696307Y-98694285D01*
X110696307Y-98694285D02*
X110660592Y-98622856D01*
X110660592Y-98622856D02*
X110660592Y-98551428D01*
X110839164Y-98587142D02*
X110803450Y-98515714D01*
X110803450Y-98515714D02*
X110732021Y-98444285D01*
X110732021Y-98444285D02*
X110589164Y-98408571D01*
X110589164Y-98408571D02*
X110339164Y-98408571D01*
X110339164Y-98408571D02*
X110196307Y-98444285D01*
X110196307Y-98444285D02*
X110124878Y-98515714D01*
X110124878Y-98515714D02*
X110089164Y-98587142D01*
X110089164Y-98587142D02*
X110089164Y-98729999D01*
X110089164Y-98729999D02*
X110124878Y-98801428D01*
X110124878Y-98801428D02*
X110196307Y-98872856D01*
X110196307Y-98872856D02*
X110339164Y-98908571D01*
X110339164Y-98908571D02*
X110589164Y-98908571D01*
X110589164Y-98908571D02*
X110732021Y-98872856D01*
X110732021Y-98872856D02*
X110803450Y-98801428D01*
X110803450Y-98801428D02*
X110839164Y-98729999D01*
X110839164Y-98729999D02*
X110839164Y-98587142D01*
X110089164Y-99158570D02*
X110089164Y-99658570D01*
X110089164Y-99658570D02*
X110839164Y-99337142D01*
X110089164Y-100087142D02*
X110089164Y-100158571D01*
X110089164Y-100158571D02*
X110124878Y-100229999D01*
X110124878Y-100229999D02*
X110160592Y-100265714D01*
X110160592Y-100265714D02*
X110232021Y-100301428D01*
X110232021Y-100301428D02*
X110374878Y-100337142D01*
X110374878Y-100337142D02*
X110553450Y-100337142D01*
X110553450Y-100337142D02*
X110696307Y-100301428D01*
X110696307Y-100301428D02*
X110767735Y-100265714D01*
X110767735Y-100265714D02*
X110803450Y-100229999D01*
X110803450Y-100229999D02*
X110839164Y-100158571D01*
X110839164Y-100158571D02*
X110839164Y-100087142D01*
X110839164Y-100087142D02*
X110803450Y-100015714D01*
X110803450Y-100015714D02*
X110767735Y-99979999D01*
X110767735Y-99979999D02*
X110696307Y-99944285D01*
X110696307Y-99944285D02*
X110553450Y-99908571D01*
X110553450Y-99908571D02*
X110374878Y-99908571D01*
X110374878Y-99908571D02*
X110232021Y-99944285D01*
X110232021Y-99944285D02*
X110160592Y-99979999D01*
X110160592Y-99979999D02*
X110124878Y-100015714D01*
X110124878Y-100015714D02*
X110089164Y-100087142D01*
X110160592Y-100622857D02*
X110124878Y-100658571D01*
X110124878Y-100658571D02*
X110089164Y-100730000D01*
X110089164Y-100730000D02*
X110089164Y-100908571D01*
X110089164Y-100908571D02*
X110124878Y-100980000D01*
X110124878Y-100980000D02*
X110160592Y-101015714D01*
X110160592Y-101015714D02*
X110232021Y-101051428D01*
X110232021Y-101051428D02*
X110303450Y-101051428D01*
X110303450Y-101051428D02*
X110410592Y-101015714D01*
X110410592Y-101015714D02*
X110839164Y-100587142D01*
X110839164Y-100587142D02*
X110839164Y-101051428D01*
X101616786Y-80869164D02*
X101866786Y-80512021D01*
X102045357Y-80869164D02*
X102045357Y-80119164D01*
X102045357Y-80119164D02*
X101759643Y-80119164D01*
X101759643Y-80119164D02*
X101688214Y-80154878D01*
X101688214Y-80154878D02*
X101652500Y-80190592D01*
X101652500Y-80190592D02*
X101616786Y-80262021D01*
X101616786Y-80262021D02*
X101616786Y-80369164D01*
X101616786Y-80369164D02*
X101652500Y-80440592D01*
X101652500Y-80440592D02*
X101688214Y-80476307D01*
X101688214Y-80476307D02*
X101759643Y-80512021D01*
X101759643Y-80512021D02*
X102045357Y-80512021D01*
X100938214Y-80119164D02*
X101295357Y-80119164D01*
X101295357Y-80119164D02*
X101331071Y-80476307D01*
X101331071Y-80476307D02*
X101295357Y-80440592D01*
X101295357Y-80440592D02*
X101223929Y-80404878D01*
X101223929Y-80404878D02*
X101045357Y-80404878D01*
X101045357Y-80404878D02*
X100973929Y-80440592D01*
X100973929Y-80440592D02*
X100938214Y-80476307D01*
X100938214Y-80476307D02*
X100902500Y-80547735D01*
X100902500Y-80547735D02*
X100902500Y-80726307D01*
X100902500Y-80726307D02*
X100938214Y-80797735D01*
X100938214Y-80797735D02*
X100973929Y-80833450D01*
X100973929Y-80833450D02*
X101045357Y-80869164D01*
X101045357Y-80869164D02*
X101223929Y-80869164D01*
X101223929Y-80869164D02*
X101295357Y-80833450D01*
X101295357Y-80833450D02*
X101331071Y-80797735D01*
X100438214Y-80119164D02*
X100366785Y-80119164D01*
X100366785Y-80119164D02*
X100295357Y-80154878D01*
X100295357Y-80154878D02*
X100259643Y-80190592D01*
X100259643Y-80190592D02*
X100223928Y-80262021D01*
X100223928Y-80262021D02*
X100188214Y-80404878D01*
X100188214Y-80404878D02*
X100188214Y-80583450D01*
X100188214Y-80583450D02*
X100223928Y-80726307D01*
X100223928Y-80726307D02*
X100259643Y-80797735D01*
X100259643Y-80797735D02*
X100295357Y-80833450D01*
X100295357Y-80833450D02*
X100366785Y-80869164D01*
X100366785Y-80869164D02*
X100438214Y-80869164D01*
X100438214Y-80869164D02*
X100509643Y-80833450D01*
X100509643Y-80833450D02*
X100545357Y-80797735D01*
X100545357Y-80797735D02*
X100581071Y-80726307D01*
X100581071Y-80726307D02*
X100616785Y-80583450D01*
X100616785Y-80583450D02*
X100616785Y-80404878D01*
X100616785Y-80404878D02*
X100581071Y-80262021D01*
X100581071Y-80262021D02*
X100545357Y-80190592D01*
X100545357Y-80190592D02*
X100509643Y-80154878D01*
X100509643Y-80154878D02*
X100438214Y-80119164D01*
X99473928Y-80869164D02*
X99902499Y-80869164D01*
X99688214Y-80869164D02*
X99688214Y-80119164D01*
X99688214Y-80119164D02*
X99759642Y-80226307D01*
X99759642Y-80226307D02*
X99831071Y-80297735D01*
X99831071Y-80297735D02*
X99902499Y-80333450D01*
X114153290Y-95676360D02*
X114077528Y-95247045D01*
X114456336Y-95373314D02*
X113926005Y-94842984D01*
X113926005Y-94842984D02*
X113723975Y-95045015D01*
X113723975Y-95045015D02*
X113698721Y-95120776D01*
X113698721Y-95120776D02*
X113698721Y-95171284D01*
X113698721Y-95171284D02*
X113723975Y-95247045D01*
X113723975Y-95247045D02*
X113799736Y-95322807D01*
X113799736Y-95322807D02*
X113875498Y-95348060D01*
X113875498Y-95348060D02*
X113926005Y-95348060D01*
X113926005Y-95348060D02*
X114001767Y-95322807D01*
X114001767Y-95322807D02*
X114203797Y-95120776D01*
X113446183Y-95322807D02*
X113092630Y-95676360D01*
X113092630Y-95676360D02*
X113850244Y-95979406D01*
X112789584Y-95979406D02*
X112739076Y-96029914D01*
X112739076Y-96029914D02*
X112713822Y-96105675D01*
X112713822Y-96105675D02*
X112713822Y-96156183D01*
X112713822Y-96156183D02*
X112739076Y-96231944D01*
X112739076Y-96231944D02*
X112814837Y-96358213D01*
X112814837Y-96358213D02*
X112941107Y-96484482D01*
X112941107Y-96484482D02*
X113067376Y-96560244D01*
X113067376Y-96560244D02*
X113143137Y-96585497D01*
X113143137Y-96585497D02*
X113193645Y-96585497D01*
X113193645Y-96585497D02*
X113269406Y-96560244D01*
X113269406Y-96560244D02*
X113319914Y-96509736D01*
X113319914Y-96509736D02*
X113345168Y-96433975D01*
X113345168Y-96433975D02*
X113345168Y-96383467D01*
X113345168Y-96383467D02*
X113319914Y-96307705D01*
X113319914Y-96307705D02*
X113244152Y-96181436D01*
X113244152Y-96181436D02*
X113117883Y-96055167D01*
X113117883Y-96055167D02*
X112991614Y-95979406D01*
X112991614Y-95979406D02*
X112915853Y-95954152D01*
X112915853Y-95954152D02*
X112865345Y-95954152D01*
X112865345Y-95954152D02*
X112789584Y-95979406D01*
X112890599Y-96939051D02*
X112789583Y-97040066D01*
X112789583Y-97040066D02*
X112713822Y-97065320D01*
X112713822Y-97065320D02*
X112663314Y-97065320D01*
X112663314Y-97065320D02*
X112537045Y-97040066D01*
X112537045Y-97040066D02*
X112410776Y-96964305D01*
X112410776Y-96964305D02*
X112208746Y-96762274D01*
X112208746Y-96762274D02*
X112183492Y-96686513D01*
X112183492Y-96686513D02*
X112183492Y-96636005D01*
X112183492Y-96636005D02*
X112208746Y-96560244D01*
X112208746Y-96560244D02*
X112309761Y-96459229D01*
X112309761Y-96459229D02*
X112385522Y-96433975D01*
X112385522Y-96433975D02*
X112436030Y-96433975D01*
X112436030Y-96433975D02*
X112511792Y-96459229D01*
X112511792Y-96459229D02*
X112638061Y-96585498D01*
X112638061Y-96585498D02*
X112663314Y-96661259D01*
X112663314Y-96661259D02*
X112663314Y-96711767D01*
X112663314Y-96711767D02*
X112638061Y-96787528D01*
X112638061Y-96787528D02*
X112537045Y-96888543D01*
X112537045Y-96888543D02*
X112461284Y-96913797D01*
X112461284Y-96913797D02*
X112410776Y-96913797D01*
X112410776Y-96913797D02*
X112335015Y-96888543D01*
X119697735Y-108520713D02*
X119733450Y-108484999D01*
X119733450Y-108484999D02*
X119769164Y-108377856D01*
X119769164Y-108377856D02*
X119769164Y-108306428D01*
X119769164Y-108306428D02*
X119733450Y-108199285D01*
X119733450Y-108199285D02*
X119662021Y-108127856D01*
X119662021Y-108127856D02*
X119590592Y-108092142D01*
X119590592Y-108092142D02*
X119447735Y-108056428D01*
X119447735Y-108056428D02*
X119340592Y-108056428D01*
X119340592Y-108056428D02*
X119197735Y-108092142D01*
X119197735Y-108092142D02*
X119126307Y-108127856D01*
X119126307Y-108127856D02*
X119054878Y-108199285D01*
X119054878Y-108199285D02*
X119019164Y-108306428D01*
X119019164Y-108306428D02*
X119019164Y-108377856D01*
X119019164Y-108377856D02*
X119054878Y-108484999D01*
X119054878Y-108484999D02*
X119090592Y-108520713D01*
X119090592Y-108806428D02*
X119054878Y-108842142D01*
X119054878Y-108842142D02*
X119019164Y-108913571D01*
X119019164Y-108913571D02*
X119019164Y-109092142D01*
X119019164Y-109092142D02*
X119054878Y-109163571D01*
X119054878Y-109163571D02*
X119090592Y-109199285D01*
X119090592Y-109199285D02*
X119162021Y-109234999D01*
X119162021Y-109234999D02*
X119233450Y-109234999D01*
X119233450Y-109234999D02*
X119340592Y-109199285D01*
X119340592Y-109199285D02*
X119769164Y-108770713D01*
X119769164Y-108770713D02*
X119769164Y-109234999D01*
X119019164Y-109699285D02*
X119019164Y-109770714D01*
X119019164Y-109770714D02*
X119054878Y-109842142D01*
X119054878Y-109842142D02*
X119090592Y-109877857D01*
X119090592Y-109877857D02*
X119162021Y-109913571D01*
X119162021Y-109913571D02*
X119304878Y-109949285D01*
X119304878Y-109949285D02*
X119483450Y-109949285D01*
X119483450Y-109949285D02*
X119626307Y-109913571D01*
X119626307Y-109913571D02*
X119697735Y-109877857D01*
X119697735Y-109877857D02*
X119733450Y-109842142D01*
X119733450Y-109842142D02*
X119769164Y-109770714D01*
X119769164Y-109770714D02*
X119769164Y-109699285D01*
X119769164Y-109699285D02*
X119733450Y-109627857D01*
X119733450Y-109627857D02*
X119697735Y-109592142D01*
X119697735Y-109592142D02*
X119626307Y-109556428D01*
X119626307Y-109556428D02*
X119483450Y-109520714D01*
X119483450Y-109520714D02*
X119304878Y-109520714D01*
X119304878Y-109520714D02*
X119162021Y-109556428D01*
X119162021Y-109556428D02*
X119090592Y-109592142D01*
X119090592Y-109592142D02*
X119054878Y-109627857D01*
X119054878Y-109627857D02*
X119019164Y-109699285D01*
X119769164Y-110663571D02*
X119769164Y-110235000D01*
X119769164Y-110449285D02*
X119019164Y-110449285D01*
X119019164Y-110449285D02*
X119126307Y-110377857D01*
X119126307Y-110377857D02*
X119197735Y-110306428D01*
X119197735Y-110306428D02*
X119233450Y-110235000D01*
X121054286Y-105009164D02*
X121304286Y-104652021D01*
X121482857Y-105009164D02*
X121482857Y-104259164D01*
X121482857Y-104259164D02*
X121197143Y-104259164D01*
X121197143Y-104259164D02*
X121125714Y-104294878D01*
X121125714Y-104294878D02*
X121090000Y-104330592D01*
X121090000Y-104330592D02*
X121054286Y-104402021D01*
X121054286Y-104402021D02*
X121054286Y-104509164D01*
X121054286Y-104509164D02*
X121090000Y-104580592D01*
X121090000Y-104580592D02*
X121125714Y-104616307D01*
X121125714Y-104616307D02*
X121197143Y-104652021D01*
X121197143Y-104652021D02*
X121482857Y-104652021D01*
X120804286Y-104259164D02*
X120304286Y-104259164D01*
X120304286Y-104259164D02*
X120625714Y-105009164D01*
X119875714Y-104259164D02*
X119804285Y-104259164D01*
X119804285Y-104259164D02*
X119732857Y-104294878D01*
X119732857Y-104294878D02*
X119697143Y-104330592D01*
X119697143Y-104330592D02*
X119661428Y-104402021D01*
X119661428Y-104402021D02*
X119625714Y-104544878D01*
X119625714Y-104544878D02*
X119625714Y-104723450D01*
X119625714Y-104723450D02*
X119661428Y-104866307D01*
X119661428Y-104866307D02*
X119697143Y-104937735D01*
X119697143Y-104937735D02*
X119732857Y-104973450D01*
X119732857Y-104973450D02*
X119804285Y-105009164D01*
X119804285Y-105009164D02*
X119875714Y-105009164D01*
X119875714Y-105009164D02*
X119947143Y-104973450D01*
X119947143Y-104973450D02*
X119982857Y-104937735D01*
X119982857Y-104937735D02*
X120018571Y-104866307D01*
X120018571Y-104866307D02*
X120054285Y-104723450D01*
X120054285Y-104723450D02*
X120054285Y-104544878D01*
X120054285Y-104544878D02*
X120018571Y-104402021D01*
X120018571Y-104402021D02*
X119982857Y-104330592D01*
X119982857Y-104330592D02*
X119947143Y-104294878D01*
X119947143Y-104294878D02*
X119875714Y-104259164D01*
X118947142Y-104259164D02*
X119304285Y-104259164D01*
X119304285Y-104259164D02*
X119339999Y-104616307D01*
X119339999Y-104616307D02*
X119304285Y-104580592D01*
X119304285Y-104580592D02*
X119232857Y-104544878D01*
X119232857Y-104544878D02*
X119054285Y-104544878D01*
X119054285Y-104544878D02*
X118982857Y-104580592D01*
X118982857Y-104580592D02*
X118947142Y-104616307D01*
X118947142Y-104616307D02*
X118911428Y-104687735D01*
X118911428Y-104687735D02*
X118911428Y-104866307D01*
X118911428Y-104866307D02*
X118947142Y-104937735D01*
X118947142Y-104937735D02*
X118982857Y-104973450D01*
X118982857Y-104973450D02*
X119054285Y-105009164D01*
X119054285Y-105009164D02*
X119232857Y-105009164D01*
X119232857Y-105009164D02*
X119304285Y-104973450D01*
X119304285Y-104973450D02*
X119339999Y-104937735D01*
X101639286Y-77869164D02*
X101889286Y-77512021D01*
X102067857Y-77869164D02*
X102067857Y-77119164D01*
X102067857Y-77119164D02*
X101782143Y-77119164D01*
X101782143Y-77119164D02*
X101710714Y-77154878D01*
X101710714Y-77154878D02*
X101675000Y-77190592D01*
X101675000Y-77190592D02*
X101639286Y-77262021D01*
X101639286Y-77262021D02*
X101639286Y-77369164D01*
X101639286Y-77369164D02*
X101675000Y-77440592D01*
X101675000Y-77440592D02*
X101710714Y-77476307D01*
X101710714Y-77476307D02*
X101782143Y-77512021D01*
X101782143Y-77512021D02*
X102067857Y-77512021D01*
X100960714Y-77119164D02*
X101317857Y-77119164D01*
X101317857Y-77119164D02*
X101353571Y-77476307D01*
X101353571Y-77476307D02*
X101317857Y-77440592D01*
X101317857Y-77440592D02*
X101246429Y-77404878D01*
X101246429Y-77404878D02*
X101067857Y-77404878D01*
X101067857Y-77404878D02*
X100996429Y-77440592D01*
X100996429Y-77440592D02*
X100960714Y-77476307D01*
X100960714Y-77476307D02*
X100925000Y-77547735D01*
X100925000Y-77547735D02*
X100925000Y-77726307D01*
X100925000Y-77726307D02*
X100960714Y-77797735D01*
X100960714Y-77797735D02*
X100996429Y-77833450D01*
X100996429Y-77833450D02*
X101067857Y-77869164D01*
X101067857Y-77869164D02*
X101246429Y-77869164D01*
X101246429Y-77869164D02*
X101317857Y-77833450D01*
X101317857Y-77833450D02*
X101353571Y-77797735D01*
X100460714Y-77119164D02*
X100389285Y-77119164D01*
X100389285Y-77119164D02*
X100317857Y-77154878D01*
X100317857Y-77154878D02*
X100282143Y-77190592D01*
X100282143Y-77190592D02*
X100246428Y-77262021D01*
X100246428Y-77262021D02*
X100210714Y-77404878D01*
X100210714Y-77404878D02*
X100210714Y-77583450D01*
X100210714Y-77583450D02*
X100246428Y-77726307D01*
X100246428Y-77726307D02*
X100282143Y-77797735D01*
X100282143Y-77797735D02*
X100317857Y-77833450D01*
X100317857Y-77833450D02*
X100389285Y-77869164D01*
X100389285Y-77869164D02*
X100460714Y-77869164D01*
X100460714Y-77869164D02*
X100532143Y-77833450D01*
X100532143Y-77833450D02*
X100567857Y-77797735D01*
X100567857Y-77797735D02*
X100603571Y-77726307D01*
X100603571Y-77726307D02*
X100639285Y-77583450D01*
X100639285Y-77583450D02*
X100639285Y-77404878D01*
X100639285Y-77404878D02*
X100603571Y-77262021D01*
X100603571Y-77262021D02*
X100567857Y-77190592D01*
X100567857Y-77190592D02*
X100532143Y-77154878D01*
X100532143Y-77154878D02*
X100460714Y-77119164D01*
X99924999Y-77190592D02*
X99889285Y-77154878D01*
X99889285Y-77154878D02*
X99817857Y-77119164D01*
X99817857Y-77119164D02*
X99639285Y-77119164D01*
X99639285Y-77119164D02*
X99567857Y-77154878D01*
X99567857Y-77154878D02*
X99532142Y-77190592D01*
X99532142Y-77190592D02*
X99496428Y-77262021D01*
X99496428Y-77262021D02*
X99496428Y-77333450D01*
X99496428Y-77333450D02*
X99532142Y-77440592D01*
X99532142Y-77440592D02*
X99960714Y-77869164D01*
X99960714Y-77869164D02*
X99496428Y-77869164D01*
X121015546Y-93374353D02*
X121231045Y-93589852D01*
X120929346Y-92986454D02*
X121015546Y-93374353D01*
X121015546Y-93374353D02*
X120627647Y-93288153D01*
X120519898Y-93395903D02*
X120239749Y-93676052D01*
X120239749Y-93676052D02*
X120562998Y-93697602D01*
X120562998Y-93697602D02*
X120498348Y-93762251D01*
X120498348Y-93762251D02*
X120476798Y-93826901D01*
X120476798Y-93826901D02*
X120476798Y-93870001D01*
X120476798Y-93870001D02*
X120498348Y-93934651D01*
X120498348Y-93934651D02*
X120606097Y-94042400D01*
X120606097Y-94042400D02*
X120670747Y-94063950D01*
X120670747Y-94063950D02*
X120713847Y-94063950D01*
X120713847Y-94063950D02*
X120778497Y-94042400D01*
X120778497Y-94042400D02*
X120907796Y-93913101D01*
X120907796Y-93913101D02*
X120929346Y-93848451D01*
X120929346Y-93848451D02*
X120929346Y-93805351D01*
X119959600Y-93956201D02*
X119916500Y-93999301D01*
X119916500Y-93999301D02*
X119894950Y-94063950D01*
X119894950Y-94063950D02*
X119894950Y-94107050D01*
X119894950Y-94107050D02*
X119916500Y-94171700D01*
X119916500Y-94171700D02*
X119981150Y-94279450D01*
X119981150Y-94279450D02*
X120088899Y-94387199D01*
X120088899Y-94387199D02*
X120196649Y-94451849D01*
X120196649Y-94451849D02*
X120261299Y-94473399D01*
X120261299Y-94473399D02*
X120304398Y-94473399D01*
X120304398Y-94473399D02*
X120369048Y-94451849D01*
X120369048Y-94451849D02*
X120412148Y-94408749D01*
X120412148Y-94408749D02*
X120433698Y-94344099D01*
X120433698Y-94344099D02*
X120433698Y-94300999D01*
X120433698Y-94300999D02*
X120412148Y-94236350D01*
X120412148Y-94236350D02*
X120347498Y-94128600D01*
X120347498Y-94128600D02*
X120239749Y-94020850D01*
X120239749Y-94020850D02*
X120131999Y-93956201D01*
X120131999Y-93956201D02*
X120067349Y-93934651D01*
X120067349Y-93934651D02*
X120024249Y-93934651D01*
X120024249Y-93934651D02*
X119959600Y-93956201D01*
X119830300Y-94990597D02*
X120088899Y-94731998D01*
X119959600Y-94861298D02*
X119507051Y-94408749D01*
X119507051Y-94408749D02*
X119614801Y-94430299D01*
X119614801Y-94430299D02*
X119701001Y-94430299D01*
X119701001Y-94430299D02*
X119765650Y-94408749D01*
X114297735Y-56130713D02*
X114333450Y-56094999D01*
X114333450Y-56094999D02*
X114369164Y-55987856D01*
X114369164Y-55987856D02*
X114369164Y-55916428D01*
X114369164Y-55916428D02*
X114333450Y-55809285D01*
X114333450Y-55809285D02*
X114262021Y-55737856D01*
X114262021Y-55737856D02*
X114190592Y-55702142D01*
X114190592Y-55702142D02*
X114047735Y-55666428D01*
X114047735Y-55666428D02*
X113940592Y-55666428D01*
X113940592Y-55666428D02*
X113797735Y-55702142D01*
X113797735Y-55702142D02*
X113726307Y-55737856D01*
X113726307Y-55737856D02*
X113654878Y-55809285D01*
X113654878Y-55809285D02*
X113619164Y-55916428D01*
X113619164Y-55916428D02*
X113619164Y-55987856D01*
X113619164Y-55987856D02*
X113654878Y-56094999D01*
X113654878Y-56094999D02*
X113690592Y-56130713D01*
X113619164Y-56773571D02*
X113619164Y-56630713D01*
X113619164Y-56630713D02*
X113654878Y-56559285D01*
X113654878Y-56559285D02*
X113690592Y-56523571D01*
X113690592Y-56523571D02*
X113797735Y-56452142D01*
X113797735Y-56452142D02*
X113940592Y-56416428D01*
X113940592Y-56416428D02*
X114226307Y-56416428D01*
X114226307Y-56416428D02*
X114297735Y-56452142D01*
X114297735Y-56452142D02*
X114333450Y-56487856D01*
X114333450Y-56487856D02*
X114369164Y-56559285D01*
X114369164Y-56559285D02*
X114369164Y-56702142D01*
X114369164Y-56702142D02*
X114333450Y-56773571D01*
X114333450Y-56773571D02*
X114297735Y-56809285D01*
X114297735Y-56809285D02*
X114226307Y-56844999D01*
X114226307Y-56844999D02*
X114047735Y-56844999D01*
X114047735Y-56844999D02*
X113976307Y-56809285D01*
X113976307Y-56809285D02*
X113940592Y-56773571D01*
X113940592Y-56773571D02*
X113904878Y-56702142D01*
X113904878Y-56702142D02*
X113904878Y-56559285D01*
X113904878Y-56559285D02*
X113940592Y-56487856D01*
X113940592Y-56487856D02*
X113976307Y-56452142D01*
X113976307Y-56452142D02*
X114047735Y-56416428D01*
X113619164Y-57309285D02*
X113619164Y-57380714D01*
X113619164Y-57380714D02*
X113654878Y-57452142D01*
X113654878Y-57452142D02*
X113690592Y-57487857D01*
X113690592Y-57487857D02*
X113762021Y-57523571D01*
X113762021Y-57523571D02*
X113904878Y-57559285D01*
X113904878Y-57559285D02*
X114083450Y-57559285D01*
X114083450Y-57559285D02*
X114226307Y-57523571D01*
X114226307Y-57523571D02*
X114297735Y-57487857D01*
X114297735Y-57487857D02*
X114333450Y-57452142D01*
X114333450Y-57452142D02*
X114369164Y-57380714D01*
X114369164Y-57380714D02*
X114369164Y-57309285D01*
X114369164Y-57309285D02*
X114333450Y-57237857D01*
X114333450Y-57237857D02*
X114297735Y-57202142D01*
X114297735Y-57202142D02*
X114226307Y-57166428D01*
X114226307Y-57166428D02*
X114083450Y-57130714D01*
X114083450Y-57130714D02*
X113904878Y-57130714D01*
X113904878Y-57130714D02*
X113762021Y-57166428D01*
X113762021Y-57166428D02*
X113690592Y-57202142D01*
X113690592Y-57202142D02*
X113654878Y-57237857D01*
X113654878Y-57237857D02*
X113619164Y-57309285D01*
X114369164Y-58273571D02*
X114369164Y-57845000D01*
X114369164Y-58059285D02*
X113619164Y-58059285D01*
X113619164Y-58059285D02*
X113726307Y-57987857D01*
X113726307Y-57987857D02*
X113797735Y-57916428D01*
X113797735Y-57916428D02*
X113833450Y-57845000D01*
X105144027Y-93532662D02*
X105144027Y-93583170D01*
X105144027Y-93583170D02*
X105194534Y-93684185D01*
X105194534Y-93684185D02*
X105245042Y-93734693D01*
X105245042Y-93734693D02*
X105346057Y-93785200D01*
X105346057Y-93785200D02*
X105447072Y-93785200D01*
X105447072Y-93785200D02*
X105522834Y-93759946D01*
X105522834Y-93759946D02*
X105649103Y-93684185D01*
X105649103Y-93684185D02*
X105724864Y-93608424D01*
X105724864Y-93608424D02*
X105800626Y-93482155D01*
X105800626Y-93482155D02*
X105825880Y-93406393D01*
X105825880Y-93406393D02*
X105825880Y-93305378D01*
X105825880Y-93305378D02*
X105775372Y-93204363D01*
X105775372Y-93204363D02*
X105724864Y-93153855D01*
X105724864Y-93153855D02*
X105623849Y-93103347D01*
X105623849Y-93103347D02*
X105573342Y-93103347D01*
X105447072Y-92876063D02*
X105118773Y-92547763D01*
X105118773Y-92547763D02*
X105093519Y-92926571D01*
X105093519Y-92926571D02*
X105017758Y-92850809D01*
X105017758Y-92850809D02*
X104941996Y-92825555D01*
X104941996Y-92825555D02*
X104891489Y-92825555D01*
X104891489Y-92825555D02*
X104815727Y-92850809D01*
X104815727Y-92850809D02*
X104689458Y-92977078D01*
X104689458Y-92977078D02*
X104664204Y-93052840D01*
X104664204Y-93052840D02*
X104664204Y-93103347D01*
X104664204Y-93103347D02*
X104689458Y-93179109D01*
X104689458Y-93179109D02*
X104840981Y-93330632D01*
X104840981Y-93330632D02*
X104916742Y-93355885D01*
X104916742Y-93355885D02*
X104967250Y-93355885D01*
X104790473Y-92219464D02*
X104739965Y-92168956D01*
X104739965Y-92168956D02*
X104664204Y-92143702D01*
X104664204Y-92143702D02*
X104613696Y-92143702D01*
X104613696Y-92143702D02*
X104537935Y-92168956D01*
X104537935Y-92168956D02*
X104411666Y-92244717D01*
X104411666Y-92244717D02*
X104285397Y-92370987D01*
X104285397Y-92370987D02*
X104209635Y-92497256D01*
X104209635Y-92497256D02*
X104184382Y-92573017D01*
X104184382Y-92573017D02*
X104184382Y-92623525D01*
X104184382Y-92623525D02*
X104209635Y-92699286D01*
X104209635Y-92699286D02*
X104260143Y-92749794D01*
X104260143Y-92749794D02*
X104335904Y-92775048D01*
X104335904Y-92775048D02*
X104386412Y-92775048D01*
X104386412Y-92775048D02*
X104462174Y-92749794D01*
X104462174Y-92749794D02*
X104588443Y-92674032D01*
X104588443Y-92674032D02*
X104714712Y-92547763D01*
X104714712Y-92547763D02*
X104790473Y-92421494D01*
X104790473Y-92421494D02*
X104815727Y-92345733D01*
X104815727Y-92345733D02*
X104815727Y-92295225D01*
X104815727Y-92295225D02*
X104790473Y-92219464D01*
X103830828Y-92320479D02*
X103729813Y-92219463D01*
X103729813Y-92219463D02*
X103704559Y-92143702D01*
X103704559Y-92143702D02*
X103704559Y-92093194D01*
X103704559Y-92093194D02*
X103729813Y-91966925D01*
X103729813Y-91966925D02*
X103805574Y-91840656D01*
X103805574Y-91840656D02*
X104007605Y-91638626D01*
X104007605Y-91638626D02*
X104083366Y-91613372D01*
X104083366Y-91613372D02*
X104133874Y-91613372D01*
X104133874Y-91613372D02*
X104209635Y-91638626D01*
X104209635Y-91638626D02*
X104310650Y-91739641D01*
X104310650Y-91739641D02*
X104335904Y-91815402D01*
X104335904Y-91815402D02*
X104335904Y-91865910D01*
X104335904Y-91865910D02*
X104310650Y-91941672D01*
X104310650Y-91941672D02*
X104184381Y-92067941D01*
X104184381Y-92067941D02*
X104108620Y-92093194D01*
X104108620Y-92093194D02*
X104058112Y-92093194D01*
X104058112Y-92093194D02*
X103982351Y-92067941D01*
X103982351Y-92067941D02*
X103881336Y-91966925D01*
X103881336Y-91966925D02*
X103856082Y-91891164D01*
X103856082Y-91891164D02*
X103856082Y-91840656D01*
X103856082Y-91840656D02*
X103881336Y-91764895D01*
X101250357Y-88719164D02*
X101250357Y-87969164D01*
X101250357Y-87969164D02*
X101071786Y-87969164D01*
X101071786Y-87969164D02*
X100964643Y-88004878D01*
X100964643Y-88004878D02*
X100893214Y-88076307D01*
X100893214Y-88076307D02*
X100857500Y-88147735D01*
X100857500Y-88147735D02*
X100821786Y-88290592D01*
X100821786Y-88290592D02*
X100821786Y-88397735D01*
X100821786Y-88397735D02*
X100857500Y-88540592D01*
X100857500Y-88540592D02*
X100893214Y-88612021D01*
X100893214Y-88612021D02*
X100964643Y-88683450D01*
X100964643Y-88683450D02*
X101071786Y-88719164D01*
X101071786Y-88719164D02*
X101250357Y-88719164D01*
X100143214Y-87969164D02*
X100500357Y-87969164D01*
X100500357Y-87969164D02*
X100536071Y-88326307D01*
X100536071Y-88326307D02*
X100500357Y-88290592D01*
X100500357Y-88290592D02*
X100428929Y-88254878D01*
X100428929Y-88254878D02*
X100250357Y-88254878D01*
X100250357Y-88254878D02*
X100178929Y-88290592D01*
X100178929Y-88290592D02*
X100143214Y-88326307D01*
X100143214Y-88326307D02*
X100107500Y-88397735D01*
X100107500Y-88397735D02*
X100107500Y-88576307D01*
X100107500Y-88576307D02*
X100143214Y-88647735D01*
X100143214Y-88647735D02*
X100178929Y-88683450D01*
X100178929Y-88683450D02*
X100250357Y-88719164D01*
X100250357Y-88719164D02*
X100428929Y-88719164D01*
X100428929Y-88719164D02*
X100500357Y-88683450D01*
X100500357Y-88683450D02*
X100536071Y-88647735D01*
X99643214Y-87969164D02*
X99571785Y-87969164D01*
X99571785Y-87969164D02*
X99500357Y-88004878D01*
X99500357Y-88004878D02*
X99464643Y-88040592D01*
X99464643Y-88040592D02*
X99428928Y-88112021D01*
X99428928Y-88112021D02*
X99393214Y-88254878D01*
X99393214Y-88254878D02*
X99393214Y-88433450D01*
X99393214Y-88433450D02*
X99428928Y-88576307D01*
X99428928Y-88576307D02*
X99464643Y-88647735D01*
X99464643Y-88647735D02*
X99500357Y-88683450D01*
X99500357Y-88683450D02*
X99571785Y-88719164D01*
X99571785Y-88719164D02*
X99643214Y-88719164D01*
X99643214Y-88719164D02*
X99714643Y-88683450D01*
X99714643Y-88683450D02*
X99750357Y-88647735D01*
X99750357Y-88647735D02*
X99786071Y-88576307D01*
X99786071Y-88576307D02*
X99821785Y-88433450D01*
X99821785Y-88433450D02*
X99821785Y-88254878D01*
X99821785Y-88254878D02*
X99786071Y-88112021D01*
X99786071Y-88112021D02*
X99750357Y-88040592D01*
X99750357Y-88040592D02*
X99714643Y-88004878D01*
X99714643Y-88004878D02*
X99643214Y-87969164D01*
X98678928Y-88719164D02*
X99107499Y-88719164D01*
X98893214Y-88719164D02*
X98893214Y-87969164D01*
X98893214Y-87969164D02*
X98964642Y-88076307D01*
X98964642Y-88076307D02*
X99036071Y-88147735D01*
X99036071Y-88147735D02*
X99107499Y-88183450D01*
X120239164Y-66474285D02*
X120846307Y-66474285D01*
X120846307Y-66474285D02*
X120917735Y-66509999D01*
X120917735Y-66509999D02*
X120953450Y-66545714D01*
X120953450Y-66545714D02*
X120989164Y-66617142D01*
X120989164Y-66617142D02*
X120989164Y-66759999D01*
X120989164Y-66759999D02*
X120953450Y-66831428D01*
X120953450Y-66831428D02*
X120917735Y-66867142D01*
X120917735Y-66867142D02*
X120846307Y-66902856D01*
X120846307Y-66902856D02*
X120239164Y-66902856D01*
X120239164Y-67581428D02*
X120239164Y-67438570D01*
X120239164Y-67438570D02*
X120274878Y-67367142D01*
X120274878Y-67367142D02*
X120310592Y-67331428D01*
X120310592Y-67331428D02*
X120417735Y-67259999D01*
X120417735Y-67259999D02*
X120560592Y-67224285D01*
X120560592Y-67224285D02*
X120846307Y-67224285D01*
X120846307Y-67224285D02*
X120917735Y-67259999D01*
X120917735Y-67259999D02*
X120953450Y-67295713D01*
X120953450Y-67295713D02*
X120989164Y-67367142D01*
X120989164Y-67367142D02*
X120989164Y-67509999D01*
X120989164Y-67509999D02*
X120953450Y-67581428D01*
X120953450Y-67581428D02*
X120917735Y-67617142D01*
X120917735Y-67617142D02*
X120846307Y-67652856D01*
X120846307Y-67652856D02*
X120667735Y-67652856D01*
X120667735Y-67652856D02*
X120596307Y-67617142D01*
X120596307Y-67617142D02*
X120560592Y-67581428D01*
X120560592Y-67581428D02*
X120524878Y-67509999D01*
X120524878Y-67509999D02*
X120524878Y-67367142D01*
X120524878Y-67367142D02*
X120560592Y-67295713D01*
X120560592Y-67295713D02*
X120596307Y-67259999D01*
X120596307Y-67259999D02*
X120667735Y-67224285D01*
X120239164Y-68117142D02*
X120239164Y-68188571D01*
X120239164Y-68188571D02*
X120274878Y-68259999D01*
X120274878Y-68259999D02*
X120310592Y-68295714D01*
X120310592Y-68295714D02*
X120382021Y-68331428D01*
X120382021Y-68331428D02*
X120524878Y-68367142D01*
X120524878Y-68367142D02*
X120703450Y-68367142D01*
X120703450Y-68367142D02*
X120846307Y-68331428D01*
X120846307Y-68331428D02*
X120917735Y-68295714D01*
X120917735Y-68295714D02*
X120953450Y-68259999D01*
X120953450Y-68259999D02*
X120989164Y-68188571D01*
X120989164Y-68188571D02*
X120989164Y-68117142D01*
X120989164Y-68117142D02*
X120953450Y-68045714D01*
X120953450Y-68045714D02*
X120917735Y-68009999D01*
X120917735Y-68009999D02*
X120846307Y-67974285D01*
X120846307Y-67974285D02*
X120703450Y-67938571D01*
X120703450Y-67938571D02*
X120524878Y-67938571D01*
X120524878Y-67938571D02*
X120382021Y-67974285D01*
X120382021Y-67974285D02*
X120310592Y-68009999D01*
X120310592Y-68009999D02*
X120274878Y-68045714D01*
X120274878Y-68045714D02*
X120239164Y-68117142D01*
X120989164Y-69081428D02*
X120989164Y-68652857D01*
X120989164Y-68867142D02*
X120239164Y-68867142D01*
X120239164Y-68867142D02*
X120346307Y-68795714D01*
X120346307Y-68795714D02*
X120417735Y-68724285D01*
X120417735Y-68724285D02*
X120453450Y-68652857D01*
X124459164Y-85883213D02*
X124102021Y-85633213D01*
X124459164Y-85454642D02*
X123709164Y-85454642D01*
X123709164Y-85454642D02*
X123709164Y-85740356D01*
X123709164Y-85740356D02*
X123744878Y-85811785D01*
X123744878Y-85811785D02*
X123780592Y-85847499D01*
X123780592Y-85847499D02*
X123852021Y-85883213D01*
X123852021Y-85883213D02*
X123959164Y-85883213D01*
X123959164Y-85883213D02*
X124030592Y-85847499D01*
X124030592Y-85847499D02*
X124066307Y-85811785D01*
X124066307Y-85811785D02*
X124102021Y-85740356D01*
X124102021Y-85740356D02*
X124102021Y-85454642D01*
X123709164Y-86133213D02*
X123709164Y-86597499D01*
X123709164Y-86597499D02*
X123994878Y-86347499D01*
X123994878Y-86347499D02*
X123994878Y-86454642D01*
X123994878Y-86454642D02*
X124030592Y-86526071D01*
X124030592Y-86526071D02*
X124066307Y-86561785D01*
X124066307Y-86561785D02*
X124137735Y-86597499D01*
X124137735Y-86597499D02*
X124316307Y-86597499D01*
X124316307Y-86597499D02*
X124387735Y-86561785D01*
X124387735Y-86561785D02*
X124423450Y-86526071D01*
X124423450Y-86526071D02*
X124459164Y-86454642D01*
X124459164Y-86454642D02*
X124459164Y-86240356D01*
X124459164Y-86240356D02*
X124423450Y-86168928D01*
X124423450Y-86168928D02*
X124387735Y-86133213D01*
X123709164Y-87061785D02*
X123709164Y-87133214D01*
X123709164Y-87133214D02*
X123744878Y-87204642D01*
X123744878Y-87204642D02*
X123780592Y-87240357D01*
X123780592Y-87240357D02*
X123852021Y-87276071D01*
X123852021Y-87276071D02*
X123994878Y-87311785D01*
X123994878Y-87311785D02*
X124173450Y-87311785D01*
X124173450Y-87311785D02*
X124316307Y-87276071D01*
X124316307Y-87276071D02*
X124387735Y-87240357D01*
X124387735Y-87240357D02*
X124423450Y-87204642D01*
X124423450Y-87204642D02*
X124459164Y-87133214D01*
X124459164Y-87133214D02*
X124459164Y-87061785D01*
X124459164Y-87061785D02*
X124423450Y-86990357D01*
X124423450Y-86990357D02*
X124387735Y-86954642D01*
X124387735Y-86954642D02*
X124316307Y-86918928D01*
X124316307Y-86918928D02*
X124173450Y-86883214D01*
X124173450Y-86883214D02*
X123994878Y-86883214D01*
X123994878Y-86883214D02*
X123852021Y-86918928D01*
X123852021Y-86918928D02*
X123780592Y-86954642D01*
X123780592Y-86954642D02*
X123744878Y-86990357D01*
X123744878Y-86990357D02*
X123709164Y-87061785D01*
X123780592Y-87597500D02*
X123744878Y-87633214D01*
X123744878Y-87633214D02*
X123709164Y-87704643D01*
X123709164Y-87704643D02*
X123709164Y-87883214D01*
X123709164Y-87883214D02*
X123744878Y-87954643D01*
X123744878Y-87954643D02*
X123780592Y-87990357D01*
X123780592Y-87990357D02*
X123852021Y-88026071D01*
X123852021Y-88026071D02*
X123923450Y-88026071D01*
X123923450Y-88026071D02*
X124030592Y-87990357D01*
X124030592Y-87990357D02*
X124459164Y-87561785D01*
X124459164Y-87561785D02*
X124459164Y-88026071D01*
X117568852Y-78965457D02*
X117493090Y-78536142D01*
X117871898Y-78662411D02*
X117341567Y-78132081D01*
X117341567Y-78132081D02*
X117139537Y-78334112D01*
X117139537Y-78334112D02*
X117114283Y-78409873D01*
X117114283Y-78409873D02*
X117114283Y-78460381D01*
X117114283Y-78460381D02*
X117139537Y-78536142D01*
X117139537Y-78536142D02*
X117215298Y-78611904D01*
X117215298Y-78611904D02*
X117291060Y-78637157D01*
X117291060Y-78637157D02*
X117341567Y-78637157D01*
X117341567Y-78637157D02*
X117417329Y-78611904D01*
X117417329Y-78611904D02*
X117619359Y-78409873D01*
X116861745Y-78611904D02*
X116533445Y-78940203D01*
X116533445Y-78940203D02*
X116912253Y-78965457D01*
X116912253Y-78965457D02*
X116836491Y-79041218D01*
X116836491Y-79041218D02*
X116811237Y-79116980D01*
X116811237Y-79116980D02*
X116811237Y-79167487D01*
X116811237Y-79167487D02*
X116836491Y-79243249D01*
X116836491Y-79243249D02*
X116962760Y-79369518D01*
X116962760Y-79369518D02*
X117038522Y-79394772D01*
X117038522Y-79394772D02*
X117089029Y-79394772D01*
X117089029Y-79394772D02*
X117164791Y-79369518D01*
X117164791Y-79369518D02*
X117316314Y-79217995D01*
X117316314Y-79217995D02*
X117341567Y-79142234D01*
X117341567Y-79142234D02*
X117341567Y-79091726D01*
X116205146Y-79268503D02*
X116154638Y-79319011D01*
X116154638Y-79319011D02*
X116129384Y-79394772D01*
X116129384Y-79394772D02*
X116129384Y-79445280D01*
X116129384Y-79445280D02*
X116154638Y-79521041D01*
X116154638Y-79521041D02*
X116230399Y-79647310D01*
X116230399Y-79647310D02*
X116356669Y-79773579D01*
X116356669Y-79773579D02*
X116482938Y-79849341D01*
X116482938Y-79849341D02*
X116558699Y-79874594D01*
X116558699Y-79874594D02*
X116609207Y-79874594D01*
X116609207Y-79874594D02*
X116684968Y-79849341D01*
X116684968Y-79849341D02*
X116735476Y-79798833D01*
X116735476Y-79798833D02*
X116760730Y-79723072D01*
X116760730Y-79723072D02*
X116760730Y-79672564D01*
X116760730Y-79672564D02*
X116735476Y-79596802D01*
X116735476Y-79596802D02*
X116659714Y-79470533D01*
X116659714Y-79470533D02*
X116533445Y-79344264D01*
X116533445Y-79344264D02*
X116407176Y-79268503D01*
X116407176Y-79268503D02*
X116331415Y-79243249D01*
X116331415Y-79243249D02*
X116280907Y-79243249D01*
X116280907Y-79243249D02*
X116205146Y-79268503D01*
X115851592Y-79622057D02*
X115523292Y-79950356D01*
X115523292Y-79950356D02*
X115902100Y-79975610D01*
X115902100Y-79975610D02*
X115826338Y-80051371D01*
X115826338Y-80051371D02*
X115801084Y-80127133D01*
X115801084Y-80127133D02*
X115801084Y-80177640D01*
X115801084Y-80177640D02*
X115826338Y-80253402D01*
X115826338Y-80253402D02*
X115952607Y-80379671D01*
X115952607Y-80379671D02*
X116028369Y-80404925D01*
X116028369Y-80404925D02*
X116078876Y-80404925D01*
X116078876Y-80404925D02*
X116154638Y-80379671D01*
X116154638Y-80379671D02*
X116306161Y-80228148D01*
X116306161Y-80228148D02*
X116331415Y-80152387D01*
X116331415Y-80152387D02*
X116331415Y-80101879D01*
X104132782Y-87825852D02*
X104183290Y-87825852D01*
X104183290Y-87825852D02*
X104284305Y-87775345D01*
X104284305Y-87775345D02*
X104334813Y-87724837D01*
X104334813Y-87724837D02*
X104385320Y-87623822D01*
X104385320Y-87623822D02*
X104385320Y-87522807D01*
X104385320Y-87522807D02*
X104360066Y-87447045D01*
X104360066Y-87447045D02*
X104284305Y-87320776D01*
X104284305Y-87320776D02*
X104208544Y-87245015D01*
X104208544Y-87245015D02*
X104082275Y-87169253D01*
X104082275Y-87169253D02*
X104006513Y-87143999D01*
X104006513Y-87143999D02*
X103905498Y-87143999D01*
X103905498Y-87143999D02*
X103804483Y-87194507D01*
X103804483Y-87194507D02*
X103753975Y-87245015D01*
X103753975Y-87245015D02*
X103703467Y-87346030D01*
X103703467Y-87346030D02*
X103703467Y-87396537D01*
X103476183Y-87522807D02*
X103147883Y-87851106D01*
X103147883Y-87851106D02*
X103526691Y-87876360D01*
X103526691Y-87876360D02*
X103450929Y-87952121D01*
X103450929Y-87952121D02*
X103425675Y-88027883D01*
X103425675Y-88027883D02*
X103425675Y-88078390D01*
X103425675Y-88078390D02*
X103450929Y-88154152D01*
X103450929Y-88154152D02*
X103577198Y-88280421D01*
X103577198Y-88280421D02*
X103652960Y-88305675D01*
X103652960Y-88305675D02*
X103703467Y-88305675D01*
X103703467Y-88305675D02*
X103779229Y-88280421D01*
X103779229Y-88280421D02*
X103930752Y-88128898D01*
X103930752Y-88128898D02*
X103956005Y-88053137D01*
X103956005Y-88053137D02*
X103956005Y-88002629D01*
X102819584Y-88179406D02*
X102769076Y-88229914D01*
X102769076Y-88229914D02*
X102743822Y-88305675D01*
X102743822Y-88305675D02*
X102743822Y-88356183D01*
X102743822Y-88356183D02*
X102769076Y-88431944D01*
X102769076Y-88431944D02*
X102844837Y-88558213D01*
X102844837Y-88558213D02*
X102971107Y-88684482D01*
X102971107Y-88684482D02*
X103097376Y-88760244D01*
X103097376Y-88760244D02*
X103173137Y-88785497D01*
X103173137Y-88785497D02*
X103223645Y-88785497D01*
X103223645Y-88785497D02*
X103299406Y-88760244D01*
X103299406Y-88760244D02*
X103349914Y-88709736D01*
X103349914Y-88709736D02*
X103375168Y-88633975D01*
X103375168Y-88633975D02*
X103375168Y-88583467D01*
X103375168Y-88583467D02*
X103349914Y-88507705D01*
X103349914Y-88507705D02*
X103274152Y-88381436D01*
X103274152Y-88381436D02*
X103147883Y-88255167D01*
X103147883Y-88255167D02*
X103021614Y-88179406D01*
X103021614Y-88179406D02*
X102945853Y-88154152D01*
X102945853Y-88154152D02*
X102895345Y-88154152D01*
X102895345Y-88154152D02*
X102819584Y-88179406D01*
X102188238Y-88810751D02*
X102289253Y-88709736D01*
X102289253Y-88709736D02*
X102365015Y-88684482D01*
X102365015Y-88684482D02*
X102415522Y-88684482D01*
X102415522Y-88684482D02*
X102541792Y-88709736D01*
X102541792Y-88709736D02*
X102668061Y-88785498D01*
X102668061Y-88785498D02*
X102870091Y-88987528D01*
X102870091Y-88987528D02*
X102895345Y-89063290D01*
X102895345Y-89063290D02*
X102895345Y-89113797D01*
X102895345Y-89113797D02*
X102870091Y-89189559D01*
X102870091Y-89189559D02*
X102769076Y-89290574D01*
X102769076Y-89290574D02*
X102693314Y-89315828D01*
X102693314Y-89315828D02*
X102642807Y-89315828D01*
X102642807Y-89315828D02*
X102567045Y-89290574D01*
X102567045Y-89290574D02*
X102440776Y-89164305D01*
X102440776Y-89164305D02*
X102415522Y-89088543D01*
X102415522Y-89088543D02*
X102415522Y-89038036D01*
X102415522Y-89038036D02*
X102440776Y-88962274D01*
X102440776Y-88962274D02*
X102541792Y-88861259D01*
X102541792Y-88861259D02*
X102617553Y-88836005D01*
X102617553Y-88836005D02*
X102668061Y-88836005D01*
X102668061Y-88836005D02*
X102743822Y-88861259D01*
X121044286Y-100569164D02*
X121294286Y-100212021D01*
X121472857Y-100569164D02*
X121472857Y-99819164D01*
X121472857Y-99819164D02*
X121187143Y-99819164D01*
X121187143Y-99819164D02*
X121115714Y-99854878D01*
X121115714Y-99854878D02*
X121080000Y-99890592D01*
X121080000Y-99890592D02*
X121044286Y-99962021D01*
X121044286Y-99962021D02*
X121044286Y-100069164D01*
X121044286Y-100069164D02*
X121080000Y-100140592D01*
X121080000Y-100140592D02*
X121115714Y-100176307D01*
X121115714Y-100176307D02*
X121187143Y-100212021D01*
X121187143Y-100212021D02*
X121472857Y-100212021D01*
X120794286Y-99819164D02*
X120294286Y-99819164D01*
X120294286Y-99819164D02*
X120615714Y-100569164D01*
X119865714Y-99819164D02*
X119794285Y-99819164D01*
X119794285Y-99819164D02*
X119722857Y-99854878D01*
X119722857Y-99854878D02*
X119687143Y-99890592D01*
X119687143Y-99890592D02*
X119651428Y-99962021D01*
X119651428Y-99962021D02*
X119615714Y-100104878D01*
X119615714Y-100104878D02*
X119615714Y-100283450D01*
X119615714Y-100283450D02*
X119651428Y-100426307D01*
X119651428Y-100426307D02*
X119687143Y-100497735D01*
X119687143Y-100497735D02*
X119722857Y-100533450D01*
X119722857Y-100533450D02*
X119794285Y-100569164D01*
X119794285Y-100569164D02*
X119865714Y-100569164D01*
X119865714Y-100569164D02*
X119937143Y-100533450D01*
X119937143Y-100533450D02*
X119972857Y-100497735D01*
X119972857Y-100497735D02*
X120008571Y-100426307D01*
X120008571Y-100426307D02*
X120044285Y-100283450D01*
X120044285Y-100283450D02*
X120044285Y-100104878D01*
X120044285Y-100104878D02*
X120008571Y-99962021D01*
X120008571Y-99962021D02*
X119972857Y-99890592D01*
X119972857Y-99890592D02*
X119937143Y-99854878D01*
X119937143Y-99854878D02*
X119865714Y-99819164D01*
X119329999Y-99890592D02*
X119294285Y-99854878D01*
X119294285Y-99854878D02*
X119222857Y-99819164D01*
X119222857Y-99819164D02*
X119044285Y-99819164D01*
X119044285Y-99819164D02*
X118972857Y-99854878D01*
X118972857Y-99854878D02*
X118937142Y-99890592D01*
X118937142Y-99890592D02*
X118901428Y-99962021D01*
X118901428Y-99962021D02*
X118901428Y-100033450D01*
X118901428Y-100033450D02*
X118937142Y-100140592D01*
X118937142Y-100140592D02*
X119365714Y-100569164D01*
X119365714Y-100569164D02*
X118901428Y-100569164D01*
X108602782Y-94265852D02*
X108653290Y-94265852D01*
X108653290Y-94265852D02*
X108754305Y-94215345D01*
X108754305Y-94215345D02*
X108804813Y-94164837D01*
X108804813Y-94164837D02*
X108855320Y-94063822D01*
X108855320Y-94063822D02*
X108855320Y-93962807D01*
X108855320Y-93962807D02*
X108830066Y-93887045D01*
X108830066Y-93887045D02*
X108754305Y-93760776D01*
X108754305Y-93760776D02*
X108678544Y-93685015D01*
X108678544Y-93685015D02*
X108552275Y-93609253D01*
X108552275Y-93609253D02*
X108476513Y-93583999D01*
X108476513Y-93583999D02*
X108375498Y-93583999D01*
X108375498Y-93583999D02*
X108274483Y-93634507D01*
X108274483Y-93634507D02*
X108223975Y-93685015D01*
X108223975Y-93685015D02*
X108173467Y-93786030D01*
X108173467Y-93786030D02*
X108173467Y-93836537D01*
X107946183Y-93962807D02*
X107617883Y-94291106D01*
X107617883Y-94291106D02*
X107996691Y-94316360D01*
X107996691Y-94316360D02*
X107920929Y-94392121D01*
X107920929Y-94392121D02*
X107895675Y-94467883D01*
X107895675Y-94467883D02*
X107895675Y-94518390D01*
X107895675Y-94518390D02*
X107920929Y-94594152D01*
X107920929Y-94594152D02*
X108047198Y-94720421D01*
X108047198Y-94720421D02*
X108122960Y-94745675D01*
X108122960Y-94745675D02*
X108173467Y-94745675D01*
X108173467Y-94745675D02*
X108249229Y-94720421D01*
X108249229Y-94720421D02*
X108400752Y-94568898D01*
X108400752Y-94568898D02*
X108426005Y-94493137D01*
X108426005Y-94493137D02*
X108426005Y-94442629D01*
X107289584Y-94619406D02*
X107239076Y-94669914D01*
X107239076Y-94669914D02*
X107213822Y-94745675D01*
X107213822Y-94745675D02*
X107213822Y-94796183D01*
X107213822Y-94796183D02*
X107239076Y-94871944D01*
X107239076Y-94871944D02*
X107314837Y-94998213D01*
X107314837Y-94998213D02*
X107441107Y-95124482D01*
X107441107Y-95124482D02*
X107567376Y-95200244D01*
X107567376Y-95200244D02*
X107643137Y-95225497D01*
X107643137Y-95225497D02*
X107693645Y-95225497D01*
X107693645Y-95225497D02*
X107769406Y-95200244D01*
X107769406Y-95200244D02*
X107819914Y-95149736D01*
X107819914Y-95149736D02*
X107845168Y-95073975D01*
X107845168Y-95073975D02*
X107845168Y-95023467D01*
X107845168Y-95023467D02*
X107819914Y-94947705D01*
X107819914Y-94947705D02*
X107744152Y-94821436D01*
X107744152Y-94821436D02*
X107617883Y-94695167D01*
X107617883Y-94695167D02*
X107491614Y-94619406D01*
X107491614Y-94619406D02*
X107415853Y-94594152D01*
X107415853Y-94594152D02*
X107365345Y-94594152D01*
X107365345Y-94594152D02*
X107289584Y-94619406D01*
X106632984Y-95276005D02*
X106885522Y-95023467D01*
X106885522Y-95023467D02*
X107163314Y-95250751D01*
X107163314Y-95250751D02*
X107112807Y-95250751D01*
X107112807Y-95250751D02*
X107037045Y-95276005D01*
X107037045Y-95276005D02*
X106910776Y-95402274D01*
X106910776Y-95402274D02*
X106885522Y-95478036D01*
X106885522Y-95478036D02*
X106885522Y-95528543D01*
X106885522Y-95528543D02*
X106910776Y-95604305D01*
X106910776Y-95604305D02*
X107037045Y-95730574D01*
X107037045Y-95730574D02*
X107112807Y-95755828D01*
X107112807Y-95755828D02*
X107163314Y-95755828D01*
X107163314Y-95755828D02*
X107239076Y-95730574D01*
X107239076Y-95730574D02*
X107365345Y-95604305D01*
X107365345Y-95604305D02*
X107390599Y-95528543D01*
X107390599Y-95528543D02*
X107390599Y-95478036D01*
X113850694Y-88211918D02*
X113421379Y-88641233D01*
X113421379Y-88641233D02*
X113345617Y-88666487D01*
X113345617Y-88666487D02*
X113295110Y-88666487D01*
X113295110Y-88666487D02*
X113219348Y-88641233D01*
X113219348Y-88641233D02*
X113118333Y-88540218D01*
X113118333Y-88540218D02*
X113093079Y-88464456D01*
X113093079Y-88464456D02*
X113093079Y-88413949D01*
X113093079Y-88413949D02*
X113118333Y-88338187D01*
X113118333Y-88338187D02*
X113547648Y-87908873D01*
X113345618Y-87706842D02*
X113017318Y-87378543D01*
X113017318Y-87378543D02*
X112992064Y-87757350D01*
X112992064Y-87757350D02*
X112916303Y-87681588D01*
X112916303Y-87681588D02*
X112840541Y-87656335D01*
X112840541Y-87656335D02*
X112790034Y-87656335D01*
X112790034Y-87656335D02*
X112714272Y-87681588D01*
X112714272Y-87681588D02*
X112588003Y-87807857D01*
X112588003Y-87807857D02*
X112562749Y-87883619D01*
X112562749Y-87883619D02*
X112562749Y-87934127D01*
X112562749Y-87934127D02*
X112588003Y-88009888D01*
X112588003Y-88009888D02*
X112739526Y-88161411D01*
X112739526Y-88161411D02*
X112815288Y-88186665D01*
X112815288Y-88186665D02*
X112865795Y-88186665D01*
X112689018Y-87050243D02*
X112638511Y-86999735D01*
X112638511Y-86999735D02*
X112562749Y-86974481D01*
X112562749Y-86974481D02*
X112512242Y-86974481D01*
X112512242Y-86974481D02*
X112436480Y-86999735D01*
X112436480Y-86999735D02*
X112310211Y-87075497D01*
X112310211Y-87075497D02*
X112183942Y-87201766D01*
X112183942Y-87201766D02*
X112108181Y-87328035D01*
X112108181Y-87328035D02*
X112082927Y-87403796D01*
X112082927Y-87403796D02*
X112082927Y-87454304D01*
X112082927Y-87454304D02*
X112108181Y-87530065D01*
X112108181Y-87530065D02*
X112158688Y-87580573D01*
X112158688Y-87580573D02*
X112234450Y-87605827D01*
X112234450Y-87605827D02*
X112284957Y-87605827D01*
X112284957Y-87605827D02*
X112360719Y-87580573D01*
X112360719Y-87580573D02*
X112486988Y-87504811D01*
X112486988Y-87504811D02*
X112613257Y-87378542D01*
X112613257Y-87378542D02*
X112689018Y-87252273D01*
X112689018Y-87252273D02*
X112714272Y-87176512D01*
X112714272Y-87176512D02*
X112714272Y-87126004D01*
X112714272Y-87126004D02*
X112689018Y-87050243D01*
X112259703Y-86721943D02*
X112259703Y-86671435D01*
X112259703Y-86671435D02*
X112234449Y-86595674D01*
X112234449Y-86595674D02*
X112108180Y-86469405D01*
X112108180Y-86469405D02*
X112032419Y-86444151D01*
X112032419Y-86444151D02*
X111981911Y-86444151D01*
X111981911Y-86444151D02*
X111906150Y-86469405D01*
X111906150Y-86469405D02*
X111855642Y-86519913D01*
X111855642Y-86519913D02*
X111805135Y-86620928D01*
X111805135Y-86620928D02*
X111805135Y-87227019D01*
X111805135Y-87227019D02*
X111476835Y-86898720D01*
X107484285Y-57129164D02*
X107484285Y-57664878D01*
X107484285Y-57664878D02*
X107520000Y-57772021D01*
X107520000Y-57772021D02*
X107591428Y-57843450D01*
X107591428Y-57843450D02*
X107698571Y-57879164D01*
X107698571Y-57879164D02*
X107770000Y-57879164D01*
X106805714Y-57129164D02*
X106948571Y-57129164D01*
X106948571Y-57129164D02*
X107019999Y-57164878D01*
X107019999Y-57164878D02*
X107055714Y-57200592D01*
X107055714Y-57200592D02*
X107127142Y-57307735D01*
X107127142Y-57307735D02*
X107162856Y-57450592D01*
X107162856Y-57450592D02*
X107162856Y-57736307D01*
X107162856Y-57736307D02*
X107127142Y-57807735D01*
X107127142Y-57807735D02*
X107091428Y-57843450D01*
X107091428Y-57843450D02*
X107019999Y-57879164D01*
X107019999Y-57879164D02*
X106877142Y-57879164D01*
X106877142Y-57879164D02*
X106805714Y-57843450D01*
X106805714Y-57843450D02*
X106769999Y-57807735D01*
X106769999Y-57807735D02*
X106734285Y-57736307D01*
X106734285Y-57736307D02*
X106734285Y-57557735D01*
X106734285Y-57557735D02*
X106769999Y-57486307D01*
X106769999Y-57486307D02*
X106805714Y-57450592D01*
X106805714Y-57450592D02*
X106877142Y-57414878D01*
X106877142Y-57414878D02*
X107019999Y-57414878D01*
X107019999Y-57414878D02*
X107091428Y-57450592D01*
X107091428Y-57450592D02*
X107127142Y-57486307D01*
X107127142Y-57486307D02*
X107162856Y-57557735D01*
X106269999Y-57129164D02*
X106198570Y-57129164D01*
X106198570Y-57129164D02*
X106127142Y-57164878D01*
X106127142Y-57164878D02*
X106091428Y-57200592D01*
X106091428Y-57200592D02*
X106055713Y-57272021D01*
X106055713Y-57272021D02*
X106019999Y-57414878D01*
X106019999Y-57414878D02*
X106019999Y-57593450D01*
X106019999Y-57593450D02*
X106055713Y-57736307D01*
X106055713Y-57736307D02*
X106091428Y-57807735D01*
X106091428Y-57807735D02*
X106127142Y-57843450D01*
X106127142Y-57843450D02*
X106198570Y-57879164D01*
X106198570Y-57879164D02*
X106269999Y-57879164D01*
X106269999Y-57879164D02*
X106341428Y-57843450D01*
X106341428Y-57843450D02*
X106377142Y-57807735D01*
X106377142Y-57807735D02*
X106412856Y-57736307D01*
X106412856Y-57736307D02*
X106448570Y-57593450D01*
X106448570Y-57593450D02*
X106448570Y-57414878D01*
X106448570Y-57414878D02*
X106412856Y-57272021D01*
X106412856Y-57272021D02*
X106377142Y-57200592D01*
X106377142Y-57200592D02*
X106341428Y-57164878D01*
X106341428Y-57164878D02*
X106269999Y-57129164D01*
X105305713Y-57879164D02*
X105734284Y-57879164D01*
X105519999Y-57879164D02*
X105519999Y-57129164D01*
X105519999Y-57129164D02*
X105591427Y-57236307D01*
X105591427Y-57236307D02*
X105662856Y-57307735D01*
X105662856Y-57307735D02*
X105734284Y-57343450D01*
X113605714Y-105339164D02*
X113605714Y-105946307D01*
X113605714Y-105946307D02*
X113570000Y-106017735D01*
X113570000Y-106017735D02*
X113534286Y-106053450D01*
X113534286Y-106053450D02*
X113462857Y-106089164D01*
X113462857Y-106089164D02*
X113320000Y-106089164D01*
X113320000Y-106089164D02*
X113248571Y-106053450D01*
X113248571Y-106053450D02*
X113212857Y-106017735D01*
X113212857Y-106017735D02*
X113177143Y-105946307D01*
X113177143Y-105946307D02*
X113177143Y-105339164D01*
X112855714Y-105410592D02*
X112820000Y-105374878D01*
X112820000Y-105374878D02*
X112748572Y-105339164D01*
X112748572Y-105339164D02*
X112570000Y-105339164D01*
X112570000Y-105339164D02*
X112498572Y-105374878D01*
X112498572Y-105374878D02*
X112462857Y-105410592D01*
X112462857Y-105410592D02*
X112427143Y-105482021D01*
X112427143Y-105482021D02*
X112427143Y-105553450D01*
X112427143Y-105553450D02*
X112462857Y-105660592D01*
X112462857Y-105660592D02*
X112891429Y-106089164D01*
X112891429Y-106089164D02*
X112427143Y-106089164D01*
X111962857Y-105339164D02*
X111891428Y-105339164D01*
X111891428Y-105339164D02*
X111820000Y-105374878D01*
X111820000Y-105374878D02*
X111784286Y-105410592D01*
X111784286Y-105410592D02*
X111748571Y-105482021D01*
X111748571Y-105482021D02*
X111712857Y-105624878D01*
X111712857Y-105624878D02*
X111712857Y-105803450D01*
X111712857Y-105803450D02*
X111748571Y-105946307D01*
X111748571Y-105946307D02*
X111784286Y-106017735D01*
X111784286Y-106017735D02*
X111820000Y-106053450D01*
X111820000Y-106053450D02*
X111891428Y-106089164D01*
X111891428Y-106089164D02*
X111962857Y-106089164D01*
X111962857Y-106089164D02*
X112034286Y-106053450D01*
X112034286Y-106053450D02*
X112070000Y-106017735D01*
X112070000Y-106017735D02*
X112105714Y-105946307D01*
X112105714Y-105946307D02*
X112141428Y-105803450D01*
X112141428Y-105803450D02*
X112141428Y-105624878D01*
X112141428Y-105624878D02*
X112105714Y-105482021D01*
X112105714Y-105482021D02*
X112070000Y-105410592D01*
X112070000Y-105410592D02*
X112034286Y-105374878D01*
X112034286Y-105374878D02*
X111962857Y-105339164D01*
X110998571Y-106089164D02*
X111427142Y-106089164D01*
X111212857Y-106089164D02*
X111212857Y-105339164D01*
X111212857Y-105339164D02*
X111284285Y-105446307D01*
X111284285Y-105446307D02*
X111355714Y-105517735D01*
X111355714Y-105517735D02*
X111427142Y-105553450D01*
X109681787Y-78397735D02*
X109717501Y-78433450D01*
X109717501Y-78433450D02*
X109824644Y-78469164D01*
X109824644Y-78469164D02*
X109896072Y-78469164D01*
X109896072Y-78469164D02*
X110003215Y-78433450D01*
X110003215Y-78433450D02*
X110074644Y-78362021D01*
X110074644Y-78362021D02*
X110110358Y-78290592D01*
X110110358Y-78290592D02*
X110146072Y-78147735D01*
X110146072Y-78147735D02*
X110146072Y-78040592D01*
X110146072Y-78040592D02*
X110110358Y-77897735D01*
X110110358Y-77897735D02*
X110074644Y-77826307D01*
X110074644Y-77826307D02*
X110003215Y-77754878D01*
X110003215Y-77754878D02*
X109896072Y-77719164D01*
X109896072Y-77719164D02*
X109824644Y-77719164D01*
X109824644Y-77719164D02*
X109717501Y-77754878D01*
X109717501Y-77754878D02*
X109681787Y-77790592D01*
X109431787Y-77719164D02*
X108967501Y-77719164D01*
X108967501Y-77719164D02*
X109217501Y-78004878D01*
X109217501Y-78004878D02*
X109110358Y-78004878D01*
X109110358Y-78004878D02*
X109038930Y-78040592D01*
X109038930Y-78040592D02*
X109003215Y-78076307D01*
X109003215Y-78076307D02*
X108967501Y-78147735D01*
X108967501Y-78147735D02*
X108967501Y-78326307D01*
X108967501Y-78326307D02*
X109003215Y-78397735D01*
X109003215Y-78397735D02*
X109038930Y-78433450D01*
X109038930Y-78433450D02*
X109110358Y-78469164D01*
X109110358Y-78469164D02*
X109324644Y-78469164D01*
X109324644Y-78469164D02*
X109396072Y-78433450D01*
X109396072Y-78433450D02*
X109431787Y-78397735D01*
X108503215Y-77719164D02*
X108431786Y-77719164D01*
X108431786Y-77719164D02*
X108360358Y-77754878D01*
X108360358Y-77754878D02*
X108324644Y-77790592D01*
X108324644Y-77790592D02*
X108288929Y-77862021D01*
X108288929Y-77862021D02*
X108253215Y-78004878D01*
X108253215Y-78004878D02*
X108253215Y-78183450D01*
X108253215Y-78183450D02*
X108288929Y-78326307D01*
X108288929Y-78326307D02*
X108324644Y-78397735D01*
X108324644Y-78397735D02*
X108360358Y-78433450D01*
X108360358Y-78433450D02*
X108431786Y-78469164D01*
X108431786Y-78469164D02*
X108503215Y-78469164D01*
X108503215Y-78469164D02*
X108574644Y-78433450D01*
X108574644Y-78433450D02*
X108610358Y-78397735D01*
X108610358Y-78397735D02*
X108646072Y-78326307D01*
X108646072Y-78326307D02*
X108681786Y-78183450D01*
X108681786Y-78183450D02*
X108681786Y-78004878D01*
X108681786Y-78004878D02*
X108646072Y-77862021D01*
X108646072Y-77862021D02*
X108610358Y-77790592D01*
X108610358Y-77790592D02*
X108574644Y-77754878D01*
X108574644Y-77754878D02*
X108503215Y-77719164D01*
X108003215Y-77719164D02*
X107503215Y-77719164D01*
X107503215Y-77719164D02*
X107824643Y-78469164D01*
X108915714Y-105533092D02*
X108987143Y-105497378D01*
X108987143Y-105497378D02*
X109058571Y-105425950D01*
X109058571Y-105425950D02*
X109165714Y-105318807D01*
X109165714Y-105318807D02*
X109237143Y-105283092D01*
X109237143Y-105283092D02*
X109308571Y-105283092D01*
X109272857Y-105461664D02*
X109344286Y-105425950D01*
X109344286Y-105425950D02*
X109415714Y-105354521D01*
X109415714Y-105354521D02*
X109451428Y-105211664D01*
X109451428Y-105211664D02*
X109451428Y-104961664D01*
X109451428Y-104961664D02*
X109415714Y-104818807D01*
X109415714Y-104818807D02*
X109344286Y-104747378D01*
X109344286Y-104747378D02*
X109272857Y-104711664D01*
X109272857Y-104711664D02*
X109130000Y-104711664D01*
X109130000Y-104711664D02*
X109058571Y-104747378D01*
X109058571Y-104747378D02*
X108987143Y-104818807D01*
X108987143Y-104818807D02*
X108951428Y-104961664D01*
X108951428Y-104961664D02*
X108951428Y-105211664D01*
X108951428Y-105211664D02*
X108987143Y-105354521D01*
X108987143Y-105354521D02*
X109058571Y-105425950D01*
X109058571Y-105425950D02*
X109130000Y-105461664D01*
X109130000Y-105461664D02*
X109272857Y-105461664D01*
X108701429Y-104711664D02*
X108201429Y-104711664D01*
X108201429Y-104711664D02*
X108522857Y-105461664D01*
X107772857Y-104711664D02*
X107701428Y-104711664D01*
X107701428Y-104711664D02*
X107630000Y-104747378D01*
X107630000Y-104747378D02*
X107594286Y-104783092D01*
X107594286Y-104783092D02*
X107558571Y-104854521D01*
X107558571Y-104854521D02*
X107522857Y-104997378D01*
X107522857Y-104997378D02*
X107522857Y-105175950D01*
X107522857Y-105175950D02*
X107558571Y-105318807D01*
X107558571Y-105318807D02*
X107594286Y-105390235D01*
X107594286Y-105390235D02*
X107630000Y-105425950D01*
X107630000Y-105425950D02*
X107701428Y-105461664D01*
X107701428Y-105461664D02*
X107772857Y-105461664D01*
X107772857Y-105461664D02*
X107844286Y-105425950D01*
X107844286Y-105425950D02*
X107880000Y-105390235D01*
X107880000Y-105390235D02*
X107915714Y-105318807D01*
X107915714Y-105318807D02*
X107951428Y-105175950D01*
X107951428Y-105175950D02*
X107951428Y-104997378D01*
X107951428Y-104997378D02*
X107915714Y-104854521D01*
X107915714Y-104854521D02*
X107880000Y-104783092D01*
X107880000Y-104783092D02*
X107844286Y-104747378D01*
X107844286Y-104747378D02*
X107772857Y-104711664D01*
X107272857Y-104711664D02*
X106808571Y-104711664D01*
X106808571Y-104711664D02*
X107058571Y-104997378D01*
X107058571Y-104997378D02*
X106951428Y-104997378D01*
X106951428Y-104997378D02*
X106880000Y-105033092D01*
X106880000Y-105033092D02*
X106844285Y-105068807D01*
X106844285Y-105068807D02*
X106808571Y-105140235D01*
X106808571Y-105140235D02*
X106808571Y-105318807D01*
X106808571Y-105318807D02*
X106844285Y-105390235D01*
X106844285Y-105390235D02*
X106880000Y-105425950D01*
X106880000Y-105425950D02*
X106951428Y-105461664D01*
X106951428Y-105461664D02*
X107165714Y-105461664D01*
X107165714Y-105461664D02*
X107237142Y-105425950D01*
X107237142Y-105425950D02*
X107272857Y-105390235D01*
D11*
%TO.C,C302*%
X120565829Y-83742922D02*
X120772682Y-83536069D01*
X121287078Y-84464171D02*
X121493931Y-84257318D01*
%TO.C,C303*%
X120795949Y-89412802D02*
X121002802Y-89205949D01*
X121517198Y-90134051D02*
X121724051Y-89927198D01*
%TO.C,R401*%
X105707500Y-66114724D02*
X105707500Y-65605276D01*
X106752500Y-66114724D02*
X106752500Y-65605276D01*
%TO.C,C308*%
X120635949Y-85882802D02*
X120842802Y-85675949D01*
X121357198Y-86604051D02*
X121564051Y-86397198D01*
%TO.C,C304*%
X116585949Y-95427198D02*
X116792802Y-95634051D01*
X117307198Y-94705949D02*
X117514051Y-94912802D01*
%TO.C,Q702*%
X111555752Y-98411577D02*
X111096133Y-98871197D01*
X111555752Y-98411577D02*
X112015372Y-97951958D01*
X113761926Y-100617751D02*
X113302306Y-101077370D01*
X113761926Y-100617751D02*
X114221545Y-100158131D01*
X112413119Y-97624921D02*
X112010069Y-97561282D01*
X112349480Y-97221870D01*
X112413119Y-97624921D01*
G36*
X112413119Y-97624921D02*
G01*
X112010069Y-97561282D01*
X112349480Y-97221870D01*
X112413119Y-97624921D01*
G37*
%TO.C,R501*%
X101032224Y-81437500D02*
X100522776Y-81437500D01*
X101032224Y-82482500D02*
X100522776Y-82482500D01*
%TO.C,R709*%
X114528303Y-97797230D02*
X114192770Y-97461697D01*
X115267230Y-97058303D02*
X114931697Y-96722770D01*
%TO.C,C201*%
X117640000Y-109213733D02*
X117640000Y-109506267D01*
X118660000Y-109213733D02*
X118660000Y-109506267D01*
%TO.C,R705*%
X119977742Y-102717500D02*
X120452258Y-102717500D01*
X119977742Y-103762500D02*
X120452258Y-103762500D01*
%TO.C,R502*%
X101054724Y-78437500D02*
X100545276Y-78437500D01*
X101054724Y-79482500D02*
X100545276Y-79482500D01*
D12*
%TO.C,Y301*%
X118394868Y-94524371D02*
X117475629Y-93605132D01*
X120827315Y-92091924D02*
X119908076Y-91172685D01*
D13*
X117681695Y-94418305D02*
G75*
G02*
X117481695Y-94418305I-100000J0D01*
G01*
X117481695Y-94418305D02*
G75*
G02*
X117681695Y-94418305I100000J0D01*
G01*
D11*
%TO.C,C601*%
X116265581Y-57070000D02*
X115984419Y-57070000D01*
X116265581Y-58090000D02*
X115984419Y-58090000D01*
%TO.C,C309*%
X105195829Y-92087078D02*
X105402682Y-92293931D01*
X105917078Y-91365829D02*
X106123931Y-91572682D01*
%TO.C,D501*%
X99982500Y-89219999D02*
X99332500Y-89220000D01*
X99982500Y-89219999D02*
X100632500Y-89220000D01*
X99982500Y-92340001D02*
X99332500Y-92340000D01*
X99982500Y-92340001D02*
X100632500Y-92340000D01*
X101145000Y-89270000D02*
X100905000Y-88940001D01*
X101385000Y-88940000D01*
X101145000Y-89270000D01*
G36*
X101145000Y-89270000D02*
G01*
X100905000Y-88940001D01*
X101385000Y-88940000D01*
X101145000Y-89270000D01*
G37*
%TO.C,U601*%
X107910000Y-59665000D02*
X108136000Y-59665000D01*
X107910000Y-75865000D02*
X107910000Y-59665000D01*
X108136000Y-75865000D02*
X107910000Y-75865000D01*
X124110000Y-59665000D02*
X123884000Y-59665000D01*
X124110000Y-75865000D02*
X124110000Y-59665000D01*
X124246000Y-76604999D02*
X123910000Y-76365000D01*
X124246000Y-76125000D01*
X124246000Y-76604999D01*
G36*
X124246000Y-76604999D02*
G01*
X123910000Y-76365000D01*
X124246000Y-76125000D01*
X124246000Y-76604999D01*
G37*
%TO.C,R302*%
X125027500Y-86467776D02*
X125027500Y-86977224D01*
X126072500Y-86467776D02*
X126072500Y-86977224D01*
%TO.C,R303*%
X117410654Y-79630420D02*
X117050420Y-79990654D01*
X118149580Y-80369346D02*
X117789346Y-80729580D01*
%TO.C,C306*%
X103922802Y-88595949D02*
X103715949Y-88802802D01*
X104644051Y-89317198D02*
X104437198Y-89524051D01*
%TO.C,R702*%
X120442258Y-101137500D02*
X119967742Y-101137500D01*
X120442258Y-102182500D02*
X119967742Y-102182500D01*
%TO.C,C305*%
X108392802Y-95045949D02*
X108185949Y-95252802D01*
X109114051Y-95767198D02*
X108907198Y-95974051D01*
%TO.C,U302*%
X105424421Y-87593286D02*
X106096172Y-86921535D01*
X106096172Y-88265037D02*
X105424421Y-87593286D01*
X111979301Y-94148166D02*
X112651052Y-94819917D01*
X112651052Y-80366655D02*
X111979301Y-81038406D01*
X112651052Y-94819917D02*
X113322803Y-94148166D01*
X113322803Y-81038406D02*
X112651052Y-80366655D01*
X119205932Y-86921535D02*
X119877683Y-87593286D01*
X119877683Y-87593286D02*
X119205932Y-88265037D01*
X120213559Y-88607984D02*
X119640803Y-88699908D01*
X119732726Y-88127152D01*
X120213559Y-88607984D01*
G36*
X120213559Y-88607984D02*
G01*
X119640803Y-88699908D01*
X119732726Y-88127152D01*
X120213559Y-88607984D01*
G37*
%TO.C,J601*%
X107015000Y-53060000D02*
X108125000Y-53060000D01*
X107015000Y-56310000D02*
X108125000Y-56310000D01*
X108715000Y-57360000D02*
X108965000Y-56860000D01*
X108965000Y-56860000D02*
X109215000Y-57360000D01*
X109215000Y-57360000D02*
X108715000Y-57360000D01*
X109805000Y-53060000D02*
X110915000Y-53060000D01*
X109805000Y-56310000D02*
X110915000Y-56310000D01*
%TO.C,U201*%
X110760000Y-105090000D02*
X110760000Y-106349999D01*
X110760000Y-111910000D02*
X110760000Y-110650001D01*
X114520000Y-105089999D02*
X110760000Y-105090000D01*
X114520000Y-111910001D02*
X110760000Y-111910000D01*
X115800000Y-105190000D02*
X115560000Y-104860000D01*
X116040000Y-104860000D01*
X115800000Y-105190000D01*
G36*
X115800000Y-105190000D02*
G01*
X115560000Y-104860000D01*
X116040000Y-104860000D01*
X115800000Y-105190000D01*
G37*
%TO.C,C307*%
X108988768Y-78840000D02*
X108696234Y-78840000D01*
X108988768Y-79860000D02*
X108696234Y-79860000D01*
%TO.C,Q703*%
X108130000Y-101162499D02*
X107480000Y-101162500D01*
X108130000Y-101162499D02*
X108780000Y-101162500D01*
X108130000Y-104282501D02*
X107480000Y-104282500D01*
X108130000Y-104282501D02*
X108780000Y-104282500D01*
X107207500Y-104562499D02*
X106727500Y-104562500D01*
X106967500Y-104232500D01*
X107207500Y-104562499D01*
G36*
X107207500Y-104562499D02*
G01*
X106727500Y-104562500D01*
X106967500Y-104232500D01*
X107207500Y-104562499D01*
G37*
%TD*%
M02*
