%TF.GenerationSoftware,KiCad,Pcbnew,10.0.3*%
%TF.CreationDate,2026-06-06T20:26:20-05:00*%
%TF.ProjectId,Flight Computer,466c6967-6874-4204-936f-6d7075746572,rev?*%
%TF.SameCoordinates,Original*%
%TF.FileFunction,Legend,Top*%
%TF.FilePolarity,Positive*%
%FSLAX46Y46*%
G04 Gerber Fmt 4.6, Leading zero omitted, Abs format (unit mm)*
G04 Created by KiCad (PCBNEW 10.0.3) date 2026-06-06 20:26:20*
%MOMM*%
%LPD*%
G01*
G04 APERTURE LIST*
%ADD10C,0.150000*%
%ADD11C,0.250000*%
%ADD12C,0.300000*%
%ADD13C,0.120000*%
%ADD14C,0.000000*%
%ADD15C,0.100000*%
G04 APERTURE END LIST*
D10*
X121685255Y-89169557D02*
X121792398Y-89205271D01*
X121792398Y-89205271D02*
X121828112Y-89240985D01*
X121828112Y-89240985D02*
X121863826Y-89312414D01*
X121863826Y-89312414D02*
X121863826Y-89419557D01*
X121863826Y-89419557D02*
X121828112Y-89490985D01*
X121828112Y-89490985D02*
X121792398Y-89526700D01*
X121792398Y-89526700D02*
X121720969Y-89562414D01*
X121720969Y-89562414D02*
X121435255Y-89562414D01*
X121435255Y-89562414D02*
X121435255Y-88812414D01*
X121435255Y-88812414D02*
X121685255Y-88812414D01*
X121685255Y-88812414D02*
X121756684Y-88848128D01*
X121756684Y-88848128D02*
X121792398Y-88883842D01*
X121792398Y-88883842D02*
X121828112Y-88955271D01*
X121828112Y-88955271D02*
X121828112Y-89026700D01*
X121828112Y-89026700D02*
X121792398Y-89098128D01*
X121792398Y-89098128D02*
X121756684Y-89133842D01*
X121756684Y-89133842D02*
X121685255Y-89169557D01*
X121685255Y-89169557D02*
X121435255Y-89169557D01*
X122328112Y-88812414D02*
X122470969Y-88812414D01*
X122470969Y-88812414D02*
X122542398Y-88848128D01*
X122542398Y-88848128D02*
X122613826Y-88919557D01*
X122613826Y-88919557D02*
X122649541Y-89062414D01*
X122649541Y-89062414D02*
X122649541Y-89312414D01*
X122649541Y-89312414D02*
X122613826Y-89455271D01*
X122613826Y-89455271D02*
X122542398Y-89526700D01*
X122542398Y-89526700D02*
X122470969Y-89562414D01*
X122470969Y-89562414D02*
X122328112Y-89562414D01*
X122328112Y-89562414D02*
X122256684Y-89526700D01*
X122256684Y-89526700D02*
X122185255Y-89455271D01*
X122185255Y-89455271D02*
X122149541Y-89312414D01*
X122149541Y-89312414D02*
X122149541Y-89062414D01*
X122149541Y-89062414D02*
X122185255Y-88919557D01*
X122185255Y-88919557D02*
X122256684Y-88848128D01*
X122256684Y-88848128D02*
X122328112Y-88812414D01*
X123113826Y-88812414D02*
X123256683Y-88812414D01*
X123256683Y-88812414D02*
X123328112Y-88848128D01*
X123328112Y-88848128D02*
X123399540Y-88919557D01*
X123399540Y-88919557D02*
X123435255Y-89062414D01*
X123435255Y-89062414D02*
X123435255Y-89312414D01*
X123435255Y-89312414D02*
X123399540Y-89455271D01*
X123399540Y-89455271D02*
X123328112Y-89526700D01*
X123328112Y-89526700D02*
X123256683Y-89562414D01*
X123256683Y-89562414D02*
X123113826Y-89562414D01*
X123113826Y-89562414D02*
X123042398Y-89526700D01*
X123042398Y-89526700D02*
X122970969Y-89455271D01*
X122970969Y-89455271D02*
X122935255Y-89312414D01*
X122935255Y-89312414D02*
X122935255Y-89062414D01*
X122935255Y-89062414D02*
X122970969Y-88919557D01*
X122970969Y-88919557D02*
X123042398Y-88848128D01*
X123042398Y-88848128D02*
X123113826Y-88812414D01*
X123649540Y-88812414D02*
X124078112Y-88812414D01*
X123863826Y-89562414D02*
X123863826Y-88812414D01*
X125673826Y-89562414D02*
X125423826Y-89205271D01*
X125245255Y-89562414D02*
X125245255Y-88812414D01*
X125245255Y-88812414D02*
X125530969Y-88812414D01*
X125530969Y-88812414D02*
X125602398Y-88848128D01*
X125602398Y-88848128D02*
X125638112Y-88883842D01*
X125638112Y-88883842D02*
X125673826Y-88955271D01*
X125673826Y-88955271D02*
X125673826Y-89062414D01*
X125673826Y-89062414D02*
X125638112Y-89133842D01*
X125638112Y-89133842D02*
X125602398Y-89169557D01*
X125602398Y-89169557D02*
X125530969Y-89205271D01*
X125530969Y-89205271D02*
X125245255Y-89205271D01*
X125959541Y-89526700D02*
X126066684Y-89562414D01*
X126066684Y-89562414D02*
X126245255Y-89562414D01*
X126245255Y-89562414D02*
X126316684Y-89526700D01*
X126316684Y-89526700D02*
X126352398Y-89490985D01*
X126352398Y-89490985D02*
X126388112Y-89419557D01*
X126388112Y-89419557D02*
X126388112Y-89348128D01*
X126388112Y-89348128D02*
X126352398Y-89276700D01*
X126352398Y-89276700D02*
X126316684Y-89240985D01*
X126316684Y-89240985D02*
X126245255Y-89205271D01*
X126245255Y-89205271D02*
X126102398Y-89169557D01*
X126102398Y-89169557D02*
X126030969Y-89133842D01*
X126030969Y-89133842D02*
X125995255Y-89098128D01*
X125995255Y-89098128D02*
X125959541Y-89026700D01*
X125959541Y-89026700D02*
X125959541Y-88955271D01*
X125959541Y-88955271D02*
X125995255Y-88883842D01*
X125995255Y-88883842D02*
X126030969Y-88848128D01*
X126030969Y-88848128D02*
X126102398Y-88812414D01*
X126102398Y-88812414D02*
X126280969Y-88812414D01*
X126280969Y-88812414D02*
X126388112Y-88848128D01*
X126602398Y-88812414D02*
X127030970Y-88812414D01*
X126816684Y-89562414D02*
X126816684Y-88812414D01*
G36*
X115107408Y-56347942D02*
G01*
X115162472Y-56403006D01*
X115191442Y-56460945D01*
X115225303Y-56596387D01*
X115225303Y-56692202D01*
X115191442Y-56827643D01*
X115162472Y-56885582D01*
X115107407Y-56940648D01*
X115021466Y-56969295D01*
X114918160Y-56969295D01*
X114918160Y-56319295D01*
X115021466Y-56319295D01*
X115107408Y-56347942D01*
G37*
G36*
X119869313Y-56347942D02*
G01*
X119924377Y-56403006D01*
X119953347Y-56460945D01*
X119987208Y-56596387D01*
X119987208Y-56692202D01*
X119953347Y-56827643D01*
X119924377Y-56885582D01*
X119869312Y-56940648D01*
X119783371Y-56969295D01*
X119680065Y-56969295D01*
X119680065Y-56319295D01*
X119783371Y-56319295D01*
X119869313Y-56347942D01*
G37*
G36*
X120741590Y-56344029D02*
G01*
X120794485Y-56396923D01*
X120825303Y-56520194D01*
X120825303Y-56768394D01*
X120794485Y-56891665D01*
X120741590Y-56944561D01*
X120692122Y-56969295D01*
X120575151Y-56969295D01*
X120525682Y-56944560D01*
X120472787Y-56891665D01*
X120441969Y-56768392D01*
X120441969Y-56520196D01*
X120472787Y-56396923D01*
X120525681Y-56344029D01*
X120575151Y-56319295D01*
X120692122Y-56319295D01*
X120741590Y-56344029D01*
G37*
G36*
X121064192Y-57208184D02*
G01*
X114679271Y-57208184D01*
X114679271Y-56244295D01*
X114768160Y-56244295D01*
X114768160Y-57044295D01*
X114769601Y-57058927D01*
X114780800Y-57085963D01*
X114801492Y-57106655D01*
X114828528Y-57117854D01*
X114843160Y-57119295D01*
X115033636Y-57119295D01*
X115041041Y-57118565D01*
X115043016Y-57118706D01*
X115045613Y-57118115D01*
X115048268Y-57117854D01*
X115050099Y-57117095D01*
X115057353Y-57115446D01*
X115171639Y-57077351D01*
X115185064Y-57071357D01*
X115187099Y-57069591D01*
X115189590Y-57068560D01*
X115200955Y-57059233D01*
X115277146Y-56983041D01*
X115281863Y-56977292D01*
X115283362Y-56975993D01*
X115284783Y-56973734D01*
X115286473Y-56971676D01*
X115287230Y-56969846D01*
X115291194Y-56963550D01*
X115329289Y-56887360D01*
X115329698Y-56886290D01*
X115330021Y-56885855D01*
X115332219Y-56879703D01*
X115334544Y-56873628D01*
X115334582Y-56873089D01*
X115334968Y-56872010D01*
X115373064Y-56719628D01*
X115373439Y-56717091D01*
X115373862Y-56716070D01*
X115374404Y-56710557D01*
X115375214Y-56705084D01*
X115375051Y-56703991D01*
X115375303Y-56701438D01*
X115375303Y-56587152D01*
X115375051Y-56584598D01*
X115375214Y-56583506D01*
X115374404Y-56578032D01*
X115373862Y-56572520D01*
X115373439Y-56571498D01*
X115373064Y-56568962D01*
X115334968Y-56416580D01*
X115334582Y-56415500D01*
X115334544Y-56414962D01*
X115332219Y-56408886D01*
X115330021Y-56402735D01*
X115329698Y-56402299D01*
X115329289Y-56401230D01*
X115291194Y-56325039D01*
X115287231Y-56318744D01*
X115286473Y-56316912D01*
X115284781Y-56314850D01*
X115283362Y-56312596D01*
X115281865Y-56311297D01*
X115277145Y-56305547D01*
X115215893Y-56244295D01*
X115568160Y-56244295D01*
X115568160Y-57044295D01*
X115569601Y-57058927D01*
X115580800Y-57085963D01*
X115601492Y-57106655D01*
X115628528Y-57117854D01*
X115657792Y-57117854D01*
X115684828Y-57106655D01*
X115705520Y-57085963D01*
X115716719Y-57058927D01*
X115718160Y-57044295D01*
X115718160Y-56396676D01*
X116520540Y-56396676D01*
X116520540Y-56472866D01*
X116521981Y-56487498D01*
X116523011Y-56489986D01*
X116523203Y-56492676D01*
X116528458Y-56506407D01*
X116566554Y-56582598D01*
X116570517Y-56588894D01*
X116571276Y-56590725D01*
X116572967Y-56592786D01*
X116574387Y-56595041D01*
X116575882Y-56596337D01*
X116580603Y-56602090D01*
X116618698Y-56640185D01*
X116624447Y-56644903D01*
X116625747Y-56646402D01*
X116628006Y-56647823D01*
X116630063Y-56649512D01*
X116631890Y-56650269D01*
X116638190Y-56654234D01*
X116714380Y-56692329D01*
X116715449Y-56692738D01*
X116715885Y-56693061D01*
X116722030Y-56695256D01*
X116728112Y-56697584D01*
X116728651Y-56697622D01*
X116729731Y-56698008D01*
X116874125Y-56734106D01*
X116932066Y-56763077D01*
X116952949Y-56783960D01*
X116977683Y-56833428D01*
X116977683Y-56874209D01*
X116952948Y-56923677D01*
X116932065Y-56944561D01*
X116882597Y-56969295D01*
X116721996Y-56969295D01*
X116619257Y-56935049D01*
X116604920Y-56931789D01*
X116575730Y-56933864D01*
X116549557Y-56946950D01*
X116530383Y-56969058D01*
X116521129Y-56996820D01*
X116523204Y-57026010D01*
X116536290Y-57052183D01*
X116558398Y-57071357D01*
X116571823Y-57077351D01*
X116686109Y-57115446D01*
X116693362Y-57117095D01*
X116695194Y-57117854D01*
X116697848Y-57118115D01*
X116700446Y-57118706D01*
X116702420Y-57118565D01*
X116709826Y-57119295D01*
X116900302Y-57119295D01*
X116914934Y-57117854D01*
X116917423Y-57116822D01*
X116920111Y-57116632D01*
X116933843Y-57111377D01*
X117010034Y-57073282D01*
X117016333Y-57069317D01*
X117018161Y-57068560D01*
X117020217Y-57066872D01*
X117022477Y-57065450D01*
X117023777Y-57063950D01*
X117029527Y-57059232D01*
X117067622Y-57021136D01*
X117072339Y-57015387D01*
X117073838Y-57014088D01*
X117075259Y-57011829D01*
X117076949Y-57009771D01*
X117077706Y-57007941D01*
X117081670Y-57001645D01*
X117119765Y-56925455D01*
X117125020Y-56911723D01*
X117125210Y-56909035D01*
X117126242Y-56906546D01*
X117127683Y-56891914D01*
X117127683Y-56815723D01*
X117126242Y-56801091D01*
X117125210Y-56798601D01*
X117125020Y-56795914D01*
X117119765Y-56782182D01*
X117081670Y-56705992D01*
X117077705Y-56699692D01*
X117076948Y-56697865D01*
X117075259Y-56695808D01*
X117073838Y-56693549D01*
X117072339Y-56692249D01*
X117067621Y-56686500D01*
X117029526Y-56648405D01*
X117023773Y-56643684D01*
X117022477Y-56642189D01*
X117020222Y-56640769D01*
X117018161Y-56639078D01*
X117016330Y-56638319D01*
X117010034Y-56634356D01*
X116933843Y-56596260D01*
X116932773Y-56595850D01*
X116932338Y-56595528D01*
X116926201Y-56593335D01*
X116920112Y-56591005D01*
X116919571Y-56590966D01*
X116918492Y-56590581D01*
X116904776Y-56587152D01*
X117282445Y-56587152D01*
X117282445Y-56701438D01*
X117282696Y-56703991D01*
X117282534Y-56705084D01*
X117283343Y-56710558D01*
X117283886Y-56716070D01*
X117284308Y-56717090D01*
X117284684Y-56719629D01*
X117322780Y-56872010D01*
X117323165Y-56873089D01*
X117323204Y-56873628D01*
X117325528Y-56879703D01*
X117327727Y-56885855D01*
X117328049Y-56886290D01*
X117328459Y-56887360D01*
X117366554Y-56963550D01*
X117370517Y-56969846D01*
X117371275Y-56971676D01*
X117372964Y-56973734D01*
X117374386Y-56975993D01*
X117375884Y-56977292D01*
X117380603Y-56983042D01*
X117456793Y-57059233D01*
X117468158Y-57068560D01*
X117470648Y-57069591D01*
X117472684Y-57071357D01*
X117486109Y-57077351D01*
X117600395Y-57115446D01*
X117607648Y-57117095D01*
X117609480Y-57117854D01*
X117612134Y-57118115D01*
X117614732Y-57118706D01*
X117616706Y-57118565D01*
X117624112Y-57119295D01*
X117700303Y-57119295D01*
X117707708Y-57118565D01*
X117709683Y-57118706D01*
X117712280Y-57118115D01*
X117714935Y-57117854D01*
X117716766Y-57117095D01*
X117724020Y-57115446D01*
X117838305Y-57077351D01*
X117851731Y-57071357D01*
X117853767Y-57069590D01*
X117856256Y-57068560D01*
X117867621Y-57059233D01*
X117905717Y-57021137D01*
X117915045Y-57009772D01*
X117926243Y-56982735D01*
X117926243Y-56953472D01*
X117915045Y-56926436D01*
X117894352Y-56905743D01*
X117867316Y-56894545D01*
X117838053Y-56894545D01*
X117811016Y-56905743D01*
X117799651Y-56915071D01*
X117774074Y-56940648D01*
X117688133Y-56969295D01*
X117636282Y-56969295D01*
X117550340Y-56940648D01*
X117495275Y-56885582D01*
X117466305Y-56827642D01*
X117432445Y-56692202D01*
X117432445Y-56596387D01*
X117466305Y-56460946D01*
X117495275Y-56403006D01*
X117550339Y-56347942D01*
X117636282Y-56319295D01*
X117688133Y-56319295D01*
X117774074Y-56347942D01*
X117799652Y-56373519D01*
X117811017Y-56382846D01*
X117838053Y-56394044D01*
X117867316Y-56394044D01*
X117894352Y-56382845D01*
X117915045Y-56362152D01*
X117926243Y-56335115D01*
X117926243Y-56305852D01*
X117915044Y-56278816D01*
X117905716Y-56267451D01*
X117882559Y-56244295D01*
X118120541Y-56244295D01*
X118120541Y-57044295D01*
X118121982Y-57058927D01*
X118133181Y-57085963D01*
X118153873Y-57106655D01*
X118180909Y-57117854D01*
X118210173Y-57117854D01*
X118237209Y-57106655D01*
X118257901Y-57085963D01*
X118269100Y-57058927D01*
X118270541Y-57044295D01*
X118270541Y-56732504D01*
X118301711Y-56701333D01*
X118592684Y-57089295D01*
X118602616Y-57100136D01*
X118627797Y-57115045D01*
X118656766Y-57119184D01*
X118685114Y-57111921D01*
X118708525Y-57094363D01*
X118723434Y-57069182D01*
X118727573Y-57040213D01*
X118720310Y-57011865D01*
X118712684Y-56999295D01*
X118408854Y-56594190D01*
X118705717Y-56297328D01*
X118715045Y-56285963D01*
X118726243Y-56258926D01*
X118726243Y-56244295D01*
X119530065Y-56244295D01*
X119530065Y-57044295D01*
X119531506Y-57058927D01*
X119542705Y-57085963D01*
X119563397Y-57106655D01*
X119590433Y-57117854D01*
X119605065Y-57119295D01*
X119795541Y-57119295D01*
X119802946Y-57118565D01*
X119804921Y-57118706D01*
X119807518Y-57118115D01*
X119810173Y-57117854D01*
X119812004Y-57117095D01*
X119819258Y-57115446D01*
X119933544Y-57077351D01*
X119946969Y-57071357D01*
X119949004Y-57069591D01*
X119951495Y-57068560D01*
X119962860Y-57059233D01*
X120039051Y-56983041D01*
X120043768Y-56977292D01*
X120045267Y-56975993D01*
X120046688Y-56973734D01*
X120048378Y-56971676D01*
X120049135Y-56969846D01*
X120053099Y-56963550D01*
X120091194Y-56887360D01*
X120091603Y-56886290D01*
X120091926Y-56885855D01*
X120094124Y-56879703D01*
X120096449Y-56873628D01*
X120096487Y-56873089D01*
X120096873Y-56872010D01*
X120134969Y-56719628D01*
X120135344Y-56717091D01*
X120135767Y-56716070D01*
X120136309Y-56710557D01*
X120137119Y-56705084D01*
X120136956Y-56703991D01*
X120137208Y-56701438D01*
X120137208Y-56587152D01*
X120136956Y-56584598D01*
X120137119Y-56583506D01*
X120136309Y-56578032D01*
X120135767Y-56572520D01*
X120135344Y-56571498D01*
X120134969Y-56568962D01*
X120120469Y-56510961D01*
X120291969Y-56510961D01*
X120291969Y-56777628D01*
X120292220Y-56780181D01*
X120292058Y-56781274D01*
X120292867Y-56786748D01*
X120293410Y-56792260D01*
X120293832Y-56793280D01*
X120294208Y-56795819D01*
X120332304Y-56948200D01*
X120337251Y-56962045D01*
X120340570Y-56966525D01*
X120342704Y-56971676D01*
X120352032Y-56983042D01*
X120428222Y-57059233D01*
X120433971Y-57063951D01*
X120435271Y-57065450D01*
X120437530Y-57066871D01*
X120439587Y-57068560D01*
X120441414Y-57069317D01*
X120447714Y-57073282D01*
X120523905Y-57111377D01*
X120537637Y-57116632D01*
X120540324Y-57116822D01*
X120542814Y-57117854D01*
X120557446Y-57119295D01*
X120709827Y-57119295D01*
X120724459Y-57117854D01*
X120726948Y-57116822D01*
X120729636Y-57116632D01*
X120743368Y-57111377D01*
X120819558Y-57073282D01*
X120825857Y-57069317D01*
X120827685Y-57068560D01*
X120829741Y-57066871D01*
X120832001Y-57065450D01*
X120833300Y-57063951D01*
X120839050Y-57059233D01*
X120915241Y-56983042D01*
X120924568Y-56971677D01*
X120926701Y-56966525D01*
X120930022Y-56962045D01*
X120934969Y-56948199D01*
X120973064Y-56795818D01*
X120973439Y-56793280D01*
X120973862Y-56792260D01*
X120974403Y-56786757D01*
X120975215Y-56781273D01*
X120975051Y-56780177D01*
X120975303Y-56777628D01*
X120975303Y-56510961D01*
X120975051Y-56508411D01*
X120975215Y-56507316D01*
X120974403Y-56501831D01*
X120973862Y-56496329D01*
X120973439Y-56495308D01*
X120973064Y-56492771D01*
X120934969Y-56340390D01*
X120930022Y-56326544D01*
X120926701Y-56322063D01*
X120924568Y-56316912D01*
X120915241Y-56305547D01*
X120839050Y-56229357D01*
X120833300Y-56224638D01*
X120832001Y-56223140D01*
X120829742Y-56221718D01*
X120827684Y-56220029D01*
X120825854Y-56219271D01*
X120819558Y-56215308D01*
X120743368Y-56177213D01*
X120729636Y-56171958D01*
X120726948Y-56171767D01*
X120724459Y-56170736D01*
X120709827Y-56169295D01*
X120557446Y-56169295D01*
X120542814Y-56170736D01*
X120540324Y-56171767D01*
X120537637Y-56171958D01*
X120523905Y-56177213D01*
X120447714Y-56215308D01*
X120441419Y-56219270D01*
X120439587Y-56220029D01*
X120437525Y-56221720D01*
X120435271Y-56223140D01*
X120433972Y-56224636D01*
X120428222Y-56229357D01*
X120352032Y-56305547D01*
X120342705Y-56316912D01*
X120340571Y-56322062D01*
X120337251Y-56326544D01*
X120332304Y-56340389D01*
X120294208Y-56492770D01*
X120293832Y-56495308D01*
X120293410Y-56496329D01*
X120292867Y-56501840D01*
X120292058Y-56507315D01*
X120292220Y-56508407D01*
X120291969Y-56510961D01*
X120120469Y-56510961D01*
X120096873Y-56416580D01*
X120096487Y-56415500D01*
X120096449Y-56414962D01*
X120094124Y-56408886D01*
X120091926Y-56402735D01*
X120091603Y-56402299D01*
X120091194Y-56401230D01*
X120053099Y-56325039D01*
X120049136Y-56318744D01*
X120048378Y-56316912D01*
X120046686Y-56314850D01*
X120045267Y-56312596D01*
X120043770Y-56311297D01*
X120039050Y-56305547D01*
X119962860Y-56229357D01*
X119951495Y-56220030D01*
X119949004Y-56218998D01*
X119946969Y-56217233D01*
X119933544Y-56211239D01*
X119819258Y-56173144D01*
X119812004Y-56171494D01*
X119810173Y-56170736D01*
X119807518Y-56170474D01*
X119804921Y-56169884D01*
X119802946Y-56170024D01*
X119795541Y-56169295D01*
X119605065Y-56169295D01*
X119590433Y-56170736D01*
X119563397Y-56181935D01*
X119542705Y-56202627D01*
X119531506Y-56229663D01*
X119530065Y-56244295D01*
X118726243Y-56244295D01*
X118726243Y-56229663D01*
X118715045Y-56202627D01*
X118694352Y-56181934D01*
X118667316Y-56170736D01*
X118638053Y-56170736D01*
X118611016Y-56181934D01*
X118599651Y-56191262D01*
X118270541Y-56520372D01*
X118270541Y-56244295D01*
X118269100Y-56229663D01*
X118257901Y-56202627D01*
X118237209Y-56181935D01*
X118210173Y-56170736D01*
X118180909Y-56170736D01*
X118153873Y-56181935D01*
X118133181Y-56202627D01*
X118121982Y-56229663D01*
X118120541Y-56244295D01*
X117882559Y-56244295D01*
X117867620Y-56229356D01*
X117856255Y-56220029D01*
X117853766Y-56218998D01*
X117851731Y-56217233D01*
X117838305Y-56211239D01*
X117724020Y-56173144D01*
X117716766Y-56171494D01*
X117714935Y-56170736D01*
X117712280Y-56170474D01*
X117709683Y-56169884D01*
X117707708Y-56170024D01*
X117700303Y-56169295D01*
X117624112Y-56169295D01*
X117616706Y-56170024D01*
X117614732Y-56169884D01*
X117612134Y-56170474D01*
X117609480Y-56170736D01*
X117607648Y-56171494D01*
X117600395Y-56173144D01*
X117486109Y-56211239D01*
X117472684Y-56217233D01*
X117470650Y-56218996D01*
X117468158Y-56220029D01*
X117456793Y-56229357D01*
X117380603Y-56305547D01*
X117375884Y-56311296D01*
X117374386Y-56312596D01*
X117372964Y-56314855D01*
X117371276Y-56316912D01*
X117370518Y-56318739D01*
X117366554Y-56325039D01*
X117328459Y-56401230D01*
X117328049Y-56402299D01*
X117327727Y-56402735D01*
X117325528Y-56408886D01*
X117323204Y-56414962D01*
X117323165Y-56415500D01*
X117322780Y-56416580D01*
X117284684Y-56568961D01*
X117284308Y-56571499D01*
X117283886Y-56572520D01*
X117283343Y-56578031D01*
X117282534Y-56583506D01*
X117282696Y-56584598D01*
X117282445Y-56587152D01*
X116904776Y-56587152D01*
X116774096Y-56554482D01*
X116716158Y-56525513D01*
X116695275Y-56504630D01*
X116670540Y-56455160D01*
X116670540Y-56414381D01*
X116695275Y-56364911D01*
X116716158Y-56344029D01*
X116765626Y-56319295D01*
X116926228Y-56319295D01*
X117028966Y-56353541D01*
X117043303Y-56356801D01*
X117072493Y-56354726D01*
X117098666Y-56341640D01*
X117117840Y-56319533D01*
X117127094Y-56291770D01*
X117125019Y-56262580D01*
X117111933Y-56236407D01*
X117089826Y-56217233D01*
X117076400Y-56211239D01*
X116962115Y-56173144D01*
X116954861Y-56171494D01*
X116953030Y-56170736D01*
X116950375Y-56170474D01*
X116947778Y-56169884D01*
X116945803Y-56170024D01*
X116938398Y-56169295D01*
X116747921Y-56169295D01*
X116733289Y-56170736D01*
X116730799Y-56171767D01*
X116728112Y-56171958D01*
X116714380Y-56177213D01*
X116638190Y-56215308D01*
X116631890Y-56219272D01*
X116630063Y-56220030D01*
X116628006Y-56221718D01*
X116625747Y-56223140D01*
X116624447Y-56224638D01*
X116618698Y-56229357D01*
X116580603Y-56267452D01*
X116575882Y-56273204D01*
X116574387Y-56274501D01*
X116572967Y-56276755D01*
X116571276Y-56278817D01*
X116570517Y-56280647D01*
X116566554Y-56286944D01*
X116528458Y-56363135D01*
X116523203Y-56376866D01*
X116523011Y-56379555D01*
X116521981Y-56382044D01*
X116520540Y-56396676D01*
X115718160Y-56396676D01*
X115718160Y-56244295D01*
X115716719Y-56229663D01*
X115705520Y-56202627D01*
X115684828Y-56181935D01*
X115657792Y-56170736D01*
X115628528Y-56170736D01*
X115601492Y-56181935D01*
X115580800Y-56202627D01*
X115569601Y-56229663D01*
X115568160Y-56244295D01*
X115215893Y-56244295D01*
X115200955Y-56229357D01*
X115189590Y-56220030D01*
X115187099Y-56218998D01*
X115185064Y-56217233D01*
X115171639Y-56211239D01*
X115057353Y-56173144D01*
X115050099Y-56171494D01*
X115048268Y-56170736D01*
X115045613Y-56170474D01*
X115043016Y-56169884D01*
X115041041Y-56170024D01*
X115033636Y-56169295D01*
X114843160Y-56169295D01*
X114828528Y-56170736D01*
X114801492Y-56181935D01*
X114780800Y-56202627D01*
X114769601Y-56229663D01*
X114768160Y-56244295D01*
X114679271Y-56244295D01*
X114679271Y-56080406D01*
X121064192Y-56080406D01*
X121064192Y-57208184D01*
G37*
G36*
X109630020Y-109148930D02*
G01*
X106688400Y-109148930D01*
X106688400Y-107972199D01*
X106799511Y-107972199D01*
X106802771Y-107986536D01*
X107136104Y-108986536D01*
X107142098Y-108999961D01*
X107145608Y-109004008D01*
X107148005Y-109008802D01*
X107155113Y-109014967D01*
X107161272Y-109022068D01*
X107166061Y-109024462D01*
X107170112Y-109027976D01*
X107179037Y-109030950D01*
X107187445Y-109035155D01*
X107192789Y-109035534D01*
X107197875Y-109037230D01*
X107207255Y-109036563D01*
X107216635Y-109037230D01*
X107221720Y-109035534D01*
X107227065Y-109035155D01*
X107235475Y-109030949D01*
X107244397Y-109027976D01*
X107248444Y-109024465D01*
X107253238Y-109022069D01*
X107259401Y-109014963D01*
X107266505Y-109008802D01*
X107268900Y-109004010D01*
X107272412Y-108999962D01*
X107278406Y-108986536D01*
X107476788Y-108391390D01*
X107751303Y-108391390D01*
X107751303Y-108534247D01*
X107751554Y-108536800D01*
X107751392Y-108537893D01*
X107752201Y-108543366D01*
X107752744Y-108548879D01*
X107753166Y-108549900D01*
X107753542Y-108552437D01*
X107801161Y-108742913D01*
X107801546Y-108743992D01*
X107801585Y-108744532D01*
X107803912Y-108750613D01*
X107806108Y-108756759D01*
X107806430Y-108757194D01*
X107806840Y-108758264D01*
X107854459Y-108853502D01*
X107858422Y-108859798D01*
X107859180Y-108861628D01*
X107860869Y-108863686D01*
X107862291Y-108865945D01*
X107863789Y-108867244D01*
X107868508Y-108872994D01*
X107963746Y-108968233D01*
X107975111Y-108977561D01*
X107977601Y-108978592D01*
X107979636Y-108980357D01*
X107993062Y-108986351D01*
X108135918Y-109033970D01*
X108143173Y-109035619D01*
X108145004Y-109036378D01*
X108147657Y-109036639D01*
X108150255Y-109037230D01*
X108152229Y-109037089D01*
X108159636Y-109037819D01*
X108254874Y-109037819D01*
X108262279Y-109037089D01*
X108264254Y-109037230D01*
X108266851Y-109036639D01*
X108269506Y-109036378D01*
X108271337Y-109035619D01*
X108278591Y-109033970D01*
X108421448Y-108986351D01*
X108434873Y-108980357D01*
X108436908Y-108978591D01*
X108439399Y-108977560D01*
X108450765Y-108968232D01*
X108498383Y-108920613D01*
X108507711Y-108909247D01*
X108518909Y-108882211D01*
X108518909Y-108852948D01*
X108507710Y-108825912D01*
X108487017Y-108805219D01*
X108459981Y-108794021D01*
X108430718Y-108794021D01*
X108403682Y-108805220D01*
X108392316Y-108814548D01*
X108357217Y-108849647D01*
X108242704Y-108887819D01*
X108171806Y-108887819D01*
X108057293Y-108849648D01*
X107983180Y-108775534D01*
X107944686Y-108698547D01*
X107901303Y-108525013D01*
X107901303Y-108400624D01*
X107903611Y-108391390D01*
X108751303Y-108391390D01*
X108751303Y-108534247D01*
X108751554Y-108536800D01*
X108751392Y-108537893D01*
X108752201Y-108543366D01*
X108752744Y-108548879D01*
X108753166Y-108549900D01*
X108753542Y-108552437D01*
X108801161Y-108742913D01*
X108801546Y-108743992D01*
X108801585Y-108744532D01*
X108803912Y-108750613D01*
X108806108Y-108756759D01*
X108806430Y-108757194D01*
X108806840Y-108758264D01*
X108854459Y-108853502D01*
X108858422Y-108859798D01*
X108859180Y-108861628D01*
X108860869Y-108863686D01*
X108862291Y-108865945D01*
X108863789Y-108867244D01*
X108868508Y-108872994D01*
X108963746Y-108968233D01*
X108975111Y-108977561D01*
X108977601Y-108978592D01*
X108979636Y-108980357D01*
X108993062Y-108986351D01*
X109135918Y-109033970D01*
X109143173Y-109035619D01*
X109145004Y-109036378D01*
X109147657Y-109036639D01*
X109150255Y-109037230D01*
X109152229Y-109037089D01*
X109159636Y-109037819D01*
X109254874Y-109037819D01*
X109262279Y-109037089D01*
X109264254Y-109037230D01*
X109266851Y-109036639D01*
X109269506Y-109036378D01*
X109271337Y-109035619D01*
X109278591Y-109033970D01*
X109421448Y-108986351D01*
X109434873Y-108980357D01*
X109436908Y-108978591D01*
X109439399Y-108977560D01*
X109450765Y-108968232D01*
X109498383Y-108920613D01*
X109507711Y-108909247D01*
X109518909Y-108882211D01*
X109518909Y-108852948D01*
X109507710Y-108825912D01*
X109487017Y-108805219D01*
X109459981Y-108794021D01*
X109430718Y-108794021D01*
X109403682Y-108805220D01*
X109392316Y-108814548D01*
X109357217Y-108849647D01*
X109242704Y-108887819D01*
X109171806Y-108887819D01*
X109057293Y-108849648D01*
X108983180Y-108775534D01*
X108944686Y-108698547D01*
X108901303Y-108525013D01*
X108901303Y-108400624D01*
X108944686Y-108227090D01*
X108983180Y-108150103D01*
X109057293Y-108075990D01*
X109171806Y-108037819D01*
X109242704Y-108037819D01*
X109357217Y-108075990D01*
X109392317Y-108111090D01*
X109403682Y-108120417D01*
X109430718Y-108131616D01*
X109459981Y-108131616D01*
X109487017Y-108120417D01*
X109507710Y-108099724D01*
X109518909Y-108072688D01*
X109518909Y-108043425D01*
X109507710Y-108016389D01*
X109498383Y-108005024D01*
X109450764Y-107957405D01*
X109439399Y-107948078D01*
X109436908Y-107947046D01*
X109434873Y-107945281D01*
X109421448Y-107939287D01*
X109278591Y-107891668D01*
X109271337Y-107890018D01*
X109269506Y-107889260D01*
X109266851Y-107888998D01*
X109264254Y-107888408D01*
X109262279Y-107888548D01*
X109254874Y-107887819D01*
X109159636Y-107887819D01*
X109152229Y-107888548D01*
X109150255Y-107888408D01*
X109147657Y-107888998D01*
X109145004Y-107889260D01*
X109143173Y-107890018D01*
X109135918Y-107891668D01*
X108993062Y-107939287D01*
X108979636Y-107945281D01*
X108977601Y-107947045D01*
X108975111Y-107948077D01*
X108963746Y-107957405D01*
X108868508Y-108052643D01*
X108863789Y-108058392D01*
X108862291Y-108059692D01*
X108860869Y-108061951D01*
X108859181Y-108064008D01*
X108858423Y-108065835D01*
X108854459Y-108072135D01*
X108806840Y-108167373D01*
X108806430Y-108168442D01*
X108806108Y-108168878D01*
X108803912Y-108175023D01*
X108801585Y-108181105D01*
X108801546Y-108181644D01*
X108801161Y-108182724D01*
X108753542Y-108373200D01*
X108753166Y-108375736D01*
X108752744Y-108376758D01*
X108752201Y-108382270D01*
X108751392Y-108387744D01*
X108751554Y-108388836D01*
X108751303Y-108391390D01*
X107903611Y-108391390D01*
X107944686Y-108227090D01*
X107983180Y-108150103D01*
X108057293Y-108075990D01*
X108171806Y-108037819D01*
X108242704Y-108037819D01*
X108357217Y-108075990D01*
X108392317Y-108111090D01*
X108403682Y-108120417D01*
X108430718Y-108131616D01*
X108459981Y-108131616D01*
X108487017Y-108120417D01*
X108507710Y-108099724D01*
X108518909Y-108072688D01*
X108518909Y-108043425D01*
X108507710Y-108016389D01*
X108498383Y-108005024D01*
X108450764Y-107957405D01*
X108439399Y-107948078D01*
X108436908Y-107947046D01*
X108434873Y-107945281D01*
X108421448Y-107939287D01*
X108278591Y-107891668D01*
X108271337Y-107890018D01*
X108269506Y-107889260D01*
X108266851Y-107888998D01*
X108264254Y-107888408D01*
X108262279Y-107888548D01*
X108254874Y-107887819D01*
X108159636Y-107887819D01*
X108152229Y-107888548D01*
X108150255Y-107888408D01*
X108147657Y-107888998D01*
X108145004Y-107889260D01*
X108143173Y-107890018D01*
X108135918Y-107891668D01*
X107993062Y-107939287D01*
X107979636Y-107945281D01*
X107977601Y-107947045D01*
X107975111Y-107948077D01*
X107963746Y-107957405D01*
X107868508Y-108052643D01*
X107863789Y-108058392D01*
X107862291Y-108059692D01*
X107860869Y-108061951D01*
X107859181Y-108064008D01*
X107858423Y-108065835D01*
X107854459Y-108072135D01*
X107806840Y-108167373D01*
X107806430Y-108168442D01*
X107806108Y-108168878D01*
X107803912Y-108175023D01*
X107801585Y-108181105D01*
X107801546Y-108181644D01*
X107801161Y-108182724D01*
X107753542Y-108373200D01*
X107753166Y-108375736D01*
X107752744Y-108376758D01*
X107752201Y-108382270D01*
X107751392Y-108387744D01*
X107751554Y-108388836D01*
X107751303Y-108391390D01*
X107476788Y-108391390D01*
X107611739Y-107986536D01*
X107614999Y-107972200D01*
X107612924Y-107943010D01*
X107599838Y-107916836D01*
X107577730Y-107897662D01*
X107549968Y-107888408D01*
X107520778Y-107890483D01*
X107494605Y-107903570D01*
X107475431Y-107925677D01*
X107469437Y-107939102D01*
X107207255Y-108725648D01*
X106945073Y-107939102D01*
X106939079Y-107925676D01*
X106919905Y-107903569D01*
X106893732Y-107890483D01*
X106864542Y-107888408D01*
X106836779Y-107897662D01*
X106814672Y-107916836D01*
X106801586Y-107943009D01*
X106799511Y-107972199D01*
X106688400Y-107972199D01*
X106688400Y-107776708D01*
X109630020Y-107776708D01*
X109630020Y-109148930D01*
G37*
G36*
X120123989Y-109148930D02*
G01*
X116896871Y-109148930D01*
X116896871Y-107948187D01*
X117007982Y-107948187D01*
X117007982Y-107977451D01*
X117019181Y-108004487D01*
X117039873Y-108025179D01*
X117066909Y-108036378D01*
X117081541Y-108037819D01*
X117535306Y-108037819D01*
X117310812Y-108294383D01*
X117306290Y-108300707D01*
X117304895Y-108302103D01*
X117304346Y-108303426D01*
X117302261Y-108306344D01*
X117298359Y-108317881D01*
X117293696Y-108329139D01*
X117293696Y-108331669D01*
X117292886Y-108334065D01*
X117293696Y-108346218D01*
X117293696Y-108358403D01*
X117294663Y-108360739D01*
X117294832Y-108363263D01*
X117300234Y-108374188D01*
X117304895Y-108385439D01*
X117306681Y-108387225D01*
X117307804Y-108389495D01*
X117316976Y-108397520D01*
X117325587Y-108406131D01*
X117327923Y-108407099D01*
X117329828Y-108408765D01*
X117341365Y-108412666D01*
X117352623Y-108417330D01*
X117356193Y-108417681D01*
X117357549Y-108418140D01*
X117359516Y-108418008D01*
X117367255Y-108418771D01*
X117492407Y-108418771D01*
X117560923Y-108453029D01*
X117591330Y-108483436D01*
X117625588Y-108551952D01*
X117625588Y-108754637D01*
X117591329Y-108823153D01*
X117560922Y-108853561D01*
X117492407Y-108887819D01*
X117242103Y-108887819D01*
X117173587Y-108853561D01*
X117134575Y-108814548D01*
X117123209Y-108805220D01*
X117096173Y-108794021D01*
X117066910Y-108794021D01*
X117039874Y-108805219D01*
X117019181Y-108825912D01*
X117007982Y-108852948D01*
X117007982Y-108882211D01*
X117019180Y-108909247D01*
X117028507Y-108920612D01*
X117076126Y-108968232D01*
X117081875Y-108972950D01*
X117083176Y-108974450D01*
X117085435Y-108975872D01*
X117087492Y-108977560D01*
X117089319Y-108978317D01*
X117095619Y-108982282D01*
X117190857Y-109029901D01*
X117204588Y-109035156D01*
X117207277Y-109035347D01*
X117209766Y-109036378D01*
X117224398Y-109037819D01*
X117510112Y-109037819D01*
X117524744Y-109036378D01*
X117527233Y-109035346D01*
X117529921Y-109035156D01*
X117543653Y-109029901D01*
X117638891Y-108982282D01*
X117645190Y-108978317D01*
X117647018Y-108977560D01*
X117649074Y-108975872D01*
X117651334Y-108974450D01*
X117652634Y-108972950D01*
X117658384Y-108968232D01*
X117706002Y-108920613D01*
X117710720Y-108914863D01*
X117712219Y-108913564D01*
X117713640Y-108911305D01*
X117715330Y-108909247D01*
X117716087Y-108907417D01*
X117720051Y-108901121D01*
X117720327Y-108900569D01*
X118007982Y-108900569D01*
X118007982Y-108929832D01*
X118013019Y-108941991D01*
X118019181Y-108956868D01*
X118028508Y-108968233D01*
X118076127Y-109015852D01*
X118087492Y-109025179D01*
X118114528Y-109036378D01*
X118114529Y-109036378D01*
X118143791Y-109036378D01*
X118143792Y-109036378D01*
X118170828Y-109025179D01*
X118182193Y-109015852D01*
X118229812Y-108968233D01*
X118239139Y-108956868D01*
X118250338Y-108929832D01*
X118250338Y-108900569D01*
X118250292Y-108900459D01*
X118239140Y-108873533D01*
X118229812Y-108862167D01*
X118182194Y-108814548D01*
X118170828Y-108805220D01*
X118170827Y-108805219D01*
X118154990Y-108798659D01*
X118143792Y-108794021D01*
X118143791Y-108794021D01*
X118114528Y-108794021D01*
X118103330Y-108798659D01*
X118087493Y-108805219D01*
X118087492Y-108805220D01*
X118076126Y-108814548D01*
X118028507Y-108862168D01*
X118019180Y-108873533D01*
X118007982Y-108900569D01*
X117720327Y-108900569D01*
X117767670Y-108805883D01*
X117772925Y-108792152D01*
X117773116Y-108789462D01*
X117774147Y-108786974D01*
X117775588Y-108772342D01*
X117775588Y-108534247D01*
X117774147Y-108519615D01*
X117773116Y-108517126D01*
X117772925Y-108514437D01*
X117767670Y-108500706D01*
X117720051Y-108405468D01*
X117716086Y-108399168D01*
X117715329Y-108397341D01*
X117713640Y-108395284D01*
X117712219Y-108393025D01*
X117710720Y-108391725D01*
X117706002Y-108385976D01*
X117658383Y-108338357D01*
X117652633Y-108333638D01*
X117651334Y-108332140D01*
X117649074Y-108330718D01*
X117647018Y-108329030D01*
X117645190Y-108328272D01*
X117638891Y-108324308D01*
X117543653Y-108276689D01*
X117530135Y-108271516D01*
X117757031Y-108012207D01*
X117761552Y-108005882D01*
X117762948Y-108004487D01*
X117763496Y-108003163D01*
X117765582Y-108000246D01*
X117769483Y-107988708D01*
X117774147Y-107977451D01*
X117774147Y-107974920D01*
X117774957Y-107972525D01*
X117774147Y-107960371D01*
X117774147Y-107948187D01*
X118436553Y-107948187D01*
X118436553Y-107977451D01*
X118447752Y-108004487D01*
X118468444Y-108025179D01*
X118495480Y-108036378D01*
X118510112Y-108037819D01*
X118963877Y-108037819D01*
X118739383Y-108294383D01*
X118734861Y-108300707D01*
X118733466Y-108302103D01*
X118732917Y-108303426D01*
X118730832Y-108306344D01*
X118726930Y-108317881D01*
X118722267Y-108329139D01*
X118722267Y-108331669D01*
X118721457Y-108334065D01*
X118722267Y-108346218D01*
X118722267Y-108358403D01*
X118723234Y-108360739D01*
X118723403Y-108363263D01*
X118728805Y-108374188D01*
X118733466Y-108385439D01*
X118735252Y-108387225D01*
X118736375Y-108389495D01*
X118745547Y-108397520D01*
X118754158Y-108406131D01*
X118756494Y-108407099D01*
X118758399Y-108408765D01*
X118769936Y-108412666D01*
X118781194Y-108417330D01*
X118784764Y-108417681D01*
X118786120Y-108418140D01*
X118788087Y-108418008D01*
X118795826Y-108418771D01*
X118920978Y-108418771D01*
X118989494Y-108453029D01*
X119019901Y-108483436D01*
X119054159Y-108551952D01*
X119054159Y-108754637D01*
X119019900Y-108823153D01*
X118989493Y-108853561D01*
X118920978Y-108887819D01*
X118670674Y-108887819D01*
X118602158Y-108853561D01*
X118563146Y-108814548D01*
X118551780Y-108805220D01*
X118524744Y-108794021D01*
X118495481Y-108794021D01*
X118468445Y-108805219D01*
X118447752Y-108825912D01*
X118436553Y-108852948D01*
X118436553Y-108882211D01*
X118447751Y-108909247D01*
X118457078Y-108920612D01*
X118504697Y-108968232D01*
X118510446Y-108972950D01*
X118511747Y-108974450D01*
X118514006Y-108975872D01*
X118516063Y-108977560D01*
X118517890Y-108978317D01*
X118524190Y-108982282D01*
X118619428Y-109029901D01*
X118633159Y-109035156D01*
X118635848Y-109035347D01*
X118638337Y-109036378D01*
X118652969Y-109037819D01*
X118938683Y-109037819D01*
X118953315Y-109036378D01*
X118955804Y-109035346D01*
X118958492Y-109035156D01*
X118972224Y-109029901D01*
X119067462Y-108982282D01*
X119073761Y-108978317D01*
X119075589Y-108977560D01*
X119077645Y-108975872D01*
X119079905Y-108974450D01*
X119081205Y-108972950D01*
X119086955Y-108968232D01*
X119134573Y-108920613D01*
X119139291Y-108914863D01*
X119140790Y-108913564D01*
X119142211Y-108911305D01*
X119143901Y-108909247D01*
X119144658Y-108907417D01*
X119148622Y-108901121D01*
X119196241Y-108805883D01*
X119201496Y-108792152D01*
X119201687Y-108789462D01*
X119202718Y-108786974D01*
X119204159Y-108772342D01*
X119204159Y-108534247D01*
X119202718Y-108519615D01*
X119201687Y-108517126D01*
X119201496Y-108514437D01*
X119196241Y-108500706D01*
X119148622Y-108405468D01*
X119144657Y-108399168D01*
X119143900Y-108397341D01*
X119142211Y-108395284D01*
X119140790Y-108393025D01*
X119139291Y-108391725D01*
X119134573Y-108385976D01*
X119086954Y-108338357D01*
X119081204Y-108333638D01*
X119079905Y-108332140D01*
X119077645Y-108330718D01*
X119075589Y-108329030D01*
X119073761Y-108328272D01*
X119067462Y-108324308D01*
X119033072Y-108307113D01*
X119388298Y-108307113D01*
X119391862Y-108321377D01*
X119629957Y-108988044D01*
X119636236Y-109001339D01*
X119638762Y-109004129D01*
X119640374Y-109007532D01*
X119648509Y-109014897D01*
X119655875Y-109023033D01*
X119659277Y-109024644D01*
X119662068Y-109027171D01*
X119672405Y-109030862D01*
X119682321Y-109035560D01*
X119686079Y-109035746D01*
X119689627Y-109037014D01*
X119700588Y-109036468D01*
X119711549Y-109037014D01*
X119715096Y-109035746D01*
X119718855Y-109035560D01*
X119728770Y-109030862D01*
X119739108Y-109027171D01*
X119741898Y-109024644D01*
X119745301Y-109023033D01*
X119752669Y-109014893D01*
X119760802Y-109007531D01*
X119762412Y-109004130D01*
X119764940Y-109001339D01*
X119771219Y-108988044D01*
X120009314Y-108321377D01*
X120012878Y-108307113D01*
X120011424Y-108277886D01*
X119998897Y-108251440D01*
X119977203Y-108231800D01*
X119949644Y-108221957D01*
X119920416Y-108223411D01*
X119893970Y-108235938D01*
X119874331Y-108257632D01*
X119868052Y-108270927D01*
X119700588Y-108739826D01*
X119533124Y-108270927D01*
X119526845Y-108257632D01*
X119507206Y-108235938D01*
X119480760Y-108223411D01*
X119451532Y-108221957D01*
X119423973Y-108231800D01*
X119402279Y-108251439D01*
X119389752Y-108277885D01*
X119388298Y-108307113D01*
X119033072Y-108307113D01*
X118972224Y-108276689D01*
X118958706Y-108271516D01*
X119185602Y-108012207D01*
X119190123Y-108005882D01*
X119191519Y-108004487D01*
X119192067Y-108003163D01*
X119194153Y-108000246D01*
X119198054Y-107988708D01*
X119202718Y-107977451D01*
X119202718Y-107974920D01*
X119203528Y-107972525D01*
X119202718Y-107960371D01*
X119202718Y-107948187D01*
X119201750Y-107945850D01*
X119201582Y-107943327D01*
X119196179Y-107932401D01*
X119191519Y-107921151D01*
X119189732Y-107919364D01*
X119188610Y-107917095D01*
X119179437Y-107909069D01*
X119170827Y-107900459D01*
X119168490Y-107899490D01*
X119166586Y-107897825D01*
X119155048Y-107893923D01*
X119143791Y-107889260D01*
X119140220Y-107888908D01*
X119138865Y-107888450D01*
X119136897Y-107888581D01*
X119129159Y-107887819D01*
X118510112Y-107887819D01*
X118495480Y-107889260D01*
X118468444Y-107900459D01*
X118447752Y-107921151D01*
X118436553Y-107948187D01*
X117774147Y-107948187D01*
X117773179Y-107945850D01*
X117773011Y-107943327D01*
X117767608Y-107932401D01*
X117762948Y-107921151D01*
X117761161Y-107919364D01*
X117760039Y-107917095D01*
X117750866Y-107909069D01*
X117742256Y-107900459D01*
X117739919Y-107899490D01*
X117738015Y-107897825D01*
X117726477Y-107893923D01*
X117715220Y-107889260D01*
X117711649Y-107888908D01*
X117710294Y-107888450D01*
X117708326Y-107888581D01*
X117700588Y-107887819D01*
X117081541Y-107887819D01*
X117066909Y-107889260D01*
X117039873Y-107900459D01*
X117019181Y-107921151D01*
X117007982Y-107948187D01*
X116896871Y-107948187D01*
X116896871Y-107776708D01*
X120123989Y-107776708D01*
X120123989Y-109148930D01*
G37*
D11*
G36*
X123826192Y-79794419D02*
G01*
X120754949Y-79794419D01*
X120754949Y-78734895D01*
X120879949Y-78734895D01*
X120879949Y-78830133D01*
X120882351Y-78854519D01*
X120884069Y-78858667D01*
X120884388Y-78863149D01*
X120893146Y-78886035D01*
X120940764Y-78981272D01*
X120947373Y-78991770D01*
X120948635Y-78994817D01*
X120951450Y-78998248D01*
X120953819Y-79002010D01*
X120956313Y-79004173D01*
X120964180Y-79013759D01*
X121011798Y-79061378D01*
X121021386Y-79069247D01*
X121023548Y-79071739D01*
X121027305Y-79074104D01*
X121030740Y-79076923D01*
X121033790Y-79078186D01*
X121044285Y-79084793D01*
X121139523Y-79132412D01*
X121141308Y-79133095D01*
X121142033Y-79133632D01*
X121152262Y-79137287D01*
X121162409Y-79141170D01*
X121163308Y-79141233D01*
X121165108Y-79141877D01*
X121342274Y-79186168D01*
X121407094Y-79218578D01*
X121426026Y-79237511D01*
X121451377Y-79288212D01*
X121451377Y-79324433D01*
X121426025Y-79375136D01*
X121407094Y-79394068D01*
X121356393Y-79419419D01*
X121168092Y-79419419D01*
X121044477Y-79378215D01*
X121020583Y-79372782D01*
X120971934Y-79376239D01*
X120928309Y-79398051D01*
X120896354Y-79434897D01*
X120880931Y-79481166D01*
X120884388Y-79529815D01*
X120906200Y-79573440D01*
X120943046Y-79605395D01*
X120965421Y-79615385D01*
X121108277Y-79663004D01*
X121120370Y-79665753D01*
X121123420Y-79667017D01*
X121127841Y-79667452D01*
X121132171Y-79668437D01*
X121135462Y-79668203D01*
X121147806Y-79669419D01*
X121385901Y-79669419D01*
X121410287Y-79667017D01*
X121414435Y-79665298D01*
X121418917Y-79664980D01*
X121441803Y-79656222D01*
X121537040Y-79608604D01*
X121547536Y-79601996D01*
X121550586Y-79600733D01*
X121554019Y-79597914D01*
X121557778Y-79595549D01*
X121559940Y-79593055D01*
X121569528Y-79585187D01*
X121617147Y-79537568D01*
X121625014Y-79527980D01*
X121627507Y-79525819D01*
X121629873Y-79522059D01*
X121632692Y-79518625D01*
X121633954Y-79515576D01*
X121640561Y-79505082D01*
X121688180Y-79409844D01*
X121696938Y-79386958D01*
X121697256Y-79382477D01*
X121698975Y-79378328D01*
X121701377Y-79353942D01*
X121701377Y-79258704D01*
X121698975Y-79234318D01*
X121697256Y-79230168D01*
X121696938Y-79225688D01*
X121688180Y-79202802D01*
X121640561Y-79107564D01*
X121633954Y-79097069D01*
X121632691Y-79094019D01*
X121629872Y-79090584D01*
X121627507Y-79086827D01*
X121625015Y-79084665D01*
X121617146Y-79075077D01*
X121569527Y-79027459D01*
X121559941Y-79019592D01*
X121557778Y-79017098D01*
X121554016Y-79014729D01*
X121550585Y-79011914D01*
X121547538Y-79010652D01*
X121537040Y-79004043D01*
X121474933Y-78972990D01*
X121832330Y-78972990D01*
X121832330Y-79115847D01*
X121832749Y-79120101D01*
X121832478Y-79121923D01*
X121833827Y-79131051D01*
X121834732Y-79140233D01*
X121835436Y-79141934D01*
X121836062Y-79146164D01*
X121883681Y-79336640D01*
X121884324Y-79338439D01*
X121884388Y-79339339D01*
X121888270Y-79349485D01*
X121891926Y-79359715D01*
X121892462Y-79360439D01*
X121893146Y-79362225D01*
X121940764Y-79457462D01*
X121947370Y-79467956D01*
X121948634Y-79471007D01*
X121951454Y-79474443D01*
X121953819Y-79478200D01*
X121956310Y-79480360D01*
X121964179Y-79489949D01*
X122059417Y-79585188D01*
X122078359Y-79600733D01*
X122082510Y-79602452D01*
X122085903Y-79605395D01*
X122108278Y-79615385D01*
X122251134Y-79663004D01*
X122263227Y-79665753D01*
X122266277Y-79667017D01*
X122270698Y-79667452D01*
X122275028Y-79668437D01*
X122278319Y-79668203D01*
X122290663Y-79669419D01*
X122385901Y-79669419D01*
X122398244Y-79668203D01*
X122401535Y-79668437D01*
X122405864Y-79667452D01*
X122410287Y-79667017D01*
X122413338Y-79665753D01*
X122425429Y-79663004D01*
X122568286Y-79615386D01*
X122590661Y-79605395D01*
X122594053Y-79602452D01*
X122598205Y-79600733D01*
X122617147Y-79585187D01*
X122664766Y-79537568D01*
X122680311Y-79518625D01*
X122698975Y-79473566D01*
X122698975Y-79424792D01*
X122680310Y-79379733D01*
X122645822Y-79345246D01*
X122600762Y-79326582D01*
X122551989Y-79326582D01*
X122506929Y-79345247D01*
X122487988Y-79360793D01*
X122461235Y-79387546D01*
X122365618Y-79419419D01*
X122310949Y-79419419D01*
X122215330Y-79387546D01*
X122155299Y-79327515D01*
X122122889Y-79262696D01*
X122082330Y-79100458D01*
X122082330Y-78988379D01*
X122122889Y-78826141D01*
X122155300Y-78761320D01*
X122215328Y-78701291D01*
X122310949Y-78669419D01*
X122365618Y-78669419D01*
X122461235Y-78701291D01*
X122487988Y-78728045D01*
X122506930Y-78743590D01*
X122551990Y-78762255D01*
X122600763Y-78762255D01*
X122645823Y-78743590D01*
X122680310Y-78709103D01*
X122698975Y-78664043D01*
X122698975Y-78615270D01*
X122680310Y-78570210D01*
X122664765Y-78551268D01*
X122657916Y-78544419D01*
X122879949Y-78544419D01*
X122879949Y-79544419D01*
X122882351Y-79568805D01*
X122901015Y-79613865D01*
X122935503Y-79648353D01*
X122980563Y-79667017D01*
X123029335Y-79667017D01*
X123074395Y-79648353D01*
X123108883Y-79613865D01*
X123127547Y-79568805D01*
X123129949Y-79544419D01*
X123129949Y-79167623D01*
X123134281Y-79163290D01*
X123476377Y-79619419D01*
X123492930Y-79637487D01*
X123534897Y-79662336D01*
X123583181Y-79669234D01*
X123630427Y-79657129D01*
X123669445Y-79627866D01*
X123694294Y-79585899D01*
X123701192Y-79537616D01*
X123689087Y-79490369D01*
X123676377Y-79469419D01*
X123312852Y-78984719D01*
X123664765Y-78632808D01*
X123680310Y-78613866D01*
X123698975Y-78568806D01*
X123698975Y-78520032D01*
X123680310Y-78474973D01*
X123645823Y-78440486D01*
X123600764Y-78421821D01*
X123551990Y-78421821D01*
X123506930Y-78440486D01*
X123487988Y-78456031D01*
X123129949Y-78814070D01*
X123129949Y-78544419D01*
X123127547Y-78520033D01*
X123108883Y-78474973D01*
X123074395Y-78440485D01*
X123029335Y-78421821D01*
X122980563Y-78421821D01*
X122935503Y-78440485D01*
X122901015Y-78474973D01*
X122882351Y-78520033D01*
X122879949Y-78544419D01*
X122657916Y-78544419D01*
X122617146Y-78503650D01*
X122598204Y-78488105D01*
X122594054Y-78486386D01*
X122590661Y-78483443D01*
X122568286Y-78473452D01*
X122425429Y-78425834D01*
X122413338Y-78423084D01*
X122410287Y-78421821D01*
X122405864Y-78421385D01*
X122401535Y-78420401D01*
X122398244Y-78420634D01*
X122385901Y-78419419D01*
X122290663Y-78419419D01*
X122278319Y-78420634D01*
X122275028Y-78420401D01*
X122270698Y-78421385D01*
X122266277Y-78421821D01*
X122263227Y-78423084D01*
X122251134Y-78425834D01*
X122108278Y-78473453D01*
X122085903Y-78483443D01*
X122082509Y-78486386D01*
X122078360Y-78488105D01*
X122059418Y-78503650D01*
X121964180Y-78598888D01*
X121956313Y-78608473D01*
X121953819Y-78610637D01*
X121951450Y-78614398D01*
X121948635Y-78617830D01*
X121947373Y-78620876D01*
X121940764Y-78631375D01*
X121893146Y-78726612D01*
X121892462Y-78728397D01*
X121891926Y-78729122D01*
X121888270Y-78739351D01*
X121884388Y-78749498D01*
X121884324Y-78750397D01*
X121883681Y-78752197D01*
X121836062Y-78942673D01*
X121835436Y-78946902D01*
X121834732Y-78948604D01*
X121833827Y-78957785D01*
X121832478Y-78966914D01*
X121832749Y-78968735D01*
X121832330Y-78972990D01*
X121474933Y-78972990D01*
X121441803Y-78956425D01*
X121440017Y-78955741D01*
X121439293Y-78955205D01*
X121429063Y-78951549D01*
X121418917Y-78947667D01*
X121418017Y-78947603D01*
X121416218Y-78946960D01*
X121239053Y-78902668D01*
X121174232Y-78870258D01*
X121155299Y-78851326D01*
X121129949Y-78800625D01*
X121129949Y-78764403D01*
X121155299Y-78713701D01*
X121174232Y-78694769D01*
X121224934Y-78669419D01*
X121413237Y-78669419D01*
X121536848Y-78710623D01*
X121560742Y-78716056D01*
X121609392Y-78712599D01*
X121653016Y-78690787D01*
X121684972Y-78653941D01*
X121700395Y-78607672D01*
X121696938Y-78559022D01*
X121675126Y-78515398D01*
X121638280Y-78483443D01*
X121615905Y-78473452D01*
X121473048Y-78425834D01*
X121460957Y-78423084D01*
X121457906Y-78421821D01*
X121453483Y-78421385D01*
X121449154Y-78420401D01*
X121445863Y-78420634D01*
X121433520Y-78419419D01*
X121195425Y-78419419D01*
X121171039Y-78421821D01*
X121166889Y-78423539D01*
X121162409Y-78423858D01*
X121139523Y-78432616D01*
X121044285Y-78480235D01*
X121033790Y-78486841D01*
X121030740Y-78488105D01*
X121027305Y-78490923D01*
X121023548Y-78493289D01*
X121021386Y-78495780D01*
X121011798Y-78503650D01*
X120964180Y-78551269D01*
X120956313Y-78560854D01*
X120953819Y-78563018D01*
X120951450Y-78566779D01*
X120948635Y-78570211D01*
X120947373Y-78573257D01*
X120940764Y-78583756D01*
X120893146Y-78678993D01*
X120884388Y-78701879D01*
X120884069Y-78706360D01*
X120882351Y-78710509D01*
X120879949Y-78734895D01*
X120754949Y-78734895D01*
X120754949Y-78294419D01*
X123826192Y-78294419D01*
X123826192Y-79794419D01*
G37*
G36*
X121365997Y-81241291D02*
G01*
X121426025Y-81301319D01*
X121458436Y-81366142D01*
X121498996Y-81528379D01*
X121498996Y-81640458D01*
X121458436Y-81802694D01*
X121426026Y-81867515D01*
X121365996Y-81927546D01*
X121270380Y-81959419D01*
X121177568Y-81959419D01*
X121177568Y-81209419D01*
X121270380Y-81209419D01*
X121365997Y-81241291D01*
G37*
G36*
X122930904Y-81234770D02*
G01*
X122987315Y-81291181D01*
X123022805Y-81433141D01*
X123022805Y-81735696D01*
X122987315Y-81877655D01*
X122930901Y-81934069D01*
X122880202Y-81959419D01*
X122748743Y-81959419D01*
X122698042Y-81934068D01*
X122641628Y-81877655D01*
X122606139Y-81735696D01*
X122606139Y-81433141D01*
X122641629Y-81291181D01*
X122698039Y-81234770D01*
X122748743Y-81209419D01*
X122880202Y-81209419D01*
X122930904Y-81234770D01*
G37*
G36*
X123397805Y-82334419D02*
G01*
X120802568Y-82334419D01*
X120802568Y-81084419D01*
X120927568Y-81084419D01*
X120927568Y-82084419D01*
X120929970Y-82108805D01*
X120948634Y-82153865D01*
X120983122Y-82188353D01*
X121028182Y-82207017D01*
X121052568Y-82209419D01*
X121290663Y-82209419D01*
X121303006Y-82208203D01*
X121306297Y-82208437D01*
X121310626Y-82207452D01*
X121315049Y-82207017D01*
X121318100Y-82205753D01*
X121330191Y-82203004D01*
X121473048Y-82155386D01*
X121495423Y-82145395D01*
X121498815Y-82142452D01*
X121502967Y-82140733D01*
X121521909Y-82125188D01*
X121617147Y-82029949D01*
X121625015Y-82020360D01*
X121627507Y-82018200D01*
X121629871Y-82014443D01*
X121632692Y-82011007D01*
X121633956Y-82007955D01*
X121640561Y-81997463D01*
X121688180Y-81902225D01*
X121688863Y-81900439D01*
X121689400Y-81899715D01*
X121693055Y-81889485D01*
X121696938Y-81879339D01*
X121697001Y-81878439D01*
X121697645Y-81876640D01*
X121745264Y-81686164D01*
X121745889Y-81681934D01*
X121746594Y-81680233D01*
X121747498Y-81671053D01*
X121748848Y-81661924D01*
X121748576Y-81660101D01*
X121748996Y-81655847D01*
X121748996Y-81512990D01*
X121748576Y-81508735D01*
X121748848Y-81506913D01*
X121747498Y-81497783D01*
X121746594Y-81488604D01*
X121745889Y-81486902D01*
X121745264Y-81482673D01*
X121697645Y-81292197D01*
X121697001Y-81290397D01*
X121696938Y-81289498D01*
X121693055Y-81279351D01*
X121689400Y-81269122D01*
X121688863Y-81268397D01*
X121688180Y-81266612D01*
X121640561Y-81171374D01*
X121633953Y-81160877D01*
X121632691Y-81157830D01*
X121629874Y-81154398D01*
X121627507Y-81150637D01*
X121625012Y-81148473D01*
X121617146Y-81138888D01*
X121562677Y-81084419D01*
X121927568Y-81084419D01*
X121927568Y-82084419D01*
X121929970Y-82108805D01*
X121948634Y-82153865D01*
X121983122Y-82188353D01*
X122028182Y-82207017D01*
X122076954Y-82207017D01*
X122122014Y-82188353D01*
X122156502Y-82153865D01*
X122175166Y-82108805D01*
X122177568Y-82084419D01*
X122177568Y-81417752D01*
X122356139Y-81417752D01*
X122356139Y-81751085D01*
X122356558Y-81755339D01*
X122356287Y-81757161D01*
X122357636Y-81766289D01*
X122358541Y-81775471D01*
X122359245Y-81777172D01*
X122359871Y-81781402D01*
X122407490Y-81971878D01*
X122415735Y-81994953D01*
X122421267Y-82002419D01*
X122424824Y-82011007D01*
X122440369Y-82029949D01*
X122535607Y-82125188D01*
X122545195Y-82133057D01*
X122547357Y-82135549D01*
X122551114Y-82137914D01*
X122554549Y-82140733D01*
X122557599Y-82141996D01*
X122568094Y-82148603D01*
X122663332Y-82196222D01*
X122686218Y-82204980D01*
X122690698Y-82205298D01*
X122694848Y-82207017D01*
X122719234Y-82209419D01*
X122909710Y-82209419D01*
X122934096Y-82207017D01*
X122938244Y-82205298D01*
X122942726Y-82204980D01*
X122965612Y-82196222D01*
X123060849Y-82148604D01*
X123071345Y-82141996D01*
X123074395Y-82140733D01*
X123077829Y-82137914D01*
X123081587Y-82135549D01*
X123083748Y-82133057D01*
X123093337Y-82125188D01*
X123188575Y-82029949D01*
X123204120Y-82011007D01*
X123207677Y-82002418D01*
X123213209Y-81994953D01*
X123221454Y-81971878D01*
X123269073Y-81781402D01*
X123269698Y-81777172D01*
X123270403Y-81775471D01*
X123271307Y-81766291D01*
X123272657Y-81757162D01*
X123272385Y-81755339D01*
X123272805Y-81751085D01*
X123272805Y-81417752D01*
X123272385Y-81413497D01*
X123272657Y-81411675D01*
X123271307Y-81402545D01*
X123270403Y-81393366D01*
X123269698Y-81391664D01*
X123269073Y-81387435D01*
X123221454Y-81196959D01*
X123213209Y-81173884D01*
X123207675Y-81166415D01*
X123204119Y-81157830D01*
X123188574Y-81138888D01*
X123093336Y-81043650D01*
X123083750Y-81035783D01*
X123081587Y-81033289D01*
X123077825Y-81030920D01*
X123074394Y-81028105D01*
X123071347Y-81026843D01*
X123060849Y-81020234D01*
X122965612Y-80972616D01*
X122942726Y-80963858D01*
X122938244Y-80963539D01*
X122934096Y-80961821D01*
X122909710Y-80959419D01*
X122719234Y-80959419D01*
X122694848Y-80961821D01*
X122690698Y-80963539D01*
X122686218Y-80963858D01*
X122663332Y-80972616D01*
X122568094Y-81020235D01*
X122557597Y-81026842D01*
X122554550Y-81028105D01*
X122551118Y-81030921D01*
X122547357Y-81033289D01*
X122545193Y-81035783D01*
X122535608Y-81043650D01*
X122440370Y-81138888D01*
X122424825Y-81157830D01*
X122421268Y-81166415D01*
X122415735Y-81173884D01*
X122407490Y-81196959D01*
X122359871Y-81387435D01*
X122359245Y-81391664D01*
X122358541Y-81393366D01*
X122357636Y-81402547D01*
X122356287Y-81411676D01*
X122356558Y-81413497D01*
X122356139Y-81417752D01*
X122177568Y-81417752D01*
X122177568Y-81084419D01*
X122175166Y-81060033D01*
X122156502Y-81014973D01*
X122122014Y-80980485D01*
X122076954Y-80961821D01*
X122028182Y-80961821D01*
X121983122Y-80980485D01*
X121948634Y-81014973D01*
X121929970Y-81060033D01*
X121927568Y-81084419D01*
X121562677Y-81084419D01*
X121521908Y-81043650D01*
X121502966Y-81028105D01*
X121498816Y-81026386D01*
X121495423Y-81023443D01*
X121473048Y-81013452D01*
X121330191Y-80965834D01*
X121318100Y-80963084D01*
X121315049Y-80961821D01*
X121310626Y-80961385D01*
X121306297Y-80960401D01*
X121303006Y-80960634D01*
X121290663Y-80959419D01*
X121052568Y-80959419D01*
X121028182Y-80961821D01*
X120983122Y-80980485D01*
X120948634Y-81014973D01*
X120929970Y-81060033D01*
X120927568Y-81084419D01*
X120802568Y-81084419D01*
X120802568Y-80834419D01*
X123397805Y-80834419D01*
X123397805Y-82334419D01*
G37*
G36*
X121454713Y-83749369D02*
G01*
X121473645Y-83768302D01*
X121498996Y-83819003D01*
X121498996Y-83902843D01*
X121473645Y-83953544D01*
X121454713Y-83972477D01*
X121404012Y-83997828D01*
X121177568Y-83997828D01*
X121177568Y-83724019D01*
X121404012Y-83724019D01*
X121454713Y-83749369D01*
G37*
G36*
X123681118Y-84849019D02*
G01*
X120802568Y-84849019D01*
X120802568Y-83599019D01*
X120927568Y-83599019D01*
X120927568Y-84599019D01*
X120929970Y-84623405D01*
X120948634Y-84668465D01*
X120983122Y-84702953D01*
X121028182Y-84721617D01*
X121076954Y-84721617D01*
X121122014Y-84702953D01*
X121156502Y-84668465D01*
X121175166Y-84623405D01*
X121177568Y-84599019D01*
X121177568Y-84247828D01*
X121225581Y-84247828D01*
X121521592Y-84670702D01*
X121537544Y-84689302D01*
X121578675Y-84715514D01*
X121626706Y-84723990D01*
X121674324Y-84713440D01*
X121714279Y-84685471D01*
X121740491Y-84644341D01*
X121748967Y-84596309D01*
X121738417Y-84548692D01*
X121726400Y-84527336D01*
X121513188Y-84222747D01*
X121584659Y-84187013D01*
X121595157Y-84180403D01*
X121598204Y-84179142D01*
X121601635Y-84176326D01*
X121605397Y-84173958D01*
X121607560Y-84171463D01*
X121617146Y-84163597D01*
X121664765Y-84115979D01*
X121672634Y-84106390D01*
X121675126Y-84104229D01*
X121677491Y-84100471D01*
X121680310Y-84097037D01*
X121681573Y-84093986D01*
X121688180Y-84083492D01*
X121735799Y-83988254D01*
X121744557Y-83965368D01*
X121744875Y-83960887D01*
X121746594Y-83956738D01*
X121748996Y-83932352D01*
X121748996Y-83789495D01*
X121879949Y-83789495D01*
X121879949Y-83884733D01*
X121882351Y-83909119D01*
X121884069Y-83913267D01*
X121884388Y-83917749D01*
X121893146Y-83940635D01*
X121940764Y-84035872D01*
X121947373Y-84046370D01*
X121948635Y-84049417D01*
X121951450Y-84052848D01*
X121953819Y-84056610D01*
X121956313Y-84058773D01*
X121964180Y-84068359D01*
X122011798Y-84115978D01*
X122021386Y-84123847D01*
X122023548Y-84126339D01*
X122027305Y-84128704D01*
X122030740Y-84131523D01*
X122033790Y-84132786D01*
X122044285Y-84139393D01*
X122139523Y-84187012D01*
X122141308Y-84187695D01*
X122142033Y-84188232D01*
X122152262Y-84191887D01*
X122162409Y-84195770D01*
X122163308Y-84195833D01*
X122165108Y-84196477D01*
X122342274Y-84240768D01*
X122407094Y-84273178D01*
X122426026Y-84292111D01*
X122451377Y-84342812D01*
X122451377Y-84379033D01*
X122426025Y-84429736D01*
X122407094Y-84448668D01*
X122356393Y-84474019D01*
X122168092Y-84474019D01*
X122044477Y-84432815D01*
X122020583Y-84427382D01*
X121971934Y-84430839D01*
X121928309Y-84452651D01*
X121896354Y-84489497D01*
X121880931Y-84535766D01*
X121884388Y-84584415D01*
X121906200Y-84628040D01*
X121943046Y-84659995D01*
X121965421Y-84669985D01*
X122108277Y-84717604D01*
X122120370Y-84720353D01*
X122123420Y-84721617D01*
X122127841Y-84722052D01*
X122132171Y-84723037D01*
X122135462Y-84722803D01*
X122147806Y-84724019D01*
X122385901Y-84724019D01*
X122410287Y-84721617D01*
X122414435Y-84719898D01*
X122418917Y-84719580D01*
X122441803Y-84710822D01*
X122537040Y-84663204D01*
X122547536Y-84656596D01*
X122550586Y-84655333D01*
X122554019Y-84652514D01*
X122557778Y-84650149D01*
X122559940Y-84647655D01*
X122569528Y-84639787D01*
X122617147Y-84592168D01*
X122625014Y-84582580D01*
X122627507Y-84580419D01*
X122629873Y-84576659D01*
X122632692Y-84573225D01*
X122633954Y-84570176D01*
X122640561Y-84559682D01*
X122688180Y-84464444D01*
X122696938Y-84441558D01*
X122697256Y-84437077D01*
X122698975Y-84432928D01*
X122701377Y-84408542D01*
X122701377Y-84313304D01*
X122698975Y-84288918D01*
X122697256Y-84284768D01*
X122696938Y-84280288D01*
X122688180Y-84257402D01*
X122640561Y-84162164D01*
X122633954Y-84151669D01*
X122632691Y-84148619D01*
X122629872Y-84145184D01*
X122627507Y-84141427D01*
X122625015Y-84139265D01*
X122617146Y-84129677D01*
X122569527Y-84082059D01*
X122559941Y-84074192D01*
X122557778Y-84071698D01*
X122554016Y-84069329D01*
X122550585Y-84066514D01*
X122547538Y-84065252D01*
X122537040Y-84058643D01*
X122441803Y-84011025D01*
X122440017Y-84010341D01*
X122439293Y-84009805D01*
X122429063Y-84006149D01*
X122418917Y-84002267D01*
X122418017Y-84002203D01*
X122416218Y-84001560D01*
X122239053Y-83957268D01*
X122174232Y-83924858D01*
X122155299Y-83905926D01*
X122129949Y-83855225D01*
X122129949Y-83819003D01*
X122155299Y-83768301D01*
X122174232Y-83749369D01*
X122224934Y-83724019D01*
X122413237Y-83724019D01*
X122536848Y-83765223D01*
X122560742Y-83770656D01*
X122609392Y-83767199D01*
X122653016Y-83745387D01*
X122684972Y-83708541D01*
X122700395Y-83662272D01*
X122696938Y-83613622D01*
X122677443Y-83574633D01*
X122739494Y-83574633D01*
X122739494Y-83623405D01*
X122758158Y-83668465D01*
X122792646Y-83702953D01*
X122837706Y-83721617D01*
X122862092Y-83724019D01*
X123022806Y-83724019D01*
X123022806Y-84599019D01*
X123025208Y-84623405D01*
X123043872Y-84668465D01*
X123078360Y-84702953D01*
X123123420Y-84721617D01*
X123172192Y-84721617D01*
X123217252Y-84702953D01*
X123251740Y-84668465D01*
X123270404Y-84623405D01*
X123272806Y-84599019D01*
X123272806Y-83724019D01*
X123433520Y-83724019D01*
X123457906Y-83721617D01*
X123502966Y-83702953D01*
X123537454Y-83668465D01*
X123556118Y-83623405D01*
X123556118Y-83574633D01*
X123537454Y-83529573D01*
X123502966Y-83495085D01*
X123457906Y-83476421D01*
X123433520Y-83474019D01*
X122862092Y-83474019D01*
X122837706Y-83476421D01*
X122792646Y-83495085D01*
X122758158Y-83529573D01*
X122739494Y-83574633D01*
X122677443Y-83574633D01*
X122675126Y-83569998D01*
X122638280Y-83538043D01*
X122615905Y-83528052D01*
X122473048Y-83480434D01*
X122460957Y-83477684D01*
X122457906Y-83476421D01*
X122453483Y-83475985D01*
X122449154Y-83475001D01*
X122445863Y-83475234D01*
X122433520Y-83474019D01*
X122195425Y-83474019D01*
X122171039Y-83476421D01*
X122166889Y-83478139D01*
X122162409Y-83478458D01*
X122139523Y-83487216D01*
X122044285Y-83534835D01*
X122033790Y-83541441D01*
X122030740Y-83542705D01*
X122027305Y-83545523D01*
X122023548Y-83547889D01*
X122021386Y-83550380D01*
X122011798Y-83558250D01*
X121964180Y-83605869D01*
X121956313Y-83615454D01*
X121953819Y-83617618D01*
X121951450Y-83621379D01*
X121948635Y-83624811D01*
X121947373Y-83627857D01*
X121940764Y-83638356D01*
X121893146Y-83733593D01*
X121884388Y-83756479D01*
X121884069Y-83760960D01*
X121882351Y-83765109D01*
X121879949Y-83789495D01*
X121748996Y-83789495D01*
X121746594Y-83765109D01*
X121744875Y-83760959D01*
X121744557Y-83756479D01*
X121735799Y-83733593D01*
X121688180Y-83638355D01*
X121681573Y-83627860D01*
X121680310Y-83624810D01*
X121677491Y-83621375D01*
X121675126Y-83617618D01*
X121672634Y-83615456D01*
X121664765Y-83605868D01*
X121617146Y-83558250D01*
X121607560Y-83550383D01*
X121605397Y-83547889D01*
X121601635Y-83545520D01*
X121598204Y-83542705D01*
X121595157Y-83541443D01*
X121584659Y-83534834D01*
X121489422Y-83487216D01*
X121466536Y-83478458D01*
X121462054Y-83478139D01*
X121457906Y-83476421D01*
X121433520Y-83474019D01*
X121052568Y-83474019D01*
X121028182Y-83476421D01*
X120983122Y-83495085D01*
X120948634Y-83529573D01*
X120929970Y-83574633D01*
X120927568Y-83599019D01*
X120802568Y-83599019D01*
X120802568Y-83349019D01*
X123681118Y-83349019D01*
X123681118Y-84849019D01*
G37*
D12*
G36*
X106359880Y-103814041D02*
G01*
X106091364Y-103724536D01*
X106359880Y-103635031D01*
X106359880Y-103814041D01*
G37*
G36*
X107165846Y-104440026D02*
G01*
X105318201Y-104440026D01*
X105318201Y-103705775D01*
X105468201Y-103705775D01*
X105469534Y-103724535D01*
X105468201Y-103743296D01*
X105471590Y-103753463D01*
X105472350Y-103764156D01*
X105480761Y-103780979D01*
X105486709Y-103798821D01*
X105493731Y-103806917D01*
X105498524Y-103816503D01*
X105512732Y-103828826D01*
X105525056Y-103843035D01*
X105534641Y-103847827D01*
X105542738Y-103854850D01*
X105569589Y-103866838D01*
X106819589Y-104283506D01*
X106848263Y-104290026D01*
X106906643Y-104285876D01*
X106958990Y-104259702D01*
X106997337Y-104215488D01*
X107015846Y-104159964D01*
X107011696Y-104101584D01*
X106985523Y-104049236D01*
X106941308Y-104010889D01*
X106914457Y-103998901D01*
X106659880Y-103914041D01*
X106659880Y-103535031D01*
X106914457Y-103450173D01*
X106941308Y-103438184D01*
X106985522Y-103399837D01*
X107011695Y-103347490D01*
X107015845Y-103289110D01*
X106997337Y-103233585D01*
X106958989Y-103189371D01*
X106906642Y-103163197D01*
X106848262Y-103159048D01*
X106819588Y-103165568D01*
X105569589Y-103582233D01*
X105542738Y-103594222D01*
X105534641Y-103601244D01*
X105525056Y-103606037D01*
X105512732Y-103620245D01*
X105498524Y-103632569D01*
X105493731Y-103642154D01*
X105486709Y-103650251D01*
X105480761Y-103668092D01*
X105472350Y-103684916D01*
X105471590Y-103695607D01*
X105468201Y-103705775D01*
X105318201Y-103705775D01*
X105318201Y-102534060D01*
X105883690Y-102534060D01*
X105883690Y-102653107D01*
X105886572Y-102682371D01*
X105888633Y-102687348D01*
X105889016Y-102692726D01*
X105899526Y-102720189D01*
X105931899Y-102784936D01*
X105908970Y-102807866D01*
X105886572Y-102861938D01*
X105886572Y-102920466D01*
X105908970Y-102974538D01*
X105950354Y-103015922D01*
X106004426Y-103038320D01*
X106033690Y-103041202D01*
X106867023Y-103041202D01*
X106896287Y-103038320D01*
X106950359Y-103015922D01*
X106991743Y-102974538D01*
X107014141Y-102920466D01*
X107014141Y-102861938D01*
X106991743Y-102807866D01*
X106950359Y-102766482D01*
X106896287Y-102744084D01*
X106867023Y-102741202D01*
X106307194Y-102741202D01*
X106241592Y-102708401D01*
X106216492Y-102683301D01*
X106183690Y-102617697D01*
X106183690Y-102534060D01*
X106180808Y-102504796D01*
X106158410Y-102450724D01*
X106117026Y-102409340D01*
X106062954Y-102386942D01*
X106004426Y-102386942D01*
X105950354Y-102409340D01*
X105908970Y-102450724D01*
X105886572Y-102504796D01*
X105883690Y-102534060D01*
X105318201Y-102534060D01*
X105318201Y-101224535D01*
X105883690Y-101224535D01*
X105883690Y-101403107D01*
X105886572Y-101432371D01*
X105888635Y-101437351D01*
X105889017Y-101442726D01*
X105899526Y-101470189D01*
X105955270Y-101581678D01*
X105899526Y-101693168D01*
X105889016Y-101720631D01*
X105888633Y-101726008D01*
X105886572Y-101730986D01*
X105883690Y-101760250D01*
X105883690Y-101938821D01*
X105886572Y-101968085D01*
X105888633Y-101973062D01*
X105889016Y-101978440D01*
X105899526Y-102005903D01*
X105912058Y-102030967D01*
X105908970Y-102034056D01*
X105886572Y-102088128D01*
X105886572Y-102146656D01*
X105908970Y-102200728D01*
X105950354Y-102242112D01*
X106004426Y-102264510D01*
X106033690Y-102267392D01*
X106867023Y-102267392D01*
X106896287Y-102264510D01*
X106950359Y-102242112D01*
X106991743Y-102200728D01*
X107014141Y-102146656D01*
X107014141Y-102088128D01*
X106991743Y-102034056D01*
X106950359Y-101992672D01*
X106896287Y-101970274D01*
X106867023Y-101967392D01*
X106215680Y-101967392D01*
X106183690Y-101903411D01*
X106183690Y-101795660D01*
X106205017Y-101753005D01*
X106247672Y-101731678D01*
X106867023Y-101731678D01*
X106896287Y-101728796D01*
X106950359Y-101706398D01*
X106991743Y-101665014D01*
X107014141Y-101610942D01*
X107014141Y-101552414D01*
X106991743Y-101498342D01*
X106950359Y-101456958D01*
X106896287Y-101434560D01*
X106867023Y-101431678D01*
X106247672Y-101431678D01*
X106205017Y-101410350D01*
X106183690Y-101367696D01*
X106183690Y-101259945D01*
X106205017Y-101217291D01*
X106247672Y-101195964D01*
X106867023Y-101195964D01*
X106896287Y-101193082D01*
X106950359Y-101170684D01*
X106991743Y-101129300D01*
X107014141Y-101075228D01*
X107014141Y-101016700D01*
X106991743Y-100962628D01*
X106950359Y-100921244D01*
X106896287Y-100898846D01*
X106867023Y-100895964D01*
X106212261Y-100895964D01*
X106182997Y-100898846D01*
X106178019Y-100900907D01*
X106172642Y-100901290D01*
X106145179Y-100911800D01*
X106026132Y-100971324D01*
X106021240Y-100974403D01*
X106018931Y-100975173D01*
X106016055Y-100977666D01*
X106001246Y-100986989D01*
X105988922Y-101001198D01*
X105974715Y-101013520D01*
X105965393Y-101028327D01*
X105962899Y-101031204D01*
X105962129Y-101033513D01*
X105959050Y-101038405D01*
X105899526Y-101157453D01*
X105889017Y-101184916D01*
X105888635Y-101190290D01*
X105886572Y-101195271D01*
X105883690Y-101224535D01*
X105318201Y-101224535D01*
X105318201Y-98992890D01*
X105767524Y-98992890D01*
X105767524Y-99051418D01*
X105789922Y-99105490D01*
X105831306Y-99146874D01*
X105885378Y-99169272D01*
X105914642Y-99172154D01*
X106240833Y-99172154D01*
X106240833Y-99498344D01*
X106243715Y-99527608D01*
X106266113Y-99581680D01*
X106307497Y-99623064D01*
X106361569Y-99645462D01*
X106420097Y-99645462D01*
X106474169Y-99623064D01*
X106515553Y-99581680D01*
X106537951Y-99527608D01*
X106540833Y-99498344D01*
X106540833Y-99172154D01*
X106867023Y-99172154D01*
X106896287Y-99169272D01*
X106950359Y-99146874D01*
X106991743Y-99105490D01*
X107014141Y-99051418D01*
X107014141Y-98992890D01*
X106991743Y-98938818D01*
X106950359Y-98897434D01*
X106896287Y-98875036D01*
X106867023Y-98872154D01*
X106540833Y-98872154D01*
X106540833Y-98545964D01*
X106537951Y-98516700D01*
X106515553Y-98462628D01*
X106474169Y-98421244D01*
X106420097Y-98398846D01*
X106361569Y-98398846D01*
X106307497Y-98421244D01*
X106266113Y-98462628D01*
X106243715Y-98516700D01*
X106240833Y-98545964D01*
X106240833Y-98872154D01*
X105914642Y-98872154D01*
X105885378Y-98875036D01*
X105831306Y-98897434D01*
X105789922Y-98938818D01*
X105767524Y-98992890D01*
X105318201Y-98992890D01*
X105318201Y-96045964D01*
X106240833Y-96045964D01*
X106240833Y-96998344D01*
X106243715Y-97027608D01*
X106266113Y-97081680D01*
X106307497Y-97123064D01*
X106361569Y-97145462D01*
X106420097Y-97145462D01*
X106474169Y-97123064D01*
X106515553Y-97081680D01*
X106537951Y-97027608D01*
X106540833Y-96998344D01*
X106540833Y-96045964D01*
X106537951Y-96016700D01*
X106515553Y-95962628D01*
X106474169Y-95921244D01*
X106420097Y-95898846D01*
X106361569Y-95898846D01*
X106307497Y-95921244D01*
X106266113Y-95962628D01*
X106243715Y-96016700D01*
X106240833Y-96045964D01*
X105318201Y-96045964D01*
X105318201Y-95748846D01*
X107165846Y-95748846D01*
X107165846Y-104440026D01*
G37*
G36*
X118916284Y-93207529D02*
G01*
X118941383Y-93232628D01*
X118974185Y-93298232D01*
X118974185Y-93589012D01*
X118619423Y-93589012D01*
X118619423Y-93298232D01*
X118652224Y-93232628D01*
X118677324Y-93207529D01*
X118742929Y-93174727D01*
X118850680Y-93174727D01*
X118916284Y-93207529D01*
G37*
G36*
X120019423Y-94039012D02*
G01*
X118169423Y-94039012D01*
X118169423Y-93262822D01*
X118319423Y-93262822D01*
X118319423Y-93739012D01*
X118322305Y-93768276D01*
X118344703Y-93822348D01*
X118386087Y-93863732D01*
X118440159Y-93886130D01*
X118469423Y-93889012D01*
X119719423Y-93889012D01*
X119748687Y-93886130D01*
X119802759Y-93863732D01*
X119844143Y-93822348D01*
X119866541Y-93768276D01*
X119866541Y-93709748D01*
X119844143Y-93655676D01*
X119802759Y-93614292D01*
X119748687Y-93591894D01*
X119719423Y-93589012D01*
X119274185Y-93589012D01*
X119274185Y-93262822D01*
X119271303Y-93233558D01*
X119269240Y-93228579D01*
X119268859Y-93223204D01*
X119258349Y-93195740D01*
X119198825Y-93076692D01*
X119190898Y-93064100D01*
X119189382Y-93060438D01*
X119185998Y-93056315D01*
X119183160Y-93051806D01*
X119180167Y-93049210D01*
X119170727Y-93037708D01*
X119111204Y-92978185D01*
X119099702Y-92968746D01*
X119097106Y-92965752D01*
X119092592Y-92962911D01*
X119088473Y-92959530D01*
X119084813Y-92958014D01*
X119072220Y-92950087D01*
X118953172Y-92890563D01*
X118925709Y-92880053D01*
X118920331Y-92879670D01*
X118915354Y-92877609D01*
X118886090Y-92874727D01*
X118707519Y-92874727D01*
X118678255Y-92877609D01*
X118673276Y-92879671D01*
X118667901Y-92880053D01*
X118640437Y-92890563D01*
X118521389Y-92950087D01*
X118508798Y-92958012D01*
X118505137Y-92959529D01*
X118501015Y-92962911D01*
X118496503Y-92965752D01*
X118493907Y-92968745D01*
X118482406Y-92978184D01*
X118422882Y-93037707D01*
X118413442Y-93049208D01*
X118410448Y-93051806D01*
X118407606Y-93056320D01*
X118404227Y-93060438D01*
X118402711Y-93064096D01*
X118394783Y-93076692D01*
X118335259Y-93195740D01*
X118324749Y-93223203D01*
X118324366Y-93228580D01*
X118322305Y-93233558D01*
X118319423Y-93262822D01*
X118169423Y-93262822D01*
X118169423Y-91834251D01*
X118319423Y-91834251D01*
X118319423Y-92608060D01*
X118322305Y-92637324D01*
X118344703Y-92691396D01*
X118386087Y-92732780D01*
X118440159Y-92755178D01*
X118498687Y-92755178D01*
X118552759Y-92732780D01*
X118594143Y-92691396D01*
X118616541Y-92637324D01*
X118619423Y-92608060D01*
X118619423Y-92164815D01*
X118846839Y-92363804D01*
X118859486Y-92372845D01*
X118862278Y-92375637D01*
X118864924Y-92376733D01*
X118870760Y-92380905D01*
X118893841Y-92388711D01*
X118916350Y-92398035D01*
X118921409Y-92398035D01*
X118926202Y-92399656D01*
X118950518Y-92398035D01*
X118974878Y-92398035D01*
X118979550Y-92396099D01*
X118984599Y-92395763D01*
X119006444Y-92384959D01*
X119028950Y-92375637D01*
X119032526Y-92372060D01*
X119037061Y-92369818D01*
X119053104Y-92351482D01*
X119070334Y-92334253D01*
X119072270Y-92329578D01*
X119075602Y-92325771D01*
X119083408Y-92302689D01*
X119092732Y-92280181D01*
X119093434Y-92273043D01*
X119094353Y-92270329D01*
X119094090Y-92266388D01*
X119095614Y-92250917D01*
X119095614Y-92107756D01*
X119128416Y-92042151D01*
X119153514Y-92017053D01*
X119219119Y-91984251D01*
X119445918Y-91984251D01*
X119511521Y-92017051D01*
X119536620Y-92042150D01*
X119569423Y-92107756D01*
X119569423Y-92394080D01*
X119536622Y-92459682D01*
X119494310Y-92501994D01*
X119475655Y-92524725D01*
X119453258Y-92578797D01*
X119453258Y-92637323D01*
X119475655Y-92691395D01*
X119517041Y-92732781D01*
X119571113Y-92755178D01*
X119629639Y-92755178D01*
X119683711Y-92732781D01*
X119706442Y-92714126D01*
X119765966Y-92654602D01*
X119775407Y-92643097D01*
X119778399Y-92640503D01*
X119781237Y-92635993D01*
X119784621Y-92631871D01*
X119786137Y-92628209D01*
X119794064Y-92615618D01*
X119853587Y-92496571D01*
X119864097Y-92469107D01*
X119864478Y-92463731D01*
X119866541Y-92458753D01*
X119869423Y-92429489D01*
X119869423Y-92072346D01*
X119866541Y-92043082D01*
X119864478Y-92038103D01*
X119864097Y-92032728D01*
X119853587Y-92005265D01*
X119794065Y-91886217D01*
X119786136Y-91873620D01*
X119784621Y-91869963D01*
X119781241Y-91865845D01*
X119778400Y-91861331D01*
X119775405Y-91858733D01*
X119765966Y-91847232D01*
X119706442Y-91787708D01*
X119694940Y-91778268D01*
X119692343Y-91775274D01*
X119687828Y-91772432D01*
X119683711Y-91769053D01*
X119680053Y-91767537D01*
X119667457Y-91759609D01*
X119548409Y-91700086D01*
X119520946Y-91689577D01*
X119515570Y-91689195D01*
X119510592Y-91687133D01*
X119481328Y-91684251D01*
X119183709Y-91684251D01*
X119154445Y-91687133D01*
X119149466Y-91689195D01*
X119144091Y-91689577D01*
X119116628Y-91700087D01*
X118997580Y-91759609D01*
X118984981Y-91767539D01*
X118981325Y-91769054D01*
X118977208Y-91772431D01*
X118972694Y-91775274D01*
X118970096Y-91778269D01*
X118958594Y-91787709D01*
X118899071Y-91847233D01*
X118889632Y-91858733D01*
X118886639Y-91861330D01*
X118883798Y-91865842D01*
X118880416Y-91869964D01*
X118878899Y-91873625D01*
X118870974Y-91886216D01*
X118836164Y-91955834D01*
X118568199Y-91721364D01*
X118555548Y-91712320D01*
X118552759Y-91709531D01*
X118550113Y-91708434D01*
X118544277Y-91704263D01*
X118521195Y-91696456D01*
X118498687Y-91687133D01*
X118493628Y-91687133D01*
X118488835Y-91685512D01*
X118464526Y-91687133D01*
X118440159Y-91687133D01*
X118435483Y-91689069D01*
X118430439Y-91689406D01*
X118408603Y-91700204D01*
X118386087Y-91709531D01*
X118382510Y-91713107D01*
X118377976Y-91715350D01*
X118361932Y-91733685D01*
X118344703Y-91750915D01*
X118342766Y-91755589D01*
X118339435Y-91759397D01*
X118331628Y-91782478D01*
X118322305Y-91804987D01*
X118321602Y-91812124D01*
X118320684Y-91814839D01*
X118320946Y-91818778D01*
X118319423Y-91834251D01*
X118169423Y-91834251D01*
X118169423Y-91534251D01*
X120019423Y-91534251D01*
X120019423Y-94039012D01*
G37*
G36*
X118916284Y-98287529D02*
G01*
X118941383Y-98312628D01*
X118974185Y-98378232D01*
X118974185Y-98669012D01*
X118619423Y-98669012D01*
X118619423Y-98378232D01*
X118652224Y-98312628D01*
X118677324Y-98287529D01*
X118742929Y-98254727D01*
X118850680Y-98254727D01*
X118916284Y-98287529D01*
G37*
G36*
X120019423Y-99119012D02*
G01*
X118169423Y-99119012D01*
X118169423Y-98342822D01*
X118319423Y-98342822D01*
X118319423Y-98819012D01*
X118322305Y-98848276D01*
X118344703Y-98902348D01*
X118386087Y-98943732D01*
X118440159Y-98966130D01*
X118469423Y-98969012D01*
X119719423Y-98969012D01*
X119748687Y-98966130D01*
X119802759Y-98943732D01*
X119844143Y-98902348D01*
X119866541Y-98848276D01*
X119866541Y-98789748D01*
X119844143Y-98735676D01*
X119802759Y-98694292D01*
X119748687Y-98671894D01*
X119719423Y-98669012D01*
X119274185Y-98669012D01*
X119274185Y-98342822D01*
X119271303Y-98313558D01*
X119269240Y-98308579D01*
X119268859Y-98303204D01*
X119258349Y-98275740D01*
X119198825Y-98156692D01*
X119190898Y-98144100D01*
X119189382Y-98140438D01*
X119185998Y-98136315D01*
X119183160Y-98131806D01*
X119180167Y-98129210D01*
X119170727Y-98117708D01*
X119111204Y-98058185D01*
X119099702Y-98048746D01*
X119097106Y-98045752D01*
X119092592Y-98042911D01*
X119088473Y-98039530D01*
X119084813Y-98038014D01*
X119072220Y-98030087D01*
X118953172Y-97970563D01*
X118925709Y-97960053D01*
X118920331Y-97959670D01*
X118915354Y-97957609D01*
X118886090Y-97954727D01*
X118707519Y-97954727D01*
X118678255Y-97957609D01*
X118673276Y-97959671D01*
X118667901Y-97960053D01*
X118640437Y-97970563D01*
X118521389Y-98030087D01*
X118508798Y-98038012D01*
X118505137Y-98039529D01*
X118501015Y-98042911D01*
X118496503Y-98045752D01*
X118493907Y-98048745D01*
X118482406Y-98058184D01*
X118422882Y-98117707D01*
X118413442Y-98129208D01*
X118410448Y-98131806D01*
X118407606Y-98136320D01*
X118404227Y-98140438D01*
X118402711Y-98144096D01*
X118394783Y-98156692D01*
X118335259Y-98275740D01*
X118324749Y-98303203D01*
X118324366Y-98308580D01*
X118322305Y-98313558D01*
X118319423Y-98342822D01*
X118169423Y-98342822D01*
X118169423Y-97152346D01*
X118319423Y-97152346D01*
X118319423Y-97449965D01*
X118322305Y-97479229D01*
X118324368Y-97484209D01*
X118324750Y-97489584D01*
X118335259Y-97517047D01*
X118394783Y-97636095D01*
X118402710Y-97648688D01*
X118404226Y-97652347D01*
X118407606Y-97656466D01*
X118410448Y-97660980D01*
X118413441Y-97663576D01*
X118422881Y-97675078D01*
X118482405Y-97734602D01*
X118505136Y-97753257D01*
X118559208Y-97775654D01*
X118617734Y-97775654D01*
X118671807Y-97753257D01*
X118713192Y-97711872D01*
X118735589Y-97657799D01*
X118735589Y-97599273D01*
X118713192Y-97545201D01*
X118694537Y-97522470D01*
X118652224Y-97480157D01*
X118619423Y-97414554D01*
X118619423Y-97187756D01*
X118652225Y-97122152D01*
X118677323Y-97097053D01*
X118742929Y-97064251D01*
X118802224Y-97064251D01*
X118924111Y-97104879D01*
X119613357Y-97794126D01*
X119636087Y-97812781D01*
X119674322Y-97828617D01*
X119690159Y-97835178D01*
X119690160Y-97835178D01*
X119748686Y-97835178D01*
X119748687Y-97835178D01*
X119771084Y-97825900D01*
X119802758Y-97812781D01*
X119844144Y-97771395D01*
X119859384Y-97734602D01*
X119866541Y-97717324D01*
X119869423Y-97688060D01*
X119869423Y-96914251D01*
X119866541Y-96884987D01*
X119844143Y-96830915D01*
X119802759Y-96789531D01*
X119748687Y-96767133D01*
X119690159Y-96767133D01*
X119636087Y-96789531D01*
X119594703Y-96830915D01*
X119572305Y-96884987D01*
X119569423Y-96914251D01*
X119569423Y-97325927D01*
X119111204Y-96867708D01*
X119088473Y-96849053D01*
X119083493Y-96846990D01*
X119079422Y-96843459D01*
X119052571Y-96831471D01*
X118873999Y-96771948D01*
X118859488Y-96768648D01*
X118855830Y-96767133D01*
X118850527Y-96766610D01*
X118845326Y-96765428D01*
X118841371Y-96765709D01*
X118826566Y-96764251D01*
X118707519Y-96764251D01*
X118678255Y-96767133D01*
X118673276Y-96769195D01*
X118667901Y-96769577D01*
X118640438Y-96780087D01*
X118521390Y-96839609D01*
X118508793Y-96847537D01*
X118505136Y-96849053D01*
X118501018Y-96852432D01*
X118496504Y-96855274D01*
X118493906Y-96858268D01*
X118482405Y-96867708D01*
X118422881Y-96927232D01*
X118413442Y-96938733D01*
X118410448Y-96941330D01*
X118407607Y-96945843D01*
X118404226Y-96949963D01*
X118402710Y-96953622D01*
X118394783Y-96966216D01*
X118335259Y-97085264D01*
X118324749Y-97112727D01*
X118324366Y-97118104D01*
X118322305Y-97123082D01*
X118319423Y-97152346D01*
X118169423Y-97152346D01*
X118169423Y-96614251D01*
X120019423Y-96614251D01*
X120019423Y-99119012D01*
G37*
G36*
X118916284Y-103367529D02*
G01*
X118941383Y-103392628D01*
X118974185Y-103458232D01*
X118974185Y-103749012D01*
X118619423Y-103749012D01*
X118619423Y-103458232D01*
X118652224Y-103392628D01*
X118677324Y-103367529D01*
X118742929Y-103334727D01*
X118850680Y-103334727D01*
X118916284Y-103367529D01*
G37*
G36*
X120019423Y-104199012D02*
G01*
X118169423Y-104199012D01*
X118169423Y-103422822D01*
X118319423Y-103422822D01*
X118319423Y-103899012D01*
X118322305Y-103928276D01*
X118344703Y-103982348D01*
X118386087Y-104023732D01*
X118440159Y-104046130D01*
X118469423Y-104049012D01*
X119719423Y-104049012D01*
X119748687Y-104046130D01*
X119802759Y-104023732D01*
X119844143Y-103982348D01*
X119866541Y-103928276D01*
X119866541Y-103869748D01*
X119844143Y-103815676D01*
X119802759Y-103774292D01*
X119748687Y-103751894D01*
X119719423Y-103749012D01*
X119274185Y-103749012D01*
X119274185Y-103422822D01*
X119271303Y-103393558D01*
X119269240Y-103388579D01*
X119268859Y-103383204D01*
X119258349Y-103355740D01*
X119198825Y-103236692D01*
X119190898Y-103224100D01*
X119189382Y-103220438D01*
X119185998Y-103216315D01*
X119183160Y-103211806D01*
X119180167Y-103209210D01*
X119170727Y-103197708D01*
X119111204Y-103138185D01*
X119099702Y-103128746D01*
X119097106Y-103125752D01*
X119092592Y-103122911D01*
X119088473Y-103119530D01*
X119084813Y-103118014D01*
X119072220Y-103110087D01*
X118953172Y-103050563D01*
X118925709Y-103040053D01*
X118920331Y-103039670D01*
X118915354Y-103037609D01*
X118886090Y-103034727D01*
X118707519Y-103034727D01*
X118678255Y-103037609D01*
X118673276Y-103039671D01*
X118667901Y-103040053D01*
X118640437Y-103050563D01*
X118521389Y-103110087D01*
X118508798Y-103118012D01*
X118505137Y-103119529D01*
X118501015Y-103122911D01*
X118496503Y-103125752D01*
X118493907Y-103128745D01*
X118482406Y-103138184D01*
X118422882Y-103197707D01*
X118413442Y-103209208D01*
X118410448Y-103211806D01*
X118407606Y-103216320D01*
X118404227Y-103220438D01*
X118402711Y-103224096D01*
X118394783Y-103236692D01*
X118335259Y-103355740D01*
X118324749Y-103383203D01*
X118324366Y-103388580D01*
X118322305Y-103393558D01*
X118319423Y-103422822D01*
X118169423Y-103422822D01*
X118169423Y-102351551D01*
X118319423Y-102351551D01*
X118322305Y-102365960D01*
X118322305Y-102380657D01*
X118327988Y-102394377D01*
X118330901Y-102408940D01*
X118339079Y-102421152D01*
X118344703Y-102434729D01*
X118355201Y-102445227D01*
X118363467Y-102457570D01*
X118385980Y-102476006D01*
X118386087Y-102476113D01*
X118386134Y-102476132D01*
X118386218Y-102476201D01*
X118552432Y-102587010D01*
X118643763Y-102678342D01*
X118692402Y-102775619D01*
X118708067Y-102800504D01*
X118752283Y-102838851D01*
X118807805Y-102857358D01*
X118866185Y-102853210D01*
X118918534Y-102827035D01*
X118956881Y-102782820D01*
X118975388Y-102727297D01*
X118971240Y-102668917D01*
X118960730Y-102641454D01*
X118901206Y-102522407D01*
X118893281Y-102509817D01*
X118891764Y-102506154D01*
X118888379Y-102502029D01*
X118887978Y-102501393D01*
X119569423Y-102501393D01*
X119569423Y-102708536D01*
X119572305Y-102737800D01*
X119594703Y-102791872D01*
X119636087Y-102833256D01*
X119690159Y-102855654D01*
X119748687Y-102855654D01*
X119802759Y-102833256D01*
X119844143Y-102791872D01*
X119866541Y-102737800D01*
X119869423Y-102708536D01*
X119869423Y-101994251D01*
X119866541Y-101964987D01*
X119844143Y-101910915D01*
X119802759Y-101869531D01*
X119748687Y-101847133D01*
X119690159Y-101847133D01*
X119636087Y-101869531D01*
X119594703Y-101910915D01*
X119572305Y-101964987D01*
X119569423Y-101994251D01*
X119569423Y-102201393D01*
X118469423Y-102201393D01*
X118469317Y-102201403D01*
X118469265Y-102201393D01*
X118469111Y-102201423D01*
X118440159Y-102204275D01*
X118426438Y-102209958D01*
X118411876Y-102212871D01*
X118399663Y-102221049D01*
X118386087Y-102226673D01*
X118375588Y-102237171D01*
X118363246Y-102245437D01*
X118355092Y-102257667D01*
X118344703Y-102268057D01*
X118339019Y-102281778D01*
X118330781Y-102294136D01*
X118327929Y-102308550D01*
X118322305Y-102322129D01*
X118322305Y-102336982D01*
X118319423Y-102351551D01*
X118169423Y-102351551D01*
X118169423Y-101697133D01*
X120019423Y-101697133D01*
X120019423Y-104199012D01*
G37*
%TO.C,D402*%
D13*
X107181000Y-92362800D02*
X107181000Y-95562800D01*
X107181000Y-92362800D02*
X109181000Y-92362800D01*
X109481000Y-92662800D02*
X109181000Y-92362800D01*
X109481000Y-92662800D02*
X109481000Y-95562800D01*
X109481000Y-95562800D02*
X107181000Y-95562800D01*
%TO.C,TP401*%
X112557600Y-99263200D02*
G75*
G02*
X110657600Y-99263200I-950000J0D01*
G01*
X110657600Y-99263200D02*
G75*
G02*
X112557600Y-99263200I950000J0D01*
G01*
%TO.C,R605*%
X112355100Y-89305676D02*
X112355100Y-89815124D01*
X113400100Y-89305676D02*
X113400100Y-89815124D01*
%TO.C,C302*%
X111710000Y-85673733D02*
X111710000Y-85966267D01*
X112730000Y-85673733D02*
X112730000Y-85966267D01*
%TO.C,TP101*%
X109027000Y-110490000D02*
G75*
G02*
X107127000Y-110490000I-950000J0D01*
G01*
X107127000Y-110490000D02*
G75*
G02*
X109027000Y-110490000I950000J0D01*
G01*
%TO.C,TP402*%
X113624400Y-96418400D02*
G75*
G02*
X111724400Y-96418400I-950000J0D01*
G01*
X111724400Y-96418400D02*
G75*
G02*
X113624400Y-96418400I950000J0D01*
G01*
%TO.C,TP102*%
X119187000Y-110490000D02*
G75*
G02*
X117287000Y-110490000I-950000J0D01*
G01*
X117287000Y-110490000D02*
G75*
G02*
X119187000Y-110490000I950000J0D01*
G01*
%TO.C,TP404*%
X109865200Y-87376000D02*
G75*
G02*
X107965200Y-87376000I-950000J0D01*
G01*
X107965200Y-87376000D02*
G75*
G02*
X109865200Y-87376000I950000J0D01*
G01*
%TO.C,C402*%
X109996600Y-95596233D02*
X109996600Y-95888767D01*
X111016600Y-95596233D02*
X111016600Y-95888767D01*
%TO.C,U303*%
X117460000Y-76080000D02*
X117460000Y-76840000D01*
X117460000Y-76840000D02*
X118540000Y-76840000D01*
X117780000Y-75760000D02*
X118540000Y-75760000D01*
X118540000Y-76840000D02*
X118540000Y-75760000D01*
X117460000Y-75760000D02*
X116960000Y-75760000D01*
X117460000Y-75260000D01*
X117460000Y-75760000D01*
G36*
X117460000Y-75760000D02*
G01*
X116960000Y-75760000D01*
X117460000Y-75260000D01*
X117460000Y-75760000D01*
G37*
D14*
%TO.C,G401*%
G36*
X105000979Y-77354362D02*
G01*
X105056319Y-77364851D01*
X105104224Y-77385213D01*
X105145827Y-77415851D01*
X105162752Y-77433047D01*
X105189834Y-77470660D01*
X105206042Y-77512261D01*
X105212372Y-77560614D01*
X105212541Y-77571121D01*
X105208174Y-77620471D01*
X105194289Y-77662685D01*
X105169708Y-77700971D01*
X105161152Y-77710974D01*
X105123396Y-77745191D01*
X105080061Y-77769377D01*
X105029819Y-77783992D01*
X104971341Y-77789491D01*
X104935312Y-77788803D01*
X104903509Y-77786625D01*
X104879838Y-77783140D01*
X104859142Y-77777027D01*
X104836265Y-77766966D01*
X104821734Y-77759705D01*
X104776485Y-77731214D01*
X104742834Y-77697193D01*
X104719882Y-77656283D01*
X104706729Y-77607127D01*
X104703744Y-77581662D01*
X104703943Y-77554213D01*
X104707640Y-77525931D01*
X104709650Y-77517500D01*
X104730156Y-77466710D01*
X104760278Y-77424987D01*
X104799732Y-77392536D01*
X104848230Y-77369565D01*
X104905484Y-77356280D01*
X104937067Y-77353347D01*
X105000979Y-77354362D01*
G37*
G36*
X105045793Y-76633448D02*
G01*
X105156099Y-76650015D01*
X105260033Y-76678223D01*
X105357821Y-76718183D01*
X105449690Y-76770003D01*
X105535868Y-76833792D01*
X105612281Y-76905169D01*
X105681842Y-76986027D01*
X105739870Y-77072604D01*
X105786917Y-77165903D01*
X105823536Y-77266926D01*
X105835504Y-77310185D01*
X105853686Y-77381767D01*
X105853686Y-79361678D01*
X105853683Y-79553989D01*
X105853676Y-79733469D01*
X105853659Y-79900572D01*
X105853631Y-80055756D01*
X105853589Y-80199476D01*
X105853529Y-80332189D01*
X105853450Y-80454351D01*
X105853348Y-80566417D01*
X105853221Y-80668843D01*
X105853066Y-80762089D01*
X105852879Y-80846606D01*
X105852660Y-80922853D01*
X105852402Y-80991285D01*
X105852106Y-81052358D01*
X105851768Y-81106530D01*
X105851384Y-81154255D01*
X105850953Y-81195989D01*
X105850472Y-81232190D01*
X105849937Y-81263313D01*
X105849345Y-81289814D01*
X105848695Y-81312149D01*
X105847984Y-81330775D01*
X105847206Y-81346147D01*
X105846364Y-81358722D01*
X105845450Y-81368955D01*
X105844464Y-81377304D01*
X105843401Y-81384223D01*
X105842261Y-81390170D01*
X105841241Y-81394741D01*
X105809587Y-81502702D01*
X105767003Y-81603643D01*
X105713884Y-81697046D01*
X105650626Y-81782398D01*
X105577625Y-81859181D01*
X105495274Y-81926879D01*
X105403969Y-81984977D01*
X105379293Y-81998198D01*
X105287751Y-82039719D01*
X105196013Y-82069320D01*
X105101391Y-82087646D01*
X105001200Y-82095343D01*
X104973657Y-82095683D01*
X104863234Y-82089721D01*
X104758459Y-82071755D01*
X104659039Y-82041668D01*
X104564677Y-81999342D01*
X104475081Y-81944657D01*
X104389955Y-81877496D01*
X104358846Y-81848802D01*
X104288187Y-81773708D01*
X104228737Y-81694427D01*
X104179600Y-81609356D01*
X104139888Y-81516890D01*
X104108708Y-81415427D01*
X104101594Y-81386097D01*
X104092123Y-81344911D01*
X104444196Y-81344911D01*
X104445158Y-81408029D01*
X104578880Y-81409825D01*
X104712602Y-81411622D01*
X104715411Y-81352888D01*
X104721058Y-81305401D01*
X104733704Y-81267186D01*
X104754499Y-81235580D01*
X104774853Y-81215686D01*
X104817474Y-81187478D01*
X104866375Y-81167896D01*
X104919158Y-81156867D01*
X104973419Y-81154317D01*
X105026757Y-81160175D01*
X105076768Y-81174366D01*
X105121052Y-81196818D01*
X105157087Y-81227325D01*
X105181886Y-81259604D01*
X105197164Y-81292702D01*
X105204498Y-81330918D01*
X105205750Y-81359995D01*
X105205896Y-81411621D01*
X105343759Y-81409825D01*
X105481622Y-81408029D01*
X105480555Y-81324979D01*
X105477186Y-81258849D01*
X105468238Y-81200767D01*
X105452686Y-81146296D01*
X105429502Y-81091000D01*
X105423710Y-81079151D01*
X105391091Y-81025755D01*
X105348714Y-80974549D01*
X105299823Y-80928822D01*
X105247659Y-80891863D01*
X105228774Y-80881376D01*
X105185260Y-80860472D01*
X105145590Y-80845053D01*
X105106327Y-80834376D01*
X105064031Y-80827700D01*
X105015264Y-80824282D01*
X104960068Y-80823377D01*
X104906852Y-80824019D01*
X104863550Y-80826395D01*
X104826831Y-80831194D01*
X104793359Y-80839111D01*
X104759803Y-80850840D01*
X104722830Y-80867076D01*
X104702039Y-80877091D01*
X104637309Y-80916117D01*
X104581077Y-80965225D01*
X104533985Y-81023781D01*
X104507111Y-81069455D01*
X104479059Y-81130567D01*
X104459894Y-81188780D01*
X104448615Y-81248474D01*
X104444221Y-81314031D01*
X104444196Y-81344911D01*
X104092123Y-81344911D01*
X104086775Y-81321657D01*
X104085654Y-80421396D01*
X104455124Y-80421396D01*
X104455124Y-80587496D01*
X104455124Y-80753596D01*
X104960068Y-80753596D01*
X104963390Y-80753596D01*
X105471656Y-80753596D01*
X105471656Y-80587496D01*
X105471656Y-80421396D01*
X104963390Y-80421396D01*
X104455124Y-80421396D01*
X104085654Y-80421396D01*
X104085157Y-80022756D01*
X104455124Y-80022756D01*
X104455124Y-80188856D01*
X104455124Y-80354956D01*
X104963390Y-80354957D01*
X105471656Y-80354956D01*
X105471656Y-80188856D01*
X105471656Y-80022756D01*
X104963390Y-80022756D01*
X104455124Y-80022756D01*
X104085157Y-80022756D01*
X104084787Y-79725437D01*
X104083738Y-78884197D01*
X104455125Y-78884197D01*
X104762409Y-78979436D01*
X104823735Y-78998499D01*
X104881190Y-79016471D01*
X104933525Y-79032949D01*
X104979490Y-79047537D01*
X105017838Y-79059837D01*
X105047317Y-79069448D01*
X105066681Y-79075974D01*
X105074678Y-79079016D01*
X105074777Y-79079085D01*
X105069645Y-79081838D01*
X105052983Y-79088054D01*
X105025980Y-79097345D01*
X104989825Y-79109323D01*
X104945706Y-79123599D01*
X104894811Y-79139787D01*
X104838330Y-79157498D01*
X104777450Y-79176343D01*
X104767501Y-79179401D01*
X104455140Y-79275306D01*
X104455132Y-79441447D01*
X104455125Y-79607587D01*
X104959096Y-79791918D01*
X105037305Y-79820504D01*
X105111903Y-79847733D01*
X105181950Y-79873265D01*
X105246507Y-79896758D01*
X105304632Y-79917873D01*
X105355387Y-79936266D01*
X105397833Y-79951600D01*
X105431028Y-79963531D01*
X105454033Y-79971717D01*
X105465909Y-79975824D01*
X105467362Y-79976249D01*
X105468552Y-79969905D01*
X105469614Y-79952078D01*
X105470503Y-79924570D01*
X105471169Y-79889190D01*
X105471564Y-79847734D01*
X105471656Y-79814728D01*
X105471656Y-79653208D01*
X105147761Y-79558030D01*
X105084052Y-79539271D01*
X105023736Y-79521437D01*
X104968108Y-79504917D01*
X104918465Y-79490100D01*
X104876101Y-79477372D01*
X104842311Y-79467123D01*
X104818393Y-79459740D01*
X104805641Y-79455612D01*
X104804442Y-79455171D01*
X104801119Y-79453698D01*
X104799210Y-79452111D01*
X104799461Y-79450173D01*
X104802619Y-79447647D01*
X104809431Y-79444298D01*
X104820645Y-79439888D01*
X104837007Y-79434182D01*
X104859265Y-79426943D01*
X104888167Y-79417934D01*
X104924459Y-79406919D01*
X104968888Y-79393664D01*
X105022203Y-79377929D01*
X105085149Y-79359480D01*
X105158474Y-79338079D01*
X105242927Y-79313489D01*
X105339252Y-79285477D01*
X105358708Y-79279821D01*
X105468334Y-79247951D01*
X105470112Y-79087661D01*
X105471890Y-78927372D01*
X105416960Y-78910810D01*
X105398854Y-78905442D01*
X105369617Y-78896881D01*
X105330890Y-78885607D01*
X105284315Y-78872093D01*
X105231532Y-78856816D01*
X105174183Y-78840253D01*
X105113908Y-78822877D01*
X105079660Y-78813019D01*
X105020756Y-78796011D01*
X104965794Y-78780020D01*
X104916090Y-78765438D01*
X104872962Y-78752657D01*
X104837727Y-78742068D01*
X104811701Y-78734065D01*
X104796201Y-78729037D01*
X104792310Y-78727492D01*
X104797523Y-78724857D01*
X104814341Y-78718875D01*
X104841607Y-78709906D01*
X104878168Y-78698311D01*
X104922867Y-78684449D01*
X104974547Y-78668680D01*
X105032056Y-78651366D01*
X105094236Y-78632867D01*
X105122334Y-78624575D01*
X105186640Y-78605601D01*
X105247165Y-78587658D01*
X105302695Y-78571111D01*
X105352021Y-78556327D01*
X105393928Y-78543670D01*
X105427208Y-78533504D01*
X105450643Y-78526196D01*
X105463025Y-78522110D01*
X105464614Y-78521458D01*
X105467101Y-78514368D01*
X105468897Y-78496258D01*
X105470019Y-78466606D01*
X105470481Y-78424892D01*
X105470304Y-78370593D01*
X105470111Y-78350310D01*
X105468334Y-78183657D01*
X104961843Y-78367384D01*
X104455353Y-78551111D01*
X104455239Y-78717654D01*
X104455125Y-78884197D01*
X104083738Y-78884197D01*
X104082796Y-78129216D01*
X104777227Y-78129217D01*
X105468334Y-78129217D01*
X105471656Y-78129217D01*
X105471656Y-77959795D01*
X105471656Y-77790373D01*
X105407105Y-77790373D01*
X105342552Y-77790374D01*
X105376555Y-77755492D01*
X105419460Y-77703641D01*
X105451706Y-77646173D01*
X105465658Y-77610985D01*
X105474060Y-77576755D01*
X105479432Y-77533633D01*
X105481718Y-77485679D01*
X105480861Y-77436952D01*
X105476806Y-77391512D01*
X105469496Y-77353418D01*
X105469229Y-77352444D01*
X105442581Y-77280092D01*
X105404879Y-77214894D01*
X105356647Y-77157479D01*
X105298407Y-77108479D01*
X105235794Y-77071050D01*
X105174223Y-77046067D01*
X105104518Y-77027929D01*
X105030248Y-77017201D01*
X104954988Y-77014439D01*
X104898550Y-77018102D01*
X104845138Y-77025308D01*
X104800449Y-77034262D01*
X104759929Y-77046240D01*
X104719020Y-77062517D01*
X104687664Y-77077178D01*
X104624620Y-77114731D01*
X104569196Y-77161470D01*
X104523076Y-77215738D01*
X104489706Y-77272141D01*
X104461806Y-77344582D01*
X104446011Y-77420764D01*
X104441836Y-77489717D01*
X104447649Y-77562527D01*
X104464980Y-77629235D01*
X104493666Y-77689417D01*
X104533546Y-77742649D01*
X104541475Y-77751025D01*
X104579977Y-77790374D01*
X104331519Y-77790373D01*
X104083060Y-77790373D01*
X104084177Y-77629256D01*
X104084592Y-77582684D01*
X104085150Y-77539127D01*
X104085811Y-77500812D01*
X104086533Y-77469962D01*
X104087273Y-77448805D01*
X104087719Y-77441563D01*
X104103655Y-77337045D01*
X104131627Y-77236021D01*
X104170888Y-77139495D01*
X104220687Y-77048474D01*
X104280275Y-76963966D01*
X104348904Y-76886977D01*
X104425823Y-76818516D01*
X104510285Y-76759589D01*
X104601539Y-76711203D01*
X104644478Y-76693191D01*
X104744849Y-76660609D01*
X104846575Y-76639599D01*
X104947665Y-76630457D01*
X105045793Y-76633448D01*
G37*
%TO.C,C401*%
D13*
X109996600Y-91988333D02*
X109996600Y-92280867D01*
X111016600Y-91988333D02*
X111016600Y-92280867D01*
%TO.C,R606*%
X112355100Y-92709276D02*
X112355100Y-93218724D01*
X113400100Y-92709276D02*
X113400100Y-93218724D01*
%TO.C,C304*%
X118523633Y-78128400D02*
X118816167Y-78128400D01*
X118523633Y-79148400D02*
X118816167Y-79148400D01*
%TO.C,SW401*%
D15*
X121982000Y-86168000D02*
X121982000Y-87568000D01*
X123382000Y-86168000D02*
X123382000Y-87568000D01*
X123129214Y-86868000D02*
G75*
G02*
X122234786Y-86868000I-447214J0D01*
G01*
X122234786Y-86868000D02*
G75*
G02*
X123129214Y-86868000I447214J0D01*
G01*
%TO.C,R603*%
D13*
X115520376Y-98588300D02*
X116029824Y-98588300D01*
X115520376Y-99633300D02*
X116029824Y-99633300D01*
%TO.C,D403*%
X107181000Y-88756000D02*
X107181000Y-91956000D01*
X107181000Y-88756000D02*
X109181000Y-88756000D01*
X109481000Y-89056000D02*
X109181000Y-88756000D01*
X109481000Y-89056000D02*
X109481000Y-91956000D01*
X109481000Y-91956000D02*
X107181000Y-91956000D01*
%TO.C,Q603*%
X115117200Y-89930800D02*
X116937200Y-89930800D01*
X115117200Y-89980800D02*
X115117200Y-89930800D01*
X115117200Y-91880800D02*
X115117200Y-91100800D01*
X115117200Y-93050800D02*
X115117200Y-93000800D01*
X116937200Y-89930800D02*
X116937200Y-90930800D01*
X116937200Y-92050800D02*
X116937200Y-93050800D01*
X116937200Y-93050800D02*
X115117200Y-93050800D01*
X114577200Y-91110800D02*
X114817200Y-91440800D01*
X114337200Y-91440800D01*
X114577200Y-91110800D01*
G36*
X114817200Y-91440800D02*
G01*
X114337200Y-91440800D01*
X114577200Y-91110800D01*
X114817200Y-91440800D01*
G37*
%TO.C,R404*%
X106411500Y-77879024D02*
X106411500Y-77369576D01*
X107456500Y-77879024D02*
X107456500Y-77369576D01*
%TO.C,R613*%
X108545100Y-102767224D02*
X108545100Y-102257776D01*
X109590100Y-102767224D02*
X109590100Y-102257776D01*
%TO.C,U301*%
X102570000Y-58920000D02*
X102570000Y-74640000D01*
X113880000Y-58920000D02*
X102570000Y-58920000D01*
X118290000Y-58920000D02*
X114580000Y-58920000D01*
X118290000Y-58920000D02*
X118290000Y-74640000D01*
X118290000Y-74640000D02*
X102570000Y-74640000D01*
X114230000Y-58920000D02*
X113990001Y-58590000D01*
X114470000Y-58590000D01*
X114230000Y-58920000D01*
G36*
X114230000Y-58920000D02*
G01*
X113990001Y-58590000D01*
X114470000Y-58590000D01*
X114230000Y-58920000D01*
G37*
%TO.C,J404*%
X98420000Y-94960000D02*
X98420000Y-96280000D01*
X98420000Y-96880000D02*
X98420000Y-105820000D01*
X99039999Y-94960000D02*
X99040000Y-105820000D01*
X104340000Y-94960000D02*
X104340000Y-105820000D01*
X104860000Y-94960000D02*
X98420000Y-94960000D01*
X104860000Y-94960000D02*
X104860000Y-105820000D01*
X104860000Y-105820000D02*
X98420000Y-105820000D01*
X98420000Y-96580000D02*
X97810000Y-97020000D01*
X97810000Y-96140000D01*
X98420000Y-96580000D01*
G36*
X98420000Y-96580000D02*
G01*
X97810000Y-97020000D01*
X97810000Y-96140000D01*
X98420000Y-96580000D01*
G37*
%TO.C,SW402*%
D15*
X125284000Y-86168000D02*
X125284000Y-87568000D01*
X126684000Y-86168000D02*
X126684000Y-87568000D01*
X126431214Y-86868000D02*
G75*
G02*
X125536786Y-86868000I-447214J0D01*
G01*
X125536786Y-86868000D02*
G75*
G02*
X126431214Y-86868000I447214J0D01*
G01*
%TO.C,TP403*%
D13*
X108442800Y-84582000D02*
G75*
G02*
X106542800Y-84582000I-950000J0D01*
G01*
X106542800Y-84582000D02*
G75*
G02*
X108442800Y-84582000I950000J0D01*
G01*
D14*
%TO.C,G\u002A\u002A\u002A*%
G36*
X119404748Y-61314687D02*
G01*
X119485590Y-61319750D01*
X119548439Y-61330214D01*
X119596076Y-61347042D01*
X119631285Y-61371197D01*
X119655524Y-61401421D01*
X119678104Y-61455897D01*
X119685682Y-61515830D01*
X119678781Y-61575333D01*
X119657925Y-61628518D01*
X119632377Y-61661762D01*
X119596908Y-61689175D01*
X119552891Y-61709326D01*
X119496697Y-61723301D01*
X119424699Y-61732186D01*
X119389033Y-61734653D01*
X119274614Y-61741199D01*
X119274614Y-61526020D01*
X119274614Y-61310841D01*
X119404748Y-61314687D01*
G37*
G36*
X122435007Y-61201627D02*
G01*
X122512718Y-61202003D01*
X122572856Y-61203188D01*
X122619087Y-61205441D01*
X122655076Y-61209025D01*
X122684491Y-61214198D01*
X122710995Y-61221222D01*
X122711112Y-61221257D01*
X122778576Y-61252216D01*
X122833201Y-61298278D01*
X122873657Y-61356688D01*
X122898614Y-61424692D01*
X122906741Y-61499534D01*
X122896710Y-61578459D01*
X122891977Y-61595953D01*
X122862224Y-61659418D01*
X122813890Y-61714237D01*
X122751218Y-61757227D01*
X122695618Y-61787091D01*
X122818611Y-61988264D01*
X122855817Y-62049121D01*
X122890507Y-62105859D01*
X122920718Y-62155271D01*
X122944490Y-62194149D01*
X122959861Y-62219286D01*
X122963007Y-62224431D01*
X122984411Y-62259424D01*
X122902515Y-62256300D01*
X122820620Y-62253177D01*
X122696052Y-62040713D01*
X122571485Y-61828250D01*
X122463409Y-61825222D01*
X122355333Y-61822195D01*
X122355333Y-62040342D01*
X122355333Y-62258488D01*
X122286183Y-62258488D01*
X122217034Y-62258488D01*
X122219789Y-61729986D01*
X122219900Y-61708611D01*
X122354844Y-61708611D01*
X122490534Y-61704346D01*
X122548841Y-61702095D01*
X122590746Y-61699088D01*
X122621090Y-61694514D01*
X122644719Y-61687566D01*
X122666474Y-61677433D01*
X122672972Y-61673868D01*
X122715584Y-61642255D01*
X122742780Y-61602075D01*
X122756447Y-61549612D01*
X122758974Y-61504409D01*
X122754297Y-61446649D01*
X122739140Y-61401398D01*
X122711700Y-61367425D01*
X122670176Y-61343498D01*
X122612767Y-61328384D01*
X122537669Y-61320852D01*
X122488522Y-61319498D01*
X122360645Y-61318338D01*
X122357744Y-61513474D01*
X122354844Y-61708611D01*
X122219900Y-61708611D01*
X122222544Y-61201483D01*
X122435007Y-61201627D01*
G37*
G36*
X120343147Y-59648972D02*
G01*
X120338272Y-59674824D01*
X120330610Y-59709384D01*
X120313314Y-59788413D01*
X120294243Y-59884779D01*
X120274005Y-59994704D01*
X120253210Y-60114413D01*
X120232466Y-60240129D01*
X120212383Y-60368076D01*
X120193570Y-60494478D01*
X120176635Y-60615558D01*
X120162188Y-60727541D01*
X120151643Y-60819049D01*
X120139702Y-60946059D01*
X120129667Y-61083873D01*
X120121521Y-61230229D01*
X120115247Y-61382864D01*
X120110828Y-61539515D01*
X120108247Y-61697920D01*
X120107487Y-61855816D01*
X120108531Y-62010940D01*
X120111362Y-62161031D01*
X120115963Y-62303825D01*
X120122316Y-62437059D01*
X120130405Y-62558471D01*
X120140213Y-62665799D01*
X120151722Y-62756780D01*
X120164916Y-62829150D01*
X120166844Y-62837451D01*
X120171884Y-62868845D01*
X120167252Y-62890551D01*
X120158719Y-62903804D01*
X120141626Y-62925018D01*
X120114345Y-62957619D01*
X120078970Y-62999210D01*
X120037594Y-63047391D01*
X119992311Y-63099762D01*
X119945216Y-63153925D01*
X119898403Y-63207482D01*
X119853965Y-63258032D01*
X119813997Y-63303177D01*
X119780592Y-63340519D01*
X119755845Y-63367657D01*
X119741849Y-63382194D01*
X119739580Y-63383991D01*
X119732015Y-63375334D01*
X119725499Y-63355331D01*
X119719422Y-63332644D01*
X119708351Y-63295991D01*
X119694171Y-63251508D01*
X119686051Y-63226890D01*
X119670207Y-63181442D01*
X119658917Y-63154424D01*
X119651096Y-63143781D01*
X119645657Y-63147460D01*
X119644982Y-63149114D01*
X119638488Y-63174091D01*
X119630493Y-63216339D01*
X119621530Y-63271982D01*
X119612131Y-63337141D01*
X119602829Y-63407938D01*
X119594157Y-63480498D01*
X119586646Y-63550941D01*
X119580829Y-63615391D01*
X119580652Y-63617628D01*
X119575910Y-63673067D01*
X119571173Y-63720079D01*
X119566863Y-63755035D01*
X119563404Y-63774303D01*
X119562090Y-63776918D01*
X119551336Y-63770406D01*
X119529148Y-63754086D01*
X119503012Y-63733620D01*
X119334164Y-63585151D01*
X119181992Y-63424659D01*
X119046854Y-63253341D01*
X118929110Y-63072394D01*
X118829121Y-62883016D01*
X118747245Y-62686405D01*
X118683843Y-62483757D01*
X118639274Y-62276271D01*
X118613897Y-62065143D01*
X118608073Y-61851572D01*
X118616220Y-61727330D01*
X119147136Y-61727330D01*
X119147136Y-62258488D01*
X119210875Y-62258488D01*
X119274614Y-62258488D01*
X119274614Y-62052746D01*
X119274614Y-61847005D01*
X119410059Y-61841464D01*
X119509457Y-61833491D01*
X119591103Y-61817760D01*
X119657427Y-61793165D01*
X119710854Y-61758602D01*
X119753813Y-61712966D01*
X119779214Y-61673370D01*
X119794026Y-61644920D01*
X119803379Y-61620200D01*
X119808514Y-61592842D01*
X119810668Y-61556478D01*
X119811084Y-61509555D01*
X119810466Y-61458320D01*
X119807917Y-61422284D01*
X119802394Y-61395416D01*
X119792854Y-61371686D01*
X119784526Y-61356015D01*
X119754019Y-61311447D01*
X119716118Y-61275298D01*
X119668722Y-61246888D01*
X119609731Y-61225533D01*
X119537042Y-61210552D01*
X119448555Y-61201263D01*
X119342168Y-61196983D01*
X119293204Y-61196519D01*
X119147136Y-61196171D01*
X119147136Y-61727330D01*
X118616220Y-61727330D01*
X118622160Y-61636755D01*
X118656520Y-61421888D01*
X118711510Y-61208171D01*
X118715354Y-61196171D01*
X118728556Y-61154964D01*
X118807519Y-60951124D01*
X118904870Y-60756794D01*
X119019492Y-60573096D01*
X119150265Y-60401147D01*
X119296073Y-60242068D01*
X119455796Y-60096979D01*
X119628316Y-59966998D01*
X119812515Y-59853247D01*
X120007274Y-59756845D01*
X120198383Y-59683245D01*
X120249680Y-59666330D01*
X120293204Y-59652428D01*
X120325295Y-59642675D01*
X120342291Y-59638203D01*
X120344022Y-59638116D01*
X120343147Y-59648972D01*
G37*
G36*
X120898189Y-58046621D02*
G01*
X120899306Y-58060112D01*
X120900333Y-58082267D01*
X120901275Y-58113729D01*
X120902133Y-58155137D01*
X120902910Y-58207136D01*
X120903609Y-58270367D01*
X120904233Y-58345471D01*
X120904785Y-58433090D01*
X120905268Y-58533867D01*
X120905684Y-58648443D01*
X120906036Y-58777461D01*
X120906328Y-58921561D01*
X120906561Y-59081387D01*
X120906740Y-59257579D01*
X120906865Y-59450781D01*
X120906942Y-59661633D01*
X120906971Y-59890778D01*
X120906957Y-60138858D01*
X120906901Y-60406514D01*
X120906808Y-60694389D01*
X120906734Y-60877476D01*
X120906606Y-61132306D01*
X120906441Y-61384849D01*
X120906242Y-61634048D01*
X120906011Y-61878847D01*
X120905749Y-62118192D01*
X120905459Y-62351027D01*
X120905142Y-62576296D01*
X120904802Y-62792943D01*
X120904439Y-62999913D01*
X120904056Y-63196151D01*
X120903655Y-63380600D01*
X120903238Y-63552205D01*
X120902807Y-63709910D01*
X120902365Y-63852661D01*
X120901912Y-63979400D01*
X120901452Y-64089074D01*
X120900986Y-64180625D01*
X120900516Y-64252999D01*
X120900064Y-64303449D01*
X120894647Y-64792114D01*
X120845511Y-64717752D01*
X120808609Y-64657594D01*
X120767301Y-64582966D01*
X120724410Y-64499376D01*
X120682761Y-64412330D01*
X120645177Y-64327338D01*
X120644505Y-64325741D01*
X120621552Y-64274327D01*
X120602691Y-64240763D01*
X120585767Y-64222595D01*
X120568624Y-64217367D01*
X120552634Y-64221115D01*
X120540551Y-64228997D01*
X120513336Y-64248628D01*
X120472657Y-64278750D01*
X120420182Y-64318106D01*
X120357579Y-64365437D01*
X120286515Y-64419486D01*
X120208659Y-64478995D01*
X120125678Y-64542706D01*
X120101725Y-64561148D01*
X120002648Y-64637624D01*
X119919234Y-64702380D01*
X119850187Y-64756493D01*
X119794209Y-64801040D01*
X119750004Y-64837097D01*
X119716275Y-64865740D01*
X119691725Y-64888047D01*
X119675056Y-64905093D01*
X119664973Y-64917956D01*
X119660196Y-64927647D01*
X119649698Y-64962085D01*
X119642685Y-64914281D01*
X119629995Y-64808462D01*
X119620058Y-64685199D01*
X119612878Y-64548115D01*
X119608457Y-64400835D01*
X119606798Y-64246982D01*
X119607904Y-64090179D01*
X119611778Y-63934050D01*
X119618423Y-63782218D01*
X119627840Y-63638308D01*
X119640034Y-63505942D01*
X119641585Y-63491889D01*
X119647324Y-63439912D01*
X119652089Y-63395027D01*
X119655411Y-63361770D01*
X119656823Y-63344674D01*
X119656841Y-63344080D01*
X119660218Y-63333052D01*
X119667731Y-63338062D01*
X119676362Y-63355147D01*
X119682683Y-63378048D01*
X119696248Y-63415582D01*
X119719405Y-63434229D01*
X119743819Y-63435820D01*
X119758566Y-63426703D01*
X119785822Y-63401699D01*
X119825737Y-63360648D01*
X119878461Y-63303393D01*
X119944144Y-63229775D01*
X119999355Y-63166769D01*
X120063586Y-63092781D01*
X120114948Y-63032943D01*
X120154741Y-62985575D01*
X120184265Y-62948996D01*
X120204821Y-62921526D01*
X120217709Y-62901484D01*
X120224229Y-62887189D01*
X120225681Y-62876960D01*
X120225365Y-62874632D01*
X120211491Y-62803006D01*
X120199881Y-62736607D01*
X120190292Y-62672423D01*
X120182481Y-62607443D01*
X120176205Y-62538654D01*
X120171221Y-62463044D01*
X120167285Y-62377600D01*
X120164155Y-62279311D01*
X120161588Y-62165164D01*
X120159801Y-62061960D01*
X120158209Y-61886748D01*
X120158813Y-61709403D01*
X120161506Y-61533621D01*
X120166178Y-61363098D01*
X120172721Y-61201530D01*
X120181027Y-61052614D01*
X120190987Y-60920046D01*
X120194399Y-60882788D01*
X120209845Y-60740027D01*
X120229797Y-60583995D01*
X120253546Y-60418782D01*
X120280382Y-60248482D01*
X120309597Y-60077188D01*
X120340482Y-59908992D01*
X120372327Y-59747988D01*
X120404422Y-59598267D01*
X120436060Y-59463922D01*
X120449097Y-59412855D01*
X120484062Y-59303771D01*
X120533005Y-59191177D01*
X120596974Y-59073128D01*
X120677013Y-58947682D01*
X120766596Y-58822930D01*
X120864851Y-58692279D01*
X120872706Y-58427768D01*
X120875539Y-58347147D01*
X120879164Y-58266545D01*
X120883310Y-58190659D01*
X120887709Y-58124183D01*
X120892091Y-58071813D01*
X120894274Y-58051713D01*
X120895676Y-58043063D01*
X120896980Y-58041152D01*
X120898189Y-58046621D01*
G37*
G36*
X120981324Y-57498997D02*
G01*
X120996232Y-57533986D01*
X121008847Y-57569736D01*
X121019809Y-57609426D01*
X121029759Y-57656234D01*
X121039337Y-57713337D01*
X121049185Y-57783915D01*
X121059942Y-57871145D01*
X121064896Y-57913612D01*
X121089125Y-58188296D01*
X121098818Y-58412266D01*
X121105181Y-58671899D01*
X121171234Y-58757519D01*
X121262604Y-58882720D01*
X121343292Y-59007091D01*
X121411732Y-59127839D01*
X121466359Y-59242166D01*
X121505609Y-59347278D01*
X121510494Y-59363525D01*
X121523312Y-59405827D01*
X121534752Y-59439998D01*
X121543120Y-59461138D01*
X121545699Y-59465358D01*
X121558802Y-59470789D01*
X121587308Y-59479842D01*
X121626026Y-59490910D01*
X121643581Y-59495641D01*
X121753475Y-59529450D01*
X121873641Y-59574676D01*
X121998381Y-59628721D01*
X122121998Y-59688990D01*
X122238793Y-59752886D01*
X122326664Y-59806939D01*
X122513360Y-59941441D01*
X122684987Y-60090611D01*
X122841035Y-60253645D01*
X122980995Y-60429739D01*
X123104357Y-60618088D01*
X123210613Y-60817888D01*
X123299254Y-61028334D01*
X123369769Y-61248622D01*
X123421649Y-61477947D01*
X123434881Y-61557359D01*
X123443023Y-61627589D01*
X123448944Y-61712903D01*
X123452595Y-61807662D01*
X123453928Y-61906226D01*
X123452896Y-62002955D01*
X123449449Y-62092208D01*
X123443538Y-62168345D01*
X123440352Y-62194749D01*
X123398870Y-62426926D01*
X123339856Y-62647688D01*
X123262766Y-62858383D01*
X123167052Y-63060359D01*
X123052171Y-63254964D01*
X122954386Y-63395167D01*
X122903769Y-63458575D01*
X122840988Y-63530056D01*
X122770048Y-63605604D01*
X122694955Y-63681211D01*
X122619715Y-63752870D01*
X122548335Y-63816575D01*
X122484819Y-63868317D01*
X122471175Y-63878522D01*
X122369608Y-63952884D01*
X122362886Y-64298137D01*
X122360855Y-64388274D01*
X122358339Y-64477328D01*
X122355483Y-64561543D01*
X122352430Y-64637166D01*
X122349322Y-64700442D01*
X122346304Y-64747618D01*
X122345238Y-64760245D01*
X122340696Y-64805803D01*
X122334728Y-64861254D01*
X122327759Y-64923098D01*
X122320215Y-64987836D01*
X122312520Y-65051970D01*
X122305100Y-65112000D01*
X122298380Y-65164427D01*
X122292785Y-65205753D01*
X122288739Y-65232478D01*
X122286820Y-65241119D01*
X122283422Y-65232406D01*
X122275774Y-65206507D01*
X122264828Y-65166838D01*
X122251535Y-65116813D01*
X122242958Y-65083750D01*
X122201755Y-64923550D01*
X121823102Y-64632382D01*
X121444448Y-64341214D01*
X121380637Y-64352454D01*
X121316826Y-64363695D01*
X121251187Y-64494181D01*
X121193415Y-64602870D01*
X121134866Y-64701356D01*
X121077540Y-64786530D01*
X121023434Y-64855282D01*
X121008553Y-64871788D01*
X120953885Y-64930216D01*
X120953824Y-64792046D01*
X121006191Y-64792046D01*
X121044109Y-64738965D01*
X121079816Y-64684948D01*
X121120604Y-64616580D01*
X121163545Y-64539190D01*
X121205710Y-64458104D01*
X121244170Y-64378652D01*
X121254264Y-64356564D01*
X121279672Y-64300617D01*
X121298512Y-64261324D01*
X121312747Y-64235884D01*
X121324340Y-64221492D01*
X121335254Y-64215347D01*
X121347452Y-64214644D01*
X121353219Y-64215270D01*
X121366258Y-64222211D01*
X121394401Y-64240947D01*
X121435969Y-64270245D01*
X121489282Y-64308873D01*
X121552659Y-64355600D01*
X121624421Y-64409192D01*
X121702888Y-64468419D01*
X121786381Y-64532047D01*
X121813828Y-64553093D01*
X121913197Y-64629539D01*
X121996883Y-64694271D01*
X122066174Y-64748356D01*
X122122357Y-64792859D01*
X122166722Y-64828848D01*
X122200558Y-64857389D01*
X122225152Y-64879547D01*
X122241794Y-64896391D01*
X122251772Y-64908985D01*
X122256375Y-64918397D01*
X122256680Y-64919592D01*
X122263764Y-64951462D01*
X122271395Y-64914281D01*
X122274817Y-64891144D01*
X122279318Y-64851362D01*
X122284440Y-64799479D01*
X122289723Y-64740039D01*
X122292845Y-64701817D01*
X122301382Y-64560420D01*
X122306280Y-64403225D01*
X122307636Y-64235347D01*
X122305551Y-64061904D01*
X122300122Y-63888012D01*
X122291448Y-63718787D01*
X122279629Y-63559346D01*
X122268650Y-63448283D01*
X122256199Y-63336740D01*
X122241101Y-63382010D01*
X122221969Y-63421370D01*
X122197857Y-63441723D01*
X122170109Y-63442144D01*
X122160132Y-63437610D01*
X122147873Y-63426613D01*
X122123705Y-63401462D01*
X122089469Y-63364199D01*
X122047007Y-63316866D01*
X121998160Y-63261507D01*
X121944767Y-63200164D01*
X121914472Y-63165011D01*
X121852318Y-63092802D01*
X121802494Y-63034623D01*
X121763806Y-62988118D01*
X121735062Y-62950929D01*
X121715070Y-62920699D01*
X121702637Y-62895070D01*
X121696570Y-62871686D01*
X121695677Y-62848188D01*
X121698765Y-62822220D01*
X121704642Y-62791424D01*
X121710525Y-62761858D01*
X121720694Y-62703708D01*
X121729297Y-62642330D01*
X121736437Y-62575616D01*
X121742216Y-62501456D01*
X121746735Y-62417741D01*
X121750098Y-62322361D01*
X121752407Y-62213208D01*
X121753762Y-62088171D01*
X121754268Y-61945142D01*
X121754224Y-61860119D01*
X121753291Y-61670116D01*
X121751016Y-61498188D01*
X121747188Y-61341196D01*
X121741594Y-61196000D01*
X121734024Y-61059458D01*
X121724265Y-60928431D01*
X121712108Y-60799779D01*
X121697339Y-60670361D01*
X121679747Y-60537037D01*
X121659121Y-60396667D01*
X121652972Y-60356941D01*
X121633010Y-60234214D01*
X121611103Y-60108408D01*
X121587804Y-59982158D01*
X121563671Y-59858102D01*
X121539260Y-59738876D01*
X121519899Y-59649215D01*
X121582897Y-59649215D01*
X121583860Y-59660132D01*
X121588609Y-59688028D01*
X121596441Y-59729115D01*
X121606652Y-59779606D01*
X121610937Y-59800126D01*
X121622070Y-59855304D01*
X121635581Y-59925924D01*
X121650455Y-60006453D01*
X121665674Y-60091358D01*
X121680222Y-60175108D01*
X121684931Y-60202905D01*
X121712474Y-60372629D01*
X121736045Y-60531784D01*
X121755906Y-60683820D01*
X121772323Y-60832189D01*
X121785559Y-60980339D01*
X121795878Y-61131724D01*
X121803543Y-61289792D01*
X121808820Y-61457995D01*
X121811970Y-61639783D01*
X121813260Y-61838607D01*
X121813318Y-61881547D01*
X121812698Y-62050498D01*
X121810567Y-62200161D01*
X121806835Y-62332445D01*
X121801415Y-62449261D01*
X121794217Y-62552518D01*
X121785153Y-62644126D01*
X121774148Y-62725908D01*
X121766835Y-62775152D01*
X121760873Y-62819089D01*
X121757024Y-62851883D01*
X121756000Y-62864894D01*
X121759101Y-62877056D01*
X121769752Y-62896223D01*
X121789098Y-62923880D01*
X121818288Y-62961511D01*
X121858465Y-63010601D01*
X121910777Y-63072634D01*
X121967475Y-63138777D01*
X122027261Y-63208065D01*
X122074726Y-63262684D01*
X122111366Y-63304103D01*
X122138678Y-63333793D01*
X122158159Y-63353224D01*
X122171306Y-63363865D01*
X122179616Y-63367186D01*
X122184584Y-63364657D01*
X122187709Y-63357748D01*
X122188332Y-63355668D01*
X122202824Y-63307195D01*
X122218743Y-63256966D01*
X122234678Y-63209080D01*
X122249215Y-63167635D01*
X122260942Y-63136728D01*
X122268446Y-63120458D01*
X122269919Y-63118965D01*
X122274367Y-63128714D01*
X122281058Y-63154981D01*
X122288944Y-63193292D01*
X122294215Y-63222541D01*
X122300021Y-63258049D01*
X122305698Y-63296469D01*
X122311574Y-63340539D01*
X122317972Y-63392997D01*
X122325220Y-63456582D01*
X122333642Y-63534031D01*
X122343566Y-63628083D01*
X122351096Y-63700584D01*
X122355236Y-63731710D01*
X122359699Y-63751954D01*
X122362244Y-63756355D01*
X122372286Y-63750069D01*
X122394747Y-63733211D01*
X122425701Y-63708776D01*
X122443888Y-63694040D01*
X122603952Y-63549672D01*
X122749608Y-63390497D01*
X122879989Y-63218082D01*
X122994225Y-63033995D01*
X123091449Y-62839804D01*
X123170791Y-62637075D01*
X123231383Y-62427377D01*
X123272356Y-62212276D01*
X123274778Y-62194749D01*
X123282704Y-62114904D01*
X123287591Y-62020313D01*
X123289452Y-61917255D01*
X123288305Y-61812009D01*
X123284164Y-61710856D01*
X123277043Y-61620073D01*
X123273298Y-61587547D01*
X123235109Y-61372920D01*
X123176947Y-61164125D01*
X123099578Y-60962374D01*
X123003768Y-60768881D01*
X122890280Y-60584858D01*
X122759881Y-60411518D01*
X122613337Y-60250072D01*
X122451412Y-60101734D01*
X122274871Y-59967716D01*
X122233167Y-59939629D01*
X122152806Y-59890578D01*
X122058574Y-59839336D01*
X121957145Y-59789128D01*
X121855191Y-59743176D01*
X121759388Y-59704707D01*
X121713047Y-59688341D01*
X121664793Y-59672616D01*
X121624455Y-59660053D01*
X121595948Y-59651828D01*
X121583183Y-59649116D01*
X121582897Y-59649215D01*
X121519899Y-59649215D01*
X121515127Y-59627116D01*
X121491827Y-59525458D01*
X121469917Y-59436539D01*
X121449954Y-59362995D01*
X121432493Y-59307463D01*
X121430300Y-59301331D01*
X121394580Y-59217016D01*
X121345625Y-59122019D01*
X121285722Y-59020162D01*
X121217161Y-58915268D01*
X121142229Y-58811159D01*
X121117756Y-58779246D01*
X121051436Y-58694106D01*
X121043588Y-58432482D01*
X121040761Y-58352748D01*
X121037164Y-58273476D01*
X121033064Y-58199280D01*
X121028728Y-58134772D01*
X121024424Y-58084567D01*
X121022351Y-58066137D01*
X121021070Y-58059196D01*
X121019867Y-58059416D01*
X121018739Y-58067384D01*
X121017684Y-58083689D01*
X121016698Y-58108918D01*
X121015779Y-58143660D01*
X121014924Y-58188502D01*
X121014132Y-58244034D01*
X121013398Y-58310843D01*
X121012721Y-58389517D01*
X121012098Y-58480644D01*
X121011527Y-58584813D01*
X121011004Y-58702612D01*
X121010527Y-58834628D01*
X121010093Y-58981451D01*
X121009700Y-59143667D01*
X121009346Y-59321866D01*
X121009027Y-59516635D01*
X121008741Y-59728562D01*
X121008485Y-59958236D01*
X121008257Y-60206245D01*
X121008054Y-60473176D01*
X121007873Y-60759619D01*
X121007713Y-61066160D01*
X121007576Y-61376731D01*
X121006191Y-64792046D01*
X120953824Y-64792046D01*
X120953090Y-63140211D01*
X120952990Y-62939694D01*
X120952870Y-62740677D01*
X120952732Y-62544599D01*
X120952577Y-62352901D01*
X120952408Y-62167023D01*
X120952225Y-61988406D01*
X120952032Y-61818491D01*
X120951829Y-61658717D01*
X120951618Y-61510524D01*
X120951402Y-61375354D01*
X120951181Y-61254647D01*
X120950959Y-61149843D01*
X120950736Y-61062382D01*
X120950515Y-60993705D01*
X120950360Y-60957150D01*
X120950153Y-60899412D01*
X120949996Y-60822028D01*
X120949890Y-60726599D01*
X120949834Y-60614726D01*
X120949825Y-60488010D01*
X120949863Y-60348051D01*
X120949948Y-60196449D01*
X120950077Y-60034807D01*
X120950251Y-59864723D01*
X120950467Y-59687800D01*
X120950726Y-59505637D01*
X120951025Y-59319836D01*
X120951364Y-59131996D01*
X120951620Y-59002487D01*
X120954816Y-57440881D01*
X120981324Y-57498997D01*
G37*
%TO.C,J408*%
D13*
X98255000Y-76935000D02*
X98255000Y-80815000D01*
X100225000Y-75765000D02*
X102725001Y-75765000D01*
X100225000Y-81985000D02*
X102725001Y-81985000D01*
X102725001Y-75765000D02*
X102725001Y-76815000D01*
X102725001Y-76815000D02*
X103715000Y-76815000D01*
X102725001Y-81985000D02*
X102725001Y-80935000D01*
%TO.C,J402*%
X101450000Y-84083000D02*
X103150000Y-84083000D01*
X101450000Y-93423000D02*
X103150000Y-93423000D01*
%TO.C,J403*%
X120480000Y-89880000D02*
X126920000Y-89880000D01*
X120480000Y-105820000D02*
X120480000Y-89880000D01*
X120480000Y-105820000D02*
X126920000Y-105820000D01*
X121000000Y-105820000D02*
X121000000Y-89880000D01*
X126300001Y-105820000D02*
X126300001Y-89880000D01*
X126920000Y-103900000D02*
X126920000Y-89880000D01*
X126920000Y-105820000D02*
X126920000Y-104500000D01*
X126920000Y-104200000D02*
X127530000Y-103760000D01*
X127530000Y-104640000D01*
X126920000Y-104200000D01*
G36*
X127530000Y-104640000D02*
G01*
X126920000Y-104200000D01*
X127530000Y-103760000D01*
X127530000Y-104640000D01*
G37*
%TO.C,BZ401*%
D15*
X123776000Y-62216000D02*
X127176000Y-62216000D01*
X123776000Y-66816000D02*
X123776000Y-62216000D01*
X126576000Y-66816000D02*
X123776000Y-66816000D01*
X127176000Y-62216000D02*
X127176000Y-66216000D01*
X127176000Y-66216000D02*
X126576000Y-66816000D01*
%TO.C,U202*%
D13*
X119718800Y-69376000D02*
X119988800Y-69376000D01*
X119718800Y-74896000D02*
X119718800Y-69376000D01*
X119988800Y-74896000D02*
X119718800Y-74896000D01*
X124968800Y-69376000D02*
X125238800Y-69376000D01*
X125238800Y-69376000D02*
X125238800Y-74896000D01*
X125238800Y-74896000D02*
X124968800Y-74896000D01*
X119978800Y-75726000D02*
X119508800Y-76066000D01*
X119508800Y-75386000D01*
X119978800Y-75726000D01*
G36*
X119978800Y-75726000D02*
G01*
X119508800Y-76066000D01*
X119508800Y-75386000D01*
X119978800Y-75726000D01*
G37*
%TO.C,U302*%
X111060000Y-83860000D02*
X111060000Y-83685000D01*
X111735000Y-81140000D02*
X111360000Y-81140000D01*
X111735000Y-83860000D02*
X111060000Y-83860000D01*
X113605000Y-81140000D02*
X114280000Y-81140000D01*
X113605000Y-83860000D02*
X114280000Y-83860000D01*
X114280000Y-81140000D02*
X114280000Y-81315000D01*
X114280000Y-83860000D02*
X114280000Y-83685000D01*
X111060000Y-81140000D02*
X110920000Y-80950000D01*
X111200000Y-80950000D01*
X111060000Y-81140000D01*
G36*
X111060000Y-81140000D02*
G01*
X110920000Y-80950000D01*
X111200000Y-80950000D01*
X111060000Y-81140000D01*
G37*
%TO.C,C301*%
X116043733Y-82760000D02*
X116336267Y-82760000D01*
X116043733Y-83780000D02*
X116336267Y-83780000D01*
%TO.C,D406*%
X106199000Y-79621900D02*
X106199000Y-82081900D01*
X107669000Y-79621900D02*
X106199000Y-79621900D01*
X107669000Y-82081900D02*
X107669000Y-79621900D01*
%TO.C,J401*%
X98950000Y-71628000D02*
X98950000Y-61358000D01*
X101710000Y-61358000D02*
X98950000Y-61358000D01*
X101710000Y-71628000D02*
X98950000Y-71628000D01*
X101710000Y-71628000D02*
X101710000Y-61358000D01*
X101710000Y-72898000D02*
X101710000Y-74278000D01*
X101710000Y-74278000D02*
X100330000Y-74278000D01*
%TO.C,C305*%
X118717600Y-83002167D02*
X118717600Y-82709633D01*
X119737600Y-83002167D02*
X119737600Y-82709633D01*
%TO.C,D101*%
X110565000Y-111225000D02*
X113025000Y-111225000D01*
X113025000Y-109755000D02*
X110565000Y-109755000D01*
X113025000Y-111225000D02*
X113025000Y-109755000D01*
%TO.C,R101*%
X115293224Y-109967500D02*
X114783776Y-109967500D01*
X115293224Y-111012500D02*
X114783776Y-111012500D01*
%TO.C,C209*%
X121292233Y-66038000D02*
X121584767Y-66038000D01*
X121292233Y-67058000D02*
X121584767Y-67058000D01*
%TO.C,U304*%
X114755000Y-84965001D02*
X115069000Y-84965001D01*
X114755000Y-85465001D02*
X114755000Y-84965001D01*
X114755000Y-88265001D02*
X114755000Y-87765001D01*
X115069000Y-88265001D02*
X114755000Y-88265001D01*
X119955000Y-85265001D02*
X119955001Y-86015001D01*
X119955000Y-87765001D02*
X119955000Y-88265001D01*
X119955000Y-88265001D02*
X119641000Y-88265001D01*
X119955000Y-85065001D02*
X119955001Y-84705001D01*
X120315001Y-85065001D01*
X119955000Y-85065001D01*
G36*
X120315001Y-85065001D02*
G01*
X119955000Y-85065001D01*
X119955001Y-84705001D01*
X120315001Y-85065001D01*
G37*
%TO.C,C303*%
X113010733Y-57490000D02*
X113303267Y-57490000D01*
X113010733Y-58510000D02*
X113303267Y-58510000D01*
%TO.C,R610*%
X118569824Y-94321100D02*
X118060376Y-94321100D01*
X118569824Y-95366100D02*
X118060376Y-95366100D01*
%TO.C,R614*%
X108545100Y-99365524D02*
X108545100Y-98856076D01*
X109590100Y-99365524D02*
X109590100Y-98856076D01*
%TD*%
M02*
