%TF.GenerationSoftware,KiCad,Pcbnew,9.0.2*%
%TF.CreationDate,2025-05-21T13:46:10-05:00*%
%TF.ProjectId,Flight Computer v3,466c6967-6874-4204-936f-6d7075746572,rev?*%
%TF.SameCoordinates,Original*%
%TF.FileFunction,Copper,L2,Inr*%
%TF.FilePolarity,Positive*%
%FSLAX46Y46*%
G04 Gerber Fmt 4.6, Leading zero omitted, Abs format (unit mm)*
G04 Created by KiCad (PCBNEW 9.0.2) date 2025-05-21 13:46:10*
%MOMM*%
%LPD*%
G01*
G04 APERTURE LIST*
G04 Aperture macros list*
%AMRoundRect*
0 Rectangle with rounded corners*
0 $1 Rounding radius*
0 $2 $3 $4 $5 $6 $7 $8 $9 X,Y pos of 4 corners*
0 Add a 4 corners polygon primitive as box body*
4,1,4,$2,$3,$4,$5,$6,$7,$8,$9,$2,$3,0*
0 Add four circle primitives for the rounded corners*
1,1,$1+$1,$2,$3*
1,1,$1+$1,$4,$5*
1,1,$1+$1,$6,$7*
1,1,$1+$1,$8,$9*
0 Add four rect primitives between the rounded corners*
20,1,$1+$1,$2,$3,$4,$5,0*
20,1,$1+$1,$4,$5,$6,$7,0*
20,1,$1+$1,$6,$7,$8,$9,0*
20,1,$1+$1,$8,$9,$2,$3,0*%
G04 Aperture macros list end*
%TA.AperFunction,ComponentPad*%
%ADD10C,3.100000*%
%TD*%
%TA.AperFunction,ComponentPad*%
%ADD11C,2.050000*%
%TD*%
%TA.AperFunction,ComponentPad*%
%ADD12C,2.250000*%
%TD*%
%TA.AperFunction,ComponentPad*%
%ADD13R,1.700000X1.700000*%
%TD*%
%TA.AperFunction,ComponentPad*%
%ADD14C,1.700000*%
%TD*%
%TA.AperFunction,HeatsinkPad*%
%ADD15O,1.000000X2.100000*%
%TD*%
%TA.AperFunction,HeatsinkPad*%
%ADD16O,1.000000X1.800000*%
%TD*%
%TA.AperFunction,ComponentPad*%
%ADD17RoundRect,0.249999X0.850001X-0.850001X0.850001X0.850001X-0.850001X0.850001X-0.850001X-0.850001X0*%
%TD*%
%TA.AperFunction,ComponentPad*%
%ADD18C,2.200000*%
%TD*%
%TA.AperFunction,ViaPad*%
%ADD19C,0.600000*%
%TD*%
%TA.AperFunction,ViaPad*%
%ADD20C,0.550000*%
%TD*%
%TA.AperFunction,Conductor*%
%ADD21C,0.200000*%
%TD*%
%TA.AperFunction,Conductor*%
%ADD22C,0.150000*%
%TD*%
G04 APERTURE END LIST*
D10*
%TO.N,GND*%
%TO.C,H604*%
X124700000Y-109500000D03*
%TD*%
%TO.N,GND*%
%TO.C,H601*%
X100700000Y-55500000D03*
%TD*%
D11*
%TO.N,/Radio/radio_out*%
%TO.C,J701*%
X123010000Y-66890000D03*
D12*
%TO.N,GND*%
X120470000Y-64350000D03*
X120470000Y-69430000D03*
X125550000Y-64350000D03*
X125550000Y-69430000D03*
%TD*%
D13*
%TO.N,VCC*%
%TO.C,J604*%
X104400000Y-104690000D03*
D14*
%TO.N,GND*%
X101860000Y-104690000D03*
%TD*%
D10*
%TO.N,GND*%
%TO.C,H603*%
X100700000Y-109500000D03*
%TD*%
D15*
%TO.N,GND*%
%TO.C,J601*%
X108355000Y-105720000D03*
D16*
X108355000Y-109900000D03*
D15*
X116995000Y-105720000D03*
D16*
X116995000Y-109900000D03*
%TD*%
D17*
%TO.N,VCC*%
%TO.C,J603*%
X124000000Y-104330000D03*
D18*
%TO.N,Pyro_Power*%
X124000000Y-101790000D03*
%TO.N,Pyro1*%
X124000000Y-99250000D03*
%TO.N,GND*%
X124000000Y-96710000D03*
%TO.N,Pyro2*%
X124000000Y-94170000D03*
%TO.N,GND*%
X124000000Y-91630000D03*
%TO.N,Pyro3*%
X124000000Y-89090000D03*
%TO.N,GND*%
X124000000Y-86550000D03*
%TD*%
D10*
%TO.N,GND*%
%TO.C,H602*%
X124700000Y-55500000D03*
%TD*%
D13*
%TO.N,Servo1*%
%TO.C,J605*%
X100210000Y-80640000D03*
D14*
%TO.N,Servo2*%
X100210000Y-83180000D03*
%TO.N,Servo3*%
X100210000Y-85720000D03*
%TO.N,Servo4*%
X100210000Y-88260000D03*
%TO.N,GND*%
X100210000Y-90800000D03*
%TD*%
D19*
%TO.N,GND*%
X104770000Y-83370000D03*
X106280000Y-55300000D03*
X106450000Y-67038527D03*
X106040000Y-78030000D03*
X112940000Y-88110000D03*
X114100000Y-98040000D03*
X105068104Y-60177139D03*
X119290000Y-111200000D03*
X109000000Y-103590000D03*
X105270000Y-109810000D03*
X119000000Y-55250000D03*
X101850000Y-63950000D03*
X99380000Y-74050000D03*
X100864798Y-69474998D03*
X108890000Y-81940000D03*
X119660000Y-105690000D03*
%TO.N,+3.3V*%
X104804765Y-88295235D03*
X113300000Y-79170000D03*
X115370000Y-84220000D03*
X106170000Y-92490000D03*
X106670000Y-56740000D03*
X100804862Y-58698284D03*
X107950000Y-93070000D03*
X114260395Y-56896738D03*
X119870000Y-81430000D03*
X124830000Y-79746000D03*
X111092500Y-57714007D03*
X113190000Y-84910000D03*
X108500000Y-72899998D03*
X105430000Y-102340000D03*
X102150000Y-95990000D03*
X105120000Y-84700000D03*
X104696403Y-67697081D03*
X115585000Y-74335000D03*
X102150000Y-99490000D03*
X112400000Y-65410000D03*
X105230000Y-81070000D03*
X125020000Y-72520000D03*
X112370000Y-90140000D03*
%TO.N,/Radio/3v3_lora*%
X103300002Y-67050002D03*
X98424000Y-62350000D03*
%TO.N,Net-(U701-VREG)*%
X99250000Y-67025000D03*
%TO.N,VCC*%
X110340000Y-107890000D03*
X115070000Y-104070000D03*
X116220000Y-93120000D03*
X116220000Y-98150000D03*
X120265000Y-86310000D03*
X110840000Y-93090000D03*
%TO.N,Net-(J601-CC2)*%
X114430000Y-106120000D03*
%TO.N,USB_D_N*%
X116769231Y-91019231D03*
%TO.N,USB_D_P*%
X112294250Y-103898744D03*
X113417250Y-103880000D03*
X116230769Y-90480769D03*
%TO.N,SWO*%
X109957788Y-86272873D03*
X108715000Y-54500000D03*
D20*
%TO.N,SPI_MISO*%
X103450000Y-60869595D03*
D19*
X117160000Y-76400000D03*
D20*
%TO.N,SPI_SCK*%
X103400000Y-62000000D03*
D19*
X114199999Y-77807457D03*
%TO.N,BOOT0*%
X115910000Y-80580000D03*
X117760000Y-59290000D03*
%TO.N,SWDIO*%
X113770000Y-87500000D03*
X111898685Y-56432869D03*
%TO.N,I2C_SCL*%
X126810000Y-79320000D03*
X107580000Y-56500000D03*
X111750000Y-80770000D03*
X113610000Y-70130000D03*
%TO.N,I2C_SDA*%
X126110000Y-80420000D03*
X109490000Y-79780000D03*
X104534424Y-56496434D03*
X112670000Y-82500000D03*
%TO.N,SWCLK*%
X110091000Y-56542082D03*
X112110000Y-88370000D03*
%TO.N,SPI_MOSI*%
X117160001Y-77226326D03*
X102530246Y-60940821D03*
%TO.N,NRST*%
X112129000Y-79560000D03*
X115220000Y-56590000D03*
%TO.N,SPI_CS1*%
X111410000Y-54500000D03*
X117110000Y-72750002D03*
%TO.N,Pyro_Power*%
X115615000Y-99250000D03*
X121640000Y-92100000D03*
X121640000Y-87020000D03*
X121640000Y-97190000D03*
X115605000Y-94160000D03*
%TO.N,Servo4*%
X109900000Y-89860000D03*
%TO.N,Servo3*%
X112211735Y-76900002D03*
%TO.N,Servo2*%
X112129000Y-72470000D03*
%TO.N,Servo1*%
X110730000Y-71698998D03*
%TO.N,Net-(U701-DCC_SW)*%
X98450000Y-65275000D03*
%TO.N,{slash}GPS_RESET*%
X108094730Y-60905270D03*
X107580000Y-77770000D03*
%TO.N,{slash}GPS_SAFEBOOT*%
X108686681Y-80675154D03*
%TO.N,Pyro1_Trigger*%
X113455750Y-101760000D03*
%TO.N,Pyro2_Trigger*%
X115080000Y-96440000D03*
%TO.N,Pyro3_Trigger*%
X117195706Y-84225680D03*
%TO.N,Pyro3_Cont*%
X120270000Y-84790000D03*
%TO.N,/Radio/CTL*%
X115375000Y-61875000D03*
X99025000Y-63125000D03*
%TO.N,LORA_SEL*%
X119950000Y-85570000D03*
X103460000Y-63200000D03*
%TO.N,IMU_INT1*%
X108235000Y-82649000D03*
%TO.N,IMU_INT2*%
X116960000Y-80680000D03*
%TO.N,GPS_RX*%
X118854411Y-69604658D03*
X115492045Y-85010638D03*
%TO.N,GPS_TX*%
X114409165Y-83850000D03*
X118360000Y-70340000D03*
%TO.N,GPS_INT*%
X108860000Y-71060000D03*
%TO.N,/MCU/FLASH_MISO*%
X112129000Y-78351613D03*
%TO.N,/MCU/{slash}FLASH_WP*%
X120370000Y-75080000D03*
%TO.N,/MCU/FLASH_CLK*%
X120080000Y-77750000D03*
%TO.N,/MCU/FLASH_CS*%
X120460000Y-72530000D03*
%TO.N,/MCU/FLASH_MOSI*%
X113599999Y-77199048D03*
%TO.N,/MCU/{slash}FLASH_RESET*%
X122077077Y-74807199D03*
%TO.N,LORA_BUSY*%
X101826765Y-61321765D03*
X107940000Y-87580000D03*
%TO.N,LORA_DIO1*%
X118140000Y-83380000D03*
X100082155Y-62000000D03*
%TD*%
D21*
%TO.N,/Radio/3v3_lora*%
X98424000Y-63474000D02*
X98424000Y-62350000D01*
X103100002Y-67050000D02*
X102000000Y-67050000D01*
X103100004Y-67050002D02*
X103100002Y-67050000D01*
X102000000Y-67050000D02*
X98424000Y-63474000D01*
X103300002Y-67050002D02*
X103100004Y-67050002D01*
%TO.N,SPI_MISO*%
X103450000Y-60869595D02*
X105199538Y-60869595D01*
X117160000Y-73649945D02*
X117160000Y-76400000D01*
X114211000Y-70700945D02*
X117160000Y-73649945D01*
X105199538Y-60869595D02*
X114211000Y-69881057D01*
X114211000Y-69881057D02*
X114211000Y-70700945D01*
%TO.N,SPI_SCK*%
X114439999Y-75925168D02*
X114688245Y-75925168D01*
X114199999Y-75925168D02*
X114439999Y-75925168D01*
X114688245Y-75325168D02*
X114439999Y-75325168D01*
X114199999Y-75085168D02*
X114199999Y-74965168D01*
X114199999Y-74088448D02*
X114199999Y-72799999D01*
X114199999Y-76525168D02*
X113711747Y-76525168D01*
X114199999Y-74965168D02*
X114199999Y-74088448D01*
X114439999Y-76525168D02*
X114199999Y-76525168D01*
X114439999Y-77125168D02*
X114688248Y-77125168D01*
X114928248Y-76885168D02*
X114928248Y-76765168D01*
X114928245Y-75685168D02*
X114928245Y-75565168D01*
X114688248Y-76525168D02*
X114439999Y-76525168D01*
X113711747Y-75925168D02*
X114199999Y-75925168D01*
X114199999Y-72799999D02*
X103400000Y-62000000D01*
X113471747Y-76285168D02*
X113471747Y-76165168D01*
X114199999Y-77807457D02*
X114199999Y-77365168D01*
X114439999Y-75325168D02*
G75*
G02*
X114200032Y-75085168I1J239968D01*
G01*
X113471747Y-76165168D02*
G75*
G02*
X113711747Y-75925247I239953J-32D01*
G01*
X114688248Y-77125168D02*
G75*
G03*
X114928168Y-76885168I-48J239968D01*
G01*
X114928245Y-75565168D02*
G75*
G03*
X114688245Y-75325155I-240045J-32D01*
G01*
X114688245Y-75925168D02*
G75*
G03*
X114928168Y-75685168I-45J239968D01*
G01*
X114199999Y-77365168D02*
G75*
G02*
X114439999Y-77125199I240001J-32D01*
G01*
X114928248Y-76765168D02*
G75*
G03*
X114688248Y-76525152I-240048J-32D01*
G01*
X113711747Y-76525168D02*
G75*
G02*
X113471732Y-76285168I-47J239968D01*
G01*
%TO.N,SPI_MOSI*%
X117160001Y-77226326D02*
X117136383Y-77226326D01*
X103829000Y-61449000D02*
X103628232Y-61449000D01*
X114712344Y-72533112D02*
X114712344Y-72332344D01*
D22*
X103628232Y-61449000D02*
X103038425Y-61449000D01*
D21*
X103038425Y-61449000D02*
X102530246Y-60940821D01*
X117136383Y-77226326D02*
X116559000Y-76648943D01*
X116559000Y-76648943D02*
X116559000Y-75807623D01*
X116559000Y-75007623D02*
X116559000Y-74607623D01*
X116559000Y-74379768D02*
X114712344Y-72533112D01*
X116559000Y-74607623D02*
X116559000Y-74379768D01*
X114712344Y-72332344D02*
X103829000Y-61449000D01*
X116759000Y-75607623D02*
X116759000Y-75207623D01*
X116659000Y-75707623D02*
G75*
G03*
X116759023Y-75607623I0J100023D01*
G01*
X116759000Y-75207623D02*
G75*
G03*
X116659000Y-75107600I-100000J23D01*
G01*
X116559000Y-75807623D02*
G75*
G02*
X116659000Y-75707600I100000J23D01*
G01*
X116659000Y-75107623D02*
G75*
G02*
X116558977Y-75007623I0J100023D01*
G01*
%TD*%
%TA.AperFunction,Conductor*%
%TO.N,GND*%
G36*
X124972992Y-52800681D02*
G01*
X125253256Y-52817633D01*
X125265111Y-52819073D01*
X125538349Y-52869145D01*
X125549951Y-52872005D01*
X125815162Y-52954649D01*
X125826325Y-52958882D01*
X126079646Y-53072892D01*
X126090231Y-53078448D01*
X126327951Y-53222154D01*
X126337776Y-53228936D01*
X126556443Y-53400250D01*
X126565392Y-53408177D01*
X126761822Y-53604607D01*
X126769749Y-53613556D01*
X126909420Y-53791834D01*
X126941058Y-53832216D01*
X126947849Y-53842055D01*
X127091551Y-54079768D01*
X127097107Y-54090353D01*
X127211114Y-54343667D01*
X127215353Y-54354845D01*
X127297993Y-54620045D01*
X127300854Y-54631653D01*
X127350925Y-54904881D01*
X127352366Y-54916748D01*
X127369319Y-55197006D01*
X127369500Y-55202984D01*
X127369500Y-64192218D01*
X127350593Y-64250409D01*
X127301093Y-64286373D01*
X127239907Y-64286373D01*
X127190407Y-64250409D01*
X127172719Y-64207705D01*
X127134987Y-63969480D01*
X127055947Y-63726217D01*
X126939825Y-63498314D01*
X126939821Y-63498308D01*
X126862149Y-63391403D01*
X126862148Y-63391403D01*
X126304114Y-63949437D01*
X126303260Y-63947374D01*
X126210238Y-63808156D01*
X126091844Y-63689762D01*
X125952626Y-63596740D01*
X125950560Y-63595884D01*
X126508595Y-63037850D01*
X126508595Y-63037849D01*
X126401691Y-62960178D01*
X126401685Y-62960174D01*
X126173782Y-62844052D01*
X125930519Y-62765012D01*
X125677893Y-62725000D01*
X125422107Y-62725000D01*
X125169480Y-62765012D01*
X124926217Y-62844052D01*
X124698314Y-62960174D01*
X124698310Y-62960176D01*
X124591403Y-63037849D01*
X125149439Y-63595884D01*
X125147374Y-63596740D01*
X125008156Y-63689762D01*
X124889762Y-63808156D01*
X124796740Y-63947374D01*
X124795884Y-63949439D01*
X124237849Y-63391403D01*
X124160176Y-63498310D01*
X124160174Y-63498314D01*
X124044052Y-63726217D01*
X123965012Y-63969480D01*
X123925000Y-64222106D01*
X123925000Y-64477893D01*
X123965012Y-64730519D01*
X124044052Y-64973782D01*
X124160174Y-65201685D01*
X124160178Y-65201691D01*
X124237849Y-65308595D01*
X124237850Y-65308595D01*
X124795884Y-64750560D01*
X124796740Y-64752626D01*
X124889762Y-64891844D01*
X125008156Y-65010238D01*
X125147374Y-65103260D01*
X125149437Y-65104114D01*
X124591403Y-65662148D01*
X124591403Y-65662149D01*
X124698308Y-65739821D01*
X124698314Y-65739825D01*
X124926217Y-65855947D01*
X125169480Y-65934987D01*
X125422107Y-65975000D01*
X125677893Y-65975000D01*
X125930519Y-65934987D01*
X126173782Y-65855947D01*
X126401685Y-65739825D01*
X126401690Y-65739821D01*
X126508595Y-65662149D01*
X125950561Y-65104115D01*
X125952626Y-65103260D01*
X126091844Y-65010238D01*
X126210238Y-64891844D01*
X126303260Y-64752626D01*
X126304115Y-64750561D01*
X126862149Y-65308595D01*
X126939821Y-65201690D01*
X126939825Y-65201685D01*
X127055947Y-64973782D01*
X127134987Y-64730519D01*
X127172719Y-64492294D01*
X127200496Y-64437777D01*
X127255013Y-64410000D01*
X127315445Y-64419571D01*
X127358710Y-64462836D01*
X127369500Y-64507781D01*
X127369500Y-69272218D01*
X127350593Y-69330409D01*
X127301093Y-69366373D01*
X127239907Y-69366373D01*
X127190407Y-69330409D01*
X127172719Y-69287705D01*
X127134987Y-69049480D01*
X127055947Y-68806217D01*
X126939825Y-68578314D01*
X126939821Y-68578308D01*
X126862149Y-68471403D01*
X126862148Y-68471403D01*
X126304114Y-69029437D01*
X126303260Y-69027374D01*
X126210238Y-68888156D01*
X126091844Y-68769762D01*
X125952626Y-68676740D01*
X125950560Y-68675884D01*
X126508595Y-68117850D01*
X126508595Y-68117849D01*
X126401691Y-68040178D01*
X126401685Y-68040174D01*
X126173782Y-67924052D01*
X125930519Y-67845012D01*
X125677893Y-67805000D01*
X125422107Y-67805000D01*
X125169480Y-67845012D01*
X124926217Y-67924052D01*
X124698314Y-68040174D01*
X124698310Y-68040176D01*
X124591403Y-68117849D01*
X125149439Y-68675884D01*
X125147374Y-68676740D01*
X125008156Y-68769762D01*
X124889762Y-68888156D01*
X124796740Y-69027374D01*
X124795884Y-69029439D01*
X124237849Y-68471403D01*
X124160176Y-68578310D01*
X124160174Y-68578314D01*
X124044052Y-68806217D01*
X123965012Y-69049480D01*
X123925000Y-69302106D01*
X123925000Y-69557893D01*
X123965012Y-69810519D01*
X124044052Y-70053782D01*
X124160174Y-70281685D01*
X124160178Y-70281691D01*
X124237849Y-70388595D01*
X124237850Y-70388595D01*
X124795884Y-69830560D01*
X124796740Y-69832626D01*
X124889762Y-69971844D01*
X125008156Y-70090238D01*
X125147374Y-70183260D01*
X125149437Y-70184114D01*
X124591403Y-70742148D01*
X124591403Y-70742149D01*
X124698308Y-70819821D01*
X124698314Y-70819825D01*
X124926217Y-70935947D01*
X125169480Y-71014987D01*
X125422107Y-71055000D01*
X125677893Y-71055000D01*
X125930519Y-71014987D01*
X126173782Y-70935947D01*
X126401685Y-70819825D01*
X126401690Y-70819821D01*
X126508595Y-70742149D01*
X125950561Y-70184115D01*
X125952626Y-70183260D01*
X126091844Y-70090238D01*
X126210238Y-69971844D01*
X126303260Y-69832626D01*
X126304115Y-69830561D01*
X126862149Y-70388595D01*
X126939821Y-70281690D01*
X126939825Y-70281685D01*
X127055947Y-70053782D01*
X127134987Y-69810519D01*
X127172719Y-69572294D01*
X127200496Y-69517777D01*
X127255013Y-69490000D01*
X127315445Y-69499571D01*
X127358710Y-69542836D01*
X127369500Y-69587781D01*
X127369500Y-78932679D01*
X127350593Y-78990870D01*
X127301093Y-79026834D01*
X127239907Y-79026834D01*
X127200498Y-79002684D01*
X127117314Y-78919500D01*
X127117311Y-78919498D01*
X127117309Y-78919496D01*
X127003189Y-78853609D01*
X127003191Y-78853609D01*
X126953799Y-78840375D01*
X126875892Y-78819500D01*
X126744108Y-78819500D01*
X126666200Y-78840375D01*
X126616809Y-78853609D01*
X126502690Y-78919496D01*
X126409496Y-79012690D01*
X126343609Y-79126809D01*
X126343608Y-79126814D01*
X126309500Y-79254108D01*
X126309500Y-79385892D01*
X126332757Y-79472690D01*
X126343609Y-79513190D01*
X126409496Y-79627309D01*
X126409498Y-79627311D01*
X126409500Y-79627314D01*
X126502686Y-79720500D01*
X126502688Y-79720501D01*
X126502690Y-79720503D01*
X126616810Y-79786390D01*
X126616808Y-79786390D01*
X126616812Y-79786391D01*
X126616814Y-79786392D01*
X126744108Y-79820500D01*
X126744110Y-79820500D01*
X126875890Y-79820500D01*
X126875892Y-79820500D01*
X127003186Y-79786392D01*
X127003188Y-79786390D01*
X127003190Y-79786390D01*
X127117309Y-79720503D01*
X127117309Y-79720502D01*
X127117314Y-79720500D01*
X127200498Y-79637315D01*
X127255013Y-79609540D01*
X127315445Y-79619111D01*
X127358710Y-79662376D01*
X127369500Y-79707321D01*
X127369500Y-109797015D01*
X127369319Y-109802993D01*
X127352366Y-110083251D01*
X127350925Y-110095118D01*
X127300854Y-110368346D01*
X127297993Y-110379954D01*
X127215353Y-110645154D01*
X127211114Y-110656332D01*
X127097107Y-110909646D01*
X127091551Y-110920231D01*
X126947849Y-111157944D01*
X126941058Y-111167783D01*
X126769749Y-111386443D01*
X126761822Y-111395392D01*
X126565392Y-111591822D01*
X126556443Y-111599749D01*
X126337783Y-111771058D01*
X126327944Y-111777849D01*
X126090231Y-111921551D01*
X126079646Y-111927107D01*
X125826332Y-112041114D01*
X125815154Y-112045353D01*
X125549954Y-112127993D01*
X125538346Y-112130854D01*
X125265118Y-112180925D01*
X125253251Y-112182366D01*
X124993387Y-112198085D01*
X124972991Y-112199319D01*
X124967015Y-112199500D01*
X100372986Y-112199500D01*
X100367009Y-112199319D01*
X100344252Y-112197942D01*
X100086749Y-112182366D01*
X100074882Y-112180925D01*
X99801654Y-112130854D01*
X99790047Y-112127993D01*
X99524846Y-112045354D01*
X99513667Y-112041115D01*
X99260353Y-111927107D01*
X99249768Y-111921551D01*
X99012055Y-111777849D01*
X99002216Y-111771058D01*
X98783556Y-111599749D01*
X98774607Y-111591822D01*
X98578177Y-111395392D01*
X98570250Y-111386443D01*
X98478914Y-111269861D01*
X98398936Y-111167776D01*
X98392162Y-111157962D01*
X98248448Y-110920231D01*
X98242892Y-110909646D01*
X98128884Y-110656332D01*
X98124646Y-110645157D01*
X98050943Y-110408632D01*
X98042006Y-110379952D01*
X98039145Y-110368345D01*
X98033858Y-110339496D01*
X97989073Y-110095110D01*
X97987633Y-110083255D01*
X97970681Y-109802991D01*
X97970500Y-109797014D01*
X97970500Y-109365634D01*
X98650000Y-109365634D01*
X98650000Y-109634365D01*
X98685075Y-109900785D01*
X98685075Y-109900790D01*
X98754627Y-110160364D01*
X98857463Y-110408632D01*
X98991832Y-110641366D01*
X99084417Y-110762025D01*
X99584727Y-110261715D01*
X99670278Y-110379466D01*
X99820534Y-110529722D01*
X99938282Y-110615270D01*
X99437972Y-111115581D01*
X99558633Y-111208167D01*
X99791367Y-111342536D01*
X100039635Y-111445372D01*
X100299211Y-111514924D01*
X100565634Y-111549999D01*
X100565637Y-111550000D01*
X100834363Y-111550000D01*
X100834365Y-111549999D01*
X101100785Y-111514924D01*
X101100790Y-111514924D01*
X101360364Y-111445372D01*
X101608632Y-111342536D01*
X101841362Y-111208170D01*
X101962025Y-111115580D01*
X101461716Y-110615271D01*
X101579466Y-110529722D01*
X101729722Y-110379466D01*
X101815271Y-110261716D01*
X102315580Y-110762025D01*
X102408170Y-110641362D01*
X102542536Y-110408632D01*
X102645372Y-110160362D01*
X102666002Y-110083371D01*
X102666002Y-110083370D01*
X102714924Y-109900790D01*
X102714924Y-109900785D01*
X102749999Y-109634365D01*
X102750000Y-109634363D01*
X102750000Y-109401506D01*
X107355000Y-109401506D01*
X107355000Y-109649999D01*
X107355001Y-109650000D01*
X108055000Y-109650000D01*
X108055000Y-110150000D01*
X107355001Y-110150000D01*
X107355000Y-110150001D01*
X107355000Y-110398493D01*
X107393429Y-110591688D01*
X107393429Y-110591690D01*
X107468808Y-110773673D01*
X107468814Y-110773685D01*
X107578249Y-110937462D01*
X107578252Y-110937466D01*
X107717533Y-111076747D01*
X107717537Y-111076750D01*
X107881314Y-111186185D01*
X107881326Y-111186191D01*
X108063304Y-111261568D01*
X108063315Y-111261571D01*
X108105000Y-111269862D01*
X108105000Y-110466988D01*
X108114940Y-110484205D01*
X108170795Y-110540060D01*
X108239204Y-110579556D01*
X108315504Y-110600000D01*
X108394496Y-110600000D01*
X108470796Y-110579556D01*
X108539205Y-110540060D01*
X108595060Y-110484205D01*
X108605000Y-110466988D01*
X108605000Y-111269861D01*
X108646684Y-111261571D01*
X108646695Y-111261568D01*
X108828673Y-111186191D01*
X108828685Y-111186185D01*
X108992462Y-111076750D01*
X108992466Y-111076747D01*
X109131747Y-110937466D01*
X109131750Y-110937462D01*
X109241185Y-110773685D01*
X109241191Y-110773673D01*
X109316570Y-110591690D01*
X109316570Y-110591688D01*
X109354999Y-110398493D01*
X109355000Y-110398490D01*
X109355000Y-110150001D01*
X109354999Y-110150000D01*
X108655000Y-110150000D01*
X108655000Y-109650000D01*
X109354999Y-109650000D01*
X109355000Y-109649999D01*
X109355000Y-109401509D01*
X109354999Y-109401506D01*
X115995000Y-109401506D01*
X115995000Y-109649999D01*
X115995001Y-109650000D01*
X116695000Y-109650000D01*
X116695000Y-110150000D01*
X115995001Y-110150000D01*
X115995000Y-110150001D01*
X115995000Y-110398493D01*
X116033429Y-110591688D01*
X116033429Y-110591690D01*
X116108808Y-110773673D01*
X116108814Y-110773685D01*
X116218249Y-110937462D01*
X116218252Y-110937466D01*
X116357533Y-111076747D01*
X116357537Y-111076750D01*
X116521314Y-111186185D01*
X116521326Y-111186191D01*
X116703304Y-111261568D01*
X116703315Y-111261571D01*
X116745000Y-111269862D01*
X116745000Y-110466988D01*
X116754940Y-110484205D01*
X116810795Y-110540060D01*
X116879204Y-110579556D01*
X116955504Y-110600000D01*
X117034496Y-110600000D01*
X117110796Y-110579556D01*
X117179205Y-110540060D01*
X117235060Y-110484205D01*
X117245000Y-110466988D01*
X117245000Y-111269861D01*
X117286684Y-111261571D01*
X117286695Y-111261568D01*
X117468673Y-111186191D01*
X117468685Y-111186185D01*
X117632462Y-111076750D01*
X117632466Y-111076747D01*
X117701922Y-111007292D01*
X117771747Y-110937466D01*
X117771750Y-110937462D01*
X117881185Y-110773685D01*
X117881191Y-110773673D01*
X117956570Y-110591690D01*
X117956570Y-110591688D01*
X117994999Y-110398493D01*
X117995000Y-110398490D01*
X117995000Y-110150001D01*
X117994999Y-110150000D01*
X117295000Y-110150000D01*
X117295000Y-109650000D01*
X117994999Y-109650000D01*
X117995000Y-109649999D01*
X117995000Y-109401509D01*
X117994999Y-109401504D01*
X117991062Y-109381708D01*
X117987865Y-109365634D01*
X122650000Y-109365634D01*
X122650000Y-109634365D01*
X122685075Y-109900785D01*
X122685075Y-109900790D01*
X122754627Y-110160364D01*
X122857463Y-110408632D01*
X122991832Y-110641366D01*
X123084417Y-110762025D01*
X123584727Y-110261715D01*
X123670278Y-110379466D01*
X123820534Y-110529722D01*
X123938282Y-110615270D01*
X123437972Y-111115581D01*
X123558633Y-111208167D01*
X123791367Y-111342536D01*
X124039635Y-111445372D01*
X124299211Y-111514924D01*
X124565634Y-111549999D01*
X124565637Y-111550000D01*
X124834363Y-111550000D01*
X124834365Y-111549999D01*
X125100785Y-111514924D01*
X125100790Y-111514924D01*
X125360364Y-111445372D01*
X125608632Y-111342536D01*
X125841362Y-111208170D01*
X125962025Y-111115580D01*
X125461716Y-110615271D01*
X125579466Y-110529722D01*
X125729722Y-110379466D01*
X125815271Y-110261716D01*
X126315580Y-110762025D01*
X126408170Y-110641362D01*
X126542536Y-110408632D01*
X126645372Y-110160364D01*
X126714924Y-109900790D01*
X126714924Y-109900785D01*
X126749999Y-109634365D01*
X126750000Y-109634363D01*
X126750000Y-109365637D01*
X126749999Y-109365634D01*
X126714924Y-109099214D01*
X126714924Y-109099209D01*
X126645372Y-108839635D01*
X126542536Y-108591367D01*
X126408167Y-108358633D01*
X126315580Y-108237972D01*
X125815270Y-108738281D01*
X125729722Y-108620534D01*
X125579466Y-108470278D01*
X125461715Y-108384727D01*
X125962026Y-107884417D01*
X125841366Y-107791832D01*
X125608632Y-107657463D01*
X125360364Y-107554627D01*
X125100788Y-107485075D01*
X124834365Y-107450000D01*
X124565634Y-107450000D01*
X124299214Y-107485075D01*
X124299209Y-107485075D01*
X124039635Y-107554627D01*
X123791367Y-107657463D01*
X123558630Y-107791834D01*
X123437972Y-107884417D01*
X123938283Y-108384728D01*
X123820534Y-108470278D01*
X123670278Y-108620534D01*
X123584728Y-108738283D01*
X123084417Y-108237972D01*
X122991834Y-108358630D01*
X122857463Y-108591367D01*
X122754627Y-108839635D01*
X122685075Y-109099209D01*
X122685075Y-109099214D01*
X122650000Y-109365634D01*
X117987865Y-109365634D01*
X117956570Y-109208311D01*
X117956570Y-109208309D01*
X117881191Y-109026326D01*
X117881185Y-109026314D01*
X117771750Y-108862537D01*
X117771747Y-108862533D01*
X117632466Y-108723252D01*
X117632462Y-108723249D01*
X117468685Y-108613814D01*
X117468673Y-108613808D01*
X117286691Y-108538429D01*
X117245000Y-108530136D01*
X117245000Y-109333011D01*
X117235060Y-109315795D01*
X117179205Y-109259940D01*
X117110796Y-109220444D01*
X117034496Y-109200000D01*
X116955504Y-109200000D01*
X116879204Y-109220444D01*
X116810795Y-109259940D01*
X116754940Y-109315795D01*
X116745000Y-109333011D01*
X116745000Y-108530136D01*
X116703308Y-108538429D01*
X116521326Y-108613808D01*
X116521314Y-108613814D01*
X116357537Y-108723249D01*
X116357533Y-108723252D01*
X116218252Y-108862533D01*
X116218249Y-108862537D01*
X116108814Y-109026314D01*
X116108808Y-109026326D01*
X116033429Y-109208309D01*
X116033429Y-109208311D01*
X115995000Y-109401506D01*
X109354999Y-109401506D01*
X109316570Y-109208311D01*
X109316570Y-109208309D01*
X109241191Y-109026326D01*
X109241185Y-109026314D01*
X109131750Y-108862537D01*
X109131747Y-108862533D01*
X108992466Y-108723252D01*
X108992462Y-108723249D01*
X108828685Y-108613814D01*
X108828673Y-108613808D01*
X108646691Y-108538429D01*
X108605000Y-108530136D01*
X108605000Y-109333011D01*
X108595060Y-109315795D01*
X108539205Y-109259940D01*
X108470796Y-109220444D01*
X108394496Y-109200000D01*
X108315504Y-109200000D01*
X108239204Y-109220444D01*
X108170795Y-109259940D01*
X108114940Y-109315795D01*
X108105000Y-109333011D01*
X108105000Y-108530136D01*
X108063308Y-108538429D01*
X107881326Y-108613808D01*
X107881314Y-108613814D01*
X107717537Y-108723249D01*
X107717533Y-108723252D01*
X107578252Y-108862533D01*
X107578249Y-108862537D01*
X107468814Y-109026314D01*
X107468808Y-109026326D01*
X107393429Y-109208309D01*
X107393429Y-109208311D01*
X107355000Y-109401506D01*
X102750000Y-109401506D01*
X102750000Y-109365637D01*
X102749999Y-109365634D01*
X102714924Y-109099214D01*
X102714924Y-109099209D01*
X102645372Y-108839635D01*
X102542536Y-108591367D01*
X102408167Y-108358633D01*
X102315580Y-108237972D01*
X101815270Y-108738281D01*
X101729722Y-108620534D01*
X101579466Y-108470278D01*
X101461715Y-108384727D01*
X101962026Y-107884417D01*
X101883429Y-107824108D01*
X109839500Y-107824108D01*
X109839500Y-107955892D01*
X109869579Y-108068151D01*
X109873609Y-108083190D01*
X109939496Y-108197309D01*
X109939498Y-108197311D01*
X109939500Y-108197314D01*
X110032686Y-108290500D01*
X110032688Y-108290501D01*
X110032690Y-108290503D01*
X110146810Y-108356390D01*
X110146808Y-108356390D01*
X110146812Y-108356391D01*
X110146814Y-108356392D01*
X110274108Y-108390500D01*
X110274110Y-108390500D01*
X110405890Y-108390500D01*
X110405892Y-108390500D01*
X110533186Y-108356392D01*
X110533188Y-108356390D01*
X110533190Y-108356390D01*
X110647309Y-108290503D01*
X110647309Y-108290502D01*
X110647314Y-108290500D01*
X110740500Y-108197314D01*
X110740503Y-108197309D01*
X110806390Y-108083190D01*
X110806390Y-108083188D01*
X110806392Y-108083186D01*
X110840500Y-107955892D01*
X110840500Y-107824108D01*
X110806392Y-107696814D01*
X110806390Y-107696811D01*
X110806390Y-107696809D01*
X110740503Y-107582690D01*
X110740501Y-107582688D01*
X110740500Y-107582686D01*
X110647314Y-107489500D01*
X110647311Y-107489498D01*
X110647309Y-107489496D01*
X110533189Y-107423609D01*
X110533191Y-107423609D01*
X110483799Y-107410375D01*
X110405892Y-107389500D01*
X110274108Y-107389500D01*
X110196200Y-107410375D01*
X110146809Y-107423609D01*
X110032690Y-107489496D01*
X109939496Y-107582690D01*
X109873609Y-107696809D01*
X109873608Y-107696814D01*
X109839500Y-107824108D01*
X101883429Y-107824108D01*
X101841366Y-107791832D01*
X101608632Y-107657463D01*
X101360364Y-107554627D01*
X101100788Y-107485075D01*
X100834365Y-107450000D01*
X100565634Y-107450000D01*
X100299214Y-107485075D01*
X100299209Y-107485075D01*
X100039635Y-107554627D01*
X99791367Y-107657463D01*
X99558630Y-107791834D01*
X99437972Y-107884417D01*
X99938283Y-108384728D01*
X99820534Y-108470278D01*
X99670278Y-108620534D01*
X99584728Y-108738283D01*
X99084417Y-108237972D01*
X98991834Y-108358630D01*
X98857463Y-108591367D01*
X98754627Y-108839635D01*
X98685075Y-109099209D01*
X98685075Y-109099214D01*
X98650000Y-109365634D01*
X97970500Y-109365634D01*
X97970500Y-104583749D01*
X100510000Y-104583749D01*
X100510000Y-104796250D01*
X100543240Y-105006121D01*
X100608904Y-105208215D01*
X100705376Y-105397553D01*
X100705380Y-105397559D01*
X100744728Y-105451716D01*
X100744729Y-105451716D01*
X101377037Y-104819407D01*
X101394075Y-104882993D01*
X101459901Y-104997007D01*
X101552993Y-105090099D01*
X101667007Y-105155925D01*
X101730589Y-105172962D01*
X101098282Y-105805269D01*
X101098282Y-105805270D01*
X101152440Y-105844619D01*
X101152446Y-105844623D01*
X101341784Y-105941095D01*
X101543878Y-106006759D01*
X101753750Y-106040000D01*
X101966250Y-106040000D01*
X102176121Y-106006759D01*
X102378215Y-105941095D01*
X102567556Y-105844620D01*
X102621716Y-105805270D01*
X101989408Y-105172962D01*
X102052993Y-105155925D01*
X102167007Y-105090099D01*
X102260099Y-104997007D01*
X102325925Y-104882993D01*
X102342962Y-104819408D01*
X102975270Y-105451716D01*
X103014620Y-105397556D01*
X103111096Y-105208213D01*
X103156345Y-105068951D01*
X103192309Y-105019450D01*
X103250500Y-105000543D01*
X103308691Y-105019450D01*
X103344655Y-105068950D01*
X103349500Y-105099543D01*
X103349500Y-105559746D01*
X103349501Y-105559758D01*
X103361132Y-105618227D01*
X103361134Y-105618233D01*
X103384772Y-105653609D01*
X103405448Y-105684552D01*
X103471769Y-105728867D01*
X103516231Y-105737711D01*
X103530241Y-105740498D01*
X103530246Y-105740498D01*
X103530252Y-105740500D01*
X103530253Y-105740500D01*
X105269747Y-105740500D01*
X105269748Y-105740500D01*
X105328231Y-105728867D01*
X105394552Y-105684552D01*
X105438867Y-105618231D01*
X105450500Y-105559748D01*
X105450500Y-105071506D01*
X107355000Y-105071506D01*
X107355000Y-105469999D01*
X107355001Y-105470000D01*
X108055000Y-105470000D01*
X108055000Y-105970000D01*
X107355001Y-105970000D01*
X107355000Y-105970001D01*
X107355000Y-106368493D01*
X107393429Y-106561688D01*
X107393429Y-106561690D01*
X107468808Y-106743673D01*
X107468814Y-106743685D01*
X107578249Y-106907462D01*
X107578252Y-106907466D01*
X107717533Y-107046747D01*
X107717537Y-107046750D01*
X107881314Y-107156185D01*
X107881326Y-107156191D01*
X108063304Y-107231568D01*
X108063315Y-107231571D01*
X108105000Y-107239862D01*
X108105000Y-106436988D01*
X108114940Y-106454205D01*
X108170795Y-106510060D01*
X108239204Y-106549556D01*
X108315504Y-106570000D01*
X108394496Y-106570000D01*
X108470796Y-106549556D01*
X108539205Y-106510060D01*
X108595060Y-106454205D01*
X108605000Y-106436988D01*
X108605000Y-107239861D01*
X108646684Y-107231571D01*
X108646695Y-107231568D01*
X108828673Y-107156191D01*
X108828685Y-107156185D01*
X108992462Y-107046750D01*
X108992466Y-107046747D01*
X109131747Y-106907466D01*
X109131750Y-106907462D01*
X109241185Y-106743685D01*
X109241191Y-106743673D01*
X109309717Y-106578235D01*
X109349453Y-106531709D01*
X109408948Y-106517425D01*
X109465476Y-106540839D01*
X109471171Y-106546103D01*
X109507158Y-106582090D01*
X109507160Y-106582091D01*
X109507162Y-106582093D01*
X109610337Y-106641661D01*
X109610335Y-106641661D01*
X109610339Y-106641662D01*
X109610341Y-106641663D01*
X109725427Y-106672500D01*
X109725429Y-106672500D01*
X109844571Y-106672500D01*
X109844573Y-106672500D01*
X109959659Y-106641663D01*
X109959661Y-106641661D01*
X109959663Y-106641661D01*
X110062837Y-106582093D01*
X110062837Y-106582092D01*
X110062842Y-106582090D01*
X110147090Y-106497842D01*
X110187810Y-106427314D01*
X110206661Y-106394663D01*
X110206661Y-106394661D01*
X110206663Y-106394659D01*
X110237500Y-106279573D01*
X110237500Y-106160427D01*
X110209012Y-106054108D01*
X113929500Y-106054108D01*
X113929500Y-106185892D01*
X113944289Y-106241086D01*
X113963609Y-106313190D01*
X114029496Y-106427309D01*
X114029498Y-106427311D01*
X114029500Y-106427314D01*
X114122686Y-106520500D01*
X114122688Y-106520501D01*
X114122690Y-106520503D01*
X114236810Y-106586390D01*
X114236808Y-106586390D01*
X114236812Y-106586391D01*
X114236814Y-106586392D01*
X114364108Y-106620500D01*
X114364110Y-106620500D01*
X114495890Y-106620500D01*
X114495892Y-106620500D01*
X114623186Y-106586392D01*
X114623188Y-106586390D01*
X114623190Y-106586390D01*
X114737309Y-106520503D01*
X114737309Y-106520502D01*
X114737314Y-106520500D01*
X114830500Y-106427314D01*
X114849351Y-106394663D01*
X114896390Y-106313190D01*
X114896390Y-106313188D01*
X114896392Y-106313186D01*
X114930500Y-106185892D01*
X114930500Y-106160427D01*
X115112500Y-106160427D01*
X115112500Y-106279573D01*
X115120518Y-106309496D01*
X115143338Y-106394663D01*
X115202906Y-106497837D01*
X115202908Y-106497839D01*
X115202910Y-106497842D01*
X115287158Y-106582090D01*
X115287160Y-106582091D01*
X115287162Y-106582093D01*
X115390337Y-106641661D01*
X115390335Y-106641661D01*
X115390339Y-106641662D01*
X115390341Y-106641663D01*
X115505427Y-106672500D01*
X115505429Y-106672500D01*
X115624571Y-106672500D01*
X115624573Y-106672500D01*
X115739659Y-106641663D01*
X115739661Y-106641661D01*
X115739663Y-106641661D01*
X115842837Y-106582093D01*
X115842837Y-106582092D01*
X115842842Y-106582090D01*
X115878816Y-106546115D01*
X115933330Y-106518339D01*
X115993762Y-106527910D01*
X116037027Y-106571174D01*
X116040282Y-106578234D01*
X116108810Y-106743676D01*
X116108814Y-106743685D01*
X116218249Y-106907462D01*
X116218252Y-106907466D01*
X116357533Y-107046747D01*
X116357537Y-107046750D01*
X116521314Y-107156185D01*
X116521326Y-107156191D01*
X116703304Y-107231568D01*
X116703315Y-107231571D01*
X116745000Y-107239862D01*
X116745000Y-106436988D01*
X116754940Y-106454205D01*
X116810795Y-106510060D01*
X116879204Y-106549556D01*
X116955504Y-106570000D01*
X117034496Y-106570000D01*
X117110796Y-106549556D01*
X117179205Y-106510060D01*
X117235060Y-106454205D01*
X117245000Y-106436988D01*
X117245000Y-107239861D01*
X117286684Y-107231571D01*
X117286695Y-107231568D01*
X117468673Y-107156191D01*
X117468685Y-107156185D01*
X117632462Y-107046750D01*
X117632466Y-107046747D01*
X117771747Y-106907466D01*
X117771750Y-106907462D01*
X117881185Y-106743685D01*
X117881191Y-106743673D01*
X117956570Y-106561690D01*
X117956570Y-106561688D01*
X117994999Y-106368493D01*
X117995000Y-106368490D01*
X117995000Y-105970001D01*
X117994999Y-105970000D01*
X117295000Y-105970000D01*
X117295000Y-105470000D01*
X117994999Y-105470000D01*
X117995000Y-105469999D01*
X117995000Y-105071509D01*
X117994999Y-105071506D01*
X117956570Y-104878311D01*
X117956570Y-104878309D01*
X117881191Y-104696326D01*
X117881185Y-104696314D01*
X117771750Y-104532537D01*
X117771747Y-104532533D01*
X117632466Y-104393252D01*
X117632462Y-104393249D01*
X117468685Y-104283814D01*
X117468673Y-104283808D01*
X117286691Y-104208429D01*
X117245000Y-104200136D01*
X117245000Y-105003011D01*
X117235060Y-104985795D01*
X117179205Y-104929940D01*
X117110796Y-104890444D01*
X117034496Y-104870000D01*
X116955504Y-104870000D01*
X116879204Y-104890444D01*
X116810795Y-104929940D01*
X116754940Y-104985795D01*
X116745000Y-105003011D01*
X116745000Y-104200136D01*
X116703308Y-104208429D01*
X116521326Y-104283808D01*
X116521314Y-104283814D01*
X116357537Y-104393249D01*
X116357533Y-104393252D01*
X116218252Y-104532533D01*
X116218249Y-104532537D01*
X116108814Y-104696314D01*
X116108808Y-104696326D01*
X116033429Y-104878309D01*
X116033429Y-104878311D01*
X115995000Y-105071506D01*
X115995000Y-105469999D01*
X115995001Y-105470000D01*
X116695000Y-105470000D01*
X116695000Y-105970000D01*
X115995939Y-105970000D01*
X115937748Y-105951093D01*
X115925941Y-105941009D01*
X115842842Y-105857910D01*
X115842839Y-105857908D01*
X115842837Y-105857906D01*
X115739662Y-105798338D01*
X115739664Y-105798338D01*
X115695008Y-105786373D01*
X115624573Y-105767500D01*
X115505427Y-105767500D01*
X115434991Y-105786373D01*
X115390336Y-105798338D01*
X115287162Y-105857906D01*
X115202906Y-105942162D01*
X115143338Y-106045336D01*
X115127289Y-106105231D01*
X115127288Y-106105234D01*
X115112500Y-106160427D01*
X114930500Y-106160427D01*
X114930500Y-106054108D01*
X114896392Y-105926814D01*
X114896390Y-105926811D01*
X114896390Y-105926809D01*
X114830503Y-105812690D01*
X114830501Y-105812688D01*
X114830500Y-105812686D01*
X114737314Y-105719500D01*
X114737311Y-105719498D01*
X114737309Y-105719496D01*
X114623189Y-105653609D01*
X114623191Y-105653609D01*
X114573799Y-105640375D01*
X114495892Y-105619500D01*
X114364108Y-105619500D01*
X114286200Y-105640375D01*
X114236809Y-105653609D01*
X114122690Y-105719496D01*
X114029496Y-105812690D01*
X113963609Y-105926809D01*
X113952363Y-105968781D01*
X113929500Y-106054108D01*
X110209012Y-106054108D01*
X110206663Y-106045341D01*
X110206660Y-106045336D01*
X110147093Y-105942162D01*
X110147091Y-105942160D01*
X110147090Y-105942158D01*
X110062842Y-105857910D01*
X110062839Y-105857908D01*
X110062837Y-105857906D01*
X109959662Y-105798338D01*
X109959664Y-105798338D01*
X109915008Y-105786373D01*
X109844573Y-105767500D01*
X109725427Y-105767500D01*
X109654991Y-105786373D01*
X109610336Y-105798338D01*
X109507162Y-105857906D01*
X109507161Y-105857907D01*
X109507158Y-105857909D01*
X109507158Y-105857910D01*
X109424062Y-105941005D01*
X109369548Y-105968781D01*
X109354061Y-105970000D01*
X108655000Y-105970000D01*
X108655000Y-105470000D01*
X109354999Y-105470000D01*
X109355000Y-105469999D01*
X109355000Y-105071509D01*
X109354999Y-105071506D01*
X109316570Y-104878311D01*
X109316570Y-104878309D01*
X109241191Y-104696326D01*
X109241185Y-104696314D01*
X109131750Y-104532537D01*
X109131747Y-104532533D01*
X108992466Y-104393252D01*
X108992462Y-104393249D01*
X108828685Y-104283814D01*
X108828673Y-104283808D01*
X108646691Y-104208429D01*
X108605000Y-104200136D01*
X108605000Y-105003011D01*
X108595060Y-104985795D01*
X108539205Y-104929940D01*
X108470796Y-104890444D01*
X108394496Y-104870000D01*
X108315504Y-104870000D01*
X108239204Y-104890444D01*
X108170795Y-104929940D01*
X108114940Y-104985795D01*
X108105000Y-105003011D01*
X108105000Y-104200136D01*
X108063308Y-104208429D01*
X107881326Y-104283808D01*
X107881314Y-104283814D01*
X107717537Y-104393249D01*
X107717533Y-104393252D01*
X107578252Y-104532533D01*
X107578249Y-104532537D01*
X107468814Y-104696314D01*
X107468808Y-104696326D01*
X107393429Y-104878309D01*
X107393429Y-104878311D01*
X107355000Y-105071506D01*
X105450500Y-105071506D01*
X105450500Y-103832852D01*
X111793750Y-103832852D01*
X111793750Y-103964636D01*
X111811827Y-104032101D01*
X111827859Y-104091934D01*
X111893746Y-104206053D01*
X111893748Y-104206055D01*
X111893750Y-104206058D01*
X111986936Y-104299244D01*
X111986938Y-104299245D01*
X111986940Y-104299247D01*
X112101060Y-104365134D01*
X112101058Y-104365134D01*
X112101062Y-104365135D01*
X112101064Y-104365136D01*
X112228358Y-104399244D01*
X112228360Y-104399244D01*
X112360140Y-104399244D01*
X112360142Y-104399244D01*
X112487436Y-104365136D01*
X112487438Y-104365134D01*
X112487440Y-104365134D01*
X112601559Y-104299247D01*
X112601559Y-104299246D01*
X112601564Y-104299244D01*
X112694750Y-104206058D01*
X112714538Y-104171784D01*
X112760640Y-104091934D01*
X112760640Y-104091933D01*
X112760642Y-104091930D01*
X112762923Y-104083414D01*
X112796243Y-104032101D01*
X112853363Y-104010171D01*
X112912465Y-104026004D01*
X112947222Y-104067792D01*
X112947613Y-104067567D01*
X112948925Y-104069840D01*
X112950014Y-104071149D01*
X112950859Y-104073189D01*
X113016746Y-104187309D01*
X113016748Y-104187311D01*
X113016750Y-104187314D01*
X113109936Y-104280500D01*
X113109938Y-104280501D01*
X113109940Y-104280503D01*
X113224060Y-104346390D01*
X113224058Y-104346390D01*
X113224062Y-104346391D01*
X113224064Y-104346392D01*
X113351358Y-104380500D01*
X113351360Y-104380500D01*
X113483140Y-104380500D01*
X113483142Y-104380500D01*
X113610436Y-104346392D01*
X113610438Y-104346390D01*
X113610440Y-104346390D01*
X113724559Y-104280503D01*
X113724559Y-104280502D01*
X113724564Y-104280500D01*
X113817750Y-104187314D01*
X113883642Y-104073186D01*
X113902151Y-104004108D01*
X114569500Y-104004108D01*
X114569500Y-104135892D01*
X114588301Y-104206058D01*
X114603609Y-104263190D01*
X114669496Y-104377309D01*
X114669498Y-104377311D01*
X114669500Y-104377314D01*
X114762686Y-104470500D01*
X114762688Y-104470501D01*
X114762690Y-104470503D01*
X114876810Y-104536390D01*
X114876808Y-104536390D01*
X114876812Y-104536391D01*
X114876814Y-104536392D01*
X115004108Y-104570500D01*
X115004110Y-104570500D01*
X115135890Y-104570500D01*
X115135892Y-104570500D01*
X115263186Y-104536392D01*
X115263188Y-104536390D01*
X115263190Y-104536390D01*
X115377309Y-104470503D01*
X115377309Y-104470502D01*
X115377314Y-104470500D01*
X115470500Y-104377314D01*
X115488354Y-104346390D01*
X115536390Y-104263190D01*
X115536390Y-104263188D01*
X115536392Y-104263186D01*
X115570500Y-104135892D01*
X115570500Y-104004108D01*
X115536392Y-103876814D01*
X115536390Y-103876811D01*
X115536390Y-103876809D01*
X115470503Y-103762690D01*
X115470501Y-103762688D01*
X115470500Y-103762686D01*
X115377314Y-103669500D01*
X115377311Y-103669498D01*
X115377309Y-103669496D01*
X115263189Y-103603609D01*
X115263191Y-103603609D01*
X115213799Y-103590375D01*
X115135892Y-103569500D01*
X115004108Y-103569500D01*
X114926200Y-103590375D01*
X114876809Y-103603609D01*
X114762690Y-103669496D01*
X114669496Y-103762690D01*
X114603609Y-103876809D01*
X114603608Y-103876814D01*
X114569500Y-104004108D01*
X113902151Y-104004108D01*
X113917750Y-103945892D01*
X113917750Y-103814108D01*
X113883642Y-103686814D01*
X113883640Y-103686810D01*
X113883640Y-103686809D01*
X113817753Y-103572690D01*
X113817751Y-103572688D01*
X113817750Y-103572686D01*
X113724564Y-103479500D01*
X113724561Y-103479498D01*
X113724559Y-103479496D01*
X113610439Y-103413609D01*
X113610441Y-103413609D01*
X113553096Y-103398244D01*
X113483142Y-103379500D01*
X113351358Y-103379500D01*
X113281404Y-103398244D01*
X113224059Y-103413609D01*
X113109940Y-103479496D01*
X113016746Y-103572690D01*
X112950859Y-103686810D01*
X112950858Y-103686813D01*
X112948575Y-103695333D01*
X112915250Y-103746647D01*
X112858128Y-103768572D01*
X112799028Y-103752735D01*
X112764279Y-103710950D01*
X112763887Y-103711177D01*
X112762568Y-103708893D01*
X112761483Y-103707588D01*
X112760640Y-103705554D01*
X112694753Y-103591434D01*
X112694751Y-103591432D01*
X112694750Y-103591430D01*
X112601564Y-103498244D01*
X112601561Y-103498242D01*
X112601559Y-103498240D01*
X112487439Y-103432353D01*
X112487441Y-103432353D01*
X112438049Y-103419119D01*
X112360142Y-103398244D01*
X112228358Y-103398244D01*
X112150450Y-103419119D01*
X112101059Y-103432353D01*
X111986940Y-103498240D01*
X111893746Y-103591434D01*
X111827859Y-103705553D01*
X111827858Y-103705558D01*
X111793750Y-103832852D01*
X105450500Y-103832852D01*
X105450500Y-103820252D01*
X105438867Y-103761769D01*
X105394552Y-103695448D01*
X105381631Y-103686814D01*
X105328233Y-103651134D01*
X105328231Y-103651133D01*
X105328228Y-103651132D01*
X105328227Y-103651132D01*
X105269758Y-103639501D01*
X105269748Y-103639500D01*
X103530252Y-103639500D01*
X103530251Y-103639500D01*
X103530241Y-103639501D01*
X103471772Y-103651132D01*
X103471766Y-103651134D01*
X103405451Y-103695445D01*
X103405445Y-103695451D01*
X103361134Y-103761766D01*
X103361132Y-103761772D01*
X103349501Y-103820241D01*
X103349500Y-103820253D01*
X103349500Y-104280456D01*
X103330593Y-104338647D01*
X103281093Y-104374611D01*
X103219907Y-104374611D01*
X103170407Y-104338647D01*
X103156345Y-104311049D01*
X103111095Y-104171784D01*
X103014623Y-103982446D01*
X103014619Y-103982440D01*
X102975270Y-103928282D01*
X102975269Y-103928282D01*
X102342962Y-104560589D01*
X102325925Y-104497007D01*
X102260099Y-104382993D01*
X102167007Y-104289901D01*
X102052993Y-104224075D01*
X101989407Y-104207037D01*
X102621716Y-103574729D01*
X102621716Y-103574728D01*
X102567559Y-103535380D01*
X102567553Y-103535376D01*
X102378215Y-103438904D01*
X102176121Y-103373240D01*
X101966250Y-103340000D01*
X101753750Y-103340000D01*
X101543878Y-103373240D01*
X101341784Y-103438904D01*
X101152446Y-103535376D01*
X101152442Y-103535378D01*
X101098282Y-103574728D01*
X101730591Y-104207037D01*
X101667007Y-104224075D01*
X101552993Y-104289901D01*
X101459901Y-104382993D01*
X101394075Y-104497007D01*
X101377037Y-104560591D01*
X100744728Y-103928282D01*
X100705378Y-103982442D01*
X100705376Y-103982446D01*
X100608904Y-104171784D01*
X100543240Y-104373878D01*
X100510000Y-104583749D01*
X97970500Y-104583749D01*
X97970500Y-102274108D01*
X104929500Y-102274108D01*
X104929500Y-102405892D01*
X104947109Y-102471609D01*
X104963609Y-102533190D01*
X105029496Y-102647309D01*
X105029498Y-102647311D01*
X105029500Y-102647314D01*
X105122686Y-102740500D01*
X105122688Y-102740501D01*
X105122690Y-102740503D01*
X105236810Y-102806390D01*
X105236808Y-102806390D01*
X105236812Y-102806391D01*
X105236814Y-102806392D01*
X105364108Y-102840500D01*
X105364110Y-102840500D01*
X105495890Y-102840500D01*
X105495892Y-102840500D01*
X105623186Y-102806392D01*
X105623188Y-102806390D01*
X105623190Y-102806390D01*
X105737309Y-102740503D01*
X105737309Y-102740502D01*
X105737314Y-102740500D01*
X105830500Y-102647314D01*
X105896392Y-102533186D01*
X105930500Y-102405892D01*
X105930500Y-102274108D01*
X105896392Y-102146814D01*
X105896390Y-102146811D01*
X105896390Y-102146809D01*
X105830503Y-102032690D01*
X105830501Y-102032688D01*
X105830500Y-102032686D01*
X105737314Y-101939500D01*
X105737311Y-101939498D01*
X105737309Y-101939496D01*
X105623189Y-101873609D01*
X105623191Y-101873609D01*
X105573799Y-101860375D01*
X105495892Y-101839500D01*
X105364108Y-101839500D01*
X105286200Y-101860375D01*
X105236809Y-101873609D01*
X105122690Y-101939496D01*
X105029496Y-102032690D01*
X104963609Y-102146809D01*
X104963608Y-102146814D01*
X104929500Y-102274108D01*
X97970500Y-102274108D01*
X97970500Y-101694108D01*
X112955250Y-101694108D01*
X112955250Y-101825892D01*
X112968036Y-101873609D01*
X112989359Y-101953190D01*
X113055246Y-102067309D01*
X113055248Y-102067311D01*
X113055250Y-102067314D01*
X113148436Y-102160500D01*
X113148438Y-102160501D01*
X113148440Y-102160503D01*
X113262560Y-102226390D01*
X113262558Y-102226390D01*
X113262562Y-102226391D01*
X113262564Y-102226392D01*
X113389858Y-102260500D01*
X113389860Y-102260500D01*
X113521640Y-102260500D01*
X113521642Y-102260500D01*
X113648936Y-102226392D01*
X113648938Y-102226390D01*
X113648940Y-102226390D01*
X113763059Y-102160503D01*
X113763059Y-102160502D01*
X113763064Y-102160500D01*
X113856250Y-102067314D01*
X113922142Y-101953186D01*
X113956250Y-101825892D01*
X113956250Y-101694108D01*
X113922142Y-101566814D01*
X113922140Y-101566811D01*
X113922140Y-101566809D01*
X113856253Y-101452690D01*
X113856251Y-101452688D01*
X113856250Y-101452686D01*
X113763064Y-101359500D01*
X113763061Y-101359498D01*
X113763059Y-101359496D01*
X113648939Y-101293609D01*
X113648941Y-101293609D01*
X113599549Y-101280375D01*
X113521642Y-101259500D01*
X113389858Y-101259500D01*
X113311950Y-101280375D01*
X113262559Y-101293609D01*
X113148440Y-101359496D01*
X113055246Y-101452690D01*
X112989359Y-101566809D01*
X112989358Y-101566814D01*
X112955250Y-101694108D01*
X97970500Y-101694108D01*
X97970500Y-99424108D01*
X101649500Y-99424108D01*
X101649500Y-99555892D01*
X101674850Y-99650500D01*
X101683609Y-99683190D01*
X101749496Y-99797309D01*
X101749498Y-99797311D01*
X101749500Y-99797314D01*
X101842686Y-99890500D01*
X101842688Y-99890501D01*
X101842690Y-99890503D01*
X101956810Y-99956390D01*
X101956808Y-99956390D01*
X101956812Y-99956391D01*
X101956814Y-99956392D01*
X102084108Y-99990500D01*
X102084110Y-99990500D01*
X102215890Y-99990500D01*
X102215892Y-99990500D01*
X102343186Y-99956392D01*
X102343188Y-99956390D01*
X102343190Y-99956390D01*
X102457309Y-99890503D01*
X102457309Y-99890502D01*
X102457314Y-99890500D01*
X102550500Y-99797314D01*
X102578268Y-99749219D01*
X102616390Y-99683190D01*
X102616390Y-99683188D01*
X102616392Y-99683186D01*
X102650500Y-99555892D01*
X102650500Y-99424108D01*
X102616392Y-99296814D01*
X102616390Y-99296811D01*
X102616390Y-99296809D01*
X102576155Y-99227122D01*
X102576153Y-99227119D01*
X102551321Y-99184108D01*
X115114500Y-99184108D01*
X115114500Y-99315892D01*
X115143496Y-99424108D01*
X115148609Y-99443190D01*
X115214496Y-99557309D01*
X115214498Y-99557311D01*
X115214500Y-99557314D01*
X115307686Y-99650500D01*
X115307688Y-99650501D01*
X115307690Y-99650503D01*
X115421810Y-99716390D01*
X115421808Y-99716390D01*
X115421812Y-99716391D01*
X115421814Y-99716392D01*
X115549108Y-99750500D01*
X115549110Y-99750500D01*
X115680890Y-99750500D01*
X115680892Y-99750500D01*
X115808186Y-99716392D01*
X115808188Y-99716390D01*
X115808190Y-99716390D01*
X115922309Y-99650503D01*
X115922309Y-99650502D01*
X115922314Y-99650500D01*
X116015500Y-99557314D01*
X116081392Y-99443186D01*
X116115500Y-99315892D01*
X116115500Y-99184108D01*
X116081392Y-99056814D01*
X116081390Y-99056811D01*
X116081390Y-99056809D01*
X116015503Y-98942690D01*
X116015501Y-98942688D01*
X116015500Y-98942686D01*
X115922314Y-98849500D01*
X115922311Y-98849498D01*
X115922309Y-98849496D01*
X115808189Y-98783609D01*
X115808191Y-98783609D01*
X115758799Y-98770375D01*
X115680892Y-98749500D01*
X115549108Y-98749500D01*
X115471200Y-98770375D01*
X115421809Y-98783609D01*
X115307690Y-98849496D01*
X115214496Y-98942690D01*
X115148609Y-99056809D01*
X115148608Y-99056814D01*
X115114500Y-99184108D01*
X102551321Y-99184108D01*
X102550500Y-99182686D01*
X102457314Y-99089500D01*
X102457311Y-99089498D01*
X102457309Y-99089496D01*
X102343189Y-99023609D01*
X102343191Y-99023609D01*
X102293799Y-99010375D01*
X102215892Y-98989500D01*
X102084108Y-98989500D01*
X102006200Y-99010375D01*
X101956809Y-99023609D01*
X101842690Y-99089496D01*
X101749496Y-99182690D01*
X101683609Y-99296809D01*
X101678496Y-99315892D01*
X101649500Y-99424108D01*
X97970500Y-99424108D01*
X97970500Y-98084108D01*
X115719500Y-98084108D01*
X115719500Y-98215892D01*
X115730791Y-98258030D01*
X115753609Y-98343190D01*
X115819496Y-98457309D01*
X115819498Y-98457311D01*
X115819500Y-98457314D01*
X115912686Y-98550500D01*
X115912688Y-98550501D01*
X115912690Y-98550503D01*
X116026810Y-98616390D01*
X116026808Y-98616390D01*
X116026812Y-98616391D01*
X116026814Y-98616392D01*
X116154108Y-98650500D01*
X116154110Y-98650500D01*
X116285890Y-98650500D01*
X116285892Y-98650500D01*
X116413186Y-98616392D01*
X116413188Y-98616390D01*
X116413190Y-98616390D01*
X116527309Y-98550503D01*
X116527309Y-98550502D01*
X116527314Y-98550500D01*
X116620500Y-98457314D01*
X116686392Y-98343186D01*
X116720500Y-98215892D01*
X116720500Y-98084108D01*
X116686392Y-97956814D01*
X116686390Y-97956811D01*
X116686390Y-97956809D01*
X116620503Y-97842690D01*
X116620501Y-97842688D01*
X116620500Y-97842686D01*
X116527314Y-97749500D01*
X116527311Y-97749498D01*
X116527309Y-97749496D01*
X116413189Y-97683609D01*
X116413191Y-97683609D01*
X116363799Y-97670375D01*
X116285892Y-97649500D01*
X116154108Y-97649500D01*
X116076200Y-97670375D01*
X116026809Y-97683609D01*
X115912690Y-97749496D01*
X115819496Y-97842690D01*
X115753609Y-97956809D01*
X115753608Y-97956814D01*
X115719500Y-98084108D01*
X97970500Y-98084108D01*
X97970500Y-97124108D01*
X121139500Y-97124108D01*
X121139500Y-97255892D01*
X121169579Y-97368151D01*
X121173609Y-97383190D01*
X121239496Y-97497309D01*
X121239498Y-97497311D01*
X121239500Y-97497314D01*
X121332686Y-97590500D01*
X121332688Y-97590501D01*
X121332690Y-97590503D01*
X121446810Y-97656390D01*
X121446808Y-97656390D01*
X121446812Y-97656391D01*
X121446814Y-97656392D01*
X121574108Y-97690500D01*
X121574110Y-97690500D01*
X121705890Y-97690500D01*
X121705892Y-97690500D01*
X121833186Y-97656392D01*
X121833188Y-97656390D01*
X121833190Y-97656390D01*
X121947309Y-97590503D01*
X121947309Y-97590502D01*
X121947314Y-97590500D01*
X122040500Y-97497314D01*
X122106392Y-97383186D01*
X122140500Y-97255892D01*
X122140500Y-97124108D01*
X122106392Y-96996814D01*
X122106390Y-96996811D01*
X122106390Y-96996809D01*
X122040503Y-96882690D01*
X122040501Y-96882688D01*
X122040500Y-96882686D01*
X121947314Y-96789500D01*
X121947311Y-96789498D01*
X121947309Y-96789496D01*
X121833189Y-96723609D01*
X121833191Y-96723609D01*
X121782396Y-96709999D01*
X121705892Y-96689500D01*
X121574108Y-96689500D01*
X121497604Y-96709999D01*
X121446809Y-96723609D01*
X121332690Y-96789496D01*
X121239496Y-96882690D01*
X121173609Y-96996809D01*
X121173608Y-96996814D01*
X121139500Y-97124108D01*
X97970500Y-97124108D01*
X97970500Y-95924108D01*
X101649500Y-95924108D01*
X101649500Y-96055892D01*
X101670077Y-96132686D01*
X101683609Y-96183190D01*
X101749496Y-96297309D01*
X101749498Y-96297311D01*
X101749500Y-96297314D01*
X101842686Y-96390500D01*
X101842688Y-96390501D01*
X101842690Y-96390503D01*
X101956810Y-96456390D01*
X101956808Y-96456390D01*
X101956812Y-96456391D01*
X101956814Y-96456392D01*
X102084108Y-96490500D01*
X102084110Y-96490500D01*
X102215890Y-96490500D01*
X102215892Y-96490500D01*
X102343186Y-96456392D01*
X102343188Y-96456390D01*
X102343190Y-96456390D01*
X102457309Y-96390503D01*
X102457309Y-96390502D01*
X102457314Y-96390500D01*
X102473706Y-96374108D01*
X114579500Y-96374108D01*
X114579500Y-96505892D01*
X114600448Y-96584073D01*
X114613609Y-96633190D01*
X114679496Y-96747309D01*
X114679498Y-96747311D01*
X114679500Y-96747314D01*
X114772686Y-96840500D01*
X114772688Y-96840501D01*
X114772690Y-96840503D01*
X114886810Y-96906390D01*
X114886808Y-96906390D01*
X114886812Y-96906391D01*
X114886814Y-96906392D01*
X115014108Y-96940500D01*
X115014110Y-96940500D01*
X115145890Y-96940500D01*
X115145892Y-96940500D01*
X115273186Y-96906392D01*
X115273188Y-96906390D01*
X115273190Y-96906390D01*
X115387309Y-96840503D01*
X115387309Y-96840502D01*
X115387314Y-96840500D01*
X115480500Y-96747314D01*
X115546392Y-96633186D01*
X115580500Y-96505892D01*
X115580500Y-96374108D01*
X115546392Y-96246814D01*
X115546390Y-96246811D01*
X115546390Y-96246809D01*
X115480503Y-96132690D01*
X115480501Y-96132688D01*
X115480500Y-96132686D01*
X115387314Y-96039500D01*
X115387311Y-96039498D01*
X115387309Y-96039496D01*
X115273189Y-95973609D01*
X115273191Y-95973609D01*
X115223799Y-95960375D01*
X115145892Y-95939500D01*
X115014108Y-95939500D01*
X114936200Y-95960375D01*
X114886809Y-95973609D01*
X114772690Y-96039496D01*
X114679496Y-96132690D01*
X114613609Y-96246809D01*
X114613608Y-96246814D01*
X114579500Y-96374108D01*
X102473706Y-96374108D01*
X102550500Y-96297314D01*
X102616392Y-96183186D01*
X102650500Y-96055892D01*
X102650500Y-95924108D01*
X102616392Y-95796814D01*
X102616390Y-95796811D01*
X102616390Y-95796809D01*
X102550503Y-95682690D01*
X102550501Y-95682688D01*
X102550500Y-95682686D01*
X102457314Y-95589500D01*
X102457311Y-95589498D01*
X102457309Y-95589496D01*
X102343189Y-95523609D01*
X102343191Y-95523609D01*
X102293799Y-95510375D01*
X102215892Y-95489500D01*
X102084108Y-95489500D01*
X102006200Y-95510375D01*
X101956809Y-95523609D01*
X101842690Y-95589496D01*
X101749496Y-95682690D01*
X101683609Y-95796809D01*
X101683608Y-95796814D01*
X101649500Y-95924108D01*
X97970500Y-95924108D01*
X97970500Y-94094108D01*
X115104500Y-94094108D01*
X115104500Y-94225892D01*
X115116949Y-94272352D01*
X115138609Y-94353190D01*
X115204496Y-94467309D01*
X115204498Y-94467311D01*
X115204500Y-94467314D01*
X115297686Y-94560500D01*
X115297688Y-94560501D01*
X115297690Y-94560503D01*
X115411810Y-94626390D01*
X115411808Y-94626390D01*
X115411812Y-94626391D01*
X115411814Y-94626392D01*
X115539108Y-94660500D01*
X115539110Y-94660500D01*
X115670890Y-94660500D01*
X115670892Y-94660500D01*
X115798186Y-94626392D01*
X115798188Y-94626390D01*
X115798190Y-94626390D01*
X115912309Y-94560503D01*
X115912309Y-94560502D01*
X115912314Y-94560500D01*
X116005500Y-94467314D01*
X116071392Y-94353186D01*
X116105500Y-94225892D01*
X116105500Y-94094108D01*
X116071392Y-93966814D01*
X116071390Y-93966811D01*
X116071390Y-93966809D01*
X116005503Y-93852690D01*
X116005501Y-93852688D01*
X116005500Y-93852686D01*
X115912314Y-93759500D01*
X115912311Y-93759498D01*
X115912309Y-93759496D01*
X115798189Y-93693609D01*
X115798191Y-93693609D01*
X115748799Y-93680375D01*
X115670892Y-93659500D01*
X115539108Y-93659500D01*
X115461200Y-93680375D01*
X115411809Y-93693609D01*
X115297690Y-93759496D01*
X115204496Y-93852690D01*
X115138609Y-93966809D01*
X115138608Y-93966814D01*
X115104500Y-94094108D01*
X97970500Y-94094108D01*
X97970500Y-93004108D01*
X107449500Y-93004108D01*
X107449500Y-93135892D01*
X107479579Y-93248151D01*
X107483609Y-93263190D01*
X107549496Y-93377309D01*
X107549498Y-93377311D01*
X107549500Y-93377314D01*
X107642686Y-93470500D01*
X107642688Y-93470501D01*
X107642690Y-93470503D01*
X107756810Y-93536390D01*
X107756808Y-93536390D01*
X107756812Y-93536391D01*
X107756814Y-93536392D01*
X107884108Y-93570500D01*
X107884110Y-93570500D01*
X108015890Y-93570500D01*
X108015892Y-93570500D01*
X108143186Y-93536392D01*
X108143188Y-93536390D01*
X108143190Y-93536390D01*
X108257309Y-93470503D01*
X108257309Y-93470502D01*
X108257314Y-93470500D01*
X108350500Y-93377314D01*
X108387522Y-93313190D01*
X108416390Y-93263190D01*
X108416390Y-93263188D01*
X108416392Y-93263186D01*
X108450500Y-93135892D01*
X108450500Y-93024108D01*
X110339500Y-93024108D01*
X110339500Y-93155892D01*
X110368249Y-93263186D01*
X110373609Y-93283190D01*
X110439496Y-93397309D01*
X110439498Y-93397311D01*
X110439500Y-93397314D01*
X110532686Y-93490500D01*
X110532688Y-93490501D01*
X110532690Y-93490503D01*
X110646810Y-93556390D01*
X110646808Y-93556390D01*
X110646812Y-93556391D01*
X110646814Y-93556392D01*
X110774108Y-93590500D01*
X110774110Y-93590500D01*
X110905890Y-93590500D01*
X110905892Y-93590500D01*
X111033186Y-93556392D01*
X111033188Y-93556390D01*
X111033190Y-93556390D01*
X111147309Y-93490503D01*
X111147309Y-93490502D01*
X111147314Y-93490500D01*
X111240500Y-93397314D01*
X111289069Y-93313190D01*
X111306390Y-93283190D01*
X111306390Y-93283188D01*
X111306392Y-93283186D01*
X111340500Y-93155892D01*
X111340500Y-93054108D01*
X115719500Y-93054108D01*
X115719500Y-93185892D01*
X115740211Y-93263186D01*
X115753609Y-93313190D01*
X115819496Y-93427309D01*
X115819498Y-93427311D01*
X115819500Y-93427314D01*
X115912686Y-93520500D01*
X115912688Y-93520501D01*
X115912690Y-93520503D01*
X116026810Y-93586390D01*
X116026808Y-93586390D01*
X116026812Y-93586391D01*
X116026814Y-93586392D01*
X116154108Y-93620500D01*
X116154110Y-93620500D01*
X116285890Y-93620500D01*
X116285892Y-93620500D01*
X116413186Y-93586392D01*
X116413188Y-93586390D01*
X116413190Y-93586390D01*
X116527309Y-93520503D01*
X116527309Y-93520502D01*
X116527314Y-93520500D01*
X116620500Y-93427314D01*
X116637821Y-93397314D01*
X116686390Y-93313190D01*
X116686390Y-93313188D01*
X116686392Y-93313186D01*
X116720500Y-93185892D01*
X116720500Y-93054108D01*
X116686392Y-92926814D01*
X116686390Y-92926811D01*
X116686390Y-92926809D01*
X116620503Y-92812690D01*
X116620501Y-92812688D01*
X116620500Y-92812686D01*
X116527314Y-92719500D01*
X116527311Y-92719498D01*
X116527309Y-92719496D01*
X116413189Y-92653609D01*
X116413191Y-92653609D01*
X116363799Y-92640375D01*
X116285892Y-92619500D01*
X116154108Y-92619500D01*
X116076200Y-92640375D01*
X116026809Y-92653609D01*
X115912690Y-92719496D01*
X115819496Y-92812690D01*
X115753609Y-92926809D01*
X115743435Y-92964780D01*
X115719500Y-93054108D01*
X111340500Y-93054108D01*
X111340500Y-93024108D01*
X111306392Y-92896814D01*
X111306390Y-92896811D01*
X111306390Y-92896809D01*
X111240503Y-92782690D01*
X111240501Y-92782688D01*
X111240500Y-92782686D01*
X111147314Y-92689500D01*
X111147311Y-92689498D01*
X111147309Y-92689496D01*
X111033189Y-92623609D01*
X111033191Y-92623609D01*
X110983799Y-92610375D01*
X110905892Y-92589500D01*
X110774108Y-92589500D01*
X110696200Y-92610375D01*
X110646809Y-92623609D01*
X110532690Y-92689496D01*
X110439496Y-92782690D01*
X110373609Y-92896809D01*
X110357645Y-92956390D01*
X110339500Y-93024108D01*
X108450500Y-93024108D01*
X108450500Y-93004108D01*
X108416392Y-92876814D01*
X108416390Y-92876811D01*
X108416390Y-92876809D01*
X108350503Y-92762690D01*
X108350501Y-92762688D01*
X108350500Y-92762686D01*
X108257314Y-92669500D01*
X108257311Y-92669498D01*
X108257309Y-92669496D01*
X108143189Y-92603609D01*
X108143191Y-92603609D01*
X108090534Y-92589500D01*
X108015892Y-92569500D01*
X107884108Y-92569500D01*
X107809466Y-92589500D01*
X107756809Y-92603609D01*
X107642690Y-92669496D01*
X107549496Y-92762690D01*
X107483609Y-92876809D01*
X107483608Y-92876814D01*
X107449500Y-93004108D01*
X97970500Y-93004108D01*
X97970500Y-92424108D01*
X105669500Y-92424108D01*
X105669500Y-92555892D01*
X105682286Y-92603609D01*
X105703609Y-92683190D01*
X105769496Y-92797309D01*
X105769498Y-92797311D01*
X105769500Y-92797314D01*
X105862686Y-92890500D01*
X105862688Y-92890501D01*
X105862690Y-92890503D01*
X105976810Y-92956390D01*
X105976808Y-92956390D01*
X105976812Y-92956391D01*
X105976814Y-92956392D01*
X106104108Y-92990500D01*
X106104110Y-92990500D01*
X106235890Y-92990500D01*
X106235892Y-92990500D01*
X106363186Y-92956392D01*
X106363188Y-92956390D01*
X106363190Y-92956390D01*
X106440279Y-92911883D01*
X106477309Y-92890503D01*
X106477309Y-92890502D01*
X106477314Y-92890500D01*
X106570500Y-92797314D01*
X106615426Y-92719500D01*
X106636390Y-92683190D01*
X106636390Y-92683188D01*
X106636392Y-92683186D01*
X106670500Y-92555892D01*
X106670500Y-92424108D01*
X106636392Y-92296814D01*
X106636390Y-92296811D01*
X106636390Y-92296809D01*
X106570503Y-92182690D01*
X106570501Y-92182688D01*
X106570500Y-92182686D01*
X106477314Y-92089500D01*
X106477311Y-92089498D01*
X106477309Y-92089496D01*
X106381374Y-92034108D01*
X121139500Y-92034108D01*
X121139500Y-92165892D01*
X121144000Y-92182686D01*
X121173609Y-92293190D01*
X121239496Y-92407309D01*
X121239498Y-92407311D01*
X121239500Y-92407314D01*
X121332686Y-92500500D01*
X121332688Y-92500501D01*
X121332690Y-92500503D01*
X121446810Y-92566390D01*
X121446808Y-92566390D01*
X121446812Y-92566391D01*
X121446814Y-92566392D01*
X121574108Y-92600500D01*
X121574110Y-92600500D01*
X121705890Y-92600500D01*
X121705892Y-92600500D01*
X121833186Y-92566392D01*
X121833188Y-92566390D01*
X121833190Y-92566390D01*
X121947309Y-92500503D01*
X121947309Y-92500502D01*
X121947314Y-92500500D01*
X122040500Y-92407314D01*
X122040503Y-92407309D01*
X122106390Y-92293190D01*
X122106390Y-92293188D01*
X122106392Y-92293186D01*
X122140500Y-92165892D01*
X122140500Y-92034108D01*
X122106392Y-91906814D01*
X122106390Y-91906811D01*
X122106390Y-91906809D01*
X122040503Y-91792690D01*
X122040501Y-91792688D01*
X122040500Y-91792686D01*
X121947314Y-91699500D01*
X121947311Y-91699498D01*
X121947309Y-91699496D01*
X121833189Y-91633609D01*
X121833191Y-91633609D01*
X121783799Y-91620375D01*
X121705892Y-91599500D01*
X121574108Y-91599500D01*
X121496200Y-91620375D01*
X121446809Y-91633609D01*
X121332690Y-91699496D01*
X121239496Y-91792690D01*
X121173609Y-91906809D01*
X121160798Y-91954623D01*
X121139500Y-92034108D01*
X106381374Y-92034108D01*
X106363189Y-92023609D01*
X106363191Y-92023609D01*
X106313799Y-92010375D01*
X106235892Y-91989500D01*
X106104108Y-91989500D01*
X106026200Y-92010375D01*
X105976809Y-92023609D01*
X105862690Y-92089496D01*
X105769496Y-92182690D01*
X105703609Y-92296809D01*
X105703608Y-92296814D01*
X105669500Y-92424108D01*
X97970500Y-92424108D01*
X97970500Y-90693749D01*
X98860000Y-90693749D01*
X98860000Y-90906250D01*
X98893240Y-91116121D01*
X98958904Y-91318215D01*
X99055376Y-91507553D01*
X99055380Y-91507559D01*
X99094728Y-91561716D01*
X99094729Y-91561716D01*
X99727037Y-90929407D01*
X99744075Y-90992993D01*
X99809901Y-91107007D01*
X99902993Y-91200099D01*
X100017007Y-91265925D01*
X100080589Y-91282962D01*
X99448282Y-91915269D01*
X99448282Y-91915270D01*
X99502440Y-91954619D01*
X99502446Y-91954623D01*
X99691784Y-92051095D01*
X99893878Y-92116759D01*
X100103750Y-92150000D01*
X100316250Y-92150000D01*
X100526121Y-92116759D01*
X100728215Y-92051095D01*
X100917556Y-91954620D01*
X100971716Y-91915270D01*
X100339408Y-91282962D01*
X100402993Y-91265925D01*
X100517007Y-91200099D01*
X100610099Y-91107007D01*
X100675925Y-90992993D01*
X100692962Y-90929408D01*
X101325270Y-91561716D01*
X101364620Y-91507556D01*
X101461095Y-91318215D01*
X101526759Y-91116121D01*
X101560000Y-90906250D01*
X101560000Y-90693749D01*
X101526759Y-90483878D01*
X101461095Y-90281784D01*
X101364623Y-90092446D01*
X101364619Y-90092440D01*
X101325270Y-90038282D01*
X101325269Y-90038282D01*
X100692962Y-90670589D01*
X100675925Y-90607007D01*
X100610099Y-90492993D01*
X100517007Y-90399901D01*
X100402993Y-90334075D01*
X100339408Y-90317037D01*
X100862338Y-89794108D01*
X109399500Y-89794108D01*
X109399500Y-89925892D01*
X109405105Y-89946809D01*
X109433609Y-90053190D01*
X109499496Y-90167309D01*
X109499498Y-90167311D01*
X109499500Y-90167314D01*
X109592686Y-90260500D01*
X109592688Y-90260501D01*
X109592690Y-90260503D01*
X109706810Y-90326390D01*
X109706808Y-90326390D01*
X109706812Y-90326391D01*
X109706814Y-90326392D01*
X109834108Y-90360500D01*
X109834110Y-90360500D01*
X109965890Y-90360500D01*
X109965892Y-90360500D01*
X110093186Y-90326392D01*
X110093188Y-90326390D01*
X110093190Y-90326390D01*
X110207309Y-90260503D01*
X110207309Y-90260502D01*
X110207314Y-90260500D01*
X110300500Y-90167314D01*
X110354313Y-90074108D01*
X111869500Y-90074108D01*
X111869500Y-90205892D01*
X111891389Y-90287583D01*
X111903609Y-90333190D01*
X111969496Y-90447309D01*
X111969498Y-90447311D01*
X111969500Y-90447314D01*
X112062686Y-90540500D01*
X112062688Y-90540501D01*
X112062690Y-90540503D01*
X112176810Y-90606390D01*
X112176808Y-90606390D01*
X112176812Y-90606391D01*
X112176814Y-90606392D01*
X112304108Y-90640500D01*
X112304110Y-90640500D01*
X112435890Y-90640500D01*
X112435892Y-90640500D01*
X112563186Y-90606392D01*
X112563188Y-90606390D01*
X112563190Y-90606390D01*
X112677309Y-90540503D01*
X112677309Y-90540502D01*
X112677314Y-90540500D01*
X112770500Y-90447314D01*
X112789228Y-90414877D01*
X115730269Y-90414877D01*
X115730269Y-90546661D01*
X115731925Y-90552840D01*
X115764378Y-90673959D01*
X115830265Y-90788078D01*
X115830267Y-90788080D01*
X115830269Y-90788083D01*
X115923455Y-90881269D01*
X115923457Y-90881270D01*
X115923459Y-90881272D01*
X116037579Y-90947159D01*
X116037577Y-90947159D01*
X116037581Y-90947160D01*
X116037583Y-90947161D01*
X116164877Y-90981269D01*
X116169731Y-90981269D01*
X116227922Y-91000176D01*
X116263886Y-91049676D01*
X116268731Y-91080269D01*
X116268731Y-91085123D01*
X116287067Y-91153553D01*
X116302840Y-91212421D01*
X116368727Y-91326540D01*
X116368729Y-91326542D01*
X116368731Y-91326545D01*
X116461917Y-91419731D01*
X116461919Y-91419732D01*
X116461921Y-91419734D01*
X116576041Y-91485621D01*
X116576039Y-91485621D01*
X116576043Y-91485622D01*
X116576045Y-91485623D01*
X116703339Y-91519731D01*
X116703341Y-91519731D01*
X116835121Y-91519731D01*
X116835123Y-91519731D01*
X116962417Y-91485623D01*
X116962419Y-91485621D01*
X116962421Y-91485621D01*
X117076538Y-91419735D01*
X117076537Y-91419735D01*
X117076545Y-91419731D01*
X117169731Y-91326545D01*
X117235623Y-91212417D01*
X117269731Y-91085123D01*
X117269731Y-90953339D01*
X117235623Y-90826045D01*
X117235621Y-90826042D01*
X117235621Y-90826040D01*
X117169734Y-90711921D01*
X117169732Y-90711919D01*
X117169731Y-90711917D01*
X117076545Y-90618731D01*
X117076542Y-90618729D01*
X117076540Y-90618727D01*
X116962420Y-90552840D01*
X116962422Y-90552840D01*
X116913030Y-90539606D01*
X116835123Y-90518731D01*
X116835121Y-90518731D01*
X116830269Y-90518731D01*
X116772078Y-90499824D01*
X116736114Y-90450324D01*
X116731269Y-90419731D01*
X116731269Y-90414878D01*
X116724737Y-90390500D01*
X116697161Y-90287583D01*
X116697159Y-90287580D01*
X116697159Y-90287578D01*
X116631272Y-90173459D01*
X116631270Y-90173457D01*
X116631269Y-90173455D01*
X116538083Y-90080269D01*
X116538080Y-90080267D01*
X116538078Y-90080265D01*
X116423958Y-90014378D01*
X116423960Y-90014378D01*
X116374568Y-90001144D01*
X116296661Y-89980269D01*
X116164877Y-89980269D01*
X116086969Y-90001144D01*
X116037578Y-90014378D01*
X115923459Y-90080265D01*
X115830265Y-90173459D01*
X115764378Y-90287578D01*
X115752157Y-90333190D01*
X115730269Y-90414877D01*
X112789228Y-90414877D01*
X112836392Y-90333186D01*
X112870500Y-90205892D01*
X112870500Y-90074108D01*
X112836392Y-89946814D01*
X112836390Y-89946811D01*
X112836390Y-89946809D01*
X112770503Y-89832690D01*
X112770501Y-89832688D01*
X112770500Y-89832686D01*
X112677314Y-89739500D01*
X112677311Y-89739498D01*
X112677309Y-89739496D01*
X112563189Y-89673609D01*
X112563191Y-89673609D01*
X112513799Y-89660375D01*
X112435892Y-89639500D01*
X112304108Y-89639500D01*
X112226200Y-89660375D01*
X112176809Y-89673609D01*
X112062690Y-89739496D01*
X111969496Y-89832690D01*
X111903609Y-89946809D01*
X111903608Y-89946814D01*
X111869500Y-90074108D01*
X110354313Y-90074108D01*
X110366392Y-90053186D01*
X110400500Y-89925892D01*
X110400500Y-89794108D01*
X110366392Y-89666814D01*
X110366390Y-89666811D01*
X110366390Y-89666809D01*
X110300503Y-89552690D01*
X110300501Y-89552688D01*
X110300500Y-89552686D01*
X110207314Y-89459500D01*
X110207311Y-89459498D01*
X110207309Y-89459496D01*
X110093189Y-89393609D01*
X110093191Y-89393609D01*
X110043799Y-89380375D01*
X109965892Y-89359500D01*
X109834108Y-89359500D01*
X109756200Y-89380375D01*
X109706809Y-89393609D01*
X109592690Y-89459496D01*
X109499496Y-89552690D01*
X109433609Y-89666809D01*
X109419996Y-89717615D01*
X109399500Y-89794108D01*
X100862338Y-89794108D01*
X100938831Y-89717615D01*
X100971716Y-89684729D01*
X100971716Y-89684728D01*
X100917559Y-89645380D01*
X100917553Y-89645376D01*
X100728215Y-89548904D01*
X100526122Y-89483241D01*
X100471822Y-89474640D01*
X100417306Y-89446862D01*
X100389529Y-89392345D01*
X100399101Y-89331913D01*
X100442366Y-89288649D01*
X100467993Y-89279762D01*
X100516420Y-89270130D01*
X100707598Y-89190941D01*
X100879655Y-89075977D01*
X101025977Y-88929655D01*
X101140941Y-88757598D01*
X101220130Y-88566420D01*
X101260500Y-88363465D01*
X101260500Y-88229343D01*
X104304265Y-88229343D01*
X104304265Y-88361127D01*
X104324298Y-88435892D01*
X104338374Y-88488425D01*
X104404261Y-88602544D01*
X104404263Y-88602546D01*
X104404265Y-88602549D01*
X104497451Y-88695735D01*
X104497453Y-88695736D01*
X104497455Y-88695738D01*
X104611575Y-88761625D01*
X104611573Y-88761625D01*
X104611577Y-88761626D01*
X104611579Y-88761627D01*
X104738873Y-88795735D01*
X104738875Y-88795735D01*
X104870655Y-88795735D01*
X104870657Y-88795735D01*
X104997951Y-88761627D01*
X104997953Y-88761625D01*
X104997955Y-88761625D01*
X105112074Y-88695738D01*
X105112074Y-88695737D01*
X105112079Y-88695735D01*
X105205265Y-88602549D01*
X105271157Y-88488421D01*
X105305265Y-88361127D01*
X105305265Y-88304108D01*
X111609500Y-88304108D01*
X111609500Y-88435892D01*
X111623575Y-88488421D01*
X111643609Y-88563190D01*
X111709496Y-88677309D01*
X111709498Y-88677311D01*
X111709500Y-88677314D01*
X111802686Y-88770500D01*
X111802688Y-88770501D01*
X111802690Y-88770503D01*
X111916810Y-88836390D01*
X111916808Y-88836390D01*
X111916812Y-88836391D01*
X111916814Y-88836392D01*
X112044108Y-88870500D01*
X112044110Y-88870500D01*
X112175890Y-88870500D01*
X112175892Y-88870500D01*
X112303186Y-88836392D01*
X112303188Y-88836390D01*
X112303190Y-88836390D01*
X112417309Y-88770503D01*
X112417309Y-88770502D01*
X112417314Y-88770500D01*
X112510500Y-88677314D01*
X112576392Y-88563186D01*
X112610500Y-88435892D01*
X112610500Y-88304108D01*
X112576392Y-88176814D01*
X112576390Y-88176811D01*
X112576390Y-88176809D01*
X112510503Y-88062690D01*
X112510501Y-88062688D01*
X112510500Y-88062686D01*
X112417314Y-87969500D01*
X112417311Y-87969498D01*
X112417309Y-87969496D01*
X112303189Y-87903609D01*
X112303191Y-87903609D01*
X112242375Y-87887314D01*
X112175892Y-87869500D01*
X112044108Y-87869500D01*
X111977625Y-87887314D01*
X111916809Y-87903609D01*
X111802690Y-87969496D01*
X111709496Y-88062690D01*
X111643609Y-88176809D01*
X111643608Y-88176814D01*
X111609500Y-88304108D01*
X105305265Y-88304108D01*
X105305265Y-88229343D01*
X105271157Y-88102049D01*
X105271155Y-88102046D01*
X105271155Y-88102044D01*
X105205268Y-87987925D01*
X105205266Y-87987923D01*
X105205265Y-87987921D01*
X105112079Y-87894735D01*
X105112076Y-87894733D01*
X105112074Y-87894731D01*
X104997954Y-87828844D01*
X104997956Y-87828844D01*
X104948564Y-87815610D01*
X104870657Y-87794735D01*
X104738873Y-87794735D01*
X104660965Y-87815610D01*
X104611574Y-87828844D01*
X104497455Y-87894731D01*
X104404261Y-87987925D01*
X104338374Y-88102044D01*
X104338373Y-88102049D01*
X104304265Y-88229343D01*
X101260500Y-88229343D01*
X101260500Y-88156535D01*
X101220130Y-87953580D01*
X101140941Y-87762402D01*
X101025977Y-87590345D01*
X100949740Y-87514108D01*
X107439500Y-87514108D01*
X107439500Y-87645892D01*
X107469579Y-87758151D01*
X107473609Y-87773190D01*
X107539496Y-87887309D01*
X107539498Y-87887311D01*
X107539500Y-87887314D01*
X107632686Y-87980500D01*
X107632688Y-87980501D01*
X107632690Y-87980503D01*
X107746810Y-88046390D01*
X107746808Y-88046390D01*
X107746812Y-88046391D01*
X107746814Y-88046392D01*
X107874108Y-88080500D01*
X107874110Y-88080500D01*
X108005890Y-88080500D01*
X108005892Y-88080500D01*
X108133186Y-88046392D01*
X108133188Y-88046390D01*
X108133190Y-88046390D01*
X108247309Y-87980503D01*
X108247309Y-87980502D01*
X108247314Y-87980500D01*
X108340500Y-87887314D01*
X108365362Y-87844252D01*
X108406390Y-87773190D01*
X108406390Y-87773188D01*
X108406392Y-87773186D01*
X108440500Y-87645892D01*
X108440500Y-87514108D01*
X108419064Y-87434108D01*
X113269500Y-87434108D01*
X113269500Y-87565892D01*
X113276053Y-87590348D01*
X113303609Y-87693190D01*
X113369496Y-87807309D01*
X113369498Y-87807311D01*
X113369500Y-87807314D01*
X113462686Y-87900500D01*
X113462688Y-87900501D01*
X113462690Y-87900503D01*
X113576810Y-87966390D01*
X113576808Y-87966390D01*
X113576812Y-87966391D01*
X113576814Y-87966392D01*
X113704108Y-88000500D01*
X113704110Y-88000500D01*
X113835890Y-88000500D01*
X113835892Y-88000500D01*
X113963186Y-87966392D01*
X113963188Y-87966390D01*
X113963190Y-87966390D01*
X114077309Y-87900503D01*
X114077309Y-87900502D01*
X114077314Y-87900500D01*
X114170500Y-87807314D01*
X114236392Y-87693186D01*
X114270500Y-87565892D01*
X114270500Y-87434108D01*
X114236392Y-87306814D01*
X114236390Y-87306811D01*
X114236390Y-87306809D01*
X114170503Y-87192690D01*
X114170501Y-87192688D01*
X114170500Y-87192686D01*
X114077314Y-87099500D01*
X114077311Y-87099498D01*
X114077309Y-87099496D01*
X113963189Y-87033609D01*
X113963186Y-87033608D01*
X113835892Y-86999500D01*
X113704108Y-86999500D01*
X113626200Y-87020375D01*
X113576809Y-87033609D01*
X113462690Y-87099496D01*
X113369496Y-87192690D01*
X113303609Y-87306809D01*
X113284539Y-87377978D01*
X113269500Y-87434108D01*
X108419064Y-87434108D01*
X108406392Y-87386814D01*
X108406390Y-87386811D01*
X108406390Y-87386809D01*
X108340503Y-87272690D01*
X108340501Y-87272688D01*
X108340500Y-87272686D01*
X108247314Y-87179500D01*
X108247311Y-87179498D01*
X108247309Y-87179496D01*
X108133189Y-87113609D01*
X108133191Y-87113609D01*
X108080519Y-87099496D01*
X108005892Y-87079500D01*
X107874108Y-87079500D01*
X107799481Y-87099496D01*
X107746809Y-87113609D01*
X107632690Y-87179496D01*
X107539496Y-87272690D01*
X107473609Y-87386809D01*
X107473134Y-87388582D01*
X107439500Y-87514108D01*
X100949740Y-87514108D01*
X100879655Y-87444023D01*
X100864818Y-87434109D01*
X100707597Y-87329058D01*
X100516418Y-87249869D01*
X100313467Y-87209500D01*
X100313465Y-87209500D01*
X100106535Y-87209500D01*
X100106532Y-87209500D01*
X99903581Y-87249869D01*
X99712402Y-87329058D01*
X99540348Y-87444020D01*
X99394020Y-87590348D01*
X99279058Y-87762402D01*
X99199869Y-87953581D01*
X99159500Y-88156532D01*
X99159500Y-88363467D01*
X99199869Y-88566418D01*
X99279058Y-88757597D01*
X99394020Y-88929651D01*
X99394023Y-88929655D01*
X99540345Y-89075977D01*
X99712402Y-89190941D01*
X99903580Y-89270130D01*
X99952003Y-89279762D01*
X100005386Y-89309657D01*
X100031003Y-89365221D01*
X100019067Y-89425231D01*
X99974138Y-89466765D01*
X99948177Y-89474640D01*
X99893877Y-89483241D01*
X99691784Y-89548904D01*
X99502446Y-89645376D01*
X99502442Y-89645378D01*
X99448282Y-89684728D01*
X100080591Y-90317037D01*
X100017007Y-90334075D01*
X99902993Y-90399901D01*
X99809901Y-90492993D01*
X99744075Y-90607007D01*
X99727037Y-90670591D01*
X99094728Y-90038282D01*
X99055378Y-90092442D01*
X99055376Y-90092446D01*
X98958904Y-90281784D01*
X98893240Y-90483878D01*
X98860000Y-90693749D01*
X97970500Y-90693749D01*
X97970500Y-86954108D01*
X121139500Y-86954108D01*
X121139500Y-87085892D01*
X121146927Y-87113609D01*
X121173609Y-87213190D01*
X121239496Y-87327309D01*
X121239498Y-87327311D01*
X121239500Y-87327314D01*
X121332686Y-87420500D01*
X121332688Y-87420501D01*
X121332690Y-87420503D01*
X121446810Y-87486390D01*
X121446808Y-87486390D01*
X121446812Y-87486391D01*
X121446814Y-87486392D01*
X121574108Y-87520500D01*
X121574110Y-87520500D01*
X121705890Y-87520500D01*
X121705892Y-87520500D01*
X121833186Y-87486392D01*
X121833188Y-87486390D01*
X121833190Y-87486390D01*
X121947309Y-87420503D01*
X121947309Y-87420502D01*
X121947314Y-87420500D01*
X122040500Y-87327314D01*
X122072040Y-87272686D01*
X122106390Y-87213190D01*
X122106390Y-87213188D01*
X122106392Y-87213186D01*
X122140500Y-87085892D01*
X122140500Y-86954108D01*
X122106392Y-86826814D01*
X122106390Y-86826811D01*
X122106390Y-86826809D01*
X122040503Y-86712690D01*
X122040501Y-86712688D01*
X122040500Y-86712686D01*
X121947314Y-86619500D01*
X121947311Y-86619498D01*
X121947309Y-86619496D01*
X121833189Y-86553609D01*
X121833191Y-86553609D01*
X121767393Y-86535979D01*
X121705892Y-86519500D01*
X121574108Y-86519500D01*
X121512607Y-86535979D01*
X121446809Y-86553609D01*
X121332690Y-86619496D01*
X121239496Y-86712690D01*
X121173609Y-86826809D01*
X121173608Y-86826814D01*
X121139500Y-86954108D01*
X97970500Y-86954108D01*
X97970500Y-85616532D01*
X99159500Y-85616532D01*
X99159500Y-85823467D01*
X99199869Y-86026418D01*
X99279058Y-86217597D01*
X99394020Y-86389651D01*
X99394023Y-86389655D01*
X99540345Y-86535977D01*
X99712402Y-86650941D01*
X99903580Y-86730130D01*
X100106535Y-86770500D01*
X100106536Y-86770500D01*
X100313464Y-86770500D01*
X100313465Y-86770500D01*
X100516420Y-86730130D01*
X100707598Y-86650941D01*
X100879655Y-86535977D01*
X101025977Y-86389655D01*
X101140941Y-86217598D01*
X101145339Y-86206981D01*
X109457288Y-86206981D01*
X109457288Y-86338765D01*
X109470923Y-86389651D01*
X109491397Y-86466063D01*
X109557284Y-86580182D01*
X109557286Y-86580184D01*
X109557288Y-86580187D01*
X109650474Y-86673373D01*
X109650476Y-86673374D01*
X109650478Y-86673376D01*
X109764598Y-86739263D01*
X109764596Y-86739263D01*
X109764600Y-86739264D01*
X109764602Y-86739265D01*
X109891896Y-86773373D01*
X109891898Y-86773373D01*
X110023678Y-86773373D01*
X110023680Y-86773373D01*
X110150974Y-86739265D01*
X110150976Y-86739263D01*
X110150978Y-86739263D01*
X110265097Y-86673376D01*
X110265097Y-86673375D01*
X110265102Y-86673373D01*
X110358288Y-86580187D01*
X110373633Y-86553609D01*
X110424178Y-86466063D01*
X110424178Y-86466061D01*
X110424180Y-86466059D01*
X110458288Y-86338765D01*
X110458288Y-86206981D01*
X110424180Y-86079687D01*
X110424178Y-86079684D01*
X110424178Y-86079682D01*
X110358291Y-85965563D01*
X110358289Y-85965561D01*
X110358288Y-85965559D01*
X110265102Y-85872373D01*
X110265099Y-85872371D01*
X110265097Y-85872369D01*
X110150977Y-85806482D01*
X110150979Y-85806482D01*
X110101587Y-85793248D01*
X110023680Y-85772373D01*
X109891896Y-85772373D01*
X109813988Y-85793248D01*
X109764597Y-85806482D01*
X109650478Y-85872369D01*
X109557284Y-85965563D01*
X109491397Y-86079682D01*
X109491396Y-86079687D01*
X109457288Y-86206981D01*
X101145339Y-86206981D01*
X101220130Y-86026420D01*
X101260500Y-85823465D01*
X101260500Y-85616535D01*
X101220130Y-85413580D01*
X101140941Y-85222402D01*
X101025977Y-85050345D01*
X100879655Y-84904023D01*
X100879651Y-84904020D01*
X100707597Y-84789058D01*
X100565848Y-84730344D01*
X100516420Y-84709870D01*
X100516418Y-84709869D01*
X100313467Y-84669500D01*
X100313465Y-84669500D01*
X100106535Y-84669500D01*
X100106532Y-84669500D01*
X99903581Y-84709869D01*
X99712402Y-84789058D01*
X99540348Y-84904020D01*
X99394020Y-85050348D01*
X99279058Y-85222402D01*
X99199869Y-85413581D01*
X99159500Y-85616532D01*
X97970500Y-85616532D01*
X97970500Y-84634108D01*
X104619500Y-84634108D01*
X104619500Y-84765892D01*
X104640458Y-84844108D01*
X104653609Y-84893190D01*
X104719496Y-85007309D01*
X104719498Y-85007311D01*
X104719500Y-85007314D01*
X104812686Y-85100500D01*
X104812688Y-85100501D01*
X104812690Y-85100503D01*
X104926810Y-85166390D01*
X104926808Y-85166390D01*
X104926812Y-85166391D01*
X104926814Y-85166392D01*
X105054108Y-85200500D01*
X105054110Y-85200500D01*
X105185890Y-85200500D01*
X105185892Y-85200500D01*
X105313186Y-85166392D01*
X105313188Y-85166390D01*
X105313190Y-85166390D01*
X105427309Y-85100503D01*
X105427309Y-85100502D01*
X105427314Y-85100500D01*
X105520500Y-85007314D01*
X105538643Y-84975890D01*
X105586390Y-84893190D01*
X105586390Y-84893188D01*
X105586392Y-84893186D01*
X105599542Y-84844108D01*
X112689500Y-84844108D01*
X112689500Y-84975892D01*
X112709450Y-85050348D01*
X112723609Y-85103190D01*
X112789496Y-85217309D01*
X112789498Y-85217311D01*
X112789500Y-85217314D01*
X112882686Y-85310500D01*
X112882688Y-85310501D01*
X112882690Y-85310503D01*
X112996810Y-85376390D01*
X112996808Y-85376390D01*
X112996812Y-85376391D01*
X112996814Y-85376392D01*
X113124108Y-85410500D01*
X113124110Y-85410500D01*
X113255890Y-85410500D01*
X113255892Y-85410500D01*
X113383186Y-85376392D01*
X113383188Y-85376390D01*
X113383190Y-85376390D01*
X113497309Y-85310503D01*
X113497309Y-85310502D01*
X113497314Y-85310500D01*
X113590500Y-85217314D01*
X113598286Y-85203828D01*
X113656390Y-85103190D01*
X113656390Y-85103188D01*
X113656392Y-85103186D01*
X113690500Y-84975892D01*
X113690500Y-84844108D01*
X113656392Y-84716814D01*
X113656390Y-84716811D01*
X113656390Y-84716809D01*
X113590503Y-84602690D01*
X113590501Y-84602688D01*
X113590500Y-84602686D01*
X113497314Y-84509500D01*
X113497311Y-84509498D01*
X113497309Y-84509496D01*
X113383189Y-84443609D01*
X113383191Y-84443609D01*
X113333799Y-84430375D01*
X113255892Y-84409500D01*
X113124108Y-84409500D01*
X113046200Y-84430375D01*
X112996809Y-84443609D01*
X112882690Y-84509496D01*
X112789496Y-84602690D01*
X112723609Y-84716809D01*
X112718762Y-84734899D01*
X112689500Y-84844108D01*
X105599542Y-84844108D01*
X105620500Y-84765892D01*
X105620500Y-84634108D01*
X105586392Y-84506814D01*
X105586390Y-84506811D01*
X105586390Y-84506809D01*
X105520503Y-84392690D01*
X105520501Y-84392688D01*
X105520500Y-84392686D01*
X105427314Y-84299500D01*
X105427311Y-84299498D01*
X105427309Y-84299496D01*
X105313189Y-84233609D01*
X105313191Y-84233609D01*
X105263799Y-84220375D01*
X105185892Y-84199500D01*
X105054108Y-84199500D01*
X104976200Y-84220375D01*
X104926809Y-84233609D01*
X104812690Y-84299496D01*
X104719496Y-84392690D01*
X104653609Y-84506809D01*
X104653608Y-84506814D01*
X104619500Y-84634108D01*
X97970500Y-84634108D01*
X97970500Y-83076532D01*
X99159500Y-83076532D01*
X99159500Y-83283467D01*
X99199869Y-83486418D01*
X99279058Y-83677597D01*
X99394020Y-83849651D01*
X99394023Y-83849655D01*
X99540345Y-83995977D01*
X99712402Y-84110941D01*
X99903580Y-84190130D01*
X100106535Y-84230500D01*
X100106536Y-84230500D01*
X100313464Y-84230500D01*
X100313465Y-84230500D01*
X100516420Y-84190130D01*
X100707598Y-84110941D01*
X100879655Y-83995977D01*
X101025977Y-83849655D01*
X101069774Y-83784108D01*
X113908665Y-83784108D01*
X113908665Y-83915892D01*
X113909328Y-83918366D01*
X113942774Y-84043190D01*
X114008661Y-84157309D01*
X114008663Y-84157311D01*
X114008665Y-84157314D01*
X114101851Y-84250500D01*
X114101853Y-84250501D01*
X114101855Y-84250503D01*
X114215975Y-84316390D01*
X114215973Y-84316390D01*
X114215977Y-84316391D01*
X114215979Y-84316392D01*
X114343273Y-84350500D01*
X114343275Y-84350500D01*
X114475055Y-84350500D01*
X114475057Y-84350500D01*
X114602351Y-84316392D01*
X114602353Y-84316390D01*
X114602355Y-84316390D01*
X114716470Y-84250505D01*
X114716468Y-84250505D01*
X114716479Y-84250500D01*
X114716487Y-84250491D01*
X114717980Y-84249347D01*
X114719267Y-84248891D01*
X114722099Y-84247256D01*
X114722401Y-84247780D01*
X114775654Y-84228915D01*
X114834322Y-84246285D01*
X114871575Y-84294822D01*
X114873885Y-84302258D01*
X114903609Y-84413190D01*
X114969496Y-84527309D01*
X114969498Y-84527311D01*
X114969500Y-84527314D01*
X115057583Y-84615397D01*
X115085359Y-84669912D01*
X115075788Y-84730344D01*
X115073315Y-84734899D01*
X115025653Y-84817450D01*
X115015353Y-84855892D01*
X114991545Y-84944746D01*
X114991545Y-85076530D01*
X115015623Y-85166390D01*
X115025654Y-85203828D01*
X115091541Y-85317947D01*
X115091543Y-85317949D01*
X115091545Y-85317952D01*
X115184731Y-85411138D01*
X115184733Y-85411139D01*
X115184735Y-85411141D01*
X115298855Y-85477028D01*
X115298853Y-85477028D01*
X115298857Y-85477029D01*
X115298859Y-85477030D01*
X115426153Y-85511138D01*
X115426155Y-85511138D01*
X115557935Y-85511138D01*
X115557937Y-85511138D01*
X115584174Y-85504108D01*
X119449500Y-85504108D01*
X119449500Y-85635892D01*
X119469736Y-85711413D01*
X119483609Y-85763190D01*
X119549496Y-85877309D01*
X119549498Y-85877311D01*
X119549500Y-85877314D01*
X119642686Y-85970500D01*
X119745884Y-86030082D01*
X119786824Y-86075550D01*
X119793220Y-86136400D01*
X119792013Y-86141423D01*
X119764500Y-86244108D01*
X119764500Y-86375892D01*
X119777410Y-86424073D01*
X119798609Y-86503190D01*
X119864496Y-86617309D01*
X119864498Y-86617311D01*
X119864500Y-86617314D01*
X119957686Y-86710500D01*
X119957688Y-86710501D01*
X119957690Y-86710503D01*
X120071810Y-86776390D01*
X120071808Y-86776390D01*
X120071812Y-86776391D01*
X120071814Y-86776392D01*
X120199108Y-86810500D01*
X120199110Y-86810500D01*
X120330890Y-86810500D01*
X120330892Y-86810500D01*
X120458186Y-86776392D01*
X120458188Y-86776390D01*
X120458190Y-86776390D01*
X120572309Y-86710503D01*
X120572309Y-86710502D01*
X120572314Y-86710500D01*
X120665500Y-86617314D01*
X120665503Y-86617309D01*
X120731390Y-86503190D01*
X120731390Y-86503188D01*
X120731392Y-86503186D01*
X120752590Y-86424073D01*
X122400000Y-86424073D01*
X122400000Y-86675926D01*
X122439395Y-86924663D01*
X122517221Y-87164187D01*
X122631556Y-87388582D01*
X122631558Y-87388586D01*
X122705746Y-87490697D01*
X123476211Y-86720231D01*
X123487482Y-86762292D01*
X123559890Y-86887708D01*
X123662292Y-86990110D01*
X123787708Y-87062518D01*
X123829765Y-87073787D01*
X123059301Y-87844252D01*
X123161415Y-87918442D01*
X123164497Y-87920331D01*
X123204230Y-87966861D01*
X123209024Y-88027858D01*
X123177050Y-88080024D01*
X123170955Y-88084829D01*
X123152785Y-88098030D01*
X123008029Y-88242786D01*
X122887714Y-88408386D01*
X122887712Y-88408390D01*
X122794780Y-88590780D01*
X122731521Y-88785470D01*
X122699500Y-88987644D01*
X122699500Y-89192355D01*
X122731521Y-89394529D01*
X122794780Y-89589219D01*
X122887712Y-89771609D01*
X122887714Y-89771613D01*
X123008029Y-89937213D01*
X123008031Y-89937215D01*
X123008034Y-89937219D01*
X123152781Y-90081966D01*
X123170952Y-90095168D01*
X123206917Y-90144665D01*
X123206919Y-90205850D01*
X123170957Y-90255352D01*
X123164508Y-90259662D01*
X123161419Y-90261555D01*
X123059301Y-90335746D01*
X123829767Y-91106212D01*
X123787708Y-91117482D01*
X123662292Y-91189890D01*
X123559890Y-91292292D01*
X123487482Y-91417708D01*
X123476212Y-91459767D01*
X122705746Y-90689301D01*
X122631556Y-90791418D01*
X122517221Y-91015812D01*
X122439395Y-91255336D01*
X122400000Y-91504073D01*
X122400000Y-91755926D01*
X122439395Y-92004663D01*
X122517221Y-92244187D01*
X122631556Y-92468582D01*
X122631558Y-92468586D01*
X122705746Y-92570697D01*
X123476211Y-91800231D01*
X123487482Y-91842292D01*
X123559890Y-91967708D01*
X123662292Y-92070110D01*
X123787708Y-92142518D01*
X123829765Y-92153787D01*
X123059301Y-92924252D01*
X123161415Y-92998442D01*
X123164497Y-93000331D01*
X123204230Y-93046861D01*
X123209024Y-93107858D01*
X123177050Y-93160024D01*
X123170955Y-93164829D01*
X123152785Y-93178030D01*
X123008029Y-93322786D01*
X122887714Y-93488386D01*
X122887712Y-93488390D01*
X122794780Y-93670780D01*
X122731521Y-93865470D01*
X122699500Y-94067644D01*
X122699500Y-94272355D01*
X122731521Y-94474529D01*
X122794780Y-94669219D01*
X122887712Y-94851609D01*
X122887714Y-94851613D01*
X123008029Y-95017213D01*
X123008031Y-95017215D01*
X123008034Y-95017219D01*
X123152781Y-95161966D01*
X123170952Y-95175168D01*
X123206917Y-95224665D01*
X123206919Y-95285850D01*
X123170957Y-95335352D01*
X123164508Y-95339662D01*
X123161419Y-95341555D01*
X123059301Y-95415746D01*
X123829767Y-96186212D01*
X123787708Y-96197482D01*
X123662292Y-96269890D01*
X123559890Y-96372292D01*
X123487482Y-96497708D01*
X123476212Y-96539767D01*
X122705746Y-95769301D01*
X122631556Y-95871418D01*
X122517221Y-96095812D01*
X122439395Y-96335336D01*
X122400000Y-96584073D01*
X122400000Y-96835926D01*
X122439395Y-97084663D01*
X122517221Y-97324187D01*
X122631556Y-97548582D01*
X122631558Y-97548586D01*
X122705746Y-97650697D01*
X123476211Y-96880231D01*
X123487482Y-96922292D01*
X123559890Y-97047708D01*
X123662292Y-97150110D01*
X123787708Y-97222518D01*
X123829765Y-97233787D01*
X123059301Y-98004252D01*
X123161415Y-98078442D01*
X123164497Y-98080331D01*
X123204230Y-98126861D01*
X123209024Y-98187858D01*
X123177050Y-98240024D01*
X123170955Y-98244829D01*
X123152785Y-98258030D01*
X123008029Y-98402786D01*
X122887714Y-98568386D01*
X122887712Y-98568390D01*
X122794780Y-98750780D01*
X122731521Y-98945470D01*
X122699500Y-99147644D01*
X122699500Y-99352355D01*
X122731521Y-99554529D01*
X122794780Y-99749219D01*
X122887712Y-99931609D01*
X122887714Y-99931613D01*
X123008029Y-100097213D01*
X123008031Y-100097215D01*
X123008034Y-100097219D01*
X123152781Y-100241966D01*
X123152784Y-100241968D01*
X123152786Y-100241970D01*
X123318386Y-100362285D01*
X123318390Y-100362287D01*
X123454797Y-100431790D01*
X123498062Y-100475055D01*
X123507633Y-100535487D01*
X123479856Y-100590004D01*
X123454797Y-100608210D01*
X123318390Y-100677712D01*
X123318386Y-100677714D01*
X123152786Y-100798029D01*
X123008029Y-100942786D01*
X122887714Y-101108386D01*
X122887712Y-101108390D01*
X122794780Y-101290780D01*
X122731521Y-101485470D01*
X122699500Y-101687644D01*
X122699500Y-101892355D01*
X122731521Y-102094529D01*
X122794780Y-102289219D01*
X122887712Y-102471609D01*
X122887714Y-102471613D01*
X123008029Y-102637213D01*
X123008031Y-102637215D01*
X123008034Y-102637219D01*
X123152781Y-102781966D01*
X123152784Y-102781968D01*
X123152786Y-102781970D01*
X123246983Y-102850407D01*
X123282947Y-102899907D01*
X123282948Y-102961092D01*
X123246984Y-103010592D01*
X123188794Y-103029500D01*
X123095732Y-103029500D01*
X123065303Y-103032353D01*
X122937113Y-103077208D01*
X122827854Y-103157845D01*
X122827845Y-103157854D01*
X122747207Y-103267115D01*
X122702355Y-103395295D01*
X122702353Y-103395304D01*
X122699500Y-103425724D01*
X122699500Y-105234267D01*
X122702353Y-105264696D01*
X122702353Y-105264698D01*
X122702354Y-105264700D01*
X122742243Y-105378697D01*
X122747208Y-105392886D01*
X122827845Y-105502145D01*
X122827854Y-105502154D01*
X122937115Y-105582792D01*
X122937116Y-105582792D01*
X122937117Y-105582793D01*
X123065300Y-105627646D01*
X123095733Y-105630500D01*
X124904266Y-105630499D01*
X124904267Y-105630499D01*
X124910352Y-105629928D01*
X124934700Y-105627646D01*
X125062883Y-105582793D01*
X125062886Y-105582791D01*
X125172145Y-105502154D01*
X125172146Y-105502152D01*
X125172150Y-105502150D01*
X125252793Y-105392883D01*
X125297646Y-105264700D01*
X125300500Y-105234267D01*
X125300499Y-103425734D01*
X125297646Y-103395300D01*
X125252793Y-103267117D01*
X125252791Y-103267115D01*
X125252791Y-103267113D01*
X125172154Y-103157854D01*
X125172145Y-103157845D01*
X125062884Y-103077207D01*
X124934704Y-103032355D01*
X124934695Y-103032353D01*
X124904275Y-103029500D01*
X124904267Y-103029500D01*
X124811208Y-103029500D01*
X124753017Y-103010593D01*
X124717053Y-102961093D01*
X124717053Y-102899907D01*
X124753017Y-102850407D01*
X124753018Y-102850407D01*
X124847213Y-102781970D01*
X124847219Y-102781966D01*
X124991966Y-102637219D01*
X125112287Y-102471610D01*
X125205220Y-102289219D01*
X125268477Y-102094534D01*
X125268478Y-102094529D01*
X125300500Y-101892355D01*
X125300500Y-101687644D01*
X125268478Y-101485470D01*
X125227548Y-101359500D01*
X125205220Y-101290781D01*
X125112287Y-101108390D01*
X125112285Y-101108386D01*
X124991970Y-100942786D01*
X124991968Y-100942784D01*
X124991966Y-100942781D01*
X124847219Y-100798034D01*
X124847215Y-100798031D01*
X124847213Y-100798029D01*
X124681613Y-100677714D01*
X124681609Y-100677712D01*
X124610847Y-100641657D01*
X124545201Y-100608209D01*
X124501937Y-100564945D01*
X124492366Y-100504513D01*
X124520143Y-100449997D01*
X124545199Y-100431791D01*
X124681610Y-100362287D01*
X124847219Y-100241966D01*
X124991966Y-100097219D01*
X125094282Y-99956392D01*
X125112285Y-99931613D01*
X125112287Y-99931610D01*
X125205220Y-99749219D01*
X125268477Y-99554534D01*
X125268478Y-99554529D01*
X125300500Y-99352355D01*
X125300500Y-99147644D01*
X125268478Y-98945470D01*
X125267575Y-98942690D01*
X125205220Y-98750781D01*
X125112287Y-98568390D01*
X125112285Y-98568386D01*
X124991970Y-98402786D01*
X124991968Y-98402784D01*
X124991966Y-98402781D01*
X124847219Y-98258034D01*
X124847215Y-98258031D01*
X124847213Y-98258029D01*
X124829047Y-98244831D01*
X124793083Y-98195331D01*
X124793082Y-98134146D01*
X124829046Y-98084646D01*
X124835508Y-98080328D01*
X124838574Y-98078448D01*
X124940696Y-98004251D01*
X124170232Y-97233787D01*
X124212292Y-97222518D01*
X124337708Y-97150110D01*
X124440110Y-97047708D01*
X124512518Y-96922292D01*
X124523787Y-96880232D01*
X125294251Y-97650696D01*
X125368444Y-97548580D01*
X125482778Y-97324187D01*
X125560604Y-97084663D01*
X125600000Y-96835926D01*
X125600000Y-96584073D01*
X125560604Y-96335336D01*
X125482778Y-96095812D01*
X125368443Y-95871417D01*
X125368441Y-95871413D01*
X125294252Y-95769301D01*
X124523787Y-96539765D01*
X124512518Y-96497708D01*
X124440110Y-96372292D01*
X124337708Y-96269890D01*
X124212292Y-96197482D01*
X124170231Y-96186211D01*
X124940697Y-95415746D01*
X124838583Y-95341556D01*
X124835503Y-95339669D01*
X124795769Y-95293141D01*
X124790973Y-95232143D01*
X124822946Y-95179976D01*
X124829026Y-95175183D01*
X124847219Y-95161966D01*
X124991966Y-95017219D01*
X125112287Y-94851610D01*
X125205220Y-94669219D01*
X125268477Y-94474534D01*
X125269621Y-94467314D01*
X125300500Y-94272355D01*
X125300500Y-94067644D01*
X125268478Y-93865470D01*
X125264326Y-93852690D01*
X125205220Y-93670781D01*
X125112287Y-93488390D01*
X125112285Y-93488386D01*
X124991970Y-93322786D01*
X124991968Y-93322784D01*
X124991966Y-93322781D01*
X124847219Y-93178034D01*
X124847215Y-93178031D01*
X124847213Y-93178029D01*
X124829047Y-93164831D01*
X124793083Y-93115331D01*
X124793082Y-93054146D01*
X124829046Y-93004646D01*
X124835508Y-93000328D01*
X124838574Y-92998448D01*
X124940696Y-92924251D01*
X124170232Y-92153787D01*
X124212292Y-92142518D01*
X124337708Y-92070110D01*
X124440110Y-91967708D01*
X124512518Y-91842292D01*
X124523787Y-91800232D01*
X125294251Y-92570696D01*
X125368444Y-92468580D01*
X125482778Y-92244187D01*
X125560604Y-92004663D01*
X125600000Y-91755926D01*
X125600000Y-91504073D01*
X125560604Y-91255336D01*
X125482778Y-91015812D01*
X125368443Y-90791417D01*
X125368441Y-90791413D01*
X125294252Y-90689301D01*
X124523787Y-91459765D01*
X124512518Y-91417708D01*
X124440110Y-91292292D01*
X124337708Y-91189890D01*
X124212292Y-91117482D01*
X124170231Y-91106211D01*
X124940697Y-90335746D01*
X124838583Y-90261556D01*
X124835503Y-90259669D01*
X124795769Y-90213141D01*
X124790973Y-90152143D01*
X124822946Y-90099976D01*
X124829026Y-90095183D01*
X124847219Y-90081966D01*
X124991966Y-89937219D01*
X125112287Y-89771610D01*
X125205220Y-89589219D01*
X125268477Y-89394534D01*
X125274026Y-89359500D01*
X125300500Y-89192355D01*
X125300500Y-88987644D01*
X125268478Y-88785470D01*
X125260731Y-88761627D01*
X125205220Y-88590781D01*
X125112287Y-88408390D01*
X125112285Y-88408386D01*
X124991970Y-88242786D01*
X124991968Y-88242784D01*
X124991966Y-88242781D01*
X124847219Y-88098034D01*
X124847215Y-88098031D01*
X124847213Y-88098029D01*
X124829047Y-88084831D01*
X124793083Y-88035331D01*
X124793082Y-87974146D01*
X124829046Y-87924646D01*
X124835508Y-87920328D01*
X124838574Y-87918448D01*
X124940696Y-87844251D01*
X124170232Y-87073787D01*
X124212292Y-87062518D01*
X124337708Y-86990110D01*
X124440110Y-86887708D01*
X124512518Y-86762292D01*
X124523787Y-86720232D01*
X125294251Y-87490696D01*
X125368444Y-87388580D01*
X125482778Y-87164187D01*
X125560604Y-86924663D01*
X125600000Y-86675926D01*
X125600000Y-86424073D01*
X125560604Y-86175336D01*
X125482778Y-85935812D01*
X125368443Y-85711417D01*
X125368441Y-85711413D01*
X125294252Y-85609301D01*
X124523787Y-86379765D01*
X124512518Y-86337708D01*
X124440110Y-86212292D01*
X124337708Y-86109890D01*
X124212292Y-86037482D01*
X124170231Y-86026211D01*
X124940697Y-85255746D01*
X124838586Y-85181558D01*
X124838582Y-85181556D01*
X124614187Y-85067221D01*
X124374663Y-84989395D01*
X124125926Y-84950000D01*
X123874074Y-84950000D01*
X123625336Y-84989395D01*
X123385812Y-85067221D01*
X123161418Y-85181556D01*
X123059301Y-85255746D01*
X123829767Y-86026212D01*
X123787708Y-86037482D01*
X123662292Y-86109890D01*
X123559890Y-86212292D01*
X123487482Y-86337708D01*
X123476212Y-86379767D01*
X122705746Y-85609301D01*
X122631556Y-85711418D01*
X122517221Y-85935812D01*
X122439395Y-86175336D01*
X122400000Y-86424073D01*
X120752590Y-86424073D01*
X120765500Y-86375892D01*
X120765500Y-86244108D01*
X120731392Y-86116814D01*
X120731390Y-86116811D01*
X120731390Y-86116809D01*
X120665503Y-86002690D01*
X120665501Y-86002688D01*
X120665500Y-86002686D01*
X120572314Y-85909500D01*
X120572311Y-85909498D01*
X120572309Y-85909496D01*
X120469117Y-85849918D01*
X120428176Y-85804449D01*
X120421780Y-85743598D01*
X120422983Y-85738584D01*
X120450500Y-85635892D01*
X120450500Y-85504108D01*
X120416392Y-85376814D01*
X120416391Y-85376812D01*
X120414712Y-85370546D01*
X120416347Y-85370107D01*
X120413020Y-85364344D01*
X120415311Y-85342544D01*
X120413581Y-85320698D01*
X120418442Y-85312756D01*
X120419416Y-85303493D01*
X120434082Y-85287204D01*
X120445524Y-85268513D01*
X120460358Y-85258024D01*
X120463183Y-85256392D01*
X120463186Y-85256392D01*
X120577314Y-85190500D01*
X120670500Y-85097314D01*
X120732773Y-84989454D01*
X120736390Y-84983190D01*
X120736390Y-84983188D01*
X120736392Y-84983186D01*
X120770500Y-84855892D01*
X120770500Y-84724108D01*
X120736392Y-84596814D01*
X120736390Y-84596811D01*
X120736390Y-84596809D01*
X120670503Y-84482690D01*
X120670501Y-84482688D01*
X120670500Y-84482686D01*
X120577314Y-84389500D01*
X120577311Y-84389498D01*
X120577309Y-84389496D01*
X120463189Y-84323609D01*
X120463191Y-84323609D01*
X120413799Y-84310375D01*
X120335892Y-84289500D01*
X120204108Y-84289500D01*
X120126200Y-84310375D01*
X120076809Y-84323609D01*
X119962690Y-84389496D01*
X119869496Y-84482690D01*
X119803609Y-84596809D01*
X119793615Y-84634108D01*
X119769500Y-84724108D01*
X119769500Y-84855892D01*
X119803608Y-84983186D01*
X119803608Y-84983187D01*
X119805288Y-84989454D01*
X119802536Y-84990191D01*
X119806408Y-85039342D01*
X119774443Y-85091514D01*
X119759642Y-85101974D01*
X119642690Y-85169496D01*
X119549496Y-85262690D01*
X119483609Y-85376809D01*
X119483608Y-85376814D01*
X119449500Y-85504108D01*
X115584174Y-85504108D01*
X115685231Y-85477030D01*
X115685233Y-85477028D01*
X115685235Y-85477028D01*
X115798060Y-85411888D01*
X115798069Y-85411883D01*
X115798362Y-85411713D01*
X115799359Y-85411138D01*
X115892545Y-85317952D01*
X115896846Y-85310503D01*
X115958435Y-85203828D01*
X115958435Y-85203826D01*
X115958437Y-85203824D01*
X115992545Y-85076530D01*
X115992545Y-84944746D01*
X115958437Y-84817452D01*
X115958435Y-84817449D01*
X115958435Y-84817447D01*
X115892548Y-84703328D01*
X115892546Y-84703326D01*
X115892545Y-84703324D01*
X115804460Y-84615239D01*
X115776685Y-84560725D01*
X115786256Y-84500293D01*
X115788713Y-84495767D01*
X115836392Y-84413186D01*
X115870500Y-84285892D01*
X115870500Y-84159788D01*
X116695206Y-84159788D01*
X116695206Y-84291572D01*
X116722299Y-84392686D01*
X116729315Y-84418870D01*
X116795202Y-84532989D01*
X116795204Y-84532991D01*
X116795206Y-84532994D01*
X116888392Y-84626180D01*
X116888394Y-84626181D01*
X116888396Y-84626183D01*
X117002516Y-84692070D01*
X117002514Y-84692070D01*
X117002518Y-84692071D01*
X117002520Y-84692072D01*
X117129814Y-84726180D01*
X117129816Y-84726180D01*
X117261596Y-84726180D01*
X117261598Y-84726180D01*
X117388892Y-84692072D01*
X117388894Y-84692070D01*
X117388896Y-84692070D01*
X117503015Y-84626183D01*
X117503015Y-84626182D01*
X117503020Y-84626180D01*
X117596206Y-84532994D01*
X117615086Y-84500293D01*
X117662096Y-84418870D01*
X117662096Y-84418868D01*
X117662098Y-84418866D01*
X117696206Y-84291572D01*
X117696206Y-84159788D01*
X117662098Y-84032494D01*
X117662096Y-84032491D01*
X117662096Y-84032489D01*
X117596209Y-83918370D01*
X117596207Y-83918368D01*
X117596206Y-83918366D01*
X117503020Y-83825180D01*
X117503017Y-83825178D01*
X117503015Y-83825176D01*
X117388895Y-83759289D01*
X117388897Y-83759289D01*
X117339505Y-83746055D01*
X117261598Y-83725180D01*
X117129814Y-83725180D01*
X117051906Y-83746055D01*
X117002515Y-83759289D01*
X116888396Y-83825176D01*
X116795202Y-83918370D01*
X116729315Y-84032489D01*
X116729314Y-84032494D01*
X116695206Y-84159788D01*
X115870500Y-84159788D01*
X115870500Y-84154108D01*
X115836392Y-84026814D01*
X115836390Y-84026811D01*
X115836390Y-84026809D01*
X115770503Y-83912690D01*
X115770501Y-83912688D01*
X115770500Y-83912686D01*
X115677314Y-83819500D01*
X115677311Y-83819498D01*
X115677309Y-83819496D01*
X115563189Y-83753609D01*
X115563191Y-83753609D01*
X115513799Y-83740375D01*
X115435892Y-83719500D01*
X115304108Y-83719500D01*
X115226200Y-83740375D01*
X115176809Y-83753609D01*
X115062683Y-83819500D01*
X115061170Y-83820662D01*
X115059882Y-83821117D01*
X115057066Y-83822744D01*
X115056764Y-83822221D01*
X115003494Y-83841084D01*
X114944829Y-83823704D01*
X114907583Y-83775161D01*
X114905282Y-83767753D01*
X114875557Y-83656814D01*
X114875555Y-83656811D01*
X114875555Y-83656809D01*
X114809668Y-83542690D01*
X114809666Y-83542688D01*
X114809665Y-83542686D01*
X114716479Y-83449500D01*
X114716476Y-83449498D01*
X114716474Y-83449496D01*
X114619238Y-83393356D01*
X114619235Y-83393356D01*
X114602352Y-83383608D01*
X114559919Y-83372238D01*
X114475057Y-83349500D01*
X114343273Y-83349500D01*
X114265365Y-83370375D01*
X114215974Y-83383609D01*
X114101855Y-83449496D01*
X114008661Y-83542690D01*
X113942774Y-83656809D01*
X113925976Y-83719500D01*
X113908665Y-83784108D01*
X101069774Y-83784108D01*
X101140941Y-83677598D01*
X101220130Y-83486420D01*
X101254405Y-83314108D01*
X117639500Y-83314108D01*
X117639500Y-83445892D01*
X117665436Y-83542686D01*
X117673609Y-83573190D01*
X117739496Y-83687309D01*
X117739498Y-83687311D01*
X117739500Y-83687314D01*
X117832686Y-83780500D01*
X117832688Y-83780501D01*
X117832690Y-83780503D01*
X117946810Y-83846390D01*
X117946808Y-83846390D01*
X117946812Y-83846391D01*
X117946814Y-83846392D01*
X118074108Y-83880500D01*
X118074110Y-83880500D01*
X118205890Y-83880500D01*
X118205892Y-83880500D01*
X118333186Y-83846392D01*
X118333188Y-83846390D01*
X118333190Y-83846390D01*
X118447309Y-83780503D01*
X118447309Y-83780502D01*
X118447314Y-83780500D01*
X118540500Y-83687314D01*
X118606392Y-83573186D01*
X118640500Y-83445892D01*
X118640500Y-83314108D01*
X118606392Y-83186814D01*
X118606390Y-83186811D01*
X118606390Y-83186809D01*
X118540503Y-83072690D01*
X118540501Y-83072688D01*
X118540500Y-83072686D01*
X118447314Y-82979500D01*
X118447311Y-82979498D01*
X118447309Y-82979496D01*
X118333189Y-82913609D01*
X118333191Y-82913609D01*
X118283799Y-82900375D01*
X118205892Y-82879500D01*
X118074108Y-82879500D01*
X117996200Y-82900375D01*
X117946809Y-82913609D01*
X117832690Y-82979496D01*
X117739496Y-83072690D01*
X117673609Y-83186809D01*
X117673608Y-83186814D01*
X117639500Y-83314108D01*
X101254405Y-83314108D01*
X101260500Y-83283465D01*
X101260500Y-83076535D01*
X101220130Y-82873580D01*
X101140941Y-82682402D01*
X101074595Y-82583108D01*
X107734500Y-82583108D01*
X107734500Y-82714892D01*
X107759263Y-82807309D01*
X107768609Y-82842190D01*
X107834496Y-82956309D01*
X107834498Y-82956311D01*
X107834500Y-82956314D01*
X107927686Y-83049500D01*
X107927688Y-83049501D01*
X107927690Y-83049503D01*
X108041810Y-83115390D01*
X108041808Y-83115390D01*
X108041812Y-83115391D01*
X108041814Y-83115392D01*
X108169108Y-83149500D01*
X108169110Y-83149500D01*
X108300890Y-83149500D01*
X108300892Y-83149500D01*
X108428186Y-83115392D01*
X108428188Y-83115390D01*
X108428190Y-83115390D01*
X108542309Y-83049503D01*
X108542309Y-83049502D01*
X108542314Y-83049500D01*
X108635500Y-82956314D01*
X108660156Y-82913609D01*
X108701390Y-82842190D01*
X108701390Y-82842188D01*
X108701392Y-82842186D01*
X108735500Y-82714892D01*
X108735500Y-82583108D01*
X108701392Y-82455814D01*
X108688861Y-82434109D01*
X108688860Y-82434108D01*
X112169500Y-82434108D01*
X112169500Y-82565892D01*
X112187112Y-82631620D01*
X112203609Y-82693190D01*
X112269496Y-82807309D01*
X112269498Y-82807311D01*
X112269500Y-82807314D01*
X112362686Y-82900500D01*
X112362688Y-82900501D01*
X112362690Y-82900503D01*
X112476810Y-82966390D01*
X112476808Y-82966390D01*
X112476812Y-82966391D01*
X112476814Y-82966392D01*
X112604108Y-83000500D01*
X112604110Y-83000500D01*
X112735890Y-83000500D01*
X112735892Y-83000500D01*
X112863186Y-82966392D01*
X112863188Y-82966390D01*
X112863190Y-82966390D01*
X112977309Y-82900503D01*
X112977309Y-82900502D01*
X112977314Y-82900500D01*
X113070500Y-82807314D01*
X113136392Y-82693186D01*
X113170500Y-82565892D01*
X113170500Y-82434108D01*
X113136392Y-82306814D01*
X113136390Y-82306811D01*
X113136390Y-82306809D01*
X113070503Y-82192690D01*
X113070501Y-82192688D01*
X113070500Y-82192686D01*
X112977314Y-82099500D01*
X112977311Y-82099498D01*
X112977309Y-82099496D01*
X112863189Y-82033609D01*
X112863191Y-82033609D01*
X112813799Y-82020375D01*
X112735892Y-81999500D01*
X112604108Y-81999500D01*
X112526200Y-82020375D01*
X112476809Y-82033609D01*
X112362690Y-82099496D01*
X112269496Y-82192690D01*
X112203609Y-82306809D01*
X112203608Y-82306814D01*
X112169500Y-82434108D01*
X108688860Y-82434108D01*
X108635503Y-82341690D01*
X108635501Y-82341688D01*
X108635500Y-82341686D01*
X108542314Y-82248500D01*
X108542311Y-82248498D01*
X108542309Y-82248496D01*
X108428189Y-82182609D01*
X108428191Y-82182609D01*
X108378799Y-82169375D01*
X108300892Y-82148500D01*
X108169108Y-82148500D01*
X108091200Y-82169375D01*
X108041809Y-82182609D01*
X107927690Y-82248496D01*
X107834496Y-82341690D01*
X107768609Y-82455809D01*
X107768608Y-82455814D01*
X107734500Y-82583108D01*
X101074595Y-82583108D01*
X101025977Y-82510345D01*
X100879655Y-82364023D01*
X100879651Y-82364020D01*
X100707597Y-82249058D01*
X100516418Y-82169869D01*
X100313467Y-82129500D01*
X100313465Y-82129500D01*
X100106535Y-82129500D01*
X100106532Y-82129500D01*
X99903581Y-82169869D01*
X99712402Y-82249058D01*
X99540348Y-82364020D01*
X99394020Y-82510348D01*
X99279058Y-82682402D01*
X99199869Y-82873581D01*
X99159500Y-83076532D01*
X97970500Y-83076532D01*
X97970500Y-79770253D01*
X99159500Y-79770253D01*
X99159500Y-81509746D01*
X99159501Y-81509758D01*
X99171132Y-81568227D01*
X99171133Y-81568231D01*
X99215448Y-81634552D01*
X99281769Y-81678867D01*
X99326231Y-81687711D01*
X99340241Y-81690498D01*
X99340246Y-81690498D01*
X99340252Y-81690500D01*
X99340253Y-81690500D01*
X101079747Y-81690500D01*
X101079748Y-81690500D01*
X101138231Y-81678867D01*
X101204552Y-81634552D01*
X101248867Y-81568231D01*
X101260500Y-81509748D01*
X101260500Y-81004108D01*
X104729500Y-81004108D01*
X104729500Y-81135892D01*
X104738773Y-81170500D01*
X104763609Y-81263190D01*
X104829496Y-81377309D01*
X104829498Y-81377311D01*
X104829500Y-81377314D01*
X104922686Y-81470500D01*
X104922688Y-81470501D01*
X104922690Y-81470503D01*
X105036810Y-81536390D01*
X105036808Y-81536390D01*
X105036812Y-81536391D01*
X105036814Y-81536392D01*
X105164108Y-81570500D01*
X105164110Y-81570500D01*
X105295890Y-81570500D01*
X105295892Y-81570500D01*
X105423186Y-81536392D01*
X105423188Y-81536390D01*
X105423190Y-81536390D01*
X105537309Y-81470503D01*
X105537309Y-81470502D01*
X105537314Y-81470500D01*
X105630500Y-81377314D01*
X105638125Y-81364108D01*
X119369500Y-81364108D01*
X119369500Y-81495892D01*
X119380352Y-81536392D01*
X119403609Y-81623190D01*
X119469496Y-81737309D01*
X119469498Y-81737311D01*
X119469500Y-81737314D01*
X119562686Y-81830500D01*
X119562688Y-81830501D01*
X119562690Y-81830503D01*
X119676810Y-81896390D01*
X119676808Y-81896390D01*
X119676812Y-81896391D01*
X119676814Y-81896392D01*
X119804108Y-81930500D01*
X119804110Y-81930500D01*
X119935890Y-81930500D01*
X119935892Y-81930500D01*
X120063186Y-81896392D01*
X120063188Y-81896390D01*
X120063190Y-81896390D01*
X120177309Y-81830503D01*
X120177309Y-81830502D01*
X120177314Y-81830500D01*
X120270500Y-81737314D01*
X120297529Y-81690498D01*
X120336390Y-81623190D01*
X120336390Y-81623188D01*
X120336392Y-81623186D01*
X120370500Y-81495892D01*
X120370500Y-81364108D01*
X120336392Y-81236814D01*
X120336390Y-81236811D01*
X120336390Y-81236809D01*
X120270503Y-81122690D01*
X120270501Y-81122688D01*
X120270500Y-81122686D01*
X120177314Y-81029500D01*
X120177311Y-81029498D01*
X120177309Y-81029496D01*
X120063189Y-80963609D01*
X120063191Y-80963609D01*
X120013799Y-80950375D01*
X119935892Y-80929500D01*
X119804108Y-80929500D01*
X119726200Y-80950375D01*
X119676809Y-80963609D01*
X119562690Y-81029496D01*
X119469496Y-81122690D01*
X119403609Y-81236809D01*
X119394582Y-81270500D01*
X119369500Y-81364108D01*
X105638125Y-81364108D01*
X105696390Y-81263190D01*
X105696390Y-81263188D01*
X105696392Y-81263186D01*
X105730500Y-81135892D01*
X105730500Y-81004108D01*
X105696392Y-80876814D01*
X105696390Y-80876811D01*
X105696390Y-80876809D01*
X105630503Y-80762690D01*
X105630501Y-80762688D01*
X105630500Y-80762686D01*
X105537314Y-80669500D01*
X105537311Y-80669498D01*
X105537309Y-80669496D01*
X105432980Y-80609262D01*
X108186181Y-80609262D01*
X108186181Y-80741046D01*
X108207471Y-80820503D01*
X108220290Y-80868344D01*
X108286177Y-80982463D01*
X108286179Y-80982465D01*
X108286181Y-80982468D01*
X108379367Y-81075654D01*
X108379369Y-81075655D01*
X108379371Y-81075657D01*
X108493491Y-81141544D01*
X108493489Y-81141544D01*
X108493493Y-81141545D01*
X108493495Y-81141546D01*
X108620789Y-81175654D01*
X108620791Y-81175654D01*
X108752571Y-81175654D01*
X108752573Y-81175654D01*
X108879867Y-81141546D01*
X108879869Y-81141544D01*
X108879871Y-81141544D01*
X108993990Y-81075657D01*
X108993990Y-81075656D01*
X108993995Y-81075654D01*
X109087181Y-80982468D01*
X109087184Y-80982463D01*
X109153071Y-80868344D01*
X109153071Y-80868342D01*
X109153073Y-80868340D01*
X109187181Y-80741046D01*
X109187181Y-80704108D01*
X111249500Y-80704108D01*
X111249500Y-80835892D01*
X111274582Y-80929500D01*
X111283609Y-80963190D01*
X111349496Y-81077309D01*
X111349498Y-81077311D01*
X111349500Y-81077314D01*
X111442686Y-81170500D01*
X111442688Y-81170501D01*
X111442690Y-81170503D01*
X111556810Y-81236390D01*
X111556808Y-81236390D01*
X111556812Y-81236391D01*
X111556814Y-81236392D01*
X111684108Y-81270500D01*
X111684110Y-81270500D01*
X111815890Y-81270500D01*
X111815892Y-81270500D01*
X111943186Y-81236392D01*
X111943188Y-81236390D01*
X111943190Y-81236390D01*
X112057309Y-81170503D01*
X112057309Y-81170502D01*
X112057314Y-81170500D01*
X112150500Y-81077314D01*
X112151457Y-81075657D01*
X112216390Y-80963190D01*
X112216390Y-80963188D01*
X112216392Y-80963186D01*
X112250500Y-80835892D01*
X112250500Y-80704108D01*
X112216392Y-80576814D01*
X112205020Y-80557118D01*
X112205020Y-80557116D01*
X112180189Y-80514108D01*
X115409500Y-80514108D01*
X115409500Y-80645892D01*
X115431317Y-80727314D01*
X115443609Y-80773190D01*
X115509496Y-80887309D01*
X115509498Y-80887311D01*
X115509500Y-80887314D01*
X115602686Y-80980500D01*
X115602688Y-80980501D01*
X115602690Y-80980503D01*
X115716810Y-81046390D01*
X115716808Y-81046390D01*
X115716812Y-81046391D01*
X115716814Y-81046392D01*
X115844108Y-81080500D01*
X115844110Y-81080500D01*
X115975890Y-81080500D01*
X115975892Y-81080500D01*
X116103186Y-81046392D01*
X116103188Y-81046390D01*
X116103190Y-81046390D01*
X116217309Y-80980503D01*
X116217309Y-80980502D01*
X116217314Y-80980500D01*
X116310500Y-80887314D01*
X116320395Y-80870174D01*
X116365864Y-80829234D01*
X116426714Y-80822837D01*
X116479702Y-80853429D01*
X116491868Y-80870174D01*
X116559496Y-80987309D01*
X116559498Y-80987311D01*
X116559500Y-80987314D01*
X116652686Y-81080500D01*
X116652688Y-81080501D01*
X116652690Y-81080503D01*
X116766810Y-81146390D01*
X116766808Y-81146390D01*
X116766812Y-81146391D01*
X116766814Y-81146392D01*
X116894108Y-81180500D01*
X116894110Y-81180500D01*
X117025890Y-81180500D01*
X117025892Y-81180500D01*
X117153186Y-81146392D01*
X117153188Y-81146390D01*
X117153190Y-81146390D01*
X117267309Y-81080503D01*
X117267309Y-81080502D01*
X117267314Y-81080500D01*
X117360500Y-80987314D01*
X117418238Y-80887309D01*
X117426390Y-80873190D01*
X117426390Y-80873188D01*
X117426392Y-80873186D01*
X117460500Y-80745892D01*
X117460500Y-80614108D01*
X117426392Y-80486814D01*
X117426390Y-80486811D01*
X117426390Y-80486809D01*
X117374608Y-80397122D01*
X117374606Y-80397119D01*
X117360500Y-80372686D01*
X117341922Y-80354108D01*
X125609500Y-80354108D01*
X125609500Y-80485892D01*
X125633861Y-80576809D01*
X125643609Y-80613190D01*
X125709496Y-80727309D01*
X125709498Y-80727311D01*
X125709500Y-80727314D01*
X125802686Y-80820500D01*
X125802688Y-80820501D01*
X125802690Y-80820503D01*
X125916810Y-80886390D01*
X125916808Y-80886390D01*
X125916812Y-80886391D01*
X125916814Y-80886392D01*
X126044108Y-80920500D01*
X126044110Y-80920500D01*
X126175890Y-80920500D01*
X126175892Y-80920500D01*
X126303186Y-80886392D01*
X126303188Y-80886390D01*
X126303190Y-80886390D01*
X126417309Y-80820503D01*
X126417309Y-80820502D01*
X126417314Y-80820500D01*
X126510500Y-80727314D01*
X126510503Y-80727309D01*
X126576390Y-80613190D01*
X126576390Y-80613188D01*
X126576392Y-80613186D01*
X126610500Y-80485892D01*
X126610500Y-80354108D01*
X126576392Y-80226814D01*
X126576390Y-80226811D01*
X126576390Y-80226809D01*
X126510503Y-80112690D01*
X126510501Y-80112688D01*
X126510500Y-80112686D01*
X126417314Y-80019500D01*
X126417311Y-80019498D01*
X126417309Y-80019496D01*
X126303189Y-79953609D01*
X126303191Y-79953609D01*
X126249362Y-79939186D01*
X126175892Y-79919500D01*
X126044108Y-79919500D01*
X125970638Y-79939186D01*
X125916809Y-79953609D01*
X125802690Y-80019496D01*
X125709496Y-80112690D01*
X125643609Y-80226809D01*
X125630789Y-80274654D01*
X125609500Y-80354108D01*
X117341922Y-80354108D01*
X117267314Y-80279500D01*
X117267311Y-80279498D01*
X117267309Y-80279496D01*
X117153189Y-80213609D01*
X117153191Y-80213609D01*
X117103799Y-80200375D01*
X117025892Y-80179500D01*
X116894108Y-80179500D01*
X116816200Y-80200375D01*
X116766809Y-80213609D01*
X116652690Y-80279496D01*
X116559498Y-80372688D01*
X116549602Y-80389828D01*
X116504131Y-80430767D01*
X116443280Y-80437161D01*
X116390293Y-80406566D01*
X116378131Y-80389825D01*
X116310503Y-80272690D01*
X116310501Y-80272688D01*
X116310500Y-80272686D01*
X116217314Y-80179500D01*
X116217311Y-80179498D01*
X116217309Y-80179496D01*
X116103189Y-80113609D01*
X116103191Y-80113609D01*
X116053799Y-80100375D01*
X115975892Y-80079500D01*
X115844108Y-80079500D01*
X115766200Y-80100375D01*
X115716809Y-80113609D01*
X115602690Y-80179496D01*
X115509496Y-80272690D01*
X115443609Y-80386809D01*
X115431831Y-80430767D01*
X115409500Y-80514108D01*
X112180189Y-80514108D01*
X112150503Y-80462690D01*
X112150501Y-80462688D01*
X112150500Y-80462686D01*
X112057314Y-80369500D01*
X112057311Y-80369498D01*
X112057309Y-80369496D01*
X111943189Y-80303609D01*
X111943191Y-80303609D01*
X111893799Y-80290375D01*
X111815892Y-80269500D01*
X111684108Y-80269500D01*
X111606200Y-80290375D01*
X111556809Y-80303609D01*
X111442690Y-80369496D01*
X111349496Y-80462690D01*
X111283609Y-80576809D01*
X111274913Y-80609263D01*
X111249500Y-80704108D01*
X109187181Y-80704108D01*
X109187181Y-80609262D01*
X109153073Y-80481968D01*
X109153071Y-80481965D01*
X109153071Y-80481963D01*
X109087184Y-80367844D01*
X109087182Y-80367842D01*
X109087181Y-80367840D01*
X108993995Y-80274654D01*
X108993992Y-80274652D01*
X108993990Y-80274650D01*
X108879870Y-80208763D01*
X108879872Y-80208763D01*
X108830480Y-80195529D01*
X108752573Y-80174654D01*
X108620789Y-80174654D01*
X108542881Y-80195529D01*
X108493490Y-80208763D01*
X108379371Y-80274650D01*
X108286177Y-80367844D01*
X108220290Y-80481963D01*
X108211677Y-80514108D01*
X108186181Y-80609262D01*
X105432980Y-80609262D01*
X105423189Y-80603609D01*
X105423191Y-80603609D01*
X105373799Y-80590375D01*
X105295892Y-80569500D01*
X105164108Y-80569500D01*
X105086200Y-80590375D01*
X105036809Y-80603609D01*
X104922690Y-80669496D01*
X104829496Y-80762690D01*
X104763609Y-80876809D01*
X104751902Y-80920500D01*
X104729500Y-81004108D01*
X101260500Y-81004108D01*
X101260500Y-79770252D01*
X101249332Y-79714108D01*
X108989500Y-79714108D01*
X108989500Y-79845892D01*
X108995239Y-79867309D01*
X109023609Y-79973190D01*
X109089496Y-80087309D01*
X109089498Y-80087311D01*
X109089500Y-80087314D01*
X109182686Y-80180500D01*
X109182688Y-80180501D01*
X109182690Y-80180503D01*
X109296810Y-80246390D01*
X109296808Y-80246390D01*
X109296812Y-80246391D01*
X109296814Y-80246392D01*
X109424108Y-80280500D01*
X109424110Y-80280500D01*
X109555890Y-80280500D01*
X109555892Y-80280500D01*
X109683186Y-80246392D01*
X109683188Y-80246390D01*
X109683190Y-80246390D01*
X109797309Y-80180503D01*
X109797309Y-80180502D01*
X109797314Y-80180500D01*
X109890500Y-80087314D01*
X109890503Y-80087309D01*
X109956390Y-79973190D01*
X109956390Y-79973188D01*
X109956392Y-79973186D01*
X109990500Y-79845892D01*
X109990500Y-79714108D01*
X109956392Y-79586814D01*
X109902868Y-79494108D01*
X111628500Y-79494108D01*
X111628500Y-79625892D01*
X111653851Y-79720503D01*
X111662609Y-79753190D01*
X111728496Y-79867309D01*
X111728498Y-79867311D01*
X111728500Y-79867314D01*
X111821686Y-79960500D01*
X111821688Y-79960501D01*
X111821690Y-79960503D01*
X111935810Y-80026390D01*
X111935808Y-80026390D01*
X111935812Y-80026391D01*
X111935814Y-80026392D01*
X112063108Y-80060500D01*
X112063110Y-80060500D01*
X112194890Y-80060500D01*
X112194892Y-80060500D01*
X112322186Y-80026392D01*
X112322188Y-80026390D01*
X112322190Y-80026390D01*
X112436309Y-79960503D01*
X112436309Y-79960502D01*
X112436314Y-79960500D01*
X112529500Y-79867314D01*
X112561499Y-79811890D01*
X112595390Y-79753190D01*
X112595390Y-79753188D01*
X112595392Y-79753186D01*
X112614973Y-79680108D01*
X124329500Y-79680108D01*
X124329500Y-79811892D01*
X124344349Y-79867309D01*
X124363609Y-79939190D01*
X124429496Y-80053309D01*
X124429498Y-80053311D01*
X124429500Y-80053314D01*
X124522686Y-80146500D01*
X124522688Y-80146501D01*
X124522690Y-80146503D01*
X124636810Y-80212390D01*
X124636808Y-80212390D01*
X124636812Y-80212391D01*
X124636814Y-80212392D01*
X124764108Y-80246500D01*
X124764110Y-80246500D01*
X124895890Y-80246500D01*
X124895892Y-80246500D01*
X125023186Y-80212392D01*
X125023188Y-80212390D01*
X125023190Y-80212390D01*
X125137309Y-80146503D01*
X125137309Y-80146502D01*
X125137314Y-80146500D01*
X125230500Y-80053314D01*
X125230503Y-80053309D01*
X125296390Y-79939190D01*
X125296390Y-79939188D01*
X125296392Y-79939186D01*
X125330500Y-79811892D01*
X125330500Y-79680108D01*
X125296392Y-79552814D01*
X125296390Y-79552811D01*
X125296390Y-79552809D01*
X125230503Y-79438690D01*
X125230501Y-79438688D01*
X125230500Y-79438686D01*
X125137314Y-79345500D01*
X125137311Y-79345498D01*
X125137309Y-79345496D01*
X125023189Y-79279609D01*
X125023191Y-79279609D01*
X124973799Y-79266375D01*
X124895892Y-79245500D01*
X124764108Y-79245500D01*
X124686200Y-79266375D01*
X124636809Y-79279609D01*
X124522690Y-79345496D01*
X124429496Y-79438690D01*
X124363609Y-79552809D01*
X124354209Y-79587891D01*
X124329500Y-79680108D01*
X112614973Y-79680108D01*
X112629500Y-79625892D01*
X112629500Y-79494108D01*
X112595392Y-79366814D01*
X112595390Y-79366811D01*
X112595390Y-79366809D01*
X112529503Y-79252690D01*
X112529501Y-79252688D01*
X112529500Y-79252686D01*
X112436314Y-79159500D01*
X112436311Y-79159498D01*
X112436309Y-79159496D01*
X112340374Y-79104108D01*
X112799500Y-79104108D01*
X112799500Y-79235892D01*
X112811185Y-79279500D01*
X112833609Y-79363190D01*
X112899496Y-79477309D01*
X112899498Y-79477311D01*
X112899500Y-79477314D01*
X112992686Y-79570500D01*
X112992688Y-79570501D01*
X112992690Y-79570503D01*
X113106810Y-79636390D01*
X113106808Y-79636390D01*
X113106812Y-79636391D01*
X113106814Y-79636392D01*
X113234108Y-79670500D01*
X113234110Y-79670500D01*
X113365890Y-79670500D01*
X113365892Y-79670500D01*
X113493186Y-79636392D01*
X113493188Y-79636390D01*
X113493190Y-79636390D01*
X113577193Y-79587891D01*
X113577201Y-79587885D01*
X113607314Y-79570500D01*
X113700500Y-79477314D01*
X113703170Y-79472690D01*
X113766390Y-79363190D01*
X113766390Y-79363188D01*
X113766392Y-79363186D01*
X113800500Y-79235892D01*
X113800500Y-79104108D01*
X113766392Y-78976814D01*
X113766390Y-78976811D01*
X113766390Y-78976809D01*
X113700503Y-78862690D01*
X113700501Y-78862688D01*
X113700500Y-78862686D01*
X113607314Y-78769500D01*
X113607311Y-78769498D01*
X113607309Y-78769496D01*
X113493189Y-78703609D01*
X113493191Y-78703609D01*
X113443799Y-78690375D01*
X113365892Y-78669500D01*
X113234108Y-78669500D01*
X113156200Y-78690375D01*
X113106809Y-78703609D01*
X112992690Y-78769496D01*
X112899496Y-78862690D01*
X112833609Y-78976809D01*
X112826676Y-79002683D01*
X112799500Y-79104108D01*
X112340374Y-79104108D01*
X112322189Y-79093609D01*
X112322191Y-79093609D01*
X112272799Y-79080375D01*
X112194892Y-79059500D01*
X112063108Y-79059500D01*
X111985200Y-79080375D01*
X111935809Y-79093609D01*
X111821690Y-79159496D01*
X111728496Y-79252690D01*
X111662609Y-79366809D01*
X111657496Y-79385892D01*
X111628500Y-79494108D01*
X109902868Y-79494108D01*
X109890500Y-79472686D01*
X109797314Y-79379500D01*
X109797311Y-79379498D01*
X109797309Y-79379496D01*
X109683189Y-79313609D01*
X109683191Y-79313609D01*
X109633799Y-79300375D01*
X109555892Y-79279500D01*
X109424108Y-79279500D01*
X109346200Y-79300375D01*
X109296809Y-79313609D01*
X109182690Y-79379496D01*
X109089496Y-79472690D01*
X109023609Y-79586809D01*
X109012756Y-79627314D01*
X108989500Y-79714108D01*
X101249332Y-79714108D01*
X101248867Y-79711769D01*
X101204552Y-79645448D01*
X101204548Y-79645445D01*
X101138233Y-79601134D01*
X101138231Y-79601133D01*
X101138228Y-79601132D01*
X101138227Y-79601132D01*
X101079758Y-79589501D01*
X101079748Y-79589500D01*
X99340252Y-79589500D01*
X99340251Y-79589500D01*
X99340241Y-79589501D01*
X99281772Y-79601132D01*
X99281766Y-79601134D01*
X99215451Y-79645445D01*
X99215445Y-79645451D01*
X99171134Y-79711766D01*
X99171132Y-79711772D01*
X99159501Y-79770241D01*
X99159500Y-79770253D01*
X97970500Y-79770253D01*
X97970500Y-78285721D01*
X111628500Y-78285721D01*
X111628500Y-78417505D01*
X111658579Y-78529764D01*
X111662609Y-78544803D01*
X111728496Y-78658922D01*
X111728498Y-78658924D01*
X111728500Y-78658927D01*
X111821686Y-78752113D01*
X111821688Y-78752114D01*
X111821690Y-78752116D01*
X111935810Y-78818003D01*
X111935808Y-78818003D01*
X111935812Y-78818004D01*
X111935814Y-78818005D01*
X112063108Y-78852113D01*
X112063110Y-78852113D01*
X112194890Y-78852113D01*
X112194892Y-78852113D01*
X112322186Y-78818005D01*
X112322188Y-78818003D01*
X112322190Y-78818003D01*
X112436309Y-78752116D01*
X112436309Y-78752115D01*
X112436314Y-78752113D01*
X112529500Y-78658927D01*
X112595392Y-78544799D01*
X112629500Y-78417505D01*
X112629500Y-78285721D01*
X112595392Y-78158427D01*
X112595390Y-78158424D01*
X112595390Y-78158422D01*
X112529503Y-78044303D01*
X112529501Y-78044301D01*
X112529500Y-78044299D01*
X112436314Y-77951113D01*
X112436311Y-77951111D01*
X112436309Y-77951109D01*
X112322189Y-77885222D01*
X112322191Y-77885222D01*
X112272799Y-77871988D01*
X112194892Y-77851113D01*
X112063108Y-77851113D01*
X111985200Y-77871988D01*
X111935809Y-77885222D01*
X111821690Y-77951109D01*
X111728496Y-78044303D01*
X111662609Y-78158422D01*
X111649336Y-78207960D01*
X111628500Y-78285721D01*
X97970500Y-78285721D01*
X97970500Y-77704108D01*
X107079500Y-77704108D01*
X107079500Y-77835892D01*
X107092718Y-77885221D01*
X107113609Y-77963190D01*
X107179496Y-78077309D01*
X107179498Y-78077311D01*
X107179500Y-78077314D01*
X107272686Y-78170500D01*
X107272688Y-78170501D01*
X107272690Y-78170503D01*
X107386810Y-78236390D01*
X107386808Y-78236390D01*
X107386812Y-78236391D01*
X107386814Y-78236392D01*
X107514108Y-78270500D01*
X107514110Y-78270500D01*
X107645890Y-78270500D01*
X107645892Y-78270500D01*
X107773186Y-78236392D01*
X107773188Y-78236390D01*
X107773190Y-78236390D01*
X107847471Y-78193504D01*
X107847479Y-78193498D01*
X107887314Y-78170500D01*
X107980500Y-78077314D01*
X108046392Y-77963186D01*
X108080500Y-77835892D01*
X108080500Y-77704108D01*
X108046392Y-77576814D01*
X108046390Y-77576811D01*
X108046390Y-77576809D01*
X107980503Y-77462690D01*
X107980501Y-77462688D01*
X107980500Y-77462686D01*
X107887314Y-77369500D01*
X107887311Y-77369498D01*
X107887309Y-77369496D01*
X107773189Y-77303609D01*
X107773191Y-77303609D01*
X107723799Y-77290375D01*
X107645892Y-77269500D01*
X107514108Y-77269500D01*
X107436200Y-77290375D01*
X107386809Y-77303609D01*
X107272690Y-77369496D01*
X107179496Y-77462690D01*
X107113609Y-77576809D01*
X107100207Y-77626826D01*
X107079500Y-77704108D01*
X97970500Y-77704108D01*
X97970500Y-76834110D01*
X111711235Y-76834110D01*
X111711235Y-76965894D01*
X111737733Y-77064785D01*
X111745344Y-77093192D01*
X111811231Y-77207311D01*
X111811233Y-77207313D01*
X111811235Y-77207316D01*
X111904421Y-77300502D01*
X111904423Y-77300503D01*
X111904425Y-77300505D01*
X112018545Y-77366392D01*
X112018543Y-77366392D01*
X112018547Y-77366393D01*
X112018549Y-77366394D01*
X112145843Y-77400502D01*
X112145845Y-77400502D01*
X112277625Y-77400502D01*
X112277627Y-77400502D01*
X112404921Y-77366394D01*
X112404923Y-77366392D01*
X112404925Y-77366392D01*
X112519044Y-77300505D01*
X112519044Y-77300504D01*
X112519049Y-77300502D01*
X112612235Y-77207316D01*
X112612238Y-77207311D01*
X112678125Y-77093192D01*
X112678125Y-77093190D01*
X112678127Y-77093188D01*
X112712235Y-76965894D01*
X112712235Y-76834110D01*
X112678127Y-76706816D01*
X112678125Y-76706813D01*
X112678125Y-76706811D01*
X112612238Y-76592692D01*
X112612236Y-76592690D01*
X112612235Y-76592688D01*
X112519049Y-76499502D01*
X112519046Y-76499500D01*
X112519044Y-76499498D01*
X112404924Y-76433611D01*
X112404926Y-76433611D01*
X112355534Y-76420377D01*
X112277627Y-76399502D01*
X112145843Y-76399502D01*
X112067935Y-76420377D01*
X112018544Y-76433611D01*
X111904425Y-76499498D01*
X111811231Y-76592692D01*
X111745344Y-76706811D01*
X111744035Y-76711698D01*
X111711235Y-76834110D01*
X97970500Y-76834110D01*
X97970500Y-72834106D01*
X107999500Y-72834106D01*
X107999500Y-72965890D01*
X108007673Y-72996392D01*
X108033609Y-73093188D01*
X108099496Y-73207307D01*
X108099498Y-73207309D01*
X108099500Y-73207312D01*
X108192686Y-73300498D01*
X108192688Y-73300499D01*
X108192690Y-73300501D01*
X108306810Y-73366388D01*
X108306808Y-73366388D01*
X108306812Y-73366389D01*
X108306814Y-73366390D01*
X108434108Y-73400498D01*
X108434110Y-73400498D01*
X108565890Y-73400498D01*
X108565892Y-73400498D01*
X108693186Y-73366390D01*
X108693188Y-73366388D01*
X108693190Y-73366388D01*
X108807309Y-73300501D01*
X108807309Y-73300500D01*
X108807314Y-73300498D01*
X108900500Y-73207312D01*
X108933299Y-73150503D01*
X108966390Y-73093188D01*
X108966390Y-73093186D01*
X108966392Y-73093184D01*
X109000500Y-72965890D01*
X109000500Y-72834106D01*
X108966392Y-72706812D01*
X108966390Y-72706809D01*
X108966390Y-72706807D01*
X108900503Y-72592688D01*
X108900501Y-72592686D01*
X108900500Y-72592684D01*
X108807314Y-72499498D01*
X108807311Y-72499496D01*
X108807309Y-72499494D01*
X108779355Y-72483355D01*
X108693189Y-72433607D01*
X108693191Y-72433607D01*
X108615312Y-72412740D01*
X108583097Y-72404108D01*
X111628500Y-72404108D01*
X111628500Y-72535892D01*
X111644577Y-72595892D01*
X111662609Y-72663190D01*
X111728496Y-72777309D01*
X111728498Y-72777311D01*
X111728500Y-72777314D01*
X111821686Y-72870500D01*
X111821688Y-72870501D01*
X111821690Y-72870503D01*
X111935810Y-72936390D01*
X111935808Y-72936390D01*
X111935812Y-72936391D01*
X111935814Y-72936392D01*
X112063108Y-72970500D01*
X112063110Y-72970500D01*
X112194890Y-72970500D01*
X112194892Y-72970500D01*
X112322186Y-72936392D01*
X112322188Y-72936390D01*
X112322190Y-72936390D01*
X112436309Y-72870503D01*
X112436309Y-72870502D01*
X112436314Y-72870500D01*
X112529500Y-72777314D01*
X112566522Y-72713190D01*
X112595390Y-72663190D01*
X112595390Y-72663188D01*
X112595392Y-72663186D01*
X112629500Y-72535892D01*
X112629500Y-72404108D01*
X112595392Y-72276814D01*
X112595390Y-72276811D01*
X112595390Y-72276809D01*
X112529503Y-72162690D01*
X112529501Y-72162688D01*
X112529500Y-72162686D01*
X112436314Y-72069500D01*
X112436311Y-72069498D01*
X112436309Y-72069496D01*
X112322189Y-72003609D01*
X112322191Y-72003609D01*
X112272799Y-71990375D01*
X112194892Y-71969500D01*
X112063108Y-71969500D01*
X111985200Y-71990375D01*
X111935809Y-72003609D01*
X111821690Y-72069496D01*
X111728496Y-72162690D01*
X111662609Y-72276809D01*
X111646531Y-72336814D01*
X111628500Y-72404108D01*
X108583097Y-72404108D01*
X108565892Y-72399498D01*
X108434108Y-72399498D01*
X108384688Y-72412740D01*
X108306809Y-72433607D01*
X108192690Y-72499494D01*
X108099496Y-72592688D01*
X108033609Y-72706807D01*
X108024437Y-72741040D01*
X107999500Y-72834106D01*
X97970500Y-72834106D01*
X97970500Y-71633106D01*
X110229500Y-71633106D01*
X110229500Y-71764890D01*
X110259579Y-71877149D01*
X110263609Y-71892188D01*
X110329496Y-72006307D01*
X110329498Y-72006309D01*
X110329500Y-72006312D01*
X110422686Y-72099498D01*
X110422688Y-72099499D01*
X110422690Y-72099501D01*
X110536810Y-72165388D01*
X110536808Y-72165388D01*
X110536812Y-72165389D01*
X110536814Y-72165390D01*
X110664108Y-72199498D01*
X110664110Y-72199498D01*
X110795890Y-72199498D01*
X110795892Y-72199498D01*
X110923186Y-72165390D01*
X110923188Y-72165388D01*
X110923190Y-72165388D01*
X111037309Y-72099501D01*
X111037309Y-72099500D01*
X111037314Y-72099498D01*
X111130500Y-72006312D01*
X111132061Y-72003608D01*
X111196390Y-71892188D01*
X111196390Y-71892186D01*
X111196392Y-71892184D01*
X111230500Y-71764890D01*
X111230500Y-71633106D01*
X111196392Y-71505812D01*
X111196390Y-71505809D01*
X111196390Y-71505807D01*
X111130503Y-71391688D01*
X111130501Y-71391686D01*
X111130500Y-71391684D01*
X111037314Y-71298498D01*
X111037311Y-71298496D01*
X111037309Y-71298494D01*
X110923189Y-71232607D01*
X110923191Y-71232607D01*
X110873799Y-71219373D01*
X110795892Y-71198498D01*
X110664108Y-71198498D01*
X110586200Y-71219373D01*
X110536809Y-71232607D01*
X110422690Y-71298494D01*
X110329496Y-71391688D01*
X110263609Y-71505807D01*
X110244539Y-71576976D01*
X110229500Y-71633106D01*
X97970500Y-71633106D01*
X97970500Y-70994108D01*
X108359500Y-70994108D01*
X108359500Y-71125892D01*
X108378955Y-71198498D01*
X108393609Y-71253190D01*
X108459496Y-71367309D01*
X108459498Y-71367311D01*
X108459500Y-71367314D01*
X108552686Y-71460500D01*
X108552688Y-71460501D01*
X108552690Y-71460503D01*
X108666810Y-71526390D01*
X108666808Y-71526390D01*
X108666812Y-71526391D01*
X108666814Y-71526392D01*
X108794108Y-71560500D01*
X108794110Y-71560500D01*
X108925890Y-71560500D01*
X108925892Y-71560500D01*
X109053186Y-71526392D01*
X109053188Y-71526390D01*
X109053190Y-71526390D01*
X109167309Y-71460503D01*
X109167309Y-71460502D01*
X109167314Y-71460500D01*
X109260500Y-71367314D01*
X109300231Y-71298498D01*
X109326390Y-71253190D01*
X109326390Y-71253188D01*
X109326392Y-71253186D01*
X109360500Y-71125892D01*
X109360500Y-70994108D01*
X109326392Y-70866814D01*
X109326390Y-70866811D01*
X109326390Y-70866809D01*
X109260503Y-70752690D01*
X109260501Y-70752688D01*
X109260500Y-70752686D01*
X109167314Y-70659500D01*
X109167311Y-70659498D01*
X109167309Y-70659496D01*
X109053189Y-70593609D01*
X109053191Y-70593609D01*
X108989240Y-70576474D01*
X108925892Y-70559500D01*
X108794108Y-70559500D01*
X108730760Y-70576474D01*
X108666809Y-70593609D01*
X108552690Y-70659496D01*
X108459496Y-70752690D01*
X108393609Y-70866809D01*
X108388613Y-70885456D01*
X108359500Y-70994108D01*
X97970500Y-70994108D01*
X97970500Y-67631189D01*
X104195903Y-67631189D01*
X104195903Y-67762973D01*
X104217885Y-67845012D01*
X104230012Y-67890271D01*
X104295899Y-68004390D01*
X104295901Y-68004392D01*
X104295903Y-68004395D01*
X104389089Y-68097581D01*
X104389091Y-68097582D01*
X104389093Y-68097584D01*
X104503213Y-68163471D01*
X104503211Y-68163471D01*
X104503215Y-68163472D01*
X104503217Y-68163473D01*
X104630511Y-68197581D01*
X104630513Y-68197581D01*
X104762293Y-68197581D01*
X104762295Y-68197581D01*
X104889589Y-68163473D01*
X104889591Y-68163471D01*
X104889593Y-68163471D01*
X105003712Y-68097584D01*
X105003712Y-68097583D01*
X105003717Y-68097581D01*
X105096903Y-68004395D01*
X105096906Y-68004390D01*
X105162793Y-67890271D01*
X105162793Y-67890269D01*
X105162795Y-67890267D01*
X105196903Y-67762973D01*
X105196903Y-67631189D01*
X105162795Y-67503895D01*
X105162793Y-67503892D01*
X105162793Y-67503890D01*
X105096906Y-67389771D01*
X105096904Y-67389769D01*
X105096903Y-67389767D01*
X105003717Y-67296581D01*
X105003714Y-67296579D01*
X105003712Y-67296577D01*
X104889592Y-67230690D01*
X104889594Y-67230690D01*
X104840202Y-67217456D01*
X104762295Y-67196581D01*
X104630511Y-67196581D01*
X104552603Y-67217456D01*
X104503212Y-67230690D01*
X104389093Y-67296577D01*
X104295899Y-67389771D01*
X104230012Y-67503890D01*
X104222400Y-67532300D01*
X104195903Y-67631189D01*
X97970500Y-67631189D01*
X97970500Y-66959108D01*
X98749500Y-66959108D01*
X98749500Y-67090892D01*
X98772564Y-67176967D01*
X98783609Y-67218190D01*
X98849496Y-67332309D01*
X98849498Y-67332311D01*
X98849500Y-67332314D01*
X98942686Y-67425500D01*
X98942688Y-67425501D01*
X98942690Y-67425503D01*
X99056810Y-67491390D01*
X99056808Y-67491390D01*
X99056812Y-67491391D01*
X99056814Y-67491392D01*
X99184108Y-67525500D01*
X99184110Y-67525500D01*
X99315890Y-67525500D01*
X99315892Y-67525500D01*
X99443186Y-67491392D01*
X99443188Y-67491390D01*
X99443190Y-67491390D01*
X99557309Y-67425503D01*
X99557309Y-67425502D01*
X99557314Y-67425500D01*
X99650500Y-67332314D01*
X99651823Y-67330022D01*
X99716390Y-67218190D01*
X99716390Y-67218188D01*
X99716392Y-67218186D01*
X99750500Y-67090892D01*
X99750500Y-66959108D01*
X99716392Y-66831814D01*
X99716390Y-66831811D01*
X99716390Y-66831809D01*
X99650503Y-66717690D01*
X99650501Y-66717688D01*
X99650500Y-66717686D01*
X99557314Y-66624500D01*
X99557311Y-66624498D01*
X99557309Y-66624496D01*
X99443189Y-66558609D01*
X99443191Y-66558609D01*
X99393799Y-66545375D01*
X99315892Y-66524500D01*
X99184108Y-66524500D01*
X99106200Y-66545375D01*
X99056809Y-66558609D01*
X98942690Y-66624496D01*
X98849496Y-66717690D01*
X98783609Y-66831809D01*
X98783608Y-66831814D01*
X98749500Y-66959108D01*
X97970500Y-66959108D01*
X97970500Y-65742321D01*
X97989407Y-65684130D01*
X98038907Y-65648166D01*
X98100093Y-65648166D01*
X98139501Y-65672315D01*
X98142686Y-65675500D01*
X98142688Y-65675501D01*
X98142690Y-65675503D01*
X98256810Y-65741390D01*
X98256808Y-65741390D01*
X98256812Y-65741391D01*
X98256814Y-65741392D01*
X98384108Y-65775500D01*
X98384110Y-65775500D01*
X98515890Y-65775500D01*
X98515892Y-65775500D01*
X98643186Y-65741392D01*
X98643188Y-65741390D01*
X98643190Y-65741390D01*
X98757309Y-65675503D01*
X98757309Y-65675502D01*
X98757314Y-65675500D01*
X98850500Y-65582314D01*
X98916392Y-65468186D01*
X98950500Y-65340892D01*
X98950500Y-65209108D01*
X98916392Y-65081814D01*
X98916390Y-65081811D01*
X98916390Y-65081809D01*
X98850503Y-64967690D01*
X98850501Y-64967688D01*
X98850500Y-64967686D01*
X98757314Y-64874500D01*
X98757311Y-64874498D01*
X98757309Y-64874496D01*
X98643189Y-64808609D01*
X98643191Y-64808609D01*
X98593799Y-64795375D01*
X98515892Y-64774500D01*
X98384108Y-64774500D01*
X98306200Y-64795375D01*
X98256809Y-64808609D01*
X98142690Y-64874496D01*
X98142689Y-64874497D01*
X98142686Y-64874499D01*
X98142686Y-64874500D01*
X98139501Y-64877684D01*
X98084987Y-64905460D01*
X98024555Y-64895889D01*
X97981290Y-64852624D01*
X97970500Y-64807679D01*
X97970500Y-63658988D01*
X97989407Y-63600797D01*
X98038907Y-63564833D01*
X98100093Y-63564833D01*
X98149593Y-63600797D01*
X98155235Y-63609486D01*
X98164481Y-63625500D01*
X98183540Y-63658511D01*
X101815489Y-67290460D01*
X101815491Y-67290461D01*
X101815493Y-67290463D01*
X101884008Y-67330020D01*
X101884006Y-67330020D01*
X101884010Y-67330021D01*
X101884012Y-67330022D01*
X101960438Y-67350500D01*
X102039562Y-67350500D01*
X102851679Y-67350500D01*
X102909870Y-67369407D01*
X102921676Y-67379490D01*
X102992688Y-67450502D01*
X102992690Y-67450503D01*
X102992692Y-67450505D01*
X103106812Y-67516392D01*
X103106810Y-67516392D01*
X103106814Y-67516393D01*
X103106816Y-67516394D01*
X103234110Y-67550502D01*
X103234112Y-67550502D01*
X103365892Y-67550502D01*
X103365894Y-67550502D01*
X103493188Y-67516394D01*
X103493190Y-67516392D01*
X103493192Y-67516392D01*
X103607311Y-67450505D01*
X103607311Y-67450504D01*
X103607316Y-67450502D01*
X103700502Y-67357316D01*
X103716260Y-67330022D01*
X103766392Y-67243192D01*
X103766392Y-67243190D01*
X103766394Y-67243188D01*
X103800502Y-67115894D01*
X103800502Y-66984110D01*
X103766394Y-66856816D01*
X103766392Y-66856813D01*
X103766392Y-66856811D01*
X103700505Y-66742692D01*
X103700503Y-66742690D01*
X103700502Y-66742688D01*
X103607316Y-66649502D01*
X103607313Y-66649500D01*
X103607311Y-66649498D01*
X103493191Y-66583611D01*
X103493193Y-66583611D01*
X103443801Y-66570377D01*
X103365894Y-66549502D01*
X103234110Y-66549502D01*
X103156202Y-66570377D01*
X103106811Y-66583611D01*
X102992692Y-66649498D01*
X102992691Y-66649499D01*
X102992688Y-66649501D01*
X102992688Y-66649502D01*
X102921684Y-66720505D01*
X102867170Y-66748281D01*
X102851683Y-66749500D01*
X102165479Y-66749500D01*
X102107288Y-66730593D01*
X102095475Y-66720504D01*
X99140829Y-63765858D01*
X99113052Y-63711341D01*
X99122623Y-63650909D01*
X99165888Y-63607644D01*
X99185206Y-63600228D01*
X99218186Y-63591392D01*
X99332314Y-63525500D01*
X99425500Y-63432314D01*
X99491392Y-63318186D01*
X99525500Y-63190892D01*
X99525500Y-63059108D01*
X99491392Y-62931814D01*
X99491390Y-62931811D01*
X99491390Y-62931809D01*
X99425503Y-62817690D01*
X99425501Y-62817688D01*
X99425500Y-62817686D01*
X99332314Y-62724500D01*
X99332311Y-62724498D01*
X99332309Y-62724496D01*
X99218189Y-62658609D01*
X99218191Y-62658609D01*
X99168799Y-62645375D01*
X99090892Y-62624500D01*
X98997623Y-62624500D01*
X98939432Y-62605593D01*
X98903468Y-62556093D01*
X98901996Y-62499878D01*
X98924500Y-62415892D01*
X98924500Y-62284108D01*
X98890392Y-62156814D01*
X98890390Y-62156811D01*
X98890390Y-62156809D01*
X98824503Y-62042690D01*
X98824501Y-62042688D01*
X98824500Y-62042686D01*
X98731314Y-61949500D01*
X98731311Y-61949498D01*
X98731309Y-61949496D01*
X98704656Y-61934108D01*
X99581655Y-61934108D01*
X99581655Y-62065892D01*
X99582270Y-62068186D01*
X99615764Y-62193190D01*
X99681651Y-62307309D01*
X99681653Y-62307311D01*
X99681655Y-62307314D01*
X99774841Y-62400500D01*
X99774843Y-62400501D01*
X99774845Y-62400503D01*
X99888965Y-62466390D01*
X99888963Y-62466390D01*
X99888967Y-62466391D01*
X99888969Y-62466392D01*
X100016263Y-62500500D01*
X100016265Y-62500500D01*
X100148045Y-62500500D01*
X100148047Y-62500500D01*
X100275341Y-62466392D01*
X100275343Y-62466390D01*
X100275345Y-62466390D01*
X100389464Y-62400503D01*
X100389464Y-62400502D01*
X100389469Y-62400500D01*
X100482655Y-62307314D01*
X100491518Y-62291963D01*
X100548545Y-62193190D01*
X100548545Y-62193188D01*
X100548547Y-62193186D01*
X100582655Y-62065892D01*
X100582655Y-61934108D01*
X100548547Y-61806814D01*
X100548545Y-61806811D01*
X100548545Y-61806809D01*
X100482658Y-61692690D01*
X100482656Y-61692688D01*
X100482655Y-61692686D01*
X100389469Y-61599500D01*
X100389466Y-61599498D01*
X100389464Y-61599496D01*
X100275344Y-61533609D01*
X100275346Y-61533609D01*
X100205711Y-61514951D01*
X100148047Y-61499500D01*
X100016263Y-61499500D01*
X99958599Y-61514951D01*
X99888964Y-61533609D01*
X99774845Y-61599496D01*
X99681651Y-61692690D01*
X99615764Y-61806809D01*
X99615763Y-61806814D01*
X99581655Y-61934108D01*
X98704656Y-61934108D01*
X98617189Y-61883609D01*
X98617191Y-61883609D01*
X98567799Y-61870375D01*
X98489892Y-61849500D01*
X98358108Y-61849500D01*
X98294461Y-61866554D01*
X98230812Y-61883608D01*
X98119000Y-61948164D01*
X98059152Y-61960885D01*
X98003256Y-61935998D01*
X97972663Y-61883010D01*
X97970500Y-61862427D01*
X97970500Y-61255873D01*
X101326265Y-61255873D01*
X101326265Y-61387657D01*
X101349533Y-61474496D01*
X101360374Y-61514955D01*
X101426261Y-61629074D01*
X101426263Y-61629076D01*
X101426265Y-61629079D01*
X101519451Y-61722265D01*
X101519453Y-61722266D01*
X101519455Y-61722268D01*
X101633575Y-61788155D01*
X101633573Y-61788155D01*
X101633577Y-61788156D01*
X101633579Y-61788157D01*
X101760873Y-61822265D01*
X101760875Y-61822265D01*
X101892655Y-61822265D01*
X101892657Y-61822265D01*
X102019951Y-61788157D01*
X102019953Y-61788155D01*
X102019955Y-61788155D01*
X102134074Y-61722268D01*
X102134074Y-61722267D01*
X102134079Y-61722265D01*
X102227265Y-61629079D01*
X102293157Y-61514951D01*
X102297409Y-61499078D01*
X102330729Y-61447768D01*
X102387850Y-61425839D01*
X102402001Y-61426110D01*
X102410454Y-61426878D01*
X102464354Y-61441321D01*
X102569258Y-61441321D01*
X102573733Y-61441728D01*
X102597921Y-61452093D01*
X102622958Y-61460228D01*
X102629052Y-61465433D01*
X102629973Y-61465828D01*
X102630448Y-61466626D01*
X102634770Y-61470317D01*
X102853913Y-61689459D01*
X102853915Y-61689461D01*
X102859508Y-61692690D01*
X102906790Y-61719988D01*
X102947731Y-61765456D01*
X102954127Y-61826306D01*
X102952917Y-61831347D01*
X102938913Y-61883609D01*
X102924500Y-61937399D01*
X102924500Y-62062601D01*
X102956905Y-62183536D01*
X103019505Y-62291964D01*
X103108036Y-62380495D01*
X103216464Y-62443095D01*
X103337399Y-62475500D01*
X103409521Y-62475500D01*
X103417118Y-62477968D01*
X103425008Y-62476719D01*
X103445663Y-62487243D01*
X103467712Y-62494407D01*
X103479525Y-62504496D01*
X103505525Y-62530496D01*
X103533302Y-62585013D01*
X103523731Y-62645445D01*
X103480466Y-62688710D01*
X103435521Y-62699500D01*
X103394108Y-62699500D01*
X103316200Y-62720375D01*
X103266809Y-62733609D01*
X103152690Y-62799496D01*
X103059496Y-62892690D01*
X102993609Y-63006809D01*
X102993608Y-63006814D01*
X102959500Y-63134108D01*
X102959500Y-63265892D01*
X102973512Y-63318186D01*
X102993609Y-63393190D01*
X103059496Y-63507309D01*
X103059498Y-63507311D01*
X103059500Y-63507314D01*
X103152686Y-63600500D01*
X103152688Y-63600501D01*
X103152690Y-63600503D01*
X103266810Y-63666390D01*
X103266808Y-63666390D01*
X103266812Y-63666391D01*
X103266814Y-63666392D01*
X103394108Y-63700500D01*
X103394110Y-63700500D01*
X103525890Y-63700500D01*
X103525892Y-63700500D01*
X103653186Y-63666392D01*
X103653188Y-63666390D01*
X103653190Y-63666390D01*
X103767309Y-63600503D01*
X103767309Y-63600502D01*
X103767314Y-63600500D01*
X103860500Y-63507314D01*
X103865696Y-63498314D01*
X103926390Y-63393190D01*
X103926390Y-63393188D01*
X103926392Y-63393186D01*
X103960500Y-63265892D01*
X103960500Y-63224479D01*
X103979407Y-63166288D01*
X104028907Y-63130324D01*
X104090093Y-63130324D01*
X104129504Y-63154475D01*
X113870503Y-72895474D01*
X113898280Y-72949991D01*
X113899499Y-72965478D01*
X113899499Y-75130888D01*
X113899525Y-75131297D01*
X113899523Y-75146030D01*
X113926612Y-75264777D01*
X113979449Y-75374521D01*
X113979450Y-75374523D01*
X113979452Y-75374526D01*
X113989645Y-75387309D01*
X114050753Y-75463949D01*
X114072248Y-75521234D01*
X114055965Y-75580213D01*
X114008126Y-75618358D01*
X113973347Y-75624668D01*
X113666243Y-75624668D01*
X113665173Y-75624737D01*
X113650915Y-75624734D01*
X113650905Y-75624735D01*
X113532166Y-75651814D01*
X113422421Y-75704639D01*
X113327185Y-75780561D01*
X113251240Y-75875763D01*
X113251231Y-75875777D01*
X113198375Y-75985489D01*
X113198374Y-75985492D01*
X113171254Y-76104231D01*
X113171252Y-76119506D01*
X113171251Y-76125588D01*
X113171247Y-76125606D01*
X113171247Y-76162933D01*
X113171247Y-76165142D01*
X113171239Y-76220642D01*
X113171247Y-76220741D01*
X113171247Y-76244103D01*
X113171236Y-76244133D01*
X113171224Y-76346034D01*
X113171225Y-76346037D01*
X113198321Y-76464800D01*
X113198321Y-76464801D01*
X113198322Y-76464803D01*
X113251172Y-76574559D01*
X113251176Y-76574564D01*
X113314855Y-76654414D01*
X113336354Y-76711698D01*
X113320077Y-76770678D01*
X113297729Y-76794676D01*
X113292692Y-76798541D01*
X113199495Y-76891738D01*
X113133608Y-77005857D01*
X113114538Y-77077026D01*
X113099499Y-77133156D01*
X113099499Y-77264940D01*
X113122157Y-77349500D01*
X113133608Y-77392238D01*
X113199495Y-77506357D01*
X113199497Y-77506359D01*
X113199499Y-77506362D01*
X113292685Y-77599548D01*
X113292687Y-77599549D01*
X113292689Y-77599551D01*
X113406809Y-77665438D01*
X113406807Y-77665438D01*
X113406811Y-77665439D01*
X113406813Y-77665440D01*
X113534107Y-77699548D01*
X113534109Y-77699548D01*
X113600499Y-77699548D01*
X113658690Y-77718455D01*
X113694654Y-77767955D01*
X113699499Y-77798548D01*
X113699499Y-77873349D01*
X113718212Y-77943186D01*
X113733608Y-78000647D01*
X113799495Y-78114766D01*
X113799497Y-78114768D01*
X113799499Y-78114771D01*
X113892685Y-78207957D01*
X113892687Y-78207958D01*
X113892689Y-78207960D01*
X114006809Y-78273847D01*
X114006807Y-78273847D01*
X114006811Y-78273848D01*
X114006813Y-78273849D01*
X114134107Y-78307957D01*
X114134109Y-78307957D01*
X114265889Y-78307957D01*
X114265891Y-78307957D01*
X114393185Y-78273849D01*
X114393187Y-78273847D01*
X114393189Y-78273847D01*
X114507308Y-78207960D01*
X114507308Y-78207959D01*
X114507313Y-78207957D01*
X114600499Y-78114771D01*
X114666391Y-78000643D01*
X114700499Y-77873349D01*
X114700499Y-77741565D01*
X114666391Y-77614271D01*
X114643278Y-77574239D01*
X114630557Y-77514393D01*
X114655443Y-77458497D01*
X114708430Y-77427904D01*
X114728996Y-77425740D01*
X114748526Y-77425736D01*
X114749211Y-77425736D01*
X114867957Y-77398609D01*
X114977690Y-77345740D01*
X115072908Y-77269779D01*
X115073131Y-77269500D01*
X115091890Y-77245968D01*
X115148836Y-77174536D01*
X115201669Y-77064785D01*
X115228756Y-76946030D01*
X115228748Y-76885128D01*
X115228748Y-76884708D01*
X115228748Y-76820742D01*
X115228755Y-76820643D01*
X115228754Y-76812725D01*
X115228755Y-76812723D01*
X115228748Y-76765128D01*
X115228748Y-76725606D01*
X115228748Y-76719181D01*
X115228726Y-76718854D01*
X115228725Y-76704238D01*
X115203369Y-76593190D01*
X115201617Y-76585515D01*
X115201616Y-76585513D01*
X115201616Y-76585512D01*
X115148773Y-76475794D01*
X115072845Y-76380581D01*
X114977637Y-76304646D01*
X114975083Y-76302609D01*
X114941379Y-76251543D01*
X114944128Y-76190420D01*
X114975075Y-76147819D01*
X114977676Y-76145743D01*
X114977684Y-76145740D01*
X115072903Y-76069780D01*
X115148833Y-75974537D01*
X115201666Y-75864786D01*
X115228753Y-75746031D01*
X115228745Y-75685128D01*
X115228745Y-75684708D01*
X115228745Y-75620742D01*
X115228752Y-75620643D01*
X115228751Y-75612725D01*
X115228752Y-75612723D01*
X115228745Y-75565128D01*
X115228745Y-75525606D01*
X115228745Y-75519158D01*
X115228726Y-75518877D01*
X115228725Y-75504237D01*
X115218830Y-75460902D01*
X115201617Y-75385514D01*
X115201616Y-75385512D01*
X115201616Y-75385511D01*
X115148772Y-75275791D01*
X115072843Y-75180578D01*
X115072841Y-75180576D01*
X115072840Y-75180575D01*
X114990002Y-75114509D01*
X114977633Y-75104644D01*
X114867917Y-75051794D01*
X114867915Y-75051793D01*
X114797318Y-75035669D01*
X114749192Y-75024678D01*
X114749190Y-75024677D01*
X114749191Y-75024677D01*
X114733916Y-75024675D01*
X114733916Y-75024674D01*
X114727827Y-75024673D01*
X114727807Y-75024668D01*
X114688305Y-75024668D01*
X114688302Y-75024668D01*
X114688278Y-75024667D01*
X114640707Y-75024659D01*
X114640705Y-75024659D01*
X114633072Y-75024658D01*
X114632944Y-75024668D01*
X114599499Y-75024668D01*
X114541308Y-75005761D01*
X114505344Y-74956261D01*
X114500499Y-74925668D01*
X114500499Y-72985246D01*
X114519406Y-72927055D01*
X114568906Y-72891091D01*
X114630092Y-72891091D01*
X114669503Y-72915242D01*
X115452791Y-73698530D01*
X115480568Y-73753047D01*
X115470997Y-73813479D01*
X115427732Y-73856744D01*
X115408412Y-73864160D01*
X115391813Y-73868608D01*
X115391810Y-73868609D01*
X115277690Y-73934496D01*
X115184496Y-74027690D01*
X115118609Y-74141809D01*
X115118608Y-74141814D01*
X115084500Y-74269108D01*
X115084500Y-74400892D01*
X115114161Y-74511591D01*
X115118609Y-74528190D01*
X115184496Y-74642309D01*
X115184498Y-74642311D01*
X115184500Y-74642314D01*
X115277686Y-74735500D01*
X115277688Y-74735501D01*
X115277690Y-74735503D01*
X115391810Y-74801390D01*
X115391808Y-74801390D01*
X115391812Y-74801391D01*
X115391814Y-74801392D01*
X115519108Y-74835500D01*
X115519110Y-74835500D01*
X115650890Y-74835500D01*
X115650892Y-74835500D01*
X115778186Y-74801392D01*
X115778188Y-74801390D01*
X115778190Y-74801390D01*
X115892309Y-74735503D01*
X115892309Y-74735502D01*
X115892314Y-74735500D01*
X115985500Y-74642314D01*
X116051392Y-74528186D01*
X116055838Y-74511589D01*
X116061599Y-74502717D01*
X116063255Y-74492267D01*
X116077889Y-74477632D01*
X116089160Y-74460276D01*
X116099038Y-74456483D01*
X116106520Y-74449002D01*
X116126961Y-74445764D01*
X116146281Y-74438348D01*
X116156501Y-74441086D01*
X116166952Y-74439431D01*
X116185392Y-74448826D01*
X116205382Y-74454182D01*
X116221469Y-74467208D01*
X116229504Y-74475243D01*
X116257281Y-74529760D01*
X116258500Y-74545247D01*
X116258500Y-74952272D01*
X116258487Y-74952438D01*
X116258490Y-74966655D01*
X116258468Y-74966722D01*
X116258487Y-75060410D01*
X116258487Y-75060413D01*
X116258488Y-75060414D01*
X116281446Y-75146029D01*
X116285800Y-75162263D01*
X116312042Y-75207699D01*
X116338535Y-75253570D01*
X116413104Y-75328122D01*
X116413106Y-75328123D01*
X116414335Y-75329066D01*
X116414963Y-75329979D01*
X116417693Y-75332709D01*
X116417187Y-75333215D01*
X116448995Y-75379487D01*
X116447400Y-75440652D01*
X116417250Y-75482160D01*
X116417645Y-75482555D01*
X116415157Y-75485043D01*
X116414357Y-75486145D01*
X116413061Y-75487139D01*
X116338486Y-75561731D01*
X116285767Y-75653075D01*
X116258489Y-75754958D01*
X116258500Y-75807555D01*
X116258500Y-76688507D01*
X116278977Y-76764928D01*
X116278979Y-76764933D01*
X116306569Y-76812721D01*
X116318538Y-76833451D01*
X116318540Y-76833454D01*
X116630506Y-77145420D01*
X116658282Y-77199935D01*
X116659501Y-77215422D01*
X116659501Y-77292218D01*
X116686300Y-77392234D01*
X116693610Y-77419516D01*
X116759497Y-77533635D01*
X116759499Y-77533637D01*
X116759501Y-77533640D01*
X116852687Y-77626826D01*
X116852689Y-77626827D01*
X116852691Y-77626829D01*
X116966811Y-77692716D01*
X116966809Y-77692716D01*
X116966813Y-77692717D01*
X116966815Y-77692718D01*
X117094109Y-77726826D01*
X117094111Y-77726826D01*
X117225891Y-77726826D01*
X117225893Y-77726826D01*
X117353187Y-77692718D01*
X117353189Y-77692716D01*
X117353191Y-77692716D01*
X117368100Y-77684108D01*
X119579500Y-77684108D01*
X119579500Y-77815892D01*
X119598077Y-77885222D01*
X119613609Y-77943190D01*
X119679496Y-78057309D01*
X119679498Y-78057311D01*
X119679500Y-78057314D01*
X119772686Y-78150500D01*
X119772688Y-78150501D01*
X119772690Y-78150503D01*
X119886810Y-78216390D01*
X119886808Y-78216390D01*
X119886812Y-78216391D01*
X119886814Y-78216392D01*
X120014108Y-78250500D01*
X120014110Y-78250500D01*
X120145890Y-78250500D01*
X120145892Y-78250500D01*
X120273186Y-78216392D01*
X120273188Y-78216390D01*
X120273190Y-78216390D01*
X120387309Y-78150503D01*
X120387309Y-78150502D01*
X120387314Y-78150500D01*
X120480500Y-78057314D01*
X120534845Y-77963186D01*
X120546390Y-77943190D01*
X120546390Y-77943188D01*
X120546392Y-77943186D01*
X120580500Y-77815892D01*
X120580500Y-77684108D01*
X120546392Y-77556814D01*
X120546390Y-77556811D01*
X120546390Y-77556809D01*
X120480503Y-77442690D01*
X120480501Y-77442688D01*
X120480500Y-77442686D01*
X120387314Y-77349500D01*
X120387311Y-77349498D01*
X120387309Y-77349496D01*
X120273189Y-77283609D01*
X120273191Y-77283609D01*
X120203515Y-77264940D01*
X120145892Y-77249500D01*
X120014108Y-77249500D01*
X119956485Y-77264940D01*
X119886809Y-77283609D01*
X119772690Y-77349496D01*
X119679496Y-77442690D01*
X119613609Y-77556809D01*
X119602157Y-77599551D01*
X119579500Y-77684108D01*
X117368100Y-77684108D01*
X117467310Y-77626829D01*
X117467310Y-77626828D01*
X117467315Y-77626826D01*
X117560501Y-77533640D01*
X117601464Y-77462690D01*
X117626391Y-77419516D01*
X117626391Y-77419514D01*
X117626393Y-77419512D01*
X117660501Y-77292218D01*
X117660501Y-77160434D01*
X117626393Y-77033140D01*
X117626391Y-77033137D01*
X117626391Y-77033135D01*
X117560504Y-76919016D01*
X117560502Y-76919014D01*
X117560501Y-76919012D01*
X117524652Y-76883163D01*
X117496877Y-76828649D01*
X117506448Y-76768217D01*
X117524652Y-76743161D01*
X117560500Y-76707314D01*
X117560788Y-76706816D01*
X117626390Y-76593190D01*
X117626390Y-76593188D01*
X117626392Y-76593186D01*
X117660500Y-76465892D01*
X117660500Y-76334108D01*
X117626392Y-76206814D01*
X117626390Y-76206811D01*
X117626390Y-76206809D01*
X117560503Y-76092690D01*
X117560501Y-76092688D01*
X117560500Y-76092686D01*
X117489494Y-76021680D01*
X117461719Y-75967166D01*
X117460500Y-75951679D01*
X117460500Y-75014108D01*
X119869500Y-75014108D01*
X119869500Y-75145892D01*
X119878794Y-75180578D01*
X119903609Y-75273190D01*
X119969496Y-75387309D01*
X119969498Y-75387311D01*
X119969500Y-75387314D01*
X120062686Y-75480500D01*
X120062688Y-75480501D01*
X120062690Y-75480503D01*
X120176810Y-75546390D01*
X120176808Y-75546390D01*
X120176812Y-75546391D01*
X120176814Y-75546392D01*
X120304108Y-75580500D01*
X120304110Y-75580500D01*
X120435890Y-75580500D01*
X120435892Y-75580500D01*
X120563186Y-75546392D01*
X120563188Y-75546390D01*
X120563190Y-75546390D01*
X120677309Y-75480503D01*
X120677309Y-75480502D01*
X120677314Y-75480500D01*
X120770500Y-75387314D01*
X120802026Y-75332709D01*
X120836390Y-75273190D01*
X120836390Y-75273188D01*
X120836392Y-75273186D01*
X120870500Y-75145892D01*
X120870500Y-75014108D01*
X120836392Y-74886814D01*
X120836390Y-74886811D01*
X120836390Y-74886809D01*
X120777216Y-74784318D01*
X120777215Y-74784316D01*
X120770503Y-74772690D01*
X120770501Y-74772688D01*
X120770500Y-74772686D01*
X120739121Y-74741307D01*
X121576577Y-74741307D01*
X121576577Y-74873091D01*
X121590665Y-74925668D01*
X121610686Y-75000389D01*
X121676573Y-75114507D01*
X121676574Y-75114509D01*
X121676575Y-75114510D01*
X121676577Y-75114513D01*
X121769763Y-75207699D01*
X121769765Y-75207700D01*
X121769767Y-75207702D01*
X121883887Y-75273589D01*
X121883885Y-75273589D01*
X121883889Y-75273590D01*
X121883891Y-75273591D01*
X122011185Y-75307699D01*
X122011187Y-75307699D01*
X122142967Y-75307699D01*
X122142969Y-75307699D01*
X122270263Y-75273591D01*
X122270265Y-75273589D01*
X122270267Y-75273589D01*
X122384386Y-75207702D01*
X122384386Y-75207701D01*
X122384391Y-75207699D01*
X122477577Y-75114513D01*
X122477579Y-75114508D01*
X122477581Y-75114507D01*
X122543467Y-75000389D01*
X122543467Y-75000387D01*
X122543469Y-75000385D01*
X122577577Y-74873091D01*
X122577577Y-74741307D01*
X122543469Y-74614013D01*
X122543467Y-74614010D01*
X122543467Y-74614008D01*
X122477580Y-74499889D01*
X122477578Y-74499887D01*
X122477577Y-74499885D01*
X122384391Y-74406699D01*
X122384388Y-74406697D01*
X122384386Y-74406695D01*
X122270266Y-74340808D01*
X122270268Y-74340808D01*
X122220876Y-74327574D01*
X122142969Y-74306699D01*
X122011185Y-74306699D01*
X121933277Y-74327574D01*
X121883886Y-74340808D01*
X121769767Y-74406695D01*
X121676573Y-74499889D01*
X121610686Y-74614008D01*
X121610685Y-74614013D01*
X121576577Y-74741307D01*
X120739121Y-74741307D01*
X120677314Y-74679500D01*
X120677311Y-74679498D01*
X120677309Y-74679496D01*
X120563189Y-74613609D01*
X120563191Y-74613609D01*
X120513799Y-74600375D01*
X120435892Y-74579500D01*
X120304108Y-74579500D01*
X120226200Y-74600375D01*
X120176809Y-74613609D01*
X120062690Y-74679496D01*
X119969496Y-74772690D01*
X119903609Y-74886809D01*
X119903608Y-74886814D01*
X119869500Y-75014108D01*
X117460500Y-75014108D01*
X117460500Y-73610384D01*
X117460500Y-73610383D01*
X117440022Y-73533957D01*
X117440020Y-73533954D01*
X117440020Y-73533952D01*
X117400463Y-73465438D01*
X117400459Y-73465433D01*
X117298200Y-73363173D01*
X117270423Y-73308657D01*
X117279995Y-73248225D01*
X117318702Y-73207435D01*
X117417314Y-73150502D01*
X117510500Y-73057316D01*
X117552110Y-72985246D01*
X117576390Y-72943192D01*
X117576390Y-72943190D01*
X117576392Y-72943188D01*
X117610500Y-72815894D01*
X117610500Y-72684110D01*
X117576392Y-72556816D01*
X117576390Y-72556813D01*
X117576390Y-72556811D01*
X117547700Y-72507119D01*
X117522868Y-72464108D01*
X119959500Y-72464108D01*
X119959500Y-72595892D01*
X119977531Y-72663186D01*
X119993609Y-72723190D01*
X120059496Y-72837309D01*
X120059498Y-72837311D01*
X120059500Y-72837314D01*
X120152686Y-72930500D01*
X120152688Y-72930501D01*
X120152690Y-72930503D01*
X120266810Y-72996390D01*
X120266808Y-72996390D01*
X120266812Y-72996391D01*
X120266814Y-72996392D01*
X120394108Y-73030500D01*
X120394110Y-73030500D01*
X120525890Y-73030500D01*
X120525892Y-73030500D01*
X120653186Y-72996392D01*
X120653188Y-72996390D01*
X120653190Y-72996390D01*
X120767309Y-72930503D01*
X120767309Y-72930502D01*
X120767314Y-72930500D01*
X120860500Y-72837314D01*
X120866274Y-72827314D01*
X120926390Y-72723190D01*
X120926390Y-72723188D01*
X120926392Y-72723186D01*
X120960500Y-72595892D01*
X120960500Y-72464108D01*
X120957821Y-72454108D01*
X124519500Y-72454108D01*
X124519500Y-72585892D01*
X124549579Y-72698151D01*
X124553609Y-72713190D01*
X124619496Y-72827309D01*
X124619498Y-72827311D01*
X124619500Y-72827314D01*
X124712686Y-72920500D01*
X124712688Y-72920501D01*
X124712690Y-72920503D01*
X124826810Y-72986390D01*
X124826808Y-72986390D01*
X124826812Y-72986391D01*
X124826814Y-72986392D01*
X124954108Y-73020500D01*
X124954110Y-73020500D01*
X125085890Y-73020500D01*
X125085892Y-73020500D01*
X125213186Y-72986392D01*
X125213188Y-72986390D01*
X125213190Y-72986390D01*
X125327309Y-72920503D01*
X125327309Y-72920502D01*
X125327314Y-72920500D01*
X125420500Y-72827314D01*
X125449368Y-72777314D01*
X125486390Y-72713190D01*
X125486390Y-72713188D01*
X125486392Y-72713186D01*
X125520500Y-72585892D01*
X125520500Y-72454108D01*
X125486392Y-72326814D01*
X125486390Y-72326811D01*
X125486390Y-72326809D01*
X125420503Y-72212690D01*
X125420501Y-72212688D01*
X125420500Y-72212686D01*
X125327314Y-72119500D01*
X125327311Y-72119498D01*
X125327309Y-72119496D01*
X125213189Y-72053609D01*
X125213191Y-72053609D01*
X125163799Y-72040375D01*
X125085892Y-72019500D01*
X124954108Y-72019500D01*
X124876200Y-72040375D01*
X124826809Y-72053609D01*
X124712690Y-72119496D01*
X124619496Y-72212690D01*
X124553609Y-72326809D01*
X124547530Y-72349498D01*
X124519500Y-72454108D01*
X120957821Y-72454108D01*
X120926392Y-72336814D01*
X120926390Y-72336811D01*
X120926390Y-72336809D01*
X120860503Y-72222690D01*
X120860501Y-72222688D01*
X120860500Y-72222686D01*
X120767314Y-72129500D01*
X120767311Y-72129498D01*
X120767309Y-72129496D01*
X120653189Y-72063609D01*
X120653191Y-72063609D01*
X120603799Y-72050375D01*
X120525892Y-72029500D01*
X120394108Y-72029500D01*
X120316200Y-72050375D01*
X120266809Y-72063609D01*
X120152690Y-72129496D01*
X120059496Y-72222690D01*
X119993609Y-72336809D01*
X119993608Y-72336814D01*
X119959500Y-72464108D01*
X117522868Y-72464108D01*
X117510503Y-72442692D01*
X117510501Y-72442690D01*
X117510500Y-72442688D01*
X117417314Y-72349502D01*
X117417311Y-72349500D01*
X117417309Y-72349498D01*
X117303189Y-72283611D01*
X117303191Y-72283611D01*
X117242696Y-72267402D01*
X117175892Y-72249502D01*
X117044108Y-72249502D01*
X116977304Y-72267402D01*
X116916809Y-72283611D01*
X116802690Y-72349498D01*
X116709496Y-72442692D01*
X116652567Y-72541297D01*
X116607098Y-72582238D01*
X116546247Y-72588634D01*
X116496827Y-72561801D01*
X114540496Y-70605470D01*
X114512719Y-70550953D01*
X114511500Y-70535466D01*
X114511500Y-70274108D01*
X117859500Y-70274108D01*
X117859500Y-70405892D01*
X117889579Y-70518151D01*
X117893609Y-70533190D01*
X117959496Y-70647309D01*
X117959498Y-70647311D01*
X117959500Y-70647314D01*
X118052686Y-70740500D01*
X118052688Y-70740501D01*
X118052690Y-70740503D01*
X118166810Y-70806390D01*
X118166808Y-70806390D01*
X118166812Y-70806391D01*
X118166814Y-70806392D01*
X118294108Y-70840500D01*
X118294110Y-70840500D01*
X118425890Y-70840500D01*
X118425892Y-70840500D01*
X118553186Y-70806392D01*
X118553188Y-70806390D01*
X118553190Y-70806390D01*
X118667309Y-70740503D01*
X118667309Y-70740502D01*
X118667314Y-70740500D01*
X118760500Y-70647314D01*
X118784659Y-70605470D01*
X118826390Y-70533190D01*
X118826390Y-70533188D01*
X118826392Y-70533186D01*
X118860500Y-70405892D01*
X118860500Y-70274108D01*
X118860500Y-70267619D01*
X118861734Y-70267619D01*
X118871654Y-70214050D01*
X118916031Y-70171926D01*
X118976691Y-70163931D01*
X119030466Y-70193119D01*
X119046873Y-70216330D01*
X119080171Y-70281680D01*
X119080178Y-70281691D01*
X119157849Y-70388595D01*
X119157850Y-70388595D01*
X119715884Y-69830560D01*
X119716740Y-69832626D01*
X119809762Y-69971844D01*
X119928156Y-70090238D01*
X120067374Y-70183260D01*
X120069437Y-70184114D01*
X119511403Y-70742148D01*
X119511403Y-70742149D01*
X119618308Y-70819821D01*
X119618314Y-70819825D01*
X119846217Y-70935947D01*
X120089480Y-71014987D01*
X120342107Y-71055000D01*
X120597893Y-71055000D01*
X120850519Y-71014987D01*
X121093782Y-70935947D01*
X121321685Y-70819825D01*
X121321690Y-70819821D01*
X121428595Y-70742149D01*
X120870561Y-70184115D01*
X120872626Y-70183260D01*
X121011844Y-70090238D01*
X121130238Y-69971844D01*
X121223260Y-69832626D01*
X121224115Y-69830561D01*
X121782149Y-70388595D01*
X121859821Y-70281690D01*
X121859825Y-70281685D01*
X121975947Y-70053782D01*
X122054987Y-69810519D01*
X122095000Y-69557893D01*
X122095000Y-69302106D01*
X122054987Y-69049480D01*
X121975947Y-68806217D01*
X121859825Y-68578314D01*
X121859821Y-68578308D01*
X121782149Y-68471403D01*
X121782148Y-68471403D01*
X121224114Y-69029437D01*
X121223260Y-69027374D01*
X121130238Y-68888156D01*
X121011844Y-68769762D01*
X120872626Y-68676740D01*
X120870560Y-68675884D01*
X121428595Y-68117850D01*
X121428595Y-68117849D01*
X121321691Y-68040178D01*
X121321685Y-68040174D01*
X121093782Y-67924052D01*
X120850519Y-67845012D01*
X120597893Y-67805000D01*
X120342107Y-67805000D01*
X120089480Y-67845012D01*
X119846217Y-67924052D01*
X119618314Y-68040174D01*
X119618310Y-68040176D01*
X119511403Y-68117849D01*
X120069439Y-68675884D01*
X120067374Y-68676740D01*
X119928156Y-68769762D01*
X119809762Y-68888156D01*
X119716740Y-69027374D01*
X119715884Y-69029439D01*
X119157849Y-68471403D01*
X119080176Y-68578310D01*
X119080174Y-68578314D01*
X118964053Y-68806215D01*
X118889473Y-69035751D01*
X118853509Y-69085251D01*
X118795318Y-69104158D01*
X118788519Y-69104158D01*
X118710611Y-69125033D01*
X118661220Y-69138267D01*
X118547101Y-69204154D01*
X118453907Y-69297348D01*
X118388020Y-69411467D01*
X118388019Y-69411472D01*
X118353911Y-69538766D01*
X118353911Y-69670550D01*
X118355890Y-69677936D01*
X118366519Y-69717606D01*
X118363316Y-69778708D01*
X118324810Y-69826257D01*
X118296515Y-69838855D01*
X118166809Y-69873609D01*
X118052690Y-69939496D01*
X117959496Y-70032690D01*
X117893609Y-70146809D01*
X117886879Y-70171926D01*
X117859500Y-70274108D01*
X114511500Y-70274108D01*
X114511500Y-69841494D01*
X114506460Y-69822687D01*
X114506460Y-69822686D01*
X114491022Y-69765069D01*
X114491019Y-69765063D01*
X114451463Y-69696550D01*
X114451461Y-69696548D01*
X114451460Y-69696546D01*
X111548461Y-66793547D01*
X121784500Y-66793547D01*
X121784500Y-66986452D01*
X121814674Y-67176967D01*
X121873274Y-67357316D01*
X121874285Y-67360429D01*
X121889234Y-67389767D01*
X121961857Y-67532300D01*
X121975082Y-67550502D01*
X122075241Y-67688359D01*
X122211641Y-67824759D01*
X122301805Y-67890267D01*
X122367699Y-67938142D01*
X122422848Y-67966241D01*
X122539571Y-68025715D01*
X122723028Y-68085324D01*
X122723029Y-68085324D01*
X122723032Y-68085325D01*
X122913548Y-68115500D01*
X122913551Y-68115500D01*
X123106452Y-68115500D01*
X123296967Y-68085325D01*
X123296968Y-68085324D01*
X123296972Y-68085324D01*
X123480429Y-68025715D01*
X123652302Y-67938141D01*
X123808359Y-67824759D01*
X123944759Y-67688359D01*
X124058141Y-67532302D01*
X124145715Y-67360429D01*
X124205324Y-67176972D01*
X124235500Y-66986449D01*
X124235500Y-66793551D01*
X124235500Y-66793547D01*
X124205325Y-66603032D01*
X124199015Y-66583610D01*
X124145715Y-66419571D01*
X124058141Y-66247698D01*
X123944759Y-66091641D01*
X123808359Y-65955241D01*
X123699830Y-65876390D01*
X123652300Y-65841857D01*
X123542001Y-65785657D01*
X123480429Y-65754285D01*
X123480426Y-65754284D01*
X123480424Y-65754283D01*
X123370516Y-65718572D01*
X123296967Y-65694674D01*
X123106452Y-65664500D01*
X123106449Y-65664500D01*
X122913551Y-65664500D01*
X122913548Y-65664500D01*
X122723032Y-65694674D01*
X122539575Y-65754283D01*
X122367699Y-65841857D01*
X122211642Y-65955240D01*
X122075240Y-66091642D01*
X121961857Y-66247699D01*
X121874283Y-66419575D01*
X121814674Y-66603032D01*
X121784500Y-66793547D01*
X111548461Y-66793547D01*
X110099022Y-65344108D01*
X111899500Y-65344108D01*
X111899500Y-65475892D01*
X111928014Y-65582309D01*
X111933609Y-65603190D01*
X111999496Y-65717309D01*
X111999498Y-65717311D01*
X111999500Y-65717314D01*
X112092686Y-65810500D01*
X112092688Y-65810501D01*
X112092690Y-65810503D01*
X112206810Y-65876390D01*
X112206808Y-65876390D01*
X112206812Y-65876391D01*
X112206814Y-65876392D01*
X112334108Y-65910500D01*
X112334110Y-65910500D01*
X112465890Y-65910500D01*
X112465892Y-65910500D01*
X112593186Y-65876392D01*
X112593188Y-65876390D01*
X112593190Y-65876390D01*
X112707309Y-65810503D01*
X112707309Y-65810502D01*
X112707314Y-65810500D01*
X112800500Y-65717314D01*
X112866392Y-65603186D01*
X112900500Y-65475892D01*
X112900500Y-65344108D01*
X112866392Y-65216814D01*
X112866390Y-65216811D01*
X112866390Y-65216809D01*
X112800503Y-65102690D01*
X112800501Y-65102688D01*
X112800500Y-65102686D01*
X112707314Y-65009500D01*
X112707311Y-65009498D01*
X112707309Y-65009496D01*
X112593189Y-64943609D01*
X112593191Y-64943609D01*
X112543799Y-64930375D01*
X112465892Y-64909500D01*
X112334108Y-64909500D01*
X112256200Y-64930375D01*
X112206809Y-64943609D01*
X112092690Y-65009496D01*
X111999496Y-65102690D01*
X111933609Y-65216809D01*
X111933608Y-65216814D01*
X111899500Y-65344108D01*
X110099022Y-65344108D01*
X108977020Y-64222106D01*
X118845000Y-64222106D01*
X118845000Y-64477893D01*
X118885012Y-64730519D01*
X118964052Y-64973782D01*
X119080174Y-65201685D01*
X119080178Y-65201691D01*
X119157849Y-65308595D01*
X119157850Y-65308595D01*
X119715884Y-64750560D01*
X119716740Y-64752626D01*
X119809762Y-64891844D01*
X119928156Y-65010238D01*
X120067374Y-65103260D01*
X120069437Y-65104114D01*
X119511403Y-65662148D01*
X119511403Y-65662149D01*
X119618308Y-65739821D01*
X119618314Y-65739825D01*
X119846217Y-65855947D01*
X120089480Y-65934987D01*
X120342107Y-65975000D01*
X120597893Y-65975000D01*
X120850519Y-65934987D01*
X121093782Y-65855947D01*
X121321685Y-65739825D01*
X121321690Y-65739821D01*
X121428595Y-65662149D01*
X120870561Y-65104115D01*
X120872626Y-65103260D01*
X121011844Y-65010238D01*
X121130238Y-64891844D01*
X121223260Y-64752626D01*
X121224115Y-64750561D01*
X121782149Y-65308595D01*
X121859821Y-65201690D01*
X121859825Y-65201685D01*
X121975947Y-64973782D01*
X122054987Y-64730519D01*
X122095000Y-64477893D01*
X122095000Y-64222106D01*
X122054987Y-63969480D01*
X121975947Y-63726217D01*
X121859825Y-63498314D01*
X121859821Y-63498308D01*
X121782149Y-63391403D01*
X121782148Y-63391403D01*
X121224114Y-63949437D01*
X121223260Y-63947374D01*
X121130238Y-63808156D01*
X121011844Y-63689762D01*
X120872626Y-63596740D01*
X120870560Y-63595884D01*
X121428595Y-63037850D01*
X121428595Y-63037849D01*
X121321691Y-62960178D01*
X121321685Y-62960174D01*
X121093782Y-62844052D01*
X120850519Y-62765012D01*
X120597893Y-62725000D01*
X120342107Y-62725000D01*
X120089480Y-62765012D01*
X119846217Y-62844052D01*
X119618314Y-62960174D01*
X119618310Y-62960176D01*
X119511403Y-63037849D01*
X120069439Y-63595884D01*
X120067374Y-63596740D01*
X119928156Y-63689762D01*
X119809762Y-63808156D01*
X119716740Y-63947374D01*
X119715884Y-63949439D01*
X119157849Y-63391403D01*
X119080176Y-63498310D01*
X119080174Y-63498314D01*
X118964052Y-63726217D01*
X118885012Y-63969480D01*
X118845000Y-64222106D01*
X108977020Y-64222106D01*
X106564022Y-61809108D01*
X114874500Y-61809108D01*
X114874500Y-61940892D01*
X114879857Y-61960885D01*
X114908609Y-62068190D01*
X114974496Y-62182309D01*
X114974498Y-62182311D01*
X114974500Y-62182314D01*
X115067686Y-62275500D01*
X115067688Y-62275501D01*
X115067690Y-62275503D01*
X115181810Y-62341390D01*
X115181808Y-62341390D01*
X115181812Y-62341391D01*
X115181814Y-62341392D01*
X115309108Y-62375500D01*
X115309110Y-62375500D01*
X115440890Y-62375500D01*
X115440892Y-62375500D01*
X115568186Y-62341392D01*
X115568188Y-62341390D01*
X115568190Y-62341390D01*
X115682309Y-62275503D01*
X115682309Y-62275502D01*
X115682314Y-62275500D01*
X115775500Y-62182314D01*
X115775503Y-62182309D01*
X115841390Y-62068190D01*
X115841390Y-62068188D01*
X115841392Y-62068186D01*
X115875500Y-61940892D01*
X115875500Y-61809108D01*
X115841392Y-61681814D01*
X115841390Y-61681811D01*
X115841390Y-61681809D01*
X115775503Y-61567690D01*
X115775501Y-61567688D01*
X115775500Y-61567686D01*
X115682314Y-61474500D01*
X115682311Y-61474498D01*
X115682309Y-61474496D01*
X115568189Y-61408609D01*
X115568191Y-61408609D01*
X115518799Y-61395375D01*
X115440892Y-61374500D01*
X115309108Y-61374500D01*
X115231200Y-61395375D01*
X115181809Y-61408609D01*
X115067690Y-61474496D01*
X114974496Y-61567690D01*
X114908609Y-61681809D01*
X114906559Y-61689460D01*
X114874500Y-61809108D01*
X106564022Y-61809108D01*
X105594292Y-60839378D01*
X107594230Y-60839378D01*
X107594230Y-60971162D01*
X107624309Y-61083421D01*
X107628339Y-61098460D01*
X107694226Y-61212579D01*
X107694228Y-61212581D01*
X107694230Y-61212584D01*
X107787416Y-61305770D01*
X107787418Y-61305771D01*
X107787420Y-61305773D01*
X107901540Y-61371660D01*
X107901538Y-61371660D01*
X107901542Y-61371661D01*
X107901544Y-61371662D01*
X108028838Y-61405770D01*
X108028840Y-61405770D01*
X108160620Y-61405770D01*
X108160622Y-61405770D01*
X108287916Y-61371662D01*
X108287918Y-61371660D01*
X108287920Y-61371660D01*
X108402039Y-61305773D01*
X108402039Y-61305772D01*
X108402044Y-61305770D01*
X108495230Y-61212584D01*
X108508845Y-61189002D01*
X108561120Y-61098460D01*
X108561120Y-61098458D01*
X108561122Y-61098456D01*
X108595230Y-60971162D01*
X108595230Y-60839378D01*
X108561122Y-60712084D01*
X108561120Y-60712081D01*
X108561120Y-60712079D01*
X108495233Y-60597960D01*
X108495231Y-60597958D01*
X108495230Y-60597956D01*
X108402044Y-60504770D01*
X108402041Y-60504768D01*
X108402039Y-60504766D01*
X108287919Y-60438879D01*
X108287921Y-60438879D01*
X108238529Y-60425645D01*
X108160622Y-60404770D01*
X108028838Y-60404770D01*
X107950930Y-60425645D01*
X107901539Y-60438879D01*
X107787420Y-60504766D01*
X107694226Y-60597960D01*
X107628339Y-60712079D01*
X107609269Y-60783248D01*
X107594230Y-60839378D01*
X105594292Y-60839378D01*
X105384049Y-60629135D01*
X105376542Y-60624801D01*
X105315527Y-60589574D01*
X105315526Y-60589573D01*
X105315525Y-60589573D01*
X105239102Y-60569095D01*
X105239100Y-60569095D01*
X103862967Y-60569095D01*
X103804776Y-60550188D01*
X103792964Y-60540099D01*
X103741966Y-60489102D01*
X103741964Y-60489100D01*
X103633536Y-60426500D01*
X103512601Y-60394095D01*
X103387399Y-60394095D01*
X103306775Y-60415698D01*
X103266463Y-60426500D01*
X103158036Y-60489100D01*
X103069505Y-60577631D01*
X103062772Y-60589292D01*
X103017304Y-60630232D01*
X102956454Y-60636628D01*
X102907035Y-60609796D01*
X102837560Y-60540321D01*
X102837557Y-60540319D01*
X102837555Y-60540317D01*
X102723435Y-60474430D01*
X102723437Y-60474430D01*
X102674045Y-60461196D01*
X102596138Y-60440321D01*
X102464354Y-60440321D01*
X102386446Y-60461196D01*
X102337055Y-60474430D01*
X102222936Y-60540317D01*
X102129742Y-60633511D01*
X102063855Y-60747631D01*
X102063853Y-60747636D01*
X102059599Y-60763510D01*
X102026273Y-60814822D01*
X101969151Y-60836747D01*
X101938353Y-60833509D01*
X101892657Y-60821265D01*
X101760873Y-60821265D01*
X101703093Y-60836747D01*
X101633574Y-60855374D01*
X101519455Y-60921261D01*
X101426261Y-61014455D01*
X101360374Y-61128574D01*
X101360373Y-61128579D01*
X101326265Y-61255873D01*
X97970500Y-61255873D01*
X97970500Y-59224108D01*
X117259500Y-59224108D01*
X117259500Y-59355892D01*
X117289579Y-59468151D01*
X117293609Y-59483190D01*
X117359496Y-59597309D01*
X117359498Y-59597311D01*
X117359500Y-59597314D01*
X117452686Y-59690500D01*
X117452688Y-59690501D01*
X117452690Y-59690503D01*
X117566810Y-59756390D01*
X117566808Y-59756390D01*
X117566812Y-59756391D01*
X117566814Y-59756392D01*
X117694108Y-59790500D01*
X117694110Y-59790500D01*
X117825890Y-59790500D01*
X117825892Y-59790500D01*
X117953186Y-59756392D01*
X117953188Y-59756390D01*
X117953190Y-59756390D01*
X118067309Y-59690503D01*
X118067309Y-59690502D01*
X118067314Y-59690500D01*
X118160500Y-59597314D01*
X118226392Y-59483186D01*
X118260500Y-59355892D01*
X118260500Y-59224108D01*
X118226392Y-59096814D01*
X118226390Y-59096811D01*
X118226390Y-59096809D01*
X118160503Y-58982690D01*
X118160501Y-58982688D01*
X118160500Y-58982686D01*
X118067314Y-58889500D01*
X118067311Y-58889498D01*
X118067309Y-58889496D01*
X117953189Y-58823609D01*
X117953191Y-58823609D01*
X117903799Y-58810375D01*
X117825892Y-58789500D01*
X117694108Y-58789500D01*
X117616200Y-58810375D01*
X117566809Y-58823609D01*
X117452690Y-58889496D01*
X117359496Y-58982690D01*
X117293609Y-59096809D01*
X117284209Y-59131891D01*
X117259500Y-59224108D01*
X97970500Y-59224108D01*
X97970500Y-58632392D01*
X100304362Y-58632392D01*
X100304362Y-58764176D01*
X100320287Y-58823608D01*
X100338471Y-58891474D01*
X100404358Y-59005593D01*
X100404360Y-59005595D01*
X100404362Y-59005598D01*
X100497548Y-59098784D01*
X100497550Y-59098785D01*
X100497552Y-59098787D01*
X100611672Y-59164674D01*
X100611670Y-59164674D01*
X100611674Y-59164675D01*
X100611676Y-59164676D01*
X100738970Y-59198784D01*
X100738972Y-59198784D01*
X100870752Y-59198784D01*
X100870754Y-59198784D01*
X100998048Y-59164676D01*
X100998050Y-59164674D01*
X100998052Y-59164674D01*
X101054834Y-59131891D01*
X101054841Y-59131886D01*
X101112176Y-59098784D01*
X101205362Y-59005598D01*
X101271254Y-58891470D01*
X101305362Y-58764176D01*
X101305362Y-58632392D01*
X101271254Y-58505098D01*
X101271252Y-58505095D01*
X101271252Y-58505093D01*
X101205365Y-58390974D01*
X101205363Y-58390972D01*
X101205362Y-58390970D01*
X101112176Y-58297784D01*
X101112173Y-58297782D01*
X101112171Y-58297780D01*
X100998051Y-58231893D01*
X100998053Y-58231893D01*
X100948661Y-58218659D01*
X100870754Y-58197784D01*
X100738970Y-58197784D01*
X100661062Y-58218659D01*
X100611671Y-58231893D01*
X100497552Y-58297780D01*
X100404358Y-58390974D01*
X100338471Y-58505093D01*
X100338470Y-58505098D01*
X100304362Y-58632392D01*
X97970500Y-58632392D01*
X97970500Y-57648115D01*
X110592000Y-57648115D01*
X110592000Y-57779899D01*
X110622079Y-57892158D01*
X110626109Y-57907197D01*
X110691996Y-58021316D01*
X110691998Y-58021318D01*
X110692000Y-58021321D01*
X110785186Y-58114507D01*
X110785188Y-58114508D01*
X110785190Y-58114510D01*
X110899310Y-58180397D01*
X110899308Y-58180397D01*
X110899312Y-58180398D01*
X110899314Y-58180399D01*
X111026608Y-58214507D01*
X111026610Y-58214507D01*
X111158390Y-58214507D01*
X111158392Y-58214507D01*
X111285686Y-58180399D01*
X111285688Y-58180397D01*
X111285690Y-58180397D01*
X111399809Y-58114510D01*
X111399809Y-58114509D01*
X111399814Y-58114507D01*
X111493000Y-58021321D01*
X111558892Y-57907193D01*
X111593000Y-57779899D01*
X111593000Y-57648115D01*
X111558892Y-57520821D01*
X111558890Y-57520818D01*
X111558890Y-57520816D01*
X111493003Y-57406697D01*
X111493001Y-57406695D01*
X111493000Y-57406693D01*
X111399814Y-57313507D01*
X111399811Y-57313505D01*
X111399809Y-57313503D01*
X111285689Y-57247616D01*
X111285691Y-57247616D01*
X111236299Y-57234382D01*
X111158392Y-57213507D01*
X111026608Y-57213507D01*
X110948700Y-57234382D01*
X110899309Y-57247616D01*
X110785190Y-57313503D01*
X110691996Y-57406697D01*
X110626109Y-57520816D01*
X110607039Y-57591985D01*
X110592000Y-57648115D01*
X97970500Y-57648115D01*
X97970500Y-55365634D01*
X98650000Y-55365634D01*
X98650000Y-55634365D01*
X98685075Y-55900785D01*
X98685075Y-55900790D01*
X98754627Y-56160364D01*
X98857463Y-56408632D01*
X98991832Y-56641366D01*
X99084417Y-56762025D01*
X99584727Y-56261715D01*
X99670278Y-56379466D01*
X99820534Y-56529722D01*
X99938282Y-56615270D01*
X99437972Y-57115581D01*
X99558633Y-57208167D01*
X99791367Y-57342536D01*
X100039635Y-57445372D01*
X100299211Y-57514924D01*
X100565634Y-57549999D01*
X100565637Y-57550000D01*
X100834363Y-57550000D01*
X100834365Y-57549999D01*
X100883942Y-57543473D01*
X101100785Y-57514924D01*
X101100790Y-57514924D01*
X101360364Y-57445372D01*
X101608632Y-57342536D01*
X101841362Y-57208170D01*
X101962025Y-57115580D01*
X101461716Y-56615271D01*
X101579466Y-56529722D01*
X101729722Y-56379466D01*
X101815271Y-56261716D01*
X102315580Y-56762025D01*
X102408170Y-56641362D01*
X102529886Y-56430542D01*
X104033924Y-56430542D01*
X104033924Y-56562326D01*
X104055103Y-56641366D01*
X104068033Y-56689624D01*
X104133920Y-56803743D01*
X104133922Y-56803745D01*
X104133924Y-56803748D01*
X104227110Y-56896934D01*
X104227112Y-56896935D01*
X104227114Y-56896937D01*
X104341234Y-56962824D01*
X104341232Y-56962824D01*
X104341236Y-56962825D01*
X104341238Y-56962826D01*
X104468532Y-56996934D01*
X104468534Y-56996934D01*
X104600314Y-56996934D01*
X104600316Y-56996934D01*
X104727610Y-56962826D01*
X104727612Y-56962824D01*
X104727614Y-56962824D01*
X104841733Y-56896937D01*
X104841733Y-56896936D01*
X104841738Y-56896934D01*
X104934924Y-56803748D01*
X104965324Y-56751094D01*
X105000814Y-56689624D01*
X105000814Y-56689622D01*
X105000816Y-56689620D01*
X105004972Y-56674108D01*
X106169500Y-56674108D01*
X106169500Y-56805892D01*
X106181157Y-56849396D01*
X106203609Y-56933190D01*
X106269496Y-57047309D01*
X106269498Y-57047311D01*
X106269500Y-57047314D01*
X106362686Y-57140500D01*
X106362688Y-57140501D01*
X106362690Y-57140503D01*
X106476810Y-57206390D01*
X106476808Y-57206390D01*
X106476812Y-57206391D01*
X106476814Y-57206392D01*
X106604108Y-57240500D01*
X106604110Y-57240500D01*
X106735890Y-57240500D01*
X106735892Y-57240500D01*
X106863186Y-57206392D01*
X106863188Y-57206390D01*
X106863190Y-57206390D01*
X106977309Y-57140503D01*
X106977309Y-57140502D01*
X106977314Y-57140500D01*
X107070500Y-57047314D01*
X107135119Y-56935389D01*
X107180588Y-56894450D01*
X107241438Y-56888054D01*
X107270355Y-56899155D01*
X107386810Y-56966390D01*
X107386808Y-56966390D01*
X107386812Y-56966391D01*
X107386814Y-56966392D01*
X107514108Y-57000500D01*
X107514110Y-57000500D01*
X107645890Y-57000500D01*
X107645892Y-57000500D01*
X107773186Y-56966392D01*
X107773188Y-56966390D01*
X107773190Y-56966390D01*
X107887309Y-56900503D01*
X107887309Y-56900502D01*
X107887314Y-56900500D01*
X107980500Y-56807314D01*
X108046392Y-56693186D01*
X108080500Y-56565892D01*
X108080500Y-56476190D01*
X109590500Y-56476190D01*
X109590500Y-56607974D01*
X109616110Y-56703552D01*
X109624609Y-56735272D01*
X109690496Y-56849391D01*
X109690498Y-56849393D01*
X109690500Y-56849396D01*
X109783686Y-56942582D01*
X109783688Y-56942583D01*
X109783690Y-56942585D01*
X109897810Y-57008472D01*
X109897808Y-57008472D01*
X109897812Y-57008473D01*
X109897814Y-57008474D01*
X110025108Y-57042582D01*
X110025110Y-57042582D01*
X110156890Y-57042582D01*
X110156892Y-57042582D01*
X110284186Y-57008474D01*
X110284188Y-57008472D01*
X110284190Y-57008472D01*
X110398309Y-56942585D01*
X110398309Y-56942584D01*
X110398314Y-56942582D01*
X110491500Y-56849396D01*
X110491503Y-56849391D01*
X110557390Y-56735272D01*
X110557390Y-56735270D01*
X110557392Y-56735268D01*
X110591500Y-56607974D01*
X110591500Y-56476190D01*
X110562237Y-56366977D01*
X111398185Y-56366977D01*
X111398185Y-56498761D01*
X111415217Y-56562326D01*
X111432294Y-56626059D01*
X111498181Y-56740178D01*
X111498183Y-56740180D01*
X111498185Y-56740183D01*
X111591371Y-56833369D01*
X111591373Y-56833370D01*
X111591375Y-56833372D01*
X111705495Y-56899259D01*
X111705493Y-56899259D01*
X111705497Y-56899260D01*
X111705499Y-56899261D01*
X111832793Y-56933369D01*
X111832795Y-56933369D01*
X111964575Y-56933369D01*
X111964577Y-56933369D01*
X112091871Y-56899261D01*
X112091873Y-56899259D01*
X112091875Y-56899259D01*
X112205994Y-56833372D01*
X112205994Y-56833371D01*
X112205999Y-56833369D01*
X112208522Y-56830846D01*
X113759895Y-56830846D01*
X113759895Y-56962630D01*
X113782585Y-57047312D01*
X113794004Y-57089928D01*
X113859891Y-57204047D01*
X113859893Y-57204049D01*
X113859895Y-57204052D01*
X113953081Y-57297238D01*
X113953083Y-57297239D01*
X113953085Y-57297241D01*
X114067205Y-57363128D01*
X114067203Y-57363128D01*
X114067207Y-57363129D01*
X114067209Y-57363130D01*
X114194503Y-57397238D01*
X114194505Y-57397238D01*
X114326285Y-57397238D01*
X114326287Y-57397238D01*
X114453581Y-57363130D01*
X114453583Y-57363128D01*
X114453585Y-57363128D01*
X114567704Y-57297241D01*
X114567704Y-57297240D01*
X114567709Y-57297238D01*
X114660895Y-57204052D01*
X114726787Y-57089924D01*
X114742703Y-57030523D01*
X114776024Y-56979213D01*
X114833145Y-56957285D01*
X114892246Y-56973120D01*
X114908326Y-56986140D01*
X114912686Y-56990500D01*
X114912688Y-56990501D01*
X114912690Y-56990503D01*
X115026810Y-57056390D01*
X115026808Y-57056390D01*
X115026812Y-57056391D01*
X115026814Y-57056392D01*
X115154108Y-57090500D01*
X115154110Y-57090500D01*
X115285890Y-57090500D01*
X115285892Y-57090500D01*
X115413186Y-57056392D01*
X115413188Y-57056390D01*
X115413190Y-57056390D01*
X115496182Y-57008474D01*
X115527314Y-56990500D01*
X115620500Y-56897314D01*
X115620718Y-56896937D01*
X115686390Y-56783190D01*
X115686390Y-56783188D01*
X115686392Y-56783186D01*
X115720500Y-56655892D01*
X115720500Y-56524108D01*
X115686392Y-56396814D01*
X115686390Y-56396811D01*
X115686390Y-56396809D01*
X115620503Y-56282690D01*
X115620501Y-56282688D01*
X115620500Y-56282686D01*
X115527314Y-56189500D01*
X115527311Y-56189498D01*
X115527309Y-56189496D01*
X115413189Y-56123609D01*
X115413191Y-56123609D01*
X115363799Y-56110375D01*
X115285892Y-56089500D01*
X115154108Y-56089500D01*
X115076200Y-56110375D01*
X115026809Y-56123609D01*
X114912690Y-56189496D01*
X114819496Y-56282690D01*
X114753609Y-56396809D01*
X114753608Y-56396814D01*
X114739820Y-56448274D01*
X114737693Y-56456211D01*
X114704369Y-56507526D01*
X114647247Y-56529452D01*
X114588147Y-56513616D01*
X114572067Y-56500596D01*
X114567709Y-56496238D01*
X114567706Y-56496236D01*
X114567704Y-56496234D01*
X114453584Y-56430347D01*
X114453586Y-56430347D01*
X114372542Y-56408632D01*
X114326287Y-56396238D01*
X114194503Y-56396238D01*
X114148248Y-56408632D01*
X114067204Y-56430347D01*
X113953085Y-56496234D01*
X113859891Y-56589428D01*
X113794004Y-56703547D01*
X113794003Y-56703552D01*
X113759895Y-56830846D01*
X112208522Y-56830846D01*
X112299185Y-56740183D01*
X112320337Y-56703547D01*
X112365075Y-56626059D01*
X112365075Y-56626057D01*
X112365077Y-56626055D01*
X112399185Y-56498761D01*
X112399185Y-56366977D01*
X112365077Y-56239683D01*
X112365075Y-56239680D01*
X112365075Y-56239678D01*
X112299188Y-56125559D01*
X112299186Y-56125557D01*
X112299185Y-56125555D01*
X112205999Y-56032369D01*
X112205996Y-56032367D01*
X112205994Y-56032365D01*
X112091874Y-55966478D01*
X112091876Y-55966478D01*
X112042484Y-55953244D01*
X111964577Y-55932369D01*
X111832793Y-55932369D01*
X111754885Y-55953244D01*
X111705494Y-55966478D01*
X111591375Y-56032365D01*
X111498181Y-56125559D01*
X111432294Y-56239678D01*
X111420770Y-56282686D01*
X111398185Y-56366977D01*
X110562237Y-56366977D01*
X110557392Y-56348896D01*
X110557390Y-56348893D01*
X110557390Y-56348891D01*
X110491503Y-56234772D01*
X110491501Y-56234770D01*
X110491500Y-56234768D01*
X110398314Y-56141582D01*
X110398311Y-56141580D01*
X110398309Y-56141578D01*
X110284189Y-56075691D01*
X110284191Y-56075691D01*
X110234799Y-56062457D01*
X110156892Y-56041582D01*
X110025108Y-56041582D01*
X109947200Y-56062457D01*
X109897809Y-56075691D01*
X109783690Y-56141578D01*
X109690496Y-56234772D01*
X109624609Y-56348891D01*
X109608603Y-56408628D01*
X109590500Y-56476190D01*
X108080500Y-56476190D01*
X108080500Y-56434108D01*
X108046392Y-56306814D01*
X108046390Y-56306811D01*
X108046390Y-56306809D01*
X107980503Y-56192690D01*
X107980501Y-56192688D01*
X107980500Y-56192686D01*
X107887314Y-56099500D01*
X107887311Y-56099498D01*
X107887309Y-56099496D01*
X107773189Y-56033609D01*
X107773191Y-56033609D01*
X107723799Y-56020375D01*
X107645892Y-55999500D01*
X107514108Y-55999500D01*
X107436200Y-56020375D01*
X107386809Y-56033609D01*
X107272690Y-56099496D01*
X107179498Y-56192688D01*
X107114880Y-56304609D01*
X107069410Y-56345549D01*
X107008560Y-56351944D01*
X106979644Y-56340845D01*
X106863187Y-56273608D01*
X106820754Y-56262238D01*
X106735892Y-56239500D01*
X106604108Y-56239500D01*
X106526200Y-56260375D01*
X106476809Y-56273609D01*
X106362690Y-56339496D01*
X106269496Y-56432690D01*
X106203609Y-56546809D01*
X106198496Y-56565892D01*
X106169500Y-56674108D01*
X105004972Y-56674108D01*
X105034924Y-56562326D01*
X105034924Y-56430542D01*
X105000816Y-56303248D01*
X105000814Y-56303245D01*
X105000814Y-56303243D01*
X104934927Y-56189124D01*
X104934925Y-56189122D01*
X104934924Y-56189120D01*
X104841738Y-56095934D01*
X104841735Y-56095932D01*
X104841733Y-56095930D01*
X104727613Y-56030043D01*
X104727615Y-56030043D01*
X104678223Y-56016809D01*
X104600316Y-55995934D01*
X104468532Y-55995934D01*
X104390624Y-56016809D01*
X104341233Y-56030043D01*
X104227114Y-56095930D01*
X104133920Y-56189124D01*
X104068033Y-56303243D01*
X104055802Y-56348891D01*
X104033924Y-56430542D01*
X102529886Y-56430542D01*
X102542538Y-56408628D01*
X102551837Y-56386179D01*
X102551842Y-56386167D01*
X102645372Y-56160364D01*
X102714924Y-55900790D01*
X102714924Y-55900785D01*
X102749999Y-55634365D01*
X102750000Y-55634363D01*
X102750000Y-55365637D01*
X102749999Y-55365634D01*
X122650000Y-55365634D01*
X122650000Y-55634365D01*
X122685075Y-55900785D01*
X122685075Y-55900790D01*
X122754627Y-56160364D01*
X122857463Y-56408632D01*
X122991832Y-56641366D01*
X123084417Y-56762025D01*
X123584727Y-56261715D01*
X123670278Y-56379466D01*
X123820534Y-56529722D01*
X123938282Y-56615270D01*
X123437972Y-57115581D01*
X123558633Y-57208167D01*
X123791367Y-57342536D01*
X124039635Y-57445372D01*
X124299211Y-57514924D01*
X124565634Y-57549999D01*
X124565637Y-57550000D01*
X124834363Y-57550000D01*
X124834365Y-57549999D01*
X125100785Y-57514924D01*
X125100790Y-57514924D01*
X125360364Y-57445372D01*
X125608632Y-57342536D01*
X125841362Y-57208170D01*
X125962025Y-57115580D01*
X125461716Y-56615271D01*
X125579466Y-56529722D01*
X125729722Y-56379466D01*
X125815271Y-56261716D01*
X126315580Y-56762025D01*
X126408170Y-56641362D01*
X126542536Y-56408632D01*
X126645372Y-56160364D01*
X126714924Y-55900790D01*
X126714924Y-55900785D01*
X126749999Y-55634365D01*
X126750000Y-55634363D01*
X126750000Y-55365637D01*
X126749999Y-55365634D01*
X126714924Y-55099214D01*
X126714924Y-55099209D01*
X126645372Y-54839635D01*
X126542536Y-54591367D01*
X126408167Y-54358633D01*
X126315580Y-54237972D01*
X125815270Y-54738281D01*
X125729722Y-54620534D01*
X125579466Y-54470278D01*
X125461715Y-54384727D01*
X125962026Y-53884417D01*
X125841366Y-53791832D01*
X125608632Y-53657463D01*
X125360364Y-53554627D01*
X125100788Y-53485075D01*
X124834365Y-53450000D01*
X124565634Y-53450000D01*
X124299214Y-53485075D01*
X124299209Y-53485075D01*
X124039635Y-53554627D01*
X123791367Y-53657463D01*
X123558630Y-53791834D01*
X123437972Y-53884417D01*
X123938283Y-54384728D01*
X123820534Y-54470278D01*
X123670278Y-54620534D01*
X123584728Y-54738283D01*
X123084417Y-54237972D01*
X122991834Y-54358630D01*
X122857463Y-54591367D01*
X122754627Y-54839635D01*
X122685075Y-55099209D01*
X122685075Y-55099214D01*
X122650000Y-55365634D01*
X102749999Y-55365634D01*
X102714924Y-55099214D01*
X102714924Y-55099209D01*
X102645372Y-54839635D01*
X102542536Y-54591367D01*
X102476575Y-54477119D01*
X102451743Y-54434108D01*
X108214500Y-54434108D01*
X108214500Y-54565892D01*
X108232121Y-54631654D01*
X108248609Y-54693190D01*
X108314496Y-54807309D01*
X108314498Y-54807311D01*
X108314500Y-54807314D01*
X108407686Y-54900500D01*
X108407688Y-54900501D01*
X108407690Y-54900503D01*
X108521810Y-54966390D01*
X108521808Y-54966390D01*
X108521812Y-54966391D01*
X108521814Y-54966392D01*
X108649108Y-55000500D01*
X108649110Y-55000500D01*
X108780890Y-55000500D01*
X108780892Y-55000500D01*
X108908186Y-54966392D01*
X108908188Y-54966390D01*
X108908190Y-54966390D01*
X109022309Y-54900503D01*
X109022309Y-54900502D01*
X109022314Y-54900500D01*
X109115500Y-54807314D01*
X109160152Y-54729975D01*
X109181390Y-54693190D01*
X109181390Y-54693188D01*
X109181392Y-54693186D01*
X109215500Y-54565892D01*
X109215500Y-54434108D01*
X110909500Y-54434108D01*
X110909500Y-54565892D01*
X110927121Y-54631654D01*
X110943609Y-54693190D01*
X111009496Y-54807309D01*
X111009498Y-54807311D01*
X111009500Y-54807314D01*
X111102686Y-54900500D01*
X111102688Y-54900501D01*
X111102690Y-54900503D01*
X111216810Y-54966390D01*
X111216808Y-54966390D01*
X111216812Y-54966391D01*
X111216814Y-54966392D01*
X111344108Y-55000500D01*
X111344110Y-55000500D01*
X111475890Y-55000500D01*
X111475892Y-55000500D01*
X111603186Y-54966392D01*
X111603188Y-54966390D01*
X111603190Y-54966390D01*
X111717309Y-54900503D01*
X111717309Y-54900502D01*
X111717314Y-54900500D01*
X111810500Y-54807314D01*
X111855152Y-54729975D01*
X111876390Y-54693190D01*
X111876390Y-54693188D01*
X111876392Y-54693186D01*
X111910500Y-54565892D01*
X111910500Y-54434108D01*
X111876392Y-54306814D01*
X111876390Y-54306811D01*
X111876390Y-54306809D01*
X111810503Y-54192690D01*
X111810501Y-54192688D01*
X111810500Y-54192686D01*
X111717314Y-54099500D01*
X111717311Y-54099498D01*
X111717309Y-54099496D01*
X111603189Y-54033609D01*
X111603191Y-54033609D01*
X111582252Y-54027999D01*
X111475892Y-53999500D01*
X111344108Y-53999500D01*
X111273833Y-54018330D01*
X111216809Y-54033609D01*
X111102690Y-54099496D01*
X111009496Y-54192690D01*
X110943609Y-54306809D01*
X110943608Y-54306814D01*
X110909500Y-54434108D01*
X109215500Y-54434108D01*
X109181392Y-54306814D01*
X109181390Y-54306811D01*
X109181390Y-54306809D01*
X109115503Y-54192690D01*
X109115501Y-54192688D01*
X109115500Y-54192686D01*
X109022314Y-54099500D01*
X109022311Y-54099498D01*
X109022309Y-54099496D01*
X108908189Y-54033609D01*
X108908191Y-54033609D01*
X108851167Y-54018330D01*
X108780892Y-53999500D01*
X108649108Y-53999500D01*
X108578833Y-54018330D01*
X108521809Y-54033609D01*
X108407690Y-54099496D01*
X108314496Y-54192690D01*
X108248609Y-54306809D01*
X108248608Y-54306814D01*
X108214500Y-54434108D01*
X102451743Y-54434108D01*
X102408167Y-54358633D01*
X102315580Y-54237972D01*
X101815270Y-54738281D01*
X101729722Y-54620534D01*
X101579466Y-54470278D01*
X101461715Y-54384727D01*
X101962026Y-53884417D01*
X101841366Y-53791832D01*
X101608632Y-53657463D01*
X101360364Y-53554627D01*
X101100788Y-53485075D01*
X100834365Y-53450000D01*
X100565634Y-53450000D01*
X100299214Y-53485075D01*
X100299209Y-53485075D01*
X100039635Y-53554627D01*
X99791367Y-53657463D01*
X99558630Y-53791834D01*
X99437972Y-53884417D01*
X99938283Y-54384728D01*
X99820534Y-54470278D01*
X99670278Y-54620534D01*
X99584728Y-54738283D01*
X99084417Y-54237972D01*
X98991834Y-54358630D01*
X98857463Y-54591367D01*
X98754627Y-54839635D01*
X98685075Y-55099209D01*
X98685075Y-55099214D01*
X98650000Y-55365634D01*
X97970500Y-55365634D01*
X97970500Y-55202984D01*
X97970681Y-55197007D01*
X97972893Y-55160438D01*
X97987633Y-54916742D01*
X97989072Y-54904891D01*
X98039146Y-54631647D01*
X98042006Y-54620047D01*
X98086544Y-54477119D01*
X98124648Y-54354837D01*
X98128879Y-54343679D01*
X98242895Y-54090346D01*
X98248444Y-54079775D01*
X98392166Y-53842029D01*
X98398930Y-53832230D01*
X98570257Y-53613547D01*
X98578169Y-53604615D01*
X98774615Y-53408169D01*
X98783547Y-53400257D01*
X99002230Y-53228930D01*
X99012040Y-53222159D01*
X99249775Y-53078444D01*
X99260346Y-53072895D01*
X99513679Y-52958879D01*
X99524837Y-52954648D01*
X99790049Y-52872005D01*
X99801647Y-52869146D01*
X100074891Y-52819072D01*
X100086742Y-52817633D01*
X100367009Y-52800681D01*
X100372986Y-52800500D01*
X100417595Y-52800500D01*
X124922405Y-52800500D01*
X124967015Y-52800500D01*
X124972992Y-52800681D01*
G37*
%TD.AperFunction*%
%TD*%
M02*
