%TF.GenerationSoftware,KiCad,Pcbnew,10.0.3*%
%TF.CreationDate,2026-06-06T22:20:31-05:00*%
%TF.ProjectId,Flight Computer,466c6967-6874-4204-936f-6d7075746572,rev?*%
%TF.SameCoordinates,Original*%
%TF.FileFunction,Soldermask,Top*%
%TF.FilePolarity,Negative*%
%FSLAX46Y46*%
G04 Gerber Fmt 4.6, Leading zero omitted, Abs format (unit mm)*
G04 Created by KiCad (PCBNEW 10.0.3) date 2026-06-06 22:20:31*
%MOMM*%
%LPD*%
G01*
G04 APERTURE LIST*
G04 Aperture macros list*
%AMRoundRect*
0 Rectangle with rounded corners*
0 $1 Rounding radius*
0 $2 $3 $4 $5 $6 $7 $8 $9 X,Y pos of 4 corners*
0 Add a 4 corners polygon primitive as box body*
4,1,4,$2,$3,$4,$5,$6,$7,$8,$9,$2,$3,0*
0 Add four circle primitives for the rounded corners*
1,1,$1+$1,$2,$3*
1,1,$1+$1,$4,$5*
1,1,$1+$1,$6,$7*
1,1,$1+$1,$8,$9*
0 Add four rect primitives between the rounded corners*
20,1,$1+$1,$2,$3,$4,$5,0*
20,1,$1+$1,$4,$5,$6,$7,0*
20,1,$1+$1,$6,$7,$8,$9,0*
20,1,$1+$1,$8,$9,$2,$3,0*%
G04 Aperture macros list end*
%ADD10RoundRect,0.050800X-0.350000X0.350000X-0.350000X-0.350000X0.350000X-0.350000X0.350000X0.350000X0*%
%ADD11C,1.601600*%
%ADD12RoundRect,0.262900X-0.262900X0.275400X-0.262900X-0.275400X0.262900X-0.275400X0.262900X0.275400X0*%
%ADD13RoundRect,0.262900X-0.262900X0.325400X-0.262900X-0.325400X0.262900X-0.325400X0.262900X0.325400X0*%
%ADD14C,3.201600*%
%ADD15C,5.501600*%
%ADD16C,0.351600*%
%ADD17RoundRect,0.262900X-0.325400X-0.262900X0.325400X-0.262900X0.325400X0.262900X-0.325400X0.262900X0*%
%ADD18C,1.500000*%
%ADD19RoundRect,0.150400X-0.150400X0.175400X-0.150400X-0.175400X0.150400X-0.175400X0.150400X0.175400X0*%
%ADD20RoundRect,0.262900X-0.275400X-0.262900X0.275400X-0.262900X0.275400X0.262900X-0.275400X0.262900X0*%
%ADD21RoundRect,0.175400X-0.537900X-0.175400X0.537900X-0.175400X0.537900X0.175400X-0.537900X0.175400X0*%
%ADD22RoundRect,0.262900X0.262900X-0.275400X0.262900X0.275400X-0.262900X0.275400X-0.262900X-0.275400X0*%
%ADD23RoundRect,0.000001X-0.750000X0.900000X-0.750000X-0.900000X0.750000X-0.900000X0.750000X0.900000X0*%
%ADD24RoundRect,0.000001X-0.900000X0.750000X-0.900000X-0.750000X0.900000X-0.750000X0.900000X0.750000X0*%
%ADD25RoundRect,0.261545X-0.889255X0.889255X-0.889255X-0.889255X0.889255X-0.889255X0.889255X0.889255X0*%
%ADD26C,2.301600*%
%ADD27RoundRect,0.175400X-0.650400X0.175400X-0.650400X-0.175400X0.650400X-0.175400X0.650400X0.175400X0*%
%ADD28RoundRect,0.271166X-0.679634X0.379634X-0.679634X-0.379634X0.679634X-0.379634X0.679634X0.379634X0*%
%ADD29C,0.751600*%
%ADD30RoundRect,0.175400X-0.450400X0.175400X-0.450400X-0.175400X0.450400X-0.175400X0.450400X0.175400X0*%
%ADD31RoundRect,0.100400X-0.525400X0.100400X-0.525400X-0.100400X0.525400X-0.100400X0.525400X0.100400X0*%
%ADD32O,2.201600X1.101600*%
%ADD33O,1.901600X1.101600*%
%ADD34RoundRect,0.261545X0.889255X-0.889255X0.889255X0.889255X-0.889255X0.889255X-0.889255X-0.889255X0*%
%ADD35RoundRect,0.165240X-0.385560X0.485560X-0.385560X-0.485560X0.385560X-0.485560X0.385560X0.485560X0*%
%ADD36RoundRect,0.187900X0.187900X-0.675400X0.187900X0.675400X-0.187900X0.675400X-0.187900X-0.675400X0*%
%ADD37RoundRect,0.112900X-0.250400X-0.112900X0.250400X-0.112900X0.250400X0.112900X-0.250400X0.112900X0*%
%ADD38RoundRect,0.112900X-0.112900X-0.250400X0.112900X-0.250400X0.112900X0.250400X-0.112900X0.250400X0*%
%ADD39RoundRect,0.262900X-0.262900X0.312900X-0.262900X-0.312900X0.262900X-0.312900X0.262900X0.312900X0*%
%ADD40RoundRect,0.050800X0.850000X0.850000X-0.850000X0.850000X-0.850000X-0.850000X0.850000X-0.850000X0*%
%ADD41C,1.801600*%
%ADD42RoundRect,0.262900X0.262900X-0.325400X0.262900X0.325400X-0.262900X0.325400X-0.262900X-0.325400X0*%
%ADD43RoundRect,0.202740X-0.473060X-1.348060X0.473060X-1.348060X0.473060X1.348060X-0.473060X1.348060X0*%
%ADD44RoundRect,0.262900X0.312900X0.262900X-0.312900X0.262900X-0.312900X-0.262900X0.312900X-0.262900X0*%
%ADD45RoundRect,0.262900X0.275400X0.262900X-0.275400X0.262900X-0.275400X-0.262900X0.275400X-0.262900X0*%
%ADD46RoundRect,0.050800X-0.275000X0.475000X-0.275000X-0.475000X0.275000X-0.475000X0.275000X0.475000X0*%
%ADD47RoundRect,0.202740X1.348060X-0.473060X1.348060X0.473060X-1.348060X0.473060X-1.348060X-0.473060X0*%
%ADD48RoundRect,0.268815X-0.456985X-1.631985X0.456985X-1.631985X0.456985X1.631985X-0.456985X1.631985X0*%
G04 APERTURE END LIST*
D10*
%TO.C,D402*%
X108881000Y-93047800D03*
X107781000Y-93047800D03*
X107781000Y-94877800D03*
X108881000Y-94877800D03*
%TD*%
D11*
%TO.C,TP401*%
X111607600Y-99263200D03*
%TD*%
D12*
%TO.C,R605*%
X112877600Y-88647900D03*
X112877600Y-90472900D03*
%TD*%
D13*
%TO.C,C302*%
X112220000Y-84957499D03*
X112220000Y-86682501D03*
%TD*%
D11*
%TO.C,TP101*%
X108077000Y-110490000D03*
%TD*%
%TO.C,TP402*%
X112674400Y-96418400D03*
%TD*%
D14*
%TO.C,H404*%
X124700000Y-109500000D03*
D15*
X124700000Y-109500000D03*
%TD*%
D11*
%TO.C,TP102*%
X118237000Y-110490000D03*
%TD*%
%TO.C,TP404*%
X108915200Y-87376000D03*
%TD*%
D13*
%TO.C,C402*%
X110506600Y-94880000D03*
X110506600Y-96605000D03*
%TD*%
D16*
%TO.C,U303*%
X117800000Y-76100000D03*
X118200000Y-76100000D03*
X117800000Y-76500000D03*
X118200000Y-76500000D03*
%TD*%
D13*
%TO.C,C401*%
X110506600Y-91272100D03*
X110506600Y-92997100D03*
%TD*%
D12*
%TO.C,R606*%
X112877600Y-92051500D03*
X112877600Y-93876500D03*
%TD*%
D14*
%TO.C,H401*%
X100700000Y-55500000D03*
D15*
X100700000Y-55500000D03*
%TD*%
D17*
%TO.C,C304*%
X117807400Y-78638400D03*
X119532400Y-78638400D03*
%TD*%
D18*
%TO.C,FID406*%
X105500000Y-109250000D03*
%TD*%
D19*
%TO.C,SW401*%
X123082000Y-85543000D03*
X122282000Y-85543000D03*
X123082000Y-88193000D03*
X122282000Y-88193000D03*
%TD*%
D20*
%TO.C,R603*%
X114862600Y-99110800D03*
X116687600Y-99110800D03*
%TD*%
D10*
%TO.C,D403*%
X108881000Y-89441000D03*
X107781000Y-89441000D03*
X107781000Y-91271000D03*
X108881000Y-91271000D03*
%TD*%
D21*
%TO.C,Q603*%
X114889700Y-90540800D03*
X114889700Y-92440800D03*
X117164700Y-91490800D03*
%TD*%
D22*
%TO.C,R404*%
X106934000Y-78536800D03*
X106934000Y-76711800D03*
%TD*%
%TO.C,R613*%
X109067600Y-103425000D03*
X109067600Y-101600000D03*
%TD*%
D23*
%TO.C,U301*%
X114230000Y-60180000D03*
X112330000Y-60180000D03*
X110430000Y-60180000D03*
X108530000Y-60180000D03*
X106630000Y-60180000D03*
D24*
X103830000Y-62980000D03*
X103830000Y-64880000D03*
X103830000Y-66780000D03*
X103830000Y-68680000D03*
X103830000Y-70580000D03*
D23*
X106630000Y-73380000D03*
X108530000Y-73380000D03*
X110430000Y-73380000D03*
X112330000Y-73380000D03*
X114230000Y-73380000D03*
D24*
X117030000Y-70580000D03*
X117030000Y-68680000D03*
X117030000Y-66780000D03*
X117030000Y-64880000D03*
X117030000Y-62980000D03*
%TD*%
D25*
%TO.C,J404*%
X101640000Y-96580000D03*
D26*
X101640000Y-99120000D03*
X101640000Y-101659999D03*
X101640000Y-104200000D03*
%TD*%
D19*
%TO.C,SW402*%
X126384000Y-85543000D03*
X125584000Y-85543000D03*
X126384000Y-88193000D03*
X125584000Y-88193000D03*
%TD*%
D11*
%TO.C,TP403*%
X107492800Y-84582000D03*
%TD*%
D27*
%TO.C,J408*%
X102940000Y-77375000D03*
X102940000Y-78375000D03*
X102940000Y-79375000D03*
X102940000Y-80375000D03*
D28*
X99065000Y-76075000D03*
X99065000Y-81675000D03*
%TD*%
D29*
%TO.C,J402*%
X103955000Y-85863000D03*
X103955000Y-91643000D03*
D30*
X105030000Y-85553000D03*
X105030000Y-86353000D03*
D31*
X105029999Y-87503000D03*
X105030000Y-88503000D03*
X105030000Y-89003000D03*
X105029999Y-90003000D03*
D30*
X105030000Y-91153000D03*
X105030000Y-91953000D03*
X105030000Y-91953000D03*
X105030000Y-91153000D03*
D31*
X105030000Y-90503000D03*
X105030000Y-89503000D03*
X105030000Y-88003000D03*
X105030000Y-87003000D03*
D30*
X105030000Y-86353000D03*
X105030000Y-85553000D03*
D32*
X104455000Y-84433000D03*
D33*
X100275000Y-84433000D03*
D32*
X104455000Y-93073000D03*
D33*
X100275000Y-93073000D03*
%TD*%
D34*
%TO.C,J403*%
X123700000Y-104200000D03*
D26*
X123700000Y-101660000D03*
X123700000Y-99120001D03*
X123700000Y-96580000D03*
X123700000Y-94040000D03*
X123700000Y-91500000D03*
%TD*%
D35*
%TO.C,BZ401*%
X125476000Y-63216000D03*
X125476000Y-65816000D03*
%TD*%
D36*
%TO.C,U202*%
X120573800Y-75723500D03*
X121843800Y-75723500D03*
X123113800Y-75723500D03*
X124383800Y-75723500D03*
X124383800Y-68548500D03*
X123113800Y-68548500D03*
X121843800Y-68548500D03*
X120573800Y-68548500D03*
%TD*%
D37*
%TO.C,U302*%
X111507500Y-81750000D03*
X111507500Y-82250000D03*
X111507500Y-82750000D03*
X111507500Y-83250000D03*
D38*
X112170000Y-83412500D03*
X112670000Y-83412500D03*
X113170000Y-83412500D03*
D37*
X113832500Y-83250000D03*
X113832500Y-82750000D03*
X113832500Y-82250000D03*
X113832500Y-81750000D03*
D38*
X113170000Y-81587500D03*
X112670000Y-81587500D03*
X112170000Y-81587500D03*
%TD*%
D17*
%TO.C,C301*%
X115327500Y-83270000D03*
X117052500Y-83270000D03*
%TD*%
D39*
%TO.C,D406*%
X106934000Y-80406900D03*
X106934000Y-82156900D03*
%TD*%
D14*
%TO.C,H403*%
X100700000Y-109500000D03*
D15*
X100700000Y-109500000D03*
%TD*%
D40*
%TO.C,J401*%
X100330000Y-72898000D03*
D41*
X100330000Y-70358000D03*
X100330000Y-67818000D03*
X100330000Y-65278000D03*
X100330000Y-62738000D03*
%TD*%
D42*
%TO.C,C305*%
X119227600Y-83718400D03*
X119227600Y-81993400D03*
%TD*%
D43*
%TO.C,J406*%
X115470000Y-54350000D03*
X118010000Y-54350000D03*
X120550000Y-54350000D03*
%TD*%
D14*
%TO.C,H402*%
X124700000Y-55500000D03*
D15*
X124700000Y-55500000D03*
%TD*%
D44*
%TO.C,D101*%
X112240000Y-110490000D03*
X110490000Y-110490000D03*
%TD*%
D45*
%TO.C,R101*%
X115951000Y-110490000D03*
X114126000Y-110490000D03*
%TD*%
D17*
%TO.C,C209*%
X120576000Y-66548000D03*
X122301000Y-66548000D03*
%TD*%
D46*
%TO.C,U304*%
X119230000Y-85540001D03*
X117980000Y-85540001D03*
X116730000Y-85540001D03*
X115480000Y-85540001D03*
X115480000Y-87690001D03*
X116730000Y-87690001D03*
X117980000Y-87690001D03*
X119230000Y-87690001D03*
%TD*%
D18*
%TO.C,FID405*%
X100330000Y-59791600D03*
%TD*%
D17*
%TO.C,C303*%
X112294500Y-58000000D03*
X114019500Y-58000000D03*
%TD*%
D18*
%TO.C,FID404*%
X126034800Y-59588400D03*
%TD*%
D45*
%TO.C,R610*%
X119227600Y-94843600D03*
X117402600Y-94843600D03*
%TD*%
D22*
%TO.C,R614*%
X109067600Y-100023300D03*
X109067600Y-98198300D03*
%TD*%
D47*
%TO.C,J405*%
X125560000Y-79040001D03*
X125560000Y-81580000D03*
X125560000Y-84120000D03*
%TD*%
D48*
%TO.C,J501*%
X106140000Y-54850000D03*
X111790000Y-54850000D03*
%TD*%
M02*
