%TF.GenerationSoftware,KiCad,Pcbnew,9.0.2*%
%TF.CreationDate,2025-06-05T09:54:10-05:00*%
%TF.ProjectId,Flight Computer v3,466c6967-6874-4204-936f-6d7075746572,rev?*%
%TF.SameCoordinates,Original*%
%TF.FileFunction,Soldermask,Bot*%
%TF.FilePolarity,Negative*%
%FSLAX46Y46*%
G04 Gerber Fmt 4.6, Leading zero omitted, Abs format (unit mm)*
G04 Created by KiCad (PCBNEW 9.0.2) date 2025-06-05 09:54:10*
%MOMM*%
%LPD*%
G01*
G04 APERTURE LIST*
G04 Aperture macros list*
%AMRoundRect*
0 Rectangle with rounded corners*
0 $1 Rounding radius*
0 $2 $3 $4 $5 $6 $7 $8 $9 X,Y pos of 4 corners*
0 Add a 4 corners polygon primitive as box body*
4,1,4,$2,$3,$4,$5,$6,$7,$8,$9,$2,$3,0*
0 Add four circle primitives for the rounded corners*
1,1,$1+$1,$2,$3*
1,1,$1+$1,$4,$5*
1,1,$1+$1,$6,$7*
1,1,$1+$1,$8,$9*
0 Add four rect primitives between the rounded corners*
20,1,$1+$1,$2,$3,$4,$5,0*
20,1,$1+$1,$4,$5,$6,$7,0*
20,1,$1+$1,$6,$7,$8,$9,0*
20,1,$1+$1,$8,$9,$2,$3,0*%
G04 Aperture macros list end*
%ADD10C,3.201600*%
%ADD11C,5.501600*%
%ADD12RoundRect,0.202740X-1.348060X0.473060X-1.348060X-0.473060X1.348060X-0.473060X1.348060X0.473060X0*%
%ADD13RoundRect,0.202740X-0.473060X-1.348060X0.473060X-1.348060X0.473060X1.348060X-0.473060X1.348060X0*%
%ADD14RoundRect,0.050800X-0.850000X0.850000X-0.850000X-0.850000X0.850000X-0.850000X0.850000X0.850000X0*%
%ADD15C,1.801600*%
%ADD16RoundRect,0.261545X0.889255X-0.889255X0.889255X0.889255X-0.889255X0.889255X-0.889255X-0.889255X0*%
%ADD17C,2.301600*%
%ADD18RoundRect,0.050800X-0.850000X-0.850000X0.850000X-0.850000X0.850000X0.850000X-0.850000X0.850000X0*%
%ADD19RoundRect,0.262900X-0.325400X-0.262900X0.325400X-0.262900X0.325400X0.262900X-0.325400X0.262900X0*%
%ADD20RoundRect,0.262900X0.325400X0.262900X-0.325400X0.262900X-0.325400X-0.262900X0.325400X-0.262900X0*%
%ADD21RoundRect,0.225400X0.035355X0.354119X-0.354119X-0.035355X-0.035355X-0.354119X0.354119X0.035355X0*%
%ADD22RoundRect,0.262900X0.044194X0.415991X-0.415991X-0.044194X-0.044194X-0.415991X0.415991X0.044194X0*%
%ADD23RoundRect,0.100400X-0.583929X0.441942X0.441942X-0.583929X0.583929X-0.441942X-0.441942X0.583929X0*%
%ADD24RoundRect,0.100400X-0.583929X-0.441942X-0.441942X-0.583929X0.583929X0.441942X0.441942X0.583929X0*%
%ADD25RoundRect,0.262900X-0.415991X0.044194X0.044194X-0.415991X0.415991X-0.044194X-0.044194X0.415991X0*%
%ADD26RoundRect,0.244150X0.244150X0.281650X-0.244150X0.281650X-0.244150X-0.281650X0.244150X-0.281650X0*%
%ADD27RoundRect,0.262900X-0.262900X0.325400X-0.262900X-0.325400X0.262900X-0.325400X0.262900X0.325400X0*%
%ADD28RoundRect,0.050800X0.114300X-0.127000X0.114300X0.127000X-0.114300X0.127000X-0.114300X-0.127000X0*%
%ADD29RoundRect,0.050800X0.127000X0.203200X-0.127000X0.203200X-0.127000X-0.203200X0.127000X-0.203200X0*%
%ADD30RoundRect,0.262900X-0.044194X-0.415991X0.415991X0.044194X0.044194X0.415991X-0.415991X-0.044194X0*%
%ADD31RoundRect,0.262900X-0.312900X-0.262900X0.312900X-0.262900X0.312900X0.262900X-0.312900X0.262900X0*%
%ADD32RoundRect,0.262900X0.415991X-0.044194X-0.044194X0.415991X-0.415991X0.044194X0.044194X-0.415991X0*%
%ADD33RoundRect,0.262900X0.275400X0.262900X-0.275400X0.262900X-0.275400X-0.262900X0.275400X-0.262900X0*%
%ADD34RoundRect,0.262900X0.312900X0.262900X-0.312900X0.262900X-0.312900X-0.262900X0.312900X-0.262900X0*%
%ADD35RoundRect,0.262900X0.262900X-0.275400X0.262900X0.275400X-0.262900X0.275400X-0.262900X-0.275400X0*%
%ADD36RoundRect,0.262900X-0.275400X-0.262900X0.275400X-0.262900X0.275400X0.262900X-0.275400X0.262900X0*%
%ADD37RoundRect,0.225400X-0.225400X0.275400X-0.225400X-0.275400X0.225400X-0.275400X0.225400X0.275400X0*%
%ADD38RoundRect,0.187900X-0.610445X0.344715X0.344715X-0.610445X0.610445X-0.344715X-0.344715X0.610445X0*%
%ADD39RoundRect,0.087900X0.375400X0.087900X-0.375400X0.087900X-0.375400X-0.087900X0.375400X-0.087900X0*%
%ADD40RoundRect,0.087900X0.087900X0.375400X-0.087900X0.375400X-0.087900X-0.375400X0.087900X-0.375400X0*%
%ADD41RoundRect,0.050800X1.350000X1.350000X-1.350000X1.350000X-1.350000X-1.350000X1.350000X-1.350000X0*%
%ADD42RoundRect,0.262900X0.380636X-0.008839X-0.008839X0.380636X-0.380636X0.008839X0.008839X-0.380636X0*%
%ADD43RoundRect,0.270000X-0.415800X-1.380800X0.415800X-1.380800X0.415800X1.380800X-0.415800X1.380800X0*%
%ADD44RoundRect,0.268815X-0.456985X-1.631985X0.456985X-1.631985X0.456985X1.631985X-0.456985X1.631985X0*%
%ADD45C,0.751600*%
%ADD46RoundRect,0.175400X0.175400X0.450400X-0.175400X0.450400X-0.175400X-0.450400X0.175400X-0.450400X0*%
%ADD47RoundRect,0.100400X0.100400X0.525400X-0.100400X0.525400X-0.100400X-0.525400X0.100400X-0.525400X0*%
%ADD48O,1.101600X1.901600*%
%ADD49O,1.101600X2.201600*%
%ADD50RoundRect,0.262900X0.262900X-0.325400X0.262900X0.325400X-0.262900X0.325400X-0.262900X-0.325400X0*%
G04 APERTURE END LIST*
D10*
%TO.C,H604*%
X124700000Y-109500000D03*
D11*
X124700000Y-109500000D03*
%TD*%
D10*
%TO.C,H601*%
X100700000Y-55500000D03*
D11*
X100700000Y-55500000D03*
%TD*%
D12*
%TO.C,J602*%
X100120000Y-100000000D03*
X100120000Y-97460000D03*
X100120000Y-94920000D03*
%TD*%
D13*
%TO.C,J606*%
X119640000Y-54800000D03*
X117100000Y-54800000D03*
X114560000Y-54800000D03*
%TD*%
D14*
%TO.C,J604*%
X104630000Y-104450000D03*
D15*
X102090000Y-104450000D03*
%TD*%
D10*
%TO.C,H603*%
X100700000Y-109500000D03*
D11*
X100700000Y-109500000D03*
%TD*%
D16*
%TO.C,J603*%
X124000000Y-104330000D03*
D17*
X124000000Y-101790000D03*
X124000000Y-99250000D03*
X124000000Y-96710000D03*
X124000000Y-94170000D03*
X124000000Y-91630000D03*
X124000000Y-89090000D03*
X124000000Y-86550000D03*
%TD*%
D10*
%TO.C,H602*%
X124700000Y-55500000D03*
D11*
X124700000Y-55500000D03*
%TD*%
D18*
%TO.C,J605*%
X100210000Y-80640000D03*
D15*
X100210000Y-83180000D03*
X100210000Y-85720000D03*
X100210000Y-88260000D03*
X100210000Y-90800000D03*
%TD*%
D19*
%TO.C,C717*%
X102657500Y-67610000D03*
X104382500Y-67610000D03*
%TD*%
D20*
%TO.C,C701*%
X108512500Y-75050000D03*
X106787500Y-75050000D03*
%TD*%
D21*
%TO.C,Y501*%
X103979949Y-79860051D03*
X102990000Y-80850000D03*
X102212183Y-80072183D03*
X103202132Y-79082234D03*
%TD*%
D19*
%TO.C,C706*%
X113007500Y-65980000D03*
X114732500Y-65980000D03*
%TD*%
D22*
%TO.C,C504*%
X104779880Y-87580120D03*
X103560120Y-88799880D03*
%TD*%
D23*
%TO.C,U502*%
X106005519Y-85408819D03*
X106359072Y-85055266D03*
X106712625Y-84701713D03*
X107066179Y-84348159D03*
X107419732Y-83994606D03*
X107773286Y-83641052D03*
X108126839Y-83287499D03*
X108480392Y-82933946D03*
X108833946Y-82580392D03*
X109187499Y-82226839D03*
X109541052Y-81873286D03*
X109894606Y-81519732D03*
X110248159Y-81166179D03*
X110601713Y-80812625D03*
X110955266Y-80459072D03*
X111308819Y-80105519D03*
D24*
X114031181Y-80105519D03*
X114384734Y-80459072D03*
X114738287Y-80812625D03*
X115091841Y-81166179D03*
X115445394Y-81519732D03*
X115798948Y-81873286D03*
X116152501Y-82226839D03*
X116506054Y-82580392D03*
X116859608Y-82933946D03*
X117213161Y-83287499D03*
X117566714Y-83641052D03*
X117920268Y-83994606D03*
X118273821Y-84348159D03*
X118627375Y-84701713D03*
X118980928Y-85055266D03*
X119334481Y-85408819D03*
D23*
X119334481Y-88131181D03*
X118980928Y-88484734D03*
X118627375Y-88838287D03*
X118273821Y-89191841D03*
X117920268Y-89545394D03*
X117566714Y-89898948D03*
X117213161Y-90252501D03*
X116859608Y-90606054D03*
X116506054Y-90959608D03*
X116152501Y-91313161D03*
X115798948Y-91666714D03*
X115445394Y-92020268D03*
X115091841Y-92373821D03*
X114738287Y-92727375D03*
X114384734Y-93080928D03*
X114031181Y-93434481D03*
D24*
X111308819Y-93434481D03*
X110955266Y-93080928D03*
X110601713Y-92727375D03*
X110248159Y-92373821D03*
X109894606Y-92020268D03*
X109541052Y-91666714D03*
X109187499Y-91313161D03*
X108833946Y-90959608D03*
X108480392Y-90606054D03*
X108126839Y-90252501D03*
X107773286Y-89898948D03*
X107419732Y-89545394D03*
X107066179Y-89191841D03*
X106712625Y-88838287D03*
X106359072Y-88484734D03*
X106005519Y-88131181D03*
%TD*%
D19*
%TO.C,C718*%
X102657500Y-66080000D03*
X104382500Y-66080000D03*
%TD*%
D25*
%TO.C,C505*%
X120640120Y-86090120D03*
X121859880Y-87309880D03*
%TD*%
D26*
%TO.C,FB701*%
X115357500Y-75190000D03*
X113782500Y-75190000D03*
%TD*%
D27*
%TO.C,C503*%
X103540000Y-90984998D03*
X103540000Y-92710000D03*
%TD*%
D19*
%TO.C,C709*%
X108717500Y-59650000D03*
X110442500Y-59650000D03*
%TD*%
D28*
%TO.C,U702*%
X105973499Y-62292436D03*
X105973499Y-62792562D03*
D29*
X105590000Y-62834998D03*
D28*
X105206501Y-62792562D03*
X105206501Y-62292436D03*
D29*
X105590000Y-62250000D03*
%TD*%
D20*
%TO.C,C702*%
X108512500Y-76640000D03*
X106787500Y-76640000D03*
%TD*%
%TO.C,C710*%
X113832500Y-59650000D03*
X112107500Y-59650000D03*
%TD*%
D19*
%TO.C,C707*%
X113007500Y-67500000D03*
X114732500Y-67500000D03*
%TD*%
D30*
%TO.C,C508*%
X124700120Y-83459880D03*
X125919880Y-82240120D03*
%TD*%
D31*
%TO.C,L703*%
X109510000Y-65920000D03*
X111260000Y-65920000D03*
%TD*%
D32*
%TO.C,C509*%
X105089880Y-78699880D03*
X103870120Y-77480120D03*
%TD*%
%TO.C,C506*%
X108829880Y-79819880D03*
X107610120Y-78600120D03*
%TD*%
D19*
%TO.C,C705*%
X101787500Y-60700000D03*
X103512500Y-60700000D03*
%TD*%
D33*
%TO.C,R504*%
X101165000Y-93330000D03*
X99340000Y-93330000D03*
%TD*%
D34*
%TO.C,L701*%
X111255000Y-67500000D03*
X109505000Y-67500000D03*
%TD*%
D35*
%TO.C,R412*%
X121770000Y-90970000D03*
X121770000Y-89145000D03*
%TD*%
D36*
%TO.C,R701*%
X101687500Y-62290000D03*
X103512500Y-62290000D03*
%TD*%
D19*
%TO.C,C708*%
X109507500Y-64350000D03*
X111232500Y-64350000D03*
%TD*%
D34*
%TO.C,L706*%
X107805000Y-67630000D03*
X106055000Y-67630000D03*
%TD*%
D25*
%TO.C,C511*%
X120060240Y-83290240D03*
X121280000Y-84510000D03*
%TD*%
D22*
%TO.C,C510*%
X103529880Y-82940120D03*
X102310120Y-84159880D03*
%TD*%
D34*
%TO.C,L702*%
X112095000Y-58080000D03*
X110345000Y-58080000D03*
%TD*%
D37*
%TO.C,Y701*%
X113900000Y-70660000D03*
X113900000Y-72060000D03*
X112800000Y-72060000D03*
X112800000Y-70660000D03*
%TD*%
D36*
%TO.C,R702*%
X102635000Y-69330000D03*
X104460000Y-69330000D03*
%TD*%
D22*
%TO.C,C502*%
X113399880Y-94600120D03*
X112180120Y-95819880D03*
%TD*%
D38*
%TO.C,U501*%
X117356509Y-77766509D03*
X118254535Y-76868483D03*
X119152560Y-75970458D03*
X120050586Y-75072432D03*
X125124077Y-80145923D03*
X124226051Y-81043949D03*
X123328026Y-81941974D03*
X122430000Y-82840000D03*
%TD*%
D19*
%TO.C,C711*%
X106967500Y-58080000D03*
X108692500Y-58080000D03*
%TD*%
D36*
%TO.C,R409*%
X119290000Y-94160000D03*
X121115000Y-94160000D03*
%TD*%
D22*
%TO.C,C507*%
X104639880Y-84060120D03*
X103420120Y-85279880D03*
%TD*%
D20*
%TO.C,C715*%
X111892500Y-76610000D03*
X110167500Y-76610000D03*
%TD*%
D39*
%TO.C,U701*%
X110712500Y-70042500D03*
X110712500Y-70542500D03*
X110712500Y-71042500D03*
X110712500Y-71542500D03*
X110712500Y-72042500D03*
X110712500Y-72542500D03*
D40*
X110000000Y-73255000D03*
X109500000Y-73255000D03*
X109000000Y-73255000D03*
X108500000Y-73255000D03*
X108000000Y-73255000D03*
X107500000Y-73255000D03*
D39*
X106787500Y-72542500D03*
X106787500Y-72042500D03*
X106787500Y-71542500D03*
X106787500Y-71042500D03*
X106787500Y-70542500D03*
X106787500Y-70042500D03*
D40*
X107500000Y-69330000D03*
X108000000Y-69330000D03*
X108500000Y-69330000D03*
X109000000Y-69330000D03*
X109500000Y-69330000D03*
X110000000Y-69330000D03*
D41*
X108750000Y-71292500D03*
%TD*%
D36*
%TO.C,R403*%
X119287500Y-103325000D03*
X121112500Y-103325000D03*
%TD*%
D20*
%TO.C,C716*%
X107812500Y-66070000D03*
X106087500Y-66070000D03*
%TD*%
D42*
%TO.C,R505*%
X106455235Y-82335235D03*
X105164765Y-81044765D03*
%TD*%
D43*
%TO.C,J701*%
X108700000Y-54662500D03*
D44*
X105875000Y-54912500D03*
X111525000Y-54912500D03*
%TD*%
D45*
%TO.C,J601*%
X115565000Y-106220000D03*
X109785000Y-106220000D03*
D46*
X115875000Y-105145000D03*
X115075000Y-105145000D03*
D47*
X113925000Y-105145000D03*
X112925000Y-105145000D03*
X112425000Y-105145000D03*
X111425000Y-105145000D03*
D46*
X110275000Y-105145000D03*
X109475000Y-105145000D03*
X109475000Y-105145000D03*
X110275000Y-105145000D03*
D47*
X110925000Y-105145000D03*
X111925000Y-105145000D03*
X113425000Y-105145000D03*
X114425000Y-105145000D03*
D46*
X115075000Y-105145000D03*
X115875000Y-105145000D03*
D48*
X116995000Y-109900000D03*
D49*
X116995000Y-105720000D03*
D48*
X108355000Y-109900000D03*
D49*
X108355000Y-105720000D03*
%TD*%
D19*
%TO.C,C703*%
X113007500Y-69040000D03*
X114732500Y-69040000D03*
%TD*%
D33*
%TO.C,R405*%
X121012500Y-97690000D03*
X119187500Y-97690000D03*
%TD*%
D31*
%TO.C,L705*%
X110150000Y-75050000D03*
X111900000Y-75050000D03*
%TD*%
D50*
%TO.C,C714*%
X107860000Y-64525000D03*
X107860000Y-62800000D03*
%TD*%
D20*
%TO.C,C712*%
X111222500Y-62800000D03*
X109497500Y-62800000D03*
%TD*%
%TO.C,C713*%
X116352500Y-64350000D03*
X114627500Y-64350000D03*
%TD*%
%TO.C,C704*%
X110442500Y-61200000D03*
X108717500Y-61200000D03*
%TD*%
D33*
%TO.C,R601*%
X110912500Y-103190000D03*
X109087500Y-103190000D03*
%TD*%
D34*
%TO.C,L704*%
X114625000Y-62800000D03*
X112875000Y-62800000D03*
%TD*%
D33*
%TO.C,R402*%
X121112500Y-101775000D03*
X119287500Y-101775000D03*
%TD*%
D35*
%TO.C,R602*%
X114370000Y-103260000D03*
X114370000Y-101435000D03*
%TD*%
D33*
%TO.C,R408*%
X121122500Y-92580000D03*
X119297500Y-92580000D03*
%TD*%
D36*
%TO.C,R406*%
X119197500Y-99225000D03*
X121022500Y-99225000D03*
%TD*%
D32*
%TO.C,C501*%
X116069880Y-79479880D03*
X114850120Y-78260120D03*
%TD*%
M02*
