%TF.GenerationSoftware,KiCad,Pcbnew,9.0.2*%
%TF.CreationDate,2025-06-24T10:24:35-05:00*%
%TF.ProjectId,Flight Computer,466c6967-6874-4204-936f-6d7075746572,rev?*%
%TF.SameCoordinates,Original*%
%TF.FileFunction,Paste,Top*%
%TF.FilePolarity,Positive*%
%FSLAX46Y46*%
G04 Gerber Fmt 4.6, Leading zero omitted, Abs format (unit mm)*
G04 Created by KiCad (PCBNEW 9.0.2) date 2025-06-24 10:24:35*
%MOMM*%
%LPD*%
G01*
G04 APERTURE LIST*
G04 Aperture macros list*
%AMRoundRect*
0 Rectangle with rounded corners*
0 $1 Rounding radius*
0 $2 $3 $4 $5 $6 $7 $8 $9 X,Y pos of 4 corners*
0 Add a 4 corners polygon primitive as box body*
4,1,4,$2,$3,$4,$5,$6,$7,$8,$9,$2,$3,0*
0 Add four circle primitives for the rounded corners*
1,1,$1+$1,$2,$3*
1,1,$1+$1,$4,$5*
1,1,$1+$1,$6,$7*
1,1,$1+$1,$8,$9*
0 Add four rect primitives between the rounded corners*
20,1,$1+$1,$2,$3,$4,$5,0*
20,1,$1+$1,$4,$5,$6,$7,0*
20,1,$1+$1,$6,$7,$8,$9,0*
20,1,$1+$1,$8,$9,$2,$3,0*%
G04 Aperture macros list end*
%ADD10RoundRect,0.237500X0.237500X-0.250000X0.237500X0.250000X-0.237500X0.250000X-0.237500X-0.250000X0*%
%ADD11RoundRect,0.237500X-0.287500X-0.237500X0.287500X-0.237500X0.287500X0.237500X-0.287500X0.237500X0*%
%ADD12RoundRect,0.237500X-0.237500X0.250000X-0.237500X-0.250000X0.237500X-0.250000X0.237500X0.250000X0*%
%ADD13RoundRect,0.237500X-0.237500X0.300000X-0.237500X-0.300000X0.237500X-0.300000X0.237500X0.300000X0*%
%ADD14RoundRect,0.200000X0.275000X-0.200000X0.275000X0.200000X-0.275000X0.200000X-0.275000X-0.200000X0*%
%ADD15R,0.299200X0.629800*%
%ADD16R,0.711200X0.990600*%
%ADD17RoundRect,0.200000X-0.200000X-0.275000X0.200000X-0.275000X0.200000X0.275000X-0.200000X0.275000X0*%
%ADD18RoundRect,0.237500X-0.300000X-0.237500X0.300000X-0.237500X0.300000X0.237500X-0.300000X0.237500X0*%
%ADD19C,0.250000*%
%ADD20RoundRect,0.237500X-0.250000X-0.237500X0.250000X-0.237500X0.250000X0.237500X-0.250000X0.237500X0*%
%ADD21RoundRect,0.237500X0.250000X0.237500X-0.250000X0.237500X-0.250000X-0.237500X0.250000X-0.237500X0*%
%ADD22R,0.580000X0.720000*%
%ADD23R,0.720000X0.580000*%
%ADD24RoundRect,0.150000X-0.625000X0.150000X-0.625000X-0.150000X0.625000X-0.150000X0.625000X0.150000X0*%
%ADD25RoundRect,0.250000X-0.650000X0.350000X-0.650000X-0.350000X0.650000X-0.350000X0.650000X0.350000X0*%
%ADD26RoundRect,0.150000X-0.425000X0.150000X-0.425000X-0.150000X0.425000X-0.150000X0.425000X0.150000X0*%
%ADD27RoundRect,0.075000X-0.500000X0.075000X-0.500000X-0.075000X0.500000X-0.075000X0.500000X0.075000X0*%
%ADD28O,2.100000X1.000000*%
%ADD29O,1.800000X1.000000*%
%ADD30RoundRect,0.162500X0.162500X-0.650000X0.162500X0.650000X-0.162500X0.650000X-0.162500X-0.650000X0*%
%ADD31RoundRect,0.200000X0.200000X0.275000X-0.200000X0.275000X-0.200000X-0.275000X0.200000X-0.275000X0*%
%ADD32RoundRect,0.087500X-0.225000X-0.087500X0.225000X-0.087500X0.225000X0.087500X-0.225000X0.087500X0*%
%ADD33RoundRect,0.087500X-0.087500X-0.225000X0.087500X-0.225000X0.087500X0.225000X-0.087500X0.225000X0*%
%ADD34RoundRect,0.237500X0.344715X-0.008839X-0.008839X0.344715X-0.344715X0.008839X0.008839X-0.344715X0*%
%ADD35RoundRect,0.187500X-0.437500X-1.312500X0.437500X-1.312500X0.437500X1.312500X-0.437500X1.312500X0*%
%ADD36RoundRect,0.150000X0.587500X0.150000X-0.587500X0.150000X-0.587500X-0.150000X0.587500X-0.150000X0*%
%ADD37R,0.550000X0.950000*%
%ADD38RoundRect,0.187500X1.312500X-0.437500X1.312500X0.437500X-1.312500X0.437500X-1.312500X-0.437500X0*%
G04 APERTURE END LIST*
D10*
%TO.C,R301*%
X125550000Y-87635000D03*
X125550000Y-85810000D03*
%TD*%
D11*
%TO.C,D201*%
X112767500Y-110810000D03*
X114517500Y-110810000D03*
%TD*%
D12*
%TO.C,R707*%
X112000000Y-102047500D03*
X112000000Y-103872500D03*
%TD*%
D13*
%TO.C,C402*%
X112220000Y-84957499D03*
X112220000Y-86682501D03*
%TD*%
D14*
%TO.C,R716*%
X106060000Y-103005000D03*
X106060000Y-101355000D03*
%TD*%
D15*
%TO.C,U702*%
X116226002Y-95079899D03*
X116876001Y-95079900D03*
X117526000Y-95079899D03*
X117526000Y-93000101D03*
X116876001Y-93000100D03*
X116226002Y-93000101D03*
D16*
X116432002Y-94040000D03*
X117320000Y-94040000D03*
%TD*%
D17*
%TO.C,R711*%
X116085000Y-96550000D03*
X117735000Y-96550000D03*
%TD*%
D18*
%TO.C,C301*%
X121957500Y-67640000D03*
X123682500Y-67640000D03*
%TD*%
D12*
%TO.C,R710*%
X114590000Y-91657500D03*
X114590000Y-93482500D03*
%TD*%
D19*
%TO.C,U401*%
X108490000Y-87240000D03*
X108890000Y-87240000D03*
X108490000Y-87640000D03*
X108890000Y-87640000D03*
%TD*%
D20*
%TO.C,R202*%
X108602500Y-107860000D03*
X110427500Y-107860000D03*
%TD*%
D10*
%TO.C,R713*%
X109270000Y-103375000D03*
X109270000Y-101550000D03*
%TD*%
D21*
%TO.C,R708*%
X118662500Y-91620000D03*
X116837500Y-91620000D03*
%TD*%
D22*
%TO.C,U404*%
X113805000Y-59679999D03*
X111905000Y-59679999D03*
X110855000Y-59679999D03*
X110005000Y-59679999D03*
X108955000Y-59679999D03*
X107055000Y-59679999D03*
X114655000Y-59680000D03*
X112755000Y-59680000D03*
X108105000Y-59680000D03*
X106205000Y-59680000D03*
X114655000Y-60680000D03*
X113805000Y-60680000D03*
X112755000Y-60680000D03*
X111905000Y-60680000D03*
X110855000Y-60680000D03*
X110005000Y-60680000D03*
X108955000Y-60680000D03*
X108105000Y-60680000D03*
X107055000Y-60680000D03*
X106205000Y-60680000D03*
D23*
X117530000Y-62555000D03*
X116530000Y-62555000D03*
X104330000Y-62555000D03*
X103330000Y-62555000D03*
X117530001Y-63405000D03*
X116530000Y-63405000D03*
X104330000Y-63405000D03*
X103329999Y-63405000D03*
X117530000Y-64455000D03*
X116530000Y-64455000D03*
X104330000Y-64455000D03*
X103330000Y-64455000D03*
X117530001Y-65305000D03*
X116530000Y-65305000D03*
X104330000Y-65305000D03*
X103329999Y-65305000D03*
X117530001Y-66355000D03*
X116530000Y-66355000D03*
X104330000Y-66355000D03*
X103329999Y-66355000D03*
X117530001Y-67205000D03*
X116530000Y-67205000D03*
X104330000Y-67205000D03*
X103329999Y-67205000D03*
X117530001Y-68255000D03*
X116530000Y-68255000D03*
X104330000Y-68255000D03*
X103329999Y-68255000D03*
X117530000Y-69105000D03*
X116530000Y-69105000D03*
X104330000Y-69105000D03*
X103330000Y-69105000D03*
X117530001Y-70155000D03*
X116530000Y-70155000D03*
X104330000Y-70155000D03*
X103329999Y-70155000D03*
X117530000Y-71005000D03*
X116530000Y-71005000D03*
X104330000Y-71005000D03*
X103330000Y-71005000D03*
D22*
X114655000Y-72880000D03*
X113805000Y-72880000D03*
X112755000Y-72880000D03*
X111905000Y-72880000D03*
X110855000Y-72880000D03*
X110005000Y-72880000D03*
X108955000Y-72880000D03*
X108105000Y-72880000D03*
X107055000Y-72880000D03*
X106205000Y-72880000D03*
X114655000Y-73880000D03*
X112755000Y-73880000D03*
X108105000Y-73880000D03*
X106205000Y-73880000D03*
X113805000Y-73880001D03*
X111905000Y-73880001D03*
X110855000Y-73880001D03*
X110005000Y-73880001D03*
X108955000Y-73880001D03*
X107055000Y-73880001D03*
%TD*%
D14*
%TO.C,R703*%
X119180000Y-104825000D03*
X119180000Y-103175000D03*
%TD*%
D24*
%TO.C,J505*%
X102940000Y-88660000D03*
X102940000Y-89660000D03*
X102940000Y-90660000D03*
X102940000Y-91660000D03*
D25*
X99065000Y-87360000D03*
X99065000Y-92960000D03*
%TD*%
D26*
%TO.C,J502*%
X105030000Y-77010000D03*
X105030000Y-77810000D03*
D27*
X105029999Y-78960000D03*
X105030000Y-79960000D03*
X105030000Y-80460000D03*
X105029999Y-81460000D03*
D26*
X105030000Y-82610000D03*
X105030000Y-83410000D03*
X105030000Y-83410000D03*
X105030000Y-82610000D03*
D27*
X105030000Y-81960000D03*
X105030000Y-80960000D03*
X105030000Y-79460000D03*
X105030000Y-78460000D03*
D26*
X105030000Y-77810000D03*
X105030000Y-77010000D03*
D28*
X104455000Y-75890000D03*
D29*
X100275000Y-75890000D03*
D28*
X104455000Y-84530000D03*
D29*
X100275000Y-84530000D03*
%TD*%
D18*
%TO.C,C404*%
X119367499Y-83940000D03*
X121092501Y-83940000D03*
%TD*%
D30*
%TO.C,U301*%
X120435000Y-76717500D03*
X121705000Y-76717500D03*
X122975000Y-76717500D03*
X124245000Y-76717500D03*
X124245000Y-69542500D03*
X122975000Y-69542500D03*
X121705000Y-69542500D03*
X120435000Y-69542500D03*
%TD*%
D31*
%TO.C,R706*%
X119035000Y-101600000D03*
X117385000Y-101600000D03*
%TD*%
D15*
%TO.C,U703*%
X108643998Y-98070101D03*
X107993999Y-98070100D03*
X107344000Y-98070101D03*
X107344000Y-100149899D03*
X107993999Y-100149900D03*
X108643998Y-100149899D03*
D16*
X108437998Y-99110000D03*
X107550000Y-99110000D03*
%TD*%
D12*
%TO.C,R704*%
X112000000Y-98315000D03*
X112000000Y-100140000D03*
%TD*%
D32*
%TO.C,U402*%
X111507500Y-81750000D03*
X111507500Y-82250000D03*
X111507500Y-82750000D03*
X111507500Y-83250000D03*
D33*
X112170000Y-83412500D03*
X112670000Y-83412500D03*
X113170000Y-83412500D03*
D32*
X113832500Y-83250000D03*
X113832500Y-82750000D03*
X113832500Y-82250000D03*
X113832500Y-81750000D03*
D33*
X113170000Y-81587500D03*
X112670000Y-81587500D03*
X112170000Y-81587500D03*
%TD*%
D18*
%TO.C,C401*%
X115327500Y-83270000D03*
X117052500Y-83270000D03*
%TD*%
D21*
%TO.C,R715*%
X110115000Y-96270000D03*
X108290000Y-96270000D03*
%TD*%
D12*
%TO.C,R701*%
X114610000Y-97295000D03*
X114610000Y-99120000D03*
%TD*%
D10*
%TO.C,R717*%
X106580000Y-96270000D03*
X106580000Y-94445000D03*
%TD*%
D34*
%TO.C,R304*%
X108345235Y-92985235D03*
X107054765Y-91694765D03*
%TD*%
D15*
%TO.C,U701*%
X116226002Y-100159899D03*
X116876001Y-100159900D03*
X117526000Y-100159899D03*
X117526000Y-98080101D03*
X116876001Y-98080100D03*
X116226002Y-98080101D03*
D16*
X116432002Y-99120000D03*
X117320000Y-99120000D03*
%TD*%
D21*
%TO.C,R712*%
X114592500Y-95120000D03*
X112767500Y-95120000D03*
%TD*%
D35*
%TO.C,J506*%
X115470000Y-54350000D03*
X118010000Y-54350000D03*
X120550000Y-54350000D03*
%TD*%
D36*
%TO.C,Q701*%
X115600000Y-103580000D03*
X115600000Y-101680000D03*
X113724999Y-102630000D03*
%TD*%
D20*
%TO.C,R201*%
X108585000Y-110810000D03*
X110410000Y-110810000D03*
%TD*%
D37*
%TO.C,U403*%
X119230000Y-85540001D03*
X117980000Y-85540001D03*
X116730000Y-85540001D03*
X115480000Y-85540001D03*
X115480000Y-87690001D03*
X116730000Y-87690001D03*
X117980000Y-87690001D03*
X119230000Y-87690001D03*
%TD*%
D18*
%TO.C,C405*%
X112095000Y-58000000D03*
X113820000Y-58000000D03*
%TD*%
D11*
%TO.C,D202*%
X112800000Y-107860000D03*
X114550000Y-107860000D03*
%TD*%
D12*
%TO.C,R402*%
X119390000Y-64955000D03*
X119390000Y-66780000D03*
%TD*%
D13*
%TO.C,C403*%
X106480000Y-87680000D03*
X106480000Y-89405002D03*
%TD*%
D31*
%TO.C,R714*%
X107645000Y-104490000D03*
X105995000Y-104490000D03*
%TD*%
D38*
%TO.C,J501*%
X125560000Y-79040001D03*
X125560000Y-81580000D03*
X125560000Y-84120000D03*
%TD*%
M02*
