%TF.GenerationSoftware,KiCad,Pcbnew,9.0.2*%
%TF.CreationDate,2025-06-05T09:54:10-05:00*%
%TF.ProjectId,Flight Computer v3,466c6967-6874-4204-936f-6d7075746572,rev?*%
%TF.SameCoordinates,Original*%
%TF.FileFunction,Legend,Bot*%
%TF.FilePolarity,Positive*%
%FSLAX46Y46*%
G04 Gerber Fmt 4.6, Leading zero omitted, Abs format (unit mm)*
G04 Created by KiCad (PCBNEW 9.0.2) date 2025-06-05 09:54:10*
%MOMM*%
%LPD*%
G01*
G04 APERTURE LIST*
%ADD10C,0.150000*%
%ADD11C,0.125000*%
%ADD12C,0.120000*%
%ADD13C,0.152400*%
G04 APERTURE END LIST*
D10*
X104152744Y-95057725D02*
X104045601Y-95093439D01*
X104045601Y-95093439D02*
X104009887Y-95129153D01*
X104009887Y-95129153D02*
X103974173Y-95200582D01*
X103974173Y-95200582D02*
X103974173Y-95307725D01*
X103974173Y-95307725D02*
X104009887Y-95379153D01*
X104009887Y-95379153D02*
X104045601Y-95414868D01*
X104045601Y-95414868D02*
X104117030Y-95450582D01*
X104117030Y-95450582D02*
X104402744Y-95450582D01*
X104402744Y-95450582D02*
X104402744Y-94700582D01*
X104402744Y-94700582D02*
X104152744Y-94700582D01*
X104152744Y-94700582D02*
X104081316Y-94736296D01*
X104081316Y-94736296D02*
X104045601Y-94772010D01*
X104045601Y-94772010D02*
X104009887Y-94843439D01*
X104009887Y-94843439D02*
X104009887Y-94914868D01*
X104009887Y-94914868D02*
X104045601Y-94986296D01*
X104045601Y-94986296D02*
X104081316Y-95022010D01*
X104081316Y-95022010D02*
X104152744Y-95057725D01*
X104152744Y-95057725D02*
X104402744Y-95057725D01*
X103509887Y-94700582D02*
X103367030Y-94700582D01*
X103367030Y-94700582D02*
X103295601Y-94736296D01*
X103295601Y-94736296D02*
X103224173Y-94807725D01*
X103224173Y-94807725D02*
X103188458Y-94950582D01*
X103188458Y-94950582D02*
X103188458Y-95200582D01*
X103188458Y-95200582D02*
X103224173Y-95343439D01*
X103224173Y-95343439D02*
X103295601Y-95414868D01*
X103295601Y-95414868D02*
X103367030Y-95450582D01*
X103367030Y-95450582D02*
X103509887Y-95450582D01*
X103509887Y-95450582D02*
X103581316Y-95414868D01*
X103581316Y-95414868D02*
X103652744Y-95343439D01*
X103652744Y-95343439D02*
X103688458Y-95200582D01*
X103688458Y-95200582D02*
X103688458Y-94950582D01*
X103688458Y-94950582D02*
X103652744Y-94807725D01*
X103652744Y-94807725D02*
X103581316Y-94736296D01*
X103581316Y-94736296D02*
X103509887Y-94700582D01*
X102724173Y-94700582D02*
X102581316Y-94700582D01*
X102581316Y-94700582D02*
X102509887Y-94736296D01*
X102509887Y-94736296D02*
X102438459Y-94807725D01*
X102438459Y-94807725D02*
X102402744Y-94950582D01*
X102402744Y-94950582D02*
X102402744Y-95200582D01*
X102402744Y-95200582D02*
X102438459Y-95343439D01*
X102438459Y-95343439D02*
X102509887Y-95414868D01*
X102509887Y-95414868D02*
X102581316Y-95450582D01*
X102581316Y-95450582D02*
X102724173Y-95450582D01*
X102724173Y-95450582D02*
X102795602Y-95414868D01*
X102795602Y-95414868D02*
X102867030Y-95343439D01*
X102867030Y-95343439D02*
X102902744Y-95200582D01*
X102902744Y-95200582D02*
X102902744Y-94950582D01*
X102902744Y-94950582D02*
X102867030Y-94807725D01*
X102867030Y-94807725D02*
X102795602Y-94736296D01*
X102795602Y-94736296D02*
X102724173Y-94700582D01*
X102188459Y-94700582D02*
X101759888Y-94700582D01*
X101974173Y-95450582D02*
X101974173Y-94700582D01*
X104438458Y-97829784D02*
X104331316Y-97865498D01*
X104331316Y-97865498D02*
X104152744Y-97865498D01*
X104152744Y-97865498D02*
X104081316Y-97829784D01*
X104081316Y-97829784D02*
X104045601Y-97794069D01*
X104045601Y-97794069D02*
X104009887Y-97722641D01*
X104009887Y-97722641D02*
X104009887Y-97651212D01*
X104009887Y-97651212D02*
X104045601Y-97579784D01*
X104045601Y-97579784D02*
X104081316Y-97544069D01*
X104081316Y-97544069D02*
X104152744Y-97508355D01*
X104152744Y-97508355D02*
X104295601Y-97472641D01*
X104295601Y-97472641D02*
X104367030Y-97436926D01*
X104367030Y-97436926D02*
X104402744Y-97401212D01*
X104402744Y-97401212D02*
X104438458Y-97329784D01*
X104438458Y-97329784D02*
X104438458Y-97258355D01*
X104438458Y-97258355D02*
X104402744Y-97186926D01*
X104402744Y-97186926D02*
X104367030Y-97151212D01*
X104367030Y-97151212D02*
X104295601Y-97115498D01*
X104295601Y-97115498D02*
X104117030Y-97115498D01*
X104117030Y-97115498D02*
X104009887Y-97151212D01*
X103759887Y-97115498D02*
X103581315Y-97865498D01*
X103581315Y-97865498D02*
X103438458Y-97329784D01*
X103438458Y-97329784D02*
X103295601Y-97865498D01*
X103295601Y-97865498D02*
X103117030Y-97115498D01*
X102688458Y-97115498D02*
X102545601Y-97115498D01*
X102545601Y-97115498D02*
X102474172Y-97151212D01*
X102474172Y-97151212D02*
X102402744Y-97222641D01*
X102402744Y-97222641D02*
X102367029Y-97365498D01*
X102367029Y-97365498D02*
X102367029Y-97615498D01*
X102367029Y-97615498D02*
X102402744Y-97758355D01*
X102402744Y-97758355D02*
X102474172Y-97829784D01*
X102474172Y-97829784D02*
X102545601Y-97865498D01*
X102545601Y-97865498D02*
X102688458Y-97865498D01*
X102688458Y-97865498D02*
X102759887Y-97829784D01*
X102759887Y-97829784D02*
X102831315Y-97758355D01*
X102831315Y-97758355D02*
X102867029Y-97615498D01*
X102867029Y-97615498D02*
X102867029Y-97365498D01*
X102867029Y-97365498D02*
X102831315Y-97222641D01*
X102831315Y-97222641D02*
X102759887Y-97151212D01*
X102759887Y-97151212D02*
X102688458Y-97115498D01*
X104009887Y-99566128D02*
X104081316Y-99530414D01*
X104081316Y-99530414D02*
X104188458Y-99530414D01*
X104188458Y-99530414D02*
X104295601Y-99566128D01*
X104295601Y-99566128D02*
X104367030Y-99637557D01*
X104367030Y-99637557D02*
X104402744Y-99708985D01*
X104402744Y-99708985D02*
X104438458Y-99851842D01*
X104438458Y-99851842D02*
X104438458Y-99958985D01*
X104438458Y-99958985D02*
X104402744Y-100101842D01*
X104402744Y-100101842D02*
X104367030Y-100173271D01*
X104367030Y-100173271D02*
X104295601Y-100244700D01*
X104295601Y-100244700D02*
X104188458Y-100280414D01*
X104188458Y-100280414D02*
X104117030Y-100280414D01*
X104117030Y-100280414D02*
X104009887Y-100244700D01*
X104009887Y-100244700D02*
X103974173Y-100208985D01*
X103974173Y-100208985D02*
X103974173Y-99958985D01*
X103974173Y-99958985D02*
X104117030Y-99958985D01*
X103652744Y-100280414D02*
X103652744Y-99530414D01*
X103652744Y-99530414D02*
X103224173Y-100280414D01*
X103224173Y-100280414D02*
X103224173Y-99530414D01*
X102867030Y-100280414D02*
X102867030Y-99530414D01*
X102867030Y-99530414D02*
X102688459Y-99530414D01*
X102688459Y-99530414D02*
X102581316Y-99566128D01*
X102581316Y-99566128D02*
X102509887Y-99637557D01*
X102509887Y-99637557D02*
X102474173Y-99708985D01*
X102474173Y-99708985D02*
X102438459Y-99851842D01*
X102438459Y-99851842D02*
X102438459Y-99958985D01*
X102438459Y-99958985D02*
X102474173Y-100101842D01*
X102474173Y-100101842D02*
X102509887Y-100173271D01*
X102509887Y-100173271D02*
X102581316Y-100244700D01*
X102581316Y-100244700D02*
X102688459Y-100280414D01*
X102688459Y-100280414D02*
X102867030Y-100280414D01*
X119843703Y-58199887D02*
X119879417Y-58271316D01*
X119879417Y-58271316D02*
X119879417Y-58378458D01*
X119879417Y-58378458D02*
X119843703Y-58485601D01*
X119843703Y-58485601D02*
X119772274Y-58557030D01*
X119772274Y-58557030D02*
X119700846Y-58592744D01*
X119700846Y-58592744D02*
X119557989Y-58628458D01*
X119557989Y-58628458D02*
X119450846Y-58628458D01*
X119450846Y-58628458D02*
X119307989Y-58592744D01*
X119307989Y-58592744D02*
X119236560Y-58557030D01*
X119236560Y-58557030D02*
X119165132Y-58485601D01*
X119165132Y-58485601D02*
X119129417Y-58378458D01*
X119129417Y-58378458D02*
X119129417Y-58307030D01*
X119129417Y-58307030D02*
X119165132Y-58199887D01*
X119165132Y-58199887D02*
X119200846Y-58164173D01*
X119200846Y-58164173D02*
X119450846Y-58164173D01*
X119450846Y-58164173D02*
X119450846Y-58307030D01*
X119129417Y-57842744D02*
X119879417Y-57842744D01*
X119879417Y-57842744D02*
X119129417Y-57414173D01*
X119129417Y-57414173D02*
X119879417Y-57414173D01*
X119129417Y-57057030D02*
X119879417Y-57057030D01*
X119879417Y-57057030D02*
X119879417Y-56878459D01*
X119879417Y-56878459D02*
X119843703Y-56771316D01*
X119843703Y-56771316D02*
X119772274Y-56699887D01*
X119772274Y-56699887D02*
X119700846Y-56664173D01*
X119700846Y-56664173D02*
X119557989Y-56628459D01*
X119557989Y-56628459D02*
X119450846Y-56628459D01*
X119450846Y-56628459D02*
X119307989Y-56664173D01*
X119307989Y-56664173D02*
X119236560Y-56699887D01*
X119236560Y-56699887D02*
X119165132Y-56771316D01*
X119165132Y-56771316D02*
X119129417Y-56878459D01*
X119129417Y-56878459D02*
X119129417Y-57057030D01*
X116785930Y-58164173D02*
X116750216Y-58199887D01*
X116750216Y-58199887D02*
X116714501Y-58307030D01*
X116714501Y-58307030D02*
X116714501Y-58378458D01*
X116714501Y-58378458D02*
X116750216Y-58485601D01*
X116750216Y-58485601D02*
X116821644Y-58557030D01*
X116821644Y-58557030D02*
X116893073Y-58592744D01*
X116893073Y-58592744D02*
X117035930Y-58628458D01*
X117035930Y-58628458D02*
X117143073Y-58628458D01*
X117143073Y-58628458D02*
X117285930Y-58592744D01*
X117285930Y-58592744D02*
X117357358Y-58557030D01*
X117357358Y-58557030D02*
X117428787Y-58485601D01*
X117428787Y-58485601D02*
X117464501Y-58378458D01*
X117464501Y-58378458D02*
X117464501Y-58307030D01*
X117464501Y-58307030D02*
X117428787Y-58199887D01*
X117428787Y-58199887D02*
X117393073Y-58164173D01*
X116750216Y-57878458D02*
X116714501Y-57771316D01*
X116714501Y-57771316D02*
X116714501Y-57592744D01*
X116714501Y-57592744D02*
X116750216Y-57521316D01*
X116750216Y-57521316D02*
X116785930Y-57485601D01*
X116785930Y-57485601D02*
X116857358Y-57449887D01*
X116857358Y-57449887D02*
X116928787Y-57449887D01*
X116928787Y-57449887D02*
X117000216Y-57485601D01*
X117000216Y-57485601D02*
X117035930Y-57521316D01*
X117035930Y-57521316D02*
X117071644Y-57592744D01*
X117071644Y-57592744D02*
X117107358Y-57735601D01*
X117107358Y-57735601D02*
X117143073Y-57807030D01*
X117143073Y-57807030D02*
X117178787Y-57842744D01*
X117178787Y-57842744D02*
X117250216Y-57878458D01*
X117250216Y-57878458D02*
X117321644Y-57878458D01*
X117321644Y-57878458D02*
X117393073Y-57842744D01*
X117393073Y-57842744D02*
X117428787Y-57807030D01*
X117428787Y-57807030D02*
X117464501Y-57735601D01*
X117464501Y-57735601D02*
X117464501Y-57557030D01*
X117464501Y-57557030D02*
X117428787Y-57449887D01*
X114335300Y-58628458D02*
X114299585Y-58521316D01*
X114299585Y-58521316D02*
X114299585Y-58342744D01*
X114299585Y-58342744D02*
X114335300Y-58271316D01*
X114335300Y-58271316D02*
X114371014Y-58235601D01*
X114371014Y-58235601D02*
X114442442Y-58199887D01*
X114442442Y-58199887D02*
X114513871Y-58199887D01*
X114513871Y-58199887D02*
X114585300Y-58235601D01*
X114585300Y-58235601D02*
X114621014Y-58271316D01*
X114621014Y-58271316D02*
X114656728Y-58342744D01*
X114656728Y-58342744D02*
X114692442Y-58485601D01*
X114692442Y-58485601D02*
X114728157Y-58557030D01*
X114728157Y-58557030D02*
X114763871Y-58592744D01*
X114763871Y-58592744D02*
X114835300Y-58628458D01*
X114835300Y-58628458D02*
X114906728Y-58628458D01*
X114906728Y-58628458D02*
X114978157Y-58592744D01*
X114978157Y-58592744D02*
X115013871Y-58557030D01*
X115013871Y-58557030D02*
X115049585Y-58485601D01*
X115049585Y-58485601D02*
X115049585Y-58307030D01*
X115049585Y-58307030D02*
X115013871Y-58199887D01*
X114371014Y-57449887D02*
X114335300Y-57485601D01*
X114335300Y-57485601D02*
X114299585Y-57592744D01*
X114299585Y-57592744D02*
X114299585Y-57664172D01*
X114299585Y-57664172D02*
X114335300Y-57771315D01*
X114335300Y-57771315D02*
X114406728Y-57842744D01*
X114406728Y-57842744D02*
X114478157Y-57878458D01*
X114478157Y-57878458D02*
X114621014Y-57914172D01*
X114621014Y-57914172D02*
X114728157Y-57914172D01*
X114728157Y-57914172D02*
X114871014Y-57878458D01*
X114871014Y-57878458D02*
X114942442Y-57842744D01*
X114942442Y-57842744D02*
X115013871Y-57771315D01*
X115013871Y-57771315D02*
X115049585Y-57664172D01*
X115049585Y-57664172D02*
X115049585Y-57592744D01*
X115049585Y-57592744D02*
X115013871Y-57485601D01*
X115013871Y-57485601D02*
X114978157Y-57449887D01*
X114299585Y-57128458D02*
X115049585Y-57128458D01*
X114299585Y-56699887D02*
X114728157Y-57021315D01*
X115049585Y-56699887D02*
X114621014Y-57128458D01*
X101617735Y-66760713D02*
X101653450Y-66724999D01*
X101653450Y-66724999D02*
X101689164Y-66617856D01*
X101689164Y-66617856D02*
X101689164Y-66546428D01*
X101689164Y-66546428D02*
X101653450Y-66439285D01*
X101653450Y-66439285D02*
X101582021Y-66367856D01*
X101582021Y-66367856D02*
X101510592Y-66332142D01*
X101510592Y-66332142D02*
X101367735Y-66296428D01*
X101367735Y-66296428D02*
X101260592Y-66296428D01*
X101260592Y-66296428D02*
X101117735Y-66332142D01*
X101117735Y-66332142D02*
X101046307Y-66367856D01*
X101046307Y-66367856D02*
X100974878Y-66439285D01*
X100974878Y-66439285D02*
X100939164Y-66546428D01*
X100939164Y-66546428D02*
X100939164Y-66617856D01*
X100939164Y-66617856D02*
X100974878Y-66724999D01*
X100974878Y-66724999D02*
X101010592Y-66760713D01*
X100939164Y-67010713D02*
X100939164Y-67510713D01*
X100939164Y-67510713D02*
X101689164Y-67189285D01*
X101689164Y-68189285D02*
X101689164Y-67760714D01*
X101689164Y-67974999D02*
X100939164Y-67974999D01*
X100939164Y-67974999D02*
X101046307Y-67903571D01*
X101046307Y-67903571D02*
X101117735Y-67832142D01*
X101117735Y-67832142D02*
X101153450Y-67760714D01*
X100939164Y-68439285D02*
X100939164Y-68939285D01*
X100939164Y-68939285D02*
X101689164Y-68617857D01*
X105777735Y-74530713D02*
X105813450Y-74494999D01*
X105813450Y-74494999D02*
X105849164Y-74387856D01*
X105849164Y-74387856D02*
X105849164Y-74316428D01*
X105849164Y-74316428D02*
X105813450Y-74209285D01*
X105813450Y-74209285D02*
X105742021Y-74137856D01*
X105742021Y-74137856D02*
X105670592Y-74102142D01*
X105670592Y-74102142D02*
X105527735Y-74066428D01*
X105527735Y-74066428D02*
X105420592Y-74066428D01*
X105420592Y-74066428D02*
X105277735Y-74102142D01*
X105277735Y-74102142D02*
X105206307Y-74137856D01*
X105206307Y-74137856D02*
X105134878Y-74209285D01*
X105134878Y-74209285D02*
X105099164Y-74316428D01*
X105099164Y-74316428D02*
X105099164Y-74387856D01*
X105099164Y-74387856D02*
X105134878Y-74494999D01*
X105134878Y-74494999D02*
X105170592Y-74530713D01*
X105099164Y-74780713D02*
X105099164Y-75280713D01*
X105099164Y-75280713D02*
X105849164Y-74959285D01*
X105099164Y-75709285D02*
X105099164Y-75780714D01*
X105099164Y-75780714D02*
X105134878Y-75852142D01*
X105134878Y-75852142D02*
X105170592Y-75887857D01*
X105170592Y-75887857D02*
X105242021Y-75923571D01*
X105242021Y-75923571D02*
X105384878Y-75959285D01*
X105384878Y-75959285D02*
X105563450Y-75959285D01*
X105563450Y-75959285D02*
X105706307Y-75923571D01*
X105706307Y-75923571D02*
X105777735Y-75887857D01*
X105777735Y-75887857D02*
X105813450Y-75852142D01*
X105813450Y-75852142D02*
X105849164Y-75780714D01*
X105849164Y-75780714D02*
X105849164Y-75709285D01*
X105849164Y-75709285D02*
X105813450Y-75637857D01*
X105813450Y-75637857D02*
X105777735Y-75602142D01*
X105777735Y-75602142D02*
X105706307Y-75566428D01*
X105706307Y-75566428D02*
X105563450Y-75530714D01*
X105563450Y-75530714D02*
X105384878Y-75530714D01*
X105384878Y-75530714D02*
X105242021Y-75566428D01*
X105242021Y-75566428D02*
X105170592Y-75602142D01*
X105170592Y-75602142D02*
X105134878Y-75637857D01*
X105134878Y-75637857D02*
X105099164Y-75709285D01*
X105849164Y-76673571D02*
X105849164Y-76245000D01*
X105849164Y-76459285D02*
X105099164Y-76459285D01*
X105099164Y-76459285D02*
X105206307Y-76387857D01*
X105206307Y-76387857D02*
X105277735Y-76316428D01*
X105277735Y-76316428D02*
X105313450Y-76245000D01*
X102674901Y-78089672D02*
X102927439Y-78342211D01*
X102573886Y-77635104D02*
X102674901Y-78089672D01*
X102674901Y-78089672D02*
X102220332Y-77988657D01*
X101791018Y-78417972D02*
X102043556Y-78165434D01*
X102043556Y-78165434D02*
X102321348Y-78392718D01*
X102321348Y-78392718D02*
X102270840Y-78392718D01*
X102270840Y-78392718D02*
X102195079Y-78417972D01*
X102195079Y-78417972D02*
X102068810Y-78544241D01*
X102068810Y-78544241D02*
X102043556Y-78620002D01*
X102043556Y-78620002D02*
X102043556Y-78670510D01*
X102043556Y-78670510D02*
X102068810Y-78746271D01*
X102068810Y-78746271D02*
X102195079Y-78872541D01*
X102195079Y-78872541D02*
X102270840Y-78897794D01*
X102270840Y-78897794D02*
X102321348Y-78897794D01*
X102321348Y-78897794D02*
X102397109Y-78872541D01*
X102397109Y-78872541D02*
X102523378Y-78746271D01*
X102523378Y-78746271D02*
X102548632Y-78670510D01*
X102548632Y-78670510D02*
X102548632Y-78620002D01*
X101437464Y-78771525D02*
X101386956Y-78822033D01*
X101386956Y-78822033D02*
X101361703Y-78897795D01*
X101361703Y-78897795D02*
X101361703Y-78948302D01*
X101361703Y-78948302D02*
X101386956Y-79024064D01*
X101386956Y-79024064D02*
X101462718Y-79150333D01*
X101462718Y-79150333D02*
X101588987Y-79276602D01*
X101588987Y-79276602D02*
X101715256Y-79352363D01*
X101715256Y-79352363D02*
X101791017Y-79377617D01*
X101791017Y-79377617D02*
X101841525Y-79377617D01*
X101841525Y-79377617D02*
X101917287Y-79352363D01*
X101917287Y-79352363D02*
X101967794Y-79301856D01*
X101967794Y-79301856D02*
X101993048Y-79226094D01*
X101993048Y-79226094D02*
X101993048Y-79175587D01*
X101993048Y-79175587D02*
X101967794Y-79099825D01*
X101967794Y-79099825D02*
X101892033Y-78973556D01*
X101892033Y-78973556D02*
X101765764Y-78847287D01*
X101765764Y-78847287D02*
X101639495Y-78771525D01*
X101639495Y-78771525D02*
X101563733Y-78746272D01*
X101563733Y-78746272D02*
X101513226Y-78746272D01*
X101513226Y-78746272D02*
X101437464Y-78771525D01*
X101285941Y-79983709D02*
X101588987Y-79680663D01*
X101437464Y-79832186D02*
X100907134Y-79301856D01*
X100907134Y-79301856D02*
X101033403Y-79327110D01*
X101033403Y-79327110D02*
X101134418Y-79327110D01*
X101134418Y-79327110D02*
X101210180Y-79301856D01*
D11*
X117049523Y-66157190D02*
X117073332Y-66181000D01*
X117073332Y-66181000D02*
X117144761Y-66204809D01*
X117144761Y-66204809D02*
X117192380Y-66204809D01*
X117192380Y-66204809D02*
X117263808Y-66181000D01*
X117263808Y-66181000D02*
X117311427Y-66133380D01*
X117311427Y-66133380D02*
X117335237Y-66085761D01*
X117335237Y-66085761D02*
X117359046Y-65990523D01*
X117359046Y-65990523D02*
X117359046Y-65919095D01*
X117359046Y-65919095D02*
X117335237Y-65823857D01*
X117335237Y-65823857D02*
X117311427Y-65776238D01*
X117311427Y-65776238D02*
X117263808Y-65728619D01*
X117263808Y-65728619D02*
X117192380Y-65704809D01*
X117192380Y-65704809D02*
X117144761Y-65704809D01*
X117144761Y-65704809D02*
X117073332Y-65728619D01*
X117073332Y-65728619D02*
X117049523Y-65752428D01*
X116882856Y-65704809D02*
X116549523Y-65704809D01*
X116549523Y-65704809D02*
X116763808Y-66204809D01*
X116263809Y-65704809D02*
X116216190Y-65704809D01*
X116216190Y-65704809D02*
X116168571Y-65728619D01*
X116168571Y-65728619D02*
X116144761Y-65752428D01*
X116144761Y-65752428D02*
X116120952Y-65800047D01*
X116120952Y-65800047D02*
X116097142Y-65895285D01*
X116097142Y-65895285D02*
X116097142Y-66014333D01*
X116097142Y-66014333D02*
X116120952Y-66109571D01*
X116120952Y-66109571D02*
X116144761Y-66157190D01*
X116144761Y-66157190D02*
X116168571Y-66181000D01*
X116168571Y-66181000D02*
X116216190Y-66204809D01*
X116216190Y-66204809D02*
X116263809Y-66204809D01*
X116263809Y-66204809D02*
X116311428Y-66181000D01*
X116311428Y-66181000D02*
X116335237Y-66157190D01*
X116335237Y-66157190D02*
X116359047Y-66109571D01*
X116359047Y-66109571D02*
X116382856Y-66014333D01*
X116382856Y-66014333D02*
X116382856Y-65895285D01*
X116382856Y-65895285D02*
X116359047Y-65800047D01*
X116359047Y-65800047D02*
X116335237Y-65752428D01*
X116335237Y-65752428D02*
X116311428Y-65728619D01*
X116311428Y-65728619D02*
X116263809Y-65704809D01*
X115668571Y-65704809D02*
X115763809Y-65704809D01*
X115763809Y-65704809D02*
X115811428Y-65728619D01*
X115811428Y-65728619D02*
X115835238Y-65752428D01*
X115835238Y-65752428D02*
X115882857Y-65823857D01*
X115882857Y-65823857D02*
X115906666Y-65919095D01*
X115906666Y-65919095D02*
X115906666Y-66109571D01*
X115906666Y-66109571D02*
X115882857Y-66157190D01*
X115882857Y-66157190D02*
X115859047Y-66181000D01*
X115859047Y-66181000D02*
X115811428Y-66204809D01*
X115811428Y-66204809D02*
X115716190Y-66204809D01*
X115716190Y-66204809D02*
X115668571Y-66181000D01*
X115668571Y-66181000D02*
X115644762Y-66157190D01*
X115644762Y-66157190D02*
X115620952Y-66109571D01*
X115620952Y-66109571D02*
X115620952Y-65990523D01*
X115620952Y-65990523D02*
X115644762Y-65942904D01*
X115644762Y-65942904D02*
X115668571Y-65919095D01*
X115668571Y-65919095D02*
X115716190Y-65895285D01*
X115716190Y-65895285D02*
X115811428Y-65895285D01*
X115811428Y-65895285D02*
X115859047Y-65919095D01*
X115859047Y-65919095D02*
X115882857Y-65942904D01*
X115882857Y-65942904D02*
X115906666Y-65990523D01*
D10*
X104142782Y-87065853D02*
X104193290Y-87065853D01*
X104193290Y-87065853D02*
X104294305Y-87015346D01*
X104294305Y-87015346D02*
X104344813Y-86964838D01*
X104344813Y-86964838D02*
X104395320Y-86863823D01*
X104395320Y-86863823D02*
X104395320Y-86762808D01*
X104395320Y-86762808D02*
X104370066Y-86687046D01*
X104370066Y-86687046D02*
X104294305Y-86560777D01*
X104294305Y-86560777D02*
X104218544Y-86485016D01*
X104218544Y-86485016D02*
X104092275Y-86409254D01*
X104092275Y-86409254D02*
X104016513Y-86384000D01*
X104016513Y-86384000D02*
X103915498Y-86384000D01*
X103915498Y-86384000D02*
X103814483Y-86434508D01*
X103814483Y-86434508D02*
X103763975Y-86485016D01*
X103763975Y-86485016D02*
X103713467Y-86586031D01*
X103713467Y-86586031D02*
X103713467Y-86636538D01*
X103183137Y-87065853D02*
X103435675Y-86813315D01*
X103435675Y-86813315D02*
X103713467Y-87040600D01*
X103713467Y-87040600D02*
X103662960Y-87040600D01*
X103662960Y-87040600D02*
X103587198Y-87065853D01*
X103587198Y-87065853D02*
X103460929Y-87192122D01*
X103460929Y-87192122D02*
X103435675Y-87267884D01*
X103435675Y-87267884D02*
X103435675Y-87318391D01*
X103435675Y-87318391D02*
X103460929Y-87394153D01*
X103460929Y-87394153D02*
X103587198Y-87520422D01*
X103587198Y-87520422D02*
X103662960Y-87545676D01*
X103662960Y-87545676D02*
X103713467Y-87545676D01*
X103713467Y-87545676D02*
X103789229Y-87520422D01*
X103789229Y-87520422D02*
X103915498Y-87394153D01*
X103915498Y-87394153D02*
X103940752Y-87318391D01*
X103940752Y-87318391D02*
X103940752Y-87267884D01*
X102829584Y-87419407D02*
X102779076Y-87469915D01*
X102779076Y-87469915D02*
X102753822Y-87545676D01*
X102753822Y-87545676D02*
X102753822Y-87596184D01*
X102753822Y-87596184D02*
X102779076Y-87671945D01*
X102779076Y-87671945D02*
X102854837Y-87798214D01*
X102854837Y-87798214D02*
X102981107Y-87924483D01*
X102981107Y-87924483D02*
X103107376Y-88000245D01*
X103107376Y-88000245D02*
X103183137Y-88025498D01*
X103183137Y-88025498D02*
X103233645Y-88025498D01*
X103233645Y-88025498D02*
X103309406Y-88000245D01*
X103309406Y-88000245D02*
X103359914Y-87949737D01*
X103359914Y-87949737D02*
X103385168Y-87873976D01*
X103385168Y-87873976D02*
X103385168Y-87823468D01*
X103385168Y-87823468D02*
X103359914Y-87747706D01*
X103359914Y-87747706D02*
X103284152Y-87621437D01*
X103284152Y-87621437D02*
X103157883Y-87495168D01*
X103157883Y-87495168D02*
X103031614Y-87419407D01*
X103031614Y-87419407D02*
X102955853Y-87394153D01*
X102955853Y-87394153D02*
X102905345Y-87394153D01*
X102905345Y-87394153D02*
X102829584Y-87419407D01*
X102375015Y-88227529D02*
X102728568Y-88581083D01*
X102299253Y-87899230D02*
X102804330Y-88151768D01*
X102804330Y-88151768D02*
X102476030Y-88480067D01*
X112309641Y-91818632D02*
X111880326Y-92247947D01*
X111880326Y-92247947D02*
X111804564Y-92273201D01*
X111804564Y-92273201D02*
X111754057Y-92273201D01*
X111754057Y-92273201D02*
X111678295Y-92247947D01*
X111678295Y-92247947D02*
X111577280Y-92146932D01*
X111577280Y-92146932D02*
X111552026Y-92071170D01*
X111552026Y-92071170D02*
X111552026Y-92020663D01*
X111552026Y-92020663D02*
X111577280Y-91944901D01*
X111577280Y-91944901D02*
X112006595Y-91515587D01*
X111501519Y-91010510D02*
X111754057Y-91263049D01*
X111754057Y-91263049D02*
X111526773Y-91540841D01*
X111526773Y-91540841D02*
X111526773Y-91490333D01*
X111526773Y-91490333D02*
X111501519Y-91414571D01*
X111501519Y-91414571D02*
X111375250Y-91288302D01*
X111375250Y-91288302D02*
X111299488Y-91263049D01*
X111299488Y-91263049D02*
X111248981Y-91263049D01*
X111248981Y-91263049D02*
X111173219Y-91288302D01*
X111173219Y-91288302D02*
X111046950Y-91414571D01*
X111046950Y-91414571D02*
X111021696Y-91490333D01*
X111021696Y-91490333D02*
X111021696Y-91540841D01*
X111021696Y-91540841D02*
X111046950Y-91616602D01*
X111046950Y-91616602D02*
X111173219Y-91742871D01*
X111173219Y-91742871D02*
X111248981Y-91768125D01*
X111248981Y-91768125D02*
X111299488Y-91768125D01*
X111147965Y-90656957D02*
X111097458Y-90606449D01*
X111097458Y-90606449D02*
X111021696Y-90581195D01*
X111021696Y-90581195D02*
X110971189Y-90581195D01*
X110971189Y-90581195D02*
X110895427Y-90606449D01*
X110895427Y-90606449D02*
X110769158Y-90682211D01*
X110769158Y-90682211D02*
X110642889Y-90808480D01*
X110642889Y-90808480D02*
X110567128Y-90934749D01*
X110567128Y-90934749D02*
X110541874Y-91010510D01*
X110541874Y-91010510D02*
X110541874Y-91061018D01*
X110541874Y-91061018D02*
X110567128Y-91136779D01*
X110567128Y-91136779D02*
X110617635Y-91187287D01*
X110617635Y-91187287D02*
X110693397Y-91212541D01*
X110693397Y-91212541D02*
X110743904Y-91212541D01*
X110743904Y-91212541D02*
X110819666Y-91187287D01*
X110819666Y-91187287D02*
X110945935Y-91111525D01*
X110945935Y-91111525D02*
X111072204Y-90985256D01*
X111072204Y-90985256D02*
X111147965Y-90858987D01*
X111147965Y-90858987D02*
X111173219Y-90783226D01*
X111173219Y-90783226D02*
X111173219Y-90732718D01*
X111173219Y-90732718D02*
X111147965Y-90656957D01*
X110718650Y-90328657D02*
X110718650Y-90278149D01*
X110718650Y-90278149D02*
X110693396Y-90202388D01*
X110693396Y-90202388D02*
X110567127Y-90076119D01*
X110567127Y-90076119D02*
X110491366Y-90050865D01*
X110491366Y-90050865D02*
X110440858Y-90050865D01*
X110440858Y-90050865D02*
X110365097Y-90076119D01*
X110365097Y-90076119D02*
X110314589Y-90126627D01*
X110314589Y-90126627D02*
X110264082Y-90227642D01*
X110264082Y-90227642D02*
X110264082Y-90833733D01*
X110264082Y-90833733D02*
X109935782Y-90505434D01*
X104019286Y-65147735D02*
X104055000Y-65183450D01*
X104055000Y-65183450D02*
X104162143Y-65219164D01*
X104162143Y-65219164D02*
X104233571Y-65219164D01*
X104233571Y-65219164D02*
X104340714Y-65183450D01*
X104340714Y-65183450D02*
X104412143Y-65112021D01*
X104412143Y-65112021D02*
X104447857Y-65040592D01*
X104447857Y-65040592D02*
X104483571Y-64897735D01*
X104483571Y-64897735D02*
X104483571Y-64790592D01*
X104483571Y-64790592D02*
X104447857Y-64647735D01*
X104447857Y-64647735D02*
X104412143Y-64576307D01*
X104412143Y-64576307D02*
X104340714Y-64504878D01*
X104340714Y-64504878D02*
X104233571Y-64469164D01*
X104233571Y-64469164D02*
X104162143Y-64469164D01*
X104162143Y-64469164D02*
X104055000Y-64504878D01*
X104055000Y-64504878D02*
X104019286Y-64540592D01*
X103769286Y-64469164D02*
X103269286Y-64469164D01*
X103269286Y-64469164D02*
X103590714Y-65219164D01*
X102590714Y-65219164D02*
X103019285Y-65219164D01*
X102805000Y-65219164D02*
X102805000Y-64469164D01*
X102805000Y-64469164D02*
X102876428Y-64576307D01*
X102876428Y-64576307D02*
X102947857Y-64647735D01*
X102947857Y-64647735D02*
X103019285Y-64683450D01*
X102162142Y-64790592D02*
X102233571Y-64754878D01*
X102233571Y-64754878D02*
X102269285Y-64719164D01*
X102269285Y-64719164D02*
X102304999Y-64647735D01*
X102304999Y-64647735D02*
X102304999Y-64612021D01*
X102304999Y-64612021D02*
X102269285Y-64540592D01*
X102269285Y-64540592D02*
X102233571Y-64504878D01*
X102233571Y-64504878D02*
X102162142Y-64469164D01*
X102162142Y-64469164D02*
X102019285Y-64469164D01*
X102019285Y-64469164D02*
X101947857Y-64504878D01*
X101947857Y-64504878D02*
X101912142Y-64540592D01*
X101912142Y-64540592D02*
X101876428Y-64612021D01*
X101876428Y-64612021D02*
X101876428Y-64647735D01*
X101876428Y-64647735D02*
X101912142Y-64719164D01*
X101912142Y-64719164D02*
X101947857Y-64754878D01*
X101947857Y-64754878D02*
X102019285Y-64790592D01*
X102019285Y-64790592D02*
X102162142Y-64790592D01*
X102162142Y-64790592D02*
X102233571Y-64826307D01*
X102233571Y-64826307D02*
X102269285Y-64862021D01*
X102269285Y-64862021D02*
X102304999Y-64933450D01*
X102304999Y-64933450D02*
X102304999Y-65076307D01*
X102304999Y-65076307D02*
X102269285Y-65147735D01*
X102269285Y-65147735D02*
X102233571Y-65183450D01*
X102233571Y-65183450D02*
X102162142Y-65219164D01*
X102162142Y-65219164D02*
X102019285Y-65219164D01*
X102019285Y-65219164D02*
X101947857Y-65183450D01*
X101947857Y-65183450D02*
X101912142Y-65147735D01*
X101912142Y-65147735D02*
X101876428Y-65076307D01*
X101876428Y-65076307D02*
X101876428Y-64933450D01*
X101876428Y-64933450D02*
X101912142Y-64862021D01*
X101912142Y-64862021D02*
X101947857Y-64826307D01*
X101947857Y-64826307D02*
X102019285Y-64790592D01*
D11*
X120920349Y-88160934D02*
X120920349Y-88194605D01*
X120920349Y-88194605D02*
X120954021Y-88261949D01*
X120954021Y-88261949D02*
X120987693Y-88295621D01*
X120987693Y-88295621D02*
X121055036Y-88329292D01*
X121055036Y-88329292D02*
X121122380Y-88329292D01*
X121122380Y-88329292D02*
X121172888Y-88312457D01*
X121172888Y-88312457D02*
X121257067Y-88261949D01*
X121257067Y-88261949D02*
X121307575Y-88211441D01*
X121307575Y-88211441D02*
X121358082Y-88127262D01*
X121358082Y-88127262D02*
X121374918Y-88076754D01*
X121374918Y-88076754D02*
X121374918Y-88009411D01*
X121374918Y-88009411D02*
X121341246Y-87942067D01*
X121341246Y-87942067D02*
X121307575Y-87908396D01*
X121307575Y-87908396D02*
X121240231Y-87874724D01*
X121240231Y-87874724D02*
X121206559Y-87874724D01*
X120920349Y-87521170D02*
X121088708Y-87689529D01*
X121088708Y-87689529D02*
X120937185Y-87874724D01*
X120937185Y-87874724D02*
X120937185Y-87841052D01*
X120937185Y-87841052D02*
X120920349Y-87790544D01*
X120920349Y-87790544D02*
X120836170Y-87706365D01*
X120836170Y-87706365D02*
X120785662Y-87689529D01*
X120785662Y-87689529D02*
X120751991Y-87689529D01*
X120751991Y-87689529D02*
X120701483Y-87706365D01*
X120701483Y-87706365D02*
X120617304Y-87790544D01*
X120617304Y-87790544D02*
X120600468Y-87841052D01*
X120600468Y-87841052D02*
X120600468Y-87874724D01*
X120600468Y-87874724D02*
X120617304Y-87925231D01*
X120617304Y-87925231D02*
X120701483Y-88009411D01*
X120701483Y-88009411D02*
X120751991Y-88026247D01*
X120751991Y-88026247D02*
X120785662Y-88026247D01*
X120684648Y-87285468D02*
X120650976Y-87251797D01*
X120650976Y-87251797D02*
X120600468Y-87234961D01*
X120600468Y-87234961D02*
X120566796Y-87234961D01*
X120566796Y-87234961D02*
X120516289Y-87251797D01*
X120516289Y-87251797D02*
X120432109Y-87302304D01*
X120432109Y-87302304D02*
X120347930Y-87386484D01*
X120347930Y-87386484D02*
X120297422Y-87470663D01*
X120297422Y-87470663D02*
X120280587Y-87521171D01*
X120280587Y-87521171D02*
X120280587Y-87554842D01*
X120280587Y-87554842D02*
X120297422Y-87605350D01*
X120297422Y-87605350D02*
X120331094Y-87639022D01*
X120331094Y-87639022D02*
X120381602Y-87655858D01*
X120381602Y-87655858D02*
X120415274Y-87655858D01*
X120415274Y-87655858D02*
X120465781Y-87639022D01*
X120465781Y-87639022D02*
X120549961Y-87588514D01*
X120549961Y-87588514D02*
X120634140Y-87504335D01*
X120634140Y-87504335D02*
X120684648Y-87420155D01*
X120684648Y-87420155D02*
X120701483Y-87369648D01*
X120701483Y-87369648D02*
X120701483Y-87335976D01*
X120701483Y-87335976D02*
X120684648Y-87285468D01*
X120246915Y-86847736D02*
X120415274Y-87016095D01*
X120415274Y-87016095D02*
X120263751Y-87201289D01*
X120263751Y-87201289D02*
X120263751Y-87167618D01*
X120263751Y-87167618D02*
X120246915Y-87117110D01*
X120246915Y-87117110D02*
X120162736Y-87032931D01*
X120162736Y-87032931D02*
X120112228Y-87016095D01*
X120112228Y-87016095D02*
X120078556Y-87016095D01*
X120078556Y-87016095D02*
X120028049Y-87032931D01*
X120028049Y-87032931D02*
X119943869Y-87117110D01*
X119943869Y-87117110D02*
X119927033Y-87167618D01*
X119927033Y-87167618D02*
X119927033Y-87201289D01*
X119927033Y-87201289D02*
X119943869Y-87251797D01*
X119943869Y-87251797D02*
X120028049Y-87335976D01*
X120028049Y-87335976D02*
X120078556Y-87352812D01*
X120078556Y-87352812D02*
X120112228Y-87352812D01*
D10*
X115906785Y-76376307D02*
X116156785Y-76376307D01*
X116156785Y-76769164D02*
X116156785Y-76019164D01*
X116156785Y-76019164D02*
X115799642Y-76019164D01*
X115263928Y-76376307D02*
X115156785Y-76412021D01*
X115156785Y-76412021D02*
X115121071Y-76447735D01*
X115121071Y-76447735D02*
X115085357Y-76519164D01*
X115085357Y-76519164D02*
X115085357Y-76626307D01*
X115085357Y-76626307D02*
X115121071Y-76697735D01*
X115121071Y-76697735D02*
X115156785Y-76733450D01*
X115156785Y-76733450D02*
X115228214Y-76769164D01*
X115228214Y-76769164D02*
X115513928Y-76769164D01*
X115513928Y-76769164D02*
X115513928Y-76019164D01*
X115513928Y-76019164D02*
X115263928Y-76019164D01*
X115263928Y-76019164D02*
X115192500Y-76054878D01*
X115192500Y-76054878D02*
X115156785Y-76090592D01*
X115156785Y-76090592D02*
X115121071Y-76162021D01*
X115121071Y-76162021D02*
X115121071Y-76233450D01*
X115121071Y-76233450D02*
X115156785Y-76304878D01*
X115156785Y-76304878D02*
X115192500Y-76340592D01*
X115192500Y-76340592D02*
X115263928Y-76376307D01*
X115263928Y-76376307D02*
X115513928Y-76376307D01*
X114835357Y-76019164D02*
X114335357Y-76019164D01*
X114335357Y-76019164D02*
X114656785Y-76769164D01*
X113906785Y-76019164D02*
X113835356Y-76019164D01*
X113835356Y-76019164D02*
X113763928Y-76054878D01*
X113763928Y-76054878D02*
X113728214Y-76090592D01*
X113728214Y-76090592D02*
X113692499Y-76162021D01*
X113692499Y-76162021D02*
X113656785Y-76304878D01*
X113656785Y-76304878D02*
X113656785Y-76483450D01*
X113656785Y-76483450D02*
X113692499Y-76626307D01*
X113692499Y-76626307D02*
X113728214Y-76697735D01*
X113728214Y-76697735D02*
X113763928Y-76733450D01*
X113763928Y-76733450D02*
X113835356Y-76769164D01*
X113835356Y-76769164D02*
X113906785Y-76769164D01*
X113906785Y-76769164D02*
X113978214Y-76733450D01*
X113978214Y-76733450D02*
X114013928Y-76697735D01*
X114013928Y-76697735D02*
X114049642Y-76626307D01*
X114049642Y-76626307D02*
X114085356Y-76483450D01*
X114085356Y-76483450D02*
X114085356Y-76304878D01*
X114085356Y-76304878D02*
X114049642Y-76162021D01*
X114049642Y-76162021D02*
X114013928Y-76090592D01*
X114013928Y-76090592D02*
X113978214Y-76054878D01*
X113978214Y-76054878D02*
X113906785Y-76019164D01*
X112942499Y-76769164D02*
X113371070Y-76769164D01*
X113156785Y-76769164D02*
X113156785Y-76019164D01*
X113156785Y-76019164D02*
X113228213Y-76126307D01*
X113228213Y-76126307D02*
X113299642Y-76197735D01*
X113299642Y-76197735D02*
X113371070Y-76233450D01*
X102637735Y-91000713D02*
X102673450Y-90964999D01*
X102673450Y-90964999D02*
X102709164Y-90857856D01*
X102709164Y-90857856D02*
X102709164Y-90786428D01*
X102709164Y-90786428D02*
X102673450Y-90679285D01*
X102673450Y-90679285D02*
X102602021Y-90607856D01*
X102602021Y-90607856D02*
X102530592Y-90572142D01*
X102530592Y-90572142D02*
X102387735Y-90536428D01*
X102387735Y-90536428D02*
X102280592Y-90536428D01*
X102280592Y-90536428D02*
X102137735Y-90572142D01*
X102137735Y-90572142D02*
X102066307Y-90607856D01*
X102066307Y-90607856D02*
X101994878Y-90679285D01*
X101994878Y-90679285D02*
X101959164Y-90786428D01*
X101959164Y-90786428D02*
X101959164Y-90857856D01*
X101959164Y-90857856D02*
X101994878Y-90964999D01*
X101994878Y-90964999D02*
X102030592Y-91000713D01*
X101959164Y-91679285D02*
X101959164Y-91322142D01*
X101959164Y-91322142D02*
X102316307Y-91286428D01*
X102316307Y-91286428D02*
X102280592Y-91322142D01*
X102280592Y-91322142D02*
X102244878Y-91393571D01*
X102244878Y-91393571D02*
X102244878Y-91572142D01*
X102244878Y-91572142D02*
X102280592Y-91643571D01*
X102280592Y-91643571D02*
X102316307Y-91679285D01*
X102316307Y-91679285D02*
X102387735Y-91714999D01*
X102387735Y-91714999D02*
X102566307Y-91714999D01*
X102566307Y-91714999D02*
X102637735Y-91679285D01*
X102637735Y-91679285D02*
X102673450Y-91643571D01*
X102673450Y-91643571D02*
X102709164Y-91572142D01*
X102709164Y-91572142D02*
X102709164Y-91393571D01*
X102709164Y-91393571D02*
X102673450Y-91322142D01*
X102673450Y-91322142D02*
X102637735Y-91286428D01*
X101959164Y-92179285D02*
X101959164Y-92250714D01*
X101959164Y-92250714D02*
X101994878Y-92322142D01*
X101994878Y-92322142D02*
X102030592Y-92357857D01*
X102030592Y-92357857D02*
X102102021Y-92393571D01*
X102102021Y-92393571D02*
X102244878Y-92429285D01*
X102244878Y-92429285D02*
X102423450Y-92429285D01*
X102423450Y-92429285D02*
X102566307Y-92393571D01*
X102566307Y-92393571D02*
X102637735Y-92357857D01*
X102637735Y-92357857D02*
X102673450Y-92322142D01*
X102673450Y-92322142D02*
X102709164Y-92250714D01*
X102709164Y-92250714D02*
X102709164Y-92179285D01*
X102709164Y-92179285D02*
X102673450Y-92107857D01*
X102673450Y-92107857D02*
X102637735Y-92072142D01*
X102637735Y-92072142D02*
X102566307Y-92036428D01*
X102566307Y-92036428D02*
X102423450Y-92000714D01*
X102423450Y-92000714D02*
X102244878Y-92000714D01*
X102244878Y-92000714D02*
X102102021Y-92036428D01*
X102102021Y-92036428D02*
X102030592Y-92072142D01*
X102030592Y-92072142D02*
X101994878Y-92107857D01*
X101994878Y-92107857D02*
X101959164Y-92179285D01*
X101959164Y-92679285D02*
X101959164Y-93143571D01*
X101959164Y-93143571D02*
X102244878Y-92893571D01*
X102244878Y-92893571D02*
X102244878Y-93000714D01*
X102244878Y-93000714D02*
X102280592Y-93072143D01*
X102280592Y-93072143D02*
X102316307Y-93107857D01*
X102316307Y-93107857D02*
X102387735Y-93143571D01*
X102387735Y-93143571D02*
X102566307Y-93143571D01*
X102566307Y-93143571D02*
X102637735Y-93107857D01*
X102637735Y-93107857D02*
X102673450Y-93072143D01*
X102673450Y-93072143D02*
X102709164Y-93000714D01*
X102709164Y-93000714D02*
X102709164Y-92786428D01*
X102709164Y-92786428D02*
X102673450Y-92715000D01*
X102673450Y-92715000D02*
X102637735Y-92679285D01*
X107299286Y-59917735D02*
X107335000Y-59953450D01*
X107335000Y-59953450D02*
X107442143Y-59989164D01*
X107442143Y-59989164D02*
X107513571Y-59989164D01*
X107513571Y-59989164D02*
X107620714Y-59953450D01*
X107620714Y-59953450D02*
X107692143Y-59882021D01*
X107692143Y-59882021D02*
X107727857Y-59810592D01*
X107727857Y-59810592D02*
X107763571Y-59667735D01*
X107763571Y-59667735D02*
X107763571Y-59560592D01*
X107763571Y-59560592D02*
X107727857Y-59417735D01*
X107727857Y-59417735D02*
X107692143Y-59346307D01*
X107692143Y-59346307D02*
X107620714Y-59274878D01*
X107620714Y-59274878D02*
X107513571Y-59239164D01*
X107513571Y-59239164D02*
X107442143Y-59239164D01*
X107442143Y-59239164D02*
X107335000Y-59274878D01*
X107335000Y-59274878D02*
X107299286Y-59310592D01*
X107049286Y-59239164D02*
X106549286Y-59239164D01*
X106549286Y-59239164D02*
X106870714Y-59989164D01*
X106120714Y-59239164D02*
X106049285Y-59239164D01*
X106049285Y-59239164D02*
X105977857Y-59274878D01*
X105977857Y-59274878D02*
X105942143Y-59310592D01*
X105942143Y-59310592D02*
X105906428Y-59382021D01*
X105906428Y-59382021D02*
X105870714Y-59524878D01*
X105870714Y-59524878D02*
X105870714Y-59703450D01*
X105870714Y-59703450D02*
X105906428Y-59846307D01*
X105906428Y-59846307D02*
X105942143Y-59917735D01*
X105942143Y-59917735D02*
X105977857Y-59953450D01*
X105977857Y-59953450D02*
X106049285Y-59989164D01*
X106049285Y-59989164D02*
X106120714Y-59989164D01*
X106120714Y-59989164D02*
X106192143Y-59953450D01*
X106192143Y-59953450D02*
X106227857Y-59917735D01*
X106227857Y-59917735D02*
X106263571Y-59846307D01*
X106263571Y-59846307D02*
X106299285Y-59703450D01*
X106299285Y-59703450D02*
X106299285Y-59524878D01*
X106299285Y-59524878D02*
X106263571Y-59382021D01*
X106263571Y-59382021D02*
X106227857Y-59310592D01*
X106227857Y-59310592D02*
X106192143Y-59274878D01*
X106192143Y-59274878D02*
X106120714Y-59239164D01*
X105513571Y-59989164D02*
X105370714Y-59989164D01*
X105370714Y-59989164D02*
X105299285Y-59953450D01*
X105299285Y-59953450D02*
X105263571Y-59917735D01*
X105263571Y-59917735D02*
X105192142Y-59810592D01*
X105192142Y-59810592D02*
X105156428Y-59667735D01*
X105156428Y-59667735D02*
X105156428Y-59382021D01*
X105156428Y-59382021D02*
X105192142Y-59310592D01*
X105192142Y-59310592D02*
X105227857Y-59274878D01*
X105227857Y-59274878D02*
X105299285Y-59239164D01*
X105299285Y-59239164D02*
X105442142Y-59239164D01*
X105442142Y-59239164D02*
X105513571Y-59274878D01*
X105513571Y-59274878D02*
X105549285Y-59310592D01*
X105549285Y-59310592D02*
X105584999Y-59382021D01*
X105584999Y-59382021D02*
X105584999Y-59560592D01*
X105584999Y-59560592D02*
X105549285Y-59632021D01*
X105549285Y-59632021D02*
X105513571Y-59667735D01*
X105513571Y-59667735D02*
X105442142Y-59703450D01*
X105442142Y-59703450D02*
X105299285Y-59703450D01*
X105299285Y-59703450D02*
X105227857Y-59667735D01*
X105227857Y-59667735D02*
X105192142Y-59632021D01*
X105192142Y-59632021D02*
X105156428Y-59560592D01*
X107005714Y-60359164D02*
X107005714Y-60966307D01*
X107005714Y-60966307D02*
X106970000Y-61037735D01*
X106970000Y-61037735D02*
X106934286Y-61073450D01*
X106934286Y-61073450D02*
X106862857Y-61109164D01*
X106862857Y-61109164D02*
X106720000Y-61109164D01*
X106720000Y-61109164D02*
X106648571Y-61073450D01*
X106648571Y-61073450D02*
X106612857Y-61037735D01*
X106612857Y-61037735D02*
X106577143Y-60966307D01*
X106577143Y-60966307D02*
X106577143Y-60359164D01*
X106291429Y-60359164D02*
X105791429Y-60359164D01*
X105791429Y-60359164D02*
X106112857Y-61109164D01*
X105362857Y-60359164D02*
X105291428Y-60359164D01*
X105291428Y-60359164D02*
X105220000Y-60394878D01*
X105220000Y-60394878D02*
X105184286Y-60430592D01*
X105184286Y-60430592D02*
X105148571Y-60502021D01*
X105148571Y-60502021D02*
X105112857Y-60644878D01*
X105112857Y-60644878D02*
X105112857Y-60823450D01*
X105112857Y-60823450D02*
X105148571Y-60966307D01*
X105148571Y-60966307D02*
X105184286Y-61037735D01*
X105184286Y-61037735D02*
X105220000Y-61073450D01*
X105220000Y-61073450D02*
X105291428Y-61109164D01*
X105291428Y-61109164D02*
X105362857Y-61109164D01*
X105362857Y-61109164D02*
X105434286Y-61073450D01*
X105434286Y-61073450D02*
X105470000Y-61037735D01*
X105470000Y-61037735D02*
X105505714Y-60966307D01*
X105505714Y-60966307D02*
X105541428Y-60823450D01*
X105541428Y-60823450D02*
X105541428Y-60644878D01*
X105541428Y-60644878D02*
X105505714Y-60502021D01*
X105505714Y-60502021D02*
X105470000Y-60430592D01*
X105470000Y-60430592D02*
X105434286Y-60394878D01*
X105434286Y-60394878D02*
X105362857Y-60359164D01*
X104827142Y-60430592D02*
X104791428Y-60394878D01*
X104791428Y-60394878D02*
X104720000Y-60359164D01*
X104720000Y-60359164D02*
X104541428Y-60359164D01*
X104541428Y-60359164D02*
X104470000Y-60394878D01*
X104470000Y-60394878D02*
X104434285Y-60430592D01*
X104434285Y-60430592D02*
X104398571Y-60502021D01*
X104398571Y-60502021D02*
X104398571Y-60573450D01*
X104398571Y-60573450D02*
X104434285Y-60680592D01*
X104434285Y-60680592D02*
X104862857Y-61109164D01*
X104862857Y-61109164D02*
X104398571Y-61109164D01*
X106899999Y-61284819D02*
X106899999Y-61522914D01*
X107138094Y-61427676D02*
X106899999Y-61522914D01*
X106899999Y-61522914D02*
X106661904Y-61427676D01*
X107042856Y-61713390D02*
X106899999Y-61522914D01*
X106899999Y-61522914D02*
X106757142Y-61713390D01*
D11*
X108129523Y-77797190D02*
X108153332Y-77821000D01*
X108153332Y-77821000D02*
X108224761Y-77844809D01*
X108224761Y-77844809D02*
X108272380Y-77844809D01*
X108272380Y-77844809D02*
X108343808Y-77821000D01*
X108343808Y-77821000D02*
X108391427Y-77773380D01*
X108391427Y-77773380D02*
X108415237Y-77725761D01*
X108415237Y-77725761D02*
X108439046Y-77630523D01*
X108439046Y-77630523D02*
X108439046Y-77559095D01*
X108439046Y-77559095D02*
X108415237Y-77463857D01*
X108415237Y-77463857D02*
X108391427Y-77416238D01*
X108391427Y-77416238D02*
X108343808Y-77368619D01*
X108343808Y-77368619D02*
X108272380Y-77344809D01*
X108272380Y-77344809D02*
X108224761Y-77344809D01*
X108224761Y-77344809D02*
X108153332Y-77368619D01*
X108153332Y-77368619D02*
X108129523Y-77392428D01*
X107962856Y-77344809D02*
X107629523Y-77344809D01*
X107629523Y-77344809D02*
X107843808Y-77844809D01*
X107343809Y-77344809D02*
X107296190Y-77344809D01*
X107296190Y-77344809D02*
X107248571Y-77368619D01*
X107248571Y-77368619D02*
X107224761Y-77392428D01*
X107224761Y-77392428D02*
X107200952Y-77440047D01*
X107200952Y-77440047D02*
X107177142Y-77535285D01*
X107177142Y-77535285D02*
X107177142Y-77654333D01*
X107177142Y-77654333D02*
X107200952Y-77749571D01*
X107200952Y-77749571D02*
X107224761Y-77797190D01*
X107224761Y-77797190D02*
X107248571Y-77821000D01*
X107248571Y-77821000D02*
X107296190Y-77844809D01*
X107296190Y-77844809D02*
X107343809Y-77844809D01*
X107343809Y-77844809D02*
X107391428Y-77821000D01*
X107391428Y-77821000D02*
X107415237Y-77797190D01*
X107415237Y-77797190D02*
X107439047Y-77749571D01*
X107439047Y-77749571D02*
X107462856Y-77654333D01*
X107462856Y-77654333D02*
X107462856Y-77535285D01*
X107462856Y-77535285D02*
X107439047Y-77440047D01*
X107439047Y-77440047D02*
X107415237Y-77392428D01*
X107415237Y-77392428D02*
X107391428Y-77368619D01*
X107391428Y-77368619D02*
X107343809Y-77344809D01*
X106986666Y-77392428D02*
X106962857Y-77368619D01*
X106962857Y-77368619D02*
X106915238Y-77344809D01*
X106915238Y-77344809D02*
X106796190Y-77344809D01*
X106796190Y-77344809D02*
X106748571Y-77368619D01*
X106748571Y-77368619D02*
X106724762Y-77392428D01*
X106724762Y-77392428D02*
X106700952Y-77440047D01*
X106700952Y-77440047D02*
X106700952Y-77487666D01*
X106700952Y-77487666D02*
X106724762Y-77559095D01*
X106724762Y-77559095D02*
X107010476Y-77844809D01*
X107010476Y-77844809D02*
X106700952Y-77844809D01*
D10*
X115337735Y-59390713D02*
X115373450Y-59354999D01*
X115373450Y-59354999D02*
X115409164Y-59247856D01*
X115409164Y-59247856D02*
X115409164Y-59176428D01*
X115409164Y-59176428D02*
X115373450Y-59069285D01*
X115373450Y-59069285D02*
X115302021Y-58997856D01*
X115302021Y-58997856D02*
X115230592Y-58962142D01*
X115230592Y-58962142D02*
X115087735Y-58926428D01*
X115087735Y-58926428D02*
X114980592Y-58926428D01*
X114980592Y-58926428D02*
X114837735Y-58962142D01*
X114837735Y-58962142D02*
X114766307Y-58997856D01*
X114766307Y-58997856D02*
X114694878Y-59069285D01*
X114694878Y-59069285D02*
X114659164Y-59176428D01*
X114659164Y-59176428D02*
X114659164Y-59247856D01*
X114659164Y-59247856D02*
X114694878Y-59354999D01*
X114694878Y-59354999D02*
X114730592Y-59390713D01*
X114659164Y-59640713D02*
X114659164Y-60140713D01*
X114659164Y-60140713D02*
X115409164Y-59819285D01*
X115409164Y-60819285D02*
X115409164Y-60390714D01*
X115409164Y-60604999D02*
X114659164Y-60604999D01*
X114659164Y-60604999D02*
X114766307Y-60533571D01*
X114766307Y-60533571D02*
X114837735Y-60462142D01*
X114837735Y-60462142D02*
X114873450Y-60390714D01*
X114659164Y-61283571D02*
X114659164Y-61355000D01*
X114659164Y-61355000D02*
X114694878Y-61426428D01*
X114694878Y-61426428D02*
X114730592Y-61462143D01*
X114730592Y-61462143D02*
X114802021Y-61497857D01*
X114802021Y-61497857D02*
X114944878Y-61533571D01*
X114944878Y-61533571D02*
X115123450Y-61533571D01*
X115123450Y-61533571D02*
X115266307Y-61497857D01*
X115266307Y-61497857D02*
X115337735Y-61462143D01*
X115337735Y-61462143D02*
X115373450Y-61426428D01*
X115373450Y-61426428D02*
X115409164Y-61355000D01*
X115409164Y-61355000D02*
X115409164Y-61283571D01*
X115409164Y-61283571D02*
X115373450Y-61212143D01*
X115373450Y-61212143D02*
X115337735Y-61176428D01*
X115337735Y-61176428D02*
X115266307Y-61140714D01*
X115266307Y-61140714D02*
X115123450Y-61105000D01*
X115123450Y-61105000D02*
X114944878Y-61105000D01*
X114944878Y-61105000D02*
X114802021Y-61140714D01*
X114802021Y-61140714D02*
X114730592Y-61176428D01*
X114730592Y-61176428D02*
X114694878Y-61212143D01*
X114694878Y-61212143D02*
X114659164Y-61283571D01*
D11*
X117069523Y-67667190D02*
X117093332Y-67691000D01*
X117093332Y-67691000D02*
X117164761Y-67714809D01*
X117164761Y-67714809D02*
X117212380Y-67714809D01*
X117212380Y-67714809D02*
X117283808Y-67691000D01*
X117283808Y-67691000D02*
X117331427Y-67643380D01*
X117331427Y-67643380D02*
X117355237Y-67595761D01*
X117355237Y-67595761D02*
X117379046Y-67500523D01*
X117379046Y-67500523D02*
X117379046Y-67429095D01*
X117379046Y-67429095D02*
X117355237Y-67333857D01*
X117355237Y-67333857D02*
X117331427Y-67286238D01*
X117331427Y-67286238D02*
X117283808Y-67238619D01*
X117283808Y-67238619D02*
X117212380Y-67214809D01*
X117212380Y-67214809D02*
X117164761Y-67214809D01*
X117164761Y-67214809D02*
X117093332Y-67238619D01*
X117093332Y-67238619D02*
X117069523Y-67262428D01*
X116902856Y-67214809D02*
X116569523Y-67214809D01*
X116569523Y-67214809D02*
X116783808Y-67714809D01*
X116283809Y-67214809D02*
X116236190Y-67214809D01*
X116236190Y-67214809D02*
X116188571Y-67238619D01*
X116188571Y-67238619D02*
X116164761Y-67262428D01*
X116164761Y-67262428D02*
X116140952Y-67310047D01*
X116140952Y-67310047D02*
X116117142Y-67405285D01*
X116117142Y-67405285D02*
X116117142Y-67524333D01*
X116117142Y-67524333D02*
X116140952Y-67619571D01*
X116140952Y-67619571D02*
X116164761Y-67667190D01*
X116164761Y-67667190D02*
X116188571Y-67691000D01*
X116188571Y-67691000D02*
X116236190Y-67714809D01*
X116236190Y-67714809D02*
X116283809Y-67714809D01*
X116283809Y-67714809D02*
X116331428Y-67691000D01*
X116331428Y-67691000D02*
X116355237Y-67667190D01*
X116355237Y-67667190D02*
X116379047Y-67619571D01*
X116379047Y-67619571D02*
X116402856Y-67524333D01*
X116402856Y-67524333D02*
X116402856Y-67405285D01*
X116402856Y-67405285D02*
X116379047Y-67310047D01*
X116379047Y-67310047D02*
X116355237Y-67262428D01*
X116355237Y-67262428D02*
X116331428Y-67238619D01*
X116331428Y-67238619D02*
X116283809Y-67214809D01*
X115950476Y-67214809D02*
X115617143Y-67214809D01*
X115617143Y-67214809D02*
X115831428Y-67714809D01*
D10*
X127032781Y-83465852D02*
X127083289Y-83465852D01*
X127083289Y-83465852D02*
X127184304Y-83415345D01*
X127184304Y-83415345D02*
X127234812Y-83364837D01*
X127234812Y-83364837D02*
X127285319Y-83263822D01*
X127285319Y-83263822D02*
X127285319Y-83162807D01*
X127285319Y-83162807D02*
X127260065Y-83087045D01*
X127260065Y-83087045D02*
X127184304Y-82960776D01*
X127184304Y-82960776D02*
X127108543Y-82885015D01*
X127108543Y-82885015D02*
X126982274Y-82809253D01*
X126982274Y-82809253D02*
X126906512Y-82783999D01*
X126906512Y-82783999D02*
X126805497Y-82783999D01*
X126805497Y-82783999D02*
X126704482Y-82834507D01*
X126704482Y-82834507D02*
X126653974Y-82885015D01*
X126653974Y-82885015D02*
X126603466Y-82986030D01*
X126603466Y-82986030D02*
X126603466Y-83036537D01*
X126073136Y-83465852D02*
X126325674Y-83213314D01*
X126325674Y-83213314D02*
X126603466Y-83440599D01*
X126603466Y-83440599D02*
X126552959Y-83440599D01*
X126552959Y-83440599D02*
X126477197Y-83465852D01*
X126477197Y-83465852D02*
X126350928Y-83592121D01*
X126350928Y-83592121D02*
X126325674Y-83667883D01*
X126325674Y-83667883D02*
X126325674Y-83718390D01*
X126325674Y-83718390D02*
X126350928Y-83794152D01*
X126350928Y-83794152D02*
X126477197Y-83920421D01*
X126477197Y-83920421D02*
X126552959Y-83945675D01*
X126552959Y-83945675D02*
X126603466Y-83945675D01*
X126603466Y-83945675D02*
X126679228Y-83920421D01*
X126679228Y-83920421D02*
X126805497Y-83794152D01*
X126805497Y-83794152D02*
X126830751Y-83718390D01*
X126830751Y-83718390D02*
X126830751Y-83667883D01*
X125719583Y-83819406D02*
X125669075Y-83869914D01*
X125669075Y-83869914D02*
X125643821Y-83945675D01*
X125643821Y-83945675D02*
X125643821Y-83996183D01*
X125643821Y-83996183D02*
X125669075Y-84071944D01*
X125669075Y-84071944D02*
X125744836Y-84198213D01*
X125744836Y-84198213D02*
X125871106Y-84324482D01*
X125871106Y-84324482D02*
X125997375Y-84400244D01*
X125997375Y-84400244D02*
X126073136Y-84425497D01*
X126073136Y-84425497D02*
X126123644Y-84425497D01*
X126123644Y-84425497D02*
X126199405Y-84400244D01*
X126199405Y-84400244D02*
X126249913Y-84349736D01*
X126249913Y-84349736D02*
X126275167Y-84273975D01*
X126275167Y-84273975D02*
X126275167Y-84223467D01*
X126275167Y-84223467D02*
X126249913Y-84147705D01*
X126249913Y-84147705D02*
X126174151Y-84021436D01*
X126174151Y-84021436D02*
X126047882Y-83895167D01*
X126047882Y-83895167D02*
X125921613Y-83819406D01*
X125921613Y-83819406D02*
X125845852Y-83794152D01*
X125845852Y-83794152D02*
X125795344Y-83794152D01*
X125795344Y-83794152D02*
X125719583Y-83819406D01*
X125467044Y-84526513D02*
X125492298Y-84450751D01*
X125492298Y-84450751D02*
X125492298Y-84400244D01*
X125492298Y-84400244D02*
X125467044Y-84324482D01*
X125467044Y-84324482D02*
X125441791Y-84299229D01*
X125441791Y-84299229D02*
X125366029Y-84273975D01*
X125366029Y-84273975D02*
X125315521Y-84273975D01*
X125315521Y-84273975D02*
X125239760Y-84299229D01*
X125239760Y-84299229D02*
X125138745Y-84400244D01*
X125138745Y-84400244D02*
X125113491Y-84476005D01*
X125113491Y-84476005D02*
X125113491Y-84526513D01*
X125113491Y-84526513D02*
X125138745Y-84602274D01*
X125138745Y-84602274D02*
X125163999Y-84627528D01*
X125163999Y-84627528D02*
X125239760Y-84652782D01*
X125239760Y-84652782D02*
X125290268Y-84652782D01*
X125290268Y-84652782D02*
X125366029Y-84627528D01*
X125366029Y-84627528D02*
X125467044Y-84526513D01*
X125467044Y-84526513D02*
X125542806Y-84501259D01*
X125542806Y-84501259D02*
X125593313Y-84501259D01*
X125593313Y-84501259D02*
X125669075Y-84526513D01*
X125669075Y-84526513D02*
X125770090Y-84627528D01*
X125770090Y-84627528D02*
X125795344Y-84703290D01*
X125795344Y-84703290D02*
X125795344Y-84753797D01*
X125795344Y-84753797D02*
X125770090Y-84829559D01*
X125770090Y-84829559D02*
X125669075Y-84930574D01*
X125669075Y-84930574D02*
X125593313Y-84955828D01*
X125593313Y-84955828D02*
X125542806Y-84955828D01*
X125542806Y-84955828D02*
X125467044Y-84930574D01*
X125467044Y-84930574D02*
X125366029Y-84829559D01*
X125366029Y-84829559D02*
X125340775Y-84753797D01*
X125340775Y-84753797D02*
X125340775Y-84703290D01*
X125340775Y-84703290D02*
X125366029Y-84627528D01*
X119239285Y-50269164D02*
X119596428Y-50269164D01*
X119596428Y-50269164D02*
X119596428Y-49519164D01*
X119060714Y-49519164D02*
X118560714Y-49519164D01*
X118560714Y-49519164D02*
X118882142Y-50269164D01*
X118132142Y-49519164D02*
X118060713Y-49519164D01*
X118060713Y-49519164D02*
X117989285Y-49554878D01*
X117989285Y-49554878D02*
X117953571Y-49590592D01*
X117953571Y-49590592D02*
X117917856Y-49662021D01*
X117917856Y-49662021D02*
X117882142Y-49804878D01*
X117882142Y-49804878D02*
X117882142Y-49983450D01*
X117882142Y-49983450D02*
X117917856Y-50126307D01*
X117917856Y-50126307D02*
X117953571Y-50197735D01*
X117953571Y-50197735D02*
X117989285Y-50233450D01*
X117989285Y-50233450D02*
X118060713Y-50269164D01*
X118060713Y-50269164D02*
X118132142Y-50269164D01*
X118132142Y-50269164D02*
X118203571Y-50233450D01*
X118203571Y-50233450D02*
X118239285Y-50197735D01*
X118239285Y-50197735D02*
X118274999Y-50126307D01*
X118274999Y-50126307D02*
X118310713Y-49983450D01*
X118310713Y-49983450D02*
X118310713Y-49804878D01*
X118310713Y-49804878D02*
X118274999Y-49662021D01*
X118274999Y-49662021D02*
X118239285Y-49590592D01*
X118239285Y-49590592D02*
X118203571Y-49554878D01*
X118203571Y-49554878D02*
X118132142Y-49519164D01*
X117632142Y-49519164D02*
X117167856Y-49519164D01*
X117167856Y-49519164D02*
X117417856Y-49804878D01*
X117417856Y-49804878D02*
X117310713Y-49804878D01*
X117310713Y-49804878D02*
X117239285Y-49840592D01*
X117239285Y-49840592D02*
X117203570Y-49876307D01*
X117203570Y-49876307D02*
X117167856Y-49947735D01*
X117167856Y-49947735D02*
X117167856Y-50126307D01*
X117167856Y-50126307D02*
X117203570Y-50197735D01*
X117203570Y-50197735D02*
X117239285Y-50233450D01*
X117239285Y-50233450D02*
X117310713Y-50269164D01*
X117310713Y-50269164D02*
X117524999Y-50269164D01*
X117524999Y-50269164D02*
X117596427Y-50233450D01*
X117596427Y-50233450D02*
X117632142Y-50197735D01*
X105694147Y-78022782D02*
X105694147Y-78073290D01*
X105694147Y-78073290D02*
X105744654Y-78174305D01*
X105744654Y-78174305D02*
X105795162Y-78224813D01*
X105795162Y-78224813D02*
X105896177Y-78275320D01*
X105896177Y-78275320D02*
X105997192Y-78275320D01*
X105997192Y-78275320D02*
X106072954Y-78250066D01*
X106072954Y-78250066D02*
X106199223Y-78174305D01*
X106199223Y-78174305D02*
X106274984Y-78098544D01*
X106274984Y-78098544D02*
X106350746Y-77972275D01*
X106350746Y-77972275D02*
X106376000Y-77896513D01*
X106376000Y-77896513D02*
X106376000Y-77795498D01*
X106376000Y-77795498D02*
X106325492Y-77694483D01*
X106325492Y-77694483D02*
X106274984Y-77643975D01*
X106274984Y-77643975D02*
X106173969Y-77593467D01*
X106173969Y-77593467D02*
X106123462Y-77593467D01*
X105694147Y-77063137D02*
X105946685Y-77315675D01*
X105946685Y-77315675D02*
X105719400Y-77593467D01*
X105719400Y-77593467D02*
X105719400Y-77542960D01*
X105719400Y-77542960D02*
X105694147Y-77467198D01*
X105694147Y-77467198D02*
X105567878Y-77340929D01*
X105567878Y-77340929D02*
X105492116Y-77315675D01*
X105492116Y-77315675D02*
X105441609Y-77315675D01*
X105441609Y-77315675D02*
X105365847Y-77340929D01*
X105365847Y-77340929D02*
X105239578Y-77467198D01*
X105239578Y-77467198D02*
X105214324Y-77542960D01*
X105214324Y-77542960D02*
X105214324Y-77593467D01*
X105214324Y-77593467D02*
X105239578Y-77669229D01*
X105239578Y-77669229D02*
X105365847Y-77795498D01*
X105365847Y-77795498D02*
X105441609Y-77820752D01*
X105441609Y-77820752D02*
X105492116Y-77820752D01*
X105340593Y-76709584D02*
X105290085Y-76659076D01*
X105290085Y-76659076D02*
X105214324Y-76633822D01*
X105214324Y-76633822D02*
X105163816Y-76633822D01*
X105163816Y-76633822D02*
X105088055Y-76659076D01*
X105088055Y-76659076D02*
X104961786Y-76734837D01*
X104961786Y-76734837D02*
X104835517Y-76861107D01*
X104835517Y-76861107D02*
X104759755Y-76987376D01*
X104759755Y-76987376D02*
X104734502Y-77063137D01*
X104734502Y-77063137D02*
X104734502Y-77113645D01*
X104734502Y-77113645D02*
X104759755Y-77189406D01*
X104759755Y-77189406D02*
X104810263Y-77239914D01*
X104810263Y-77239914D02*
X104886024Y-77265168D01*
X104886024Y-77265168D02*
X104936532Y-77265168D01*
X104936532Y-77265168D02*
X105012294Y-77239914D01*
X105012294Y-77239914D02*
X105138563Y-77164152D01*
X105138563Y-77164152D02*
X105264832Y-77037883D01*
X105264832Y-77037883D02*
X105340593Y-76911614D01*
X105340593Y-76911614D02*
X105365847Y-76835853D01*
X105365847Y-76835853D02*
X105365847Y-76785345D01*
X105365847Y-76785345D02*
X105340593Y-76709584D01*
X104380948Y-76810599D02*
X104279933Y-76709583D01*
X104279933Y-76709583D02*
X104254679Y-76633822D01*
X104254679Y-76633822D02*
X104254679Y-76583314D01*
X104254679Y-76583314D02*
X104279933Y-76457045D01*
X104279933Y-76457045D02*
X104355694Y-76330776D01*
X104355694Y-76330776D02*
X104557725Y-76128746D01*
X104557725Y-76128746D02*
X104633486Y-76103492D01*
X104633486Y-76103492D02*
X104683994Y-76103492D01*
X104683994Y-76103492D02*
X104759755Y-76128746D01*
X104759755Y-76128746D02*
X104860770Y-76229761D01*
X104860770Y-76229761D02*
X104886024Y-76305522D01*
X104886024Y-76305522D02*
X104886024Y-76356030D01*
X104886024Y-76356030D02*
X104860770Y-76431792D01*
X104860770Y-76431792D02*
X104734501Y-76558061D01*
X104734501Y-76558061D02*
X104658740Y-76583314D01*
X104658740Y-76583314D02*
X104608232Y-76583314D01*
X104608232Y-76583314D02*
X104532471Y-76558061D01*
X104532471Y-76558061D02*
X104431456Y-76457045D01*
X104431456Y-76457045D02*
X104406202Y-76381284D01*
X104406202Y-76381284D02*
X104406202Y-76330776D01*
X104406202Y-76330776D02*
X104431456Y-76255015D01*
D11*
X109370349Y-79280935D02*
X109370349Y-79314606D01*
X109370349Y-79314606D02*
X109404021Y-79381950D01*
X109404021Y-79381950D02*
X109437693Y-79415622D01*
X109437693Y-79415622D02*
X109505036Y-79449293D01*
X109505036Y-79449293D02*
X109572380Y-79449293D01*
X109572380Y-79449293D02*
X109622888Y-79432458D01*
X109622888Y-79432458D02*
X109707067Y-79381950D01*
X109707067Y-79381950D02*
X109757575Y-79331442D01*
X109757575Y-79331442D02*
X109808082Y-79247263D01*
X109808082Y-79247263D02*
X109824918Y-79196755D01*
X109824918Y-79196755D02*
X109824918Y-79129412D01*
X109824918Y-79129412D02*
X109791246Y-79062068D01*
X109791246Y-79062068D02*
X109757575Y-79028397D01*
X109757575Y-79028397D02*
X109690231Y-78994725D01*
X109690231Y-78994725D02*
X109656559Y-78994725D01*
X109370349Y-78641171D02*
X109538708Y-78809530D01*
X109538708Y-78809530D02*
X109387185Y-78994725D01*
X109387185Y-78994725D02*
X109387185Y-78961053D01*
X109387185Y-78961053D02*
X109370349Y-78910545D01*
X109370349Y-78910545D02*
X109286170Y-78826366D01*
X109286170Y-78826366D02*
X109235662Y-78809530D01*
X109235662Y-78809530D02*
X109201991Y-78809530D01*
X109201991Y-78809530D02*
X109151483Y-78826366D01*
X109151483Y-78826366D02*
X109067304Y-78910545D01*
X109067304Y-78910545D02*
X109050468Y-78961053D01*
X109050468Y-78961053D02*
X109050468Y-78994725D01*
X109050468Y-78994725D02*
X109067304Y-79045232D01*
X109067304Y-79045232D02*
X109151483Y-79129412D01*
X109151483Y-79129412D02*
X109201991Y-79146248D01*
X109201991Y-79146248D02*
X109235662Y-79146248D01*
X109134648Y-78405469D02*
X109100976Y-78371798D01*
X109100976Y-78371798D02*
X109050468Y-78354962D01*
X109050468Y-78354962D02*
X109016796Y-78354962D01*
X109016796Y-78354962D02*
X108966289Y-78371798D01*
X108966289Y-78371798D02*
X108882109Y-78422305D01*
X108882109Y-78422305D02*
X108797930Y-78506485D01*
X108797930Y-78506485D02*
X108747422Y-78590664D01*
X108747422Y-78590664D02*
X108730587Y-78641172D01*
X108730587Y-78641172D02*
X108730587Y-78674843D01*
X108730587Y-78674843D02*
X108747422Y-78725351D01*
X108747422Y-78725351D02*
X108781094Y-78759023D01*
X108781094Y-78759023D02*
X108831602Y-78775859D01*
X108831602Y-78775859D02*
X108865274Y-78775859D01*
X108865274Y-78775859D02*
X108915781Y-78759023D01*
X108915781Y-78759023D02*
X108999961Y-78708515D01*
X108999961Y-78708515D02*
X109084140Y-78624336D01*
X109084140Y-78624336D02*
X109134648Y-78540156D01*
X109134648Y-78540156D02*
X109151483Y-78489649D01*
X109151483Y-78489649D02*
X109151483Y-78455977D01*
X109151483Y-78455977D02*
X109134648Y-78405469D01*
X108713751Y-77984573D02*
X108781095Y-78051916D01*
X108781095Y-78051916D02*
X108797930Y-78102424D01*
X108797930Y-78102424D02*
X108797930Y-78136096D01*
X108797930Y-78136096D02*
X108781095Y-78220275D01*
X108781095Y-78220275D02*
X108730587Y-78304455D01*
X108730587Y-78304455D02*
X108595900Y-78439142D01*
X108595900Y-78439142D02*
X108545392Y-78455977D01*
X108545392Y-78455977D02*
X108511720Y-78455977D01*
X108511720Y-78455977D02*
X108461213Y-78439142D01*
X108461213Y-78439142D02*
X108393869Y-78371798D01*
X108393869Y-78371798D02*
X108377033Y-78321290D01*
X108377033Y-78321290D02*
X108377033Y-78287619D01*
X108377033Y-78287619D02*
X108393869Y-78237111D01*
X108393869Y-78237111D02*
X108478049Y-78152932D01*
X108478049Y-78152932D02*
X108528556Y-78136096D01*
X108528556Y-78136096D02*
X108562228Y-78136096D01*
X108562228Y-78136096D02*
X108612736Y-78152932D01*
X108612736Y-78152932D02*
X108680079Y-78220275D01*
X108680079Y-78220275D02*
X108696915Y-78270783D01*
X108696915Y-78270783D02*
X108696915Y-78304455D01*
X108696915Y-78304455D02*
X108680079Y-78354962D01*
D10*
X103489286Y-59837735D02*
X103525000Y-59873450D01*
X103525000Y-59873450D02*
X103632143Y-59909164D01*
X103632143Y-59909164D02*
X103703571Y-59909164D01*
X103703571Y-59909164D02*
X103810714Y-59873450D01*
X103810714Y-59873450D02*
X103882143Y-59802021D01*
X103882143Y-59802021D02*
X103917857Y-59730592D01*
X103917857Y-59730592D02*
X103953571Y-59587735D01*
X103953571Y-59587735D02*
X103953571Y-59480592D01*
X103953571Y-59480592D02*
X103917857Y-59337735D01*
X103917857Y-59337735D02*
X103882143Y-59266307D01*
X103882143Y-59266307D02*
X103810714Y-59194878D01*
X103810714Y-59194878D02*
X103703571Y-59159164D01*
X103703571Y-59159164D02*
X103632143Y-59159164D01*
X103632143Y-59159164D02*
X103525000Y-59194878D01*
X103525000Y-59194878D02*
X103489286Y-59230592D01*
X103239286Y-59159164D02*
X102739286Y-59159164D01*
X102739286Y-59159164D02*
X103060714Y-59909164D01*
X102310714Y-59159164D02*
X102239285Y-59159164D01*
X102239285Y-59159164D02*
X102167857Y-59194878D01*
X102167857Y-59194878D02*
X102132143Y-59230592D01*
X102132143Y-59230592D02*
X102096428Y-59302021D01*
X102096428Y-59302021D02*
X102060714Y-59444878D01*
X102060714Y-59444878D02*
X102060714Y-59623450D01*
X102060714Y-59623450D02*
X102096428Y-59766307D01*
X102096428Y-59766307D02*
X102132143Y-59837735D01*
X102132143Y-59837735D02*
X102167857Y-59873450D01*
X102167857Y-59873450D02*
X102239285Y-59909164D01*
X102239285Y-59909164D02*
X102310714Y-59909164D01*
X102310714Y-59909164D02*
X102382143Y-59873450D01*
X102382143Y-59873450D02*
X102417857Y-59837735D01*
X102417857Y-59837735D02*
X102453571Y-59766307D01*
X102453571Y-59766307D02*
X102489285Y-59623450D01*
X102489285Y-59623450D02*
X102489285Y-59444878D01*
X102489285Y-59444878D02*
X102453571Y-59302021D01*
X102453571Y-59302021D02*
X102417857Y-59230592D01*
X102417857Y-59230592D02*
X102382143Y-59194878D01*
X102382143Y-59194878D02*
X102310714Y-59159164D01*
X101382142Y-59159164D02*
X101739285Y-59159164D01*
X101739285Y-59159164D02*
X101774999Y-59516307D01*
X101774999Y-59516307D02*
X101739285Y-59480592D01*
X101739285Y-59480592D02*
X101667857Y-59444878D01*
X101667857Y-59444878D02*
X101489285Y-59444878D01*
X101489285Y-59444878D02*
X101417857Y-59480592D01*
X101417857Y-59480592D02*
X101382142Y-59516307D01*
X101382142Y-59516307D02*
X101346428Y-59587735D01*
X101346428Y-59587735D02*
X101346428Y-59766307D01*
X101346428Y-59766307D02*
X101382142Y-59837735D01*
X101382142Y-59837735D02*
X101417857Y-59873450D01*
X101417857Y-59873450D02*
X101489285Y-59909164D01*
X101489285Y-59909164D02*
X101667857Y-59909164D01*
X101667857Y-59909164D02*
X101739285Y-59873450D01*
X101739285Y-59873450D02*
X101774999Y-59837735D01*
X101069286Y-92599164D02*
X101319286Y-92242021D01*
X101497857Y-92599164D02*
X101497857Y-91849164D01*
X101497857Y-91849164D02*
X101212143Y-91849164D01*
X101212143Y-91849164D02*
X101140714Y-91884878D01*
X101140714Y-91884878D02*
X101105000Y-91920592D01*
X101105000Y-91920592D02*
X101069286Y-91992021D01*
X101069286Y-91992021D02*
X101069286Y-92099164D01*
X101069286Y-92099164D02*
X101105000Y-92170592D01*
X101105000Y-92170592D02*
X101140714Y-92206307D01*
X101140714Y-92206307D02*
X101212143Y-92242021D01*
X101212143Y-92242021D02*
X101497857Y-92242021D01*
X100390714Y-91849164D02*
X100747857Y-91849164D01*
X100747857Y-91849164D02*
X100783571Y-92206307D01*
X100783571Y-92206307D02*
X100747857Y-92170592D01*
X100747857Y-92170592D02*
X100676429Y-92134878D01*
X100676429Y-92134878D02*
X100497857Y-92134878D01*
X100497857Y-92134878D02*
X100426429Y-92170592D01*
X100426429Y-92170592D02*
X100390714Y-92206307D01*
X100390714Y-92206307D02*
X100355000Y-92277735D01*
X100355000Y-92277735D02*
X100355000Y-92456307D01*
X100355000Y-92456307D02*
X100390714Y-92527735D01*
X100390714Y-92527735D02*
X100426429Y-92563450D01*
X100426429Y-92563450D02*
X100497857Y-92599164D01*
X100497857Y-92599164D02*
X100676429Y-92599164D01*
X100676429Y-92599164D02*
X100747857Y-92563450D01*
X100747857Y-92563450D02*
X100783571Y-92527735D01*
X99890714Y-91849164D02*
X99819285Y-91849164D01*
X99819285Y-91849164D02*
X99747857Y-91884878D01*
X99747857Y-91884878D02*
X99712143Y-91920592D01*
X99712143Y-91920592D02*
X99676428Y-91992021D01*
X99676428Y-91992021D02*
X99640714Y-92134878D01*
X99640714Y-92134878D02*
X99640714Y-92313450D01*
X99640714Y-92313450D02*
X99676428Y-92456307D01*
X99676428Y-92456307D02*
X99712143Y-92527735D01*
X99712143Y-92527735D02*
X99747857Y-92563450D01*
X99747857Y-92563450D02*
X99819285Y-92599164D01*
X99819285Y-92599164D02*
X99890714Y-92599164D01*
X99890714Y-92599164D02*
X99962143Y-92563450D01*
X99962143Y-92563450D02*
X99997857Y-92527735D01*
X99997857Y-92527735D02*
X100033571Y-92456307D01*
X100033571Y-92456307D02*
X100069285Y-92313450D01*
X100069285Y-92313450D02*
X100069285Y-92134878D01*
X100069285Y-92134878D02*
X100033571Y-91992021D01*
X100033571Y-91992021D02*
X99997857Y-91920592D01*
X99997857Y-91920592D02*
X99962143Y-91884878D01*
X99962143Y-91884878D02*
X99890714Y-91849164D01*
X98997857Y-92099164D02*
X98997857Y-92599164D01*
X99176428Y-91813450D02*
X99354999Y-92349164D01*
X99354999Y-92349164D02*
X98890714Y-92349164D01*
D11*
X111879523Y-68684809D02*
X112117618Y-68684809D01*
X112117618Y-68684809D02*
X112117618Y-68184809D01*
X111760475Y-68184809D02*
X111427142Y-68184809D01*
X111427142Y-68184809D02*
X111641427Y-68684809D01*
X111141428Y-68184809D02*
X111093809Y-68184809D01*
X111093809Y-68184809D02*
X111046190Y-68208619D01*
X111046190Y-68208619D02*
X111022380Y-68232428D01*
X111022380Y-68232428D02*
X110998571Y-68280047D01*
X110998571Y-68280047D02*
X110974761Y-68375285D01*
X110974761Y-68375285D02*
X110974761Y-68494333D01*
X110974761Y-68494333D02*
X110998571Y-68589571D01*
X110998571Y-68589571D02*
X111022380Y-68637190D01*
X111022380Y-68637190D02*
X111046190Y-68661000D01*
X111046190Y-68661000D02*
X111093809Y-68684809D01*
X111093809Y-68684809D02*
X111141428Y-68684809D01*
X111141428Y-68684809D02*
X111189047Y-68661000D01*
X111189047Y-68661000D02*
X111212856Y-68637190D01*
X111212856Y-68637190D02*
X111236666Y-68589571D01*
X111236666Y-68589571D02*
X111260475Y-68494333D01*
X111260475Y-68494333D02*
X111260475Y-68375285D01*
X111260475Y-68375285D02*
X111236666Y-68280047D01*
X111236666Y-68280047D02*
X111212856Y-68232428D01*
X111212856Y-68232428D02*
X111189047Y-68208619D01*
X111189047Y-68208619D02*
X111141428Y-68184809D01*
X110498571Y-68684809D02*
X110784285Y-68684809D01*
X110641428Y-68684809D02*
X110641428Y-68184809D01*
X110641428Y-68184809D02*
X110689047Y-68256238D01*
X110689047Y-68256238D02*
X110736666Y-68303857D01*
X110736666Y-68303857D02*
X110784285Y-68327666D01*
D10*
X121059164Y-89250713D02*
X120702021Y-89000713D01*
X121059164Y-88822142D02*
X120309164Y-88822142D01*
X120309164Y-88822142D02*
X120309164Y-89107856D01*
X120309164Y-89107856D02*
X120344878Y-89179285D01*
X120344878Y-89179285D02*
X120380592Y-89214999D01*
X120380592Y-89214999D02*
X120452021Y-89250713D01*
X120452021Y-89250713D02*
X120559164Y-89250713D01*
X120559164Y-89250713D02*
X120630592Y-89214999D01*
X120630592Y-89214999D02*
X120666307Y-89179285D01*
X120666307Y-89179285D02*
X120702021Y-89107856D01*
X120702021Y-89107856D02*
X120702021Y-88822142D01*
X120559164Y-89893571D02*
X121059164Y-89893571D01*
X120273450Y-89714999D02*
X120809164Y-89536428D01*
X120809164Y-89536428D02*
X120809164Y-90000713D01*
X121059164Y-90679285D02*
X121059164Y-90250714D01*
X121059164Y-90464999D02*
X120309164Y-90464999D01*
X120309164Y-90464999D02*
X120416307Y-90393571D01*
X120416307Y-90393571D02*
X120487735Y-90322142D01*
X120487735Y-90322142D02*
X120523450Y-90250714D01*
X120380592Y-90965000D02*
X120344878Y-91000714D01*
X120344878Y-91000714D02*
X120309164Y-91072143D01*
X120309164Y-91072143D02*
X120309164Y-91250714D01*
X120309164Y-91250714D02*
X120344878Y-91322143D01*
X120344878Y-91322143D02*
X120380592Y-91357857D01*
X120380592Y-91357857D02*
X120452021Y-91393571D01*
X120452021Y-91393571D02*
X120523450Y-91393571D01*
X120523450Y-91393571D02*
X120630592Y-91357857D01*
X120630592Y-91357857D02*
X121059164Y-90929285D01*
X121059164Y-90929285D02*
X121059164Y-91393571D01*
X100819164Y-61440713D02*
X100462021Y-61190713D01*
X100819164Y-61012142D02*
X100069164Y-61012142D01*
X100069164Y-61012142D02*
X100069164Y-61297856D01*
X100069164Y-61297856D02*
X100104878Y-61369285D01*
X100104878Y-61369285D02*
X100140592Y-61404999D01*
X100140592Y-61404999D02*
X100212021Y-61440713D01*
X100212021Y-61440713D02*
X100319164Y-61440713D01*
X100319164Y-61440713D02*
X100390592Y-61404999D01*
X100390592Y-61404999D02*
X100426307Y-61369285D01*
X100426307Y-61369285D02*
X100462021Y-61297856D01*
X100462021Y-61297856D02*
X100462021Y-61012142D01*
X100069164Y-61690713D02*
X100069164Y-62190713D01*
X100069164Y-62190713D02*
X100819164Y-61869285D01*
X100069164Y-62619285D02*
X100069164Y-62690714D01*
X100069164Y-62690714D02*
X100104878Y-62762142D01*
X100104878Y-62762142D02*
X100140592Y-62797857D01*
X100140592Y-62797857D02*
X100212021Y-62833571D01*
X100212021Y-62833571D02*
X100354878Y-62869285D01*
X100354878Y-62869285D02*
X100533450Y-62869285D01*
X100533450Y-62869285D02*
X100676307Y-62833571D01*
X100676307Y-62833571D02*
X100747735Y-62797857D01*
X100747735Y-62797857D02*
X100783450Y-62762142D01*
X100783450Y-62762142D02*
X100819164Y-62690714D01*
X100819164Y-62690714D02*
X100819164Y-62619285D01*
X100819164Y-62619285D02*
X100783450Y-62547857D01*
X100783450Y-62547857D02*
X100747735Y-62512142D01*
X100747735Y-62512142D02*
X100676307Y-62476428D01*
X100676307Y-62476428D02*
X100533450Y-62440714D01*
X100533450Y-62440714D02*
X100354878Y-62440714D01*
X100354878Y-62440714D02*
X100212021Y-62476428D01*
X100212021Y-62476428D02*
X100140592Y-62512142D01*
X100140592Y-62512142D02*
X100104878Y-62547857D01*
X100104878Y-62547857D02*
X100069164Y-62619285D01*
X100819164Y-63583571D02*
X100819164Y-63155000D01*
X100819164Y-63369285D02*
X100069164Y-63369285D01*
X100069164Y-63369285D02*
X100176307Y-63297857D01*
X100176307Y-63297857D02*
X100247735Y-63226428D01*
X100247735Y-63226428D02*
X100283450Y-63155000D01*
D11*
X112457190Y-63800476D02*
X112481000Y-63776667D01*
X112481000Y-63776667D02*
X112504809Y-63705238D01*
X112504809Y-63705238D02*
X112504809Y-63657619D01*
X112504809Y-63657619D02*
X112481000Y-63586191D01*
X112481000Y-63586191D02*
X112433380Y-63538572D01*
X112433380Y-63538572D02*
X112385761Y-63514762D01*
X112385761Y-63514762D02*
X112290523Y-63490953D01*
X112290523Y-63490953D02*
X112219095Y-63490953D01*
X112219095Y-63490953D02*
X112123857Y-63514762D01*
X112123857Y-63514762D02*
X112076238Y-63538572D01*
X112076238Y-63538572D02*
X112028619Y-63586191D01*
X112028619Y-63586191D02*
X112004809Y-63657619D01*
X112004809Y-63657619D02*
X112004809Y-63705238D01*
X112004809Y-63705238D02*
X112028619Y-63776667D01*
X112028619Y-63776667D02*
X112052428Y-63800476D01*
X112004809Y-63967143D02*
X112004809Y-64300476D01*
X112004809Y-64300476D02*
X112504809Y-64086191D01*
X112004809Y-64586190D02*
X112004809Y-64633809D01*
X112004809Y-64633809D02*
X112028619Y-64681428D01*
X112028619Y-64681428D02*
X112052428Y-64705238D01*
X112052428Y-64705238D02*
X112100047Y-64729047D01*
X112100047Y-64729047D02*
X112195285Y-64752857D01*
X112195285Y-64752857D02*
X112314333Y-64752857D01*
X112314333Y-64752857D02*
X112409571Y-64729047D01*
X112409571Y-64729047D02*
X112457190Y-64705238D01*
X112457190Y-64705238D02*
X112481000Y-64681428D01*
X112481000Y-64681428D02*
X112504809Y-64633809D01*
X112504809Y-64633809D02*
X112504809Y-64586190D01*
X112504809Y-64586190D02*
X112481000Y-64538571D01*
X112481000Y-64538571D02*
X112457190Y-64514762D01*
X112457190Y-64514762D02*
X112409571Y-64490952D01*
X112409571Y-64490952D02*
X112314333Y-64467143D01*
X112314333Y-64467143D02*
X112195285Y-64467143D01*
X112195285Y-64467143D02*
X112100047Y-64490952D01*
X112100047Y-64490952D02*
X112052428Y-64514762D01*
X112052428Y-64514762D02*
X112028619Y-64538571D01*
X112028619Y-64538571D02*
X112004809Y-64586190D01*
X112219095Y-65038571D02*
X112195285Y-64990952D01*
X112195285Y-64990952D02*
X112171476Y-64967142D01*
X112171476Y-64967142D02*
X112123857Y-64943333D01*
X112123857Y-64943333D02*
X112100047Y-64943333D01*
X112100047Y-64943333D02*
X112052428Y-64967142D01*
X112052428Y-64967142D02*
X112028619Y-64990952D01*
X112028619Y-64990952D02*
X112004809Y-65038571D01*
X112004809Y-65038571D02*
X112004809Y-65133809D01*
X112004809Y-65133809D02*
X112028619Y-65181428D01*
X112028619Y-65181428D02*
X112052428Y-65205237D01*
X112052428Y-65205237D02*
X112100047Y-65229047D01*
X112100047Y-65229047D02*
X112123857Y-65229047D01*
X112123857Y-65229047D02*
X112171476Y-65205237D01*
X112171476Y-65205237D02*
X112195285Y-65181428D01*
X112195285Y-65181428D02*
X112219095Y-65133809D01*
X112219095Y-65133809D02*
X112219095Y-65038571D01*
X112219095Y-65038571D02*
X112242904Y-64990952D01*
X112242904Y-64990952D02*
X112266714Y-64967142D01*
X112266714Y-64967142D02*
X112314333Y-64943333D01*
X112314333Y-64943333D02*
X112409571Y-64943333D01*
X112409571Y-64943333D02*
X112457190Y-64967142D01*
X112457190Y-64967142D02*
X112481000Y-64990952D01*
X112481000Y-64990952D02*
X112504809Y-65038571D01*
X112504809Y-65038571D02*
X112504809Y-65133809D01*
X112504809Y-65133809D02*
X112481000Y-65181428D01*
X112481000Y-65181428D02*
X112457190Y-65205237D01*
X112457190Y-65205237D02*
X112409571Y-65229047D01*
X112409571Y-65229047D02*
X112314333Y-65229047D01*
X112314333Y-65229047D02*
X112266714Y-65205237D01*
X112266714Y-65205237D02*
X112242904Y-65181428D01*
X112242904Y-65181428D02*
X112219095Y-65133809D01*
X106759523Y-68924809D02*
X106997618Y-68924809D01*
X106997618Y-68924809D02*
X106997618Y-68424809D01*
X106640475Y-68424809D02*
X106307142Y-68424809D01*
X106307142Y-68424809D02*
X106521427Y-68924809D01*
X106021428Y-68424809D02*
X105973809Y-68424809D01*
X105973809Y-68424809D02*
X105926190Y-68448619D01*
X105926190Y-68448619D02*
X105902380Y-68472428D01*
X105902380Y-68472428D02*
X105878571Y-68520047D01*
X105878571Y-68520047D02*
X105854761Y-68615285D01*
X105854761Y-68615285D02*
X105854761Y-68734333D01*
X105854761Y-68734333D02*
X105878571Y-68829571D01*
X105878571Y-68829571D02*
X105902380Y-68877190D01*
X105902380Y-68877190D02*
X105926190Y-68901000D01*
X105926190Y-68901000D02*
X105973809Y-68924809D01*
X105973809Y-68924809D02*
X106021428Y-68924809D01*
X106021428Y-68924809D02*
X106069047Y-68901000D01*
X106069047Y-68901000D02*
X106092856Y-68877190D01*
X106092856Y-68877190D02*
X106116666Y-68829571D01*
X106116666Y-68829571D02*
X106140475Y-68734333D01*
X106140475Y-68734333D02*
X106140475Y-68615285D01*
X106140475Y-68615285D02*
X106116666Y-68520047D01*
X106116666Y-68520047D02*
X106092856Y-68472428D01*
X106092856Y-68472428D02*
X106069047Y-68448619D01*
X106069047Y-68448619D02*
X106021428Y-68424809D01*
X105426190Y-68424809D02*
X105521428Y-68424809D01*
X105521428Y-68424809D02*
X105569047Y-68448619D01*
X105569047Y-68448619D02*
X105592857Y-68472428D01*
X105592857Y-68472428D02*
X105640476Y-68543857D01*
X105640476Y-68543857D02*
X105664285Y-68639095D01*
X105664285Y-68639095D02*
X105664285Y-68829571D01*
X105664285Y-68829571D02*
X105640476Y-68877190D01*
X105640476Y-68877190D02*
X105616666Y-68901000D01*
X105616666Y-68901000D02*
X105569047Y-68924809D01*
X105569047Y-68924809D02*
X105473809Y-68924809D01*
X105473809Y-68924809D02*
X105426190Y-68901000D01*
X105426190Y-68901000D02*
X105402381Y-68877190D01*
X105402381Y-68877190D02*
X105378571Y-68829571D01*
X105378571Y-68829571D02*
X105378571Y-68710523D01*
X105378571Y-68710523D02*
X105402381Y-68662904D01*
X105402381Y-68662904D02*
X105426190Y-68639095D01*
X105426190Y-68639095D02*
X105473809Y-68615285D01*
X105473809Y-68615285D02*
X105569047Y-68615285D01*
X105569047Y-68615285D02*
X105616666Y-68639095D01*
X105616666Y-68639095D02*
X105640476Y-68662904D01*
X105640476Y-68662904D02*
X105664285Y-68710523D01*
D10*
X123652782Y-84535852D02*
X123703290Y-84535852D01*
X123703290Y-84535852D02*
X123804305Y-84485345D01*
X123804305Y-84485345D02*
X123854813Y-84434837D01*
X123854813Y-84434837D02*
X123905320Y-84333822D01*
X123905320Y-84333822D02*
X123905320Y-84232807D01*
X123905320Y-84232807D02*
X123880066Y-84157045D01*
X123880066Y-84157045D02*
X123804305Y-84030776D01*
X123804305Y-84030776D02*
X123728544Y-83955015D01*
X123728544Y-83955015D02*
X123602275Y-83879253D01*
X123602275Y-83879253D02*
X123526513Y-83853999D01*
X123526513Y-83853999D02*
X123425498Y-83853999D01*
X123425498Y-83853999D02*
X123324483Y-83904507D01*
X123324483Y-83904507D02*
X123273975Y-83955015D01*
X123273975Y-83955015D02*
X123223467Y-84056030D01*
X123223467Y-84056030D02*
X123223467Y-84106537D01*
X122693137Y-84535852D02*
X122945675Y-84283314D01*
X122945675Y-84283314D02*
X123223467Y-84510599D01*
X123223467Y-84510599D02*
X123172960Y-84510599D01*
X123172960Y-84510599D02*
X123097198Y-84535852D01*
X123097198Y-84535852D02*
X122970929Y-84662121D01*
X122970929Y-84662121D02*
X122945675Y-84737883D01*
X122945675Y-84737883D02*
X122945675Y-84788390D01*
X122945675Y-84788390D02*
X122970929Y-84864152D01*
X122970929Y-84864152D02*
X123097198Y-84990421D01*
X123097198Y-84990421D02*
X123172960Y-85015675D01*
X123172960Y-85015675D02*
X123223467Y-85015675D01*
X123223467Y-85015675D02*
X123299229Y-84990421D01*
X123299229Y-84990421D02*
X123425498Y-84864152D01*
X123425498Y-84864152D02*
X123450752Y-84788390D01*
X123450752Y-84788390D02*
X123450752Y-84737883D01*
X122693137Y-85596513D02*
X122996183Y-85293467D01*
X122844660Y-85444990D02*
X122314330Y-84914660D01*
X122314330Y-84914660D02*
X122440599Y-84939914D01*
X122440599Y-84939914D02*
X122541614Y-84939914D01*
X122541614Y-84939914D02*
X122617376Y-84914660D01*
X122188061Y-86101589D02*
X122491106Y-85798543D01*
X122339583Y-85950066D02*
X121809253Y-85419736D01*
X121809253Y-85419736D02*
X121935522Y-85444990D01*
X121935522Y-85444990D02*
X122036538Y-85444990D01*
X122036538Y-85444990D02*
X122112299Y-85419736D01*
D11*
X102780935Y-82439650D02*
X102814606Y-82439650D01*
X102814606Y-82439650D02*
X102881950Y-82405978D01*
X102881950Y-82405978D02*
X102915622Y-82372306D01*
X102915622Y-82372306D02*
X102949293Y-82304963D01*
X102949293Y-82304963D02*
X102949293Y-82237619D01*
X102949293Y-82237619D02*
X102932458Y-82187111D01*
X102932458Y-82187111D02*
X102881950Y-82102932D01*
X102881950Y-82102932D02*
X102831442Y-82052424D01*
X102831442Y-82052424D02*
X102747263Y-82001917D01*
X102747263Y-82001917D02*
X102696755Y-81985081D01*
X102696755Y-81985081D02*
X102629412Y-81985081D01*
X102629412Y-81985081D02*
X102562068Y-82018753D01*
X102562068Y-82018753D02*
X102528397Y-82052424D01*
X102528397Y-82052424D02*
X102494725Y-82119768D01*
X102494725Y-82119768D02*
X102494725Y-82153440D01*
X102141171Y-82439650D02*
X102309530Y-82271291D01*
X102309530Y-82271291D02*
X102494725Y-82422814D01*
X102494725Y-82422814D02*
X102461053Y-82422814D01*
X102461053Y-82422814D02*
X102410545Y-82439650D01*
X102410545Y-82439650D02*
X102326366Y-82523829D01*
X102326366Y-82523829D02*
X102309530Y-82574337D01*
X102309530Y-82574337D02*
X102309530Y-82608008D01*
X102309530Y-82608008D02*
X102326366Y-82658516D01*
X102326366Y-82658516D02*
X102410545Y-82742695D01*
X102410545Y-82742695D02*
X102461053Y-82759531D01*
X102461053Y-82759531D02*
X102494725Y-82759531D01*
X102494725Y-82759531D02*
X102545232Y-82742695D01*
X102545232Y-82742695D02*
X102629412Y-82658516D01*
X102629412Y-82658516D02*
X102646248Y-82608008D01*
X102646248Y-82608008D02*
X102646248Y-82574337D01*
X102141172Y-83146756D02*
X102343202Y-82944725D01*
X102242187Y-83045741D02*
X101888634Y-82692187D01*
X101888634Y-82692187D02*
X101972813Y-82709023D01*
X101972813Y-82709023D02*
X102040156Y-82709023D01*
X102040156Y-82709023D02*
X102090664Y-82692187D01*
X101568752Y-83012069D02*
X101535081Y-83045740D01*
X101535081Y-83045740D02*
X101518245Y-83096248D01*
X101518245Y-83096248D02*
X101518245Y-83129920D01*
X101518245Y-83129920D02*
X101535081Y-83180427D01*
X101535081Y-83180427D02*
X101585588Y-83264607D01*
X101585588Y-83264607D02*
X101669768Y-83348786D01*
X101669768Y-83348786D02*
X101753947Y-83399294D01*
X101753947Y-83399294D02*
X101804455Y-83416130D01*
X101804455Y-83416130D02*
X101838126Y-83416130D01*
X101838126Y-83416130D02*
X101888634Y-83399294D01*
X101888634Y-83399294D02*
X101922306Y-83365622D01*
X101922306Y-83365622D02*
X101939142Y-83315114D01*
X101939142Y-83315114D02*
X101939142Y-83281443D01*
X101939142Y-83281443D02*
X101922306Y-83230935D01*
X101922306Y-83230935D02*
X101871798Y-83146756D01*
X101871798Y-83146756D02*
X101787619Y-83062576D01*
X101787619Y-83062576D02*
X101703439Y-83012069D01*
X101703439Y-83012069D02*
X101652932Y-82995233D01*
X101652932Y-82995233D02*
X101619260Y-82995233D01*
X101619260Y-82995233D02*
X101568752Y-83012069D01*
D10*
X113579164Y-56510714D02*
X113579164Y-56153571D01*
X113579164Y-56153571D02*
X112829164Y-56153571D01*
X112829164Y-56689285D02*
X112829164Y-57189285D01*
X112829164Y-57189285D02*
X113579164Y-56867857D01*
X112829164Y-57617857D02*
X112829164Y-57689286D01*
X112829164Y-57689286D02*
X112864878Y-57760714D01*
X112864878Y-57760714D02*
X112900592Y-57796429D01*
X112900592Y-57796429D02*
X112972021Y-57832143D01*
X112972021Y-57832143D02*
X113114878Y-57867857D01*
X113114878Y-57867857D02*
X113293450Y-57867857D01*
X113293450Y-57867857D02*
X113436307Y-57832143D01*
X113436307Y-57832143D02*
X113507735Y-57796429D01*
X113507735Y-57796429D02*
X113543450Y-57760714D01*
X113543450Y-57760714D02*
X113579164Y-57689286D01*
X113579164Y-57689286D02*
X113579164Y-57617857D01*
X113579164Y-57617857D02*
X113543450Y-57546429D01*
X113543450Y-57546429D02*
X113507735Y-57510714D01*
X113507735Y-57510714D02*
X113436307Y-57475000D01*
X113436307Y-57475000D02*
X113293450Y-57439286D01*
X113293450Y-57439286D02*
X113114878Y-57439286D01*
X113114878Y-57439286D02*
X112972021Y-57475000D01*
X112972021Y-57475000D02*
X112900592Y-57510714D01*
X112900592Y-57510714D02*
X112864878Y-57546429D01*
X112864878Y-57546429D02*
X112829164Y-57617857D01*
X112900592Y-58153572D02*
X112864878Y-58189286D01*
X112864878Y-58189286D02*
X112829164Y-58260715D01*
X112829164Y-58260715D02*
X112829164Y-58439286D01*
X112829164Y-58439286D02*
X112864878Y-58510715D01*
X112864878Y-58510715D02*
X112900592Y-58546429D01*
X112900592Y-58546429D02*
X112972021Y-58582143D01*
X112972021Y-58582143D02*
X113043450Y-58582143D01*
X113043450Y-58582143D02*
X113150592Y-58546429D01*
X113150592Y-58546429D02*
X113579164Y-58117857D01*
X113579164Y-58117857D02*
X113579164Y-58582143D01*
X115202021Y-70278571D02*
X115559164Y-70278571D01*
X114809164Y-70028571D02*
X115202021Y-70278571D01*
X115202021Y-70278571D02*
X114809164Y-70528571D01*
X114809164Y-70707142D02*
X114809164Y-71207142D01*
X114809164Y-71207142D02*
X115559164Y-70885714D01*
X114809164Y-71635714D02*
X114809164Y-71707143D01*
X114809164Y-71707143D02*
X114844878Y-71778571D01*
X114844878Y-71778571D02*
X114880592Y-71814286D01*
X114880592Y-71814286D02*
X114952021Y-71850000D01*
X114952021Y-71850000D02*
X115094878Y-71885714D01*
X115094878Y-71885714D02*
X115273450Y-71885714D01*
X115273450Y-71885714D02*
X115416307Y-71850000D01*
X115416307Y-71850000D02*
X115487735Y-71814286D01*
X115487735Y-71814286D02*
X115523450Y-71778571D01*
X115523450Y-71778571D02*
X115559164Y-71707143D01*
X115559164Y-71707143D02*
X115559164Y-71635714D01*
X115559164Y-71635714D02*
X115523450Y-71564286D01*
X115523450Y-71564286D02*
X115487735Y-71528571D01*
X115487735Y-71528571D02*
X115416307Y-71492857D01*
X115416307Y-71492857D02*
X115273450Y-71457143D01*
X115273450Y-71457143D02*
X115094878Y-71457143D01*
X115094878Y-71457143D02*
X114952021Y-71492857D01*
X114952021Y-71492857D02*
X114880592Y-71528571D01*
X114880592Y-71528571D02*
X114844878Y-71564286D01*
X114844878Y-71564286D02*
X114809164Y-71635714D01*
X115559164Y-72600000D02*
X115559164Y-72171429D01*
X115559164Y-72385714D02*
X114809164Y-72385714D01*
X114809164Y-72385714D02*
X114916307Y-72314286D01*
X114916307Y-72314286D02*
X114987735Y-72242857D01*
X114987735Y-72242857D02*
X115023450Y-72171429D01*
X104386786Y-71099164D02*
X104636786Y-70742021D01*
X104815357Y-71099164D02*
X104815357Y-70349164D01*
X104815357Y-70349164D02*
X104529643Y-70349164D01*
X104529643Y-70349164D02*
X104458214Y-70384878D01*
X104458214Y-70384878D02*
X104422500Y-70420592D01*
X104422500Y-70420592D02*
X104386786Y-70492021D01*
X104386786Y-70492021D02*
X104386786Y-70599164D01*
X104386786Y-70599164D02*
X104422500Y-70670592D01*
X104422500Y-70670592D02*
X104458214Y-70706307D01*
X104458214Y-70706307D02*
X104529643Y-70742021D01*
X104529643Y-70742021D02*
X104815357Y-70742021D01*
X104136786Y-70349164D02*
X103636786Y-70349164D01*
X103636786Y-70349164D02*
X103958214Y-71099164D01*
X103208214Y-70349164D02*
X103136785Y-70349164D01*
X103136785Y-70349164D02*
X103065357Y-70384878D01*
X103065357Y-70384878D02*
X103029643Y-70420592D01*
X103029643Y-70420592D02*
X102993928Y-70492021D01*
X102993928Y-70492021D02*
X102958214Y-70634878D01*
X102958214Y-70634878D02*
X102958214Y-70813450D01*
X102958214Y-70813450D02*
X102993928Y-70956307D01*
X102993928Y-70956307D02*
X103029643Y-71027735D01*
X103029643Y-71027735D02*
X103065357Y-71063450D01*
X103065357Y-71063450D02*
X103136785Y-71099164D01*
X103136785Y-71099164D02*
X103208214Y-71099164D01*
X103208214Y-71099164D02*
X103279643Y-71063450D01*
X103279643Y-71063450D02*
X103315357Y-71027735D01*
X103315357Y-71027735D02*
X103351071Y-70956307D01*
X103351071Y-70956307D02*
X103386785Y-70813450D01*
X103386785Y-70813450D02*
X103386785Y-70634878D01*
X103386785Y-70634878D02*
X103351071Y-70492021D01*
X103351071Y-70492021D02*
X103315357Y-70420592D01*
X103315357Y-70420592D02*
X103279643Y-70384878D01*
X103279643Y-70384878D02*
X103208214Y-70349164D01*
X102672499Y-70420592D02*
X102636785Y-70384878D01*
X102636785Y-70384878D02*
X102565357Y-70349164D01*
X102565357Y-70349164D02*
X102386785Y-70349164D01*
X102386785Y-70349164D02*
X102315357Y-70384878D01*
X102315357Y-70384878D02*
X102279642Y-70420592D01*
X102279642Y-70420592D02*
X102243928Y-70492021D01*
X102243928Y-70492021D02*
X102243928Y-70563450D01*
X102243928Y-70563450D02*
X102279642Y-70670592D01*
X102279642Y-70670592D02*
X102708214Y-71099164D01*
X102708214Y-71099164D02*
X102243928Y-71099164D01*
X114482782Y-95715852D02*
X114533290Y-95715852D01*
X114533290Y-95715852D02*
X114634305Y-95665345D01*
X114634305Y-95665345D02*
X114684813Y-95614837D01*
X114684813Y-95614837D02*
X114735320Y-95513822D01*
X114735320Y-95513822D02*
X114735320Y-95412807D01*
X114735320Y-95412807D02*
X114710066Y-95337045D01*
X114710066Y-95337045D02*
X114634305Y-95210776D01*
X114634305Y-95210776D02*
X114558544Y-95135015D01*
X114558544Y-95135015D02*
X114432275Y-95059253D01*
X114432275Y-95059253D02*
X114356513Y-95033999D01*
X114356513Y-95033999D02*
X114255498Y-95033999D01*
X114255498Y-95033999D02*
X114154483Y-95084507D01*
X114154483Y-95084507D02*
X114103975Y-95135015D01*
X114103975Y-95135015D02*
X114053467Y-95236030D01*
X114053467Y-95236030D02*
X114053467Y-95286537D01*
X113523137Y-95715852D02*
X113775675Y-95463314D01*
X113775675Y-95463314D02*
X114053467Y-95690599D01*
X114053467Y-95690599D02*
X114002960Y-95690599D01*
X114002960Y-95690599D02*
X113927198Y-95715852D01*
X113927198Y-95715852D02*
X113800929Y-95842121D01*
X113800929Y-95842121D02*
X113775675Y-95917883D01*
X113775675Y-95917883D02*
X113775675Y-95968390D01*
X113775675Y-95968390D02*
X113800929Y-96044152D01*
X113800929Y-96044152D02*
X113927198Y-96170421D01*
X113927198Y-96170421D02*
X114002960Y-96195675D01*
X114002960Y-96195675D02*
X114053467Y-96195675D01*
X114053467Y-96195675D02*
X114129229Y-96170421D01*
X114129229Y-96170421D02*
X114255498Y-96044152D01*
X114255498Y-96044152D02*
X114280752Y-95968390D01*
X114280752Y-95968390D02*
X114280752Y-95917883D01*
X113169584Y-96069406D02*
X113119076Y-96119914D01*
X113119076Y-96119914D02*
X113093822Y-96195675D01*
X113093822Y-96195675D02*
X113093822Y-96246183D01*
X113093822Y-96246183D02*
X113119076Y-96321944D01*
X113119076Y-96321944D02*
X113194837Y-96448213D01*
X113194837Y-96448213D02*
X113321107Y-96574482D01*
X113321107Y-96574482D02*
X113447376Y-96650244D01*
X113447376Y-96650244D02*
X113523137Y-96675497D01*
X113523137Y-96675497D02*
X113573645Y-96675497D01*
X113573645Y-96675497D02*
X113649406Y-96650244D01*
X113649406Y-96650244D02*
X113699914Y-96599736D01*
X113699914Y-96599736D02*
X113725168Y-96523975D01*
X113725168Y-96523975D02*
X113725168Y-96473467D01*
X113725168Y-96473467D02*
X113699914Y-96397705D01*
X113699914Y-96397705D02*
X113624152Y-96271436D01*
X113624152Y-96271436D02*
X113497883Y-96145167D01*
X113497883Y-96145167D02*
X113371614Y-96069406D01*
X113371614Y-96069406D02*
X113295853Y-96044152D01*
X113295853Y-96044152D02*
X113245345Y-96044152D01*
X113245345Y-96044152D02*
X113169584Y-96069406D01*
X112841284Y-96498721D02*
X112790776Y-96498721D01*
X112790776Y-96498721D02*
X112715015Y-96523975D01*
X112715015Y-96523975D02*
X112588746Y-96650244D01*
X112588746Y-96650244D02*
X112563492Y-96726005D01*
X112563492Y-96726005D02*
X112563492Y-96776513D01*
X112563492Y-96776513D02*
X112588746Y-96852274D01*
X112588746Y-96852274D02*
X112639253Y-96902782D01*
X112639253Y-96902782D02*
X112740269Y-96953290D01*
X112740269Y-96953290D02*
X113346360Y-96953290D01*
X113346360Y-96953290D02*
X113018061Y-97281589D01*
X123049642Y-77458632D02*
X122620327Y-77887947D01*
X122620327Y-77887947D02*
X122544565Y-77913201D01*
X122544565Y-77913201D02*
X122494058Y-77913201D01*
X122494058Y-77913201D02*
X122418296Y-77887947D01*
X122418296Y-77887947D02*
X122317281Y-77786932D01*
X122317281Y-77786932D02*
X122292027Y-77711170D01*
X122292027Y-77711170D02*
X122292027Y-77660663D01*
X122292027Y-77660663D02*
X122317281Y-77584901D01*
X122317281Y-77584901D02*
X122746596Y-77155587D01*
X122241520Y-76650510D02*
X122494058Y-76903049D01*
X122494058Y-76903049D02*
X122266774Y-77180841D01*
X122266774Y-77180841D02*
X122266774Y-77130333D01*
X122266774Y-77130333D02*
X122241520Y-77054571D01*
X122241520Y-77054571D02*
X122115251Y-76928302D01*
X122115251Y-76928302D02*
X122039489Y-76903049D01*
X122039489Y-76903049D02*
X121988982Y-76903049D01*
X121988982Y-76903049D02*
X121913220Y-76928302D01*
X121913220Y-76928302D02*
X121786951Y-77054571D01*
X121786951Y-77054571D02*
X121761697Y-77130333D01*
X121761697Y-77130333D02*
X121761697Y-77180841D01*
X121761697Y-77180841D02*
X121786951Y-77256602D01*
X121786951Y-77256602D02*
X121913220Y-77382871D01*
X121913220Y-77382871D02*
X121988982Y-77408125D01*
X121988982Y-77408125D02*
X122039489Y-77408125D01*
X121887966Y-76296957D02*
X121837459Y-76246449D01*
X121837459Y-76246449D02*
X121761697Y-76221195D01*
X121761697Y-76221195D02*
X121711190Y-76221195D01*
X121711190Y-76221195D02*
X121635428Y-76246449D01*
X121635428Y-76246449D02*
X121509159Y-76322211D01*
X121509159Y-76322211D02*
X121382890Y-76448480D01*
X121382890Y-76448480D02*
X121307129Y-76574749D01*
X121307129Y-76574749D02*
X121281875Y-76650510D01*
X121281875Y-76650510D02*
X121281875Y-76701018D01*
X121281875Y-76701018D02*
X121307129Y-76776779D01*
X121307129Y-76776779D02*
X121357636Y-76827287D01*
X121357636Y-76827287D02*
X121433398Y-76852541D01*
X121433398Y-76852541D02*
X121483905Y-76852541D01*
X121483905Y-76852541D02*
X121559667Y-76827287D01*
X121559667Y-76827287D02*
X121685936Y-76751525D01*
X121685936Y-76751525D02*
X121812205Y-76625256D01*
X121812205Y-76625256D02*
X121887966Y-76498987D01*
X121887966Y-76498987D02*
X121913220Y-76423226D01*
X121913220Y-76423226D02*
X121913220Y-76372718D01*
X121913220Y-76372718D02*
X121887966Y-76296957D01*
X120675783Y-76145434D02*
X120978829Y-76448480D01*
X120827306Y-76296957D02*
X121357636Y-75766627D01*
X121357636Y-75766627D02*
X121332382Y-75892896D01*
X121332382Y-75892896D02*
X121332382Y-75993911D01*
X121332382Y-75993911D02*
X121357636Y-76069672D01*
X108669286Y-57267735D02*
X108705000Y-57303450D01*
X108705000Y-57303450D02*
X108812143Y-57339164D01*
X108812143Y-57339164D02*
X108883571Y-57339164D01*
X108883571Y-57339164D02*
X108990714Y-57303450D01*
X108990714Y-57303450D02*
X109062143Y-57232021D01*
X109062143Y-57232021D02*
X109097857Y-57160592D01*
X109097857Y-57160592D02*
X109133571Y-57017735D01*
X109133571Y-57017735D02*
X109133571Y-56910592D01*
X109133571Y-56910592D02*
X109097857Y-56767735D01*
X109097857Y-56767735D02*
X109062143Y-56696307D01*
X109062143Y-56696307D02*
X108990714Y-56624878D01*
X108990714Y-56624878D02*
X108883571Y-56589164D01*
X108883571Y-56589164D02*
X108812143Y-56589164D01*
X108812143Y-56589164D02*
X108705000Y-56624878D01*
X108705000Y-56624878D02*
X108669286Y-56660592D01*
X108419286Y-56589164D02*
X107919286Y-56589164D01*
X107919286Y-56589164D02*
X108240714Y-57339164D01*
X107240714Y-57339164D02*
X107669285Y-57339164D01*
X107455000Y-57339164D02*
X107455000Y-56589164D01*
X107455000Y-56589164D02*
X107526428Y-56696307D01*
X107526428Y-56696307D02*
X107597857Y-56767735D01*
X107597857Y-56767735D02*
X107669285Y-56803450D01*
X106526428Y-57339164D02*
X106954999Y-57339164D01*
X106740714Y-57339164D02*
X106740714Y-56589164D01*
X106740714Y-56589164D02*
X106812142Y-56696307D01*
X106812142Y-56696307D02*
X106883571Y-56767735D01*
X106883571Y-56767735D02*
X106954999Y-56803450D01*
X121041786Y-95929164D02*
X121291786Y-95572021D01*
X121470357Y-95929164D02*
X121470357Y-95179164D01*
X121470357Y-95179164D02*
X121184643Y-95179164D01*
X121184643Y-95179164D02*
X121113214Y-95214878D01*
X121113214Y-95214878D02*
X121077500Y-95250592D01*
X121077500Y-95250592D02*
X121041786Y-95322021D01*
X121041786Y-95322021D02*
X121041786Y-95429164D01*
X121041786Y-95429164D02*
X121077500Y-95500592D01*
X121077500Y-95500592D02*
X121113214Y-95536307D01*
X121113214Y-95536307D02*
X121184643Y-95572021D01*
X121184643Y-95572021D02*
X121470357Y-95572021D01*
X120398929Y-95429164D02*
X120398929Y-95929164D01*
X120577500Y-95143450D02*
X120756071Y-95679164D01*
X120756071Y-95679164D02*
X120291786Y-95679164D01*
X119863214Y-95179164D02*
X119791785Y-95179164D01*
X119791785Y-95179164D02*
X119720357Y-95214878D01*
X119720357Y-95214878D02*
X119684643Y-95250592D01*
X119684643Y-95250592D02*
X119648928Y-95322021D01*
X119648928Y-95322021D02*
X119613214Y-95464878D01*
X119613214Y-95464878D02*
X119613214Y-95643450D01*
X119613214Y-95643450D02*
X119648928Y-95786307D01*
X119648928Y-95786307D02*
X119684643Y-95857735D01*
X119684643Y-95857735D02*
X119720357Y-95893450D01*
X119720357Y-95893450D02*
X119791785Y-95929164D01*
X119791785Y-95929164D02*
X119863214Y-95929164D01*
X119863214Y-95929164D02*
X119934643Y-95893450D01*
X119934643Y-95893450D02*
X119970357Y-95857735D01*
X119970357Y-95857735D02*
X120006071Y-95786307D01*
X120006071Y-95786307D02*
X120041785Y-95643450D01*
X120041785Y-95643450D02*
X120041785Y-95464878D01*
X120041785Y-95464878D02*
X120006071Y-95322021D01*
X120006071Y-95322021D02*
X119970357Y-95250592D01*
X119970357Y-95250592D02*
X119934643Y-95214878D01*
X119934643Y-95214878D02*
X119863214Y-95179164D01*
X119256071Y-95929164D02*
X119113214Y-95929164D01*
X119113214Y-95929164D02*
X119041785Y-95893450D01*
X119041785Y-95893450D02*
X119006071Y-95857735D01*
X119006071Y-95857735D02*
X118934642Y-95750592D01*
X118934642Y-95750592D02*
X118898928Y-95607735D01*
X118898928Y-95607735D02*
X118898928Y-95322021D01*
X118898928Y-95322021D02*
X118934642Y-95250592D01*
X118934642Y-95250592D02*
X118970357Y-95214878D01*
X118970357Y-95214878D02*
X119041785Y-95179164D01*
X119041785Y-95179164D02*
X119184642Y-95179164D01*
X119184642Y-95179164D02*
X119256071Y-95214878D01*
X119256071Y-95214878D02*
X119291785Y-95250592D01*
X119291785Y-95250592D02*
X119327499Y-95322021D01*
X119327499Y-95322021D02*
X119327499Y-95500592D01*
X119327499Y-95500592D02*
X119291785Y-95572021D01*
X119291785Y-95572021D02*
X119256071Y-95607735D01*
X119256071Y-95607735D02*
X119184642Y-95643450D01*
X119184642Y-95643450D02*
X119041785Y-95643450D01*
X119041785Y-95643450D02*
X118970357Y-95607735D01*
X118970357Y-95607735D02*
X118934642Y-95572021D01*
X118934642Y-95572021D02*
X118898928Y-95500592D01*
X102554147Y-86772782D02*
X102554147Y-86823290D01*
X102554147Y-86823290D02*
X102604654Y-86924305D01*
X102604654Y-86924305D02*
X102655162Y-86974813D01*
X102655162Y-86974813D02*
X102756177Y-87025320D01*
X102756177Y-87025320D02*
X102857192Y-87025320D01*
X102857192Y-87025320D02*
X102932954Y-87000066D01*
X102932954Y-87000066D02*
X103059223Y-86924305D01*
X103059223Y-86924305D02*
X103134984Y-86848544D01*
X103134984Y-86848544D02*
X103210746Y-86722275D01*
X103210746Y-86722275D02*
X103236000Y-86646513D01*
X103236000Y-86646513D02*
X103236000Y-86545498D01*
X103236000Y-86545498D02*
X103185492Y-86444483D01*
X103185492Y-86444483D02*
X103134984Y-86393975D01*
X103134984Y-86393975D02*
X103033969Y-86343467D01*
X103033969Y-86343467D02*
X102983462Y-86343467D01*
X102554147Y-85813137D02*
X102806685Y-86065675D01*
X102806685Y-86065675D02*
X102579400Y-86343467D01*
X102579400Y-86343467D02*
X102579400Y-86292960D01*
X102579400Y-86292960D02*
X102554147Y-86217198D01*
X102554147Y-86217198D02*
X102427878Y-86090929D01*
X102427878Y-86090929D02*
X102352116Y-86065675D01*
X102352116Y-86065675D02*
X102301609Y-86065675D01*
X102301609Y-86065675D02*
X102225847Y-86090929D01*
X102225847Y-86090929D02*
X102099578Y-86217198D01*
X102099578Y-86217198D02*
X102074324Y-86292960D01*
X102074324Y-86292960D02*
X102074324Y-86343467D01*
X102074324Y-86343467D02*
X102099578Y-86419229D01*
X102099578Y-86419229D02*
X102225847Y-86545498D01*
X102225847Y-86545498D02*
X102301609Y-86570752D01*
X102301609Y-86570752D02*
X102352116Y-86570752D01*
X102200593Y-85459584D02*
X102150085Y-85409076D01*
X102150085Y-85409076D02*
X102074324Y-85383822D01*
X102074324Y-85383822D02*
X102023816Y-85383822D01*
X102023816Y-85383822D02*
X101948055Y-85409076D01*
X101948055Y-85409076D02*
X101821786Y-85484837D01*
X101821786Y-85484837D02*
X101695517Y-85611107D01*
X101695517Y-85611107D02*
X101619755Y-85737376D01*
X101619755Y-85737376D02*
X101594502Y-85813137D01*
X101594502Y-85813137D02*
X101594502Y-85863645D01*
X101594502Y-85863645D02*
X101619755Y-85939406D01*
X101619755Y-85939406D02*
X101670263Y-85989914D01*
X101670263Y-85989914D02*
X101746024Y-86015168D01*
X101746024Y-86015168D02*
X101796532Y-86015168D01*
X101796532Y-86015168D02*
X101872294Y-85989914D01*
X101872294Y-85989914D02*
X101998563Y-85914152D01*
X101998563Y-85914152D02*
X102124832Y-85787883D01*
X102124832Y-85787883D02*
X102200593Y-85661614D01*
X102200593Y-85661614D02*
X102225847Y-85585853D01*
X102225847Y-85585853D02*
X102225847Y-85535345D01*
X102225847Y-85535345D02*
X102200593Y-85459584D01*
X101847039Y-85106030D02*
X101493486Y-84752477D01*
X101493486Y-84752477D02*
X101190440Y-85510091D01*
X111869286Y-78057735D02*
X111905000Y-78093450D01*
X111905000Y-78093450D02*
X112012143Y-78129164D01*
X112012143Y-78129164D02*
X112083571Y-78129164D01*
X112083571Y-78129164D02*
X112190714Y-78093450D01*
X112190714Y-78093450D02*
X112262143Y-78022021D01*
X112262143Y-78022021D02*
X112297857Y-77950592D01*
X112297857Y-77950592D02*
X112333571Y-77807735D01*
X112333571Y-77807735D02*
X112333571Y-77700592D01*
X112333571Y-77700592D02*
X112297857Y-77557735D01*
X112297857Y-77557735D02*
X112262143Y-77486307D01*
X112262143Y-77486307D02*
X112190714Y-77414878D01*
X112190714Y-77414878D02*
X112083571Y-77379164D01*
X112083571Y-77379164D02*
X112012143Y-77379164D01*
X112012143Y-77379164D02*
X111905000Y-77414878D01*
X111905000Y-77414878D02*
X111869286Y-77450592D01*
X111619286Y-77379164D02*
X111119286Y-77379164D01*
X111119286Y-77379164D02*
X111440714Y-78129164D01*
X110440714Y-78129164D02*
X110869285Y-78129164D01*
X110655000Y-78129164D02*
X110655000Y-77379164D01*
X110655000Y-77379164D02*
X110726428Y-77486307D01*
X110726428Y-77486307D02*
X110797857Y-77557735D01*
X110797857Y-77557735D02*
X110869285Y-77593450D01*
X109762142Y-77379164D02*
X110119285Y-77379164D01*
X110119285Y-77379164D02*
X110154999Y-77736307D01*
X110154999Y-77736307D02*
X110119285Y-77700592D01*
X110119285Y-77700592D02*
X110047857Y-77664878D01*
X110047857Y-77664878D02*
X109869285Y-77664878D01*
X109869285Y-77664878D02*
X109797857Y-77700592D01*
X109797857Y-77700592D02*
X109762142Y-77736307D01*
X109762142Y-77736307D02*
X109726428Y-77807735D01*
X109726428Y-77807735D02*
X109726428Y-77986307D01*
X109726428Y-77986307D02*
X109762142Y-78057735D01*
X109762142Y-78057735D02*
X109797857Y-78093450D01*
X109797857Y-78093450D02*
X109869285Y-78129164D01*
X109869285Y-78129164D02*
X110047857Y-78129164D01*
X110047857Y-78129164D02*
X110119285Y-78093450D01*
X110119285Y-78093450D02*
X110154999Y-78057735D01*
X105169164Y-71174285D02*
X105776307Y-71174285D01*
X105776307Y-71174285D02*
X105847735Y-71209999D01*
X105847735Y-71209999D02*
X105883450Y-71245714D01*
X105883450Y-71245714D02*
X105919164Y-71317142D01*
X105919164Y-71317142D02*
X105919164Y-71459999D01*
X105919164Y-71459999D02*
X105883450Y-71531428D01*
X105883450Y-71531428D02*
X105847735Y-71567142D01*
X105847735Y-71567142D02*
X105776307Y-71602856D01*
X105776307Y-71602856D02*
X105169164Y-71602856D01*
X105169164Y-71888570D02*
X105169164Y-72388570D01*
X105169164Y-72388570D02*
X105919164Y-72067142D01*
X105169164Y-72817142D02*
X105169164Y-72888571D01*
X105169164Y-72888571D02*
X105204878Y-72959999D01*
X105204878Y-72959999D02*
X105240592Y-72995714D01*
X105240592Y-72995714D02*
X105312021Y-73031428D01*
X105312021Y-73031428D02*
X105454878Y-73067142D01*
X105454878Y-73067142D02*
X105633450Y-73067142D01*
X105633450Y-73067142D02*
X105776307Y-73031428D01*
X105776307Y-73031428D02*
X105847735Y-72995714D01*
X105847735Y-72995714D02*
X105883450Y-72959999D01*
X105883450Y-72959999D02*
X105919164Y-72888571D01*
X105919164Y-72888571D02*
X105919164Y-72817142D01*
X105919164Y-72817142D02*
X105883450Y-72745714D01*
X105883450Y-72745714D02*
X105847735Y-72709999D01*
X105847735Y-72709999D02*
X105776307Y-72674285D01*
X105776307Y-72674285D02*
X105633450Y-72638571D01*
X105633450Y-72638571D02*
X105454878Y-72638571D01*
X105454878Y-72638571D02*
X105312021Y-72674285D01*
X105312021Y-72674285D02*
X105240592Y-72709999D01*
X105240592Y-72709999D02*
X105204878Y-72745714D01*
X105204878Y-72745714D02*
X105169164Y-72817142D01*
X105919164Y-73781428D02*
X105919164Y-73352857D01*
X105919164Y-73567142D02*
X105169164Y-73567142D01*
X105169164Y-73567142D02*
X105276307Y-73495714D01*
X105276307Y-73495714D02*
X105347735Y-73424285D01*
X105347735Y-73424285D02*
X105383450Y-73352857D01*
X121039286Y-104914164D02*
X121289286Y-104557021D01*
X121467857Y-104914164D02*
X121467857Y-104164164D01*
X121467857Y-104164164D02*
X121182143Y-104164164D01*
X121182143Y-104164164D02*
X121110714Y-104199878D01*
X121110714Y-104199878D02*
X121075000Y-104235592D01*
X121075000Y-104235592D02*
X121039286Y-104307021D01*
X121039286Y-104307021D02*
X121039286Y-104414164D01*
X121039286Y-104414164D02*
X121075000Y-104485592D01*
X121075000Y-104485592D02*
X121110714Y-104521307D01*
X121110714Y-104521307D02*
X121182143Y-104557021D01*
X121182143Y-104557021D02*
X121467857Y-104557021D01*
X120396429Y-104414164D02*
X120396429Y-104914164D01*
X120575000Y-104128450D02*
X120753571Y-104664164D01*
X120753571Y-104664164D02*
X120289286Y-104664164D01*
X119860714Y-104164164D02*
X119789285Y-104164164D01*
X119789285Y-104164164D02*
X119717857Y-104199878D01*
X119717857Y-104199878D02*
X119682143Y-104235592D01*
X119682143Y-104235592D02*
X119646428Y-104307021D01*
X119646428Y-104307021D02*
X119610714Y-104449878D01*
X119610714Y-104449878D02*
X119610714Y-104628450D01*
X119610714Y-104628450D02*
X119646428Y-104771307D01*
X119646428Y-104771307D02*
X119682143Y-104842735D01*
X119682143Y-104842735D02*
X119717857Y-104878450D01*
X119717857Y-104878450D02*
X119789285Y-104914164D01*
X119789285Y-104914164D02*
X119860714Y-104914164D01*
X119860714Y-104914164D02*
X119932143Y-104878450D01*
X119932143Y-104878450D02*
X119967857Y-104842735D01*
X119967857Y-104842735D02*
X120003571Y-104771307D01*
X120003571Y-104771307D02*
X120039285Y-104628450D01*
X120039285Y-104628450D02*
X120039285Y-104449878D01*
X120039285Y-104449878D02*
X120003571Y-104307021D01*
X120003571Y-104307021D02*
X119967857Y-104235592D01*
X119967857Y-104235592D02*
X119932143Y-104199878D01*
X119932143Y-104199878D02*
X119860714Y-104164164D01*
X119360714Y-104164164D02*
X118896428Y-104164164D01*
X118896428Y-104164164D02*
X119146428Y-104449878D01*
X119146428Y-104449878D02*
X119039285Y-104449878D01*
X119039285Y-104449878D02*
X118967857Y-104485592D01*
X118967857Y-104485592D02*
X118932142Y-104521307D01*
X118932142Y-104521307D02*
X118896428Y-104592735D01*
X118896428Y-104592735D02*
X118896428Y-104771307D01*
X118896428Y-104771307D02*
X118932142Y-104842735D01*
X118932142Y-104842735D02*
X118967857Y-104878450D01*
X118967857Y-104878450D02*
X119039285Y-104914164D01*
X119039285Y-104914164D02*
X119253571Y-104914164D01*
X119253571Y-104914164D02*
X119324999Y-104878450D01*
X119324999Y-104878450D02*
X119360714Y-104842735D01*
D11*
X106689523Y-65187190D02*
X106713332Y-65211000D01*
X106713332Y-65211000D02*
X106784761Y-65234809D01*
X106784761Y-65234809D02*
X106832380Y-65234809D01*
X106832380Y-65234809D02*
X106903808Y-65211000D01*
X106903808Y-65211000D02*
X106951427Y-65163380D01*
X106951427Y-65163380D02*
X106975237Y-65115761D01*
X106975237Y-65115761D02*
X106999046Y-65020523D01*
X106999046Y-65020523D02*
X106999046Y-64949095D01*
X106999046Y-64949095D02*
X106975237Y-64853857D01*
X106975237Y-64853857D02*
X106951427Y-64806238D01*
X106951427Y-64806238D02*
X106903808Y-64758619D01*
X106903808Y-64758619D02*
X106832380Y-64734809D01*
X106832380Y-64734809D02*
X106784761Y-64734809D01*
X106784761Y-64734809D02*
X106713332Y-64758619D01*
X106713332Y-64758619D02*
X106689523Y-64782428D01*
X106522856Y-64734809D02*
X106189523Y-64734809D01*
X106189523Y-64734809D02*
X106403808Y-65234809D01*
X105737142Y-65234809D02*
X106022856Y-65234809D01*
X105879999Y-65234809D02*
X105879999Y-64734809D01*
X105879999Y-64734809D02*
X105927618Y-64806238D01*
X105927618Y-64806238D02*
X105975237Y-64853857D01*
X105975237Y-64853857D02*
X106022856Y-64877666D01*
X105308571Y-64734809D02*
X105403809Y-64734809D01*
X105403809Y-64734809D02*
X105451428Y-64758619D01*
X105451428Y-64758619D02*
X105475238Y-64782428D01*
X105475238Y-64782428D02*
X105522857Y-64853857D01*
X105522857Y-64853857D02*
X105546666Y-64949095D01*
X105546666Y-64949095D02*
X105546666Y-65139571D01*
X105546666Y-65139571D02*
X105522857Y-65187190D01*
X105522857Y-65187190D02*
X105499047Y-65211000D01*
X105499047Y-65211000D02*
X105451428Y-65234809D01*
X105451428Y-65234809D02*
X105356190Y-65234809D01*
X105356190Y-65234809D02*
X105308571Y-65211000D01*
X105308571Y-65211000D02*
X105284762Y-65187190D01*
X105284762Y-65187190D02*
X105260952Y-65139571D01*
X105260952Y-65139571D02*
X105260952Y-65020523D01*
X105260952Y-65020523D02*
X105284762Y-64972904D01*
X105284762Y-64972904D02*
X105308571Y-64949095D01*
X105308571Y-64949095D02*
X105356190Y-64925285D01*
X105356190Y-64925285D02*
X105451428Y-64925285D01*
X105451428Y-64925285D02*
X105499047Y-64949095D01*
X105499047Y-64949095D02*
X105522857Y-64972904D01*
X105522857Y-64972904D02*
X105546666Y-65020523D01*
D10*
X107174802Y-81512127D02*
X107604117Y-81436365D01*
X107477848Y-81815173D02*
X108008178Y-81284842D01*
X108008178Y-81284842D02*
X107806147Y-81082812D01*
X107806147Y-81082812D02*
X107730386Y-81057558D01*
X107730386Y-81057558D02*
X107679878Y-81057558D01*
X107679878Y-81057558D02*
X107604117Y-81082812D01*
X107604117Y-81082812D02*
X107528355Y-81158573D01*
X107528355Y-81158573D02*
X107503102Y-81234335D01*
X107503102Y-81234335D02*
X107503102Y-81284842D01*
X107503102Y-81284842D02*
X107528355Y-81360604D01*
X107528355Y-81360604D02*
X107730386Y-81562634D01*
X107225310Y-80501974D02*
X107477848Y-80754512D01*
X107477848Y-80754512D02*
X107250563Y-81032304D01*
X107250563Y-81032304D02*
X107250563Y-80981797D01*
X107250563Y-80981797D02*
X107225310Y-80906035D01*
X107225310Y-80906035D02*
X107099041Y-80779766D01*
X107099041Y-80779766D02*
X107023279Y-80754512D01*
X107023279Y-80754512D02*
X106972772Y-80754512D01*
X106972772Y-80754512D02*
X106897010Y-80779766D01*
X106897010Y-80779766D02*
X106770741Y-80906035D01*
X106770741Y-80906035D02*
X106745487Y-80981797D01*
X106745487Y-80981797D02*
X106745487Y-81032304D01*
X106745487Y-81032304D02*
X106770741Y-81108066D01*
X106770741Y-81108066D02*
X106897010Y-81234335D01*
X106897010Y-81234335D02*
X106972772Y-81259589D01*
X106972772Y-81259589D02*
X107023279Y-81259589D01*
X106871756Y-80148421D02*
X106821248Y-80097913D01*
X106821248Y-80097913D02*
X106745487Y-80072659D01*
X106745487Y-80072659D02*
X106694979Y-80072659D01*
X106694979Y-80072659D02*
X106619218Y-80097913D01*
X106619218Y-80097913D02*
X106492949Y-80173674D01*
X106492949Y-80173674D02*
X106366680Y-80299944D01*
X106366680Y-80299944D02*
X106290918Y-80426213D01*
X106290918Y-80426213D02*
X106265665Y-80501974D01*
X106265665Y-80501974D02*
X106265665Y-80552482D01*
X106265665Y-80552482D02*
X106290918Y-80628243D01*
X106290918Y-80628243D02*
X106341426Y-80678751D01*
X106341426Y-80678751D02*
X106417187Y-80704005D01*
X106417187Y-80704005D02*
X106467695Y-80704005D01*
X106467695Y-80704005D02*
X106543457Y-80678751D01*
X106543457Y-80678751D02*
X106669726Y-80602989D01*
X106669726Y-80602989D02*
X106795995Y-80476720D01*
X106795995Y-80476720D02*
X106871756Y-80350451D01*
X106871756Y-80350451D02*
X106897010Y-80274690D01*
X106897010Y-80274690D02*
X106897010Y-80224182D01*
X106897010Y-80224182D02*
X106871756Y-80148421D01*
X106215157Y-79491821D02*
X106467695Y-79744359D01*
X106467695Y-79744359D02*
X106240411Y-80022151D01*
X106240411Y-80022151D02*
X106240411Y-79971644D01*
X106240411Y-79971644D02*
X106215157Y-79895882D01*
X106215157Y-79895882D02*
X106088888Y-79769613D01*
X106088888Y-79769613D02*
X106013126Y-79744359D01*
X106013126Y-79744359D02*
X105962619Y-79744359D01*
X105962619Y-79744359D02*
X105886857Y-79769613D01*
X105886857Y-79769613D02*
X105760588Y-79895882D01*
X105760588Y-79895882D02*
X105735334Y-79971644D01*
X105735334Y-79971644D02*
X105735334Y-80022151D01*
X105735334Y-80022151D02*
X105760588Y-80097913D01*
X105760588Y-80097913D02*
X105886857Y-80224182D01*
X105886857Y-80224182D02*
X105962619Y-80249436D01*
X105962619Y-80249436D02*
X106013126Y-80249436D01*
X118940835Y-111664285D02*
X118405121Y-111664285D01*
X118405121Y-111664285D02*
X118297978Y-111700000D01*
X118297978Y-111700000D02*
X118226550Y-111771428D01*
X118226550Y-111771428D02*
X118190835Y-111878571D01*
X118190835Y-111878571D02*
X118190835Y-111950000D01*
X118940835Y-110985714D02*
X118940835Y-111128571D01*
X118940835Y-111128571D02*
X118905121Y-111199999D01*
X118905121Y-111199999D02*
X118869407Y-111235714D01*
X118869407Y-111235714D02*
X118762264Y-111307142D01*
X118762264Y-111307142D02*
X118619407Y-111342856D01*
X118619407Y-111342856D02*
X118333692Y-111342856D01*
X118333692Y-111342856D02*
X118262264Y-111307142D01*
X118262264Y-111307142D02*
X118226550Y-111271428D01*
X118226550Y-111271428D02*
X118190835Y-111199999D01*
X118190835Y-111199999D02*
X118190835Y-111057142D01*
X118190835Y-111057142D02*
X118226550Y-110985714D01*
X118226550Y-110985714D02*
X118262264Y-110949999D01*
X118262264Y-110949999D02*
X118333692Y-110914285D01*
X118333692Y-110914285D02*
X118512264Y-110914285D01*
X118512264Y-110914285D02*
X118583692Y-110949999D01*
X118583692Y-110949999D02*
X118619407Y-110985714D01*
X118619407Y-110985714D02*
X118655121Y-111057142D01*
X118655121Y-111057142D02*
X118655121Y-111199999D01*
X118655121Y-111199999D02*
X118619407Y-111271428D01*
X118619407Y-111271428D02*
X118583692Y-111307142D01*
X118583692Y-111307142D02*
X118512264Y-111342856D01*
X118940835Y-110449999D02*
X118940835Y-110378570D01*
X118940835Y-110378570D02*
X118905121Y-110307142D01*
X118905121Y-110307142D02*
X118869407Y-110271428D01*
X118869407Y-110271428D02*
X118797978Y-110235713D01*
X118797978Y-110235713D02*
X118655121Y-110199999D01*
X118655121Y-110199999D02*
X118476550Y-110199999D01*
X118476550Y-110199999D02*
X118333692Y-110235713D01*
X118333692Y-110235713D02*
X118262264Y-110271428D01*
X118262264Y-110271428D02*
X118226550Y-110307142D01*
X118226550Y-110307142D02*
X118190835Y-110378570D01*
X118190835Y-110378570D02*
X118190835Y-110449999D01*
X118190835Y-110449999D02*
X118226550Y-110521428D01*
X118226550Y-110521428D02*
X118262264Y-110557142D01*
X118262264Y-110557142D02*
X118333692Y-110592856D01*
X118333692Y-110592856D02*
X118476550Y-110628570D01*
X118476550Y-110628570D02*
X118655121Y-110628570D01*
X118655121Y-110628570D02*
X118797978Y-110592856D01*
X118797978Y-110592856D02*
X118869407Y-110557142D01*
X118869407Y-110557142D02*
X118905121Y-110521428D01*
X118905121Y-110521428D02*
X118940835Y-110449999D01*
X118190835Y-109485713D02*
X118190835Y-109914284D01*
X118190835Y-109699999D02*
X118940835Y-109699999D01*
X118940835Y-109699999D02*
X118833692Y-109771427D01*
X118833692Y-109771427D02*
X118762264Y-109842856D01*
X118762264Y-109842856D02*
X118726550Y-109914284D01*
D11*
X117069523Y-69217190D02*
X117093332Y-69241000D01*
X117093332Y-69241000D02*
X117164761Y-69264809D01*
X117164761Y-69264809D02*
X117212380Y-69264809D01*
X117212380Y-69264809D02*
X117283808Y-69241000D01*
X117283808Y-69241000D02*
X117331427Y-69193380D01*
X117331427Y-69193380D02*
X117355237Y-69145761D01*
X117355237Y-69145761D02*
X117379046Y-69050523D01*
X117379046Y-69050523D02*
X117379046Y-68979095D01*
X117379046Y-68979095D02*
X117355237Y-68883857D01*
X117355237Y-68883857D02*
X117331427Y-68836238D01*
X117331427Y-68836238D02*
X117283808Y-68788619D01*
X117283808Y-68788619D02*
X117212380Y-68764809D01*
X117212380Y-68764809D02*
X117164761Y-68764809D01*
X117164761Y-68764809D02*
X117093332Y-68788619D01*
X117093332Y-68788619D02*
X117069523Y-68812428D01*
X116902856Y-68764809D02*
X116569523Y-68764809D01*
X116569523Y-68764809D02*
X116783808Y-69264809D01*
X116283809Y-68764809D02*
X116236190Y-68764809D01*
X116236190Y-68764809D02*
X116188571Y-68788619D01*
X116188571Y-68788619D02*
X116164761Y-68812428D01*
X116164761Y-68812428D02*
X116140952Y-68860047D01*
X116140952Y-68860047D02*
X116117142Y-68955285D01*
X116117142Y-68955285D02*
X116117142Y-69074333D01*
X116117142Y-69074333D02*
X116140952Y-69169571D01*
X116140952Y-69169571D02*
X116164761Y-69217190D01*
X116164761Y-69217190D02*
X116188571Y-69241000D01*
X116188571Y-69241000D02*
X116236190Y-69264809D01*
X116236190Y-69264809D02*
X116283809Y-69264809D01*
X116283809Y-69264809D02*
X116331428Y-69241000D01*
X116331428Y-69241000D02*
X116355237Y-69217190D01*
X116355237Y-69217190D02*
X116379047Y-69169571D01*
X116379047Y-69169571D02*
X116402856Y-69074333D01*
X116402856Y-69074333D02*
X116402856Y-68955285D01*
X116402856Y-68955285D02*
X116379047Y-68860047D01*
X116379047Y-68860047D02*
X116355237Y-68812428D01*
X116355237Y-68812428D02*
X116331428Y-68788619D01*
X116331428Y-68788619D02*
X116283809Y-68764809D01*
X115950476Y-68764809D02*
X115640952Y-68764809D01*
X115640952Y-68764809D02*
X115807619Y-68955285D01*
X115807619Y-68955285D02*
X115736190Y-68955285D01*
X115736190Y-68955285D02*
X115688571Y-68979095D01*
X115688571Y-68979095D02*
X115664762Y-69002904D01*
X115664762Y-69002904D02*
X115640952Y-69050523D01*
X115640952Y-69050523D02*
X115640952Y-69169571D01*
X115640952Y-69169571D02*
X115664762Y-69217190D01*
X115664762Y-69217190D02*
X115688571Y-69241000D01*
X115688571Y-69241000D02*
X115736190Y-69264809D01*
X115736190Y-69264809D02*
X115879047Y-69264809D01*
X115879047Y-69264809D02*
X115926666Y-69241000D01*
X115926666Y-69241000D02*
X115950476Y-69217190D01*
D10*
X118269164Y-96840713D02*
X117912021Y-96590713D01*
X118269164Y-96412142D02*
X117519164Y-96412142D01*
X117519164Y-96412142D02*
X117519164Y-96697856D01*
X117519164Y-96697856D02*
X117554878Y-96769285D01*
X117554878Y-96769285D02*
X117590592Y-96804999D01*
X117590592Y-96804999D02*
X117662021Y-96840713D01*
X117662021Y-96840713D02*
X117769164Y-96840713D01*
X117769164Y-96840713D02*
X117840592Y-96804999D01*
X117840592Y-96804999D02*
X117876307Y-96769285D01*
X117876307Y-96769285D02*
X117912021Y-96697856D01*
X117912021Y-96697856D02*
X117912021Y-96412142D01*
X117769164Y-97483571D02*
X118269164Y-97483571D01*
X117483450Y-97304999D02*
X118019164Y-97126428D01*
X118019164Y-97126428D02*
X118019164Y-97590713D01*
X117519164Y-98019285D02*
X117519164Y-98090714D01*
X117519164Y-98090714D02*
X117554878Y-98162142D01*
X117554878Y-98162142D02*
X117590592Y-98197857D01*
X117590592Y-98197857D02*
X117662021Y-98233571D01*
X117662021Y-98233571D02*
X117804878Y-98269285D01*
X117804878Y-98269285D02*
X117983450Y-98269285D01*
X117983450Y-98269285D02*
X118126307Y-98233571D01*
X118126307Y-98233571D02*
X118197735Y-98197857D01*
X118197735Y-98197857D02*
X118233450Y-98162142D01*
X118233450Y-98162142D02*
X118269164Y-98090714D01*
X118269164Y-98090714D02*
X118269164Y-98019285D01*
X118269164Y-98019285D02*
X118233450Y-97947857D01*
X118233450Y-97947857D02*
X118197735Y-97912142D01*
X118197735Y-97912142D02*
X118126307Y-97876428D01*
X118126307Y-97876428D02*
X117983450Y-97840714D01*
X117983450Y-97840714D02*
X117804878Y-97840714D01*
X117804878Y-97840714D02*
X117662021Y-97876428D01*
X117662021Y-97876428D02*
X117590592Y-97912142D01*
X117590592Y-97912142D02*
X117554878Y-97947857D01*
X117554878Y-97947857D02*
X117519164Y-98019285D01*
X117519164Y-98947857D02*
X117519164Y-98590714D01*
X117519164Y-98590714D02*
X117876307Y-98555000D01*
X117876307Y-98555000D02*
X117840592Y-98590714D01*
X117840592Y-98590714D02*
X117804878Y-98662143D01*
X117804878Y-98662143D02*
X117804878Y-98840714D01*
X117804878Y-98840714D02*
X117840592Y-98912143D01*
X117840592Y-98912143D02*
X117876307Y-98947857D01*
X117876307Y-98947857D02*
X117947735Y-98983571D01*
X117947735Y-98983571D02*
X118126307Y-98983571D01*
X118126307Y-98983571D02*
X118197735Y-98947857D01*
X118197735Y-98947857D02*
X118233450Y-98912143D01*
X118233450Y-98912143D02*
X118269164Y-98840714D01*
X118269164Y-98840714D02*
X118269164Y-98662143D01*
X118269164Y-98662143D02*
X118233450Y-98590714D01*
X118233450Y-98590714D02*
X118197735Y-98555000D01*
X112509285Y-74329164D02*
X112866428Y-74329164D01*
X112866428Y-74329164D02*
X112866428Y-73579164D01*
X112330714Y-73579164D02*
X111830714Y-73579164D01*
X111830714Y-73579164D02*
X112152142Y-74329164D01*
X111402142Y-73579164D02*
X111330713Y-73579164D01*
X111330713Y-73579164D02*
X111259285Y-73614878D01*
X111259285Y-73614878D02*
X111223571Y-73650592D01*
X111223571Y-73650592D02*
X111187856Y-73722021D01*
X111187856Y-73722021D02*
X111152142Y-73864878D01*
X111152142Y-73864878D02*
X111152142Y-74043450D01*
X111152142Y-74043450D02*
X111187856Y-74186307D01*
X111187856Y-74186307D02*
X111223571Y-74257735D01*
X111223571Y-74257735D02*
X111259285Y-74293450D01*
X111259285Y-74293450D02*
X111330713Y-74329164D01*
X111330713Y-74329164D02*
X111402142Y-74329164D01*
X111402142Y-74329164D02*
X111473571Y-74293450D01*
X111473571Y-74293450D02*
X111509285Y-74257735D01*
X111509285Y-74257735D02*
X111544999Y-74186307D01*
X111544999Y-74186307D02*
X111580713Y-74043450D01*
X111580713Y-74043450D02*
X111580713Y-73864878D01*
X111580713Y-73864878D02*
X111544999Y-73722021D01*
X111544999Y-73722021D02*
X111509285Y-73650592D01*
X111509285Y-73650592D02*
X111473571Y-73614878D01*
X111473571Y-73614878D02*
X111402142Y-73579164D01*
X110473570Y-73579164D02*
X110830713Y-73579164D01*
X110830713Y-73579164D02*
X110866427Y-73936307D01*
X110866427Y-73936307D02*
X110830713Y-73900592D01*
X110830713Y-73900592D02*
X110759285Y-73864878D01*
X110759285Y-73864878D02*
X110580713Y-73864878D01*
X110580713Y-73864878D02*
X110509285Y-73900592D01*
X110509285Y-73900592D02*
X110473570Y-73936307D01*
X110473570Y-73936307D02*
X110437856Y-74007735D01*
X110437856Y-74007735D02*
X110437856Y-74186307D01*
X110437856Y-74186307D02*
X110473570Y-74257735D01*
X110473570Y-74257735D02*
X110509285Y-74293450D01*
X110509285Y-74293450D02*
X110580713Y-74329164D01*
X110580713Y-74329164D02*
X110759285Y-74329164D01*
X110759285Y-74329164D02*
X110830713Y-74293450D01*
X110830713Y-74293450D02*
X110866427Y-74257735D01*
D11*
X107107190Y-62540476D02*
X107131000Y-62516667D01*
X107131000Y-62516667D02*
X107154809Y-62445238D01*
X107154809Y-62445238D02*
X107154809Y-62397619D01*
X107154809Y-62397619D02*
X107131000Y-62326191D01*
X107131000Y-62326191D02*
X107083380Y-62278572D01*
X107083380Y-62278572D02*
X107035761Y-62254762D01*
X107035761Y-62254762D02*
X106940523Y-62230953D01*
X106940523Y-62230953D02*
X106869095Y-62230953D01*
X106869095Y-62230953D02*
X106773857Y-62254762D01*
X106773857Y-62254762D02*
X106726238Y-62278572D01*
X106726238Y-62278572D02*
X106678619Y-62326191D01*
X106678619Y-62326191D02*
X106654809Y-62397619D01*
X106654809Y-62397619D02*
X106654809Y-62445238D01*
X106654809Y-62445238D02*
X106678619Y-62516667D01*
X106678619Y-62516667D02*
X106702428Y-62540476D01*
X106654809Y-62707143D02*
X106654809Y-63040476D01*
X106654809Y-63040476D02*
X107154809Y-62826191D01*
X107154809Y-63492857D02*
X107154809Y-63207143D01*
X107154809Y-63350000D02*
X106654809Y-63350000D01*
X106654809Y-63350000D02*
X106726238Y-63302381D01*
X106726238Y-63302381D02*
X106773857Y-63254762D01*
X106773857Y-63254762D02*
X106797666Y-63207143D01*
X106821476Y-63921428D02*
X107154809Y-63921428D01*
X106631000Y-63802380D02*
X106988142Y-63683333D01*
X106988142Y-63683333D02*
X106988142Y-63992856D01*
D10*
X121519286Y-47737735D02*
X121555000Y-47773450D01*
X121555000Y-47773450D02*
X121662143Y-47809164D01*
X121662143Y-47809164D02*
X121733571Y-47809164D01*
X121733571Y-47809164D02*
X121840714Y-47773450D01*
X121840714Y-47773450D02*
X121912143Y-47702021D01*
X121912143Y-47702021D02*
X121947857Y-47630592D01*
X121947857Y-47630592D02*
X121983571Y-47487735D01*
X121983571Y-47487735D02*
X121983571Y-47380592D01*
X121983571Y-47380592D02*
X121947857Y-47237735D01*
X121947857Y-47237735D02*
X121912143Y-47166307D01*
X121912143Y-47166307D02*
X121840714Y-47094878D01*
X121840714Y-47094878D02*
X121733571Y-47059164D01*
X121733571Y-47059164D02*
X121662143Y-47059164D01*
X121662143Y-47059164D02*
X121555000Y-47094878D01*
X121555000Y-47094878D02*
X121519286Y-47130592D01*
X121269286Y-47059164D02*
X120769286Y-47059164D01*
X120769286Y-47059164D02*
X121090714Y-47809164D01*
X120090714Y-47809164D02*
X120519285Y-47809164D01*
X120305000Y-47809164D02*
X120305000Y-47059164D01*
X120305000Y-47059164D02*
X120376428Y-47166307D01*
X120376428Y-47166307D02*
X120447857Y-47237735D01*
X120447857Y-47237735D02*
X120519285Y-47273450D01*
X119804999Y-47130592D02*
X119769285Y-47094878D01*
X119769285Y-47094878D02*
X119697857Y-47059164D01*
X119697857Y-47059164D02*
X119519285Y-47059164D01*
X119519285Y-47059164D02*
X119447857Y-47094878D01*
X119447857Y-47094878D02*
X119412142Y-47130592D01*
X119412142Y-47130592D02*
X119376428Y-47202021D01*
X119376428Y-47202021D02*
X119376428Y-47273450D01*
X119376428Y-47273450D02*
X119412142Y-47380592D01*
X119412142Y-47380592D02*
X119840714Y-47809164D01*
X119840714Y-47809164D02*
X119376428Y-47809164D01*
X117789286Y-63357735D02*
X117825000Y-63393450D01*
X117825000Y-63393450D02*
X117932143Y-63429164D01*
X117932143Y-63429164D02*
X118003571Y-63429164D01*
X118003571Y-63429164D02*
X118110714Y-63393450D01*
X118110714Y-63393450D02*
X118182143Y-63322021D01*
X118182143Y-63322021D02*
X118217857Y-63250592D01*
X118217857Y-63250592D02*
X118253571Y-63107735D01*
X118253571Y-63107735D02*
X118253571Y-63000592D01*
X118253571Y-63000592D02*
X118217857Y-62857735D01*
X118217857Y-62857735D02*
X118182143Y-62786307D01*
X118182143Y-62786307D02*
X118110714Y-62714878D01*
X118110714Y-62714878D02*
X118003571Y-62679164D01*
X118003571Y-62679164D02*
X117932143Y-62679164D01*
X117932143Y-62679164D02*
X117825000Y-62714878D01*
X117825000Y-62714878D02*
X117789286Y-62750592D01*
X117539286Y-62679164D02*
X117039286Y-62679164D01*
X117039286Y-62679164D02*
X117360714Y-63429164D01*
X116360714Y-63429164D02*
X116789285Y-63429164D01*
X116575000Y-63429164D02*
X116575000Y-62679164D01*
X116575000Y-62679164D02*
X116646428Y-62786307D01*
X116646428Y-62786307D02*
X116717857Y-62857735D01*
X116717857Y-62857735D02*
X116789285Y-62893450D01*
X116110714Y-62679164D02*
X115646428Y-62679164D01*
X115646428Y-62679164D02*
X115896428Y-62964878D01*
X115896428Y-62964878D02*
X115789285Y-62964878D01*
X115789285Y-62964878D02*
X115717857Y-63000592D01*
X115717857Y-63000592D02*
X115682142Y-63036307D01*
X115682142Y-63036307D02*
X115646428Y-63107735D01*
X115646428Y-63107735D02*
X115646428Y-63286307D01*
X115646428Y-63286307D02*
X115682142Y-63357735D01*
X115682142Y-63357735D02*
X115717857Y-63393450D01*
X115717857Y-63393450D02*
X115789285Y-63429164D01*
X115789285Y-63429164D02*
X116003571Y-63429164D01*
X116003571Y-63429164D02*
X116074999Y-63393450D01*
X116074999Y-63393450D02*
X116110714Y-63357735D01*
D11*
X111587190Y-60530476D02*
X111611000Y-60506667D01*
X111611000Y-60506667D02*
X111634809Y-60435238D01*
X111634809Y-60435238D02*
X111634809Y-60387619D01*
X111634809Y-60387619D02*
X111611000Y-60316191D01*
X111611000Y-60316191D02*
X111563380Y-60268572D01*
X111563380Y-60268572D02*
X111515761Y-60244762D01*
X111515761Y-60244762D02*
X111420523Y-60220953D01*
X111420523Y-60220953D02*
X111349095Y-60220953D01*
X111349095Y-60220953D02*
X111253857Y-60244762D01*
X111253857Y-60244762D02*
X111206238Y-60268572D01*
X111206238Y-60268572D02*
X111158619Y-60316191D01*
X111158619Y-60316191D02*
X111134809Y-60387619D01*
X111134809Y-60387619D02*
X111134809Y-60435238D01*
X111134809Y-60435238D02*
X111158619Y-60506667D01*
X111158619Y-60506667D02*
X111182428Y-60530476D01*
X111134809Y-60697143D02*
X111134809Y-61030476D01*
X111134809Y-61030476D02*
X111634809Y-60816191D01*
X111134809Y-61316190D02*
X111134809Y-61363809D01*
X111134809Y-61363809D02*
X111158619Y-61411428D01*
X111158619Y-61411428D02*
X111182428Y-61435238D01*
X111182428Y-61435238D02*
X111230047Y-61459047D01*
X111230047Y-61459047D02*
X111325285Y-61482857D01*
X111325285Y-61482857D02*
X111444333Y-61482857D01*
X111444333Y-61482857D02*
X111539571Y-61459047D01*
X111539571Y-61459047D02*
X111587190Y-61435238D01*
X111587190Y-61435238D02*
X111611000Y-61411428D01*
X111611000Y-61411428D02*
X111634809Y-61363809D01*
X111634809Y-61363809D02*
X111634809Y-61316190D01*
X111634809Y-61316190D02*
X111611000Y-61268571D01*
X111611000Y-61268571D02*
X111587190Y-61244762D01*
X111587190Y-61244762D02*
X111539571Y-61220952D01*
X111539571Y-61220952D02*
X111444333Y-61197143D01*
X111444333Y-61197143D02*
X111325285Y-61197143D01*
X111325285Y-61197143D02*
X111230047Y-61220952D01*
X111230047Y-61220952D02*
X111182428Y-61244762D01*
X111182428Y-61244762D02*
X111158619Y-61268571D01*
X111158619Y-61268571D02*
X111134809Y-61316190D01*
X111301476Y-61911428D02*
X111634809Y-61911428D01*
X111111000Y-61792380D02*
X111468142Y-61673333D01*
X111468142Y-61673333D02*
X111468142Y-61982856D01*
D10*
X110839286Y-102099164D02*
X111089286Y-101742021D01*
X111267857Y-102099164D02*
X111267857Y-101349164D01*
X111267857Y-101349164D02*
X110982143Y-101349164D01*
X110982143Y-101349164D02*
X110910714Y-101384878D01*
X110910714Y-101384878D02*
X110875000Y-101420592D01*
X110875000Y-101420592D02*
X110839286Y-101492021D01*
X110839286Y-101492021D02*
X110839286Y-101599164D01*
X110839286Y-101599164D02*
X110875000Y-101670592D01*
X110875000Y-101670592D02*
X110910714Y-101706307D01*
X110910714Y-101706307D02*
X110982143Y-101742021D01*
X110982143Y-101742021D02*
X111267857Y-101742021D01*
X110196429Y-101349164D02*
X110339286Y-101349164D01*
X110339286Y-101349164D02*
X110410714Y-101384878D01*
X110410714Y-101384878D02*
X110446429Y-101420592D01*
X110446429Y-101420592D02*
X110517857Y-101527735D01*
X110517857Y-101527735D02*
X110553571Y-101670592D01*
X110553571Y-101670592D02*
X110553571Y-101956307D01*
X110553571Y-101956307D02*
X110517857Y-102027735D01*
X110517857Y-102027735D02*
X110482143Y-102063450D01*
X110482143Y-102063450D02*
X110410714Y-102099164D01*
X110410714Y-102099164D02*
X110267857Y-102099164D01*
X110267857Y-102099164D02*
X110196429Y-102063450D01*
X110196429Y-102063450D02*
X110160714Y-102027735D01*
X110160714Y-102027735D02*
X110125000Y-101956307D01*
X110125000Y-101956307D02*
X110125000Y-101777735D01*
X110125000Y-101777735D02*
X110160714Y-101706307D01*
X110160714Y-101706307D02*
X110196429Y-101670592D01*
X110196429Y-101670592D02*
X110267857Y-101634878D01*
X110267857Y-101634878D02*
X110410714Y-101634878D01*
X110410714Y-101634878D02*
X110482143Y-101670592D01*
X110482143Y-101670592D02*
X110517857Y-101706307D01*
X110517857Y-101706307D02*
X110553571Y-101777735D01*
X109660714Y-101349164D02*
X109589285Y-101349164D01*
X109589285Y-101349164D02*
X109517857Y-101384878D01*
X109517857Y-101384878D02*
X109482143Y-101420592D01*
X109482143Y-101420592D02*
X109446428Y-101492021D01*
X109446428Y-101492021D02*
X109410714Y-101634878D01*
X109410714Y-101634878D02*
X109410714Y-101813450D01*
X109410714Y-101813450D02*
X109446428Y-101956307D01*
X109446428Y-101956307D02*
X109482143Y-102027735D01*
X109482143Y-102027735D02*
X109517857Y-102063450D01*
X109517857Y-102063450D02*
X109589285Y-102099164D01*
X109589285Y-102099164D02*
X109660714Y-102099164D01*
X109660714Y-102099164D02*
X109732143Y-102063450D01*
X109732143Y-102063450D02*
X109767857Y-102027735D01*
X109767857Y-102027735D02*
X109803571Y-101956307D01*
X109803571Y-101956307D02*
X109839285Y-101813450D01*
X109839285Y-101813450D02*
X109839285Y-101634878D01*
X109839285Y-101634878D02*
X109803571Y-101492021D01*
X109803571Y-101492021D02*
X109767857Y-101420592D01*
X109767857Y-101420592D02*
X109732143Y-101384878D01*
X109732143Y-101384878D02*
X109660714Y-101349164D01*
X108696428Y-102099164D02*
X109124999Y-102099164D01*
X108910714Y-102099164D02*
X108910714Y-101349164D01*
X108910714Y-101349164D02*
X108982142Y-101456307D01*
X108982142Y-101456307D02*
X109053571Y-101527735D01*
X109053571Y-101527735D02*
X109124999Y-101563450D01*
X113959285Y-61899164D02*
X114316428Y-61899164D01*
X114316428Y-61899164D02*
X114316428Y-61149164D01*
X113780714Y-61149164D02*
X113280714Y-61149164D01*
X113280714Y-61149164D02*
X113602142Y-61899164D01*
X112852142Y-61149164D02*
X112780713Y-61149164D01*
X112780713Y-61149164D02*
X112709285Y-61184878D01*
X112709285Y-61184878D02*
X112673571Y-61220592D01*
X112673571Y-61220592D02*
X112637856Y-61292021D01*
X112637856Y-61292021D02*
X112602142Y-61434878D01*
X112602142Y-61434878D02*
X112602142Y-61613450D01*
X112602142Y-61613450D02*
X112637856Y-61756307D01*
X112637856Y-61756307D02*
X112673571Y-61827735D01*
X112673571Y-61827735D02*
X112709285Y-61863450D01*
X112709285Y-61863450D02*
X112780713Y-61899164D01*
X112780713Y-61899164D02*
X112852142Y-61899164D01*
X112852142Y-61899164D02*
X112923571Y-61863450D01*
X112923571Y-61863450D02*
X112959285Y-61827735D01*
X112959285Y-61827735D02*
X112994999Y-61756307D01*
X112994999Y-61756307D02*
X113030713Y-61613450D01*
X113030713Y-61613450D02*
X113030713Y-61434878D01*
X113030713Y-61434878D02*
X112994999Y-61292021D01*
X112994999Y-61292021D02*
X112959285Y-61220592D01*
X112959285Y-61220592D02*
X112923571Y-61184878D01*
X112923571Y-61184878D02*
X112852142Y-61149164D01*
X111959285Y-61399164D02*
X111959285Y-61899164D01*
X112137856Y-61113450D02*
X112316427Y-61649164D01*
X112316427Y-61649164D02*
X111852142Y-61649164D01*
X118414164Y-100935713D02*
X118057021Y-100685713D01*
X118414164Y-100507142D02*
X117664164Y-100507142D01*
X117664164Y-100507142D02*
X117664164Y-100792856D01*
X117664164Y-100792856D02*
X117699878Y-100864285D01*
X117699878Y-100864285D02*
X117735592Y-100899999D01*
X117735592Y-100899999D02*
X117807021Y-100935713D01*
X117807021Y-100935713D02*
X117914164Y-100935713D01*
X117914164Y-100935713D02*
X117985592Y-100899999D01*
X117985592Y-100899999D02*
X118021307Y-100864285D01*
X118021307Y-100864285D02*
X118057021Y-100792856D01*
X118057021Y-100792856D02*
X118057021Y-100507142D01*
X117914164Y-101578571D02*
X118414164Y-101578571D01*
X117628450Y-101399999D02*
X118164164Y-101221428D01*
X118164164Y-101221428D02*
X118164164Y-101685713D01*
X117664164Y-102114285D02*
X117664164Y-102185714D01*
X117664164Y-102185714D02*
X117699878Y-102257142D01*
X117699878Y-102257142D02*
X117735592Y-102292857D01*
X117735592Y-102292857D02*
X117807021Y-102328571D01*
X117807021Y-102328571D02*
X117949878Y-102364285D01*
X117949878Y-102364285D02*
X118128450Y-102364285D01*
X118128450Y-102364285D02*
X118271307Y-102328571D01*
X118271307Y-102328571D02*
X118342735Y-102292857D01*
X118342735Y-102292857D02*
X118378450Y-102257142D01*
X118378450Y-102257142D02*
X118414164Y-102185714D01*
X118414164Y-102185714D02*
X118414164Y-102114285D01*
X118414164Y-102114285D02*
X118378450Y-102042857D01*
X118378450Y-102042857D02*
X118342735Y-102007142D01*
X118342735Y-102007142D02*
X118271307Y-101971428D01*
X118271307Y-101971428D02*
X118128450Y-101935714D01*
X118128450Y-101935714D02*
X117949878Y-101935714D01*
X117949878Y-101935714D02*
X117807021Y-101971428D01*
X117807021Y-101971428D02*
X117735592Y-102007142D01*
X117735592Y-102007142D02*
X117699878Y-102042857D01*
X117699878Y-102042857D02*
X117664164Y-102114285D01*
X117735592Y-102650000D02*
X117699878Y-102685714D01*
X117699878Y-102685714D02*
X117664164Y-102757143D01*
X117664164Y-102757143D02*
X117664164Y-102935714D01*
X117664164Y-102935714D02*
X117699878Y-103007143D01*
X117699878Y-103007143D02*
X117735592Y-103042857D01*
X117735592Y-103042857D02*
X117807021Y-103078571D01*
X117807021Y-103078571D02*
X117878450Y-103078571D01*
X117878450Y-103078571D02*
X117985592Y-103042857D01*
X117985592Y-103042857D02*
X118414164Y-102614285D01*
X118414164Y-102614285D02*
X118414164Y-103078571D01*
X116139164Y-101508213D02*
X115782021Y-101258213D01*
X116139164Y-101079642D02*
X115389164Y-101079642D01*
X115389164Y-101079642D02*
X115389164Y-101365356D01*
X115389164Y-101365356D02*
X115424878Y-101436785D01*
X115424878Y-101436785D02*
X115460592Y-101472499D01*
X115460592Y-101472499D02*
X115532021Y-101508213D01*
X115532021Y-101508213D02*
X115639164Y-101508213D01*
X115639164Y-101508213D02*
X115710592Y-101472499D01*
X115710592Y-101472499D02*
X115746307Y-101436785D01*
X115746307Y-101436785D02*
X115782021Y-101365356D01*
X115782021Y-101365356D02*
X115782021Y-101079642D01*
X115389164Y-102151071D02*
X115389164Y-102008213D01*
X115389164Y-102008213D02*
X115424878Y-101936785D01*
X115424878Y-101936785D02*
X115460592Y-101901071D01*
X115460592Y-101901071D02*
X115567735Y-101829642D01*
X115567735Y-101829642D02*
X115710592Y-101793928D01*
X115710592Y-101793928D02*
X115996307Y-101793928D01*
X115996307Y-101793928D02*
X116067735Y-101829642D01*
X116067735Y-101829642D02*
X116103450Y-101865356D01*
X116103450Y-101865356D02*
X116139164Y-101936785D01*
X116139164Y-101936785D02*
X116139164Y-102079642D01*
X116139164Y-102079642D02*
X116103450Y-102151071D01*
X116103450Y-102151071D02*
X116067735Y-102186785D01*
X116067735Y-102186785D02*
X115996307Y-102222499D01*
X115996307Y-102222499D02*
X115817735Y-102222499D01*
X115817735Y-102222499D02*
X115746307Y-102186785D01*
X115746307Y-102186785D02*
X115710592Y-102151071D01*
X115710592Y-102151071D02*
X115674878Y-102079642D01*
X115674878Y-102079642D02*
X115674878Y-101936785D01*
X115674878Y-101936785D02*
X115710592Y-101865356D01*
X115710592Y-101865356D02*
X115746307Y-101829642D01*
X115746307Y-101829642D02*
X115817735Y-101793928D01*
X115389164Y-102686785D02*
X115389164Y-102758214D01*
X115389164Y-102758214D02*
X115424878Y-102829642D01*
X115424878Y-102829642D02*
X115460592Y-102865357D01*
X115460592Y-102865357D02*
X115532021Y-102901071D01*
X115532021Y-102901071D02*
X115674878Y-102936785D01*
X115674878Y-102936785D02*
X115853450Y-102936785D01*
X115853450Y-102936785D02*
X115996307Y-102901071D01*
X115996307Y-102901071D02*
X116067735Y-102865357D01*
X116067735Y-102865357D02*
X116103450Y-102829642D01*
X116103450Y-102829642D02*
X116139164Y-102758214D01*
X116139164Y-102758214D02*
X116139164Y-102686785D01*
X116139164Y-102686785D02*
X116103450Y-102615357D01*
X116103450Y-102615357D02*
X116067735Y-102579642D01*
X116067735Y-102579642D02*
X115996307Y-102543928D01*
X115996307Y-102543928D02*
X115853450Y-102508214D01*
X115853450Y-102508214D02*
X115674878Y-102508214D01*
X115674878Y-102508214D02*
X115532021Y-102543928D01*
X115532021Y-102543928D02*
X115460592Y-102579642D01*
X115460592Y-102579642D02*
X115424878Y-102615357D01*
X115424878Y-102615357D02*
X115389164Y-102686785D01*
X115460592Y-103222500D02*
X115424878Y-103258214D01*
X115424878Y-103258214D02*
X115389164Y-103329643D01*
X115389164Y-103329643D02*
X115389164Y-103508214D01*
X115389164Y-103508214D02*
X115424878Y-103579643D01*
X115424878Y-103579643D02*
X115460592Y-103615357D01*
X115460592Y-103615357D02*
X115532021Y-103651071D01*
X115532021Y-103651071D02*
X115603450Y-103651071D01*
X115603450Y-103651071D02*
X115710592Y-103615357D01*
X115710592Y-103615357D02*
X116139164Y-103186785D01*
X116139164Y-103186785D02*
X116139164Y-103651071D01*
X118459164Y-91740713D02*
X118102021Y-91490713D01*
X118459164Y-91312142D02*
X117709164Y-91312142D01*
X117709164Y-91312142D02*
X117709164Y-91597856D01*
X117709164Y-91597856D02*
X117744878Y-91669285D01*
X117744878Y-91669285D02*
X117780592Y-91704999D01*
X117780592Y-91704999D02*
X117852021Y-91740713D01*
X117852021Y-91740713D02*
X117959164Y-91740713D01*
X117959164Y-91740713D02*
X118030592Y-91704999D01*
X118030592Y-91704999D02*
X118066307Y-91669285D01*
X118066307Y-91669285D02*
X118102021Y-91597856D01*
X118102021Y-91597856D02*
X118102021Y-91312142D01*
X117959164Y-92383571D02*
X118459164Y-92383571D01*
X117673450Y-92204999D02*
X118209164Y-92026428D01*
X118209164Y-92026428D02*
X118209164Y-92490713D01*
X117709164Y-92919285D02*
X117709164Y-92990714D01*
X117709164Y-92990714D02*
X117744878Y-93062142D01*
X117744878Y-93062142D02*
X117780592Y-93097857D01*
X117780592Y-93097857D02*
X117852021Y-93133571D01*
X117852021Y-93133571D02*
X117994878Y-93169285D01*
X117994878Y-93169285D02*
X118173450Y-93169285D01*
X118173450Y-93169285D02*
X118316307Y-93133571D01*
X118316307Y-93133571D02*
X118387735Y-93097857D01*
X118387735Y-93097857D02*
X118423450Y-93062142D01*
X118423450Y-93062142D02*
X118459164Y-92990714D01*
X118459164Y-92990714D02*
X118459164Y-92919285D01*
X118459164Y-92919285D02*
X118423450Y-92847857D01*
X118423450Y-92847857D02*
X118387735Y-92812142D01*
X118387735Y-92812142D02*
X118316307Y-92776428D01*
X118316307Y-92776428D02*
X118173450Y-92740714D01*
X118173450Y-92740714D02*
X117994878Y-92740714D01*
X117994878Y-92740714D02*
X117852021Y-92776428D01*
X117852021Y-92776428D02*
X117780592Y-92812142D01*
X117780592Y-92812142D02*
X117744878Y-92847857D01*
X117744878Y-92847857D02*
X117709164Y-92919285D01*
X118030592Y-93597857D02*
X117994878Y-93526428D01*
X117994878Y-93526428D02*
X117959164Y-93490714D01*
X117959164Y-93490714D02*
X117887735Y-93455000D01*
X117887735Y-93455000D02*
X117852021Y-93455000D01*
X117852021Y-93455000D02*
X117780592Y-93490714D01*
X117780592Y-93490714D02*
X117744878Y-93526428D01*
X117744878Y-93526428D02*
X117709164Y-93597857D01*
X117709164Y-93597857D02*
X117709164Y-93740714D01*
X117709164Y-93740714D02*
X117744878Y-93812143D01*
X117744878Y-93812143D02*
X117780592Y-93847857D01*
X117780592Y-93847857D02*
X117852021Y-93883571D01*
X117852021Y-93883571D02*
X117887735Y-93883571D01*
X117887735Y-93883571D02*
X117959164Y-93847857D01*
X117959164Y-93847857D02*
X117994878Y-93812143D01*
X117994878Y-93812143D02*
X118030592Y-93740714D01*
X118030592Y-93740714D02*
X118030592Y-93597857D01*
X118030592Y-93597857D02*
X118066307Y-93526428D01*
X118066307Y-93526428D02*
X118102021Y-93490714D01*
X118102021Y-93490714D02*
X118173450Y-93455000D01*
X118173450Y-93455000D02*
X118316307Y-93455000D01*
X118316307Y-93455000D02*
X118387735Y-93490714D01*
X118387735Y-93490714D02*
X118423450Y-93526428D01*
X118423450Y-93526428D02*
X118459164Y-93597857D01*
X118459164Y-93597857D02*
X118459164Y-93740714D01*
X118459164Y-93740714D02*
X118423450Y-93812143D01*
X118423450Y-93812143D02*
X118387735Y-93847857D01*
X118387735Y-93847857D02*
X118316307Y-93883571D01*
X118316307Y-93883571D02*
X118173450Y-93883571D01*
X118173450Y-93883571D02*
X118102021Y-93847857D01*
X118102021Y-93847857D02*
X118066307Y-93812143D01*
X118066307Y-93812143D02*
X118030592Y-93740714D01*
X120949286Y-100789164D02*
X121199286Y-100432021D01*
X121377857Y-100789164D02*
X121377857Y-100039164D01*
X121377857Y-100039164D02*
X121092143Y-100039164D01*
X121092143Y-100039164D02*
X121020714Y-100074878D01*
X121020714Y-100074878D02*
X120985000Y-100110592D01*
X120985000Y-100110592D02*
X120949286Y-100182021D01*
X120949286Y-100182021D02*
X120949286Y-100289164D01*
X120949286Y-100289164D02*
X120985000Y-100360592D01*
X120985000Y-100360592D02*
X121020714Y-100396307D01*
X121020714Y-100396307D02*
X121092143Y-100432021D01*
X121092143Y-100432021D02*
X121377857Y-100432021D01*
X120306429Y-100289164D02*
X120306429Y-100789164D01*
X120485000Y-100003450D02*
X120663571Y-100539164D01*
X120663571Y-100539164D02*
X120199286Y-100539164D01*
X119770714Y-100039164D02*
X119699285Y-100039164D01*
X119699285Y-100039164D02*
X119627857Y-100074878D01*
X119627857Y-100074878D02*
X119592143Y-100110592D01*
X119592143Y-100110592D02*
X119556428Y-100182021D01*
X119556428Y-100182021D02*
X119520714Y-100324878D01*
X119520714Y-100324878D02*
X119520714Y-100503450D01*
X119520714Y-100503450D02*
X119556428Y-100646307D01*
X119556428Y-100646307D02*
X119592143Y-100717735D01*
X119592143Y-100717735D02*
X119627857Y-100753450D01*
X119627857Y-100753450D02*
X119699285Y-100789164D01*
X119699285Y-100789164D02*
X119770714Y-100789164D01*
X119770714Y-100789164D02*
X119842143Y-100753450D01*
X119842143Y-100753450D02*
X119877857Y-100717735D01*
X119877857Y-100717735D02*
X119913571Y-100646307D01*
X119913571Y-100646307D02*
X119949285Y-100503450D01*
X119949285Y-100503450D02*
X119949285Y-100324878D01*
X119949285Y-100324878D02*
X119913571Y-100182021D01*
X119913571Y-100182021D02*
X119877857Y-100110592D01*
X119877857Y-100110592D02*
X119842143Y-100074878D01*
X119842143Y-100074878D02*
X119770714Y-100039164D01*
X118877857Y-100039164D02*
X119020714Y-100039164D01*
X119020714Y-100039164D02*
X119092142Y-100074878D01*
X119092142Y-100074878D02*
X119127857Y-100110592D01*
X119127857Y-100110592D02*
X119199285Y-100217735D01*
X119199285Y-100217735D02*
X119234999Y-100360592D01*
X119234999Y-100360592D02*
X119234999Y-100646307D01*
X119234999Y-100646307D02*
X119199285Y-100717735D01*
X119199285Y-100717735D02*
X119163571Y-100753450D01*
X119163571Y-100753450D02*
X119092142Y-100789164D01*
X119092142Y-100789164D02*
X118949285Y-100789164D01*
X118949285Y-100789164D02*
X118877857Y-100753450D01*
X118877857Y-100753450D02*
X118842142Y-100717735D01*
X118842142Y-100717735D02*
X118806428Y-100646307D01*
X118806428Y-100646307D02*
X118806428Y-100467735D01*
X118806428Y-100467735D02*
X118842142Y-100396307D01*
X118842142Y-100396307D02*
X118877857Y-100360592D01*
X118877857Y-100360592D02*
X118949285Y-100324878D01*
X118949285Y-100324878D02*
X119092142Y-100324878D01*
X119092142Y-100324878D02*
X119163571Y-100360592D01*
X119163571Y-100360592D02*
X119199285Y-100396307D01*
X119199285Y-100396307D02*
X119234999Y-100467735D01*
D11*
X114380935Y-77299650D02*
X114414606Y-77299650D01*
X114414606Y-77299650D02*
X114481950Y-77265978D01*
X114481950Y-77265978D02*
X114515622Y-77232306D01*
X114515622Y-77232306D02*
X114549293Y-77164963D01*
X114549293Y-77164963D02*
X114549293Y-77097619D01*
X114549293Y-77097619D02*
X114532458Y-77047111D01*
X114532458Y-77047111D02*
X114481950Y-76962932D01*
X114481950Y-76962932D02*
X114431442Y-76912424D01*
X114431442Y-76912424D02*
X114347263Y-76861917D01*
X114347263Y-76861917D02*
X114296755Y-76845081D01*
X114296755Y-76845081D02*
X114229412Y-76845081D01*
X114229412Y-76845081D02*
X114162068Y-76878753D01*
X114162068Y-76878753D02*
X114128397Y-76912424D01*
X114128397Y-76912424D02*
X114094725Y-76979768D01*
X114094725Y-76979768D02*
X114094725Y-77013440D01*
X113741171Y-77299650D02*
X113909530Y-77131291D01*
X113909530Y-77131291D02*
X114094725Y-77282814D01*
X114094725Y-77282814D02*
X114061053Y-77282814D01*
X114061053Y-77282814D02*
X114010545Y-77299650D01*
X114010545Y-77299650D02*
X113926366Y-77383829D01*
X113926366Y-77383829D02*
X113909530Y-77434337D01*
X113909530Y-77434337D02*
X113909530Y-77468008D01*
X113909530Y-77468008D02*
X113926366Y-77518516D01*
X113926366Y-77518516D02*
X114010545Y-77602695D01*
X114010545Y-77602695D02*
X114061053Y-77619531D01*
X114061053Y-77619531D02*
X114094725Y-77619531D01*
X114094725Y-77619531D02*
X114145232Y-77602695D01*
X114145232Y-77602695D02*
X114229412Y-77518516D01*
X114229412Y-77518516D02*
X114246248Y-77468008D01*
X114246248Y-77468008D02*
X114246248Y-77434337D01*
X113505469Y-77535351D02*
X113471798Y-77569023D01*
X113471798Y-77569023D02*
X113454962Y-77619531D01*
X113454962Y-77619531D02*
X113454962Y-77653203D01*
X113454962Y-77653203D02*
X113471798Y-77703710D01*
X113471798Y-77703710D02*
X113522305Y-77787890D01*
X113522305Y-77787890D02*
X113606485Y-77872069D01*
X113606485Y-77872069D02*
X113690664Y-77922577D01*
X113690664Y-77922577D02*
X113741172Y-77939412D01*
X113741172Y-77939412D02*
X113774843Y-77939412D01*
X113774843Y-77939412D02*
X113825351Y-77922577D01*
X113825351Y-77922577D02*
X113859023Y-77888905D01*
X113859023Y-77888905D02*
X113875859Y-77838397D01*
X113875859Y-77838397D02*
X113875859Y-77804725D01*
X113875859Y-77804725D02*
X113859023Y-77754218D01*
X113859023Y-77754218D02*
X113808515Y-77670038D01*
X113808515Y-77670038D02*
X113724336Y-77585859D01*
X113724336Y-77585859D02*
X113640156Y-77535351D01*
X113640156Y-77535351D02*
X113589649Y-77518516D01*
X113589649Y-77518516D02*
X113555977Y-77518516D01*
X113555977Y-77518516D02*
X113505469Y-77535351D01*
X113404455Y-78343473D02*
X113606485Y-78141443D01*
X113505470Y-78242458D02*
X113151916Y-77888904D01*
X113151916Y-77888904D02*
X113236096Y-77905740D01*
X113236096Y-77905740D02*
X113303439Y-77905740D01*
X113303439Y-77905740D02*
X113353947Y-77888904D01*
D12*
%TO.C,C717*%
X103373733Y-67100000D02*
X103666267Y-67100000D01*
X103373733Y-68120000D02*
X103666267Y-68120000D01*
%TO.C,C701*%
X107796267Y-74540000D02*
X107503733Y-74540000D01*
X107796267Y-75560000D02*
X107503733Y-75560000D01*
%TO.C,Y501*%
X103237487Y-78113497D02*
X104948686Y-79824696D01*
X104948686Y-79824696D02*
X102954645Y-81818737D01*
%TO.C,C706*%
X113723733Y-65470000D02*
X114016267Y-65470000D01*
X113723733Y-66490000D02*
X114016267Y-66490000D01*
%TO.C,C504*%
X103912802Y-87725949D02*
X103705949Y-87932802D01*
X104634051Y-88447198D02*
X104427198Y-88654051D01*
%TO.C,U502*%
X105443369Y-86770000D02*
X106115120Y-86098249D01*
X106115120Y-87441751D02*
X105443369Y-86770000D01*
X111998249Y-93324880D02*
X112670000Y-93996631D01*
X112670000Y-79543369D02*
X111998249Y-80215120D01*
X112670000Y-93996631D02*
X113341751Y-93324880D01*
X113341751Y-80215120D02*
X112670000Y-79543369D01*
X119224880Y-86098249D02*
X119896631Y-86770000D01*
X119896631Y-86770000D02*
X119224880Y-87441751D01*
X105588326Y-86236134D02*
X105107493Y-85755302D01*
X105680249Y-85663378D01*
X105588326Y-86236134D01*
G36*
X105588326Y-86236134D02*
G01*
X105107493Y-85755302D01*
X105680249Y-85663378D01*
X105588326Y-86236134D01*
G37*
%TO.C,C718*%
X103373733Y-65570000D02*
X103666267Y-65570000D01*
X103373733Y-66590000D02*
X103666267Y-66590000D01*
%TO.C,C505*%
X120785949Y-86957198D02*
X120992802Y-87164051D01*
X121507198Y-86235949D02*
X121714051Y-86442802D01*
%TO.C,FB701*%
X114732779Y-74680000D02*
X114407221Y-74680000D01*
X114732779Y-75700000D02*
X114407221Y-75700000D01*
%TO.C,C503*%
X103030000Y-91701232D02*
X103030000Y-91993766D01*
X104050000Y-91701232D02*
X104050000Y-91993766D01*
%TO.C,C709*%
X109433733Y-59140000D02*
X109726267Y-59140000D01*
X109433733Y-60160000D02*
X109726267Y-60160000D01*
D13*
%TO.C,U702*%
X104713700Y-61666199D02*
X106466300Y-61666199D01*
X104713700Y-63418799D02*
X104713700Y-61666199D01*
X106466300Y-61666199D02*
X106466300Y-63418799D01*
X106466300Y-63418799D02*
X104713700Y-63418799D01*
D12*
%TO.C,C702*%
X107796267Y-76130000D02*
X107503733Y-76130000D01*
X107796267Y-77150000D02*
X107503733Y-77150000D01*
%TO.C,C710*%
X113116267Y-59140000D02*
X112823733Y-59140000D01*
X113116267Y-60160000D02*
X112823733Y-60160000D01*
%TO.C,C707*%
X113723733Y-66990000D02*
X114016267Y-66990000D01*
X113723733Y-68010000D02*
X114016267Y-68010000D01*
%TO.C,C508*%
X124845949Y-82592802D02*
X125052802Y-82385949D01*
X125567198Y-83314051D02*
X125774051Y-83107198D01*
%TO.C,L703*%
X110213733Y-65410000D02*
X110556267Y-65410000D01*
X110213733Y-66430000D02*
X110556267Y-66430000D01*
%TO.C,C509*%
X104222802Y-78554051D02*
X104015949Y-78347198D01*
X104944051Y-77832802D02*
X104737198Y-77625949D01*
%TO.C,C506*%
X107962802Y-79674051D02*
X107755949Y-79467198D01*
X108684051Y-78952802D02*
X108477198Y-78745949D01*
%TO.C,C705*%
X102503733Y-60190000D02*
X102796267Y-60190000D01*
X102503733Y-61210000D02*
X102796267Y-61210000D01*
%TO.C,R504*%
X100507224Y-92807500D02*
X99997776Y-92807500D01*
X100507224Y-93852500D02*
X99997776Y-93852500D01*
%TO.C,L701*%
X110551267Y-66990000D02*
X110208733Y-66990000D01*
X110551267Y-68010000D02*
X110208733Y-68010000D01*
%TO.C,R412*%
X121247500Y-90312224D02*
X121247500Y-89802776D01*
X122292500Y-90312224D02*
X122292500Y-89802776D01*
%TO.C,R701*%
X102345276Y-61767500D02*
X102854724Y-61767500D01*
X102345276Y-62812500D02*
X102854724Y-62812500D01*
%TO.C,C708*%
X110223733Y-63840000D02*
X110516267Y-63840000D01*
X110223733Y-64860000D02*
X110516267Y-64860000D01*
%TO.C,L706*%
X107101267Y-67120000D02*
X106758733Y-67120000D01*
X107101267Y-68140000D02*
X106758733Y-68140000D01*
%TO.C,C511*%
X120206069Y-84157318D02*
X120412922Y-84364171D01*
X120927318Y-83436069D02*
X121134171Y-83642922D01*
%TO.C,C510*%
X102662802Y-83085949D02*
X102455949Y-83292802D01*
X103384051Y-83807198D02*
X103177198Y-84014051D01*
%TO.C,L702*%
X111391267Y-57570000D02*
X111048733Y-57570000D01*
X111391267Y-58590000D02*
X111048733Y-58590000D01*
%TO.C,Y701*%
X112140000Y-69950000D02*
X114560000Y-69950000D01*
X114560000Y-69950000D02*
X114560000Y-72770000D01*
%TO.C,R702*%
X103292776Y-68807500D02*
X103802224Y-68807500D01*
X103292776Y-69852500D02*
X103802224Y-69852500D01*
%TO.C,C502*%
X112532802Y-94745949D02*
X112325949Y-94952802D01*
X113254051Y-95467198D02*
X113047198Y-95674051D01*
%TO.C,U501*%
X117337064Y-78956216D02*
X117527982Y-78765297D01*
X119288678Y-80907831D02*
X117337064Y-78956216D01*
X119288678Y-80907831D02*
X121240293Y-82859445D01*
X121240293Y-75052987D02*
X121049374Y-75243905D01*
X121240293Y-82859445D02*
X121431212Y-82668527D01*
X123191908Y-77004601D02*
X121240293Y-75052987D01*
X123191908Y-77004601D02*
X125143522Y-78956216D01*
X125143522Y-78956216D02*
X124952604Y-79147135D01*
X116923406Y-78627411D02*
X116583995Y-78288000D01*
X116987046Y-78224360D01*
X116923406Y-78627411D01*
G36*
X116923406Y-78627411D02*
G01*
X116583995Y-78288000D01*
X116987046Y-78224360D01*
X116923406Y-78627411D01*
G37*
%TO.C,C711*%
X107683733Y-57570000D02*
X107976267Y-57570000D01*
X107683733Y-58590000D02*
X107976267Y-58590000D01*
%TO.C,R409*%
X119947776Y-93637500D02*
X120457224Y-93637500D01*
X119947776Y-94682500D02*
X120457224Y-94682500D01*
%TO.C,C507*%
X103772802Y-84205949D02*
X103565949Y-84412802D01*
X104494051Y-84927198D02*
X104287198Y-85134051D01*
%TO.C,C715*%
X111176267Y-76100000D02*
X110883733Y-76100000D01*
X111176267Y-77120000D02*
X110883733Y-77120000D01*
%TO.C,U701*%
X106640000Y-69182500D02*
X106640000Y-69657500D01*
X106640000Y-73402500D02*
X106640000Y-72927500D01*
X107115000Y-69182500D02*
X106640000Y-69182500D01*
X107115000Y-73402500D02*
X106640000Y-73402500D01*
X110385000Y-69182500D02*
X110560000Y-69182500D01*
X110385000Y-73402500D02*
X110860000Y-73402500D01*
X110860000Y-69657500D02*
X110860000Y-69422500D01*
X110860000Y-73402500D02*
X110860000Y-72927500D01*
X110860000Y-69182500D02*
X110620000Y-68852500D01*
X111100000Y-68852500D01*
X110860000Y-69182500D01*
G36*
X110860000Y-69182500D02*
G01*
X110620000Y-68852500D01*
X111100000Y-68852500D01*
X110860000Y-69182500D01*
G37*
%TO.C,R403*%
X119945276Y-102802500D02*
X120454724Y-102802500D01*
X119945276Y-103847500D02*
X120454724Y-103847500D01*
%TO.C,C716*%
X107096267Y-65560000D02*
X106803733Y-65560000D01*
X107096267Y-66580000D02*
X106803733Y-66580000D01*
%TO.C,R505*%
X105620654Y-82239580D02*
X105260420Y-81879346D01*
X106359580Y-81500654D02*
X105999346Y-81140420D01*
%TO.C,J701*%
X106750000Y-53122500D02*
X107860000Y-53122500D01*
X106750000Y-56372500D02*
X107860000Y-56372500D01*
X109540000Y-53122500D02*
X110650000Y-53122500D01*
X109540000Y-56372500D02*
X110650000Y-56372500D01*
%TO.C,J601*%
X108005000Y-108725000D02*
X108005000Y-107025000D01*
X117345000Y-108725000D02*
X117345000Y-107025000D01*
%TO.C,C703*%
X113723733Y-68530000D02*
X114016267Y-68530000D01*
X113723733Y-69550000D02*
X114016267Y-69550000D01*
%TO.C,R405*%
X120354724Y-97167500D02*
X119845276Y-97167500D01*
X120354724Y-98212500D02*
X119845276Y-98212500D01*
%TO.C,L705*%
X110853733Y-74540000D02*
X111196267Y-74540000D01*
X110853733Y-75560000D02*
X111196267Y-75560000D01*
%TO.C,C714*%
X107350000Y-63808767D02*
X107350000Y-63516233D01*
X108370000Y-63808767D02*
X108370000Y-63516233D01*
%TO.C,C712*%
X110506267Y-62290000D02*
X110213733Y-62290000D01*
X110506267Y-63310000D02*
X110213733Y-63310000D01*
%TO.C,C713*%
X115636267Y-63840000D02*
X115343733Y-63840000D01*
X115636267Y-64860000D02*
X115343733Y-64860000D01*
%TO.C,C704*%
X109726267Y-60690000D02*
X109433733Y-60690000D01*
X109726267Y-61710000D02*
X109433733Y-61710000D01*
%TO.C,R601*%
X110254724Y-102667500D02*
X109745276Y-102667500D01*
X110254724Y-103712500D02*
X109745276Y-103712500D01*
%TO.C,L704*%
X113921267Y-62290000D02*
X113578733Y-62290000D01*
X113921267Y-63310000D02*
X113578733Y-63310000D01*
%TO.C,R402*%
X120454724Y-101252500D02*
X119945276Y-101252500D01*
X120454724Y-102297500D02*
X119945276Y-102297500D01*
%TO.C,R602*%
X113847500Y-102602224D02*
X113847500Y-102092776D01*
X114892500Y-102602224D02*
X114892500Y-102092776D01*
%TO.C,R408*%
X120464724Y-92057500D02*
X119955276Y-92057500D01*
X120464724Y-93102500D02*
X119955276Y-93102500D01*
%TO.C,R406*%
X119855276Y-98702500D02*
X120364724Y-98702500D01*
X119855276Y-99747500D02*
X120364724Y-99747500D01*
%TO.C,C501*%
X115202802Y-79334051D02*
X114995949Y-79127198D01*
X115924051Y-78612802D02*
X115717198Y-78405949D01*
%TD*%
M02*
