M48
; DRILL file {KiCad 9.0.2} date 2025-05-21T13:46:05-0500
; FORMAT={-:-/ absolute / inch / decimal}
; #@! TF.CreationDate,2025-05-21T13:46:05-05:00
; #@! TF.GenerationSoftware,Kicad,Pcbnew,9.0.2
; #@! TF.FileFunction,Plated,1,6,PTH
FMAT,2
INCH
; #@! TA.AperFunction,Plated,PTH,ViaDrill
T1C0.0118
; #@! TA.AperFunction,Plated,PTH,ComponentDrill
T2C0.0236
; #@! TA.AperFunction,Plated,PTH,ComponentDrill
T3C0.0394
; #@! TA.AperFunction,Plated,PTH,ComponentDrill
T4C0.0433
; #@! TA.AperFunction,Plated,PTH,ComponentDrill
T5C0.0591
; #@! TA.AperFunction,Plated,PTH,ComponentDrill
T6C0.0669
; #@! TA.AperFunction,Plated,PTH,ComponentDrill
T7C0.1063
%
G90
G05
T1
X3.875Y-2.4547
X3.876Y-2.5699
X3.8986Y-2.4852
X3.9075Y-2.6388
X3.9126Y-2.9154
X3.9402Y-2.4409
X3.9687Y-2.311
X3.9711Y-2.7352
X4.0089Y-2.4142
X4.0098Y-2.5177
X4.0217Y-3.7791
X4.0217Y-3.9169
X4.0366Y-2.3992
X4.0669Y-2.6398
X4.0709Y-2.4409
X4.0728Y-2.3964
X4.0732Y-2.4882
X4.1155Y-2.2243
X4.1219Y-2.6652
X4.1248Y-3.2823
X4.1262Y-3.4762
X4.1365Y-2.3692
X4.1386Y-3.3346
X4.1429Y-3.1917
X4.1445Y-4.3232
X4.1508Y-4.0291
X4.1748Y-3.072
X4.1799Y-3.6413
X4.1843Y-2.1772
X4.1909Y-2.6393
X4.1996Y-2.2339
X4.2354Y-2.2244
X4.2354Y-3.0618
X4.2496Y-3.448
X4.25Y-3.6642
X4.2557Y-2.3978
X4.2612Y-3.2539
X4.2717Y-2.8701
X4.279Y-3.1762
X4.2801Y-2.1457
X4.2858Y-2.7976
X4.287Y-3.226
X4.2913Y-4.0783
X4.3106Y-3.1409
X4.3268Y-3.5378
X4.329Y-3.3966
X4.3343Y-2.2261
X4.3441Y-4.2476
X4.3594Y-2.8228
X4.3638Y-3.665
X4.3737Y-2.2722
X4.3862Y-2.1457
X4.3996Y-3.1799
X4.4055Y-2.2218
X4.4138Y-3.4791
X4.4145Y-2.8531
X4.4145Y-3.0847
X4.4145Y-3.1323
X4.4178Y-3.0276
X4.421Y-4.0905
X4.424Y-3.5488
X4.4252Y-2.5752
X4.4358Y-3.248
X4.4465Y-3.4689
X4.4563Y-3.3429
X4.4606Y-3.1169
X4.4652Y-4.0898
X4.4668Y-4.0063
X4.4724Y-3.0393
X4.4728Y-2.761
X4.4791Y-3.4449
X4.4921Y-3.8598
X4.4961Y-3.0633
X4.4984Y-2.24
X4.5043Y-3.3012
X4.5051Y-4.178
X4.5303Y-4.0972
X4.5307Y-3.7969
X4.5362Y-2.228
X4.5421Y-3.3157
X4.5423Y-2.436
X4.5469Y-3.3469
X4.5506Y-2.9266
X4.5514Y-3.7071
X4.5518Y-3.9075
X4.5634Y-3.1724
X4.5756Y-3.6661
X4.5756Y-3.8642
X4.576Y-3.5622
X4.5972Y-3.5834
X4.6047Y-3.1764
X4.6106Y-2.8642
X4.6126Y-3.0079
X4.6126Y-3.0404
X4.614Y-3.316
X4.6362Y-2.3343
X4.6512Y-3.2827
X4.6598Y-2.7693
X4.6793Y-2.7403
X4.685Y-2.1752
X4.6965Y-4.378
X4.711Y-4.161
X4.7193Y-3.2059
X4.7224Y-3.3689
X4.7276Y-3.061
X4.7348Y-3.398
X4.735Y-3.3382
X4.739Y-2.9559
X4.7425Y-2.8555
X4.789Y-3.426
X4.789Y-3.626
X4.789Y-3.8264
X4.8062Y-2.9452
X4.9146Y-3.1396
X4.922Y-2.8551
X4.965Y-3.1661
X4.9925Y-3.1228
T3
X3.9453Y-3.1748
X3.9453Y-3.2748
X3.9453Y-3.3748
X3.9453Y-3.4748
X3.9453Y-3.5748
X4.0102Y-4.1217
X4.1102Y-4.1217
T4
X4.8819Y-3.4075
X4.8819Y-3.5075
X4.8819Y-3.6075
X4.8819Y-3.7075
X4.8819Y-3.8075
X4.8819Y-3.9075
X4.8819Y-4.0075
X4.8819Y-4.1075
T5
X4.8429Y-2.6335
T6
X4.7429Y-2.5335
X4.7429Y-2.7335
X4.9429Y-2.5335
X4.9429Y-2.7335
T7
X3.9646Y-2.185
X3.9646Y-4.311
X4.9094Y-2.185
X4.9094Y-4.311
T2
G00X4.2659Y-4.1406
M15
G01X4.2659Y-4.1839
M16
G05
G00X4.2659Y-4.311
M15
G01X4.2659Y-4.3425
M16
G05
G00X4.6061Y-4.1406
M15
G01X4.6061Y-4.1839
M16
G05
G00X4.6061Y-4.311
M15
G01X4.6061Y-4.3425
M16
G05
M30
