%TF.GenerationSoftware,KiCad,Pcbnew,9.0.2*%
%TF.CreationDate,2025-06-24T10:24:34-05:00*%
%TF.ProjectId,Flight Computer,466c6967-6874-4204-936f-6d7075746572,rev?*%
%TF.SameCoordinates,Original*%
%TF.FileFunction,Copper,L4,Inr*%
%TF.FilePolarity,Positive*%
%FSLAX46Y46*%
G04 Gerber Fmt 4.6, Leading zero omitted, Abs format (unit mm)*
G04 Created by KiCad (PCBNEW 9.0.2) date 2025-06-24 10:24:34*
%MOMM*%
%LPD*%
G01*
G04 APERTURE LIST*
G04 Aperture macros list*
%AMRoundRect*
0 Rectangle with rounded corners*
0 $1 Rounding radius*
0 $2 $3 $4 $5 $6 $7 $8 $9 X,Y pos of 4 corners*
0 Add a 4 corners polygon primitive as box body*
4,1,4,$2,$3,$4,$5,$6,$7,$8,$9,$2,$3,0*
0 Add four circle primitives for the rounded corners*
1,1,$1+$1,$2,$3*
1,1,$1+$1,$4,$5*
1,1,$1+$1,$6,$7*
1,1,$1+$1,$8,$9*
0 Add four rect primitives between the rounded corners*
20,1,$1+$1,$2,$3,$4,$5,0*
20,1,$1+$1,$4,$5,$6,$7,0*
20,1,$1+$1,$6,$7,$8,$9,0*
20,1,$1+$1,$8,$9,$2,$3,0*%
G04 Aperture macros list end*
%TA.AperFunction,ComponentPad*%
%ADD10C,3.100000*%
%TD*%
%TA.AperFunction,ComponentPad*%
%ADD11RoundRect,0.249999X-0.850001X0.850001X-0.850001X-0.850001X0.850001X-0.850001X0.850001X0.850001X0*%
%TD*%
%TA.AperFunction,ComponentPad*%
%ADD12C,2.200000*%
%TD*%
%TA.AperFunction,ComponentPad*%
%ADD13R,1.700000X1.700000*%
%TD*%
%TA.AperFunction,ComponentPad*%
%ADD14C,1.700000*%
%TD*%
%TA.AperFunction,HeatsinkPad*%
%ADD15O,2.100000X1.000000*%
%TD*%
%TA.AperFunction,HeatsinkPad*%
%ADD16O,1.800000X1.000000*%
%TD*%
%TA.AperFunction,ComponentPad*%
%ADD17RoundRect,0.249999X0.850001X-0.850001X0.850001X0.850001X-0.850001X0.850001X-0.850001X-0.850001X0*%
%TD*%
%TA.AperFunction,ViaPad*%
%ADD18C,0.600000*%
%TD*%
%TA.AperFunction,ViaPad*%
%ADD19C,0.503200*%
%TD*%
%TA.AperFunction,Conductor*%
%ADD20C,0.200000*%
%TD*%
%TA.AperFunction,Conductor*%
%ADD21C,1.500000*%
%TD*%
G04 APERTURE END LIST*
D10*
%TO.N,GND*%
%TO.C,H504*%
X124700000Y-109500000D03*
%TD*%
%TO.N,GND*%
%TO.C,H501*%
X100700000Y-55500000D03*
%TD*%
D11*
%TO.N,GND*%
%TO.C,J504*%
X101640000Y-96580000D03*
D12*
%TO.N,/Pryo3*%
X101640000Y-99120000D03*
%TO.N,GND*%
X101640000Y-101659999D03*
%TO.N,VCC*%
X101640000Y-104200000D03*
%TD*%
D13*
%TO.N,/Servo1*%
%TO.C,J507*%
X99920000Y-61950000D03*
D14*
%TO.N,/Servo2*%
X99920000Y-64490000D03*
%TO.N,/Servo3*%
X99920000Y-67030000D03*
%TO.N,/Servo4*%
X99920000Y-69570000D03*
%TO.N,GND*%
X99920000Y-72110000D03*
%TD*%
D15*
%TO.N,GND*%
%TO.C,J502*%
X104455000Y-75890000D03*
D16*
X100275000Y-75890000D03*
D15*
X104455000Y-84530000D03*
D16*
X100275000Y-84530000D03*
%TD*%
D17*
%TO.N,VCC*%
%TO.C,J503*%
X123700000Y-104200000D03*
D12*
%TO.N,Pyro_Power*%
X123700000Y-101660000D03*
%TO.N,/Pryo1*%
X123700000Y-99120001D03*
%TO.N,GND*%
X123700000Y-96580000D03*
%TO.N,/Pryo2*%
X123700000Y-94040000D03*
%TO.N,GND*%
X123700000Y-91500000D03*
%TD*%
D10*
%TO.N,GND*%
%TO.C,H503*%
X100700000Y-109500000D03*
%TD*%
%TO.N,GND*%
%TO.C,H502*%
X124700000Y-55500000D03*
%TD*%
D18*
%TO.N,GND*%
X107520000Y-76830000D03*
X120760000Y-106340000D03*
X119910000Y-81100000D03*
X123170000Y-83020000D03*
X110050000Y-55660000D03*
X109890000Y-90450000D03*
X109580000Y-57670000D03*
X108180000Y-56750000D03*
X107870000Y-53660000D03*
X125580000Y-75030000D03*
X110000000Y-97480000D03*
X107860000Y-55670000D03*
X114640000Y-86830000D03*
X113840000Y-54580000D03*
X112070000Y-91740000D03*
X107840000Y-54650000D03*
X110110000Y-53610000D03*
X108290000Y-57660000D03*
X116010000Y-102640000D03*
X110080000Y-54670000D03*
X111370000Y-79160000D03*
X104390000Y-73460000D03*
X109080000Y-86350000D03*
X109700000Y-56740000D03*
X118450000Y-106470000D03*
X111620000Y-89330000D03*
X110950000Y-62770000D03*
X99990000Y-80520000D03*
%TO.N,+3.3V*%
X111162252Y-92302252D03*
X119641714Y-86558286D03*
X119420000Y-63770000D03*
X116590000Y-54350000D03*
X117270000Y-108500000D03*
X101360000Y-90670000D03*
X113982981Y-92465411D03*
X109551789Y-80016472D03*
X119712646Y-90702646D03*
X125560000Y-88710000D03*
X115010000Y-102650000D03*
X105100000Y-87260000D03*
X117010000Y-58400000D03*
X111180000Y-85440000D03*
X112625654Y-101247000D03*
X107660000Y-108500000D03*
X119570000Y-79710000D03*
X114497354Y-84652646D03*
X111170000Y-58030000D03*
X115590000Y-68670000D03*
%TO.N,VCC*%
X109250000Y-104200000D03*
X119583000Y-97300000D03*
X113719500Y-110850938D03*
X99040000Y-91920000D03*
D19*
X119590000Y-92410000D03*
D18*
%TO.N,/SWDIO*%
X114804853Y-79799201D03*
%TO.N,/NRST*%
X115900000Y-89780000D03*
%TO.N,/SWCLK*%
X109705958Y-80754042D03*
X125560000Y-80440000D03*
%TO.N,/USB_DP_N*%
X108359479Y-81040521D03*
X104152385Y-80532907D03*
X103457906Y-79736802D03*
%TO.N,/USB_DP_P*%
X108960521Y-80439479D03*
%TO.N,Pyro_Power*%
X109660000Y-105710000D03*
X120760000Y-98050000D03*
X120780944Y-93158892D03*
%TO.N,/I2C_SDA*%
X109617646Y-88227646D03*
X117520000Y-80260000D03*
X105970000Y-68710000D03*
%TO.N,/I2C_SCL*%
X109660000Y-87240000D03*
X106240000Y-90860000D03*
X107948000Y-75050000D03*
%TO.N,/SPI_SCK*%
X113900000Y-79170000D03*
X122980000Y-70980000D03*
X112950000Y-82320000D03*
X117010000Y-77066000D03*
X118682002Y-87720000D03*
%TO.N,/SPI_MOSI*%
X117432002Y-87690000D03*
X110967000Y-87690000D03*
X121699306Y-77940000D03*
X119010000Y-77923000D03*
%TO.N,/SPI_CS1*%
X119126000Y-54356000D03*
X118277840Y-88623880D03*
%TO.N,/SPI_MISO*%
X112299749Y-88540000D03*
X121020000Y-78450000D03*
X112223343Y-82503769D03*
%TO.N,/Pryo1_Cont*%
X114440000Y-101670000D03*
X113520000Y-93060000D03*
%TO.N,Net-(Q702-B)*%
X114625689Y-96194311D03*
%TO.N,Net-(Q703-B)*%
X105230000Y-102960000D03*
%TO.N,/{slash}GPS_SAFEBOOT*%
X105200000Y-66780000D03*
%TO.N,/Armed*%
X112944972Y-93504833D03*
X118380000Y-102490000D03*
%TO.N,/Pryo1_Trigger*%
X113108904Y-91848904D03*
X112000000Y-97090000D03*
%TO.N,/Pryo2_Trigger*%
X115288241Y-91238418D03*
%TO.N,/Pryo3_Trigger*%
X111010000Y-96290000D03*
%TO.N,/MCU/FLASH_CS*%
X119690000Y-77310000D03*
X118376000Y-82928998D03*
%TO.N,/MCU/{slash}FLASH_WP*%
X116632710Y-86788001D03*
X122970000Y-77960000D03*
%TO.N,/MCU/{slash}FLASH_RESET*%
X121700000Y-70830000D03*
X119101670Y-82885031D03*
%TO.N,/BARO_CS*%
X116050000Y-84550000D03*
%TO.N,/IMU_INT2*%
X119030000Y-81020000D03*
%TO.N,/LORA_SEL*%
X117776781Y-82517334D03*
X115010646Y-77005354D03*
%TO.N,/LORA_RESET*%
X106890000Y-83600000D03*
X113010000Y-77190000D03*
%TO.N,/LORA_DIO0*%
X117563347Y-88758165D03*
X122427646Y-63132354D03*
%TO.N,/IMU_INT1*%
X111446050Y-84264284D03*
%TO.N,/IMU_CS*%
X115201479Y-80408479D03*
%TO.N,/GPS_TX*%
X110430000Y-77790000D03*
%TO.N,/GPS_INT*%
X117856000Y-86442003D03*
X115570000Y-64770000D03*
%TO.N,/GPS_RX*%
X112320000Y-78340000D03*
%TO.N,VBUS*%
X101730000Y-88590000D03*
X102475000Y-83315000D03*
X102780000Y-77960000D03*
%TO.N,Net-(J502-CC2)*%
X103200000Y-81980000D03*
%TO.N,Net-(J502-CC1)*%
X102999000Y-78960000D03*
%TD*%
D20*
%TO.N,VCC*%
X99040000Y-101600000D02*
X101640000Y-104200000D01*
D21*
X112238562Y-109370000D02*
X113719500Y-110850938D01*
D20*
X119583000Y-100083000D02*
X123700000Y-104200000D01*
D21*
X101640000Y-104200000D02*
X109250000Y-104200000D01*
X112220000Y-109370000D02*
X112238562Y-109370000D01*
D20*
X119590000Y-92410000D02*
X119583000Y-92417000D01*
D21*
X112220000Y-104200000D02*
X112220000Y-109370000D01*
X112220000Y-104200000D02*
X123700000Y-104200000D01*
D20*
X119583000Y-92417000D02*
X119583000Y-100083000D01*
D21*
X109250000Y-104200000D02*
X112220000Y-104200000D01*
D20*
X99040000Y-91920000D02*
X99040000Y-101600000D01*
%TO.N,/SWCLK*%
X109888395Y-80936479D02*
X117973521Y-80936479D01*
X117973521Y-80936479D02*
X118470000Y-80440000D01*
X109705958Y-80754042D02*
X109888395Y-80936479D01*
X118470000Y-80440000D02*
X125560000Y-80440000D01*
%TO.N,/SPI_SCK*%
X113900000Y-79170000D02*
X116004000Y-77066000D01*
X112950000Y-82320000D02*
X112950000Y-82360000D01*
X122980000Y-71096000D02*
X117010000Y-77066000D01*
X118310000Y-87720000D02*
X118682002Y-87720000D01*
X122980000Y-70980000D02*
X122980000Y-71096000D01*
X116004000Y-77066000D02*
X117010000Y-77066000D01*
X112950000Y-82360000D02*
X118310000Y-87720000D01*
%TO.N,/Pryo1_Cont*%
X113520000Y-100750000D02*
X114440000Y-101670000D01*
X113520000Y-93060000D02*
X113520000Y-100750000D01*
%TO.N,/LORA_RESET*%
X110780000Y-78820000D02*
X112410000Y-77190000D01*
X106890000Y-83600000D02*
X106230000Y-82940000D01*
X112410000Y-77190000D02*
X113010000Y-77190000D01*
X106230000Y-82940000D02*
X106230000Y-81910000D01*
X109320000Y-78820000D02*
X110780000Y-78820000D01*
X106230000Y-81910000D02*
X109320000Y-78820000D01*
%TO.N,VBUS*%
X102475000Y-83315000D02*
X102475000Y-87845000D01*
X102472000Y-82782000D02*
X102475000Y-82785000D01*
X102475000Y-82785000D02*
X102475000Y-83315000D01*
X102780000Y-77960000D02*
X102472000Y-78268000D01*
X102475000Y-87845000D02*
X101730000Y-88590000D01*
X102472000Y-78268000D02*
X102472000Y-82782000D01*
%TD*%
%TA.AperFunction,Conductor*%
%TO.N,+3.3V*%
G36*
X124973736Y-52800726D02*
G01*
X125251742Y-52817542D01*
X125266605Y-52819347D01*
X125341845Y-52833135D01*
X125536866Y-52868874D01*
X125551395Y-52872455D01*
X125813713Y-52954197D01*
X125827709Y-52959505D01*
X126078264Y-53072270D01*
X126091522Y-53079228D01*
X126326658Y-53221373D01*
X126338969Y-53229871D01*
X126495728Y-53352683D01*
X126555261Y-53399324D01*
X126566469Y-53409254D01*
X126760745Y-53603530D01*
X126770675Y-53614738D01*
X126940124Y-53831024D01*
X126948630Y-53843347D01*
X127090770Y-54078476D01*
X127097729Y-54091735D01*
X127210494Y-54342290D01*
X127215803Y-54356290D01*
X127297542Y-54618597D01*
X127301126Y-54633137D01*
X127350652Y-54903394D01*
X127352457Y-54918258D01*
X127369274Y-55196263D01*
X127369500Y-55203750D01*
X127369500Y-109796249D01*
X127369274Y-109803736D01*
X127352457Y-110081741D01*
X127350652Y-110096605D01*
X127301126Y-110366862D01*
X127297542Y-110381402D01*
X127215803Y-110643709D01*
X127210494Y-110657709D01*
X127097729Y-110908264D01*
X127090770Y-110921523D01*
X126948630Y-111156652D01*
X126940124Y-111168975D01*
X126770675Y-111385261D01*
X126760745Y-111396469D01*
X126566469Y-111590745D01*
X126555261Y-111600675D01*
X126338975Y-111770124D01*
X126326652Y-111778630D01*
X126091523Y-111920770D01*
X126078264Y-111927729D01*
X125827709Y-112040494D01*
X125813709Y-112045803D01*
X125551402Y-112127542D01*
X125536862Y-112131126D01*
X125266605Y-112180652D01*
X125251741Y-112182457D01*
X124973736Y-112199274D01*
X124966249Y-112199500D01*
X100373752Y-112199500D01*
X100366265Y-112199274D01*
X100088259Y-112182457D01*
X100073394Y-112180652D01*
X99803134Y-112131125D01*
X99788600Y-112127543D01*
X99526282Y-112045802D01*
X99512292Y-112040496D01*
X99261736Y-111927730D01*
X99248477Y-111920771D01*
X99051076Y-111801438D01*
X99013344Y-111778628D01*
X99001024Y-111770124D01*
X98902915Y-111693261D01*
X98784738Y-111600675D01*
X98773530Y-111590745D01*
X98579254Y-111396469D01*
X98569324Y-111385261D01*
X98440280Y-111220548D01*
X98399871Y-111168969D01*
X98391373Y-111156658D01*
X98249225Y-110921516D01*
X98242270Y-110908264D01*
X98129501Y-110657702D01*
X98124200Y-110643726D01*
X98042453Y-110381387D01*
X98038874Y-110366865D01*
X97989347Y-110096605D01*
X97987542Y-110081740D01*
X97970726Y-109803735D01*
X97970500Y-109796248D01*
X97970500Y-109385258D01*
X98949500Y-109385258D01*
X98949500Y-109614741D01*
X98967625Y-109752404D01*
X98979452Y-109842238D01*
X99015269Y-109975911D01*
X99038842Y-110063887D01*
X99126650Y-110275876D01*
X99126657Y-110275890D01*
X99241392Y-110474617D01*
X99381081Y-110656661D01*
X99381089Y-110656670D01*
X99543330Y-110818911D01*
X99543338Y-110818918D01*
X99725382Y-110958607D01*
X99725385Y-110958608D01*
X99725388Y-110958611D01*
X99924112Y-111073344D01*
X99924117Y-111073346D01*
X99924123Y-111073349D01*
X100015480Y-111111190D01*
X100136113Y-111161158D01*
X100357762Y-111220548D01*
X100585266Y-111250500D01*
X100585273Y-111250500D01*
X100814727Y-111250500D01*
X100814734Y-111250500D01*
X101042238Y-111220548D01*
X101263887Y-111161158D01*
X101475888Y-111073344D01*
X101674612Y-110958611D01*
X101856661Y-110818919D01*
X101856665Y-110818914D01*
X101856670Y-110818911D01*
X102018911Y-110656670D01*
X102018914Y-110656665D01*
X102018919Y-110656661D01*
X102158611Y-110474612D01*
X102273344Y-110275888D01*
X102361158Y-110063887D01*
X102420548Y-109842238D01*
X102450500Y-109614734D01*
X102450500Y-109385266D01*
X102420548Y-109157762D01*
X102361158Y-108936113D01*
X102273344Y-108724112D01*
X102158611Y-108525388D01*
X102158608Y-108525385D01*
X102158607Y-108525382D01*
X102018918Y-108343338D01*
X102018911Y-108343330D01*
X101856670Y-108181089D01*
X101856661Y-108181081D01*
X101674617Y-108041392D01*
X101475890Y-107926657D01*
X101475876Y-107926650D01*
X101263887Y-107838842D01*
X101042238Y-107779452D01*
X101004215Y-107774446D01*
X100814741Y-107749500D01*
X100814734Y-107749500D01*
X100585266Y-107749500D01*
X100585258Y-107749500D01*
X100368715Y-107778009D01*
X100357762Y-107779452D01*
X100264076Y-107804554D01*
X100136112Y-107838842D01*
X99924123Y-107926650D01*
X99924109Y-107926657D01*
X99725382Y-108041392D01*
X99543338Y-108181081D01*
X99381081Y-108343338D01*
X99241392Y-108525382D01*
X99126657Y-108724109D01*
X99126650Y-108724123D01*
X99038842Y-108936112D01*
X98979453Y-109157759D01*
X98979451Y-109157770D01*
X98949500Y-109385258D01*
X97970500Y-109385258D01*
X97970500Y-91854108D01*
X98539500Y-91854108D01*
X98539500Y-91985892D01*
X98543071Y-91999219D01*
X98573608Y-92113187D01*
X98598454Y-92156220D01*
X98639500Y-92227314D01*
X98639502Y-92227316D01*
X98703181Y-92290995D01*
X98736666Y-92352318D01*
X98739500Y-92378676D01*
X98739500Y-101639562D01*
X98759979Y-101715989D01*
X98771470Y-101735892D01*
X98786746Y-101762351D01*
X98799539Y-101784509D01*
X98799541Y-101784512D01*
X100465934Y-103450905D01*
X100499419Y-103512228D01*
X100494435Y-103581920D01*
X100488738Y-103594880D01*
X100434782Y-103700773D01*
X100371522Y-103895465D01*
X100339500Y-104097648D01*
X100339500Y-104302351D01*
X100371522Y-104504534D01*
X100434781Y-104699223D01*
X100527715Y-104881613D01*
X100648028Y-105047213D01*
X100792786Y-105191971D01*
X100906380Y-105274500D01*
X100958390Y-105312287D01*
X101074607Y-105371503D01*
X101140776Y-105405218D01*
X101140778Y-105405218D01*
X101140781Y-105405220D01*
X101245137Y-105439127D01*
X101335465Y-105468477D01*
X101436557Y-105484488D01*
X101537648Y-105500500D01*
X101537649Y-105500500D01*
X101742351Y-105500500D01*
X101742352Y-105500500D01*
X101944534Y-105468477D01*
X102139219Y-105405220D01*
X102321610Y-105312287D01*
X102429987Y-105233547D01*
X102487213Y-105191971D01*
X102487215Y-105191968D01*
X102487219Y-105191966D01*
X102492366Y-105186819D01*
X102553689Y-105153334D01*
X102580047Y-105150500D01*
X109156384Y-105150500D01*
X109212324Y-105150500D01*
X109279363Y-105170185D01*
X109325118Y-105222989D01*
X109335062Y-105292147D01*
X109306037Y-105355703D01*
X109300005Y-105362181D01*
X109259502Y-105402683D01*
X109259500Y-105402686D01*
X109193608Y-105516812D01*
X109159500Y-105644108D01*
X109159500Y-105775891D01*
X109193608Y-105903187D01*
X109214574Y-105939500D01*
X109259500Y-106017314D01*
X109352686Y-106110500D01*
X109466814Y-106176392D01*
X109594108Y-106210500D01*
X109594110Y-106210500D01*
X109725890Y-106210500D01*
X109725892Y-106210500D01*
X109853186Y-106176392D01*
X109967314Y-106110500D01*
X110060500Y-106017314D01*
X110126392Y-105903186D01*
X110160500Y-105775892D01*
X110160500Y-105644108D01*
X110126392Y-105516814D01*
X110060500Y-105402686D01*
X110019995Y-105362181D01*
X109986510Y-105300858D01*
X109991494Y-105231166D01*
X110033366Y-105175233D01*
X110098830Y-105150816D01*
X110107676Y-105150500D01*
X111145500Y-105150500D01*
X111212539Y-105170185D01*
X111258294Y-105222989D01*
X111269500Y-105274500D01*
X111269500Y-109463620D01*
X111306025Y-109647243D01*
X111306027Y-109647251D01*
X111377676Y-109820228D01*
X111377681Y-109820237D01*
X111481697Y-109975907D01*
X111481700Y-109975911D01*
X111614088Y-110108299D01*
X111614092Y-110108302D01*
X111659876Y-110138893D01*
X111678666Y-110154314D01*
X113113588Y-111589237D01*
X113113592Y-111589240D01*
X113269263Y-111693257D01*
X113269276Y-111693264D01*
X113399005Y-111746998D01*
X113442250Y-111764911D01*
X113442252Y-111764911D01*
X113442257Y-111764913D01*
X113625879Y-111801437D01*
X113625883Y-111801438D01*
X113625884Y-111801438D01*
X113813119Y-111801438D01*
X113813120Y-111801437D01*
X113874328Y-111789262D01*
X113996742Y-111764913D01*
X113996745Y-111764911D01*
X113996750Y-111764911D01*
X114169731Y-111693261D01*
X114325409Y-111589240D01*
X114457802Y-111456847D01*
X114561823Y-111301169D01*
X114633473Y-111128188D01*
X114670000Y-110944555D01*
X114670000Y-110757322D01*
X114650186Y-110657709D01*
X114633475Y-110573695D01*
X114633472Y-110573686D01*
X114561826Y-110400714D01*
X114561819Y-110400701D01*
X114457802Y-110245030D01*
X114457799Y-110245026D01*
X113598031Y-109385258D01*
X122949500Y-109385258D01*
X122949500Y-109614741D01*
X122967625Y-109752404D01*
X122979452Y-109842238D01*
X123015269Y-109975911D01*
X123038842Y-110063887D01*
X123126650Y-110275876D01*
X123126657Y-110275890D01*
X123241392Y-110474617D01*
X123381081Y-110656661D01*
X123381089Y-110656670D01*
X123543330Y-110818911D01*
X123543338Y-110818918D01*
X123725382Y-110958607D01*
X123725385Y-110958608D01*
X123725388Y-110958611D01*
X123924112Y-111073344D01*
X123924117Y-111073346D01*
X123924123Y-111073349D01*
X124015480Y-111111190D01*
X124136113Y-111161158D01*
X124357762Y-111220548D01*
X124585266Y-111250500D01*
X124585273Y-111250500D01*
X124814727Y-111250500D01*
X124814734Y-111250500D01*
X125042238Y-111220548D01*
X125263887Y-111161158D01*
X125475888Y-111073344D01*
X125674612Y-110958611D01*
X125856661Y-110818919D01*
X125856665Y-110818914D01*
X125856670Y-110818911D01*
X126018911Y-110656670D01*
X126018914Y-110656665D01*
X126018919Y-110656661D01*
X126158611Y-110474612D01*
X126273344Y-110275888D01*
X126361158Y-110063887D01*
X126420548Y-109842238D01*
X126450500Y-109614734D01*
X126450500Y-109385266D01*
X126420548Y-109157762D01*
X126361158Y-108936113D01*
X126273344Y-108724112D01*
X126158611Y-108525388D01*
X126158608Y-108525385D01*
X126158607Y-108525382D01*
X126018918Y-108343338D01*
X126018911Y-108343330D01*
X125856670Y-108181089D01*
X125856661Y-108181081D01*
X125674617Y-108041392D01*
X125475890Y-107926657D01*
X125475876Y-107926650D01*
X125263887Y-107838842D01*
X125042238Y-107779452D01*
X125004215Y-107774446D01*
X124814741Y-107749500D01*
X124814734Y-107749500D01*
X124585266Y-107749500D01*
X124585258Y-107749500D01*
X124368715Y-107778009D01*
X124357762Y-107779452D01*
X124264076Y-107804554D01*
X124136112Y-107838842D01*
X123924123Y-107926650D01*
X123924109Y-107926657D01*
X123725382Y-108041392D01*
X123543338Y-108181081D01*
X123381081Y-108343338D01*
X123241392Y-108525382D01*
X123126657Y-108724109D01*
X123126650Y-108724123D01*
X123038842Y-108936112D01*
X122979453Y-109157759D01*
X122979451Y-109157770D01*
X122949500Y-109385258D01*
X113598031Y-109385258D01*
X113206819Y-108994046D01*
X113173334Y-108932723D01*
X113170500Y-108906365D01*
X113170500Y-106404108D01*
X117949500Y-106404108D01*
X117949500Y-106535891D01*
X117983608Y-106663187D01*
X118016554Y-106720250D01*
X118049500Y-106777314D01*
X118142686Y-106870500D01*
X118256814Y-106936392D01*
X118384108Y-106970500D01*
X118384110Y-106970500D01*
X118515890Y-106970500D01*
X118515892Y-106970500D01*
X118643186Y-106936392D01*
X118757314Y-106870500D01*
X118850500Y-106777314D01*
X118916392Y-106663186D01*
X118950500Y-106535892D01*
X118950500Y-106404108D01*
X118916392Y-106276814D01*
X118914830Y-106274108D01*
X120259500Y-106274108D01*
X120259500Y-106405891D01*
X120293608Y-106533187D01*
X120295170Y-106535892D01*
X120359500Y-106647314D01*
X120452686Y-106740500D01*
X120566814Y-106806392D01*
X120694108Y-106840500D01*
X120694110Y-106840500D01*
X120825890Y-106840500D01*
X120825892Y-106840500D01*
X120953186Y-106806392D01*
X121067314Y-106740500D01*
X121160500Y-106647314D01*
X121226392Y-106533186D01*
X121260500Y-106405892D01*
X121260500Y-106274108D01*
X121226392Y-106146814D01*
X121160500Y-106032686D01*
X121067314Y-105939500D01*
X121004418Y-105903187D01*
X120953187Y-105873608D01*
X120889539Y-105856554D01*
X120825892Y-105839500D01*
X120694108Y-105839500D01*
X120566812Y-105873608D01*
X120452686Y-105939500D01*
X120452683Y-105939502D01*
X120359502Y-106032683D01*
X120359500Y-106032686D01*
X120293608Y-106146812D01*
X120259500Y-106274108D01*
X118914830Y-106274108D01*
X118850500Y-106162686D01*
X118757314Y-106069500D01*
X118700250Y-106036554D01*
X118643187Y-106003608D01*
X118579539Y-105986554D01*
X118515892Y-105969500D01*
X118384108Y-105969500D01*
X118256812Y-106003608D01*
X118142686Y-106069500D01*
X118142683Y-106069502D01*
X118049502Y-106162683D01*
X118049500Y-106162686D01*
X117983608Y-106276812D01*
X117949500Y-106404108D01*
X113170500Y-106404108D01*
X113170500Y-105274500D01*
X113190185Y-105207461D01*
X113242989Y-105161706D01*
X113294500Y-105150500D01*
X122319900Y-105150500D01*
X122386939Y-105170185D01*
X122432694Y-105222989D01*
X122436942Y-105233547D01*
X122447205Y-105262880D01*
X122447206Y-105262882D01*
X122527849Y-105372150D01*
X122572655Y-105405218D01*
X122637117Y-105452793D01*
X122679844Y-105467744D01*
X122765298Y-105497646D01*
X122772323Y-105498304D01*
X122795733Y-105500500D01*
X124604266Y-105500499D01*
X124634700Y-105497646D01*
X124762883Y-105452793D01*
X124872150Y-105372150D01*
X124952793Y-105262883D01*
X124977606Y-105191971D01*
X124997646Y-105134702D01*
X124997646Y-105134700D01*
X125000500Y-105104267D01*
X125000499Y-103295734D01*
X124997646Y-103265300D01*
X124991810Y-103248623D01*
X124952793Y-103137117D01*
X124872150Y-103027849D01*
X124775328Y-102956392D01*
X124762883Y-102947207D01*
X124762881Y-102947206D01*
X124634701Y-102902353D01*
X124604271Y-102899500D01*
X124604267Y-102899500D01*
X124588151Y-102899500D01*
X124521112Y-102879815D01*
X124475357Y-102827011D01*
X124465413Y-102757853D01*
X124494438Y-102694297D01*
X124515266Y-102675182D01*
X124547213Y-102651971D01*
X124547215Y-102651968D01*
X124547219Y-102651966D01*
X124691966Y-102507219D01*
X124691968Y-102507215D01*
X124691971Y-102507213D01*
X124752349Y-102424108D01*
X124812287Y-102341610D01*
X124905220Y-102159219D01*
X124968477Y-101964534D01*
X125000500Y-101762352D01*
X125000500Y-101557648D01*
X124968477Y-101355466D01*
X124968476Y-101355464D01*
X124919135Y-101203608D01*
X124905220Y-101160781D01*
X124905218Y-101160778D01*
X124905218Y-101160776D01*
X124871503Y-101094607D01*
X124812287Y-100978390D01*
X124804556Y-100967749D01*
X124691971Y-100812786D01*
X124547213Y-100668028D01*
X124381613Y-100547715D01*
X124381612Y-100547714D01*
X124381610Y-100547713D01*
X124288920Y-100500485D01*
X124238124Y-100452510D01*
X124221329Y-100384689D01*
X124243866Y-100318554D01*
X124288919Y-100279516D01*
X124381610Y-100232288D01*
X124431144Y-100196299D01*
X124547213Y-100111972D01*
X124547215Y-100111969D01*
X124547219Y-100111967D01*
X124691966Y-99967220D01*
X124691968Y-99967216D01*
X124691971Y-99967214D01*
X124744732Y-99894591D01*
X124812287Y-99801611D01*
X124905220Y-99619220D01*
X124968477Y-99424535D01*
X125000500Y-99222353D01*
X125000500Y-99017649D01*
X124968477Y-98815467D01*
X124968476Y-98815465D01*
X124905218Y-98620777D01*
X124869409Y-98550499D01*
X124812287Y-98438391D01*
X124804556Y-98427750D01*
X124691971Y-98272787D01*
X124547213Y-98128029D01*
X124381613Y-98007716D01*
X124381612Y-98007715D01*
X124381610Y-98007714D01*
X124288917Y-97960484D01*
X124238122Y-97912510D01*
X124221327Y-97844689D01*
X124243864Y-97778554D01*
X124288917Y-97739516D01*
X124381610Y-97692287D01*
X124498564Y-97607316D01*
X124547213Y-97571971D01*
X124547215Y-97571968D01*
X124547219Y-97571966D01*
X124691966Y-97427219D01*
X124691968Y-97427215D01*
X124691971Y-97427213D01*
X124793975Y-97286814D01*
X124812287Y-97261610D01*
X124905220Y-97079219D01*
X124968477Y-96884534D01*
X125000500Y-96682352D01*
X125000500Y-96477648D01*
X124986221Y-96387497D01*
X124968477Y-96275465D01*
X124920699Y-96128421D01*
X124905220Y-96080781D01*
X124905218Y-96080778D01*
X124905218Y-96080776D01*
X124855236Y-95982683D01*
X124812287Y-95898390D01*
X124804007Y-95886994D01*
X124691971Y-95732786D01*
X124547213Y-95588028D01*
X124381614Y-95467715D01*
X124375006Y-95464348D01*
X124288917Y-95420483D01*
X124238123Y-95372511D01*
X124221328Y-95304690D01*
X124243865Y-95238555D01*
X124288917Y-95199516D01*
X124381610Y-95152287D01*
X124402770Y-95136913D01*
X124547213Y-95031971D01*
X124547215Y-95031968D01*
X124547219Y-95031966D01*
X124691966Y-94887219D01*
X124691968Y-94887215D01*
X124691971Y-94887213D01*
X124744732Y-94814590D01*
X124812287Y-94721610D01*
X124905220Y-94539219D01*
X124968477Y-94344534D01*
X125000500Y-94142352D01*
X125000500Y-93937648D01*
X124968477Y-93735466D01*
X124905220Y-93540781D01*
X124905218Y-93540778D01*
X124905218Y-93540776D01*
X124849281Y-93430995D01*
X124812287Y-93358390D01*
X124804556Y-93347749D01*
X124691971Y-93192786D01*
X124547213Y-93048028D01*
X124381614Y-92927715D01*
X124375006Y-92924348D01*
X124288917Y-92880483D01*
X124238123Y-92832511D01*
X124221328Y-92764690D01*
X124243865Y-92698555D01*
X124288917Y-92659516D01*
X124381610Y-92612287D01*
X124454266Y-92559500D01*
X124547213Y-92491971D01*
X124547215Y-92491968D01*
X124547219Y-92491966D01*
X124691966Y-92347219D01*
X124691968Y-92347215D01*
X124691971Y-92347213D01*
X124779082Y-92227313D01*
X124812287Y-92181610D01*
X124905220Y-91999219D01*
X124968477Y-91804534D01*
X125000500Y-91602352D01*
X125000500Y-91397648D01*
X124989214Y-91326391D01*
X124968477Y-91195465D01*
X124905218Y-91000776D01*
X124867061Y-90925890D01*
X124812287Y-90818390D01*
X124767913Y-90757314D01*
X124691971Y-90652786D01*
X124547213Y-90508028D01*
X124381613Y-90387715D01*
X124381612Y-90387714D01*
X124381610Y-90387713D01*
X124324653Y-90358691D01*
X124199223Y-90294781D01*
X124004534Y-90231522D01*
X123829995Y-90203878D01*
X123802352Y-90199500D01*
X123597648Y-90199500D01*
X123573329Y-90203351D01*
X123395465Y-90231522D01*
X123200776Y-90294781D01*
X123018386Y-90387715D01*
X122852786Y-90508028D01*
X122708028Y-90652786D01*
X122587715Y-90818386D01*
X122494781Y-91000776D01*
X122431522Y-91195465D01*
X122399500Y-91397648D01*
X122399500Y-91602351D01*
X122431522Y-91804534D01*
X122494781Y-91999223D01*
X122527782Y-92063989D01*
X122566766Y-92140500D01*
X122587715Y-92181613D01*
X122708028Y-92347213D01*
X122852786Y-92491971D01*
X122980151Y-92584505D01*
X123018390Y-92612287D01*
X123108876Y-92658392D01*
X123111080Y-92659515D01*
X123161876Y-92707490D01*
X123178671Y-92775311D01*
X123156134Y-92841446D01*
X123111080Y-92880485D01*
X123018386Y-92927715D01*
X122852786Y-93048028D01*
X122708028Y-93192786D01*
X122587715Y-93358386D01*
X122494781Y-93540776D01*
X122431522Y-93735465D01*
X122399500Y-93937648D01*
X122399500Y-94142351D01*
X122431522Y-94344534D01*
X122494781Y-94539223D01*
X122587715Y-94721613D01*
X122708028Y-94887213D01*
X122852786Y-95031971D01*
X123007749Y-95144556D01*
X123018390Y-95152287D01*
X123109840Y-95198883D01*
X123111080Y-95199515D01*
X123161876Y-95247490D01*
X123178671Y-95315311D01*
X123156134Y-95381446D01*
X123111080Y-95420485D01*
X123018386Y-95467715D01*
X122852786Y-95588028D01*
X122708028Y-95732786D01*
X122587715Y-95898386D01*
X122494781Y-96080776D01*
X122431522Y-96275465D01*
X122399500Y-96477648D01*
X122399500Y-96682352D01*
X122400790Y-96690497D01*
X122431522Y-96884534D01*
X122494781Y-97079223D01*
X122587715Y-97261613D01*
X122708028Y-97427213D01*
X122852786Y-97571971D01*
X123018385Y-97692284D01*
X123018387Y-97692285D01*
X123018390Y-97692287D01*
X123111082Y-97739516D01*
X123161877Y-97787489D01*
X123178672Y-97855310D01*
X123156135Y-97921445D01*
X123111081Y-97960484D01*
X123018391Y-98007712D01*
X123018389Y-98007713D01*
X122852786Y-98128029D01*
X122708028Y-98272787D01*
X122587715Y-98438387D01*
X122494781Y-98620777D01*
X122431522Y-98815466D01*
X122399500Y-99017649D01*
X122399500Y-99222352D01*
X122431522Y-99424535D01*
X122494781Y-99619224D01*
X122558691Y-99744654D01*
X122587712Y-99801610D01*
X122587715Y-99801614D01*
X122708028Y-99967214D01*
X122852786Y-100111972D01*
X123018385Y-100232285D01*
X123018387Y-100232286D01*
X123018390Y-100232288D01*
X123111080Y-100279516D01*
X123161875Y-100327489D01*
X123178670Y-100395310D01*
X123156133Y-100461445D01*
X123111079Y-100500484D01*
X123018391Y-100547711D01*
X123018389Y-100547712D01*
X122852786Y-100668028D01*
X122708028Y-100812786D01*
X122587715Y-100978386D01*
X122494781Y-101160776D01*
X122431522Y-101355465D01*
X122399500Y-101557648D01*
X122399500Y-101762351D01*
X122431522Y-101964534D01*
X122494781Y-102159223D01*
X122565887Y-102298774D01*
X122578783Y-102367443D01*
X122552507Y-102432184D01*
X122495400Y-102472441D01*
X122425595Y-102475433D01*
X122367721Y-102442750D01*
X119919819Y-99994848D01*
X119886334Y-99933525D01*
X119883500Y-99907167D01*
X119883500Y-97984108D01*
X120259500Y-97984108D01*
X120259500Y-98115892D01*
X120262754Y-98128035D01*
X120293608Y-98243187D01*
X120310698Y-98272787D01*
X120359500Y-98357314D01*
X120452686Y-98450500D01*
X120566814Y-98516392D01*
X120694108Y-98550500D01*
X120694110Y-98550500D01*
X120825890Y-98550500D01*
X120825892Y-98550500D01*
X120953186Y-98516392D01*
X121067314Y-98450500D01*
X121160500Y-98357314D01*
X121226392Y-98243186D01*
X121260500Y-98115892D01*
X121260500Y-97984108D01*
X121226392Y-97856814D01*
X121160500Y-97742686D01*
X121067314Y-97649500D01*
X121010250Y-97616554D01*
X120953187Y-97583608D01*
X120889539Y-97566554D01*
X120825892Y-97549500D01*
X120694108Y-97549500D01*
X120566812Y-97583608D01*
X120452686Y-97649500D01*
X120452683Y-97649502D01*
X120359502Y-97742683D01*
X120359500Y-97742686D01*
X120293608Y-97856812D01*
X120287261Y-97880500D01*
X120259500Y-97984108D01*
X119883500Y-97984108D01*
X119883500Y-97758676D01*
X119903185Y-97691637D01*
X119919819Y-97670995D01*
X119947933Y-97642881D01*
X119983500Y-97607314D01*
X120049392Y-97493186D01*
X120083500Y-97365892D01*
X120083500Y-97234108D01*
X120049392Y-97106814D01*
X119983500Y-96992686D01*
X119919818Y-96929004D01*
X119886334Y-96867680D01*
X119883500Y-96841323D01*
X119883500Y-93093000D01*
X120280444Y-93093000D01*
X120280444Y-93224784D01*
X120297498Y-93288431D01*
X120314552Y-93352079D01*
X120347498Y-93409142D01*
X120380444Y-93466206D01*
X120473630Y-93559392D01*
X120587758Y-93625284D01*
X120715052Y-93659392D01*
X120715054Y-93659392D01*
X120846834Y-93659392D01*
X120846836Y-93659392D01*
X120974130Y-93625284D01*
X121088258Y-93559392D01*
X121181444Y-93466206D01*
X121247336Y-93352078D01*
X121281444Y-93224784D01*
X121281444Y-93093000D01*
X121247336Y-92965706D01*
X121181444Y-92851578D01*
X121088258Y-92758392D01*
X121020977Y-92719547D01*
X120974131Y-92692500D01*
X120910483Y-92675446D01*
X120846836Y-92658392D01*
X120715052Y-92658392D01*
X120587756Y-92692500D01*
X120473630Y-92758392D01*
X120473627Y-92758394D01*
X120380446Y-92851575D01*
X120380444Y-92851578D01*
X120314552Y-92965704D01*
X120306941Y-92994110D01*
X120280444Y-93093000D01*
X119883500Y-93093000D01*
X119883500Y-92807228D01*
X119903185Y-92740189D01*
X119919819Y-92719547D01*
X119934146Y-92705220D01*
X119951770Y-92687596D01*
X120011290Y-92584504D01*
X120042100Y-92469520D01*
X120042100Y-92350480D01*
X120011290Y-92235496D01*
X119965519Y-92156218D01*
X119951772Y-92132407D01*
X119951768Y-92132402D01*
X119867597Y-92048231D01*
X119867592Y-92048227D01*
X119764506Y-91988711D01*
X119764505Y-91988710D01*
X119735758Y-91981007D01*
X119649520Y-91957900D01*
X119530480Y-91957900D01*
X119461489Y-91976386D01*
X119415494Y-91988710D01*
X119415493Y-91988711D01*
X119312407Y-92048227D01*
X119312402Y-92048231D01*
X119228231Y-92132402D01*
X119228227Y-92132407D01*
X119168711Y-92235493D01*
X119168710Y-92235494D01*
X119164983Y-92249404D01*
X119137900Y-92350480D01*
X119137900Y-92469520D01*
X119143916Y-92491971D01*
X119168710Y-92584505D01*
X119168711Y-92584506D01*
X119228227Y-92687592D01*
X119228231Y-92687597D01*
X119246181Y-92705547D01*
X119279666Y-92766870D01*
X119282500Y-92793228D01*
X119282500Y-96841323D01*
X119262815Y-96908362D01*
X119246182Y-96929004D01*
X119182500Y-96992686D01*
X119116608Y-97106812D01*
X119098958Y-97172686D01*
X119082500Y-97234108D01*
X119082500Y-97365892D01*
X119090920Y-97397316D01*
X119116608Y-97493187D01*
X119129029Y-97514700D01*
X119182500Y-97607314D01*
X119182502Y-97607316D01*
X119246181Y-97670995D01*
X119279666Y-97732318D01*
X119282500Y-97758676D01*
X119282500Y-100122562D01*
X119293474Y-100163518D01*
X119302978Y-100198987D01*
X119322205Y-100232289D01*
X119342539Y-100267509D01*
X119342541Y-100267512D01*
X122112848Y-103037819D01*
X122146333Y-103099142D01*
X122141349Y-103168834D01*
X122099477Y-103224767D01*
X122034013Y-103249184D01*
X122025167Y-103249500D01*
X116407676Y-103249500D01*
X116340637Y-103229815D01*
X116294882Y-103177011D01*
X116284938Y-103107853D01*
X116313963Y-103044297D01*
X116319995Y-103037819D01*
X116363034Y-102994780D01*
X116410500Y-102947314D01*
X116476392Y-102833186D01*
X116510500Y-102705892D01*
X116510500Y-102574108D01*
X116476392Y-102446814D01*
X116463283Y-102424108D01*
X117879500Y-102424108D01*
X117879500Y-102555892D01*
X117896554Y-102619539D01*
X117913608Y-102683187D01*
X117926717Y-102705892D01*
X117979500Y-102797314D01*
X118072686Y-102890500D01*
X118186814Y-102956392D01*
X118314108Y-102990500D01*
X118314110Y-102990500D01*
X118445890Y-102990500D01*
X118445892Y-102990500D01*
X118573186Y-102956392D01*
X118687314Y-102890500D01*
X118780500Y-102797314D01*
X118846392Y-102683186D01*
X118880500Y-102555892D01*
X118880500Y-102424108D01*
X118846392Y-102296814D01*
X118780500Y-102182686D01*
X118687314Y-102089500D01*
X118630250Y-102056554D01*
X118573187Y-102023608D01*
X118509539Y-102006554D01*
X118445892Y-101989500D01*
X118314108Y-101989500D01*
X118186812Y-102023608D01*
X118072686Y-102089500D01*
X118072683Y-102089502D01*
X117979502Y-102182683D01*
X117979500Y-102182686D01*
X117913608Y-102296812D01*
X117901604Y-102341613D01*
X117879500Y-102424108D01*
X116463283Y-102424108D01*
X116410500Y-102332686D01*
X116317314Y-102239500D01*
X116218910Y-102182686D01*
X116203187Y-102173608D01*
X116139539Y-102156554D01*
X116075892Y-102139500D01*
X115944108Y-102139500D01*
X115816812Y-102173608D01*
X115702686Y-102239500D01*
X115702683Y-102239502D01*
X115609502Y-102332683D01*
X115609500Y-102332686D01*
X115543608Y-102446812D01*
X115509500Y-102574108D01*
X115509500Y-102705891D01*
X115543608Y-102833187D01*
X115562102Y-102865219D01*
X115609500Y-102947314D01*
X115609502Y-102947316D01*
X115700005Y-103037819D01*
X115733490Y-103099142D01*
X115728506Y-103168834D01*
X115686634Y-103224767D01*
X115621170Y-103249184D01*
X115612324Y-103249500D01*
X105832184Y-103249500D01*
X105765145Y-103229815D01*
X105719390Y-103177011D01*
X105709446Y-103107853D01*
X105712406Y-103093419D01*
X105730500Y-103025892D01*
X105730500Y-102894108D01*
X105696392Y-102766814D01*
X105630500Y-102652686D01*
X105537314Y-102559500D01*
X105446761Y-102507219D01*
X105423187Y-102493608D01*
X105355355Y-102475433D01*
X105295892Y-102459500D01*
X105164108Y-102459500D01*
X105036812Y-102493608D01*
X104922686Y-102559500D01*
X104922683Y-102559502D01*
X104829502Y-102652683D01*
X104829500Y-102652686D01*
X104763608Y-102766812D01*
X104739027Y-102858553D01*
X104729500Y-102894108D01*
X104729500Y-103025892D01*
X104747590Y-103093408D01*
X104745928Y-103163256D01*
X104706766Y-103221119D01*
X104642537Y-103248623D01*
X104627816Y-103249500D01*
X102580047Y-103249500D01*
X102513008Y-103229815D01*
X102492366Y-103213181D01*
X102487213Y-103208028D01*
X102321613Y-103087715D01*
X102321612Y-103087714D01*
X102321610Y-103087713D01*
X102228917Y-103040483D01*
X102178122Y-102992509D01*
X102161327Y-102924688D01*
X102183864Y-102858553D01*
X102228917Y-102819515D01*
X102321610Y-102772286D01*
X102371144Y-102736297D01*
X102487213Y-102651970D01*
X102487215Y-102651967D01*
X102487219Y-102651965D01*
X102631966Y-102507218D01*
X102631970Y-102507213D01*
X102631971Y-102507212D01*
X102692348Y-102424108D01*
X102752287Y-102341609D01*
X102845220Y-102159218D01*
X102908477Y-101964533D01*
X102940500Y-101762351D01*
X102940500Y-101557647D01*
X102908477Y-101355465D01*
X102845220Y-101160780D01*
X102845218Y-101160776D01*
X102845218Y-101160775D01*
X102811503Y-101094606D01*
X102752287Y-100978389D01*
X102720408Y-100934511D01*
X102631971Y-100812785D01*
X102487213Y-100668027D01*
X102321613Y-100547714D01*
X102321612Y-100547713D01*
X102321610Y-100547712D01*
X102228920Y-100500484D01*
X102178124Y-100452509D01*
X102161329Y-100384688D01*
X102183866Y-100318553D01*
X102228919Y-100279515D01*
X102321610Y-100232287D01*
X102371144Y-100196298D01*
X102487213Y-100111971D01*
X102487215Y-100111968D01*
X102487219Y-100111966D01*
X102631966Y-99967219D01*
X102631970Y-99967214D01*
X102631971Y-99967213D01*
X102684732Y-99894590D01*
X102752287Y-99801610D01*
X102845220Y-99619219D01*
X102908477Y-99424534D01*
X102940500Y-99222352D01*
X102940500Y-99017648D01*
X102908477Y-98815466D01*
X102845220Y-98620781D01*
X102845218Y-98620777D01*
X102845218Y-98620776D01*
X102792031Y-98516392D01*
X102752287Y-98438390D01*
X102693384Y-98357316D01*
X102631971Y-98272786D01*
X102487217Y-98128032D01*
X102487212Y-98128028D01*
X102455265Y-98104817D01*
X102412599Y-98049487D01*
X102406620Y-97979874D01*
X102439226Y-97918079D01*
X102500064Y-97883722D01*
X102528150Y-97880499D01*
X102544260Y-97880499D01*
X102544266Y-97880499D01*
X102574700Y-97877646D01*
X102702883Y-97832793D01*
X102812150Y-97752150D01*
X102892793Y-97642883D01*
X102917608Y-97571966D01*
X102937646Y-97514702D01*
X102937646Y-97514700D01*
X102940500Y-97484270D01*
X102940500Y-97414108D01*
X109499500Y-97414108D01*
X109499500Y-97545892D01*
X109506488Y-97571971D01*
X109533608Y-97673187D01*
X109551649Y-97704434D01*
X109599500Y-97787314D01*
X109692686Y-97880500D01*
X109806814Y-97946392D01*
X109934108Y-97980500D01*
X109934110Y-97980500D01*
X110065890Y-97980500D01*
X110065892Y-97980500D01*
X110193186Y-97946392D01*
X110307314Y-97880500D01*
X110400500Y-97787314D01*
X110466392Y-97673186D01*
X110500500Y-97545892D01*
X110500500Y-97414108D01*
X110466392Y-97286814D01*
X110400500Y-97172686D01*
X110307314Y-97079500D01*
X110250250Y-97046554D01*
X110211373Y-97024108D01*
X111499500Y-97024108D01*
X111499500Y-97155891D01*
X111533608Y-97283187D01*
X111566554Y-97340250D01*
X111599500Y-97397314D01*
X111692686Y-97490500D01*
X111806814Y-97556392D01*
X111934108Y-97590500D01*
X111934110Y-97590500D01*
X112065890Y-97590500D01*
X112065892Y-97590500D01*
X112193186Y-97556392D01*
X112307314Y-97490500D01*
X112400500Y-97397314D01*
X112466392Y-97283186D01*
X112500500Y-97155892D01*
X112500500Y-97024108D01*
X112466392Y-96896814D01*
X112400500Y-96782686D01*
X112307314Y-96689500D01*
X112250250Y-96656554D01*
X112193187Y-96623608D01*
X112129539Y-96606554D01*
X112065892Y-96589500D01*
X111934108Y-96589500D01*
X111806812Y-96623608D01*
X111692686Y-96689500D01*
X111692683Y-96689502D01*
X111599502Y-96782683D01*
X111599500Y-96782686D01*
X111533608Y-96896812D01*
X111499500Y-97024108D01*
X110211373Y-97024108D01*
X110193187Y-97013608D01*
X110115103Y-96992686D01*
X110065892Y-96979500D01*
X109934108Y-96979500D01*
X109806812Y-97013608D01*
X109692686Y-97079500D01*
X109692683Y-97079502D01*
X109599502Y-97172683D01*
X109599500Y-97172686D01*
X109533608Y-97286812D01*
X109512419Y-97365892D01*
X109499500Y-97414108D01*
X102940500Y-97414108D01*
X102940500Y-97405981D01*
X102940500Y-96841323D01*
X102940499Y-96224108D01*
X110509500Y-96224108D01*
X110509500Y-96355892D01*
X110517969Y-96387498D01*
X110543608Y-96483187D01*
X110554255Y-96501627D01*
X110609500Y-96597314D01*
X110702686Y-96690500D01*
X110816814Y-96756392D01*
X110944108Y-96790500D01*
X110944110Y-96790500D01*
X111075890Y-96790500D01*
X111075892Y-96790500D01*
X111203186Y-96756392D01*
X111317314Y-96690500D01*
X111410500Y-96597314D01*
X111476392Y-96483186D01*
X111510500Y-96355892D01*
X111510500Y-96224108D01*
X111476392Y-96096814D01*
X111410500Y-95982686D01*
X111317314Y-95889500D01*
X111260250Y-95856554D01*
X111203187Y-95823608D01*
X111091988Y-95793813D01*
X111075892Y-95789500D01*
X110944108Y-95789500D01*
X110816812Y-95823608D01*
X110702686Y-95889500D01*
X110702683Y-95889502D01*
X110609502Y-95982683D01*
X110609500Y-95982686D01*
X110543608Y-96096812D01*
X110535139Y-96128421D01*
X110509500Y-96224108D01*
X102940499Y-96224108D01*
X102940499Y-95675734D01*
X102937646Y-95645300D01*
X102892793Y-95517117D01*
X102856331Y-95467713D01*
X102812150Y-95407849D01*
X102738123Y-95353215D01*
X102702883Y-95327207D01*
X102702881Y-95327206D01*
X102574701Y-95282353D01*
X102544270Y-95279500D01*
X100735739Y-95279500D01*
X100721751Y-95280811D01*
X100705300Y-95282354D01*
X100705297Y-95282354D01*
X100705296Y-95282355D01*
X100705294Y-95282355D01*
X100577117Y-95327206D01*
X100467849Y-95407849D01*
X100387206Y-95517118D01*
X100342353Y-95645297D01*
X100342353Y-95645299D01*
X100339500Y-95675729D01*
X100339500Y-97484260D01*
X100339501Y-97484266D01*
X100342354Y-97514700D01*
X100342354Y-97514702D01*
X100342355Y-97514703D01*
X100342355Y-97514705D01*
X100387206Y-97642882D01*
X100467849Y-97752150D01*
X100476692Y-97758676D01*
X100577117Y-97832793D01*
X100611114Y-97844689D01*
X100705298Y-97877646D01*
X100714431Y-97878502D01*
X100735733Y-97880500D01*
X100751845Y-97880499D01*
X100818883Y-97900180D01*
X100864641Y-97952982D01*
X100874588Y-98022140D01*
X100845566Y-98085697D01*
X100824736Y-98104816D01*
X100792784Y-98128030D01*
X100648028Y-98272786D01*
X100527715Y-98438386D01*
X100434781Y-98620776D01*
X100371522Y-98815465D01*
X100339500Y-99017648D01*
X100339500Y-99222351D01*
X100371522Y-99424534D01*
X100434781Y-99619223D01*
X100527715Y-99801613D01*
X100648028Y-99967213D01*
X100792786Y-100111971D01*
X100958385Y-100232284D01*
X100958387Y-100232285D01*
X100958390Y-100232287D01*
X101051080Y-100279515D01*
X101101875Y-100327488D01*
X101118670Y-100395309D01*
X101096133Y-100461444D01*
X101051079Y-100500483D01*
X100958391Y-100547710D01*
X100958389Y-100547711D01*
X100792786Y-100668027D01*
X100648028Y-100812785D01*
X100527715Y-100978385D01*
X100434781Y-101160775D01*
X100371522Y-101355464D01*
X100339500Y-101557647D01*
X100339500Y-101762350D01*
X100371522Y-101964533D01*
X100434781Y-102159222D01*
X100505888Y-102298775D01*
X100518784Y-102367444D01*
X100492508Y-102432185D01*
X100435401Y-102472442D01*
X100365596Y-102475434D01*
X100307722Y-102442751D01*
X99376819Y-101511848D01*
X99343334Y-101450525D01*
X99340500Y-101424167D01*
X99340500Y-93438941D01*
X112444472Y-93438941D01*
X112444472Y-93570724D01*
X112478580Y-93698020D01*
X112500200Y-93735466D01*
X112544472Y-93812147D01*
X112637658Y-93905333D01*
X112751786Y-93971225D01*
X112879080Y-94005333D01*
X112879082Y-94005333D01*
X113010862Y-94005333D01*
X113010864Y-94005333D01*
X113063407Y-93991254D01*
X113133255Y-93992916D01*
X113191118Y-94032077D01*
X113218623Y-94096305D01*
X113219500Y-94111028D01*
X113219500Y-100789562D01*
X113225722Y-100812781D01*
X113239979Y-100865990D01*
X113239980Y-100865991D01*
X113265100Y-100909500D01*
X113265101Y-100909501D01*
X113279539Y-100934510D01*
X113903181Y-101558152D01*
X113936666Y-101619475D01*
X113939500Y-101645833D01*
X113939500Y-101735892D01*
X113952528Y-101784512D01*
X113973608Y-101863187D01*
X114006554Y-101920250D01*
X114039500Y-101977314D01*
X114132686Y-102070500D01*
X114246814Y-102136392D01*
X114374108Y-102170500D01*
X114374110Y-102170500D01*
X114505890Y-102170500D01*
X114505892Y-102170500D01*
X114633186Y-102136392D01*
X114747314Y-102070500D01*
X114840500Y-101977314D01*
X114906392Y-101863186D01*
X114940500Y-101735892D01*
X114940500Y-101604108D01*
X114906392Y-101476814D01*
X114840500Y-101362686D01*
X114747314Y-101269500D01*
X114690250Y-101236554D01*
X114633187Y-101203608D01*
X114569539Y-101186554D01*
X114505892Y-101169500D01*
X114415833Y-101169500D01*
X114348794Y-101149815D01*
X114328152Y-101133181D01*
X113856819Y-100661848D01*
X113823334Y-100600525D01*
X113820500Y-100574167D01*
X113820500Y-96128419D01*
X114125189Y-96128419D01*
X114125189Y-96260203D01*
X114129279Y-96275466D01*
X114159297Y-96387498D01*
X114192243Y-96444561D01*
X114225189Y-96501625D01*
X114318375Y-96594811D01*
X114432503Y-96660703D01*
X114559797Y-96694811D01*
X114559799Y-96694811D01*
X114691579Y-96694811D01*
X114691581Y-96694811D01*
X114818875Y-96660703D01*
X114933003Y-96594811D01*
X115026189Y-96501625D01*
X115092081Y-96387497D01*
X115126189Y-96260203D01*
X115126189Y-96128419D01*
X115092081Y-96001125D01*
X115026189Y-95886997D01*
X114933003Y-95793811D01*
X114875939Y-95760865D01*
X114818876Y-95727919D01*
X114755228Y-95710865D01*
X114691581Y-95693811D01*
X114559797Y-95693811D01*
X114432501Y-95727919D01*
X114318375Y-95793811D01*
X114318372Y-95793813D01*
X114225191Y-95886994D01*
X114225189Y-95886997D01*
X114159297Y-96001123D01*
X114137955Y-96080776D01*
X114125189Y-96128419D01*
X113820500Y-96128419D01*
X113820500Y-93518676D01*
X113840185Y-93451637D01*
X113856819Y-93430995D01*
X113920500Y-93367314D01*
X113986392Y-93253186D01*
X114020500Y-93125892D01*
X114020500Y-92994108D01*
X113986392Y-92866814D01*
X113920500Y-92752686D01*
X113827314Y-92659500D01*
X113745534Y-92612284D01*
X113713187Y-92593608D01*
X113649539Y-92576554D01*
X113585892Y-92559500D01*
X113454108Y-92559500D01*
X113326812Y-92593608D01*
X113212686Y-92659500D01*
X113212683Y-92659502D01*
X113119502Y-92752683D01*
X113119500Y-92752686D01*
X113053608Y-92866812D01*
X113049945Y-92880485D01*
X113041385Y-92912427D01*
X113005022Y-92972086D01*
X112942176Y-93002616D01*
X112921612Y-93004333D01*
X112879080Y-93004333D01*
X112751784Y-93038441D01*
X112637658Y-93104333D01*
X112637655Y-93104335D01*
X112544474Y-93197516D01*
X112544472Y-93197519D01*
X112478580Y-93311645D01*
X112444472Y-93438941D01*
X99340500Y-93438941D01*
X99340500Y-92378676D01*
X99360185Y-92311637D01*
X99376819Y-92290995D01*
X99440500Y-92227314D01*
X99506392Y-92113186D01*
X99540500Y-91985892D01*
X99540500Y-91854108D01*
X99506392Y-91726814D01*
X99475962Y-91674108D01*
X111569500Y-91674108D01*
X111569500Y-91805891D01*
X111603608Y-91933187D01*
X111634037Y-91985890D01*
X111669500Y-92047314D01*
X111762686Y-92140500D01*
X111876814Y-92206392D01*
X112004108Y-92240500D01*
X112004110Y-92240500D01*
X112135890Y-92240500D01*
X112135892Y-92240500D01*
X112263186Y-92206392D01*
X112377314Y-92140500D01*
X112467197Y-92050616D01*
X112528516Y-92017134D01*
X112598208Y-92022118D01*
X112654142Y-92063989D01*
X112662261Y-92076299D01*
X112708399Y-92156211D01*
X112708402Y-92156215D01*
X112708404Y-92156218D01*
X112801590Y-92249404D01*
X112915718Y-92315296D01*
X113043012Y-92349404D01*
X113043014Y-92349404D01*
X113174794Y-92349404D01*
X113174796Y-92349404D01*
X113302090Y-92315296D01*
X113416218Y-92249404D01*
X113509404Y-92156218D01*
X113575296Y-92042090D01*
X113609404Y-91914796D01*
X113609404Y-91783012D01*
X113575296Y-91655718D01*
X113509404Y-91541590D01*
X113416218Y-91448404D01*
X113359154Y-91415458D01*
X113302091Y-91382512D01*
X113219939Y-91360500D01*
X113174796Y-91348404D01*
X113043012Y-91348404D01*
X112915716Y-91382512D01*
X112801590Y-91448404D01*
X112711709Y-91538285D01*
X112650385Y-91571769D01*
X112580694Y-91566785D01*
X112524760Y-91524913D01*
X112516641Y-91512604D01*
X112482579Y-91453608D01*
X112470500Y-91432686D01*
X112377314Y-91339500D01*
X112377312Y-91339499D01*
X112377310Y-91339497D01*
X112263188Y-91273609D01*
X112263187Y-91273608D01*
X112263186Y-91273608D01*
X112135892Y-91239500D01*
X112004108Y-91239500D01*
X111876812Y-91273608D01*
X111762686Y-91339500D01*
X111762683Y-91339502D01*
X111669502Y-91432683D01*
X111669500Y-91432686D01*
X111603608Y-91546812D01*
X111569500Y-91674108D01*
X99475962Y-91674108D01*
X99440500Y-91612686D01*
X99347314Y-91519500D01*
X99290250Y-91486554D01*
X99233187Y-91453608D01*
X99151065Y-91431604D01*
X99105892Y-91419500D01*
X98974108Y-91419500D01*
X98846812Y-91453608D01*
X98732686Y-91519500D01*
X98732683Y-91519502D01*
X98639502Y-91612683D01*
X98639500Y-91612686D01*
X98573608Y-91726812D01*
X98552419Y-91805892D01*
X98539500Y-91854108D01*
X97970500Y-91854108D01*
X97970500Y-90794108D01*
X105739500Y-90794108D01*
X105739500Y-90925892D01*
X105746094Y-90950500D01*
X105773608Y-91053187D01*
X105806554Y-91110250D01*
X105839500Y-91167314D01*
X105932686Y-91260500D01*
X106046814Y-91326392D01*
X106174108Y-91360500D01*
X106174110Y-91360500D01*
X106305890Y-91360500D01*
X106305892Y-91360500D01*
X106433186Y-91326392D01*
X106547314Y-91260500D01*
X106635288Y-91172526D01*
X114787741Y-91172526D01*
X114787741Y-91304309D01*
X114821849Y-91431605D01*
X114834553Y-91453608D01*
X114887741Y-91545732D01*
X114980927Y-91638918D01*
X115095055Y-91704810D01*
X115222349Y-91738918D01*
X115222351Y-91738918D01*
X115354131Y-91738918D01*
X115354133Y-91738918D01*
X115481427Y-91704810D01*
X115595555Y-91638918D01*
X115688741Y-91545732D01*
X115754633Y-91431604D01*
X115788741Y-91304310D01*
X115788741Y-91172526D01*
X115754633Y-91045232D01*
X115688741Y-90931104D01*
X115595555Y-90837918D01*
X115519674Y-90794108D01*
X115481428Y-90772026D01*
X115417780Y-90754972D01*
X115354133Y-90737918D01*
X115222349Y-90737918D01*
X115095053Y-90772026D01*
X114980927Y-90837918D01*
X114980924Y-90837920D01*
X114887743Y-90931101D01*
X114887741Y-90931104D01*
X114821849Y-91045230D01*
X114787741Y-91172526D01*
X106635288Y-91172526D01*
X106640500Y-91167314D01*
X106706392Y-91053186D01*
X106740500Y-90925892D01*
X106740500Y-90794108D01*
X106706392Y-90666814D01*
X106640500Y-90552686D01*
X106547314Y-90459500D01*
X106490250Y-90426554D01*
X106433187Y-90393608D01*
X106397732Y-90384108D01*
X109389500Y-90384108D01*
X109389500Y-90515891D01*
X109423608Y-90643187D01*
X109456554Y-90700250D01*
X109489500Y-90757314D01*
X109582686Y-90850500D01*
X109696814Y-90916392D01*
X109824108Y-90950500D01*
X109824110Y-90950500D01*
X109955890Y-90950500D01*
X109955892Y-90950500D01*
X110083186Y-90916392D01*
X110197314Y-90850500D01*
X110290500Y-90757314D01*
X110356392Y-90643186D01*
X110390500Y-90515892D01*
X110390500Y-90384108D01*
X110356392Y-90256814D01*
X110290500Y-90142686D01*
X110197314Y-90049500D01*
X110140250Y-90016554D01*
X110083187Y-89983608D01*
X110019539Y-89966554D01*
X109955892Y-89949500D01*
X109824108Y-89949500D01*
X109696812Y-89983608D01*
X109582686Y-90049500D01*
X109582683Y-90049502D01*
X109489502Y-90142683D01*
X109489500Y-90142686D01*
X109423608Y-90256812D01*
X109389500Y-90384108D01*
X106397732Y-90384108D01*
X106369539Y-90376554D01*
X106305892Y-90359500D01*
X106174108Y-90359500D01*
X106046812Y-90393608D01*
X105932686Y-90459500D01*
X105932683Y-90459502D01*
X105839502Y-90552683D01*
X105839500Y-90552686D01*
X105773608Y-90666812D01*
X105754556Y-90737918D01*
X105739500Y-90794108D01*
X97970500Y-90794108D01*
X97970500Y-89264108D01*
X111119500Y-89264108D01*
X111119500Y-89395891D01*
X111153608Y-89523187D01*
X111186554Y-89580250D01*
X111219500Y-89637314D01*
X111312686Y-89730500D01*
X111426814Y-89796392D01*
X111554108Y-89830500D01*
X111554110Y-89830500D01*
X111685890Y-89830500D01*
X111685892Y-89830500D01*
X111813186Y-89796392D01*
X111927314Y-89730500D01*
X111943706Y-89714108D01*
X115399500Y-89714108D01*
X115399500Y-89845891D01*
X115433608Y-89973187D01*
X115439625Y-89983608D01*
X115499500Y-90087314D01*
X115592686Y-90180500D01*
X115706814Y-90246392D01*
X115834108Y-90280500D01*
X115834110Y-90280500D01*
X115965890Y-90280500D01*
X115965892Y-90280500D01*
X116093186Y-90246392D01*
X116207314Y-90180500D01*
X116300500Y-90087314D01*
X116366392Y-89973186D01*
X116400500Y-89845892D01*
X116400500Y-89714108D01*
X116366392Y-89586814D01*
X116300500Y-89472686D01*
X116207314Y-89379500D01*
X116150250Y-89346554D01*
X116093187Y-89313608D01*
X116029539Y-89296554D01*
X115965892Y-89279500D01*
X115834108Y-89279500D01*
X115706812Y-89313608D01*
X115592686Y-89379500D01*
X115592683Y-89379502D01*
X115499502Y-89472683D01*
X115499500Y-89472686D01*
X115433608Y-89586812D01*
X115399500Y-89714108D01*
X111943706Y-89714108D01*
X112020500Y-89637314D01*
X112086392Y-89523186D01*
X112120500Y-89395892D01*
X112120500Y-89264108D01*
X112102279Y-89196106D01*
X112103942Y-89126260D01*
X112143104Y-89068397D01*
X112207332Y-89040893D01*
X112225730Y-89041002D01*
X112225730Y-89040500D01*
X112365639Y-89040500D01*
X112365641Y-89040500D01*
X112492935Y-89006392D01*
X112607063Y-88940500D01*
X112700249Y-88847314D01*
X112766141Y-88733186D01*
X112800249Y-88605892D01*
X112800249Y-88474108D01*
X112766141Y-88346814D01*
X112700249Y-88232686D01*
X112607063Y-88139500D01*
X112549999Y-88106554D01*
X112492936Y-88073608D01*
X112429288Y-88056554D01*
X112365641Y-88039500D01*
X112233857Y-88039500D01*
X112106561Y-88073608D01*
X111992435Y-88139500D01*
X111992432Y-88139502D01*
X111899251Y-88232683D01*
X111899249Y-88232686D01*
X111833357Y-88346812D01*
X111805481Y-88450848D01*
X111799249Y-88474108D01*
X111799249Y-88605892D01*
X111817469Y-88673890D01*
X111815806Y-88743740D01*
X111776643Y-88801602D01*
X111712415Y-88829106D01*
X111694019Y-88828998D01*
X111694019Y-88829500D01*
X111554108Y-88829500D01*
X111426812Y-88863608D01*
X111312686Y-88929500D01*
X111312683Y-88929502D01*
X111219502Y-89022683D01*
X111219500Y-89022686D01*
X111153608Y-89136812D01*
X111119500Y-89264108D01*
X97970500Y-89264108D01*
X97970500Y-88524108D01*
X101229500Y-88524108D01*
X101229500Y-88655892D01*
X101238578Y-88689771D01*
X101263608Y-88783187D01*
X101283169Y-88817067D01*
X101329500Y-88897314D01*
X101422686Y-88990500D01*
X101536814Y-89056392D01*
X101664108Y-89090500D01*
X101664110Y-89090500D01*
X101795890Y-89090500D01*
X101795892Y-89090500D01*
X101923186Y-89056392D01*
X102037314Y-88990500D01*
X102130500Y-88897314D01*
X102196392Y-88783186D01*
X102230500Y-88655892D01*
X102230500Y-88565832D01*
X102250185Y-88498793D01*
X102266819Y-88478151D01*
X102470103Y-88274867D01*
X102715460Y-88029511D01*
X102734049Y-87997314D01*
X102755021Y-87960989D01*
X102775500Y-87884562D01*
X102775500Y-86284108D01*
X108579500Y-86284108D01*
X108579500Y-86415891D01*
X108613608Y-86543187D01*
X108619563Y-86553501D01*
X108679500Y-86657314D01*
X108772686Y-86750500D01*
X108886814Y-86816392D01*
X109014108Y-86850500D01*
X109014110Y-86850500D01*
X109092175Y-86850500D01*
X109159214Y-86870185D01*
X109204969Y-86922989D01*
X109214913Y-86992147D01*
X109199563Y-87036499D01*
X109193608Y-87046812D01*
X109169359Y-87137313D01*
X109159500Y-87174108D01*
X109159500Y-87305892D01*
X109166094Y-87330500D01*
X109193608Y-87433187D01*
X109226554Y-87490250D01*
X109259500Y-87547314D01*
X109259502Y-87547316D01*
X109341243Y-87629057D01*
X109374728Y-87690380D01*
X109369744Y-87760072D01*
X109327872Y-87816005D01*
X109315572Y-87824120D01*
X109310335Y-87827143D01*
X109310329Y-87827148D01*
X109217148Y-87920329D01*
X109217146Y-87920332D01*
X109151254Y-88034458D01*
X109128201Y-88120497D01*
X109117146Y-88161754D01*
X109117146Y-88293538D01*
X109129524Y-88339732D01*
X109151254Y-88420833D01*
X109182013Y-88474108D01*
X109217146Y-88534960D01*
X109310332Y-88628146D01*
X109389563Y-88673890D01*
X109417067Y-88689770D01*
X109424460Y-88694038D01*
X109551754Y-88728146D01*
X109551756Y-88728146D01*
X109683536Y-88728146D01*
X109683538Y-88728146D01*
X109810832Y-88694038D01*
X109924960Y-88628146D01*
X110018146Y-88534960D01*
X110084038Y-88420832D01*
X110118146Y-88293538D01*
X110118146Y-88161754D01*
X110084038Y-88034460D01*
X110018146Y-87920332D01*
X109936402Y-87838588D01*
X109902917Y-87777265D01*
X109907901Y-87707573D01*
X109938020Y-87661637D01*
X109948942Y-87651106D01*
X109967314Y-87640500D01*
X109983706Y-87624108D01*
X110466500Y-87624108D01*
X110466500Y-87755892D01*
X110482607Y-87816005D01*
X110500608Y-87883187D01*
X110522054Y-87920332D01*
X110566500Y-87997314D01*
X110659686Y-88090500D01*
X110773814Y-88156392D01*
X110901108Y-88190500D01*
X110901110Y-88190500D01*
X111032890Y-88190500D01*
X111032892Y-88190500D01*
X111160186Y-88156392D01*
X111274314Y-88090500D01*
X111367500Y-87997314D01*
X111433392Y-87883186D01*
X111467500Y-87755892D01*
X111467500Y-87624108D01*
X111433392Y-87496814D01*
X111367500Y-87382686D01*
X111274314Y-87289500D01*
X111194770Y-87243575D01*
X111160187Y-87223608D01*
X111042024Y-87191947D01*
X111032892Y-87189500D01*
X110901108Y-87189500D01*
X110773812Y-87223608D01*
X110659686Y-87289500D01*
X110659683Y-87289502D01*
X110566502Y-87382683D01*
X110566500Y-87382686D01*
X110500608Y-87496812D01*
X110487076Y-87547316D01*
X110466500Y-87624108D01*
X109983706Y-87624108D01*
X110060500Y-87547314D01*
X110126392Y-87433186D01*
X110160500Y-87305892D01*
X110160500Y-87174108D01*
X110126392Y-87046814D01*
X110060500Y-86932686D01*
X109967314Y-86839500D01*
X109910250Y-86806554D01*
X109853187Y-86773608D01*
X109817732Y-86764108D01*
X114139500Y-86764108D01*
X114139500Y-86895891D01*
X114173608Y-87023187D01*
X114199895Y-87068716D01*
X114239500Y-87137314D01*
X114332686Y-87230500D01*
X114446814Y-87296392D01*
X114574108Y-87330500D01*
X114574110Y-87330500D01*
X114705890Y-87330500D01*
X114705892Y-87330500D01*
X114833186Y-87296392D01*
X114947314Y-87230500D01*
X115040500Y-87137314D01*
X115106392Y-87023186D01*
X115140500Y-86895892D01*
X115140500Y-86764108D01*
X115106392Y-86636814D01*
X115105454Y-86635190D01*
X115082144Y-86594815D01*
X115040500Y-86522686D01*
X114947314Y-86429500D01*
X114890250Y-86396554D01*
X114833187Y-86363608D01*
X114769539Y-86346554D01*
X114705892Y-86329500D01*
X114574108Y-86329500D01*
X114446812Y-86363608D01*
X114332686Y-86429500D01*
X114332683Y-86429502D01*
X114239502Y-86522683D01*
X114239500Y-86522686D01*
X114173608Y-86636812D01*
X114139500Y-86764108D01*
X109817732Y-86764108D01*
X109766941Y-86750499D01*
X109725892Y-86739500D01*
X109647825Y-86739500D01*
X109580786Y-86719815D01*
X109535031Y-86667011D01*
X109525087Y-86597853D01*
X109540437Y-86553501D01*
X109546391Y-86543187D01*
X109546392Y-86543186D01*
X109580500Y-86415892D01*
X109580500Y-86284108D01*
X109546392Y-86156814D01*
X109480500Y-86042686D01*
X109387314Y-85949500D01*
X109330250Y-85916554D01*
X109273187Y-85883608D01*
X109209539Y-85866554D01*
X109145892Y-85849500D01*
X109014108Y-85849500D01*
X108886812Y-85883608D01*
X108772686Y-85949500D01*
X108772683Y-85949502D01*
X108679502Y-86042683D01*
X108679500Y-86042686D01*
X108613608Y-86156812D01*
X108579500Y-86284108D01*
X102775500Y-86284108D01*
X102775500Y-84598995D01*
X103204499Y-84598995D01*
X103231418Y-84734322D01*
X103231421Y-84734332D01*
X103284221Y-84861804D01*
X103284228Y-84861817D01*
X103360885Y-84976541D01*
X103360888Y-84976545D01*
X103458454Y-85074111D01*
X103458458Y-85074114D01*
X103573182Y-85150771D01*
X103573195Y-85150778D01*
X103700667Y-85203578D01*
X103700672Y-85203580D01*
X103700676Y-85203580D01*
X103700677Y-85203581D01*
X103836004Y-85230500D01*
X103836007Y-85230500D01*
X105073995Y-85230500D01*
X105186137Y-85208193D01*
X105209328Y-85203580D01*
X105336811Y-85150775D01*
X105451542Y-85074114D01*
X105549114Y-84976542D01*
X105625775Y-84861811D01*
X105678580Y-84734328D01*
X105692413Y-84664784D01*
X105705500Y-84598995D01*
X105705500Y-84461004D01*
X105678581Y-84325677D01*
X105678580Y-84325676D01*
X105678580Y-84325672D01*
X105644209Y-84242692D01*
X105625860Y-84198392D01*
X110945550Y-84198392D01*
X110945550Y-84330175D01*
X110979658Y-84457471D01*
X111012604Y-84514534D01*
X111045550Y-84571598D01*
X111138736Y-84664784D01*
X111252864Y-84730676D01*
X111380158Y-84764784D01*
X111380160Y-84764784D01*
X111511940Y-84764784D01*
X111511942Y-84764784D01*
X111639236Y-84730676D01*
X111753364Y-84664784D01*
X111846550Y-84571598D01*
X111912442Y-84457470D01*
X111946550Y-84330176D01*
X111946550Y-84198392D01*
X111912442Y-84071098D01*
X111909724Y-84066391D01*
X111871682Y-84000500D01*
X111846550Y-83956970D01*
X111753364Y-83863784D01*
X111693983Y-83829500D01*
X111639237Y-83797892D01*
X111575589Y-83780838D01*
X111511942Y-83763784D01*
X111380158Y-83763784D01*
X111252862Y-83797892D01*
X111138736Y-83863784D01*
X111138733Y-83863786D01*
X111045552Y-83956967D01*
X111045550Y-83956970D01*
X110979658Y-84071096D01*
X110945550Y-84198392D01*
X105625860Y-84198392D01*
X105625778Y-84198195D01*
X105625771Y-84198182D01*
X105549114Y-84083458D01*
X105549111Y-84083454D01*
X105451545Y-83985888D01*
X105451541Y-83985885D01*
X105336817Y-83909228D01*
X105336804Y-83909221D01*
X105209332Y-83856421D01*
X105209322Y-83856418D01*
X105073995Y-83829500D01*
X105073993Y-83829500D01*
X103836007Y-83829500D01*
X103836005Y-83829500D01*
X103700677Y-83856418D01*
X103700667Y-83856421D01*
X103573195Y-83909221D01*
X103573182Y-83909228D01*
X103458458Y-83985885D01*
X103458454Y-83985888D01*
X103360888Y-84083454D01*
X103360885Y-84083458D01*
X103284228Y-84198182D01*
X103284221Y-84198195D01*
X103231421Y-84325667D01*
X103231418Y-84325677D01*
X103204500Y-84461004D01*
X103204500Y-84461007D01*
X103204500Y-84598993D01*
X103204500Y-84598995D01*
X103204499Y-84598995D01*
X102775500Y-84598995D01*
X102775500Y-83773676D01*
X102795185Y-83706637D01*
X102811819Y-83685995D01*
X102831924Y-83665890D01*
X102875500Y-83622314D01*
X102941392Y-83508186D01*
X102975500Y-83380892D01*
X102975500Y-83249108D01*
X102941392Y-83121814D01*
X102894403Y-83040427D01*
X103502500Y-83040427D01*
X103502500Y-83159572D01*
X103533337Y-83274660D01*
X103539612Y-83285528D01*
X103592910Y-83377842D01*
X103677158Y-83462090D01*
X103722299Y-83488152D01*
X103778326Y-83520500D01*
X103780341Y-83521663D01*
X103895427Y-83552500D01*
X103895429Y-83552500D01*
X104014571Y-83552500D01*
X104014573Y-83552500D01*
X104129659Y-83521663D01*
X104232842Y-83462090D01*
X104317090Y-83377842D01*
X104376663Y-83274659D01*
X104407500Y-83159573D01*
X104407500Y-83040427D01*
X104376663Y-82925341D01*
X104375520Y-82923362D01*
X104364495Y-82904266D01*
X104317090Y-82822158D01*
X104232842Y-82737910D01*
X104161908Y-82696956D01*
X104129660Y-82678337D01*
X104072116Y-82662918D01*
X104014573Y-82647500D01*
X103895427Y-82647500D01*
X103780339Y-82678337D01*
X103677158Y-82737910D01*
X103677155Y-82737912D01*
X103592912Y-82822155D01*
X103592910Y-82822158D01*
X103533337Y-82925339D01*
X103502500Y-83040427D01*
X102894403Y-83040427D01*
X102875500Y-83007686D01*
X102805816Y-82938002D01*
X102800682Y-82931229D01*
X102791170Y-82906188D01*
X102778334Y-82882680D01*
X102776791Y-82868337D01*
X102775871Y-82865913D01*
X102776308Y-82863842D01*
X102775500Y-82856323D01*
X102775500Y-82745440D01*
X102774439Y-82737382D01*
X102775050Y-82737301D01*
X102772500Y-82717917D01*
X102772500Y-82525885D01*
X102792185Y-82458846D01*
X102844989Y-82413091D01*
X102914147Y-82403147D01*
X102958499Y-82418497D01*
X103006814Y-82446392D01*
X103134108Y-82480500D01*
X103134110Y-82480500D01*
X103265890Y-82480500D01*
X103265892Y-82480500D01*
X103393186Y-82446392D01*
X103507314Y-82380500D01*
X103600500Y-82287314D01*
X103666392Y-82173186D01*
X103700500Y-82045892D01*
X103700500Y-81914108D01*
X103688799Y-81870438D01*
X105929500Y-81870438D01*
X105929500Y-82979562D01*
X105937036Y-83007686D01*
X105949979Y-83055990D01*
X105949980Y-83055991D01*
X105975100Y-83099500D01*
X105982320Y-83112005D01*
X105989539Y-83124510D01*
X106353181Y-83488152D01*
X106386666Y-83549475D01*
X106389500Y-83575833D01*
X106389500Y-83665892D01*
X106402792Y-83715500D01*
X106423608Y-83793187D01*
X106444574Y-83829500D01*
X106489500Y-83907314D01*
X106582686Y-84000500D01*
X106681521Y-84057563D01*
X106696810Y-84066390D01*
X106696814Y-84066392D01*
X106824108Y-84100500D01*
X106824110Y-84100500D01*
X106955890Y-84100500D01*
X106955892Y-84100500D01*
X107083186Y-84066392D01*
X107197314Y-84000500D01*
X107290500Y-83907314D01*
X107356392Y-83793186D01*
X107390500Y-83665892D01*
X107390500Y-83534108D01*
X107356392Y-83406814D01*
X107290500Y-83292686D01*
X107197314Y-83199500D01*
X107128155Y-83159571D01*
X107083187Y-83133608D01*
X107019539Y-83116554D01*
X106955892Y-83099500D01*
X106865833Y-83099500D01*
X106798794Y-83079815D01*
X106778152Y-83063181D01*
X106566819Y-82851848D01*
X106533334Y-82790525D01*
X106530500Y-82764167D01*
X106530500Y-82437877D01*
X111722843Y-82437877D01*
X111722843Y-82569661D01*
X111726478Y-82583226D01*
X111756951Y-82696956D01*
X111784943Y-82745438D01*
X111822843Y-82811083D01*
X111916029Y-82904269D01*
X112030157Y-82970161D01*
X112157451Y-83004269D01*
X112157453Y-83004269D01*
X112289233Y-83004269D01*
X112289235Y-83004269D01*
X112416529Y-82970161D01*
X112530657Y-82904269D01*
X112621664Y-82813261D01*
X112682983Y-82779779D01*
X112732926Y-82779208D01*
X112750150Y-82782544D01*
X112756814Y-82786392D01*
X112884108Y-82820500D01*
X112946070Y-82820500D01*
X112957751Y-82822763D01*
X112978646Y-82833560D01*
X113001206Y-82840185D01*
X113018618Y-82854216D01*
X113019823Y-82854839D01*
X113020197Y-82855488D01*
X113021848Y-82856819D01*
X116355124Y-86190095D01*
X116388609Y-86251418D01*
X116383625Y-86321110D01*
X116341753Y-86377043D01*
X116329454Y-86385157D01*
X116325402Y-86387496D01*
X116325393Y-86387503D01*
X116232212Y-86480684D01*
X116232210Y-86480687D01*
X116166318Y-86594813D01*
X116149571Y-86657316D01*
X116132210Y-86722109D01*
X116132210Y-86853893D01*
X116146814Y-86908395D01*
X116166318Y-86981188D01*
X116181448Y-87007393D01*
X116232210Y-87095315D01*
X116325396Y-87188501D01*
X116439524Y-87254393D01*
X116566818Y-87288501D01*
X116566820Y-87288501D01*
X116698600Y-87288501D01*
X116698602Y-87288501D01*
X116825896Y-87254393D01*
X116844633Y-87243574D01*
X116912533Y-87227101D01*
X116978560Y-87249952D01*
X117021752Y-87304873D01*
X117028395Y-87374426D01*
X117014022Y-87412961D01*
X116965611Y-87496810D01*
X116965611Y-87496811D01*
X116965611Y-87496812D01*
X116965610Y-87496814D01*
X116931502Y-87624108D01*
X116931502Y-87755892D01*
X116947609Y-87816005D01*
X116965610Y-87883187D01*
X116987056Y-87920332D01*
X117031502Y-87997314D01*
X117124688Y-88090500D01*
X117181638Y-88123380D01*
X117237605Y-88155693D01*
X117285821Y-88206260D01*
X117299043Y-88274867D01*
X117273075Y-88339732D01*
X117261267Y-88351405D01*
X117261780Y-88351918D01*
X117162849Y-88450848D01*
X117162847Y-88450851D01*
X117096955Y-88564977D01*
X117072596Y-88655890D01*
X117062847Y-88692273D01*
X117062847Y-88824057D01*
X117069079Y-88847314D01*
X117096955Y-88951352D01*
X117119556Y-88990497D01*
X117162847Y-89065479D01*
X117256033Y-89158665D01*
X117370161Y-89224557D01*
X117497455Y-89258665D01*
X117497457Y-89258665D01*
X117629237Y-89258665D01*
X117629239Y-89258665D01*
X117756533Y-89224557D01*
X117870661Y-89158665D01*
X117925069Y-89104256D01*
X117986388Y-89070774D01*
X118056080Y-89075758D01*
X118074746Y-89084552D01*
X118084651Y-89090271D01*
X118084653Y-89090271D01*
X118084654Y-89090272D01*
X118211948Y-89124380D01*
X118211950Y-89124380D01*
X118343730Y-89124380D01*
X118343732Y-89124380D01*
X118471026Y-89090272D01*
X118585154Y-89024380D01*
X118678340Y-88931194D01*
X118744232Y-88817066D01*
X118778340Y-88689772D01*
X118778340Y-88557988D01*
X118744232Y-88430694D01*
X118720424Y-88389458D01*
X118703952Y-88321560D01*
X118726804Y-88255533D01*
X118781725Y-88212342D01*
X118795701Y-88207690D01*
X118875188Y-88186392D01*
X118989316Y-88120500D01*
X119082502Y-88027314D01*
X119148394Y-87913186D01*
X119182502Y-87785892D01*
X119182502Y-87654108D01*
X119148394Y-87526814D01*
X119082502Y-87412686D01*
X118989316Y-87319500D01*
X118932252Y-87286554D01*
X118875189Y-87253608D01*
X118788943Y-87230499D01*
X118747894Y-87219500D01*
X118616110Y-87219500D01*
X118488816Y-87253608D01*
X118488815Y-87253608D01*
X118488813Y-87253609D01*
X118488810Y-87253610D01*
X118431589Y-87286646D01*
X118363689Y-87303117D01*
X118297662Y-87280264D01*
X118281910Y-87266939D01*
X118083687Y-87068716D01*
X118050202Y-87007393D01*
X118055186Y-86937701D01*
X118097058Y-86881768D01*
X118109353Y-86873656D01*
X118163314Y-86842503D01*
X118256500Y-86749317D01*
X118322392Y-86635189D01*
X118356500Y-86507895D01*
X118356500Y-86376111D01*
X118322392Y-86248817D01*
X118256500Y-86134689D01*
X118163314Y-86041503D01*
X118106250Y-86008557D01*
X118049187Y-85975611D01*
X117985539Y-85958557D01*
X117921892Y-85941503D01*
X117790108Y-85941503D01*
X117662812Y-85975611D01*
X117548686Y-86041503D01*
X117548683Y-86041505D01*
X117455502Y-86134686D01*
X117455496Y-86134695D01*
X117424353Y-86188635D01*
X117373786Y-86236850D01*
X117305179Y-86250072D01*
X117240314Y-86224104D01*
X117229286Y-86214315D01*
X116223164Y-85208193D01*
X116189679Y-85146870D01*
X116194663Y-85077178D01*
X116236535Y-85021245D01*
X116248845Y-85013125D01*
X116265261Y-85003646D01*
X116357314Y-84950500D01*
X116450500Y-84857314D01*
X116516392Y-84743186D01*
X116550500Y-84615892D01*
X116550500Y-84484108D01*
X116516392Y-84356814D01*
X116450500Y-84242686D01*
X116357314Y-84149500D01*
X116272442Y-84100499D01*
X116243187Y-84083608D01*
X116178927Y-84066390D01*
X116115892Y-84049500D01*
X115984108Y-84049500D01*
X115856812Y-84083608D01*
X115742686Y-84149500D01*
X115742683Y-84149502D01*
X115649502Y-84242683D01*
X115649495Y-84242692D01*
X115586873Y-84351155D01*
X115536306Y-84399370D01*
X115467698Y-84412592D01*
X115402834Y-84386624D01*
X115391806Y-84376835D01*
X113486819Y-82471848D01*
X113475676Y-82451442D01*
X117276281Y-82451442D01*
X117276281Y-82583226D01*
X117286001Y-82619502D01*
X117310389Y-82710521D01*
X117326204Y-82737912D01*
X117376281Y-82824648D01*
X117469467Y-82917834D01*
X117583595Y-82983726D01*
X117710889Y-83017834D01*
X117710891Y-83017834D01*
X117786499Y-83017834D01*
X117853538Y-83037519D01*
X117899293Y-83090323D01*
X117906273Y-83109739D01*
X117909607Y-83122182D01*
X117909607Y-83122183D01*
X117931193Y-83159571D01*
X117975500Y-83236312D01*
X118068686Y-83329498D01*
X118182814Y-83395390D01*
X118310108Y-83429498D01*
X118310110Y-83429498D01*
X118441890Y-83429498D01*
X118441892Y-83429498D01*
X118569186Y-83395390D01*
X118683314Y-83329498D01*
X118684547Y-83328264D01*
X118685848Y-83327554D01*
X118689765Y-83324549D01*
X118690233Y-83325159D01*
X118745866Y-83294777D01*
X118815558Y-83299756D01*
X118834228Y-83308551D01*
X118908484Y-83351423D01*
X119035778Y-83385531D01*
X119035780Y-83385531D01*
X119167560Y-83385531D01*
X119167562Y-83385531D01*
X119294856Y-83351423D01*
X119408984Y-83285531D01*
X119502170Y-83192345D01*
X119568062Y-83078217D01*
X119601317Y-82954108D01*
X122669500Y-82954108D01*
X122669500Y-83085892D01*
X122673692Y-83101536D01*
X122703608Y-83213187D01*
X122724349Y-83249110D01*
X122769500Y-83327314D01*
X122862686Y-83420500D01*
X122976814Y-83486392D01*
X123104108Y-83520500D01*
X123104110Y-83520500D01*
X123235890Y-83520500D01*
X123235892Y-83520500D01*
X123363186Y-83486392D01*
X123477314Y-83420500D01*
X123570500Y-83327314D01*
X123636392Y-83213186D01*
X123670500Y-83085892D01*
X123670500Y-82954108D01*
X123636392Y-82826814D01*
X123635141Y-82824648D01*
X123609236Y-82779779D01*
X123570500Y-82712686D01*
X123477314Y-82619500D01*
X123390989Y-82569660D01*
X123363187Y-82553608D01*
X123259721Y-82525885D01*
X123235892Y-82519500D01*
X123104108Y-82519500D01*
X122976812Y-82553608D01*
X122862686Y-82619500D01*
X122862683Y-82619502D01*
X122769502Y-82712683D01*
X122769500Y-82712686D01*
X122703608Y-82826812D01*
X122677208Y-82925341D01*
X122669500Y-82954108D01*
X119601317Y-82954108D01*
X119602170Y-82950923D01*
X119602170Y-82819139D01*
X119568062Y-82691845D01*
X119502170Y-82577717D01*
X119408984Y-82484531D01*
X119351672Y-82451442D01*
X119294857Y-82418639D01*
X119231209Y-82401585D01*
X119167562Y-82384531D01*
X119035778Y-82384531D01*
X118908483Y-82418639D01*
X118794351Y-82484534D01*
X118793111Y-82485775D01*
X118791804Y-82486488D01*
X118787901Y-82489483D01*
X118787433Y-82488874D01*
X118731785Y-82519255D01*
X118662094Y-82514266D01*
X118643436Y-82505474D01*
X118569189Y-82462607D01*
X118569186Y-82462606D01*
X118441892Y-82428498D01*
X118366282Y-82428498D01*
X118299243Y-82408813D01*
X118253488Y-82356009D01*
X118246508Y-82336593D01*
X118243173Y-82324149D01*
X118243173Y-82324148D01*
X118194906Y-82240548D01*
X118177281Y-82210020D01*
X118084095Y-82116834D01*
X118027031Y-82083888D01*
X117969968Y-82050942D01*
X117906320Y-82033888D01*
X117842673Y-82016834D01*
X117710889Y-82016834D01*
X117583593Y-82050942D01*
X117469467Y-82116834D01*
X117469464Y-82116836D01*
X117376283Y-82210017D01*
X117376281Y-82210020D01*
X117310389Y-82324146D01*
X117282429Y-82428498D01*
X117276281Y-82451442D01*
X113475676Y-82451442D01*
X113453334Y-82410525D01*
X113450500Y-82384167D01*
X113450500Y-82254110D01*
X113450500Y-82254108D01*
X113416392Y-82126814D01*
X113350500Y-82012686D01*
X113257314Y-81919500D01*
X113200250Y-81886554D01*
X113143187Y-81853608D01*
X113079539Y-81836554D01*
X113015892Y-81819500D01*
X112884108Y-81819500D01*
X112756812Y-81853608D01*
X112642686Y-81919500D01*
X112642682Y-81919503D01*
X112551679Y-82010505D01*
X112490356Y-82043989D01*
X112424435Y-82039273D01*
X112424380Y-82039481D01*
X112423304Y-82039192D01*
X112420664Y-82039004D01*
X112416551Y-82037386D01*
X112416532Y-82037378D01*
X112416529Y-82037377D01*
X112289235Y-82003269D01*
X112157451Y-82003269D01*
X112030155Y-82037377D01*
X111916029Y-82103269D01*
X111916026Y-82103271D01*
X111822845Y-82196452D01*
X111822843Y-82196455D01*
X111756951Y-82310581D01*
X111727998Y-82418639D01*
X111722843Y-82437877D01*
X106530500Y-82437877D01*
X106530500Y-82085833D01*
X106550185Y-82018794D01*
X106566819Y-81998152D01*
X107647298Y-80917673D01*
X107708621Y-80884188D01*
X107778313Y-80889172D01*
X107834246Y-80931044D01*
X107858663Y-80996508D01*
X107858979Y-81005354D01*
X107858979Y-81106412D01*
X107893087Y-81233708D01*
X107905116Y-81254542D01*
X107958979Y-81347835D01*
X108052165Y-81441021D01*
X108166293Y-81506913D01*
X108293587Y-81541021D01*
X108293589Y-81541021D01*
X108425369Y-81541021D01*
X108425371Y-81541021D01*
X108552665Y-81506913D01*
X108666793Y-81441021D01*
X108759979Y-81347835D01*
X108825871Y-81233707D01*
X108859979Y-81106413D01*
X108859979Y-81063979D01*
X108879664Y-80996940D01*
X108932468Y-80951185D01*
X108962994Y-80941768D01*
X108973413Y-80939979D01*
X109026413Y-80939979D01*
X109120984Y-80914638D01*
X109126586Y-80913677D01*
X109155858Y-80917074D01*
X109185327Y-80917776D01*
X109190175Y-80921057D01*
X109195989Y-80921732D01*
X109218780Y-80940417D01*
X109243189Y-80956938D01*
X109248817Y-80965044D01*
X109250021Y-80966031D01*
X109250473Y-80967428D01*
X109254958Y-80973888D01*
X109305458Y-81061356D01*
X109398644Y-81154542D01*
X109512772Y-81220434D01*
X109640066Y-81254542D01*
X109640068Y-81254542D01*
X109771849Y-81254542D01*
X109771850Y-81254542D01*
X109821622Y-81241204D01*
X109853717Y-81236979D01*
X118013081Y-81236979D01*
X118013083Y-81236979D01*
X118089510Y-81216500D01*
X118158032Y-81176939D01*
X118213981Y-81120990D01*
X118319080Y-81015890D01*
X118380399Y-80982408D01*
X118450091Y-80987392D01*
X118506025Y-81029263D01*
X118526039Y-81078405D01*
X118527397Y-81078042D01*
X118529500Y-81085890D01*
X118529500Y-81085892D01*
X118547894Y-81154539D01*
X118563608Y-81213187D01*
X118577345Y-81236979D01*
X118629500Y-81327314D01*
X118722686Y-81420500D01*
X118836814Y-81486392D01*
X118964108Y-81520500D01*
X118964110Y-81520500D01*
X119095890Y-81520500D01*
X119095892Y-81520500D01*
X119223186Y-81486392D01*
X119337314Y-81420500D01*
X119342319Y-81415495D01*
X119403642Y-81382010D01*
X119473334Y-81386994D01*
X119517681Y-81415495D01*
X119602686Y-81500500D01*
X119716814Y-81566392D01*
X119844108Y-81600500D01*
X119844110Y-81600500D01*
X119975890Y-81600500D01*
X119975892Y-81600500D01*
X120103186Y-81566392D01*
X120217314Y-81500500D01*
X120310500Y-81407314D01*
X120376392Y-81293186D01*
X120410500Y-81165892D01*
X120410500Y-81034108D01*
X120376392Y-80906814D01*
X120376391Y-80906812D01*
X120374288Y-80898963D01*
X120377046Y-80898223D01*
X120371049Y-80842497D01*
X120402317Y-80780014D01*
X120462401Y-80744355D01*
X120493081Y-80740500D01*
X125101324Y-80740500D01*
X125168363Y-80760185D01*
X125189005Y-80776819D01*
X125252686Y-80840500D01*
X125328356Y-80884188D01*
X125365911Y-80905871D01*
X125366814Y-80906392D01*
X125494108Y-80940500D01*
X125494110Y-80940500D01*
X125625890Y-80940500D01*
X125625892Y-80940500D01*
X125753186Y-80906392D01*
X125867314Y-80840500D01*
X125960500Y-80747314D01*
X126026392Y-80633186D01*
X126060500Y-80505892D01*
X126060500Y-80374108D01*
X126026392Y-80246814D01*
X125960500Y-80132686D01*
X125867314Y-80039500D01*
X125785714Y-79992388D01*
X125753187Y-79973608D01*
X125675092Y-79952683D01*
X125625892Y-79939500D01*
X125494108Y-79939500D01*
X125366812Y-79973608D01*
X125252686Y-80039500D01*
X125252683Y-80039502D01*
X125189005Y-80103181D01*
X125127682Y-80136666D01*
X125101324Y-80139500D01*
X118430438Y-80139500D01*
X118392224Y-80149739D01*
X118354009Y-80159979D01*
X118354008Y-80159980D01*
X118296354Y-80193266D01*
X118296354Y-80193267D01*
X118285489Y-80199540D01*
X118229514Y-80255515D01*
X118168190Y-80288999D01*
X118098499Y-80284014D01*
X118042565Y-80242143D01*
X118022058Y-80199926D01*
X118020500Y-80194111D01*
X118020500Y-80194108D01*
X117986392Y-80066814D01*
X117986219Y-80066515D01*
X117970622Y-80039500D01*
X117920500Y-79952686D01*
X117827314Y-79859500D01*
X117770250Y-79826554D01*
X117713187Y-79793608D01*
X117649539Y-79776554D01*
X117585892Y-79759500D01*
X117454108Y-79759500D01*
X117326812Y-79793608D01*
X117212686Y-79859500D01*
X117212683Y-79859502D01*
X117119502Y-79952683D01*
X117119500Y-79952686D01*
X117053608Y-80066812D01*
X117035958Y-80132686D01*
X117019500Y-80194108D01*
X117019500Y-80325892D01*
X117032419Y-80374108D01*
X117053609Y-80453188D01*
X117056720Y-80460700D01*
X117054572Y-80461589D01*
X117068229Y-80517875D01*
X117045379Y-80583903D01*
X116990459Y-80627095D01*
X116944369Y-80635979D01*
X115820276Y-80635979D01*
X115753237Y-80616294D01*
X115707482Y-80563490D01*
X115697538Y-80494332D01*
X115700501Y-80479887D01*
X115701979Y-80474371D01*
X115701979Y-80342587D01*
X115667871Y-80215293D01*
X115601979Y-80101165D01*
X115508793Y-80007979D01*
X115413018Y-79952683D01*
X115394664Y-79942086D01*
X115387161Y-79938979D01*
X115387937Y-79937103D01*
X115337589Y-79906406D01*
X115307067Y-79843556D01*
X115305353Y-79823007D01*
X115305353Y-79733311D01*
X115305353Y-79733309D01*
X115271245Y-79606015D01*
X115205353Y-79491887D01*
X115112167Y-79398701D01*
X115032569Y-79352745D01*
X114998040Y-79332809D01*
X114934392Y-79315755D01*
X114870745Y-79298701D01*
X114738961Y-79298701D01*
X114611664Y-79332809D01*
X114586499Y-79347339D01*
X114580597Y-79348770D01*
X114576011Y-79352745D01*
X114547040Y-79356910D01*
X114518598Y-79363810D01*
X114512862Y-79361824D01*
X114506853Y-79362689D01*
X114480223Y-79350527D01*
X114452572Y-79340957D01*
X114448820Y-79336186D01*
X114443297Y-79333664D01*
X114427471Y-79309038D01*
X114409382Y-79286036D01*
X114407965Y-79278686D01*
X114405523Y-79274886D01*
X114400500Y-79239951D01*
X114400500Y-79145832D01*
X114420185Y-79078793D01*
X114436819Y-79058151D01*
X115637863Y-77857108D01*
X118509500Y-77857108D01*
X118509500Y-77988892D01*
X118524850Y-78046178D01*
X118543608Y-78116187D01*
X118576554Y-78173250D01*
X118609500Y-78230314D01*
X118702686Y-78323500D01*
X118816814Y-78389392D01*
X118944108Y-78423500D01*
X118944110Y-78423500D01*
X119075890Y-78423500D01*
X119075892Y-78423500D01*
X119203186Y-78389392D01*
X119212338Y-78384108D01*
X120519500Y-78384108D01*
X120519500Y-78515892D01*
X120520467Y-78519500D01*
X120553608Y-78643187D01*
X120561282Y-78656478D01*
X120619500Y-78757314D01*
X120712686Y-78850500D01*
X120826814Y-78916392D01*
X120954108Y-78950500D01*
X120954110Y-78950500D01*
X121085890Y-78950500D01*
X121085892Y-78950500D01*
X121213186Y-78916392D01*
X121327314Y-78850500D01*
X121420500Y-78757314D01*
X121486392Y-78643186D01*
X121516075Y-78532404D01*
X121552439Y-78472747D01*
X121615285Y-78442217D01*
X121635849Y-78440500D01*
X121765196Y-78440500D01*
X121765198Y-78440500D01*
X121892492Y-78406392D01*
X122006620Y-78340500D01*
X122099806Y-78247314D01*
X122165698Y-78133186D01*
X122199806Y-78005892D01*
X122199806Y-77894108D01*
X122469500Y-77894108D01*
X122469500Y-78025892D01*
X122484933Y-78083488D01*
X122503608Y-78153187D01*
X122525151Y-78190499D01*
X122569500Y-78267314D01*
X122662686Y-78360500D01*
X122776814Y-78426392D01*
X122904108Y-78460500D01*
X122904110Y-78460500D01*
X123035890Y-78460500D01*
X123035892Y-78460500D01*
X123163186Y-78426392D01*
X123277314Y-78360500D01*
X123370500Y-78267314D01*
X123436392Y-78153186D01*
X123470500Y-78025892D01*
X123470500Y-77894108D01*
X123436392Y-77766814D01*
X123433208Y-77761300D01*
X123415029Y-77729812D01*
X123370500Y-77652686D01*
X123277314Y-77559500D01*
X123201229Y-77515572D01*
X123163187Y-77493608D01*
X123081591Y-77471745D01*
X123035892Y-77459500D01*
X122904108Y-77459500D01*
X122776812Y-77493608D01*
X122662686Y-77559500D01*
X122662683Y-77559502D01*
X122569502Y-77652683D01*
X122569500Y-77652686D01*
X122503608Y-77766812D01*
X122479740Y-77855891D01*
X122469500Y-77894108D01*
X122199806Y-77894108D01*
X122199806Y-77874108D01*
X122165698Y-77746814D01*
X122162723Y-77741662D01*
X122152589Y-77724108D01*
X122099806Y-77632686D01*
X122006620Y-77539500D01*
X121943724Y-77503187D01*
X121892493Y-77473608D01*
X121828845Y-77456554D01*
X121765198Y-77439500D01*
X121633414Y-77439500D01*
X121506118Y-77473608D01*
X121391992Y-77539500D01*
X121391989Y-77539502D01*
X121298808Y-77632683D01*
X121298806Y-77632686D01*
X121232914Y-77746812D01*
X121224989Y-77776391D01*
X121203230Y-77857595D01*
X121166867Y-77917253D01*
X121104021Y-77947783D01*
X121083457Y-77949500D01*
X120954108Y-77949500D01*
X120826812Y-77983608D01*
X120712686Y-78049500D01*
X120712683Y-78049502D01*
X120619502Y-78142683D01*
X120619500Y-78142686D01*
X120553608Y-78256812D01*
X120522961Y-78371191D01*
X120519500Y-78384108D01*
X119212338Y-78384108D01*
X119317314Y-78323500D01*
X119410500Y-78230314D01*
X119476392Y-78116186D01*
X119510500Y-77988892D01*
X119510500Y-77934500D01*
X119530185Y-77867461D01*
X119582989Y-77821706D01*
X119634500Y-77810500D01*
X119755890Y-77810500D01*
X119755892Y-77810500D01*
X119883186Y-77776392D01*
X119997314Y-77710500D01*
X120090500Y-77617314D01*
X120156392Y-77503186D01*
X120190500Y-77375892D01*
X120190500Y-77244108D01*
X120156392Y-77116814D01*
X120090500Y-77002686D01*
X119997314Y-76909500D01*
X119924568Y-76867500D01*
X119883187Y-76843608D01*
X119815755Y-76825540D01*
X119755892Y-76809500D01*
X119624108Y-76809500D01*
X119496812Y-76843608D01*
X119382686Y-76909500D01*
X119382683Y-76909502D01*
X119289502Y-77002683D01*
X119289500Y-77002686D01*
X119223608Y-77116812D01*
X119189500Y-77244108D01*
X119189500Y-77298500D01*
X119169815Y-77365539D01*
X119117011Y-77411294D01*
X119065500Y-77422500D01*
X118944108Y-77422500D01*
X118816812Y-77456608D01*
X118702686Y-77522500D01*
X118702683Y-77522502D01*
X118609502Y-77615683D01*
X118609500Y-77615686D01*
X118543608Y-77729812D01*
X118520416Y-77816367D01*
X118509500Y-77857108D01*
X115637863Y-77857108D01*
X115733671Y-77761300D01*
X116092152Y-77402819D01*
X116153475Y-77369334D01*
X116179833Y-77366500D01*
X116551324Y-77366500D01*
X116618363Y-77386185D01*
X116639005Y-77402819D01*
X116702686Y-77466500D01*
X116816814Y-77532392D01*
X116944108Y-77566500D01*
X116944110Y-77566500D01*
X117075890Y-77566500D01*
X117075892Y-77566500D01*
X117203186Y-77532392D01*
X117317314Y-77466500D01*
X117410500Y-77373314D01*
X117476392Y-77259186D01*
X117510500Y-77131892D01*
X117510500Y-77041832D01*
X117530185Y-76974793D01*
X117546819Y-76954151D01*
X119536862Y-74964108D01*
X125079500Y-74964108D01*
X125079500Y-75095892D01*
X125084859Y-75115891D01*
X125113608Y-75223187D01*
X125140186Y-75269221D01*
X125179500Y-75337314D01*
X125272686Y-75430500D01*
X125386814Y-75496392D01*
X125514108Y-75530500D01*
X125514110Y-75530500D01*
X125645890Y-75530500D01*
X125645892Y-75530500D01*
X125773186Y-75496392D01*
X125887314Y-75430500D01*
X125980500Y-75337314D01*
X126046392Y-75223186D01*
X126080500Y-75095892D01*
X126080500Y-74964108D01*
X126046392Y-74836814D01*
X125980500Y-74722686D01*
X125887314Y-74629500D01*
X125807827Y-74583608D01*
X125773187Y-74563608D01*
X125709539Y-74546554D01*
X125645892Y-74529500D01*
X125514108Y-74529500D01*
X125386812Y-74563608D01*
X125272686Y-74629500D01*
X125272683Y-74629502D01*
X125179502Y-74722683D01*
X125179500Y-74722686D01*
X125113608Y-74836812D01*
X125108249Y-74856814D01*
X125079500Y-74964108D01*
X119536862Y-74964108D01*
X119971470Y-74529500D01*
X122987674Y-71513296D01*
X123043260Y-71481204D01*
X123045887Y-71480500D01*
X123045892Y-71480500D01*
X123173186Y-71446392D01*
X123287314Y-71380500D01*
X123380500Y-71287314D01*
X123446392Y-71173186D01*
X123480500Y-71045892D01*
X123480500Y-70914108D01*
X123446392Y-70786814D01*
X123380500Y-70672686D01*
X123287314Y-70579500D01*
X123188910Y-70522686D01*
X123173187Y-70513608D01*
X123109539Y-70496554D01*
X123045892Y-70479500D01*
X122914108Y-70479500D01*
X122786812Y-70513608D01*
X122672686Y-70579500D01*
X122672683Y-70579502D01*
X122579502Y-70672683D01*
X122579500Y-70672686D01*
X122513608Y-70786812D01*
X122479500Y-70914108D01*
X122479500Y-71045891D01*
X122487521Y-71075826D01*
X122485858Y-71145676D01*
X122455427Y-71195600D01*
X117121847Y-76529181D01*
X117060524Y-76562666D01*
X117034166Y-76565500D01*
X116944108Y-76565500D01*
X116816812Y-76599608D01*
X116702686Y-76665500D01*
X116702683Y-76665502D01*
X116639005Y-76729181D01*
X116577682Y-76762666D01*
X116551324Y-76765500D01*
X115964438Y-76765500D01*
X115926224Y-76775739D01*
X115888009Y-76785979D01*
X115888008Y-76785980D01*
X115842651Y-76812166D01*
X115842652Y-76812167D01*
X115819489Y-76825540D01*
X115704099Y-76940929D01*
X115642775Y-76974413D01*
X115573083Y-76969428D01*
X115517150Y-76927557D01*
X115496645Y-76885343D01*
X115477038Y-76812168D01*
X115411146Y-76698040D01*
X115317960Y-76604854D01*
X115260896Y-76571908D01*
X115203833Y-76538962D01*
X115140185Y-76521908D01*
X115076538Y-76504854D01*
X114944754Y-76504854D01*
X114817458Y-76538962D01*
X114703332Y-76604854D01*
X114703329Y-76604856D01*
X114610148Y-76698037D01*
X114610146Y-76698040D01*
X114544254Y-76812166D01*
X114510146Y-76939462D01*
X114510146Y-77071245D01*
X114544254Y-77198541D01*
X114562706Y-77230500D01*
X114610146Y-77312668D01*
X114703332Y-77405854D01*
X114817460Y-77471746D01*
X114890633Y-77491352D01*
X114950292Y-77527715D01*
X114980822Y-77590562D01*
X114972528Y-77659937D01*
X114946220Y-77698807D01*
X114011847Y-78633181D01*
X113950524Y-78666666D01*
X113924166Y-78669500D01*
X113834108Y-78669500D01*
X113706812Y-78703608D01*
X113592686Y-78769500D01*
X113592683Y-78769502D01*
X113499502Y-78862683D01*
X113499500Y-78862686D01*
X113433608Y-78976812D01*
X113399500Y-79104108D01*
X113399500Y-79235891D01*
X113433608Y-79363187D01*
X113454114Y-79398703D01*
X113499500Y-79477314D01*
X113592686Y-79570500D01*
X113706814Y-79636392D01*
X113834108Y-79670500D01*
X113834110Y-79670500D01*
X113965890Y-79670500D01*
X113965892Y-79670500D01*
X114093186Y-79636392D01*
X114118353Y-79621861D01*
X114186252Y-79605389D01*
X114252279Y-79628241D01*
X114295470Y-79683162D01*
X114304353Y-79729249D01*
X114304353Y-79733309D01*
X114304353Y-79865093D01*
X114308265Y-79879694D01*
X114338461Y-79992388D01*
X114368327Y-80044116D01*
X114404353Y-80106515D01*
X114497539Y-80199701D01*
X114611667Y-80265593D01*
X114611672Y-80265594D01*
X114619174Y-80268702D01*
X114618395Y-80270581D01*
X114630560Y-80277995D01*
X114653907Y-80287419D01*
X114659888Y-80295869D01*
X114668728Y-80301257D01*
X114679728Y-80323898D01*
X114694274Y-80344448D01*
X114696656Y-80358741D01*
X114699261Y-80364102D01*
X114700855Y-80379123D01*
X114700979Y-80381891D01*
X114700979Y-80474371D01*
X114705953Y-80492936D01*
X114706558Y-80506430D01*
X114701316Y-80527769D01*
X114700794Y-80549736D01*
X114693146Y-80561034D01*
X114689893Y-80574283D01*
X114673948Y-80589400D01*
X114661631Y-80607599D01*
X114649089Y-80612969D01*
X114639190Y-80622355D01*
X114617601Y-80626452D01*
X114597402Y-80635102D01*
X114582682Y-80635979D01*
X110286321Y-80635979D01*
X110219282Y-80616294D01*
X110177033Y-80567537D01*
X110176414Y-80567895D01*
X110174557Y-80564678D01*
X110173527Y-80563490D01*
X110172473Y-80561069D01*
X110153247Y-80527769D01*
X110106458Y-80446728D01*
X110013272Y-80353542D01*
X109956208Y-80320596D01*
X109899145Y-80287650D01*
X109779213Y-80255515D01*
X109771850Y-80253542D01*
X109640066Y-80253542D01*
X109551000Y-80277407D01*
X109481150Y-80275744D01*
X109423288Y-80236581D01*
X109411520Y-80219632D01*
X109407508Y-80212683D01*
X109361021Y-80132165D01*
X109267835Y-80038979D01*
X109210771Y-80006033D01*
X109153708Y-79973087D01*
X109077569Y-79952686D01*
X109026413Y-79938979D01*
X108925354Y-79938979D01*
X108858315Y-79919294D01*
X108812560Y-79866490D01*
X108802616Y-79797332D01*
X108831641Y-79733776D01*
X108837673Y-79727298D01*
X109408152Y-79156819D01*
X109469475Y-79123334D01*
X109495833Y-79120500D01*
X110746880Y-79120500D01*
X110813919Y-79140185D01*
X110859674Y-79192989D01*
X110866907Y-79218173D01*
X110867397Y-79218042D01*
X110869500Y-79225890D01*
X110869500Y-79225892D01*
X110881429Y-79270411D01*
X110903608Y-79353187D01*
X110929886Y-79398701D01*
X110969500Y-79467314D01*
X111062686Y-79560500D01*
X111176814Y-79626392D01*
X111304108Y-79660500D01*
X111304110Y-79660500D01*
X111435890Y-79660500D01*
X111435892Y-79660500D01*
X111563186Y-79626392D01*
X111677314Y-79560500D01*
X111770500Y-79467314D01*
X111836392Y-79353186D01*
X111870500Y-79225892D01*
X111870500Y-79094108D01*
X111836392Y-78966814D01*
X111770500Y-78852686D01*
X111677314Y-78759500D01*
X111625451Y-78729557D01*
X111556165Y-78689554D01*
X111538913Y-78671460D01*
X111518898Y-78656478D01*
X111515217Y-78646609D01*
X111507949Y-78638987D01*
X111503218Y-78614438D01*
X111494481Y-78591014D01*
X111496719Y-78580721D01*
X111494727Y-78570380D01*
X111504017Y-78547174D01*
X111509332Y-78522741D01*
X111518933Y-78509914D01*
X111520695Y-78505515D01*
X111530469Y-78494500D01*
X111625281Y-78399689D01*
X111686599Y-78366207D01*
X111756291Y-78371191D01*
X111812225Y-78413062D01*
X111832733Y-78455279D01*
X111853608Y-78533186D01*
X111919500Y-78647314D01*
X112012686Y-78740500D01*
X112126814Y-78806392D01*
X112254108Y-78840500D01*
X112254110Y-78840500D01*
X112385890Y-78840500D01*
X112385892Y-78840500D01*
X112513186Y-78806392D01*
X112627314Y-78740500D01*
X112720500Y-78647314D01*
X112786392Y-78533186D01*
X112820500Y-78405892D01*
X112820500Y-78274108D01*
X112786392Y-78146814D01*
X112720500Y-78032686D01*
X112627314Y-77939500D01*
X112513186Y-77873608D01*
X112435279Y-77852733D01*
X112430095Y-77849573D01*
X112424039Y-77849140D01*
X112400606Y-77831598D01*
X112375619Y-77816367D01*
X112372966Y-77810906D01*
X112368106Y-77807268D01*
X112357877Y-77779845D01*
X112345090Y-77753520D01*
X112345810Y-77747491D01*
X112343689Y-77741803D01*
X112349910Y-77713203D01*
X112353385Y-77684145D01*
X112357580Y-77677946D01*
X112358541Y-77673531D01*
X112379684Y-77645286D01*
X112480901Y-77544069D01*
X112542221Y-77510588D01*
X112611912Y-77515572D01*
X112656259Y-77544073D01*
X112702686Y-77590500D01*
X112816814Y-77656392D01*
X112944108Y-77690500D01*
X112944110Y-77690500D01*
X113075890Y-77690500D01*
X113075892Y-77690500D01*
X113203186Y-77656392D01*
X113317314Y-77590500D01*
X113410500Y-77497314D01*
X113476392Y-77383186D01*
X113510500Y-77255892D01*
X113510500Y-77124108D01*
X113476392Y-76996814D01*
X113410500Y-76882686D01*
X113317314Y-76789500D01*
X113260250Y-76756554D01*
X113203187Y-76723608D01*
X113107764Y-76698040D01*
X113075892Y-76689500D01*
X112944108Y-76689500D01*
X112816812Y-76723608D01*
X112702686Y-76789500D01*
X112702683Y-76789502D01*
X112639005Y-76853181D01*
X112577682Y-76886666D01*
X112551324Y-76889500D01*
X112370438Y-76889500D01*
X112339867Y-76897691D01*
X112294008Y-76909979D01*
X112294007Y-76909980D01*
X112242946Y-76939461D01*
X112242945Y-76939462D01*
X112225490Y-76949539D01*
X112225487Y-76949541D01*
X111115479Y-78059549D01*
X111054156Y-78093034D01*
X110984464Y-78088050D01*
X110928531Y-78046178D01*
X110904114Y-77980714D01*
X110908022Y-77939780D01*
X110930500Y-77855892D01*
X110930500Y-77724108D01*
X110896392Y-77596814D01*
X110830500Y-77482686D01*
X110737314Y-77389500D01*
X110680250Y-77356554D01*
X110623187Y-77323608D01*
X110559539Y-77306554D01*
X110495892Y-77289500D01*
X110364108Y-77289500D01*
X110236812Y-77323608D01*
X110122686Y-77389500D01*
X110122683Y-77389502D01*
X110029502Y-77482683D01*
X110029500Y-77482686D01*
X109963608Y-77596812D01*
X109940208Y-77684145D01*
X109929500Y-77724108D01*
X109929500Y-77855892D01*
X109939740Y-77894108D01*
X109963608Y-77983187D01*
X109976717Y-78005892D01*
X110029500Y-78097314D01*
X110122686Y-78190500D01*
X110236814Y-78256392D01*
X110308969Y-78275725D01*
X110368629Y-78312090D01*
X110399158Y-78374937D01*
X110390863Y-78444312D01*
X110346378Y-78498190D01*
X110279826Y-78519465D01*
X110276875Y-78519500D01*
X109280438Y-78519500D01*
X109242224Y-78529739D01*
X109204009Y-78539979D01*
X109204008Y-78539980D01*
X109170196Y-78559502D01*
X109154611Y-78568500D01*
X109151355Y-78570380D01*
X109135489Y-78579539D01*
X105989541Y-81725487D01*
X105989535Y-81725495D01*
X105949982Y-81794004D01*
X105949979Y-81794009D01*
X105943149Y-81819500D01*
X105929500Y-81870438D01*
X103688799Y-81870438D01*
X103666392Y-81786814D01*
X103600500Y-81672686D01*
X103507314Y-81579500D01*
X103430448Y-81535121D01*
X103393187Y-81513608D01*
X103329539Y-81496554D01*
X103265892Y-81479500D01*
X103134108Y-81479500D01*
X103006812Y-81513608D01*
X102958499Y-81541502D01*
X102890599Y-81557974D01*
X102824572Y-81535121D01*
X102781382Y-81480199D01*
X102772500Y-81434114D01*
X102772500Y-80013419D01*
X102792185Y-79946380D01*
X102844989Y-79900625D01*
X102914147Y-79890681D01*
X102977703Y-79919706D01*
X103003887Y-79951419D01*
X103057406Y-80044116D01*
X103150592Y-80137302D01*
X103264720Y-80203194D01*
X103392014Y-80237302D01*
X103392016Y-80237302D01*
X103523796Y-80237302D01*
X103523798Y-80237302D01*
X103523799Y-80237301D01*
X103531854Y-80236241D01*
X103532141Y-80238420D01*
X103590490Y-80239805D01*
X103648355Y-80278963D01*
X103675864Y-80343190D01*
X103672517Y-80390012D01*
X103651885Y-80467013D01*
X103651885Y-80598798D01*
X103685993Y-80726094D01*
X103698244Y-80747313D01*
X103751885Y-80840221D01*
X103845071Y-80933407D01*
X103959199Y-80999299D01*
X104086493Y-81033407D01*
X104086495Y-81033407D01*
X104218275Y-81033407D01*
X104218277Y-81033407D01*
X104345571Y-80999299D01*
X104459699Y-80933407D01*
X104552885Y-80840221D01*
X104618777Y-80726093D01*
X104652885Y-80598799D01*
X104652885Y-80467015D01*
X104618777Y-80339721D01*
X104552885Y-80225593D01*
X104459699Y-80132407D01*
X104402635Y-80099461D01*
X104345572Y-80066515D01*
X104244756Y-80039502D01*
X104218277Y-80032407D01*
X104086493Y-80032407D01*
X104086491Y-80032407D01*
X104078437Y-80033468D01*
X104078150Y-80031293D01*
X104019771Y-80029893D01*
X103961915Y-79990721D01*
X103934422Y-79926487D01*
X103937772Y-79879699D01*
X103958406Y-79802694D01*
X103958406Y-79670910D01*
X103924298Y-79543616D01*
X103858406Y-79429488D01*
X103765220Y-79336302D01*
X103651092Y-79270410D01*
X103568298Y-79248225D01*
X103508639Y-79211861D01*
X103478110Y-79149014D01*
X103480617Y-79096362D01*
X103499500Y-79025892D01*
X103499500Y-78894108D01*
X103465392Y-78766814D01*
X103399500Y-78652686D01*
X103306314Y-78559500D01*
X103192186Y-78493608D01*
X103192185Y-78493607D01*
X103185147Y-78489544D01*
X103186269Y-78487600D01*
X103140947Y-78451065D01*
X103118892Y-78384767D01*
X103136182Y-78317071D01*
X103155127Y-78292686D01*
X103180500Y-78267314D01*
X103246392Y-78153186D01*
X103280500Y-78025892D01*
X103280500Y-77894108D01*
X103246392Y-77766814D01*
X103243208Y-77761300D01*
X103225029Y-77729812D01*
X103180500Y-77652686D01*
X103087314Y-77559500D01*
X103011229Y-77515572D01*
X102973187Y-77493608D01*
X102891591Y-77471745D01*
X102845892Y-77459500D01*
X102714108Y-77459500D01*
X102586812Y-77493608D01*
X102472686Y-77559500D01*
X102472683Y-77559502D01*
X102379502Y-77652683D01*
X102379500Y-77652686D01*
X102313608Y-77766812D01*
X102279500Y-77894108D01*
X102279500Y-77984166D01*
X102259815Y-78051205D01*
X102243181Y-78071847D01*
X102231539Y-78083488D01*
X102191982Y-78152004D01*
X102191979Y-78152009D01*
X102171500Y-78228439D01*
X102171500Y-82821561D01*
X102172561Y-82829621D01*
X102171947Y-82829701D01*
X102174500Y-82849083D01*
X102174500Y-82856323D01*
X102154815Y-82923362D01*
X102138182Y-82944004D01*
X102074500Y-83007686D01*
X102008608Y-83121812D01*
X101989709Y-83192345D01*
X101974500Y-83249108D01*
X101974500Y-83380892D01*
X101978385Y-83395390D01*
X102008608Y-83508187D01*
X102023574Y-83534108D01*
X102074500Y-83622314D01*
X102074502Y-83622316D01*
X102138181Y-83685995D01*
X102171666Y-83747318D01*
X102174500Y-83773676D01*
X102174500Y-87669166D01*
X102154815Y-87736205D01*
X102138181Y-87756847D01*
X101841847Y-88053181D01*
X101780524Y-88086666D01*
X101754166Y-88089500D01*
X101664108Y-88089500D01*
X101536812Y-88123608D01*
X101422686Y-88189500D01*
X101422683Y-88189502D01*
X101329502Y-88282683D01*
X101329500Y-88282686D01*
X101263608Y-88396812D01*
X101249129Y-88450851D01*
X101229500Y-88524108D01*
X97970500Y-88524108D01*
X97970500Y-84598995D01*
X99174499Y-84598995D01*
X99201418Y-84734322D01*
X99201421Y-84734332D01*
X99254221Y-84861804D01*
X99254228Y-84861817D01*
X99330885Y-84976541D01*
X99330888Y-84976545D01*
X99428454Y-85074111D01*
X99428458Y-85074114D01*
X99543182Y-85150771D01*
X99543195Y-85150778D01*
X99670667Y-85203578D01*
X99670672Y-85203580D01*
X99670676Y-85203580D01*
X99670677Y-85203581D01*
X99806004Y-85230500D01*
X99806007Y-85230500D01*
X100743995Y-85230500D01*
X100856137Y-85208193D01*
X100879328Y-85203580D01*
X101006811Y-85150775D01*
X101121542Y-85074114D01*
X101219114Y-84976542D01*
X101295775Y-84861811D01*
X101348580Y-84734328D01*
X101362413Y-84664784D01*
X101375500Y-84598995D01*
X101375500Y-84461004D01*
X101348581Y-84325677D01*
X101348580Y-84325676D01*
X101348580Y-84325672D01*
X101314209Y-84242692D01*
X101295778Y-84198195D01*
X101295771Y-84198182D01*
X101219114Y-84083458D01*
X101219111Y-84083454D01*
X101121545Y-83985888D01*
X101121541Y-83985885D01*
X101006817Y-83909228D01*
X101006804Y-83909221D01*
X100879332Y-83856421D01*
X100879322Y-83856418D01*
X100743995Y-83829500D01*
X100743993Y-83829500D01*
X99806007Y-83829500D01*
X99806005Y-83829500D01*
X99670677Y-83856418D01*
X99670667Y-83856421D01*
X99543195Y-83909221D01*
X99543182Y-83909228D01*
X99428458Y-83985885D01*
X99428454Y-83985888D01*
X99330888Y-84083454D01*
X99330885Y-84083458D01*
X99254228Y-84198182D01*
X99254221Y-84198195D01*
X99201421Y-84325667D01*
X99201418Y-84325677D01*
X99174500Y-84461004D01*
X99174500Y-84461007D01*
X99174500Y-84598993D01*
X99174500Y-84598995D01*
X99174499Y-84598995D01*
X97970500Y-84598995D01*
X97970500Y-80454108D01*
X99489500Y-80454108D01*
X99489500Y-80585892D01*
X99495316Y-80607599D01*
X99523608Y-80713187D01*
X99541603Y-80744355D01*
X99589500Y-80827314D01*
X99682686Y-80920500D01*
X99776440Y-80974629D01*
X99789913Y-80982408D01*
X99796814Y-80986392D01*
X99924108Y-81020500D01*
X99924110Y-81020500D01*
X100055890Y-81020500D01*
X100055892Y-81020500D01*
X100183186Y-80986392D01*
X100297314Y-80920500D01*
X100390500Y-80827314D01*
X100456392Y-80713186D01*
X100490500Y-80585892D01*
X100490500Y-80454108D01*
X100456392Y-80326814D01*
X100454708Y-80323898D01*
X100434559Y-80288999D01*
X100390500Y-80212686D01*
X100297314Y-80119500D01*
X100240250Y-80086554D01*
X100183187Y-80053608D01*
X100099904Y-80031293D01*
X100055892Y-80019500D01*
X99924108Y-80019500D01*
X99796812Y-80053608D01*
X99682686Y-80119500D01*
X99682683Y-80119502D01*
X99589502Y-80212683D01*
X99589500Y-80212686D01*
X99523608Y-80326812D01*
X99510935Y-80374110D01*
X99489500Y-80454108D01*
X97970500Y-80454108D01*
X97970500Y-77260427D01*
X103502500Y-77260427D01*
X103502500Y-77379573D01*
X103508729Y-77402819D01*
X103533337Y-77494660D01*
X103545411Y-77515572D01*
X103592910Y-77597842D01*
X103677158Y-77682090D01*
X103780341Y-77741663D01*
X103895427Y-77772500D01*
X103895429Y-77772500D01*
X104014571Y-77772500D01*
X104014573Y-77772500D01*
X104129659Y-77741663D01*
X104232842Y-77682090D01*
X104317090Y-77597842D01*
X104376663Y-77494659D01*
X104407500Y-77379573D01*
X104407500Y-77260427D01*
X104376663Y-77145341D01*
X104317090Y-77042158D01*
X104232842Y-76957910D01*
X104180269Y-76927557D01*
X104129660Y-76898337D01*
X104071237Y-76882683D01*
X104014573Y-76867500D01*
X103895427Y-76867500D01*
X103780339Y-76898337D01*
X103677158Y-76957910D01*
X103677155Y-76957912D01*
X103592912Y-77042155D01*
X103592910Y-77042158D01*
X103533337Y-77145339D01*
X103530264Y-77156809D01*
X103502500Y-77260427D01*
X97970500Y-77260427D01*
X97970500Y-76764108D01*
X107019500Y-76764108D01*
X107019500Y-76895892D01*
X107031568Y-76940929D01*
X107053608Y-77023187D01*
X107086554Y-77080250D01*
X107119500Y-77137314D01*
X107212686Y-77230500D01*
X107326814Y-77296392D01*
X107454108Y-77330500D01*
X107454110Y-77330500D01*
X107585890Y-77330500D01*
X107585892Y-77330500D01*
X107713186Y-77296392D01*
X107827314Y-77230500D01*
X107920500Y-77137314D01*
X107986392Y-77023186D01*
X108020500Y-76895892D01*
X108020500Y-76764108D01*
X107986392Y-76636814D01*
X107920500Y-76522686D01*
X107827314Y-76429500D01*
X107770250Y-76396554D01*
X107713187Y-76363608D01*
X107649539Y-76346554D01*
X107585892Y-76329500D01*
X107454108Y-76329500D01*
X107326812Y-76363608D01*
X107212686Y-76429500D01*
X107212683Y-76429502D01*
X107119502Y-76522683D01*
X107119500Y-76522686D01*
X107053608Y-76636812D01*
X107020953Y-76758686D01*
X107019500Y-76764108D01*
X97970500Y-76764108D01*
X97970500Y-75958995D01*
X99174499Y-75958995D01*
X99201418Y-76094322D01*
X99201421Y-76094332D01*
X99254221Y-76221804D01*
X99254228Y-76221817D01*
X99330885Y-76336541D01*
X99330888Y-76336545D01*
X99428454Y-76434111D01*
X99428458Y-76434114D01*
X99543182Y-76510771D01*
X99543195Y-76510778D01*
X99668465Y-76562666D01*
X99670672Y-76563580D01*
X99670676Y-76563580D01*
X99670677Y-76563581D01*
X99806004Y-76590500D01*
X99806007Y-76590500D01*
X100743995Y-76590500D01*
X100835041Y-76572389D01*
X100879328Y-76563580D01*
X101006811Y-76510775D01*
X101121542Y-76434114D01*
X101219114Y-76336542D01*
X101295775Y-76221811D01*
X101348580Y-76094328D01*
X101375500Y-75958995D01*
X103204499Y-75958995D01*
X103231418Y-76094322D01*
X103231421Y-76094332D01*
X103284221Y-76221804D01*
X103284228Y-76221817D01*
X103360885Y-76336541D01*
X103360888Y-76336545D01*
X103458454Y-76434111D01*
X103458458Y-76434114D01*
X103573182Y-76510771D01*
X103573195Y-76510778D01*
X103698465Y-76562666D01*
X103700672Y-76563580D01*
X103700676Y-76563580D01*
X103700677Y-76563581D01*
X103836004Y-76590500D01*
X103836007Y-76590500D01*
X105073995Y-76590500D01*
X105165041Y-76572389D01*
X105209328Y-76563580D01*
X105336811Y-76510775D01*
X105451542Y-76434114D01*
X105549114Y-76336542D01*
X105625775Y-76221811D01*
X105678580Y-76094328D01*
X105705500Y-75958993D01*
X105705500Y-75821007D01*
X105705500Y-75821004D01*
X105678581Y-75685677D01*
X105678580Y-75685676D01*
X105678580Y-75685672D01*
X105678578Y-75685667D01*
X105625778Y-75558195D01*
X105625771Y-75558182D01*
X105549114Y-75443458D01*
X105549111Y-75443454D01*
X105451545Y-75345888D01*
X105451541Y-75345885D01*
X105336817Y-75269228D01*
X105336804Y-75269221D01*
X105209332Y-75216421D01*
X105209322Y-75216418D01*
X105073995Y-75189500D01*
X105073993Y-75189500D01*
X103836007Y-75189500D01*
X103836005Y-75189500D01*
X103700677Y-75216418D01*
X103700667Y-75216421D01*
X103573195Y-75269221D01*
X103573182Y-75269228D01*
X103458458Y-75345885D01*
X103458454Y-75345888D01*
X103360888Y-75443454D01*
X103360885Y-75443458D01*
X103284228Y-75558182D01*
X103284221Y-75558195D01*
X103231421Y-75685667D01*
X103231418Y-75685677D01*
X103204500Y-75821004D01*
X103204500Y-75821007D01*
X103204500Y-75958993D01*
X103204500Y-75958995D01*
X103204499Y-75958995D01*
X101375500Y-75958995D01*
X101375500Y-75958993D01*
X101375500Y-75821007D01*
X101375500Y-75821004D01*
X101348581Y-75685677D01*
X101348580Y-75685676D01*
X101348580Y-75685672D01*
X101348578Y-75685667D01*
X101295778Y-75558195D01*
X101295771Y-75558182D01*
X101219114Y-75443458D01*
X101219111Y-75443454D01*
X101121545Y-75345888D01*
X101121541Y-75345885D01*
X101006817Y-75269228D01*
X101006804Y-75269221D01*
X100879332Y-75216421D01*
X100879322Y-75216418D01*
X100743995Y-75189500D01*
X100743993Y-75189500D01*
X99806007Y-75189500D01*
X99806005Y-75189500D01*
X99670677Y-75216418D01*
X99670667Y-75216421D01*
X99543195Y-75269221D01*
X99543182Y-75269228D01*
X99428458Y-75345885D01*
X99428454Y-75345888D01*
X99330888Y-75443454D01*
X99330885Y-75443458D01*
X99254228Y-75558182D01*
X99254221Y-75558195D01*
X99201421Y-75685667D01*
X99201418Y-75685677D01*
X99174500Y-75821004D01*
X99174500Y-75821007D01*
X99174500Y-75958993D01*
X99174500Y-75958995D01*
X99174499Y-75958995D01*
X97970500Y-75958995D01*
X97970500Y-74984108D01*
X107447500Y-74984108D01*
X107447500Y-75115891D01*
X107481608Y-75243187D01*
X107496643Y-75269228D01*
X107547500Y-75357314D01*
X107640686Y-75450500D01*
X107754814Y-75516392D01*
X107882108Y-75550500D01*
X107882110Y-75550500D01*
X108013890Y-75550500D01*
X108013892Y-75550500D01*
X108141186Y-75516392D01*
X108255314Y-75450500D01*
X108348500Y-75357314D01*
X108414392Y-75243186D01*
X108448500Y-75115892D01*
X108448500Y-74984108D01*
X108414392Y-74856814D01*
X108348500Y-74742686D01*
X108255314Y-74649500D01*
X108198250Y-74616554D01*
X108141187Y-74583608D01*
X108066544Y-74563608D01*
X108013892Y-74549500D01*
X107882108Y-74549500D01*
X107754812Y-74583608D01*
X107640686Y-74649500D01*
X107640683Y-74649502D01*
X107547502Y-74742683D01*
X107547500Y-74742686D01*
X107481608Y-74856812D01*
X107447500Y-74984108D01*
X97970500Y-74984108D01*
X97970500Y-73394108D01*
X103889500Y-73394108D01*
X103889500Y-73525891D01*
X103923608Y-73653187D01*
X103956554Y-73710250D01*
X103989500Y-73767314D01*
X104082686Y-73860500D01*
X104196814Y-73926392D01*
X104324108Y-73960500D01*
X104324110Y-73960500D01*
X104455890Y-73960500D01*
X104455892Y-73960500D01*
X104583186Y-73926392D01*
X104697314Y-73860500D01*
X104790500Y-73767314D01*
X104856392Y-73653186D01*
X104890500Y-73525892D01*
X104890500Y-73394108D01*
X104856392Y-73266814D01*
X104790500Y-73152686D01*
X104697314Y-73059500D01*
X104640250Y-73026554D01*
X104583187Y-72993608D01*
X104519539Y-72976554D01*
X104455892Y-72959500D01*
X104324108Y-72959500D01*
X104196812Y-72993608D01*
X104082686Y-73059500D01*
X104082683Y-73059502D01*
X103989502Y-73152683D01*
X103989500Y-73152686D01*
X103923608Y-73266812D01*
X103889500Y-73394108D01*
X97970500Y-73394108D01*
X97970500Y-72006530D01*
X98869500Y-72006530D01*
X98869500Y-72213469D01*
X98909868Y-72416412D01*
X98909870Y-72416420D01*
X98989058Y-72607596D01*
X99104024Y-72779657D01*
X99250342Y-72925975D01*
X99250345Y-72925977D01*
X99422402Y-73040941D01*
X99613580Y-73120130D01*
X99816530Y-73160499D01*
X99816534Y-73160500D01*
X99816535Y-73160500D01*
X100023466Y-73160500D01*
X100023467Y-73160499D01*
X100226420Y-73120130D01*
X100417598Y-73040941D01*
X100589655Y-72925977D01*
X100735977Y-72779655D01*
X100850941Y-72607598D01*
X100930130Y-72416420D01*
X100970500Y-72213465D01*
X100970500Y-72006535D01*
X100930130Y-71803580D01*
X100850941Y-71612402D01*
X100735977Y-71440345D01*
X100735975Y-71440342D01*
X100589657Y-71294024D01*
X100494581Y-71230497D01*
X100417598Y-71179059D01*
X100403419Y-71173186D01*
X100226420Y-71099870D01*
X100226412Y-71099868D01*
X100023469Y-71059500D01*
X100023465Y-71059500D01*
X99816535Y-71059500D01*
X99816530Y-71059500D01*
X99613587Y-71099868D01*
X99613579Y-71099870D01*
X99422403Y-71179058D01*
X99250342Y-71294024D01*
X99104024Y-71440342D01*
X98989058Y-71612403D01*
X98909870Y-71803579D01*
X98909868Y-71803587D01*
X98869500Y-72006530D01*
X97970500Y-72006530D01*
X97970500Y-70764108D01*
X121199500Y-70764108D01*
X121199500Y-70895892D01*
X121216554Y-70959539D01*
X121233608Y-71023187D01*
X121246717Y-71045892D01*
X121299500Y-71137314D01*
X121392686Y-71230500D01*
X121491089Y-71287313D01*
X121502712Y-71294024D01*
X121506814Y-71296392D01*
X121634108Y-71330500D01*
X121634110Y-71330500D01*
X121765890Y-71330500D01*
X121765892Y-71330500D01*
X121893186Y-71296392D01*
X122007314Y-71230500D01*
X122100500Y-71137314D01*
X122166392Y-71023186D01*
X122200500Y-70895892D01*
X122200500Y-70764108D01*
X122166392Y-70636814D01*
X122100500Y-70522686D01*
X122007314Y-70429500D01*
X121931927Y-70385975D01*
X121893187Y-70363608D01*
X121829539Y-70346554D01*
X121765892Y-70329500D01*
X121634108Y-70329500D01*
X121506812Y-70363608D01*
X121392686Y-70429500D01*
X121392683Y-70429502D01*
X121299502Y-70522683D01*
X121299500Y-70522686D01*
X121233608Y-70636812D01*
X121223997Y-70672683D01*
X121199500Y-70764108D01*
X97970500Y-70764108D01*
X97970500Y-69466530D01*
X98869500Y-69466530D01*
X98869500Y-69673469D01*
X98909868Y-69876412D01*
X98909870Y-69876420D01*
X98989058Y-70067596D01*
X99104024Y-70239657D01*
X99250342Y-70385975D01*
X99250345Y-70385977D01*
X99422402Y-70500941D01*
X99613580Y-70580130D01*
X99816530Y-70620499D01*
X99816534Y-70620500D01*
X99816535Y-70620500D01*
X100023466Y-70620500D01*
X100023467Y-70620499D01*
X100226420Y-70580130D01*
X100417598Y-70500941D01*
X100589655Y-70385977D01*
X100735977Y-70239655D01*
X100850941Y-70067598D01*
X100930130Y-69876420D01*
X100970500Y-69673465D01*
X100970500Y-69466535D01*
X100930130Y-69263580D01*
X100850941Y-69072402D01*
X100735977Y-68900345D01*
X100735975Y-68900342D01*
X100589658Y-68754025D01*
X100589650Y-68754019D01*
X100567371Y-68739132D01*
X100567297Y-68739084D01*
X100425154Y-68644108D01*
X105469500Y-68644108D01*
X105469500Y-68775891D01*
X105503608Y-68903187D01*
X105536554Y-68960250D01*
X105569500Y-69017314D01*
X105662686Y-69110500D01*
X105776814Y-69176392D01*
X105904108Y-69210500D01*
X105904110Y-69210500D01*
X106035890Y-69210500D01*
X106035892Y-69210500D01*
X106163186Y-69176392D01*
X106277314Y-69110500D01*
X106370500Y-69017314D01*
X106436392Y-68903186D01*
X106470500Y-68775892D01*
X106470500Y-68644108D01*
X106436392Y-68516814D01*
X106370500Y-68402686D01*
X106277314Y-68309500D01*
X106220250Y-68276554D01*
X106163187Y-68243608D01*
X106099539Y-68226554D01*
X106035892Y-68209500D01*
X105904108Y-68209500D01*
X105776812Y-68243608D01*
X105662686Y-68309500D01*
X105662683Y-68309502D01*
X105569502Y-68402683D01*
X105569500Y-68402686D01*
X105503608Y-68516812D01*
X105469500Y-68644108D01*
X100425154Y-68644108D01*
X100417598Y-68639059D01*
X100226420Y-68559870D01*
X100226412Y-68559868D01*
X100023469Y-68519500D01*
X100023465Y-68519500D01*
X99816535Y-68519500D01*
X99816530Y-68519500D01*
X99613587Y-68559868D01*
X99613579Y-68559870D01*
X99422403Y-68639058D01*
X99250342Y-68754024D01*
X99104024Y-68900342D01*
X98989058Y-69072403D01*
X98909870Y-69263579D01*
X98909868Y-69263587D01*
X98869500Y-69466530D01*
X97970500Y-69466530D01*
X97970500Y-66926530D01*
X98869500Y-66926530D01*
X98869500Y-67133469D01*
X98909868Y-67336412D01*
X98909870Y-67336420D01*
X98989058Y-67527596D01*
X99104024Y-67699657D01*
X99250342Y-67845975D01*
X99250345Y-67845977D01*
X99422402Y-67960941D01*
X99613580Y-68040130D01*
X99816530Y-68080499D01*
X99816534Y-68080500D01*
X99816535Y-68080500D01*
X100023466Y-68080500D01*
X100023467Y-68080499D01*
X100226420Y-68040130D01*
X100417598Y-67960941D01*
X100589655Y-67845977D01*
X100735977Y-67699655D01*
X100850941Y-67527598D01*
X100930130Y-67336420D01*
X100970500Y-67133465D01*
X100970500Y-66926535D01*
X100930130Y-66723580D01*
X100926207Y-66714108D01*
X104699500Y-66714108D01*
X104699500Y-66845891D01*
X104733608Y-66973187D01*
X104766554Y-67030250D01*
X104799500Y-67087314D01*
X104892686Y-67180500D01*
X105006814Y-67246392D01*
X105134108Y-67280500D01*
X105134110Y-67280500D01*
X105265890Y-67280500D01*
X105265892Y-67280500D01*
X105393186Y-67246392D01*
X105507314Y-67180500D01*
X105600500Y-67087314D01*
X105666392Y-66973186D01*
X105700500Y-66845892D01*
X105700500Y-66714108D01*
X105666392Y-66586814D01*
X105600500Y-66472686D01*
X105507314Y-66379500D01*
X105450250Y-66346554D01*
X105393187Y-66313608D01*
X105329539Y-66296554D01*
X105265892Y-66279500D01*
X105134108Y-66279500D01*
X105006812Y-66313608D01*
X104892686Y-66379500D01*
X104892683Y-66379502D01*
X104799502Y-66472683D01*
X104799500Y-66472686D01*
X104733608Y-66586812D01*
X104699500Y-66714108D01*
X100926207Y-66714108D01*
X100850941Y-66532402D01*
X100735977Y-66360345D01*
X100735975Y-66360342D01*
X100589657Y-66214024D01*
X100503626Y-66156541D01*
X100417598Y-66099059D01*
X100226420Y-66019870D01*
X100226412Y-66019868D01*
X100023469Y-65979500D01*
X100023465Y-65979500D01*
X99816535Y-65979500D01*
X99816530Y-65979500D01*
X99613587Y-66019868D01*
X99613579Y-66019870D01*
X99422403Y-66099058D01*
X99250342Y-66214024D01*
X99104024Y-66360342D01*
X98989058Y-66532403D01*
X98909870Y-66723579D01*
X98909868Y-66723587D01*
X98869500Y-66926530D01*
X97970500Y-66926530D01*
X97970500Y-64386530D01*
X98869500Y-64386530D01*
X98869500Y-64593469D01*
X98909868Y-64796412D01*
X98909870Y-64796420D01*
X98989058Y-64987596D01*
X99104024Y-65159657D01*
X99250342Y-65305975D01*
X99250345Y-65305977D01*
X99422402Y-65420941D01*
X99613580Y-65500130D01*
X99816530Y-65540499D01*
X99816534Y-65540500D01*
X99816535Y-65540500D01*
X100023466Y-65540500D01*
X100023467Y-65540499D01*
X100226420Y-65500130D01*
X100417598Y-65420941D01*
X100589655Y-65305977D01*
X100735977Y-65159655D01*
X100850941Y-64987598D01*
X100930130Y-64796420D01*
X100941386Y-64739829D01*
X100948492Y-64704108D01*
X115069500Y-64704108D01*
X115069500Y-64835891D01*
X115103608Y-64963187D01*
X115117701Y-64987596D01*
X115169500Y-65077314D01*
X115262686Y-65170500D01*
X115376814Y-65236392D01*
X115504108Y-65270500D01*
X115504110Y-65270500D01*
X115635890Y-65270500D01*
X115635892Y-65270500D01*
X115763186Y-65236392D01*
X115877314Y-65170500D01*
X115970500Y-65077314D01*
X116036392Y-64963186D01*
X116070500Y-64835892D01*
X116070500Y-64704108D01*
X116036392Y-64576814D01*
X115970500Y-64462686D01*
X115877314Y-64369500D01*
X115820250Y-64336554D01*
X115763187Y-64303608D01*
X115699539Y-64286554D01*
X115635892Y-64269500D01*
X115504108Y-64269500D01*
X115376812Y-64303608D01*
X115262686Y-64369500D01*
X115262683Y-64369502D01*
X115169502Y-64462683D01*
X115169500Y-64462686D01*
X115103608Y-64576812D01*
X115069500Y-64704108D01*
X100948492Y-64704108D01*
X100954921Y-64671790D01*
X100970499Y-64593469D01*
X100970500Y-64593466D01*
X100970500Y-64386534D01*
X100970499Y-64386530D01*
X100930131Y-64183587D01*
X100930130Y-64183580D01*
X100850941Y-63992402D01*
X100735977Y-63820345D01*
X100735975Y-63820342D01*
X100589657Y-63674024D01*
X100476993Y-63598745D01*
X100417598Y-63559059D01*
X100226420Y-63479870D01*
X100226412Y-63479868D01*
X100023469Y-63439500D01*
X100023465Y-63439500D01*
X99816535Y-63439500D01*
X99816530Y-63439500D01*
X99613587Y-63479868D01*
X99613579Y-63479870D01*
X99422403Y-63559058D01*
X99250342Y-63674024D01*
X99104024Y-63820342D01*
X98989058Y-63992403D01*
X98909870Y-64183579D01*
X98909868Y-64183587D01*
X98869500Y-64386530D01*
X97970500Y-64386530D01*
X97970500Y-61080247D01*
X98869500Y-61080247D01*
X98869500Y-62819752D01*
X98881131Y-62878229D01*
X98881132Y-62878230D01*
X98925447Y-62944552D01*
X98991769Y-62988867D01*
X98991770Y-62988868D01*
X99050247Y-63000499D01*
X99050250Y-63000500D01*
X99050252Y-63000500D01*
X100789750Y-63000500D01*
X100789751Y-63000499D01*
X100810702Y-62996332D01*
X100848229Y-62988868D01*
X100848229Y-62988867D01*
X100848231Y-62988867D01*
X100914552Y-62944552D01*
X100958867Y-62878231D01*
X100958867Y-62878229D01*
X100958868Y-62878229D01*
X100970499Y-62819752D01*
X100970500Y-62819750D01*
X100970500Y-62704108D01*
X110449500Y-62704108D01*
X110449500Y-62835891D01*
X110483608Y-62963187D01*
X110502745Y-62996332D01*
X110549500Y-63077314D01*
X110642686Y-63170500D01*
X110756814Y-63236392D01*
X110884108Y-63270500D01*
X110884110Y-63270500D01*
X111015890Y-63270500D01*
X111015892Y-63270500D01*
X111143186Y-63236392D01*
X111257314Y-63170500D01*
X111350500Y-63077314D01*
X111356765Y-63066462D01*
X121927146Y-63066462D01*
X121927146Y-63198245D01*
X121961254Y-63325541D01*
X121994200Y-63382604D01*
X122027146Y-63439668D01*
X122120332Y-63532854D01*
X122234460Y-63598746D01*
X122361754Y-63632854D01*
X122361756Y-63632854D01*
X122493536Y-63632854D01*
X122493538Y-63632854D01*
X122620832Y-63598746D01*
X122734960Y-63532854D01*
X122828146Y-63439668D01*
X122894038Y-63325540D01*
X122928146Y-63198246D01*
X122928146Y-63066462D01*
X122894038Y-62939168D01*
X122828146Y-62825040D01*
X122734960Y-62731854D01*
X122677896Y-62698908D01*
X122620833Y-62665962D01*
X122557185Y-62648908D01*
X122493538Y-62631854D01*
X122361754Y-62631854D01*
X122234458Y-62665962D01*
X122120332Y-62731854D01*
X122120329Y-62731856D01*
X122027148Y-62825037D01*
X122027146Y-62825040D01*
X121961254Y-62939166D01*
X121927146Y-63066462D01*
X111356765Y-63066462D01*
X111416392Y-62963186D01*
X111450500Y-62835892D01*
X111450500Y-62704108D01*
X111416392Y-62576814D01*
X111350500Y-62462686D01*
X111257314Y-62369500D01*
X111200250Y-62336554D01*
X111143187Y-62303608D01*
X111079539Y-62286554D01*
X111015892Y-62269500D01*
X110884108Y-62269500D01*
X110756812Y-62303608D01*
X110642686Y-62369500D01*
X110642683Y-62369502D01*
X110549502Y-62462683D01*
X110549500Y-62462686D01*
X110483608Y-62576812D01*
X110449500Y-62704108D01*
X100970500Y-62704108D01*
X100970500Y-61080249D01*
X100970499Y-61080247D01*
X100958868Y-61021770D01*
X100958867Y-61021769D01*
X100914552Y-60955447D01*
X100848230Y-60911132D01*
X100848229Y-60911131D01*
X100789752Y-60899500D01*
X100789748Y-60899500D01*
X99050252Y-60899500D01*
X99050247Y-60899500D01*
X98991770Y-60911131D01*
X98991769Y-60911132D01*
X98925447Y-60955447D01*
X98881132Y-61021769D01*
X98881131Y-61021770D01*
X98869500Y-61080247D01*
X97970500Y-61080247D01*
X97970500Y-55385258D01*
X98949500Y-55385258D01*
X98949500Y-55614741D01*
X98965451Y-55735891D01*
X98979452Y-55842238D01*
X99037934Y-56060497D01*
X99038842Y-56063887D01*
X99126650Y-56275876D01*
X99126657Y-56275890D01*
X99241392Y-56474617D01*
X99381081Y-56656661D01*
X99381089Y-56656670D01*
X99543330Y-56818911D01*
X99543338Y-56818918D01*
X99725382Y-56958607D01*
X99725385Y-56958608D01*
X99725388Y-56958611D01*
X99924112Y-57073344D01*
X99924117Y-57073346D01*
X99924123Y-57073349D01*
X100015480Y-57111190D01*
X100136113Y-57161158D01*
X100357762Y-57220548D01*
X100585266Y-57250500D01*
X100585273Y-57250500D01*
X100814727Y-57250500D01*
X100814734Y-57250500D01*
X101042238Y-57220548D01*
X101263887Y-57161158D01*
X101475888Y-57073344D01*
X101674612Y-56958611D01*
X101856661Y-56818919D01*
X101856665Y-56818914D01*
X101856670Y-56818911D01*
X102018911Y-56656670D01*
X102018914Y-56656665D01*
X102018919Y-56656661D01*
X102158611Y-56474612D01*
X102273344Y-56275888D01*
X102361158Y-56063887D01*
X102420548Y-55842238D01*
X102450500Y-55614734D01*
X102450500Y-55385266D01*
X102420548Y-55157762D01*
X102361158Y-54936113D01*
X102286759Y-54756499D01*
X102273349Y-54724123D01*
X102273346Y-54724117D01*
X102273344Y-54724112D01*
X102192513Y-54584108D01*
X107339500Y-54584108D01*
X107339500Y-54715892D01*
X107344859Y-54735891D01*
X107373608Y-54843187D01*
X107406554Y-54900250D01*
X107439500Y-54957314D01*
X107532686Y-55050500D01*
X107546345Y-55058386D01*
X107594561Y-55108953D01*
X107607784Y-55177560D01*
X107581816Y-55242425D01*
X107558004Y-55263079D01*
X107559135Y-55264552D01*
X107552683Y-55269502D01*
X107459502Y-55362683D01*
X107459500Y-55362686D01*
X107393608Y-55476812D01*
X107359500Y-55604108D01*
X107359500Y-55735891D01*
X107393608Y-55863187D01*
X107426554Y-55920250D01*
X107459500Y-55977314D01*
X107552686Y-56070500D01*
X107666814Y-56136392D01*
X107789799Y-56169345D01*
X107849457Y-56205709D01*
X107879987Y-56268555D01*
X107871693Y-56337931D01*
X107845386Y-56376800D01*
X107779500Y-56442686D01*
X107713608Y-56556812D01*
X107679500Y-56684108D01*
X107679500Y-56815891D01*
X107713608Y-56943187D01*
X107746554Y-57000250D01*
X107779500Y-57057314D01*
X107872686Y-57150500D01*
X107872689Y-57150502D01*
X107879135Y-57155448D01*
X107878140Y-57156744D01*
X107919788Y-57200416D01*
X107933017Y-57269022D01*
X107907054Y-57333889D01*
X107897261Y-57344924D01*
X107889504Y-57352681D01*
X107889500Y-57352686D01*
X107823608Y-57466812D01*
X107789500Y-57594108D01*
X107789500Y-57725892D01*
X107806554Y-57789539D01*
X107823608Y-57853187D01*
X107829382Y-57863187D01*
X107889500Y-57967314D01*
X107982686Y-58060500D01*
X108096814Y-58126392D01*
X108224108Y-58160500D01*
X108224110Y-58160500D01*
X108355890Y-58160500D01*
X108355892Y-58160500D01*
X108483186Y-58126392D01*
X108597314Y-58060500D01*
X108690500Y-57967314D01*
X108756392Y-57853186D01*
X108790500Y-57725892D01*
X108790500Y-57604108D01*
X109079500Y-57604108D01*
X109079500Y-57735891D01*
X109113608Y-57863187D01*
X109146554Y-57920250D01*
X109179500Y-57977314D01*
X109272686Y-58070500D01*
X109386814Y-58136392D01*
X109514108Y-58170500D01*
X109514110Y-58170500D01*
X109645890Y-58170500D01*
X109645892Y-58170500D01*
X109773186Y-58136392D01*
X109887314Y-58070500D01*
X109980500Y-57977314D01*
X110046392Y-57863186D01*
X110080500Y-57735892D01*
X110080500Y-57604108D01*
X110046392Y-57476814D01*
X110040618Y-57466814D01*
X110037563Y-57461521D01*
X109980500Y-57362686D01*
X109963722Y-57345908D01*
X109930237Y-57284585D01*
X109935221Y-57214893D01*
X109977093Y-57158960D01*
X109989391Y-57150847D01*
X110007314Y-57140500D01*
X110100500Y-57047314D01*
X110166392Y-56933186D01*
X110200500Y-56805892D01*
X110200500Y-56674108D01*
X110166392Y-56546814D01*
X110100500Y-56432686D01*
X110039569Y-56371755D01*
X110006084Y-56310432D01*
X110011068Y-56240740D01*
X110052940Y-56184807D01*
X110111068Y-56161134D01*
X110115881Y-56160500D01*
X110115892Y-56160500D01*
X110243186Y-56126392D01*
X110357314Y-56060500D01*
X110450500Y-55967314D01*
X110516392Y-55853186D01*
X110550500Y-55725892D01*
X110550500Y-55594108D01*
X110516392Y-55466814D01*
X110469306Y-55385258D01*
X122949500Y-55385258D01*
X122949500Y-55614741D01*
X122965451Y-55735891D01*
X122979452Y-55842238D01*
X123037934Y-56060497D01*
X123038842Y-56063887D01*
X123126650Y-56275876D01*
X123126657Y-56275890D01*
X123241392Y-56474617D01*
X123381081Y-56656661D01*
X123381089Y-56656670D01*
X123543330Y-56818911D01*
X123543338Y-56818918D01*
X123725382Y-56958607D01*
X123725385Y-56958608D01*
X123725388Y-56958611D01*
X123924112Y-57073344D01*
X123924117Y-57073346D01*
X123924123Y-57073349D01*
X124015480Y-57111190D01*
X124136113Y-57161158D01*
X124357762Y-57220548D01*
X124585266Y-57250500D01*
X124585273Y-57250500D01*
X124814727Y-57250500D01*
X124814734Y-57250500D01*
X125042238Y-57220548D01*
X125263887Y-57161158D01*
X125475888Y-57073344D01*
X125674612Y-56958611D01*
X125856661Y-56818919D01*
X125856665Y-56818914D01*
X125856670Y-56818911D01*
X126018911Y-56656670D01*
X126018914Y-56656665D01*
X126018919Y-56656661D01*
X126158611Y-56474612D01*
X126273344Y-56275888D01*
X126361158Y-56063887D01*
X126420548Y-55842238D01*
X126450500Y-55614734D01*
X126450500Y-55385266D01*
X126420548Y-55157762D01*
X126361158Y-54936113D01*
X126286759Y-54756499D01*
X126273349Y-54724123D01*
X126273346Y-54724117D01*
X126273344Y-54724112D01*
X126158611Y-54525388D01*
X126158608Y-54525385D01*
X126158607Y-54525382D01*
X126052276Y-54386810D01*
X126018919Y-54343339D01*
X126018918Y-54343338D01*
X126018911Y-54343330D01*
X125856670Y-54181089D01*
X125856661Y-54181081D01*
X125674617Y-54041392D01*
X125621110Y-54010500D01*
X125590620Y-53992896D01*
X125475890Y-53926657D01*
X125475876Y-53926650D01*
X125263887Y-53838842D01*
X125042238Y-53779452D01*
X125004215Y-53774446D01*
X124814741Y-53749500D01*
X124814734Y-53749500D01*
X124585266Y-53749500D01*
X124585258Y-53749500D01*
X124368715Y-53778009D01*
X124357762Y-53779452D01*
X124269185Y-53803186D01*
X124136112Y-53838842D01*
X123924123Y-53926650D01*
X123924109Y-53926657D01*
X123725382Y-54041392D01*
X123543338Y-54181081D01*
X123381081Y-54343338D01*
X123241392Y-54525382D01*
X123126657Y-54724109D01*
X123126650Y-54724123D01*
X123038842Y-54936112D01*
X122979453Y-55157759D01*
X122979451Y-55157770D01*
X122949500Y-55385258D01*
X110469306Y-55385258D01*
X110450500Y-55352686D01*
X110362741Y-55264927D01*
X110329256Y-55203604D01*
X110334240Y-55133912D01*
X110376112Y-55077979D01*
X110386464Y-55071151D01*
X110387306Y-55070504D01*
X110387314Y-55070500D01*
X110480500Y-54977314D01*
X110546392Y-54863186D01*
X110580500Y-54735892D01*
X110580500Y-54604108D01*
X110556385Y-54514108D01*
X113339500Y-54514108D01*
X113339500Y-54645891D01*
X113373608Y-54773187D01*
X113402017Y-54822391D01*
X113439500Y-54887314D01*
X113532686Y-54980500D01*
X113631521Y-55037563D01*
X113640507Y-55042751D01*
X113646814Y-55046392D01*
X113774108Y-55080500D01*
X113774110Y-55080500D01*
X113905890Y-55080500D01*
X113905892Y-55080500D01*
X114033186Y-55046392D01*
X114147314Y-54980500D01*
X114240500Y-54887314D01*
X114306392Y-54773186D01*
X114340500Y-54645892D01*
X114340500Y-54514108D01*
X114306392Y-54386814D01*
X114284633Y-54349126D01*
X114281664Y-54343983D01*
X114281663Y-54343982D01*
X114276928Y-54335782D01*
X114250558Y-54290108D01*
X118625500Y-54290108D01*
X118625500Y-54421891D01*
X118659608Y-54549187D01*
X118679770Y-54584108D01*
X118725500Y-54663314D01*
X118818686Y-54756500D01*
X118932814Y-54822392D01*
X119060108Y-54856500D01*
X119060110Y-54856500D01*
X119191890Y-54856500D01*
X119191892Y-54856500D01*
X119319186Y-54822392D01*
X119433314Y-54756500D01*
X119526500Y-54663314D01*
X119592392Y-54549186D01*
X119626500Y-54421892D01*
X119626500Y-54290108D01*
X119592392Y-54162814D01*
X119526500Y-54048686D01*
X119433314Y-53955500D01*
X119367174Y-53917314D01*
X119319187Y-53889608D01*
X119255539Y-53872554D01*
X119191892Y-53855500D01*
X119060108Y-53855500D01*
X118932812Y-53889608D01*
X118818686Y-53955500D01*
X118818683Y-53955502D01*
X118725502Y-54048683D01*
X118725500Y-54048686D01*
X118659608Y-54162812D01*
X118625500Y-54290108D01*
X114250558Y-54290108D01*
X114240500Y-54272686D01*
X114147314Y-54179500D01*
X114084311Y-54143125D01*
X114033187Y-54113608D01*
X113951554Y-54091735D01*
X113905892Y-54079500D01*
X113774108Y-54079500D01*
X113646812Y-54113608D01*
X113532686Y-54179500D01*
X113532683Y-54179502D01*
X113439502Y-54272683D01*
X113439500Y-54272686D01*
X113373608Y-54386812D01*
X113339500Y-54514108D01*
X110556385Y-54514108D01*
X110546392Y-54476814D01*
X110480500Y-54362686D01*
X110387314Y-54269500D01*
X110364011Y-54256045D01*
X110315797Y-54205480D01*
X110302575Y-54136872D01*
X110328543Y-54072008D01*
X110364011Y-54041274D01*
X110417314Y-54010500D01*
X110510500Y-53917314D01*
X110576392Y-53803186D01*
X110610500Y-53675892D01*
X110610500Y-53544108D01*
X110576392Y-53416814D01*
X110510500Y-53302686D01*
X110417314Y-53209500D01*
X110330712Y-53159500D01*
X110303187Y-53143608D01*
X110239539Y-53126554D01*
X110175892Y-53109500D01*
X110044108Y-53109500D01*
X109916812Y-53143608D01*
X109802686Y-53209500D01*
X109802683Y-53209502D01*
X109709502Y-53302683D01*
X109709500Y-53302686D01*
X109643608Y-53416812D01*
X109609500Y-53544108D01*
X109609500Y-53675891D01*
X109643608Y-53803187D01*
X109664194Y-53838842D01*
X109709500Y-53917314D01*
X109802686Y-54010500D01*
X109825986Y-54023952D01*
X109874201Y-54074518D01*
X109887425Y-54143125D01*
X109861457Y-54207990D01*
X109825988Y-54238725D01*
X109772689Y-54269498D01*
X109772683Y-54269502D01*
X109679502Y-54362683D01*
X109679500Y-54362686D01*
X109613608Y-54476812D01*
X109579500Y-54604108D01*
X109579500Y-54735891D01*
X109613608Y-54863187D01*
X109627538Y-54887314D01*
X109679500Y-54977314D01*
X109679502Y-54977316D01*
X109767258Y-55065072D01*
X109800743Y-55126395D01*
X109795759Y-55196087D01*
X109753887Y-55252020D01*
X109743536Y-55258847D01*
X109742683Y-55259502D01*
X109649502Y-55352683D01*
X109649500Y-55352686D01*
X109583608Y-55466812D01*
X109549500Y-55594108D01*
X109549500Y-55725892D01*
X109566554Y-55789539D01*
X109583608Y-55853187D01*
X109589382Y-55863187D01*
X109649500Y-55967314D01*
X109649502Y-55967316D01*
X109710430Y-56028244D01*
X109743915Y-56089567D01*
X109738931Y-56159259D01*
X109697059Y-56215192D01*
X109638942Y-56238863D01*
X109634112Y-56239499D01*
X109506812Y-56273608D01*
X109392686Y-56339500D01*
X109392683Y-56339502D01*
X109299502Y-56432683D01*
X109299500Y-56432686D01*
X109233608Y-56546812D01*
X109204175Y-56656661D01*
X109199500Y-56674108D01*
X109199500Y-56805892D01*
X109202990Y-56818918D01*
X109233608Y-56933187D01*
X109239382Y-56943187D01*
X109299500Y-57047314D01*
X109299502Y-57047316D01*
X109316277Y-57064091D01*
X109349762Y-57125414D01*
X109344778Y-57195106D01*
X109302906Y-57251039D01*
X109290598Y-57259158D01*
X109272689Y-57269497D01*
X109272683Y-57269502D01*
X109179502Y-57362683D01*
X109179500Y-57362686D01*
X109113608Y-57476812D01*
X109079500Y-57604108D01*
X108790500Y-57604108D01*
X108790500Y-57594108D01*
X108756392Y-57466814D01*
X108690500Y-57352686D01*
X108597314Y-57259500D01*
X108597311Y-57259498D01*
X108590865Y-57254552D01*
X108591859Y-57253255D01*
X108550208Y-57209577D01*
X108536983Y-57140970D01*
X108562949Y-57076105D01*
X108572736Y-57065077D01*
X108580500Y-57057314D01*
X108646392Y-56943186D01*
X108680500Y-56815892D01*
X108680500Y-56684108D01*
X108646392Y-56556814D01*
X108640618Y-56546814D01*
X108598935Y-56474617D01*
X108580500Y-56442686D01*
X108487314Y-56349500D01*
X108430250Y-56316554D01*
X108373187Y-56283608D01*
X108294334Y-56262480D01*
X108250201Y-56250654D01*
X108190541Y-56214290D01*
X108160012Y-56151443D01*
X108168307Y-56082067D01*
X108194609Y-56043204D01*
X108260500Y-55977314D01*
X108326392Y-55863186D01*
X108360500Y-55735892D01*
X108360500Y-55604108D01*
X108326392Y-55476814D01*
X108320618Y-55466814D01*
X108306990Y-55443209D01*
X108260500Y-55362686D01*
X108167314Y-55269500D01*
X108153652Y-55261612D01*
X108105438Y-55211044D01*
X108092216Y-55142437D01*
X108118185Y-55077573D01*
X108142010Y-55056940D01*
X108140865Y-55055448D01*
X108147306Y-55050504D01*
X108147314Y-55050500D01*
X108240500Y-54957314D01*
X108306392Y-54843186D01*
X108340500Y-54715892D01*
X108340500Y-54584108D01*
X108306392Y-54456814D01*
X108240500Y-54342686D01*
X108152741Y-54254927D01*
X108119256Y-54193604D01*
X108124240Y-54123912D01*
X108166112Y-54067979D01*
X108176464Y-54061151D01*
X108177306Y-54060504D01*
X108177314Y-54060500D01*
X108270500Y-53967314D01*
X108336392Y-53853186D01*
X108370500Y-53725892D01*
X108370500Y-53594108D01*
X108336392Y-53466814D01*
X108270500Y-53352686D01*
X108177314Y-53259500D01*
X108111269Y-53221369D01*
X108063187Y-53193608D01*
X107999539Y-53176554D01*
X107935892Y-53159500D01*
X107804108Y-53159500D01*
X107676812Y-53193608D01*
X107562686Y-53259500D01*
X107562683Y-53259502D01*
X107469502Y-53352683D01*
X107469500Y-53352686D01*
X107403608Y-53466812D01*
X107382897Y-53544108D01*
X107369500Y-53594108D01*
X107369500Y-53725892D01*
X107386554Y-53789539D01*
X107403608Y-53853187D01*
X107424636Y-53889608D01*
X107469500Y-53967314D01*
X107469502Y-53967316D01*
X107557258Y-54055072D01*
X107590743Y-54116395D01*
X107585759Y-54186087D01*
X107543887Y-54242020D01*
X107533536Y-54248847D01*
X107532683Y-54249502D01*
X107439502Y-54342683D01*
X107439500Y-54342686D01*
X107373608Y-54456812D01*
X107348857Y-54549186D01*
X107339500Y-54584108D01*
X102192513Y-54584108D01*
X102158611Y-54525388D01*
X102158608Y-54525385D01*
X102158607Y-54525382D01*
X102052276Y-54386810D01*
X102018919Y-54343339D01*
X102018918Y-54343338D01*
X102018911Y-54343330D01*
X101856670Y-54181089D01*
X101856661Y-54181081D01*
X101674617Y-54041392D01*
X101621110Y-54010500D01*
X101590620Y-53992896D01*
X101475890Y-53926657D01*
X101475876Y-53926650D01*
X101263887Y-53838842D01*
X101042238Y-53779452D01*
X101004215Y-53774446D01*
X100814741Y-53749500D01*
X100814734Y-53749500D01*
X100585266Y-53749500D01*
X100585258Y-53749500D01*
X100368715Y-53778009D01*
X100357762Y-53779452D01*
X100269185Y-53803186D01*
X100136112Y-53838842D01*
X99924123Y-53926650D01*
X99924109Y-53926657D01*
X99725382Y-54041392D01*
X99543338Y-54181081D01*
X99381081Y-54343338D01*
X99241392Y-54525382D01*
X99126657Y-54724109D01*
X99126650Y-54724123D01*
X99038842Y-54936112D01*
X98979453Y-55157759D01*
X98979451Y-55157770D01*
X98949500Y-55385258D01*
X97970500Y-55385258D01*
X97970500Y-55203750D01*
X97970726Y-55196263D01*
X97973982Y-55142437D01*
X97987542Y-54918256D01*
X97989347Y-54903394D01*
X97992294Y-54887316D01*
X98038874Y-54633130D01*
X98042452Y-54618616D01*
X98124202Y-54356268D01*
X98129499Y-54342302D01*
X98242276Y-54091722D01*
X98249221Y-54078489D01*
X98391378Y-53843333D01*
X98399865Y-53831037D01*
X98569331Y-53614729D01*
X98579246Y-53603538D01*
X98773538Y-53409246D01*
X98784729Y-53399331D01*
X99001037Y-53229865D01*
X99013333Y-53221378D01*
X99248489Y-53079221D01*
X99261722Y-53072276D01*
X99512302Y-52959499D01*
X99526268Y-52954202D01*
X99788616Y-52872452D01*
X99803130Y-52868874D01*
X100073398Y-52819346D01*
X100088256Y-52817542D01*
X100366265Y-52800726D01*
X100373752Y-52800500D01*
X100417595Y-52800500D01*
X124922405Y-52800500D01*
X124966249Y-52800500D01*
X124973736Y-52800726D01*
G37*
%TD.AperFunction*%
%TD*%
M02*
