%TF.GenerationSoftware,KiCad,Pcbnew,10.0.3*%
%TF.CreationDate,2026-06-06T22:20:31-05:00*%
%TF.ProjectId,Flight Computer,466c6967-6874-4204-936f-6d7075746572,rev?*%
%TF.SameCoordinates,Original*%
%TF.FileFunction,Copper,L3,Inr*%
%TF.FilePolarity,Positive*%
%FSLAX46Y46*%
G04 Gerber Fmt 4.6, Leading zero omitted, Abs format (unit mm)*
G04 Created by KiCad (PCBNEW 10.0.3) date 2026-06-06 22:20:31*
%MOMM*%
%LPD*%
G01*
G04 APERTURE LIST*
G04 Aperture macros list*
%AMRoundRect*
0 Rectangle with rounded corners*
0 $1 Rounding radius*
0 $2 $3 $4 $5 $6 $7 $8 $9 X,Y pos of 4 corners*
0 Add a 4 corners polygon primitive as box body*
4,1,4,$2,$3,$4,$5,$6,$7,$8,$9,$2,$3,0*
0 Add four circle primitives for the rounded corners*
1,1,$1+$1,$2,$3*
1,1,$1+$1,$4,$5*
1,1,$1+$1,$6,$7*
1,1,$1+$1,$8,$9*
0 Add four rect primitives between the rounded corners*
20,1,$1+$1,$2,$3,$4,$5,0*
20,1,$1+$1,$4,$5,$6,$7,0*
20,1,$1+$1,$6,$7,$8,$9,0*
20,1,$1+$1,$8,$9,$2,$3,0*%
G04 Aperture macros list end*
%TA.AperFunction,ComponentPad*%
%ADD10C,3.100000*%
%TD*%
%TA.AperFunction,ComponentPad*%
%ADD11RoundRect,0.249999X-0.850001X0.850001X-0.850001X-0.850001X0.850001X-0.850001X0.850001X0.850001X0*%
%TD*%
%TA.AperFunction,ComponentPad*%
%ADD12C,2.200000*%
%TD*%
%TA.AperFunction,HeatsinkPad*%
%ADD13O,2.100000X1.000000*%
%TD*%
%TA.AperFunction,HeatsinkPad*%
%ADD14O,1.800000X1.000000*%
%TD*%
%TA.AperFunction,ComponentPad*%
%ADD15RoundRect,0.249999X0.850001X-0.850001X0.850001X0.850001X-0.850001X0.850001X-0.850001X-0.850001X0*%
%TD*%
%TA.AperFunction,ComponentPad*%
%ADD16R,1.700000X1.700000*%
%TD*%
%TA.AperFunction,ComponentPad*%
%ADD17C,1.700000*%
%TD*%
%TA.AperFunction,ViaPad*%
%ADD18C,0.600000*%
%TD*%
%TA.AperFunction,Conductor*%
%ADD19C,0.200000*%
%TD*%
G04 APERTURE END LIST*
D10*
%TO.N,GND*%
%TO.C,H404*%
X124700000Y-109500000D03*
%TD*%
%TO.N,GND*%
%TO.C,H401*%
X100700000Y-55500000D03*
%TD*%
D11*
%TO.N,GND*%
%TO.C,J404*%
X101640000Y-96580000D03*
D12*
%TO.N,VIN*%
X101640000Y-99120000D03*
%TO.N,VCC*%
X101640000Y-101659999D03*
%TO.N,Pyro_Power*%
X101640000Y-104200000D03*
%TD*%
D13*
%TO.N,GND*%
%TO.C,J402*%
X104455000Y-84433000D03*
D14*
X100275000Y-84433000D03*
D13*
X104455000Y-93073000D03*
D14*
X100275000Y-93073000D03*
%TD*%
D15*
%TO.N,Pyro_Power*%
%TO.C,J403*%
X123700000Y-104200000D03*
D12*
%TO.N,/Pyro1*%
X123700000Y-101660000D03*
%TO.N,Pyro_Power*%
X123700000Y-99120001D03*
%TO.N,/Pyro2*%
X123700000Y-96580000D03*
%TO.N,Pyro_Power*%
X123700000Y-94040000D03*
%TO.N,/Pyro3*%
X123700000Y-91500000D03*
%TD*%
D10*
%TO.N,GND*%
%TO.C,H403*%
X100700000Y-109500000D03*
%TD*%
D16*
%TO.N,GND*%
%TO.C,J401*%
X100330000Y-72898000D03*
D17*
%TO.N,/Servo4*%
X100330000Y-70358000D03*
%TO.N,/Servo3*%
X100330000Y-67818000D03*
%TO.N,/Servo2*%
X100330000Y-65278000D03*
%TO.N,/Servo1*%
X100330000Y-62738000D03*
%TD*%
D10*
%TO.N,GND*%
%TO.C,H402*%
X124700000Y-55500000D03*
%TD*%
D18*
%TO.N,GND*%
X118618000Y-105714800D03*
X111099600Y-77774800D03*
X108088476Y-88431565D03*
X118364000Y-66548000D03*
X103105000Y-88341200D03*
X106527880Y-93268800D03*
X115951000Y-111633000D03*
X116992400Y-76098400D03*
X104343200Y-76098400D03*
X116281200Y-86512400D03*
X107061000Y-67056000D03*
X119837200Y-77520800D03*
X108966000Y-63500000D03*
X121920000Y-82854800D03*
X120751600Y-65379600D03*
X107652000Y-63500000D03*
X116687600Y-78232000D03*
X118618000Y-70993000D03*
X114655600Y-97942400D03*
X110744000Y-67945000D03*
X113783646Y-84234754D03*
X109486800Y-79704862D03*
X105816400Y-75031600D03*
X120650000Y-86969600D03*
X107848400Y-77673200D03*
%TO.N,/NEOPIXEL*%
X107797600Y-94132400D03*
%TO.N,+3.3V*%
X110236000Y-61775000D03*
X114554000Y-83277000D03*
X126542800Y-65176400D03*
X103105000Y-89509600D03*
X100177600Y-77571600D03*
X109728000Y-95402400D03*
X115839893Y-93964107D03*
X101142800Y-81026000D03*
X111076500Y-76121500D03*
X114418000Y-54356000D03*
X119227600Y-83007200D03*
X106832400Y-106222800D03*
X111404400Y-91236800D03*
X121335800Y-87528400D03*
X114550000Y-71116000D03*
X111941892Y-80276784D03*
X118237000Y-110490000D03*
X120396000Y-85496400D03*
X123799600Y-87274400D03*
X117807400Y-77419200D03*
X101854000Y-78384400D03*
X113182400Y-106222800D03*
X112170000Y-84074000D03*
X120599200Y-67411600D03*
%TO.N,/PA4*%
X112014000Y-92659200D03*
%TO.N,/Pyro3_Trigger*%
X115923844Y-90138200D03*
%TO.N,VCC*%
X108077000Y-110490000D03*
X125984000Y-77724000D03*
X106680000Y-101391300D03*
%TO.N,/PC5*%
X108762800Y-95961200D03*
%TO.N,/I2C_SCL*%
X102940000Y-81026000D03*
%TO.N,/I2C_SDA*%
X101854000Y-79375000D03*
X118567200Y-77216000D03*
%TO.N,/BOOT0*%
X124258800Y-85543000D03*
%TO.N,/Pyro2_Trigger*%
X115824000Y-98298000D03*
%TO.N,Net-(Q602-G)*%
X117602000Y-99146400D03*
%TO.N,Pyro_Power*%
X109067600Y-104200000D03*
%TO.N,/Armed*%
X109067600Y-100787200D03*
%TO.N,/GPS_TX*%
X116493974Y-80632891D03*
%TO.N,/GPS_RX*%
X116433600Y-79527304D03*
%TO.N,/GPS_INT*%
X117946319Y-86506971D03*
%TO.N,/NRST*%
X126365000Y-86156800D03*
X117849829Y-92292800D03*
%TO.N,/PC6*%
X106258999Y-84268452D03*
%TO.N,VBUS*%
X103632000Y-86580326D03*
X103632000Y-90932000D03*
%TO.N,Net-(J402-CC1)*%
X103105000Y-87503000D03*
%TO.N,/USB_DP_P*%
X108412354Y-80102683D03*
%TO.N,/USB_DP_N*%
X108400412Y-80829588D03*
%TO.N,Net-(J402-CC2)*%
X103047362Y-90499876D03*
%TO.N,Net-(BZ401-+)*%
X124460000Y-63373000D03*
%TO.N,Net-(BZ401--)*%
X124523500Y-65595500D03*
%TO.N,/MCU/FLASH_CS*%
X118465600Y-82854800D03*
%TO.N,/SPI_MISO*%
X115468400Y-89001600D03*
X110540800Y-89001600D03*
X110540800Y-83464400D03*
X108068646Y-74912954D03*
X119735600Y-74269600D03*
%TO.N,/SPI_MOSI*%
X116967000Y-88823800D03*
X110013800Y-88474600D03*
X107116368Y-75469800D03*
X124363583Y-72657000D03*
%TO.N,/SPI_SCK*%
X118682002Y-87680800D03*
X112368049Y-82315090D03*
X106578400Y-74980800D03*
X123088400Y-70764400D03*
%TO.N,/IMU_INT1*%
X111150400Y-84175600D03*
%TO.N,/IMU_INT2*%
X116755446Y-81855846D03*
%TO.N,/IMU_CS*%
X113093002Y-82260559D03*
%TO.N,/MCU_LED*%
X105784600Y-82177200D03*
%TO.N,/SPI_CS1*%
X119062000Y-54356000D03*
X123748800Y-82905600D03*
X119888000Y-90220800D03*
%TO.N,/BARO_CS*%
X116027200Y-84582000D03*
%TO.N,/Pyro2_Cont*%
X120751600Y-94792800D03*
X114471400Y-96621600D03*
%TO.N,/SWCLK*%
X115170096Y-80054304D03*
X125577600Y-80092001D03*
%TO.N,/SWDIO*%
X109486801Y-80431864D03*
X120345200Y-81482000D03*
%TO.N,/Buzzer*%
X121107200Y-82651600D03*
X122404500Y-73152000D03*
%TO.N,/Pyro3_Cont*%
X116281200Y-95707200D03*
X125730000Y-90271600D03*
%TO.N,/LORA_RESET*%
X106832400Y-83108900D03*
X108661200Y-75469800D03*
%TO.N,/LORA_SEL*%
X106476800Y-71221600D03*
X106248139Y-83541534D03*
%TO.N,/Pyro1_Trigger*%
X116883507Y-93631693D03*
X115328470Y-99980861D03*
%TD*%
%TO.N,VCC*%
D19*
X108077000Y-102788300D02*
X108077000Y-110490000D01*
X106680000Y-101391300D02*
X108077000Y-102788300D01*
X123221800Y-81654600D02*
X125984000Y-78892400D01*
X118770400Y-84937600D02*
X121090491Y-84937600D01*
X106680000Y-97028000D02*
X118770400Y-84937600D01*
X106680000Y-101391300D02*
X106680000Y-97028000D01*
X125984000Y-78892400D02*
X125984000Y-77724000D01*
X123221800Y-82806291D02*
X123221800Y-81654600D01*
X121090491Y-84937600D02*
X123221800Y-82806291D01*
%TO.N,/NRST*%
X126365000Y-86233000D02*
X126365000Y-86156800D01*
X117849829Y-92292800D02*
X120305200Y-92292800D01*
X120305200Y-92292800D02*
X126365000Y-86233000D01*
%TO.N,/SPI_CS1*%
X124987000Y-60471000D02*
X119062000Y-54546000D01*
X119062000Y-54546000D02*
X119062000Y-54356000D01*
X126511000Y-65889891D02*
X124987000Y-64365891D01*
X123748800Y-82905600D02*
X126511000Y-80143400D01*
X126511000Y-80143400D02*
X126511000Y-65889891D01*
X124987000Y-64365891D02*
X124987000Y-60471000D01*
%TO.N,/SWDIO*%
X110233337Y-81178400D02*
X109486801Y-80431864D01*
X119786400Y-81178400D02*
X110233337Y-81178400D01*
X120090000Y-81482000D02*
X119786400Y-81178400D01*
X120345200Y-81482000D02*
X120090000Y-81482000D01*
%TO.N,/Buzzer*%
X122404500Y-81354300D02*
X122404500Y-73152000D01*
X121107200Y-82651600D02*
X122404500Y-81354300D01*
%TO.N,/Pyro3_Cont*%
X117616138Y-95707200D02*
X123150338Y-90173000D01*
X116281200Y-95707200D02*
X117616138Y-95707200D01*
X125631400Y-90173000D02*
X125730000Y-90271600D01*
X123150338Y-90173000D02*
X125631400Y-90173000D01*
%TO.N,/LORA_RESET*%
X106832400Y-83108900D02*
X106832400Y-80365600D01*
X106832400Y-80365600D02*
X108661200Y-78536800D01*
X108661200Y-78536800D02*
X108661200Y-75469800D01*
%TO.N,/LORA_SEL*%
X106166517Y-83459912D02*
X105981631Y-83459912D01*
X105257600Y-72440800D02*
X106476800Y-71221600D01*
X106248139Y-83541534D02*
X106166517Y-83459912D01*
X105257600Y-82735881D02*
X105257600Y-72440800D01*
X105981631Y-83459912D02*
X105257600Y-82735881D01*
%TO.N,/Pyro1_Trigger*%
X116883507Y-93900784D02*
X115297000Y-95487291D01*
X115297000Y-95487291D02*
X115297000Y-99949391D01*
X116883507Y-93631693D02*
X116883507Y-93900784D01*
X115297000Y-99949391D02*
X115328470Y-99980861D01*
%TD*%
%TA.AperFunction,Conductor*%
%TO.N,+3.3V*%
G36*
X124973736Y-52800726D02*
G01*
X125251742Y-52817542D01*
X125266605Y-52819347D01*
X125341845Y-52833135D01*
X125536866Y-52868874D01*
X125551395Y-52872455D01*
X125813713Y-52954197D01*
X125827706Y-52959503D01*
X126078270Y-53072273D01*
X126091516Y-53079226D01*
X126326658Y-53221374D01*
X126338969Y-53229872D01*
X126440139Y-53309133D01*
X126555261Y-53399325D01*
X126566469Y-53409255D01*
X126760744Y-53603530D01*
X126770674Y-53614738D01*
X126940123Y-53831024D01*
X126948627Y-53843344D01*
X127068351Y-54041392D01*
X127090770Y-54078477D01*
X127097729Y-54091736D01*
X127210494Y-54342290D01*
X127215803Y-54356290D01*
X127297542Y-54618597D01*
X127301126Y-54633137D01*
X127350652Y-54903394D01*
X127352457Y-54918258D01*
X127369274Y-55196263D01*
X127369500Y-55203750D01*
X127369500Y-109796249D01*
X127369274Y-109803736D01*
X127352457Y-110081741D01*
X127350652Y-110096605D01*
X127301126Y-110366862D01*
X127297542Y-110381402D01*
X127215803Y-110643709D01*
X127210494Y-110657709D01*
X127097729Y-110908263D01*
X127090770Y-110921522D01*
X126948629Y-111156652D01*
X126940123Y-111168975D01*
X126770674Y-111385261D01*
X126760744Y-111396469D01*
X126566469Y-111590744D01*
X126555261Y-111600674D01*
X126338975Y-111770123D01*
X126326652Y-111778629D01*
X126091522Y-111920770D01*
X126078263Y-111927729D01*
X125827709Y-112040494D01*
X125813709Y-112045803D01*
X125551402Y-112127542D01*
X125536862Y-112131126D01*
X125266605Y-112180652D01*
X125251741Y-112182457D01*
X124973736Y-112199274D01*
X124966249Y-112199500D01*
X116391676Y-112199500D01*
X116324637Y-112179815D01*
X116278882Y-112127011D01*
X116268938Y-112057853D01*
X116297963Y-111994297D01*
X116303995Y-111987819D01*
X116351500Y-111940314D01*
X116417392Y-111826186D01*
X116451500Y-111698892D01*
X116451500Y-111567108D01*
X116417392Y-111439814D01*
X116415439Y-111436432D01*
X116408563Y-111424521D01*
X116351500Y-111325686D01*
X116258314Y-111232500D01*
X116201250Y-111199554D01*
X116144187Y-111166608D01*
X116080539Y-111149554D01*
X116016892Y-111132500D01*
X115885108Y-111132500D01*
X115757812Y-111166608D01*
X115643686Y-111232500D01*
X115643683Y-111232502D01*
X115550502Y-111325683D01*
X115550500Y-111325686D01*
X115484608Y-111439812D01*
X115450500Y-111567108D01*
X115450500Y-111698891D01*
X115484608Y-111826187D01*
X115517554Y-111883250D01*
X115550500Y-111940314D01*
X115550502Y-111940316D01*
X115598005Y-111987819D01*
X115631490Y-112049142D01*
X115626506Y-112118834D01*
X115584634Y-112174767D01*
X115519170Y-112199184D01*
X115510324Y-112199500D01*
X100373752Y-112199500D01*
X100366265Y-112199274D01*
X100088259Y-112182457D01*
X100073395Y-112180652D01*
X99803138Y-112131126D01*
X99788598Y-112127542D01*
X99526290Y-112045803D01*
X99512290Y-112040494D01*
X99261735Y-111927729D01*
X99248476Y-111920770D01*
X99013347Y-111778630D01*
X99001023Y-111770123D01*
X98784738Y-111600673D01*
X98773531Y-111590744D01*
X98579255Y-111396468D01*
X98569326Y-111385261D01*
X98449644Y-111232500D01*
X98399873Y-111168972D01*
X98391373Y-111156658D01*
X98249228Y-110921522D01*
X98242270Y-110908264D01*
X98129505Y-110657709D01*
X98124196Y-110643709D01*
X98096831Y-110555891D01*
X98042455Y-110381394D01*
X98038873Y-110366861D01*
X98021127Y-110270026D01*
X97989347Y-110096604D01*
X97987542Y-110081740D01*
X97970726Y-109803735D01*
X97970500Y-109796248D01*
X97970500Y-109385258D01*
X98949500Y-109385258D01*
X98949500Y-109614741D01*
X98967625Y-109752404D01*
X98979452Y-109842238D01*
X98979453Y-109842240D01*
X99038842Y-110063887D01*
X99126650Y-110275876D01*
X99126657Y-110275890D01*
X99241392Y-110474617D01*
X99381081Y-110656661D01*
X99381089Y-110656670D01*
X99543330Y-110818911D01*
X99543338Y-110818918D01*
X99725382Y-110958607D01*
X99725385Y-110958608D01*
X99725388Y-110958611D01*
X99924112Y-111073344D01*
X99924117Y-111073346D01*
X99924123Y-111073349D01*
X100015480Y-111111190D01*
X100136113Y-111161158D01*
X100357762Y-111220548D01*
X100585266Y-111250500D01*
X100585273Y-111250500D01*
X100814727Y-111250500D01*
X100814734Y-111250500D01*
X101042238Y-111220548D01*
X101263887Y-111161158D01*
X101475888Y-111073344D01*
X101674612Y-110958611D01*
X101856661Y-110818919D01*
X101856665Y-110818914D01*
X101856670Y-110818911D01*
X102018911Y-110656670D01*
X102018914Y-110656665D01*
X102018919Y-110656661D01*
X102158611Y-110474612D01*
X102273344Y-110275888D01*
X102361158Y-110063887D01*
X102420548Y-109842238D01*
X102450500Y-109614734D01*
X102450500Y-109385266D01*
X102420548Y-109157762D01*
X102361158Y-108936113D01*
X102273344Y-108724112D01*
X102158611Y-108525388D01*
X102158608Y-108525385D01*
X102158607Y-108525382D01*
X102018918Y-108343338D01*
X102018911Y-108343330D01*
X101856670Y-108181089D01*
X101856661Y-108181081D01*
X101674617Y-108041392D01*
X101475890Y-107926657D01*
X101475876Y-107926650D01*
X101263887Y-107838842D01*
X101042238Y-107779452D01*
X101004215Y-107774446D01*
X100814741Y-107749500D01*
X100814734Y-107749500D01*
X100585266Y-107749500D01*
X100585258Y-107749500D01*
X100368715Y-107778009D01*
X100357762Y-107779452D01*
X100264076Y-107804554D01*
X100136112Y-107838842D01*
X99924123Y-107926650D01*
X99924109Y-107926657D01*
X99725382Y-108041392D01*
X99543338Y-108181081D01*
X99381081Y-108343338D01*
X99241392Y-108525382D01*
X99126657Y-108724109D01*
X99126650Y-108724123D01*
X99038842Y-108936112D01*
X98979453Y-109157759D01*
X98979451Y-109157770D01*
X98949500Y-109385258D01*
X97970500Y-109385258D01*
X97970500Y-95675729D01*
X100339500Y-95675729D01*
X100339500Y-97484260D01*
X100339501Y-97484266D01*
X100342354Y-97514700D01*
X100342354Y-97514702D01*
X100342355Y-97514703D01*
X100342355Y-97514705D01*
X100387206Y-97642882D01*
X100467849Y-97752150D01*
X100503626Y-97778554D01*
X100577117Y-97832793D01*
X100611114Y-97844689D01*
X100705298Y-97877646D01*
X100714431Y-97878502D01*
X100735733Y-97880500D01*
X100751845Y-97880499D01*
X100818883Y-97900180D01*
X100864641Y-97952982D01*
X100874588Y-98022140D01*
X100845566Y-98085697D01*
X100824736Y-98104816D01*
X100792784Y-98128030D01*
X100648028Y-98272786D01*
X100527715Y-98438386D01*
X100434781Y-98620776D01*
X100371522Y-98815465D01*
X100339500Y-99017648D01*
X100339500Y-99222351D01*
X100371522Y-99424534D01*
X100434781Y-99619223D01*
X100527715Y-99801613D01*
X100648028Y-99967213D01*
X100792786Y-100111971D01*
X100958385Y-100232284D01*
X100958387Y-100232285D01*
X100958390Y-100232287D01*
X101051080Y-100279515D01*
X101101875Y-100327488D01*
X101118670Y-100395309D01*
X101096133Y-100461444D01*
X101051079Y-100500483D01*
X100958391Y-100547710D01*
X100958389Y-100547711D01*
X100792786Y-100668027D01*
X100648028Y-100812785D01*
X100527715Y-100978385D01*
X100434781Y-101160775D01*
X100371522Y-101355464D01*
X100339500Y-101557647D01*
X100339500Y-101762350D01*
X100371522Y-101964533D01*
X100434781Y-102159222D01*
X100527715Y-102341612D01*
X100648028Y-102507212D01*
X100792786Y-102651970D01*
X100958385Y-102772283D01*
X100958387Y-102772284D01*
X100958390Y-102772286D01*
X101051082Y-102819515D01*
X101101877Y-102867488D01*
X101118672Y-102935309D01*
X101096135Y-103001444D01*
X101051081Y-103040483D01*
X100958391Y-103087711D01*
X100958389Y-103087712D01*
X100792786Y-103208028D01*
X100648028Y-103352786D01*
X100527715Y-103518386D01*
X100434781Y-103700776D01*
X100371522Y-103895465D01*
X100339500Y-104097648D01*
X100339500Y-104302351D01*
X100371522Y-104504534D01*
X100434781Y-104699223D01*
X100527715Y-104881613D01*
X100648028Y-105047213D01*
X100792786Y-105191971D01*
X100947749Y-105304556D01*
X100958390Y-105312287D01*
X101074607Y-105371503D01*
X101140776Y-105405218D01*
X101140778Y-105405218D01*
X101140781Y-105405220D01*
X101245137Y-105439127D01*
X101335465Y-105468477D01*
X101436557Y-105484488D01*
X101537648Y-105500500D01*
X101537649Y-105500500D01*
X101742351Y-105500500D01*
X101742352Y-105500500D01*
X101944534Y-105468477D01*
X102139219Y-105405220D01*
X102321610Y-105312287D01*
X102456479Y-105214300D01*
X102487213Y-105191971D01*
X102487215Y-105191968D01*
X102487219Y-105191966D01*
X102631966Y-105047219D01*
X102631968Y-105047215D01*
X102631971Y-105047213D01*
X102684732Y-104974590D01*
X102752287Y-104881610D01*
X102845220Y-104699219D01*
X102908477Y-104504534D01*
X102940500Y-104302352D01*
X102940500Y-104097648D01*
X102908477Y-103895466D01*
X102845220Y-103700781D01*
X102845218Y-103700778D01*
X102845218Y-103700776D01*
X102811503Y-103634607D01*
X102752287Y-103518390D01*
X102744556Y-103507749D01*
X102631971Y-103352786D01*
X102487213Y-103208028D01*
X102321613Y-103087715D01*
X102321612Y-103087714D01*
X102321610Y-103087713D01*
X102228917Y-103040483D01*
X102178122Y-102992509D01*
X102161327Y-102924688D01*
X102183864Y-102858553D01*
X102228917Y-102819515D01*
X102321610Y-102772286D01*
X102428954Y-102694297D01*
X102487213Y-102651970D01*
X102487215Y-102651967D01*
X102487219Y-102651965D01*
X102631966Y-102507218D01*
X102631970Y-102507213D01*
X102631971Y-102507212D01*
X102684732Y-102434589D01*
X102752287Y-102341609D01*
X102845220Y-102159218D01*
X102908477Y-101964533D01*
X102940500Y-101762351D01*
X102940500Y-101557647D01*
X102908477Y-101355465D01*
X102898711Y-101325408D01*
X106179500Y-101325408D01*
X106179500Y-101457192D01*
X106191814Y-101503148D01*
X106213608Y-101584487D01*
X106246554Y-101641550D01*
X106279500Y-101698614D01*
X106372686Y-101791800D01*
X106486814Y-101857692D01*
X106614108Y-101891800D01*
X106614110Y-101891800D01*
X106704167Y-101891800D01*
X106771206Y-101911485D01*
X106791848Y-101928119D01*
X107740181Y-102876452D01*
X107773666Y-102937775D01*
X107776500Y-102964133D01*
X107776500Y-110031323D01*
X107756815Y-110098362D01*
X107740182Y-110119004D01*
X107676500Y-110182686D01*
X107610608Y-110296812D01*
X107576500Y-110424108D01*
X107576500Y-110555891D01*
X107610608Y-110683187D01*
X107643554Y-110740250D01*
X107676500Y-110797314D01*
X107769686Y-110890500D01*
X107883814Y-110956392D01*
X108011108Y-110990500D01*
X108011110Y-110990500D01*
X108142890Y-110990500D01*
X108142892Y-110990500D01*
X108270186Y-110956392D01*
X108384314Y-110890500D01*
X108477500Y-110797314D01*
X108543392Y-110683186D01*
X108577500Y-110555892D01*
X108577500Y-110424108D01*
X108543392Y-110296814D01*
X108477500Y-110182686D01*
X108413818Y-110119004D01*
X108380334Y-110057680D01*
X108377500Y-110031323D01*
X108377500Y-109385258D01*
X122949500Y-109385258D01*
X122949500Y-109614741D01*
X122967625Y-109752404D01*
X122979452Y-109842238D01*
X122979453Y-109842240D01*
X123038842Y-110063887D01*
X123126650Y-110275876D01*
X123126657Y-110275890D01*
X123241392Y-110474617D01*
X123381081Y-110656661D01*
X123381089Y-110656670D01*
X123543330Y-110818911D01*
X123543338Y-110818918D01*
X123725382Y-110958607D01*
X123725385Y-110958608D01*
X123725388Y-110958611D01*
X123924112Y-111073344D01*
X123924117Y-111073346D01*
X123924123Y-111073349D01*
X124015480Y-111111190D01*
X124136113Y-111161158D01*
X124357762Y-111220548D01*
X124585266Y-111250500D01*
X124585273Y-111250500D01*
X124814727Y-111250500D01*
X124814734Y-111250500D01*
X125042238Y-111220548D01*
X125263887Y-111161158D01*
X125475888Y-111073344D01*
X125674612Y-110958611D01*
X125856661Y-110818919D01*
X125856665Y-110818914D01*
X125856670Y-110818911D01*
X126018911Y-110656670D01*
X126018914Y-110656665D01*
X126018919Y-110656661D01*
X126158611Y-110474612D01*
X126273344Y-110275888D01*
X126361158Y-110063887D01*
X126420548Y-109842238D01*
X126450500Y-109614734D01*
X126450500Y-109385266D01*
X126420548Y-109157762D01*
X126361158Y-108936113D01*
X126273344Y-108724112D01*
X126158611Y-108525388D01*
X126158608Y-108525385D01*
X126158607Y-108525382D01*
X126018918Y-108343338D01*
X126018911Y-108343330D01*
X125856670Y-108181089D01*
X125856661Y-108181081D01*
X125674617Y-108041392D01*
X125475890Y-107926657D01*
X125475876Y-107926650D01*
X125263887Y-107838842D01*
X125042238Y-107779452D01*
X125004215Y-107774446D01*
X124814741Y-107749500D01*
X124814734Y-107749500D01*
X124585266Y-107749500D01*
X124585258Y-107749500D01*
X124368715Y-107778009D01*
X124357762Y-107779452D01*
X124264076Y-107804554D01*
X124136112Y-107838842D01*
X123924123Y-107926650D01*
X123924109Y-107926657D01*
X123725382Y-108041392D01*
X123543338Y-108181081D01*
X123381081Y-108343338D01*
X123241392Y-108525382D01*
X123126657Y-108724109D01*
X123126650Y-108724123D01*
X123038842Y-108936112D01*
X122979453Y-109157759D01*
X122979451Y-109157770D01*
X122949500Y-109385258D01*
X108377500Y-109385258D01*
X108377500Y-105648908D01*
X118117500Y-105648908D01*
X118117500Y-105780691D01*
X118151608Y-105907987D01*
X118184554Y-105965050D01*
X118217500Y-106022114D01*
X118310686Y-106115300D01*
X118424814Y-106181192D01*
X118552108Y-106215300D01*
X118552110Y-106215300D01*
X118683890Y-106215300D01*
X118683892Y-106215300D01*
X118811186Y-106181192D01*
X118925314Y-106115300D01*
X119018500Y-106022114D01*
X119084392Y-105907986D01*
X119118500Y-105780692D01*
X119118500Y-105648908D01*
X119084392Y-105521614D01*
X119018500Y-105407486D01*
X118925314Y-105314300D01*
X118868250Y-105281354D01*
X118811187Y-105248408D01*
X118747539Y-105231354D01*
X118683892Y-105214300D01*
X118552108Y-105214300D01*
X118424812Y-105248408D01*
X118310686Y-105314300D01*
X118310683Y-105314302D01*
X118217502Y-105407483D01*
X118217500Y-105407486D01*
X118151608Y-105521612D01*
X118117500Y-105648908D01*
X108377500Y-105648908D01*
X108377500Y-104468487D01*
X108397185Y-104401448D01*
X108449989Y-104355693D01*
X108519147Y-104345749D01*
X108582703Y-104374774D01*
X108608887Y-104406487D01*
X108667100Y-104507314D01*
X108760286Y-104600500D01*
X108874414Y-104666392D01*
X109001708Y-104700500D01*
X109001710Y-104700500D01*
X109133490Y-104700500D01*
X109133492Y-104700500D01*
X109260786Y-104666392D01*
X109374914Y-104600500D01*
X109468100Y-104507314D01*
X109533992Y-104393186D01*
X109568100Y-104265892D01*
X109568100Y-104134108D01*
X109533992Y-104006814D01*
X109468100Y-103892686D01*
X109374914Y-103799500D01*
X109317850Y-103766554D01*
X109260787Y-103733608D01*
X109197139Y-103716554D01*
X109133492Y-103699500D01*
X109001708Y-103699500D01*
X108874412Y-103733608D01*
X108760286Y-103799500D01*
X108760283Y-103799502D01*
X108667102Y-103892683D01*
X108667100Y-103892686D01*
X108608887Y-103993513D01*
X108558319Y-104041728D01*
X108489712Y-104054950D01*
X108424848Y-104028982D01*
X108384320Y-103972068D01*
X108377500Y-103931512D01*
X108377500Y-102748739D01*
X108377500Y-102748738D01*
X108357021Y-102672311D01*
X108345276Y-102651968D01*
X108317464Y-102603795D01*
X108317458Y-102603787D01*
X107216819Y-101503148D01*
X107183334Y-101441825D01*
X107180500Y-101415467D01*
X107180500Y-101325410D01*
X107180500Y-101325408D01*
X107146392Y-101198114D01*
X107140379Y-101187700D01*
X107124834Y-101160775D01*
X107080500Y-101083986D01*
X107016818Y-101020304D01*
X107002113Y-100993373D01*
X106985523Y-100967558D01*
X106984631Y-100961355D01*
X106983334Y-100958980D01*
X106980500Y-100932623D01*
X106980500Y-100721308D01*
X108567100Y-100721308D01*
X108567100Y-100853091D01*
X108601208Y-100980387D01*
X108608706Y-100993373D01*
X108667100Y-101094514D01*
X108760286Y-101187700D01*
X108874414Y-101253592D01*
X109001708Y-101287700D01*
X109001710Y-101287700D01*
X109133490Y-101287700D01*
X109133492Y-101287700D01*
X109260786Y-101253592D01*
X109374914Y-101187700D01*
X109468100Y-101094514D01*
X109533992Y-100980386D01*
X109568100Y-100853092D01*
X109568100Y-100721308D01*
X109533992Y-100594014D01*
X109468100Y-100479886D01*
X109374914Y-100386700D01*
X109317850Y-100353754D01*
X109260787Y-100320808D01*
X109197139Y-100303754D01*
X109133492Y-100286700D01*
X109001708Y-100286700D01*
X108874412Y-100320808D01*
X108760286Y-100386700D01*
X108760283Y-100386702D01*
X108667102Y-100479883D01*
X108667100Y-100479886D01*
X108601208Y-100594012D01*
X108567100Y-100721308D01*
X106980500Y-100721308D01*
X106980500Y-97203832D01*
X107000185Y-97136793D01*
X107016814Y-97116156D01*
X107577261Y-96555708D01*
X113970900Y-96555708D01*
X113970900Y-96687491D01*
X114005008Y-96814787D01*
X114021583Y-96843495D01*
X114070900Y-96928914D01*
X114164086Y-97022100D01*
X114278214Y-97087992D01*
X114405508Y-97122100D01*
X114405510Y-97122100D01*
X114537290Y-97122100D01*
X114537292Y-97122100D01*
X114664586Y-97087992D01*
X114778714Y-97022100D01*
X114784819Y-97015995D01*
X114846142Y-96982510D01*
X114915834Y-96987494D01*
X114971767Y-97029366D01*
X114996184Y-97094830D01*
X114996500Y-97103676D01*
X114996500Y-97353988D01*
X114976815Y-97421027D01*
X114924011Y-97466782D01*
X114854853Y-97476726D01*
X114840407Y-97473763D01*
X114721492Y-97441900D01*
X114589708Y-97441900D01*
X114462412Y-97476008D01*
X114348286Y-97541900D01*
X114348283Y-97541902D01*
X114255102Y-97635083D01*
X114255100Y-97635086D01*
X114189208Y-97749212D01*
X114155100Y-97876508D01*
X114155100Y-98008291D01*
X114189208Y-98135587D01*
X114222154Y-98192650D01*
X114255100Y-98249714D01*
X114348286Y-98342900D01*
X114462414Y-98408792D01*
X114589708Y-98442900D01*
X114589710Y-98442900D01*
X114721489Y-98442900D01*
X114721492Y-98442900D01*
X114840410Y-98411036D01*
X114910256Y-98412699D01*
X114968119Y-98451861D01*
X114995623Y-98516089D01*
X114996500Y-98530811D01*
X114996500Y-99553655D01*
X114976815Y-99620694D01*
X114960181Y-99641336D01*
X114927972Y-99673544D01*
X114927970Y-99673547D01*
X114862078Y-99787673D01*
X114827970Y-99914969D01*
X114827970Y-100046752D01*
X114862078Y-100174048D01*
X114895024Y-100231111D01*
X114927970Y-100288175D01*
X115021156Y-100381361D01*
X115135284Y-100447253D01*
X115262578Y-100481361D01*
X115262580Y-100481361D01*
X115394360Y-100481361D01*
X115394362Y-100481361D01*
X115521656Y-100447253D01*
X115635784Y-100381361D01*
X115728970Y-100288175D01*
X115794862Y-100174047D01*
X115828970Y-100046753D01*
X115828970Y-99914969D01*
X115794862Y-99787675D01*
X115728970Y-99673547D01*
X115635784Y-99580361D01*
X115635783Y-99580360D01*
X115633818Y-99578395D01*
X115600334Y-99517071D01*
X115597500Y-99490714D01*
X115597500Y-99080508D01*
X117101500Y-99080508D01*
X117101500Y-99212292D01*
X117104196Y-99222352D01*
X117135608Y-99339587D01*
X117168554Y-99396650D01*
X117201500Y-99453714D01*
X117294686Y-99546900D01*
X117408814Y-99612792D01*
X117536108Y-99646900D01*
X117536110Y-99646900D01*
X117667890Y-99646900D01*
X117667892Y-99646900D01*
X117795186Y-99612792D01*
X117909314Y-99546900D01*
X118002500Y-99453714D01*
X118068392Y-99339586D01*
X118102500Y-99212292D01*
X118102500Y-99080508D01*
X118068392Y-98953214D01*
X118002500Y-98839086D01*
X117909314Y-98745900D01*
X117827215Y-98698500D01*
X117795187Y-98680008D01*
X117731539Y-98662954D01*
X117667892Y-98645900D01*
X117536108Y-98645900D01*
X117408812Y-98680008D01*
X117294686Y-98745900D01*
X117294683Y-98745902D01*
X117201502Y-98839083D01*
X117201500Y-98839086D01*
X117135608Y-98953212D01*
X117118343Y-99017648D01*
X117101500Y-99080508D01*
X115597500Y-99080508D01*
X115597500Y-98917064D01*
X115617185Y-98850025D01*
X115669989Y-98804270D01*
X115739147Y-98794326D01*
X115753579Y-98797286D01*
X115758108Y-98798500D01*
X115758112Y-98798500D01*
X115889890Y-98798500D01*
X115889892Y-98798500D01*
X116017186Y-98764392D01*
X116131314Y-98698500D01*
X116224500Y-98605314D01*
X116290392Y-98491186D01*
X116324500Y-98363892D01*
X116324500Y-98232108D01*
X116290392Y-98104814D01*
X116224500Y-97990686D01*
X116131314Y-97897500D01*
X116058239Y-97855310D01*
X116017187Y-97831608D01*
X115953539Y-97814554D01*
X115889892Y-97797500D01*
X115758108Y-97797500D01*
X115758106Y-97797500D01*
X115753592Y-97798710D01*
X115683742Y-97797047D01*
X115625880Y-97757883D01*
X115598377Y-97693654D01*
X115597500Y-97678935D01*
X115597500Y-95986772D01*
X115617185Y-95919733D01*
X115669989Y-95873978D01*
X115739147Y-95864034D01*
X115802703Y-95893059D01*
X115828887Y-95924772D01*
X115842102Y-95947660D01*
X115880700Y-96014514D01*
X115973886Y-96107700D01*
X116088014Y-96173592D01*
X116215308Y-96207700D01*
X116215310Y-96207700D01*
X116347090Y-96207700D01*
X116347092Y-96207700D01*
X116474386Y-96173592D01*
X116588514Y-96107700D01*
X116652195Y-96044019D01*
X116713518Y-96010534D01*
X116739876Y-96007700D01*
X117655698Y-96007700D01*
X117655700Y-96007700D01*
X117732127Y-95987221D01*
X117800649Y-95947660D01*
X117856598Y-95891711D01*
X119021400Y-94726908D01*
X120251100Y-94726908D01*
X120251100Y-94858691D01*
X120285208Y-94985987D01*
X120318154Y-95043050D01*
X120351100Y-95100114D01*
X120444286Y-95193300D01*
X120558414Y-95259192D01*
X120685708Y-95293300D01*
X120685710Y-95293300D01*
X120817490Y-95293300D01*
X120817492Y-95293300D01*
X120944786Y-95259192D01*
X121058914Y-95193300D01*
X121152100Y-95100114D01*
X121217992Y-94985986D01*
X121252100Y-94858692D01*
X121252100Y-94726908D01*
X121217992Y-94599614D01*
X121217517Y-94598792D01*
X121183125Y-94539223D01*
X121152100Y-94485486D01*
X121058914Y-94392300D01*
X121001850Y-94359354D01*
X120944787Y-94326408D01*
X120881139Y-94309354D01*
X120817492Y-94292300D01*
X120685708Y-94292300D01*
X120558412Y-94326408D01*
X120444286Y-94392300D01*
X120444283Y-94392302D01*
X120351102Y-94485483D01*
X120351100Y-94485486D01*
X120285208Y-94599612D01*
X120251100Y-94726908D01*
X119021400Y-94726908D01*
X122192751Y-91555556D01*
X122254072Y-91522073D01*
X122323764Y-91527057D01*
X122379697Y-91568929D01*
X122402903Y-91623841D01*
X122431522Y-91804534D01*
X122494781Y-91999223D01*
X122587715Y-92181613D01*
X122708028Y-92347213D01*
X122852786Y-92491971D01*
X122992256Y-92593300D01*
X123018390Y-92612287D01*
X123109840Y-92658883D01*
X123111080Y-92659515D01*
X123161876Y-92707490D01*
X123178671Y-92775311D01*
X123156134Y-92841446D01*
X123111080Y-92880485D01*
X123018386Y-92927715D01*
X122852786Y-93048028D01*
X122708028Y-93192786D01*
X122587715Y-93358386D01*
X122494781Y-93540776D01*
X122431522Y-93735465D01*
X122399500Y-93937648D01*
X122399500Y-94142351D01*
X122431522Y-94344534D01*
X122494781Y-94539223D01*
X122587715Y-94721613D01*
X122708028Y-94887213D01*
X122852786Y-95031971D01*
X122993510Y-95134211D01*
X123018390Y-95152287D01*
X123109840Y-95198883D01*
X123111080Y-95199515D01*
X123161876Y-95247490D01*
X123178671Y-95315311D01*
X123156134Y-95381446D01*
X123111080Y-95420485D01*
X123018386Y-95467715D01*
X122852786Y-95588028D01*
X122708028Y-95732786D01*
X122587715Y-95898386D01*
X122494781Y-96080776D01*
X122431522Y-96275465D01*
X122399500Y-96477648D01*
X122399500Y-96682351D01*
X122431522Y-96884534D01*
X122494781Y-97079223D01*
X122587715Y-97261613D01*
X122708028Y-97427213D01*
X122852786Y-97571971D01*
X123018385Y-97692284D01*
X123018387Y-97692285D01*
X123018390Y-97692287D01*
X123111082Y-97739516D01*
X123161877Y-97787489D01*
X123178672Y-97855310D01*
X123156135Y-97921445D01*
X123111081Y-97960484D01*
X123018391Y-98007712D01*
X123018389Y-98007713D01*
X122852786Y-98128029D01*
X122708028Y-98272787D01*
X122587715Y-98438387D01*
X122494781Y-98620777D01*
X122431522Y-98815466D01*
X122399500Y-99017649D01*
X122399500Y-99222352D01*
X122431522Y-99424535D01*
X122494781Y-99619224D01*
X122558691Y-99744654D01*
X122587712Y-99801610D01*
X122587715Y-99801614D01*
X122708028Y-99967214D01*
X122852786Y-100111972D01*
X123018385Y-100232285D01*
X123018387Y-100232286D01*
X123018390Y-100232288D01*
X123111080Y-100279516D01*
X123161875Y-100327489D01*
X123178670Y-100395310D01*
X123156133Y-100461445D01*
X123111079Y-100500484D01*
X123018391Y-100547711D01*
X123018389Y-100547712D01*
X122852786Y-100668028D01*
X122708028Y-100812786D01*
X122587715Y-100978386D01*
X122494781Y-101160776D01*
X122431522Y-101355465D01*
X122399500Y-101557648D01*
X122399500Y-101762351D01*
X122431522Y-101964534D01*
X122494781Y-102159223D01*
X122558691Y-102284653D01*
X122587712Y-102341609D01*
X122587715Y-102341613D01*
X122708028Y-102507213D01*
X122852782Y-102651967D01*
X122852784Y-102651968D01*
X122884734Y-102675181D01*
X122927400Y-102730510D01*
X122933381Y-102800123D01*
X122900776Y-102861919D01*
X122839938Y-102896277D01*
X122811857Y-102899500D01*
X122795741Y-102899500D01*
X122784937Y-102900513D01*
X122765300Y-102902354D01*
X122765297Y-102902354D01*
X122765296Y-102902355D01*
X122765294Y-102902355D01*
X122637117Y-102947206D01*
X122527849Y-103027849D01*
X122447206Y-103137118D01*
X122402353Y-103265297D01*
X122402353Y-103265299D01*
X122399500Y-103295729D01*
X122399500Y-105104260D01*
X122399501Y-105104266D01*
X122402354Y-105134700D01*
X122402354Y-105134702D01*
X122402355Y-105134703D01*
X122402355Y-105134705D01*
X122447206Y-105262882D01*
X122527849Y-105372150D01*
X122572655Y-105405218D01*
X122637117Y-105452793D01*
X122679844Y-105467744D01*
X122765298Y-105497646D01*
X122772323Y-105498304D01*
X122795733Y-105500500D01*
X124604266Y-105500499D01*
X124634700Y-105497646D01*
X124762883Y-105452793D01*
X124872150Y-105372150D01*
X124952793Y-105262883D01*
X124977608Y-105191966D01*
X124997646Y-105134702D01*
X124997646Y-105134700D01*
X125000500Y-105104267D01*
X125000499Y-103295734D01*
X124997646Y-103265300D01*
X124952793Y-103137117D01*
X124916331Y-103087713D01*
X124872150Y-103027849D01*
X124785817Y-102964133D01*
X124762883Y-102947207D01*
X124762881Y-102947206D01*
X124634701Y-102902353D01*
X124604271Y-102899500D01*
X124604267Y-102899500D01*
X124588151Y-102899500D01*
X124521112Y-102879815D01*
X124475357Y-102827011D01*
X124465413Y-102757853D01*
X124494438Y-102694297D01*
X124515266Y-102675182D01*
X124547213Y-102651971D01*
X124547215Y-102651968D01*
X124547219Y-102651966D01*
X124691966Y-102507219D01*
X124691968Y-102507215D01*
X124691971Y-102507213D01*
X124744732Y-102434590D01*
X124812287Y-102341610D01*
X124905220Y-102159219D01*
X124968477Y-101964534D01*
X125000500Y-101762352D01*
X125000500Y-101557648D01*
X124968477Y-101355466D01*
X124968476Y-101355464D01*
X124917350Y-101198114D01*
X124905220Y-101160781D01*
X124905218Y-101160778D01*
X124905218Y-101160776D01*
X124833643Y-101020304D01*
X124812287Y-100978390D01*
X124804417Y-100967558D01*
X124691971Y-100812786D01*
X124547213Y-100668028D01*
X124381613Y-100547715D01*
X124381612Y-100547714D01*
X124381610Y-100547713D01*
X124288920Y-100500485D01*
X124238124Y-100452510D01*
X124221329Y-100384689D01*
X124243866Y-100318554D01*
X124288919Y-100279516D01*
X124381610Y-100232288D01*
X124461773Y-100174047D01*
X124547213Y-100111972D01*
X124547215Y-100111969D01*
X124547219Y-100111967D01*
X124691966Y-99967220D01*
X124691968Y-99967216D01*
X124691971Y-99967214D01*
X124744732Y-99894591D01*
X124812287Y-99801611D01*
X124905220Y-99619220D01*
X124968477Y-99424535D01*
X125000500Y-99222353D01*
X125000500Y-99017649D01*
X124972218Y-98839086D01*
X124968477Y-98815466D01*
X124905218Y-98620777D01*
X124851876Y-98516089D01*
X124812287Y-98438391D01*
X124758161Y-98363892D01*
X124691971Y-98272787D01*
X124547213Y-98128029D01*
X124381613Y-98007716D01*
X124381612Y-98007715D01*
X124381610Y-98007714D01*
X124288917Y-97960484D01*
X124238122Y-97912510D01*
X124221327Y-97844689D01*
X124243864Y-97778554D01*
X124288917Y-97739516D01*
X124381610Y-97692287D01*
X124460345Y-97635083D01*
X124547213Y-97571971D01*
X124547215Y-97571968D01*
X124547219Y-97571966D01*
X124691966Y-97427219D01*
X124691968Y-97427215D01*
X124691971Y-97427213D01*
X124745171Y-97353988D01*
X124812287Y-97261610D01*
X124905220Y-97079219D01*
X124968477Y-96884534D01*
X125000500Y-96682352D01*
X125000500Y-96477648D01*
X124968477Y-96275466D01*
X124950812Y-96221100D01*
X124915098Y-96111182D01*
X124905220Y-96080781D01*
X124905218Y-96080778D01*
X124905218Y-96080776D01*
X124867983Y-96007700D01*
X124812287Y-95898390D01*
X124785596Y-95861653D01*
X124691971Y-95732786D01*
X124547213Y-95588028D01*
X124381614Y-95467715D01*
X124340697Y-95446867D01*
X124288917Y-95420483D01*
X124238123Y-95372511D01*
X124221328Y-95304690D01*
X124243865Y-95238555D01*
X124288917Y-95199516D01*
X124381610Y-95152287D01*
X124453422Y-95100113D01*
X124547213Y-95031971D01*
X124547215Y-95031968D01*
X124547219Y-95031966D01*
X124691966Y-94887219D01*
X124691968Y-94887215D01*
X124691971Y-94887213D01*
X124808436Y-94726910D01*
X124812287Y-94721610D01*
X124905220Y-94539219D01*
X124968477Y-94344534D01*
X125000500Y-94142352D01*
X125000500Y-93937648D01*
X124973836Y-93769299D01*
X124968477Y-93735465D01*
X124905218Y-93540776D01*
X124865072Y-93461986D01*
X124812287Y-93358390D01*
X124787575Y-93324376D01*
X124691971Y-93192786D01*
X124547213Y-93048028D01*
X124381614Y-92927715D01*
X124375006Y-92924348D01*
X124288917Y-92880483D01*
X124238123Y-92832511D01*
X124221328Y-92764690D01*
X124243865Y-92698555D01*
X124288917Y-92659516D01*
X124381610Y-92612287D01*
X124496403Y-92528886D01*
X124547213Y-92491971D01*
X124547215Y-92491968D01*
X124547219Y-92491966D01*
X124691966Y-92347219D01*
X124691968Y-92347215D01*
X124691971Y-92347213D01*
X124804151Y-92192808D01*
X124812287Y-92181610D01*
X124905220Y-91999219D01*
X124968477Y-91804534D01*
X125000500Y-91602352D01*
X125000500Y-91397648D01*
X124968477Y-91195466D01*
X124905220Y-91000781D01*
X124905218Y-91000778D01*
X124905218Y-91000776D01*
X124854061Y-90900376D01*
X124812287Y-90818390D01*
X124778655Y-90772099D01*
X124704757Y-90670385D01*
X124681277Y-90604578D01*
X124697103Y-90536525D01*
X124747209Y-90487830D01*
X124805075Y-90473500D01*
X125197048Y-90473500D01*
X125264087Y-90493185D01*
X125304434Y-90535499D01*
X125329500Y-90578914D01*
X125422686Y-90672100D01*
X125536814Y-90737992D01*
X125664108Y-90772100D01*
X125664110Y-90772100D01*
X125795890Y-90772100D01*
X125795892Y-90772100D01*
X125923186Y-90737992D01*
X126037314Y-90672100D01*
X126130500Y-90578914D01*
X126196392Y-90464786D01*
X126230500Y-90337492D01*
X126230500Y-90205708D01*
X126196392Y-90078414D01*
X126130500Y-89964286D01*
X126037314Y-89871100D01*
X125980250Y-89838154D01*
X125923187Y-89805208D01*
X125859539Y-89788154D01*
X125795892Y-89771100D01*
X125664108Y-89771100D01*
X125536814Y-89805208D01*
X125536813Y-89805208D01*
X125536811Y-89805209D01*
X125536810Y-89805209D01*
X125449035Y-89855887D01*
X125387035Y-89872500D01*
X123449833Y-89872500D01*
X123382794Y-89852815D01*
X123337039Y-89800011D01*
X123327095Y-89730853D01*
X123356120Y-89667297D01*
X123362152Y-89660819D01*
X126329352Y-86693619D01*
X126390675Y-86660134D01*
X126417033Y-86657300D01*
X126430890Y-86657300D01*
X126430892Y-86657300D01*
X126558186Y-86623192D01*
X126672314Y-86557300D01*
X126765500Y-86464114D01*
X126831392Y-86349986D01*
X126865500Y-86222692D01*
X126865500Y-86090908D01*
X126831392Y-85963614D01*
X126765500Y-85849486D01*
X126672314Y-85756300D01*
X126615250Y-85723354D01*
X126558187Y-85690408D01*
X126494539Y-85673354D01*
X126430892Y-85656300D01*
X126299108Y-85656300D01*
X126171812Y-85690408D01*
X126057686Y-85756300D01*
X126057683Y-85756302D01*
X125964502Y-85849483D01*
X125964500Y-85849486D01*
X125898608Y-85963612D01*
X125864500Y-86090908D01*
X125864500Y-86222690D01*
X125865561Y-86230748D01*
X125863879Y-86230969D01*
X125862444Y-86291096D01*
X125832016Y-86341011D01*
X120217048Y-91955981D01*
X120155725Y-91989466D01*
X120129367Y-91992300D01*
X118308505Y-91992300D01*
X118241466Y-91972615D01*
X118220824Y-91955981D01*
X118157145Y-91892302D01*
X118157143Y-91892300D01*
X118100079Y-91859354D01*
X118043016Y-91826408D01*
X117961379Y-91804534D01*
X117915721Y-91792300D01*
X117783937Y-91792300D01*
X117656641Y-91826408D01*
X117542515Y-91892300D01*
X117542512Y-91892302D01*
X117449331Y-91985483D01*
X117449329Y-91985486D01*
X117383437Y-92099612D01*
X117349329Y-92226908D01*
X117349329Y-92358691D01*
X117383437Y-92485987D01*
X117416383Y-92543050D01*
X117449329Y-92600114D01*
X117542515Y-92693300D01*
X117656643Y-92759192D01*
X117783937Y-92793300D01*
X117783939Y-92793300D01*
X117915719Y-92793300D01*
X117915721Y-92793300D01*
X118043015Y-92759192D01*
X118157143Y-92693300D01*
X118220824Y-92629619D01*
X118282147Y-92596134D01*
X118308505Y-92593300D01*
X120005705Y-92593300D01*
X120072744Y-92612985D01*
X120118499Y-92665789D01*
X120128443Y-92734947D01*
X120099418Y-92798503D01*
X120093386Y-92804981D01*
X117527986Y-95370381D01*
X117466663Y-95403866D01*
X117440305Y-95406700D01*
X116739876Y-95406700D01*
X116672837Y-95387015D01*
X116652195Y-95370381D01*
X116588516Y-95306702D01*
X116588514Y-95306700D01*
X116506228Y-95259192D01*
X116474387Y-95240808D01*
X116410739Y-95223754D01*
X116347092Y-95206700D01*
X116301924Y-95206700D01*
X116234885Y-95187015D01*
X116189130Y-95134211D01*
X116179186Y-95065053D01*
X116208211Y-95001497D01*
X116214243Y-94995019D01*
X117123965Y-94085297D01*
X117128913Y-94078849D01*
X117131755Y-94081030D01*
X117165304Y-94046925D01*
X117169521Y-94044490D01*
X117190821Y-94032193D01*
X117284007Y-93939007D01*
X117349899Y-93824879D01*
X117384007Y-93697585D01*
X117384007Y-93565801D01*
X117349899Y-93438507D01*
X117284007Y-93324379D01*
X117190821Y-93231193D01*
X117124290Y-93192781D01*
X117076694Y-93165301D01*
X116989709Y-93141994D01*
X116949399Y-93131193D01*
X116817615Y-93131193D01*
X116690319Y-93165301D01*
X116576193Y-93231193D01*
X116576190Y-93231195D01*
X116483009Y-93324376D01*
X116483007Y-93324379D01*
X116417115Y-93438505D01*
X116395402Y-93519541D01*
X116383007Y-93565801D01*
X116383007Y-93697585D01*
X116403348Y-93773500D01*
X116417117Y-93824885D01*
X116419774Y-93831301D01*
X116427238Y-93900771D01*
X116395959Y-93963248D01*
X116392891Y-93966427D01*
X115112489Y-95246831D01*
X115056541Y-95302778D01*
X115056535Y-95302786D01*
X115016982Y-95371295D01*
X115016979Y-95371300D01*
X114996500Y-95447730D01*
X114996500Y-96139524D01*
X114976815Y-96206563D01*
X114924011Y-96252318D01*
X114854853Y-96262262D01*
X114791297Y-96233237D01*
X114784819Y-96227205D01*
X114778716Y-96221102D01*
X114778714Y-96221100D01*
X114696428Y-96173592D01*
X114664587Y-96155208D01*
X114600939Y-96138154D01*
X114537292Y-96121100D01*
X114405508Y-96121100D01*
X114278212Y-96155208D01*
X114164086Y-96221100D01*
X114164083Y-96221102D01*
X114070902Y-96314283D01*
X114070900Y-96314286D01*
X114005008Y-96428412D01*
X113970900Y-96555708D01*
X107577261Y-96555708D01*
X108077376Y-96055593D01*
X108138699Y-96022109D01*
X108208391Y-96027093D01*
X108264324Y-96068965D01*
X108284832Y-96111182D01*
X108296408Y-96154387D01*
X108326532Y-96206563D01*
X108362300Y-96268514D01*
X108455486Y-96361700D01*
X108569614Y-96427592D01*
X108696908Y-96461700D01*
X108696910Y-96461700D01*
X108828690Y-96461700D01*
X108828692Y-96461700D01*
X108955986Y-96427592D01*
X109070114Y-96361700D01*
X109163300Y-96268514D01*
X109229192Y-96154386D01*
X109263300Y-96027092D01*
X109263300Y-95895308D01*
X109229192Y-95768014D01*
X109163300Y-95653886D01*
X109070114Y-95560700D01*
X108994628Y-95517118D01*
X108955987Y-95494808D01*
X108937748Y-95489921D01*
X108912780Y-95483231D01*
X108853121Y-95446867D01*
X108822592Y-95384020D01*
X108830887Y-95314645D01*
X108857194Y-95275776D01*
X110086045Y-94046925D01*
X111339313Y-92793657D01*
X111400634Y-92760174D01*
X111470326Y-92765158D01*
X111526259Y-92807030D01*
X111546766Y-92849244D01*
X111547607Y-92852385D01*
X111563831Y-92880485D01*
X111613500Y-92966514D01*
X111706686Y-93059700D01*
X111820814Y-93125592D01*
X111948108Y-93159700D01*
X111948110Y-93159700D01*
X112079890Y-93159700D01*
X112079892Y-93159700D01*
X112207186Y-93125592D01*
X112321314Y-93059700D01*
X112414500Y-92966514D01*
X112480392Y-92852386D01*
X112514500Y-92725092D01*
X112514500Y-92593308D01*
X112480392Y-92466014D01*
X112414500Y-92351886D01*
X112321314Y-92258700D01*
X112255421Y-92220656D01*
X112207185Y-92192807D01*
X112204044Y-92191966D01*
X112201692Y-92190532D01*
X112199682Y-92189700D01*
X112199811Y-92189386D01*
X112144384Y-92155600D01*
X112113856Y-92092752D01*
X112122153Y-92023377D01*
X112148457Y-91984513D01*
X114864380Y-89268589D01*
X114925701Y-89235106D01*
X114995393Y-89240090D01*
X115051326Y-89281962D01*
X115059445Y-89294270D01*
X115067900Y-89308914D01*
X115161086Y-89402100D01*
X115275214Y-89467992D01*
X115402508Y-89502100D01*
X115402510Y-89502100D01*
X115534289Y-89502100D01*
X115534292Y-89502100D01*
X115539442Y-89500720D01*
X115609289Y-89502381D01*
X115667153Y-89541542D01*
X115694659Y-89605769D01*
X115683074Y-89674672D01*
X115636077Y-89726373D01*
X115633538Y-89727880D01*
X115616533Y-89737698D01*
X115616527Y-89737702D01*
X115523346Y-89830883D01*
X115523344Y-89830886D01*
X115457452Y-89945012D01*
X115423344Y-90072308D01*
X115423344Y-90204091D01*
X115457452Y-90331387D01*
X115473401Y-90359011D01*
X115523344Y-90445514D01*
X115616530Y-90538700D01*
X115686176Y-90578910D01*
X115730633Y-90604578D01*
X115730658Y-90604592D01*
X115857952Y-90638700D01*
X115857954Y-90638700D01*
X115989734Y-90638700D01*
X115989736Y-90638700D01*
X116117030Y-90604592D01*
X116231158Y-90538700D01*
X116324344Y-90445514D01*
X116390236Y-90331386D01*
X116424344Y-90204092D01*
X116424344Y-90154908D01*
X119387500Y-90154908D01*
X119387500Y-90286692D01*
X119399476Y-90331386D01*
X119421608Y-90413987D01*
X119439812Y-90445516D01*
X119487500Y-90528114D01*
X119580686Y-90621300D01*
X119694814Y-90687192D01*
X119822108Y-90721300D01*
X119822110Y-90721300D01*
X119953890Y-90721300D01*
X119953892Y-90721300D01*
X120081186Y-90687192D01*
X120195314Y-90621300D01*
X120288500Y-90528114D01*
X120354392Y-90413986D01*
X120388500Y-90286692D01*
X120388500Y-90154908D01*
X120354392Y-90027614D01*
X120288500Y-89913486D01*
X120195314Y-89820300D01*
X120138250Y-89787354D01*
X120081187Y-89754408D01*
X120017539Y-89737354D01*
X119953892Y-89720300D01*
X119822108Y-89720300D01*
X119694812Y-89754408D01*
X119580686Y-89820300D01*
X119580683Y-89820302D01*
X119487502Y-89913483D01*
X119487500Y-89913486D01*
X119421608Y-90027612D01*
X119402379Y-90099378D01*
X119387500Y-90154908D01*
X116424344Y-90154908D01*
X116424344Y-90072308D01*
X116390236Y-89945014D01*
X116324344Y-89830886D01*
X116231158Y-89737700D01*
X116121991Y-89674672D01*
X116117031Y-89671808D01*
X116053383Y-89654754D01*
X115989736Y-89637700D01*
X115857952Y-89637700D01*
X115857950Y-89637700D01*
X115852793Y-89639082D01*
X115782943Y-89637415D01*
X115725083Y-89598249D01*
X115697583Y-89534018D01*
X115709174Y-89465117D01*
X115756176Y-89413420D01*
X115758630Y-89411963D01*
X115775714Y-89402100D01*
X115868900Y-89308914D01*
X115934792Y-89194786D01*
X115968900Y-89067492D01*
X115968900Y-88935708D01*
X115934792Y-88808414D01*
X115934790Y-88808411D01*
X115934791Y-88808411D01*
X115905632Y-88757908D01*
X116466500Y-88757908D01*
X116466500Y-88889692D01*
X116477854Y-88932065D01*
X116500608Y-89016987D01*
X116527622Y-89063776D01*
X116566500Y-89131114D01*
X116659686Y-89224300D01*
X116773814Y-89290192D01*
X116901108Y-89324300D01*
X116901110Y-89324300D01*
X117032890Y-89324300D01*
X117032892Y-89324300D01*
X117160186Y-89290192D01*
X117274314Y-89224300D01*
X117367500Y-89131114D01*
X117433392Y-89016986D01*
X117467500Y-88889692D01*
X117467500Y-88757908D01*
X117433392Y-88630614D01*
X117367500Y-88516486D01*
X117274314Y-88423300D01*
X117217250Y-88390354D01*
X117160187Y-88357408D01*
X117096539Y-88340354D01*
X117032892Y-88323300D01*
X116901108Y-88323300D01*
X116773812Y-88357408D01*
X116659686Y-88423300D01*
X116659683Y-88423302D01*
X116566502Y-88516483D01*
X116566500Y-88516486D01*
X116500608Y-88630612D01*
X116483548Y-88694283D01*
X116466500Y-88757908D01*
X115905632Y-88757908D01*
X115868900Y-88694286D01*
X115775714Y-88601100D01*
X115761070Y-88592645D01*
X115712855Y-88542077D01*
X115699634Y-88473470D01*
X115725603Y-88408606D01*
X115735383Y-88397586D01*
X116518061Y-87614908D01*
X118181502Y-87614908D01*
X118181502Y-87746691D01*
X118215610Y-87873987D01*
X118228171Y-87895742D01*
X118281502Y-87988114D01*
X118374688Y-88081300D01*
X118488816Y-88147192D01*
X118616110Y-88181300D01*
X118616112Y-88181300D01*
X118747892Y-88181300D01*
X118747894Y-88181300D01*
X118875188Y-88147192D01*
X118989316Y-88081300D01*
X119082502Y-87988114D01*
X119148394Y-87873986D01*
X119182502Y-87746692D01*
X119182502Y-87614908D01*
X119148394Y-87487614D01*
X119082502Y-87373486D01*
X118989316Y-87280300D01*
X118932252Y-87247354D01*
X118875189Y-87214408D01*
X118805305Y-87195683D01*
X118747894Y-87180300D01*
X118616110Y-87180300D01*
X118488814Y-87214408D01*
X118374688Y-87280300D01*
X118374685Y-87280302D01*
X118281504Y-87373483D01*
X118281502Y-87373486D01*
X118215610Y-87487612D01*
X118181502Y-87614908D01*
X116518061Y-87614908D01*
X117348415Y-86784554D01*
X117409736Y-86751071D01*
X117479428Y-86756055D01*
X117535361Y-86797927D01*
X117543477Y-86810230D01*
X117545814Y-86814278D01*
X117545817Y-86814282D01*
X117545819Y-86814285D01*
X117639005Y-86907471D01*
X117753133Y-86973363D01*
X117880427Y-87007471D01*
X117880429Y-87007471D01*
X118012209Y-87007471D01*
X118012211Y-87007471D01*
X118139505Y-86973363D01*
X118253633Y-86907471D01*
X118257396Y-86903708D01*
X120149500Y-86903708D01*
X120149500Y-87035491D01*
X120183608Y-87162787D01*
X120202601Y-87195683D01*
X120249500Y-87276914D01*
X120342686Y-87370100D01*
X120456814Y-87435992D01*
X120584108Y-87470100D01*
X120584110Y-87470100D01*
X120715890Y-87470100D01*
X120715892Y-87470100D01*
X120843186Y-87435992D01*
X120957314Y-87370100D01*
X121050500Y-87276914D01*
X121116392Y-87162786D01*
X121150500Y-87035492D01*
X121150500Y-86903708D01*
X121116392Y-86776414D01*
X121050500Y-86662286D01*
X120957314Y-86569100D01*
X120900250Y-86536154D01*
X120843187Y-86503208D01*
X120779539Y-86486154D01*
X120715892Y-86469100D01*
X120584108Y-86469100D01*
X120456812Y-86503208D01*
X120342686Y-86569100D01*
X120342683Y-86569102D01*
X120249502Y-86662283D01*
X120249500Y-86662286D01*
X120183608Y-86776412D01*
X120149500Y-86903708D01*
X118257396Y-86903708D01*
X118346819Y-86814285D01*
X118412711Y-86700157D01*
X118446819Y-86572863D01*
X118446819Y-86441079D01*
X118412711Y-86313785D01*
X118346819Y-86199657D01*
X118253633Y-86106471D01*
X118253290Y-86106273D01*
X118249586Y-86104134D01*
X118201370Y-86053568D01*
X118188146Y-85984961D01*
X118214114Y-85920096D01*
X118223904Y-85909066D01*
X118655863Y-85477108D01*
X123758300Y-85477108D01*
X123758300Y-85608891D01*
X123792408Y-85736187D01*
X123804022Y-85756302D01*
X123858300Y-85850314D01*
X123951486Y-85943500D01*
X124065614Y-86009392D01*
X124192908Y-86043500D01*
X124192910Y-86043500D01*
X124324690Y-86043500D01*
X124324692Y-86043500D01*
X124451986Y-86009392D01*
X124566114Y-85943500D01*
X124659300Y-85850314D01*
X124725192Y-85736186D01*
X124759300Y-85608892D01*
X124759300Y-85477108D01*
X124725192Y-85349814D01*
X124659300Y-85235686D01*
X124566114Y-85142500D01*
X124503899Y-85106580D01*
X124451987Y-85076608D01*
X124346681Y-85048392D01*
X124324692Y-85042500D01*
X124192908Y-85042500D01*
X124065612Y-85076608D01*
X123951486Y-85142500D01*
X123951483Y-85142502D01*
X123858302Y-85235683D01*
X123858300Y-85235686D01*
X123792408Y-85349812D01*
X123758300Y-85477108D01*
X118655863Y-85477108D01*
X118751671Y-85381300D01*
X118858552Y-85274419D01*
X118919875Y-85240934D01*
X118946233Y-85238100D01*
X121130051Y-85238100D01*
X121130053Y-85238100D01*
X121206480Y-85217621D01*
X121275002Y-85178060D01*
X121330951Y-85122111D01*
X123206544Y-83246516D01*
X123267865Y-83213033D01*
X123337556Y-83218017D01*
X123381904Y-83246518D01*
X123441486Y-83306100D01*
X123555614Y-83371992D01*
X123682908Y-83406100D01*
X123682910Y-83406100D01*
X123814690Y-83406100D01*
X123814692Y-83406100D01*
X123941986Y-83371992D01*
X124056114Y-83306100D01*
X124149300Y-83212914D01*
X124215192Y-83098786D01*
X124249300Y-82971492D01*
X124249300Y-82881432D01*
X124268985Y-82814393D01*
X124285619Y-82793751D01*
X125482373Y-81596997D01*
X126751460Y-80327911D01*
X126791022Y-80259388D01*
X126811500Y-80182962D01*
X126811500Y-80103838D01*
X126811500Y-65850329D01*
X126791021Y-65773902D01*
X126791017Y-65773895D01*
X126751464Y-65705386D01*
X126751458Y-65705378D01*
X125323819Y-64277739D01*
X125290334Y-64216416D01*
X125287500Y-64190058D01*
X125287500Y-60431439D01*
X125267020Y-60355009D01*
X125267017Y-60355004D01*
X125227464Y-60286495D01*
X125227458Y-60286487D01*
X120326229Y-55385258D01*
X122949500Y-55385258D01*
X122949500Y-55614741D01*
X122974446Y-55804215D01*
X122979452Y-55842238D01*
X122979453Y-55842240D01*
X123038842Y-56063887D01*
X123126650Y-56275876D01*
X123126657Y-56275890D01*
X123241392Y-56474617D01*
X123381081Y-56656661D01*
X123381089Y-56656670D01*
X123543330Y-56818911D01*
X123543338Y-56818918D01*
X123725382Y-56958607D01*
X123725385Y-56958608D01*
X123725388Y-56958611D01*
X123924112Y-57073344D01*
X123924117Y-57073346D01*
X123924123Y-57073349D01*
X124015480Y-57111190D01*
X124136113Y-57161158D01*
X124357762Y-57220548D01*
X124585266Y-57250500D01*
X124585273Y-57250500D01*
X124814727Y-57250500D01*
X124814734Y-57250500D01*
X125042238Y-57220548D01*
X125263887Y-57161158D01*
X125475888Y-57073344D01*
X125674612Y-56958611D01*
X125856661Y-56818919D01*
X125856665Y-56818914D01*
X125856670Y-56818911D01*
X126018911Y-56656670D01*
X126018914Y-56656665D01*
X126018919Y-56656661D01*
X126158611Y-56474612D01*
X126273344Y-56275888D01*
X126361158Y-56063887D01*
X126420548Y-55842238D01*
X126450500Y-55614734D01*
X126450500Y-55385266D01*
X126420548Y-55157762D01*
X126361158Y-54936113D01*
X126286760Y-54756500D01*
X126273349Y-54724123D01*
X126273346Y-54724117D01*
X126273344Y-54724112D01*
X126158611Y-54525388D01*
X126158608Y-54525385D01*
X126158607Y-54525382D01*
X126028857Y-54356290D01*
X126018919Y-54343339D01*
X126018918Y-54343338D01*
X126018911Y-54343330D01*
X125856670Y-54181089D01*
X125856661Y-54181081D01*
X125674617Y-54041392D01*
X125475890Y-53926657D01*
X125475876Y-53926650D01*
X125263887Y-53838842D01*
X125042238Y-53779452D01*
X125004215Y-53774446D01*
X124814741Y-53749500D01*
X124814734Y-53749500D01*
X124585266Y-53749500D01*
X124585258Y-53749500D01*
X124368715Y-53778009D01*
X124357762Y-53779452D01*
X124264076Y-53804554D01*
X124136112Y-53838842D01*
X123924123Y-53926650D01*
X123924109Y-53926657D01*
X123725382Y-54041392D01*
X123543338Y-54181081D01*
X123381081Y-54343338D01*
X123241392Y-54525382D01*
X123126657Y-54724109D01*
X123126650Y-54724123D01*
X123038842Y-54936112D01*
X122979453Y-55157759D01*
X122979451Y-55157770D01*
X122949500Y-55385258D01*
X120326229Y-55385258D01*
X119570934Y-54629963D01*
X119537449Y-54568640D01*
X119538839Y-54510193D01*
X119562500Y-54421892D01*
X119562500Y-54290108D01*
X119528392Y-54162814D01*
X119462500Y-54048686D01*
X119369314Y-53955500D01*
X119312250Y-53922554D01*
X119255187Y-53889608D01*
X119191539Y-53872554D01*
X119127892Y-53855500D01*
X118996108Y-53855500D01*
X118868812Y-53889608D01*
X118754686Y-53955500D01*
X118754683Y-53955502D01*
X118661502Y-54048683D01*
X118661500Y-54048686D01*
X118595608Y-54162812D01*
X118561500Y-54290108D01*
X118561500Y-54421891D01*
X118595608Y-54549187D01*
X118609602Y-54573425D01*
X118661500Y-54663314D01*
X118754686Y-54756500D01*
X118868814Y-54822392D01*
X118897655Y-54830120D01*
X118953242Y-54862213D01*
X124650181Y-60559152D01*
X124683666Y-60620475D01*
X124686500Y-60646833D01*
X124686500Y-62753935D01*
X124666815Y-62820974D01*
X124614011Y-62866729D01*
X124544853Y-62876673D01*
X124530408Y-62873710D01*
X124525893Y-62872500D01*
X124525892Y-62872500D01*
X124394108Y-62872500D01*
X124266812Y-62906608D01*
X124152686Y-62972500D01*
X124152683Y-62972502D01*
X124059502Y-63065683D01*
X124059500Y-63065686D01*
X123993608Y-63179812D01*
X123959500Y-63307108D01*
X123959500Y-63438891D01*
X123993608Y-63566187D01*
X124026554Y-63623250D01*
X124059500Y-63680314D01*
X124152686Y-63773500D01*
X124266814Y-63839392D01*
X124394108Y-63873500D01*
X124394110Y-63873500D01*
X124525888Y-63873500D01*
X124525892Y-63873500D01*
X124530403Y-63872291D01*
X124600249Y-63873950D01*
X124658114Y-63913109D01*
X124685622Y-63977335D01*
X124686500Y-63992064D01*
X124686500Y-64405453D01*
X124700152Y-64456404D01*
X124706979Y-64481881D01*
X124706982Y-64481886D01*
X124746535Y-64550395D01*
X124746541Y-64550403D01*
X126174181Y-65978043D01*
X126207666Y-66039366D01*
X126210500Y-66065724D01*
X126210500Y-77104935D01*
X126190815Y-77171974D01*
X126138011Y-77217729D01*
X126068853Y-77227673D01*
X126054408Y-77224710D01*
X126049893Y-77223500D01*
X126049892Y-77223500D01*
X125918108Y-77223500D01*
X125790812Y-77257608D01*
X125676686Y-77323500D01*
X125676683Y-77323502D01*
X125583502Y-77416683D01*
X125583500Y-77416686D01*
X125517608Y-77530812D01*
X125494649Y-77616499D01*
X125483500Y-77658108D01*
X125483500Y-77789892D01*
X125493742Y-77828116D01*
X125517608Y-77917187D01*
X125519983Y-77921300D01*
X125583500Y-78031314D01*
X125583502Y-78031316D01*
X125647181Y-78094995D01*
X125680666Y-78156318D01*
X125683500Y-78182676D01*
X125683500Y-78716567D01*
X125663815Y-78783606D01*
X125647181Y-78804248D01*
X122981341Y-81470087D01*
X122981335Y-81470095D01*
X122941782Y-81538604D01*
X122941779Y-81538609D01*
X122921300Y-81615039D01*
X122921300Y-82630458D01*
X122901615Y-82697497D01*
X122884981Y-82718139D01*
X122632181Y-82970939D01*
X122570858Y-83004424D01*
X122501166Y-82999440D01*
X122445233Y-82957568D01*
X122420816Y-82892104D01*
X122420500Y-82883258D01*
X122420500Y-82788910D01*
X122420500Y-82788908D01*
X122386392Y-82661614D01*
X122320500Y-82547486D01*
X122227314Y-82454300D01*
X122145624Y-82407136D01*
X122113187Y-82388408D01*
X122090241Y-82382260D01*
X122069980Y-82376831D01*
X122010321Y-82340467D01*
X121979792Y-82277620D01*
X121988087Y-82208245D01*
X122014394Y-82169376D01*
X122235379Y-81948392D01*
X122644960Y-81538811D01*
X122650490Y-81529232D01*
X122684521Y-81470289D01*
X122705000Y-81393862D01*
X122705000Y-73610676D01*
X122724685Y-73543637D01*
X122741319Y-73522995D01*
X122805000Y-73459314D01*
X122870892Y-73345186D01*
X122905000Y-73217892D01*
X122905000Y-73086108D01*
X122870892Y-72958814D01*
X122805000Y-72844686D01*
X122711814Y-72751500D01*
X122605931Y-72690368D01*
X122605930Y-72690367D01*
X122605929Y-72690367D01*
X122597688Y-72685608D01*
X122512823Y-72662869D01*
X122470392Y-72651500D01*
X122338608Y-72651500D01*
X122211312Y-72685608D01*
X122097186Y-72751500D01*
X122097183Y-72751502D01*
X122004002Y-72844683D01*
X122004000Y-72844686D01*
X121938108Y-72958812D01*
X121904000Y-73086108D01*
X121904000Y-73217891D01*
X121938108Y-73345187D01*
X121971054Y-73402250D01*
X122004000Y-73459314D01*
X122004002Y-73459316D01*
X122067681Y-73522995D01*
X122101166Y-73584318D01*
X122104000Y-73610676D01*
X122104000Y-81178466D01*
X122084315Y-81245505D01*
X122067681Y-81266147D01*
X121219047Y-82114781D01*
X121157724Y-82148266D01*
X121131366Y-82151100D01*
X121041308Y-82151100D01*
X120914012Y-82185208D01*
X120799886Y-82251100D01*
X120799883Y-82251102D01*
X120706702Y-82344283D01*
X120706700Y-82344286D01*
X120640808Y-82458412D01*
X120608846Y-82577699D01*
X120606700Y-82585708D01*
X120606700Y-82717492D01*
X120614428Y-82746334D01*
X120640808Y-82844787D01*
X120663020Y-82883258D01*
X120706700Y-82958914D01*
X120799886Y-83052100D01*
X120914014Y-83117992D01*
X121041308Y-83152100D01*
X121041310Y-83152100D01*
X121173090Y-83152100D01*
X121173092Y-83152100D01*
X121300386Y-83117992D01*
X121338228Y-83096143D01*
X121406127Y-83079670D01*
X121472154Y-83102521D01*
X121507615Y-83141529D01*
X121519500Y-83162114D01*
X121612686Y-83255300D01*
X121726814Y-83321192D01*
X121854108Y-83355300D01*
X121854110Y-83355300D01*
X121948458Y-83355300D01*
X122015497Y-83374985D01*
X122061252Y-83427789D01*
X122071196Y-83496947D01*
X122042171Y-83560503D01*
X122036139Y-83566981D01*
X121002339Y-84600781D01*
X120941016Y-84634266D01*
X120914658Y-84637100D01*
X118730838Y-84637100D01*
X118654410Y-84657578D01*
X118585889Y-84697140D01*
X118585886Y-84697142D01*
X116941003Y-86342025D01*
X116879680Y-86375510D01*
X116809988Y-86370526D01*
X116754055Y-86328654D01*
X116745935Y-86316344D01*
X116720915Y-86273009D01*
X116681700Y-86205086D01*
X116588514Y-86111900D01*
X116531450Y-86078954D01*
X116474387Y-86046008D01*
X116410739Y-86028954D01*
X116347092Y-86011900D01*
X116215308Y-86011900D01*
X116088012Y-86046008D01*
X115973886Y-86111900D01*
X115973883Y-86111902D01*
X115880702Y-86205083D01*
X115880700Y-86205086D01*
X115814808Y-86319212D01*
X115780700Y-86446508D01*
X115780700Y-86578291D01*
X115814808Y-86705587D01*
X115841069Y-86751071D01*
X115880700Y-86819714D01*
X115973886Y-86912900D01*
X116038883Y-86950426D01*
X116085144Y-86977135D01*
X116133360Y-87027702D01*
X116146583Y-87096309D01*
X116120614Y-87161174D01*
X116110825Y-87172203D01*
X106495489Y-96787540D01*
X106439541Y-96843487D01*
X106439535Y-96843495D01*
X106399982Y-96912004D01*
X106399979Y-96912009D01*
X106395449Y-96928916D01*
X106381089Y-96982510D01*
X106379500Y-96988439D01*
X106379500Y-100932623D01*
X106359815Y-100999662D01*
X106343182Y-101020304D01*
X106279500Y-101083986D01*
X106213608Y-101198112D01*
X106198743Y-101253591D01*
X106179500Y-101325408D01*
X102898711Y-101325408D01*
X102845220Y-101160780D01*
X102845218Y-101160776D01*
X102845218Y-101160775D01*
X102806091Y-101083986D01*
X102752287Y-100978389D01*
X102738186Y-100958980D01*
X102631971Y-100812785D01*
X102487213Y-100668027D01*
X102321613Y-100547714D01*
X102321612Y-100547713D01*
X102321610Y-100547712D01*
X102228920Y-100500484D01*
X102178124Y-100452509D01*
X102161329Y-100384688D01*
X102183866Y-100318553D01*
X102228919Y-100279515D01*
X102321610Y-100232287D01*
X102401771Y-100174047D01*
X102487213Y-100111971D01*
X102487215Y-100111968D01*
X102487219Y-100111966D01*
X102631966Y-99967219D01*
X102631970Y-99967214D01*
X102631971Y-99967213D01*
X102684732Y-99894590D01*
X102752287Y-99801610D01*
X102845220Y-99619219D01*
X102908477Y-99424534D01*
X102940500Y-99222352D01*
X102940500Y-99017648D01*
X102908477Y-98815465D01*
X102864464Y-98680008D01*
X102845220Y-98620781D01*
X102845218Y-98620777D01*
X102845218Y-98620776D01*
X102799378Y-98530811D01*
X102752287Y-98438390D01*
X102730782Y-98408791D01*
X102631971Y-98272786D01*
X102487217Y-98128032D01*
X102487212Y-98128028D01*
X102455265Y-98104817D01*
X102412599Y-98049487D01*
X102406620Y-97979874D01*
X102439226Y-97918079D01*
X102500064Y-97883722D01*
X102528150Y-97880499D01*
X102544260Y-97880499D01*
X102544266Y-97880499D01*
X102574700Y-97877646D01*
X102702883Y-97832793D01*
X102812150Y-97752150D01*
X102892793Y-97642883D01*
X102928128Y-97541902D01*
X102937646Y-97514702D01*
X102937646Y-97514700D01*
X102940500Y-97484267D01*
X102940499Y-95675734D01*
X102937646Y-95645300D01*
X102892793Y-95517117D01*
X102856331Y-95467713D01*
X102812150Y-95407849D01*
X102738123Y-95353215D01*
X102702883Y-95327207D01*
X102702881Y-95327206D01*
X102574701Y-95282353D01*
X102544270Y-95279500D01*
X100735739Y-95279500D01*
X100721751Y-95280811D01*
X100705300Y-95282354D01*
X100705297Y-95282354D01*
X100705296Y-95282355D01*
X100705294Y-95282355D01*
X100577117Y-95327206D01*
X100467849Y-95407849D01*
X100387206Y-95517118D01*
X100342353Y-95645297D01*
X100342353Y-95645299D01*
X100339500Y-95675729D01*
X97970500Y-95675729D01*
X97970500Y-94066508D01*
X107297100Y-94066508D01*
X107297100Y-94198291D01*
X107331208Y-94325587D01*
X107364154Y-94382650D01*
X107397100Y-94439714D01*
X107490286Y-94532900D01*
X107604414Y-94598792D01*
X107731708Y-94632900D01*
X107731710Y-94632900D01*
X107863490Y-94632900D01*
X107863492Y-94632900D01*
X107990786Y-94598792D01*
X108104914Y-94532900D01*
X108198100Y-94439714D01*
X108263992Y-94325586D01*
X108298100Y-94198292D01*
X108298100Y-94066508D01*
X108263992Y-93939214D01*
X108263872Y-93939007D01*
X108240924Y-93899260D01*
X108198100Y-93825086D01*
X108104914Y-93731900D01*
X108038873Y-93693771D01*
X107990787Y-93666008D01*
X107927139Y-93648954D01*
X107863492Y-93631900D01*
X107731708Y-93631900D01*
X107604412Y-93666008D01*
X107490286Y-93731900D01*
X107490283Y-93731902D01*
X107397102Y-93825083D01*
X107397100Y-93825086D01*
X107331208Y-93939212D01*
X107297100Y-94066508D01*
X97970500Y-94066508D01*
X97970500Y-93141995D01*
X99174499Y-93141995D01*
X99201418Y-93277322D01*
X99201421Y-93277332D01*
X99254221Y-93404804D01*
X99254228Y-93404817D01*
X99330885Y-93519541D01*
X99330888Y-93519545D01*
X99428454Y-93617111D01*
X99428458Y-93617114D01*
X99543182Y-93693771D01*
X99543195Y-93693778D01*
X99643838Y-93735465D01*
X99670672Y-93746580D01*
X99670676Y-93746580D01*
X99670677Y-93746581D01*
X99806004Y-93773500D01*
X99806007Y-93773500D01*
X100743995Y-93773500D01*
X100835041Y-93755389D01*
X100879328Y-93746580D01*
X101006811Y-93693775D01*
X101121542Y-93617114D01*
X101219114Y-93519542D01*
X101295775Y-93404811D01*
X101348580Y-93277328D01*
X101375500Y-93141995D01*
X103204499Y-93141995D01*
X103231418Y-93277322D01*
X103231421Y-93277332D01*
X103284221Y-93404804D01*
X103284228Y-93404817D01*
X103360885Y-93519541D01*
X103360888Y-93519545D01*
X103458454Y-93617111D01*
X103458458Y-93617114D01*
X103573182Y-93693771D01*
X103573195Y-93693778D01*
X103673838Y-93735465D01*
X103700672Y-93746580D01*
X103700676Y-93746580D01*
X103700677Y-93746581D01*
X103836004Y-93773500D01*
X103836007Y-93773500D01*
X105073995Y-93773500D01*
X105165041Y-93755389D01*
X105209328Y-93746580D01*
X105336811Y-93693775D01*
X105451542Y-93617114D01*
X105549114Y-93519542D01*
X105625775Y-93404811D01*
X105678580Y-93277328D01*
X105693383Y-93202908D01*
X106027380Y-93202908D01*
X106027380Y-93334691D01*
X106061488Y-93461987D01*
X106094434Y-93519050D01*
X106127380Y-93576114D01*
X106220566Y-93669300D01*
X106319401Y-93726363D01*
X106328995Y-93731902D01*
X106334694Y-93735192D01*
X106461988Y-93769300D01*
X106461990Y-93769300D01*
X106593770Y-93769300D01*
X106593772Y-93769300D01*
X106721066Y-93735192D01*
X106835194Y-93669300D01*
X106928380Y-93576114D01*
X106994272Y-93461986D01*
X107028380Y-93334692D01*
X107028380Y-93202908D01*
X106994272Y-93075614D01*
X106928380Y-92961486D01*
X106835194Y-92868300D01*
X106725523Y-92804981D01*
X106721067Y-92802408D01*
X106657419Y-92785354D01*
X106593772Y-92768300D01*
X106461988Y-92768300D01*
X106334692Y-92802408D01*
X106220566Y-92868300D01*
X106220563Y-92868302D01*
X106127382Y-92961483D01*
X106127380Y-92961486D01*
X106061488Y-93075612D01*
X106027380Y-93202908D01*
X105693383Y-93202908D01*
X105705500Y-93141993D01*
X105705500Y-93004007D01*
X105705500Y-93004004D01*
X105678581Y-92868677D01*
X105678580Y-92868676D01*
X105678580Y-92868672D01*
X105653047Y-92807030D01*
X105625778Y-92741195D01*
X105625771Y-92741182D01*
X105549114Y-92626458D01*
X105549111Y-92626454D01*
X105451545Y-92528888D01*
X105451541Y-92528885D01*
X105336817Y-92452228D01*
X105336804Y-92452221D01*
X105209332Y-92399421D01*
X105209322Y-92399418D01*
X105073995Y-92372500D01*
X105073993Y-92372500D01*
X103836007Y-92372500D01*
X103836005Y-92372500D01*
X103700677Y-92399418D01*
X103700667Y-92399421D01*
X103573195Y-92452221D01*
X103573182Y-92452228D01*
X103458458Y-92528885D01*
X103458454Y-92528888D01*
X103360888Y-92626454D01*
X103360885Y-92626458D01*
X103284228Y-92741182D01*
X103284221Y-92741195D01*
X103231421Y-92868667D01*
X103231418Y-92868677D01*
X103204500Y-93004004D01*
X103204500Y-93004007D01*
X103204500Y-93141993D01*
X103204500Y-93141995D01*
X103204499Y-93141995D01*
X101375500Y-93141995D01*
X101375500Y-93141993D01*
X101375500Y-93004007D01*
X101375500Y-93004004D01*
X101348581Y-92868677D01*
X101348580Y-92868676D01*
X101348580Y-92868672D01*
X101323047Y-92807030D01*
X101295778Y-92741195D01*
X101295771Y-92741182D01*
X101219114Y-92626458D01*
X101219111Y-92626454D01*
X101121545Y-92528888D01*
X101121541Y-92528885D01*
X101006817Y-92452228D01*
X101006804Y-92452221D01*
X100879332Y-92399421D01*
X100879322Y-92399418D01*
X100743995Y-92372500D01*
X100743993Y-92372500D01*
X99806007Y-92372500D01*
X99806005Y-92372500D01*
X99670677Y-92399418D01*
X99670667Y-92399421D01*
X99543195Y-92452221D01*
X99543182Y-92452228D01*
X99428458Y-92528885D01*
X99428454Y-92528888D01*
X99330888Y-92626454D01*
X99330885Y-92626458D01*
X99254228Y-92741182D01*
X99254221Y-92741195D01*
X99201421Y-92868667D01*
X99201418Y-92868677D01*
X99174500Y-93004004D01*
X99174500Y-93004007D01*
X99174500Y-93141993D01*
X99174500Y-93141995D01*
X99174499Y-93141995D01*
X97970500Y-93141995D01*
X97970500Y-90433984D01*
X102546862Y-90433984D01*
X102546862Y-90565768D01*
X102557265Y-90604592D01*
X102580970Y-90693063D01*
X102597273Y-90721300D01*
X102646862Y-90807190D01*
X102740048Y-90900376D01*
X102854176Y-90966268D01*
X102981470Y-91000376D01*
X102981472Y-91000376D01*
X103037017Y-91000376D01*
X103104056Y-91020061D01*
X103149811Y-91072865D01*
X103156789Y-91092276D01*
X103165608Y-91125186D01*
X103231500Y-91239314D01*
X103324686Y-91332500D01*
X103438814Y-91398392D01*
X103438819Y-91398393D01*
X103440295Y-91399005D01*
X103441354Y-91399858D01*
X103445853Y-91402456D01*
X103445448Y-91403157D01*
X103494699Y-91442845D01*
X103516765Y-91509139D01*
X103512619Y-91545658D01*
X103502500Y-91583422D01*
X103502500Y-91702572D01*
X103533337Y-91817660D01*
X103538388Y-91826408D01*
X103592910Y-91920842D01*
X103677158Y-92005090D01*
X103780341Y-92064663D01*
X103895427Y-92095500D01*
X103895429Y-92095500D01*
X104014571Y-92095500D01*
X104014573Y-92095500D01*
X104129659Y-92064663D01*
X104232842Y-92005090D01*
X104317090Y-91920842D01*
X104376663Y-91817659D01*
X104407500Y-91702573D01*
X104407500Y-91583427D01*
X104376663Y-91468341D01*
X104317090Y-91365158D01*
X104232842Y-91280910D01*
X104162667Y-91240394D01*
X104114453Y-91189827D01*
X104101231Y-91121220D01*
X104104890Y-91100932D01*
X104132500Y-90997892D01*
X104132500Y-90866108D01*
X104098392Y-90738814D01*
X104097917Y-90737992D01*
X104088280Y-90721299D01*
X104032500Y-90624686D01*
X103939314Y-90531500D01*
X103863676Y-90487830D01*
X103825187Y-90465608D01*
X103716134Y-90436388D01*
X103697892Y-90431500D01*
X103642345Y-90431500D01*
X103575306Y-90411815D01*
X103529551Y-90359011D01*
X103522572Y-90339599D01*
X103513754Y-90306690D01*
X103447862Y-90192562D01*
X103354676Y-90099376D01*
X103297612Y-90066430D01*
X103240549Y-90033484D01*
X103176901Y-90016430D01*
X103113254Y-89999376D01*
X102981470Y-89999376D01*
X102854174Y-90033484D01*
X102740048Y-90099376D01*
X102740045Y-90099378D01*
X102646864Y-90192559D01*
X102646862Y-90192562D01*
X102580970Y-90306688D01*
X102552802Y-90411815D01*
X102546862Y-90433984D01*
X97970500Y-90433984D01*
X97970500Y-87437108D01*
X102604500Y-87437108D01*
X102604500Y-87568891D01*
X102638608Y-87696187D01*
X102667767Y-87746690D01*
X102704500Y-87810314D01*
X102704502Y-87810316D01*
X102728605Y-87834419D01*
X102762090Y-87895742D01*
X102757106Y-87965434D01*
X102728605Y-88009781D01*
X102704502Y-88033883D01*
X102704500Y-88033886D01*
X102638608Y-88148012D01*
X102614395Y-88238379D01*
X102604500Y-88275308D01*
X102604500Y-88407092D01*
X102619678Y-88463739D01*
X102638608Y-88534387D01*
X102642133Y-88540492D01*
X102704500Y-88648514D01*
X102797686Y-88741700D01*
X102911814Y-88807592D01*
X103039108Y-88841700D01*
X103039110Y-88841700D01*
X103170890Y-88841700D01*
X103170892Y-88841700D01*
X103298186Y-88807592D01*
X103412314Y-88741700D01*
X103505500Y-88648514D01*
X103571392Y-88534386D01*
X103605500Y-88407092D01*
X103605500Y-88365673D01*
X107587976Y-88365673D01*
X107587976Y-88497457D01*
X107588952Y-88501100D01*
X107622084Y-88624752D01*
X107646930Y-88667786D01*
X107687976Y-88738879D01*
X107781162Y-88832065D01*
X107895290Y-88897957D01*
X108022584Y-88932065D01*
X108022586Y-88932065D01*
X108154366Y-88932065D01*
X108154368Y-88932065D01*
X108281662Y-88897957D01*
X108395790Y-88832065D01*
X108488976Y-88738879D01*
X108554868Y-88624751D01*
X108588976Y-88497457D01*
X108588976Y-88408708D01*
X109513300Y-88408708D01*
X109513300Y-88540491D01*
X109547408Y-88667787D01*
X109562706Y-88694283D01*
X109613300Y-88781914D01*
X109706486Y-88875100D01*
X109820614Y-88940992D01*
X109947908Y-88975100D01*
X109947909Y-88975100D01*
X109951622Y-88976095D01*
X110011283Y-89012460D01*
X110039304Y-89063776D01*
X110040300Y-89067492D01*
X110074408Y-89194786D01*
X110140300Y-89308914D01*
X110233486Y-89402100D01*
X110347614Y-89467992D01*
X110474908Y-89502100D01*
X110474910Y-89502100D01*
X110606690Y-89502100D01*
X110606692Y-89502100D01*
X110733986Y-89467992D01*
X110848114Y-89402100D01*
X110941300Y-89308914D01*
X111007192Y-89194786D01*
X111041300Y-89067492D01*
X111041300Y-88935708D01*
X111007192Y-88808414D01*
X111006717Y-88807592D01*
X110991892Y-88781914D01*
X110941300Y-88694286D01*
X110848114Y-88601100D01*
X110733986Y-88535208D01*
X110641974Y-88510553D01*
X110602976Y-88500104D01*
X110543316Y-88463739D01*
X110515295Y-88412422D01*
X110480191Y-88281412D01*
X110471363Y-88266121D01*
X110414300Y-88167286D01*
X110321114Y-88074100D01*
X110264050Y-88041154D01*
X110206987Y-88008208D01*
X110131990Y-87988113D01*
X110079692Y-87974100D01*
X109947908Y-87974100D01*
X109820612Y-88008208D01*
X109706486Y-88074100D01*
X109706483Y-88074102D01*
X109613302Y-88167283D01*
X109613300Y-88167286D01*
X109547408Y-88281412D01*
X109513300Y-88408708D01*
X108588976Y-88408708D01*
X108588976Y-88365673D01*
X108554868Y-88238379D01*
X108488976Y-88124251D01*
X108395790Y-88031065D01*
X108338726Y-87998119D01*
X108281663Y-87965173D01*
X108218015Y-87948119D01*
X108154368Y-87931065D01*
X108022584Y-87931065D01*
X107895288Y-87965173D01*
X107781162Y-88031065D01*
X107781159Y-88031067D01*
X107687978Y-88124248D01*
X107687976Y-88124251D01*
X107622084Y-88238377D01*
X107612189Y-88275308D01*
X107587976Y-88365673D01*
X103605500Y-88365673D01*
X103605500Y-88275308D01*
X103571392Y-88148014D01*
X103570917Y-88147192D01*
X103557671Y-88124248D01*
X103505500Y-88033886D01*
X103481395Y-88009781D01*
X103447910Y-87948458D01*
X103452894Y-87878766D01*
X103481395Y-87834419D01*
X103505500Y-87810314D01*
X103571392Y-87696186D01*
X103605500Y-87568892D01*
X103605500Y-87437108D01*
X103571392Y-87309814D01*
X103546572Y-87266825D01*
X103530100Y-87198927D01*
X103552952Y-87132900D01*
X103607873Y-87089709D01*
X103653960Y-87080826D01*
X103697890Y-87080826D01*
X103697892Y-87080826D01*
X103825186Y-87046718D01*
X103939314Y-86980826D01*
X104032500Y-86887640D01*
X104098392Y-86773512D01*
X104132500Y-86646218D01*
X104132500Y-86514434D01*
X104103426Y-86405927D01*
X104105089Y-86336082D01*
X104144251Y-86278219D01*
X104161188Y-86266459D01*
X104232842Y-86225090D01*
X104317090Y-86140842D01*
X104376663Y-86037659D01*
X104407500Y-85922573D01*
X104407500Y-85803427D01*
X104376663Y-85688341D01*
X104317090Y-85585158D01*
X104232842Y-85500910D01*
X104181250Y-85471123D01*
X104129660Y-85441337D01*
X104072116Y-85425918D01*
X104014573Y-85410500D01*
X103895427Y-85410500D01*
X103780339Y-85441337D01*
X103677158Y-85500910D01*
X103677155Y-85500912D01*
X103592912Y-85585155D01*
X103592910Y-85585158D01*
X103533337Y-85688339D01*
X103502500Y-85803427D01*
X103502500Y-85922572D01*
X103514145Y-85966033D01*
X103512482Y-86035883D01*
X103473319Y-86093746D01*
X103441826Y-86112686D01*
X103438815Y-86113932D01*
X103324686Y-86179826D01*
X103324683Y-86179828D01*
X103231502Y-86273009D01*
X103231500Y-86273012D01*
X103165608Y-86387138D01*
X103143647Y-86469100D01*
X103131500Y-86514434D01*
X103131500Y-86646218D01*
X103135997Y-86663000D01*
X103165608Y-86773513D01*
X103167282Y-86776412D01*
X103189148Y-86814285D01*
X103190427Y-86816499D01*
X103206900Y-86884399D01*
X103184048Y-86950426D01*
X103129127Y-86993617D01*
X103083040Y-87002500D01*
X103039108Y-87002500D01*
X102911812Y-87036608D01*
X102797686Y-87102500D01*
X102797683Y-87102502D01*
X102704502Y-87195683D01*
X102704500Y-87195686D01*
X102638608Y-87309812D01*
X102604500Y-87437108D01*
X97970500Y-87437108D01*
X97970500Y-84501995D01*
X99174499Y-84501995D01*
X99201418Y-84637322D01*
X99201421Y-84637332D01*
X99254221Y-84764804D01*
X99254228Y-84764817D01*
X99330885Y-84879541D01*
X99330888Y-84879545D01*
X99428454Y-84977111D01*
X99428458Y-84977114D01*
X99543182Y-85053771D01*
X99543195Y-85053778D01*
X99670667Y-85106578D01*
X99670672Y-85106580D01*
X99670676Y-85106580D01*
X99670677Y-85106581D01*
X99806004Y-85133500D01*
X99806007Y-85133500D01*
X100743995Y-85133500D01*
X100835041Y-85115389D01*
X100879328Y-85106580D01*
X101006811Y-85053775D01*
X101121542Y-84977114D01*
X101219114Y-84879542D01*
X101295775Y-84764811D01*
X101348580Y-84637328D01*
X101357389Y-84593041D01*
X101375500Y-84501995D01*
X103204499Y-84501995D01*
X103231418Y-84637322D01*
X103231421Y-84637332D01*
X103284221Y-84764804D01*
X103284228Y-84764817D01*
X103360885Y-84879541D01*
X103360888Y-84879545D01*
X103458454Y-84977111D01*
X103458458Y-84977114D01*
X103573182Y-85053771D01*
X103573195Y-85053778D01*
X103700667Y-85106578D01*
X103700672Y-85106580D01*
X103700676Y-85106580D01*
X103700677Y-85106581D01*
X103836004Y-85133500D01*
X103836007Y-85133500D01*
X105073995Y-85133500D01*
X105165041Y-85115389D01*
X105209328Y-85106580D01*
X105336811Y-85053775D01*
X105451542Y-84977114D01*
X105549114Y-84879542D01*
X105625775Y-84764811D01*
X105678290Y-84638027D01*
X105722130Y-84583624D01*
X105788424Y-84561559D01*
X105856124Y-84578838D01*
X105880532Y-84597799D01*
X105951685Y-84668952D01*
X106065813Y-84734844D01*
X106193107Y-84768952D01*
X106193109Y-84768952D01*
X106324889Y-84768952D01*
X106324891Y-84768952D01*
X106452185Y-84734844D01*
X106566313Y-84668952D01*
X106659499Y-84575766D01*
X106725391Y-84461638D01*
X106759499Y-84334344D01*
X106759499Y-84202560D01*
X106725391Y-84075266D01*
X106659499Y-83961138D01*
X106659496Y-83961135D01*
X106657449Y-83957589D01*
X106655691Y-83950345D01*
X106650936Y-83944607D01*
X106647567Y-83916858D01*
X106640976Y-83889689D01*
X106643204Y-83880922D01*
X106642516Y-83875247D01*
X106649851Y-83854782D01*
X106653201Y-83841609D01*
X106655172Y-83837531D01*
X106714531Y-83734720D01*
X106726519Y-83689977D01*
X106731624Y-83679421D01*
X106747523Y-83661866D01*
X106759850Y-83641645D01*
X106770546Y-83636449D01*
X106778529Y-83627636D01*
X106801394Y-83621464D01*
X106822697Y-83611117D01*
X106843259Y-83609400D01*
X106898290Y-83609400D01*
X106898292Y-83609400D01*
X107025586Y-83575292D01*
X107139714Y-83509400D01*
X107232900Y-83416214D01*
X107243123Y-83398508D01*
X110040300Y-83398508D01*
X110040300Y-83530292D01*
X110048395Y-83560503D01*
X110074408Y-83657587D01*
X110085268Y-83676396D01*
X110140300Y-83771714D01*
X110233486Y-83864900D01*
X110312334Y-83910423D01*
X110343931Y-83928666D01*
X110347614Y-83930792D01*
X110474908Y-83964900D01*
X110474910Y-83964900D01*
X110527570Y-83964900D01*
X110594609Y-83984585D01*
X110640364Y-84037389D01*
X110650509Y-84105090D01*
X110649901Y-84109702D01*
X110649900Y-84109708D01*
X110649900Y-84241492D01*
X110658794Y-84274686D01*
X110684008Y-84368787D01*
X110695570Y-84388812D01*
X110749900Y-84482914D01*
X110843086Y-84576100D01*
X110957214Y-84641992D01*
X111084508Y-84676100D01*
X111084510Y-84676100D01*
X111216290Y-84676100D01*
X111216292Y-84676100D01*
X111343586Y-84641992D01*
X111457714Y-84576100D01*
X111550900Y-84482914D01*
X111616792Y-84368786D01*
X111650900Y-84241492D01*
X111650900Y-84168862D01*
X113283146Y-84168862D01*
X113283146Y-84300645D01*
X113317254Y-84427941D01*
X113336710Y-84461639D01*
X113383146Y-84542068D01*
X113476332Y-84635254D01*
X113590460Y-84701146D01*
X113717754Y-84735254D01*
X113717756Y-84735254D01*
X113849536Y-84735254D01*
X113849538Y-84735254D01*
X113976832Y-84701146D01*
X114090960Y-84635254D01*
X114184146Y-84542068D01*
X114199134Y-84516108D01*
X115526700Y-84516108D01*
X115526700Y-84647892D01*
X115532342Y-84668949D01*
X115560808Y-84775187D01*
X115593754Y-84832250D01*
X115626700Y-84889314D01*
X115719886Y-84982500D01*
X115834014Y-85048392D01*
X115961308Y-85082500D01*
X115961310Y-85082500D01*
X116093090Y-85082500D01*
X116093092Y-85082500D01*
X116220386Y-85048392D01*
X116334514Y-84982500D01*
X116427700Y-84889314D01*
X116493592Y-84775186D01*
X116527700Y-84647892D01*
X116527700Y-84516108D01*
X116493592Y-84388814D01*
X116427700Y-84274686D01*
X116334514Y-84181500D01*
X116277450Y-84148554D01*
X116220387Y-84115608D01*
X116156739Y-84098554D01*
X116093092Y-84081500D01*
X115961308Y-84081500D01*
X115834012Y-84115608D01*
X115719886Y-84181500D01*
X115719883Y-84181502D01*
X115626702Y-84274683D01*
X115626700Y-84274686D01*
X115560808Y-84388812D01*
X115526700Y-84516108D01*
X114199134Y-84516108D01*
X114250038Y-84427940D01*
X114284146Y-84300646D01*
X114284146Y-84168862D01*
X114250038Y-84041568D01*
X114184146Y-83927440D01*
X114090960Y-83834254D01*
X114033896Y-83801308D01*
X113976833Y-83768362D01*
X113913185Y-83751308D01*
X113849538Y-83734254D01*
X113717754Y-83734254D01*
X113590458Y-83768362D01*
X113476332Y-83834254D01*
X113476329Y-83834256D01*
X113383148Y-83927437D01*
X113383146Y-83927440D01*
X113317254Y-84041566D01*
X113283146Y-84168862D01*
X111650900Y-84168862D01*
X111650900Y-84109708D01*
X111616792Y-83982414D01*
X111550900Y-83868286D01*
X111457714Y-83775100D01*
X111383929Y-83732500D01*
X111343587Y-83709208D01*
X111232418Y-83679421D01*
X111216292Y-83675100D01*
X111163630Y-83675100D01*
X111096591Y-83655415D01*
X111050836Y-83602611D01*
X111040691Y-83534910D01*
X111041298Y-83530298D01*
X111041300Y-83530292D01*
X111041300Y-83398508D01*
X111007192Y-83271214D01*
X110941300Y-83157086D01*
X110848114Y-83063900D01*
X110772767Y-83020398D01*
X110733987Y-82998008D01*
X110670339Y-82980954D01*
X110606692Y-82963900D01*
X110474908Y-82963900D01*
X110347612Y-82998008D01*
X110233486Y-83063900D01*
X110233483Y-83063902D01*
X110140302Y-83157083D01*
X110140300Y-83157086D01*
X110074408Y-83271212D01*
X110051878Y-83355299D01*
X110040300Y-83398508D01*
X107243123Y-83398508D01*
X107298792Y-83302086D01*
X107332900Y-83174792D01*
X107332900Y-83043008D01*
X107298792Y-82915714D01*
X107232900Y-82801586D01*
X107169218Y-82737904D01*
X107135734Y-82676580D01*
X107132900Y-82650223D01*
X107132900Y-82249198D01*
X111867549Y-82249198D01*
X111867549Y-82380982D01*
X111874029Y-82405167D01*
X111901657Y-82508277D01*
X111924293Y-82547483D01*
X111967549Y-82622404D01*
X112060735Y-82715590D01*
X112174863Y-82781482D01*
X112302157Y-82815590D01*
X112302159Y-82815590D01*
X112433939Y-82815590D01*
X112433941Y-82815590D01*
X112533521Y-82788908D01*
X117965100Y-82788908D01*
X117965100Y-82920692D01*
X117978564Y-82970939D01*
X117999208Y-83047987D01*
X118017501Y-83079670D01*
X118065100Y-83162114D01*
X118158286Y-83255300D01*
X118272414Y-83321192D01*
X118399708Y-83355300D01*
X118399710Y-83355300D01*
X118531490Y-83355300D01*
X118531492Y-83355300D01*
X118658786Y-83321192D01*
X118772914Y-83255300D01*
X118866100Y-83162114D01*
X118931992Y-83047986D01*
X118966100Y-82920692D01*
X118966100Y-82788908D01*
X118931992Y-82661614D01*
X118866100Y-82547486D01*
X118772914Y-82454300D01*
X118691224Y-82407136D01*
X118658787Y-82388408D01*
X118565144Y-82363317D01*
X118531492Y-82354300D01*
X118399708Y-82354300D01*
X118272412Y-82388408D01*
X118158286Y-82454300D01*
X118158283Y-82454302D01*
X118065102Y-82547483D01*
X118065100Y-82547486D01*
X117999208Y-82661612D01*
X117972562Y-82761058D01*
X117965100Y-82788908D01*
X112533521Y-82788908D01*
X112561235Y-82781482D01*
X112675363Y-82715590D01*
X112683035Y-82707917D01*
X112744353Y-82674433D01*
X112814045Y-82679415D01*
X112832716Y-82688211D01*
X112848800Y-82697497D01*
X112899816Y-82726951D01*
X113027110Y-82761059D01*
X113027112Y-82761059D01*
X113158892Y-82761059D01*
X113158894Y-82761059D01*
X113286188Y-82726951D01*
X113400316Y-82661059D01*
X113493502Y-82567873D01*
X113559394Y-82453745D01*
X113593502Y-82326451D01*
X113593502Y-82194667D01*
X113559394Y-82067373D01*
X113493502Y-81953245D01*
X113400316Y-81860059D01*
X113321562Y-81814590D01*
X113286189Y-81794167D01*
X113221000Y-81776700D01*
X113158894Y-81760059D01*
X113027110Y-81760059D01*
X112899814Y-81794167D01*
X112785688Y-81860059D01*
X112785687Y-81860059D01*
X112778012Y-81867735D01*
X112716688Y-81901217D01*
X112646996Y-81896230D01*
X112628334Y-81887437D01*
X112561238Y-81848699D01*
X112561235Y-81848698D01*
X112433941Y-81814590D01*
X112302157Y-81814590D01*
X112174861Y-81848698D01*
X112060735Y-81914590D01*
X112060732Y-81914592D01*
X111967551Y-82007773D01*
X111967549Y-82007776D01*
X111901657Y-82121902D01*
X111890602Y-82163162D01*
X111867549Y-82249198D01*
X107132900Y-82249198D01*
X107132900Y-80541433D01*
X107152585Y-80474394D01*
X107169219Y-80453752D01*
X107418059Y-80204912D01*
X107703830Y-79919140D01*
X107765151Y-79885657D01*
X107834842Y-79890641D01*
X107890776Y-79932512D01*
X107915193Y-79997977D01*
X107912266Y-80028649D01*
X107912915Y-80028735D01*
X107911854Y-80036789D01*
X107911854Y-80036791D01*
X107911854Y-80168575D01*
X107936187Y-80259389D01*
X107945963Y-80295871D01*
X107945963Y-80295872D01*
X108002498Y-80393793D01*
X108018971Y-80461693D01*
X108002498Y-80517793D01*
X107934021Y-80636398D01*
X107934021Y-80636399D01*
X107934020Y-80636401D01*
X107934020Y-80636402D01*
X107899912Y-80763696D01*
X107899912Y-80895480D01*
X107916966Y-80959127D01*
X107934020Y-81022775D01*
X107966966Y-81079838D01*
X107999912Y-81136902D01*
X108093098Y-81230088D01*
X108207226Y-81295980D01*
X108334520Y-81330088D01*
X108334522Y-81330088D01*
X108466302Y-81330088D01*
X108466304Y-81330088D01*
X108593598Y-81295980D01*
X108707726Y-81230088D01*
X108800912Y-81136902D01*
X108866804Y-81022774D01*
X108900912Y-80895480D01*
X108900912Y-80853151D01*
X108920597Y-80786112D01*
X108973401Y-80740357D01*
X109042559Y-80730413D01*
X109106115Y-80759438D01*
X109112593Y-80765470D01*
X109179487Y-80832364D01*
X109293615Y-80898256D01*
X109420909Y-80932364D01*
X109420911Y-80932364D01*
X109510968Y-80932364D01*
X109578007Y-80952049D01*
X109598649Y-80968683D01*
X109992877Y-81362911D01*
X110048826Y-81418860D01*
X110048828Y-81418861D01*
X110048832Y-81418864D01*
X110117341Y-81458417D01*
X110117348Y-81458421D01*
X110193775Y-81478900D01*
X116180373Y-81478900D01*
X116247412Y-81498585D01*
X116293167Y-81551389D01*
X116303111Y-81620547D01*
X116291265Y-81654772D01*
X116292166Y-81655146D01*
X116289055Y-81662657D01*
X116289054Y-81662659D01*
X116289054Y-81662660D01*
X116254946Y-81789954D01*
X116254946Y-81921738D01*
X116263388Y-81953245D01*
X116289054Y-82049033D01*
X116299642Y-82067371D01*
X116354946Y-82163160D01*
X116448132Y-82256346D01*
X116562260Y-82322238D01*
X116689554Y-82356346D01*
X116689556Y-82356346D01*
X116821336Y-82356346D01*
X116821338Y-82356346D01*
X116948632Y-82322238D01*
X117062760Y-82256346D01*
X117155946Y-82163160D01*
X117221838Y-82049032D01*
X117255946Y-81921738D01*
X117255946Y-81789954D01*
X117221838Y-81662660D01*
X117221835Y-81662655D01*
X117218726Y-81655146D01*
X117220579Y-81654378D01*
X117206660Y-81596997D01*
X117229513Y-81530971D01*
X117284435Y-81487781D01*
X117330519Y-81478900D01*
X119610567Y-81478900D01*
X119677606Y-81498585D01*
X119698248Y-81515219D01*
X119895396Y-81712367D01*
X119915100Y-81738045D01*
X119944700Y-81789314D01*
X120037886Y-81882500D01*
X120152014Y-81948392D01*
X120279308Y-81982500D01*
X120279310Y-81982500D01*
X120411090Y-81982500D01*
X120411092Y-81982500D01*
X120538386Y-81948392D01*
X120652514Y-81882500D01*
X120745700Y-81789314D01*
X120811592Y-81675186D01*
X120845700Y-81547892D01*
X120845700Y-81416108D01*
X120811592Y-81288814D01*
X120745700Y-81174686D01*
X120652514Y-81081500D01*
X120550800Y-81022775D01*
X120538387Y-81015608D01*
X120464054Y-80995691D01*
X120411092Y-80981500D01*
X120279308Y-80981500D01*
X120152014Y-81015608D01*
X120152012Y-81015609D01*
X120144164Y-81017712D01*
X120143563Y-81015472D01*
X120139346Y-81015925D01*
X120124587Y-81022517D01*
X120105323Y-81019582D01*
X120085950Y-81021665D01*
X120070755Y-81014316D01*
X120055514Y-81011995D01*
X120032241Y-80995691D01*
X120025984Y-80992665D01*
X120023052Y-80990081D01*
X119970911Y-80937940D01*
X119961253Y-80932364D01*
X119950547Y-80926183D01*
X119950545Y-80926181D01*
X119902391Y-80898380D01*
X119902390Y-80898379D01*
X119876913Y-80891552D01*
X119825962Y-80877900D01*
X119825960Y-80877900D01*
X117108079Y-80877900D01*
X117041040Y-80858215D01*
X116995285Y-80805411D01*
X116985341Y-80736253D01*
X116988305Y-80721805D01*
X116989141Y-80718686D01*
X116994474Y-80698783D01*
X116994474Y-80566999D01*
X116960366Y-80439705D01*
X116894474Y-80325577D01*
X116801288Y-80232391D01*
X116715673Y-80182961D01*
X116693320Y-80170055D01*
X116645105Y-80119487D01*
X116631883Y-80050880D01*
X116657851Y-79986015D01*
X116693317Y-79955283D01*
X116740914Y-79927804D01*
X116834100Y-79834618D01*
X116899992Y-79720490D01*
X116934100Y-79593196D01*
X116934100Y-79461412D01*
X116899992Y-79334118D01*
X116834100Y-79219990D01*
X116740914Y-79126804D01*
X116678676Y-79090871D01*
X116626787Y-79060912D01*
X116563139Y-79043858D01*
X116499492Y-79026804D01*
X116367708Y-79026804D01*
X116240412Y-79060912D01*
X116126286Y-79126804D01*
X116126283Y-79126806D01*
X116033102Y-79219987D01*
X116033100Y-79219990D01*
X115967208Y-79334116D01*
X115938598Y-79440892D01*
X115933100Y-79461412D01*
X115933100Y-79593196D01*
X115941785Y-79625609D01*
X115967208Y-79720491D01*
X115980376Y-79743298D01*
X116033100Y-79834618D01*
X116126286Y-79927804D01*
X116227110Y-79986015D01*
X116234253Y-79990139D01*
X116282468Y-80040707D01*
X116295690Y-80109314D01*
X116269722Y-80174178D01*
X116234253Y-80204912D01*
X116186666Y-80232387D01*
X116186657Y-80232393D01*
X116093476Y-80325574D01*
X116093474Y-80325577D01*
X116027582Y-80439703D01*
X115993474Y-80566999D01*
X115993474Y-80698784D01*
X115999643Y-80721805D01*
X115997981Y-80791655D01*
X115958820Y-80849518D01*
X115894591Y-80877023D01*
X115879869Y-80877900D01*
X110409170Y-80877900D01*
X110342131Y-80858215D01*
X110321489Y-80841581D01*
X110023620Y-80543712D01*
X109990135Y-80482389D01*
X109987301Y-80456031D01*
X109987301Y-80365974D01*
X109987301Y-80365972D01*
X109953193Y-80238678D01*
X109890655Y-80130359D01*
X109887825Y-80118695D01*
X109880863Y-80108918D01*
X109879741Y-80085375D01*
X109874183Y-80062463D01*
X109878026Y-80049371D01*
X109877539Y-80039127D01*
X109890653Y-80006368D01*
X109901020Y-79988412D01*
X114669596Y-79988412D01*
X114669596Y-80120195D01*
X114703704Y-80247491D01*
X114725468Y-80285187D01*
X114769596Y-80361618D01*
X114862782Y-80454804D01*
X114976910Y-80520696D01*
X115104204Y-80554804D01*
X115104206Y-80554804D01*
X115235986Y-80554804D01*
X115235988Y-80554804D01*
X115363282Y-80520696D01*
X115477410Y-80454804D01*
X115570596Y-80361618D01*
X115636488Y-80247490D01*
X115670596Y-80120196D01*
X115670596Y-79988412D01*
X115636488Y-79861118D01*
X115570596Y-79746990D01*
X115477410Y-79653804D01*
X115389838Y-79603244D01*
X115363283Y-79587912D01*
X115299635Y-79570858D01*
X115235988Y-79553804D01*
X115104204Y-79553804D01*
X114976908Y-79587912D01*
X114862782Y-79653804D01*
X114862779Y-79653806D01*
X114769598Y-79746987D01*
X114769596Y-79746990D01*
X114703704Y-79861116D01*
X114669596Y-79988412D01*
X109901020Y-79988412D01*
X109953192Y-79898048D01*
X109987300Y-79770754D01*
X109987300Y-79638970D01*
X109953192Y-79511676D01*
X109887300Y-79397548D01*
X109794114Y-79304362D01*
X109732980Y-79269066D01*
X109679987Y-79238470D01*
X109611006Y-79219987D01*
X109552692Y-79204362D01*
X109420908Y-79204362D01*
X109293612Y-79238470D01*
X109179486Y-79304362D01*
X109179483Y-79304364D01*
X109086302Y-79397545D01*
X109086300Y-79397548D01*
X109020408Y-79511674D01*
X108986300Y-79638970D01*
X108986300Y-79669453D01*
X108966615Y-79736492D01*
X108913811Y-79782247D01*
X108844653Y-79792191D01*
X108781097Y-79763166D01*
X108774619Y-79757134D01*
X108719670Y-79702185D01*
X108719668Y-79702183D01*
X108635877Y-79653806D01*
X108605541Y-79636291D01*
X108541893Y-79619237D01*
X108478246Y-79602183D01*
X108346462Y-79602183D01*
X108346460Y-79602183D01*
X108338406Y-79603244D01*
X108338159Y-79601368D01*
X108278718Y-79599944D01*
X108220862Y-79560772D01*
X108193369Y-79496539D01*
X108204966Y-79427639D01*
X108228810Y-79394160D01*
X108901660Y-78721311D01*
X108941222Y-78652788D01*
X108961700Y-78576362D01*
X108961700Y-78497238D01*
X108961700Y-77708908D01*
X110599100Y-77708908D01*
X110599100Y-77840691D01*
X110633208Y-77967987D01*
X110663988Y-78021299D01*
X110699100Y-78082114D01*
X110792286Y-78175300D01*
X110906414Y-78241192D01*
X111033708Y-78275300D01*
X111033710Y-78275300D01*
X111165490Y-78275300D01*
X111165492Y-78275300D01*
X111292786Y-78241192D01*
X111406914Y-78175300D01*
X111416106Y-78166108D01*
X116187100Y-78166108D01*
X116187100Y-78297891D01*
X116221208Y-78425187D01*
X116254154Y-78482250D01*
X116287100Y-78539314D01*
X116380286Y-78632500D01*
X116494414Y-78698392D01*
X116621708Y-78732500D01*
X116621710Y-78732500D01*
X116753490Y-78732500D01*
X116753492Y-78732500D01*
X116880786Y-78698392D01*
X116994914Y-78632500D01*
X117088100Y-78539314D01*
X117153992Y-78425186D01*
X117188100Y-78297892D01*
X117188100Y-78166108D01*
X117153992Y-78038814D01*
X117088100Y-77924686D01*
X116994914Y-77831500D01*
X116922847Y-77789892D01*
X116880787Y-77765608D01*
X116817139Y-77748554D01*
X116753492Y-77731500D01*
X116621708Y-77731500D01*
X116494412Y-77765608D01*
X116380286Y-77831500D01*
X116380283Y-77831502D01*
X116287102Y-77924683D01*
X116287100Y-77924686D01*
X116221208Y-78038812D01*
X116187100Y-78166108D01*
X111416106Y-78166108D01*
X111500100Y-78082114D01*
X111565992Y-77967986D01*
X111600100Y-77840692D01*
X111600100Y-77708908D01*
X111565992Y-77581614D01*
X111500100Y-77467486D01*
X111406914Y-77374300D01*
X111326052Y-77327614D01*
X111292787Y-77308408D01*
X111229079Y-77291338D01*
X111165492Y-77274300D01*
X111033708Y-77274300D01*
X110906412Y-77308408D01*
X110792286Y-77374300D01*
X110792283Y-77374302D01*
X110699102Y-77467483D01*
X110699100Y-77467486D01*
X110633208Y-77581612D01*
X110599100Y-77708908D01*
X108961700Y-77708908D01*
X108961700Y-77150108D01*
X118066700Y-77150108D01*
X118066700Y-77281892D01*
X118073805Y-77308408D01*
X118100808Y-77409187D01*
X118105136Y-77416683D01*
X118166700Y-77523314D01*
X118259886Y-77616500D01*
X118374014Y-77682392D01*
X118501308Y-77716500D01*
X118501310Y-77716500D01*
X118633090Y-77716500D01*
X118633092Y-77716500D01*
X118760386Y-77682392D01*
X118874514Y-77616500D01*
X118967700Y-77523314D01*
X119007194Y-77454908D01*
X119336700Y-77454908D01*
X119336700Y-77586691D01*
X119370808Y-77713987D01*
X119385302Y-77739091D01*
X119436700Y-77828114D01*
X119529886Y-77921300D01*
X119644014Y-77987192D01*
X119771308Y-78021300D01*
X119771310Y-78021300D01*
X119903090Y-78021300D01*
X119903092Y-78021300D01*
X120030386Y-77987192D01*
X120144514Y-77921300D01*
X120237700Y-77828114D01*
X120303592Y-77713986D01*
X120337700Y-77586692D01*
X120337700Y-77454908D01*
X120303592Y-77327614D01*
X120237700Y-77213486D01*
X120144514Y-77120300D01*
X120087450Y-77087354D01*
X120030387Y-77054408D01*
X119912474Y-77022814D01*
X119903092Y-77020300D01*
X119771308Y-77020300D01*
X119644012Y-77054408D01*
X119529886Y-77120300D01*
X119529883Y-77120302D01*
X119436702Y-77213483D01*
X119436700Y-77213486D01*
X119370808Y-77327612D01*
X119336700Y-77454908D01*
X119007194Y-77454908D01*
X119033592Y-77409186D01*
X119067700Y-77281892D01*
X119067700Y-77150108D01*
X119033592Y-77022814D01*
X118967700Y-76908686D01*
X118874514Y-76815500D01*
X118817450Y-76782554D01*
X118760387Y-76749608D01*
X118696739Y-76732554D01*
X118633092Y-76715500D01*
X118501308Y-76715500D01*
X118374012Y-76749608D01*
X118259886Y-76815500D01*
X118259883Y-76815502D01*
X118166702Y-76908683D01*
X118166700Y-76908686D01*
X118100808Y-77022812D01*
X118092342Y-77054408D01*
X118066700Y-77150108D01*
X108961700Y-77150108D01*
X108961700Y-76032508D01*
X116491900Y-76032508D01*
X116491900Y-76164291D01*
X116526008Y-76291587D01*
X116558954Y-76348650D01*
X116591900Y-76405714D01*
X116685086Y-76498900D01*
X116799214Y-76564792D01*
X116926508Y-76598900D01*
X116926510Y-76598900D01*
X117058290Y-76598900D01*
X117058292Y-76598900D01*
X117185586Y-76564792D01*
X117299714Y-76498900D01*
X117392900Y-76405714D01*
X117458792Y-76291586D01*
X117492900Y-76164292D01*
X117492900Y-76032508D01*
X117458792Y-75905214D01*
X117392900Y-75791086D01*
X117299714Y-75697900D01*
X117239241Y-75662986D01*
X117185587Y-75632008D01*
X117121939Y-75614954D01*
X117058292Y-75597900D01*
X116926508Y-75597900D01*
X116799212Y-75632008D01*
X116685086Y-75697900D01*
X116685083Y-75697902D01*
X116591902Y-75791083D01*
X116591900Y-75791086D01*
X116526008Y-75905212D01*
X116491900Y-76032508D01*
X108961700Y-76032508D01*
X108961700Y-75928476D01*
X108981385Y-75861437D01*
X108998019Y-75840795D01*
X109020896Y-75817918D01*
X109061700Y-75777114D01*
X109127592Y-75662986D01*
X109161700Y-75535692D01*
X109161700Y-75403908D01*
X109127592Y-75276614D01*
X109061700Y-75162486D01*
X108968514Y-75069300D01*
X108911450Y-75036354D01*
X108854387Y-75003408D01*
X108762718Y-74978846D01*
X108727092Y-74969300D01*
X108693146Y-74969300D01*
X108626107Y-74949615D01*
X108580352Y-74896811D01*
X108571252Y-74854984D01*
X108570207Y-74855122D01*
X108569146Y-74847069D01*
X108569146Y-74847062D01*
X108535038Y-74719768D01*
X108469146Y-74605640D01*
X108375960Y-74512454D01*
X108314590Y-74477022D01*
X108261833Y-74446562D01*
X108198185Y-74429508D01*
X108134538Y-74412454D01*
X108002754Y-74412454D01*
X107875458Y-74446562D01*
X107761332Y-74512454D01*
X107761329Y-74512456D01*
X107668148Y-74605637D01*
X107668146Y-74605640D01*
X107602254Y-74719766D01*
X107568146Y-74847062D01*
X107568146Y-74937931D01*
X107548461Y-75004970D01*
X107495657Y-75050725D01*
X107426499Y-75060669D01*
X107382146Y-75045318D01*
X107309557Y-75003409D01*
X107309554Y-75003408D01*
X107182260Y-74969300D01*
X107182259Y-74969300D01*
X107174200Y-74968239D01*
X107174602Y-74965183D01*
X107121584Y-74949615D01*
X107075829Y-74896811D01*
X107068848Y-74877394D01*
X107044792Y-74787614D01*
X106978900Y-74673486D01*
X106885714Y-74580300D01*
X106814468Y-74539166D01*
X106771587Y-74514408D01*
X106707939Y-74497354D01*
X106644292Y-74480300D01*
X106512508Y-74480300D01*
X106385212Y-74514408D01*
X106271086Y-74580300D01*
X106271082Y-74580303D01*
X106252216Y-74599169D01*
X106190893Y-74632653D01*
X106121201Y-74627667D01*
X106102537Y-74618873D01*
X106009589Y-74565209D01*
X106009586Y-74565208D01*
X105882292Y-74531100D01*
X105750508Y-74531100D01*
X105750503Y-74531100D01*
X105714191Y-74540830D01*
X105689200Y-74540234D01*
X105664453Y-74543793D01*
X105654870Y-74539416D01*
X105644341Y-74539166D01*
X105623638Y-74525153D01*
X105600897Y-74514768D01*
X105595202Y-74505906D01*
X105586480Y-74500003D01*
X105576639Y-74477022D01*
X105563123Y-74455990D01*
X105560842Y-74440131D01*
X105558977Y-74435774D01*
X105558100Y-74421055D01*
X105558100Y-74203708D01*
X119235100Y-74203708D01*
X119235100Y-74335491D01*
X119269208Y-74462787D01*
X119290695Y-74500003D01*
X119335100Y-74576914D01*
X119428286Y-74670100D01*
X119542414Y-74735992D01*
X119669708Y-74770100D01*
X119669710Y-74770100D01*
X119801490Y-74770100D01*
X119801492Y-74770100D01*
X119928786Y-74735992D01*
X120042914Y-74670100D01*
X120136100Y-74576914D01*
X120201992Y-74462786D01*
X120236100Y-74335492D01*
X120236100Y-74203708D01*
X120201992Y-74076414D01*
X120136100Y-73962286D01*
X120042914Y-73869100D01*
X119968661Y-73826230D01*
X119928787Y-73803208D01*
X119865139Y-73786154D01*
X119801492Y-73769100D01*
X119669708Y-73769100D01*
X119542412Y-73803208D01*
X119428286Y-73869100D01*
X119428283Y-73869102D01*
X119335102Y-73962283D01*
X119335100Y-73962286D01*
X119269208Y-74076412D01*
X119235100Y-74203708D01*
X105558100Y-74203708D01*
X105558100Y-72616632D01*
X105565595Y-72591108D01*
X123863083Y-72591108D01*
X123863083Y-72722892D01*
X123870749Y-72751502D01*
X123897191Y-72850187D01*
X123930137Y-72907250D01*
X123963083Y-72964314D01*
X124056269Y-73057500D01*
X124170397Y-73123392D01*
X124297691Y-73157500D01*
X124297693Y-73157500D01*
X124429473Y-73157500D01*
X124429475Y-73157500D01*
X124556769Y-73123392D01*
X124670897Y-73057500D01*
X124764083Y-72964314D01*
X124829975Y-72850186D01*
X124864083Y-72722892D01*
X124864083Y-72591108D01*
X124829975Y-72463814D01*
X124764083Y-72349686D01*
X124670897Y-72256500D01*
X124613833Y-72223554D01*
X124556770Y-72190608D01*
X124493122Y-72173554D01*
X124429475Y-72156500D01*
X124297691Y-72156500D01*
X124170395Y-72190608D01*
X124056269Y-72256500D01*
X124056266Y-72256502D01*
X123963085Y-72349683D01*
X123963083Y-72349686D01*
X123897191Y-72463812D01*
X123874207Y-72549593D01*
X123863083Y-72591108D01*
X105565595Y-72591108D01*
X105577785Y-72549593D01*
X105594415Y-72528955D01*
X106364951Y-71758418D01*
X106426274Y-71724934D01*
X106452632Y-71722100D01*
X106542690Y-71722100D01*
X106542692Y-71722100D01*
X106669986Y-71687992D01*
X106784114Y-71622100D01*
X106877300Y-71528914D01*
X106943192Y-71414786D01*
X106977300Y-71287492D01*
X106977300Y-71155708D01*
X106943192Y-71028414D01*
X106884703Y-70927108D01*
X118117500Y-70927108D01*
X118117500Y-71058892D01*
X118120936Y-71071714D01*
X118151608Y-71186187D01*
X118177361Y-71230791D01*
X118217500Y-71300314D01*
X118310686Y-71393500D01*
X118424814Y-71459392D01*
X118552108Y-71493500D01*
X118552110Y-71493500D01*
X118683890Y-71493500D01*
X118683892Y-71493500D01*
X118811186Y-71459392D01*
X118925314Y-71393500D01*
X119018500Y-71300314D01*
X119084392Y-71186186D01*
X119118500Y-71058892D01*
X119118500Y-70927108D01*
X119084392Y-70799814D01*
X119025903Y-70698508D01*
X122587900Y-70698508D01*
X122587900Y-70830291D01*
X122622008Y-70957587D01*
X122635516Y-70980983D01*
X122687900Y-71071714D01*
X122781086Y-71164900D01*
X122895214Y-71230792D01*
X123022508Y-71264900D01*
X123022510Y-71264900D01*
X123154290Y-71264900D01*
X123154292Y-71264900D01*
X123281586Y-71230792D01*
X123395714Y-71164900D01*
X123488900Y-71071714D01*
X123554792Y-70957586D01*
X123588900Y-70830292D01*
X123588900Y-70698508D01*
X123554792Y-70571214D01*
X123488900Y-70457086D01*
X123395714Y-70363900D01*
X123338650Y-70330954D01*
X123281587Y-70298008D01*
X123217939Y-70280954D01*
X123154292Y-70263900D01*
X123022508Y-70263900D01*
X122895212Y-70298008D01*
X122781086Y-70363900D01*
X122781083Y-70363902D01*
X122687902Y-70457083D01*
X122687900Y-70457086D01*
X122622008Y-70571212D01*
X122587900Y-70698508D01*
X119025903Y-70698508D01*
X119018500Y-70685686D01*
X118925314Y-70592500D01*
X118868250Y-70559554D01*
X118811187Y-70526608D01*
X118747539Y-70509554D01*
X118683892Y-70492500D01*
X118552108Y-70492500D01*
X118424812Y-70526608D01*
X118310686Y-70592500D01*
X118310683Y-70592502D01*
X118217502Y-70685683D01*
X118217500Y-70685686D01*
X118151608Y-70799812D01*
X118136661Y-70855596D01*
X118117500Y-70927108D01*
X106884703Y-70927108D01*
X106877300Y-70914286D01*
X106784114Y-70821100D01*
X106727050Y-70788154D01*
X106669987Y-70755208D01*
X106606339Y-70738154D01*
X106542692Y-70721100D01*
X106410908Y-70721100D01*
X106283612Y-70755208D01*
X106169486Y-70821100D01*
X106169483Y-70821102D01*
X106076302Y-70914283D01*
X106076300Y-70914286D01*
X106010408Y-71028412D01*
X105976300Y-71155708D01*
X105976300Y-71245766D01*
X105956615Y-71312805D01*
X105939981Y-71333447D01*
X105073089Y-72200340D01*
X105017141Y-72256287D01*
X105017135Y-72256295D01*
X104977582Y-72324804D01*
X104977579Y-72324809D01*
X104957100Y-72401239D01*
X104957100Y-75705124D01*
X104937415Y-75772163D01*
X104884611Y-75817918D01*
X104815453Y-75827862D01*
X104751897Y-75798837D01*
X104745419Y-75792805D01*
X104650516Y-75697902D01*
X104650514Y-75697900D01*
X104590041Y-75662986D01*
X104536387Y-75632008D01*
X104472739Y-75614954D01*
X104409092Y-75597900D01*
X104277308Y-75597900D01*
X104150012Y-75632008D01*
X104035886Y-75697900D01*
X104035883Y-75697902D01*
X103942702Y-75791083D01*
X103942700Y-75791086D01*
X103876808Y-75905212D01*
X103842700Y-76032508D01*
X103842700Y-76164291D01*
X103876808Y-76291587D01*
X103909754Y-76348650D01*
X103942700Y-76405714D01*
X104035886Y-76498900D01*
X104150014Y-76564792D01*
X104277308Y-76598900D01*
X104277310Y-76598900D01*
X104409090Y-76598900D01*
X104409092Y-76598900D01*
X104536386Y-76564792D01*
X104650514Y-76498900D01*
X104743700Y-76405714D01*
X104743700Y-76405713D01*
X104745419Y-76403995D01*
X104806742Y-76370510D01*
X104876434Y-76375494D01*
X104932367Y-76417366D01*
X104956784Y-76482830D01*
X104957100Y-76491676D01*
X104957100Y-82775443D01*
X104977579Y-82851870D01*
X104977580Y-82851872D01*
X104977579Y-82851872D01*
X104981956Y-82859452D01*
X104981958Y-82859454D01*
X104981959Y-82859456D01*
X104994647Y-82881432D01*
X105017139Y-82920391D01*
X105740053Y-83643305D01*
X105763709Y-83676396D01*
X105769023Y-83687234D01*
X105781747Y-83734720D01*
X105847639Y-83848848D01*
X105848866Y-83850075D01*
X105853638Y-83859807D01*
X105858873Y-83890259D01*
X105866161Y-83920297D01*
X105864822Y-83924856D01*
X105865477Y-83928666D01*
X105859705Y-83942281D01*
X105849688Y-83976398D01*
X105806948Y-84050425D01*
X105756381Y-84098640D01*
X105687773Y-84111862D01*
X105622909Y-84085894D01*
X105596460Y-84057316D01*
X105549114Y-83986458D01*
X105549112Y-83986455D01*
X105451545Y-83888888D01*
X105451541Y-83888885D01*
X105336817Y-83812228D01*
X105336804Y-83812221D01*
X105209332Y-83759421D01*
X105209322Y-83759418D01*
X105073995Y-83732500D01*
X105073993Y-83732500D01*
X103836007Y-83732500D01*
X103836005Y-83732500D01*
X103700677Y-83759418D01*
X103700667Y-83759421D01*
X103573195Y-83812221D01*
X103573182Y-83812228D01*
X103458458Y-83888885D01*
X103458454Y-83888888D01*
X103360888Y-83986454D01*
X103360885Y-83986458D01*
X103284228Y-84101182D01*
X103284221Y-84101195D01*
X103231421Y-84228667D01*
X103231418Y-84228677D01*
X103204500Y-84364004D01*
X103204500Y-84364007D01*
X103204500Y-84501993D01*
X103204500Y-84501995D01*
X103204499Y-84501995D01*
X101375500Y-84501995D01*
X101375500Y-84364004D01*
X101348581Y-84228677D01*
X101348580Y-84228676D01*
X101348580Y-84228672D01*
X101300196Y-84111862D01*
X101295778Y-84101195D01*
X101295771Y-84101182D01*
X101219114Y-83986458D01*
X101219111Y-83986454D01*
X101121545Y-83888888D01*
X101121541Y-83888885D01*
X101006817Y-83812228D01*
X101006804Y-83812221D01*
X100879332Y-83759421D01*
X100879322Y-83759418D01*
X100743995Y-83732500D01*
X100743993Y-83732500D01*
X99806007Y-83732500D01*
X99806005Y-83732500D01*
X99670677Y-83759418D01*
X99670667Y-83759421D01*
X99543195Y-83812221D01*
X99543182Y-83812228D01*
X99428458Y-83888885D01*
X99428454Y-83888888D01*
X99330888Y-83986454D01*
X99330885Y-83986458D01*
X99254228Y-84101182D01*
X99254221Y-84101195D01*
X99201421Y-84228667D01*
X99201418Y-84228677D01*
X99174500Y-84364004D01*
X99174500Y-84364007D01*
X99174500Y-84501993D01*
X99174500Y-84501995D01*
X99174499Y-84501995D01*
X97970500Y-84501995D01*
X97970500Y-80960108D01*
X102439500Y-80960108D01*
X102439500Y-81091891D01*
X102473608Y-81219187D01*
X102479902Y-81230088D01*
X102539500Y-81333314D01*
X102632686Y-81426500D01*
X102708195Y-81470095D01*
X102738827Y-81487781D01*
X102746814Y-81492392D01*
X102874108Y-81526500D01*
X102874110Y-81526500D01*
X103005890Y-81526500D01*
X103005892Y-81526500D01*
X103133186Y-81492392D01*
X103247314Y-81426500D01*
X103340500Y-81333314D01*
X103406392Y-81219186D01*
X103440500Y-81091892D01*
X103440500Y-80960108D01*
X103406392Y-80832814D01*
X103406130Y-80832361D01*
X103382629Y-80791655D01*
X103340500Y-80718686D01*
X103247314Y-80625500D01*
X103190158Y-80592501D01*
X103133187Y-80559608D01*
X103065355Y-80541433D01*
X103005892Y-80525500D01*
X102874108Y-80525500D01*
X102746812Y-80559608D01*
X102632686Y-80625500D01*
X102632683Y-80625502D01*
X102539502Y-80718683D01*
X102539500Y-80718686D01*
X102473608Y-80832812D01*
X102439500Y-80960108D01*
X97970500Y-80960108D01*
X97970500Y-79309108D01*
X101353500Y-79309108D01*
X101353500Y-79440891D01*
X101387608Y-79568187D01*
X101407236Y-79602183D01*
X101453500Y-79682314D01*
X101546686Y-79775500D01*
X101645521Y-79832563D01*
X101658456Y-79840031D01*
X101660814Y-79841392D01*
X101788108Y-79875500D01*
X101788110Y-79875500D01*
X101919890Y-79875500D01*
X101919892Y-79875500D01*
X102047186Y-79841392D01*
X102161314Y-79775500D01*
X102254500Y-79682314D01*
X102320392Y-79568186D01*
X102354500Y-79440892D01*
X102354500Y-79309108D01*
X102320392Y-79181814D01*
X102254500Y-79067686D01*
X102161314Y-78974500D01*
X102104250Y-78941554D01*
X102047187Y-78908608D01*
X101983539Y-78891554D01*
X101919892Y-78874500D01*
X101788108Y-78874500D01*
X101660812Y-78908608D01*
X101546686Y-78974500D01*
X101546683Y-78974502D01*
X101453502Y-79067683D01*
X101453500Y-79067686D01*
X101387608Y-79181812D01*
X101353500Y-79309108D01*
X97970500Y-79309108D01*
X97970500Y-72028247D01*
X99279500Y-72028247D01*
X99279500Y-73767752D01*
X99291131Y-73826229D01*
X99291132Y-73826230D01*
X99335447Y-73892552D01*
X99401769Y-73936867D01*
X99401770Y-73936868D01*
X99460247Y-73948499D01*
X99460250Y-73948500D01*
X99460252Y-73948500D01*
X101199750Y-73948500D01*
X101199751Y-73948499D01*
X101214568Y-73945552D01*
X101258229Y-73936868D01*
X101258229Y-73936867D01*
X101258231Y-73936867D01*
X101324552Y-73892552D01*
X101368867Y-73826231D01*
X101368867Y-73826229D01*
X101368868Y-73826229D01*
X101380499Y-73767752D01*
X101380500Y-73767750D01*
X101380500Y-72028249D01*
X101380499Y-72028247D01*
X101368868Y-71969770D01*
X101368867Y-71969769D01*
X101324552Y-71903447D01*
X101258230Y-71859132D01*
X101258229Y-71859131D01*
X101199752Y-71847500D01*
X101199748Y-71847500D01*
X99460252Y-71847500D01*
X99460247Y-71847500D01*
X99401770Y-71859131D01*
X99401769Y-71859132D01*
X99335447Y-71903447D01*
X99291132Y-71969769D01*
X99291131Y-71969770D01*
X99279500Y-72028247D01*
X97970500Y-72028247D01*
X97970500Y-70254530D01*
X99279500Y-70254530D01*
X99279500Y-70461469D01*
X99319868Y-70664412D01*
X99319870Y-70664420D01*
X99375951Y-70799812D01*
X99399059Y-70855598D01*
X99456541Y-70941626D01*
X99514024Y-71027657D01*
X99660342Y-71173975D01*
X99660345Y-71173977D01*
X99832402Y-71288941D01*
X100023580Y-71368130D01*
X100226530Y-71408499D01*
X100226534Y-71408500D01*
X100226535Y-71408500D01*
X100433466Y-71408500D01*
X100433467Y-71408499D01*
X100636420Y-71368130D01*
X100827598Y-71288941D01*
X100999655Y-71173977D01*
X101145977Y-71027655D01*
X101260941Y-70855598D01*
X101340130Y-70664420D01*
X101380500Y-70461465D01*
X101380500Y-70254535D01*
X101340130Y-70051580D01*
X101260941Y-69860402D01*
X101145977Y-69688345D01*
X101145975Y-69688342D01*
X100999657Y-69542024D01*
X100913626Y-69484541D01*
X100827598Y-69427059D01*
X100636420Y-69347870D01*
X100636412Y-69347868D01*
X100433469Y-69307500D01*
X100433465Y-69307500D01*
X100226535Y-69307500D01*
X100226530Y-69307500D01*
X100023587Y-69347868D01*
X100023579Y-69347870D01*
X99832403Y-69427058D01*
X99660342Y-69542024D01*
X99514024Y-69688342D01*
X99399058Y-69860403D01*
X99319870Y-70051579D01*
X99319868Y-70051587D01*
X99279500Y-70254530D01*
X97970500Y-70254530D01*
X97970500Y-67714530D01*
X99279500Y-67714530D01*
X99279500Y-67921469D01*
X99319868Y-68124412D01*
X99319870Y-68124420D01*
X99399058Y-68315596D01*
X99514024Y-68487657D01*
X99660342Y-68633975D01*
X99660345Y-68633977D01*
X99832402Y-68748941D01*
X100023580Y-68828130D01*
X100226530Y-68868499D01*
X100226534Y-68868500D01*
X100226535Y-68868500D01*
X100433466Y-68868500D01*
X100433467Y-68868499D01*
X100636420Y-68828130D01*
X100827598Y-68748941D01*
X100999655Y-68633977D01*
X101145977Y-68487655D01*
X101260941Y-68315598D01*
X101340130Y-68124420D01*
X101380500Y-67921465D01*
X101380500Y-67879108D01*
X110243500Y-67879108D01*
X110243500Y-68010891D01*
X110277608Y-68138187D01*
X110310554Y-68195250D01*
X110343500Y-68252314D01*
X110436686Y-68345500D01*
X110550814Y-68411392D01*
X110678108Y-68445500D01*
X110678110Y-68445500D01*
X110809890Y-68445500D01*
X110809892Y-68445500D01*
X110937186Y-68411392D01*
X111051314Y-68345500D01*
X111144500Y-68252314D01*
X111210392Y-68138186D01*
X111244500Y-68010892D01*
X111244500Y-67879108D01*
X111210392Y-67751814D01*
X111144500Y-67637686D01*
X111051314Y-67544500D01*
X110994250Y-67511554D01*
X110937187Y-67478608D01*
X110854666Y-67456497D01*
X110809892Y-67444500D01*
X110678108Y-67444500D01*
X110550812Y-67478608D01*
X110436686Y-67544500D01*
X110436683Y-67544502D01*
X110343502Y-67637683D01*
X110343500Y-67637686D01*
X110277608Y-67751812D01*
X110243500Y-67879108D01*
X101380500Y-67879108D01*
X101380500Y-67714535D01*
X101340130Y-67511580D01*
X101260941Y-67320402D01*
X101145977Y-67148345D01*
X101145975Y-67148342D01*
X100999657Y-67002024D01*
X100981823Y-66990108D01*
X106560500Y-66990108D01*
X106560500Y-67121891D01*
X106594608Y-67249187D01*
X106627554Y-67306250D01*
X106660500Y-67363314D01*
X106753686Y-67456500D01*
X106867814Y-67522392D01*
X106995108Y-67556500D01*
X106995110Y-67556500D01*
X107126890Y-67556500D01*
X107126892Y-67556500D01*
X107254186Y-67522392D01*
X107368314Y-67456500D01*
X107461500Y-67363314D01*
X107527392Y-67249186D01*
X107561500Y-67121892D01*
X107561500Y-66990108D01*
X107527392Y-66862814D01*
X107461500Y-66748686D01*
X107368314Y-66655500D01*
X107296247Y-66613892D01*
X107254187Y-66589608D01*
X107190539Y-66572554D01*
X107126892Y-66555500D01*
X106995108Y-66555500D01*
X106867812Y-66589608D01*
X106753686Y-66655500D01*
X106753683Y-66655502D01*
X106660502Y-66748683D01*
X106660500Y-66748686D01*
X106594608Y-66862812D01*
X106560500Y-66990108D01*
X100981823Y-66990108D01*
X100913626Y-66944541D01*
X100827598Y-66887059D01*
X100750959Y-66855314D01*
X100636420Y-66807870D01*
X100636412Y-66807868D01*
X100433469Y-66767500D01*
X100433465Y-66767500D01*
X100226535Y-66767500D01*
X100226530Y-66767500D01*
X100023587Y-66807868D01*
X100023579Y-66807870D01*
X99832403Y-66887058D01*
X99660342Y-67002024D01*
X99514024Y-67148342D01*
X99399058Y-67320403D01*
X99319870Y-67511579D01*
X99319868Y-67511587D01*
X99279500Y-67714530D01*
X97970500Y-67714530D01*
X97970500Y-66482108D01*
X117863500Y-66482108D01*
X117863500Y-66613891D01*
X117897608Y-66741187D01*
X117901936Y-66748683D01*
X117963500Y-66855314D01*
X118056686Y-66948500D01*
X118170814Y-67014392D01*
X118298108Y-67048500D01*
X118298110Y-67048500D01*
X118429890Y-67048500D01*
X118429892Y-67048500D01*
X118557186Y-67014392D01*
X118671314Y-66948500D01*
X118764500Y-66855314D01*
X118830392Y-66741186D01*
X118864500Y-66613892D01*
X118864500Y-66482108D01*
X118830392Y-66354814D01*
X118764500Y-66240686D01*
X118671314Y-66147500D01*
X118578610Y-66093977D01*
X118557187Y-66081608D01*
X118483600Y-66061891D01*
X118429892Y-66047500D01*
X118298108Y-66047500D01*
X118170812Y-66081608D01*
X118056686Y-66147500D01*
X118056683Y-66147502D01*
X117963502Y-66240683D01*
X117963500Y-66240686D01*
X117897608Y-66354812D01*
X117863500Y-66482108D01*
X97970500Y-66482108D01*
X97970500Y-65174530D01*
X99279500Y-65174530D01*
X99279500Y-65381469D01*
X99319868Y-65584412D01*
X99319870Y-65584420D01*
X99398355Y-65773900D01*
X99399059Y-65775598D01*
X99402067Y-65780100D01*
X99514024Y-65947657D01*
X99660342Y-66093975D01*
X99660345Y-66093977D01*
X99832402Y-66208941D01*
X100023580Y-66288130D01*
X100226530Y-66328499D01*
X100226534Y-66328500D01*
X100226535Y-66328500D01*
X100433466Y-66328500D01*
X100433467Y-66328499D01*
X100636420Y-66288130D01*
X100827598Y-66208941D01*
X100999655Y-66093977D01*
X101145977Y-65947655D01*
X101260941Y-65775598D01*
X101340130Y-65584420D01*
X101380500Y-65381465D01*
X101380500Y-65313708D01*
X120251100Y-65313708D01*
X120251100Y-65445491D01*
X120285208Y-65572787D01*
X120318154Y-65629850D01*
X120351100Y-65686914D01*
X120444286Y-65780100D01*
X120558414Y-65845992D01*
X120685708Y-65880100D01*
X120685710Y-65880100D01*
X120817490Y-65880100D01*
X120817492Y-65880100D01*
X120944786Y-65845992D01*
X121058914Y-65780100D01*
X121152100Y-65686914D01*
X121217992Y-65572786D01*
X121229561Y-65529608D01*
X124023000Y-65529608D01*
X124023000Y-65661392D01*
X124034788Y-65705386D01*
X124057108Y-65788687D01*
X124090054Y-65845750D01*
X124123000Y-65902814D01*
X124216186Y-65996000D01*
X124330314Y-66061892D01*
X124457608Y-66096000D01*
X124457610Y-66096000D01*
X124589390Y-66096000D01*
X124589392Y-66096000D01*
X124716686Y-66061892D01*
X124830814Y-65996000D01*
X124924000Y-65902814D01*
X124989892Y-65788686D01*
X125024000Y-65661392D01*
X125024000Y-65529608D01*
X124989892Y-65402314D01*
X124924000Y-65288186D01*
X124830814Y-65195000D01*
X124773750Y-65162054D01*
X124716687Y-65129108D01*
X124653039Y-65112054D01*
X124589392Y-65095000D01*
X124457608Y-65095000D01*
X124330312Y-65129108D01*
X124216186Y-65195000D01*
X124216183Y-65195002D01*
X124123002Y-65288183D01*
X124123000Y-65288186D01*
X124057108Y-65402312D01*
X124033777Y-65489388D01*
X124023000Y-65529608D01*
X121229561Y-65529608D01*
X121252100Y-65445492D01*
X121252100Y-65313708D01*
X121217992Y-65186414D01*
X121152100Y-65072286D01*
X121058914Y-64979100D01*
X121001850Y-64946154D01*
X120944787Y-64913208D01*
X120881139Y-64896154D01*
X120817492Y-64879100D01*
X120685708Y-64879100D01*
X120558412Y-64913208D01*
X120444286Y-64979100D01*
X120444283Y-64979102D01*
X120351102Y-65072283D01*
X120351100Y-65072286D01*
X120285208Y-65186412D01*
X120251100Y-65313708D01*
X101380500Y-65313708D01*
X101380500Y-65174535D01*
X101340130Y-64971580D01*
X101260941Y-64780402D01*
X101145977Y-64608345D01*
X101145975Y-64608342D01*
X100999657Y-64462024D01*
X100913626Y-64404541D01*
X100827598Y-64347059D01*
X100636420Y-64267870D01*
X100636412Y-64267868D01*
X100433469Y-64227500D01*
X100433465Y-64227500D01*
X100226535Y-64227500D01*
X100226530Y-64227500D01*
X100023587Y-64267868D01*
X100023579Y-64267870D01*
X99832403Y-64347058D01*
X99660342Y-64462024D01*
X99514024Y-64608342D01*
X99399058Y-64780403D01*
X99319870Y-64971579D01*
X99319868Y-64971587D01*
X99279500Y-65174530D01*
X97970500Y-65174530D01*
X97970500Y-62634530D01*
X99279500Y-62634530D01*
X99279500Y-62841469D01*
X99319868Y-63044412D01*
X99319870Y-63044420D01*
X99399058Y-63235596D01*
X99514024Y-63407657D01*
X99660342Y-63553975D01*
X99660345Y-63553977D01*
X99832402Y-63668941D01*
X100023580Y-63748130D01*
X100226530Y-63788499D01*
X100226534Y-63788500D01*
X100226535Y-63788500D01*
X100433466Y-63788500D01*
X100433467Y-63788499D01*
X100636420Y-63748130D01*
X100827598Y-63668941D01*
X100999655Y-63553977D01*
X101119524Y-63434108D01*
X107151500Y-63434108D01*
X107151500Y-63565891D01*
X107185608Y-63693187D01*
X107217329Y-63748129D01*
X107251500Y-63807314D01*
X107344686Y-63900500D01*
X107458814Y-63966392D01*
X107586108Y-64000500D01*
X107586110Y-64000500D01*
X107717890Y-64000500D01*
X107717892Y-64000500D01*
X107845186Y-63966392D01*
X107959314Y-63900500D01*
X108052500Y-63807314D01*
X108118392Y-63693186D01*
X108152500Y-63565892D01*
X108152500Y-63434108D01*
X108465500Y-63434108D01*
X108465500Y-63565891D01*
X108499608Y-63693187D01*
X108531329Y-63748129D01*
X108565500Y-63807314D01*
X108658686Y-63900500D01*
X108772814Y-63966392D01*
X108900108Y-64000500D01*
X108900110Y-64000500D01*
X109031890Y-64000500D01*
X109031892Y-64000500D01*
X109159186Y-63966392D01*
X109273314Y-63900500D01*
X109366500Y-63807314D01*
X109432392Y-63693186D01*
X109466500Y-63565892D01*
X109466500Y-63434108D01*
X109432392Y-63306814D01*
X109366500Y-63192686D01*
X109273314Y-63099500D01*
X109214741Y-63065683D01*
X109159187Y-63033608D01*
X109095539Y-63016554D01*
X109031892Y-62999500D01*
X108900108Y-62999500D01*
X108772812Y-63033608D01*
X108658686Y-63099500D01*
X108658683Y-63099502D01*
X108565502Y-63192683D01*
X108565500Y-63192686D01*
X108499608Y-63306812D01*
X108465500Y-63434108D01*
X108152500Y-63434108D01*
X108118392Y-63306814D01*
X108052500Y-63192686D01*
X107959314Y-63099500D01*
X107900741Y-63065683D01*
X107845187Y-63033608D01*
X107781539Y-63016554D01*
X107717892Y-62999500D01*
X107586108Y-62999500D01*
X107458812Y-63033608D01*
X107344686Y-63099500D01*
X107344683Y-63099502D01*
X107251502Y-63192683D01*
X107251500Y-63192686D01*
X107185608Y-63306812D01*
X107151500Y-63434108D01*
X101119524Y-63434108D01*
X101145977Y-63407655D01*
X101260941Y-63235598D01*
X101340130Y-63044420D01*
X101380500Y-62841465D01*
X101380500Y-62634535D01*
X101340130Y-62431580D01*
X101260941Y-62240402D01*
X101145977Y-62068345D01*
X101145975Y-62068342D01*
X100999657Y-61922024D01*
X100913626Y-61864541D01*
X100827598Y-61807059D01*
X100636420Y-61727870D01*
X100636412Y-61727868D01*
X100433469Y-61687500D01*
X100433465Y-61687500D01*
X100226535Y-61687500D01*
X100226530Y-61687500D01*
X100023587Y-61727868D01*
X100023579Y-61727870D01*
X99832403Y-61807058D01*
X99660342Y-61922024D01*
X99514024Y-62068342D01*
X99399058Y-62240403D01*
X99319870Y-62431579D01*
X99319868Y-62431587D01*
X99279500Y-62634530D01*
X97970500Y-62634530D01*
X97970500Y-55385258D01*
X98949500Y-55385258D01*
X98949500Y-55614741D01*
X98974446Y-55804215D01*
X98979452Y-55842238D01*
X98979453Y-55842240D01*
X99038842Y-56063887D01*
X99126650Y-56275876D01*
X99126657Y-56275890D01*
X99241392Y-56474617D01*
X99381081Y-56656661D01*
X99381089Y-56656670D01*
X99543330Y-56818911D01*
X99543338Y-56818918D01*
X99725382Y-56958607D01*
X99725385Y-56958608D01*
X99725388Y-56958611D01*
X99924112Y-57073344D01*
X99924117Y-57073346D01*
X99924123Y-57073349D01*
X100015480Y-57111190D01*
X100136113Y-57161158D01*
X100357762Y-57220548D01*
X100585266Y-57250500D01*
X100585273Y-57250500D01*
X100814727Y-57250500D01*
X100814734Y-57250500D01*
X101042238Y-57220548D01*
X101263887Y-57161158D01*
X101475888Y-57073344D01*
X101674612Y-56958611D01*
X101856661Y-56818919D01*
X101856665Y-56818914D01*
X101856670Y-56818911D01*
X102018911Y-56656670D01*
X102018914Y-56656665D01*
X102018919Y-56656661D01*
X102158611Y-56474612D01*
X102273344Y-56275888D01*
X102361158Y-56063887D01*
X102420548Y-55842238D01*
X102450500Y-55614734D01*
X102450500Y-55385266D01*
X102420548Y-55157762D01*
X102361158Y-54936113D01*
X102286760Y-54756500D01*
X102273349Y-54724123D01*
X102273346Y-54724117D01*
X102273344Y-54724112D01*
X102158611Y-54525388D01*
X102158608Y-54525385D01*
X102158607Y-54525382D01*
X102028857Y-54356290D01*
X102018919Y-54343339D01*
X102018918Y-54343338D01*
X102018911Y-54343330D01*
X101856670Y-54181089D01*
X101856661Y-54181081D01*
X101674617Y-54041392D01*
X101475890Y-53926657D01*
X101475876Y-53926650D01*
X101263887Y-53838842D01*
X101042238Y-53779452D01*
X101004215Y-53774446D01*
X100814741Y-53749500D01*
X100814734Y-53749500D01*
X100585266Y-53749500D01*
X100585258Y-53749500D01*
X100368715Y-53778009D01*
X100357762Y-53779452D01*
X100264076Y-53804554D01*
X100136112Y-53838842D01*
X99924123Y-53926650D01*
X99924109Y-53926657D01*
X99725382Y-54041392D01*
X99543338Y-54181081D01*
X99381081Y-54343338D01*
X99241392Y-54525382D01*
X99126657Y-54724109D01*
X99126650Y-54724123D01*
X99038842Y-54936112D01*
X98979453Y-55157759D01*
X98979451Y-55157770D01*
X98949500Y-55385258D01*
X97970500Y-55385258D01*
X97970500Y-55203750D01*
X97970726Y-55196263D01*
X97987542Y-54918259D01*
X97989347Y-54903395D01*
X98004191Y-54822392D01*
X98038874Y-54633130D01*
X98042454Y-54618608D01*
X98124199Y-54356281D01*
X98129501Y-54342298D01*
X98242273Y-54091728D01*
X98249224Y-54078483D01*
X98391378Y-53843333D01*
X98399867Y-53831034D01*
X98569331Y-53614731D01*
X98579247Y-53603539D01*
X98773539Y-53409247D01*
X98784731Y-53399331D01*
X99001034Y-53229867D01*
X99013333Y-53221378D01*
X99248483Y-53079224D01*
X99261728Y-53072273D01*
X99512298Y-52959501D01*
X99526281Y-52954199D01*
X99788608Y-52872454D01*
X99803130Y-52868874D01*
X100073396Y-52819346D01*
X100088256Y-52817542D01*
X100366265Y-52800726D01*
X100373752Y-52800500D01*
X100417596Y-52800500D01*
X124922405Y-52800500D01*
X124966249Y-52800500D01*
X124973736Y-52800726D01*
G37*
%TD.AperFunction*%
%TD*%
M02*
