%TF.GenerationSoftware,KiCad,Pcbnew,9.0.2*%
%TF.CreationDate,2025-05-21T13:46:10-05:00*%
%TF.ProjectId,Flight Computer v3,466c6967-6874-4204-936f-6d7075746572,rev?*%
%TF.SameCoordinates,Original*%
%TF.FileFunction,Soldermask,Bot*%
%TF.FilePolarity,Negative*%
%FSLAX46Y46*%
G04 Gerber Fmt 4.6, Leading zero omitted, Abs format (unit mm)*
G04 Created by KiCad (PCBNEW 9.0.2) date 2025-05-21 13:46:10*
%MOMM*%
%LPD*%
G01*
G04 APERTURE LIST*
G04 Aperture macros list*
%AMRoundRect*
0 Rectangle with rounded corners*
0 $1 Rounding radius*
0 $2 $3 $4 $5 $6 $7 $8 $9 X,Y pos of 4 corners*
0 Add a 4 corners polygon primitive as box body*
4,1,4,$2,$3,$4,$5,$6,$7,$8,$9,$2,$3,0*
0 Add four circle primitives for the rounded corners*
1,1,$1+$1,$2,$3*
1,1,$1+$1,$4,$5*
1,1,$1+$1,$6,$7*
1,1,$1+$1,$8,$9*
0 Add four rect primitives between the rounded corners*
20,1,$1+$1,$2,$3,$4,$5,0*
20,1,$1+$1,$4,$5,$6,$7,0*
20,1,$1+$1,$6,$7,$8,$9,0*
20,1,$1+$1,$8,$9,$2,$3,0*%
G04 Aperture macros list end*
%ADD10C,3.201600*%
%ADD11C,5.501600*%
%ADD12C,2.151600*%
%ADD13C,2.351600*%
%ADD14RoundRect,0.202740X-0.473060X-1.348060X0.473060X-1.348060X0.473060X1.348060X-0.473060X1.348060X0*%
%ADD15RoundRect,0.050800X-0.850000X0.850000X-0.850000X-0.850000X0.850000X-0.850000X0.850000X0.850000X0*%
%ADD16C,1.801600*%
%ADD17C,0.751600*%
%ADD18O,1.101600X2.201600*%
%ADD19O,1.101600X1.901600*%
%ADD20RoundRect,0.261545X0.889255X-0.889255X0.889255X0.889255X-0.889255X0.889255X-0.889255X-0.889255X0*%
%ADD21C,2.301600*%
%ADD22RoundRect,0.050800X-0.850000X-0.850000X0.850000X-0.850000X0.850000X0.850000X-0.850000X0.850000X0*%
%ADD23RoundRect,0.030000X-0.475000X-0.275000X0.475000X-0.275000X0.475000X0.275000X-0.475000X0.275000X0*%
%ADD24RoundRect,0.262900X0.325400X0.262900X-0.325400X0.262900X-0.325400X-0.262900X0.325400X-0.262900X0*%
%ADD25RoundRect,0.262900X0.275400X0.262900X-0.275400X0.262900X-0.275400X-0.262900X0.275400X-0.262900X0*%
%ADD26RoundRect,0.262900X0.312900X0.262900X-0.312900X0.262900X-0.312900X-0.262900X0.312900X-0.262900X0*%
%ADD27RoundRect,0.262900X0.044194X0.415991X-0.415991X-0.044194X-0.044194X-0.415991X0.415991X0.044194X0*%
%ADD28RoundRect,0.100400X-0.583929X0.441942X0.441942X-0.583929X0.583929X-0.441942X-0.441942X0.583929X0*%
%ADD29RoundRect,0.100400X-0.583929X-0.441942X-0.441942X-0.583929X0.583929X0.441942X0.441942X0.583929X0*%
%ADD30RoundRect,0.262900X-0.275400X-0.262900X0.275400X-0.262900X0.275400X0.262900X-0.275400X0.262900X0*%
%ADD31RoundRect,0.262900X-0.325400X-0.262900X0.325400X-0.262900X0.325400X0.262900X-0.325400X0.262900X0*%
%ADD32RoundRect,0.262900X-0.044194X-0.415991X0.415991X0.044194X0.044194X0.415991X-0.415991X-0.044194X0*%
%ADD33RoundRect,0.050800X-0.601041X0.035355X0.035355X-0.601041X0.601041X-0.035355X-0.035355X0.601041X0*%
%ADD34RoundRect,0.262900X0.415991X-0.044194X-0.044194X0.415991X-0.415991X0.044194X0.044194X-0.415991X0*%
%ADD35RoundRect,0.262900X-0.262900X0.312900X-0.262900X-0.312900X0.262900X-0.312900X0.262900X0.312900X0*%
%ADD36RoundRect,0.262900X0.262900X-0.325400X0.262900X0.325400X-0.262900X0.325400X-0.262900X-0.325400X0*%
%ADD37RoundRect,0.087900X0.087900X-0.375400X0.087900X0.375400X-0.087900X0.375400X-0.087900X-0.375400X0*%
%ADD38RoundRect,0.087900X0.375400X-0.087900X0.375400X0.087900X-0.375400X0.087900X-0.375400X-0.087900X0*%
%ADD39RoundRect,0.050800X1.350000X-1.350000X1.350000X1.350000X-1.350000X1.350000X-1.350000X-1.350000X0*%
%ADD40RoundRect,0.262900X0.262900X-0.275400X0.262900X0.275400X-0.262900X0.275400X-0.262900X-0.275400X0*%
%ADD41RoundRect,0.262900X-0.008839X-0.380636X0.380636X0.008839X0.008839X0.380636X-0.380636X-0.008839X0*%
%ADD42RoundRect,0.262900X-0.262900X0.325400X-0.262900X-0.325400X0.262900X-0.325400X0.262900X0.325400X0*%
%ADD43RoundRect,0.262900X0.380636X-0.008839X-0.008839X0.380636X-0.380636X0.008839X0.008839X-0.380636X0*%
%ADD44RoundRect,0.225400X-0.225400X0.775400X-0.225400X-0.775400X0.225400X-0.775400X0.225400X0.775400X0*%
%ADD45RoundRect,0.262900X0.008839X0.380636X-0.380636X-0.008839X-0.008839X-0.380636X0.380636X0.008839X0*%
%ADD46RoundRect,0.050800X0.450000X0.400000X-0.450000X0.400000X-0.450000X-0.400000X0.450000X-0.400000X0*%
%ADD47RoundRect,0.050800X-0.127000X-0.114300X0.127000X-0.114300X0.127000X0.114300X-0.127000X0.114300X0*%
%ADD48RoundRect,0.050800X0.203200X-0.127000X0.203200X0.127000X-0.203200X0.127000X-0.203200X-0.127000X0*%
%ADD49RoundRect,0.262900X-0.262900X0.275400X-0.262900X-0.275400X0.262900X-0.275400X0.262900X0.275400X0*%
%ADD50RoundRect,0.262900X-0.312900X-0.262900X0.312900X-0.262900X0.312900X0.262900X-0.312900X0.262900X0*%
%ADD51RoundRect,0.244150X-0.281650X0.244150X-0.281650X-0.244150X0.281650X-0.244150X0.281650X0.244150X0*%
G04 APERTURE END LIST*
D10*
%TO.C,H604*%
X124700000Y-109500000D03*
D11*
X124700000Y-109500000D03*
%TD*%
D10*
%TO.C,H601*%
X100700000Y-55500000D03*
D11*
X100700000Y-55500000D03*
%TD*%
D12*
%TO.C,J701*%
X123010000Y-66890000D03*
D13*
X120470000Y-64350000D03*
X120470000Y-69430000D03*
X125550000Y-64350000D03*
X125550000Y-69430000D03*
%TD*%
D14*
%TO.C,J602*%
X120290000Y-54500000D03*
X117750000Y-54500000D03*
X115210000Y-54500000D03*
X112670000Y-54500000D03*
X110130000Y-54500000D03*
X107590000Y-54500000D03*
X105050000Y-54500000D03*
%TD*%
D15*
%TO.C,J604*%
X104400000Y-104690000D03*
D16*
X101860000Y-104690000D03*
%TD*%
D10*
%TO.C,H603*%
X100700000Y-109500000D03*
D11*
X100700000Y-109500000D03*
%TD*%
D17*
%TO.C,J601*%
X109785000Y-106220000D03*
X115565000Y-106220000D03*
D18*
X108355000Y-105720000D03*
D19*
X108355000Y-109900000D03*
D18*
X116995000Y-105720000D03*
D19*
X116995000Y-109900000D03*
%TD*%
D20*
%TO.C,J603*%
X124000000Y-104330000D03*
D21*
X124000000Y-101790000D03*
X124000000Y-99250000D03*
X124000000Y-96710000D03*
X124000000Y-94170000D03*
X124000000Y-91630000D03*
X124000000Y-89090000D03*
X124000000Y-86550000D03*
%TD*%
D10*
%TO.C,H602*%
X124700000Y-55500000D03*
D11*
X124700000Y-55500000D03*
%TD*%
D22*
%TO.C,J605*%
X100210000Y-80640000D03*
D16*
X100210000Y-83180000D03*
X100210000Y-85720000D03*
X100210000Y-88260000D03*
X100210000Y-90800000D03*
%TD*%
D23*
%TO.C,U303*%
X107950000Y-98572500D03*
X107950000Y-97322500D03*
X107950000Y-96072500D03*
X107950000Y-94822500D03*
X110100000Y-94822500D03*
X110100000Y-96072500D03*
X110100000Y-97322500D03*
X110100000Y-98572500D03*
%TD*%
D24*
%TO.C,C705*%
X115350000Y-59275000D03*
X113625000Y-59275000D03*
%TD*%
%TO.C,C707*%
X103122500Y-72590000D03*
X101397500Y-72590000D03*
%TD*%
D25*
%TO.C,R403*%
X116595000Y-101790000D03*
X114770000Y-101790000D03*
%TD*%
D26*
%TO.C,L706*%
X107570000Y-62480000D03*
X105820000Y-62480000D03*
%TD*%
D27*
%TO.C,C506*%
X104479880Y-81820120D03*
X103260120Y-83039880D03*
%TD*%
D28*
%TO.C,U502*%
X106005519Y-81138819D03*
X106359072Y-80785266D03*
X106712625Y-80431713D03*
X107066179Y-80078159D03*
X107419732Y-79724606D03*
X107773286Y-79371052D03*
X108126839Y-79017499D03*
X108480392Y-78663946D03*
X108833946Y-78310392D03*
X109187499Y-77956839D03*
X109541052Y-77603286D03*
X109894606Y-77249732D03*
X110248159Y-76896179D03*
X110601713Y-76542625D03*
X110955266Y-76189072D03*
X111308819Y-75835519D03*
D29*
X114031181Y-75835519D03*
X114384734Y-76189072D03*
X114738287Y-76542625D03*
X115091841Y-76896179D03*
X115445394Y-77249732D03*
X115798948Y-77603286D03*
X116152501Y-77956839D03*
X116506054Y-78310392D03*
X116859608Y-78663946D03*
X117213161Y-79017499D03*
X117566714Y-79371052D03*
X117920268Y-79724606D03*
X118273821Y-80078159D03*
X118627375Y-80431713D03*
X118980928Y-80785266D03*
X119334481Y-81138819D03*
D28*
X119334481Y-83861181D03*
X118980928Y-84214734D03*
X118627375Y-84568287D03*
X118273821Y-84921841D03*
X117920268Y-85275394D03*
X117566714Y-85628948D03*
X117213161Y-85982501D03*
X116859608Y-86336054D03*
X116506054Y-86689608D03*
X116152501Y-87043161D03*
X115798948Y-87396714D03*
X115445394Y-87750268D03*
X115091841Y-88103821D03*
X114738287Y-88457375D03*
X114384734Y-88810928D03*
X114031181Y-89164481D03*
D29*
X111308819Y-89164481D03*
X110955266Y-88810928D03*
X110601713Y-88457375D03*
X110248159Y-88103821D03*
X109894606Y-87750268D03*
X109541052Y-87396714D03*
X109187499Y-87043161D03*
X108833946Y-86689608D03*
X108480392Y-86336054D03*
X108126839Y-85982501D03*
X107773286Y-85628948D03*
X107419732Y-85275394D03*
X107066179Y-84921841D03*
X106712625Y-84568287D03*
X106359072Y-84214734D03*
X106005519Y-83861181D03*
%TD*%
D30*
%TO.C,R405*%
X114777500Y-99260000D03*
X116602500Y-99260000D03*
%TD*%
D31*
%TO.C,C712*%
X109262500Y-64075000D03*
X110987500Y-64075000D03*
%TD*%
%TO.C,C718*%
X109232500Y-59855000D03*
X110957500Y-59855000D03*
%TD*%
D30*
%TO.C,R406*%
X118137500Y-99260000D03*
X119962500Y-99260000D03*
%TD*%
D32*
%TO.C,C701*%
X103150000Y-59150000D03*
X104369760Y-57930240D03*
%TD*%
D30*
%TO.C,R409*%
X118137500Y-94160000D03*
X119962500Y-94160000D03*
%TD*%
D27*
%TO.C,C504*%
X104419880Y-85400120D03*
X103200120Y-86619880D03*
%TD*%
D33*
%TO.C,Y501*%
X104607868Y-76662234D03*
X105597817Y-77652183D03*
X104820000Y-78430000D03*
X103830051Y-77440051D03*
%TD*%
D34*
%TO.C,C510*%
X103709880Y-79539880D03*
X102490120Y-78320120D03*
%TD*%
D31*
%TO.C,C711*%
X116182500Y-68605000D03*
X117907500Y-68605000D03*
%TD*%
D35*
%TO.C,L701*%
X103925000Y-68500000D03*
X103925000Y-70250000D03*
%TD*%
D36*
%TO.C,C702*%
X99250000Y-61262500D03*
X99250000Y-59537500D03*
%TD*%
D37*
%TO.C,U701*%
X102750000Y-66862500D03*
X102250000Y-66862500D03*
X101750000Y-66862500D03*
X101250000Y-66862500D03*
X100750000Y-66862500D03*
X100250000Y-66862500D03*
D38*
X99537500Y-66150000D03*
X99537500Y-65650000D03*
X99537500Y-65150000D03*
X99537500Y-64650000D03*
X99537500Y-64150000D03*
X99537500Y-63650000D03*
D37*
X100250000Y-62937500D03*
X100750000Y-62937500D03*
X101250000Y-62937500D03*
X101750000Y-62937500D03*
X102250000Y-62937500D03*
X102750000Y-62937500D03*
D38*
X103462500Y-63650000D03*
X103462500Y-64150000D03*
X103462500Y-64650000D03*
X103462500Y-65150000D03*
X103462500Y-65650000D03*
X103462500Y-66150000D03*
D39*
X101500000Y-64900000D03*
%TD*%
D31*
%TO.C,C709*%
X116232500Y-63480000D03*
X117957500Y-63480000D03*
%TD*%
D40*
%TO.C,R302*%
X112010000Y-96072500D03*
X112010000Y-94247500D03*
%TD*%
D41*
%TO.C,R502*%
X105354765Y-88845235D03*
X106645235Y-87554765D03*
%TD*%
D36*
%TO.C,C710*%
X116195000Y-66855000D03*
X116195000Y-65130000D03*
%TD*%
D41*
%TO.C,R501*%
X104224765Y-87725235D03*
X105515235Y-86434765D03*
%TD*%
D42*
%TO.C,C508*%
X124150000Y-72537499D03*
X124150000Y-74262501D03*
%TD*%
D30*
%TO.C,R408*%
X114767500Y-94160000D03*
X116592500Y-94160000D03*
%TD*%
D43*
%TO.C,R505*%
X106965235Y-76895235D03*
X105674765Y-75604765D03*
%TD*%
D36*
%TO.C,C714*%
X110975000Y-68500000D03*
X110975000Y-66775000D03*
%TD*%
D25*
%TO.C,R402*%
X119960000Y-101790000D03*
X118135000Y-101790000D03*
%TD*%
D30*
%TO.C,R503*%
X113397500Y-57430000D03*
X115222500Y-57430000D03*
%TD*%
D44*
%TO.C,D301*%
X104060000Y-94320000D03*
X105960000Y-94320000D03*
X105010000Y-97320000D03*
%TD*%
D45*
%TO.C,R702*%
X122935235Y-83844765D03*
X121644765Y-85135235D03*
%TD*%
D32*
%TO.C,C507*%
X108500000Y-75140000D03*
X109719760Y-73920240D03*
%TD*%
D46*
%TO.C,Y701*%
X100575000Y-70375000D03*
X99175000Y-70375000D03*
X99175000Y-69275000D03*
X100575000Y-69275000D03*
%TD*%
D31*
%TO.C,C716*%
X109257500Y-62480000D03*
X110982500Y-62480000D03*
%TD*%
D47*
%TO.C,U702*%
X113045126Y-63880000D03*
X112545000Y-63880000D03*
D48*
X112502564Y-63496501D03*
D47*
X112545000Y-63113002D03*
X113045126Y-63113002D03*
D48*
X113087562Y-63496501D03*
%TD*%
D32*
%TO.C,C502*%
X116270000Y-75020000D03*
X117489760Y-73800240D03*
%TD*%
%TO.C,C511*%
X120120000Y-78950000D03*
X121339760Y-77730240D03*
%TD*%
D34*
%TO.C,C503*%
X114870000Y-73630000D03*
X113650240Y-72410240D03*
%TD*%
D40*
%TO.C,R301*%
X105030000Y-101322500D03*
X105030000Y-99497500D03*
%TD*%
D31*
%TO.C,C708*%
X105875000Y-70225000D03*
X107600000Y-70225000D03*
%TD*%
D27*
%TO.C,C505*%
X113179880Y-90650120D03*
X111960120Y-91869880D03*
%TD*%
D32*
%TO.C,C501*%
X120810120Y-81909880D03*
X122029880Y-80690120D03*
%TD*%
D49*
%TO.C,R601*%
X114430000Y-106917500D03*
X114430000Y-108742500D03*
%TD*%
D24*
%TO.C,C305*%
X102185000Y-97320000D03*
X100460000Y-97320000D03*
%TD*%
D25*
%TO.C,R701*%
X115437500Y-60875000D03*
X113612500Y-60875000D03*
%TD*%
D42*
%TO.C,C706*%
X102325000Y-68500000D03*
X102325000Y-70225000D03*
%TD*%
D50*
%TO.C,L704*%
X107500000Y-66675000D03*
X109250000Y-66675000D03*
%TD*%
%TO.C,L703*%
X105850000Y-68725000D03*
X107600000Y-68725000D03*
%TD*%
D34*
%TO.C,C509*%
X106800000Y-74490000D03*
X105580240Y-73270240D03*
%TD*%
D36*
%TO.C,C704*%
X113575000Y-68105000D03*
X113575000Y-66380000D03*
%TD*%
D51*
%TO.C,FB701*%
X100800000Y-59612500D03*
X100800000Y-61187500D03*
%TD*%
D31*
%TO.C,C713*%
X105812500Y-64075000D03*
X107537500Y-64075000D03*
%TD*%
D35*
%TO.C,L702*%
X117945000Y-65105000D03*
X117945000Y-66855000D03*
%TD*%
D31*
%TO.C,C717*%
X105857500Y-59855000D03*
X107582500Y-59855000D03*
%TD*%
M02*
