%TF.GenerationSoftware,KiCad,Pcbnew,9.0.2*%
%TF.CreationDate,2025-06-08T20:57:08-05:00*%
%TF.ProjectId,Flight Computer,466c6967-6874-4204-936f-6d7075746572,rev?*%
%TF.SameCoordinates,Original*%
%TF.FileFunction,Copper,L3,Inr*%
%TF.FilePolarity,Positive*%
%FSLAX46Y46*%
G04 Gerber Fmt 4.6, Leading zero omitted, Abs format (unit mm)*
G04 Created by KiCad (PCBNEW 9.0.2) date 2025-06-08 20:57:08*
%MOMM*%
%LPD*%
G01*
G04 APERTURE LIST*
G04 Aperture macros list*
%AMRoundRect*
0 Rectangle with rounded corners*
0 $1 Rounding radius*
0 $2 $3 $4 $5 $6 $7 $8 $9 X,Y pos of 4 corners*
0 Add a 4 corners polygon primitive as box body*
4,1,4,$2,$3,$4,$5,$6,$7,$8,$9,$2,$3,0*
0 Add four circle primitives for the rounded corners*
1,1,$1+$1,$2,$3*
1,1,$1+$1,$4,$5*
1,1,$1+$1,$6,$7*
1,1,$1+$1,$8,$9*
0 Add four rect primitives between the rounded corners*
20,1,$1+$1,$2,$3,$4,$5,0*
20,1,$1+$1,$4,$5,$6,$7,0*
20,1,$1+$1,$6,$7,$8,$9,0*
20,1,$1+$1,$8,$9,$2,$3,0*%
G04 Aperture macros list end*
%TA.AperFunction,ComponentPad*%
%ADD10C,3.100000*%
%TD*%
%TA.AperFunction,ComponentPad*%
%ADD11R,1.700000X1.700000*%
%TD*%
%TA.AperFunction,ComponentPad*%
%ADD12C,1.700000*%
%TD*%
%TA.AperFunction,ComponentPad*%
%ADD13RoundRect,0.249999X0.850001X-0.850001X0.850001X0.850001X-0.850001X0.850001X-0.850001X-0.850001X0*%
%TD*%
%TA.AperFunction,ComponentPad*%
%ADD14C,2.200000*%
%TD*%
%TA.AperFunction,HeatsinkPad*%
%ADD15O,1.000000X1.800000*%
%TD*%
%TA.AperFunction,HeatsinkPad*%
%ADD16O,1.000000X2.100000*%
%TD*%
%TA.AperFunction,ViaPad*%
%ADD17C,0.600000*%
%TD*%
%TA.AperFunction,Conductor*%
%ADD18C,0.200000*%
%TD*%
%TA.AperFunction,Conductor*%
%ADD19C,0.400000*%
%TD*%
%TA.AperFunction,Conductor*%
%ADD20C,2.000000*%
%TD*%
%TA.AperFunction,Conductor*%
%ADD21C,0.800000*%
%TD*%
G04 APERTURE END LIST*
D10*
%TO.N,GND*%
%TO.C,H604*%
X124700000Y-109500000D03*
%TD*%
%TO.N,GND*%
%TO.C,H601*%
X100700000Y-55500000D03*
%TD*%
D11*
%TO.N,VCC*%
%TO.C,J604*%
X104630000Y-104450000D03*
D12*
%TO.N,GND*%
X102090000Y-104450000D03*
%TD*%
D10*
%TO.N,GND*%
%TO.C,H603*%
X100700000Y-109500000D03*
%TD*%
D13*
%TO.N,VCC*%
%TO.C,J603*%
X124000000Y-104330000D03*
D14*
%TO.N,Pyro_Power*%
X124000000Y-101790000D03*
%TO.N,Pyro1*%
X124000000Y-99250000D03*
%TO.N,GND*%
X124000000Y-96710000D03*
%TO.N,Pyro2*%
X124000000Y-94170000D03*
%TO.N,GND*%
X124000000Y-91630000D03*
%TO.N,Pyro3*%
X124000000Y-89090000D03*
%TO.N,GND*%
X124000000Y-86550000D03*
%TD*%
D10*
%TO.N,GND*%
%TO.C,H602*%
X124700000Y-55500000D03*
%TD*%
D11*
%TO.N,Servo1*%
%TO.C,J605*%
X100210000Y-80640000D03*
D12*
%TO.N,Servo2*%
X100210000Y-83180000D03*
%TO.N,Servo3*%
X100210000Y-85720000D03*
%TO.N,Servo4*%
X100210000Y-88260000D03*
%TO.N,GND*%
X100210000Y-90800000D03*
%TD*%
D15*
%TO.N,GND*%
%TO.C,J601*%
X116995000Y-109900000D03*
D16*
X116995000Y-105720000D03*
D15*
X108355000Y-109900000D03*
D16*
X108355000Y-105720000D03*
%TD*%
D17*
%TO.N,GND*%
X120400000Y-77200000D03*
X113910000Y-72960000D03*
X106000000Y-64200000D03*
X115020000Y-106980000D03*
X106900000Y-106400000D03*
X111600000Y-79000000D03*
X113000000Y-81400000D03*
X105400000Y-89160000D03*
X111830000Y-70420000D03*
X107267000Y-79500000D03*
X114770000Y-84540000D03*
X105200000Y-107400000D03*
X118700000Y-106100000D03*
X119800000Y-108200000D03*
%TO.N,+3.3V*%
X107429008Y-86318679D03*
X111739002Y-82060998D03*
X103480000Y-69300000D03*
X126000000Y-79500000D03*
X115000000Y-86437500D03*
X116600000Y-78900000D03*
X118600000Y-65700000D03*
X120850000Y-70950000D03*
X109200000Y-79723000D03*
X113500000Y-87617500D03*
X124290000Y-83870000D03*
X108700000Y-63600000D03*
X112800000Y-107100000D03*
X112200000Y-94500000D03*
X110400000Y-63600000D03*
X113400000Y-55000000D03*
X126400000Y-68600000D03*
X116100000Y-74500000D03*
X108200000Y-93300000D03*
X104800000Y-86500000D03*
X104300000Y-91800000D03*
%TO.N,VCC*%
X115060000Y-100520000D03*
X116600000Y-103190000D03*
X115870000Y-96440000D03*
X122000000Y-70200000D03*
X117860000Y-86740000D03*
X108000000Y-103190000D03*
%TO.N,SPI_MISO*%
X124180000Y-79230000D03*
X105900000Y-70550000D03*
X109680000Y-85800000D03*
X112468266Y-83156443D03*
X120930000Y-54800000D03*
X116617024Y-81017024D03*
%TO.N,SPI_SCK*%
X105370597Y-70051738D03*
X123356051Y-80173949D03*
X114325707Y-82631000D03*
X115700000Y-54800000D03*
%TO.N,SWDIO*%
X112970000Y-92870000D03*
%TO.N,I2C_SCL*%
X117435083Y-85225083D03*
X120630000Y-78710000D03*
X106125789Y-75845000D03*
%TO.N,I2C_SDA*%
X101500000Y-70400000D03*
X119930000Y-80250000D03*
X109030000Y-92880000D03*
%TO.N,SWCLK*%
X110431650Y-94311650D03*
%TO.N,SPI_MOSI*%
X119222354Y-78047646D03*
X118310000Y-54800000D03*
X111620000Y-83560000D03*
X104843597Y-71460000D03*
%TO.N,NRST*%
X109060000Y-89250000D03*
%TO.N,Pyro_Power*%
X115575000Y-94170002D03*
X122236886Y-88266760D03*
X115160000Y-99100000D03*
X123000000Y-98000000D03*
X122600000Y-92800000D03*
%TO.N,Servo4*%
X106289141Y-91275567D03*
%TO.N,Servo3*%
X106720000Y-90690000D03*
%TO.N,{slash}GPS_RESET*%
X118560000Y-69360000D03*
%TO.N,{slash}GPS_SAFEBOOT*%
X98860000Y-69370000D03*
X107880000Y-85150000D03*
%TO.N,Pyro1_Trigger*%
X117317000Y-97751601D03*
%TO.N,Pyro2_Trigger*%
X119600490Y-91679027D03*
%TO.N,Pyro3_Trigger*%
X116970000Y-88650000D03*
%TO.N,Pyro3_Cont*%
X120000000Y-90760000D03*
%TO.N,/Radio/CTL*%
X101700000Y-63420000D03*
X106447354Y-73762646D03*
%TO.N,IMU_INT1*%
X111103883Y-90103883D03*
%TO.N,IMU_INT2*%
X116968655Y-84667429D03*
%TO.N,GPS_RX*%
X110600000Y-78297000D03*
%TO.N,GPS_TX*%
X109810000Y-78640000D03*
%TO.N,GPS_INT*%
X117728032Y-67476640D03*
%TO.N,IMU_CS*%
X115717316Y-83407316D03*
%TO.N,Baro_CS*%
X109777673Y-88095173D03*
%TD*%
D18*
%TO.N,VCC*%
X121750001Y-96440000D02*
X121760001Y-96450000D01*
D19*
X119560000Y-86740000D02*
X121760001Y-88940001D01*
D20*
X108000000Y-103190000D02*
X105890000Y-103190000D01*
D18*
X104630000Y-104450000D02*
X104750000Y-104330000D01*
D19*
X115060000Y-100520000D02*
X115060000Y-103190000D01*
D21*
X121760001Y-103190000D02*
X121760001Y-96450000D01*
D20*
X121760001Y-103190000D02*
X116600000Y-103190000D01*
X122900001Y-104330000D02*
X124000000Y-104330000D01*
X115060000Y-103190000D02*
X110000000Y-103190000D01*
X116600000Y-103190000D02*
X115060000Y-103190000D01*
X105890000Y-103190000D02*
X104630000Y-104450000D01*
D19*
X117860000Y-86740000D02*
X119560000Y-86740000D01*
X115870000Y-96440000D02*
X121750001Y-96440000D01*
D20*
X121760001Y-103190000D02*
X122900001Y-104330000D01*
X110000000Y-103190000D02*
X108000000Y-103190000D01*
D19*
X121760001Y-96450000D02*
X121760001Y-88940001D01*
D18*
%TO.N,SPI_MISO*%
X120930000Y-56180000D02*
X124180000Y-59430000D01*
X114447024Y-81017024D02*
X116617024Y-81017024D01*
X120930000Y-54800000D02*
X120930000Y-56180000D01*
X105900000Y-70550000D02*
X105900000Y-72470000D01*
X124180000Y-59430000D02*
X124180000Y-79230000D01*
X116617024Y-81017024D02*
X120922976Y-81017024D01*
X105900000Y-72470000D02*
X114447024Y-81017024D01*
X122710000Y-79230000D02*
X124180000Y-79230000D01*
X120922976Y-81017024D02*
X122710000Y-79230000D01*
%TO.N,SPI_SCK*%
X120899000Y-82631000D02*
X114325707Y-82631000D01*
X109282000Y-77542000D02*
X105370597Y-73630597D01*
X123356051Y-80173949D02*
X120899000Y-82631000D01*
X109282000Y-78858705D02*
X109282000Y-77542000D01*
X113054295Y-82631000D02*
X109282000Y-78858705D01*
X114325707Y-82631000D02*
X113054295Y-82631000D01*
X105370597Y-73630597D02*
X105370597Y-70051738D01*
%TO.N,SPI_MOSI*%
X119222354Y-58282354D02*
X118310000Y-57370000D01*
X119222354Y-78047646D02*
X119222354Y-58282354D01*
X104843597Y-76243597D02*
X111620000Y-83020000D01*
X104843597Y-71460000D02*
X104843597Y-76243597D01*
X118310000Y-57370000D02*
X118310000Y-54800000D01*
X111620000Y-83020000D02*
X111620000Y-83560000D01*
%TO.N,{slash}GPS_SAFEBOOT*%
X107880000Y-85150000D02*
X98860000Y-76130000D01*
X98860000Y-76130000D02*
X98860000Y-69370000D01*
%TD*%
%TA.AperFunction,Conductor*%
%TO.N,+3.3V*%
G36*
X105399300Y-74155428D02*
G01*
X105405778Y-74161460D01*
X106336239Y-75091921D01*
X106369724Y-75153244D01*
X106364740Y-75222936D01*
X106322868Y-75278869D01*
X106257404Y-75303286D01*
X106216466Y-75299377D01*
X106198265Y-75294500D01*
X106198264Y-75294500D01*
X106053314Y-75294500D01*
X105924782Y-75328940D01*
X105913300Y-75332017D01*
X105787777Y-75404488D01*
X105787771Y-75404493D01*
X105685282Y-75506982D01*
X105685277Y-75506988D01*
X105612806Y-75632511D01*
X105612805Y-75632515D01*
X105575289Y-75772525D01*
X105575289Y-75917475D01*
X105610010Y-76047053D01*
X105612806Y-76057488D01*
X105685277Y-76183011D01*
X105685279Y-76183013D01*
X105685280Y-76183015D01*
X105787774Y-76285509D01*
X105787775Y-76285510D01*
X105787777Y-76285511D01*
X105913300Y-76357982D01*
X105913301Y-76357982D01*
X105913304Y-76357984D01*
X106053314Y-76395500D01*
X106053317Y-76395500D01*
X106198261Y-76395500D01*
X106198264Y-76395500D01*
X106338274Y-76357984D01*
X106463804Y-76285509D01*
X106566298Y-76183015D01*
X106638773Y-76057485D01*
X106676289Y-75917475D01*
X106676289Y-75772525D01*
X106671412Y-75754324D01*
X106673073Y-75684475D01*
X106712235Y-75626612D01*
X106776463Y-75599107D01*
X106845366Y-75610693D01*
X106878867Y-75634549D01*
X108895181Y-77650863D01*
X108928666Y-77712186D01*
X108931500Y-77738544D01*
X108931500Y-78904849D01*
X108937576Y-78927523D01*
X108951105Y-78978016D01*
X108955385Y-78993992D01*
X109001527Y-79073913D01*
X109001531Y-79073918D01*
X112352575Y-82424962D01*
X112386060Y-82486285D01*
X112381076Y-82555977D01*
X112339204Y-82611910D01*
X112296990Y-82632416D01*
X112260863Y-82642097D01*
X112255777Y-82643460D01*
X112130254Y-82715931D01*
X112058614Y-82787571D01*
X111997290Y-82821055D01*
X111927599Y-82816070D01*
X111883252Y-82787570D01*
X105230416Y-76134734D01*
X105196931Y-76073411D01*
X105194097Y-76047053D01*
X105194097Y-74249141D01*
X105213782Y-74182102D01*
X105266586Y-74136347D01*
X105335744Y-74126403D01*
X105399300Y-74155428D01*
G37*
%TD.AperFunction*%
%TA.AperFunction,Conductor*%
G36*
X124973736Y-52800726D02*
G01*
X125251742Y-52817542D01*
X125266605Y-52819347D01*
X125341845Y-52833135D01*
X125536866Y-52868874D01*
X125551395Y-52872455D01*
X125813713Y-52954197D01*
X125827709Y-52959505D01*
X126078264Y-53072270D01*
X126091522Y-53079228D01*
X126326658Y-53221373D01*
X126338969Y-53229871D01*
X126555261Y-53399324D01*
X126566469Y-53409254D01*
X126760745Y-53603530D01*
X126770675Y-53614738D01*
X126940124Y-53831024D01*
X126948628Y-53843344D01*
X126971825Y-53881716D01*
X127090770Y-54078476D01*
X127097729Y-54091735D01*
X127210494Y-54342290D01*
X127215803Y-54356290D01*
X127297542Y-54618597D01*
X127301126Y-54633137D01*
X127350652Y-54903394D01*
X127352457Y-54918258D01*
X127369274Y-55196263D01*
X127369500Y-55203750D01*
X127369500Y-109796249D01*
X127369274Y-109803736D01*
X127352457Y-110081741D01*
X127350652Y-110096605D01*
X127301126Y-110366862D01*
X127297542Y-110381402D01*
X127215803Y-110643709D01*
X127210494Y-110657709D01*
X127097729Y-110908264D01*
X127090770Y-110921523D01*
X126948630Y-111156652D01*
X126940124Y-111168975D01*
X126770675Y-111385261D01*
X126760745Y-111396469D01*
X126566469Y-111590745D01*
X126555261Y-111600675D01*
X126338975Y-111770124D01*
X126326652Y-111778630D01*
X126091523Y-111920770D01*
X126078264Y-111927729D01*
X125827709Y-112040494D01*
X125813709Y-112045803D01*
X125551402Y-112127542D01*
X125536862Y-112131126D01*
X125266605Y-112180652D01*
X125251741Y-112182457D01*
X124973736Y-112199274D01*
X124966249Y-112199500D01*
X100373752Y-112199500D01*
X100366265Y-112199274D01*
X100088259Y-112182457D01*
X100073394Y-112180652D01*
X99803134Y-112131125D01*
X99788600Y-112127543D01*
X99526282Y-112045802D01*
X99512292Y-112040496D01*
X99261736Y-111927730D01*
X99248477Y-111920771D01*
X99013347Y-111778630D01*
X99001024Y-111770124D01*
X98784738Y-111600675D01*
X98773530Y-111590745D01*
X98579254Y-111396469D01*
X98569324Y-111385261D01*
X98502917Y-111300498D01*
X98399871Y-111168969D01*
X98391373Y-111156658D01*
X98249225Y-110921516D01*
X98242270Y-110908264D01*
X98129501Y-110657702D01*
X98124200Y-110643726D01*
X98042453Y-110381387D01*
X98038874Y-110366865D01*
X97989347Y-110096605D01*
X97987542Y-110081740D01*
X97970726Y-109803735D01*
X97970500Y-109796248D01*
X97970500Y-109381995D01*
X98899500Y-109381995D01*
X98899500Y-109618004D01*
X98899501Y-109618020D01*
X98930306Y-109852010D01*
X98991394Y-110079993D01*
X99081714Y-110298045D01*
X99081719Y-110298056D01*
X99129840Y-110381402D01*
X99199727Y-110502450D01*
X99199729Y-110502453D01*
X99199730Y-110502454D01*
X99343406Y-110689697D01*
X99343412Y-110689704D01*
X99510295Y-110856587D01*
X99510302Y-110856593D01*
X99594921Y-110921523D01*
X99697550Y-111000273D01*
X99784546Y-111050500D01*
X99901943Y-111118280D01*
X99901948Y-111118282D01*
X99901951Y-111118284D01*
X100120007Y-111208606D01*
X100347986Y-111269693D01*
X100581989Y-111300500D01*
X100581996Y-111300500D01*
X100818004Y-111300500D01*
X100818011Y-111300500D01*
X101052014Y-111269693D01*
X101279993Y-111208606D01*
X101498049Y-111118284D01*
X101702450Y-111000273D01*
X101889699Y-110856592D01*
X102056592Y-110689699D01*
X102200273Y-110502450D01*
X102274480Y-110373920D01*
X107604499Y-110373920D01*
X107633340Y-110518907D01*
X107633343Y-110518917D01*
X107689912Y-110655488D01*
X107689919Y-110655501D01*
X107772048Y-110778415D01*
X107772051Y-110778419D01*
X107876580Y-110882948D01*
X107876584Y-110882951D01*
X107999498Y-110965080D01*
X107999511Y-110965087D01*
X108136082Y-111021656D01*
X108136087Y-111021658D01*
X108136091Y-111021658D01*
X108136092Y-111021659D01*
X108281079Y-111050500D01*
X108281082Y-111050500D01*
X108428920Y-111050500D01*
X108526462Y-111031096D01*
X108573913Y-111021658D01*
X108710495Y-110965084D01*
X108833416Y-110882951D01*
X108937951Y-110778416D01*
X109020084Y-110655495D01*
X109076658Y-110518913D01*
X109104011Y-110381403D01*
X109105500Y-110373920D01*
X116244499Y-110373920D01*
X116273340Y-110518907D01*
X116273343Y-110518917D01*
X116329912Y-110655488D01*
X116329919Y-110655501D01*
X116412048Y-110778415D01*
X116412051Y-110778419D01*
X116516580Y-110882948D01*
X116516584Y-110882951D01*
X116639498Y-110965080D01*
X116639511Y-110965087D01*
X116776082Y-111021656D01*
X116776087Y-111021658D01*
X116776091Y-111021658D01*
X116776092Y-111021659D01*
X116921079Y-111050500D01*
X116921082Y-111050500D01*
X117068920Y-111050500D01*
X117166462Y-111031096D01*
X117213913Y-111021658D01*
X117350495Y-110965084D01*
X117473416Y-110882951D01*
X117577951Y-110778416D01*
X117660084Y-110655495D01*
X117716658Y-110518913D01*
X117744011Y-110381403D01*
X117745500Y-110373920D01*
X117745500Y-109426081D01*
X117740734Y-109402123D01*
X117740734Y-109402122D01*
X117736730Y-109381995D01*
X122899500Y-109381995D01*
X122899500Y-109618004D01*
X122899501Y-109618020D01*
X122930306Y-109852010D01*
X122991394Y-110079993D01*
X123081714Y-110298045D01*
X123081719Y-110298056D01*
X123129840Y-110381402D01*
X123199727Y-110502450D01*
X123199729Y-110502453D01*
X123199730Y-110502454D01*
X123343406Y-110689697D01*
X123343412Y-110689704D01*
X123510295Y-110856587D01*
X123510302Y-110856593D01*
X123594921Y-110921523D01*
X123697550Y-111000273D01*
X123784546Y-111050500D01*
X123901943Y-111118280D01*
X123901948Y-111118282D01*
X123901951Y-111118284D01*
X124120007Y-111208606D01*
X124347986Y-111269693D01*
X124581989Y-111300500D01*
X124581996Y-111300500D01*
X124818004Y-111300500D01*
X124818011Y-111300500D01*
X125052014Y-111269693D01*
X125279993Y-111208606D01*
X125498049Y-111118284D01*
X125702450Y-111000273D01*
X125889699Y-110856592D01*
X126056592Y-110689699D01*
X126200273Y-110502450D01*
X126318284Y-110298049D01*
X126408606Y-110079993D01*
X126469693Y-109852014D01*
X126500500Y-109618011D01*
X126500500Y-109381989D01*
X126469693Y-109147986D01*
X126408606Y-108920007D01*
X126318284Y-108701951D01*
X126318282Y-108701948D01*
X126318280Y-108701943D01*
X126276118Y-108628918D01*
X126200273Y-108497550D01*
X126056592Y-108310301D01*
X126056587Y-108310295D01*
X125889704Y-108143412D01*
X125889697Y-108143406D01*
X125702454Y-107999730D01*
X125702453Y-107999729D01*
X125702450Y-107999727D01*
X125617186Y-107950500D01*
X125498056Y-107881719D01*
X125498045Y-107881714D01*
X125279993Y-107791394D01*
X125160930Y-107759491D01*
X125052014Y-107730307D01*
X125052013Y-107730306D01*
X125052010Y-107730306D01*
X124818020Y-107699501D01*
X124818017Y-107699500D01*
X124818011Y-107699500D01*
X124581989Y-107699500D01*
X124581983Y-107699500D01*
X124581979Y-107699501D01*
X124347989Y-107730306D01*
X124120006Y-107791394D01*
X123901954Y-107881714D01*
X123901943Y-107881719D01*
X123697545Y-107999730D01*
X123510302Y-108143406D01*
X123510295Y-108143412D01*
X123343412Y-108310295D01*
X123343406Y-108310302D01*
X123199730Y-108497545D01*
X123081719Y-108701943D01*
X123081714Y-108701954D01*
X122991394Y-108920006D01*
X122930306Y-109147989D01*
X122899501Y-109381979D01*
X122899500Y-109381995D01*
X117736730Y-109381995D01*
X117716659Y-109281092D01*
X117716658Y-109281091D01*
X117716658Y-109281087D01*
X117716656Y-109281082D01*
X117660087Y-109144511D01*
X117660080Y-109144498D01*
X117577951Y-109021584D01*
X117577948Y-109021580D01*
X117473419Y-108917051D01*
X117473415Y-108917048D01*
X117350501Y-108834919D01*
X117350488Y-108834912D01*
X117213917Y-108778343D01*
X117213907Y-108778340D01*
X117068920Y-108749500D01*
X117068918Y-108749500D01*
X116921082Y-108749500D01*
X116921080Y-108749500D01*
X116776092Y-108778340D01*
X116776082Y-108778343D01*
X116639511Y-108834912D01*
X116639498Y-108834919D01*
X116516584Y-108917048D01*
X116516580Y-108917051D01*
X116412051Y-109021580D01*
X116412048Y-109021584D01*
X116329919Y-109144498D01*
X116329912Y-109144511D01*
X116273343Y-109281082D01*
X116273340Y-109281092D01*
X116244500Y-109426079D01*
X116244500Y-109426081D01*
X116244500Y-109426082D01*
X116244500Y-110373918D01*
X116244500Y-110373920D01*
X116244499Y-110373920D01*
X109105500Y-110373920D01*
X109105500Y-109426079D01*
X109076659Y-109281092D01*
X109076658Y-109281091D01*
X109076658Y-109281087D01*
X109076656Y-109281082D01*
X109020087Y-109144511D01*
X109020080Y-109144498D01*
X108937951Y-109021584D01*
X108937948Y-109021580D01*
X108833419Y-108917051D01*
X108833415Y-108917048D01*
X108710501Y-108834919D01*
X108710488Y-108834912D01*
X108573917Y-108778343D01*
X108573907Y-108778340D01*
X108428920Y-108749500D01*
X108428918Y-108749500D01*
X108281082Y-108749500D01*
X108281080Y-108749500D01*
X108136092Y-108778340D01*
X108136082Y-108778343D01*
X107999511Y-108834912D01*
X107999498Y-108834919D01*
X107876584Y-108917048D01*
X107876580Y-108917051D01*
X107772051Y-109021580D01*
X107772048Y-109021584D01*
X107689919Y-109144498D01*
X107689912Y-109144511D01*
X107633343Y-109281082D01*
X107633340Y-109281092D01*
X107604500Y-109426079D01*
X107604500Y-109426081D01*
X107604500Y-109426082D01*
X107604500Y-110373918D01*
X107604500Y-110373920D01*
X107604499Y-110373920D01*
X102274480Y-110373920D01*
X102318284Y-110298049D01*
X102408606Y-110079993D01*
X102469693Y-109852014D01*
X102500500Y-109618011D01*
X102500500Y-109381989D01*
X102469693Y-109147986D01*
X102408606Y-108920007D01*
X102318284Y-108701951D01*
X102318282Y-108701948D01*
X102318280Y-108701943D01*
X102276118Y-108628918D01*
X102200273Y-108497550D01*
X102056592Y-108310301D01*
X102056587Y-108310295D01*
X101889704Y-108143412D01*
X101889697Y-108143406D01*
X101869000Y-108127525D01*
X119249500Y-108127525D01*
X119249500Y-108272475D01*
X119259636Y-108310301D01*
X119287017Y-108412488D01*
X119359488Y-108538011D01*
X119359490Y-108538013D01*
X119359491Y-108538015D01*
X119461985Y-108640509D01*
X119461986Y-108640510D01*
X119461988Y-108640511D01*
X119587511Y-108712982D01*
X119587512Y-108712982D01*
X119587515Y-108712984D01*
X119727525Y-108750500D01*
X119727528Y-108750500D01*
X119872472Y-108750500D01*
X119872475Y-108750500D01*
X120012485Y-108712984D01*
X120138015Y-108640509D01*
X120240509Y-108538015D01*
X120312984Y-108412485D01*
X120350500Y-108272475D01*
X120350500Y-108127525D01*
X120312984Y-107987515D01*
X120291613Y-107950500D01*
X120240511Y-107861988D01*
X120240506Y-107861982D01*
X120138017Y-107759493D01*
X120138011Y-107759488D01*
X120012488Y-107687017D01*
X120012489Y-107687017D01*
X120001006Y-107683940D01*
X119872475Y-107649500D01*
X119727525Y-107649500D01*
X119598993Y-107683940D01*
X119587511Y-107687017D01*
X119461988Y-107759488D01*
X119461982Y-107759493D01*
X119359493Y-107861982D01*
X119359488Y-107861988D01*
X119287017Y-107987511D01*
X119287016Y-107987515D01*
X119249500Y-108127525D01*
X101869000Y-108127525D01*
X101702454Y-107999730D01*
X101702453Y-107999729D01*
X101702450Y-107999727D01*
X101617186Y-107950500D01*
X101498056Y-107881719D01*
X101498045Y-107881714D01*
X101279993Y-107791394D01*
X101160930Y-107759491D01*
X101052014Y-107730307D01*
X101052013Y-107730306D01*
X101052010Y-107730306D01*
X100818020Y-107699501D01*
X100818017Y-107699500D01*
X100818011Y-107699500D01*
X100581989Y-107699500D01*
X100581983Y-107699500D01*
X100581979Y-107699501D01*
X100347989Y-107730306D01*
X100120006Y-107791394D01*
X99901954Y-107881714D01*
X99901943Y-107881719D01*
X99697545Y-107999730D01*
X99510302Y-108143406D01*
X99510295Y-108143412D01*
X99343412Y-108310295D01*
X99343406Y-108310302D01*
X99199730Y-108497545D01*
X99081719Y-108701943D01*
X99081714Y-108701954D01*
X98991394Y-108920006D01*
X98930306Y-109147989D01*
X98899501Y-109381979D01*
X98899500Y-109381995D01*
X97970500Y-109381995D01*
X97970500Y-107327525D01*
X104649500Y-107327525D01*
X104649500Y-107472475D01*
X104665048Y-107530500D01*
X104687017Y-107612488D01*
X104759488Y-107738011D01*
X104759490Y-107738013D01*
X104759491Y-107738015D01*
X104861985Y-107840509D01*
X104861986Y-107840510D01*
X104861988Y-107840511D01*
X104987511Y-107912982D01*
X104987512Y-107912982D01*
X104987515Y-107912984D01*
X105127525Y-107950500D01*
X105127528Y-107950500D01*
X105272472Y-107950500D01*
X105272475Y-107950500D01*
X105412485Y-107912984D01*
X105538015Y-107840509D01*
X105640509Y-107738015D01*
X105712984Y-107612485D01*
X105750500Y-107472475D01*
X105750500Y-107327525D01*
X105712984Y-107187515D01*
X105640509Y-107061985D01*
X105538015Y-106959491D01*
X105538013Y-106959490D01*
X105538011Y-106959488D01*
X105412488Y-106887017D01*
X105412489Y-106887017D01*
X105401006Y-106883940D01*
X105272475Y-106849500D01*
X105127525Y-106849500D01*
X104998993Y-106883940D01*
X104987511Y-106887017D01*
X104861988Y-106959488D01*
X104861982Y-106959493D01*
X104759493Y-107061982D01*
X104759488Y-107061988D01*
X104687017Y-107187511D01*
X104687016Y-107187515D01*
X104649500Y-107327525D01*
X97970500Y-107327525D01*
X97970500Y-104363389D01*
X100989500Y-104363389D01*
X100989500Y-104536610D01*
X101014044Y-104691580D01*
X101016598Y-104707701D01*
X101070127Y-104872445D01*
X101148768Y-105026788D01*
X101250586Y-105166928D01*
X101373072Y-105289414D01*
X101513212Y-105391232D01*
X101667555Y-105469873D01*
X101832299Y-105523402D01*
X102003389Y-105550500D01*
X102003390Y-105550500D01*
X102176610Y-105550500D01*
X102176611Y-105550500D01*
X102347701Y-105523402D01*
X102512445Y-105469873D01*
X102666788Y-105391232D01*
X102806928Y-105289414D01*
X102929414Y-105166928D01*
X103031232Y-105026788D01*
X103109873Y-104872445D01*
X103163402Y-104707701D01*
X103163403Y-104707697D01*
X103164907Y-104703068D01*
X103166032Y-104703433D01*
X103198047Y-104647650D01*
X103260067Y-104615473D01*
X103329637Y-104621934D01*
X103384670Y-104664983D01*
X103406322Y-104717770D01*
X103410291Y-104742828D01*
X103471117Y-104930030D01*
X103515985Y-105018086D01*
X103529500Y-105074381D01*
X103529500Y-105324678D01*
X103544032Y-105397735D01*
X103544033Y-105397739D01*
X103544034Y-105397740D01*
X103599399Y-105480601D01*
X103682260Y-105535966D01*
X103682264Y-105535967D01*
X103755321Y-105550499D01*
X103755324Y-105550500D01*
X103755326Y-105550500D01*
X104005619Y-105550500D01*
X104061914Y-105564015D01*
X104149969Y-105608882D01*
X104149971Y-105608882D01*
X104149974Y-105608884D01*
X104250318Y-105641487D01*
X104337173Y-105669709D01*
X104531578Y-105700500D01*
X104531583Y-105700500D01*
X104728422Y-105700500D01*
X104922826Y-105669709D01*
X105110026Y-105608884D01*
X105117192Y-105605233D01*
X105198086Y-105564015D01*
X105254381Y-105550500D01*
X105504676Y-105550500D01*
X105504677Y-105550499D01*
X105577740Y-105535966D01*
X105660601Y-105480601D01*
X105715966Y-105397740D01*
X105730500Y-105324674D01*
X105730500Y-105169336D01*
X105750185Y-105102297D01*
X105766819Y-105081655D01*
X106371655Y-104476819D01*
X106432978Y-104443334D01*
X106459336Y-104440500D01*
X107723770Y-104440500D01*
X107790809Y-104460185D01*
X107836564Y-104512989D01*
X107846508Y-104582147D01*
X107817483Y-104645703D01*
X107811451Y-104652181D01*
X107772051Y-104691580D01*
X107772048Y-104691584D01*
X107689919Y-104814498D01*
X107689912Y-104814511D01*
X107633343Y-104951082D01*
X107633340Y-104951092D01*
X107604500Y-105096079D01*
X107604500Y-106056456D01*
X107584815Y-106123495D01*
X107532011Y-106169250D01*
X107462853Y-106179194D01*
X107399297Y-106150169D01*
X107373113Y-106118457D01*
X107361200Y-106097823D01*
X107340509Y-106061985D01*
X107238015Y-105959491D01*
X107238013Y-105959490D01*
X107238011Y-105959488D01*
X107112488Y-105887017D01*
X107112489Y-105887017D01*
X107101006Y-105883940D01*
X106972475Y-105849500D01*
X106827525Y-105849500D01*
X106698993Y-105883940D01*
X106687511Y-105887017D01*
X106561988Y-105959488D01*
X106561982Y-105959493D01*
X106459493Y-106061982D01*
X106459488Y-106061988D01*
X106387017Y-106187511D01*
X106387016Y-106187515D01*
X106349500Y-106327525D01*
X106349500Y-106472475D01*
X106378872Y-106582090D01*
X106387017Y-106612488D01*
X106459488Y-106738011D01*
X106459490Y-106738013D01*
X106459491Y-106738015D01*
X106561985Y-106840509D01*
X106561986Y-106840510D01*
X106561988Y-106840511D01*
X106687511Y-106912982D01*
X106687512Y-106912982D01*
X106687515Y-106912984D01*
X106827525Y-106950500D01*
X106827528Y-106950500D01*
X106972472Y-106950500D01*
X106972475Y-106950500D01*
X107112485Y-106912984D01*
X107238015Y-106840509D01*
X107340509Y-106738015D01*
X107412984Y-106612485D01*
X107425100Y-106567266D01*
X107461463Y-106507608D01*
X107524310Y-106477078D01*
X107593686Y-106485372D01*
X107647564Y-106529857D01*
X107659435Y-106551908D01*
X107689914Y-106625491D01*
X107689919Y-106625501D01*
X107772048Y-106748415D01*
X107772051Y-106748419D01*
X107876580Y-106852948D01*
X107876584Y-106852951D01*
X107999498Y-106935080D01*
X107999511Y-106935087D01*
X108136082Y-106991656D01*
X108136087Y-106991658D01*
X108136091Y-106991658D01*
X108136092Y-106991659D01*
X108281079Y-107020500D01*
X108281082Y-107020500D01*
X108428920Y-107020500D01*
X108526462Y-107001096D01*
X108573913Y-106991658D01*
X108710495Y-106935084D01*
X108833416Y-106852951D01*
X108937951Y-106748416D01*
X109020084Y-106625495D01*
X109025473Y-106612486D01*
X109055286Y-106540509D01*
X109076658Y-106488913D01*
X109105500Y-106343918D01*
X109105812Y-106342350D01*
X109138197Y-106280439D01*
X109198913Y-106245865D01*
X109268682Y-106249605D01*
X109325354Y-106290472D01*
X109347203Y-106334446D01*
X109363337Y-106394659D01*
X109422910Y-106497842D01*
X109507158Y-106582090D01*
X109610341Y-106641663D01*
X109725427Y-106672500D01*
X109725429Y-106672500D01*
X109844571Y-106672500D01*
X109844573Y-106672500D01*
X109959659Y-106641663D01*
X110062842Y-106582090D01*
X110147090Y-106497842D01*
X110206663Y-106394659D01*
X110237500Y-106279573D01*
X110237500Y-106160427D01*
X110206663Y-106045341D01*
X110147090Y-105942158D01*
X110062842Y-105857910D01*
X110011250Y-105828123D01*
X109959660Y-105798337D01*
X109902116Y-105782918D01*
X109844573Y-105767500D01*
X109725427Y-105767500D01*
X109610339Y-105798337D01*
X109507158Y-105857910D01*
X109507155Y-105857912D01*
X109422912Y-105942155D01*
X109422910Y-105942158D01*
X109363337Y-106045341D01*
X109349275Y-106097823D01*
X109312910Y-106157483D01*
X109250063Y-106188012D01*
X109180687Y-106179717D01*
X109126809Y-106135232D01*
X109105535Y-106068680D01*
X109105500Y-106065729D01*
X109105500Y-105096079D01*
X109076659Y-104951092D01*
X109076658Y-104951091D01*
X109076658Y-104951087D01*
X109067934Y-104930026D01*
X109020087Y-104814511D01*
X109020080Y-104814498D01*
X108937951Y-104691584D01*
X108937948Y-104691580D01*
X108898549Y-104652181D01*
X108865064Y-104590858D01*
X108870048Y-104521166D01*
X108911920Y-104465233D01*
X108977384Y-104440816D01*
X108986230Y-104440500D01*
X109901583Y-104440500D01*
X114961583Y-104440500D01*
X116363770Y-104440500D01*
X116430809Y-104460185D01*
X116476564Y-104512989D01*
X116486508Y-104582147D01*
X116457483Y-104645703D01*
X116451451Y-104652181D01*
X116412051Y-104691580D01*
X116412048Y-104691584D01*
X116329919Y-104814498D01*
X116329912Y-104814511D01*
X116273343Y-104951082D01*
X116273340Y-104951092D01*
X116244500Y-105096079D01*
X116244500Y-106065729D01*
X116224815Y-106132768D01*
X116172011Y-106178523D01*
X116102853Y-106188467D01*
X116039297Y-106159442D01*
X116001523Y-106100664D01*
X116000725Y-106097823D01*
X115986663Y-106045341D01*
X115927090Y-105942158D01*
X115842842Y-105857910D01*
X115791250Y-105828123D01*
X115739660Y-105798337D01*
X115682116Y-105782918D01*
X115624573Y-105767500D01*
X115505427Y-105767500D01*
X115390339Y-105798337D01*
X115287158Y-105857910D01*
X115287155Y-105857912D01*
X115202912Y-105942155D01*
X115202910Y-105942158D01*
X115143337Y-106045339D01*
X115112500Y-106160427D01*
X115112500Y-106279571D01*
X115113561Y-106287629D01*
X115110502Y-106288031D01*
X115109180Y-106343271D01*
X115070011Y-106401129D01*
X115005779Y-106428625D01*
X114991073Y-106429500D01*
X114947525Y-106429500D01*
X114818993Y-106463940D01*
X114807511Y-106467017D01*
X114681988Y-106539488D01*
X114681982Y-106539493D01*
X114579493Y-106641982D01*
X114579488Y-106641988D01*
X114507017Y-106767511D01*
X114507016Y-106767515D01*
X114469500Y-106907525D01*
X114469500Y-107052475D01*
X114505683Y-107187511D01*
X114507017Y-107192488D01*
X114579488Y-107318011D01*
X114579490Y-107318013D01*
X114579491Y-107318015D01*
X114681985Y-107420509D01*
X114681986Y-107420510D01*
X114681988Y-107420511D01*
X114807511Y-107492982D01*
X114807512Y-107492982D01*
X114807515Y-107492984D01*
X114947525Y-107530500D01*
X114947528Y-107530500D01*
X115092472Y-107530500D01*
X115092475Y-107530500D01*
X115232485Y-107492984D01*
X115358015Y-107420509D01*
X115460509Y-107318015D01*
X115532984Y-107192485D01*
X115570500Y-107052475D01*
X115570500Y-106907525D01*
X115547458Y-106821532D01*
X115549121Y-106751688D01*
X115588283Y-106693825D01*
X115635137Y-106669669D01*
X115739659Y-106641663D01*
X115842842Y-106582090D01*
X115927090Y-106497842D01*
X115986663Y-106394659D01*
X116002796Y-106334447D01*
X116039159Y-106274789D01*
X116102006Y-106244259D01*
X116171381Y-106252553D01*
X116225260Y-106297038D01*
X116244187Y-106342350D01*
X116273340Y-106488907D01*
X116273343Y-106488917D01*
X116329912Y-106625488D01*
X116329919Y-106625501D01*
X116412048Y-106748415D01*
X116412051Y-106748419D01*
X116516580Y-106852948D01*
X116516584Y-106852951D01*
X116639498Y-106935080D01*
X116639511Y-106935087D01*
X116776082Y-106991656D01*
X116776087Y-106991658D01*
X116776091Y-106991658D01*
X116776092Y-106991659D01*
X116921079Y-107020500D01*
X116921082Y-107020500D01*
X117068920Y-107020500D01*
X117166462Y-107001096D01*
X117213913Y-106991658D01*
X117350495Y-106935084D01*
X117473416Y-106852951D01*
X117577951Y-106748416D01*
X117660084Y-106625495D01*
X117665473Y-106612486D01*
X117695286Y-106540509D01*
X117716658Y-106488913D01*
X117726782Y-106438017D01*
X117745500Y-106343920D01*
X117745500Y-106027525D01*
X118149500Y-106027525D01*
X118149500Y-106172475D01*
X118181118Y-106290472D01*
X118187017Y-106312488D01*
X118259488Y-106438011D01*
X118259490Y-106438013D01*
X118259491Y-106438015D01*
X118361985Y-106540509D01*
X118361986Y-106540510D01*
X118361988Y-106540511D01*
X118487511Y-106612982D01*
X118487512Y-106612982D01*
X118487515Y-106612984D01*
X118627525Y-106650500D01*
X118627528Y-106650500D01*
X118772472Y-106650500D01*
X118772475Y-106650500D01*
X118912485Y-106612984D01*
X119038015Y-106540509D01*
X119140509Y-106438015D01*
X119212984Y-106312485D01*
X119250500Y-106172475D01*
X119250500Y-106027525D01*
X119212984Y-105887515D01*
X119212696Y-105887017D01*
X119140511Y-105761988D01*
X119140506Y-105761982D01*
X119038017Y-105659493D01*
X119038011Y-105659488D01*
X118912488Y-105587017D01*
X118912489Y-105587017D01*
X118888167Y-105580500D01*
X118772475Y-105549500D01*
X118627525Y-105549500D01*
X118511833Y-105580500D01*
X118487511Y-105587017D01*
X118361988Y-105659488D01*
X118361982Y-105659493D01*
X118259493Y-105761982D01*
X118259488Y-105761988D01*
X118187017Y-105887511D01*
X118187016Y-105887515D01*
X118149500Y-106027525D01*
X117745500Y-106027525D01*
X117745500Y-105096079D01*
X117716659Y-104951092D01*
X117716658Y-104951091D01*
X117716658Y-104951087D01*
X117707934Y-104930026D01*
X117660087Y-104814511D01*
X117660080Y-104814498D01*
X117577951Y-104691584D01*
X117577948Y-104691580D01*
X117538549Y-104652181D01*
X117505064Y-104590858D01*
X117510048Y-104521166D01*
X117551920Y-104465233D01*
X117617384Y-104440816D01*
X117626230Y-104440500D01*
X121190665Y-104440500D01*
X121257704Y-104460185D01*
X121278346Y-104476819D01*
X121946172Y-105144645D01*
X121946173Y-105144646D01*
X122085355Y-105283828D01*
X122244596Y-105399524D01*
X122419976Y-105488884D01*
X122514276Y-105519524D01*
X122607174Y-105549709D01*
X122680077Y-105561255D01*
X122801579Y-105580500D01*
X122801584Y-105580500D01*
X122808562Y-105580500D01*
X122875601Y-105600185D01*
X122882853Y-105605219D01*
X122907669Y-105623796D01*
X123042516Y-105674091D01*
X123102126Y-105680500D01*
X123102135Y-105680500D01*
X124897865Y-105680500D01*
X124897874Y-105680500D01*
X124957484Y-105674091D01*
X125092331Y-105623796D01*
X125207547Y-105537547D01*
X125293796Y-105422331D01*
X125344091Y-105287484D01*
X125350500Y-105227874D01*
X125350500Y-103432126D01*
X125344091Y-103372516D01*
X125293796Y-103237669D01*
X125207547Y-103122453D01*
X125092331Y-103036204D01*
X125092330Y-103036203D01*
X125092328Y-103036202D01*
X124960917Y-102987189D01*
X124904983Y-102945318D01*
X124880566Y-102879853D01*
X124895418Y-102811580D01*
X124916563Y-102783332D01*
X125030104Y-102669792D01*
X125155051Y-102497816D01*
X125251557Y-102308412D01*
X125317246Y-102106243D01*
X125350500Y-101896287D01*
X125350500Y-101683713D01*
X125317246Y-101473757D01*
X125251557Y-101271588D01*
X125155051Y-101082184D01*
X125155049Y-101082181D01*
X125155048Y-101082179D01*
X125030109Y-100910213D01*
X124879786Y-100759890D01*
X124707820Y-100634951D01*
X124707115Y-100634591D01*
X124699054Y-100630485D01*
X124648259Y-100582512D01*
X124631463Y-100514692D01*
X124653999Y-100448556D01*
X124699054Y-100409515D01*
X124707816Y-100405051D01*
X124842064Y-100307515D01*
X124879786Y-100280109D01*
X124879788Y-100280106D01*
X124879792Y-100280104D01*
X125030104Y-100129792D01*
X125030106Y-100129788D01*
X125030109Y-100129786D01*
X125155048Y-99957820D01*
X125155047Y-99957820D01*
X125155051Y-99957816D01*
X125251557Y-99768412D01*
X125317246Y-99566243D01*
X125350500Y-99356287D01*
X125350500Y-99143713D01*
X125317246Y-98933757D01*
X125251557Y-98731588D01*
X125155051Y-98542184D01*
X125155049Y-98542181D01*
X125155048Y-98542179D01*
X125030109Y-98370213D01*
X124879786Y-98219890D01*
X124707820Y-98094951D01*
X124707115Y-98094591D01*
X124699054Y-98090485D01*
X124648259Y-98042512D01*
X124631463Y-97974692D01*
X124653999Y-97908556D01*
X124699054Y-97869515D01*
X124707816Y-97865051D01*
X124814536Y-97787515D01*
X124879786Y-97740109D01*
X124879788Y-97740106D01*
X124879792Y-97740104D01*
X125030104Y-97589792D01*
X125030106Y-97589788D01*
X125030109Y-97589786D01*
X125155048Y-97417820D01*
X125155047Y-97417820D01*
X125155051Y-97417816D01*
X125251557Y-97228412D01*
X125317246Y-97026243D01*
X125350500Y-96816287D01*
X125350500Y-96603713D01*
X125317246Y-96393757D01*
X125251557Y-96191588D01*
X125155051Y-96002184D01*
X125155049Y-96002181D01*
X125155048Y-96002179D01*
X125030109Y-95830213D01*
X124879786Y-95679890D01*
X124707820Y-95554951D01*
X124707115Y-95554591D01*
X124699054Y-95550485D01*
X124648259Y-95502512D01*
X124631463Y-95434692D01*
X124653999Y-95368556D01*
X124699054Y-95329515D01*
X124707816Y-95325051D01*
X124729789Y-95309086D01*
X124879786Y-95200109D01*
X124879788Y-95200106D01*
X124879792Y-95200104D01*
X125030104Y-95049792D01*
X125030106Y-95049788D01*
X125030109Y-95049786D01*
X125155048Y-94877820D01*
X125155047Y-94877820D01*
X125155051Y-94877816D01*
X125251557Y-94688412D01*
X125317246Y-94486243D01*
X125350500Y-94276287D01*
X125350500Y-94063713D01*
X125317246Y-93853757D01*
X125251557Y-93651588D01*
X125155051Y-93462184D01*
X125155049Y-93462181D01*
X125155048Y-93462179D01*
X125030109Y-93290213D01*
X124879786Y-93139890D01*
X124707820Y-93014951D01*
X124702980Y-93012485D01*
X124699054Y-93010485D01*
X124648259Y-92962512D01*
X124631463Y-92894692D01*
X124653999Y-92828556D01*
X124699054Y-92789515D01*
X124707816Y-92785051D01*
X124729789Y-92769086D01*
X124879786Y-92660109D01*
X124879788Y-92660106D01*
X124879792Y-92660104D01*
X125030104Y-92509792D01*
X125030106Y-92509788D01*
X125030109Y-92509786D01*
X125155048Y-92337820D01*
X125155047Y-92337820D01*
X125155051Y-92337816D01*
X125251557Y-92148412D01*
X125317246Y-91946243D01*
X125350500Y-91736287D01*
X125350500Y-91523713D01*
X125317246Y-91313757D01*
X125251557Y-91111588D01*
X125155051Y-90922184D01*
X125155049Y-90922181D01*
X125155048Y-90922179D01*
X125030109Y-90750213D01*
X124879786Y-90599890D01*
X124707820Y-90474951D01*
X124707115Y-90474591D01*
X124699054Y-90470485D01*
X124648259Y-90422512D01*
X124631463Y-90354692D01*
X124653999Y-90288556D01*
X124699054Y-90249515D01*
X124707816Y-90245051D01*
X124756748Y-90209500D01*
X124879786Y-90120109D01*
X124879788Y-90120106D01*
X124879792Y-90120104D01*
X125030104Y-89969792D01*
X125030106Y-89969788D01*
X125030109Y-89969786D01*
X125155048Y-89797820D01*
X125155047Y-89797820D01*
X125155051Y-89797816D01*
X125251557Y-89608412D01*
X125317246Y-89406243D01*
X125350500Y-89196287D01*
X125350500Y-88983713D01*
X125317246Y-88773757D01*
X125251557Y-88571588D01*
X125155051Y-88382184D01*
X125155049Y-88382181D01*
X125155048Y-88382179D01*
X125030109Y-88210213D01*
X124879786Y-88059890D01*
X124707820Y-87934951D01*
X124707115Y-87934591D01*
X124699054Y-87930485D01*
X124648259Y-87882512D01*
X124631463Y-87814692D01*
X124653999Y-87748556D01*
X124699054Y-87709515D01*
X124707816Y-87705051D01*
X124737876Y-87683211D01*
X124879786Y-87580109D01*
X124879788Y-87580106D01*
X124879792Y-87580104D01*
X125030104Y-87429792D01*
X125030106Y-87429788D01*
X125030109Y-87429786D01*
X125155048Y-87257820D01*
X125155047Y-87257820D01*
X125155051Y-87257816D01*
X125251557Y-87068412D01*
X125317246Y-86866243D01*
X125350500Y-86656287D01*
X125350500Y-86443713D01*
X125317246Y-86233757D01*
X125251557Y-86031588D01*
X125155051Y-85842184D01*
X125155049Y-85842181D01*
X125155048Y-85842179D01*
X125030109Y-85670213D01*
X124879786Y-85519890D01*
X124707820Y-85394951D01*
X124518414Y-85298444D01*
X124518413Y-85298443D01*
X124518412Y-85298443D01*
X124316243Y-85232754D01*
X124316241Y-85232753D01*
X124316240Y-85232753D01*
X124154957Y-85207208D01*
X124106287Y-85199500D01*
X123893713Y-85199500D01*
X123845042Y-85207208D01*
X123683760Y-85232753D01*
X123683757Y-85232754D01*
X123495475Y-85293931D01*
X123481585Y-85298444D01*
X123292179Y-85394951D01*
X123120213Y-85519890D01*
X122969890Y-85670213D01*
X122844951Y-85842179D01*
X122748444Y-86031585D01*
X122682753Y-86233760D01*
X122649500Y-86443713D01*
X122649500Y-86656286D01*
X122682753Y-86866239D01*
X122748444Y-87068414D01*
X122844951Y-87257820D01*
X122969890Y-87429786D01*
X123120213Y-87580109D01*
X123292182Y-87705050D01*
X123300946Y-87709516D01*
X123351742Y-87757491D01*
X123368536Y-87825312D01*
X123345998Y-87891447D01*
X123300946Y-87930484D01*
X123292182Y-87934949D01*
X123120215Y-88059889D01*
X122981187Y-88198917D01*
X122919864Y-88232401D01*
X122850172Y-88227417D01*
X122794239Y-88185545D01*
X122773733Y-88143332D01*
X122749870Y-88054275D01*
X122738146Y-88033969D01*
X122677397Y-87928748D01*
X122677392Y-87928742D01*
X122574903Y-87826253D01*
X122574897Y-87826248D01*
X122449374Y-87753777D01*
X122449375Y-87753777D01*
X122429890Y-87748556D01*
X122309361Y-87716260D01*
X122164411Y-87716260D01*
X122043882Y-87748556D01*
X122024397Y-87753777D01*
X121898874Y-87826248D01*
X121898868Y-87826253D01*
X121796379Y-87928742D01*
X121796377Y-87928745D01*
X121726912Y-88049061D01*
X121676344Y-88097276D01*
X121607737Y-88110498D01*
X121542873Y-88084530D01*
X121531844Y-88074741D01*
X119836616Y-86379513D01*
X119836614Y-86379511D01*
X119785250Y-86349856D01*
X119733888Y-86320201D01*
X119733885Y-86320200D01*
X119706953Y-86312983D01*
X119706953Y-86312984D01*
X119656596Y-86299491D01*
X119619309Y-86289500D01*
X119619308Y-86289500D01*
X118213936Y-86289500D01*
X118151936Y-86272887D01*
X118072485Y-86227016D01*
X117932475Y-86189500D01*
X117787525Y-86189500D01*
X117658993Y-86223940D01*
X117647511Y-86227017D01*
X117521988Y-86299488D01*
X117521982Y-86299493D01*
X117419493Y-86401982D01*
X117419488Y-86401988D01*
X117347017Y-86527511D01*
X117347016Y-86527515D01*
X117309500Y-86667525D01*
X117309500Y-86812475D01*
X117347016Y-86952485D01*
X117347017Y-86952488D01*
X117419488Y-87078011D01*
X117419490Y-87078013D01*
X117419491Y-87078015D01*
X117521985Y-87180509D01*
X117521986Y-87180510D01*
X117521988Y-87180511D01*
X117647511Y-87252982D01*
X117647512Y-87252982D01*
X117647515Y-87252984D01*
X117787525Y-87290500D01*
X117787528Y-87290500D01*
X117932472Y-87290500D01*
X117932475Y-87290500D01*
X118072485Y-87252984D01*
X118151936Y-87207112D01*
X118213936Y-87190500D01*
X119322035Y-87190500D01*
X119389074Y-87210185D01*
X119409716Y-87226819D01*
X121273182Y-89090285D01*
X121306667Y-89151608D01*
X121309501Y-89177966D01*
X121309501Y-95865500D01*
X121289816Y-95932539D01*
X121237012Y-95978294D01*
X121185501Y-95989500D01*
X116223936Y-95989500D01*
X116161936Y-95972887D01*
X116082485Y-95927016D01*
X115942475Y-95889500D01*
X115797525Y-95889500D01*
X115668993Y-95923940D01*
X115657511Y-95927017D01*
X115531988Y-95999488D01*
X115531982Y-95999493D01*
X115429493Y-96101982D01*
X115429488Y-96101988D01*
X115357017Y-96227511D01*
X115357016Y-96227515D01*
X115319500Y-96367525D01*
X115319500Y-96512475D01*
X115357016Y-96652485D01*
X115357017Y-96652488D01*
X115429488Y-96778011D01*
X115429490Y-96778013D01*
X115429491Y-96778015D01*
X115531985Y-96880509D01*
X115531986Y-96880510D01*
X115531988Y-96880511D01*
X115657511Y-96952982D01*
X115657512Y-96952982D01*
X115657515Y-96952984D01*
X115797525Y-96990500D01*
X115797528Y-96990500D01*
X115942472Y-96990500D01*
X115942475Y-96990500D01*
X116082485Y-96952984D01*
X116161936Y-96907112D01*
X116223936Y-96890500D01*
X120985501Y-96890500D01*
X121052540Y-96910185D01*
X121098295Y-96962989D01*
X121109501Y-97014500D01*
X121109501Y-101815500D01*
X121089816Y-101882539D01*
X121037012Y-101928294D01*
X120985501Y-101939500D01*
X115634500Y-101939500D01*
X115567461Y-101919815D01*
X115521706Y-101867011D01*
X115510500Y-101815500D01*
X115510500Y-100873935D01*
X115527112Y-100811936D01*
X115572984Y-100732485D01*
X115610500Y-100592475D01*
X115610500Y-100447525D01*
X115572984Y-100307515D01*
X115557158Y-100280104D01*
X115500511Y-100181988D01*
X115500506Y-100181982D01*
X115398017Y-100079493D01*
X115398011Y-100079488D01*
X115272488Y-100007017D01*
X115272489Y-100007017D01*
X115261006Y-100003940D01*
X115132475Y-99969500D01*
X114987525Y-99969500D01*
X114858993Y-100003940D01*
X114847511Y-100007017D01*
X114721988Y-100079488D01*
X114721982Y-100079493D01*
X114619493Y-100181982D01*
X114619488Y-100181988D01*
X114547017Y-100307511D01*
X114547016Y-100307515D01*
X114509500Y-100447525D01*
X114509500Y-100592475D01*
X114547016Y-100732485D01*
X114592887Y-100811936D01*
X114609500Y-100873935D01*
X114609500Y-101815500D01*
X114589815Y-101882539D01*
X114537011Y-101928294D01*
X114485500Y-101939500D01*
X105791578Y-101939500D01*
X105597173Y-101970290D01*
X105409969Y-102031117D01*
X105234594Y-102120476D01*
X105143741Y-102186485D01*
X105075354Y-102236172D01*
X105075352Y-102236174D01*
X105075351Y-102236174D01*
X103998345Y-103313181D01*
X103937022Y-103346666D01*
X103910664Y-103349500D01*
X103755323Y-103349500D01*
X103682264Y-103364032D01*
X103682260Y-103364033D01*
X103599399Y-103419399D01*
X103544033Y-103502260D01*
X103544032Y-103502264D01*
X103529500Y-103575321D01*
X103529500Y-103825618D01*
X103515985Y-103881913D01*
X103471114Y-103969976D01*
X103410292Y-104157168D01*
X103406322Y-104182230D01*
X103376390Y-104245364D01*
X103317077Y-104282293D01*
X103247215Y-104281293D01*
X103188983Y-104242681D01*
X103165746Y-104196659D01*
X103164907Y-104196932D01*
X103151987Y-104157168D01*
X103109873Y-104027555D01*
X103031232Y-103873212D01*
X102929414Y-103733072D01*
X102806928Y-103610586D01*
X102666788Y-103508768D01*
X102512445Y-103430127D01*
X102347701Y-103376598D01*
X102347699Y-103376597D01*
X102347698Y-103376597D01*
X102216271Y-103355781D01*
X102176611Y-103349500D01*
X102003389Y-103349500D01*
X101963728Y-103355781D01*
X101832302Y-103376597D01*
X101667552Y-103430128D01*
X101513211Y-103508768D01*
X101433256Y-103566859D01*
X101373072Y-103610586D01*
X101373070Y-103610588D01*
X101373069Y-103610588D01*
X101250588Y-103733069D01*
X101250588Y-103733070D01*
X101250586Y-103733072D01*
X101206859Y-103793256D01*
X101148768Y-103873211D01*
X101070128Y-104027552D01*
X101016597Y-104192302D01*
X100989500Y-104363389D01*
X97970500Y-104363389D01*
X97970500Y-99027525D01*
X114609500Y-99027525D01*
X114609500Y-99172475D01*
X114647016Y-99312485D01*
X114647017Y-99312488D01*
X114719488Y-99438011D01*
X114719490Y-99438013D01*
X114719491Y-99438015D01*
X114821985Y-99540509D01*
X114821986Y-99540510D01*
X114821988Y-99540511D01*
X114947511Y-99612982D01*
X114947512Y-99612982D01*
X114947515Y-99612984D01*
X115087525Y-99650500D01*
X115087528Y-99650500D01*
X115232472Y-99650500D01*
X115232475Y-99650500D01*
X115372485Y-99612984D01*
X115498015Y-99540509D01*
X115600509Y-99438015D01*
X115672984Y-99312485D01*
X115710500Y-99172475D01*
X115710500Y-99027525D01*
X115672984Y-98887515D01*
X115600509Y-98761985D01*
X115498015Y-98659491D01*
X115498013Y-98659490D01*
X115498011Y-98659488D01*
X115372488Y-98587017D01*
X115372489Y-98587017D01*
X115361006Y-98583940D01*
X115232475Y-98549500D01*
X115087525Y-98549500D01*
X114958993Y-98583940D01*
X114947511Y-98587017D01*
X114821988Y-98659488D01*
X114821982Y-98659493D01*
X114719493Y-98761982D01*
X114719488Y-98761988D01*
X114647017Y-98887511D01*
X114647016Y-98887515D01*
X114609500Y-99027525D01*
X97970500Y-99027525D01*
X97970500Y-97679126D01*
X116766500Y-97679126D01*
X116766500Y-97824076D01*
X116804016Y-97964086D01*
X116804017Y-97964089D01*
X116876488Y-98089612D01*
X116876490Y-98089614D01*
X116876491Y-98089616D01*
X116978985Y-98192110D01*
X116978986Y-98192111D01*
X116978988Y-98192112D01*
X117104511Y-98264583D01*
X117104512Y-98264583D01*
X117104515Y-98264585D01*
X117244525Y-98302101D01*
X117244528Y-98302101D01*
X117389472Y-98302101D01*
X117389475Y-98302101D01*
X117529485Y-98264585D01*
X117655015Y-98192110D01*
X117757509Y-98089616D01*
X117829984Y-97964086D01*
X117867500Y-97824076D01*
X117867500Y-97679126D01*
X117829984Y-97539116D01*
X117819212Y-97520459D01*
X117757511Y-97413589D01*
X117757506Y-97413583D01*
X117655017Y-97311094D01*
X117655011Y-97311089D01*
X117529488Y-97238618D01*
X117529489Y-97238618D01*
X117491407Y-97228414D01*
X117389475Y-97201101D01*
X117244525Y-97201101D01*
X117142593Y-97228414D01*
X117104511Y-97238618D01*
X116978988Y-97311089D01*
X116978982Y-97311094D01*
X116876493Y-97413583D01*
X116876488Y-97413589D01*
X116804017Y-97539112D01*
X116804016Y-97539116D01*
X116766500Y-97679126D01*
X97970500Y-97679126D01*
X97970500Y-94239175D01*
X109881150Y-94239175D01*
X109881150Y-94384125D01*
X109908512Y-94486239D01*
X109918667Y-94524138D01*
X109991138Y-94649661D01*
X109991140Y-94649663D01*
X109991141Y-94649665D01*
X110093635Y-94752159D01*
X110093636Y-94752160D01*
X110093638Y-94752161D01*
X110219161Y-94824632D01*
X110219162Y-94824632D01*
X110219165Y-94824634D01*
X110359175Y-94862150D01*
X110359178Y-94862150D01*
X110504122Y-94862150D01*
X110504125Y-94862150D01*
X110644135Y-94824634D01*
X110769665Y-94752159D01*
X110872159Y-94649665D01*
X110944634Y-94524135D01*
X110982150Y-94384125D01*
X110982150Y-94239175D01*
X110944634Y-94099165D01*
X110943689Y-94097529D01*
X110943688Y-94097527D01*
X115024500Y-94097527D01*
X115024500Y-94242477D01*
X115062016Y-94382487D01*
X115062017Y-94382490D01*
X115134488Y-94508013D01*
X115134490Y-94508015D01*
X115134491Y-94508017D01*
X115236985Y-94610511D01*
X115236986Y-94610512D01*
X115236988Y-94610513D01*
X115362511Y-94682984D01*
X115362512Y-94682984D01*
X115362515Y-94682986D01*
X115502525Y-94720502D01*
X115502528Y-94720502D01*
X115647472Y-94720502D01*
X115647475Y-94720502D01*
X115787485Y-94682986D01*
X115913015Y-94610511D01*
X116015509Y-94508017D01*
X116087984Y-94382487D01*
X116125500Y-94242477D01*
X116125500Y-94097527D01*
X116087984Y-93957517D01*
X116015509Y-93831987D01*
X115913015Y-93729493D01*
X115913013Y-93729492D01*
X115913011Y-93729490D01*
X115787488Y-93657019D01*
X115787489Y-93657019D01*
X115767198Y-93651582D01*
X115647475Y-93619502D01*
X115502525Y-93619502D01*
X115382802Y-93651582D01*
X115362511Y-93657019D01*
X115236988Y-93729490D01*
X115236982Y-93729495D01*
X115134493Y-93831984D01*
X115134488Y-93831990D01*
X115062017Y-93957513D01*
X115062016Y-93957517D01*
X115024500Y-94097527D01*
X110943688Y-94097527D01*
X110872161Y-93973638D01*
X110872156Y-93973632D01*
X110769667Y-93871143D01*
X110769661Y-93871138D01*
X110644138Y-93798667D01*
X110644139Y-93798667D01*
X110632656Y-93795590D01*
X110504125Y-93761150D01*
X110359175Y-93761150D01*
X110230643Y-93795590D01*
X110219161Y-93798667D01*
X110093638Y-93871138D01*
X110093632Y-93871143D01*
X109991143Y-93973632D01*
X109991138Y-93973638D01*
X109918667Y-94099161D01*
X109918666Y-94099165D01*
X109881150Y-94239175D01*
X97970500Y-94239175D01*
X97970500Y-92807525D01*
X108479500Y-92807525D01*
X108479500Y-92952475D01*
X108517016Y-93092485D01*
X108517017Y-93092488D01*
X108589488Y-93218011D01*
X108589490Y-93218013D01*
X108589491Y-93218015D01*
X108691985Y-93320509D01*
X108691986Y-93320510D01*
X108691988Y-93320511D01*
X108817511Y-93392982D01*
X108817512Y-93392982D01*
X108817515Y-93392984D01*
X108957525Y-93430500D01*
X108957528Y-93430500D01*
X109102472Y-93430500D01*
X109102475Y-93430500D01*
X109242485Y-93392984D01*
X109368015Y-93320509D01*
X109470509Y-93218015D01*
X109542984Y-93092485D01*
X109580500Y-92952475D01*
X109580500Y-92807525D01*
X109577820Y-92797525D01*
X112419500Y-92797525D01*
X112419500Y-92942475D01*
X112457016Y-93082485D01*
X112457017Y-93082488D01*
X112529488Y-93208011D01*
X112529490Y-93208013D01*
X112529491Y-93208015D01*
X112631985Y-93310509D01*
X112631986Y-93310510D01*
X112631988Y-93310511D01*
X112757511Y-93382982D01*
X112757512Y-93382982D01*
X112757515Y-93382984D01*
X112897525Y-93420500D01*
X112897528Y-93420500D01*
X113042472Y-93420500D01*
X113042475Y-93420500D01*
X113182485Y-93382984D01*
X113308015Y-93310509D01*
X113410509Y-93208015D01*
X113482984Y-93082485D01*
X113520500Y-92942475D01*
X113520500Y-92797525D01*
X113482984Y-92657515D01*
X113416284Y-92541988D01*
X113410511Y-92531988D01*
X113410506Y-92531982D01*
X113308017Y-92429493D01*
X113308011Y-92429488D01*
X113182488Y-92357017D01*
X113182489Y-92357017D01*
X113171006Y-92353940D01*
X113042475Y-92319500D01*
X112897525Y-92319500D01*
X112768993Y-92353940D01*
X112757511Y-92357017D01*
X112631988Y-92429488D01*
X112631982Y-92429493D01*
X112529493Y-92531982D01*
X112529488Y-92531988D01*
X112457017Y-92657511D01*
X112457016Y-92657515D01*
X112419500Y-92797525D01*
X109577820Y-92797525D01*
X109542984Y-92667515D01*
X109538705Y-92660104D01*
X109470511Y-92541988D01*
X109470506Y-92541982D01*
X109368017Y-92439493D01*
X109368011Y-92439488D01*
X109242488Y-92367017D01*
X109242489Y-92367017D01*
X109231006Y-92363940D01*
X109102475Y-92329500D01*
X108957525Y-92329500D01*
X108828993Y-92363940D01*
X108817511Y-92367017D01*
X108691988Y-92439488D01*
X108691982Y-92439493D01*
X108589493Y-92541982D01*
X108589488Y-92541988D01*
X108517017Y-92667511D01*
X108517016Y-92667515D01*
X108479500Y-92807525D01*
X97970500Y-92807525D01*
X97970500Y-90713389D01*
X99109500Y-90713389D01*
X99109500Y-90886610D01*
X99136597Y-91057697D01*
X99136597Y-91057699D01*
X99136598Y-91057701D01*
X99190127Y-91222445D01*
X99268768Y-91376788D01*
X99370586Y-91516928D01*
X99493072Y-91639414D01*
X99633212Y-91741232D01*
X99787555Y-91819873D01*
X99952299Y-91873402D01*
X100123389Y-91900500D01*
X100123390Y-91900500D01*
X100296610Y-91900500D01*
X100296611Y-91900500D01*
X100467701Y-91873402D01*
X100632445Y-91819873D01*
X100786788Y-91741232D01*
X100926928Y-91639414D01*
X101049414Y-91516928D01*
X101151232Y-91376788D01*
X101229873Y-91222445D01*
X101236161Y-91203092D01*
X105738641Y-91203092D01*
X105738641Y-91348042D01*
X105776157Y-91488052D01*
X105776158Y-91488055D01*
X105848629Y-91613578D01*
X105848631Y-91613580D01*
X105848632Y-91613582D01*
X105951126Y-91716076D01*
X105951127Y-91716077D01*
X105951129Y-91716078D01*
X106076652Y-91788549D01*
X106076653Y-91788549D01*
X106076656Y-91788551D01*
X106216666Y-91826067D01*
X106216669Y-91826067D01*
X106361613Y-91826067D01*
X106361616Y-91826067D01*
X106501626Y-91788551D01*
X106627156Y-91716076D01*
X106729650Y-91613582D01*
X106733709Y-91606552D01*
X119049990Y-91606552D01*
X119049990Y-91751502D01*
X119087506Y-91891512D01*
X119087507Y-91891515D01*
X119159978Y-92017038D01*
X119159980Y-92017040D01*
X119159981Y-92017042D01*
X119262475Y-92119536D01*
X119262476Y-92119537D01*
X119262478Y-92119538D01*
X119388001Y-92192009D01*
X119388002Y-92192009D01*
X119388005Y-92192011D01*
X119528015Y-92229527D01*
X119528018Y-92229527D01*
X119672962Y-92229527D01*
X119672965Y-92229527D01*
X119812975Y-92192011D01*
X119938505Y-92119536D01*
X120040999Y-92017042D01*
X120113474Y-91891512D01*
X120150990Y-91751502D01*
X120150990Y-91606552D01*
X120113474Y-91466542D01*
X120110759Y-91461839D01*
X120094287Y-91393939D01*
X120117140Y-91327912D01*
X120172062Y-91284722D01*
X120186029Y-91280072D01*
X120212485Y-91272984D01*
X120338015Y-91200509D01*
X120440509Y-91098015D01*
X120512984Y-90972485D01*
X120550500Y-90832475D01*
X120550500Y-90687525D01*
X120512984Y-90547515D01*
X120511179Y-90544389D01*
X120440511Y-90421988D01*
X120440506Y-90421982D01*
X120338017Y-90319493D01*
X120338011Y-90319488D01*
X120212488Y-90247017D01*
X120212489Y-90247017D01*
X120201006Y-90243940D01*
X120072475Y-90209500D01*
X119927525Y-90209500D01*
X119798993Y-90243940D01*
X119787511Y-90247017D01*
X119661988Y-90319488D01*
X119661982Y-90319493D01*
X119559493Y-90421982D01*
X119559488Y-90421988D01*
X119487017Y-90547511D01*
X119487016Y-90547515D01*
X119449500Y-90687525D01*
X119449500Y-90832475D01*
X119483940Y-90961006D01*
X119487017Y-90972489D01*
X119487018Y-90972492D01*
X119489731Y-90977190D01*
X119506201Y-91045090D01*
X119483347Y-91111116D01*
X119428424Y-91154305D01*
X119414437Y-91158960D01*
X119388006Y-91166042D01*
X119388001Y-91166044D01*
X119262478Y-91238515D01*
X119262472Y-91238520D01*
X119159983Y-91341009D01*
X119159978Y-91341015D01*
X119087507Y-91466538D01*
X119087506Y-91466542D01*
X119049990Y-91606552D01*
X106733709Y-91606552D01*
X106802125Y-91488052D01*
X106839641Y-91348042D01*
X106839641Y-91323009D01*
X106859326Y-91255970D01*
X106912130Y-91210215D01*
X106931549Y-91203234D01*
X106932485Y-91202984D01*
X107058015Y-91130509D01*
X107160509Y-91028015D01*
X107232984Y-90902485D01*
X107270500Y-90762475D01*
X107270500Y-90617525D01*
X107232984Y-90477515D01*
X107212420Y-90441898D01*
X107160511Y-90351988D01*
X107160506Y-90351982D01*
X107058017Y-90249493D01*
X107058011Y-90249488D01*
X106932488Y-90177017D01*
X106932489Y-90177017D01*
X106922156Y-90174248D01*
X106792475Y-90139500D01*
X106647525Y-90139500D01*
X106518993Y-90173940D01*
X106507511Y-90177017D01*
X106381988Y-90249488D01*
X106381982Y-90249493D01*
X106279493Y-90351982D01*
X106279488Y-90351988D01*
X106207017Y-90477511D01*
X106207016Y-90477515D01*
X106169500Y-90617525D01*
X106169500Y-90617527D01*
X106169500Y-90642556D01*
X106149815Y-90709595D01*
X106097011Y-90755350D01*
X106077606Y-90762327D01*
X106076664Y-90762579D01*
X106076652Y-90762584D01*
X105951129Y-90835055D01*
X105951123Y-90835060D01*
X105848634Y-90937549D01*
X105848629Y-90937555D01*
X105776158Y-91063078D01*
X105776157Y-91063082D01*
X105738641Y-91203092D01*
X101236161Y-91203092D01*
X101283402Y-91057701D01*
X101310500Y-90886611D01*
X101310500Y-90713389D01*
X101283402Y-90542299D01*
X101229873Y-90377555D01*
X101151232Y-90223212D01*
X101049414Y-90083072D01*
X100997750Y-90031408D01*
X110553383Y-90031408D01*
X110553383Y-90176358D01*
X110572986Y-90249516D01*
X110590900Y-90316371D01*
X110663371Y-90441894D01*
X110663373Y-90441896D01*
X110663374Y-90441898D01*
X110765868Y-90544392D01*
X110765869Y-90544393D01*
X110765871Y-90544394D01*
X110891394Y-90616865D01*
X110891395Y-90616865D01*
X110891398Y-90616867D01*
X111031408Y-90654383D01*
X111031411Y-90654383D01*
X111176355Y-90654383D01*
X111176358Y-90654383D01*
X111316368Y-90616867D01*
X111441898Y-90544392D01*
X111544392Y-90441898D01*
X111616867Y-90316368D01*
X111654383Y-90176358D01*
X111654383Y-90031408D01*
X111616867Y-89891398D01*
X111562837Y-89797816D01*
X111544394Y-89765871D01*
X111544389Y-89765865D01*
X111441900Y-89663376D01*
X111441894Y-89663371D01*
X111316371Y-89590900D01*
X111316372Y-89590900D01*
X111304889Y-89587823D01*
X111176358Y-89553383D01*
X111031408Y-89553383D01*
X110902876Y-89587823D01*
X110891394Y-89590900D01*
X110765871Y-89663371D01*
X110765865Y-89663376D01*
X110663376Y-89765865D01*
X110663371Y-89765871D01*
X110590900Y-89891394D01*
X110590899Y-89891398D01*
X110553383Y-90031408D01*
X100997750Y-90031408D01*
X100926928Y-89960586D01*
X100786788Y-89858768D01*
X100632445Y-89780127D01*
X100467701Y-89726598D01*
X100467699Y-89726597D01*
X100467698Y-89726597D01*
X100336271Y-89705781D01*
X100296611Y-89699500D01*
X100123389Y-89699500D01*
X100083728Y-89705781D01*
X99952302Y-89726597D01*
X99787552Y-89780128D01*
X99633211Y-89858768D01*
X99553256Y-89916859D01*
X99493072Y-89960586D01*
X99493070Y-89960588D01*
X99493069Y-89960588D01*
X99370588Y-90083069D01*
X99370588Y-90083070D01*
X99370586Y-90083072D01*
X99343681Y-90120104D01*
X99268768Y-90223211D01*
X99190128Y-90377552D01*
X99136597Y-90542302D01*
X99109500Y-90713389D01*
X97970500Y-90713389D01*
X97970500Y-88173389D01*
X99109500Y-88173389D01*
X99109500Y-88346610D01*
X99130898Y-88481717D01*
X99136598Y-88517701D01*
X99190127Y-88682445D01*
X99268768Y-88836788D01*
X99370586Y-88976928D01*
X99493072Y-89099414D01*
X99633212Y-89201232D01*
X99787555Y-89279873D01*
X99952299Y-89333402D01*
X100123389Y-89360500D01*
X100123390Y-89360500D01*
X100296610Y-89360500D01*
X100296611Y-89360500D01*
X100467701Y-89333402D01*
X100632445Y-89279873D01*
X100786788Y-89201232D01*
X100926928Y-89099414D01*
X100938817Y-89087525D01*
X104849500Y-89087525D01*
X104849500Y-89232475D01*
X104873615Y-89322472D01*
X104887017Y-89372488D01*
X104959488Y-89498011D01*
X104959490Y-89498013D01*
X104959491Y-89498015D01*
X105061985Y-89600509D01*
X105061986Y-89600510D01*
X105061988Y-89600511D01*
X105187511Y-89672982D01*
X105187512Y-89672982D01*
X105187515Y-89672984D01*
X105327525Y-89710500D01*
X105327528Y-89710500D01*
X105472472Y-89710500D01*
X105472475Y-89710500D01*
X105612485Y-89672984D01*
X105738015Y-89600509D01*
X105840509Y-89498015D01*
X105912984Y-89372485D01*
X105950500Y-89232475D01*
X105950500Y-89177525D01*
X108509500Y-89177525D01*
X108509500Y-89322475D01*
X108531945Y-89406239D01*
X108547017Y-89462488D01*
X108619488Y-89588011D01*
X108619490Y-89588013D01*
X108619491Y-89588015D01*
X108721985Y-89690509D01*
X108721986Y-89690510D01*
X108721988Y-89690511D01*
X108847511Y-89762982D01*
X108847512Y-89762982D01*
X108847515Y-89762984D01*
X108987525Y-89800500D01*
X108987528Y-89800500D01*
X109132472Y-89800500D01*
X109132475Y-89800500D01*
X109272485Y-89762984D01*
X109398015Y-89690509D01*
X109500509Y-89588015D01*
X109572984Y-89462485D01*
X109610500Y-89322475D01*
X109610500Y-89177525D01*
X109572984Y-89037515D01*
X109546542Y-88991717D01*
X109500511Y-88911988D01*
X109500506Y-88911982D01*
X109398017Y-88809493D01*
X109398011Y-88809488D01*
X109272488Y-88737017D01*
X109272489Y-88737017D01*
X109261006Y-88733940D01*
X109132475Y-88699500D01*
X108987525Y-88699500D01*
X108858993Y-88733940D01*
X108847511Y-88737017D01*
X108721988Y-88809488D01*
X108721982Y-88809493D01*
X108619493Y-88911982D01*
X108619488Y-88911988D01*
X108547017Y-89037511D01*
X108547016Y-89037515D01*
X108509500Y-89177525D01*
X105950500Y-89177525D01*
X105950500Y-89087525D01*
X105912984Y-88947515D01*
X105908008Y-88938897D01*
X105840511Y-88821988D01*
X105840506Y-88821982D01*
X105738017Y-88719493D01*
X105738011Y-88719488D01*
X105612488Y-88647017D01*
X105612489Y-88647017D01*
X105601006Y-88643940D01*
X105472475Y-88609500D01*
X105327525Y-88609500D01*
X105198993Y-88643940D01*
X105187511Y-88647017D01*
X105061988Y-88719488D01*
X105061982Y-88719493D01*
X104959493Y-88821982D01*
X104959488Y-88821988D01*
X104887017Y-88947511D01*
X104887016Y-88947515D01*
X104849500Y-89087525D01*
X100938817Y-89087525D01*
X101049414Y-88976928D01*
X101151232Y-88836788D01*
X101229873Y-88682445D01*
X101283402Y-88517701D01*
X101310500Y-88346611D01*
X101310500Y-88173389D01*
X101286633Y-88022698D01*
X109227173Y-88022698D01*
X109227173Y-88167648D01*
X109244524Y-88232401D01*
X109264690Y-88307661D01*
X109337161Y-88433184D01*
X109337163Y-88433186D01*
X109337164Y-88433188D01*
X109439658Y-88535682D01*
X109439659Y-88535683D01*
X109439661Y-88535684D01*
X109565184Y-88608155D01*
X109565185Y-88608155D01*
X109565188Y-88608157D01*
X109705198Y-88645673D01*
X109705201Y-88645673D01*
X109850145Y-88645673D01*
X109850148Y-88645673D01*
X109990158Y-88608157D01*
X110043214Y-88577525D01*
X116419500Y-88577525D01*
X116419500Y-88722475D01*
X116457016Y-88862485D01*
X116457017Y-88862488D01*
X116529488Y-88988011D01*
X116529490Y-88988013D01*
X116529491Y-88988015D01*
X116631985Y-89090509D01*
X116631986Y-89090510D01*
X116631988Y-89090511D01*
X116757511Y-89162982D01*
X116757512Y-89162982D01*
X116757515Y-89162984D01*
X116897525Y-89200500D01*
X116897528Y-89200500D01*
X117042472Y-89200500D01*
X117042475Y-89200500D01*
X117182485Y-89162984D01*
X117308015Y-89090509D01*
X117410509Y-88988015D01*
X117482984Y-88862485D01*
X117520500Y-88722475D01*
X117520500Y-88577525D01*
X117482984Y-88437515D01*
X117480483Y-88433184D01*
X117410511Y-88311988D01*
X117410506Y-88311982D01*
X117308017Y-88209493D01*
X117308011Y-88209488D01*
X117182488Y-88137017D01*
X117182489Y-88137017D01*
X117171006Y-88133940D01*
X117042475Y-88099500D01*
X116897525Y-88099500D01*
X116768993Y-88133940D01*
X116757511Y-88137017D01*
X116631988Y-88209488D01*
X116631982Y-88209493D01*
X116529493Y-88311982D01*
X116529488Y-88311988D01*
X116457017Y-88437511D01*
X116457016Y-88437515D01*
X116419500Y-88577525D01*
X110043214Y-88577525D01*
X110115688Y-88535682D01*
X110218182Y-88433188D01*
X110290657Y-88307658D01*
X110328173Y-88167648D01*
X110328173Y-88022698D01*
X110290657Y-87882688D01*
X110290555Y-87882512D01*
X110218184Y-87757161D01*
X110218179Y-87757155D01*
X110115690Y-87654666D01*
X110115684Y-87654661D01*
X109990161Y-87582190D01*
X109990162Y-87582190D01*
X109978679Y-87579113D01*
X109850148Y-87544673D01*
X109705198Y-87544673D01*
X109576666Y-87579113D01*
X109565184Y-87582190D01*
X109439661Y-87654661D01*
X109439655Y-87654666D01*
X109337166Y-87757155D01*
X109337161Y-87757161D01*
X109264690Y-87882684D01*
X109264689Y-87882688D01*
X109227173Y-88022698D01*
X101286633Y-88022698D01*
X101283402Y-88002299D01*
X101229873Y-87837555D01*
X101151232Y-87683212D01*
X101049414Y-87543072D01*
X100926928Y-87420586D01*
X100786788Y-87318768D01*
X100632445Y-87240127D01*
X100467701Y-87186598D01*
X100467699Y-87186597D01*
X100467698Y-87186597D01*
X100336271Y-87165781D01*
X100296611Y-87159500D01*
X100123389Y-87159500D01*
X100083728Y-87165781D01*
X99952302Y-87186597D01*
X99952299Y-87186598D01*
X99828513Y-87226819D01*
X99787552Y-87240128D01*
X99633211Y-87318768D01*
X99553256Y-87376859D01*
X99493072Y-87420586D01*
X99493070Y-87420588D01*
X99493069Y-87420588D01*
X99370588Y-87543069D01*
X99370588Y-87543070D01*
X99370586Y-87543072D01*
X99369423Y-87544673D01*
X99268768Y-87683211D01*
X99190128Y-87837552D01*
X99136597Y-88002302D01*
X99109500Y-88173389D01*
X97970500Y-88173389D01*
X97970500Y-85633389D01*
X99109500Y-85633389D01*
X99109500Y-85806611D01*
X99136598Y-85977701D01*
X99188688Y-86138017D01*
X99190128Y-86142447D01*
X99233218Y-86227016D01*
X99268768Y-86296788D01*
X99370586Y-86436928D01*
X99493072Y-86559414D01*
X99633212Y-86661232D01*
X99787555Y-86739873D01*
X99952299Y-86793402D01*
X100123389Y-86820500D01*
X100123390Y-86820500D01*
X100296610Y-86820500D01*
X100296611Y-86820500D01*
X100467701Y-86793402D01*
X100632445Y-86739873D01*
X100786788Y-86661232D01*
X100926928Y-86559414D01*
X101049414Y-86436928D01*
X101151232Y-86296788D01*
X101229873Y-86142445D01*
X101283402Y-85977701D01*
X101310500Y-85806611D01*
X101310500Y-85727525D01*
X109129500Y-85727525D01*
X109129500Y-85872475D01*
X109157696Y-85977701D01*
X109167017Y-86012488D01*
X109239488Y-86138011D01*
X109239490Y-86138013D01*
X109239491Y-86138015D01*
X109341985Y-86240509D01*
X109341986Y-86240510D01*
X109341988Y-86240511D01*
X109467511Y-86312982D01*
X109467512Y-86312982D01*
X109467515Y-86312984D01*
X109607525Y-86350500D01*
X109607528Y-86350500D01*
X109752472Y-86350500D01*
X109752475Y-86350500D01*
X109892485Y-86312984D01*
X110018015Y-86240509D01*
X110120509Y-86138015D01*
X110192984Y-86012485D01*
X110230500Y-85872475D01*
X110230500Y-85727525D01*
X110192984Y-85587515D01*
X110178884Y-85563094D01*
X110120511Y-85461988D01*
X110120506Y-85461982D01*
X110018017Y-85359493D01*
X110018011Y-85359488D01*
X109892488Y-85287017D01*
X109892489Y-85287017D01*
X109881006Y-85283940D01*
X109752475Y-85249500D01*
X109607525Y-85249500D01*
X109478993Y-85283940D01*
X109467511Y-85287017D01*
X109341988Y-85359488D01*
X109341982Y-85359493D01*
X109239493Y-85461982D01*
X109239488Y-85461988D01*
X109167017Y-85587511D01*
X109166214Y-85590508D01*
X109129500Y-85727525D01*
X101310500Y-85727525D01*
X101310500Y-85633389D01*
X101283402Y-85462299D01*
X101229873Y-85297555D01*
X101151232Y-85143212D01*
X101049414Y-85003072D01*
X100926928Y-84880586D01*
X100786788Y-84778768D01*
X100632445Y-84700127D01*
X100467701Y-84646598D01*
X100467699Y-84646597D01*
X100467698Y-84646597D01*
X100336271Y-84625781D01*
X100296611Y-84619500D01*
X100123389Y-84619500D01*
X100083728Y-84625781D01*
X99952302Y-84646597D01*
X99787552Y-84700128D01*
X99633211Y-84778768D01*
X99553256Y-84836859D01*
X99493072Y-84880586D01*
X99493070Y-84880588D01*
X99493069Y-84880588D01*
X99370588Y-85003069D01*
X99370588Y-85003070D01*
X99370586Y-85003072D01*
X99363668Y-85012594D01*
X99268768Y-85143211D01*
X99190128Y-85297552D01*
X99136597Y-85462302D01*
X99116291Y-85590511D01*
X99109500Y-85633389D01*
X97970500Y-85633389D01*
X97970500Y-83093389D01*
X99109500Y-83093389D01*
X99109500Y-83266611D01*
X99136598Y-83437701D01*
X99190127Y-83602445D01*
X99268768Y-83756788D01*
X99370586Y-83896928D01*
X99493072Y-84019414D01*
X99633212Y-84121232D01*
X99787555Y-84199873D01*
X99952299Y-84253402D01*
X100123389Y-84280500D01*
X100123390Y-84280500D01*
X100296610Y-84280500D01*
X100296611Y-84280500D01*
X100467701Y-84253402D01*
X100632445Y-84199873D01*
X100786788Y-84121232D01*
X100926928Y-84019414D01*
X101049414Y-83896928D01*
X101151232Y-83756788D01*
X101229873Y-83602445D01*
X101283402Y-83437701D01*
X101310500Y-83266611D01*
X101310500Y-83093389D01*
X101283402Y-82922299D01*
X101229873Y-82757555D01*
X101151232Y-82603212D01*
X101049414Y-82463072D01*
X100926928Y-82340586D01*
X100786788Y-82238768D01*
X100632445Y-82160127D01*
X100467701Y-82106598D01*
X100467699Y-82106597D01*
X100467698Y-82106597D01*
X100324663Y-82083943D01*
X100296611Y-82079500D01*
X100123389Y-82079500D01*
X100095337Y-82083943D01*
X99952302Y-82106597D01*
X99787552Y-82160128D01*
X99633211Y-82238768D01*
X99575773Y-82280500D01*
X99493072Y-82340586D01*
X99493070Y-82340588D01*
X99493069Y-82340588D01*
X99370588Y-82463069D01*
X99370588Y-82463070D01*
X99370586Y-82463072D01*
X99353721Y-82486285D01*
X99268768Y-82603211D01*
X99190128Y-82757552D01*
X99136597Y-82922302D01*
X99121469Y-83017819D01*
X99109500Y-83093389D01*
X97970500Y-83093389D01*
X97970500Y-79765321D01*
X99109500Y-79765321D01*
X99109500Y-81514678D01*
X99124032Y-81587735D01*
X99124033Y-81587739D01*
X99124034Y-81587740D01*
X99179399Y-81670601D01*
X99262260Y-81725966D01*
X99262264Y-81725967D01*
X99335321Y-81740499D01*
X99335324Y-81740500D01*
X99335326Y-81740500D01*
X101084676Y-81740500D01*
X101084677Y-81740499D01*
X101157740Y-81725966D01*
X101240601Y-81670601D01*
X101295966Y-81587740D01*
X101310500Y-81514674D01*
X101310500Y-79765326D01*
X101310500Y-79765323D01*
X101310499Y-79765321D01*
X101295967Y-79692264D01*
X101295966Y-79692260D01*
X101281434Y-79670511D01*
X101240601Y-79609399D01*
X101185235Y-79572405D01*
X101157739Y-79554033D01*
X101157735Y-79554032D01*
X101084677Y-79539500D01*
X101084674Y-79539500D01*
X99335326Y-79539500D01*
X99335323Y-79539500D01*
X99262264Y-79554032D01*
X99262260Y-79554033D01*
X99179399Y-79609399D01*
X99124033Y-79692260D01*
X99124032Y-79692264D01*
X99109500Y-79765321D01*
X97970500Y-79765321D01*
X97970500Y-69297525D01*
X98309500Y-69297525D01*
X98309500Y-69442475D01*
X98347016Y-69582485D01*
X98347017Y-69582488D01*
X98419488Y-69708011D01*
X98419493Y-69708017D01*
X98473181Y-69761705D01*
X98506666Y-69823028D01*
X98509500Y-69849386D01*
X98509500Y-76176146D01*
X98515209Y-76197450D01*
X98515209Y-76197452D01*
X98515210Y-76197452D01*
X98515210Y-76197453D01*
X98533386Y-76265288D01*
X98533387Y-76265289D01*
X98533387Y-76265290D01*
X98579527Y-76345208D01*
X98579531Y-76345213D01*
X107293181Y-85058862D01*
X107326666Y-85120185D01*
X107329500Y-85146543D01*
X107329500Y-85222475D01*
X107366213Y-85359488D01*
X107367017Y-85362488D01*
X107439488Y-85488011D01*
X107439490Y-85488013D01*
X107439491Y-85488015D01*
X107541985Y-85590509D01*
X107541986Y-85590510D01*
X107541988Y-85590511D01*
X107667511Y-85662982D01*
X107667512Y-85662982D01*
X107667515Y-85662984D01*
X107807525Y-85700500D01*
X107807528Y-85700500D01*
X107952472Y-85700500D01*
X107952475Y-85700500D01*
X108092485Y-85662984D01*
X108218015Y-85590509D01*
X108320509Y-85488015D01*
X108392984Y-85362485D01*
X108430500Y-85222475D01*
X108430500Y-85077525D01*
X108392984Y-84937515D01*
X108363858Y-84887068D01*
X108320511Y-84811988D01*
X108320506Y-84811982D01*
X108218017Y-84709493D01*
X108218011Y-84709488D01*
X108092488Y-84637017D01*
X108092489Y-84637017D01*
X108081006Y-84633940D01*
X107952475Y-84599500D01*
X107952472Y-84599500D01*
X107876543Y-84599500D01*
X107847102Y-84590855D01*
X107817116Y-84584332D01*
X107812100Y-84580577D01*
X107809504Y-84579815D01*
X107788862Y-84563181D01*
X107772760Y-84547079D01*
X107693206Y-84467525D01*
X114219500Y-84467525D01*
X114219500Y-84612475D01*
X114246195Y-84712100D01*
X114257017Y-84752488D01*
X114329488Y-84878011D01*
X114329490Y-84878013D01*
X114329491Y-84878015D01*
X114431985Y-84980509D01*
X114431986Y-84980510D01*
X114431988Y-84980511D01*
X114557511Y-85052982D01*
X114557512Y-85052982D01*
X114557515Y-85052984D01*
X114697525Y-85090500D01*
X114697528Y-85090500D01*
X114842472Y-85090500D01*
X114842475Y-85090500D01*
X114982485Y-85052984D01*
X115108015Y-84980509D01*
X115210509Y-84878015D01*
X115282984Y-84752485D01*
X115320500Y-84612475D01*
X115320500Y-84594954D01*
X116418155Y-84594954D01*
X116418155Y-84739904D01*
X116455161Y-84878011D01*
X116455672Y-84879917D01*
X116528143Y-85005440D01*
X116528145Y-85005442D01*
X116528146Y-85005444D01*
X116630640Y-85107938D01*
X116630641Y-85107939D01*
X116630643Y-85107940D01*
X116756166Y-85180411D01*
X116756167Y-85180411D01*
X116756170Y-85180413D01*
X116793262Y-85190351D01*
X116852921Y-85226716D01*
X116883450Y-85289563D01*
X116884105Y-85293931D01*
X116884581Y-85297551D01*
X116922100Y-85437571D01*
X116994571Y-85563094D01*
X116994573Y-85563096D01*
X116994574Y-85563098D01*
X117097068Y-85665592D01*
X117097069Y-85665593D01*
X117097071Y-85665594D01*
X117222594Y-85738065D01*
X117222595Y-85738065D01*
X117222598Y-85738067D01*
X117362608Y-85775583D01*
X117362611Y-85775583D01*
X117507555Y-85775583D01*
X117507558Y-85775583D01*
X117647568Y-85738067D01*
X117773098Y-85665592D01*
X117875592Y-85563098D01*
X117948067Y-85437568D01*
X117985583Y-85297558D01*
X117985583Y-85152608D01*
X117948067Y-85012598D01*
X117943934Y-85005440D01*
X117875594Y-84887071D01*
X117875589Y-84887065D01*
X117773100Y-84784576D01*
X117773094Y-84784571D01*
X117647571Y-84712100D01*
X117647564Y-84712097D01*
X117610475Y-84702159D01*
X117550815Y-84665794D01*
X117520287Y-84602947D01*
X117519631Y-84598571D01*
X117519155Y-84594957D01*
X117519155Y-84594956D01*
X117519155Y-84594954D01*
X117481639Y-84454944D01*
X117409164Y-84329414D01*
X117306670Y-84226920D01*
X117306668Y-84226919D01*
X117306666Y-84226917D01*
X117181143Y-84154446D01*
X117181144Y-84154446D01*
X117169661Y-84151369D01*
X117041130Y-84116929D01*
X116896180Y-84116929D01*
X116767648Y-84151369D01*
X116756166Y-84154446D01*
X116630643Y-84226917D01*
X116630637Y-84226922D01*
X116528148Y-84329411D01*
X116528143Y-84329417D01*
X116455672Y-84454940D01*
X116455671Y-84454944D01*
X116418155Y-84594954D01*
X115320500Y-84594954D01*
X115320500Y-84467525D01*
X115282984Y-84327515D01*
X115224906Y-84226922D01*
X115210511Y-84201988D01*
X115210506Y-84201982D01*
X115108017Y-84099493D01*
X115108011Y-84099488D01*
X114982488Y-84027017D01*
X114982489Y-84027017D01*
X114954103Y-84019411D01*
X114842475Y-83989500D01*
X114697525Y-83989500D01*
X114585897Y-84019411D01*
X114557511Y-84027017D01*
X114431988Y-84099488D01*
X114431982Y-84099493D01*
X114329493Y-84201982D01*
X114329488Y-84201988D01*
X114257017Y-84327511D01*
X114257016Y-84327515D01*
X114219500Y-84467525D01*
X107693206Y-84467525D01*
X99246819Y-76021137D01*
X99213334Y-75959814D01*
X99210500Y-75933456D01*
X99210500Y-71387525D01*
X104293097Y-71387525D01*
X104293097Y-71532475D01*
X104330613Y-71672485D01*
X104330614Y-71672488D01*
X104403085Y-71798011D01*
X104403090Y-71798017D01*
X104456778Y-71851705D01*
X104490263Y-71913028D01*
X104493097Y-71939386D01*
X104493097Y-76289741D01*
X104511383Y-76357985D01*
X104511383Y-76357986D01*
X104516982Y-76378883D01*
X104563124Y-76458805D01*
X104563128Y-76458810D01*
X106963589Y-78859271D01*
X106997074Y-78920594D01*
X106992090Y-78990286D01*
X106950218Y-79046219D01*
X106937910Y-79054338D01*
X106928988Y-79059489D01*
X106928982Y-79059493D01*
X106826493Y-79161982D01*
X106826488Y-79161988D01*
X106754017Y-79287511D01*
X106750008Y-79302472D01*
X106716500Y-79427525D01*
X106716500Y-79572475D01*
X106742769Y-79670511D01*
X106754017Y-79712488D01*
X106826488Y-79838011D01*
X106826490Y-79838013D01*
X106826491Y-79838015D01*
X106928985Y-79940509D01*
X106928986Y-79940510D01*
X106928988Y-79940511D01*
X107054511Y-80012982D01*
X107054512Y-80012982D01*
X107054515Y-80012984D01*
X107194525Y-80050500D01*
X107194528Y-80050500D01*
X107339472Y-80050500D01*
X107339475Y-80050500D01*
X107479485Y-80012984D01*
X107605015Y-79940509D01*
X107707509Y-79838015D01*
X107712660Y-79829093D01*
X107763220Y-79780879D01*
X107831827Y-79767652D01*
X107896693Y-79793616D01*
X107907728Y-79803410D01*
X111166338Y-83062020D01*
X111199823Y-83123343D01*
X111194839Y-83193035D01*
X111182912Y-83214575D01*
X111183555Y-83214946D01*
X111107017Y-83347511D01*
X111107016Y-83347515D01*
X111069500Y-83487525D01*
X111069500Y-83632475D01*
X111080953Y-83675216D01*
X111107017Y-83772488D01*
X111179488Y-83898011D01*
X111179490Y-83898013D01*
X111179491Y-83898015D01*
X111281985Y-84000509D01*
X111281986Y-84000510D01*
X111281988Y-84000511D01*
X111407511Y-84072982D01*
X111407512Y-84072982D01*
X111407515Y-84072984D01*
X111547525Y-84110500D01*
X111547528Y-84110500D01*
X111692472Y-84110500D01*
X111692475Y-84110500D01*
X111832485Y-84072984D01*
X111958015Y-84000509D01*
X112060509Y-83898015D01*
X112132984Y-83772485D01*
X112134880Y-83765405D01*
X112171242Y-83705748D01*
X112234088Y-83675216D01*
X112286744Y-83677723D01*
X112395791Y-83706943D01*
X112395794Y-83706943D01*
X112540738Y-83706943D01*
X112540741Y-83706943D01*
X112680751Y-83669427D01*
X112806281Y-83596952D01*
X112908775Y-83494458D01*
X112981250Y-83368928D01*
X113018766Y-83228918D01*
X113018766Y-83105500D01*
X113038451Y-83038461D01*
X113091255Y-82992706D01*
X113142766Y-82981500D01*
X113846321Y-82981500D01*
X113913360Y-83001185D01*
X113934002Y-83017819D01*
X113987692Y-83071509D01*
X113987693Y-83071510D01*
X113987695Y-83071511D01*
X114113218Y-83143982D01*
X114113219Y-83143982D01*
X114113222Y-83143984D01*
X114253232Y-83181500D01*
X114253235Y-83181500D01*
X114398179Y-83181500D01*
X114398182Y-83181500D01*
X114538192Y-83143984D01*
X114663722Y-83071509D01*
X114717412Y-83017819D01*
X114778735Y-82984334D01*
X114805093Y-82981500D01*
X115112724Y-82981500D01*
X115179763Y-83001185D01*
X115225518Y-83053989D01*
X115235462Y-83123147D01*
X115220111Y-83167500D01*
X115204333Y-83194827D01*
X115204332Y-83194831D01*
X115166816Y-83334841D01*
X115166816Y-83479791D01*
X115199682Y-83602447D01*
X115204333Y-83619804D01*
X115276804Y-83745327D01*
X115276806Y-83745329D01*
X115276807Y-83745331D01*
X115379301Y-83847825D01*
X115379302Y-83847826D01*
X115379304Y-83847827D01*
X115504827Y-83920298D01*
X115504828Y-83920298D01*
X115504831Y-83920300D01*
X115644841Y-83957816D01*
X115644844Y-83957816D01*
X115789788Y-83957816D01*
X115789791Y-83957816D01*
X115929801Y-83920300D01*
X116055331Y-83847825D01*
X116157825Y-83745331D01*
X116230300Y-83619801D01*
X116267816Y-83479791D01*
X116267816Y-83334841D01*
X116230300Y-83194831D01*
X116229263Y-83193035D01*
X116214521Y-83167500D01*
X116198048Y-83099600D01*
X116220901Y-83033573D01*
X116275822Y-82990382D01*
X116321908Y-82981500D01*
X120945142Y-82981500D01*
X120945144Y-82981500D01*
X121034288Y-82957614D01*
X121044912Y-82951480D01*
X121114212Y-82911470D01*
X123264914Y-80760768D01*
X123326237Y-80727283D01*
X123352595Y-80724449D01*
X123428523Y-80724449D01*
X123428526Y-80724449D01*
X123568536Y-80686933D01*
X123694066Y-80614458D01*
X123796560Y-80511964D01*
X123869035Y-80386434D01*
X123906551Y-80246424D01*
X123906551Y-80101474D01*
X123869035Y-79961464D01*
X123869033Y-79961461D01*
X123869033Y-79961459D01*
X123869032Y-79961458D01*
X123851469Y-79931038D01*
X123834995Y-79863138D01*
X123857847Y-79797111D01*
X123912768Y-79753920D01*
X123982321Y-79747278D01*
X123990917Y-79749254D01*
X124107525Y-79780500D01*
X124107528Y-79780500D01*
X124252472Y-79780500D01*
X124252475Y-79780500D01*
X124392485Y-79742984D01*
X124518015Y-79670509D01*
X124620509Y-79568015D01*
X124692984Y-79442485D01*
X124730500Y-79302475D01*
X124730500Y-79157525D01*
X124692984Y-79017515D01*
X124677263Y-78990286D01*
X124620511Y-78891988D01*
X124620506Y-78891982D01*
X124566819Y-78838295D01*
X124533334Y-78776972D01*
X124530500Y-78750614D01*
X124530500Y-59383858D01*
X124530500Y-59383856D01*
X124506614Y-59294712D01*
X124460470Y-59214788D01*
X121316819Y-56071137D01*
X121283334Y-56009814D01*
X121280500Y-55983456D01*
X121280500Y-55381995D01*
X122899500Y-55381995D01*
X122899500Y-55618004D01*
X122899501Y-55618020D01*
X122930306Y-55852010D01*
X122991394Y-56079993D01*
X123081714Y-56298045D01*
X123081716Y-56298050D01*
X123135452Y-56391123D01*
X123199727Y-56502450D01*
X123199729Y-56502453D01*
X123199730Y-56502454D01*
X123343406Y-56689697D01*
X123343412Y-56689704D01*
X123510295Y-56856587D01*
X123510301Y-56856592D01*
X123697550Y-57000273D01*
X123828918Y-57076118D01*
X123901943Y-57118280D01*
X123901948Y-57118282D01*
X123901951Y-57118284D01*
X124120007Y-57208606D01*
X124347986Y-57269693D01*
X124581989Y-57300500D01*
X124581996Y-57300500D01*
X124818004Y-57300500D01*
X124818011Y-57300500D01*
X125052014Y-57269693D01*
X125279993Y-57208606D01*
X125498049Y-57118284D01*
X125702450Y-57000273D01*
X125889699Y-56856592D01*
X126056592Y-56689699D01*
X126200273Y-56502450D01*
X126308331Y-56315288D01*
X126318284Y-56298050D01*
X126318284Y-56298048D01*
X126408606Y-56079993D01*
X126469693Y-55852014D01*
X126500500Y-55618011D01*
X126500500Y-55381989D01*
X126469693Y-55147986D01*
X126408606Y-54920007D01*
X126318284Y-54701951D01*
X126318282Y-54701948D01*
X126318280Y-54701943D01*
X126274296Y-54625762D01*
X126200273Y-54497550D01*
X126094337Y-54359491D01*
X126056593Y-54310302D01*
X126056587Y-54310295D01*
X125889704Y-54143412D01*
X125889697Y-54143406D01*
X125702454Y-53999730D01*
X125702453Y-53999729D01*
X125702450Y-53999727D01*
X125620957Y-53952677D01*
X125498056Y-53881719D01*
X125498045Y-53881714D01*
X125279993Y-53791394D01*
X125052010Y-53730306D01*
X124818020Y-53699501D01*
X124818017Y-53699500D01*
X124818011Y-53699500D01*
X124581989Y-53699500D01*
X124581983Y-53699500D01*
X124581979Y-53699501D01*
X124347989Y-53730306D01*
X124120006Y-53791394D01*
X123901954Y-53881714D01*
X123901943Y-53881719D01*
X123697545Y-53999730D01*
X123510302Y-54143406D01*
X123510295Y-54143412D01*
X123343412Y-54310295D01*
X123343406Y-54310302D01*
X123199730Y-54497545D01*
X123081719Y-54701943D01*
X123081714Y-54701954D01*
X122991394Y-54920006D01*
X122930306Y-55147989D01*
X122899501Y-55381979D01*
X122899500Y-55381995D01*
X121280500Y-55381995D01*
X121280500Y-55279386D01*
X121300185Y-55212347D01*
X121316819Y-55191705D01*
X121370509Y-55138015D01*
X121442984Y-55012485D01*
X121480500Y-54872475D01*
X121480500Y-54727525D01*
X121442984Y-54587515D01*
X121370509Y-54461985D01*
X121268015Y-54359491D01*
X121268013Y-54359490D01*
X121268011Y-54359488D01*
X121142488Y-54287017D01*
X121142489Y-54287017D01*
X121131006Y-54283940D01*
X121002475Y-54249500D01*
X120857525Y-54249500D01*
X120728993Y-54283940D01*
X120717511Y-54287017D01*
X120591988Y-54359488D01*
X120591982Y-54359493D01*
X120489493Y-54461982D01*
X120489488Y-54461988D01*
X120417017Y-54587511D01*
X120417016Y-54587515D01*
X120379500Y-54727525D01*
X120379500Y-54872475D01*
X120417016Y-55012485D01*
X120417017Y-55012488D01*
X120489488Y-55138011D01*
X120489493Y-55138017D01*
X120543181Y-55191705D01*
X120576666Y-55253028D01*
X120579500Y-55279386D01*
X120579500Y-56226143D01*
X120598767Y-56298050D01*
X120598767Y-56298051D01*
X120603384Y-56315284D01*
X120603385Y-56315286D01*
X120649527Y-56395208D01*
X120649531Y-56395213D01*
X123793181Y-59538863D01*
X123826666Y-59600186D01*
X123829500Y-59626544D01*
X123829500Y-78750614D01*
X123820855Y-78780054D01*
X123814332Y-78810041D01*
X123810577Y-78815056D01*
X123809815Y-78817653D01*
X123793181Y-78838295D01*
X123788295Y-78843181D01*
X123726972Y-78876666D01*
X123700614Y-78879500D01*
X122663856Y-78879500D01*
X122574712Y-78903386D01*
X122574709Y-78903387D01*
X122494791Y-78949527D01*
X122494786Y-78949531D01*
X120814113Y-80630205D01*
X120787185Y-80644908D01*
X120761367Y-80661501D01*
X120755166Y-80662392D01*
X120752790Y-80663690D01*
X120726432Y-80666524D01*
X120539957Y-80666524D01*
X120472918Y-80646839D01*
X120427163Y-80594035D01*
X120417219Y-80524877D01*
X120432569Y-80480525D01*
X120440652Y-80466524D01*
X120442984Y-80462485D01*
X120480500Y-80322475D01*
X120480500Y-80177525D01*
X120442984Y-80037515D01*
X120399072Y-79961458D01*
X120370511Y-79911988D01*
X120370506Y-79911982D01*
X120268017Y-79809493D01*
X120268011Y-79809488D01*
X120142488Y-79737017D01*
X120142489Y-79737017D01*
X120102347Y-79726261D01*
X120002475Y-79699500D01*
X119857525Y-79699500D01*
X119757653Y-79726261D01*
X119717511Y-79737017D01*
X119591988Y-79809488D01*
X119591982Y-79809493D01*
X119489493Y-79911982D01*
X119489488Y-79911988D01*
X119417017Y-80037511D01*
X119417016Y-80037515D01*
X119379500Y-80177525D01*
X119379500Y-80322475D01*
X119396639Y-80386437D01*
X119417017Y-80462487D01*
X119427431Y-80480525D01*
X119443903Y-80548425D01*
X119421050Y-80614452D01*
X119366128Y-80657642D01*
X119320043Y-80666524D01*
X117096410Y-80666524D01*
X117029371Y-80646839D01*
X117008729Y-80630205D01*
X116955041Y-80576517D01*
X116955035Y-80576512D01*
X116829512Y-80504041D01*
X116829513Y-80504041D01*
X116818030Y-80500964D01*
X116689499Y-80466524D01*
X116544549Y-80466524D01*
X116416017Y-80500964D01*
X116404535Y-80504041D01*
X116279012Y-80576512D01*
X116279006Y-80576517D01*
X116225319Y-80630205D01*
X116163996Y-80663690D01*
X116137638Y-80666524D01*
X114643567Y-80666524D01*
X114576528Y-80646839D01*
X114555886Y-80630205D01*
X112563206Y-78637525D01*
X120079500Y-78637525D01*
X120079500Y-78782475D01*
X120117016Y-78922485D01*
X120117017Y-78922488D01*
X120189488Y-79048011D01*
X120189490Y-79048013D01*
X120189491Y-79048015D01*
X120291985Y-79150509D01*
X120291986Y-79150510D01*
X120291988Y-79150511D01*
X120417511Y-79222982D01*
X120417512Y-79222982D01*
X120417515Y-79222984D01*
X120557525Y-79260500D01*
X120557528Y-79260500D01*
X120702472Y-79260500D01*
X120702475Y-79260500D01*
X120842485Y-79222984D01*
X120968015Y-79150509D01*
X121070509Y-79048015D01*
X121142984Y-78922485D01*
X121180500Y-78782475D01*
X121180500Y-78637525D01*
X121142984Y-78497515D01*
X121137578Y-78488152D01*
X121070511Y-78371988D01*
X121070506Y-78371982D01*
X120968017Y-78269493D01*
X120968011Y-78269488D01*
X120842488Y-78197017D01*
X120842489Y-78197017D01*
X120831006Y-78193940D01*
X120702475Y-78159500D01*
X120557525Y-78159500D01*
X120428993Y-78193940D01*
X120417511Y-78197017D01*
X120291988Y-78269488D01*
X120291982Y-78269493D01*
X120189493Y-78371982D01*
X120189488Y-78371988D01*
X120117017Y-78497511D01*
X120117016Y-78497515D01*
X120079500Y-78637525D01*
X112563206Y-78637525D01*
X106892761Y-72967079D01*
X106813207Y-72887525D01*
X113359500Y-72887525D01*
X113359500Y-73032475D01*
X113373880Y-73086140D01*
X113397017Y-73172488D01*
X113469488Y-73298011D01*
X113469490Y-73298013D01*
X113469491Y-73298015D01*
X113571985Y-73400509D01*
X113571986Y-73400510D01*
X113571988Y-73400511D01*
X113697511Y-73472982D01*
X113697512Y-73472982D01*
X113697515Y-73472984D01*
X113837525Y-73510500D01*
X113837528Y-73510500D01*
X113982472Y-73510500D01*
X113982475Y-73510500D01*
X114122485Y-73472984D01*
X114248015Y-73400509D01*
X114350509Y-73298015D01*
X114422984Y-73172485D01*
X114460500Y-73032475D01*
X114460500Y-72887525D01*
X114422984Y-72747515D01*
X114350509Y-72621985D01*
X114248015Y-72519491D01*
X114248013Y-72519490D01*
X114248011Y-72519488D01*
X114122488Y-72447017D01*
X114122489Y-72447017D01*
X114111006Y-72443940D01*
X113982475Y-72409500D01*
X113837525Y-72409500D01*
X113708993Y-72443940D01*
X113697511Y-72447017D01*
X113571988Y-72519488D01*
X113571982Y-72519493D01*
X113469493Y-72621982D01*
X113469488Y-72621988D01*
X113397017Y-72747511D01*
X113397016Y-72747515D01*
X113359500Y-72887525D01*
X106813207Y-72887525D01*
X106286819Y-72361137D01*
X106253334Y-72299814D01*
X106250500Y-72273456D01*
X106250500Y-71029386D01*
X106270185Y-70962347D01*
X106286819Y-70941705D01*
X106295542Y-70932982D01*
X106340509Y-70888015D01*
X106412984Y-70762485D01*
X106450500Y-70622475D01*
X106450500Y-70477525D01*
X106422088Y-70371491D01*
X106422088Y-70371489D01*
X106415666Y-70347525D01*
X111279500Y-70347525D01*
X111279500Y-70492475D01*
X111311657Y-70612485D01*
X111317017Y-70632488D01*
X111389488Y-70758011D01*
X111389490Y-70758013D01*
X111389491Y-70758015D01*
X111491985Y-70860509D01*
X111491986Y-70860510D01*
X111491988Y-70860511D01*
X111617511Y-70932982D01*
X111617512Y-70932982D01*
X111617515Y-70932984D01*
X111757525Y-70970500D01*
X111757528Y-70970500D01*
X111902472Y-70970500D01*
X111902475Y-70970500D01*
X112042485Y-70932984D01*
X112168015Y-70860509D01*
X112270509Y-70758015D01*
X112342984Y-70632485D01*
X112380500Y-70492475D01*
X112380500Y-70347525D01*
X112342984Y-70207515D01*
X112294889Y-70124213D01*
X112270511Y-70081988D01*
X112270506Y-70081982D01*
X112168017Y-69979493D01*
X112168011Y-69979488D01*
X112042488Y-69907017D01*
X112042489Y-69907017D01*
X112031006Y-69903940D01*
X111902475Y-69869500D01*
X111757525Y-69869500D01*
X111628993Y-69903940D01*
X111617511Y-69907017D01*
X111491988Y-69979488D01*
X111491982Y-69979493D01*
X111389493Y-70081982D01*
X111389488Y-70081988D01*
X111317017Y-70207511D01*
X111317016Y-70207515D01*
X111279500Y-70347525D01*
X106415666Y-70347525D01*
X106412984Y-70337516D01*
X106412982Y-70337511D01*
X106340511Y-70211988D01*
X106340506Y-70211982D01*
X106238017Y-70109493D01*
X106238011Y-70109488D01*
X106112488Y-70037017D01*
X106112489Y-70037017D01*
X106094806Y-70032279D01*
X105992113Y-70004762D01*
X105932455Y-69968398D01*
X105904436Y-69917085D01*
X105883581Y-69839253D01*
X105874213Y-69823028D01*
X105811108Y-69713726D01*
X105811103Y-69713720D01*
X105708614Y-69611231D01*
X105708608Y-69611226D01*
X105583085Y-69538755D01*
X105583086Y-69538755D01*
X105571603Y-69535678D01*
X105443072Y-69501238D01*
X105298122Y-69501238D01*
X105169590Y-69535678D01*
X105158108Y-69538755D01*
X105032585Y-69611226D01*
X105032579Y-69611231D01*
X104930090Y-69713720D01*
X104930085Y-69713726D01*
X104857614Y-69839249D01*
X104857613Y-69839253D01*
X104820097Y-69979263D01*
X104820097Y-70124213D01*
X104837058Y-70187511D01*
X104857614Y-70264226D01*
X104930085Y-70389749D01*
X104930090Y-70389755D01*
X104983778Y-70443443D01*
X105017263Y-70504766D01*
X105020097Y-70531124D01*
X105020097Y-70785500D01*
X105000412Y-70852539D01*
X104947608Y-70898294D01*
X104896097Y-70909500D01*
X104771122Y-70909500D01*
X104683480Y-70932984D01*
X104631108Y-70947017D01*
X104505585Y-71019488D01*
X104505579Y-71019493D01*
X104403090Y-71121982D01*
X104403085Y-71121988D01*
X104330614Y-71247511D01*
X104330613Y-71247515D01*
X104293097Y-71387525D01*
X99210500Y-71387525D01*
X99210500Y-70327525D01*
X100949500Y-70327525D01*
X100949500Y-70472475D01*
X100987016Y-70612485D01*
X100987017Y-70612488D01*
X101059488Y-70738011D01*
X101059490Y-70738013D01*
X101059491Y-70738015D01*
X101161985Y-70840509D01*
X101161986Y-70840510D01*
X101161988Y-70840511D01*
X101287511Y-70912982D01*
X101287512Y-70912982D01*
X101287515Y-70912984D01*
X101427525Y-70950500D01*
X101427528Y-70950500D01*
X101572472Y-70950500D01*
X101572475Y-70950500D01*
X101712485Y-70912984D01*
X101838015Y-70840509D01*
X101940509Y-70738015D01*
X102012984Y-70612485D01*
X102050500Y-70472475D01*
X102050500Y-70327525D01*
X102012984Y-70187515D01*
X101976436Y-70124213D01*
X101940511Y-70061988D01*
X101940506Y-70061982D01*
X101838017Y-69959493D01*
X101838011Y-69959488D01*
X101712488Y-69887017D01*
X101712489Y-69887017D01*
X101660117Y-69872984D01*
X101572475Y-69849500D01*
X101427525Y-69849500D01*
X101339883Y-69872984D01*
X101287511Y-69887017D01*
X101161988Y-69959488D01*
X101161982Y-69959493D01*
X101059493Y-70061982D01*
X101059488Y-70061988D01*
X100987017Y-70187511D01*
X100987016Y-70187515D01*
X100949500Y-70327525D01*
X99210500Y-70327525D01*
X99210500Y-69849386D01*
X99230185Y-69782347D01*
X99246819Y-69761705D01*
X99249036Y-69759488D01*
X99300509Y-69708015D01*
X99372984Y-69582485D01*
X99410500Y-69442475D01*
X99410500Y-69297525D01*
X99372984Y-69157515D01*
X99367210Y-69147515D01*
X99300511Y-69031988D01*
X99300506Y-69031982D01*
X99198017Y-68929493D01*
X99198011Y-68929488D01*
X99072488Y-68857017D01*
X99072489Y-68857017D01*
X99061006Y-68853940D01*
X98932475Y-68819500D01*
X98787525Y-68819500D01*
X98658993Y-68853940D01*
X98647511Y-68857017D01*
X98521988Y-68929488D01*
X98521982Y-68929493D01*
X98419493Y-69031982D01*
X98419488Y-69031988D01*
X98347017Y-69157511D01*
X98347016Y-69157515D01*
X98309500Y-69297525D01*
X97970500Y-69297525D01*
X97970500Y-67404165D01*
X117177532Y-67404165D01*
X117177532Y-67549115D01*
X117215048Y-67689125D01*
X117215049Y-67689128D01*
X117287520Y-67814651D01*
X117287522Y-67814653D01*
X117287523Y-67814655D01*
X117390017Y-67917149D01*
X117390018Y-67917150D01*
X117390020Y-67917151D01*
X117515543Y-67989622D01*
X117515544Y-67989622D01*
X117515547Y-67989624D01*
X117655557Y-68027140D01*
X117655560Y-68027140D01*
X117800504Y-68027140D01*
X117800507Y-68027140D01*
X117940517Y-67989624D01*
X118066047Y-67917149D01*
X118168541Y-67814655D01*
X118241016Y-67689125D01*
X118278532Y-67549115D01*
X118278532Y-67404165D01*
X118241016Y-67264155D01*
X118168541Y-67138625D01*
X118066047Y-67036131D01*
X118066045Y-67036130D01*
X118066043Y-67036128D01*
X117940520Y-66963657D01*
X117940521Y-66963657D01*
X117929038Y-66960580D01*
X117800507Y-66926140D01*
X117655557Y-66926140D01*
X117527025Y-66960580D01*
X117515543Y-66963657D01*
X117390020Y-67036128D01*
X117390014Y-67036133D01*
X117287525Y-67138622D01*
X117287520Y-67138628D01*
X117215049Y-67264151D01*
X117215048Y-67264155D01*
X117177532Y-67404165D01*
X97970500Y-67404165D01*
X97970500Y-64127525D01*
X105449500Y-64127525D01*
X105449500Y-64272475D01*
X105487016Y-64412485D01*
X105487017Y-64412488D01*
X105559488Y-64538011D01*
X105559490Y-64538013D01*
X105559491Y-64538015D01*
X105661985Y-64640509D01*
X105661986Y-64640510D01*
X105661988Y-64640511D01*
X105787511Y-64712982D01*
X105787512Y-64712982D01*
X105787515Y-64712984D01*
X105927525Y-64750500D01*
X105927528Y-64750500D01*
X106072472Y-64750500D01*
X106072475Y-64750500D01*
X106212485Y-64712984D01*
X106338015Y-64640509D01*
X106440509Y-64538015D01*
X106512984Y-64412485D01*
X106550500Y-64272475D01*
X106550500Y-64127525D01*
X106512984Y-63987515D01*
X106503160Y-63970500D01*
X106440511Y-63861988D01*
X106440506Y-63861982D01*
X106338017Y-63759493D01*
X106338011Y-63759488D01*
X106212488Y-63687017D01*
X106212489Y-63687017D01*
X106201006Y-63683940D01*
X106072475Y-63649500D01*
X105927525Y-63649500D01*
X105798993Y-63683940D01*
X105787511Y-63687017D01*
X105661988Y-63759488D01*
X105661982Y-63759493D01*
X105559493Y-63861982D01*
X105559488Y-63861988D01*
X105487017Y-63987511D01*
X105487016Y-63987515D01*
X105449500Y-64127525D01*
X97970500Y-64127525D01*
X97970500Y-63347525D01*
X101149500Y-63347525D01*
X101149500Y-63492475D01*
X101187016Y-63632485D01*
X101187017Y-63632488D01*
X101259488Y-63758011D01*
X101259490Y-63758013D01*
X101259491Y-63758015D01*
X101361985Y-63860509D01*
X101361986Y-63860510D01*
X101361988Y-63860511D01*
X101487511Y-63932982D01*
X101487512Y-63932982D01*
X101487515Y-63932984D01*
X101627525Y-63970500D01*
X101627528Y-63970500D01*
X101772472Y-63970500D01*
X101772475Y-63970500D01*
X101912485Y-63932984D01*
X102038015Y-63860509D01*
X102140509Y-63758015D01*
X102212984Y-63632485D01*
X102250500Y-63492475D01*
X102250500Y-63347525D01*
X102212984Y-63207515D01*
X102140509Y-63081985D01*
X102038015Y-62979491D01*
X102038013Y-62979490D01*
X102038011Y-62979488D01*
X101912488Y-62907017D01*
X101912489Y-62907017D01*
X101901006Y-62903940D01*
X101772475Y-62869500D01*
X101627525Y-62869500D01*
X101498993Y-62903940D01*
X101487511Y-62907017D01*
X101361988Y-62979488D01*
X101361982Y-62979493D01*
X101259493Y-63081982D01*
X101259488Y-63081988D01*
X101187017Y-63207511D01*
X101187016Y-63207515D01*
X101149500Y-63347525D01*
X97970500Y-63347525D01*
X97970500Y-55381995D01*
X98899500Y-55381995D01*
X98899500Y-55618004D01*
X98899501Y-55618020D01*
X98930306Y-55852010D01*
X98991394Y-56079993D01*
X99081714Y-56298045D01*
X99081716Y-56298050D01*
X99135452Y-56391123D01*
X99199727Y-56502450D01*
X99199729Y-56502453D01*
X99199730Y-56502454D01*
X99343406Y-56689697D01*
X99343412Y-56689704D01*
X99510295Y-56856587D01*
X99510301Y-56856592D01*
X99697550Y-57000273D01*
X99828918Y-57076118D01*
X99901943Y-57118280D01*
X99901948Y-57118282D01*
X99901951Y-57118284D01*
X100120007Y-57208606D01*
X100347986Y-57269693D01*
X100581989Y-57300500D01*
X100581996Y-57300500D01*
X100818004Y-57300500D01*
X100818011Y-57300500D01*
X101052014Y-57269693D01*
X101279993Y-57208606D01*
X101498049Y-57118284D01*
X101702450Y-57000273D01*
X101889699Y-56856592D01*
X102056592Y-56689699D01*
X102200273Y-56502450D01*
X102308331Y-56315288D01*
X102318284Y-56298050D01*
X102318284Y-56298048D01*
X102408606Y-56079993D01*
X102469693Y-55852014D01*
X102500500Y-55618011D01*
X102500500Y-55381989D01*
X102469693Y-55147986D01*
X102408606Y-54920007D01*
X102388916Y-54872472D01*
X102345167Y-54766850D01*
X102328877Y-54727525D01*
X115149500Y-54727525D01*
X115149500Y-54872475D01*
X115187016Y-55012485D01*
X115187017Y-55012488D01*
X115259488Y-55138011D01*
X115259490Y-55138013D01*
X115259491Y-55138015D01*
X115361985Y-55240509D01*
X115361986Y-55240510D01*
X115361988Y-55240511D01*
X115487511Y-55312982D01*
X115487512Y-55312982D01*
X115487515Y-55312984D01*
X115627525Y-55350500D01*
X115627528Y-55350500D01*
X115772472Y-55350500D01*
X115772475Y-55350500D01*
X115912485Y-55312984D01*
X116038015Y-55240509D01*
X116140509Y-55138015D01*
X116212984Y-55012485D01*
X116250500Y-54872475D01*
X116250500Y-54727525D01*
X117759500Y-54727525D01*
X117759500Y-54872475D01*
X117797016Y-55012485D01*
X117797017Y-55012488D01*
X117869488Y-55138011D01*
X117869493Y-55138017D01*
X117923181Y-55191705D01*
X117956666Y-55253028D01*
X117959500Y-55279386D01*
X117959500Y-57416143D01*
X117983386Y-57505287D01*
X117983387Y-57505290D01*
X118029527Y-57585208D01*
X118029529Y-57585211D01*
X118029530Y-57585212D01*
X118446203Y-58001885D01*
X118835535Y-58391216D01*
X118869020Y-58452539D01*
X118871854Y-58478897D01*
X118871854Y-68712042D01*
X118852169Y-68779081D01*
X118799365Y-68824836D01*
X118730207Y-68834780D01*
X118715769Y-68831818D01*
X118632475Y-68809500D01*
X118487525Y-68809500D01*
X118358993Y-68843940D01*
X118347511Y-68847017D01*
X118221988Y-68919488D01*
X118221982Y-68919493D01*
X118119493Y-69021982D01*
X118119488Y-69021988D01*
X118047017Y-69147511D01*
X118047016Y-69147515D01*
X118009500Y-69287525D01*
X118009500Y-69432475D01*
X118037978Y-69538754D01*
X118047017Y-69572488D01*
X118119488Y-69698011D01*
X118119490Y-69698013D01*
X118119491Y-69698015D01*
X118221985Y-69800509D01*
X118221986Y-69800510D01*
X118221988Y-69800511D01*
X118347511Y-69872982D01*
X118347512Y-69872982D01*
X118347515Y-69872984D01*
X118487525Y-69910500D01*
X118487528Y-69910500D01*
X118632473Y-69910500D01*
X118632475Y-69910500D01*
X118715761Y-69888183D01*
X118785609Y-69889844D01*
X118843472Y-69929006D01*
X118870977Y-69993234D01*
X118871854Y-70007957D01*
X118871854Y-77568260D01*
X118852169Y-77635299D01*
X118835535Y-77655941D01*
X118781847Y-77709628D01*
X118781842Y-77709634D01*
X118709371Y-77835157D01*
X118709370Y-77835161D01*
X118671854Y-77975171D01*
X118671854Y-78120121D01*
X118709370Y-78260131D01*
X118709371Y-78260134D01*
X118781842Y-78385657D01*
X118781844Y-78385659D01*
X118781845Y-78385661D01*
X118884339Y-78488155D01*
X118884340Y-78488156D01*
X118884342Y-78488157D01*
X119009865Y-78560628D01*
X119009866Y-78560628D01*
X119009869Y-78560630D01*
X119149879Y-78598146D01*
X119149882Y-78598146D01*
X119294826Y-78598146D01*
X119294829Y-78598146D01*
X119434839Y-78560630D01*
X119560369Y-78488155D01*
X119662863Y-78385661D01*
X119735338Y-78260131D01*
X119772854Y-78120121D01*
X119772854Y-77975171D01*
X119735338Y-77835161D01*
X119705809Y-77784016D01*
X119662865Y-77709634D01*
X119662860Y-77709628D01*
X119609173Y-77655941D01*
X119575688Y-77594618D01*
X119572854Y-77568260D01*
X119572854Y-77127525D01*
X119849500Y-77127525D01*
X119849500Y-77272475D01*
X119885469Y-77406712D01*
X119887017Y-77412488D01*
X119959488Y-77538011D01*
X119959490Y-77538013D01*
X119959491Y-77538015D01*
X120061985Y-77640509D01*
X120061986Y-77640510D01*
X120061988Y-77640511D01*
X120187511Y-77712982D01*
X120187512Y-77712982D01*
X120187515Y-77712984D01*
X120327525Y-77750500D01*
X120327528Y-77750500D01*
X120472472Y-77750500D01*
X120472475Y-77750500D01*
X120612485Y-77712984D01*
X120738015Y-77640509D01*
X120840509Y-77538015D01*
X120912984Y-77412485D01*
X120950500Y-77272475D01*
X120950500Y-77127525D01*
X120912984Y-76987515D01*
X120840509Y-76861985D01*
X120738015Y-76759491D01*
X120738013Y-76759490D01*
X120738011Y-76759488D01*
X120612488Y-76687017D01*
X120612489Y-76687017D01*
X120601006Y-76683940D01*
X120472475Y-76649500D01*
X120327525Y-76649500D01*
X120198993Y-76683940D01*
X120187511Y-76687017D01*
X120061988Y-76759488D01*
X120061982Y-76759493D01*
X119959493Y-76861982D01*
X119959488Y-76861988D01*
X119887017Y-76987511D01*
X119887016Y-76987515D01*
X119849500Y-77127525D01*
X119572854Y-77127525D01*
X119572854Y-70127525D01*
X121449500Y-70127525D01*
X121449500Y-70272475D01*
X121487016Y-70412485D01*
X121487017Y-70412488D01*
X121559488Y-70538011D01*
X121559490Y-70538013D01*
X121559491Y-70538015D01*
X121661985Y-70640509D01*
X121661986Y-70640510D01*
X121661988Y-70640511D01*
X121787511Y-70712982D01*
X121787512Y-70712982D01*
X121787515Y-70712984D01*
X121927525Y-70750500D01*
X121927528Y-70750500D01*
X122072472Y-70750500D01*
X122072475Y-70750500D01*
X122212485Y-70712984D01*
X122338015Y-70640509D01*
X122440509Y-70538015D01*
X122512984Y-70412485D01*
X122550500Y-70272475D01*
X122550500Y-70127525D01*
X122512984Y-69987515D01*
X122508352Y-69979493D01*
X122440511Y-69861988D01*
X122440506Y-69861982D01*
X122338017Y-69759493D01*
X122338011Y-69759488D01*
X122212488Y-69687017D01*
X122212489Y-69687017D01*
X122201006Y-69683940D01*
X122072475Y-69649500D01*
X121927525Y-69649500D01*
X121798993Y-69683940D01*
X121787511Y-69687017D01*
X121661988Y-69759488D01*
X121661982Y-69759493D01*
X121559493Y-69861982D01*
X121559488Y-69861988D01*
X121487017Y-69987511D01*
X121487016Y-69987515D01*
X121449500Y-70127525D01*
X119572854Y-70127525D01*
X119572854Y-58236212D01*
X119572854Y-58236210D01*
X119548968Y-58147066D01*
X119548965Y-58147060D01*
X119502827Y-58067148D01*
X119502824Y-58067145D01*
X119502823Y-58067142D01*
X119437566Y-58001885D01*
X118696819Y-57261137D01*
X118663334Y-57199814D01*
X118660500Y-57173456D01*
X118660500Y-55279386D01*
X118680185Y-55212347D01*
X118696819Y-55191705D01*
X118750509Y-55138015D01*
X118822984Y-55012485D01*
X118860500Y-54872475D01*
X118860500Y-54727525D01*
X118822984Y-54587515D01*
X118750509Y-54461985D01*
X118648015Y-54359491D01*
X118648013Y-54359490D01*
X118648011Y-54359488D01*
X118522488Y-54287017D01*
X118522489Y-54287017D01*
X118511006Y-54283940D01*
X118382475Y-54249500D01*
X118237525Y-54249500D01*
X118108993Y-54283940D01*
X118097511Y-54287017D01*
X117971988Y-54359488D01*
X117971982Y-54359493D01*
X117869493Y-54461982D01*
X117869488Y-54461988D01*
X117797017Y-54587511D01*
X117797016Y-54587515D01*
X117759500Y-54727525D01*
X116250500Y-54727525D01*
X116212984Y-54587515D01*
X116140509Y-54461985D01*
X116038015Y-54359491D01*
X116038013Y-54359490D01*
X116038011Y-54359488D01*
X115912488Y-54287017D01*
X115912489Y-54287017D01*
X115901006Y-54283940D01*
X115772475Y-54249500D01*
X115627525Y-54249500D01*
X115498993Y-54283940D01*
X115487511Y-54287017D01*
X115361988Y-54359488D01*
X115361982Y-54359493D01*
X115259493Y-54461982D01*
X115259488Y-54461988D01*
X115187017Y-54587511D01*
X115187016Y-54587515D01*
X115149500Y-54727525D01*
X102328877Y-54727525D01*
X102318284Y-54701951D01*
X102318281Y-54701946D01*
X102318280Y-54701943D01*
X102274296Y-54625762D01*
X102200273Y-54497550D01*
X102094337Y-54359491D01*
X102056593Y-54310302D01*
X102056587Y-54310295D01*
X101889704Y-54143412D01*
X101889697Y-54143406D01*
X101702454Y-53999730D01*
X101702453Y-53999729D01*
X101702450Y-53999727D01*
X101620957Y-53952677D01*
X101498056Y-53881719D01*
X101498045Y-53881714D01*
X101279993Y-53791394D01*
X101052010Y-53730306D01*
X100818020Y-53699501D01*
X100818017Y-53699500D01*
X100818011Y-53699500D01*
X100581989Y-53699500D01*
X100581983Y-53699500D01*
X100581979Y-53699501D01*
X100347989Y-53730306D01*
X100120006Y-53791394D01*
X99901954Y-53881714D01*
X99901943Y-53881719D01*
X99697545Y-53999730D01*
X99510302Y-54143406D01*
X99510295Y-54143412D01*
X99343412Y-54310295D01*
X99343406Y-54310302D01*
X99199730Y-54497545D01*
X99081719Y-54701943D01*
X99081714Y-54701954D01*
X98991394Y-54920006D01*
X98930306Y-55147989D01*
X98899501Y-55381979D01*
X98899500Y-55381995D01*
X97970500Y-55381995D01*
X97970500Y-55203750D01*
X97970726Y-55196263D01*
X97981842Y-55012488D01*
X97987542Y-54918256D01*
X97989347Y-54903394D01*
X98021128Y-54729974D01*
X98038874Y-54633130D01*
X98042452Y-54618616D01*
X98124202Y-54356268D01*
X98129499Y-54342302D01*
X98242276Y-54091722D01*
X98249221Y-54078489D01*
X98391378Y-53843333D01*
X98399865Y-53831037D01*
X98569331Y-53614729D01*
X98579246Y-53603538D01*
X98773538Y-53409246D01*
X98784729Y-53399331D01*
X99001037Y-53229865D01*
X99013333Y-53221378D01*
X99248489Y-53079221D01*
X99261722Y-53072276D01*
X99512302Y-52959499D01*
X99526268Y-52954202D01*
X99788616Y-52872452D01*
X99803130Y-52868874D01*
X100073398Y-52819346D01*
X100088256Y-52817542D01*
X100366265Y-52800726D01*
X100373752Y-52800500D01*
X100417595Y-52800500D01*
X124922405Y-52800500D01*
X124966249Y-52800500D01*
X124973736Y-52800726D01*
G37*
%TD.AperFunction*%
%TD*%
M02*
