M48
; DRILL file KiCad 10.0.3 date 2026-06-06T22:20:28
; FORMAT={-:-/ absolute / metric / decimal}
; #@! TF.CreationDate,2026-06-06T22:20:28-05:00
; #@! TF.GenerationSoftware,Kicad,Pcbnew,10.0.3
; #@! TF.FileFunction,Plated,1,6,PTH
FMAT,2
METRIC
; #@! TA.AperFunction,Plated,PTH,ViaDrill
T1C0.300
; #@! TA.AperFunction,Plated,PTH,ComponentDrill
T2C0.600
; #@! TA.AperFunction,Plated,PTH,ComponentDrill
T3C1.000
; #@! TA.AperFunction,Plated,PTH,ComponentDrill
T4C1.100
; #@! TA.AperFunction,Plated,PTH,ComponentDrill
T5C2.700
%
G90
G05
T1
X100.178Y-77.572
X101.143Y-81.026
X101.854Y-78.384
X101.854Y-79.375
X102.94Y-81.026
X103.047Y-90.5
X103.105Y-87.503
X103.105Y-88.341
X103.105Y-89.51
X103.632Y-86.58
X103.632Y-90.932
X104.343Y-76.098
X105.785Y-82.177
X105.816Y-75.032
X106.248Y-83.542
X106.259Y-84.268
X106.477Y-71.222
X106.528Y-93.269
X106.578Y-74.981
X106.68Y-101.391
X106.832Y-83.109
X106.832Y-106.223
X107.061Y-67.056
X107.116Y-75.47
X107.652Y-63.5
X107.798Y-94.132
X107.848Y-77.673
X108.069Y-74.913
X108.077Y-110.49
X108.088Y-88.432
X108.4Y-80.83
X108.412Y-80.103
X108.661Y-75.47
X108.763Y-95.961
X108.966Y-63.5
X109.068Y-100.787
X109.068Y-104.2
X109.487Y-79.705
X109.487Y-80.432
X109.728Y-95.402
X110.014Y-88.475
X110.236Y-61.775
X110.541Y-83.464
X110.541Y-89.002
X110.744Y-67.945
X111.076Y-76.121
X111.1Y-77.775
X111.15Y-84.176
X111.404Y-91.237
X111.942Y-80.277
X112.014Y-92.659
X112.17Y-84.074
X112.368Y-82.315
X113.093Y-82.261
X113.182Y-106.223
X113.784Y-84.235
X114.418Y-54.356
X114.471Y-96.622
X114.55Y-71.116
X114.554Y-83.277
X114.656Y-97.942
X115.17Y-80.054
X115.328Y-99.981
X115.468Y-89.002
X115.824Y-98.298
X115.84Y-93.964
X115.924Y-90.138
X115.951Y-111.633
X116.027Y-84.582
X116.281Y-86.512
X116.281Y-95.707
X116.434Y-79.527
X116.494Y-80.633
X116.688Y-78.232
X116.755Y-81.856
X116.884Y-93.632
X116.967Y-88.824
X116.992Y-76.098
X117.602Y-99.146
X117.807Y-77.419
X117.85Y-92.293
X117.946Y-86.507
X118.237Y-110.49
X118.364Y-66.548
X118.466Y-82.855
X118.567Y-77.216
X118.618Y-70.993
X118.618Y-105.715
X118.682Y-87.681
X119.062Y-54.356
X119.228Y-83.007
X119.736Y-74.27
X119.837Y-77.521
X119.888Y-90.221
X120.345Y-81.482
X120.396Y-85.496
X120.599Y-67.412
X120.65Y-86.97
X120.752Y-65.38
X120.752Y-94.793
X121.107Y-82.652
X121.336Y-87.528
X121.92Y-82.855
X122.404Y-73.152
X123.088Y-70.764
X123.749Y-82.906
X123.8Y-87.274
X124.259Y-85.543
X124.364Y-72.657
X124.46Y-63.373
X124.523Y-65.596
X125.578Y-80.092
X125.73Y-90.272
X125.984Y-77.724
X126.365Y-86.157
X126.543Y-65.176
T3
X100.33Y-62.738
X100.33Y-65.278
X100.33Y-67.818
X100.33Y-70.358
X100.33Y-72.898
T4
X101.64Y-96.58
X101.64Y-99.12
X101.64Y-101.66
X101.64Y-104.2
X123.7Y-91.5
X123.7Y-94.04
X123.7Y-96.58
X123.7Y-99.12
X123.7Y-101.66
X123.7Y-104.2
T5
X100.7Y-55.5
X100.7Y-109.5
X124.7Y-55.5
X124.7Y-109.5
T2
G00X100.675Y-84.433
M15
G01X99.875Y-84.433
M16
G05
G00X100.675Y-93.073
M15
G01X99.875Y-93.073
M16
G05
G00X105.005Y-84.433
M15
G01X103.905Y-84.433
M16
G05
G00X105.005Y-93.073
M15
G01X103.905Y-93.073
M16
G05
M30
