M48
; DRILL file {KiCad 9.0.2} date 2025-06-08T20:57:06-0500
; FORMAT={-:-/ absolute / inch / decimal}
; #@! TF.CreationDate,2025-06-08T20:57:06-05:00
; #@! TF.GenerationSoftware,Kicad,Pcbnew,9.0.2
; #@! TF.FileFunction,Plated,1,6,PTH
FMAT,2
INCH
; #@! TA.AperFunction,Plated,PTH,ViaDrill
T1C0.0118
; #@! TA.AperFunction,Plated,PTH,ComponentDrill
T2C0.0236
; #@! TA.AperFunction,Plated,PTH,ComponentDrill
T3C0.0394
; #@! TA.AperFunction,Plated,PTH,ComponentDrill
T4C0.0433
; #@! TA.AperFunction,Plated,PTH,ComponentDrill
T5C0.1063
%
G90
G05
T1
X3.8921Y-2.7311
X3.9961Y-2.7717
X4.0039Y-2.4969
X4.074Y-2.7283
X4.1063Y-3.6142
X4.126Y-3.4055
X4.1277Y-2.8134
X4.1417Y-4.2283
X4.1484Y-2.7579
X4.1496Y-3.5102
X4.1693Y-2.7776
X4.1732Y-2.5276
X4.1782Y-2.986
X4.1846Y-3.5935
X4.1908Y-2.904
X4.2016Y-3.5705
X4.2087Y-4.189
X4.2231Y-3.1299
X4.2295Y-3.3984
X4.2472Y-3.3524
X4.252Y-4.0626
X4.2598Y-3.6732
X4.2795Y-2.5039
X4.2925Y-3.6567
X4.2937Y-3.5138
X4.2992Y-3.1387
X4.3181Y-3.378
X4.322Y-3.4683
X4.3232Y-3.0961
X4.3465Y-2.5039
X4.3477Y-3.7131
X4.3543Y-3.0826
X4.3742Y-3.5474
X4.3937Y-3.1102
X4.3945Y-3.2898
X4.3992Y-3.2307
X4.4028Y-2.7724
X4.4173Y-3.7205
X4.4279Y-3.2739
X4.4409Y-4.2165
X4.4476Y-3.6563
X4.4488Y-3.2047
X4.4646Y-2.1654
X4.4685Y-3.4495
X4.4846Y-2.8724
X4.501Y-3.2532
X4.5185Y-3.3283
X4.5276Y-3.4031
X4.5283Y-4.2118
X4.5299Y-3.9575
X4.5339Y-3.9016
X4.5502Y-3.7075
X4.5551Y-2.1575
X4.5558Y-3.2838
X4.5618Y-3.7969
X4.5709Y-2.9331
X4.5906Y-3.1063
X4.5906Y-4.0626
X4.5912Y-3.1896
X4.6051Y-3.3334
X4.6051Y-3.4902
X4.6188Y-3.8485
X4.6234Y-3.3553
X4.635Y-2.6566
X4.6402Y-3.415
X4.6579Y-2.1575
X4.6677Y-2.7307
X4.6693Y-2.5866
X4.6732Y-4.1772
X4.6938Y-3.0727
X4.7087Y-3.6094
X4.7165Y-4.2598
X4.7217Y-3.1594
X4.7244Y-3.5732
X4.7402Y-3.0394
X4.7492Y-3.0988
X4.7579Y-2.7933
X4.761Y-2.1575
X4.8031Y-2.7638
X4.8125Y-3.4751
X4.8268Y-3.6535
X4.8425Y-3.8583
X4.8565Y-3.1565
X4.889Y-3.1193
X4.8933Y-3.302
X4.9606Y-3.1299
X4.9764Y-2.7008
T3
X3.9453Y-3.1748
X3.9453Y-3.2748
X3.9453Y-3.3748
X3.9453Y-3.4748
X3.9453Y-3.5748
X4.0193Y-4.1122
X4.1193Y-4.1122
T4
X4.8819Y-3.4075
X4.8819Y-3.5075
X4.8819Y-3.6075
X4.8819Y-3.7075
X4.8819Y-3.8075
X4.8819Y-3.9075
X4.8819Y-4.0075
X4.8819Y-4.1075
T5
X3.9646Y-2.185
X3.9646Y-4.311
X4.9094Y-2.185
X4.9094Y-4.311
T2
G00X4.2659Y-4.1839
M15
G01X4.2659Y-4.1406
M16
G05
G00X4.2659Y-4.3425
M15
G01X4.2659Y-4.311
M16
G05
G00X4.6061Y-4.1839
M15
G01X4.6061Y-4.1406
M16
G05
G00X4.6061Y-4.3425
M15
G01X4.6061Y-4.311
M16
G05
M30
