%TF.GenerationSoftware,KiCad,Pcbnew,9.0.2*%
%TF.CreationDate,2025-06-08T20:57:08-05:00*%
%TF.ProjectId,Flight Computer,466c6967-6874-4204-936f-6d7075746572,rev?*%
%TF.SameCoordinates,Original*%
%TF.FileFunction,Paste,Top*%
%TF.FilePolarity,Positive*%
%FSLAX46Y46*%
G04 Gerber Fmt 4.6, Leading zero omitted, Abs format (unit mm)*
G04 Created by KiCad (PCBNEW 9.0.2) date 2025-06-08 20:57:08*
%MOMM*%
%LPD*%
G01*
G04 APERTURE LIST*
G04 Aperture macros list*
%AMRoundRect*
0 Rectangle with rounded corners*
0 $1 Rounding radius*
0 $2 $3 $4 $5 $6 $7 $8 $9 X,Y pos of 4 corners*
0 Add a 4 corners polygon primitive as box body*
4,1,4,$2,$3,$4,$5,$6,$7,$8,$9,$2,$3,0*
0 Add four circle primitives for the rounded corners*
1,1,$1+$1,$2,$3*
1,1,$1+$1,$4,$5*
1,1,$1+$1,$6,$7*
1,1,$1+$1,$8,$9*
0 Add four rect primitives between the rounded corners*
20,1,$1+$1,$2,$3,$4,$5,0*
20,1,$1+$1,$4,$5,$6,$7,0*
20,1,$1+$1,$6,$7,$8,$9,0*
20,1,$1+$1,$8,$9,$2,$3,0*%
G04 Aperture macros list end*
%ADD10RoundRect,0.237500X-0.237500X0.250000X-0.237500X-0.250000X0.237500X-0.250000X0.237500X0.250000X0*%
%ADD11R,1.500000X3.000000*%
%ADD12R,3.000000X1.500000*%
%ADD13R,0.629800X0.299200*%
%ADD14R,0.990600X0.711200*%
%ADD15RoundRect,0.237500X0.237500X-0.250000X0.237500X0.250000X-0.237500X0.250000X-0.237500X-0.250000X0*%
%ADD16RoundRect,0.237500X0.344715X-0.008839X-0.008839X0.344715X-0.344715X0.008839X0.008839X-0.344715X0*%
%ADD17RoundRect,0.150000X0.625000X-0.150000X0.625000X0.150000X-0.625000X0.150000X-0.625000X-0.150000X0*%
%ADD18RoundRect,0.250000X0.650000X-0.350000X0.650000X0.350000X-0.650000X0.350000X-0.650000X-0.350000X0*%
%ADD19C,0.250000*%
%ADD20RoundRect,0.237500X-0.237500X0.300000X-0.237500X-0.300000X0.237500X-0.300000X0.237500X0.300000X0*%
%ADD21RoundRect,0.237500X-0.300000X-0.237500X0.300000X-0.237500X0.300000X0.237500X-0.300000X0.237500X0*%
%ADD22RoundRect,0.237500X0.250000X0.237500X-0.250000X0.237500X-0.250000X-0.237500X0.250000X-0.237500X0*%
%ADD23RoundRect,0.087500X-0.225000X-0.087500X0.225000X-0.087500X0.225000X0.087500X-0.225000X0.087500X0*%
%ADD24RoundRect,0.087500X-0.087500X-0.225000X0.087500X-0.225000X0.087500X0.225000X-0.087500X0.225000X0*%
%ADD25R,0.950000X0.550000*%
%ADD26RoundRect,0.237500X-0.237500X0.287500X-0.237500X-0.287500X0.237500X-0.287500X0.237500X0.287500X0*%
%ADD27RoundRect,0.187500X-1.312500X0.437500X-1.312500X-0.437500X1.312500X-0.437500X1.312500X0.437500X0*%
%ADD28RoundRect,0.375000X-0.375000X0.625000X-0.375000X-0.625000X0.375000X-0.625000X0.375000X0.625000X0*%
%ADD29RoundRect,0.500000X-1.400000X0.500000X-1.400000X-0.500000X1.400000X-0.500000X1.400000X0.500000X0*%
%ADD30R,0.299200X0.629800*%
%ADD31R,0.711200X0.990600*%
%ADD32RoundRect,0.187500X-0.437500X-1.312500X0.437500X-1.312500X0.437500X1.312500X-0.437500X1.312500X0*%
%ADD33RoundRect,0.200000X-0.750000X-0.200000X0.750000X-0.200000X0.750000X0.200000X-0.750000X0.200000X0*%
%ADD34RoundRect,0.237500X0.237500X-0.300000X0.237500X0.300000X-0.237500X0.300000X-0.237500X-0.300000X0*%
G04 APERTURE END LIST*
D10*
%TO.C,R502*%
X125400000Y-71287500D03*
X125400000Y-73112500D03*
%TD*%
D11*
%TO.C,U304*%
X112500000Y-61300000D03*
X110600000Y-61300000D03*
X108700000Y-61300000D03*
X106800000Y-61300000D03*
X104900000Y-61300000D03*
D12*
X101500000Y-64700000D03*
X101500000Y-66600000D03*
X101500000Y-68500000D03*
X101500000Y-70400000D03*
X101500000Y-72300000D03*
D11*
X104900000Y-75700000D03*
X106800000Y-75700000D03*
X108700000Y-75700000D03*
X110600000Y-75700000D03*
X112500000Y-75700000D03*
D12*
X115900000Y-72300000D03*
X115900000Y-70400000D03*
X115900000Y-68500000D03*
X115900000Y-66600000D03*
X115900000Y-64700000D03*
%TD*%
D10*
%TO.C,R501*%
X122800000Y-71287500D03*
X122800000Y-73112500D03*
%TD*%
D13*
%TO.C,U401*%
X117750000Y-100525000D03*
X117750000Y-99875001D03*
X117750000Y-99225002D03*
X115670202Y-99225002D03*
X115670202Y-99875001D03*
X115670202Y-100525000D03*
D14*
X116710101Y-100319001D03*
X116710101Y-99431001D03*
%TD*%
D15*
%TO.C,R411*%
X118070000Y-92582500D03*
X118070000Y-90757500D03*
%TD*%
D16*
%TO.C,R503*%
X107175235Y-93775235D03*
X105884765Y-92484765D03*
%TD*%
D17*
%TO.C,J607*%
X121990000Y-81470000D03*
X121990000Y-80470000D03*
X121990000Y-79470000D03*
X121990000Y-78470000D03*
D18*
X125865000Y-82770000D03*
X125865000Y-77170000D03*
%TD*%
D19*
%TO.C,U301*%
X117900000Y-80280000D03*
X118300000Y-80280000D03*
X117900000Y-80680000D03*
X118300000Y-80680000D03*
%TD*%
D20*
%TO.C,C304*%
X113860000Y-87617500D03*
X113860000Y-89342500D03*
%TD*%
D21*
%TO.C,C301*%
X118010000Y-82790000D03*
X119735000Y-82790000D03*
%TD*%
D13*
%TO.C,U402*%
X117980000Y-95470000D03*
X117980000Y-94820001D03*
X117980000Y-94170002D03*
X115900202Y-94170002D03*
X115900202Y-94820001D03*
X115900202Y-95470000D03*
D14*
X116940101Y-95264001D03*
X116940101Y-94376001D03*
%TD*%
D22*
%TO.C,R301*%
X110432500Y-80670000D03*
X108607500Y-80670000D03*
%TD*%
D23*
%TO.C,U302*%
X111507500Y-84480000D03*
X111507500Y-84980000D03*
X111507500Y-85480000D03*
X111507500Y-85980000D03*
D24*
X112170000Y-86142500D03*
X112670000Y-86142500D03*
X113170000Y-86142500D03*
D23*
X113832500Y-85980000D03*
X113832500Y-85480000D03*
X113832500Y-84980000D03*
X113832500Y-84480000D03*
D24*
X113170000Y-84317500D03*
X112670000Y-84317500D03*
X112170000Y-84317500D03*
%TD*%
D25*
%TO.C,U303*%
X106595000Y-83312500D03*
X106595000Y-84562500D03*
X106595000Y-85812500D03*
X106595000Y-87062500D03*
X108745000Y-87062500D03*
X108745000Y-85812500D03*
X108745000Y-84562500D03*
X108745000Y-83312500D03*
%TD*%
D26*
%TO.C,D201*%
X122000000Y-63725000D03*
X122000000Y-65475000D03*
%TD*%
D22*
%TO.C,R404*%
X119337500Y-102050000D03*
X117512500Y-102050000D03*
%TD*%
%TO.C,R414*%
X116512500Y-91840000D03*
X114687500Y-91840000D03*
%TD*%
D10*
%TO.C,R202*%
X125200000Y-59775000D03*
X125200000Y-61600000D03*
%TD*%
%TO.C,R413*%
X116510000Y-88447500D03*
X116510000Y-90272500D03*
%TD*%
%TO.C,R201*%
X122000000Y-59775000D03*
X122000000Y-61600000D03*
%TD*%
D27*
%TO.C,J602*%
X100120000Y-94920000D03*
X100120000Y-97460000D03*
X100120000Y-100000000D03*
%TD*%
D28*
%TO.C,U201*%
X115020000Y-104530000D03*
X112720000Y-104530000D03*
D29*
X112720000Y-110830000D03*
D28*
X110420000Y-104530000D03*
%TD*%
D30*
%TO.C,U403*%
X118046001Y-89059899D03*
X118696000Y-89059899D03*
X119345999Y-89059899D03*
X119345999Y-86980101D03*
X118696000Y-86980101D03*
X118046001Y-86980101D03*
D31*
X118252000Y-88020000D03*
X119140000Y-88020000D03*
%TD*%
D32*
%TO.C,J606*%
X114560000Y-54800000D03*
X117100000Y-54800000D03*
X119640000Y-54800000D03*
%TD*%
D33*
%TO.C,D301*%
X103600000Y-79710000D03*
X103600000Y-81610000D03*
X106600000Y-80660000D03*
%TD*%
D20*
%TO.C,C303*%
X112400000Y-87617500D03*
X112400000Y-89342500D03*
%TD*%
%TO.C,C305*%
X105050000Y-83310000D03*
X105050000Y-85035000D03*
%TD*%
D22*
%TO.C,R410*%
X119560000Y-96870000D03*
X117735000Y-96870000D03*
%TD*%
D20*
%TO.C,C306*%
X118580000Y-70427500D03*
X118580000Y-72152500D03*
%TD*%
D10*
%TO.C,R303*%
X118560000Y-66677500D03*
X118560000Y-68502500D03*
%TD*%
%TO.C,R407*%
X119590000Y-93247500D03*
X119590000Y-95072500D03*
%TD*%
%TO.C,R304*%
X98870000Y-68515000D03*
X98870000Y-70340000D03*
%TD*%
D34*
%TO.C,C201*%
X112800000Y-102262500D03*
X112800000Y-100537500D03*
%TD*%
%TO.C,C302*%
X115410000Y-86652500D03*
X115410000Y-84927500D03*
%TD*%
D26*
%TO.C,D202*%
X125200000Y-63725000D03*
X125200000Y-65475000D03*
%TD*%
D10*
%TO.C,R401*%
X119350000Y-98417500D03*
X119350000Y-100242500D03*
%TD*%
M02*
