%TF.GenerationSoftware,KiCad,Pcbnew,9.0.2*%
%TF.CreationDate,2025-06-24T10:24:35-05:00*%
%TF.ProjectId,Flight Computer,466c6967-6874-4204-936f-6d7075746572,rev?*%
%TF.SameCoordinates,Original*%
%TF.FileFunction,Legend,Top*%
%TF.FilePolarity,Positive*%
%FSLAX46Y46*%
G04 Gerber Fmt 4.6, Leading zero omitted, Abs format (unit mm)*
G04 Created by KiCad (PCBNEW 9.0.2) date 2025-06-24 10:24:35*
%MOMM*%
%LPD*%
G01*
G04 APERTURE LIST*
%ADD10C,0.150000*%
%ADD11C,0.120000*%
%ADD12C,0.152400*%
%ADD13C,0.000000*%
G04 APERTURE END LIST*
D10*
X124459164Y-87561786D02*
X124102021Y-87811786D01*
X124459164Y-87990357D02*
X123709164Y-87990357D01*
X123709164Y-87990357D02*
X123709164Y-87704643D01*
X123709164Y-87704643D02*
X123744878Y-87633214D01*
X123744878Y-87633214D02*
X123780592Y-87597500D01*
X123780592Y-87597500D02*
X123852021Y-87561786D01*
X123852021Y-87561786D02*
X123959164Y-87561786D01*
X123959164Y-87561786D02*
X124030592Y-87597500D01*
X124030592Y-87597500D02*
X124066307Y-87633214D01*
X124066307Y-87633214D02*
X124102021Y-87704643D01*
X124102021Y-87704643D02*
X124102021Y-87990357D01*
X123709164Y-87311786D02*
X123709164Y-86847500D01*
X123709164Y-86847500D02*
X123994878Y-87097500D01*
X123994878Y-87097500D02*
X123994878Y-86990357D01*
X123994878Y-86990357D02*
X124030592Y-86918929D01*
X124030592Y-86918929D02*
X124066307Y-86883214D01*
X124066307Y-86883214D02*
X124137735Y-86847500D01*
X124137735Y-86847500D02*
X124316307Y-86847500D01*
X124316307Y-86847500D02*
X124387735Y-86883214D01*
X124387735Y-86883214D02*
X124423450Y-86918929D01*
X124423450Y-86918929D02*
X124459164Y-86990357D01*
X124459164Y-86990357D02*
X124459164Y-87204643D01*
X124459164Y-87204643D02*
X124423450Y-87276071D01*
X124423450Y-87276071D02*
X124387735Y-87311786D01*
X123709164Y-86383214D02*
X123709164Y-86311785D01*
X123709164Y-86311785D02*
X123744878Y-86240357D01*
X123744878Y-86240357D02*
X123780592Y-86204643D01*
X123780592Y-86204643D02*
X123852021Y-86168928D01*
X123852021Y-86168928D02*
X123994878Y-86133214D01*
X123994878Y-86133214D02*
X124173450Y-86133214D01*
X124173450Y-86133214D02*
X124316307Y-86168928D01*
X124316307Y-86168928D02*
X124387735Y-86204643D01*
X124387735Y-86204643D02*
X124423450Y-86240357D01*
X124423450Y-86240357D02*
X124459164Y-86311785D01*
X124459164Y-86311785D02*
X124459164Y-86383214D01*
X124459164Y-86383214D02*
X124423450Y-86454643D01*
X124423450Y-86454643D02*
X124387735Y-86490357D01*
X124387735Y-86490357D02*
X124316307Y-86526071D01*
X124316307Y-86526071D02*
X124173450Y-86561785D01*
X124173450Y-86561785D02*
X123994878Y-86561785D01*
X123994878Y-86561785D02*
X123852021Y-86526071D01*
X123852021Y-86526071D02*
X123780592Y-86490357D01*
X123780592Y-86490357D02*
X123744878Y-86454643D01*
X123744878Y-86454643D02*
X123709164Y-86383214D01*
X124459164Y-85418928D02*
X124459164Y-85847499D01*
X124459164Y-85633214D02*
X123709164Y-85633214D01*
X123709164Y-85633214D02*
X123816307Y-85704642D01*
X123816307Y-85704642D02*
X123887735Y-85776071D01*
X123887735Y-85776071D02*
X123923450Y-85847499D01*
X112374642Y-109719164D02*
X112374642Y-108969164D01*
X112374642Y-108969164D02*
X112553213Y-108969164D01*
X112553213Y-108969164D02*
X112660356Y-109004878D01*
X112660356Y-109004878D02*
X112731785Y-109076307D01*
X112731785Y-109076307D02*
X112767499Y-109147735D01*
X112767499Y-109147735D02*
X112803213Y-109290592D01*
X112803213Y-109290592D02*
X112803213Y-109397735D01*
X112803213Y-109397735D02*
X112767499Y-109540592D01*
X112767499Y-109540592D02*
X112731785Y-109612021D01*
X112731785Y-109612021D02*
X112660356Y-109683450D01*
X112660356Y-109683450D02*
X112553213Y-109719164D01*
X112553213Y-109719164D02*
X112374642Y-109719164D01*
X113088928Y-109040592D02*
X113124642Y-109004878D01*
X113124642Y-109004878D02*
X113196071Y-108969164D01*
X113196071Y-108969164D02*
X113374642Y-108969164D01*
X113374642Y-108969164D02*
X113446071Y-109004878D01*
X113446071Y-109004878D02*
X113481785Y-109040592D01*
X113481785Y-109040592D02*
X113517499Y-109112021D01*
X113517499Y-109112021D02*
X113517499Y-109183450D01*
X113517499Y-109183450D02*
X113481785Y-109290592D01*
X113481785Y-109290592D02*
X113053213Y-109719164D01*
X113053213Y-109719164D02*
X113517499Y-109719164D01*
X113981785Y-108969164D02*
X114053214Y-108969164D01*
X114053214Y-108969164D02*
X114124642Y-109004878D01*
X114124642Y-109004878D02*
X114160357Y-109040592D01*
X114160357Y-109040592D02*
X114196071Y-109112021D01*
X114196071Y-109112021D02*
X114231785Y-109254878D01*
X114231785Y-109254878D02*
X114231785Y-109433450D01*
X114231785Y-109433450D02*
X114196071Y-109576307D01*
X114196071Y-109576307D02*
X114160357Y-109647735D01*
X114160357Y-109647735D02*
X114124642Y-109683450D01*
X114124642Y-109683450D02*
X114053214Y-109719164D01*
X114053214Y-109719164D02*
X113981785Y-109719164D01*
X113981785Y-109719164D02*
X113910357Y-109683450D01*
X113910357Y-109683450D02*
X113874642Y-109647735D01*
X113874642Y-109647735D02*
X113838928Y-109576307D01*
X113838928Y-109576307D02*
X113803214Y-109433450D01*
X113803214Y-109433450D02*
X113803214Y-109254878D01*
X113803214Y-109254878D02*
X113838928Y-109112021D01*
X113838928Y-109112021D02*
X113874642Y-109040592D01*
X113874642Y-109040592D02*
X113910357Y-109004878D01*
X113910357Y-109004878D02*
X113981785Y-108969164D01*
X114946071Y-109719164D02*
X114517500Y-109719164D01*
X114731785Y-109719164D02*
X114731785Y-108969164D01*
X114731785Y-108969164D02*
X114660357Y-109076307D01*
X114660357Y-109076307D02*
X114588928Y-109147735D01*
X114588928Y-109147735D02*
X114517500Y-109183450D01*
X111149164Y-103799286D02*
X110792021Y-104049286D01*
X111149164Y-104227857D02*
X110399164Y-104227857D01*
X110399164Y-104227857D02*
X110399164Y-103942143D01*
X110399164Y-103942143D02*
X110434878Y-103870714D01*
X110434878Y-103870714D02*
X110470592Y-103835000D01*
X110470592Y-103835000D02*
X110542021Y-103799286D01*
X110542021Y-103799286D02*
X110649164Y-103799286D01*
X110649164Y-103799286D02*
X110720592Y-103835000D01*
X110720592Y-103835000D02*
X110756307Y-103870714D01*
X110756307Y-103870714D02*
X110792021Y-103942143D01*
X110792021Y-103942143D02*
X110792021Y-104227857D01*
X110399164Y-103549286D02*
X110399164Y-103049286D01*
X110399164Y-103049286D02*
X111149164Y-103370714D01*
X110399164Y-102620714D02*
X110399164Y-102549285D01*
X110399164Y-102549285D02*
X110434878Y-102477857D01*
X110434878Y-102477857D02*
X110470592Y-102442143D01*
X110470592Y-102442143D02*
X110542021Y-102406428D01*
X110542021Y-102406428D02*
X110684878Y-102370714D01*
X110684878Y-102370714D02*
X110863450Y-102370714D01*
X110863450Y-102370714D02*
X111006307Y-102406428D01*
X111006307Y-102406428D02*
X111077735Y-102442143D01*
X111077735Y-102442143D02*
X111113450Y-102477857D01*
X111113450Y-102477857D02*
X111149164Y-102549285D01*
X111149164Y-102549285D02*
X111149164Y-102620714D01*
X111149164Y-102620714D02*
X111113450Y-102692143D01*
X111113450Y-102692143D02*
X111077735Y-102727857D01*
X111077735Y-102727857D02*
X111006307Y-102763571D01*
X111006307Y-102763571D02*
X110863450Y-102799285D01*
X110863450Y-102799285D02*
X110684878Y-102799285D01*
X110684878Y-102799285D02*
X110542021Y-102763571D01*
X110542021Y-102763571D02*
X110470592Y-102727857D01*
X110470592Y-102727857D02*
X110434878Y-102692143D01*
X110434878Y-102692143D02*
X110399164Y-102620714D01*
X110399164Y-102120714D02*
X110399164Y-101620714D01*
X110399164Y-101620714D02*
X111149164Y-101942142D01*
X113917735Y-86659286D02*
X113953450Y-86695000D01*
X113953450Y-86695000D02*
X113989164Y-86802143D01*
X113989164Y-86802143D02*
X113989164Y-86873571D01*
X113989164Y-86873571D02*
X113953450Y-86980714D01*
X113953450Y-86980714D02*
X113882021Y-87052143D01*
X113882021Y-87052143D02*
X113810592Y-87087857D01*
X113810592Y-87087857D02*
X113667735Y-87123571D01*
X113667735Y-87123571D02*
X113560592Y-87123571D01*
X113560592Y-87123571D02*
X113417735Y-87087857D01*
X113417735Y-87087857D02*
X113346307Y-87052143D01*
X113346307Y-87052143D02*
X113274878Y-86980714D01*
X113274878Y-86980714D02*
X113239164Y-86873571D01*
X113239164Y-86873571D02*
X113239164Y-86802143D01*
X113239164Y-86802143D02*
X113274878Y-86695000D01*
X113274878Y-86695000D02*
X113310592Y-86659286D01*
X113489164Y-86016429D02*
X113989164Y-86016429D01*
X113203450Y-86195000D02*
X113739164Y-86373571D01*
X113739164Y-86373571D02*
X113739164Y-85909286D01*
X113239164Y-85480714D02*
X113239164Y-85409285D01*
X113239164Y-85409285D02*
X113274878Y-85337857D01*
X113274878Y-85337857D02*
X113310592Y-85302143D01*
X113310592Y-85302143D02*
X113382021Y-85266428D01*
X113382021Y-85266428D02*
X113524878Y-85230714D01*
X113524878Y-85230714D02*
X113703450Y-85230714D01*
X113703450Y-85230714D02*
X113846307Y-85266428D01*
X113846307Y-85266428D02*
X113917735Y-85302143D01*
X113917735Y-85302143D02*
X113953450Y-85337857D01*
X113953450Y-85337857D02*
X113989164Y-85409285D01*
X113989164Y-85409285D02*
X113989164Y-85480714D01*
X113989164Y-85480714D02*
X113953450Y-85552143D01*
X113953450Y-85552143D02*
X113917735Y-85587857D01*
X113917735Y-85587857D02*
X113846307Y-85623571D01*
X113846307Y-85623571D02*
X113703450Y-85659285D01*
X113703450Y-85659285D02*
X113524878Y-85659285D01*
X113524878Y-85659285D02*
X113382021Y-85623571D01*
X113382021Y-85623571D02*
X113310592Y-85587857D01*
X113310592Y-85587857D02*
X113274878Y-85552143D01*
X113274878Y-85552143D02*
X113239164Y-85480714D01*
X113310592Y-84944999D02*
X113274878Y-84909285D01*
X113274878Y-84909285D02*
X113239164Y-84837857D01*
X113239164Y-84837857D02*
X113239164Y-84659285D01*
X113239164Y-84659285D02*
X113274878Y-84587857D01*
X113274878Y-84587857D02*
X113310592Y-84552142D01*
X113310592Y-84552142D02*
X113382021Y-84516428D01*
X113382021Y-84516428D02*
X113453450Y-84516428D01*
X113453450Y-84516428D02*
X113560592Y-84552142D01*
X113560592Y-84552142D02*
X113989164Y-84980714D01*
X113989164Y-84980714D02*
X113989164Y-84516428D01*
X107559164Y-103049286D02*
X107202021Y-103299286D01*
X107559164Y-103477857D02*
X106809164Y-103477857D01*
X106809164Y-103477857D02*
X106809164Y-103192143D01*
X106809164Y-103192143D02*
X106844878Y-103120714D01*
X106844878Y-103120714D02*
X106880592Y-103085000D01*
X106880592Y-103085000D02*
X106952021Y-103049286D01*
X106952021Y-103049286D02*
X107059164Y-103049286D01*
X107059164Y-103049286D02*
X107130592Y-103085000D01*
X107130592Y-103085000D02*
X107166307Y-103120714D01*
X107166307Y-103120714D02*
X107202021Y-103192143D01*
X107202021Y-103192143D02*
X107202021Y-103477857D01*
X106809164Y-102799286D02*
X106809164Y-102299286D01*
X106809164Y-102299286D02*
X107559164Y-102620714D01*
X107559164Y-101620714D02*
X107559164Y-102049285D01*
X107559164Y-101835000D02*
X106809164Y-101835000D01*
X106809164Y-101835000D02*
X106916307Y-101906428D01*
X106916307Y-101906428D02*
X106987735Y-101977857D01*
X106987735Y-101977857D02*
X107023450Y-102049285D01*
X106809164Y-100977857D02*
X106809164Y-101120714D01*
X106809164Y-101120714D02*
X106844878Y-101192142D01*
X106844878Y-101192142D02*
X106880592Y-101227857D01*
X106880592Y-101227857D02*
X106987735Y-101299285D01*
X106987735Y-101299285D02*
X107130592Y-101334999D01*
X107130592Y-101334999D02*
X107416307Y-101334999D01*
X107416307Y-101334999D02*
X107487735Y-101299285D01*
X107487735Y-101299285D02*
X107523450Y-101263571D01*
X107523450Y-101263571D02*
X107559164Y-101192142D01*
X107559164Y-101192142D02*
X107559164Y-101049285D01*
X107559164Y-101049285D02*
X107523450Y-100977857D01*
X107523450Y-100977857D02*
X107487735Y-100942142D01*
X107487735Y-100942142D02*
X107416307Y-100906428D01*
X107416307Y-100906428D02*
X107237735Y-100906428D01*
X107237735Y-100906428D02*
X107166307Y-100942142D01*
X107166307Y-100942142D02*
X107130592Y-100977857D01*
X107130592Y-100977857D02*
X107094878Y-101049285D01*
X107094878Y-101049285D02*
X107094878Y-101192142D01*
X107094878Y-101192142D02*
X107130592Y-101263571D01*
X107130592Y-101263571D02*
X107166307Y-101299285D01*
X107166307Y-101299285D02*
X107237735Y-101334999D01*
X118369164Y-94975714D02*
X118976307Y-94975714D01*
X118976307Y-94975714D02*
X119047735Y-94940000D01*
X119047735Y-94940000D02*
X119083450Y-94904286D01*
X119083450Y-94904286D02*
X119119164Y-94832857D01*
X119119164Y-94832857D02*
X119119164Y-94690000D01*
X119119164Y-94690000D02*
X119083450Y-94618571D01*
X119083450Y-94618571D02*
X119047735Y-94582857D01*
X119047735Y-94582857D02*
X118976307Y-94547143D01*
X118976307Y-94547143D02*
X118369164Y-94547143D01*
X118369164Y-94261429D02*
X118369164Y-93761429D01*
X118369164Y-93761429D02*
X119119164Y-94082857D01*
X118369164Y-93332857D02*
X118369164Y-93261428D01*
X118369164Y-93261428D02*
X118404878Y-93190000D01*
X118404878Y-93190000D02*
X118440592Y-93154286D01*
X118440592Y-93154286D02*
X118512021Y-93118571D01*
X118512021Y-93118571D02*
X118654878Y-93082857D01*
X118654878Y-93082857D02*
X118833450Y-93082857D01*
X118833450Y-93082857D02*
X118976307Y-93118571D01*
X118976307Y-93118571D02*
X119047735Y-93154286D01*
X119047735Y-93154286D02*
X119083450Y-93190000D01*
X119083450Y-93190000D02*
X119119164Y-93261428D01*
X119119164Y-93261428D02*
X119119164Y-93332857D01*
X119119164Y-93332857D02*
X119083450Y-93404286D01*
X119083450Y-93404286D02*
X119047735Y-93440000D01*
X119047735Y-93440000D02*
X118976307Y-93475714D01*
X118976307Y-93475714D02*
X118833450Y-93511428D01*
X118833450Y-93511428D02*
X118654878Y-93511428D01*
X118654878Y-93511428D02*
X118512021Y-93475714D01*
X118512021Y-93475714D02*
X118440592Y-93440000D01*
X118440592Y-93440000D02*
X118404878Y-93404286D01*
X118404878Y-93404286D02*
X118369164Y-93332857D01*
X118440592Y-92797142D02*
X118404878Y-92761428D01*
X118404878Y-92761428D02*
X118369164Y-92690000D01*
X118369164Y-92690000D02*
X118369164Y-92511428D01*
X118369164Y-92511428D02*
X118404878Y-92440000D01*
X118404878Y-92440000D02*
X118440592Y-92404285D01*
X118440592Y-92404285D02*
X118512021Y-92368571D01*
X118512021Y-92368571D02*
X118583450Y-92368571D01*
X118583450Y-92368571D02*
X118690592Y-92404285D01*
X118690592Y-92404285D02*
X119119164Y-92832857D01*
X119119164Y-92832857D02*
X119119164Y-92368571D01*
X115304819Y-95559999D02*
X115542914Y-95559999D01*
X115447676Y-95798094D02*
X115542914Y-95559999D01*
X115542914Y-95559999D02*
X115447676Y-95321904D01*
X115733390Y-95702856D02*
X115542914Y-95559999D01*
X115542914Y-95559999D02*
X115733390Y-95417142D01*
X119279164Y-97169286D02*
X118922021Y-97419286D01*
X119279164Y-97597857D02*
X118529164Y-97597857D01*
X118529164Y-97597857D02*
X118529164Y-97312143D01*
X118529164Y-97312143D02*
X118564878Y-97240714D01*
X118564878Y-97240714D02*
X118600592Y-97205000D01*
X118600592Y-97205000D02*
X118672021Y-97169286D01*
X118672021Y-97169286D02*
X118779164Y-97169286D01*
X118779164Y-97169286D02*
X118850592Y-97205000D01*
X118850592Y-97205000D02*
X118886307Y-97240714D01*
X118886307Y-97240714D02*
X118922021Y-97312143D01*
X118922021Y-97312143D02*
X118922021Y-97597857D01*
X118529164Y-96919286D02*
X118529164Y-96419286D01*
X118529164Y-96419286D02*
X119279164Y-96740714D01*
X119279164Y-95740714D02*
X119279164Y-96169285D01*
X119279164Y-95955000D02*
X118529164Y-95955000D01*
X118529164Y-95955000D02*
X118636307Y-96026428D01*
X118636307Y-96026428D02*
X118707735Y-96097857D01*
X118707735Y-96097857D02*
X118743450Y-96169285D01*
X119279164Y-95026428D02*
X119279164Y-95454999D01*
X119279164Y-95240714D02*
X118529164Y-95240714D01*
X118529164Y-95240714D02*
X118636307Y-95312142D01*
X118636307Y-95312142D02*
X118707735Y-95383571D01*
X118707735Y-95383571D02*
X118743450Y-95454999D01*
X121980713Y-66477735D02*
X121944999Y-66513450D01*
X121944999Y-66513450D02*
X121837856Y-66549164D01*
X121837856Y-66549164D02*
X121766428Y-66549164D01*
X121766428Y-66549164D02*
X121659285Y-66513450D01*
X121659285Y-66513450D02*
X121587856Y-66442021D01*
X121587856Y-66442021D02*
X121552142Y-66370592D01*
X121552142Y-66370592D02*
X121516428Y-66227735D01*
X121516428Y-66227735D02*
X121516428Y-66120592D01*
X121516428Y-66120592D02*
X121552142Y-65977735D01*
X121552142Y-65977735D02*
X121587856Y-65906307D01*
X121587856Y-65906307D02*
X121659285Y-65834878D01*
X121659285Y-65834878D02*
X121766428Y-65799164D01*
X121766428Y-65799164D02*
X121837856Y-65799164D01*
X121837856Y-65799164D02*
X121944999Y-65834878D01*
X121944999Y-65834878D02*
X121980713Y-65870592D01*
X122230713Y-65799164D02*
X122694999Y-65799164D01*
X122694999Y-65799164D02*
X122444999Y-66084878D01*
X122444999Y-66084878D02*
X122552142Y-66084878D01*
X122552142Y-66084878D02*
X122623571Y-66120592D01*
X122623571Y-66120592D02*
X122659285Y-66156307D01*
X122659285Y-66156307D02*
X122694999Y-66227735D01*
X122694999Y-66227735D02*
X122694999Y-66406307D01*
X122694999Y-66406307D02*
X122659285Y-66477735D01*
X122659285Y-66477735D02*
X122623571Y-66513450D01*
X122623571Y-66513450D02*
X122552142Y-66549164D01*
X122552142Y-66549164D02*
X122337856Y-66549164D01*
X122337856Y-66549164D02*
X122266428Y-66513450D01*
X122266428Y-66513450D02*
X122230713Y-66477735D01*
X123159285Y-65799164D02*
X123230714Y-65799164D01*
X123230714Y-65799164D02*
X123302142Y-65834878D01*
X123302142Y-65834878D02*
X123337857Y-65870592D01*
X123337857Y-65870592D02*
X123373571Y-65942021D01*
X123373571Y-65942021D02*
X123409285Y-66084878D01*
X123409285Y-66084878D02*
X123409285Y-66263450D01*
X123409285Y-66263450D02*
X123373571Y-66406307D01*
X123373571Y-66406307D02*
X123337857Y-66477735D01*
X123337857Y-66477735D02*
X123302142Y-66513450D01*
X123302142Y-66513450D02*
X123230714Y-66549164D01*
X123230714Y-66549164D02*
X123159285Y-66549164D01*
X123159285Y-66549164D02*
X123087857Y-66513450D01*
X123087857Y-66513450D02*
X123052142Y-66477735D01*
X123052142Y-66477735D02*
X123016428Y-66406307D01*
X123016428Y-66406307D02*
X122980714Y-66263450D01*
X122980714Y-66263450D02*
X122980714Y-66084878D01*
X122980714Y-66084878D02*
X123016428Y-65942021D01*
X123016428Y-65942021D02*
X123052142Y-65870592D01*
X123052142Y-65870592D02*
X123087857Y-65834878D01*
X123087857Y-65834878D02*
X123159285Y-65799164D01*
X124123571Y-66549164D02*
X123695000Y-66549164D01*
X123909285Y-66549164D02*
X123909285Y-65799164D01*
X123909285Y-65799164D02*
X123837857Y-65906307D01*
X123837857Y-65906307D02*
X123766428Y-65977735D01*
X123766428Y-65977735D02*
X123695000Y-66013450D01*
X113320713Y-90709164D02*
X113070713Y-90352021D01*
X112892142Y-90709164D02*
X112892142Y-89959164D01*
X112892142Y-89959164D02*
X113177856Y-89959164D01*
X113177856Y-89959164D02*
X113249285Y-89994878D01*
X113249285Y-89994878D02*
X113284999Y-90030592D01*
X113284999Y-90030592D02*
X113320713Y-90102021D01*
X113320713Y-90102021D02*
X113320713Y-90209164D01*
X113320713Y-90209164D02*
X113284999Y-90280592D01*
X113284999Y-90280592D02*
X113249285Y-90316307D01*
X113249285Y-90316307D02*
X113177856Y-90352021D01*
X113177856Y-90352021D02*
X112892142Y-90352021D01*
X113570713Y-89959164D02*
X114070713Y-89959164D01*
X114070713Y-89959164D02*
X113749285Y-90709164D01*
X114749285Y-90709164D02*
X114320714Y-90709164D01*
X114534999Y-90709164D02*
X114534999Y-89959164D01*
X114534999Y-89959164D02*
X114463571Y-90066307D01*
X114463571Y-90066307D02*
X114392142Y-90137735D01*
X114392142Y-90137735D02*
X114320714Y-90173450D01*
X115213571Y-89959164D02*
X115285000Y-89959164D01*
X115285000Y-89959164D02*
X115356428Y-89994878D01*
X115356428Y-89994878D02*
X115392143Y-90030592D01*
X115392143Y-90030592D02*
X115427857Y-90102021D01*
X115427857Y-90102021D02*
X115463571Y-90244878D01*
X115463571Y-90244878D02*
X115463571Y-90423450D01*
X115463571Y-90423450D02*
X115427857Y-90566307D01*
X115427857Y-90566307D02*
X115392143Y-90637735D01*
X115392143Y-90637735D02*
X115356428Y-90673450D01*
X115356428Y-90673450D02*
X115285000Y-90709164D01*
X115285000Y-90709164D02*
X115213571Y-90709164D01*
X115213571Y-90709164D02*
X115142143Y-90673450D01*
X115142143Y-90673450D02*
X115106428Y-90637735D01*
X115106428Y-90637735D02*
X115070714Y-90566307D01*
X115070714Y-90566307D02*
X115035000Y-90423450D01*
X115035000Y-90423450D02*
X115035000Y-90244878D01*
X115035000Y-90244878D02*
X115070714Y-90102021D01*
X115070714Y-90102021D02*
X115106428Y-90030592D01*
X115106428Y-90030592D02*
X115142143Y-89994878D01*
X115142143Y-89994878D02*
X115213571Y-89959164D01*
X107394285Y-85109164D02*
X107394285Y-85716307D01*
X107394285Y-85716307D02*
X107429999Y-85787735D01*
X107429999Y-85787735D02*
X107465714Y-85823450D01*
X107465714Y-85823450D02*
X107537142Y-85859164D01*
X107537142Y-85859164D02*
X107679999Y-85859164D01*
X107679999Y-85859164D02*
X107751428Y-85823450D01*
X107751428Y-85823450D02*
X107787142Y-85787735D01*
X107787142Y-85787735D02*
X107822856Y-85716307D01*
X107822856Y-85716307D02*
X107822856Y-85109164D01*
X108501428Y-85359164D02*
X108501428Y-85859164D01*
X108322856Y-85073450D02*
X108144285Y-85609164D01*
X108144285Y-85609164D02*
X108608570Y-85609164D01*
X109037142Y-85109164D02*
X109108571Y-85109164D01*
X109108571Y-85109164D02*
X109179999Y-85144878D01*
X109179999Y-85144878D02*
X109215714Y-85180592D01*
X109215714Y-85180592D02*
X109251428Y-85252021D01*
X109251428Y-85252021D02*
X109287142Y-85394878D01*
X109287142Y-85394878D02*
X109287142Y-85573450D01*
X109287142Y-85573450D02*
X109251428Y-85716307D01*
X109251428Y-85716307D02*
X109215714Y-85787735D01*
X109215714Y-85787735D02*
X109179999Y-85823450D01*
X109179999Y-85823450D02*
X109108571Y-85859164D01*
X109108571Y-85859164D02*
X109037142Y-85859164D01*
X109037142Y-85859164D02*
X108965714Y-85823450D01*
X108965714Y-85823450D02*
X108929999Y-85787735D01*
X108929999Y-85787735D02*
X108894285Y-85716307D01*
X108894285Y-85716307D02*
X108858571Y-85573450D01*
X108858571Y-85573450D02*
X108858571Y-85394878D01*
X108858571Y-85394878D02*
X108894285Y-85252021D01*
X108894285Y-85252021D02*
X108929999Y-85180592D01*
X108929999Y-85180592D02*
X108965714Y-85144878D01*
X108965714Y-85144878D02*
X109037142Y-85109164D01*
X110001428Y-85859164D02*
X109572857Y-85859164D01*
X109787142Y-85859164D02*
X109787142Y-85109164D01*
X109787142Y-85109164D02*
X109715714Y-85216307D01*
X109715714Y-85216307D02*
X109644285Y-85287735D01*
X109644285Y-85287735D02*
X109572857Y-85323450D01*
X108675713Y-106769164D02*
X108425713Y-106412021D01*
X108247142Y-106769164D02*
X108247142Y-106019164D01*
X108247142Y-106019164D02*
X108532856Y-106019164D01*
X108532856Y-106019164D02*
X108604285Y-106054878D01*
X108604285Y-106054878D02*
X108639999Y-106090592D01*
X108639999Y-106090592D02*
X108675713Y-106162021D01*
X108675713Y-106162021D02*
X108675713Y-106269164D01*
X108675713Y-106269164D02*
X108639999Y-106340592D01*
X108639999Y-106340592D02*
X108604285Y-106376307D01*
X108604285Y-106376307D02*
X108532856Y-106412021D01*
X108532856Y-106412021D02*
X108247142Y-106412021D01*
X108961428Y-106090592D02*
X108997142Y-106054878D01*
X108997142Y-106054878D02*
X109068571Y-106019164D01*
X109068571Y-106019164D02*
X109247142Y-106019164D01*
X109247142Y-106019164D02*
X109318571Y-106054878D01*
X109318571Y-106054878D02*
X109354285Y-106090592D01*
X109354285Y-106090592D02*
X109389999Y-106162021D01*
X109389999Y-106162021D02*
X109389999Y-106233450D01*
X109389999Y-106233450D02*
X109354285Y-106340592D01*
X109354285Y-106340592D02*
X108925713Y-106769164D01*
X108925713Y-106769164D02*
X109389999Y-106769164D01*
X109854285Y-106019164D02*
X109925714Y-106019164D01*
X109925714Y-106019164D02*
X109997142Y-106054878D01*
X109997142Y-106054878D02*
X110032857Y-106090592D01*
X110032857Y-106090592D02*
X110068571Y-106162021D01*
X110068571Y-106162021D02*
X110104285Y-106304878D01*
X110104285Y-106304878D02*
X110104285Y-106483450D01*
X110104285Y-106483450D02*
X110068571Y-106626307D01*
X110068571Y-106626307D02*
X110032857Y-106697735D01*
X110032857Y-106697735D02*
X109997142Y-106733450D01*
X109997142Y-106733450D02*
X109925714Y-106769164D01*
X109925714Y-106769164D02*
X109854285Y-106769164D01*
X109854285Y-106769164D02*
X109782857Y-106733450D01*
X109782857Y-106733450D02*
X109747142Y-106697735D01*
X109747142Y-106697735D02*
X109711428Y-106626307D01*
X109711428Y-106626307D02*
X109675714Y-106483450D01*
X109675714Y-106483450D02*
X109675714Y-106304878D01*
X109675714Y-106304878D02*
X109711428Y-106162021D01*
X109711428Y-106162021D02*
X109747142Y-106090592D01*
X109747142Y-106090592D02*
X109782857Y-106054878D01*
X109782857Y-106054878D02*
X109854285Y-106019164D01*
X110390000Y-106090592D02*
X110425714Y-106054878D01*
X110425714Y-106054878D02*
X110497143Y-106019164D01*
X110497143Y-106019164D02*
X110675714Y-106019164D01*
X110675714Y-106019164D02*
X110747143Y-106054878D01*
X110747143Y-106054878D02*
X110782857Y-106090592D01*
X110782857Y-106090592D02*
X110818571Y-106162021D01*
X110818571Y-106162021D02*
X110818571Y-106233450D01*
X110818571Y-106233450D02*
X110782857Y-106340592D01*
X110782857Y-106340592D02*
X110354285Y-106769164D01*
X110354285Y-106769164D02*
X110818571Y-106769164D01*
X108499164Y-103219286D02*
X108142021Y-103469286D01*
X108499164Y-103647857D02*
X107749164Y-103647857D01*
X107749164Y-103647857D02*
X107749164Y-103362143D01*
X107749164Y-103362143D02*
X107784878Y-103290714D01*
X107784878Y-103290714D02*
X107820592Y-103255000D01*
X107820592Y-103255000D02*
X107892021Y-103219286D01*
X107892021Y-103219286D02*
X107999164Y-103219286D01*
X107999164Y-103219286D02*
X108070592Y-103255000D01*
X108070592Y-103255000D02*
X108106307Y-103290714D01*
X108106307Y-103290714D02*
X108142021Y-103362143D01*
X108142021Y-103362143D02*
X108142021Y-103647857D01*
X107749164Y-102969286D02*
X107749164Y-102469286D01*
X107749164Y-102469286D02*
X108499164Y-102790714D01*
X108499164Y-101790714D02*
X108499164Y-102219285D01*
X108499164Y-102005000D02*
X107749164Y-102005000D01*
X107749164Y-102005000D02*
X107856307Y-102076428D01*
X107856307Y-102076428D02*
X107927735Y-102147857D01*
X107927735Y-102147857D02*
X107963450Y-102219285D01*
X107749164Y-101540714D02*
X107749164Y-101076428D01*
X107749164Y-101076428D02*
X108034878Y-101326428D01*
X108034878Y-101326428D02*
X108034878Y-101219285D01*
X108034878Y-101219285D02*
X108070592Y-101147857D01*
X108070592Y-101147857D02*
X108106307Y-101112142D01*
X108106307Y-101112142D02*
X108177735Y-101076428D01*
X108177735Y-101076428D02*
X108356307Y-101076428D01*
X108356307Y-101076428D02*
X108427735Y-101112142D01*
X108427735Y-101112142D02*
X108463450Y-101147857D01*
X108463450Y-101147857D02*
X108499164Y-101219285D01*
X108499164Y-101219285D02*
X108499164Y-101433571D01*
X108499164Y-101433571D02*
X108463450Y-101504999D01*
X108463450Y-101504999D02*
X108427735Y-101540714D01*
X117000713Y-90719164D02*
X116750713Y-90362021D01*
X116572142Y-90719164D02*
X116572142Y-89969164D01*
X116572142Y-89969164D02*
X116857856Y-89969164D01*
X116857856Y-89969164D02*
X116929285Y-90004878D01*
X116929285Y-90004878D02*
X116964999Y-90040592D01*
X116964999Y-90040592D02*
X117000713Y-90112021D01*
X117000713Y-90112021D02*
X117000713Y-90219164D01*
X117000713Y-90219164D02*
X116964999Y-90290592D01*
X116964999Y-90290592D02*
X116929285Y-90326307D01*
X116929285Y-90326307D02*
X116857856Y-90362021D01*
X116857856Y-90362021D02*
X116572142Y-90362021D01*
X117250713Y-89969164D02*
X117750713Y-89969164D01*
X117750713Y-89969164D02*
X117429285Y-90719164D01*
X118179285Y-89969164D02*
X118250714Y-89969164D01*
X118250714Y-89969164D02*
X118322142Y-90004878D01*
X118322142Y-90004878D02*
X118357857Y-90040592D01*
X118357857Y-90040592D02*
X118393571Y-90112021D01*
X118393571Y-90112021D02*
X118429285Y-90254878D01*
X118429285Y-90254878D02*
X118429285Y-90433450D01*
X118429285Y-90433450D02*
X118393571Y-90576307D01*
X118393571Y-90576307D02*
X118357857Y-90647735D01*
X118357857Y-90647735D02*
X118322142Y-90683450D01*
X118322142Y-90683450D02*
X118250714Y-90719164D01*
X118250714Y-90719164D02*
X118179285Y-90719164D01*
X118179285Y-90719164D02*
X118107857Y-90683450D01*
X118107857Y-90683450D02*
X118072142Y-90647735D01*
X118072142Y-90647735D02*
X118036428Y-90576307D01*
X118036428Y-90576307D02*
X118000714Y-90433450D01*
X118000714Y-90433450D02*
X118000714Y-90254878D01*
X118000714Y-90254878D02*
X118036428Y-90112021D01*
X118036428Y-90112021D02*
X118072142Y-90040592D01*
X118072142Y-90040592D02*
X118107857Y-90004878D01*
X118107857Y-90004878D02*
X118179285Y-89969164D01*
X118857857Y-90290592D02*
X118786428Y-90254878D01*
X118786428Y-90254878D02*
X118750714Y-90219164D01*
X118750714Y-90219164D02*
X118715000Y-90147735D01*
X118715000Y-90147735D02*
X118715000Y-90112021D01*
X118715000Y-90112021D02*
X118750714Y-90040592D01*
X118750714Y-90040592D02*
X118786428Y-90004878D01*
X118786428Y-90004878D02*
X118857857Y-89969164D01*
X118857857Y-89969164D02*
X119000714Y-89969164D01*
X119000714Y-89969164D02*
X119072143Y-90004878D01*
X119072143Y-90004878D02*
X119107857Y-90040592D01*
X119107857Y-90040592D02*
X119143571Y-90112021D01*
X119143571Y-90112021D02*
X119143571Y-90147735D01*
X119143571Y-90147735D02*
X119107857Y-90219164D01*
X119107857Y-90219164D02*
X119072143Y-90254878D01*
X119072143Y-90254878D02*
X119000714Y-90290592D01*
X119000714Y-90290592D02*
X118857857Y-90290592D01*
X118857857Y-90290592D02*
X118786428Y-90326307D01*
X118786428Y-90326307D02*
X118750714Y-90362021D01*
X118750714Y-90362021D02*
X118715000Y-90433450D01*
X118715000Y-90433450D02*
X118715000Y-90576307D01*
X118715000Y-90576307D02*
X118750714Y-90647735D01*
X118750714Y-90647735D02*
X118786428Y-90683450D01*
X118786428Y-90683450D02*
X118857857Y-90719164D01*
X118857857Y-90719164D02*
X119000714Y-90719164D01*
X119000714Y-90719164D02*
X119072143Y-90683450D01*
X119072143Y-90683450D02*
X119107857Y-90647735D01*
X119107857Y-90647735D02*
X119143571Y-90576307D01*
X119143571Y-90576307D02*
X119143571Y-90433450D01*
X119143571Y-90433450D02*
X119107857Y-90362021D01*
X119107857Y-90362021D02*
X119072143Y-90326307D01*
X119072143Y-90326307D02*
X119000714Y-90290592D01*
X114189164Y-68045714D02*
X114796307Y-68045714D01*
X114796307Y-68045714D02*
X114867735Y-68010000D01*
X114867735Y-68010000D02*
X114903450Y-67974286D01*
X114903450Y-67974286D02*
X114939164Y-67902857D01*
X114939164Y-67902857D02*
X114939164Y-67760000D01*
X114939164Y-67760000D02*
X114903450Y-67688571D01*
X114903450Y-67688571D02*
X114867735Y-67652857D01*
X114867735Y-67652857D02*
X114796307Y-67617143D01*
X114796307Y-67617143D02*
X114189164Y-67617143D01*
X114439164Y-66938572D02*
X114939164Y-66938572D01*
X114153450Y-67117143D02*
X114689164Y-67295714D01*
X114689164Y-67295714D02*
X114689164Y-66831429D01*
X114189164Y-66402857D02*
X114189164Y-66331428D01*
X114189164Y-66331428D02*
X114224878Y-66260000D01*
X114224878Y-66260000D02*
X114260592Y-66224286D01*
X114260592Y-66224286D02*
X114332021Y-66188571D01*
X114332021Y-66188571D02*
X114474878Y-66152857D01*
X114474878Y-66152857D02*
X114653450Y-66152857D01*
X114653450Y-66152857D02*
X114796307Y-66188571D01*
X114796307Y-66188571D02*
X114867735Y-66224286D01*
X114867735Y-66224286D02*
X114903450Y-66260000D01*
X114903450Y-66260000D02*
X114939164Y-66331428D01*
X114939164Y-66331428D02*
X114939164Y-66402857D01*
X114939164Y-66402857D02*
X114903450Y-66474286D01*
X114903450Y-66474286D02*
X114867735Y-66510000D01*
X114867735Y-66510000D02*
X114796307Y-66545714D01*
X114796307Y-66545714D02*
X114653450Y-66581428D01*
X114653450Y-66581428D02*
X114474878Y-66581428D01*
X114474878Y-66581428D02*
X114332021Y-66545714D01*
X114332021Y-66545714D02*
X114260592Y-66510000D01*
X114260592Y-66510000D02*
X114224878Y-66474286D01*
X114224878Y-66474286D02*
X114189164Y-66402857D01*
X114439164Y-65510000D02*
X114939164Y-65510000D01*
X114153450Y-65688571D02*
X114689164Y-65867142D01*
X114689164Y-65867142D02*
X114689164Y-65402857D01*
X99259164Y-97544284D02*
X99794878Y-97544284D01*
X99794878Y-97544284D02*
X99902021Y-97579999D01*
X99902021Y-97579999D02*
X99973450Y-97651427D01*
X99973450Y-97651427D02*
X100009164Y-97758570D01*
X100009164Y-97758570D02*
X100009164Y-97829999D01*
X99259164Y-96829998D02*
X99259164Y-97187141D01*
X99259164Y-97187141D02*
X99616307Y-97222855D01*
X99616307Y-97222855D02*
X99580592Y-97187141D01*
X99580592Y-97187141D02*
X99544878Y-97115713D01*
X99544878Y-97115713D02*
X99544878Y-96937141D01*
X99544878Y-96937141D02*
X99580592Y-96865713D01*
X99580592Y-96865713D02*
X99616307Y-96829998D01*
X99616307Y-96829998D02*
X99687735Y-96794284D01*
X99687735Y-96794284D02*
X99866307Y-96794284D01*
X99866307Y-96794284D02*
X99937735Y-96829998D01*
X99937735Y-96829998D02*
X99973450Y-96865713D01*
X99973450Y-96865713D02*
X100009164Y-96937141D01*
X100009164Y-96937141D02*
X100009164Y-97115713D01*
X100009164Y-97115713D02*
X99973450Y-97187141D01*
X99973450Y-97187141D02*
X99937735Y-97222855D01*
X99259164Y-96329998D02*
X99259164Y-96258569D01*
X99259164Y-96258569D02*
X99294878Y-96187141D01*
X99294878Y-96187141D02*
X99330592Y-96151427D01*
X99330592Y-96151427D02*
X99402021Y-96115712D01*
X99402021Y-96115712D02*
X99544878Y-96079998D01*
X99544878Y-96079998D02*
X99723450Y-96079998D01*
X99723450Y-96079998D02*
X99866307Y-96115712D01*
X99866307Y-96115712D02*
X99937735Y-96151427D01*
X99937735Y-96151427D02*
X99973450Y-96187141D01*
X99973450Y-96187141D02*
X100009164Y-96258569D01*
X100009164Y-96258569D02*
X100009164Y-96329998D01*
X100009164Y-96329998D02*
X99973450Y-96401427D01*
X99973450Y-96401427D02*
X99937735Y-96437141D01*
X99937735Y-96437141D02*
X99866307Y-96472855D01*
X99866307Y-96472855D02*
X99723450Y-96508569D01*
X99723450Y-96508569D02*
X99544878Y-96508569D01*
X99544878Y-96508569D02*
X99402021Y-96472855D01*
X99402021Y-96472855D02*
X99330592Y-96437141D01*
X99330592Y-96437141D02*
X99294878Y-96401427D01*
X99294878Y-96401427D02*
X99259164Y-96329998D01*
X99509164Y-95437141D02*
X100009164Y-95437141D01*
X99223450Y-95615712D02*
X99759164Y-95794283D01*
X99759164Y-95794283D02*
X99759164Y-95329998D01*
X118089164Y-104839286D02*
X117732021Y-105089286D01*
X118089164Y-105267857D02*
X117339164Y-105267857D01*
X117339164Y-105267857D02*
X117339164Y-104982143D01*
X117339164Y-104982143D02*
X117374878Y-104910714D01*
X117374878Y-104910714D02*
X117410592Y-104875000D01*
X117410592Y-104875000D02*
X117482021Y-104839286D01*
X117482021Y-104839286D02*
X117589164Y-104839286D01*
X117589164Y-104839286D02*
X117660592Y-104875000D01*
X117660592Y-104875000D02*
X117696307Y-104910714D01*
X117696307Y-104910714D02*
X117732021Y-104982143D01*
X117732021Y-104982143D02*
X117732021Y-105267857D01*
X117339164Y-104589286D02*
X117339164Y-104089286D01*
X117339164Y-104089286D02*
X118089164Y-104410714D01*
X117339164Y-103660714D02*
X117339164Y-103589285D01*
X117339164Y-103589285D02*
X117374878Y-103517857D01*
X117374878Y-103517857D02*
X117410592Y-103482143D01*
X117410592Y-103482143D02*
X117482021Y-103446428D01*
X117482021Y-103446428D02*
X117624878Y-103410714D01*
X117624878Y-103410714D02*
X117803450Y-103410714D01*
X117803450Y-103410714D02*
X117946307Y-103446428D01*
X117946307Y-103446428D02*
X118017735Y-103482143D01*
X118017735Y-103482143D02*
X118053450Y-103517857D01*
X118053450Y-103517857D02*
X118089164Y-103589285D01*
X118089164Y-103589285D02*
X118089164Y-103660714D01*
X118089164Y-103660714D02*
X118053450Y-103732143D01*
X118053450Y-103732143D02*
X118017735Y-103767857D01*
X118017735Y-103767857D02*
X117946307Y-103803571D01*
X117946307Y-103803571D02*
X117803450Y-103839285D01*
X117803450Y-103839285D02*
X117624878Y-103839285D01*
X117624878Y-103839285D02*
X117482021Y-103803571D01*
X117482021Y-103803571D02*
X117410592Y-103767857D01*
X117410592Y-103767857D02*
X117374878Y-103732143D01*
X117374878Y-103732143D02*
X117339164Y-103660714D01*
X117339164Y-103160714D02*
X117339164Y-102696428D01*
X117339164Y-102696428D02*
X117624878Y-102946428D01*
X117624878Y-102946428D02*
X117624878Y-102839285D01*
X117624878Y-102839285D02*
X117660592Y-102767857D01*
X117660592Y-102767857D02*
X117696307Y-102732142D01*
X117696307Y-102732142D02*
X117767735Y-102696428D01*
X117767735Y-102696428D02*
X117946307Y-102696428D01*
X117946307Y-102696428D02*
X118017735Y-102732142D01*
X118017735Y-102732142D02*
X118053450Y-102767857D01*
X118053450Y-102767857D02*
X118089164Y-102839285D01*
X118089164Y-102839285D02*
X118089164Y-103053571D01*
X118089164Y-103053571D02*
X118053450Y-103124999D01*
X118053450Y-103124999D02*
X118017735Y-103160714D01*
X98474164Y-91124285D02*
X99009878Y-91124285D01*
X99009878Y-91124285D02*
X99117021Y-91160000D01*
X99117021Y-91160000D02*
X99188450Y-91231428D01*
X99188450Y-91231428D02*
X99224164Y-91338571D01*
X99224164Y-91338571D02*
X99224164Y-91410000D01*
X98474164Y-90409999D02*
X98474164Y-90767142D01*
X98474164Y-90767142D02*
X98831307Y-90802856D01*
X98831307Y-90802856D02*
X98795592Y-90767142D01*
X98795592Y-90767142D02*
X98759878Y-90695714D01*
X98759878Y-90695714D02*
X98759878Y-90517142D01*
X98759878Y-90517142D02*
X98795592Y-90445714D01*
X98795592Y-90445714D02*
X98831307Y-90409999D01*
X98831307Y-90409999D02*
X98902735Y-90374285D01*
X98902735Y-90374285D02*
X99081307Y-90374285D01*
X99081307Y-90374285D02*
X99152735Y-90409999D01*
X99152735Y-90409999D02*
X99188450Y-90445714D01*
X99188450Y-90445714D02*
X99224164Y-90517142D01*
X99224164Y-90517142D02*
X99224164Y-90695714D01*
X99224164Y-90695714D02*
X99188450Y-90767142D01*
X99188450Y-90767142D02*
X99152735Y-90802856D01*
X98474164Y-89909999D02*
X98474164Y-89838570D01*
X98474164Y-89838570D02*
X98509878Y-89767142D01*
X98509878Y-89767142D02*
X98545592Y-89731428D01*
X98545592Y-89731428D02*
X98617021Y-89695713D01*
X98617021Y-89695713D02*
X98759878Y-89659999D01*
X98759878Y-89659999D02*
X98938450Y-89659999D01*
X98938450Y-89659999D02*
X99081307Y-89695713D01*
X99081307Y-89695713D02*
X99152735Y-89731428D01*
X99152735Y-89731428D02*
X99188450Y-89767142D01*
X99188450Y-89767142D02*
X99224164Y-89838570D01*
X99224164Y-89838570D02*
X99224164Y-89909999D01*
X99224164Y-89909999D02*
X99188450Y-89981428D01*
X99188450Y-89981428D02*
X99152735Y-90017142D01*
X99152735Y-90017142D02*
X99081307Y-90052856D01*
X99081307Y-90052856D02*
X98938450Y-90088570D01*
X98938450Y-90088570D02*
X98759878Y-90088570D01*
X98759878Y-90088570D02*
X98617021Y-90052856D01*
X98617021Y-90052856D02*
X98545592Y-90017142D01*
X98545592Y-90017142D02*
X98509878Y-89981428D01*
X98509878Y-89981428D02*
X98474164Y-89909999D01*
X98474164Y-88981427D02*
X98474164Y-89338570D01*
X98474164Y-89338570D02*
X98831307Y-89374284D01*
X98831307Y-89374284D02*
X98795592Y-89338570D01*
X98795592Y-89338570D02*
X98759878Y-89267142D01*
X98759878Y-89267142D02*
X98759878Y-89088570D01*
X98759878Y-89088570D02*
X98795592Y-89017142D01*
X98795592Y-89017142D02*
X98831307Y-88981427D01*
X98831307Y-88981427D02*
X98902735Y-88945713D01*
X98902735Y-88945713D02*
X99081307Y-88945713D01*
X99081307Y-88945713D02*
X99152735Y-88981427D01*
X99152735Y-88981427D02*
X99188450Y-89017142D01*
X99188450Y-89017142D02*
X99224164Y-89088570D01*
X99224164Y-89088570D02*
X99224164Y-89267142D01*
X99224164Y-89267142D02*
X99188450Y-89338570D01*
X99188450Y-89338570D02*
X99152735Y-89374284D01*
X98955714Y-59159164D02*
X98955714Y-59694878D01*
X98955714Y-59694878D02*
X98919999Y-59802021D01*
X98919999Y-59802021D02*
X98848571Y-59873450D01*
X98848571Y-59873450D02*
X98741428Y-59909164D01*
X98741428Y-59909164D02*
X98669999Y-59909164D01*
X99670000Y-59159164D02*
X99312857Y-59159164D01*
X99312857Y-59159164D02*
X99277143Y-59516307D01*
X99277143Y-59516307D02*
X99312857Y-59480592D01*
X99312857Y-59480592D02*
X99384286Y-59444878D01*
X99384286Y-59444878D02*
X99562857Y-59444878D01*
X99562857Y-59444878D02*
X99634286Y-59480592D01*
X99634286Y-59480592D02*
X99670000Y-59516307D01*
X99670000Y-59516307D02*
X99705714Y-59587735D01*
X99705714Y-59587735D02*
X99705714Y-59766307D01*
X99705714Y-59766307D02*
X99670000Y-59837735D01*
X99670000Y-59837735D02*
X99634286Y-59873450D01*
X99634286Y-59873450D02*
X99562857Y-59909164D01*
X99562857Y-59909164D02*
X99384286Y-59909164D01*
X99384286Y-59909164D02*
X99312857Y-59873450D01*
X99312857Y-59873450D02*
X99277143Y-59837735D01*
X100170000Y-59159164D02*
X100241429Y-59159164D01*
X100241429Y-59159164D02*
X100312857Y-59194878D01*
X100312857Y-59194878D02*
X100348572Y-59230592D01*
X100348572Y-59230592D02*
X100384286Y-59302021D01*
X100384286Y-59302021D02*
X100420000Y-59444878D01*
X100420000Y-59444878D02*
X100420000Y-59623450D01*
X100420000Y-59623450D02*
X100384286Y-59766307D01*
X100384286Y-59766307D02*
X100348572Y-59837735D01*
X100348572Y-59837735D02*
X100312857Y-59873450D01*
X100312857Y-59873450D02*
X100241429Y-59909164D01*
X100241429Y-59909164D02*
X100170000Y-59909164D01*
X100170000Y-59909164D02*
X100098572Y-59873450D01*
X100098572Y-59873450D02*
X100062857Y-59837735D01*
X100062857Y-59837735D02*
X100027143Y-59766307D01*
X100027143Y-59766307D02*
X99991429Y-59623450D01*
X99991429Y-59623450D02*
X99991429Y-59444878D01*
X99991429Y-59444878D02*
X100027143Y-59302021D01*
X100027143Y-59302021D02*
X100062857Y-59230592D01*
X100062857Y-59230592D02*
X100098572Y-59194878D01*
X100098572Y-59194878D02*
X100170000Y-59159164D01*
X100670000Y-59159164D02*
X101170000Y-59159164D01*
X101170000Y-59159164D02*
X100848572Y-59909164D01*
X99670835Y-79235714D02*
X99135121Y-79235714D01*
X99135121Y-79235714D02*
X99027978Y-79199999D01*
X99027978Y-79199999D02*
X98956550Y-79128571D01*
X98956550Y-79128571D02*
X98920835Y-79021428D01*
X98920835Y-79021428D02*
X98920835Y-78949999D01*
X99670835Y-79950000D02*
X99670835Y-79592857D01*
X99670835Y-79592857D02*
X99313692Y-79557143D01*
X99313692Y-79557143D02*
X99349407Y-79592857D01*
X99349407Y-79592857D02*
X99385121Y-79664286D01*
X99385121Y-79664286D02*
X99385121Y-79842857D01*
X99385121Y-79842857D02*
X99349407Y-79914286D01*
X99349407Y-79914286D02*
X99313692Y-79950000D01*
X99313692Y-79950000D02*
X99242264Y-79985714D01*
X99242264Y-79985714D02*
X99063692Y-79985714D01*
X99063692Y-79985714D02*
X98992264Y-79950000D01*
X98992264Y-79950000D02*
X98956550Y-79914286D01*
X98956550Y-79914286D02*
X98920835Y-79842857D01*
X98920835Y-79842857D02*
X98920835Y-79664286D01*
X98920835Y-79664286D02*
X98956550Y-79592857D01*
X98956550Y-79592857D02*
X98992264Y-79557143D01*
X99670835Y-80450000D02*
X99670835Y-80521429D01*
X99670835Y-80521429D02*
X99635121Y-80592857D01*
X99635121Y-80592857D02*
X99599407Y-80628572D01*
X99599407Y-80628572D02*
X99527978Y-80664286D01*
X99527978Y-80664286D02*
X99385121Y-80700000D01*
X99385121Y-80700000D02*
X99206550Y-80700000D01*
X99206550Y-80700000D02*
X99063692Y-80664286D01*
X99063692Y-80664286D02*
X98992264Y-80628572D01*
X98992264Y-80628572D02*
X98956550Y-80592857D01*
X98956550Y-80592857D02*
X98920835Y-80521429D01*
X98920835Y-80521429D02*
X98920835Y-80450000D01*
X98920835Y-80450000D02*
X98956550Y-80378572D01*
X98956550Y-80378572D02*
X98992264Y-80342857D01*
X98992264Y-80342857D02*
X99063692Y-80307143D01*
X99063692Y-80307143D02*
X99206550Y-80271429D01*
X99206550Y-80271429D02*
X99385121Y-80271429D01*
X99385121Y-80271429D02*
X99527978Y-80307143D01*
X99527978Y-80307143D02*
X99599407Y-80342857D01*
X99599407Y-80342857D02*
X99635121Y-80378572D01*
X99635121Y-80378572D02*
X99670835Y-80450000D01*
X99599407Y-80985715D02*
X99635121Y-81021429D01*
X99635121Y-81021429D02*
X99670835Y-81092858D01*
X99670835Y-81092858D02*
X99670835Y-81271429D01*
X99670835Y-81271429D02*
X99635121Y-81342858D01*
X99635121Y-81342858D02*
X99599407Y-81378572D01*
X99599407Y-81378572D02*
X99527978Y-81414286D01*
X99527978Y-81414286D02*
X99456550Y-81414286D01*
X99456550Y-81414286D02*
X99349407Y-81378572D01*
X99349407Y-81378572D02*
X98920835Y-80950000D01*
X98920835Y-80950000D02*
X98920835Y-81414286D01*
X125339164Y-105164285D02*
X125874878Y-105164285D01*
X125874878Y-105164285D02*
X125982021Y-105200000D01*
X125982021Y-105200000D02*
X126053450Y-105271428D01*
X126053450Y-105271428D02*
X126089164Y-105378571D01*
X126089164Y-105378571D02*
X126089164Y-105450000D01*
X125339164Y-104449999D02*
X125339164Y-104807142D01*
X125339164Y-104807142D02*
X125696307Y-104842856D01*
X125696307Y-104842856D02*
X125660592Y-104807142D01*
X125660592Y-104807142D02*
X125624878Y-104735714D01*
X125624878Y-104735714D02*
X125624878Y-104557142D01*
X125624878Y-104557142D02*
X125660592Y-104485714D01*
X125660592Y-104485714D02*
X125696307Y-104449999D01*
X125696307Y-104449999D02*
X125767735Y-104414285D01*
X125767735Y-104414285D02*
X125946307Y-104414285D01*
X125946307Y-104414285D02*
X126017735Y-104449999D01*
X126017735Y-104449999D02*
X126053450Y-104485714D01*
X126053450Y-104485714D02*
X126089164Y-104557142D01*
X126089164Y-104557142D02*
X126089164Y-104735714D01*
X126089164Y-104735714D02*
X126053450Y-104807142D01*
X126053450Y-104807142D02*
X126017735Y-104842856D01*
X125339164Y-103949999D02*
X125339164Y-103878570D01*
X125339164Y-103878570D02*
X125374878Y-103807142D01*
X125374878Y-103807142D02*
X125410592Y-103771428D01*
X125410592Y-103771428D02*
X125482021Y-103735713D01*
X125482021Y-103735713D02*
X125624878Y-103699999D01*
X125624878Y-103699999D02*
X125803450Y-103699999D01*
X125803450Y-103699999D02*
X125946307Y-103735713D01*
X125946307Y-103735713D02*
X126017735Y-103771428D01*
X126017735Y-103771428D02*
X126053450Y-103807142D01*
X126053450Y-103807142D02*
X126089164Y-103878570D01*
X126089164Y-103878570D02*
X126089164Y-103949999D01*
X126089164Y-103949999D02*
X126053450Y-104021428D01*
X126053450Y-104021428D02*
X126017735Y-104057142D01*
X126017735Y-104057142D02*
X125946307Y-104092856D01*
X125946307Y-104092856D02*
X125803450Y-104128570D01*
X125803450Y-104128570D02*
X125624878Y-104128570D01*
X125624878Y-104128570D02*
X125482021Y-104092856D01*
X125482021Y-104092856D02*
X125410592Y-104057142D01*
X125410592Y-104057142D02*
X125374878Y-104021428D01*
X125374878Y-104021428D02*
X125339164Y-103949999D01*
X125339164Y-103449999D02*
X125339164Y-102985713D01*
X125339164Y-102985713D02*
X125624878Y-103235713D01*
X125624878Y-103235713D02*
X125624878Y-103128570D01*
X125624878Y-103128570D02*
X125660592Y-103057142D01*
X125660592Y-103057142D02*
X125696307Y-103021427D01*
X125696307Y-103021427D02*
X125767735Y-102985713D01*
X125767735Y-102985713D02*
X125946307Y-102985713D01*
X125946307Y-102985713D02*
X126017735Y-103021427D01*
X126017735Y-103021427D02*
X126053450Y-103057142D01*
X126053450Y-103057142D02*
X126089164Y-103128570D01*
X126089164Y-103128570D02*
X126089164Y-103342856D01*
X126089164Y-103342856D02*
X126053450Y-103414284D01*
X126053450Y-103414284D02*
X126017735Y-103449999D01*
X120090713Y-83007734D02*
X120054999Y-83043449D01*
X120054999Y-83043449D02*
X119947856Y-83079163D01*
X119947856Y-83079163D02*
X119876428Y-83079163D01*
X119876428Y-83079163D02*
X119769285Y-83043449D01*
X119769285Y-83043449D02*
X119697856Y-82972020D01*
X119697856Y-82972020D02*
X119662142Y-82900591D01*
X119662142Y-82900591D02*
X119626428Y-82757734D01*
X119626428Y-82757734D02*
X119626428Y-82650591D01*
X119626428Y-82650591D02*
X119662142Y-82507734D01*
X119662142Y-82507734D02*
X119697856Y-82436306D01*
X119697856Y-82436306D02*
X119769285Y-82364877D01*
X119769285Y-82364877D02*
X119876428Y-82329163D01*
X119876428Y-82329163D02*
X119947856Y-82329163D01*
X119947856Y-82329163D02*
X120054999Y-82364877D01*
X120054999Y-82364877D02*
X120090713Y-82400591D01*
X120733571Y-82579163D02*
X120733571Y-83079163D01*
X120554999Y-82293449D02*
X120376428Y-82829163D01*
X120376428Y-82829163D02*
X120840713Y-82829163D01*
X121269285Y-82329163D02*
X121340714Y-82329163D01*
X121340714Y-82329163D02*
X121412142Y-82364877D01*
X121412142Y-82364877D02*
X121447857Y-82400591D01*
X121447857Y-82400591D02*
X121483571Y-82472020D01*
X121483571Y-82472020D02*
X121519285Y-82614877D01*
X121519285Y-82614877D02*
X121519285Y-82793449D01*
X121519285Y-82793449D02*
X121483571Y-82936306D01*
X121483571Y-82936306D02*
X121447857Y-83007734D01*
X121447857Y-83007734D02*
X121412142Y-83043449D01*
X121412142Y-83043449D02*
X121340714Y-83079163D01*
X121340714Y-83079163D02*
X121269285Y-83079163D01*
X121269285Y-83079163D02*
X121197857Y-83043449D01*
X121197857Y-83043449D02*
X121162142Y-83007734D01*
X121162142Y-83007734D02*
X121126428Y-82936306D01*
X121126428Y-82936306D02*
X121090714Y-82793449D01*
X121090714Y-82793449D02*
X121090714Y-82614877D01*
X121090714Y-82614877D02*
X121126428Y-82472020D01*
X121126428Y-82472020D02*
X121162142Y-82400591D01*
X121162142Y-82400591D02*
X121197857Y-82364877D01*
X121197857Y-82364877D02*
X121269285Y-82329163D01*
X122162143Y-82579163D02*
X122162143Y-83079163D01*
X121983571Y-82293449D02*
X121805000Y-82829163D01*
X121805000Y-82829163D02*
X122269285Y-82829163D01*
X119854164Y-74103214D02*
X120461307Y-74103214D01*
X120461307Y-74103214D02*
X120532735Y-74067500D01*
X120532735Y-74067500D02*
X120568450Y-74031786D01*
X120568450Y-74031786D02*
X120604164Y-73960357D01*
X120604164Y-73960357D02*
X120604164Y-73817500D01*
X120604164Y-73817500D02*
X120568450Y-73746071D01*
X120568450Y-73746071D02*
X120532735Y-73710357D01*
X120532735Y-73710357D02*
X120461307Y-73674643D01*
X120461307Y-73674643D02*
X119854164Y-73674643D01*
X119854164Y-73388929D02*
X119854164Y-72924643D01*
X119854164Y-72924643D02*
X120139878Y-73174643D01*
X120139878Y-73174643D02*
X120139878Y-73067500D01*
X120139878Y-73067500D02*
X120175592Y-72996072D01*
X120175592Y-72996072D02*
X120211307Y-72960357D01*
X120211307Y-72960357D02*
X120282735Y-72924643D01*
X120282735Y-72924643D02*
X120461307Y-72924643D01*
X120461307Y-72924643D02*
X120532735Y-72960357D01*
X120532735Y-72960357D02*
X120568450Y-72996072D01*
X120568450Y-72996072D02*
X120604164Y-73067500D01*
X120604164Y-73067500D02*
X120604164Y-73281786D01*
X120604164Y-73281786D02*
X120568450Y-73353214D01*
X120568450Y-73353214D02*
X120532735Y-73388929D01*
X119854164Y-72460357D02*
X119854164Y-72388928D01*
X119854164Y-72388928D02*
X119889878Y-72317500D01*
X119889878Y-72317500D02*
X119925592Y-72281786D01*
X119925592Y-72281786D02*
X119997021Y-72246071D01*
X119997021Y-72246071D02*
X120139878Y-72210357D01*
X120139878Y-72210357D02*
X120318450Y-72210357D01*
X120318450Y-72210357D02*
X120461307Y-72246071D01*
X120461307Y-72246071D02*
X120532735Y-72281786D01*
X120532735Y-72281786D02*
X120568450Y-72317500D01*
X120568450Y-72317500D02*
X120604164Y-72388928D01*
X120604164Y-72388928D02*
X120604164Y-72460357D01*
X120604164Y-72460357D02*
X120568450Y-72531786D01*
X120568450Y-72531786D02*
X120532735Y-72567500D01*
X120532735Y-72567500D02*
X120461307Y-72603214D01*
X120461307Y-72603214D02*
X120318450Y-72638928D01*
X120318450Y-72638928D02*
X120139878Y-72638928D01*
X120139878Y-72638928D02*
X119997021Y-72603214D01*
X119997021Y-72603214D02*
X119925592Y-72567500D01*
X119925592Y-72567500D02*
X119889878Y-72531786D01*
X119889878Y-72531786D02*
X119854164Y-72460357D01*
X120604164Y-71496071D02*
X120604164Y-71924642D01*
X120604164Y-71710357D02*
X119854164Y-71710357D01*
X119854164Y-71710357D02*
X119961307Y-71781785D01*
X119961307Y-71781785D02*
X120032735Y-71853214D01*
X120032735Y-71853214D02*
X120068450Y-71924642D01*
X120329164Y-101939286D02*
X119972021Y-102189286D01*
X120329164Y-102367857D02*
X119579164Y-102367857D01*
X119579164Y-102367857D02*
X119579164Y-102082143D01*
X119579164Y-102082143D02*
X119614878Y-102010714D01*
X119614878Y-102010714D02*
X119650592Y-101975000D01*
X119650592Y-101975000D02*
X119722021Y-101939286D01*
X119722021Y-101939286D02*
X119829164Y-101939286D01*
X119829164Y-101939286D02*
X119900592Y-101975000D01*
X119900592Y-101975000D02*
X119936307Y-102010714D01*
X119936307Y-102010714D02*
X119972021Y-102082143D01*
X119972021Y-102082143D02*
X119972021Y-102367857D01*
X119579164Y-101689286D02*
X119579164Y-101189286D01*
X119579164Y-101189286D02*
X120329164Y-101510714D01*
X119579164Y-100760714D02*
X119579164Y-100689285D01*
X119579164Y-100689285D02*
X119614878Y-100617857D01*
X119614878Y-100617857D02*
X119650592Y-100582143D01*
X119650592Y-100582143D02*
X119722021Y-100546428D01*
X119722021Y-100546428D02*
X119864878Y-100510714D01*
X119864878Y-100510714D02*
X120043450Y-100510714D01*
X120043450Y-100510714D02*
X120186307Y-100546428D01*
X120186307Y-100546428D02*
X120257735Y-100582143D01*
X120257735Y-100582143D02*
X120293450Y-100617857D01*
X120293450Y-100617857D02*
X120329164Y-100689285D01*
X120329164Y-100689285D02*
X120329164Y-100760714D01*
X120329164Y-100760714D02*
X120293450Y-100832143D01*
X120293450Y-100832143D02*
X120257735Y-100867857D01*
X120257735Y-100867857D02*
X120186307Y-100903571D01*
X120186307Y-100903571D02*
X120043450Y-100939285D01*
X120043450Y-100939285D02*
X119864878Y-100939285D01*
X119864878Y-100939285D02*
X119722021Y-100903571D01*
X119722021Y-100903571D02*
X119650592Y-100867857D01*
X119650592Y-100867857D02*
X119614878Y-100832143D01*
X119614878Y-100832143D02*
X119579164Y-100760714D01*
X119579164Y-99867857D02*
X119579164Y-100010714D01*
X119579164Y-100010714D02*
X119614878Y-100082142D01*
X119614878Y-100082142D02*
X119650592Y-100117857D01*
X119650592Y-100117857D02*
X119757735Y-100189285D01*
X119757735Y-100189285D02*
X119900592Y-100224999D01*
X119900592Y-100224999D02*
X120186307Y-100224999D01*
X120186307Y-100224999D02*
X120257735Y-100189285D01*
X120257735Y-100189285D02*
X120293450Y-100153571D01*
X120293450Y-100153571D02*
X120329164Y-100082142D01*
X120329164Y-100082142D02*
X120329164Y-99939285D01*
X120329164Y-99939285D02*
X120293450Y-99867857D01*
X120293450Y-99867857D02*
X120257735Y-99832142D01*
X120257735Y-99832142D02*
X120186307Y-99796428D01*
X120186307Y-99796428D02*
X120007735Y-99796428D01*
X120007735Y-99796428D02*
X119936307Y-99832142D01*
X119936307Y-99832142D02*
X119900592Y-99867857D01*
X119900592Y-99867857D02*
X119864878Y-99939285D01*
X119864878Y-99939285D02*
X119864878Y-100082142D01*
X119864878Y-100082142D02*
X119900592Y-100153571D01*
X119900592Y-100153571D02*
X119936307Y-100189285D01*
X119936307Y-100189285D02*
X120007735Y-100224999D01*
X106372834Y-97824285D02*
X105765691Y-97824285D01*
X105765691Y-97824285D02*
X105694263Y-97859999D01*
X105694263Y-97859999D02*
X105658549Y-97895714D01*
X105658549Y-97895714D02*
X105622834Y-97967142D01*
X105622834Y-97967142D02*
X105622834Y-98109999D01*
X105622834Y-98109999D02*
X105658549Y-98181428D01*
X105658549Y-98181428D02*
X105694263Y-98217142D01*
X105694263Y-98217142D02*
X105765691Y-98252856D01*
X105765691Y-98252856D02*
X106372834Y-98252856D01*
X106372834Y-98538570D02*
X106372834Y-99038570D01*
X106372834Y-99038570D02*
X105622834Y-98717142D01*
X106372834Y-99467142D02*
X106372834Y-99538571D01*
X106372834Y-99538571D02*
X106337120Y-99609999D01*
X106337120Y-99609999D02*
X106301406Y-99645714D01*
X106301406Y-99645714D02*
X106229977Y-99681428D01*
X106229977Y-99681428D02*
X106087120Y-99717142D01*
X106087120Y-99717142D02*
X105908549Y-99717142D01*
X105908549Y-99717142D02*
X105765691Y-99681428D01*
X105765691Y-99681428D02*
X105694263Y-99645714D01*
X105694263Y-99645714D02*
X105658549Y-99609999D01*
X105658549Y-99609999D02*
X105622834Y-99538571D01*
X105622834Y-99538571D02*
X105622834Y-99467142D01*
X105622834Y-99467142D02*
X105658549Y-99395714D01*
X105658549Y-99395714D02*
X105694263Y-99359999D01*
X105694263Y-99359999D02*
X105765691Y-99324285D01*
X105765691Y-99324285D02*
X105908549Y-99288571D01*
X105908549Y-99288571D02*
X106087120Y-99288571D01*
X106087120Y-99288571D02*
X106229977Y-99324285D01*
X106229977Y-99324285D02*
X106301406Y-99359999D01*
X106301406Y-99359999D02*
X106337120Y-99395714D01*
X106337120Y-99395714D02*
X106372834Y-99467142D01*
X106372834Y-99967142D02*
X106372834Y-100431428D01*
X106372834Y-100431428D02*
X106087120Y-100181428D01*
X106087120Y-100181428D02*
X106087120Y-100288571D01*
X106087120Y-100288571D02*
X106051406Y-100360000D01*
X106051406Y-100360000D02*
X106015691Y-100395714D01*
X106015691Y-100395714D02*
X105944263Y-100431428D01*
X105944263Y-100431428D02*
X105765691Y-100431428D01*
X105765691Y-100431428D02*
X105694263Y-100395714D01*
X105694263Y-100395714D02*
X105658549Y-100360000D01*
X105658549Y-100360000D02*
X105622834Y-100288571D01*
X105622834Y-100288571D02*
X105622834Y-100074285D01*
X105622834Y-100074285D02*
X105658549Y-100002857D01*
X105658549Y-100002857D02*
X105694263Y-99967142D01*
X108884819Y-97519999D02*
X109122914Y-97519999D01*
X109027676Y-97758094D02*
X109122914Y-97519999D01*
X109122914Y-97519999D02*
X109027676Y-97281904D01*
X109313390Y-97662856D02*
X109122914Y-97519999D01*
X109122914Y-97519999D02*
X109313390Y-97377142D01*
X111119164Y-100066786D02*
X110762021Y-100316786D01*
X111119164Y-100495357D02*
X110369164Y-100495357D01*
X110369164Y-100495357D02*
X110369164Y-100209643D01*
X110369164Y-100209643D02*
X110404878Y-100138214D01*
X110404878Y-100138214D02*
X110440592Y-100102500D01*
X110440592Y-100102500D02*
X110512021Y-100066786D01*
X110512021Y-100066786D02*
X110619164Y-100066786D01*
X110619164Y-100066786D02*
X110690592Y-100102500D01*
X110690592Y-100102500D02*
X110726307Y-100138214D01*
X110726307Y-100138214D02*
X110762021Y-100209643D01*
X110762021Y-100209643D02*
X110762021Y-100495357D01*
X110369164Y-99816786D02*
X110369164Y-99316786D01*
X110369164Y-99316786D02*
X111119164Y-99638214D01*
X110369164Y-98888214D02*
X110369164Y-98816785D01*
X110369164Y-98816785D02*
X110404878Y-98745357D01*
X110404878Y-98745357D02*
X110440592Y-98709643D01*
X110440592Y-98709643D02*
X110512021Y-98673928D01*
X110512021Y-98673928D02*
X110654878Y-98638214D01*
X110654878Y-98638214D02*
X110833450Y-98638214D01*
X110833450Y-98638214D02*
X110976307Y-98673928D01*
X110976307Y-98673928D02*
X111047735Y-98709643D01*
X111047735Y-98709643D02*
X111083450Y-98745357D01*
X111083450Y-98745357D02*
X111119164Y-98816785D01*
X111119164Y-98816785D02*
X111119164Y-98888214D01*
X111119164Y-98888214D02*
X111083450Y-98959643D01*
X111083450Y-98959643D02*
X111047735Y-98995357D01*
X111047735Y-98995357D02*
X110976307Y-99031071D01*
X110976307Y-99031071D02*
X110833450Y-99066785D01*
X110833450Y-99066785D02*
X110654878Y-99066785D01*
X110654878Y-99066785D02*
X110512021Y-99031071D01*
X110512021Y-99031071D02*
X110440592Y-98995357D01*
X110440592Y-98995357D02*
X110404878Y-98959643D01*
X110404878Y-98959643D02*
X110369164Y-98888214D01*
X110619164Y-97995357D02*
X111119164Y-97995357D01*
X110333450Y-98173928D02*
X110869164Y-98352499D01*
X110869164Y-98352499D02*
X110869164Y-97888214D01*
X110029164Y-83775714D02*
X110636307Y-83775714D01*
X110636307Y-83775714D02*
X110707735Y-83740000D01*
X110707735Y-83740000D02*
X110743450Y-83704286D01*
X110743450Y-83704286D02*
X110779164Y-83632857D01*
X110779164Y-83632857D02*
X110779164Y-83490000D01*
X110779164Y-83490000D02*
X110743450Y-83418571D01*
X110743450Y-83418571D02*
X110707735Y-83382857D01*
X110707735Y-83382857D02*
X110636307Y-83347143D01*
X110636307Y-83347143D02*
X110029164Y-83347143D01*
X110279164Y-82668572D02*
X110779164Y-82668572D01*
X109993450Y-82847143D02*
X110529164Y-83025714D01*
X110529164Y-83025714D02*
X110529164Y-82561429D01*
X110029164Y-82132857D02*
X110029164Y-82061428D01*
X110029164Y-82061428D02*
X110064878Y-81990000D01*
X110064878Y-81990000D02*
X110100592Y-81954286D01*
X110100592Y-81954286D02*
X110172021Y-81918571D01*
X110172021Y-81918571D02*
X110314878Y-81882857D01*
X110314878Y-81882857D02*
X110493450Y-81882857D01*
X110493450Y-81882857D02*
X110636307Y-81918571D01*
X110636307Y-81918571D02*
X110707735Y-81954286D01*
X110707735Y-81954286D02*
X110743450Y-81990000D01*
X110743450Y-81990000D02*
X110779164Y-82061428D01*
X110779164Y-82061428D02*
X110779164Y-82132857D01*
X110779164Y-82132857D02*
X110743450Y-82204286D01*
X110743450Y-82204286D02*
X110707735Y-82240000D01*
X110707735Y-82240000D02*
X110636307Y-82275714D01*
X110636307Y-82275714D02*
X110493450Y-82311428D01*
X110493450Y-82311428D02*
X110314878Y-82311428D01*
X110314878Y-82311428D02*
X110172021Y-82275714D01*
X110172021Y-82275714D02*
X110100592Y-82240000D01*
X110100592Y-82240000D02*
X110064878Y-82204286D01*
X110064878Y-82204286D02*
X110029164Y-82132857D01*
X110100592Y-81597142D02*
X110064878Y-81561428D01*
X110064878Y-81561428D02*
X110029164Y-81490000D01*
X110029164Y-81490000D02*
X110029164Y-81311428D01*
X110029164Y-81311428D02*
X110064878Y-81240000D01*
X110064878Y-81240000D02*
X110100592Y-81204285D01*
X110100592Y-81204285D02*
X110172021Y-81168571D01*
X110172021Y-81168571D02*
X110243450Y-81168571D01*
X110243450Y-81168571D02*
X110350592Y-81204285D01*
X110350592Y-81204285D02*
X110779164Y-81632857D01*
X110779164Y-81632857D02*
X110779164Y-81168571D01*
X115350713Y-82107735D02*
X115314999Y-82143450D01*
X115314999Y-82143450D02*
X115207856Y-82179164D01*
X115207856Y-82179164D02*
X115136428Y-82179164D01*
X115136428Y-82179164D02*
X115029285Y-82143450D01*
X115029285Y-82143450D02*
X114957856Y-82072021D01*
X114957856Y-82072021D02*
X114922142Y-82000592D01*
X114922142Y-82000592D02*
X114886428Y-81857735D01*
X114886428Y-81857735D02*
X114886428Y-81750592D01*
X114886428Y-81750592D02*
X114922142Y-81607735D01*
X114922142Y-81607735D02*
X114957856Y-81536307D01*
X114957856Y-81536307D02*
X115029285Y-81464878D01*
X115029285Y-81464878D02*
X115136428Y-81429164D01*
X115136428Y-81429164D02*
X115207856Y-81429164D01*
X115207856Y-81429164D02*
X115314999Y-81464878D01*
X115314999Y-81464878D02*
X115350713Y-81500592D01*
X115993571Y-81679164D02*
X115993571Y-82179164D01*
X115814999Y-81393450D02*
X115636428Y-81929164D01*
X115636428Y-81929164D02*
X116100713Y-81929164D01*
X116529285Y-81429164D02*
X116600714Y-81429164D01*
X116600714Y-81429164D02*
X116672142Y-81464878D01*
X116672142Y-81464878D02*
X116707857Y-81500592D01*
X116707857Y-81500592D02*
X116743571Y-81572021D01*
X116743571Y-81572021D02*
X116779285Y-81714878D01*
X116779285Y-81714878D02*
X116779285Y-81893450D01*
X116779285Y-81893450D02*
X116743571Y-82036307D01*
X116743571Y-82036307D02*
X116707857Y-82107735D01*
X116707857Y-82107735D02*
X116672142Y-82143450D01*
X116672142Y-82143450D02*
X116600714Y-82179164D01*
X116600714Y-82179164D02*
X116529285Y-82179164D01*
X116529285Y-82179164D02*
X116457857Y-82143450D01*
X116457857Y-82143450D02*
X116422142Y-82107735D01*
X116422142Y-82107735D02*
X116386428Y-82036307D01*
X116386428Y-82036307D02*
X116350714Y-81893450D01*
X116350714Y-81893450D02*
X116350714Y-81714878D01*
X116350714Y-81714878D02*
X116386428Y-81572021D01*
X116386428Y-81572021D02*
X116422142Y-81500592D01*
X116422142Y-81500592D02*
X116457857Y-81464878D01*
X116457857Y-81464878D02*
X116529285Y-81429164D01*
X117493571Y-82179164D02*
X117065000Y-82179164D01*
X117279285Y-82179164D02*
X117279285Y-81429164D01*
X117279285Y-81429164D02*
X117207857Y-81536307D01*
X117207857Y-81536307D02*
X117136428Y-81607735D01*
X117136428Y-81607735D02*
X117065000Y-81643450D01*
X108363213Y-95379164D02*
X108113213Y-95022021D01*
X107934642Y-95379164D02*
X107934642Y-94629164D01*
X107934642Y-94629164D02*
X108220356Y-94629164D01*
X108220356Y-94629164D02*
X108291785Y-94664878D01*
X108291785Y-94664878D02*
X108327499Y-94700592D01*
X108327499Y-94700592D02*
X108363213Y-94772021D01*
X108363213Y-94772021D02*
X108363213Y-94879164D01*
X108363213Y-94879164D02*
X108327499Y-94950592D01*
X108327499Y-94950592D02*
X108291785Y-94986307D01*
X108291785Y-94986307D02*
X108220356Y-95022021D01*
X108220356Y-95022021D02*
X107934642Y-95022021D01*
X108613213Y-94629164D02*
X109113213Y-94629164D01*
X109113213Y-94629164D02*
X108791785Y-95379164D01*
X109791785Y-95379164D02*
X109363214Y-95379164D01*
X109577499Y-95379164D02*
X109577499Y-94629164D01*
X109577499Y-94629164D02*
X109506071Y-94736307D01*
X109506071Y-94736307D02*
X109434642Y-94807735D01*
X109434642Y-94807735D02*
X109363214Y-94843450D01*
X110470357Y-94629164D02*
X110113214Y-94629164D01*
X110113214Y-94629164D02*
X110077500Y-94986307D01*
X110077500Y-94986307D02*
X110113214Y-94950592D01*
X110113214Y-94950592D02*
X110184643Y-94914878D01*
X110184643Y-94914878D02*
X110363214Y-94914878D01*
X110363214Y-94914878D02*
X110434643Y-94950592D01*
X110434643Y-94950592D02*
X110470357Y-94986307D01*
X110470357Y-94986307D02*
X110506071Y-95057735D01*
X110506071Y-95057735D02*
X110506071Y-95236307D01*
X110506071Y-95236307D02*
X110470357Y-95307735D01*
X110470357Y-95307735D02*
X110434643Y-95343450D01*
X110434643Y-95343450D02*
X110363214Y-95379164D01*
X110363214Y-95379164D02*
X110184643Y-95379164D01*
X110184643Y-95379164D02*
X110113214Y-95343450D01*
X110113214Y-95343450D02*
X110077500Y-95307735D01*
X113759164Y-99046786D02*
X113402021Y-99296786D01*
X113759164Y-99475357D02*
X113009164Y-99475357D01*
X113009164Y-99475357D02*
X113009164Y-99189643D01*
X113009164Y-99189643D02*
X113044878Y-99118214D01*
X113044878Y-99118214D02*
X113080592Y-99082500D01*
X113080592Y-99082500D02*
X113152021Y-99046786D01*
X113152021Y-99046786D02*
X113259164Y-99046786D01*
X113259164Y-99046786D02*
X113330592Y-99082500D01*
X113330592Y-99082500D02*
X113366307Y-99118214D01*
X113366307Y-99118214D02*
X113402021Y-99189643D01*
X113402021Y-99189643D02*
X113402021Y-99475357D01*
X113009164Y-98796786D02*
X113009164Y-98296786D01*
X113009164Y-98296786D02*
X113759164Y-98618214D01*
X113009164Y-97868214D02*
X113009164Y-97796785D01*
X113009164Y-97796785D02*
X113044878Y-97725357D01*
X113044878Y-97725357D02*
X113080592Y-97689643D01*
X113080592Y-97689643D02*
X113152021Y-97653928D01*
X113152021Y-97653928D02*
X113294878Y-97618214D01*
X113294878Y-97618214D02*
X113473450Y-97618214D01*
X113473450Y-97618214D02*
X113616307Y-97653928D01*
X113616307Y-97653928D02*
X113687735Y-97689643D01*
X113687735Y-97689643D02*
X113723450Y-97725357D01*
X113723450Y-97725357D02*
X113759164Y-97796785D01*
X113759164Y-97796785D02*
X113759164Y-97868214D01*
X113759164Y-97868214D02*
X113723450Y-97939643D01*
X113723450Y-97939643D02*
X113687735Y-97975357D01*
X113687735Y-97975357D02*
X113616307Y-98011071D01*
X113616307Y-98011071D02*
X113473450Y-98046785D01*
X113473450Y-98046785D02*
X113294878Y-98046785D01*
X113294878Y-98046785D02*
X113152021Y-98011071D01*
X113152021Y-98011071D02*
X113080592Y-97975357D01*
X113080592Y-97975357D02*
X113044878Y-97939643D01*
X113044878Y-97939643D02*
X113009164Y-97868214D01*
X113759164Y-96903928D02*
X113759164Y-97332499D01*
X113759164Y-97118214D02*
X113009164Y-97118214D01*
X113009164Y-97118214D02*
X113116307Y-97189642D01*
X113116307Y-97189642D02*
X113187735Y-97261071D01*
X113187735Y-97261071D02*
X113223450Y-97332499D01*
X105769164Y-96174286D02*
X105412021Y-96424286D01*
X105769164Y-96602857D02*
X105019164Y-96602857D01*
X105019164Y-96602857D02*
X105019164Y-96317143D01*
X105019164Y-96317143D02*
X105054878Y-96245714D01*
X105054878Y-96245714D02*
X105090592Y-96210000D01*
X105090592Y-96210000D02*
X105162021Y-96174286D01*
X105162021Y-96174286D02*
X105269164Y-96174286D01*
X105269164Y-96174286D02*
X105340592Y-96210000D01*
X105340592Y-96210000D02*
X105376307Y-96245714D01*
X105376307Y-96245714D02*
X105412021Y-96317143D01*
X105412021Y-96317143D02*
X105412021Y-96602857D01*
X105019164Y-95924286D02*
X105019164Y-95424286D01*
X105019164Y-95424286D02*
X105769164Y-95745714D01*
X105769164Y-94745714D02*
X105769164Y-95174285D01*
X105769164Y-94960000D02*
X105019164Y-94960000D01*
X105019164Y-94960000D02*
X105126307Y-95031428D01*
X105126307Y-95031428D02*
X105197735Y-95102857D01*
X105197735Y-95102857D02*
X105233450Y-95174285D01*
X105019164Y-94495714D02*
X105019164Y-93995714D01*
X105019164Y-93995714D02*
X105769164Y-94317142D01*
X107666709Y-91206360D02*
X107742471Y-90777045D01*
X107363663Y-90903314D02*
X107893994Y-90372984D01*
X107893994Y-90372984D02*
X108096024Y-90575015D01*
X108096024Y-90575015D02*
X108121278Y-90650776D01*
X108121278Y-90650776D02*
X108121278Y-90701284D01*
X108121278Y-90701284D02*
X108096024Y-90777045D01*
X108096024Y-90777045D02*
X108020263Y-90852807D01*
X108020263Y-90852807D02*
X107944501Y-90878060D01*
X107944501Y-90878060D02*
X107893994Y-90878060D01*
X107893994Y-90878060D02*
X107818232Y-90852807D01*
X107818232Y-90852807D02*
X107616202Y-90650776D01*
X108373816Y-90852807D02*
X108702116Y-91181106D01*
X108702116Y-91181106D02*
X108323308Y-91206360D01*
X108323308Y-91206360D02*
X108399070Y-91282121D01*
X108399070Y-91282121D02*
X108424324Y-91357883D01*
X108424324Y-91357883D02*
X108424324Y-91408390D01*
X108424324Y-91408390D02*
X108399070Y-91484152D01*
X108399070Y-91484152D02*
X108272801Y-91610421D01*
X108272801Y-91610421D02*
X108197039Y-91635675D01*
X108197039Y-91635675D02*
X108146532Y-91635675D01*
X108146532Y-91635675D02*
X108070770Y-91610421D01*
X108070770Y-91610421D02*
X107919247Y-91458898D01*
X107919247Y-91458898D02*
X107893994Y-91383137D01*
X107893994Y-91383137D02*
X107893994Y-91332629D01*
X109030415Y-91509406D02*
X109080923Y-91559914D01*
X109080923Y-91559914D02*
X109106177Y-91635675D01*
X109106177Y-91635675D02*
X109106177Y-91686183D01*
X109106177Y-91686183D02*
X109080923Y-91761944D01*
X109080923Y-91761944D02*
X109005162Y-91888213D01*
X109005162Y-91888213D02*
X108878892Y-92014482D01*
X108878892Y-92014482D02*
X108752623Y-92090244D01*
X108752623Y-92090244D02*
X108676862Y-92115497D01*
X108676862Y-92115497D02*
X108626354Y-92115497D01*
X108626354Y-92115497D02*
X108550593Y-92090244D01*
X108550593Y-92090244D02*
X108500085Y-92039736D01*
X108500085Y-92039736D02*
X108474831Y-91963975D01*
X108474831Y-91963975D02*
X108474831Y-91913467D01*
X108474831Y-91913467D02*
X108500085Y-91837705D01*
X108500085Y-91837705D02*
X108575847Y-91711436D01*
X108575847Y-91711436D02*
X108702116Y-91585167D01*
X108702116Y-91585167D02*
X108828385Y-91509406D01*
X108828385Y-91509406D02*
X108904146Y-91484152D01*
X108904146Y-91484152D02*
X108954654Y-91484152D01*
X108954654Y-91484152D02*
X109030415Y-91509406D01*
X109484984Y-92317528D02*
X109131431Y-92671082D01*
X109560746Y-91989229D02*
X109055669Y-92241767D01*
X109055669Y-92241767D02*
X109383969Y-92570066D01*
X118409164Y-100405714D02*
X119016307Y-100405714D01*
X119016307Y-100405714D02*
X119087735Y-100370000D01*
X119087735Y-100370000D02*
X119123450Y-100334286D01*
X119123450Y-100334286D02*
X119159164Y-100262857D01*
X119159164Y-100262857D02*
X119159164Y-100120000D01*
X119159164Y-100120000D02*
X119123450Y-100048571D01*
X119123450Y-100048571D02*
X119087735Y-100012857D01*
X119087735Y-100012857D02*
X119016307Y-99977143D01*
X119016307Y-99977143D02*
X118409164Y-99977143D01*
X118409164Y-99691429D02*
X118409164Y-99191429D01*
X118409164Y-99191429D02*
X119159164Y-99512857D01*
X118409164Y-98762857D02*
X118409164Y-98691428D01*
X118409164Y-98691428D02*
X118444878Y-98620000D01*
X118444878Y-98620000D02*
X118480592Y-98584286D01*
X118480592Y-98584286D02*
X118552021Y-98548571D01*
X118552021Y-98548571D02*
X118694878Y-98512857D01*
X118694878Y-98512857D02*
X118873450Y-98512857D01*
X118873450Y-98512857D02*
X119016307Y-98548571D01*
X119016307Y-98548571D02*
X119087735Y-98584286D01*
X119087735Y-98584286D02*
X119123450Y-98620000D01*
X119123450Y-98620000D02*
X119159164Y-98691428D01*
X119159164Y-98691428D02*
X119159164Y-98762857D01*
X119159164Y-98762857D02*
X119123450Y-98834286D01*
X119123450Y-98834286D02*
X119087735Y-98870000D01*
X119087735Y-98870000D02*
X119016307Y-98905714D01*
X119016307Y-98905714D02*
X118873450Y-98941428D01*
X118873450Y-98941428D02*
X118694878Y-98941428D01*
X118694878Y-98941428D02*
X118552021Y-98905714D01*
X118552021Y-98905714D02*
X118480592Y-98870000D01*
X118480592Y-98870000D02*
X118444878Y-98834286D01*
X118444878Y-98834286D02*
X118409164Y-98762857D01*
X119159164Y-97798571D02*
X119159164Y-98227142D01*
X119159164Y-98012857D02*
X118409164Y-98012857D01*
X118409164Y-98012857D02*
X118516307Y-98084285D01*
X118516307Y-98084285D02*
X118587735Y-98155714D01*
X118587735Y-98155714D02*
X118623450Y-98227142D01*
X114974820Y-100474799D02*
X115212915Y-100474799D01*
X115117677Y-100712894D02*
X115212915Y-100474799D01*
X115212915Y-100474799D02*
X115117677Y-100236704D01*
X115403391Y-100617656D02*
X115212915Y-100474799D01*
X115212915Y-100474799D02*
X115403391Y-100331942D01*
X111989164Y-95579286D02*
X111632021Y-95829286D01*
X111989164Y-96007857D02*
X111239164Y-96007857D01*
X111239164Y-96007857D02*
X111239164Y-95722143D01*
X111239164Y-95722143D02*
X111274878Y-95650714D01*
X111274878Y-95650714D02*
X111310592Y-95615000D01*
X111310592Y-95615000D02*
X111382021Y-95579286D01*
X111382021Y-95579286D02*
X111489164Y-95579286D01*
X111489164Y-95579286D02*
X111560592Y-95615000D01*
X111560592Y-95615000D02*
X111596307Y-95650714D01*
X111596307Y-95650714D02*
X111632021Y-95722143D01*
X111632021Y-95722143D02*
X111632021Y-96007857D01*
X111239164Y-95329286D02*
X111239164Y-94829286D01*
X111239164Y-94829286D02*
X111989164Y-95150714D01*
X111989164Y-94150714D02*
X111989164Y-94579285D01*
X111989164Y-94365000D02*
X111239164Y-94365000D01*
X111239164Y-94365000D02*
X111346307Y-94436428D01*
X111346307Y-94436428D02*
X111417735Y-94507857D01*
X111417735Y-94507857D02*
X111453450Y-94579285D01*
X111310592Y-93864999D02*
X111274878Y-93829285D01*
X111274878Y-93829285D02*
X111239164Y-93757857D01*
X111239164Y-93757857D02*
X111239164Y-93579285D01*
X111239164Y-93579285D02*
X111274878Y-93507857D01*
X111274878Y-93507857D02*
X111310592Y-93472142D01*
X111310592Y-93472142D02*
X111382021Y-93436428D01*
X111382021Y-93436428D02*
X111453450Y-93436428D01*
X111453450Y-93436428D02*
X111560592Y-93472142D01*
X111560592Y-93472142D02*
X111989164Y-93900714D01*
X111989164Y-93900714D02*
X111989164Y-93436428D01*
X116250000Y-108939164D02*
X116500000Y-109689164D01*
X116500000Y-109689164D02*
X116750000Y-108939164D01*
X117428571Y-109617735D02*
X117392857Y-109653450D01*
X117392857Y-109653450D02*
X117285714Y-109689164D01*
X117285714Y-109689164D02*
X117214286Y-109689164D01*
X117214286Y-109689164D02*
X117107143Y-109653450D01*
X117107143Y-109653450D02*
X117035714Y-109582021D01*
X117035714Y-109582021D02*
X117000000Y-109510592D01*
X117000000Y-109510592D02*
X116964286Y-109367735D01*
X116964286Y-109367735D02*
X116964286Y-109260592D01*
X116964286Y-109260592D02*
X117000000Y-109117735D01*
X117000000Y-109117735D02*
X117035714Y-109046307D01*
X117035714Y-109046307D02*
X117107143Y-108974878D01*
X117107143Y-108974878D02*
X117214286Y-108939164D01*
X117214286Y-108939164D02*
X117285714Y-108939164D01*
X117285714Y-108939164D02*
X117392857Y-108974878D01*
X117392857Y-108974878D02*
X117428571Y-109010592D01*
X118178571Y-109617735D02*
X118142857Y-109653450D01*
X118142857Y-109653450D02*
X118035714Y-109689164D01*
X118035714Y-109689164D02*
X117964286Y-109689164D01*
X117964286Y-109689164D02*
X117857143Y-109653450D01*
X117857143Y-109653450D02*
X117785714Y-109582021D01*
X117785714Y-109582021D02*
X117750000Y-109510592D01*
X117750000Y-109510592D02*
X117714286Y-109367735D01*
X117714286Y-109367735D02*
X117714286Y-109260592D01*
X117714286Y-109260592D02*
X117750000Y-109117735D01*
X117750000Y-109117735D02*
X117785714Y-109046307D01*
X117785714Y-109046307D02*
X117857143Y-108974878D01*
X117857143Y-108974878D02*
X117964286Y-108939164D01*
X117964286Y-108939164D02*
X118035714Y-108939164D01*
X118035714Y-108939164D02*
X118142857Y-108974878D01*
X118142857Y-108974878D02*
X118178571Y-109010592D01*
X113474285Y-105240592D02*
X113402856Y-105204878D01*
X113402856Y-105204878D02*
X113331428Y-105133450D01*
X113331428Y-105133450D02*
X113224285Y-105026307D01*
X113224285Y-105026307D02*
X113152856Y-104990592D01*
X113152856Y-104990592D02*
X113081428Y-104990592D01*
X113117142Y-105169164D02*
X113045714Y-105133450D01*
X113045714Y-105133450D02*
X112974285Y-105062021D01*
X112974285Y-105062021D02*
X112938571Y-104919164D01*
X112938571Y-104919164D02*
X112938571Y-104669164D01*
X112938571Y-104669164D02*
X112974285Y-104526307D01*
X112974285Y-104526307D02*
X113045714Y-104454878D01*
X113045714Y-104454878D02*
X113117142Y-104419164D01*
X113117142Y-104419164D02*
X113259999Y-104419164D01*
X113259999Y-104419164D02*
X113331428Y-104454878D01*
X113331428Y-104454878D02*
X113402856Y-104526307D01*
X113402856Y-104526307D02*
X113438571Y-104669164D01*
X113438571Y-104669164D02*
X113438571Y-104919164D01*
X113438571Y-104919164D02*
X113402856Y-105062021D01*
X113402856Y-105062021D02*
X113331428Y-105133450D01*
X113331428Y-105133450D02*
X113259999Y-105169164D01*
X113259999Y-105169164D02*
X113117142Y-105169164D01*
X113688570Y-104419164D02*
X114188570Y-104419164D01*
X114188570Y-104419164D02*
X113867142Y-105169164D01*
X114617142Y-104419164D02*
X114688571Y-104419164D01*
X114688571Y-104419164D02*
X114759999Y-104454878D01*
X114759999Y-104454878D02*
X114795714Y-104490592D01*
X114795714Y-104490592D02*
X114831428Y-104562021D01*
X114831428Y-104562021D02*
X114867142Y-104704878D01*
X114867142Y-104704878D02*
X114867142Y-104883450D01*
X114867142Y-104883450D02*
X114831428Y-105026307D01*
X114831428Y-105026307D02*
X114795714Y-105097735D01*
X114795714Y-105097735D02*
X114759999Y-105133450D01*
X114759999Y-105133450D02*
X114688571Y-105169164D01*
X114688571Y-105169164D02*
X114617142Y-105169164D01*
X114617142Y-105169164D02*
X114545714Y-105133450D01*
X114545714Y-105133450D02*
X114509999Y-105097735D01*
X114509999Y-105097735D02*
X114474285Y-105026307D01*
X114474285Y-105026307D02*
X114438571Y-104883450D01*
X114438571Y-104883450D02*
X114438571Y-104704878D01*
X114438571Y-104704878D02*
X114474285Y-104562021D01*
X114474285Y-104562021D02*
X114509999Y-104490592D01*
X114509999Y-104490592D02*
X114545714Y-104454878D01*
X114545714Y-104454878D02*
X114617142Y-104419164D01*
X115581428Y-105169164D02*
X115152857Y-105169164D01*
X115367142Y-105169164D02*
X115367142Y-104419164D01*
X115367142Y-104419164D02*
X115295714Y-104526307D01*
X115295714Y-104526307D02*
X115224285Y-104597735D01*
X115224285Y-104597735D02*
X115152857Y-104633450D01*
X108658213Y-109719164D02*
X108408213Y-109362021D01*
X108229642Y-109719164D02*
X108229642Y-108969164D01*
X108229642Y-108969164D02*
X108515356Y-108969164D01*
X108515356Y-108969164D02*
X108586785Y-109004878D01*
X108586785Y-109004878D02*
X108622499Y-109040592D01*
X108622499Y-109040592D02*
X108658213Y-109112021D01*
X108658213Y-109112021D02*
X108658213Y-109219164D01*
X108658213Y-109219164D02*
X108622499Y-109290592D01*
X108622499Y-109290592D02*
X108586785Y-109326307D01*
X108586785Y-109326307D02*
X108515356Y-109362021D01*
X108515356Y-109362021D02*
X108229642Y-109362021D01*
X108943928Y-109040592D02*
X108979642Y-109004878D01*
X108979642Y-109004878D02*
X109051071Y-108969164D01*
X109051071Y-108969164D02*
X109229642Y-108969164D01*
X109229642Y-108969164D02*
X109301071Y-109004878D01*
X109301071Y-109004878D02*
X109336785Y-109040592D01*
X109336785Y-109040592D02*
X109372499Y-109112021D01*
X109372499Y-109112021D02*
X109372499Y-109183450D01*
X109372499Y-109183450D02*
X109336785Y-109290592D01*
X109336785Y-109290592D02*
X108908213Y-109719164D01*
X108908213Y-109719164D02*
X109372499Y-109719164D01*
X109836785Y-108969164D02*
X109908214Y-108969164D01*
X109908214Y-108969164D02*
X109979642Y-109004878D01*
X109979642Y-109004878D02*
X110015357Y-109040592D01*
X110015357Y-109040592D02*
X110051071Y-109112021D01*
X110051071Y-109112021D02*
X110086785Y-109254878D01*
X110086785Y-109254878D02*
X110086785Y-109433450D01*
X110086785Y-109433450D02*
X110051071Y-109576307D01*
X110051071Y-109576307D02*
X110015357Y-109647735D01*
X110015357Y-109647735D02*
X109979642Y-109683450D01*
X109979642Y-109683450D02*
X109908214Y-109719164D01*
X109908214Y-109719164D02*
X109836785Y-109719164D01*
X109836785Y-109719164D02*
X109765357Y-109683450D01*
X109765357Y-109683450D02*
X109729642Y-109647735D01*
X109729642Y-109647735D02*
X109693928Y-109576307D01*
X109693928Y-109576307D02*
X109658214Y-109433450D01*
X109658214Y-109433450D02*
X109658214Y-109254878D01*
X109658214Y-109254878D02*
X109693928Y-109112021D01*
X109693928Y-109112021D02*
X109729642Y-109040592D01*
X109729642Y-109040592D02*
X109765357Y-109004878D01*
X109765357Y-109004878D02*
X109836785Y-108969164D01*
X110801071Y-109719164D02*
X110372500Y-109719164D01*
X110586785Y-109719164D02*
X110586785Y-108969164D01*
X110586785Y-108969164D02*
X110515357Y-109076307D01*
X110515357Y-109076307D02*
X110443928Y-109147735D01*
X110443928Y-109147735D02*
X110372500Y-109183450D01*
X120594164Y-87900715D02*
X121201307Y-87900715D01*
X121201307Y-87900715D02*
X121272735Y-87865001D01*
X121272735Y-87865001D02*
X121308450Y-87829287D01*
X121308450Y-87829287D02*
X121344164Y-87757858D01*
X121344164Y-87757858D02*
X121344164Y-87615001D01*
X121344164Y-87615001D02*
X121308450Y-87543572D01*
X121308450Y-87543572D02*
X121272735Y-87507858D01*
X121272735Y-87507858D02*
X121201307Y-87472144D01*
X121201307Y-87472144D02*
X120594164Y-87472144D01*
X120844164Y-86793573D02*
X121344164Y-86793573D01*
X120558450Y-86972144D02*
X121094164Y-87150715D01*
X121094164Y-87150715D02*
X121094164Y-86686430D01*
X120594164Y-86257858D02*
X120594164Y-86186429D01*
X120594164Y-86186429D02*
X120629878Y-86115001D01*
X120629878Y-86115001D02*
X120665592Y-86079287D01*
X120665592Y-86079287D02*
X120737021Y-86043572D01*
X120737021Y-86043572D02*
X120879878Y-86007858D01*
X120879878Y-86007858D02*
X121058450Y-86007858D01*
X121058450Y-86007858D02*
X121201307Y-86043572D01*
X121201307Y-86043572D02*
X121272735Y-86079287D01*
X121272735Y-86079287D02*
X121308450Y-86115001D01*
X121308450Y-86115001D02*
X121344164Y-86186429D01*
X121344164Y-86186429D02*
X121344164Y-86257858D01*
X121344164Y-86257858D02*
X121308450Y-86329287D01*
X121308450Y-86329287D02*
X121272735Y-86365001D01*
X121272735Y-86365001D02*
X121201307Y-86400715D01*
X121201307Y-86400715D02*
X121058450Y-86436429D01*
X121058450Y-86436429D02*
X120879878Y-86436429D01*
X120879878Y-86436429D02*
X120737021Y-86400715D01*
X120737021Y-86400715D02*
X120665592Y-86365001D01*
X120665592Y-86365001D02*
X120629878Y-86329287D01*
X120629878Y-86329287D02*
X120594164Y-86257858D01*
X120594164Y-85757858D02*
X120594164Y-85293572D01*
X120594164Y-85293572D02*
X120879878Y-85543572D01*
X120879878Y-85543572D02*
X120879878Y-85436429D01*
X120879878Y-85436429D02*
X120915592Y-85365001D01*
X120915592Y-85365001D02*
X120951307Y-85329286D01*
X120951307Y-85329286D02*
X121022735Y-85293572D01*
X121022735Y-85293572D02*
X121201307Y-85293572D01*
X121201307Y-85293572D02*
X121272735Y-85329286D01*
X121272735Y-85329286D02*
X121308450Y-85365001D01*
X121308450Y-85365001D02*
X121344164Y-85436429D01*
X121344164Y-85436429D02*
X121344164Y-85650715D01*
X121344164Y-85650715D02*
X121308450Y-85722143D01*
X121308450Y-85722143D02*
X121272735Y-85757858D01*
X113750713Y-56967735D02*
X113714999Y-57003450D01*
X113714999Y-57003450D02*
X113607856Y-57039164D01*
X113607856Y-57039164D02*
X113536428Y-57039164D01*
X113536428Y-57039164D02*
X113429285Y-57003450D01*
X113429285Y-57003450D02*
X113357856Y-56932021D01*
X113357856Y-56932021D02*
X113322142Y-56860592D01*
X113322142Y-56860592D02*
X113286428Y-56717735D01*
X113286428Y-56717735D02*
X113286428Y-56610592D01*
X113286428Y-56610592D02*
X113322142Y-56467735D01*
X113322142Y-56467735D02*
X113357856Y-56396307D01*
X113357856Y-56396307D02*
X113429285Y-56324878D01*
X113429285Y-56324878D02*
X113536428Y-56289164D01*
X113536428Y-56289164D02*
X113607856Y-56289164D01*
X113607856Y-56289164D02*
X113714999Y-56324878D01*
X113714999Y-56324878D02*
X113750713Y-56360592D01*
X114393571Y-56539164D02*
X114393571Y-57039164D01*
X114214999Y-56253450D02*
X114036428Y-56789164D01*
X114036428Y-56789164D02*
X114500713Y-56789164D01*
X114929285Y-56289164D02*
X115000714Y-56289164D01*
X115000714Y-56289164D02*
X115072142Y-56324878D01*
X115072142Y-56324878D02*
X115107857Y-56360592D01*
X115107857Y-56360592D02*
X115143571Y-56432021D01*
X115143571Y-56432021D02*
X115179285Y-56574878D01*
X115179285Y-56574878D02*
X115179285Y-56753450D01*
X115179285Y-56753450D02*
X115143571Y-56896307D01*
X115143571Y-56896307D02*
X115107857Y-56967735D01*
X115107857Y-56967735D02*
X115072142Y-57003450D01*
X115072142Y-57003450D02*
X115000714Y-57039164D01*
X115000714Y-57039164D02*
X114929285Y-57039164D01*
X114929285Y-57039164D02*
X114857857Y-57003450D01*
X114857857Y-57003450D02*
X114822142Y-56967735D01*
X114822142Y-56967735D02*
X114786428Y-56896307D01*
X114786428Y-56896307D02*
X114750714Y-56753450D01*
X114750714Y-56753450D02*
X114750714Y-56574878D01*
X114750714Y-56574878D02*
X114786428Y-56432021D01*
X114786428Y-56432021D02*
X114822142Y-56360592D01*
X114822142Y-56360592D02*
X114857857Y-56324878D01*
X114857857Y-56324878D02*
X114929285Y-56289164D01*
X115857857Y-56289164D02*
X115500714Y-56289164D01*
X115500714Y-56289164D02*
X115465000Y-56646307D01*
X115465000Y-56646307D02*
X115500714Y-56610592D01*
X115500714Y-56610592D02*
X115572143Y-56574878D01*
X115572143Y-56574878D02*
X115750714Y-56574878D01*
X115750714Y-56574878D02*
X115822143Y-56610592D01*
X115822143Y-56610592D02*
X115857857Y-56646307D01*
X115857857Y-56646307D02*
X115893571Y-56717735D01*
X115893571Y-56717735D02*
X115893571Y-56896307D01*
X115893571Y-56896307D02*
X115857857Y-56967735D01*
X115857857Y-56967735D02*
X115822143Y-57003450D01*
X115822143Y-57003450D02*
X115750714Y-57039164D01*
X115750714Y-57039164D02*
X115572143Y-57039164D01*
X115572143Y-57039164D02*
X115500714Y-57003450D01*
X115500714Y-57003450D02*
X115465000Y-56967735D01*
X115638570Y-105489164D02*
X116102856Y-105489164D01*
X116102856Y-105489164D02*
X115852856Y-105774878D01*
X115852856Y-105774878D02*
X115959999Y-105774878D01*
X115959999Y-105774878D02*
X116031428Y-105810592D01*
X116031428Y-105810592D02*
X116067142Y-105846307D01*
X116067142Y-105846307D02*
X116102856Y-105917735D01*
X116102856Y-105917735D02*
X116102856Y-106096307D01*
X116102856Y-106096307D02*
X116067142Y-106167735D01*
X116067142Y-106167735D02*
X116031428Y-106203450D01*
X116031428Y-106203450D02*
X115959999Y-106239164D01*
X115959999Y-106239164D02*
X115745713Y-106239164D01*
X115745713Y-106239164D02*
X115674285Y-106203450D01*
X115674285Y-106203450D02*
X115638570Y-106167735D01*
X116424285Y-106167735D02*
X116459999Y-106203450D01*
X116459999Y-106203450D02*
X116424285Y-106239164D01*
X116424285Y-106239164D02*
X116388571Y-106203450D01*
X116388571Y-106203450D02*
X116424285Y-106167735D01*
X116424285Y-106167735D02*
X116424285Y-106239164D01*
X116709999Y-105489164D02*
X117174285Y-105489164D01*
X117174285Y-105489164D02*
X116924285Y-105774878D01*
X116924285Y-105774878D02*
X117031428Y-105774878D01*
X117031428Y-105774878D02*
X117102857Y-105810592D01*
X117102857Y-105810592D02*
X117138571Y-105846307D01*
X117138571Y-105846307D02*
X117174285Y-105917735D01*
X117174285Y-105917735D02*
X117174285Y-106096307D01*
X117174285Y-106096307D02*
X117138571Y-106167735D01*
X117138571Y-106167735D02*
X117102857Y-106203450D01*
X117102857Y-106203450D02*
X117031428Y-106239164D01*
X117031428Y-106239164D02*
X116817142Y-106239164D01*
X116817142Y-106239164D02*
X116745714Y-106203450D01*
X116745714Y-106203450D02*
X116709999Y-106167735D01*
X117424285Y-105739164D02*
X117602857Y-106239164D01*
X117602857Y-106239164D02*
X117781428Y-105739164D01*
X112407142Y-106769164D02*
X112407142Y-106019164D01*
X112407142Y-106019164D02*
X112585713Y-106019164D01*
X112585713Y-106019164D02*
X112692856Y-106054878D01*
X112692856Y-106054878D02*
X112764285Y-106126307D01*
X112764285Y-106126307D02*
X112799999Y-106197735D01*
X112799999Y-106197735D02*
X112835713Y-106340592D01*
X112835713Y-106340592D02*
X112835713Y-106447735D01*
X112835713Y-106447735D02*
X112799999Y-106590592D01*
X112799999Y-106590592D02*
X112764285Y-106662021D01*
X112764285Y-106662021D02*
X112692856Y-106733450D01*
X112692856Y-106733450D02*
X112585713Y-106769164D01*
X112585713Y-106769164D02*
X112407142Y-106769164D01*
X113121428Y-106090592D02*
X113157142Y-106054878D01*
X113157142Y-106054878D02*
X113228571Y-106019164D01*
X113228571Y-106019164D02*
X113407142Y-106019164D01*
X113407142Y-106019164D02*
X113478571Y-106054878D01*
X113478571Y-106054878D02*
X113514285Y-106090592D01*
X113514285Y-106090592D02*
X113549999Y-106162021D01*
X113549999Y-106162021D02*
X113549999Y-106233450D01*
X113549999Y-106233450D02*
X113514285Y-106340592D01*
X113514285Y-106340592D02*
X113085713Y-106769164D01*
X113085713Y-106769164D02*
X113549999Y-106769164D01*
X114014285Y-106019164D02*
X114085714Y-106019164D01*
X114085714Y-106019164D02*
X114157142Y-106054878D01*
X114157142Y-106054878D02*
X114192857Y-106090592D01*
X114192857Y-106090592D02*
X114228571Y-106162021D01*
X114228571Y-106162021D02*
X114264285Y-106304878D01*
X114264285Y-106304878D02*
X114264285Y-106483450D01*
X114264285Y-106483450D02*
X114228571Y-106626307D01*
X114228571Y-106626307D02*
X114192857Y-106697735D01*
X114192857Y-106697735D02*
X114157142Y-106733450D01*
X114157142Y-106733450D02*
X114085714Y-106769164D01*
X114085714Y-106769164D02*
X114014285Y-106769164D01*
X114014285Y-106769164D02*
X113942857Y-106733450D01*
X113942857Y-106733450D02*
X113907142Y-106697735D01*
X113907142Y-106697735D02*
X113871428Y-106626307D01*
X113871428Y-106626307D02*
X113835714Y-106483450D01*
X113835714Y-106483450D02*
X113835714Y-106304878D01*
X113835714Y-106304878D02*
X113871428Y-106162021D01*
X113871428Y-106162021D02*
X113907142Y-106090592D01*
X113907142Y-106090592D02*
X113942857Y-106054878D01*
X113942857Y-106054878D02*
X114014285Y-106019164D01*
X114550000Y-106090592D02*
X114585714Y-106054878D01*
X114585714Y-106054878D02*
X114657143Y-106019164D01*
X114657143Y-106019164D02*
X114835714Y-106019164D01*
X114835714Y-106019164D02*
X114907143Y-106054878D01*
X114907143Y-106054878D02*
X114942857Y-106090592D01*
X114942857Y-106090592D02*
X114978571Y-106162021D01*
X114978571Y-106162021D02*
X114978571Y-106233450D01*
X114978571Y-106233450D02*
X114942857Y-106340592D01*
X114942857Y-106340592D02*
X114514285Y-106769164D01*
X114514285Y-106769164D02*
X114978571Y-106769164D01*
X121159164Y-66706786D02*
X120802021Y-66956786D01*
X121159164Y-67135357D02*
X120409164Y-67135357D01*
X120409164Y-67135357D02*
X120409164Y-66849643D01*
X120409164Y-66849643D02*
X120444878Y-66778214D01*
X120444878Y-66778214D02*
X120480592Y-66742500D01*
X120480592Y-66742500D02*
X120552021Y-66706786D01*
X120552021Y-66706786D02*
X120659164Y-66706786D01*
X120659164Y-66706786D02*
X120730592Y-66742500D01*
X120730592Y-66742500D02*
X120766307Y-66778214D01*
X120766307Y-66778214D02*
X120802021Y-66849643D01*
X120802021Y-66849643D02*
X120802021Y-67135357D01*
X120659164Y-66063929D02*
X121159164Y-66063929D01*
X120373450Y-66242500D02*
X120909164Y-66421071D01*
X120909164Y-66421071D02*
X120909164Y-65956786D01*
X120409164Y-65528214D02*
X120409164Y-65456785D01*
X120409164Y-65456785D02*
X120444878Y-65385357D01*
X120444878Y-65385357D02*
X120480592Y-65349643D01*
X120480592Y-65349643D02*
X120552021Y-65313928D01*
X120552021Y-65313928D02*
X120694878Y-65278214D01*
X120694878Y-65278214D02*
X120873450Y-65278214D01*
X120873450Y-65278214D02*
X121016307Y-65313928D01*
X121016307Y-65313928D02*
X121087735Y-65349643D01*
X121087735Y-65349643D02*
X121123450Y-65385357D01*
X121123450Y-65385357D02*
X121159164Y-65456785D01*
X121159164Y-65456785D02*
X121159164Y-65528214D01*
X121159164Y-65528214D02*
X121123450Y-65599643D01*
X121123450Y-65599643D02*
X121087735Y-65635357D01*
X121087735Y-65635357D02*
X121016307Y-65671071D01*
X121016307Y-65671071D02*
X120873450Y-65706785D01*
X120873450Y-65706785D02*
X120694878Y-65706785D01*
X120694878Y-65706785D02*
X120552021Y-65671071D01*
X120552021Y-65671071D02*
X120480592Y-65635357D01*
X120480592Y-65635357D02*
X120444878Y-65599643D01*
X120444878Y-65599643D02*
X120409164Y-65528214D01*
X120480592Y-64992499D02*
X120444878Y-64956785D01*
X120444878Y-64956785D02*
X120409164Y-64885357D01*
X120409164Y-64885357D02*
X120409164Y-64706785D01*
X120409164Y-64706785D02*
X120444878Y-64635357D01*
X120444878Y-64635357D02*
X120480592Y-64599642D01*
X120480592Y-64599642D02*
X120552021Y-64563928D01*
X120552021Y-64563928D02*
X120623450Y-64563928D01*
X120623450Y-64563928D02*
X120730592Y-64599642D01*
X120730592Y-64599642D02*
X121159164Y-65028214D01*
X121159164Y-65028214D02*
X121159164Y-64563928D01*
X107877735Y-89354287D02*
X107913450Y-89390001D01*
X107913450Y-89390001D02*
X107949164Y-89497144D01*
X107949164Y-89497144D02*
X107949164Y-89568572D01*
X107949164Y-89568572D02*
X107913450Y-89675715D01*
X107913450Y-89675715D02*
X107842021Y-89747144D01*
X107842021Y-89747144D02*
X107770592Y-89782858D01*
X107770592Y-89782858D02*
X107627735Y-89818572D01*
X107627735Y-89818572D02*
X107520592Y-89818572D01*
X107520592Y-89818572D02*
X107377735Y-89782858D01*
X107377735Y-89782858D02*
X107306307Y-89747144D01*
X107306307Y-89747144D02*
X107234878Y-89675715D01*
X107234878Y-89675715D02*
X107199164Y-89568572D01*
X107199164Y-89568572D02*
X107199164Y-89497144D01*
X107199164Y-89497144D02*
X107234878Y-89390001D01*
X107234878Y-89390001D02*
X107270592Y-89354287D01*
X107449164Y-88711430D02*
X107949164Y-88711430D01*
X107163450Y-88890001D02*
X107699164Y-89068572D01*
X107699164Y-89068572D02*
X107699164Y-88604287D01*
X107199164Y-88175715D02*
X107199164Y-88104286D01*
X107199164Y-88104286D02*
X107234878Y-88032858D01*
X107234878Y-88032858D02*
X107270592Y-87997144D01*
X107270592Y-87997144D02*
X107342021Y-87961429D01*
X107342021Y-87961429D02*
X107484878Y-87925715D01*
X107484878Y-87925715D02*
X107663450Y-87925715D01*
X107663450Y-87925715D02*
X107806307Y-87961429D01*
X107806307Y-87961429D02*
X107877735Y-87997144D01*
X107877735Y-87997144D02*
X107913450Y-88032858D01*
X107913450Y-88032858D02*
X107949164Y-88104286D01*
X107949164Y-88104286D02*
X107949164Y-88175715D01*
X107949164Y-88175715D02*
X107913450Y-88247144D01*
X107913450Y-88247144D02*
X107877735Y-88282858D01*
X107877735Y-88282858D02*
X107806307Y-88318572D01*
X107806307Y-88318572D02*
X107663450Y-88354286D01*
X107663450Y-88354286D02*
X107484878Y-88354286D01*
X107484878Y-88354286D02*
X107342021Y-88318572D01*
X107342021Y-88318572D02*
X107270592Y-88282858D01*
X107270592Y-88282858D02*
X107234878Y-88247144D01*
X107234878Y-88247144D02*
X107199164Y-88175715D01*
X107199164Y-87675715D02*
X107199164Y-87211429D01*
X107199164Y-87211429D02*
X107484878Y-87461429D01*
X107484878Y-87461429D02*
X107484878Y-87354286D01*
X107484878Y-87354286D02*
X107520592Y-87282858D01*
X107520592Y-87282858D02*
X107556307Y-87247143D01*
X107556307Y-87247143D02*
X107627735Y-87211429D01*
X107627735Y-87211429D02*
X107806307Y-87211429D01*
X107806307Y-87211429D02*
X107877735Y-87247143D01*
X107877735Y-87247143D02*
X107913450Y-87282858D01*
X107913450Y-87282858D02*
X107949164Y-87354286D01*
X107949164Y-87354286D02*
X107949164Y-87568572D01*
X107949164Y-87568572D02*
X107913450Y-87640000D01*
X107913450Y-87640000D02*
X107877735Y-87675715D01*
X105840713Y-105989164D02*
X105590713Y-105632021D01*
X105412142Y-105989164D02*
X105412142Y-105239164D01*
X105412142Y-105239164D02*
X105697856Y-105239164D01*
X105697856Y-105239164D02*
X105769285Y-105274878D01*
X105769285Y-105274878D02*
X105804999Y-105310592D01*
X105804999Y-105310592D02*
X105840713Y-105382021D01*
X105840713Y-105382021D02*
X105840713Y-105489164D01*
X105840713Y-105489164D02*
X105804999Y-105560592D01*
X105804999Y-105560592D02*
X105769285Y-105596307D01*
X105769285Y-105596307D02*
X105697856Y-105632021D01*
X105697856Y-105632021D02*
X105412142Y-105632021D01*
X106090713Y-105239164D02*
X106590713Y-105239164D01*
X106590713Y-105239164D02*
X106269285Y-105989164D01*
X107269285Y-105989164D02*
X106840714Y-105989164D01*
X107054999Y-105989164D02*
X107054999Y-105239164D01*
X107054999Y-105239164D02*
X106983571Y-105346307D01*
X106983571Y-105346307D02*
X106912142Y-105417735D01*
X106912142Y-105417735D02*
X106840714Y-105453450D01*
X107912143Y-105489164D02*
X107912143Y-105989164D01*
X107733571Y-105203450D02*
X107555000Y-105739164D01*
X107555000Y-105739164D02*
X108019285Y-105739164D01*
D11*
%TO.C,R301*%
X125027500Y-86977224D02*
X125027500Y-86467776D01*
X126072500Y-86977224D02*
X126072500Y-86467776D01*
%TO.C,D201*%
X111982500Y-110075000D02*
X111982500Y-111545000D01*
X111982500Y-111545000D02*
X114442500Y-111545000D01*
X114442500Y-110075000D02*
X111982500Y-110075000D01*
%TO.C,R707*%
X111477500Y-102705276D02*
X111477500Y-103214724D01*
X112522500Y-102705276D02*
X112522500Y-103214724D01*
%TO.C,C402*%
X111710000Y-85673733D02*
X111710000Y-85966267D01*
X112730000Y-85673733D02*
X112730000Y-85966267D01*
%TO.C,R716*%
X105537500Y-102417258D02*
X105537500Y-101942742D01*
X106582500Y-102417258D02*
X106582500Y-101942742D01*
D12*
%TO.C,U702*%
X115699001Y-92863000D02*
X115699001Y-95217000D01*
X118053001Y-95217000D02*
X118053001Y-92863000D01*
D11*
%TO.C,R711*%
X116672742Y-96027500D02*
X117147258Y-96027500D01*
X116672742Y-97072500D02*
X117147258Y-97072500D01*
%TO.C,C301*%
X122673733Y-67130000D02*
X122966267Y-67130000D01*
X122673733Y-68150000D02*
X122966267Y-68150000D01*
%TO.C,R710*%
X114067500Y-92315276D02*
X114067500Y-92824724D01*
X115112500Y-92315276D02*
X115112500Y-92824724D01*
%TO.C,U401*%
X108150000Y-87220000D02*
X108150000Y-87980000D01*
X108150000Y-87980000D02*
X109230000Y-87980000D01*
X108470000Y-86900000D02*
X109230000Y-86900000D01*
X109230000Y-87980000D02*
X109230000Y-86900000D01*
X108150000Y-86900000D02*
X107650000Y-86900000D01*
X108150000Y-86400000D01*
X108150000Y-86900000D01*
G36*
X108150000Y-86900000D02*
G01*
X107650000Y-86900000D01*
X108150000Y-86400000D01*
X108150000Y-86900000D01*
G37*
D13*
%TO.C,G501*%
G36*
X105000979Y-88639362D02*
G01*
X105056319Y-88649851D01*
X105104224Y-88670213D01*
X105145827Y-88700851D01*
X105162752Y-88718047D01*
X105189834Y-88755660D01*
X105206042Y-88797261D01*
X105212372Y-88845614D01*
X105212541Y-88856121D01*
X105208174Y-88905471D01*
X105194289Y-88947685D01*
X105169708Y-88985971D01*
X105161152Y-88995974D01*
X105123396Y-89030191D01*
X105080061Y-89054377D01*
X105029819Y-89068992D01*
X104971341Y-89074491D01*
X104935312Y-89073803D01*
X104903509Y-89071625D01*
X104879838Y-89068140D01*
X104859142Y-89062027D01*
X104836265Y-89051966D01*
X104821734Y-89044705D01*
X104776485Y-89016214D01*
X104742834Y-88982193D01*
X104719882Y-88941283D01*
X104706729Y-88892127D01*
X104703744Y-88866662D01*
X104703943Y-88839213D01*
X104707640Y-88810931D01*
X104709650Y-88802500D01*
X104730156Y-88751710D01*
X104760278Y-88709987D01*
X104799732Y-88677536D01*
X104848230Y-88654565D01*
X104905484Y-88641280D01*
X104937067Y-88638347D01*
X105000979Y-88639362D01*
G37*
G36*
X105045793Y-87918448D02*
G01*
X105156099Y-87935015D01*
X105260033Y-87963223D01*
X105357821Y-88003183D01*
X105449690Y-88055003D01*
X105535868Y-88118792D01*
X105612281Y-88190169D01*
X105681842Y-88271027D01*
X105739870Y-88357604D01*
X105786917Y-88450903D01*
X105823536Y-88551926D01*
X105835504Y-88595185D01*
X105853686Y-88666767D01*
X105853686Y-90646678D01*
X105853683Y-90838989D01*
X105853676Y-91018469D01*
X105853659Y-91185572D01*
X105853631Y-91340756D01*
X105853589Y-91484476D01*
X105853529Y-91617189D01*
X105853450Y-91739351D01*
X105853348Y-91851417D01*
X105853221Y-91953843D01*
X105853066Y-92047089D01*
X105852879Y-92131606D01*
X105852660Y-92207853D01*
X105852402Y-92276285D01*
X105852106Y-92337358D01*
X105851768Y-92391530D01*
X105851384Y-92439255D01*
X105850953Y-92480989D01*
X105850472Y-92517190D01*
X105849937Y-92548313D01*
X105849345Y-92574814D01*
X105848695Y-92597149D01*
X105847984Y-92615775D01*
X105847206Y-92631147D01*
X105846364Y-92643722D01*
X105845450Y-92653955D01*
X105844464Y-92662304D01*
X105843401Y-92669223D01*
X105842261Y-92675170D01*
X105841241Y-92679741D01*
X105809587Y-92787702D01*
X105767003Y-92888643D01*
X105713884Y-92982046D01*
X105650626Y-93067398D01*
X105577625Y-93144181D01*
X105495274Y-93211879D01*
X105403969Y-93269977D01*
X105379293Y-93283198D01*
X105287751Y-93324719D01*
X105196013Y-93354320D01*
X105101391Y-93372646D01*
X105001200Y-93380343D01*
X104973657Y-93380683D01*
X104863234Y-93374721D01*
X104758459Y-93356755D01*
X104659039Y-93326668D01*
X104564677Y-93284342D01*
X104475081Y-93229657D01*
X104389955Y-93162496D01*
X104358846Y-93133802D01*
X104288187Y-93058708D01*
X104228737Y-92979427D01*
X104179600Y-92894356D01*
X104139888Y-92801890D01*
X104108708Y-92700427D01*
X104101594Y-92671097D01*
X104092123Y-92629911D01*
X104444196Y-92629911D01*
X104445158Y-92693029D01*
X104578880Y-92694825D01*
X104712602Y-92696622D01*
X104715411Y-92637888D01*
X104721058Y-92590401D01*
X104733704Y-92552186D01*
X104754499Y-92520580D01*
X104774853Y-92500686D01*
X104817474Y-92472478D01*
X104866375Y-92452896D01*
X104919158Y-92441867D01*
X104973419Y-92439317D01*
X105026757Y-92445175D01*
X105076768Y-92459366D01*
X105121052Y-92481818D01*
X105157087Y-92512325D01*
X105181886Y-92544604D01*
X105197164Y-92577702D01*
X105204498Y-92615918D01*
X105205750Y-92644995D01*
X105205896Y-92696621D01*
X105343759Y-92694825D01*
X105481622Y-92693029D01*
X105480555Y-92609979D01*
X105477186Y-92543849D01*
X105468238Y-92485767D01*
X105452686Y-92431296D01*
X105429502Y-92376000D01*
X105423710Y-92364151D01*
X105391091Y-92310755D01*
X105348714Y-92259549D01*
X105299823Y-92213822D01*
X105247659Y-92176863D01*
X105228774Y-92166376D01*
X105185260Y-92145472D01*
X105145590Y-92130053D01*
X105106327Y-92119376D01*
X105064031Y-92112700D01*
X105015264Y-92109282D01*
X104960068Y-92108377D01*
X104906852Y-92109019D01*
X104863550Y-92111395D01*
X104826831Y-92116194D01*
X104793359Y-92124111D01*
X104759803Y-92135840D01*
X104722830Y-92152076D01*
X104702039Y-92162091D01*
X104637309Y-92201117D01*
X104581077Y-92250225D01*
X104533985Y-92308781D01*
X104507111Y-92354455D01*
X104479059Y-92415567D01*
X104459894Y-92473780D01*
X104448615Y-92533474D01*
X104444221Y-92599031D01*
X104444196Y-92629911D01*
X104092123Y-92629911D01*
X104086775Y-92606657D01*
X104085654Y-91706396D01*
X104455124Y-91706396D01*
X104455124Y-91872496D01*
X104455124Y-92038596D01*
X104960068Y-92038596D01*
X104963390Y-92038596D01*
X105471656Y-92038596D01*
X105471656Y-91872496D01*
X105471656Y-91706396D01*
X104963390Y-91706396D01*
X104455124Y-91706396D01*
X104085654Y-91706396D01*
X104085157Y-91307756D01*
X104455124Y-91307756D01*
X104455124Y-91473856D01*
X104455124Y-91639956D01*
X104963390Y-91639957D01*
X105471656Y-91639956D01*
X105471656Y-91473856D01*
X105471656Y-91307756D01*
X104963390Y-91307756D01*
X104455124Y-91307756D01*
X104085157Y-91307756D01*
X104084787Y-91010437D01*
X104083738Y-90169197D01*
X104455125Y-90169197D01*
X104762409Y-90264436D01*
X104823735Y-90283499D01*
X104881190Y-90301471D01*
X104933525Y-90317949D01*
X104979490Y-90332537D01*
X105017838Y-90344837D01*
X105047317Y-90354448D01*
X105066681Y-90360974D01*
X105074678Y-90364016D01*
X105074777Y-90364085D01*
X105069645Y-90366838D01*
X105052983Y-90373054D01*
X105025980Y-90382345D01*
X104989825Y-90394323D01*
X104945706Y-90408599D01*
X104894811Y-90424787D01*
X104838330Y-90442498D01*
X104777450Y-90461343D01*
X104767501Y-90464401D01*
X104455140Y-90560306D01*
X104455132Y-90726447D01*
X104455125Y-90892587D01*
X104959096Y-91076918D01*
X105037305Y-91105504D01*
X105111903Y-91132733D01*
X105181950Y-91158265D01*
X105246507Y-91181758D01*
X105304632Y-91202873D01*
X105355387Y-91221266D01*
X105397833Y-91236600D01*
X105431028Y-91248531D01*
X105454033Y-91256717D01*
X105465909Y-91260824D01*
X105467362Y-91261249D01*
X105468552Y-91254905D01*
X105469614Y-91237078D01*
X105470503Y-91209570D01*
X105471169Y-91174190D01*
X105471564Y-91132734D01*
X105471656Y-91099728D01*
X105471656Y-90938208D01*
X105147761Y-90843030D01*
X105084052Y-90824271D01*
X105023736Y-90806437D01*
X104968108Y-90789917D01*
X104918465Y-90775100D01*
X104876101Y-90762372D01*
X104842311Y-90752123D01*
X104818393Y-90744740D01*
X104805641Y-90740612D01*
X104804442Y-90740171D01*
X104801119Y-90738698D01*
X104799210Y-90737111D01*
X104799461Y-90735173D01*
X104802619Y-90732647D01*
X104809431Y-90729298D01*
X104820645Y-90724888D01*
X104837007Y-90719182D01*
X104859265Y-90711943D01*
X104888167Y-90702934D01*
X104924459Y-90691919D01*
X104968888Y-90678664D01*
X105022203Y-90662929D01*
X105085149Y-90644480D01*
X105158474Y-90623079D01*
X105242927Y-90598489D01*
X105339252Y-90570477D01*
X105358708Y-90564821D01*
X105468334Y-90532951D01*
X105470112Y-90372661D01*
X105471890Y-90212372D01*
X105416960Y-90195810D01*
X105398854Y-90190442D01*
X105369617Y-90181881D01*
X105330890Y-90170607D01*
X105284315Y-90157093D01*
X105231532Y-90141816D01*
X105174183Y-90125253D01*
X105113908Y-90107877D01*
X105079660Y-90098019D01*
X105020756Y-90081011D01*
X104965794Y-90065020D01*
X104916090Y-90050438D01*
X104872962Y-90037657D01*
X104837727Y-90027068D01*
X104811701Y-90019065D01*
X104796201Y-90014037D01*
X104792310Y-90012492D01*
X104797523Y-90009857D01*
X104814341Y-90003875D01*
X104841607Y-89994906D01*
X104878168Y-89983311D01*
X104922867Y-89969449D01*
X104974547Y-89953680D01*
X105032056Y-89936366D01*
X105094236Y-89917867D01*
X105122334Y-89909575D01*
X105186640Y-89890601D01*
X105247165Y-89872658D01*
X105302695Y-89856111D01*
X105352021Y-89841327D01*
X105393928Y-89828670D01*
X105427208Y-89818504D01*
X105450643Y-89811196D01*
X105463025Y-89807110D01*
X105464614Y-89806458D01*
X105467101Y-89799368D01*
X105468897Y-89781258D01*
X105470019Y-89751606D01*
X105470481Y-89709892D01*
X105470304Y-89655593D01*
X105470111Y-89635310D01*
X105468334Y-89468657D01*
X104961843Y-89652384D01*
X104455353Y-89836111D01*
X104455239Y-90002654D01*
X104455125Y-90169197D01*
X104083738Y-90169197D01*
X104082796Y-89414216D01*
X104777227Y-89414217D01*
X105468334Y-89414217D01*
X105471656Y-89414217D01*
X105471656Y-89244795D01*
X105471656Y-89075373D01*
X105407105Y-89075373D01*
X105342552Y-89075374D01*
X105376555Y-89040492D01*
X105419460Y-88988641D01*
X105451706Y-88931173D01*
X105465658Y-88895985D01*
X105474060Y-88861755D01*
X105479432Y-88818633D01*
X105481718Y-88770679D01*
X105480861Y-88721952D01*
X105476806Y-88676512D01*
X105469496Y-88638418D01*
X105469229Y-88637444D01*
X105442581Y-88565092D01*
X105404879Y-88499894D01*
X105356647Y-88442479D01*
X105298407Y-88393479D01*
X105235794Y-88356050D01*
X105174223Y-88331067D01*
X105104518Y-88312929D01*
X105030248Y-88302201D01*
X104954988Y-88299439D01*
X104898550Y-88303102D01*
X104845138Y-88310308D01*
X104800449Y-88319262D01*
X104759929Y-88331240D01*
X104719020Y-88347517D01*
X104687664Y-88362178D01*
X104624620Y-88399731D01*
X104569196Y-88446470D01*
X104523076Y-88500738D01*
X104489706Y-88557141D01*
X104461806Y-88629582D01*
X104446011Y-88705764D01*
X104441836Y-88774717D01*
X104447649Y-88847527D01*
X104464980Y-88914235D01*
X104493666Y-88974417D01*
X104533546Y-89027649D01*
X104541475Y-89036025D01*
X104579977Y-89075374D01*
X104331519Y-89075373D01*
X104083060Y-89075373D01*
X104084177Y-88914256D01*
X104084592Y-88867684D01*
X104085150Y-88824127D01*
X104085811Y-88785812D01*
X104086533Y-88754962D01*
X104087273Y-88733805D01*
X104087719Y-88726563D01*
X104103655Y-88622045D01*
X104131627Y-88521021D01*
X104170888Y-88424495D01*
X104220687Y-88333474D01*
X104280275Y-88248966D01*
X104348904Y-88171977D01*
X104425823Y-88103516D01*
X104510285Y-88044589D01*
X104601539Y-87996203D01*
X104644478Y-87978191D01*
X104744849Y-87945609D01*
X104846575Y-87924599D01*
X104947665Y-87915457D01*
X105045793Y-87918448D01*
G37*
D11*
%TO.C,R202*%
X109260276Y-107337500D02*
X109769724Y-107337500D01*
X109260276Y-108382500D02*
X109769724Y-108382500D01*
%TO.C,R713*%
X108747500Y-102717224D02*
X108747500Y-102207776D01*
X109792500Y-102717224D02*
X109792500Y-102207776D01*
%TO.C,R708*%
X118004724Y-91097500D02*
X117495276Y-91097500D01*
X118004724Y-92142500D02*
X117495276Y-92142500D01*
%TO.C,U404*%
X102570000Y-58920000D02*
X102570000Y-74640000D01*
X113880000Y-58920000D02*
X102570000Y-58920000D01*
X118290000Y-58920000D02*
X114580000Y-58920000D01*
X118290000Y-58920000D02*
X118290000Y-74640000D01*
X118290000Y-74640000D02*
X102570000Y-74640000D01*
X114230000Y-58920000D02*
X113990001Y-58590000D01*
X114470000Y-58590000D01*
X114230000Y-58920000D01*
G36*
X114230000Y-58920000D02*
G01*
X113990001Y-58590000D01*
X114470000Y-58590000D01*
X114230000Y-58920000D01*
G37*
%TO.C,J504*%
X98420000Y-94960000D02*
X98420000Y-96280000D01*
X98420000Y-96880000D02*
X98420000Y-105820000D01*
X99039999Y-94960000D02*
X99040000Y-105820000D01*
X104340000Y-94960000D02*
X104340000Y-105820000D01*
X104860000Y-94960000D02*
X98420000Y-94960000D01*
X104860000Y-94960000D02*
X104860000Y-105820000D01*
X104860000Y-105820000D02*
X98420000Y-105820000D01*
X98420000Y-96580000D02*
X97810000Y-97020000D01*
X97810000Y-96140000D01*
X98420000Y-96580000D01*
G36*
X98420000Y-96580000D02*
G01*
X97810000Y-97020000D01*
X97810000Y-96140000D01*
X98420000Y-96580000D01*
G37*
%TO.C,R703*%
X118657500Y-104237258D02*
X118657500Y-103762742D01*
X119702500Y-104237258D02*
X119702500Y-103762742D01*
%TO.C,J505*%
X98255000Y-88220000D02*
X98255000Y-92100000D01*
X100225000Y-87050000D02*
X102725001Y-87050000D01*
X100225000Y-93270000D02*
X102725001Y-93270000D01*
X102725001Y-87050000D02*
X102725001Y-88100000D01*
X102725001Y-88100000D02*
X103715000Y-88100000D01*
X102725001Y-93270000D02*
X102725001Y-92220000D01*
%TO.C,J507*%
X98540000Y-60570000D02*
X99920000Y-60570000D01*
X98540000Y-61950000D02*
X98540000Y-60570000D01*
X98540000Y-63220000D02*
X98540000Y-73490000D01*
X98540000Y-63220000D02*
X101300000Y-63220000D01*
X98540000Y-73490000D02*
X101300000Y-73490000D01*
X101300000Y-63220000D02*
X101300000Y-73490000D01*
%TO.C,J502*%
X101450000Y-75540000D02*
X103150000Y-75540000D01*
X101450000Y-84880000D02*
X103150000Y-84880000D01*
%TO.C,J503*%
X120480000Y-89880000D02*
X126920000Y-89880000D01*
X120480000Y-105820000D02*
X120480000Y-89880000D01*
X120480000Y-105820000D02*
X126920000Y-105820000D01*
X121000000Y-105820000D02*
X121000000Y-89880000D01*
X126300001Y-105820000D02*
X126300001Y-89880000D01*
X126920000Y-103900000D02*
X126920000Y-89880000D01*
X126920000Y-105820000D02*
X126920000Y-104500000D01*
X127530000Y-104640000D02*
X126920000Y-104200000D01*
X127530000Y-103760000D01*
X127530000Y-104640000D01*
G36*
X127530000Y-104640000D02*
G01*
X126920000Y-104200000D01*
X127530000Y-103760000D01*
X127530000Y-104640000D01*
G37*
%TO.C,C404*%
X120083733Y-83430000D02*
X120376267Y-83430000D01*
X120083733Y-84450000D02*
X120376267Y-84450000D01*
%TO.C,U301*%
X119580000Y-70370000D02*
X119850000Y-70370000D01*
X119580000Y-73130000D02*
X119580000Y-70370000D01*
X119580000Y-73130000D02*
X119580000Y-75890000D01*
X119580000Y-75890000D02*
X119850000Y-75890000D01*
X125100000Y-70370000D02*
X124830000Y-70370000D01*
X125100000Y-73130000D02*
X125100000Y-70370000D01*
X125100000Y-73130000D02*
X125100000Y-75890000D01*
X125100000Y-75890000D02*
X124830000Y-75890000D01*
X119850001Y-76655000D02*
X119520000Y-76895000D01*
X119520000Y-76415000D01*
X119850001Y-76655000D01*
G36*
X119850001Y-76655000D02*
G01*
X119520000Y-76895000D01*
X119520000Y-76415000D01*
X119850001Y-76655000D01*
G37*
%TO.C,R706*%
X118447258Y-101077500D02*
X117972742Y-101077500D01*
X118447258Y-102122500D02*
X117972742Y-102122500D01*
D12*
%TO.C,U703*%
X106816999Y-97933000D02*
X106816999Y-100287000D01*
X109170999Y-100287000D02*
X109170999Y-97933000D01*
D11*
%TO.C,R704*%
X111477500Y-98972776D02*
X111477500Y-99482224D01*
X112522500Y-98972776D02*
X112522500Y-99482224D01*
%TO.C,U402*%
X111060000Y-83860000D02*
X111060000Y-83685000D01*
X111735000Y-81140000D02*
X111360000Y-81140000D01*
X111735000Y-83860000D02*
X111060000Y-83860000D01*
X113605000Y-81140000D02*
X114280000Y-81140000D01*
X113605000Y-83860000D02*
X114280000Y-83860000D01*
X114280000Y-81140000D02*
X114280000Y-81315000D01*
X114280000Y-83860000D02*
X114280000Y-83685000D01*
X111060000Y-81140000D02*
X110920000Y-80950000D01*
X111200000Y-80950000D01*
X111060000Y-81140000D01*
G36*
X111060000Y-81140000D02*
G01*
X110920000Y-80950000D01*
X111200000Y-80950000D01*
X111060000Y-81140000D01*
G37*
%TO.C,C401*%
X116043733Y-82760000D02*
X116336267Y-82760000D01*
X116043733Y-83780000D02*
X116336267Y-83780000D01*
%TO.C,R715*%
X109457224Y-95747500D02*
X108947776Y-95747500D01*
X109457224Y-96792500D02*
X108947776Y-96792500D01*
%TO.C,R701*%
X114087500Y-97952776D02*
X114087500Y-98462224D01*
X115132500Y-97952776D02*
X115132500Y-98462224D01*
%TO.C,R717*%
X106057500Y-95612224D02*
X106057500Y-95102776D01*
X107102500Y-95612224D02*
X107102500Y-95102776D01*
%TO.C,R304*%
X107510654Y-92889580D02*
X107150420Y-92529346D01*
X108249580Y-92150654D02*
X107889346Y-91790420D01*
D12*
%TO.C,U701*%
X115699001Y-97943000D02*
X115699001Y-100297000D01*
X118053001Y-100297000D02*
X118053001Y-97943000D01*
D11*
%TO.C,R712*%
X113934724Y-94597500D02*
X113425276Y-94597500D01*
X113934724Y-95642500D02*
X113425276Y-95642500D01*
%TO.C,TP201*%
X118200000Y-110800000D02*
G75*
G02*
X116300000Y-110800000I-950000J0D01*
G01*
X116300000Y-110800000D02*
G75*
G02*
X118200000Y-110800000I950000J0D01*
G01*
%TO.C,Q701*%
X114662500Y-101069999D02*
X114012500Y-101070000D01*
X114662500Y-101069999D02*
X115312500Y-101070000D01*
X114662500Y-104190001D02*
X114012500Y-104190000D01*
X114662500Y-104190001D02*
X115312500Y-104190000D01*
X116065000Y-104470000D02*
X115585000Y-104469999D01*
X115825000Y-104140000D01*
X116065000Y-104470000D01*
G36*
X116065000Y-104470000D02*
G01*
X115585000Y-104469999D01*
X115825000Y-104140000D01*
X116065000Y-104470000D01*
G37*
%TO.C,R201*%
X109242776Y-110287500D02*
X109752224Y-110287500D01*
X109242776Y-111332500D02*
X109752224Y-111332500D01*
%TO.C,U403*%
X114755000Y-84965001D02*
X115069000Y-84965001D01*
X114755000Y-85465001D02*
X114755000Y-84965001D01*
X114755000Y-88265001D02*
X114755000Y-87765001D01*
X115069000Y-88265001D02*
X114755000Y-88265001D01*
X119955000Y-85265001D02*
X119955001Y-86015001D01*
X119955000Y-87765001D02*
X119955000Y-88265001D01*
X119955000Y-88265001D02*
X119641000Y-88265001D01*
X120315001Y-85065001D02*
X119955000Y-85065001D01*
X119955001Y-84705001D01*
X120315001Y-85065001D01*
G36*
X120315001Y-85065001D02*
G01*
X119955000Y-85065001D01*
X119955001Y-84705001D01*
X120315001Y-85065001D01*
G37*
%TO.C,C405*%
X112811233Y-57490000D02*
X113103767Y-57490000D01*
X112811233Y-58510000D02*
X113103767Y-58510000D01*
%TO.C,TP202*%
X117650000Y-107370000D02*
G75*
G02*
X115750000Y-107370000I-950000J0D01*
G01*
X115750000Y-107370000D02*
G75*
G02*
X117650000Y-107370000I950000J0D01*
G01*
%TO.C,D202*%
X112015000Y-107125000D02*
X112015000Y-108595000D01*
X112015000Y-108595000D02*
X114475000Y-108595000D01*
X114475000Y-107125000D02*
X112015000Y-107125000D01*
%TO.C,R402*%
X118867500Y-65612776D02*
X118867500Y-66122224D01*
X119912500Y-65612776D02*
X119912500Y-66122224D01*
%TO.C,C403*%
X105970000Y-88396234D02*
X105970000Y-88688768D01*
X106990000Y-88396234D02*
X106990000Y-88688768D01*
%TO.C,R714*%
X107057258Y-103967500D02*
X106582742Y-103967500D01*
X107057258Y-105012500D02*
X106582742Y-105012500D01*
%TD*%
M02*
