%TF.GenerationSoftware,KiCad,Pcbnew,9.0.2*%
%TF.CreationDate,2025-06-24T21:40:30-05:00*%
%TF.ProjectId,Flight Computer,466c6967-6874-4204-936f-6d7075746572,rev?*%
%TF.SameCoordinates,Original*%
%TF.FileFunction,Copper,L2,Inr*%
%TF.FilePolarity,Positive*%
%FSLAX46Y46*%
G04 Gerber Fmt 4.6, Leading zero omitted, Abs format (unit mm)*
G04 Created by KiCad (PCBNEW 9.0.2) date 2025-06-24 21:40:30*
%MOMM*%
%LPD*%
G01*
G04 APERTURE LIST*
G04 Aperture macros list*
%AMRoundRect*
0 Rectangle with rounded corners*
0 $1 Rounding radius*
0 $2 $3 $4 $5 $6 $7 $8 $9 X,Y pos of 4 corners*
0 Add a 4 corners polygon primitive as box body*
4,1,4,$2,$3,$4,$5,$6,$7,$8,$9,$2,$3,0*
0 Add four circle primitives for the rounded corners*
1,1,$1+$1,$2,$3*
1,1,$1+$1,$4,$5*
1,1,$1+$1,$6,$7*
1,1,$1+$1,$8,$9*
0 Add four rect primitives between the rounded corners*
20,1,$1+$1,$2,$3,$4,$5,0*
20,1,$1+$1,$4,$5,$6,$7,0*
20,1,$1+$1,$6,$7,$8,$9,0*
20,1,$1+$1,$8,$9,$2,$3,0*%
G04 Aperture macros list end*
%TA.AperFunction,ComponentPad*%
%ADD10C,3.100000*%
%TD*%
%TA.AperFunction,ComponentPad*%
%ADD11RoundRect,0.249999X-0.850001X0.850001X-0.850001X-0.850001X0.850001X-0.850001X0.850001X0.850001X0*%
%TD*%
%TA.AperFunction,ComponentPad*%
%ADD12C,2.200000*%
%TD*%
%TA.AperFunction,ComponentPad*%
%ADD13R,1.700000X1.700000*%
%TD*%
%TA.AperFunction,ComponentPad*%
%ADD14C,1.700000*%
%TD*%
%TA.AperFunction,HeatsinkPad*%
%ADD15O,2.100000X1.000000*%
%TD*%
%TA.AperFunction,HeatsinkPad*%
%ADD16O,1.800000X1.000000*%
%TD*%
%TA.AperFunction,ComponentPad*%
%ADD17RoundRect,0.249999X0.850001X-0.850001X0.850001X0.850001X-0.850001X0.850001X-0.850001X-0.850001X0*%
%TD*%
%TA.AperFunction,ViaPad*%
%ADD18C,0.600000*%
%TD*%
G04 APERTURE END LIST*
D10*
%TO.N,GND*%
%TO.C,H504*%
X124700000Y-109500000D03*
%TD*%
%TO.N,GND*%
%TO.C,H501*%
X100700000Y-55500000D03*
%TD*%
D11*
%TO.N,GND*%
%TO.C,J504*%
X101640000Y-96580000D03*
D12*
%TO.N,/Pryo3*%
X101640000Y-99120000D03*
%TO.N,GND*%
X101640000Y-101659999D03*
%TO.N,VCC*%
X101640000Y-104200000D03*
%TD*%
D13*
%TO.N,/Servo1*%
%TO.C,J507*%
X99920000Y-61950000D03*
D14*
%TO.N,/Servo2*%
X99920000Y-64490000D03*
%TO.N,/Servo3*%
X99920000Y-67030000D03*
%TO.N,/Servo4*%
X99920000Y-69570000D03*
%TO.N,GND*%
X99920000Y-72110000D03*
%TD*%
D15*
%TO.N,GND*%
%TO.C,J502*%
X104455000Y-75890000D03*
D16*
X100275000Y-75890000D03*
D15*
X104455000Y-84530000D03*
D16*
X100275000Y-84530000D03*
%TD*%
D17*
%TO.N,VCC*%
%TO.C,J503*%
X123700000Y-104200000D03*
D12*
%TO.N,Pyro_Power*%
X123700000Y-101660000D03*
%TO.N,/Pryo1*%
X123700000Y-99120001D03*
%TO.N,GND*%
X123700000Y-96580000D03*
%TO.N,/Pryo2*%
X123700000Y-94040000D03*
%TO.N,GND*%
X123700000Y-91500000D03*
%TD*%
D10*
%TO.N,GND*%
%TO.C,H503*%
X100700000Y-109500000D03*
%TD*%
%TO.N,GND*%
%TO.C,H502*%
X124700000Y-55500000D03*
%TD*%
D18*
%TO.N,GND*%
X107520000Y-76830000D03*
X120760000Y-106340000D03*
X119910000Y-81100000D03*
X110050000Y-55660000D03*
X109890000Y-90450000D03*
X126340000Y-82890000D03*
X109580000Y-57670000D03*
X108180000Y-56750000D03*
X107870000Y-53660000D03*
X126400000Y-75500000D03*
X107860000Y-55670000D03*
X116100000Y-58410000D03*
X114640000Y-86830000D03*
X113840000Y-54580000D03*
X112070000Y-91740000D03*
X107840000Y-54650000D03*
X110110000Y-53610000D03*
X108290000Y-57660000D03*
X110080000Y-54670000D03*
X123210000Y-87130000D03*
X111370000Y-79160000D03*
X104390000Y-73460000D03*
X109080000Y-86350000D03*
X109700000Y-56740000D03*
X111620000Y-89330000D03*
X114510000Y-90780000D03*
X110950000Y-62770000D03*
X99990000Y-80520000D03*
%TO.N,+3.3V*%
X108915000Y-94035000D03*
X119641714Y-86558286D03*
X116590000Y-54350000D03*
X117270000Y-108500000D03*
X101360000Y-90670000D03*
X113930000Y-91330000D03*
X109551789Y-80016472D03*
X119712646Y-90702646D03*
X119400000Y-64000000D03*
X126470000Y-87640000D03*
X105100000Y-87260000D03*
X117010000Y-58400000D03*
X111180000Y-85440000D03*
X107660000Y-108500000D03*
X119570000Y-79710000D03*
X114497354Y-84652646D03*
X111170000Y-58030000D03*
X115590000Y-68670000D03*
%TO.N,VCC*%
X112565000Y-95950000D03*
X103970000Y-96610000D03*
X113719500Y-110850938D03*
X99040000Y-91920000D03*
X116420000Y-104200000D03*
%TO.N,/SWDIO*%
X109705958Y-80754042D03*
X125900000Y-80500000D03*
%TO.N,/NRST*%
X116395000Y-90275000D03*
%TO.N,/SWCLK*%
X114492638Y-79591085D03*
%TO.N,/USB_DP_N*%
X108359479Y-81040521D03*
X104152385Y-80532907D03*
X103457906Y-79736802D03*
%TO.N,/USB_DP_P*%
X108960521Y-80439479D03*
%TO.N,Pyro_Power*%
X104040101Y-98080101D03*
X121330000Y-93313000D03*
X103910000Y-106690000D03*
X120120000Y-100150000D03*
%TO.N,/I2C_SDA*%
X109617646Y-88227646D03*
X117520000Y-80260000D03*
X105970000Y-68710000D03*
%TO.N,/I2C_SCL*%
X109660000Y-87240000D03*
X106240000Y-90860000D03*
X107948000Y-75050000D03*
%TO.N,/SPI_SCK*%
X113900000Y-79170000D03*
X122980000Y-70980000D03*
X112950000Y-82320000D03*
X117010000Y-77066000D03*
X118682002Y-87720000D03*
%TO.N,/SPI_MOSI*%
X116210000Y-87690000D03*
X110967000Y-87690000D03*
X121699306Y-77940000D03*
X119010000Y-77923000D03*
%TO.N,/SPI_CS1*%
X119126000Y-54356000D03*
X118277840Y-88623880D03*
%TO.N,/SPI_MISO*%
X112299749Y-88540000D03*
X121020000Y-78450000D03*
X112223343Y-82503769D03*
%TO.N,/Pryo1_Cont*%
X113441052Y-93018726D03*
X114140000Y-103023000D03*
%TO.N,/Pryo2_Cont*%
X113454192Y-92286575D03*
%TO.N,/{slash}GPS_SAFEBOOT*%
X105200000Y-66780000D03*
%TO.N,/Armed*%
X113620000Y-94650000D03*
X114260000Y-100933000D03*
%TO.N,/Pryo2_Trigger*%
X114690000Y-99750000D03*
X115099920Y-91337985D03*
%TO.N,/Pryo3_Trigger*%
X115620000Y-90830000D03*
X110470000Y-100720000D03*
%TO.N,/MCU/FLASH_CS*%
X119690000Y-77310000D03*
X118376000Y-82928998D03*
%TO.N,/MCU/{slash}FLASH_WP*%
X116632710Y-86788001D03*
X122970000Y-77960000D03*
%TO.N,/MCU/{slash}FLASH_RESET*%
X121700000Y-70830000D03*
X119101670Y-82885031D03*
%TO.N,/BARO_CS*%
X116050000Y-84550000D03*
%TO.N,/IMU_INT2*%
X119030000Y-81020000D03*
%TO.N,/LORA_SEL*%
X117776781Y-82517334D03*
X115010646Y-77005354D03*
%TO.N,/LORA_RESET*%
X106890000Y-83600000D03*
X113010000Y-77190000D03*
%TO.N,/LORA_DIO0*%
X117563347Y-88758165D03*
X125200000Y-69900000D03*
%TO.N,/IMU_INT1*%
X111446050Y-84264284D03*
%TO.N,/IMU_CS*%
X115213000Y-80217088D03*
%TO.N,/GPS_TX*%
X110430000Y-77790000D03*
%TO.N,/GPS_INT*%
X117856000Y-86442003D03*
X115570000Y-64770000D03*
%TO.N,/GPS_RX*%
X112320000Y-78340000D03*
%TO.N,VBUS*%
X101730000Y-88590000D03*
X102475000Y-83315000D03*
X102780000Y-77960000D03*
%TO.N,Net-(J502-CC2)*%
X103200000Y-81980000D03*
%TO.N,Net-(J502-CC1)*%
X102999000Y-78960000D03*
%TO.N,Net-(R709-Pad2)*%
X124770000Y-90270000D03*
%TD*%
%TA.AperFunction,Conductor*%
%TO.N,GND*%
G36*
X124973736Y-52800726D02*
G01*
X125251742Y-52817542D01*
X125266605Y-52819347D01*
X125341845Y-52833135D01*
X125536866Y-52868874D01*
X125551395Y-52872455D01*
X125813713Y-52954197D01*
X125827709Y-52959505D01*
X126078264Y-53072270D01*
X126091522Y-53079228D01*
X126326658Y-53221373D01*
X126338969Y-53229871D01*
X126555261Y-53399324D01*
X126566469Y-53409254D01*
X126760745Y-53603530D01*
X126770675Y-53614738D01*
X126940124Y-53831024D01*
X126948628Y-53843344D01*
X126976596Y-53889608D01*
X127090770Y-54078476D01*
X127097729Y-54091735D01*
X127210494Y-54342290D01*
X127215803Y-54356290D01*
X127297542Y-54618597D01*
X127301126Y-54633137D01*
X127350652Y-54903394D01*
X127352457Y-54918258D01*
X127369274Y-55196263D01*
X127369500Y-55203750D01*
X127369500Y-109796249D01*
X127369274Y-109803736D01*
X127352457Y-110081741D01*
X127350652Y-110096605D01*
X127301126Y-110366862D01*
X127297542Y-110381402D01*
X127215803Y-110643709D01*
X127210494Y-110657709D01*
X127097729Y-110908264D01*
X127090770Y-110921523D01*
X126948630Y-111156652D01*
X126940124Y-111168975D01*
X126770675Y-111385261D01*
X126760745Y-111396469D01*
X126566469Y-111590745D01*
X126555261Y-111600675D01*
X126338975Y-111770124D01*
X126326652Y-111778630D01*
X126091523Y-111920770D01*
X126078264Y-111927729D01*
X125827709Y-112040494D01*
X125813709Y-112045803D01*
X125551402Y-112127542D01*
X125536862Y-112131126D01*
X125266605Y-112180652D01*
X125251741Y-112182457D01*
X124973736Y-112199274D01*
X124966249Y-112199500D01*
X100373752Y-112199500D01*
X100366265Y-112199274D01*
X100088259Y-112182457D01*
X100073394Y-112180652D01*
X99803134Y-112131125D01*
X99788600Y-112127543D01*
X99526282Y-112045802D01*
X99512292Y-112040496D01*
X99261736Y-111927730D01*
X99248477Y-111920771D01*
X99013347Y-111778630D01*
X99001024Y-111770124D01*
X98784738Y-111600675D01*
X98773530Y-111590745D01*
X98579254Y-111396469D01*
X98569324Y-111385261D01*
X98399871Y-111168969D01*
X98391373Y-111156658D01*
X98249225Y-110921516D01*
X98242270Y-110908264D01*
X98186814Y-110785046D01*
X113219000Y-110785046D01*
X113219000Y-110916830D01*
X113236054Y-110980477D01*
X113253108Y-111044125D01*
X113286054Y-111101188D01*
X113319000Y-111158252D01*
X113412186Y-111251438D01*
X113526314Y-111317330D01*
X113653608Y-111351438D01*
X113653610Y-111351438D01*
X113785390Y-111351438D01*
X113785392Y-111351438D01*
X113912686Y-111317330D01*
X114026814Y-111251438D01*
X114120000Y-111158252D01*
X114185892Y-111044124D01*
X114220000Y-110916830D01*
X114220000Y-110785046D01*
X114185892Y-110657752D01*
X114120000Y-110543624D01*
X114026814Y-110450438D01*
X113969750Y-110417492D01*
X113912687Y-110384546D01*
X113846688Y-110366862D01*
X113785392Y-110350438D01*
X113653608Y-110350438D01*
X113526312Y-110384546D01*
X113412186Y-110450438D01*
X113412183Y-110450440D01*
X113319002Y-110543621D01*
X113319000Y-110543624D01*
X113253108Y-110657750D01*
X113219000Y-110785046D01*
X98186814Y-110785046D01*
X98129501Y-110657702D01*
X98124200Y-110643726D01*
X98042453Y-110381387D01*
X98038874Y-110366865D01*
X97989347Y-110096605D01*
X97987542Y-110081740D01*
X97970726Y-109803735D01*
X97970500Y-109796248D01*
X97970500Y-108434108D01*
X107159500Y-108434108D01*
X107159500Y-108565891D01*
X107193608Y-108693187D01*
X107226554Y-108750250D01*
X107259500Y-108807314D01*
X107352686Y-108900500D01*
X107466814Y-108966392D01*
X107594108Y-109000500D01*
X107594110Y-109000500D01*
X107725890Y-109000500D01*
X107725892Y-109000500D01*
X107853186Y-108966392D01*
X107967314Y-108900500D01*
X108060500Y-108807314D01*
X108126392Y-108693186D01*
X108160500Y-108565892D01*
X108160500Y-108434108D01*
X116769500Y-108434108D01*
X116769500Y-108565891D01*
X116803608Y-108693187D01*
X116836554Y-108750250D01*
X116869500Y-108807314D01*
X116962686Y-108900500D01*
X117076814Y-108966392D01*
X117204108Y-109000500D01*
X117204110Y-109000500D01*
X117335890Y-109000500D01*
X117335892Y-109000500D01*
X117463186Y-108966392D01*
X117577314Y-108900500D01*
X117670500Y-108807314D01*
X117736392Y-108693186D01*
X117770500Y-108565892D01*
X117770500Y-108434108D01*
X117736392Y-108306814D01*
X117670500Y-108192686D01*
X117577314Y-108099500D01*
X117520250Y-108066554D01*
X117463187Y-108033608D01*
X117399539Y-108016554D01*
X117335892Y-107999500D01*
X117204108Y-107999500D01*
X117076812Y-108033608D01*
X116962686Y-108099500D01*
X116962683Y-108099502D01*
X116869502Y-108192683D01*
X116869500Y-108192686D01*
X116803608Y-108306812D01*
X116769500Y-108434108D01*
X108160500Y-108434108D01*
X108126392Y-108306814D01*
X108060500Y-108192686D01*
X107967314Y-108099500D01*
X107910250Y-108066554D01*
X107853187Y-108033608D01*
X107789539Y-108016554D01*
X107725892Y-107999500D01*
X107594108Y-107999500D01*
X107466812Y-108033608D01*
X107352686Y-108099500D01*
X107352683Y-108099502D01*
X107259502Y-108192683D01*
X107259500Y-108192686D01*
X107193608Y-108306812D01*
X107159500Y-108434108D01*
X97970500Y-108434108D01*
X97970500Y-106624108D01*
X103409500Y-106624108D01*
X103409500Y-106755891D01*
X103443608Y-106883187D01*
X103476554Y-106940250D01*
X103509500Y-106997314D01*
X103602686Y-107090500D01*
X103716814Y-107156392D01*
X103844108Y-107190500D01*
X103844110Y-107190500D01*
X103975890Y-107190500D01*
X103975892Y-107190500D01*
X104103186Y-107156392D01*
X104217314Y-107090500D01*
X104310500Y-106997314D01*
X104376392Y-106883186D01*
X104410500Y-106755892D01*
X104410500Y-106624108D01*
X104376392Y-106496814D01*
X104310500Y-106382686D01*
X104217314Y-106289500D01*
X104160250Y-106256554D01*
X104103187Y-106223608D01*
X104039539Y-106206554D01*
X103975892Y-106189500D01*
X103844108Y-106189500D01*
X103716812Y-106223608D01*
X103602686Y-106289500D01*
X103602683Y-106289502D01*
X103509502Y-106382683D01*
X103509500Y-106382686D01*
X103443608Y-106496812D01*
X103409500Y-106624108D01*
X97970500Y-106624108D01*
X97970500Y-95680013D01*
X100040000Y-95680013D01*
X100040000Y-96330000D01*
X101149252Y-96330000D01*
X101127482Y-96367708D01*
X101090000Y-96507591D01*
X101090000Y-96652409D01*
X101127482Y-96792292D01*
X101149252Y-96830000D01*
X100040001Y-96830000D01*
X100040001Y-97479986D01*
X100050494Y-97582696D01*
X100050494Y-97582698D01*
X100105640Y-97749119D01*
X100105645Y-97749130D01*
X100197680Y-97898340D01*
X100197683Y-97898344D01*
X100321655Y-98022316D01*
X100321659Y-98022319D01*
X100470869Y-98114354D01*
X100470882Y-98114360D01*
X100545404Y-98139054D01*
X100602850Y-98178826D01*
X100629673Y-98243342D01*
X100617358Y-98312118D01*
X100606720Y-98329645D01*
X100527712Y-98438390D01*
X100434781Y-98620776D01*
X100371522Y-98815465D01*
X100339500Y-99017648D01*
X100339500Y-99222351D01*
X100371522Y-99424534D01*
X100434781Y-99619223D01*
X100527715Y-99801613D01*
X100648028Y-99967213D01*
X100796226Y-100115411D01*
X100794962Y-100116674D01*
X100828956Y-100168749D01*
X100829454Y-100238617D01*
X100792100Y-100297663D01*
X100783117Y-100304850D01*
X100699301Y-100365746D01*
X100699300Y-100365747D01*
X101469765Y-101136211D01*
X101427708Y-101147481D01*
X101302292Y-101219889D01*
X101199890Y-101322291D01*
X101127482Y-101447707D01*
X101116212Y-101489764D01*
X100345748Y-100719299D01*
X100345747Y-100719300D01*
X100271559Y-100821412D01*
X100157219Y-101045814D01*
X100079397Y-101285329D01*
X100040000Y-101534070D01*
X100040000Y-101785927D01*
X100079397Y-102034668D01*
X100157219Y-102274183D01*
X100271557Y-102498582D01*
X100345748Y-102600696D01*
X100345748Y-102600697D01*
X101116212Y-101830233D01*
X101127482Y-101872291D01*
X101199890Y-101997707D01*
X101302292Y-102100109D01*
X101427708Y-102172517D01*
X101469765Y-102183786D01*
X100699300Y-102954249D01*
X100699301Y-102954250D01*
X100783118Y-103015147D01*
X100825784Y-103070477D01*
X100831763Y-103140090D01*
X100799157Y-103201885D01*
X100795483Y-103205331D01*
X100648028Y-103352786D01*
X100527715Y-103518386D01*
X100434781Y-103700776D01*
X100371522Y-103895465D01*
X100339500Y-104097648D01*
X100339500Y-104302351D01*
X100371522Y-104504534D01*
X100434781Y-104699223D01*
X100527715Y-104881613D01*
X100648028Y-105047213D01*
X100792786Y-105191971D01*
X100947749Y-105304556D01*
X100958390Y-105312287D01*
X101074607Y-105371503D01*
X101140776Y-105405218D01*
X101140778Y-105405218D01*
X101140781Y-105405220D01*
X101245137Y-105439127D01*
X101335465Y-105468477D01*
X101436557Y-105484488D01*
X101537648Y-105500500D01*
X101537649Y-105500500D01*
X101742351Y-105500500D01*
X101742352Y-105500500D01*
X101944534Y-105468477D01*
X102139219Y-105405220D01*
X102321610Y-105312287D01*
X102414590Y-105244732D01*
X102487213Y-105191971D01*
X102487215Y-105191968D01*
X102487219Y-105191966D01*
X102631966Y-105047219D01*
X102631968Y-105047215D01*
X102631971Y-105047213D01*
X102684732Y-104974590D01*
X102752287Y-104881610D01*
X102845220Y-104699219D01*
X102908477Y-104504534D01*
X102940500Y-104302352D01*
X102940500Y-104134108D01*
X115919500Y-104134108D01*
X115919500Y-104265891D01*
X115953608Y-104393187D01*
X115986554Y-104450250D01*
X116019500Y-104507314D01*
X116112686Y-104600500D01*
X116226814Y-104666392D01*
X116354108Y-104700500D01*
X116354110Y-104700500D01*
X116485890Y-104700500D01*
X116485892Y-104700500D01*
X116613186Y-104666392D01*
X116727314Y-104600500D01*
X116820500Y-104507314D01*
X116886392Y-104393186D01*
X116920500Y-104265892D01*
X116920500Y-104134108D01*
X116886392Y-104006814D01*
X116820500Y-103892686D01*
X116727314Y-103799500D01*
X116670250Y-103766554D01*
X116613187Y-103733608D01*
X116549539Y-103716554D01*
X116485892Y-103699500D01*
X116354108Y-103699500D01*
X116226812Y-103733608D01*
X116112686Y-103799500D01*
X116112683Y-103799502D01*
X116019502Y-103892683D01*
X116019500Y-103892686D01*
X115953608Y-104006812D01*
X115919500Y-104134108D01*
X102940500Y-104134108D01*
X102940500Y-104097648D01*
X102908477Y-103895466D01*
X102845220Y-103700781D01*
X102845218Y-103700778D01*
X102845218Y-103700776D01*
X102811503Y-103634607D01*
X102752287Y-103518390D01*
X102731218Y-103489391D01*
X102631971Y-103352786D01*
X102483774Y-103204589D01*
X102485034Y-103203328D01*
X102451036Y-103151230D01*
X102450548Y-103081362D01*
X102473658Y-103037111D01*
X102538882Y-102957108D01*
X113639500Y-102957108D01*
X113639500Y-103088891D01*
X113673608Y-103216187D01*
X113701961Y-103265294D01*
X113739500Y-103330314D01*
X113832686Y-103423500D01*
X113946814Y-103489392D01*
X114074108Y-103523500D01*
X114074110Y-103523500D01*
X114205890Y-103523500D01*
X114205892Y-103523500D01*
X114333186Y-103489392D01*
X114447314Y-103423500D01*
X114540500Y-103330314D01*
X114606392Y-103216186D01*
X114640500Y-103088892D01*
X114640500Y-102957108D01*
X114606392Y-102829814D01*
X114540500Y-102715686D01*
X114447314Y-102622500D01*
X114390250Y-102589554D01*
X114333187Y-102556608D01*
X114269539Y-102539554D01*
X114205892Y-102522500D01*
X114074108Y-102522500D01*
X113946812Y-102556608D01*
X113832686Y-102622500D01*
X113832683Y-102622502D01*
X113739502Y-102715683D01*
X113739500Y-102715686D01*
X113673608Y-102829812D01*
X113639500Y-102957108D01*
X102538882Y-102957108D01*
X102558946Y-102932497D01*
X101810234Y-102183786D01*
X101852292Y-102172517D01*
X101977708Y-102100109D01*
X102080110Y-101997707D01*
X102152518Y-101872291D01*
X102163787Y-101830234D01*
X102934250Y-102600697D01*
X102934250Y-102600696D01*
X103008442Y-102498580D01*
X103008446Y-102498574D01*
X103122780Y-102274183D01*
X103200602Y-102034668D01*
X103240000Y-101785927D01*
X103240000Y-101534070D01*
X103200602Y-101285329D01*
X103122780Y-101045814D01*
X103008442Y-100821415D01*
X102934250Y-100719300D01*
X102934250Y-100719299D01*
X102163787Y-101489763D01*
X102152518Y-101447707D01*
X102080110Y-101322291D01*
X101977708Y-101219889D01*
X101852292Y-101147481D01*
X101810232Y-101136211D01*
X102292336Y-100654108D01*
X109969500Y-100654108D01*
X109969500Y-100785892D01*
X109979018Y-100821415D01*
X110003608Y-100913187D01*
X110036554Y-100970250D01*
X110069500Y-101027314D01*
X110162686Y-101120500D01*
X110276814Y-101186392D01*
X110404108Y-101220500D01*
X110404110Y-101220500D01*
X110535890Y-101220500D01*
X110535892Y-101220500D01*
X110663186Y-101186392D01*
X110777314Y-101120500D01*
X110870500Y-101027314D01*
X110936392Y-100913186D01*
X110948738Y-100867108D01*
X113759500Y-100867108D01*
X113759500Y-100998891D01*
X113793608Y-101126187D01*
X113813581Y-101160781D01*
X113859500Y-101240314D01*
X113952686Y-101333500D01*
X114066814Y-101399392D01*
X114194108Y-101433500D01*
X114194110Y-101433500D01*
X114325890Y-101433500D01*
X114325892Y-101433500D01*
X114453186Y-101399392D01*
X114567314Y-101333500D01*
X114660500Y-101240314D01*
X114726392Y-101126186D01*
X114760500Y-100998892D01*
X114760500Y-100867108D01*
X114726392Y-100739814D01*
X114660500Y-100625686D01*
X114567314Y-100532500D01*
X114510250Y-100499554D01*
X114453187Y-100466608D01*
X114389539Y-100449554D01*
X114325892Y-100432500D01*
X114194108Y-100432500D01*
X114066812Y-100466608D01*
X113952686Y-100532500D01*
X113952683Y-100532502D01*
X113859502Y-100625683D01*
X113859500Y-100625686D01*
X113793608Y-100739812D01*
X113759500Y-100867108D01*
X110948738Y-100867108D01*
X110970500Y-100785892D01*
X110970500Y-100654108D01*
X110936392Y-100526814D01*
X110870500Y-100412686D01*
X110777314Y-100319500D01*
X110708058Y-100279515D01*
X110663187Y-100253608D01*
X110583614Y-100232287D01*
X110535892Y-100219500D01*
X110404108Y-100219500D01*
X110276812Y-100253608D01*
X110162686Y-100319500D01*
X110162683Y-100319502D01*
X110069502Y-100412683D01*
X110069500Y-100412686D01*
X110003608Y-100526812D01*
X109970467Y-100650499D01*
X109969500Y-100654108D01*
X102292336Y-100654108D01*
X102580698Y-100365747D01*
X102580697Y-100365746D01*
X102496882Y-100304851D01*
X102454216Y-100249521D01*
X102448237Y-100179908D01*
X102480843Y-100118113D01*
X102484506Y-100114678D01*
X102487215Y-100111968D01*
X102487219Y-100111966D01*
X102631966Y-99967219D01*
X102631970Y-99967214D01*
X102631971Y-99967213D01*
X102752284Y-99801614D01*
X102752286Y-99801611D01*
X102752287Y-99801610D01*
X102812157Y-99684108D01*
X114189500Y-99684108D01*
X114189500Y-99815892D01*
X114206554Y-99879539D01*
X114223608Y-99943187D01*
X114237483Y-99967219D01*
X114289500Y-100057314D01*
X114382686Y-100150500D01*
X114481521Y-100207563D01*
X114495944Y-100215890D01*
X114496814Y-100216392D01*
X114624108Y-100250500D01*
X114624110Y-100250500D01*
X114755890Y-100250500D01*
X114755892Y-100250500D01*
X114883186Y-100216392D01*
X114997314Y-100150500D01*
X115063706Y-100084108D01*
X119619500Y-100084108D01*
X119619500Y-100215892D01*
X119623893Y-100232287D01*
X119653608Y-100343187D01*
X119677570Y-100384689D01*
X119719500Y-100457314D01*
X119812686Y-100550500D01*
X119926814Y-100616392D01*
X120054108Y-100650500D01*
X120054110Y-100650500D01*
X120185890Y-100650500D01*
X120185892Y-100650500D01*
X120313186Y-100616392D01*
X120427314Y-100550500D01*
X120520500Y-100457314D01*
X120586392Y-100343186D01*
X120620500Y-100215892D01*
X120620500Y-100084108D01*
X120586392Y-99956814D01*
X120520500Y-99842686D01*
X120427314Y-99749500D01*
X120370250Y-99716554D01*
X120313187Y-99683608D01*
X120249539Y-99666554D01*
X120185892Y-99649500D01*
X120054108Y-99649500D01*
X119926812Y-99683608D01*
X119812686Y-99749500D01*
X119812683Y-99749502D01*
X119719502Y-99842683D01*
X119719500Y-99842686D01*
X119653608Y-99956812D01*
X119626681Y-100057307D01*
X119619500Y-100084108D01*
X115063706Y-100084108D01*
X115090500Y-100057314D01*
X115103023Y-100035622D01*
X115115520Y-100013980D01*
X115156390Y-99943189D01*
X115156392Y-99943186D01*
X115190500Y-99815892D01*
X115190500Y-99684108D01*
X115156392Y-99556814D01*
X115090500Y-99442686D01*
X114997314Y-99349500D01*
X114940250Y-99316554D01*
X114883187Y-99283608D01*
X114819539Y-99266554D01*
X114755892Y-99249500D01*
X114624108Y-99249500D01*
X114496812Y-99283608D01*
X114382686Y-99349500D01*
X114382683Y-99349502D01*
X114289502Y-99442683D01*
X114289500Y-99442686D01*
X114223608Y-99556812D01*
X114198773Y-99649500D01*
X114189500Y-99684108D01*
X102812157Y-99684108D01*
X102845220Y-99619219D01*
X102908477Y-99424534D01*
X102940500Y-99222352D01*
X102940500Y-99017648D01*
X102908477Y-98815466D01*
X102845220Y-98620781D01*
X102845218Y-98620777D01*
X102845218Y-98620776D01*
X102807368Y-98546492D01*
X102752287Y-98438390D01*
X102673280Y-98329645D01*
X102649800Y-98263839D01*
X102665626Y-98195785D01*
X102715731Y-98147090D01*
X102734595Y-98139054D01*
X102809117Y-98114360D01*
X102809130Y-98114354D01*
X102958340Y-98022319D01*
X102958344Y-98022316D01*
X102966451Y-98014209D01*
X103539601Y-98014209D01*
X103539601Y-98145993D01*
X103552943Y-98195785D01*
X103573709Y-98273288D01*
X103596128Y-98312118D01*
X103639601Y-98387415D01*
X103732787Y-98480601D01*
X103846915Y-98546493D01*
X103974209Y-98580601D01*
X103974211Y-98580601D01*
X104105991Y-98580601D01*
X104105993Y-98580601D01*
X104233287Y-98546493D01*
X104347415Y-98480601D01*
X104440601Y-98387415D01*
X104506493Y-98273287D01*
X104540601Y-98145993D01*
X104540601Y-98014209D01*
X104506493Y-97886915D01*
X104440601Y-97772787D01*
X104347415Y-97679601D01*
X104290351Y-97646655D01*
X104233288Y-97613709D01*
X104169640Y-97596655D01*
X104105993Y-97579601D01*
X103974209Y-97579601D01*
X103846913Y-97613709D01*
X103732787Y-97679601D01*
X103732784Y-97679603D01*
X103639603Y-97772784D01*
X103639601Y-97772787D01*
X103573709Y-97886913D01*
X103566242Y-97914781D01*
X103539601Y-98014209D01*
X102966451Y-98014209D01*
X103062260Y-97918401D01*
X103082316Y-97898344D01*
X103082319Y-97898340D01*
X103174354Y-97749130D01*
X103174359Y-97749119D01*
X103229505Y-97582697D01*
X103239999Y-97479986D01*
X103240000Y-97479973D01*
X103240000Y-96830000D01*
X102130748Y-96830000D01*
X102152518Y-96792292D01*
X102190000Y-96652409D01*
X102190000Y-96544108D01*
X103469500Y-96544108D01*
X103469500Y-96675891D01*
X103503608Y-96803187D01*
X103519089Y-96830000D01*
X103569500Y-96917314D01*
X103662686Y-97010500D01*
X103776814Y-97076392D01*
X103904108Y-97110500D01*
X103904110Y-97110500D01*
X104035890Y-97110500D01*
X104035892Y-97110500D01*
X104163186Y-97076392D01*
X104277314Y-97010500D01*
X104370500Y-96917314D01*
X104436392Y-96803186D01*
X104470500Y-96675892D01*
X104470500Y-96544108D01*
X104436392Y-96416814D01*
X104436148Y-96416392D01*
X104427563Y-96401521D01*
X104370500Y-96302686D01*
X104277314Y-96209500D01*
X104220250Y-96176554D01*
X104163187Y-96143608D01*
X104099539Y-96126554D01*
X104035892Y-96109500D01*
X103904108Y-96109500D01*
X103776812Y-96143608D01*
X103662686Y-96209500D01*
X103662683Y-96209502D01*
X103569502Y-96302683D01*
X103569500Y-96302686D01*
X103503608Y-96416812D01*
X103469500Y-96544108D01*
X102190000Y-96544108D01*
X102190000Y-96507591D01*
X102152518Y-96367708D01*
X102130748Y-96330000D01*
X103239999Y-96330000D01*
X103239999Y-95884108D01*
X112064500Y-95884108D01*
X112064500Y-96015891D01*
X112098608Y-96143187D01*
X112131554Y-96200250D01*
X112164500Y-96257314D01*
X112257686Y-96350500D01*
X112371814Y-96416392D01*
X112499108Y-96450500D01*
X112499110Y-96450500D01*
X112630890Y-96450500D01*
X112630892Y-96450500D01*
X112758186Y-96416392D01*
X112872314Y-96350500D01*
X112965500Y-96257314D01*
X113031392Y-96143186D01*
X113065500Y-96015892D01*
X113065500Y-95884108D01*
X113031392Y-95756814D01*
X112965500Y-95642686D01*
X112872314Y-95549500D01*
X112815250Y-95516554D01*
X112758187Y-95483608D01*
X112694539Y-95466554D01*
X112630892Y-95449500D01*
X112499108Y-95449500D01*
X112371812Y-95483608D01*
X112257686Y-95549500D01*
X112257683Y-95549502D01*
X112164502Y-95642683D01*
X112164500Y-95642686D01*
X112098608Y-95756812D01*
X112064500Y-95884108D01*
X103239999Y-95884108D01*
X103239999Y-95680028D01*
X103239998Y-95680013D01*
X103229505Y-95577303D01*
X103229505Y-95577301D01*
X103174359Y-95410880D01*
X103174354Y-95410869D01*
X103082319Y-95261659D01*
X103082316Y-95261655D01*
X102958344Y-95137683D01*
X102958340Y-95137680D01*
X102809130Y-95045645D01*
X102809119Y-95045640D01*
X102642697Y-94990494D01*
X102539986Y-94980000D01*
X101890000Y-94980000D01*
X101890000Y-96089252D01*
X101852292Y-96067482D01*
X101712409Y-96030000D01*
X101567591Y-96030000D01*
X101427708Y-96067482D01*
X101390000Y-96089252D01*
X101390000Y-94980000D01*
X100740028Y-94980000D01*
X100740012Y-94980001D01*
X100637303Y-94990494D01*
X100637301Y-94990494D01*
X100470880Y-95045640D01*
X100470869Y-95045645D01*
X100321659Y-95137680D01*
X100321655Y-95137683D01*
X100197683Y-95261655D01*
X100197680Y-95261659D01*
X100105645Y-95410869D01*
X100105640Y-95410880D01*
X100050494Y-95577302D01*
X100040000Y-95680013D01*
X97970500Y-95680013D01*
X97970500Y-94584108D01*
X113119500Y-94584108D01*
X113119500Y-94715891D01*
X113153608Y-94843187D01*
X113186554Y-94900250D01*
X113219500Y-94957314D01*
X113312686Y-95050500D01*
X113426814Y-95116392D01*
X113554108Y-95150500D01*
X113554110Y-95150500D01*
X113685890Y-95150500D01*
X113685892Y-95150500D01*
X113813186Y-95116392D01*
X113927314Y-95050500D01*
X114020500Y-94957314D01*
X114086392Y-94843186D01*
X114120500Y-94715892D01*
X114120500Y-94584108D01*
X114086392Y-94456814D01*
X114020500Y-94342686D01*
X113927314Y-94249500D01*
X113870250Y-94216554D01*
X113813187Y-94183608D01*
X113749539Y-94166554D01*
X113685892Y-94149500D01*
X113554108Y-94149500D01*
X113426812Y-94183608D01*
X113312686Y-94249500D01*
X113312683Y-94249502D01*
X113219502Y-94342683D01*
X113219500Y-94342686D01*
X113153608Y-94456812D01*
X113119500Y-94584108D01*
X97970500Y-94584108D01*
X97970500Y-93969108D01*
X108414500Y-93969108D01*
X108414500Y-94100891D01*
X108448608Y-94228187D01*
X108481554Y-94285250D01*
X108514500Y-94342314D01*
X108607686Y-94435500D01*
X108721814Y-94501392D01*
X108849108Y-94535500D01*
X108849110Y-94535500D01*
X108980890Y-94535500D01*
X108980892Y-94535500D01*
X109108186Y-94501392D01*
X109222314Y-94435500D01*
X109315500Y-94342314D01*
X109381392Y-94228186D01*
X109415500Y-94100892D01*
X109415500Y-93969108D01*
X109381392Y-93841814D01*
X109315500Y-93727686D01*
X109222314Y-93634500D01*
X109165250Y-93601554D01*
X109108187Y-93568608D01*
X109004333Y-93540781D01*
X108980892Y-93534500D01*
X108849108Y-93534500D01*
X108721812Y-93568608D01*
X108607686Y-93634500D01*
X108607683Y-93634502D01*
X108514502Y-93727683D01*
X108514500Y-93727686D01*
X108448608Y-93841812D01*
X108414500Y-93969108D01*
X97970500Y-93969108D01*
X97970500Y-92952834D01*
X112940552Y-92952834D01*
X112940552Y-93084617D01*
X112974660Y-93211913D01*
X113007606Y-93268976D01*
X113040552Y-93326040D01*
X113133738Y-93419226D01*
X113247866Y-93485118D01*
X113375160Y-93519226D01*
X113375162Y-93519226D01*
X113506942Y-93519226D01*
X113506944Y-93519226D01*
X113634238Y-93485118D01*
X113748366Y-93419226D01*
X113841552Y-93326040D01*
X113887124Y-93247108D01*
X120829500Y-93247108D01*
X120829500Y-93378891D01*
X120863608Y-93506187D01*
X120883581Y-93540781D01*
X120929500Y-93620314D01*
X121022686Y-93713500D01*
X121136814Y-93779392D01*
X121264108Y-93813500D01*
X121264110Y-93813500D01*
X121395890Y-93813500D01*
X121395892Y-93813500D01*
X121523186Y-93779392D01*
X121637314Y-93713500D01*
X121730500Y-93620314D01*
X121796392Y-93506186D01*
X121830500Y-93378892D01*
X121830500Y-93247108D01*
X121796392Y-93119814D01*
X121730500Y-93005686D01*
X121637314Y-92912500D01*
X121537978Y-92855148D01*
X121523187Y-92846608D01*
X121444558Y-92825540D01*
X121395892Y-92812500D01*
X121264108Y-92812500D01*
X121136812Y-92846608D01*
X121022686Y-92912500D01*
X121022683Y-92912502D01*
X120929502Y-93005683D01*
X120929500Y-93005686D01*
X120863608Y-93119812D01*
X120829500Y-93247108D01*
X113887124Y-93247108D01*
X113907444Y-93211912D01*
X113941552Y-93084618D01*
X113941552Y-92952834D01*
X113907444Y-92825540D01*
X113849900Y-92725871D01*
X113833428Y-92657975D01*
X113852748Y-92602151D01*
X113850628Y-92600927D01*
X113854690Y-92593890D01*
X113854692Y-92593889D01*
X113920584Y-92479761D01*
X113954692Y-92352467D01*
X113954692Y-92220683D01*
X113920584Y-92093389D01*
X113876191Y-92016499D01*
X113859719Y-91948601D01*
X113882571Y-91882574D01*
X113937492Y-91839383D01*
X113983579Y-91830500D01*
X113995890Y-91830500D01*
X113995892Y-91830500D01*
X114123186Y-91796392D01*
X114237314Y-91730500D01*
X114330500Y-91637314D01*
X114396392Y-91523186D01*
X114396394Y-91523175D01*
X114399289Y-91516190D01*
X114443127Y-91461784D01*
X114509419Y-91439715D01*
X114577120Y-91456990D01*
X114624733Y-91508125D01*
X114633034Y-91529980D01*
X114633527Y-91531170D01*
X114657337Y-91572409D01*
X114699420Y-91645299D01*
X114792606Y-91738485D01*
X114906734Y-91804377D01*
X115034028Y-91838485D01*
X115034030Y-91838485D01*
X115165810Y-91838485D01*
X115165812Y-91838485D01*
X115293106Y-91804377D01*
X115407234Y-91738485D01*
X115500420Y-91645299D01*
X115566312Y-91531171D01*
X115596462Y-91418648D01*
X115599632Y-91413446D01*
X115600069Y-91407371D01*
X115617601Y-91383965D01*
X115623632Y-91374071D01*
X122100000Y-91374071D01*
X122100000Y-91625928D01*
X122139397Y-91874669D01*
X122217219Y-92114184D01*
X122331557Y-92338583D01*
X122405748Y-92440697D01*
X122405748Y-92440698D01*
X123176212Y-91670234D01*
X123187482Y-91712292D01*
X123259890Y-91837708D01*
X123362292Y-91940110D01*
X123487708Y-92012518D01*
X123529765Y-92023787D01*
X122759300Y-92794250D01*
X122843118Y-92855148D01*
X122885783Y-92910478D01*
X122891762Y-92980092D01*
X122859156Y-93041887D01*
X122855478Y-93045336D01*
X122708028Y-93192786D01*
X122587715Y-93358386D01*
X122494781Y-93540776D01*
X122431522Y-93735465D01*
X122399500Y-93937648D01*
X122399500Y-94142351D01*
X122431522Y-94344534D01*
X122494781Y-94539223D01*
X122587715Y-94721613D01*
X122708028Y-94887213D01*
X122856226Y-95035411D01*
X122854963Y-95036673D01*
X122888959Y-95088756D01*
X122889454Y-95158624D01*
X122852096Y-95217668D01*
X122843117Y-95224851D01*
X122759301Y-95285746D01*
X122759300Y-95285748D01*
X123529765Y-96056212D01*
X123487708Y-96067482D01*
X123362292Y-96139890D01*
X123259890Y-96242292D01*
X123187482Y-96367708D01*
X123176212Y-96409765D01*
X122405748Y-95639300D01*
X122405747Y-95639301D01*
X122331559Y-95741413D01*
X122217219Y-95965815D01*
X122139397Y-96205330D01*
X122100000Y-96454071D01*
X122100000Y-96705928D01*
X122139397Y-96954669D01*
X122217219Y-97194184D01*
X122331557Y-97418583D01*
X122405748Y-97520697D01*
X122405748Y-97520698D01*
X123176212Y-96750234D01*
X123187482Y-96792292D01*
X123259890Y-96917708D01*
X123362292Y-97020110D01*
X123487708Y-97092518D01*
X123529765Y-97103787D01*
X122759300Y-97874250D01*
X122759301Y-97874251D01*
X122843118Y-97935148D01*
X122885784Y-97990478D01*
X122891763Y-98060091D01*
X122859157Y-98121886D01*
X122855483Y-98125332D01*
X122708028Y-98272787D01*
X122587715Y-98438387D01*
X122494781Y-98620777D01*
X122431522Y-98815466D01*
X122399500Y-99017649D01*
X122399500Y-99222352D01*
X122431522Y-99424535D01*
X122494781Y-99619224D01*
X122510208Y-99649500D01*
X122587712Y-99801610D01*
X122587715Y-99801614D01*
X122708028Y-99967214D01*
X122852786Y-100111972D01*
X123018385Y-100232285D01*
X123018387Y-100232286D01*
X123018390Y-100232288D01*
X123111080Y-100279516D01*
X123161875Y-100327489D01*
X123178670Y-100395310D01*
X123156133Y-100461445D01*
X123111079Y-100500484D01*
X123018391Y-100547711D01*
X123018389Y-100547712D01*
X122852786Y-100668028D01*
X122708028Y-100812786D01*
X122587715Y-100978386D01*
X122494781Y-101160776D01*
X122431522Y-101355465D01*
X122399500Y-101557648D01*
X122399500Y-101762351D01*
X122431522Y-101964534D01*
X122494781Y-102159223D01*
X122587715Y-102341613D01*
X122708028Y-102507213D01*
X122852782Y-102651967D01*
X122852784Y-102651968D01*
X122884734Y-102675181D01*
X122927400Y-102730510D01*
X122933381Y-102800123D01*
X122900776Y-102861919D01*
X122839938Y-102896277D01*
X122811857Y-102899500D01*
X122795741Y-102899500D01*
X122784937Y-102900513D01*
X122765300Y-102902354D01*
X122765297Y-102902354D01*
X122765296Y-102902355D01*
X122765294Y-102902355D01*
X122637117Y-102947206D01*
X122527849Y-103027849D01*
X122447206Y-103137118D01*
X122402353Y-103265297D01*
X122402353Y-103265299D01*
X122399500Y-103295729D01*
X122399500Y-105104260D01*
X122399501Y-105104266D01*
X122402354Y-105134700D01*
X122402354Y-105134702D01*
X122402355Y-105134703D01*
X122402355Y-105134705D01*
X122447206Y-105262882D01*
X122527849Y-105372150D01*
X122572655Y-105405218D01*
X122637117Y-105452793D01*
X122679844Y-105467744D01*
X122765298Y-105497646D01*
X122772323Y-105498304D01*
X122795733Y-105500500D01*
X124604266Y-105500499D01*
X124634700Y-105497646D01*
X124762883Y-105452793D01*
X124872150Y-105372150D01*
X124952793Y-105262883D01*
X124977608Y-105191966D01*
X124997646Y-105134702D01*
X124997646Y-105134700D01*
X125000500Y-105104267D01*
X125000499Y-103295734D01*
X124997646Y-103265300D01*
X124952793Y-103137117D01*
X124872150Y-103027849D01*
X124776298Y-102957108D01*
X124762883Y-102947207D01*
X124762881Y-102947206D01*
X124634701Y-102902353D01*
X124604271Y-102899500D01*
X124604267Y-102899500D01*
X124588151Y-102899500D01*
X124521112Y-102879815D01*
X124475357Y-102827011D01*
X124465413Y-102757853D01*
X124494438Y-102694297D01*
X124515266Y-102675182D01*
X124547213Y-102651971D01*
X124547215Y-102651968D01*
X124547219Y-102651966D01*
X124691966Y-102507219D01*
X124691968Y-102507215D01*
X124691971Y-102507213D01*
X124744732Y-102434590D01*
X124812287Y-102341610D01*
X124905220Y-102159219D01*
X124968477Y-101964534D01*
X125000500Y-101762352D01*
X125000500Y-101557648D01*
X124980837Y-101433500D01*
X124968477Y-101355465D01*
X124931062Y-101240314D01*
X124905220Y-101160781D01*
X124905218Y-101160778D01*
X124905218Y-101160776D01*
X124837215Y-101027314D01*
X124812287Y-100978390D01*
X124764914Y-100913186D01*
X124691971Y-100812786D01*
X124547213Y-100668028D01*
X124381613Y-100547715D01*
X124381612Y-100547714D01*
X124381610Y-100547713D01*
X124288920Y-100500485D01*
X124238124Y-100452510D01*
X124221329Y-100384689D01*
X124243866Y-100318554D01*
X124288919Y-100279516D01*
X124381610Y-100232288D01*
X124431144Y-100196299D01*
X124547213Y-100111972D01*
X124547215Y-100111969D01*
X124547219Y-100111967D01*
X124691966Y-99967220D01*
X124691968Y-99967216D01*
X124691971Y-99967214D01*
X124744732Y-99894591D01*
X124812287Y-99801611D01*
X124905220Y-99619220D01*
X124968477Y-99424535D01*
X125000500Y-99222353D01*
X125000500Y-99017649D01*
X124968477Y-98815467D01*
X124968476Y-98815465D01*
X124905218Y-98620777D01*
X124867367Y-98546492D01*
X124812287Y-98438391D01*
X124775251Y-98387415D01*
X124691971Y-98272787D01*
X124543774Y-98124590D01*
X124545034Y-98123329D01*
X124511036Y-98071231D01*
X124510548Y-98001363D01*
X124547911Y-97942322D01*
X124556881Y-97935148D01*
X124640697Y-97874251D01*
X124640698Y-97874250D01*
X123870234Y-97103787D01*
X123912292Y-97092518D01*
X124037708Y-97020110D01*
X124140110Y-96917708D01*
X124212518Y-96792292D01*
X124223787Y-96750234D01*
X124994250Y-97520698D01*
X124994250Y-97520697D01*
X125068442Y-97418581D01*
X125068446Y-97418575D01*
X125182780Y-97194184D01*
X125260602Y-96954669D01*
X125300000Y-96705928D01*
X125300000Y-96454071D01*
X125260602Y-96205330D01*
X125182780Y-95965815D01*
X125068442Y-95741416D01*
X124994250Y-95639301D01*
X124994250Y-95639300D01*
X124223787Y-96409764D01*
X124212518Y-96367708D01*
X124140110Y-96242292D01*
X124037708Y-96139890D01*
X123912292Y-96067482D01*
X123870232Y-96056212D01*
X124640698Y-95285748D01*
X124556881Y-95224851D01*
X124514216Y-95169521D01*
X124508237Y-95099907D01*
X124540843Y-95038112D01*
X124544515Y-95034669D01*
X124547215Y-95031968D01*
X124547219Y-95031966D01*
X124691966Y-94887219D01*
X124691968Y-94887215D01*
X124691971Y-94887213D01*
X124744732Y-94814590D01*
X124812287Y-94721610D01*
X124905220Y-94539219D01*
X124968477Y-94344534D01*
X125000500Y-94142352D01*
X125000500Y-93937648D01*
X124980837Y-93813500D01*
X124968477Y-93735465D01*
X124931062Y-93620314D01*
X124905220Y-93540781D01*
X124905218Y-93540778D01*
X124905218Y-93540776D01*
X124871503Y-93474607D01*
X124812287Y-93358390D01*
X124788783Y-93326039D01*
X124691971Y-93192786D01*
X124543774Y-93044589D01*
X124545034Y-93043328D01*
X124511036Y-92991230D01*
X124510548Y-92921362D01*
X124547911Y-92862321D01*
X124556881Y-92855147D01*
X124640697Y-92794250D01*
X124640698Y-92794250D01*
X123870234Y-92023787D01*
X123912292Y-92012518D01*
X124037708Y-91940110D01*
X124140110Y-91837708D01*
X124212518Y-91712292D01*
X124223787Y-91670234D01*
X124994250Y-92440698D01*
X124994250Y-92440697D01*
X125068442Y-92338581D01*
X125068446Y-92338575D01*
X125182780Y-92114184D01*
X125260602Y-91874669D01*
X125300000Y-91625928D01*
X125300000Y-91374071D01*
X125260602Y-91125330D01*
X125182779Y-90885813D01*
X125115404Y-90753583D01*
X125102507Y-90684913D01*
X125128783Y-90620173D01*
X125138199Y-90609614D01*
X125170500Y-90577314D01*
X125236392Y-90463186D01*
X125270500Y-90335892D01*
X125270500Y-90204108D01*
X125236392Y-90076814D01*
X125170500Y-89962686D01*
X125077314Y-89869500D01*
X125020250Y-89836554D01*
X124963187Y-89803608D01*
X124854552Y-89774500D01*
X124835892Y-89769500D01*
X124704108Y-89769500D01*
X124576812Y-89803608D01*
X124462686Y-89869500D01*
X124368505Y-89963681D01*
X124307181Y-89997165D01*
X124242506Y-89993930D01*
X124074669Y-89939397D01*
X123825928Y-89900000D01*
X123574072Y-89900000D01*
X123325330Y-89939397D01*
X123085815Y-90017219D01*
X122861413Y-90131559D01*
X122759301Y-90205747D01*
X122759300Y-90205748D01*
X123529765Y-90976212D01*
X123487708Y-90987482D01*
X123362292Y-91059890D01*
X123259890Y-91162292D01*
X123187482Y-91287708D01*
X123176212Y-91329765D01*
X122405748Y-90559300D01*
X122405747Y-90559301D01*
X122331559Y-90661413D01*
X122217219Y-90885815D01*
X122139397Y-91125330D01*
X122100000Y-91374071D01*
X115623632Y-91374071D01*
X115632826Y-91358989D01*
X115639239Y-91355081D01*
X115641959Y-91351451D01*
X115657906Y-91343707D01*
X115672941Y-91334547D01*
X115683802Y-91330500D01*
X115685892Y-91330500D01*
X115813186Y-91296392D01*
X115927314Y-91230500D01*
X116020500Y-91137314D01*
X116086392Y-91023186D01*
X116120500Y-90895892D01*
X116120500Y-90881203D01*
X116140185Y-90814164D01*
X116192989Y-90768409D01*
X116262147Y-90758465D01*
X116276577Y-90761424D01*
X116329108Y-90775500D01*
X116329111Y-90775500D01*
X116460890Y-90775500D01*
X116460892Y-90775500D01*
X116588186Y-90741392D01*
X116702314Y-90675500D01*
X116741060Y-90636754D01*
X119212146Y-90636754D01*
X119212146Y-90768538D01*
X119218998Y-90794110D01*
X119246254Y-90895833D01*
X119277528Y-90950000D01*
X119312146Y-91009960D01*
X119405332Y-91103146D01*
X119519460Y-91169038D01*
X119646754Y-91203146D01*
X119646756Y-91203146D01*
X119778536Y-91203146D01*
X119778538Y-91203146D01*
X119905832Y-91169038D01*
X120019960Y-91103146D01*
X120113146Y-91009960D01*
X120179038Y-90895832D01*
X120213146Y-90768538D01*
X120213146Y-90636754D01*
X120179038Y-90509460D01*
X120113146Y-90395332D01*
X120019960Y-90302146D01*
X119962896Y-90269200D01*
X119905833Y-90236254D01*
X119804528Y-90209110D01*
X119778538Y-90202146D01*
X119646754Y-90202146D01*
X119519458Y-90236254D01*
X119405332Y-90302146D01*
X119405329Y-90302148D01*
X119312148Y-90395329D01*
X119312146Y-90395332D01*
X119246254Y-90509458D01*
X119228072Y-90577316D01*
X119212146Y-90636754D01*
X116741060Y-90636754D01*
X116795500Y-90582314D01*
X116861392Y-90468186D01*
X116895500Y-90340892D01*
X116895500Y-90209108D01*
X116861392Y-90081814D01*
X116795500Y-89967686D01*
X116702314Y-89874500D01*
X116645250Y-89841554D01*
X116588187Y-89808608D01*
X116524539Y-89791554D01*
X116460892Y-89774500D01*
X116329108Y-89774500D01*
X116201812Y-89808608D01*
X116087686Y-89874500D01*
X116087683Y-89874502D01*
X115994502Y-89967683D01*
X115994500Y-89967686D01*
X115928608Y-90081812D01*
X115894500Y-90209108D01*
X115894500Y-90223796D01*
X115874815Y-90290835D01*
X115822011Y-90336590D01*
X115752853Y-90346534D01*
X115738408Y-90343571D01*
X115685893Y-90329500D01*
X115685892Y-90329500D01*
X115554108Y-90329500D01*
X115426812Y-90363608D01*
X115312686Y-90429500D01*
X115312683Y-90429502D01*
X115219502Y-90522683D01*
X115219500Y-90522686D01*
X115153643Y-90636754D01*
X115153608Y-90636814D01*
X115143242Y-90675500D01*
X115123458Y-90749335D01*
X115087092Y-90808995D01*
X115035777Y-90837016D01*
X114979289Y-90852152D01*
X114906734Y-90871593D01*
X114906732Y-90871593D01*
X114906732Y-90871594D01*
X114792606Y-90937485D01*
X114792603Y-90937487D01*
X114699422Y-91030668D01*
X114699420Y-91030671D01*
X114633525Y-91144803D01*
X114630626Y-91151803D01*
X114586784Y-91206206D01*
X114520489Y-91228269D01*
X114452790Y-91210988D01*
X114405181Y-91159850D01*
X114396889Y-91138015D01*
X114396392Y-91136814D01*
X114389762Y-91125330D01*
X114330500Y-91022686D01*
X114237314Y-90929500D01*
X114161646Y-90885813D01*
X114123187Y-90863608D01*
X114059539Y-90846554D01*
X113995892Y-90829500D01*
X113864108Y-90829500D01*
X113736812Y-90863608D01*
X113622686Y-90929500D01*
X113622683Y-90929502D01*
X113529502Y-91022683D01*
X113529500Y-91022686D01*
X113463608Y-91136812D01*
X113429500Y-91264108D01*
X113429500Y-91395891D01*
X113463608Y-91523187D01*
X113485772Y-91561575D01*
X113508000Y-91600075D01*
X113524473Y-91667974D01*
X113501621Y-91734001D01*
X113446700Y-91777192D01*
X113400613Y-91786075D01*
X113388300Y-91786075D01*
X113261004Y-91820183D01*
X113146878Y-91886075D01*
X113146875Y-91886077D01*
X113053694Y-91979258D01*
X113053692Y-91979261D01*
X112987800Y-92093387D01*
X112982495Y-92113186D01*
X112953692Y-92220683D01*
X112953692Y-92352467D01*
X112977333Y-92440698D01*
X112987801Y-92479763D01*
X112987801Y-92479764D01*
X113045341Y-92579426D01*
X113061814Y-92647326D01*
X113042492Y-92703148D01*
X113044615Y-92704374D01*
X112974661Y-92825536D01*
X112974661Y-92825537D01*
X112940552Y-92952834D01*
X97970500Y-92952834D01*
X97970500Y-91854108D01*
X98539500Y-91854108D01*
X98539500Y-91985892D01*
X98547702Y-92016501D01*
X98573608Y-92113187D01*
X98574184Y-92114184D01*
X98639500Y-92227314D01*
X98732686Y-92320500D01*
X98846814Y-92386392D01*
X98974108Y-92420500D01*
X98974110Y-92420500D01*
X99105890Y-92420500D01*
X99105892Y-92420500D01*
X99233186Y-92386392D01*
X99347314Y-92320500D01*
X99440500Y-92227314D01*
X99506392Y-92113186D01*
X99540500Y-91985892D01*
X99540500Y-91854108D01*
X99506392Y-91726814D01*
X99440500Y-91612686D01*
X99347314Y-91519500D01*
X99290250Y-91486554D01*
X99233187Y-91453608D01*
X99136088Y-91427591D01*
X99105892Y-91419500D01*
X98974108Y-91419500D01*
X98846812Y-91453608D01*
X98732686Y-91519500D01*
X98732683Y-91519502D01*
X98639502Y-91612683D01*
X98639500Y-91612686D01*
X98573608Y-91726812D01*
X98539649Y-91853553D01*
X98539500Y-91854108D01*
X97970500Y-91854108D01*
X97970500Y-90604108D01*
X100859500Y-90604108D01*
X100859500Y-90735892D01*
X100868773Y-90770500D01*
X100893608Y-90863187D01*
X100912490Y-90895891D01*
X100959500Y-90977314D01*
X101052686Y-91070500D01*
X101166814Y-91136392D01*
X101294108Y-91170500D01*
X101294110Y-91170500D01*
X101425890Y-91170500D01*
X101425892Y-91170500D01*
X101553186Y-91136392D01*
X101667314Y-91070500D01*
X101760500Y-90977314D01*
X101826392Y-90863186D01*
X101844901Y-90794108D01*
X105739500Y-90794108D01*
X105739500Y-90925892D01*
X105742607Y-90937487D01*
X105773608Y-91053187D01*
X105783604Y-91070500D01*
X105839500Y-91167314D01*
X105932686Y-91260500D01*
X106046814Y-91326392D01*
X106174108Y-91360500D01*
X106174110Y-91360500D01*
X106305890Y-91360500D01*
X106305892Y-91360500D01*
X106433186Y-91326392D01*
X106547314Y-91260500D01*
X106640500Y-91167314D01*
X106706392Y-91053186D01*
X106740500Y-90925892D01*
X106740500Y-90794108D01*
X106706392Y-90666814D01*
X106640500Y-90552686D01*
X106547314Y-90459500D01*
X106484619Y-90423303D01*
X106433187Y-90393608D01*
X106317782Y-90362686D01*
X106305892Y-90359500D01*
X106174108Y-90359500D01*
X106046812Y-90393608D01*
X105932686Y-90459500D01*
X105932683Y-90459502D01*
X105839502Y-90552683D01*
X105839500Y-90552686D01*
X105773608Y-90666812D01*
X105750277Y-90753887D01*
X105739500Y-90794108D01*
X101844901Y-90794108D01*
X101860500Y-90735892D01*
X101860500Y-90604108D01*
X101826392Y-90476814D01*
X101760500Y-90362686D01*
X101667314Y-90269500D01*
X101588153Y-90223796D01*
X101553187Y-90203608D01*
X101489539Y-90186554D01*
X101425892Y-90169500D01*
X101294108Y-90169500D01*
X101166812Y-90203608D01*
X101052686Y-90269500D01*
X101052683Y-90269502D01*
X100959502Y-90362683D01*
X100959500Y-90362686D01*
X100893608Y-90476812D01*
X100873279Y-90552683D01*
X100859500Y-90604108D01*
X97970500Y-90604108D01*
X97970500Y-88524108D01*
X101229500Y-88524108D01*
X101229500Y-88655892D01*
X101238578Y-88689771D01*
X101263608Y-88783187D01*
X101283169Y-88817067D01*
X101329500Y-88897314D01*
X101422686Y-88990500D01*
X101536814Y-89056392D01*
X101664108Y-89090500D01*
X101664110Y-89090500D01*
X101795890Y-89090500D01*
X101795892Y-89090500D01*
X101923186Y-89056392D01*
X102037314Y-88990500D01*
X102130500Y-88897314D01*
X102196392Y-88783186D01*
X102230500Y-88655892D01*
X102230500Y-88524108D01*
X102196392Y-88396814D01*
X102130500Y-88282686D01*
X102037314Y-88189500D01*
X101989257Y-88161754D01*
X109117146Y-88161754D01*
X109117146Y-88293538D01*
X109131421Y-88346812D01*
X109151254Y-88420833D01*
X109182013Y-88474108D01*
X109217146Y-88534960D01*
X109310332Y-88628146D01*
X109409167Y-88685209D01*
X109417067Y-88689770D01*
X109424460Y-88694038D01*
X109551754Y-88728146D01*
X109551756Y-88728146D01*
X109683536Y-88728146D01*
X109683538Y-88728146D01*
X109810832Y-88694038D01*
X109924960Y-88628146D01*
X110018146Y-88534960D01*
X110053279Y-88474108D01*
X111799249Y-88474108D01*
X111799249Y-88605891D01*
X111833357Y-88733187D01*
X111862225Y-88783186D01*
X111899249Y-88847314D01*
X111992435Y-88940500D01*
X112106563Y-89006392D01*
X112233857Y-89040500D01*
X112233859Y-89040500D01*
X112365639Y-89040500D01*
X112365641Y-89040500D01*
X112492935Y-89006392D01*
X112607063Y-88940500D01*
X112700249Y-88847314D01*
X112766141Y-88733186D01*
X112777104Y-88692273D01*
X117062847Y-88692273D01*
X117062847Y-88824057D01*
X117069079Y-88847314D01*
X117096955Y-88951352D01*
X117119556Y-88990497D01*
X117162847Y-89065479D01*
X117256033Y-89158665D01*
X117370161Y-89224557D01*
X117497455Y-89258665D01*
X117497457Y-89258665D01*
X117629237Y-89258665D01*
X117629239Y-89258665D01*
X117756533Y-89224557D01*
X117870661Y-89158665D01*
X117925069Y-89104256D01*
X117986388Y-89070774D01*
X118056080Y-89075758D01*
X118074746Y-89084552D01*
X118084651Y-89090271D01*
X118084653Y-89090271D01*
X118084654Y-89090272D01*
X118211948Y-89124380D01*
X118211950Y-89124380D01*
X118343730Y-89124380D01*
X118343732Y-89124380D01*
X118471026Y-89090272D01*
X118585154Y-89024380D01*
X118678340Y-88931194D01*
X118744232Y-88817066D01*
X118778340Y-88689772D01*
X118778340Y-88557988D01*
X118744232Y-88430694D01*
X118720424Y-88389458D01*
X118703952Y-88321560D01*
X118726804Y-88255533D01*
X118781725Y-88212342D01*
X118795701Y-88207690D01*
X118875188Y-88186392D01*
X118989316Y-88120500D01*
X119082502Y-88027314D01*
X119148394Y-87913186D01*
X119182502Y-87785892D01*
X119182502Y-87654108D01*
X119174464Y-87624108D01*
X119167490Y-87598080D01*
X119167488Y-87598075D01*
X119161066Y-87574108D01*
X125969500Y-87574108D01*
X125969500Y-87705892D01*
X125978504Y-87739497D01*
X126003608Y-87833187D01*
X126032476Y-87883186D01*
X126069500Y-87947314D01*
X126162686Y-88040500D01*
X126276814Y-88106392D01*
X126404108Y-88140500D01*
X126404110Y-88140500D01*
X126535890Y-88140500D01*
X126535892Y-88140500D01*
X126663186Y-88106392D01*
X126777314Y-88040500D01*
X126870500Y-87947314D01*
X126936392Y-87833186D01*
X126970500Y-87705892D01*
X126970500Y-87574108D01*
X126936392Y-87446814D01*
X126870500Y-87332686D01*
X126777314Y-87239500D01*
X126705890Y-87198263D01*
X126663187Y-87173608D01*
X126576631Y-87150416D01*
X126535892Y-87139500D01*
X126404108Y-87139500D01*
X126276812Y-87173608D01*
X126162686Y-87239500D01*
X126162683Y-87239502D01*
X126069502Y-87332683D01*
X126069500Y-87332686D01*
X126003608Y-87446812D01*
X125982173Y-87526812D01*
X125969500Y-87574108D01*
X119161066Y-87574108D01*
X119148394Y-87526814D01*
X119082502Y-87412686D01*
X118989316Y-87319500D01*
X118920445Y-87279737D01*
X118875189Y-87253608D01*
X118811541Y-87236554D01*
X118747894Y-87219500D01*
X118616110Y-87219500D01*
X118488814Y-87253608D01*
X118374688Y-87319500D01*
X118374685Y-87319502D01*
X118281504Y-87412683D01*
X118281502Y-87412686D01*
X118215610Y-87526812D01*
X118189540Y-87624108D01*
X118181502Y-87654108D01*
X118181502Y-87785892D01*
X118194174Y-87833186D01*
X118215611Y-87913188D01*
X118215611Y-87913189D01*
X118239416Y-87954420D01*
X118255889Y-88022320D01*
X118233037Y-88088347D01*
X118178115Y-88131538D01*
X118164124Y-88136194D01*
X118148055Y-88140500D01*
X118084652Y-88157488D01*
X117970526Y-88223380D01*
X117916118Y-88277787D01*
X117854794Y-88311271D01*
X117785103Y-88306285D01*
X117766438Y-88297491D01*
X117756536Y-88291774D01*
X117756533Y-88291773D01*
X117629239Y-88257665D01*
X117497455Y-88257665D01*
X117370159Y-88291773D01*
X117256033Y-88357665D01*
X117256030Y-88357667D01*
X117162849Y-88450848D01*
X117162847Y-88450851D01*
X117096955Y-88564977D01*
X117073624Y-88652053D01*
X117062847Y-88692273D01*
X112777104Y-88692273D01*
X112800249Y-88605892D01*
X112800249Y-88474108D01*
X112766141Y-88346814D01*
X112700249Y-88232686D01*
X112607063Y-88139500D01*
X112518464Y-88088347D01*
X112492936Y-88073608D01*
X112429288Y-88056554D01*
X112365641Y-88039500D01*
X112233857Y-88039500D01*
X112106561Y-88073608D01*
X111992435Y-88139500D01*
X111992432Y-88139502D01*
X111899251Y-88232683D01*
X111899249Y-88232686D01*
X111833357Y-88346812D01*
X111799249Y-88474108D01*
X110053279Y-88474108D01*
X110084038Y-88420832D01*
X110118146Y-88293538D01*
X110118146Y-88161754D01*
X110084038Y-88034460D01*
X110018146Y-87920332D01*
X109936402Y-87838588D01*
X109902917Y-87777265D01*
X109907901Y-87707573D01*
X109938020Y-87661637D01*
X109948942Y-87651106D01*
X109967314Y-87640500D01*
X109983706Y-87624108D01*
X110466500Y-87624108D01*
X110466500Y-87755892D01*
X110482607Y-87816005D01*
X110500608Y-87883187D01*
X110522054Y-87920332D01*
X110566500Y-87997314D01*
X110659686Y-88090500D01*
X110773814Y-88156392D01*
X110901108Y-88190500D01*
X110901110Y-88190500D01*
X111032890Y-88190500D01*
X111032892Y-88190500D01*
X111160186Y-88156392D01*
X111274314Y-88090500D01*
X111367500Y-87997314D01*
X111433392Y-87883186D01*
X111467500Y-87755892D01*
X111467500Y-87624108D01*
X115709500Y-87624108D01*
X115709500Y-87755892D01*
X115725607Y-87816005D01*
X115743608Y-87883187D01*
X115765054Y-87920332D01*
X115809500Y-87997314D01*
X115902686Y-88090500D01*
X116016814Y-88156392D01*
X116144108Y-88190500D01*
X116144110Y-88190500D01*
X116275890Y-88190500D01*
X116275892Y-88190500D01*
X116403186Y-88156392D01*
X116517314Y-88090500D01*
X116610500Y-87997314D01*
X116676392Y-87883186D01*
X116710500Y-87755892D01*
X116710500Y-87624108D01*
X116676392Y-87496814D01*
X116676390Y-87496810D01*
X116656011Y-87461512D01*
X116639538Y-87393612D01*
X116662391Y-87327585D01*
X116717312Y-87284394D01*
X116731289Y-87279742D01*
X116825896Y-87254393D01*
X116940024Y-87188501D01*
X117033210Y-87095315D01*
X117099102Y-86981187D01*
X117133210Y-86853893D01*
X117133210Y-86722109D01*
X117099102Y-86594815D01*
X117033210Y-86480687D01*
X116940024Y-86387501D01*
X116920296Y-86376111D01*
X117355500Y-86376111D01*
X117355500Y-86507894D01*
X117389608Y-86635190D01*
X117422554Y-86692253D01*
X117455500Y-86749317D01*
X117548686Y-86842503D01*
X117662814Y-86908395D01*
X117790108Y-86942503D01*
X117790110Y-86942503D01*
X117921890Y-86942503D01*
X117921892Y-86942503D01*
X118049186Y-86908395D01*
X118163314Y-86842503D01*
X118256500Y-86749317D01*
X118322392Y-86635189D01*
X118356500Y-86507895D01*
X118356500Y-86492394D01*
X119141214Y-86492394D01*
X119141214Y-86624178D01*
X119144165Y-86635190D01*
X119175322Y-86751473D01*
X119188102Y-86773608D01*
X119241214Y-86865600D01*
X119334400Y-86958786D01*
X119448528Y-87024678D01*
X119575822Y-87058786D01*
X119575824Y-87058786D01*
X119707604Y-87058786D01*
X119707606Y-87058786D01*
X119834900Y-87024678D01*
X119949028Y-86958786D01*
X120042214Y-86865600D01*
X120108106Y-86751472D01*
X120142214Y-86624178D01*
X120142214Y-86492394D01*
X120108106Y-86365100D01*
X120042214Y-86250972D01*
X119949028Y-86157786D01*
X119891964Y-86124840D01*
X119834901Y-86091894D01*
X119771253Y-86074840D01*
X119707606Y-86057786D01*
X119575822Y-86057786D01*
X119448526Y-86091894D01*
X119334400Y-86157786D01*
X119334397Y-86157788D01*
X119241216Y-86250969D01*
X119241214Y-86250972D01*
X119175322Y-86365098D01*
X119169319Y-86387503D01*
X119141214Y-86492394D01*
X118356500Y-86492394D01*
X118356500Y-86376111D01*
X118322392Y-86248817D01*
X118256500Y-86134689D01*
X118163314Y-86041503D01*
X118106250Y-86008557D01*
X118049187Y-85975611D01*
X117985539Y-85958557D01*
X117921892Y-85941503D01*
X117790108Y-85941503D01*
X117662812Y-85975611D01*
X117548686Y-86041503D01*
X117548683Y-86041505D01*
X117455502Y-86134686D01*
X117455500Y-86134689D01*
X117389608Y-86248815D01*
X117355500Y-86376111D01*
X116920296Y-86376111D01*
X116882960Y-86354555D01*
X116825897Y-86321609D01*
X116762249Y-86304555D01*
X116698602Y-86287501D01*
X116566818Y-86287501D01*
X116439522Y-86321609D01*
X116325396Y-86387501D01*
X116325393Y-86387503D01*
X116232212Y-86480684D01*
X116232210Y-86480687D01*
X116166318Y-86594813D01*
X116132210Y-86722109D01*
X116132210Y-86853893D01*
X116146813Y-86908394D01*
X116166318Y-86981188D01*
X116186699Y-87016489D01*
X116203171Y-87084389D01*
X116180318Y-87150416D01*
X116125396Y-87193606D01*
X116111410Y-87198261D01*
X116016814Y-87223608D01*
X116016812Y-87223608D01*
X116016812Y-87223609D01*
X115902686Y-87289500D01*
X115902683Y-87289502D01*
X115809502Y-87382683D01*
X115809500Y-87382686D01*
X115743608Y-87496812D01*
X115730076Y-87547316D01*
X115709500Y-87624108D01*
X111467500Y-87624108D01*
X111433392Y-87496814D01*
X111367500Y-87382686D01*
X111274314Y-87289500D01*
X111212147Y-87253608D01*
X111160187Y-87223608D01*
X111065596Y-87198263D01*
X111032892Y-87189500D01*
X110901108Y-87189500D01*
X110773812Y-87223608D01*
X110659686Y-87289500D01*
X110659683Y-87289502D01*
X110566502Y-87382683D01*
X110566500Y-87382686D01*
X110500608Y-87496812D01*
X110487076Y-87547316D01*
X110466500Y-87624108D01*
X109983706Y-87624108D01*
X110060500Y-87547314D01*
X110126392Y-87433186D01*
X110160500Y-87305892D01*
X110160500Y-87174108D01*
X110126392Y-87046814D01*
X110060500Y-86932686D01*
X109967314Y-86839500D01*
X109887827Y-86793608D01*
X109853187Y-86773608D01*
X109770576Y-86751473D01*
X109725892Y-86739500D01*
X109594108Y-86739500D01*
X109466812Y-86773608D01*
X109352686Y-86839500D01*
X109352683Y-86839502D01*
X109259502Y-86932683D01*
X109259500Y-86932686D01*
X109193608Y-87046812D01*
X109168773Y-87139500D01*
X109159500Y-87174108D01*
X109159500Y-87305892D01*
X109176554Y-87369539D01*
X109193608Y-87433187D01*
X109209962Y-87461512D01*
X109259500Y-87547314D01*
X109259502Y-87547316D01*
X109341243Y-87629057D01*
X109374728Y-87690380D01*
X109369744Y-87760072D01*
X109327872Y-87816005D01*
X109315572Y-87824120D01*
X109310335Y-87827143D01*
X109310329Y-87827148D01*
X109217148Y-87920329D01*
X109217146Y-87920332D01*
X109151254Y-88034458D01*
X109136238Y-88090500D01*
X109117146Y-88161754D01*
X101989257Y-88161754D01*
X101952442Y-88140499D01*
X101923187Y-88123608D01*
X101858931Y-88106391D01*
X101795892Y-88089500D01*
X101664108Y-88089500D01*
X101536812Y-88123608D01*
X101422686Y-88189500D01*
X101422683Y-88189502D01*
X101329502Y-88282683D01*
X101329500Y-88282686D01*
X101263608Y-88396812D01*
X101249129Y-88450851D01*
X101229500Y-88524108D01*
X97970500Y-88524108D01*
X97970500Y-87194108D01*
X104599500Y-87194108D01*
X104599500Y-87325892D01*
X104614717Y-87382683D01*
X104633608Y-87453187D01*
X104658797Y-87496814D01*
X104699500Y-87567314D01*
X104792686Y-87660500D01*
X104906814Y-87726392D01*
X105034108Y-87760500D01*
X105034110Y-87760500D01*
X105165890Y-87760500D01*
X105165892Y-87760500D01*
X105293186Y-87726392D01*
X105407314Y-87660500D01*
X105500500Y-87567314D01*
X105566392Y-87453186D01*
X105600500Y-87325892D01*
X105600500Y-87194108D01*
X105566392Y-87066814D01*
X105561756Y-87058785D01*
X105554844Y-87046812D01*
X105500500Y-86952686D01*
X105407314Y-86859500D01*
X105350250Y-86826554D01*
X105293187Y-86793608D01*
X105218544Y-86773608D01*
X105165892Y-86759500D01*
X105034108Y-86759500D01*
X104906812Y-86793608D01*
X104792686Y-86859500D01*
X104792683Y-86859502D01*
X104699502Y-86952683D01*
X104699500Y-86952686D01*
X104633608Y-87066812D01*
X104614132Y-87139500D01*
X104599500Y-87194108D01*
X97970500Y-87194108D01*
X97970500Y-84280000D01*
X98905138Y-84280000D01*
X99708012Y-84280000D01*
X99690795Y-84289940D01*
X99634940Y-84345795D01*
X99595444Y-84414204D01*
X99575000Y-84490504D01*
X99575000Y-84569496D01*
X99595444Y-84645796D01*
X99634940Y-84714205D01*
X99690795Y-84770060D01*
X99708012Y-84780000D01*
X98905138Y-84780000D01*
X98913430Y-84821690D01*
X98913430Y-84821692D01*
X98988807Y-85003671D01*
X98988814Y-85003684D01*
X99098248Y-85167462D01*
X99098251Y-85167466D01*
X99237533Y-85306748D01*
X99237537Y-85306751D01*
X99401315Y-85416185D01*
X99401328Y-85416192D01*
X99583306Y-85491569D01*
X99583318Y-85491572D01*
X99776504Y-85529999D01*
X99776508Y-85530000D01*
X100025000Y-85530000D01*
X100025000Y-84830000D01*
X100525000Y-84830000D01*
X100525000Y-85530000D01*
X100773492Y-85530000D01*
X100773495Y-85529999D01*
X100966681Y-85491572D01*
X100966693Y-85491569D01*
X101148671Y-85416192D01*
X101148684Y-85416185D01*
X101312462Y-85306751D01*
X101312466Y-85306748D01*
X101451748Y-85167466D01*
X101451751Y-85167462D01*
X101561185Y-85003684D01*
X101561192Y-85003671D01*
X101636569Y-84821692D01*
X101636569Y-84821690D01*
X101644862Y-84780000D01*
X100841988Y-84780000D01*
X100859205Y-84770060D01*
X100915060Y-84714205D01*
X100954556Y-84645796D01*
X100975000Y-84569496D01*
X100975000Y-84490504D01*
X100954556Y-84414204D01*
X100915060Y-84345795D01*
X100859205Y-84289940D01*
X100841988Y-84280000D01*
X101644862Y-84280000D01*
X102935138Y-84280000D01*
X103738012Y-84280000D01*
X103720795Y-84289940D01*
X103664940Y-84345795D01*
X103625444Y-84414204D01*
X103605000Y-84490504D01*
X103605000Y-84569496D01*
X103625444Y-84645796D01*
X103664940Y-84714205D01*
X103720795Y-84770060D01*
X103738012Y-84780000D01*
X102935138Y-84780000D01*
X102943430Y-84821690D01*
X102943430Y-84821692D01*
X103018807Y-85003671D01*
X103018814Y-85003684D01*
X103128248Y-85167462D01*
X103128251Y-85167466D01*
X103267533Y-85306748D01*
X103267537Y-85306751D01*
X103431315Y-85416185D01*
X103431328Y-85416192D01*
X103613306Y-85491569D01*
X103613318Y-85491572D01*
X103806504Y-85529999D01*
X103806508Y-85530000D01*
X104205000Y-85530000D01*
X104205000Y-84830000D01*
X104705000Y-84830000D01*
X104705000Y-85530000D01*
X105103492Y-85530000D01*
X105103495Y-85529999D01*
X105296681Y-85491572D01*
X105296693Y-85491569D01*
X105478671Y-85416192D01*
X105478684Y-85416185D01*
X105541656Y-85374108D01*
X110679500Y-85374108D01*
X110679500Y-85505892D01*
X110685960Y-85530000D01*
X110713608Y-85633187D01*
X110746554Y-85690250D01*
X110779500Y-85747314D01*
X110872686Y-85840500D01*
X110986814Y-85906392D01*
X111114108Y-85940500D01*
X111114110Y-85940500D01*
X111245890Y-85940500D01*
X111245892Y-85940500D01*
X111373186Y-85906392D01*
X111487314Y-85840500D01*
X111580500Y-85747314D01*
X111646392Y-85633186D01*
X111680500Y-85505892D01*
X111680500Y-85374108D01*
X111646392Y-85246814D01*
X111580500Y-85132686D01*
X111487314Y-85039500D01*
X111412265Y-84996170D01*
X111364051Y-84945603D01*
X111350829Y-84876996D01*
X111376797Y-84812132D01*
X111433711Y-84771604D01*
X111474267Y-84764784D01*
X111511940Y-84764784D01*
X111511942Y-84764784D01*
X111639236Y-84730676D01*
X111753364Y-84664784D01*
X111831394Y-84586754D01*
X113996854Y-84586754D01*
X113996854Y-84718538D01*
X114010659Y-84770060D01*
X114030962Y-84845833D01*
X114057705Y-84892152D01*
X114096854Y-84959960D01*
X114190040Y-85053146D01*
X114304168Y-85119038D01*
X114431462Y-85153146D01*
X114431464Y-85153146D01*
X114563244Y-85153146D01*
X114563246Y-85153146D01*
X114690540Y-85119038D01*
X114804668Y-85053146D01*
X114897854Y-84959960D01*
X114963746Y-84845832D01*
X114997854Y-84718538D01*
X114997854Y-84586754D01*
X114970350Y-84484108D01*
X115549500Y-84484108D01*
X115549500Y-84615892D01*
X115566554Y-84679539D01*
X115583608Y-84743187D01*
X115616554Y-84800250D01*
X115649500Y-84857314D01*
X115742686Y-84950500D01*
X115856814Y-85016392D01*
X115984108Y-85050500D01*
X115984110Y-85050500D01*
X116115890Y-85050500D01*
X116115892Y-85050500D01*
X116243186Y-85016392D01*
X116357314Y-84950500D01*
X116450500Y-84857314D01*
X116516392Y-84743186D01*
X116550500Y-84615892D01*
X116550500Y-84484108D01*
X116516392Y-84356814D01*
X116450500Y-84242686D01*
X116357314Y-84149500D01*
X116272442Y-84100499D01*
X116243187Y-84083608D01*
X116178931Y-84066391D01*
X116115892Y-84049500D01*
X115984108Y-84049500D01*
X115856812Y-84083608D01*
X115742686Y-84149500D01*
X115742683Y-84149502D01*
X115649502Y-84242683D01*
X115649500Y-84242686D01*
X115583608Y-84356812D01*
X115556637Y-84457471D01*
X115549500Y-84484108D01*
X114970350Y-84484108D01*
X114963746Y-84459460D01*
X114897854Y-84345332D01*
X114804668Y-84252146D01*
X114747604Y-84219200D01*
X114690541Y-84186254D01*
X114626893Y-84169200D01*
X114563246Y-84152146D01*
X114431462Y-84152146D01*
X114304166Y-84186254D01*
X114190040Y-84252146D01*
X114190037Y-84252148D01*
X114096856Y-84345329D01*
X114096854Y-84345332D01*
X114030962Y-84459458D01*
X114001478Y-84569496D01*
X113996854Y-84586754D01*
X111831394Y-84586754D01*
X111846550Y-84571598D01*
X111912442Y-84457470D01*
X111946550Y-84330176D01*
X111946550Y-84198392D01*
X111912442Y-84071098D01*
X111909724Y-84066391D01*
X111871682Y-84000500D01*
X111846550Y-83956970D01*
X111753364Y-83863784D01*
X111669734Y-83815500D01*
X111639237Y-83797892D01*
X111575589Y-83780838D01*
X111511942Y-83763784D01*
X111380158Y-83763784D01*
X111252862Y-83797892D01*
X111138736Y-83863784D01*
X111138733Y-83863786D01*
X111045552Y-83956967D01*
X111045550Y-83956970D01*
X110979658Y-84071096D01*
X110945550Y-84198392D01*
X110945550Y-84330175D01*
X110979658Y-84457471D01*
X110998730Y-84490504D01*
X111045550Y-84571598D01*
X111138736Y-84664784D01*
X111213784Y-84708113D01*
X111261999Y-84758681D01*
X111275221Y-84827288D01*
X111249253Y-84892152D01*
X111192339Y-84932680D01*
X111151783Y-84939500D01*
X111114108Y-84939500D01*
X110986812Y-84973608D01*
X110872686Y-85039500D01*
X110872683Y-85039502D01*
X110779502Y-85132683D01*
X110779500Y-85132686D01*
X110713608Y-85246812D01*
X110705171Y-85278300D01*
X110679500Y-85374108D01*
X105541656Y-85374108D01*
X105642462Y-85306751D01*
X105642466Y-85306748D01*
X105670915Y-85278300D01*
X105781748Y-85167466D01*
X105781751Y-85167462D01*
X105891185Y-85003684D01*
X105891192Y-85003671D01*
X105966569Y-84821692D01*
X105966569Y-84821690D01*
X105974862Y-84780000D01*
X105171988Y-84780000D01*
X105189205Y-84770060D01*
X105245060Y-84714205D01*
X105284556Y-84645796D01*
X105305000Y-84569496D01*
X105305000Y-84490504D01*
X105284556Y-84414204D01*
X105245060Y-84345795D01*
X105189205Y-84289940D01*
X105171988Y-84280000D01*
X105974862Y-84280000D01*
X105966569Y-84238309D01*
X105966569Y-84238307D01*
X105891192Y-84056328D01*
X105891185Y-84056315D01*
X105781751Y-83892537D01*
X105781748Y-83892533D01*
X105642466Y-83753251D01*
X105642462Y-83753248D01*
X105478684Y-83643814D01*
X105478680Y-83643812D01*
X105470787Y-83640543D01*
X105470784Y-83640540D01*
X105296693Y-83568430D01*
X105296681Y-83568427D01*
X105124147Y-83534108D01*
X106389500Y-83534108D01*
X106389500Y-83665892D01*
X106402792Y-83715499D01*
X106423608Y-83793187D01*
X106436490Y-83815499D01*
X106489500Y-83907314D01*
X106582686Y-84000500D01*
X106696814Y-84066392D01*
X106824108Y-84100500D01*
X106824110Y-84100500D01*
X106955890Y-84100500D01*
X106955892Y-84100500D01*
X107083186Y-84066392D01*
X107197314Y-84000500D01*
X107290500Y-83907314D01*
X107356392Y-83793186D01*
X107390500Y-83665892D01*
X107390500Y-83534108D01*
X107356392Y-83406814D01*
X107290500Y-83292686D01*
X107197314Y-83199500D01*
X107128155Y-83159571D01*
X107083187Y-83133608D01*
X107019539Y-83116554D01*
X106955892Y-83099500D01*
X106824108Y-83099500D01*
X106696812Y-83133608D01*
X106582686Y-83199500D01*
X106582683Y-83199502D01*
X106489502Y-83292683D01*
X106489500Y-83292686D01*
X106423608Y-83406812D01*
X106412390Y-83448681D01*
X106389500Y-83534108D01*
X105124147Y-83534108D01*
X105103495Y-83530000D01*
X104705000Y-83530000D01*
X104705000Y-84230000D01*
X104205000Y-84230000D01*
X104205000Y-83541294D01*
X104213644Y-83511853D01*
X104220168Y-83481867D01*
X104223922Y-83476851D01*
X104224685Y-83474255D01*
X104241319Y-83453613D01*
X104303975Y-83390957D01*
X104309402Y-83385530D01*
X104317090Y-83377842D01*
X104376663Y-83274659D01*
X104407500Y-83159573D01*
X104407500Y-83040427D01*
X104376663Y-82925341D01*
X104317090Y-82822158D01*
X104232842Y-82737910D01*
X104161908Y-82696956D01*
X104129660Y-82678337D01*
X104072116Y-82662918D01*
X104014573Y-82647500D01*
X103895427Y-82647500D01*
X103780339Y-82678337D01*
X103677158Y-82737910D01*
X103677155Y-82737912D01*
X103592912Y-82822155D01*
X103592910Y-82822158D01*
X103533337Y-82925339D01*
X103502500Y-83040427D01*
X103502500Y-83159572D01*
X103533337Y-83274660D01*
X103539612Y-83285528D01*
X103592910Y-83377842D01*
X103592912Y-83377844D01*
X103602426Y-83387358D01*
X103635911Y-83448681D01*
X103630927Y-83518373D01*
X103589055Y-83574306D01*
X103562198Y-83589600D01*
X103431325Y-83643809D01*
X103431315Y-83643814D01*
X103267537Y-83753248D01*
X103267533Y-83753251D01*
X103128251Y-83892533D01*
X103128248Y-83892537D01*
X103018814Y-84056315D01*
X103018807Y-84056328D01*
X102943430Y-84238307D01*
X102943430Y-84238309D01*
X102935138Y-84280000D01*
X101644862Y-84280000D01*
X101636569Y-84238309D01*
X101636569Y-84238307D01*
X101561192Y-84056328D01*
X101561185Y-84056315D01*
X101451751Y-83892537D01*
X101451748Y-83892533D01*
X101312466Y-83753251D01*
X101312462Y-83753248D01*
X101148684Y-83643814D01*
X101148671Y-83643807D01*
X100966693Y-83568430D01*
X100966681Y-83568427D01*
X100773495Y-83530000D01*
X100525000Y-83530000D01*
X100525000Y-84230000D01*
X100025000Y-84230000D01*
X100025000Y-83530000D01*
X99776504Y-83530000D01*
X99583318Y-83568427D01*
X99583306Y-83568430D01*
X99401328Y-83643807D01*
X99401315Y-83643814D01*
X99237537Y-83753248D01*
X99237533Y-83753251D01*
X99098251Y-83892533D01*
X99098248Y-83892537D01*
X98988814Y-84056315D01*
X98988807Y-84056328D01*
X98913430Y-84238307D01*
X98913430Y-84238309D01*
X98905138Y-84280000D01*
X97970500Y-84280000D01*
X97970500Y-83249108D01*
X101974500Y-83249108D01*
X101974500Y-83380892D01*
X101978385Y-83395390D01*
X102008608Y-83508187D01*
X102010725Y-83511853D01*
X102074500Y-83622314D01*
X102167686Y-83715500D01*
X102281814Y-83781392D01*
X102409108Y-83815500D01*
X102409110Y-83815500D01*
X102540890Y-83815500D01*
X102540892Y-83815500D01*
X102668186Y-83781392D01*
X102782314Y-83715500D01*
X102875500Y-83622314D01*
X102941392Y-83508186D01*
X102975500Y-83380892D01*
X102975500Y-83249108D01*
X102941392Y-83121814D01*
X102934420Y-83109739D01*
X102928509Y-83099500D01*
X102875500Y-83007686D01*
X102782314Y-82914500D01*
X102725250Y-82881554D01*
X102668187Y-82848608D01*
X102604539Y-82831554D01*
X102540892Y-82814500D01*
X102409108Y-82814500D01*
X102281812Y-82848608D01*
X102167686Y-82914500D01*
X102167683Y-82914502D01*
X102074502Y-83007683D01*
X102074500Y-83007686D01*
X102008608Y-83121812D01*
X101989709Y-83192345D01*
X101974500Y-83249108D01*
X97970500Y-83249108D01*
X97970500Y-81914108D01*
X102699500Y-81914108D01*
X102699500Y-82045891D01*
X102733608Y-82173187D01*
X102747042Y-82196455D01*
X102799500Y-82287314D01*
X102892686Y-82380500D01*
X103006814Y-82446392D01*
X103134108Y-82480500D01*
X103134110Y-82480500D01*
X103265890Y-82480500D01*
X103265892Y-82480500D01*
X103393186Y-82446392D01*
X103407934Y-82437877D01*
X111722843Y-82437877D01*
X111722843Y-82569661D01*
X111726478Y-82583226D01*
X111756951Y-82696956D01*
X111789897Y-82754019D01*
X111822843Y-82811083D01*
X111916029Y-82904269D01*
X112030157Y-82970161D01*
X112157451Y-83004269D01*
X112157453Y-83004269D01*
X112289233Y-83004269D01*
X112289235Y-83004269D01*
X112416529Y-82970161D01*
X112530657Y-82904269D01*
X112621664Y-82813261D01*
X112682983Y-82779779D01*
X112748907Y-82784493D01*
X112748963Y-82784288D01*
X112750029Y-82784573D01*
X112752675Y-82784763D01*
X112756792Y-82786383D01*
X112756810Y-82786390D01*
X112756811Y-82786390D01*
X112756814Y-82786392D01*
X112884108Y-82820500D01*
X112884110Y-82820500D01*
X113015890Y-82820500D01*
X113015892Y-82820500D01*
X113143186Y-82786392D01*
X113257314Y-82720500D01*
X113350500Y-82627314D01*
X113416392Y-82513186D01*
X113432936Y-82451442D01*
X117276281Y-82451442D01*
X117276281Y-82583225D01*
X117310389Y-82710521D01*
X117326204Y-82737912D01*
X117376281Y-82824648D01*
X117469467Y-82917834D01*
X117583595Y-82983726D01*
X117710889Y-83017834D01*
X117710891Y-83017834D01*
X117786499Y-83017834D01*
X117853538Y-83037519D01*
X117899293Y-83090323D01*
X117906273Y-83109739D01*
X117909607Y-83122182D01*
X117909607Y-83122183D01*
X117931193Y-83159571D01*
X117975500Y-83236312D01*
X118068686Y-83329498D01*
X118182814Y-83395390D01*
X118310108Y-83429498D01*
X118310110Y-83429498D01*
X118441890Y-83429498D01*
X118441892Y-83429498D01*
X118569186Y-83395390D01*
X118683314Y-83329498D01*
X118684547Y-83328264D01*
X118685848Y-83327554D01*
X118689765Y-83324549D01*
X118690233Y-83325159D01*
X118745866Y-83294777D01*
X118815558Y-83299756D01*
X118834228Y-83308551D01*
X118908484Y-83351423D01*
X119035778Y-83385531D01*
X119035780Y-83385531D01*
X119167560Y-83385531D01*
X119167562Y-83385531D01*
X119294856Y-83351423D01*
X119408984Y-83285531D01*
X119502170Y-83192345D01*
X119568062Y-83078217D01*
X119602170Y-82950923D01*
X119602170Y-82819139D01*
X119568062Y-82691845D01*
X119502170Y-82577717D01*
X119408984Y-82484531D01*
X119351672Y-82451442D01*
X119294857Y-82418639D01*
X119231209Y-82401585D01*
X119167562Y-82384531D01*
X119035778Y-82384531D01*
X118908483Y-82418639D01*
X118794351Y-82484534D01*
X118793111Y-82485775D01*
X118791804Y-82486488D01*
X118787901Y-82489483D01*
X118787433Y-82488874D01*
X118731785Y-82519255D01*
X118662094Y-82514266D01*
X118643436Y-82505474D01*
X118569189Y-82462607D01*
X118569186Y-82462606D01*
X118441892Y-82428498D01*
X118366282Y-82428498D01*
X118299243Y-82408813D01*
X118253488Y-82356009D01*
X118246508Y-82336593D01*
X118243173Y-82324149D01*
X118243173Y-82324148D01*
X118202735Y-82254108D01*
X118177281Y-82210020D01*
X118084095Y-82116834D01*
X118027031Y-82083888D01*
X117969968Y-82050942D01*
X117906320Y-82033888D01*
X117842673Y-82016834D01*
X117710889Y-82016834D01*
X117583593Y-82050942D01*
X117469467Y-82116834D01*
X117469464Y-82116836D01*
X117376283Y-82210017D01*
X117376281Y-82210020D01*
X117310389Y-82324146D01*
X117276281Y-82451442D01*
X113432936Y-82451442D01*
X113450500Y-82385892D01*
X113450500Y-82254108D01*
X113416392Y-82126814D01*
X113350500Y-82012686D01*
X113257314Y-81919500D01*
X113200250Y-81886554D01*
X113143187Y-81853608D01*
X113079539Y-81836554D01*
X113015892Y-81819500D01*
X112884108Y-81819500D01*
X112756812Y-81853608D01*
X112642686Y-81919500D01*
X112642682Y-81919503D01*
X112551679Y-82010505D01*
X112490356Y-82043989D01*
X112424435Y-82039273D01*
X112424380Y-82039481D01*
X112423304Y-82039192D01*
X112420664Y-82039004D01*
X112416551Y-82037386D01*
X112416532Y-82037378D01*
X112416529Y-82037377D01*
X112289235Y-82003269D01*
X112157451Y-82003269D01*
X112030155Y-82037377D01*
X111916029Y-82103269D01*
X111916026Y-82103271D01*
X111822845Y-82196452D01*
X111822843Y-82196455D01*
X111756951Y-82310581D01*
X111729986Y-82411219D01*
X111722843Y-82437877D01*
X103407934Y-82437877D01*
X103507314Y-82380500D01*
X103600500Y-82287314D01*
X103666392Y-82173186D01*
X103700500Y-82045892D01*
X103700500Y-81914108D01*
X103666392Y-81786814D01*
X103600500Y-81672686D01*
X103507314Y-81579500D01*
X103440665Y-81541020D01*
X103393187Y-81513608D01*
X103329539Y-81496554D01*
X103265892Y-81479500D01*
X103134108Y-81479500D01*
X103006812Y-81513608D01*
X102892686Y-81579500D01*
X102892683Y-81579502D01*
X102799502Y-81672683D01*
X102799500Y-81672686D01*
X102733608Y-81786812D01*
X102699500Y-81914108D01*
X97970500Y-81914108D01*
X97970500Y-77894108D01*
X102279500Y-77894108D01*
X102279500Y-78025892D01*
X102285826Y-78049500D01*
X102313608Y-78153187D01*
X102335151Y-78190499D01*
X102379500Y-78267314D01*
X102472686Y-78360500D01*
X102558847Y-78410245D01*
X102593853Y-78430456D01*
X102592729Y-78432401D01*
X102638044Y-78468922D01*
X102660106Y-78535217D01*
X102642824Y-78602916D01*
X102623868Y-78627318D01*
X102598500Y-78652686D01*
X102532608Y-78766812D01*
X102498500Y-78894108D01*
X102498500Y-79025892D01*
X102508680Y-79063886D01*
X102532608Y-79153187D01*
X102558455Y-79197955D01*
X102598500Y-79267314D01*
X102691686Y-79360500D01*
X102805814Y-79426392D01*
X102888606Y-79448576D01*
X102948266Y-79484940D01*
X102978795Y-79547787D01*
X102976287Y-79600442D01*
X102957406Y-79670908D01*
X102957406Y-79670910D01*
X102957406Y-79802694D01*
X102962923Y-79823284D01*
X102991514Y-79929989D01*
X103016397Y-79973087D01*
X103057406Y-80044116D01*
X103150592Y-80137302D01*
X103264720Y-80203194D01*
X103392014Y-80237302D01*
X103392016Y-80237302D01*
X103523796Y-80237302D01*
X103523798Y-80237302D01*
X103523799Y-80237301D01*
X103531854Y-80236241D01*
X103532141Y-80238420D01*
X103590490Y-80239805D01*
X103648355Y-80278963D01*
X103675864Y-80343190D01*
X103672517Y-80390012D01*
X103651885Y-80467013D01*
X103651885Y-80467015D01*
X103651885Y-80598799D01*
X103657432Y-80619500D01*
X103685993Y-80726094D01*
X103690100Y-80733207D01*
X103751885Y-80840221D01*
X103845071Y-80933407D01*
X103959199Y-80999299D01*
X104086493Y-81033407D01*
X104086495Y-81033407D01*
X104218275Y-81033407D01*
X104218277Y-81033407D01*
X104345571Y-80999299D01*
X104388301Y-80974629D01*
X107858979Y-80974629D01*
X107858979Y-81106412D01*
X107893087Y-81233708D01*
X107905116Y-81254542D01*
X107958979Y-81347835D01*
X108052165Y-81441021D01*
X108166293Y-81506913D01*
X108293587Y-81541021D01*
X108293589Y-81541021D01*
X108425369Y-81541021D01*
X108425371Y-81541021D01*
X108552665Y-81506913D01*
X108666793Y-81441021D01*
X108759979Y-81347835D01*
X108825871Y-81233707D01*
X108859979Y-81106413D01*
X108859979Y-81063979D01*
X108879664Y-80996940D01*
X108932468Y-80951185D01*
X108962994Y-80941768D01*
X108973413Y-80939979D01*
X109026413Y-80939979D01*
X109120984Y-80914638D01*
X109126586Y-80913677D01*
X109155858Y-80917074D01*
X109185327Y-80917776D01*
X109190175Y-80921057D01*
X109195989Y-80921732D01*
X109218780Y-80940417D01*
X109243189Y-80956938D01*
X109248817Y-80965044D01*
X109250021Y-80966031D01*
X109250473Y-80967428D01*
X109254958Y-80973888D01*
X109305458Y-81061356D01*
X109398644Y-81154542D01*
X109512772Y-81220434D01*
X109640066Y-81254542D01*
X109640068Y-81254542D01*
X109771848Y-81254542D01*
X109771850Y-81254542D01*
X109899144Y-81220434D01*
X110013272Y-81154542D01*
X110106458Y-81061356D01*
X110168378Y-80954108D01*
X118529500Y-80954108D01*
X118529500Y-81085891D01*
X118563608Y-81213187D01*
X118575456Y-81233708D01*
X118629500Y-81327314D01*
X118722686Y-81420500D01*
X118836814Y-81486392D01*
X118964108Y-81520500D01*
X118964110Y-81520500D01*
X119095890Y-81520500D01*
X119095892Y-81520500D01*
X119223186Y-81486392D01*
X119337314Y-81420500D01*
X119430500Y-81327314D01*
X119496392Y-81213186D01*
X119530500Y-81085892D01*
X119530500Y-80954108D01*
X119496392Y-80826814D01*
X119430500Y-80712686D01*
X119337314Y-80619500D01*
X119280250Y-80586554D01*
X119223187Y-80553608D01*
X119212162Y-80550654D01*
X119095892Y-80519500D01*
X118964108Y-80519500D01*
X118836812Y-80553608D01*
X118722686Y-80619500D01*
X118722683Y-80619502D01*
X118629502Y-80712683D01*
X118629500Y-80712686D01*
X118563608Y-80826812D01*
X118529500Y-80954108D01*
X110168378Y-80954108D01*
X110172350Y-80947228D01*
X110206458Y-80819934D01*
X110206458Y-80688150D01*
X110172350Y-80560856D01*
X110106458Y-80446728D01*
X110030999Y-80371269D01*
X109997514Y-80309946D01*
X110002498Y-80240254D01*
X110011295Y-80221585D01*
X110018179Y-80209661D01*
X110018181Y-80209658D01*
X110052289Y-80082364D01*
X110052289Y-79950580D01*
X110018181Y-79823286D01*
X109952289Y-79709158D01*
X109859103Y-79615972D01*
X109802039Y-79583026D01*
X109744976Y-79550080D01*
X109652102Y-79525195D01*
X109617681Y-79515972D01*
X109485897Y-79515972D01*
X109358601Y-79550080D01*
X109244475Y-79615972D01*
X109244472Y-79615974D01*
X109151291Y-79709155D01*
X109151289Y-79709158D01*
X109085397Y-79823284D01*
X109082258Y-79834999D01*
X109079023Y-79847073D01*
X109042659Y-79906733D01*
X108979812Y-79937262D01*
X108959249Y-79938979D01*
X108894629Y-79938979D01*
X108767333Y-79973087D01*
X108653207Y-80038979D01*
X108653204Y-80038981D01*
X108560023Y-80132162D01*
X108560021Y-80132165D01*
X108494129Y-80246291D01*
X108460021Y-80373587D01*
X108460021Y-80416021D01*
X108440336Y-80483060D01*
X108387532Y-80528815D01*
X108336021Y-80540021D01*
X108293587Y-80540021D01*
X108166291Y-80574129D01*
X108052165Y-80640021D01*
X108052162Y-80640023D01*
X107958981Y-80733204D01*
X107958979Y-80733207D01*
X107893087Y-80847333D01*
X107858979Y-80974629D01*
X104388301Y-80974629D01*
X104459699Y-80933407D01*
X104552885Y-80840221D01*
X104618777Y-80726093D01*
X104652885Y-80598799D01*
X104652885Y-80467015D01*
X104618777Y-80339721D01*
X104552885Y-80225593D01*
X104459699Y-80132407D01*
X104402635Y-80099461D01*
X104345572Y-80066515D01*
X104261972Y-80044115D01*
X104218277Y-80032407D01*
X104086493Y-80032407D01*
X104086491Y-80032407D01*
X104078437Y-80033468D01*
X104078150Y-80031293D01*
X104019771Y-80029893D01*
X103961915Y-79990721D01*
X103934422Y-79926487D01*
X103937772Y-79879699D01*
X103958406Y-79802694D01*
X103958406Y-79670910D01*
X103924298Y-79543616D01*
X103858406Y-79429488D01*
X103765220Y-79336302D01*
X103651092Y-79270410D01*
X103568298Y-79248225D01*
X103560569Y-79243514D01*
X103551581Y-79242440D01*
X103531202Y-79225614D01*
X103508639Y-79211861D01*
X103504683Y-79203718D01*
X103497703Y-79197955D01*
X103489656Y-79172782D01*
X103478110Y-79149014D01*
X103478621Y-79138266D01*
X103476428Y-79131403D01*
X103479691Y-79104108D01*
X113399500Y-79104108D01*
X113399500Y-79235892D01*
X113407920Y-79267316D01*
X113433608Y-79363187D01*
X113456413Y-79402686D01*
X113499500Y-79477314D01*
X113592686Y-79570500D01*
X113706814Y-79636392D01*
X113834108Y-79670500D01*
X113834110Y-79670500D01*
X113900613Y-79670500D01*
X113967652Y-79690185D01*
X114013407Y-79742989D01*
X114020388Y-79762407D01*
X114026246Y-79784272D01*
X114044904Y-79816588D01*
X114092138Y-79898399D01*
X114185324Y-79991585D01*
X114299452Y-80057477D01*
X114426746Y-80091585D01*
X114426748Y-80091585D01*
X114558528Y-80091585D01*
X114558530Y-80091585D01*
X114558531Y-80091584D01*
X114566586Y-80090524D01*
X114566833Y-80092403D01*
X114626248Y-80093813D01*
X114684113Y-80132971D01*
X114711622Y-80197198D01*
X114712500Y-80211928D01*
X114712500Y-80282980D01*
X114722338Y-80319696D01*
X114746608Y-80410275D01*
X114767653Y-80446725D01*
X114812500Y-80524402D01*
X114905686Y-80617588D01*
X115019814Y-80683480D01*
X115147108Y-80717588D01*
X115147110Y-80717588D01*
X115278890Y-80717588D01*
X115278892Y-80717588D01*
X115406186Y-80683480D01*
X115520314Y-80617588D01*
X115613500Y-80524402D01*
X115679392Y-80410274D01*
X115713500Y-80282980D01*
X115713500Y-80194108D01*
X117019500Y-80194108D01*
X117019500Y-80325892D01*
X117024135Y-80343190D01*
X117053608Y-80453187D01*
X117061591Y-80467013D01*
X117119500Y-80567314D01*
X117212686Y-80660500D01*
X117326814Y-80726392D01*
X117454108Y-80760500D01*
X117454110Y-80760500D01*
X117585890Y-80760500D01*
X117585892Y-80760500D01*
X117713186Y-80726392D01*
X117827314Y-80660500D01*
X117920500Y-80567314D01*
X117986392Y-80453186D01*
X117991504Y-80434108D01*
X125399500Y-80434108D01*
X125399500Y-80565891D01*
X125433608Y-80693187D01*
X125456712Y-80733204D01*
X125499500Y-80807314D01*
X125592686Y-80900500D01*
X125673621Y-80947228D01*
X125706188Y-80966031D01*
X125706814Y-80966392D01*
X125834108Y-81000500D01*
X125834110Y-81000500D01*
X125965890Y-81000500D01*
X125965892Y-81000500D01*
X126093186Y-80966392D01*
X126207314Y-80900500D01*
X126300500Y-80807314D01*
X126366392Y-80693186D01*
X126400500Y-80565892D01*
X126400500Y-80434108D01*
X126366392Y-80306814D01*
X126300500Y-80192686D01*
X126207314Y-80099500D01*
X126134528Y-80057477D01*
X126093187Y-80033608D01*
X126029539Y-80016554D01*
X125965892Y-79999500D01*
X125834108Y-79999500D01*
X125706812Y-80033608D01*
X125592686Y-80099500D01*
X125592683Y-80099502D01*
X125499502Y-80192683D01*
X125499500Y-80192686D01*
X125433608Y-80306812D01*
X125399500Y-80434108D01*
X117991504Y-80434108D01*
X118020500Y-80325892D01*
X118020500Y-80194108D01*
X117986392Y-80066814D01*
X117986219Y-80066515D01*
X117973287Y-80044115D01*
X117920500Y-79952686D01*
X117827314Y-79859500D01*
X117752992Y-79816590D01*
X117713187Y-79793608D01*
X117647061Y-79775890D01*
X117585892Y-79759500D01*
X117454108Y-79759500D01*
X117326812Y-79793608D01*
X117212686Y-79859500D01*
X117212683Y-79859502D01*
X117119502Y-79952683D01*
X117119500Y-79952686D01*
X117053608Y-80066812D01*
X117024247Y-80176391D01*
X117019500Y-80194108D01*
X115713500Y-80194108D01*
X115713500Y-80151196D01*
X115679392Y-80023902D01*
X115613500Y-79909774D01*
X115520314Y-79816588D01*
X115449823Y-79775890D01*
X115406187Y-79750696D01*
X115342539Y-79733642D01*
X115278892Y-79716588D01*
X115147108Y-79716588D01*
X115147106Y-79716588D01*
X115139052Y-79717649D01*
X115138805Y-79715773D01*
X115079371Y-79714353D01*
X115021512Y-79675185D01*
X115008208Y-79644108D01*
X119069500Y-79644108D01*
X119069500Y-79775892D01*
X119072356Y-79786549D01*
X119103608Y-79903187D01*
X119123282Y-79937262D01*
X119169500Y-80017314D01*
X119262686Y-80110500D01*
X119376814Y-80176392D01*
X119504108Y-80210500D01*
X119504110Y-80210500D01*
X119635890Y-80210500D01*
X119635892Y-80210500D01*
X119763186Y-80176392D01*
X119877314Y-80110500D01*
X119970500Y-80017314D01*
X120036392Y-79903186D01*
X120070500Y-79775892D01*
X120070500Y-79644108D01*
X120036392Y-79516814D01*
X119970500Y-79402686D01*
X119877314Y-79309500D01*
X119809608Y-79270410D01*
X119763187Y-79243608D01*
X119644703Y-79211861D01*
X119635892Y-79209500D01*
X119504108Y-79209500D01*
X119376812Y-79243608D01*
X119262686Y-79309500D01*
X119262683Y-79309502D01*
X119169502Y-79402683D01*
X119169500Y-79402686D01*
X119103608Y-79516812D01*
X119077039Y-79615972D01*
X119069500Y-79644108D01*
X115008208Y-79644108D01*
X114994014Y-79610954D01*
X114993138Y-79596244D01*
X114993138Y-79525195D01*
X114993138Y-79525193D01*
X114959030Y-79397899D01*
X114893138Y-79283771D01*
X114799952Y-79190585D01*
X114727949Y-79149014D01*
X114685825Y-79124693D01*
X114586397Y-79098052D01*
X114558530Y-79090585D01*
X114492025Y-79090585D01*
X114424986Y-79070900D01*
X114379231Y-79018096D01*
X114372250Y-78998678D01*
X114366392Y-78976814D01*
X114300500Y-78862686D01*
X114207314Y-78769500D01*
X114150250Y-78736554D01*
X114093187Y-78703608D01*
X114029539Y-78686554D01*
X113965892Y-78669500D01*
X113834108Y-78669500D01*
X113706812Y-78703608D01*
X113592686Y-78769500D01*
X113592683Y-78769502D01*
X113499502Y-78862683D01*
X113499500Y-78862686D01*
X113433608Y-78976812D01*
X113408398Y-79070900D01*
X113399500Y-79104108D01*
X103479691Y-79104108D01*
X103480617Y-79096363D01*
X103499500Y-79025892D01*
X103499500Y-78894108D01*
X103465392Y-78766814D01*
X103399500Y-78652686D01*
X103306314Y-78559500D01*
X103192186Y-78493608D01*
X103192185Y-78493607D01*
X103185147Y-78489544D01*
X103186269Y-78487600D01*
X103140947Y-78451065D01*
X103118892Y-78384767D01*
X103136182Y-78317071D01*
X103155127Y-78292686D01*
X103180500Y-78267314D01*
X103246392Y-78153186D01*
X103280500Y-78025892D01*
X103280500Y-77894108D01*
X103246392Y-77766814D01*
X103180500Y-77652686D01*
X103087314Y-77559500D01*
X102994397Y-77505854D01*
X102973187Y-77493608D01*
X102891591Y-77471745D01*
X102845892Y-77459500D01*
X102714108Y-77459500D01*
X102586812Y-77493608D01*
X102472686Y-77559500D01*
X102472683Y-77559502D01*
X102379502Y-77652683D01*
X102379500Y-77652686D01*
X102313608Y-77766812D01*
X102301902Y-77810500D01*
X102279500Y-77894108D01*
X97970500Y-77894108D01*
X97970500Y-75640000D01*
X98905138Y-75640000D01*
X99708012Y-75640000D01*
X99690795Y-75649940D01*
X99634940Y-75705795D01*
X99595444Y-75774204D01*
X99575000Y-75850504D01*
X99575000Y-75929496D01*
X99595444Y-76005796D01*
X99634940Y-76074205D01*
X99690795Y-76130060D01*
X99708012Y-76140000D01*
X98905138Y-76140000D01*
X98913430Y-76181690D01*
X98913430Y-76181692D01*
X98988807Y-76363671D01*
X98988814Y-76363684D01*
X99098248Y-76527462D01*
X99098251Y-76527466D01*
X99237533Y-76666748D01*
X99237537Y-76666751D01*
X99401315Y-76776185D01*
X99401328Y-76776192D01*
X99583306Y-76851569D01*
X99583318Y-76851572D01*
X99776504Y-76889999D01*
X99776508Y-76890000D01*
X100025000Y-76890000D01*
X100025000Y-76190000D01*
X100525000Y-76190000D01*
X100525000Y-76890000D01*
X100773492Y-76890000D01*
X100773495Y-76889999D01*
X100966681Y-76851572D01*
X100966693Y-76851569D01*
X101148671Y-76776192D01*
X101148684Y-76776185D01*
X101312462Y-76666751D01*
X101312466Y-76666748D01*
X101451748Y-76527466D01*
X101451751Y-76527462D01*
X101561185Y-76363684D01*
X101561192Y-76363671D01*
X101636569Y-76181692D01*
X101636569Y-76181690D01*
X101644862Y-76140000D01*
X100841988Y-76140000D01*
X100859205Y-76130060D01*
X100915060Y-76074205D01*
X100954556Y-76005796D01*
X100975000Y-75929496D01*
X100975000Y-75850504D01*
X100954556Y-75774204D01*
X100915060Y-75705795D01*
X100859205Y-75649940D01*
X100841988Y-75640000D01*
X101644862Y-75640000D01*
X102935138Y-75640000D01*
X103738012Y-75640000D01*
X103720795Y-75649940D01*
X103664940Y-75705795D01*
X103625444Y-75774204D01*
X103605000Y-75850504D01*
X103605000Y-75929496D01*
X103625444Y-76005796D01*
X103664940Y-76074205D01*
X103720795Y-76130060D01*
X103738012Y-76140000D01*
X102935138Y-76140000D01*
X102943430Y-76181690D01*
X102943430Y-76181692D01*
X103018807Y-76363671D01*
X103018814Y-76363684D01*
X103128248Y-76527462D01*
X103128251Y-76527466D01*
X103267533Y-76666748D01*
X103267537Y-76666751D01*
X103431315Y-76776185D01*
X103431328Y-76776192D01*
X103562197Y-76830399D01*
X103616601Y-76874239D01*
X103638666Y-76940534D01*
X103621387Y-77008233D01*
X103602429Y-77032638D01*
X103592914Y-77042153D01*
X103592910Y-77042158D01*
X103533337Y-77145339D01*
X103519082Y-77198540D01*
X103502500Y-77260427D01*
X103502500Y-77379573D01*
X103509541Y-77405851D01*
X103533337Y-77494660D01*
X103539800Y-77505854D01*
X103592910Y-77597842D01*
X103677158Y-77682090D01*
X103780341Y-77741663D01*
X103895427Y-77772500D01*
X103895429Y-77772500D01*
X104014571Y-77772500D01*
X104014573Y-77772500D01*
X104129659Y-77741663D01*
X104160065Y-77724108D01*
X109929500Y-77724108D01*
X109929500Y-77855892D01*
X109939740Y-77894108D01*
X109963608Y-77983187D01*
X109976717Y-78005892D01*
X110029500Y-78097314D01*
X110122686Y-78190500D01*
X110236814Y-78256392D01*
X110364108Y-78290500D01*
X110364110Y-78290500D01*
X110495890Y-78290500D01*
X110495892Y-78290500D01*
X110557068Y-78274108D01*
X111819500Y-78274108D01*
X111819500Y-78405892D01*
X111824218Y-78423499D01*
X111853608Y-78533187D01*
X111886554Y-78590250D01*
X111919500Y-78647314D01*
X112012686Y-78740500D01*
X112126814Y-78806392D01*
X112254108Y-78840500D01*
X112254110Y-78840500D01*
X112385890Y-78840500D01*
X112385892Y-78840500D01*
X112513186Y-78806392D01*
X112627314Y-78740500D01*
X112720500Y-78647314D01*
X112786392Y-78533186D01*
X112820500Y-78405892D01*
X112820500Y-78274108D01*
X112786392Y-78146814D01*
X112720500Y-78032686D01*
X112627314Y-77939500D01*
X112570250Y-77906554D01*
X112513187Y-77873608D01*
X112451607Y-77857108D01*
X118509500Y-77857108D01*
X118509500Y-77988892D01*
X118525740Y-78049500D01*
X118543608Y-78116187D01*
X118576554Y-78173250D01*
X118609500Y-78230314D01*
X118702686Y-78323500D01*
X118816814Y-78389392D01*
X118944108Y-78423500D01*
X118944110Y-78423500D01*
X119075890Y-78423500D01*
X119075892Y-78423500D01*
X119203186Y-78389392D01*
X119212338Y-78384108D01*
X120519500Y-78384108D01*
X120519500Y-78515891D01*
X120553608Y-78643187D01*
X120568800Y-78669500D01*
X120619500Y-78757314D01*
X120712686Y-78850500D01*
X120826814Y-78916392D01*
X120954108Y-78950500D01*
X120954110Y-78950500D01*
X121085890Y-78950500D01*
X121085892Y-78950500D01*
X121213186Y-78916392D01*
X121327314Y-78850500D01*
X121420500Y-78757314D01*
X121486392Y-78643186D01*
X121516075Y-78532404D01*
X121552439Y-78472747D01*
X121615285Y-78442217D01*
X121635849Y-78440500D01*
X121765196Y-78440500D01*
X121765198Y-78440500D01*
X121892492Y-78406392D01*
X122006620Y-78340500D01*
X122099806Y-78247314D01*
X122165698Y-78133186D01*
X122199806Y-78005892D01*
X122199806Y-77894108D01*
X122469500Y-77894108D01*
X122469500Y-78025892D01*
X122475826Y-78049500D01*
X122503608Y-78153187D01*
X122525151Y-78190499D01*
X122569500Y-78267314D01*
X122662686Y-78360500D01*
X122776814Y-78426392D01*
X122904108Y-78460500D01*
X122904110Y-78460500D01*
X123035890Y-78460500D01*
X123035892Y-78460500D01*
X123163186Y-78426392D01*
X123277314Y-78360500D01*
X123370500Y-78267314D01*
X123436392Y-78153186D01*
X123470500Y-78025892D01*
X123470500Y-77894108D01*
X123436392Y-77766814D01*
X123370500Y-77652686D01*
X123277314Y-77559500D01*
X123184397Y-77505854D01*
X123163187Y-77493608D01*
X123081591Y-77471745D01*
X123035892Y-77459500D01*
X122904108Y-77459500D01*
X122776812Y-77493608D01*
X122662686Y-77559500D01*
X122662683Y-77559502D01*
X122569502Y-77652683D01*
X122569500Y-77652686D01*
X122503608Y-77766812D01*
X122491902Y-77810500D01*
X122469500Y-77894108D01*
X122199806Y-77894108D01*
X122199806Y-77874108D01*
X122165698Y-77746814D01*
X122162723Y-77741662D01*
X122128329Y-77682090D01*
X122099806Y-77632686D01*
X122006620Y-77539500D01*
X121943724Y-77503187D01*
X121892493Y-77473608D01*
X121828845Y-77456554D01*
X121765198Y-77439500D01*
X121633414Y-77439500D01*
X121506118Y-77473608D01*
X121391992Y-77539500D01*
X121391989Y-77539502D01*
X121298808Y-77632683D01*
X121298806Y-77632686D01*
X121232914Y-77746812D01*
X121224989Y-77776391D01*
X121203230Y-77857595D01*
X121166867Y-77917253D01*
X121104021Y-77947783D01*
X121083457Y-77949500D01*
X120954108Y-77949500D01*
X120826812Y-77983608D01*
X120712686Y-78049500D01*
X120712683Y-78049502D01*
X120619502Y-78142683D01*
X120619500Y-78142686D01*
X120553608Y-78256812D01*
X120519500Y-78384108D01*
X119212338Y-78384108D01*
X119317314Y-78323500D01*
X119410500Y-78230314D01*
X119476392Y-78116186D01*
X119510500Y-77988892D01*
X119510500Y-77934500D01*
X119530185Y-77867461D01*
X119582989Y-77821706D01*
X119634500Y-77810500D01*
X119755890Y-77810500D01*
X119755892Y-77810500D01*
X119883186Y-77776392D01*
X119997314Y-77710500D01*
X120090500Y-77617314D01*
X120156392Y-77503186D01*
X120190500Y-77375892D01*
X120190500Y-77244108D01*
X120156392Y-77116814D01*
X120090500Y-77002686D01*
X119997314Y-76909500D01*
X119924568Y-76867500D01*
X119883187Y-76843608D01*
X119819539Y-76826554D01*
X119755892Y-76809500D01*
X119624108Y-76809500D01*
X119496812Y-76843608D01*
X119382686Y-76909500D01*
X119382683Y-76909502D01*
X119289502Y-77002683D01*
X119289500Y-77002686D01*
X119223608Y-77116812D01*
X119189500Y-77244108D01*
X119189500Y-77298500D01*
X119169815Y-77365539D01*
X119117011Y-77411294D01*
X119065500Y-77422500D01*
X118944108Y-77422500D01*
X118816812Y-77456608D01*
X118702686Y-77522500D01*
X118702683Y-77522502D01*
X118609502Y-77615683D01*
X118609500Y-77615686D01*
X118543608Y-77729812D01*
X118521989Y-77810499D01*
X118509500Y-77857108D01*
X112451607Y-77857108D01*
X112447061Y-77855890D01*
X112385892Y-77839500D01*
X112254108Y-77839500D01*
X112126812Y-77873608D01*
X112012686Y-77939500D01*
X112012683Y-77939502D01*
X111919502Y-78032683D01*
X111919500Y-78032686D01*
X111853608Y-78146812D01*
X111841902Y-78190500D01*
X111819500Y-78274108D01*
X110557068Y-78274108D01*
X110623186Y-78256392D01*
X110737314Y-78190500D01*
X110830500Y-78097314D01*
X110896392Y-77983186D01*
X110930500Y-77855892D01*
X110930500Y-77724108D01*
X110896392Y-77596814D01*
X110830500Y-77482686D01*
X110737314Y-77389500D01*
X110680250Y-77356554D01*
X110623187Y-77323608D01*
X110559539Y-77306554D01*
X110495892Y-77289500D01*
X110364108Y-77289500D01*
X110236812Y-77323608D01*
X110122686Y-77389500D01*
X110122683Y-77389502D01*
X110029502Y-77482683D01*
X110029500Y-77482686D01*
X109963608Y-77596812D01*
X109938505Y-77690499D01*
X109929500Y-77724108D01*
X104160065Y-77724108D01*
X104232842Y-77682090D01*
X104317090Y-77597842D01*
X104376663Y-77494659D01*
X104407500Y-77379573D01*
X104407500Y-77260427D01*
X104376663Y-77145341D01*
X104364404Y-77124108D01*
X112509500Y-77124108D01*
X112509500Y-77255892D01*
X112526554Y-77319539D01*
X112543608Y-77383187D01*
X112556695Y-77405854D01*
X112609500Y-77497314D01*
X112702686Y-77590500D01*
X112816814Y-77656392D01*
X112944108Y-77690500D01*
X112944110Y-77690500D01*
X113075890Y-77690500D01*
X113075892Y-77690500D01*
X113203186Y-77656392D01*
X113317314Y-77590500D01*
X113410500Y-77497314D01*
X113476392Y-77383186D01*
X113510500Y-77255892D01*
X113510500Y-77124108D01*
X113476392Y-76996814D01*
X113443280Y-76939462D01*
X114510146Y-76939462D01*
X114510146Y-77071245D01*
X114544254Y-77198541D01*
X114570563Y-77244108D01*
X114610146Y-77312668D01*
X114703332Y-77405854D01*
X114817460Y-77471746D01*
X114944754Y-77505854D01*
X114944756Y-77505854D01*
X115076536Y-77505854D01*
X115076538Y-77505854D01*
X115203832Y-77471746D01*
X115317960Y-77405854D01*
X115411146Y-77312668D01*
X115477038Y-77198540D01*
X115511146Y-77071246D01*
X115511146Y-77000108D01*
X116509500Y-77000108D01*
X116509500Y-77131891D01*
X116543608Y-77259187D01*
X116561110Y-77289500D01*
X116609500Y-77373314D01*
X116702686Y-77466500D01*
X116816814Y-77532392D01*
X116944108Y-77566500D01*
X116944110Y-77566500D01*
X117075890Y-77566500D01*
X117075892Y-77566500D01*
X117203186Y-77532392D01*
X117317314Y-77466500D01*
X117410500Y-77373314D01*
X117476392Y-77259186D01*
X117510500Y-77131892D01*
X117510500Y-77000108D01*
X117476392Y-76872814D01*
X117410500Y-76758686D01*
X117317314Y-76665500D01*
X117260250Y-76632554D01*
X117203187Y-76599608D01*
X117139539Y-76582554D01*
X117075892Y-76565500D01*
X116944108Y-76565500D01*
X116816812Y-76599608D01*
X116702686Y-76665500D01*
X116702683Y-76665502D01*
X116609502Y-76758683D01*
X116609500Y-76758686D01*
X116543608Y-76872812D01*
X116509500Y-77000108D01*
X115511146Y-77000108D01*
X115511146Y-76939462D01*
X115477038Y-76812168D01*
X115411146Y-76698040D01*
X115317960Y-76604854D01*
X115249797Y-76565500D01*
X115203833Y-76538962D01*
X115140185Y-76521908D01*
X115076538Y-76504854D01*
X114944754Y-76504854D01*
X114817458Y-76538962D01*
X114703332Y-76604854D01*
X114703329Y-76604856D01*
X114610148Y-76698037D01*
X114610146Y-76698040D01*
X114544254Y-76812166D01*
X114510146Y-76939462D01*
X113443280Y-76939462D01*
X113410500Y-76882686D01*
X113317314Y-76789500D01*
X113260250Y-76756554D01*
X113203187Y-76723608D01*
X113107764Y-76698040D01*
X113075892Y-76689500D01*
X112944108Y-76689500D01*
X112816812Y-76723608D01*
X112702686Y-76789500D01*
X112702683Y-76789502D01*
X112609502Y-76882683D01*
X112609500Y-76882686D01*
X112543608Y-76996812D01*
X112531459Y-77042155D01*
X112509500Y-77124108D01*
X104364404Y-77124108D01*
X104317090Y-77042158D01*
X104241319Y-76966387D01*
X104207834Y-76905064D01*
X104205000Y-76878706D01*
X104205000Y-76190000D01*
X104705000Y-76190000D01*
X104705000Y-76890000D01*
X105103492Y-76890000D01*
X105103495Y-76889999D01*
X105296681Y-76851572D01*
X105296693Y-76851569D01*
X105478671Y-76776192D01*
X105478684Y-76776185D01*
X105642462Y-76666751D01*
X105642466Y-76666748D01*
X105781748Y-76527466D01*
X105781751Y-76527462D01*
X105891185Y-76363684D01*
X105891192Y-76363671D01*
X105966569Y-76181692D01*
X105966569Y-76181690D01*
X105974862Y-76140000D01*
X105171988Y-76140000D01*
X105189205Y-76130060D01*
X105245060Y-76074205D01*
X105284556Y-76005796D01*
X105305000Y-75929496D01*
X105305000Y-75850504D01*
X105284556Y-75774204D01*
X105245060Y-75705795D01*
X105189205Y-75649940D01*
X105171988Y-75640000D01*
X105974862Y-75640000D01*
X105966569Y-75598309D01*
X105966569Y-75598307D01*
X105891192Y-75416328D01*
X105891185Y-75416315D01*
X105781751Y-75252537D01*
X105781748Y-75252533D01*
X105642466Y-75113251D01*
X105642462Y-75113248D01*
X105591331Y-75079083D01*
X105478684Y-75003814D01*
X105478671Y-75003807D01*
X105431113Y-74984108D01*
X107447500Y-74984108D01*
X107447500Y-75115891D01*
X107481608Y-75243187D01*
X107514554Y-75300250D01*
X107547500Y-75357314D01*
X107640686Y-75450500D01*
X107754814Y-75516392D01*
X107882108Y-75550500D01*
X107882110Y-75550500D01*
X108013890Y-75550500D01*
X108013892Y-75550500D01*
X108141186Y-75516392D01*
X108255314Y-75450500D01*
X108348500Y-75357314D01*
X108414392Y-75243186D01*
X108448500Y-75115892D01*
X108448500Y-74984108D01*
X108414392Y-74856814D01*
X108348500Y-74742686D01*
X108255314Y-74649500D01*
X108198250Y-74616554D01*
X108141187Y-74583608D01*
X108077539Y-74566554D01*
X108013892Y-74549500D01*
X107882108Y-74549500D01*
X107754812Y-74583608D01*
X107640686Y-74649500D01*
X107640683Y-74649502D01*
X107547502Y-74742683D01*
X107547500Y-74742686D01*
X107481608Y-74856812D01*
X107447500Y-74984108D01*
X105431113Y-74984108D01*
X105296693Y-74928430D01*
X105296681Y-74928427D01*
X105103495Y-74890000D01*
X104705000Y-74890000D01*
X104705000Y-75590000D01*
X104205000Y-75590000D01*
X104205000Y-74890000D01*
X103806504Y-74890000D01*
X103613318Y-74928427D01*
X103613306Y-74928430D01*
X103431328Y-75003807D01*
X103431315Y-75003814D01*
X103267537Y-75113248D01*
X103267533Y-75113251D01*
X103128251Y-75252533D01*
X103128248Y-75252537D01*
X103018814Y-75416315D01*
X103018807Y-75416328D01*
X102943430Y-75598307D01*
X102943430Y-75598309D01*
X102935138Y-75640000D01*
X101644862Y-75640000D01*
X101636569Y-75598309D01*
X101636569Y-75598307D01*
X101561192Y-75416328D01*
X101561185Y-75416315D01*
X101451751Y-75252537D01*
X101451748Y-75252533D01*
X101312466Y-75113251D01*
X101312462Y-75113248D01*
X101148684Y-75003814D01*
X101148671Y-75003807D01*
X100966693Y-74928430D01*
X100966681Y-74928427D01*
X100773495Y-74890000D01*
X100525000Y-74890000D01*
X100525000Y-75590000D01*
X100025000Y-75590000D01*
X100025000Y-74890000D01*
X99776504Y-74890000D01*
X99583318Y-74928427D01*
X99583306Y-74928430D01*
X99401328Y-75003807D01*
X99401315Y-75003814D01*
X99237537Y-75113248D01*
X99237533Y-75113251D01*
X99098251Y-75252533D01*
X99098248Y-75252537D01*
X98988814Y-75416315D01*
X98988807Y-75416328D01*
X98913430Y-75598307D01*
X98913430Y-75598309D01*
X98905138Y-75640000D01*
X97970500Y-75640000D01*
X97970500Y-72003753D01*
X98570000Y-72003753D01*
X98570000Y-72216246D01*
X98603242Y-72426127D01*
X98603242Y-72426130D01*
X98668904Y-72628217D01*
X98765375Y-72817550D01*
X98804728Y-72871716D01*
X99437037Y-72239408D01*
X99454075Y-72302993D01*
X99519901Y-72417007D01*
X99612993Y-72510099D01*
X99727007Y-72575925D01*
X99790590Y-72592962D01*
X99158282Y-73225269D01*
X99158282Y-73225270D01*
X99212449Y-73264624D01*
X99401782Y-73361095D01*
X99603870Y-73426757D01*
X99813754Y-73460000D01*
X100026246Y-73460000D01*
X100236127Y-73426757D01*
X100236130Y-73426757D01*
X100438217Y-73361095D01*
X100627554Y-73264622D01*
X100681716Y-73225270D01*
X100681717Y-73225270D01*
X100049408Y-72592962D01*
X100112993Y-72575925D01*
X100227007Y-72510099D01*
X100320099Y-72417007D01*
X100385925Y-72302993D01*
X100402962Y-72239408D01*
X101035270Y-72871717D01*
X101035270Y-72871716D01*
X101074622Y-72817554D01*
X101171095Y-72628217D01*
X101236757Y-72426130D01*
X101236757Y-72426127D01*
X101270000Y-72216246D01*
X101270000Y-72003753D01*
X101236757Y-71793872D01*
X101236757Y-71793869D01*
X101171095Y-71591782D01*
X101074624Y-71402449D01*
X101035270Y-71348282D01*
X101035269Y-71348282D01*
X100402962Y-71980590D01*
X100385925Y-71917007D01*
X100320099Y-71802993D01*
X100227007Y-71709901D01*
X100112993Y-71644075D01*
X100049409Y-71627037D01*
X100681716Y-70994728D01*
X100627550Y-70955375D01*
X100460710Y-70870365D01*
X100259829Y-70800919D01*
X100232269Y-70781308D01*
X100207114Y-70764108D01*
X121199500Y-70764108D01*
X121199500Y-70895892D01*
X121215438Y-70955375D01*
X121233608Y-71023187D01*
X121246717Y-71045892D01*
X121299500Y-71137314D01*
X121392686Y-71230500D01*
X121506814Y-71296392D01*
X121634108Y-71330500D01*
X121634110Y-71330500D01*
X121765890Y-71330500D01*
X121765892Y-71330500D01*
X121893186Y-71296392D01*
X122007314Y-71230500D01*
X122100500Y-71137314D01*
X122166392Y-71023186D01*
X122195619Y-70914108D01*
X122479500Y-70914108D01*
X122479500Y-71045891D01*
X122513608Y-71173187D01*
X122546554Y-71230250D01*
X122579500Y-71287314D01*
X122672686Y-71380500D01*
X122786814Y-71446392D01*
X122914108Y-71480500D01*
X122914110Y-71480500D01*
X123045890Y-71480500D01*
X123045892Y-71480500D01*
X123173186Y-71446392D01*
X123287314Y-71380500D01*
X123380500Y-71287314D01*
X123446392Y-71173186D01*
X123480500Y-71045892D01*
X123480500Y-70914108D01*
X123446392Y-70786814D01*
X123380500Y-70672686D01*
X123287314Y-70579500D01*
X123188910Y-70522686D01*
X123173187Y-70513608D01*
X123109539Y-70496554D01*
X123045892Y-70479500D01*
X122914108Y-70479500D01*
X122786812Y-70513608D01*
X122672686Y-70579500D01*
X122672683Y-70579502D01*
X122579502Y-70672683D01*
X122579500Y-70672686D01*
X122513608Y-70786812D01*
X122479500Y-70914108D01*
X122195619Y-70914108D01*
X122200500Y-70895892D01*
X122200500Y-70764108D01*
X122166392Y-70636814D01*
X122100500Y-70522686D01*
X122007314Y-70429500D01*
X121931927Y-70385975D01*
X121893187Y-70363608D01*
X121829539Y-70346554D01*
X121765892Y-70329500D01*
X121634108Y-70329500D01*
X121506812Y-70363608D01*
X121392686Y-70429500D01*
X121392683Y-70429502D01*
X121299502Y-70522683D01*
X121299500Y-70522686D01*
X121233608Y-70636812D01*
X121200491Y-70760411D01*
X121199500Y-70764108D01*
X100207114Y-70764108D01*
X100204350Y-70762218D01*
X100203881Y-70761109D01*
X100202900Y-70760411D01*
X100190324Y-70729028D01*
X100177152Y-70697860D01*
X100177357Y-70696671D01*
X100176910Y-70695555D01*
X100183299Y-70662338D01*
X100189067Y-70629013D01*
X100189880Y-70628126D01*
X100190108Y-70626944D01*
X100213446Y-70602449D01*
X100236311Y-70577538D01*
X100237992Y-70576688D01*
X100238306Y-70576360D01*
X100238956Y-70576201D01*
X100252882Y-70569168D01*
X100417598Y-70500941D01*
X100589655Y-70385977D01*
X100735977Y-70239655D01*
X100850941Y-70067598D01*
X100930130Y-69876420D01*
X100938546Y-69834108D01*
X124699500Y-69834108D01*
X124699500Y-69965891D01*
X124733608Y-70093187D01*
X124766554Y-70150250D01*
X124799500Y-70207314D01*
X124892686Y-70300500D01*
X125006814Y-70366392D01*
X125134108Y-70400500D01*
X125134110Y-70400500D01*
X125265890Y-70400500D01*
X125265892Y-70400500D01*
X125393186Y-70366392D01*
X125507314Y-70300500D01*
X125600500Y-70207314D01*
X125666392Y-70093186D01*
X125700500Y-69965892D01*
X125700500Y-69834108D01*
X125666392Y-69706814D01*
X125600500Y-69592686D01*
X125507314Y-69499500D01*
X125450208Y-69466530D01*
X125393187Y-69433608D01*
X125329539Y-69416554D01*
X125265892Y-69399500D01*
X125134108Y-69399500D01*
X125006812Y-69433608D01*
X124892686Y-69499500D01*
X124892683Y-69499502D01*
X124799502Y-69592683D01*
X124799500Y-69592686D01*
X124733608Y-69706812D01*
X124699500Y-69834108D01*
X100938546Y-69834108D01*
X100970500Y-69673465D01*
X100970500Y-69466535D01*
X100930130Y-69263580D01*
X100850941Y-69072402D01*
X100735977Y-68900345D01*
X100735975Y-68900342D01*
X100589658Y-68754025D01*
X100589650Y-68754019D01*
X100567371Y-68739132D01*
X100567297Y-68739084D01*
X100425154Y-68644108D01*
X105469500Y-68644108D01*
X105469500Y-68775891D01*
X105503608Y-68903187D01*
X105536554Y-68960250D01*
X105569500Y-69017314D01*
X105662686Y-69110500D01*
X105776814Y-69176392D01*
X105904108Y-69210500D01*
X105904110Y-69210500D01*
X106035890Y-69210500D01*
X106035892Y-69210500D01*
X106163186Y-69176392D01*
X106277314Y-69110500D01*
X106370500Y-69017314D01*
X106436392Y-68903186D01*
X106470500Y-68775892D01*
X106470500Y-68644108D01*
X106459782Y-68604108D01*
X115089500Y-68604108D01*
X115089500Y-68735892D01*
X115094359Y-68754025D01*
X115123608Y-68863187D01*
X115156554Y-68920250D01*
X115189500Y-68977314D01*
X115282686Y-69070500D01*
X115396814Y-69136392D01*
X115524108Y-69170500D01*
X115524110Y-69170500D01*
X115655890Y-69170500D01*
X115655892Y-69170500D01*
X115783186Y-69136392D01*
X115897314Y-69070500D01*
X115990500Y-68977314D01*
X116056392Y-68863186D01*
X116090500Y-68735892D01*
X116090500Y-68604108D01*
X116056392Y-68476814D01*
X115990500Y-68362686D01*
X115897314Y-68269500D01*
X115840250Y-68236554D01*
X115783187Y-68203608D01*
X115719539Y-68186554D01*
X115655892Y-68169500D01*
X115524108Y-68169500D01*
X115396812Y-68203608D01*
X115282686Y-68269500D01*
X115282683Y-68269502D01*
X115189502Y-68362683D01*
X115189500Y-68362686D01*
X115123608Y-68476812D01*
X115112890Y-68516814D01*
X115089500Y-68604108D01*
X106459782Y-68604108D01*
X106436392Y-68516814D01*
X106370500Y-68402686D01*
X106277314Y-68309500D01*
X106208032Y-68269500D01*
X106163187Y-68243608D01*
X106099539Y-68226554D01*
X106035892Y-68209500D01*
X105904108Y-68209500D01*
X105776812Y-68243608D01*
X105662686Y-68309500D01*
X105662683Y-68309502D01*
X105569502Y-68402683D01*
X105569500Y-68402686D01*
X105503608Y-68516812D01*
X105469500Y-68644108D01*
X100425154Y-68644108D01*
X100425151Y-68644106D01*
X100417598Y-68639059D01*
X100333219Y-68604108D01*
X100226420Y-68559870D01*
X100226412Y-68559868D01*
X100023469Y-68519500D01*
X100023465Y-68519500D01*
X99816535Y-68519500D01*
X99816530Y-68519500D01*
X99613587Y-68559868D01*
X99613579Y-68559870D01*
X99422403Y-68639058D01*
X99250342Y-68754024D01*
X99104024Y-68900342D01*
X98989058Y-69072403D01*
X98909870Y-69263579D01*
X98909868Y-69263587D01*
X98869500Y-69466530D01*
X98869500Y-69673469D01*
X98909868Y-69876412D01*
X98909870Y-69876420D01*
X98989058Y-70067596D01*
X99104024Y-70239657D01*
X99250342Y-70385975D01*
X99422405Y-70500943D01*
X99525043Y-70543456D01*
X99587108Y-70569164D01*
X99641511Y-70613005D01*
X99663576Y-70679299D01*
X99646297Y-70746998D01*
X99595160Y-70794609D01*
X99577974Y-70801656D01*
X99401781Y-70858905D01*
X99212439Y-70955380D01*
X99158282Y-70994727D01*
X99158282Y-70994728D01*
X99790591Y-71627037D01*
X99727007Y-71644075D01*
X99612993Y-71709901D01*
X99519901Y-71802993D01*
X99454075Y-71917007D01*
X99437037Y-71980591D01*
X98804728Y-71348282D01*
X98804727Y-71348282D01*
X98765380Y-71402439D01*
X98668904Y-71591782D01*
X98603242Y-71793869D01*
X98603242Y-71793872D01*
X98570000Y-72003753D01*
X97970500Y-72003753D01*
X97970500Y-66926530D01*
X98869500Y-66926530D01*
X98869500Y-67133469D01*
X98909868Y-67336412D01*
X98909870Y-67336420D01*
X98989058Y-67527596D01*
X99104024Y-67699657D01*
X99250342Y-67845975D01*
X99250345Y-67845977D01*
X99422402Y-67960941D01*
X99613580Y-68040130D01*
X99816530Y-68080499D01*
X99816534Y-68080500D01*
X99816535Y-68080500D01*
X100023466Y-68080500D01*
X100023467Y-68080499D01*
X100226420Y-68040130D01*
X100417598Y-67960941D01*
X100589655Y-67845977D01*
X100735977Y-67699655D01*
X100850941Y-67527598D01*
X100930130Y-67336420D01*
X100970500Y-67133465D01*
X100970500Y-66926535D01*
X100930130Y-66723580D01*
X100926207Y-66714108D01*
X104699500Y-66714108D01*
X104699500Y-66845891D01*
X104733608Y-66973187D01*
X104766554Y-67030250D01*
X104799500Y-67087314D01*
X104892686Y-67180500D01*
X105006814Y-67246392D01*
X105134108Y-67280500D01*
X105134110Y-67280500D01*
X105265890Y-67280500D01*
X105265892Y-67280500D01*
X105393186Y-67246392D01*
X105507314Y-67180500D01*
X105600500Y-67087314D01*
X105666392Y-66973186D01*
X105700500Y-66845892D01*
X105700500Y-66714108D01*
X105666392Y-66586814D01*
X105600500Y-66472686D01*
X105507314Y-66379500D01*
X105450250Y-66346554D01*
X105393187Y-66313608D01*
X105329539Y-66296554D01*
X105265892Y-66279500D01*
X105134108Y-66279500D01*
X105006812Y-66313608D01*
X104892686Y-66379500D01*
X104892683Y-66379502D01*
X104799502Y-66472683D01*
X104799500Y-66472686D01*
X104733608Y-66586812D01*
X104699500Y-66714108D01*
X100926207Y-66714108D01*
X100850941Y-66532402D01*
X100735977Y-66360345D01*
X100735975Y-66360342D01*
X100589657Y-66214024D01*
X100503626Y-66156541D01*
X100417598Y-66099059D01*
X100226420Y-66019870D01*
X100226412Y-66019868D01*
X100023469Y-65979500D01*
X100023465Y-65979500D01*
X99816535Y-65979500D01*
X99816530Y-65979500D01*
X99613587Y-66019868D01*
X99613579Y-66019870D01*
X99422403Y-66099058D01*
X99250342Y-66214024D01*
X99104024Y-66360342D01*
X98989058Y-66532403D01*
X98909870Y-66723579D01*
X98909868Y-66723587D01*
X98869500Y-66926530D01*
X97970500Y-66926530D01*
X97970500Y-64386530D01*
X98869500Y-64386530D01*
X98869500Y-64593469D01*
X98909868Y-64796412D01*
X98909870Y-64796420D01*
X98989058Y-64987596D01*
X99104024Y-65159657D01*
X99250342Y-65305975D01*
X99250345Y-65305977D01*
X99422402Y-65420941D01*
X99613580Y-65500130D01*
X99816530Y-65540499D01*
X99816534Y-65540500D01*
X99816535Y-65540500D01*
X100023466Y-65540500D01*
X100023467Y-65540499D01*
X100226420Y-65500130D01*
X100417598Y-65420941D01*
X100589655Y-65305977D01*
X100735977Y-65159655D01*
X100850941Y-64987598D01*
X100930130Y-64796420D01*
X100941386Y-64739829D01*
X100948492Y-64704108D01*
X115069500Y-64704108D01*
X115069500Y-64835891D01*
X115103608Y-64963187D01*
X115117701Y-64987596D01*
X115169500Y-65077314D01*
X115262686Y-65170500D01*
X115376814Y-65236392D01*
X115504108Y-65270500D01*
X115504110Y-65270500D01*
X115635890Y-65270500D01*
X115635892Y-65270500D01*
X115763186Y-65236392D01*
X115877314Y-65170500D01*
X115970500Y-65077314D01*
X116036392Y-64963186D01*
X116070500Y-64835892D01*
X116070500Y-64704108D01*
X116036392Y-64576814D01*
X115970500Y-64462686D01*
X115877314Y-64369500D01*
X115820250Y-64336554D01*
X115763187Y-64303608D01*
X115699539Y-64286554D01*
X115635892Y-64269500D01*
X115504108Y-64269500D01*
X115376812Y-64303608D01*
X115262686Y-64369500D01*
X115262683Y-64369502D01*
X115169502Y-64462683D01*
X115169500Y-64462686D01*
X115103608Y-64576812D01*
X115069500Y-64704108D01*
X100948492Y-64704108D01*
X100954921Y-64671790D01*
X100970499Y-64593469D01*
X100970500Y-64593466D01*
X100970500Y-64386534D01*
X100970499Y-64386530D01*
X100932041Y-64193187D01*
X100930130Y-64183580D01*
X100850941Y-63992402D01*
X100811990Y-63934108D01*
X118899500Y-63934108D01*
X118899500Y-64065891D01*
X118933608Y-64193187D01*
X118966554Y-64250250D01*
X118999500Y-64307314D01*
X119092686Y-64400500D01*
X119206814Y-64466392D01*
X119334108Y-64500500D01*
X119334110Y-64500500D01*
X119465890Y-64500500D01*
X119465892Y-64500500D01*
X119593186Y-64466392D01*
X119707314Y-64400500D01*
X119800500Y-64307314D01*
X119866392Y-64193186D01*
X119900500Y-64065892D01*
X119900500Y-63934108D01*
X119866392Y-63806814D01*
X119800500Y-63692686D01*
X119707314Y-63599500D01*
X119650250Y-63566554D01*
X119593187Y-63533608D01*
X119529539Y-63516554D01*
X119465892Y-63499500D01*
X119334108Y-63499500D01*
X119206812Y-63533608D01*
X119092686Y-63599500D01*
X119092683Y-63599502D01*
X118999502Y-63692683D01*
X118999500Y-63692686D01*
X118933608Y-63806812D01*
X118899500Y-63934108D01*
X100811990Y-63934108D01*
X100735977Y-63820345D01*
X100735975Y-63820342D01*
X100589657Y-63674024D01*
X100478123Y-63599500D01*
X100417598Y-63559059D01*
X100356154Y-63533608D01*
X100226420Y-63479870D01*
X100226412Y-63479868D01*
X100023469Y-63439500D01*
X100023465Y-63439500D01*
X99816535Y-63439500D01*
X99816530Y-63439500D01*
X99613587Y-63479868D01*
X99613579Y-63479870D01*
X99422403Y-63559058D01*
X99250342Y-63674024D01*
X99104024Y-63820342D01*
X98989058Y-63992403D01*
X98909870Y-64183579D01*
X98909868Y-64183587D01*
X98869500Y-64386530D01*
X97970500Y-64386530D01*
X97970500Y-61080247D01*
X98869500Y-61080247D01*
X98869500Y-62819752D01*
X98881131Y-62878229D01*
X98881132Y-62878230D01*
X98925447Y-62944552D01*
X98991769Y-62988867D01*
X98991770Y-62988868D01*
X99050247Y-63000499D01*
X99050250Y-63000500D01*
X99050252Y-63000500D01*
X100789750Y-63000500D01*
X100789751Y-63000499D01*
X100804568Y-62997552D01*
X100848229Y-62988868D01*
X100848229Y-62988867D01*
X100848231Y-62988867D01*
X100914552Y-62944552D01*
X100958867Y-62878231D01*
X100958867Y-62878229D01*
X100958868Y-62878229D01*
X100970499Y-62819752D01*
X100970500Y-62819750D01*
X100970500Y-61080249D01*
X100970499Y-61080247D01*
X100958868Y-61021770D01*
X100958867Y-61021769D01*
X100914552Y-60955447D01*
X100848230Y-60911132D01*
X100848229Y-60911131D01*
X100789752Y-60899500D01*
X100789748Y-60899500D01*
X99050252Y-60899500D01*
X99050247Y-60899500D01*
X98991770Y-60911131D01*
X98991769Y-60911132D01*
X98925447Y-60955447D01*
X98881132Y-61021769D01*
X98881131Y-61021770D01*
X98869500Y-61080247D01*
X97970500Y-61080247D01*
X97970500Y-57964108D01*
X110669500Y-57964108D01*
X110669500Y-58095891D01*
X110703608Y-58223187D01*
X110727160Y-58263980D01*
X110769500Y-58337314D01*
X110862686Y-58430500D01*
X110976814Y-58496392D01*
X111104108Y-58530500D01*
X111104110Y-58530500D01*
X111235890Y-58530500D01*
X111235892Y-58530500D01*
X111363186Y-58496392D01*
X111477314Y-58430500D01*
X111570500Y-58337314D01*
X111572351Y-58334108D01*
X116509500Y-58334108D01*
X116509500Y-58465892D01*
X116526554Y-58529539D01*
X116543608Y-58593187D01*
X116576554Y-58650250D01*
X116609500Y-58707314D01*
X116702686Y-58800500D01*
X116816814Y-58866392D01*
X116944108Y-58900500D01*
X116944110Y-58900500D01*
X117075890Y-58900500D01*
X117075892Y-58900500D01*
X117203186Y-58866392D01*
X117317314Y-58800500D01*
X117410500Y-58707314D01*
X117476392Y-58593186D01*
X117510500Y-58465892D01*
X117510500Y-58334108D01*
X117476392Y-58206814D01*
X117410500Y-58092686D01*
X117317314Y-57999500D01*
X117256013Y-57964108D01*
X117203187Y-57933608D01*
X117139539Y-57916554D01*
X117075892Y-57899500D01*
X116944108Y-57899500D01*
X116816812Y-57933608D01*
X116702686Y-57999500D01*
X116702683Y-57999502D01*
X116609502Y-58092683D01*
X116609500Y-58092686D01*
X116543608Y-58206812D01*
X116528290Y-58263981D01*
X116509500Y-58334108D01*
X111572351Y-58334108D01*
X111636392Y-58223186D01*
X111670500Y-58095892D01*
X111670500Y-57964108D01*
X111636392Y-57836814D01*
X111570500Y-57722686D01*
X111477314Y-57629500D01*
X111420250Y-57596554D01*
X111363187Y-57563608D01*
X111299539Y-57546554D01*
X111235892Y-57529500D01*
X111104108Y-57529500D01*
X110976812Y-57563608D01*
X110862686Y-57629500D01*
X110862683Y-57629502D01*
X110769502Y-57722683D01*
X110769500Y-57722686D01*
X110703608Y-57836812D01*
X110669500Y-57964108D01*
X97970500Y-57964108D01*
X97970500Y-55203750D01*
X97970726Y-55196263D01*
X97987542Y-54918259D01*
X97989347Y-54903394D01*
X97999041Y-54850499D01*
X98038874Y-54633130D01*
X98042452Y-54618616D01*
X98124202Y-54356268D01*
X98129499Y-54342302D01*
X98155690Y-54284108D01*
X116089500Y-54284108D01*
X116089500Y-54415892D01*
X116091108Y-54421892D01*
X116123608Y-54543187D01*
X116156554Y-54600250D01*
X116189500Y-54657314D01*
X116282686Y-54750500D01*
X116396814Y-54816392D01*
X116524108Y-54850500D01*
X116524110Y-54850500D01*
X116655890Y-54850500D01*
X116655892Y-54850500D01*
X116783186Y-54816392D01*
X116897314Y-54750500D01*
X116990500Y-54657314D01*
X117056392Y-54543186D01*
X117090500Y-54415892D01*
X117090500Y-54290108D01*
X118625500Y-54290108D01*
X118625500Y-54421891D01*
X118659608Y-54549187D01*
X118692554Y-54606250D01*
X118725500Y-54663314D01*
X118818686Y-54756500D01*
X118932814Y-54822392D01*
X119060108Y-54856500D01*
X119060110Y-54856500D01*
X119191890Y-54856500D01*
X119191892Y-54856500D01*
X119319186Y-54822392D01*
X119433314Y-54756500D01*
X119526500Y-54663314D01*
X119592392Y-54549186D01*
X119626500Y-54421892D01*
X119626500Y-54290108D01*
X119592392Y-54162814D01*
X119526500Y-54048686D01*
X119433314Y-53955500D01*
X119376250Y-53922554D01*
X119319187Y-53889608D01*
X119255539Y-53872554D01*
X119191892Y-53855500D01*
X119060108Y-53855500D01*
X118932812Y-53889608D01*
X118818686Y-53955500D01*
X118818683Y-53955502D01*
X118725502Y-54048683D01*
X118725500Y-54048686D01*
X118659608Y-54162812D01*
X118625500Y-54290108D01*
X117090500Y-54290108D01*
X117090500Y-54284108D01*
X117056392Y-54156814D01*
X116990500Y-54042686D01*
X116897314Y-53949500D01*
X116840250Y-53916554D01*
X116783187Y-53883608D01*
X116719539Y-53866554D01*
X116655892Y-53849500D01*
X116524108Y-53849500D01*
X116396812Y-53883608D01*
X116282686Y-53949500D01*
X116282683Y-53949502D01*
X116189502Y-54042683D01*
X116189500Y-54042686D01*
X116123608Y-54156812D01*
X116089500Y-54284108D01*
X98155690Y-54284108D01*
X98242276Y-54091722D01*
X98249221Y-54078489D01*
X98391378Y-53843333D01*
X98399865Y-53831037D01*
X98569331Y-53614729D01*
X98579246Y-53603538D01*
X98773538Y-53409246D01*
X98784729Y-53399331D01*
X99001037Y-53229865D01*
X99013333Y-53221378D01*
X99248489Y-53079221D01*
X99261722Y-53072276D01*
X99512302Y-52959499D01*
X99526268Y-52954202D01*
X99788616Y-52872452D01*
X99803130Y-52868874D01*
X100073398Y-52819346D01*
X100088256Y-52817542D01*
X100366265Y-52800726D01*
X100373752Y-52800500D01*
X100417595Y-52800500D01*
X124922405Y-52800500D01*
X124966249Y-52800500D01*
X124973736Y-52800726D01*
G37*
%TD.AperFunction*%
%TD*%
M02*
