%TF.GenerationSoftware,KiCad,Pcbnew,9.0.2*%
%TF.CreationDate,2025-06-24T12:42:33-05:00*%
%TF.ProjectId,Flight Computer,466c6967-6874-4204-936f-6d7075746572,rev?*%
%TF.SameCoordinates,Original*%
%TF.FileFunction,Legend,Top*%
%TF.FilePolarity,Positive*%
%FSLAX46Y46*%
G04 Gerber Fmt 4.6, Leading zero omitted, Abs format (unit mm)*
G04 Created by KiCad (PCBNEW 9.0.2) date 2025-06-24 12:42:33*
%MOMM*%
%LPD*%
G01*
G04 APERTURE LIST*
%ADD10C,0.138906*%
%ADD11C,0.046302*%
%ADD12C,0.000000*%
%ADD13C,0.150000*%
%ADD14C,0.120000*%
%ADD15C,0.152400*%
G04 APERTURE END LIST*
D10*
X123437064Y-64785997D02*
X123423963Y-64785957D01*
X123410872Y-64785837D01*
X123397790Y-64785638D01*
X123384718Y-64785358D01*
X123371657Y-64784999D01*
X123358605Y-64784560D01*
X123345564Y-64784042D01*
X123332534Y-64783444D01*
X123319515Y-64782766D01*
X123306507Y-64782009D01*
X123293511Y-64781173D01*
X123280527Y-64780257D01*
X123267554Y-64779262D01*
X123254594Y-64778188D01*
X123241647Y-64777035D01*
X123228712Y-64775803D01*
X123215791Y-64774491D01*
X123202883Y-64773101D01*
X123189989Y-64771632D01*
X123177108Y-64770084D01*
X123164242Y-64768457D01*
X123151391Y-64766751D01*
X123138554Y-64764967D01*
X123125733Y-64763104D01*
X123112927Y-64761162D01*
X123100136Y-64759143D01*
X123087362Y-64757044D01*
X123074604Y-64754868D01*
X123061862Y-64752613D01*
X123049138Y-64750280D01*
X123036431Y-64747869D01*
X123023741Y-64745380D01*
X123011069Y-64742813D01*
X122998415Y-64740168D01*
X122985780Y-64737445D01*
X122973164Y-64734645D01*
X122960567Y-64731767D01*
X122947990Y-64728811D01*
X122935432Y-64725778D01*
X122922895Y-64722668D01*
X122910378Y-64719480D01*
X122897882Y-64716215D01*
X122885407Y-64712873D01*
X122872954Y-64709454D01*
X122860523Y-64705959D01*
X122848114Y-64702386D01*
X122835727Y-64698737D01*
X122823364Y-64695011D01*
X122811024Y-64691209D01*
X122798708Y-64687330D01*
X122786416Y-64683376D01*
X122774148Y-64679345D01*
X122761906Y-64675238D01*
X122749688Y-64671055D01*
X122737496Y-64666797D01*
X122725331Y-64662463D01*
X122713191Y-64658053D01*
X122701078Y-64653569D01*
X122688993Y-64649009D01*
X122676935Y-64644373D01*
X122664905Y-64639663D01*
X122652904Y-64634879D01*
X122640931Y-64630019D01*
X122628987Y-64625086D01*
X122617073Y-64620078D01*
X122605189Y-64614995D01*
X122593335Y-64609839D01*
X122581512Y-64604609D01*
X122569720Y-64599306D01*
X122557960Y-64593928D01*
X122546232Y-64588478D01*
X122534536Y-64582955D01*
X122522873Y-64577358D01*
X122511243Y-64571689D01*
X122499648Y-64565948D01*
X122488086Y-64560134D01*
X122476559Y-64554248D01*
X122465066Y-64548290D01*
X122453610Y-64542260D01*
X122442189Y-64536159D01*
X122430804Y-64529986D01*
X122419456Y-64523743D01*
X122408145Y-64517429D01*
X122396872Y-64511044D01*
X122385636Y-64504588D01*
X122374439Y-64498063D01*
X122363281Y-64491467D01*
X122352163Y-64484802D01*
X122341084Y-64478068D01*
X122330045Y-64471264D01*
X122319047Y-64464391D01*
X122308090Y-64457450D01*
X122297174Y-64450441D01*
X122286300Y-64443363D01*
X122275469Y-64436217D01*
X122264681Y-64429004D01*
X122253935Y-64421724D01*
X122243234Y-64414377D01*
X122232576Y-64406962D01*
X122221963Y-64399482D01*
X122211396Y-64391935D01*
X122200873Y-64384323D01*
X122190397Y-64376645D01*
X122179967Y-64368901D01*
X122169583Y-64361093D01*
X122159247Y-64353221D01*
X122148958Y-64345284D01*
X122138718Y-64337283D01*
X122128525Y-64329218D01*
X122118382Y-64321090D01*
X122108288Y-64312899D01*
X122098244Y-64304646D01*
X122088250Y-64296330D01*
X122078307Y-64287953D01*
X122068415Y-64279513D01*
X122058574Y-64271013D01*
X122048785Y-64262451D01*
X122039049Y-64253830D01*
X122029365Y-64245147D01*
X122019734Y-64236406D01*
X122010157Y-64227604D01*
X122000634Y-64218744D01*
X121991165Y-64209825D01*
X121981751Y-64200848D01*
X121972392Y-64191812D01*
X121963089Y-64182720D01*
X121953841Y-64173570D01*
X121944650Y-64164363D01*
X121940076Y-64159739D01*
X121935516Y-64155100D01*
X121930971Y-64150447D01*
X121926439Y-64145781D01*
X121921922Y-64141101D01*
X121917420Y-64136406D01*
X121912932Y-64131698D01*
X121908458Y-64126976D01*
X121903999Y-64122241D01*
X121899555Y-64117492D01*
X121895125Y-64112729D01*
X121890710Y-64107953D01*
X121886310Y-64103163D01*
X121881925Y-64098360D01*
X121877554Y-64093544D01*
X121873199Y-64088714D01*
X121868858Y-64083870D01*
X121864532Y-64079014D01*
X121860222Y-64074144D01*
X121855926Y-64069262D01*
X121851646Y-64064366D01*
X121847381Y-64059457D01*
X121843131Y-64054535D01*
X121838896Y-64049600D01*
X121834677Y-64044653D01*
X121830473Y-64039692D01*
X121826284Y-64034719D01*
X121822111Y-64029733D01*
X121817953Y-64024735D01*
X121813811Y-64019723D01*
X121809685Y-64014700D01*
X121805574Y-64009663D01*
X121801479Y-64004615D01*
X121797399Y-63999554D01*
X121793335Y-63994481D01*
X121789287Y-63989395D01*
X121785255Y-63984297D01*
X121781238Y-63979187D01*
X121777238Y-63974065D01*
X121773253Y-63968930D01*
X121769285Y-63963784D01*
X121765332Y-63958625D01*
X121761396Y-63953455D01*
X121757476Y-63948273D01*
X121753572Y-63943080D01*
X121749684Y-63937874D01*
X121745812Y-63932657D01*
X121741957Y-63927427D01*
X121738118Y-63922187D01*
X121734295Y-63916935D01*
X121730489Y-63911672D01*
X121726699Y-63906396D01*
X121722926Y-63901111D01*
X121719168Y-63895813D01*
X121715428Y-63890504D01*
X121711704Y-63885184D01*
X121707997Y-63879853D01*
X121704306Y-63874510D01*
X121700633Y-63869157D01*
X121696975Y-63863792D01*
X121693335Y-63858418D01*
X121689712Y-63853031D01*
X121686105Y-63847635D01*
X121682515Y-63842226D01*
X121678942Y-63836808D01*
X121675386Y-63831379D01*
X121671847Y-63825940D01*
X121668325Y-63820489D01*
X121664820Y-63815029D01*
X121661332Y-63809557D01*
X121657862Y-63804076D01*
X121654408Y-63798584D01*
X121650972Y-63793082D01*
X121647552Y-63787569D01*
X121644150Y-63782048D01*
X121640765Y-63776514D01*
X121637398Y-63770972D01*
X121634048Y-63765419D01*
X121630715Y-63759857D01*
X121627400Y-63754284D01*
X121624102Y-63748703D01*
X121620821Y-63743110D01*
X121617559Y-63737509D01*
X121614313Y-63731897D01*
X121611086Y-63726276D01*
X121607875Y-63720645D01*
X121604683Y-63715006D01*
X121601507Y-63709355D01*
X121598350Y-63703697D01*
X121595210Y-63698028D01*
X121592089Y-63692351D01*
X121588984Y-63686664D01*
X121585898Y-63680969D01*
X121582830Y-63675263D01*
X121579779Y-63669549D01*
X121576746Y-63663825D01*
X121573731Y-63658094D01*
X121570734Y-63652352D01*
X121567755Y-63646603D01*
X121564794Y-63640844D01*
X121561851Y-63635077D01*
X121558926Y-63629300D01*
X121556019Y-63623516D01*
X121553130Y-63617722D01*
X121550260Y-63611921D01*
X121547406Y-63606109D01*
X121544572Y-63600291D01*
X121541756Y-63594463D01*
X121538958Y-63588629D01*
X121536178Y-63582784D01*
X121533416Y-63576933D01*
X121530673Y-63571072D01*
X121527948Y-63565205D01*
X121525241Y-63559327D01*
X121522553Y-63553444D01*
X121519882Y-63547551D01*
X121517231Y-63541651D01*
X121514597Y-63535743D01*
X121511983Y-63529828D01*
X121509386Y-63523903D01*
X121506809Y-63517973D01*
X121504249Y-63512033D01*
X121501708Y-63506087D01*
X121499186Y-63500132D01*
X121496682Y-63494172D01*
X121494197Y-63488202D01*
X121491731Y-63482226D01*
X121489282Y-63476242D01*
X121486853Y-63470252D01*
X121484442Y-63464253D01*
X121482051Y-63458248D01*
X121479677Y-63452235D01*
X121477323Y-63446216D01*
X121474987Y-63440188D01*
X121472670Y-63434156D01*
X121470371Y-63428114D01*
X121468092Y-63422068D01*
X121465831Y-63416012D01*
X121463590Y-63409952D01*
X121461366Y-63403883D01*
X121459162Y-63397810D01*
X121456977Y-63391728D01*
X121454811Y-63385641D01*
X121452663Y-63379546D01*
X121450535Y-63373446D01*
X121448425Y-63367338D01*
X121446335Y-63361225D01*
X121444263Y-63355104D01*
X121442210Y-63348979D01*
X121440176Y-63342845D01*
X121438162Y-63336707D01*
X121436166Y-63330561D01*
X121434190Y-63324411D01*
X121432232Y-63318253D01*
X121430294Y-63312091D01*
X121428375Y-63305921D01*
X121426475Y-63299747D01*
X121424593Y-63293565D01*
X121422732Y-63287379D01*
X121420889Y-63281186D01*
X121419066Y-63274988D01*
X121417261Y-63268783D01*
X121415476Y-63262575D01*
X121413710Y-63256358D01*
X121411963Y-63250139D01*
X121410236Y-63243911D01*
X121408528Y-63237681D01*
X121406839Y-63231442D01*
X121405169Y-63225201D01*
X121403518Y-63218952D01*
X121401888Y-63212699D01*
X121400276Y-63206440D01*
X121398683Y-63200177D01*
X121397110Y-63193907D01*
X121395557Y-63187634D01*
X121394022Y-63181354D01*
X121392507Y-63175071D01*
X121391011Y-63168781D01*
X121389535Y-63162488D01*
X121388078Y-63156188D01*
X121386641Y-63149885D01*
X121385223Y-63143575D01*
X121383824Y-63137263D01*
X121382445Y-63130943D01*
X121381086Y-63124622D01*
X121379745Y-63118293D01*
X121378425Y-63111962D01*
X121377123Y-63105624D01*
X121375842Y-63099284D01*
X121374580Y-63092937D01*
X121373337Y-63086588D01*
X121372114Y-63080232D01*
X121370910Y-63073874D01*
X121369726Y-63067509D01*
X121368562Y-63061143D01*
X121367417Y-63054770D01*
X121366292Y-63048395D01*
X121365186Y-63042013D01*
X121364100Y-63035630D01*
X121363033Y-63029240D01*
X121361986Y-63022849D01*
X121360959Y-63016451D01*
X121359951Y-63010051D01*
X121358963Y-63003645D01*
X121357995Y-62997238D01*
X121357046Y-62990824D01*
X121356117Y-62984409D01*
X121355208Y-62977988D01*
X121354318Y-62971565D01*
X121353448Y-62965137D01*
X121352598Y-62958707D01*
X121351767Y-62952271D01*
X121350956Y-62945833D01*
X121350165Y-62939390D01*
X121349394Y-62932946D01*
X121348642Y-62926495D01*
X121347910Y-62920044D01*
X121347198Y-62913587D01*
X121346506Y-62907128D01*
X121345833Y-62900664D01*
X121345180Y-62894199D01*
X121344547Y-62887729D01*
X121343934Y-62881257D01*
X121343340Y-62874780D01*
X121342767Y-62868302D01*
X121342213Y-62861819D01*
X121341679Y-62855334D01*
X121341164Y-62848845D01*
X121340670Y-62842354D01*
X121340196Y-62835858D01*
X121339741Y-62829362D01*
X121339306Y-62822860D01*
X121338891Y-62816358D01*
X121338496Y-62809850D01*
X121338121Y-62803342D01*
X121337766Y-62796829D01*
X121337430Y-62790315D01*
X121337115Y-62783796D01*
X121336819Y-62777277D01*
X121336543Y-62770753D01*
X121336288Y-62764228D01*
X121336052Y-62757698D01*
X121335836Y-62751168D01*
X121335640Y-62744634D01*
X121335464Y-62738099D01*
X121335308Y-62731559D01*
X121335172Y-62725019D01*
X121335056Y-62718474D01*
X121334960Y-62711929D01*
X121334883Y-62705379D01*
X121334827Y-62698829D01*
X121334791Y-62692275D01*
X121334774Y-62683706D01*
X125560589Y-62683706D02*
X125560549Y-62670606D01*
X125560429Y-62657515D01*
X125560230Y-62644433D01*
X125559950Y-62631362D01*
X125559591Y-62618300D01*
X125559152Y-62605249D01*
X125558634Y-62592208D01*
X125558036Y-62579178D01*
X125557358Y-62566159D01*
X125556601Y-62553152D01*
X125555765Y-62540156D01*
X125554849Y-62527172D01*
X125553854Y-62514200D01*
X125552780Y-62501240D01*
X125551627Y-62488293D01*
X125550395Y-62475358D01*
X125549083Y-62462437D01*
X125547693Y-62449529D01*
X125546224Y-62436635D01*
X125544675Y-62423755D01*
X125543049Y-62410889D01*
X125541343Y-62398038D01*
X125539559Y-62385202D01*
X125537696Y-62372380D01*
X125535754Y-62359574D01*
X125533735Y-62346784D01*
X125531636Y-62334010D01*
X125529460Y-62321252D01*
X125527205Y-62308511D01*
X125524872Y-62295786D01*
X125522461Y-62283079D01*
X125519972Y-62270390D01*
X125517405Y-62257718D01*
X125514760Y-62245065D01*
X125512037Y-62232430D01*
X125509236Y-62219814D01*
X125506358Y-62207217D01*
X125503403Y-62194640D01*
X125500370Y-62182082D01*
X125497259Y-62169545D01*
X125494072Y-62157028D01*
X125490807Y-62144532D01*
X125487465Y-62132058D01*
X125484046Y-62119604D01*
X125480550Y-62107173D01*
X125476978Y-62094765D01*
X125473328Y-62082378D01*
X125469603Y-62070015D01*
X125465800Y-62057675D01*
X125461922Y-62045359D01*
X125457967Y-62033067D01*
X125453936Y-62020800D01*
X125449829Y-62008557D01*
X125445647Y-61996340D01*
X125441388Y-61984148D01*
X125437054Y-61971982D01*
X125432645Y-61959843D01*
X125428160Y-61947731D01*
X125423600Y-61935645D01*
X125418965Y-61923587D01*
X125414255Y-61911557D01*
X125409470Y-61899556D01*
X125404611Y-61887583D01*
X125399677Y-61875639D01*
X125394669Y-61863725D01*
X125389586Y-61851841D01*
X125384430Y-61839988D01*
X125379200Y-61828165D01*
X125373896Y-61816373D01*
X125368519Y-61804613D01*
X125363069Y-61792885D01*
X125357545Y-61781189D01*
X125351949Y-61769526D01*
X125346280Y-61757896D01*
X125340538Y-61746301D01*
X125334724Y-61734739D01*
X125328838Y-61723212D01*
X125322880Y-61711719D01*
X125316850Y-61700263D01*
X125310749Y-61688842D01*
X125304577Y-61677457D01*
X125298333Y-61666109D01*
X125292019Y-61654798D01*
X125285634Y-61643525D01*
X125279178Y-61632290D01*
X125272653Y-61621093D01*
X125266057Y-61609935D01*
X125259392Y-61598816D01*
X125252657Y-61587737D01*
X125245854Y-61576698D01*
X125238981Y-61565700D01*
X125232040Y-61554743D01*
X125225030Y-61543827D01*
X125217952Y-61532954D01*
X125210807Y-61522122D01*
X125203594Y-61511334D01*
X125196313Y-61500589D01*
X125188966Y-61489887D01*
X125181551Y-61479230D01*
X125174071Y-61468617D01*
X125166524Y-61458049D01*
X125158911Y-61447526D01*
X125151233Y-61437050D01*
X125143490Y-61426620D01*
X125135682Y-61416236D01*
X125127809Y-61405900D01*
X125119872Y-61395611D01*
X125111871Y-61385371D01*
X125103806Y-61375178D01*
X125095678Y-61365035D01*
X125087487Y-61354941D01*
X125079234Y-61344897D01*
X125070918Y-61334903D01*
X125062540Y-61324960D01*
X125054101Y-61315068D01*
X125045600Y-61305227D01*
X125037039Y-61295438D01*
X125028417Y-61285702D01*
X125019735Y-61276018D01*
X125010993Y-61266387D01*
X125002191Y-61256810D01*
X124993331Y-61247286D01*
X124984412Y-61237818D01*
X124975434Y-61228404D01*
X124966399Y-61219045D01*
X124957306Y-61209741D01*
X124948156Y-61200494D01*
X124938949Y-61191303D01*
X124934325Y-61186729D01*
X124929686Y-61182169D01*
X124925034Y-61177623D01*
X124920367Y-61173092D01*
X124915687Y-61168575D01*
X124910992Y-61164072D01*
X124906284Y-61159584D01*
X124901562Y-61155110D01*
X124896827Y-61150652D01*
X124892078Y-61146207D01*
X124887315Y-61141778D01*
X124882539Y-61137363D01*
X124877749Y-61132962D01*
X124872946Y-61128577D01*
X124868129Y-61124207D01*
X124863299Y-61119851D01*
X124858456Y-61115510D01*
X124853599Y-61111185D01*
X124848730Y-61106874D01*
X124843847Y-61102579D01*
X124838951Y-61098298D01*
X124834042Y-61094033D01*
X124829120Y-61089783D01*
X124824185Y-61085548D01*
X124819238Y-61081329D01*
X124814277Y-61077125D01*
X124809304Y-61072936D01*
X124804318Y-61068763D01*
X124799320Y-61064605D01*
X124794308Y-61060463D01*
X124789285Y-61056337D01*
X124784248Y-61052226D01*
X124779200Y-61048130D01*
X124774138Y-61044051D01*
X124769065Y-61039987D01*
X124763979Y-61035939D01*
X124758881Y-61031907D01*
X124753771Y-61027890D01*
X124748649Y-61023890D01*
X124743514Y-61019905D01*
X124738368Y-61015937D01*
X124733210Y-61011984D01*
X124728040Y-61008048D01*
X124722857Y-61004128D01*
X124717664Y-61000224D01*
X124712458Y-60996336D01*
X124707241Y-60992464D01*
X124702011Y-60988608D01*
X124696771Y-60984770D01*
X124691519Y-60980947D01*
X124686256Y-60977141D01*
X124680980Y-60973350D01*
X124675694Y-60969577D01*
X124670396Y-60965820D01*
X124665088Y-60962080D01*
X124659767Y-60958356D01*
X124654436Y-60954649D01*
X124649094Y-60950958D01*
X124643741Y-60947284D01*
X124638376Y-60943627D01*
X124633001Y-60939987D01*
X124627614Y-60936363D01*
X124622218Y-60932757D01*
X124616810Y-60929166D01*
X124611392Y-60925594D01*
X124605962Y-60922037D01*
X124600523Y-60918499D01*
X124595072Y-60914976D01*
X124589612Y-60911472D01*
X124584140Y-60907983D01*
X124578659Y-60904513D01*
X124573167Y-60901059D01*
X124567665Y-60897623D01*
X124562152Y-60894203D01*
X124556630Y-60890802D01*
X124551097Y-60887417D01*
X124545555Y-60884049D01*
X124540002Y-60880699D01*
X124534440Y-60877367D01*
X124528867Y-60874051D01*
X124523285Y-60870753D01*
X124517692Y-60867473D01*
X124512091Y-60864210D01*
X124506479Y-60860964D01*
X124500859Y-60857737D01*
X124495227Y-60854526D01*
X124489588Y-60851334D01*
X124483938Y-60848158D01*
X124478279Y-60845002D01*
X124472610Y-60841862D01*
X124466933Y-60838740D01*
X124461246Y-60835635D01*
X124455550Y-60832549D01*
X124449845Y-60829481D01*
X124444131Y-60826430D01*
X124438407Y-60823397D01*
X124432676Y-60820382D01*
X124426934Y-60817385D01*
X124421185Y-60814406D01*
X124415425Y-60811445D01*
X124409658Y-60808502D01*
X124403882Y-60805577D01*
X124398097Y-60802670D01*
X124392303Y-60799781D01*
X124386502Y-60796910D01*
X124380691Y-60794057D01*
X124374873Y-60791223D01*
X124369045Y-60788407D01*
X124363210Y-60785609D01*
X124357365Y-60782828D01*
X124351514Y-60780067D01*
X124345653Y-60777323D01*
X124339786Y-60774599D01*
X124333909Y-60771892D01*
X124328025Y-60769204D01*
X124322132Y-60766533D01*
X124316233Y-60763882D01*
X124310324Y-60761248D01*
X124304409Y-60758634D01*
X124298484Y-60756037D01*
X124292554Y-60753459D01*
X124286614Y-60750900D01*
X124280668Y-60748359D01*
X124274713Y-60745836D01*
X124268753Y-60743333D01*
X124262783Y-60740847D01*
X124256807Y-60738381D01*
X124250823Y-60735933D01*
X124244833Y-60733504D01*
X124238833Y-60731093D01*
X124232829Y-60728701D01*
X124226815Y-60726328D01*
X124220797Y-60723974D01*
X124214769Y-60721637D01*
X124208736Y-60719321D01*
X124202695Y-60717022D01*
X124196648Y-60714743D01*
X124190593Y-60712482D01*
X124184533Y-60710240D01*
X124178464Y-60708017D01*
X124172390Y-60705813D01*
X124166308Y-60703627D01*
X124160221Y-60701461D01*
X124154126Y-60699314D01*
X124148026Y-60697185D01*
X124141918Y-60695075D01*
X124135805Y-60692985D01*
X124129684Y-60690913D01*
X124123559Y-60688861D01*
X124117425Y-60686827D01*
X124111288Y-60684813D01*
X124105142Y-60682817D01*
X124098992Y-60680841D01*
X124092833Y-60678883D01*
X124086671Y-60676945D01*
X124080501Y-60675025D01*
X124074327Y-60673125D01*
X124068145Y-60671244D01*
X124061959Y-60669382D01*
X124055766Y-60667539D01*
X124049569Y-60665716D01*
X124043363Y-60663912D01*
X124037155Y-60662127D01*
X124030938Y-60660360D01*
X124024719Y-60658614D01*
X124018491Y-60656886D01*
X124012261Y-60655178D01*
X124006022Y-60653489D01*
X123999781Y-60651820D01*
X123993532Y-60650169D01*
X123987279Y-60648538D01*
X123981020Y-60646926D01*
X123974757Y-60645334D01*
X123968487Y-60643761D01*
X123962214Y-60642207D01*
X123955934Y-60640673D01*
X123949651Y-60639158D01*
X123943361Y-60637662D01*
X123937068Y-60636186D01*
X123930768Y-60634729D01*
X123924465Y-60633292D01*
X123918155Y-60631873D01*
X123911843Y-60630475D01*
X123905523Y-60629096D01*
X123899201Y-60627736D01*
X123892873Y-60626396D01*
X123886542Y-60625076D01*
X123880204Y-60623774D01*
X123873864Y-60622493D01*
X123867517Y-60621230D01*
X123861168Y-60619988D01*
X123854812Y-60618765D01*
X123848454Y-60617561D01*
X123842089Y-60616377D01*
X123835723Y-60615213D01*
X123829350Y-60614068D01*
X123822975Y-60612942D01*
X123816593Y-60611836D01*
X123810210Y-60610751D01*
X123803820Y-60609684D01*
X123797428Y-60608637D01*
X123791031Y-60607610D01*
X123784631Y-60606602D01*
X123778225Y-60605614D01*
X123771818Y-60604646D01*
X123765404Y-60603697D01*
X123758989Y-60602768D01*
X123752568Y-60601858D01*
X123746145Y-60600969D01*
X123739717Y-60600099D01*
X123733287Y-60599249D01*
X123726851Y-60598418D01*
X123720413Y-60597607D01*
X123713970Y-60596816D01*
X123707526Y-60596045D01*
X123701075Y-60595293D01*
X123694624Y-60594561D01*
X123688167Y-60593849D01*
X123681708Y-60593156D01*
X123675244Y-60592484D01*
X123668780Y-60591831D01*
X123662309Y-60591198D01*
X123655837Y-60590585D01*
X123649360Y-60589991D01*
X123642882Y-60589417D01*
X123636399Y-60588864D01*
X123629915Y-60588330D01*
X123623425Y-60587815D01*
X123616934Y-60587321D01*
X123610439Y-60586846D01*
X123603942Y-60586392D01*
X123597440Y-60585957D01*
X123590938Y-60585542D01*
X123584431Y-60585147D01*
X123577923Y-60584772D01*
X123571409Y-60584416D01*
X123564896Y-60584081D01*
X123558377Y-60583766D01*
X123551857Y-60583470D01*
X123545333Y-60583194D01*
X123538809Y-60582939D01*
X123532279Y-60582703D01*
X123525749Y-60582487D01*
X123519214Y-60582291D01*
X123512679Y-60582115D01*
X123506139Y-60581959D01*
X123499599Y-60581823D01*
X123493054Y-60581707D01*
X123486510Y-60581611D01*
X123479960Y-60581534D01*
X123473410Y-60581478D01*
X123466856Y-60581442D01*
X123458289Y-60581425D01*
D11*
X123478940Y-58932181D02*
X123480611Y-58935455D01*
X123484269Y-58947955D01*
X123488286Y-58967536D01*
X123492591Y-58993176D01*
X123501781Y-59058535D01*
X123511270Y-59135844D01*
X123540837Y-59400787D01*
X123544442Y-59445053D01*
X123547484Y-59510767D01*
X123551979Y-59672818D01*
X123555329Y-59883384D01*
X123601848Y-59941013D01*
X123650966Y-60005739D01*
X123679356Y-60044947D01*
X123709297Y-60087906D01*
X123740037Y-60134007D01*
X123770822Y-60182642D01*
X123800900Y-60233199D01*
X123829520Y-60285071D01*
X123855927Y-60337648D01*
X123868066Y-60364010D01*
X123879371Y-60390320D01*
X123889746Y-60416502D01*
X123899098Y-60442480D01*
X123907332Y-60468176D01*
X123914355Y-60493516D01*
X123943284Y-60613434D01*
X123977419Y-60767601D01*
X124014397Y-60949273D01*
X124051857Y-61151703D01*
X124087437Y-61368145D01*
X124118773Y-61591852D01*
X124143503Y-61816079D01*
X124152653Y-61926279D01*
X124159265Y-62034079D01*
X124166916Y-62216797D01*
X124172673Y-62423217D01*
X124175512Y-62642455D01*
X124174405Y-62863628D01*
X124168327Y-63075852D01*
X124156251Y-63268245D01*
X124147643Y-63353603D01*
X124137151Y-63429922D01*
X124124646Y-63495841D01*
X124110000Y-63550000D01*
X124501299Y-64002168D01*
X124502756Y-64003594D01*
X124504461Y-64005071D01*
X124506710Y-64006787D01*
X124509427Y-64008536D01*
X124510936Y-64009359D01*
X124512532Y-64010115D01*
X124514206Y-64010777D01*
X124515947Y-64011321D01*
X124517747Y-64011720D01*
X124519594Y-64011949D01*
X124521480Y-64011983D01*
X124523394Y-64011796D01*
X124525326Y-64011363D01*
X124527267Y-64010658D01*
X124529208Y-64009656D01*
X124531137Y-64008332D01*
X124533046Y-64006659D01*
X124534924Y-64004613D01*
X124536762Y-64002168D01*
X124538550Y-63999298D01*
X124540278Y-63995978D01*
X124541936Y-63992183D01*
X124543515Y-63987887D01*
X124545004Y-63983064D01*
X124546394Y-63977689D01*
X124547675Y-63971738D01*
X124553224Y-63946432D01*
X124559742Y-63921194D01*
X124566701Y-63897043D01*
X124573576Y-63874998D01*
X124584966Y-63841301D01*
X124589699Y-63828257D01*
X124609582Y-63955283D01*
X124627302Y-64105340D01*
X124636026Y-64199460D01*
X124643868Y-64305337D01*
X124650231Y-64422245D01*
X124654523Y-64549457D01*
X124656148Y-64686245D01*
X124654512Y-64831882D01*
X124649020Y-64985641D01*
X124639079Y-65146796D01*
X124624093Y-65314618D01*
X124603469Y-65488381D01*
X124557815Y-65310840D01*
X123807101Y-64732592D01*
X123805904Y-64732091D01*
X123804513Y-64731589D01*
X123802686Y-64731030D01*
X123800494Y-64730496D01*
X123798008Y-64730071D01*
X123796676Y-64729925D01*
X123795296Y-64729837D01*
X123793878Y-64729817D01*
X123792429Y-64729876D01*
X123790960Y-64730024D01*
X123789477Y-64730272D01*
X123787992Y-64730630D01*
X123786511Y-64731108D01*
X123785044Y-64731716D01*
X123783599Y-64732465D01*
X123782186Y-64733366D01*
X123780813Y-64734428D01*
X123779488Y-64735662D01*
X123778221Y-64737078D01*
X123777021Y-64738687D01*
X123775895Y-64740499D01*
X123774854Y-64742524D01*
X123773905Y-64744773D01*
X123773057Y-64747256D01*
X123772319Y-64749983D01*
X123762686Y-64775969D01*
X123740677Y-64826616D01*
X123708470Y-64895198D01*
X123668242Y-64974988D01*
X123645802Y-65016985D01*
X123622173Y-65059261D01*
X123597628Y-65100977D01*
X123572439Y-65141292D01*
X123546878Y-65179365D01*
X123521218Y-65214355D01*
X123495731Y-65245422D01*
X123470689Y-65271724D01*
X123477384Y-58931061D01*
X123478940Y-58932181D01*
G36*
X123478940Y-58932181D02*
G01*
X123480611Y-58935455D01*
X123484269Y-58947955D01*
X123488286Y-58967536D01*
X123492591Y-58993176D01*
X123501781Y-59058535D01*
X123511270Y-59135844D01*
X123540837Y-59400787D01*
X123544442Y-59445053D01*
X123547484Y-59510767D01*
X123551979Y-59672818D01*
X123555329Y-59883384D01*
X123601848Y-59941013D01*
X123650966Y-60005739D01*
X123679356Y-60044947D01*
X123709297Y-60087906D01*
X123740037Y-60134007D01*
X123770822Y-60182642D01*
X123800900Y-60233199D01*
X123829520Y-60285071D01*
X123855927Y-60337648D01*
X123868066Y-60364010D01*
X123879371Y-60390320D01*
X123889746Y-60416502D01*
X123899098Y-60442480D01*
X123907332Y-60468176D01*
X123914355Y-60493516D01*
X123943284Y-60613434D01*
X123977419Y-60767601D01*
X124014397Y-60949273D01*
X124051857Y-61151703D01*
X124087437Y-61368145D01*
X124118773Y-61591852D01*
X124143503Y-61816079D01*
X124152653Y-61926279D01*
X124159265Y-62034079D01*
X124166916Y-62216797D01*
X124172673Y-62423217D01*
X124175512Y-62642455D01*
X124174405Y-62863628D01*
X124168327Y-63075852D01*
X124156251Y-63268245D01*
X124147643Y-63353603D01*
X124137151Y-63429922D01*
X124124646Y-63495841D01*
X124110000Y-63550000D01*
X124501299Y-64002168D01*
X124502756Y-64003594D01*
X124504461Y-64005071D01*
X124506710Y-64006787D01*
X124509427Y-64008536D01*
X124510936Y-64009359D01*
X124512532Y-64010115D01*
X124514206Y-64010777D01*
X124515947Y-64011321D01*
X124517747Y-64011720D01*
X124519594Y-64011949D01*
X124521480Y-64011983D01*
X124523394Y-64011796D01*
X124525326Y-64011363D01*
X124527267Y-64010658D01*
X124529208Y-64009656D01*
X124531137Y-64008332D01*
X124533046Y-64006659D01*
X124534924Y-64004613D01*
X124536762Y-64002168D01*
X124538550Y-63999298D01*
X124540278Y-63995978D01*
X124541936Y-63992183D01*
X124543515Y-63987887D01*
X124545004Y-63983064D01*
X124546394Y-63977689D01*
X124547675Y-63971738D01*
X124553224Y-63946432D01*
X124559742Y-63921194D01*
X124566701Y-63897043D01*
X124573576Y-63874998D01*
X124584966Y-63841301D01*
X124589699Y-63828257D01*
X124609582Y-63955283D01*
X124627302Y-64105340D01*
X124636026Y-64199460D01*
X124643868Y-64305337D01*
X124650231Y-64422245D01*
X124654523Y-64549457D01*
X124656148Y-64686245D01*
X124654512Y-64831882D01*
X124649020Y-64985641D01*
X124639079Y-65146796D01*
X124624093Y-65314618D01*
X124603469Y-65488381D01*
X124557815Y-65310840D01*
X123807101Y-64732592D01*
X123805904Y-64732091D01*
X123804513Y-64731589D01*
X123802686Y-64731030D01*
X123800494Y-64730496D01*
X123798008Y-64730071D01*
X123796676Y-64729925D01*
X123795296Y-64729837D01*
X123793878Y-64729817D01*
X123792429Y-64729876D01*
X123790960Y-64730024D01*
X123789477Y-64730272D01*
X123787992Y-64730630D01*
X123786511Y-64731108D01*
X123785044Y-64731716D01*
X123783599Y-64732465D01*
X123782186Y-64733366D01*
X123780813Y-64734428D01*
X123779488Y-64735662D01*
X123778221Y-64737078D01*
X123777021Y-64738687D01*
X123775895Y-64740499D01*
X123774854Y-64742524D01*
X123773905Y-64744773D01*
X123773057Y-64747256D01*
X123772319Y-64749983D01*
X123762686Y-64775969D01*
X123740677Y-64826616D01*
X123708470Y-64895198D01*
X123668242Y-64974988D01*
X123645802Y-65016985D01*
X123622173Y-65059261D01*
X123597628Y-65100977D01*
X123572439Y-65141292D01*
X123546878Y-65179365D01*
X123521218Y-65214355D01*
X123495731Y-65245422D01*
X123470689Y-65271724D01*
X123477384Y-58931061D01*
X123478940Y-58932181D01*
G37*
X123424665Y-65271724D02*
X123412249Y-65259221D01*
X123399750Y-65245422D01*
X123374620Y-65214355D01*
X123349515Y-65179365D01*
X123324672Y-65141292D01*
X123300333Y-65100977D01*
X123276736Y-65059261D01*
X123254121Y-65016985D01*
X123232726Y-64974988D01*
X123194558Y-64895198D01*
X123164148Y-64826616D01*
X123143409Y-64775969D01*
X123134258Y-64749983D01*
X123133520Y-64747256D01*
X123132672Y-64744773D01*
X123131723Y-64742524D01*
X123130681Y-64740499D01*
X123129556Y-64738687D01*
X123128355Y-64737078D01*
X123127089Y-64735662D01*
X123125764Y-64734428D01*
X123124391Y-64733366D01*
X123122978Y-64732465D01*
X123121533Y-64731716D01*
X123120066Y-64731108D01*
X123118585Y-64730630D01*
X123117099Y-64730272D01*
X123115617Y-64730024D01*
X123114148Y-64729876D01*
X123112699Y-64729817D01*
X123111281Y-64729837D01*
X123109901Y-64729925D01*
X123108569Y-64730071D01*
X123106082Y-64730496D01*
X123103891Y-64731030D01*
X123102064Y-64731589D01*
X123100673Y-64732091D01*
X123099476Y-64732592D01*
X122348762Y-65310840D01*
X122303108Y-65488381D01*
X122282483Y-65314618D01*
X122267498Y-65146796D01*
X122257557Y-64985641D01*
X122252065Y-64831882D01*
X122250429Y-64686245D01*
X122252054Y-64549457D01*
X122256346Y-64422245D01*
X122262709Y-64305337D01*
X122270550Y-64199460D01*
X122279275Y-64105340D01*
X122296995Y-63955283D01*
X122316878Y-63828257D01*
X122321612Y-63841301D01*
X122333005Y-63874998D01*
X122339882Y-63897043D01*
X122346843Y-63921194D01*
X122353361Y-63946432D01*
X122358911Y-63971738D01*
X122360192Y-63977689D01*
X122361582Y-63983064D01*
X122363071Y-63987887D01*
X122364650Y-63992183D01*
X122366308Y-63995978D01*
X122368036Y-63999298D01*
X122369824Y-64002168D01*
X122371662Y-64004613D01*
X122373540Y-64006659D01*
X122375449Y-64008332D01*
X122377378Y-64009656D01*
X122379319Y-64010658D01*
X122381260Y-64011363D01*
X122383193Y-64011796D01*
X122385107Y-64011983D01*
X122386992Y-64011949D01*
X122388839Y-64011720D01*
X122390639Y-64011321D01*
X122392380Y-64010777D01*
X122394054Y-64010115D01*
X122395650Y-64009359D01*
X122397159Y-64008536D01*
X122399876Y-64006787D01*
X122402125Y-64005071D01*
X122403830Y-64003594D01*
X122405287Y-64002168D01*
X122796586Y-63550000D01*
X122781940Y-63495841D01*
X122769435Y-63429922D01*
X122758942Y-63353603D01*
X122750334Y-63268245D01*
X122738256Y-63075852D01*
X122732176Y-62863628D01*
X122731068Y-62642455D01*
X122733905Y-62423217D01*
X122739662Y-62216797D01*
X122747311Y-62034079D01*
X122753925Y-61926279D01*
X122763076Y-61816079D01*
X122787808Y-61591852D01*
X122819145Y-61368145D01*
X122854724Y-61151703D01*
X122892184Y-60949273D01*
X122929164Y-60767601D01*
X122963300Y-60613434D01*
X122992231Y-60493516D01*
X122999256Y-60468176D01*
X123007497Y-60442480D01*
X123016861Y-60416502D01*
X123027252Y-60390320D01*
X123038576Y-60364010D01*
X123050739Y-60337648D01*
X123077203Y-60285071D01*
X123105890Y-60233199D01*
X123136045Y-60182642D01*
X123166911Y-60134007D01*
X123197735Y-60087906D01*
X123227760Y-60044947D01*
X123256232Y-60005739D01*
X123305495Y-59941013D01*
X123352156Y-59883384D01*
X123355478Y-59672815D01*
X123359969Y-59510763D01*
X123363021Y-59445051D01*
X123366648Y-59400787D01*
X123395690Y-59135702D01*
X123404957Y-59058435D01*
X123413950Y-58993123D01*
X123418175Y-58967504D01*
X123422131Y-58947939D01*
X123425749Y-58935451D01*
X123427410Y-58932180D01*
X123428962Y-58931061D01*
X123424665Y-65271724D01*
G36*
X123424665Y-65271724D02*
G01*
X123412249Y-65259221D01*
X123399750Y-65245422D01*
X123374620Y-65214355D01*
X123349515Y-65179365D01*
X123324672Y-65141292D01*
X123300333Y-65100977D01*
X123276736Y-65059261D01*
X123254121Y-65016985D01*
X123232726Y-64974988D01*
X123194558Y-64895198D01*
X123164148Y-64826616D01*
X123143409Y-64775969D01*
X123134258Y-64749983D01*
X123133520Y-64747256D01*
X123132672Y-64744773D01*
X123131723Y-64742524D01*
X123130681Y-64740499D01*
X123129556Y-64738687D01*
X123128355Y-64737078D01*
X123127089Y-64735662D01*
X123125764Y-64734428D01*
X123124391Y-64733366D01*
X123122978Y-64732465D01*
X123121533Y-64731716D01*
X123120066Y-64731108D01*
X123118585Y-64730630D01*
X123117099Y-64730272D01*
X123115617Y-64730024D01*
X123114148Y-64729876D01*
X123112699Y-64729817D01*
X123111281Y-64729837D01*
X123109901Y-64729925D01*
X123108569Y-64730071D01*
X123106082Y-64730496D01*
X123103891Y-64731030D01*
X123102064Y-64731589D01*
X123100673Y-64732091D01*
X123099476Y-64732592D01*
X122348762Y-65310840D01*
X122303108Y-65488381D01*
X122282483Y-65314618D01*
X122267498Y-65146796D01*
X122257557Y-64985641D01*
X122252065Y-64831882D01*
X122250429Y-64686245D01*
X122252054Y-64549457D01*
X122256346Y-64422245D01*
X122262709Y-64305337D01*
X122270550Y-64199460D01*
X122279275Y-64105340D01*
X122296995Y-63955283D01*
X122316878Y-63828257D01*
X122321612Y-63841301D01*
X122333005Y-63874998D01*
X122339882Y-63897043D01*
X122346843Y-63921194D01*
X122353361Y-63946432D01*
X122358911Y-63971738D01*
X122360192Y-63977689D01*
X122361582Y-63983064D01*
X122363071Y-63987887D01*
X122364650Y-63992183D01*
X122366308Y-63995978D01*
X122368036Y-63999298D01*
X122369824Y-64002168D01*
X122371662Y-64004613D01*
X122373540Y-64006659D01*
X122375449Y-64008332D01*
X122377378Y-64009656D01*
X122379319Y-64010658D01*
X122381260Y-64011363D01*
X122383193Y-64011796D01*
X122385107Y-64011983D01*
X122386992Y-64011949D01*
X122388839Y-64011720D01*
X122390639Y-64011321D01*
X122392380Y-64010777D01*
X122394054Y-64010115D01*
X122395650Y-64009359D01*
X122397159Y-64008536D01*
X122399876Y-64006787D01*
X122402125Y-64005071D01*
X122403830Y-64003594D01*
X122405287Y-64002168D01*
X122796586Y-63550000D01*
X122781940Y-63495841D01*
X122769435Y-63429922D01*
X122758942Y-63353603D01*
X122750334Y-63268245D01*
X122738256Y-63075852D01*
X122732176Y-62863628D01*
X122731068Y-62642455D01*
X122733905Y-62423217D01*
X122739662Y-62216797D01*
X122747311Y-62034079D01*
X122753925Y-61926279D01*
X122763076Y-61816079D01*
X122787808Y-61591852D01*
X122819145Y-61368145D01*
X122854724Y-61151703D01*
X122892184Y-60949273D01*
X122929164Y-60767601D01*
X122963300Y-60613434D01*
X122992231Y-60493516D01*
X122999256Y-60468176D01*
X123007497Y-60442480D01*
X123016861Y-60416502D01*
X123027252Y-60390320D01*
X123038576Y-60364010D01*
X123050739Y-60337648D01*
X123077203Y-60285071D01*
X123105890Y-60233199D01*
X123136045Y-60182642D01*
X123166911Y-60134007D01*
X123197735Y-60087906D01*
X123227760Y-60044947D01*
X123256232Y-60005739D01*
X123305495Y-59941013D01*
X123352156Y-59883384D01*
X123355478Y-59672815D01*
X123359969Y-59510763D01*
X123363021Y-59445051D01*
X123366648Y-59400787D01*
X123395690Y-59135702D01*
X123404957Y-59058435D01*
X123413950Y-58993123D01*
X123418175Y-58967504D01*
X123422131Y-58947939D01*
X123425749Y-58935451D01*
X123427410Y-58932180D01*
X123428962Y-58931061D01*
X123424665Y-65271724D01*
G37*
D10*
X123458289Y-64785997D02*
X123471390Y-64785957D01*
X123484481Y-64785837D01*
X123497563Y-64785638D01*
X123510635Y-64785358D01*
X123523696Y-64784999D01*
X123536748Y-64784560D01*
X123549789Y-64784042D01*
X123562819Y-64783444D01*
X123575838Y-64782766D01*
X123588846Y-64782009D01*
X123601842Y-64781173D01*
X123614826Y-64780257D01*
X123627799Y-64779262D01*
X123640759Y-64778188D01*
X123653706Y-64777035D01*
X123666641Y-64775803D01*
X123679562Y-64774491D01*
X123692470Y-64773101D01*
X123705364Y-64771632D01*
X123718245Y-64770084D01*
X123731111Y-64768457D01*
X123743962Y-64766751D01*
X123756799Y-64764967D01*
X123769621Y-64763104D01*
X123782427Y-64761162D01*
X123795217Y-64759143D01*
X123807992Y-64757044D01*
X123820750Y-64754868D01*
X123833491Y-64752613D01*
X123846216Y-64750280D01*
X123858923Y-64747869D01*
X123871613Y-64745380D01*
X123884285Y-64742813D01*
X123896938Y-64740168D01*
X123909573Y-64737445D01*
X123922190Y-64734645D01*
X123934787Y-64731766D01*
X123947364Y-64728811D01*
X123959922Y-64725778D01*
X123972459Y-64722667D01*
X123984976Y-64719480D01*
X123997472Y-64716215D01*
X124009947Y-64712873D01*
X124022400Y-64709454D01*
X124034832Y-64705958D01*
X124047241Y-64702386D01*
X124059627Y-64698737D01*
X124071990Y-64695011D01*
X124084330Y-64691209D01*
X124096646Y-64687330D01*
X124108939Y-64683375D01*
X124121206Y-64679345D01*
X124133449Y-64675238D01*
X124145666Y-64671055D01*
X124157858Y-64666797D01*
X124170024Y-64662463D01*
X124182164Y-64658053D01*
X124194276Y-64653568D01*
X124206362Y-64649008D01*
X124218420Y-64644373D01*
X124230450Y-64639663D01*
X124242451Y-64634879D01*
X124254424Y-64630019D01*
X124266368Y-64625085D01*
X124278282Y-64620077D01*
X124290167Y-64614995D01*
X124302020Y-64609839D01*
X124313843Y-64604609D01*
X124325635Y-64599305D01*
X124337396Y-64593928D01*
X124349124Y-64588478D01*
X124360820Y-64582954D01*
X124372483Y-64577358D01*
X124384112Y-64571689D01*
X124395708Y-64565947D01*
X124407270Y-64560133D01*
X124418797Y-64554247D01*
X124430290Y-64548289D01*
X124441746Y-64542260D01*
X124453167Y-64536158D01*
X124464552Y-64529986D01*
X124475900Y-64523742D01*
X124487211Y-64517428D01*
X124498485Y-64511043D01*
X124509720Y-64504588D01*
X124520917Y-64498062D01*
X124532075Y-64491467D01*
X124543194Y-64484802D01*
X124554273Y-64478067D01*
X124565312Y-64471263D01*
X124576310Y-64464391D01*
X124587267Y-64457450D01*
X124598183Y-64450440D01*
X124609057Y-64443362D01*
X124619888Y-64436217D01*
X124630677Y-64429004D01*
X124641422Y-64421723D01*
X124652123Y-64414376D01*
X124662781Y-64406962D01*
X124673394Y-64399481D01*
X124683962Y-64391935D01*
X124694484Y-64384322D01*
X124704961Y-64376644D01*
X124715391Y-64368901D01*
X124725775Y-64361093D01*
X124736111Y-64353220D01*
X124746400Y-64345283D01*
X124756640Y-64337282D01*
X124766832Y-64329217D01*
X124776976Y-64321089D01*
X124787070Y-64312899D01*
X124797114Y-64304645D01*
X124807108Y-64296329D01*
X124817051Y-64287952D01*
X124826943Y-64279512D01*
X124836784Y-64271012D01*
X124846573Y-64262451D01*
X124856310Y-64253829D01*
X124865994Y-64245147D01*
X124875624Y-64236405D01*
X124885202Y-64227603D01*
X124894725Y-64218743D01*
X124904194Y-64209824D01*
X124913608Y-64200847D01*
X124922967Y-64191812D01*
X124932270Y-64182719D01*
X124941518Y-64173569D01*
X124950709Y-64164362D01*
X124955283Y-64159738D01*
X124959843Y-64155099D01*
X124964388Y-64150447D01*
X124968920Y-64145780D01*
X124973437Y-64141100D01*
X124977939Y-64136405D01*
X124982427Y-64131697D01*
X124986901Y-64126976D01*
X124991360Y-64122240D01*
X124995804Y-64117491D01*
X125000234Y-64112728D01*
X125004649Y-64107952D01*
X125009049Y-64103162D01*
X125013435Y-64098359D01*
X125017805Y-64093543D01*
X125022161Y-64088713D01*
X125026501Y-64083870D01*
X125030827Y-64079013D01*
X125035137Y-64074143D01*
X125039433Y-64069261D01*
X125043713Y-64064365D01*
X125047979Y-64059456D01*
X125052229Y-64054534D01*
X125056463Y-64049599D01*
X125060683Y-64044652D01*
X125064887Y-64039691D01*
X125069075Y-64034718D01*
X125073249Y-64029732D01*
X125077406Y-64024734D01*
X125081549Y-64019722D01*
X125085675Y-64014699D01*
X125089786Y-64009662D01*
X125093881Y-64004614D01*
X125097961Y-63999553D01*
X125102025Y-63994480D01*
X125106073Y-63989394D01*
X125110105Y-63984296D01*
X125114122Y-63979186D01*
X125118122Y-63974064D01*
X125122107Y-63968929D01*
X125126075Y-63963783D01*
X125130028Y-63958624D01*
X125133964Y-63953455D01*
X125137884Y-63948272D01*
X125141788Y-63943079D01*
X125145676Y-63937873D01*
X125149548Y-63932656D01*
X125153403Y-63927427D01*
X125157242Y-63922186D01*
X125161065Y-63916934D01*
X125164871Y-63911671D01*
X125168662Y-63906396D01*
X125172435Y-63901110D01*
X125176192Y-63895812D01*
X125179932Y-63890503D01*
X125183656Y-63885183D01*
X125187363Y-63879852D01*
X125191054Y-63874509D01*
X125194727Y-63869156D01*
X125198385Y-63863792D01*
X125202025Y-63858417D01*
X125205649Y-63853030D01*
X125209255Y-63847634D01*
X125212845Y-63842226D01*
X125216418Y-63836808D01*
X125219974Y-63831378D01*
X125223513Y-63825939D01*
X125227036Y-63820488D01*
X125230540Y-63815028D01*
X125234028Y-63809556D01*
X125237499Y-63804075D01*
X125240953Y-63798583D01*
X125244389Y-63793082D01*
X125247809Y-63787569D01*
X125251210Y-63782047D01*
X125254595Y-63776514D01*
X125257963Y-63770972D01*
X125261313Y-63765418D01*
X125264645Y-63759857D01*
X125267961Y-63754283D01*
X125271259Y-63748702D01*
X125274539Y-63743109D01*
X125277802Y-63737508D01*
X125281048Y-63731896D01*
X125284275Y-63726276D01*
X125287486Y-63720644D01*
X125290678Y-63715005D01*
X125293854Y-63709355D01*
X125297011Y-63703696D01*
X125300151Y-63698028D01*
X125303272Y-63692351D01*
X125306377Y-63686663D01*
X125309463Y-63680968D01*
X125312532Y-63675262D01*
X125315582Y-63669549D01*
X125318615Y-63663825D01*
X125321630Y-63658093D01*
X125324627Y-63652352D01*
X125327606Y-63646602D01*
X125330567Y-63640843D01*
X125333510Y-63635076D01*
X125336435Y-63629299D01*
X125339342Y-63623515D01*
X125342231Y-63617721D01*
X125345102Y-63611920D01*
X125347955Y-63606109D01*
X125350789Y-63600291D01*
X125353606Y-63594463D01*
X125356403Y-63588628D01*
X125359184Y-63582784D01*
X125361945Y-63576933D01*
X125364689Y-63571072D01*
X125367414Y-63565204D01*
X125370121Y-63559327D01*
X125372809Y-63553444D01*
X125375479Y-63547550D01*
X125378130Y-63541651D01*
X125380764Y-63535742D01*
X125383379Y-63529827D01*
X125385975Y-63523903D01*
X125388553Y-63517973D01*
X125391113Y-63512033D01*
X125393653Y-63506087D01*
X125396176Y-63500132D01*
X125398679Y-63494172D01*
X125401165Y-63488202D01*
X125403631Y-63482226D01*
X125406079Y-63476242D01*
X125408508Y-63470252D01*
X125410919Y-63464253D01*
X125413311Y-63458248D01*
X125415685Y-63452235D01*
X125418039Y-63446216D01*
X125420375Y-63440188D01*
X125422692Y-63434156D01*
X125424990Y-63428114D01*
X125427270Y-63422068D01*
X125429531Y-63416012D01*
X125431772Y-63409952D01*
X125433996Y-63403884D01*
X125436199Y-63397810D01*
X125438385Y-63391728D01*
X125440551Y-63385641D01*
X125442699Y-63379546D01*
X125444827Y-63373446D01*
X125446937Y-63367338D01*
X125449027Y-63361225D01*
X125451099Y-63355104D01*
X125453152Y-63348979D01*
X125455186Y-63342845D01*
X125457200Y-63336708D01*
X125459196Y-63330562D01*
X125461172Y-63324412D01*
X125463130Y-63318254D01*
X125465068Y-63312092D01*
X125466987Y-63305921D01*
X125468887Y-63299747D01*
X125470769Y-63293565D01*
X125472630Y-63287380D01*
X125474473Y-63281186D01*
X125476296Y-63274989D01*
X125478101Y-63268784D01*
X125479886Y-63262575D01*
X125481652Y-63256359D01*
X125483399Y-63250139D01*
X125485126Y-63243912D01*
X125486834Y-63237681D01*
X125488524Y-63231443D01*
X125490193Y-63225201D01*
X125491844Y-63218952D01*
X125493474Y-63212700D01*
X125495087Y-63206441D01*
X125496679Y-63200178D01*
X125498252Y-63193908D01*
X125499806Y-63187635D01*
X125501340Y-63181355D01*
X125502855Y-63175072D01*
X125504351Y-63168782D01*
X125505827Y-63162489D01*
X125507284Y-63156189D01*
X125508721Y-63149886D01*
X125510139Y-63143576D01*
X125511538Y-63137264D01*
X125512917Y-63130945D01*
X125514277Y-63124623D01*
X125515617Y-63118294D01*
X125516937Y-63111963D01*
X125518239Y-63105625D01*
X125519520Y-63099285D01*
X125520783Y-63092938D01*
X125522025Y-63086589D01*
X125523249Y-63080233D01*
X125524452Y-63073875D01*
X125525636Y-63067511D01*
X125526800Y-63061144D01*
X125527946Y-63054771D01*
X125529071Y-63048396D01*
X125530177Y-63042015D01*
X125531263Y-63035631D01*
X125532329Y-63029242D01*
X125533376Y-63022850D01*
X125534404Y-63016452D01*
X125535411Y-63010053D01*
X125536399Y-63003647D01*
X125537367Y-62997240D01*
X125538316Y-62990826D01*
X125539245Y-62984411D01*
X125540155Y-62977990D01*
X125541044Y-62971567D01*
X125541915Y-62965139D01*
X125542765Y-62958709D01*
X125543595Y-62952273D01*
X125544406Y-62945835D01*
X125545197Y-62939392D01*
X125545969Y-62932948D01*
X125546721Y-62926497D01*
X125547452Y-62920046D01*
X125548165Y-62913589D01*
X125548857Y-62907131D01*
X125549530Y-62900667D01*
X125550183Y-62894202D01*
X125550816Y-62887731D01*
X125551429Y-62881260D01*
X125552023Y-62874782D01*
X125552596Y-62868304D01*
X125553150Y-62861821D01*
X125553684Y-62855337D01*
X125554198Y-62848847D01*
X125554693Y-62842357D01*
X125555167Y-62835861D01*
X125555622Y-62829365D01*
X125556057Y-62822863D01*
X125556472Y-62816360D01*
X125556867Y-62809853D01*
X125557242Y-62803345D01*
X125557597Y-62796832D01*
X125557933Y-62790318D01*
X125558248Y-62783799D01*
X125558544Y-62777280D01*
X125558820Y-62770755D01*
X125559075Y-62764231D01*
X125559311Y-62757701D01*
X125559527Y-62751171D01*
X125559723Y-62744637D01*
X125559899Y-62738102D01*
X125560055Y-62731562D01*
X125560191Y-62725022D01*
X125560307Y-62718477D01*
X125560403Y-62711932D01*
X125560480Y-62705382D01*
X125560536Y-62698833D01*
X125560572Y-62692278D01*
X125560589Y-62683706D01*
X121334774Y-62683706D02*
X121334814Y-62670605D01*
X121334934Y-62657514D01*
X121335133Y-62644433D01*
X121335413Y-62631361D01*
X121335772Y-62618299D01*
X121336211Y-62605248D01*
X121336729Y-62592207D01*
X121337327Y-62579177D01*
X121338005Y-62566158D01*
X121338762Y-62553151D01*
X121339598Y-62540155D01*
X121340514Y-62527170D01*
X121341509Y-62514198D01*
X121342583Y-62501238D01*
X121343736Y-62488291D01*
X121344968Y-62475356D01*
X121346280Y-62462435D01*
X121347670Y-62449527D01*
X121349139Y-62436633D01*
X121350687Y-62423753D01*
X121352314Y-62410887D01*
X121354020Y-62398035D01*
X121355804Y-62385199D01*
X121357667Y-62372377D01*
X121359609Y-62359571D01*
X121361628Y-62346781D01*
X121363727Y-62334007D01*
X121365903Y-62321249D01*
X121368158Y-62308507D01*
X121370491Y-62295783D01*
X121372902Y-62283076D01*
X121375391Y-62270386D01*
X121377958Y-62257714D01*
X121380603Y-62245061D01*
X121383326Y-62232426D01*
X121386127Y-62219810D01*
X121389005Y-62207213D01*
X121391960Y-62194635D01*
X121394993Y-62182078D01*
X121398104Y-62169541D01*
X121401291Y-62157024D01*
X121404556Y-62144528D01*
X121407898Y-62132053D01*
X121411317Y-62119600D01*
X121414813Y-62107169D01*
X121418385Y-62094760D01*
X121422034Y-62082374D01*
X121425760Y-62070010D01*
X121429562Y-62057670D01*
X121433441Y-62045354D01*
X121437396Y-62033062D01*
X121441427Y-62020795D01*
X121445533Y-62008552D01*
X121449716Y-61996335D01*
X121453975Y-61984143D01*
X121458309Y-61971977D01*
X121462718Y-61959838D01*
X121467203Y-61947725D01*
X121471763Y-61935640D01*
X121476398Y-61923582D01*
X121481108Y-61911552D01*
X121485893Y-61899550D01*
X121490752Y-61887577D01*
X121495686Y-61875634D01*
X121500694Y-61863720D01*
X121505776Y-61851836D01*
X121510932Y-61839982D01*
X121516162Y-61828159D01*
X121521466Y-61816367D01*
X121526843Y-61804607D01*
X121532294Y-61792879D01*
X121537817Y-61781183D01*
X121543413Y-61769520D01*
X121549082Y-61757890D01*
X121554824Y-61746295D01*
X121560638Y-61734733D01*
X121566524Y-61723206D01*
X121572482Y-61711713D01*
X121578512Y-61700257D01*
X121584613Y-61688836D01*
X121590785Y-61677451D01*
X121597029Y-61666103D01*
X121603343Y-61654792D01*
X121609728Y-61643519D01*
X121616184Y-61632283D01*
X121622709Y-61621087D01*
X121629305Y-61609929D01*
X121635970Y-61598810D01*
X121642704Y-61587731D01*
X121649508Y-61576692D01*
X121656381Y-61565694D01*
X121663322Y-61554737D01*
X121670332Y-61543821D01*
X121677409Y-61532948D01*
X121684555Y-61522116D01*
X121691768Y-61511328D01*
X121699048Y-61500583D01*
X121706396Y-61489881D01*
X121713810Y-61479224D01*
X121721291Y-61468611D01*
X121728837Y-61458043D01*
X121736450Y-61447521D01*
X121744128Y-61437044D01*
X121751871Y-61426614D01*
X121759679Y-61416230D01*
X121767552Y-61405894D01*
X121775489Y-61395605D01*
X121783490Y-61385365D01*
X121791555Y-61375173D01*
X121799683Y-61365030D01*
X121807873Y-61354936D01*
X121816127Y-61344892D01*
X121824443Y-61334898D01*
X121832820Y-61324955D01*
X121841260Y-61315062D01*
X121849760Y-61305222D01*
X121858321Y-61295433D01*
X121866943Y-61285696D01*
X121875625Y-61276012D01*
X121884367Y-61266382D01*
X121893169Y-61256804D01*
X121902029Y-61247281D01*
X121910948Y-61237812D01*
X121919925Y-61228398D01*
X121928961Y-61219040D01*
X121938053Y-61209736D01*
X121947203Y-61200489D01*
X121956410Y-61191298D01*
X121961035Y-61186724D01*
X121965673Y-61182164D01*
X121970326Y-61177618D01*
X121974992Y-61173087D01*
X121979673Y-61168570D01*
X121984367Y-61164067D01*
X121989075Y-61159579D01*
X121993797Y-61155106D01*
X121998532Y-61150647D01*
X122003281Y-61146203D01*
X122008044Y-61141773D01*
X122012820Y-61137358D01*
X122017610Y-61132958D01*
X122022413Y-61128572D01*
X122027230Y-61124202D01*
X122032060Y-61119846D01*
X122036903Y-61115506D01*
X122041759Y-61111180D01*
X122046629Y-61106870D01*
X122051512Y-61102574D01*
X122056408Y-61098294D01*
X122061317Y-61094029D01*
X122066238Y-61089779D01*
X122071173Y-61085544D01*
X122076121Y-61081325D01*
X122081081Y-61077121D01*
X122086054Y-61072932D01*
X122091040Y-61068759D01*
X122096039Y-61064601D01*
X122101050Y-61060459D01*
X122106074Y-61056333D01*
X122111110Y-61052221D01*
X122116159Y-61048126D01*
X122121220Y-61044047D01*
X122126293Y-61039983D01*
X122131379Y-61035935D01*
X122136477Y-61031903D01*
X122141587Y-61027886D01*
X122146709Y-61023886D01*
X122151844Y-61019901D01*
X122156990Y-61015933D01*
X122162148Y-61011980D01*
X122167318Y-61008044D01*
X122172501Y-61004124D01*
X122177694Y-61000220D01*
X122182900Y-60996332D01*
X122188117Y-60992460D01*
X122193346Y-60988605D01*
X122198586Y-60984766D01*
X122203839Y-60980943D01*
X122209102Y-60977137D01*
X122214377Y-60973347D01*
X122219663Y-60969574D01*
X122224961Y-60965816D01*
X122230270Y-60962076D01*
X122235590Y-60958352D01*
X122240921Y-60954645D01*
X122246264Y-60950955D01*
X122251617Y-60947281D01*
X122256981Y-60943624D01*
X122262356Y-60939984D01*
X122267743Y-60936360D01*
X122273139Y-60932753D01*
X122278547Y-60929163D01*
X122283965Y-60925591D01*
X122289395Y-60922034D01*
X122294834Y-60918496D01*
X122300285Y-60914973D01*
X122305745Y-60911469D01*
X122311217Y-60907980D01*
X122316697Y-60904510D01*
X122322190Y-60901056D01*
X122327691Y-60897620D01*
X122333204Y-60894200D01*
X122338726Y-60890799D01*
X122344259Y-60887414D01*
X122349801Y-60884047D01*
X122355355Y-60880696D01*
X122360917Y-60877364D01*
X122366490Y-60874048D01*
X122372071Y-60870751D01*
X122377664Y-60867470D01*
X122383265Y-60864207D01*
X122388877Y-60860962D01*
X122394498Y-60857734D01*
X122400129Y-60854524D01*
X122405768Y-60851331D01*
X122411418Y-60848156D01*
X122417077Y-60844999D01*
X122422746Y-60841859D01*
X122428423Y-60838738D01*
X122434110Y-60835633D01*
X122439805Y-60832547D01*
X122445511Y-60829478D01*
X122451225Y-60826428D01*
X122456949Y-60823395D01*
X122462680Y-60820380D01*
X122468422Y-60817383D01*
X122474171Y-60814404D01*
X122479930Y-60811443D01*
X122485697Y-60808500D01*
X122491474Y-60805575D01*
X122497258Y-60802668D01*
X122503052Y-60799779D01*
X122508853Y-60796908D01*
X122514664Y-60794055D01*
X122520482Y-60791221D01*
X122526310Y-60788404D01*
X122532145Y-60785607D01*
X122537990Y-60782826D01*
X122543841Y-60780065D01*
X122549702Y-60777321D01*
X122555569Y-60774597D01*
X122561446Y-60771890D01*
X122567330Y-60769202D01*
X122573223Y-60766531D01*
X122579122Y-60763880D01*
X122585031Y-60761246D01*
X122590946Y-60758632D01*
X122596871Y-60756035D01*
X122602801Y-60753458D01*
X122608741Y-60750898D01*
X122614686Y-60748357D01*
X122620641Y-60745835D01*
X122626602Y-60743331D01*
X122632572Y-60740846D01*
X122638547Y-60738380D01*
X122644532Y-60735931D01*
X122650522Y-60733502D01*
X122656521Y-60731091D01*
X122662526Y-60728700D01*
X122668539Y-60726326D01*
X122674558Y-60723972D01*
X122680586Y-60721636D01*
X122686618Y-60719319D01*
X122692660Y-60717021D01*
X122698706Y-60714741D01*
X122704762Y-60712480D01*
X122710822Y-60710239D01*
X122716890Y-60708016D01*
X122722964Y-60705812D01*
X122729046Y-60703626D01*
X122735133Y-60701460D01*
X122741228Y-60699312D01*
X122747328Y-60697184D01*
X122753436Y-60695074D01*
X122759549Y-60692984D01*
X122765670Y-60690912D01*
X122771795Y-60688860D01*
X122777929Y-60686826D01*
X122784067Y-60684811D01*
X122790213Y-60682816D01*
X122796362Y-60680839D01*
X122802521Y-60678882D01*
X122808683Y-60676944D01*
X122814853Y-60675024D01*
X122821027Y-60673124D01*
X122827209Y-60671243D01*
X122833395Y-60669381D01*
X122839588Y-60667538D01*
X122845785Y-60665715D01*
X122851991Y-60663911D01*
X122858199Y-60662126D01*
X122864415Y-60660360D01*
X122870635Y-60658613D01*
X122876863Y-60656885D01*
X122883093Y-60655178D01*
X122889332Y-60653488D01*
X122895573Y-60651819D01*
X122901822Y-60650168D01*
X122908074Y-60648537D01*
X122914334Y-60646925D01*
X122920597Y-60645333D01*
X122926867Y-60643760D01*
X122933140Y-60642206D01*
X122939420Y-60640672D01*
X122945703Y-60639157D01*
X122951993Y-60637661D01*
X122958286Y-60636185D01*
X122964586Y-60634728D01*
X122970889Y-60633291D01*
X122977199Y-60631873D01*
X122983511Y-60630474D01*
X122989831Y-60629095D01*
X122996152Y-60627736D01*
X123002481Y-60626395D01*
X123008812Y-60625075D01*
X123015150Y-60623774D01*
X123021490Y-60622492D01*
X123027837Y-60621230D01*
X123034186Y-60619987D01*
X123040542Y-60618764D01*
X123046900Y-60617561D01*
X123053265Y-60616376D01*
X123059631Y-60615212D01*
X123066004Y-60614067D01*
X123072379Y-60612942D01*
X123078761Y-60611836D01*
X123085144Y-60610750D01*
X123091534Y-60609683D01*
X123097925Y-60608637D01*
X123104323Y-60607609D01*
X123110723Y-60606602D01*
X123117129Y-60605614D01*
X123123536Y-60604645D01*
X123129950Y-60603696D01*
X123136365Y-60602768D01*
X123142786Y-60601858D01*
X123149209Y-60600969D01*
X123155637Y-60600098D01*
X123162067Y-60599248D01*
X123168503Y-60598418D01*
X123174941Y-60597607D01*
X123181384Y-60596816D01*
X123187828Y-60596044D01*
X123194279Y-60595293D01*
X123200730Y-60594561D01*
X123207187Y-60593848D01*
X123213646Y-60593156D01*
X123220110Y-60592483D01*
X123226575Y-60591831D01*
X123233045Y-60591198D01*
X123239517Y-60590584D01*
X123245994Y-60589991D01*
X123252472Y-60589417D01*
X123258956Y-60588863D01*
X123265440Y-60588329D01*
X123271930Y-60587815D01*
X123278420Y-60587321D01*
X123284916Y-60586846D01*
X123291412Y-60586392D01*
X123297914Y-60585957D01*
X123304416Y-60585542D01*
X123310924Y-60585147D01*
X123317432Y-60584772D01*
X123323945Y-60584416D01*
X123330459Y-60584081D01*
X123336978Y-60583765D01*
X123343497Y-60583470D01*
X123350022Y-60583194D01*
X123356546Y-60582938D01*
X123363076Y-60582703D01*
X123369606Y-60582487D01*
X123376141Y-60582291D01*
X123382676Y-60582115D01*
X123389216Y-60581959D01*
X123395756Y-60581823D01*
X123402301Y-60581707D01*
X123408846Y-60581611D01*
X123415395Y-60581534D01*
X123421945Y-60581478D01*
X123428500Y-60581442D01*
X123437064Y-60581425D01*
D12*
G36*
X123502276Y-58927765D02*
G01*
X123452168Y-58967992D01*
X123451585Y-58802462D01*
X123502276Y-58927765D01*
G37*
G36*
X123453752Y-58964954D02*
G01*
X123426266Y-58921690D01*
X123451112Y-58803694D01*
X123453752Y-58964954D01*
G37*
G36*
X123453752Y-58961186D02*
G01*
X123402690Y-58931061D01*
X123451585Y-58802462D01*
X123453752Y-58961186D01*
G37*
D13*
X124459164Y-87561786D02*
X124102021Y-87811786D01*
X124459164Y-87990357D02*
X123709164Y-87990357D01*
X123709164Y-87990357D02*
X123709164Y-87704643D01*
X123709164Y-87704643D02*
X123744878Y-87633214D01*
X123744878Y-87633214D02*
X123780592Y-87597500D01*
X123780592Y-87597500D02*
X123852021Y-87561786D01*
X123852021Y-87561786D02*
X123959164Y-87561786D01*
X123959164Y-87561786D02*
X124030592Y-87597500D01*
X124030592Y-87597500D02*
X124066307Y-87633214D01*
X124066307Y-87633214D02*
X124102021Y-87704643D01*
X124102021Y-87704643D02*
X124102021Y-87990357D01*
X123709164Y-87311786D02*
X123709164Y-86847500D01*
X123709164Y-86847500D02*
X123994878Y-87097500D01*
X123994878Y-87097500D02*
X123994878Y-86990357D01*
X123994878Y-86990357D02*
X124030592Y-86918929D01*
X124030592Y-86918929D02*
X124066307Y-86883214D01*
X124066307Y-86883214D02*
X124137735Y-86847500D01*
X124137735Y-86847500D02*
X124316307Y-86847500D01*
X124316307Y-86847500D02*
X124387735Y-86883214D01*
X124387735Y-86883214D02*
X124423450Y-86918929D01*
X124423450Y-86918929D02*
X124459164Y-86990357D01*
X124459164Y-86990357D02*
X124459164Y-87204643D01*
X124459164Y-87204643D02*
X124423450Y-87276071D01*
X124423450Y-87276071D02*
X124387735Y-87311786D01*
X123709164Y-86383214D02*
X123709164Y-86311785D01*
X123709164Y-86311785D02*
X123744878Y-86240357D01*
X123744878Y-86240357D02*
X123780592Y-86204643D01*
X123780592Y-86204643D02*
X123852021Y-86168928D01*
X123852021Y-86168928D02*
X123994878Y-86133214D01*
X123994878Y-86133214D02*
X124173450Y-86133214D01*
X124173450Y-86133214D02*
X124316307Y-86168928D01*
X124316307Y-86168928D02*
X124387735Y-86204643D01*
X124387735Y-86204643D02*
X124423450Y-86240357D01*
X124423450Y-86240357D02*
X124459164Y-86311785D01*
X124459164Y-86311785D02*
X124459164Y-86383214D01*
X124459164Y-86383214D02*
X124423450Y-86454643D01*
X124423450Y-86454643D02*
X124387735Y-86490357D01*
X124387735Y-86490357D02*
X124316307Y-86526071D01*
X124316307Y-86526071D02*
X124173450Y-86561785D01*
X124173450Y-86561785D02*
X123994878Y-86561785D01*
X123994878Y-86561785D02*
X123852021Y-86526071D01*
X123852021Y-86526071D02*
X123780592Y-86490357D01*
X123780592Y-86490357D02*
X123744878Y-86454643D01*
X123744878Y-86454643D02*
X123709164Y-86383214D01*
X124459164Y-85418928D02*
X124459164Y-85847499D01*
X124459164Y-85633214D02*
X123709164Y-85633214D01*
X123709164Y-85633214D02*
X123816307Y-85704642D01*
X123816307Y-85704642D02*
X123887735Y-85776071D01*
X123887735Y-85776071D02*
X123923450Y-85847499D01*
X112374642Y-109719164D02*
X112374642Y-108969164D01*
X112374642Y-108969164D02*
X112553213Y-108969164D01*
X112553213Y-108969164D02*
X112660356Y-109004878D01*
X112660356Y-109004878D02*
X112731785Y-109076307D01*
X112731785Y-109076307D02*
X112767499Y-109147735D01*
X112767499Y-109147735D02*
X112803213Y-109290592D01*
X112803213Y-109290592D02*
X112803213Y-109397735D01*
X112803213Y-109397735D02*
X112767499Y-109540592D01*
X112767499Y-109540592D02*
X112731785Y-109612021D01*
X112731785Y-109612021D02*
X112660356Y-109683450D01*
X112660356Y-109683450D02*
X112553213Y-109719164D01*
X112553213Y-109719164D02*
X112374642Y-109719164D01*
X113088928Y-109040592D02*
X113124642Y-109004878D01*
X113124642Y-109004878D02*
X113196071Y-108969164D01*
X113196071Y-108969164D02*
X113374642Y-108969164D01*
X113374642Y-108969164D02*
X113446071Y-109004878D01*
X113446071Y-109004878D02*
X113481785Y-109040592D01*
X113481785Y-109040592D02*
X113517499Y-109112021D01*
X113517499Y-109112021D02*
X113517499Y-109183450D01*
X113517499Y-109183450D02*
X113481785Y-109290592D01*
X113481785Y-109290592D02*
X113053213Y-109719164D01*
X113053213Y-109719164D02*
X113517499Y-109719164D01*
X113981785Y-108969164D02*
X114053214Y-108969164D01*
X114053214Y-108969164D02*
X114124642Y-109004878D01*
X114124642Y-109004878D02*
X114160357Y-109040592D01*
X114160357Y-109040592D02*
X114196071Y-109112021D01*
X114196071Y-109112021D02*
X114231785Y-109254878D01*
X114231785Y-109254878D02*
X114231785Y-109433450D01*
X114231785Y-109433450D02*
X114196071Y-109576307D01*
X114196071Y-109576307D02*
X114160357Y-109647735D01*
X114160357Y-109647735D02*
X114124642Y-109683450D01*
X114124642Y-109683450D02*
X114053214Y-109719164D01*
X114053214Y-109719164D02*
X113981785Y-109719164D01*
X113981785Y-109719164D02*
X113910357Y-109683450D01*
X113910357Y-109683450D02*
X113874642Y-109647735D01*
X113874642Y-109647735D02*
X113838928Y-109576307D01*
X113838928Y-109576307D02*
X113803214Y-109433450D01*
X113803214Y-109433450D02*
X113803214Y-109254878D01*
X113803214Y-109254878D02*
X113838928Y-109112021D01*
X113838928Y-109112021D02*
X113874642Y-109040592D01*
X113874642Y-109040592D02*
X113910357Y-109004878D01*
X113910357Y-109004878D02*
X113981785Y-108969164D01*
X114946071Y-109719164D02*
X114517500Y-109719164D01*
X114731785Y-109719164D02*
X114731785Y-108969164D01*
X114731785Y-108969164D02*
X114660357Y-109076307D01*
X114660357Y-109076307D02*
X114588928Y-109147735D01*
X114588928Y-109147735D02*
X114517500Y-109183450D01*
X111149164Y-103799286D02*
X110792021Y-104049286D01*
X111149164Y-104227857D02*
X110399164Y-104227857D01*
X110399164Y-104227857D02*
X110399164Y-103942143D01*
X110399164Y-103942143D02*
X110434878Y-103870714D01*
X110434878Y-103870714D02*
X110470592Y-103835000D01*
X110470592Y-103835000D02*
X110542021Y-103799286D01*
X110542021Y-103799286D02*
X110649164Y-103799286D01*
X110649164Y-103799286D02*
X110720592Y-103835000D01*
X110720592Y-103835000D02*
X110756307Y-103870714D01*
X110756307Y-103870714D02*
X110792021Y-103942143D01*
X110792021Y-103942143D02*
X110792021Y-104227857D01*
X110399164Y-103549286D02*
X110399164Y-103049286D01*
X110399164Y-103049286D02*
X111149164Y-103370714D01*
X110399164Y-102620714D02*
X110399164Y-102549285D01*
X110399164Y-102549285D02*
X110434878Y-102477857D01*
X110434878Y-102477857D02*
X110470592Y-102442143D01*
X110470592Y-102442143D02*
X110542021Y-102406428D01*
X110542021Y-102406428D02*
X110684878Y-102370714D01*
X110684878Y-102370714D02*
X110863450Y-102370714D01*
X110863450Y-102370714D02*
X111006307Y-102406428D01*
X111006307Y-102406428D02*
X111077735Y-102442143D01*
X111077735Y-102442143D02*
X111113450Y-102477857D01*
X111113450Y-102477857D02*
X111149164Y-102549285D01*
X111149164Y-102549285D02*
X111149164Y-102620714D01*
X111149164Y-102620714D02*
X111113450Y-102692143D01*
X111113450Y-102692143D02*
X111077735Y-102727857D01*
X111077735Y-102727857D02*
X111006307Y-102763571D01*
X111006307Y-102763571D02*
X110863450Y-102799285D01*
X110863450Y-102799285D02*
X110684878Y-102799285D01*
X110684878Y-102799285D02*
X110542021Y-102763571D01*
X110542021Y-102763571D02*
X110470592Y-102727857D01*
X110470592Y-102727857D02*
X110434878Y-102692143D01*
X110434878Y-102692143D02*
X110399164Y-102620714D01*
X110399164Y-102120714D02*
X110399164Y-101620714D01*
X110399164Y-101620714D02*
X111149164Y-101942142D01*
X113917735Y-86659286D02*
X113953450Y-86695000D01*
X113953450Y-86695000D02*
X113989164Y-86802143D01*
X113989164Y-86802143D02*
X113989164Y-86873571D01*
X113989164Y-86873571D02*
X113953450Y-86980714D01*
X113953450Y-86980714D02*
X113882021Y-87052143D01*
X113882021Y-87052143D02*
X113810592Y-87087857D01*
X113810592Y-87087857D02*
X113667735Y-87123571D01*
X113667735Y-87123571D02*
X113560592Y-87123571D01*
X113560592Y-87123571D02*
X113417735Y-87087857D01*
X113417735Y-87087857D02*
X113346307Y-87052143D01*
X113346307Y-87052143D02*
X113274878Y-86980714D01*
X113274878Y-86980714D02*
X113239164Y-86873571D01*
X113239164Y-86873571D02*
X113239164Y-86802143D01*
X113239164Y-86802143D02*
X113274878Y-86695000D01*
X113274878Y-86695000D02*
X113310592Y-86659286D01*
X113489164Y-86016429D02*
X113989164Y-86016429D01*
X113203450Y-86195000D02*
X113739164Y-86373571D01*
X113739164Y-86373571D02*
X113739164Y-85909286D01*
X113239164Y-85480714D02*
X113239164Y-85409285D01*
X113239164Y-85409285D02*
X113274878Y-85337857D01*
X113274878Y-85337857D02*
X113310592Y-85302143D01*
X113310592Y-85302143D02*
X113382021Y-85266428D01*
X113382021Y-85266428D02*
X113524878Y-85230714D01*
X113524878Y-85230714D02*
X113703450Y-85230714D01*
X113703450Y-85230714D02*
X113846307Y-85266428D01*
X113846307Y-85266428D02*
X113917735Y-85302143D01*
X113917735Y-85302143D02*
X113953450Y-85337857D01*
X113953450Y-85337857D02*
X113989164Y-85409285D01*
X113989164Y-85409285D02*
X113989164Y-85480714D01*
X113989164Y-85480714D02*
X113953450Y-85552143D01*
X113953450Y-85552143D02*
X113917735Y-85587857D01*
X113917735Y-85587857D02*
X113846307Y-85623571D01*
X113846307Y-85623571D02*
X113703450Y-85659285D01*
X113703450Y-85659285D02*
X113524878Y-85659285D01*
X113524878Y-85659285D02*
X113382021Y-85623571D01*
X113382021Y-85623571D02*
X113310592Y-85587857D01*
X113310592Y-85587857D02*
X113274878Y-85552143D01*
X113274878Y-85552143D02*
X113239164Y-85480714D01*
X113310592Y-84944999D02*
X113274878Y-84909285D01*
X113274878Y-84909285D02*
X113239164Y-84837857D01*
X113239164Y-84837857D02*
X113239164Y-84659285D01*
X113239164Y-84659285D02*
X113274878Y-84587857D01*
X113274878Y-84587857D02*
X113310592Y-84552142D01*
X113310592Y-84552142D02*
X113382021Y-84516428D01*
X113382021Y-84516428D02*
X113453450Y-84516428D01*
X113453450Y-84516428D02*
X113560592Y-84552142D01*
X113560592Y-84552142D02*
X113989164Y-84980714D01*
X113989164Y-84980714D02*
X113989164Y-84516428D01*
X107559164Y-103049286D02*
X107202021Y-103299286D01*
X107559164Y-103477857D02*
X106809164Y-103477857D01*
X106809164Y-103477857D02*
X106809164Y-103192143D01*
X106809164Y-103192143D02*
X106844878Y-103120714D01*
X106844878Y-103120714D02*
X106880592Y-103085000D01*
X106880592Y-103085000D02*
X106952021Y-103049286D01*
X106952021Y-103049286D02*
X107059164Y-103049286D01*
X107059164Y-103049286D02*
X107130592Y-103085000D01*
X107130592Y-103085000D02*
X107166307Y-103120714D01*
X107166307Y-103120714D02*
X107202021Y-103192143D01*
X107202021Y-103192143D02*
X107202021Y-103477857D01*
X106809164Y-102799286D02*
X106809164Y-102299286D01*
X106809164Y-102299286D02*
X107559164Y-102620714D01*
X107559164Y-101620714D02*
X107559164Y-102049285D01*
X107559164Y-101835000D02*
X106809164Y-101835000D01*
X106809164Y-101835000D02*
X106916307Y-101906428D01*
X106916307Y-101906428D02*
X106987735Y-101977857D01*
X106987735Y-101977857D02*
X107023450Y-102049285D01*
X106809164Y-100977857D02*
X106809164Y-101120714D01*
X106809164Y-101120714D02*
X106844878Y-101192142D01*
X106844878Y-101192142D02*
X106880592Y-101227857D01*
X106880592Y-101227857D02*
X106987735Y-101299285D01*
X106987735Y-101299285D02*
X107130592Y-101334999D01*
X107130592Y-101334999D02*
X107416307Y-101334999D01*
X107416307Y-101334999D02*
X107487735Y-101299285D01*
X107487735Y-101299285D02*
X107523450Y-101263571D01*
X107523450Y-101263571D02*
X107559164Y-101192142D01*
X107559164Y-101192142D02*
X107559164Y-101049285D01*
X107559164Y-101049285D02*
X107523450Y-100977857D01*
X107523450Y-100977857D02*
X107487735Y-100942142D01*
X107487735Y-100942142D02*
X107416307Y-100906428D01*
X107416307Y-100906428D02*
X107237735Y-100906428D01*
X107237735Y-100906428D02*
X107166307Y-100942142D01*
X107166307Y-100942142D02*
X107130592Y-100977857D01*
X107130592Y-100977857D02*
X107094878Y-101049285D01*
X107094878Y-101049285D02*
X107094878Y-101192142D01*
X107094878Y-101192142D02*
X107130592Y-101263571D01*
X107130592Y-101263571D02*
X107166307Y-101299285D01*
X107166307Y-101299285D02*
X107237735Y-101334999D01*
X118369164Y-94975714D02*
X118976307Y-94975714D01*
X118976307Y-94975714D02*
X119047735Y-94940000D01*
X119047735Y-94940000D02*
X119083450Y-94904286D01*
X119083450Y-94904286D02*
X119119164Y-94832857D01*
X119119164Y-94832857D02*
X119119164Y-94690000D01*
X119119164Y-94690000D02*
X119083450Y-94618571D01*
X119083450Y-94618571D02*
X119047735Y-94582857D01*
X119047735Y-94582857D02*
X118976307Y-94547143D01*
X118976307Y-94547143D02*
X118369164Y-94547143D01*
X118369164Y-94261429D02*
X118369164Y-93761429D01*
X118369164Y-93761429D02*
X119119164Y-94082857D01*
X118369164Y-93332857D02*
X118369164Y-93261428D01*
X118369164Y-93261428D02*
X118404878Y-93190000D01*
X118404878Y-93190000D02*
X118440592Y-93154286D01*
X118440592Y-93154286D02*
X118512021Y-93118571D01*
X118512021Y-93118571D02*
X118654878Y-93082857D01*
X118654878Y-93082857D02*
X118833450Y-93082857D01*
X118833450Y-93082857D02*
X118976307Y-93118571D01*
X118976307Y-93118571D02*
X119047735Y-93154286D01*
X119047735Y-93154286D02*
X119083450Y-93190000D01*
X119083450Y-93190000D02*
X119119164Y-93261428D01*
X119119164Y-93261428D02*
X119119164Y-93332857D01*
X119119164Y-93332857D02*
X119083450Y-93404286D01*
X119083450Y-93404286D02*
X119047735Y-93440000D01*
X119047735Y-93440000D02*
X118976307Y-93475714D01*
X118976307Y-93475714D02*
X118833450Y-93511428D01*
X118833450Y-93511428D02*
X118654878Y-93511428D01*
X118654878Y-93511428D02*
X118512021Y-93475714D01*
X118512021Y-93475714D02*
X118440592Y-93440000D01*
X118440592Y-93440000D02*
X118404878Y-93404286D01*
X118404878Y-93404286D02*
X118369164Y-93332857D01*
X118440592Y-92797142D02*
X118404878Y-92761428D01*
X118404878Y-92761428D02*
X118369164Y-92690000D01*
X118369164Y-92690000D02*
X118369164Y-92511428D01*
X118369164Y-92511428D02*
X118404878Y-92440000D01*
X118404878Y-92440000D02*
X118440592Y-92404285D01*
X118440592Y-92404285D02*
X118512021Y-92368571D01*
X118512021Y-92368571D02*
X118583450Y-92368571D01*
X118583450Y-92368571D02*
X118690592Y-92404285D01*
X118690592Y-92404285D02*
X119119164Y-92832857D01*
X119119164Y-92832857D02*
X119119164Y-92368571D01*
X115304819Y-95559999D02*
X115542914Y-95559999D01*
X115447676Y-95798094D02*
X115542914Y-95559999D01*
X115542914Y-95559999D02*
X115447676Y-95321904D01*
X115733390Y-95702856D02*
X115542914Y-95559999D01*
X115542914Y-95559999D02*
X115733390Y-95417142D01*
X119279164Y-97169286D02*
X118922021Y-97419286D01*
X119279164Y-97597857D02*
X118529164Y-97597857D01*
X118529164Y-97597857D02*
X118529164Y-97312143D01*
X118529164Y-97312143D02*
X118564878Y-97240714D01*
X118564878Y-97240714D02*
X118600592Y-97205000D01*
X118600592Y-97205000D02*
X118672021Y-97169286D01*
X118672021Y-97169286D02*
X118779164Y-97169286D01*
X118779164Y-97169286D02*
X118850592Y-97205000D01*
X118850592Y-97205000D02*
X118886307Y-97240714D01*
X118886307Y-97240714D02*
X118922021Y-97312143D01*
X118922021Y-97312143D02*
X118922021Y-97597857D01*
X118529164Y-96919286D02*
X118529164Y-96419286D01*
X118529164Y-96419286D02*
X119279164Y-96740714D01*
X119279164Y-95740714D02*
X119279164Y-96169285D01*
X119279164Y-95955000D02*
X118529164Y-95955000D01*
X118529164Y-95955000D02*
X118636307Y-96026428D01*
X118636307Y-96026428D02*
X118707735Y-96097857D01*
X118707735Y-96097857D02*
X118743450Y-96169285D01*
X119279164Y-95026428D02*
X119279164Y-95454999D01*
X119279164Y-95240714D02*
X118529164Y-95240714D01*
X118529164Y-95240714D02*
X118636307Y-95312142D01*
X118636307Y-95312142D02*
X118707735Y-95383571D01*
X118707735Y-95383571D02*
X118743450Y-95454999D01*
X121980713Y-66477735D02*
X121944999Y-66513450D01*
X121944999Y-66513450D02*
X121837856Y-66549164D01*
X121837856Y-66549164D02*
X121766428Y-66549164D01*
X121766428Y-66549164D02*
X121659285Y-66513450D01*
X121659285Y-66513450D02*
X121587856Y-66442021D01*
X121587856Y-66442021D02*
X121552142Y-66370592D01*
X121552142Y-66370592D02*
X121516428Y-66227735D01*
X121516428Y-66227735D02*
X121516428Y-66120592D01*
X121516428Y-66120592D02*
X121552142Y-65977735D01*
X121552142Y-65977735D02*
X121587856Y-65906307D01*
X121587856Y-65906307D02*
X121659285Y-65834878D01*
X121659285Y-65834878D02*
X121766428Y-65799164D01*
X121766428Y-65799164D02*
X121837856Y-65799164D01*
X121837856Y-65799164D02*
X121944999Y-65834878D01*
X121944999Y-65834878D02*
X121980713Y-65870592D01*
X122230713Y-65799164D02*
X122694999Y-65799164D01*
X122694999Y-65799164D02*
X122444999Y-66084878D01*
X122444999Y-66084878D02*
X122552142Y-66084878D01*
X122552142Y-66084878D02*
X122623571Y-66120592D01*
X122623571Y-66120592D02*
X122659285Y-66156307D01*
X122659285Y-66156307D02*
X122694999Y-66227735D01*
X122694999Y-66227735D02*
X122694999Y-66406307D01*
X122694999Y-66406307D02*
X122659285Y-66477735D01*
X122659285Y-66477735D02*
X122623571Y-66513450D01*
X122623571Y-66513450D02*
X122552142Y-66549164D01*
X122552142Y-66549164D02*
X122337856Y-66549164D01*
X122337856Y-66549164D02*
X122266428Y-66513450D01*
X122266428Y-66513450D02*
X122230713Y-66477735D01*
X123159285Y-65799164D02*
X123230714Y-65799164D01*
X123230714Y-65799164D02*
X123302142Y-65834878D01*
X123302142Y-65834878D02*
X123337857Y-65870592D01*
X123337857Y-65870592D02*
X123373571Y-65942021D01*
X123373571Y-65942021D02*
X123409285Y-66084878D01*
X123409285Y-66084878D02*
X123409285Y-66263450D01*
X123409285Y-66263450D02*
X123373571Y-66406307D01*
X123373571Y-66406307D02*
X123337857Y-66477735D01*
X123337857Y-66477735D02*
X123302142Y-66513450D01*
X123302142Y-66513450D02*
X123230714Y-66549164D01*
X123230714Y-66549164D02*
X123159285Y-66549164D01*
X123159285Y-66549164D02*
X123087857Y-66513450D01*
X123087857Y-66513450D02*
X123052142Y-66477735D01*
X123052142Y-66477735D02*
X123016428Y-66406307D01*
X123016428Y-66406307D02*
X122980714Y-66263450D01*
X122980714Y-66263450D02*
X122980714Y-66084878D01*
X122980714Y-66084878D02*
X123016428Y-65942021D01*
X123016428Y-65942021D02*
X123052142Y-65870592D01*
X123052142Y-65870592D02*
X123087857Y-65834878D01*
X123087857Y-65834878D02*
X123159285Y-65799164D01*
X124123571Y-66549164D02*
X123695000Y-66549164D01*
X123909285Y-66549164D02*
X123909285Y-65799164D01*
X123909285Y-65799164D02*
X123837857Y-65906307D01*
X123837857Y-65906307D02*
X123766428Y-65977735D01*
X123766428Y-65977735D02*
X123695000Y-66013450D01*
X113320713Y-90709164D02*
X113070713Y-90352021D01*
X112892142Y-90709164D02*
X112892142Y-89959164D01*
X112892142Y-89959164D02*
X113177856Y-89959164D01*
X113177856Y-89959164D02*
X113249285Y-89994878D01*
X113249285Y-89994878D02*
X113284999Y-90030592D01*
X113284999Y-90030592D02*
X113320713Y-90102021D01*
X113320713Y-90102021D02*
X113320713Y-90209164D01*
X113320713Y-90209164D02*
X113284999Y-90280592D01*
X113284999Y-90280592D02*
X113249285Y-90316307D01*
X113249285Y-90316307D02*
X113177856Y-90352021D01*
X113177856Y-90352021D02*
X112892142Y-90352021D01*
X113570713Y-89959164D02*
X114070713Y-89959164D01*
X114070713Y-89959164D02*
X113749285Y-90709164D01*
X114749285Y-90709164D02*
X114320714Y-90709164D01*
X114534999Y-90709164D02*
X114534999Y-89959164D01*
X114534999Y-89959164D02*
X114463571Y-90066307D01*
X114463571Y-90066307D02*
X114392142Y-90137735D01*
X114392142Y-90137735D02*
X114320714Y-90173450D01*
X115213571Y-89959164D02*
X115285000Y-89959164D01*
X115285000Y-89959164D02*
X115356428Y-89994878D01*
X115356428Y-89994878D02*
X115392143Y-90030592D01*
X115392143Y-90030592D02*
X115427857Y-90102021D01*
X115427857Y-90102021D02*
X115463571Y-90244878D01*
X115463571Y-90244878D02*
X115463571Y-90423450D01*
X115463571Y-90423450D02*
X115427857Y-90566307D01*
X115427857Y-90566307D02*
X115392143Y-90637735D01*
X115392143Y-90637735D02*
X115356428Y-90673450D01*
X115356428Y-90673450D02*
X115285000Y-90709164D01*
X115285000Y-90709164D02*
X115213571Y-90709164D01*
X115213571Y-90709164D02*
X115142143Y-90673450D01*
X115142143Y-90673450D02*
X115106428Y-90637735D01*
X115106428Y-90637735D02*
X115070714Y-90566307D01*
X115070714Y-90566307D02*
X115035000Y-90423450D01*
X115035000Y-90423450D02*
X115035000Y-90244878D01*
X115035000Y-90244878D02*
X115070714Y-90102021D01*
X115070714Y-90102021D02*
X115106428Y-90030592D01*
X115106428Y-90030592D02*
X115142143Y-89994878D01*
X115142143Y-89994878D02*
X115213571Y-89959164D01*
X107394285Y-85109164D02*
X107394285Y-85716307D01*
X107394285Y-85716307D02*
X107429999Y-85787735D01*
X107429999Y-85787735D02*
X107465714Y-85823450D01*
X107465714Y-85823450D02*
X107537142Y-85859164D01*
X107537142Y-85859164D02*
X107679999Y-85859164D01*
X107679999Y-85859164D02*
X107751428Y-85823450D01*
X107751428Y-85823450D02*
X107787142Y-85787735D01*
X107787142Y-85787735D02*
X107822856Y-85716307D01*
X107822856Y-85716307D02*
X107822856Y-85109164D01*
X108501428Y-85359164D02*
X108501428Y-85859164D01*
X108322856Y-85073450D02*
X108144285Y-85609164D01*
X108144285Y-85609164D02*
X108608570Y-85609164D01*
X109037142Y-85109164D02*
X109108571Y-85109164D01*
X109108571Y-85109164D02*
X109179999Y-85144878D01*
X109179999Y-85144878D02*
X109215714Y-85180592D01*
X109215714Y-85180592D02*
X109251428Y-85252021D01*
X109251428Y-85252021D02*
X109287142Y-85394878D01*
X109287142Y-85394878D02*
X109287142Y-85573450D01*
X109287142Y-85573450D02*
X109251428Y-85716307D01*
X109251428Y-85716307D02*
X109215714Y-85787735D01*
X109215714Y-85787735D02*
X109179999Y-85823450D01*
X109179999Y-85823450D02*
X109108571Y-85859164D01*
X109108571Y-85859164D02*
X109037142Y-85859164D01*
X109037142Y-85859164D02*
X108965714Y-85823450D01*
X108965714Y-85823450D02*
X108929999Y-85787735D01*
X108929999Y-85787735D02*
X108894285Y-85716307D01*
X108894285Y-85716307D02*
X108858571Y-85573450D01*
X108858571Y-85573450D02*
X108858571Y-85394878D01*
X108858571Y-85394878D02*
X108894285Y-85252021D01*
X108894285Y-85252021D02*
X108929999Y-85180592D01*
X108929999Y-85180592D02*
X108965714Y-85144878D01*
X108965714Y-85144878D02*
X109037142Y-85109164D01*
X110001428Y-85859164D02*
X109572857Y-85859164D01*
X109787142Y-85859164D02*
X109787142Y-85109164D01*
X109787142Y-85109164D02*
X109715714Y-85216307D01*
X109715714Y-85216307D02*
X109644285Y-85287735D01*
X109644285Y-85287735D02*
X109572857Y-85323450D01*
X108675713Y-106769164D02*
X108425713Y-106412021D01*
X108247142Y-106769164D02*
X108247142Y-106019164D01*
X108247142Y-106019164D02*
X108532856Y-106019164D01*
X108532856Y-106019164D02*
X108604285Y-106054878D01*
X108604285Y-106054878D02*
X108639999Y-106090592D01*
X108639999Y-106090592D02*
X108675713Y-106162021D01*
X108675713Y-106162021D02*
X108675713Y-106269164D01*
X108675713Y-106269164D02*
X108639999Y-106340592D01*
X108639999Y-106340592D02*
X108604285Y-106376307D01*
X108604285Y-106376307D02*
X108532856Y-106412021D01*
X108532856Y-106412021D02*
X108247142Y-106412021D01*
X108961428Y-106090592D02*
X108997142Y-106054878D01*
X108997142Y-106054878D02*
X109068571Y-106019164D01*
X109068571Y-106019164D02*
X109247142Y-106019164D01*
X109247142Y-106019164D02*
X109318571Y-106054878D01*
X109318571Y-106054878D02*
X109354285Y-106090592D01*
X109354285Y-106090592D02*
X109389999Y-106162021D01*
X109389999Y-106162021D02*
X109389999Y-106233450D01*
X109389999Y-106233450D02*
X109354285Y-106340592D01*
X109354285Y-106340592D02*
X108925713Y-106769164D01*
X108925713Y-106769164D02*
X109389999Y-106769164D01*
X109854285Y-106019164D02*
X109925714Y-106019164D01*
X109925714Y-106019164D02*
X109997142Y-106054878D01*
X109997142Y-106054878D02*
X110032857Y-106090592D01*
X110032857Y-106090592D02*
X110068571Y-106162021D01*
X110068571Y-106162021D02*
X110104285Y-106304878D01*
X110104285Y-106304878D02*
X110104285Y-106483450D01*
X110104285Y-106483450D02*
X110068571Y-106626307D01*
X110068571Y-106626307D02*
X110032857Y-106697735D01*
X110032857Y-106697735D02*
X109997142Y-106733450D01*
X109997142Y-106733450D02*
X109925714Y-106769164D01*
X109925714Y-106769164D02*
X109854285Y-106769164D01*
X109854285Y-106769164D02*
X109782857Y-106733450D01*
X109782857Y-106733450D02*
X109747142Y-106697735D01*
X109747142Y-106697735D02*
X109711428Y-106626307D01*
X109711428Y-106626307D02*
X109675714Y-106483450D01*
X109675714Y-106483450D02*
X109675714Y-106304878D01*
X109675714Y-106304878D02*
X109711428Y-106162021D01*
X109711428Y-106162021D02*
X109747142Y-106090592D01*
X109747142Y-106090592D02*
X109782857Y-106054878D01*
X109782857Y-106054878D02*
X109854285Y-106019164D01*
X110390000Y-106090592D02*
X110425714Y-106054878D01*
X110425714Y-106054878D02*
X110497143Y-106019164D01*
X110497143Y-106019164D02*
X110675714Y-106019164D01*
X110675714Y-106019164D02*
X110747143Y-106054878D01*
X110747143Y-106054878D02*
X110782857Y-106090592D01*
X110782857Y-106090592D02*
X110818571Y-106162021D01*
X110818571Y-106162021D02*
X110818571Y-106233450D01*
X110818571Y-106233450D02*
X110782857Y-106340592D01*
X110782857Y-106340592D02*
X110354285Y-106769164D01*
X110354285Y-106769164D02*
X110818571Y-106769164D01*
X108499164Y-103219286D02*
X108142021Y-103469286D01*
X108499164Y-103647857D02*
X107749164Y-103647857D01*
X107749164Y-103647857D02*
X107749164Y-103362143D01*
X107749164Y-103362143D02*
X107784878Y-103290714D01*
X107784878Y-103290714D02*
X107820592Y-103255000D01*
X107820592Y-103255000D02*
X107892021Y-103219286D01*
X107892021Y-103219286D02*
X107999164Y-103219286D01*
X107999164Y-103219286D02*
X108070592Y-103255000D01*
X108070592Y-103255000D02*
X108106307Y-103290714D01*
X108106307Y-103290714D02*
X108142021Y-103362143D01*
X108142021Y-103362143D02*
X108142021Y-103647857D01*
X107749164Y-102969286D02*
X107749164Y-102469286D01*
X107749164Y-102469286D02*
X108499164Y-102790714D01*
X108499164Y-101790714D02*
X108499164Y-102219285D01*
X108499164Y-102005000D02*
X107749164Y-102005000D01*
X107749164Y-102005000D02*
X107856307Y-102076428D01*
X107856307Y-102076428D02*
X107927735Y-102147857D01*
X107927735Y-102147857D02*
X107963450Y-102219285D01*
X107749164Y-101540714D02*
X107749164Y-101076428D01*
X107749164Y-101076428D02*
X108034878Y-101326428D01*
X108034878Y-101326428D02*
X108034878Y-101219285D01*
X108034878Y-101219285D02*
X108070592Y-101147857D01*
X108070592Y-101147857D02*
X108106307Y-101112142D01*
X108106307Y-101112142D02*
X108177735Y-101076428D01*
X108177735Y-101076428D02*
X108356307Y-101076428D01*
X108356307Y-101076428D02*
X108427735Y-101112142D01*
X108427735Y-101112142D02*
X108463450Y-101147857D01*
X108463450Y-101147857D02*
X108499164Y-101219285D01*
X108499164Y-101219285D02*
X108499164Y-101433571D01*
X108499164Y-101433571D02*
X108463450Y-101504999D01*
X108463450Y-101504999D02*
X108427735Y-101540714D01*
X117000713Y-90719164D02*
X116750713Y-90362021D01*
X116572142Y-90719164D02*
X116572142Y-89969164D01*
X116572142Y-89969164D02*
X116857856Y-89969164D01*
X116857856Y-89969164D02*
X116929285Y-90004878D01*
X116929285Y-90004878D02*
X116964999Y-90040592D01*
X116964999Y-90040592D02*
X117000713Y-90112021D01*
X117000713Y-90112021D02*
X117000713Y-90219164D01*
X117000713Y-90219164D02*
X116964999Y-90290592D01*
X116964999Y-90290592D02*
X116929285Y-90326307D01*
X116929285Y-90326307D02*
X116857856Y-90362021D01*
X116857856Y-90362021D02*
X116572142Y-90362021D01*
X117250713Y-89969164D02*
X117750713Y-89969164D01*
X117750713Y-89969164D02*
X117429285Y-90719164D01*
X118179285Y-89969164D02*
X118250714Y-89969164D01*
X118250714Y-89969164D02*
X118322142Y-90004878D01*
X118322142Y-90004878D02*
X118357857Y-90040592D01*
X118357857Y-90040592D02*
X118393571Y-90112021D01*
X118393571Y-90112021D02*
X118429285Y-90254878D01*
X118429285Y-90254878D02*
X118429285Y-90433450D01*
X118429285Y-90433450D02*
X118393571Y-90576307D01*
X118393571Y-90576307D02*
X118357857Y-90647735D01*
X118357857Y-90647735D02*
X118322142Y-90683450D01*
X118322142Y-90683450D02*
X118250714Y-90719164D01*
X118250714Y-90719164D02*
X118179285Y-90719164D01*
X118179285Y-90719164D02*
X118107857Y-90683450D01*
X118107857Y-90683450D02*
X118072142Y-90647735D01*
X118072142Y-90647735D02*
X118036428Y-90576307D01*
X118036428Y-90576307D02*
X118000714Y-90433450D01*
X118000714Y-90433450D02*
X118000714Y-90254878D01*
X118000714Y-90254878D02*
X118036428Y-90112021D01*
X118036428Y-90112021D02*
X118072142Y-90040592D01*
X118072142Y-90040592D02*
X118107857Y-90004878D01*
X118107857Y-90004878D02*
X118179285Y-89969164D01*
X118857857Y-90290592D02*
X118786428Y-90254878D01*
X118786428Y-90254878D02*
X118750714Y-90219164D01*
X118750714Y-90219164D02*
X118715000Y-90147735D01*
X118715000Y-90147735D02*
X118715000Y-90112021D01*
X118715000Y-90112021D02*
X118750714Y-90040592D01*
X118750714Y-90040592D02*
X118786428Y-90004878D01*
X118786428Y-90004878D02*
X118857857Y-89969164D01*
X118857857Y-89969164D02*
X119000714Y-89969164D01*
X119000714Y-89969164D02*
X119072143Y-90004878D01*
X119072143Y-90004878D02*
X119107857Y-90040592D01*
X119107857Y-90040592D02*
X119143571Y-90112021D01*
X119143571Y-90112021D02*
X119143571Y-90147735D01*
X119143571Y-90147735D02*
X119107857Y-90219164D01*
X119107857Y-90219164D02*
X119072143Y-90254878D01*
X119072143Y-90254878D02*
X119000714Y-90290592D01*
X119000714Y-90290592D02*
X118857857Y-90290592D01*
X118857857Y-90290592D02*
X118786428Y-90326307D01*
X118786428Y-90326307D02*
X118750714Y-90362021D01*
X118750714Y-90362021D02*
X118715000Y-90433450D01*
X118715000Y-90433450D02*
X118715000Y-90576307D01*
X118715000Y-90576307D02*
X118750714Y-90647735D01*
X118750714Y-90647735D02*
X118786428Y-90683450D01*
X118786428Y-90683450D02*
X118857857Y-90719164D01*
X118857857Y-90719164D02*
X119000714Y-90719164D01*
X119000714Y-90719164D02*
X119072143Y-90683450D01*
X119072143Y-90683450D02*
X119107857Y-90647735D01*
X119107857Y-90647735D02*
X119143571Y-90576307D01*
X119143571Y-90576307D02*
X119143571Y-90433450D01*
X119143571Y-90433450D02*
X119107857Y-90362021D01*
X119107857Y-90362021D02*
X119072143Y-90326307D01*
X119072143Y-90326307D02*
X119000714Y-90290592D01*
X114189164Y-68045714D02*
X114796307Y-68045714D01*
X114796307Y-68045714D02*
X114867735Y-68010000D01*
X114867735Y-68010000D02*
X114903450Y-67974286D01*
X114903450Y-67974286D02*
X114939164Y-67902857D01*
X114939164Y-67902857D02*
X114939164Y-67760000D01*
X114939164Y-67760000D02*
X114903450Y-67688571D01*
X114903450Y-67688571D02*
X114867735Y-67652857D01*
X114867735Y-67652857D02*
X114796307Y-67617143D01*
X114796307Y-67617143D02*
X114189164Y-67617143D01*
X114439164Y-66938572D02*
X114939164Y-66938572D01*
X114153450Y-67117143D02*
X114689164Y-67295714D01*
X114689164Y-67295714D02*
X114689164Y-66831429D01*
X114189164Y-66402857D02*
X114189164Y-66331428D01*
X114189164Y-66331428D02*
X114224878Y-66260000D01*
X114224878Y-66260000D02*
X114260592Y-66224286D01*
X114260592Y-66224286D02*
X114332021Y-66188571D01*
X114332021Y-66188571D02*
X114474878Y-66152857D01*
X114474878Y-66152857D02*
X114653450Y-66152857D01*
X114653450Y-66152857D02*
X114796307Y-66188571D01*
X114796307Y-66188571D02*
X114867735Y-66224286D01*
X114867735Y-66224286D02*
X114903450Y-66260000D01*
X114903450Y-66260000D02*
X114939164Y-66331428D01*
X114939164Y-66331428D02*
X114939164Y-66402857D01*
X114939164Y-66402857D02*
X114903450Y-66474286D01*
X114903450Y-66474286D02*
X114867735Y-66510000D01*
X114867735Y-66510000D02*
X114796307Y-66545714D01*
X114796307Y-66545714D02*
X114653450Y-66581428D01*
X114653450Y-66581428D02*
X114474878Y-66581428D01*
X114474878Y-66581428D02*
X114332021Y-66545714D01*
X114332021Y-66545714D02*
X114260592Y-66510000D01*
X114260592Y-66510000D02*
X114224878Y-66474286D01*
X114224878Y-66474286D02*
X114189164Y-66402857D01*
X114439164Y-65510000D02*
X114939164Y-65510000D01*
X114153450Y-65688571D02*
X114689164Y-65867142D01*
X114689164Y-65867142D02*
X114689164Y-65402857D01*
X99259164Y-97544284D02*
X99794878Y-97544284D01*
X99794878Y-97544284D02*
X99902021Y-97579999D01*
X99902021Y-97579999D02*
X99973450Y-97651427D01*
X99973450Y-97651427D02*
X100009164Y-97758570D01*
X100009164Y-97758570D02*
X100009164Y-97829999D01*
X99259164Y-96829998D02*
X99259164Y-97187141D01*
X99259164Y-97187141D02*
X99616307Y-97222855D01*
X99616307Y-97222855D02*
X99580592Y-97187141D01*
X99580592Y-97187141D02*
X99544878Y-97115713D01*
X99544878Y-97115713D02*
X99544878Y-96937141D01*
X99544878Y-96937141D02*
X99580592Y-96865713D01*
X99580592Y-96865713D02*
X99616307Y-96829998D01*
X99616307Y-96829998D02*
X99687735Y-96794284D01*
X99687735Y-96794284D02*
X99866307Y-96794284D01*
X99866307Y-96794284D02*
X99937735Y-96829998D01*
X99937735Y-96829998D02*
X99973450Y-96865713D01*
X99973450Y-96865713D02*
X100009164Y-96937141D01*
X100009164Y-96937141D02*
X100009164Y-97115713D01*
X100009164Y-97115713D02*
X99973450Y-97187141D01*
X99973450Y-97187141D02*
X99937735Y-97222855D01*
X99259164Y-96329998D02*
X99259164Y-96258569D01*
X99259164Y-96258569D02*
X99294878Y-96187141D01*
X99294878Y-96187141D02*
X99330592Y-96151427D01*
X99330592Y-96151427D02*
X99402021Y-96115712D01*
X99402021Y-96115712D02*
X99544878Y-96079998D01*
X99544878Y-96079998D02*
X99723450Y-96079998D01*
X99723450Y-96079998D02*
X99866307Y-96115712D01*
X99866307Y-96115712D02*
X99937735Y-96151427D01*
X99937735Y-96151427D02*
X99973450Y-96187141D01*
X99973450Y-96187141D02*
X100009164Y-96258569D01*
X100009164Y-96258569D02*
X100009164Y-96329998D01*
X100009164Y-96329998D02*
X99973450Y-96401427D01*
X99973450Y-96401427D02*
X99937735Y-96437141D01*
X99937735Y-96437141D02*
X99866307Y-96472855D01*
X99866307Y-96472855D02*
X99723450Y-96508569D01*
X99723450Y-96508569D02*
X99544878Y-96508569D01*
X99544878Y-96508569D02*
X99402021Y-96472855D01*
X99402021Y-96472855D02*
X99330592Y-96437141D01*
X99330592Y-96437141D02*
X99294878Y-96401427D01*
X99294878Y-96401427D02*
X99259164Y-96329998D01*
X99509164Y-95437141D02*
X100009164Y-95437141D01*
X99223450Y-95615712D02*
X99759164Y-95794283D01*
X99759164Y-95794283D02*
X99759164Y-95329998D01*
X118089164Y-104839286D02*
X117732021Y-105089286D01*
X118089164Y-105267857D02*
X117339164Y-105267857D01*
X117339164Y-105267857D02*
X117339164Y-104982143D01*
X117339164Y-104982143D02*
X117374878Y-104910714D01*
X117374878Y-104910714D02*
X117410592Y-104875000D01*
X117410592Y-104875000D02*
X117482021Y-104839286D01*
X117482021Y-104839286D02*
X117589164Y-104839286D01*
X117589164Y-104839286D02*
X117660592Y-104875000D01*
X117660592Y-104875000D02*
X117696307Y-104910714D01*
X117696307Y-104910714D02*
X117732021Y-104982143D01*
X117732021Y-104982143D02*
X117732021Y-105267857D01*
X117339164Y-104589286D02*
X117339164Y-104089286D01*
X117339164Y-104089286D02*
X118089164Y-104410714D01*
X117339164Y-103660714D02*
X117339164Y-103589285D01*
X117339164Y-103589285D02*
X117374878Y-103517857D01*
X117374878Y-103517857D02*
X117410592Y-103482143D01*
X117410592Y-103482143D02*
X117482021Y-103446428D01*
X117482021Y-103446428D02*
X117624878Y-103410714D01*
X117624878Y-103410714D02*
X117803450Y-103410714D01*
X117803450Y-103410714D02*
X117946307Y-103446428D01*
X117946307Y-103446428D02*
X118017735Y-103482143D01*
X118017735Y-103482143D02*
X118053450Y-103517857D01*
X118053450Y-103517857D02*
X118089164Y-103589285D01*
X118089164Y-103589285D02*
X118089164Y-103660714D01*
X118089164Y-103660714D02*
X118053450Y-103732143D01*
X118053450Y-103732143D02*
X118017735Y-103767857D01*
X118017735Y-103767857D02*
X117946307Y-103803571D01*
X117946307Y-103803571D02*
X117803450Y-103839285D01*
X117803450Y-103839285D02*
X117624878Y-103839285D01*
X117624878Y-103839285D02*
X117482021Y-103803571D01*
X117482021Y-103803571D02*
X117410592Y-103767857D01*
X117410592Y-103767857D02*
X117374878Y-103732143D01*
X117374878Y-103732143D02*
X117339164Y-103660714D01*
X117339164Y-103160714D02*
X117339164Y-102696428D01*
X117339164Y-102696428D02*
X117624878Y-102946428D01*
X117624878Y-102946428D02*
X117624878Y-102839285D01*
X117624878Y-102839285D02*
X117660592Y-102767857D01*
X117660592Y-102767857D02*
X117696307Y-102732142D01*
X117696307Y-102732142D02*
X117767735Y-102696428D01*
X117767735Y-102696428D02*
X117946307Y-102696428D01*
X117946307Y-102696428D02*
X118017735Y-102732142D01*
X118017735Y-102732142D02*
X118053450Y-102767857D01*
X118053450Y-102767857D02*
X118089164Y-102839285D01*
X118089164Y-102839285D02*
X118089164Y-103053571D01*
X118089164Y-103053571D02*
X118053450Y-103124999D01*
X118053450Y-103124999D02*
X118017735Y-103160714D01*
X98474164Y-91124285D02*
X99009878Y-91124285D01*
X99009878Y-91124285D02*
X99117021Y-91160000D01*
X99117021Y-91160000D02*
X99188450Y-91231428D01*
X99188450Y-91231428D02*
X99224164Y-91338571D01*
X99224164Y-91338571D02*
X99224164Y-91410000D01*
X98474164Y-90409999D02*
X98474164Y-90767142D01*
X98474164Y-90767142D02*
X98831307Y-90802856D01*
X98831307Y-90802856D02*
X98795592Y-90767142D01*
X98795592Y-90767142D02*
X98759878Y-90695714D01*
X98759878Y-90695714D02*
X98759878Y-90517142D01*
X98759878Y-90517142D02*
X98795592Y-90445714D01*
X98795592Y-90445714D02*
X98831307Y-90409999D01*
X98831307Y-90409999D02*
X98902735Y-90374285D01*
X98902735Y-90374285D02*
X99081307Y-90374285D01*
X99081307Y-90374285D02*
X99152735Y-90409999D01*
X99152735Y-90409999D02*
X99188450Y-90445714D01*
X99188450Y-90445714D02*
X99224164Y-90517142D01*
X99224164Y-90517142D02*
X99224164Y-90695714D01*
X99224164Y-90695714D02*
X99188450Y-90767142D01*
X99188450Y-90767142D02*
X99152735Y-90802856D01*
X98474164Y-89909999D02*
X98474164Y-89838570D01*
X98474164Y-89838570D02*
X98509878Y-89767142D01*
X98509878Y-89767142D02*
X98545592Y-89731428D01*
X98545592Y-89731428D02*
X98617021Y-89695713D01*
X98617021Y-89695713D02*
X98759878Y-89659999D01*
X98759878Y-89659999D02*
X98938450Y-89659999D01*
X98938450Y-89659999D02*
X99081307Y-89695713D01*
X99081307Y-89695713D02*
X99152735Y-89731428D01*
X99152735Y-89731428D02*
X99188450Y-89767142D01*
X99188450Y-89767142D02*
X99224164Y-89838570D01*
X99224164Y-89838570D02*
X99224164Y-89909999D01*
X99224164Y-89909999D02*
X99188450Y-89981428D01*
X99188450Y-89981428D02*
X99152735Y-90017142D01*
X99152735Y-90017142D02*
X99081307Y-90052856D01*
X99081307Y-90052856D02*
X98938450Y-90088570D01*
X98938450Y-90088570D02*
X98759878Y-90088570D01*
X98759878Y-90088570D02*
X98617021Y-90052856D01*
X98617021Y-90052856D02*
X98545592Y-90017142D01*
X98545592Y-90017142D02*
X98509878Y-89981428D01*
X98509878Y-89981428D02*
X98474164Y-89909999D01*
X98474164Y-88981427D02*
X98474164Y-89338570D01*
X98474164Y-89338570D02*
X98831307Y-89374284D01*
X98831307Y-89374284D02*
X98795592Y-89338570D01*
X98795592Y-89338570D02*
X98759878Y-89267142D01*
X98759878Y-89267142D02*
X98759878Y-89088570D01*
X98759878Y-89088570D02*
X98795592Y-89017142D01*
X98795592Y-89017142D02*
X98831307Y-88981427D01*
X98831307Y-88981427D02*
X98902735Y-88945713D01*
X98902735Y-88945713D02*
X99081307Y-88945713D01*
X99081307Y-88945713D02*
X99152735Y-88981427D01*
X99152735Y-88981427D02*
X99188450Y-89017142D01*
X99188450Y-89017142D02*
X99224164Y-89088570D01*
X99224164Y-89088570D02*
X99224164Y-89267142D01*
X99224164Y-89267142D02*
X99188450Y-89338570D01*
X99188450Y-89338570D02*
X99152735Y-89374284D01*
X98955714Y-59159164D02*
X98955714Y-59694878D01*
X98955714Y-59694878D02*
X98919999Y-59802021D01*
X98919999Y-59802021D02*
X98848571Y-59873450D01*
X98848571Y-59873450D02*
X98741428Y-59909164D01*
X98741428Y-59909164D02*
X98669999Y-59909164D01*
X99670000Y-59159164D02*
X99312857Y-59159164D01*
X99312857Y-59159164D02*
X99277143Y-59516307D01*
X99277143Y-59516307D02*
X99312857Y-59480592D01*
X99312857Y-59480592D02*
X99384286Y-59444878D01*
X99384286Y-59444878D02*
X99562857Y-59444878D01*
X99562857Y-59444878D02*
X99634286Y-59480592D01*
X99634286Y-59480592D02*
X99670000Y-59516307D01*
X99670000Y-59516307D02*
X99705714Y-59587735D01*
X99705714Y-59587735D02*
X99705714Y-59766307D01*
X99705714Y-59766307D02*
X99670000Y-59837735D01*
X99670000Y-59837735D02*
X99634286Y-59873450D01*
X99634286Y-59873450D02*
X99562857Y-59909164D01*
X99562857Y-59909164D02*
X99384286Y-59909164D01*
X99384286Y-59909164D02*
X99312857Y-59873450D01*
X99312857Y-59873450D02*
X99277143Y-59837735D01*
X100170000Y-59159164D02*
X100241429Y-59159164D01*
X100241429Y-59159164D02*
X100312857Y-59194878D01*
X100312857Y-59194878D02*
X100348572Y-59230592D01*
X100348572Y-59230592D02*
X100384286Y-59302021D01*
X100384286Y-59302021D02*
X100420000Y-59444878D01*
X100420000Y-59444878D02*
X100420000Y-59623450D01*
X100420000Y-59623450D02*
X100384286Y-59766307D01*
X100384286Y-59766307D02*
X100348572Y-59837735D01*
X100348572Y-59837735D02*
X100312857Y-59873450D01*
X100312857Y-59873450D02*
X100241429Y-59909164D01*
X100241429Y-59909164D02*
X100170000Y-59909164D01*
X100170000Y-59909164D02*
X100098572Y-59873450D01*
X100098572Y-59873450D02*
X100062857Y-59837735D01*
X100062857Y-59837735D02*
X100027143Y-59766307D01*
X100027143Y-59766307D02*
X99991429Y-59623450D01*
X99991429Y-59623450D02*
X99991429Y-59444878D01*
X99991429Y-59444878D02*
X100027143Y-59302021D01*
X100027143Y-59302021D02*
X100062857Y-59230592D01*
X100062857Y-59230592D02*
X100098572Y-59194878D01*
X100098572Y-59194878D02*
X100170000Y-59159164D01*
X100670000Y-59159164D02*
X101170000Y-59159164D01*
X101170000Y-59159164D02*
X100848572Y-59909164D01*
X99670835Y-79235714D02*
X99135121Y-79235714D01*
X99135121Y-79235714D02*
X99027978Y-79199999D01*
X99027978Y-79199999D02*
X98956550Y-79128571D01*
X98956550Y-79128571D02*
X98920835Y-79021428D01*
X98920835Y-79021428D02*
X98920835Y-78949999D01*
X99670835Y-79950000D02*
X99670835Y-79592857D01*
X99670835Y-79592857D02*
X99313692Y-79557143D01*
X99313692Y-79557143D02*
X99349407Y-79592857D01*
X99349407Y-79592857D02*
X99385121Y-79664286D01*
X99385121Y-79664286D02*
X99385121Y-79842857D01*
X99385121Y-79842857D02*
X99349407Y-79914286D01*
X99349407Y-79914286D02*
X99313692Y-79950000D01*
X99313692Y-79950000D02*
X99242264Y-79985714D01*
X99242264Y-79985714D02*
X99063692Y-79985714D01*
X99063692Y-79985714D02*
X98992264Y-79950000D01*
X98992264Y-79950000D02*
X98956550Y-79914286D01*
X98956550Y-79914286D02*
X98920835Y-79842857D01*
X98920835Y-79842857D02*
X98920835Y-79664286D01*
X98920835Y-79664286D02*
X98956550Y-79592857D01*
X98956550Y-79592857D02*
X98992264Y-79557143D01*
X99670835Y-80450000D02*
X99670835Y-80521429D01*
X99670835Y-80521429D02*
X99635121Y-80592857D01*
X99635121Y-80592857D02*
X99599407Y-80628572D01*
X99599407Y-80628572D02*
X99527978Y-80664286D01*
X99527978Y-80664286D02*
X99385121Y-80700000D01*
X99385121Y-80700000D02*
X99206550Y-80700000D01*
X99206550Y-80700000D02*
X99063692Y-80664286D01*
X99063692Y-80664286D02*
X98992264Y-80628572D01*
X98992264Y-80628572D02*
X98956550Y-80592857D01*
X98956550Y-80592857D02*
X98920835Y-80521429D01*
X98920835Y-80521429D02*
X98920835Y-80450000D01*
X98920835Y-80450000D02*
X98956550Y-80378572D01*
X98956550Y-80378572D02*
X98992264Y-80342857D01*
X98992264Y-80342857D02*
X99063692Y-80307143D01*
X99063692Y-80307143D02*
X99206550Y-80271429D01*
X99206550Y-80271429D02*
X99385121Y-80271429D01*
X99385121Y-80271429D02*
X99527978Y-80307143D01*
X99527978Y-80307143D02*
X99599407Y-80342857D01*
X99599407Y-80342857D02*
X99635121Y-80378572D01*
X99635121Y-80378572D02*
X99670835Y-80450000D01*
X99599407Y-80985715D02*
X99635121Y-81021429D01*
X99635121Y-81021429D02*
X99670835Y-81092858D01*
X99670835Y-81092858D02*
X99670835Y-81271429D01*
X99670835Y-81271429D02*
X99635121Y-81342858D01*
X99635121Y-81342858D02*
X99599407Y-81378572D01*
X99599407Y-81378572D02*
X99527978Y-81414286D01*
X99527978Y-81414286D02*
X99456550Y-81414286D01*
X99456550Y-81414286D02*
X99349407Y-81378572D01*
X99349407Y-81378572D02*
X98920835Y-80950000D01*
X98920835Y-80950000D02*
X98920835Y-81414286D01*
X125339164Y-105164285D02*
X125874878Y-105164285D01*
X125874878Y-105164285D02*
X125982021Y-105200000D01*
X125982021Y-105200000D02*
X126053450Y-105271428D01*
X126053450Y-105271428D02*
X126089164Y-105378571D01*
X126089164Y-105378571D02*
X126089164Y-105450000D01*
X125339164Y-104449999D02*
X125339164Y-104807142D01*
X125339164Y-104807142D02*
X125696307Y-104842856D01*
X125696307Y-104842856D02*
X125660592Y-104807142D01*
X125660592Y-104807142D02*
X125624878Y-104735714D01*
X125624878Y-104735714D02*
X125624878Y-104557142D01*
X125624878Y-104557142D02*
X125660592Y-104485714D01*
X125660592Y-104485714D02*
X125696307Y-104449999D01*
X125696307Y-104449999D02*
X125767735Y-104414285D01*
X125767735Y-104414285D02*
X125946307Y-104414285D01*
X125946307Y-104414285D02*
X126017735Y-104449999D01*
X126017735Y-104449999D02*
X126053450Y-104485714D01*
X126053450Y-104485714D02*
X126089164Y-104557142D01*
X126089164Y-104557142D02*
X126089164Y-104735714D01*
X126089164Y-104735714D02*
X126053450Y-104807142D01*
X126053450Y-104807142D02*
X126017735Y-104842856D01*
X125339164Y-103949999D02*
X125339164Y-103878570D01*
X125339164Y-103878570D02*
X125374878Y-103807142D01*
X125374878Y-103807142D02*
X125410592Y-103771428D01*
X125410592Y-103771428D02*
X125482021Y-103735713D01*
X125482021Y-103735713D02*
X125624878Y-103699999D01*
X125624878Y-103699999D02*
X125803450Y-103699999D01*
X125803450Y-103699999D02*
X125946307Y-103735713D01*
X125946307Y-103735713D02*
X126017735Y-103771428D01*
X126017735Y-103771428D02*
X126053450Y-103807142D01*
X126053450Y-103807142D02*
X126089164Y-103878570D01*
X126089164Y-103878570D02*
X126089164Y-103949999D01*
X126089164Y-103949999D02*
X126053450Y-104021428D01*
X126053450Y-104021428D02*
X126017735Y-104057142D01*
X126017735Y-104057142D02*
X125946307Y-104092856D01*
X125946307Y-104092856D02*
X125803450Y-104128570D01*
X125803450Y-104128570D02*
X125624878Y-104128570D01*
X125624878Y-104128570D02*
X125482021Y-104092856D01*
X125482021Y-104092856D02*
X125410592Y-104057142D01*
X125410592Y-104057142D02*
X125374878Y-104021428D01*
X125374878Y-104021428D02*
X125339164Y-103949999D01*
X125339164Y-103449999D02*
X125339164Y-102985713D01*
X125339164Y-102985713D02*
X125624878Y-103235713D01*
X125624878Y-103235713D02*
X125624878Y-103128570D01*
X125624878Y-103128570D02*
X125660592Y-103057142D01*
X125660592Y-103057142D02*
X125696307Y-103021427D01*
X125696307Y-103021427D02*
X125767735Y-102985713D01*
X125767735Y-102985713D02*
X125946307Y-102985713D01*
X125946307Y-102985713D02*
X126017735Y-103021427D01*
X126017735Y-103021427D02*
X126053450Y-103057142D01*
X126053450Y-103057142D02*
X126089164Y-103128570D01*
X126089164Y-103128570D02*
X126089164Y-103342856D01*
X126089164Y-103342856D02*
X126053450Y-103414284D01*
X126053450Y-103414284D02*
X126017735Y-103449999D01*
X120090713Y-83007734D02*
X120054999Y-83043449D01*
X120054999Y-83043449D02*
X119947856Y-83079163D01*
X119947856Y-83079163D02*
X119876428Y-83079163D01*
X119876428Y-83079163D02*
X119769285Y-83043449D01*
X119769285Y-83043449D02*
X119697856Y-82972020D01*
X119697856Y-82972020D02*
X119662142Y-82900591D01*
X119662142Y-82900591D02*
X119626428Y-82757734D01*
X119626428Y-82757734D02*
X119626428Y-82650591D01*
X119626428Y-82650591D02*
X119662142Y-82507734D01*
X119662142Y-82507734D02*
X119697856Y-82436306D01*
X119697856Y-82436306D02*
X119769285Y-82364877D01*
X119769285Y-82364877D02*
X119876428Y-82329163D01*
X119876428Y-82329163D02*
X119947856Y-82329163D01*
X119947856Y-82329163D02*
X120054999Y-82364877D01*
X120054999Y-82364877D02*
X120090713Y-82400591D01*
X120733571Y-82579163D02*
X120733571Y-83079163D01*
X120554999Y-82293449D02*
X120376428Y-82829163D01*
X120376428Y-82829163D02*
X120840713Y-82829163D01*
X121269285Y-82329163D02*
X121340714Y-82329163D01*
X121340714Y-82329163D02*
X121412142Y-82364877D01*
X121412142Y-82364877D02*
X121447857Y-82400591D01*
X121447857Y-82400591D02*
X121483571Y-82472020D01*
X121483571Y-82472020D02*
X121519285Y-82614877D01*
X121519285Y-82614877D02*
X121519285Y-82793449D01*
X121519285Y-82793449D02*
X121483571Y-82936306D01*
X121483571Y-82936306D02*
X121447857Y-83007734D01*
X121447857Y-83007734D02*
X121412142Y-83043449D01*
X121412142Y-83043449D02*
X121340714Y-83079163D01*
X121340714Y-83079163D02*
X121269285Y-83079163D01*
X121269285Y-83079163D02*
X121197857Y-83043449D01*
X121197857Y-83043449D02*
X121162142Y-83007734D01*
X121162142Y-83007734D02*
X121126428Y-82936306D01*
X121126428Y-82936306D02*
X121090714Y-82793449D01*
X121090714Y-82793449D02*
X121090714Y-82614877D01*
X121090714Y-82614877D02*
X121126428Y-82472020D01*
X121126428Y-82472020D02*
X121162142Y-82400591D01*
X121162142Y-82400591D02*
X121197857Y-82364877D01*
X121197857Y-82364877D02*
X121269285Y-82329163D01*
X122162143Y-82579163D02*
X122162143Y-83079163D01*
X121983571Y-82293449D02*
X121805000Y-82829163D01*
X121805000Y-82829163D02*
X122269285Y-82829163D01*
X119854164Y-74103214D02*
X120461307Y-74103214D01*
X120461307Y-74103214D02*
X120532735Y-74067500D01*
X120532735Y-74067500D02*
X120568450Y-74031786D01*
X120568450Y-74031786D02*
X120604164Y-73960357D01*
X120604164Y-73960357D02*
X120604164Y-73817500D01*
X120604164Y-73817500D02*
X120568450Y-73746071D01*
X120568450Y-73746071D02*
X120532735Y-73710357D01*
X120532735Y-73710357D02*
X120461307Y-73674643D01*
X120461307Y-73674643D02*
X119854164Y-73674643D01*
X119854164Y-73388929D02*
X119854164Y-72924643D01*
X119854164Y-72924643D02*
X120139878Y-73174643D01*
X120139878Y-73174643D02*
X120139878Y-73067500D01*
X120139878Y-73067500D02*
X120175592Y-72996072D01*
X120175592Y-72996072D02*
X120211307Y-72960357D01*
X120211307Y-72960357D02*
X120282735Y-72924643D01*
X120282735Y-72924643D02*
X120461307Y-72924643D01*
X120461307Y-72924643D02*
X120532735Y-72960357D01*
X120532735Y-72960357D02*
X120568450Y-72996072D01*
X120568450Y-72996072D02*
X120604164Y-73067500D01*
X120604164Y-73067500D02*
X120604164Y-73281786D01*
X120604164Y-73281786D02*
X120568450Y-73353214D01*
X120568450Y-73353214D02*
X120532735Y-73388929D01*
X119854164Y-72460357D02*
X119854164Y-72388928D01*
X119854164Y-72388928D02*
X119889878Y-72317500D01*
X119889878Y-72317500D02*
X119925592Y-72281786D01*
X119925592Y-72281786D02*
X119997021Y-72246071D01*
X119997021Y-72246071D02*
X120139878Y-72210357D01*
X120139878Y-72210357D02*
X120318450Y-72210357D01*
X120318450Y-72210357D02*
X120461307Y-72246071D01*
X120461307Y-72246071D02*
X120532735Y-72281786D01*
X120532735Y-72281786D02*
X120568450Y-72317500D01*
X120568450Y-72317500D02*
X120604164Y-72388928D01*
X120604164Y-72388928D02*
X120604164Y-72460357D01*
X120604164Y-72460357D02*
X120568450Y-72531786D01*
X120568450Y-72531786D02*
X120532735Y-72567500D01*
X120532735Y-72567500D02*
X120461307Y-72603214D01*
X120461307Y-72603214D02*
X120318450Y-72638928D01*
X120318450Y-72638928D02*
X120139878Y-72638928D01*
X120139878Y-72638928D02*
X119997021Y-72603214D01*
X119997021Y-72603214D02*
X119925592Y-72567500D01*
X119925592Y-72567500D02*
X119889878Y-72531786D01*
X119889878Y-72531786D02*
X119854164Y-72460357D01*
X120604164Y-71496071D02*
X120604164Y-71924642D01*
X120604164Y-71710357D02*
X119854164Y-71710357D01*
X119854164Y-71710357D02*
X119961307Y-71781785D01*
X119961307Y-71781785D02*
X120032735Y-71853214D01*
X120032735Y-71853214D02*
X120068450Y-71924642D01*
X120329164Y-101939286D02*
X119972021Y-102189286D01*
X120329164Y-102367857D02*
X119579164Y-102367857D01*
X119579164Y-102367857D02*
X119579164Y-102082143D01*
X119579164Y-102082143D02*
X119614878Y-102010714D01*
X119614878Y-102010714D02*
X119650592Y-101975000D01*
X119650592Y-101975000D02*
X119722021Y-101939286D01*
X119722021Y-101939286D02*
X119829164Y-101939286D01*
X119829164Y-101939286D02*
X119900592Y-101975000D01*
X119900592Y-101975000D02*
X119936307Y-102010714D01*
X119936307Y-102010714D02*
X119972021Y-102082143D01*
X119972021Y-102082143D02*
X119972021Y-102367857D01*
X119579164Y-101689286D02*
X119579164Y-101189286D01*
X119579164Y-101189286D02*
X120329164Y-101510714D01*
X119579164Y-100760714D02*
X119579164Y-100689285D01*
X119579164Y-100689285D02*
X119614878Y-100617857D01*
X119614878Y-100617857D02*
X119650592Y-100582143D01*
X119650592Y-100582143D02*
X119722021Y-100546428D01*
X119722021Y-100546428D02*
X119864878Y-100510714D01*
X119864878Y-100510714D02*
X120043450Y-100510714D01*
X120043450Y-100510714D02*
X120186307Y-100546428D01*
X120186307Y-100546428D02*
X120257735Y-100582143D01*
X120257735Y-100582143D02*
X120293450Y-100617857D01*
X120293450Y-100617857D02*
X120329164Y-100689285D01*
X120329164Y-100689285D02*
X120329164Y-100760714D01*
X120329164Y-100760714D02*
X120293450Y-100832143D01*
X120293450Y-100832143D02*
X120257735Y-100867857D01*
X120257735Y-100867857D02*
X120186307Y-100903571D01*
X120186307Y-100903571D02*
X120043450Y-100939285D01*
X120043450Y-100939285D02*
X119864878Y-100939285D01*
X119864878Y-100939285D02*
X119722021Y-100903571D01*
X119722021Y-100903571D02*
X119650592Y-100867857D01*
X119650592Y-100867857D02*
X119614878Y-100832143D01*
X119614878Y-100832143D02*
X119579164Y-100760714D01*
X119579164Y-99867857D02*
X119579164Y-100010714D01*
X119579164Y-100010714D02*
X119614878Y-100082142D01*
X119614878Y-100082142D02*
X119650592Y-100117857D01*
X119650592Y-100117857D02*
X119757735Y-100189285D01*
X119757735Y-100189285D02*
X119900592Y-100224999D01*
X119900592Y-100224999D02*
X120186307Y-100224999D01*
X120186307Y-100224999D02*
X120257735Y-100189285D01*
X120257735Y-100189285D02*
X120293450Y-100153571D01*
X120293450Y-100153571D02*
X120329164Y-100082142D01*
X120329164Y-100082142D02*
X120329164Y-99939285D01*
X120329164Y-99939285D02*
X120293450Y-99867857D01*
X120293450Y-99867857D02*
X120257735Y-99832142D01*
X120257735Y-99832142D02*
X120186307Y-99796428D01*
X120186307Y-99796428D02*
X120007735Y-99796428D01*
X120007735Y-99796428D02*
X119936307Y-99832142D01*
X119936307Y-99832142D02*
X119900592Y-99867857D01*
X119900592Y-99867857D02*
X119864878Y-99939285D01*
X119864878Y-99939285D02*
X119864878Y-100082142D01*
X119864878Y-100082142D02*
X119900592Y-100153571D01*
X119900592Y-100153571D02*
X119936307Y-100189285D01*
X119936307Y-100189285D02*
X120007735Y-100224999D01*
X106372834Y-97824285D02*
X105765691Y-97824285D01*
X105765691Y-97824285D02*
X105694263Y-97859999D01*
X105694263Y-97859999D02*
X105658549Y-97895714D01*
X105658549Y-97895714D02*
X105622834Y-97967142D01*
X105622834Y-97967142D02*
X105622834Y-98109999D01*
X105622834Y-98109999D02*
X105658549Y-98181428D01*
X105658549Y-98181428D02*
X105694263Y-98217142D01*
X105694263Y-98217142D02*
X105765691Y-98252856D01*
X105765691Y-98252856D02*
X106372834Y-98252856D01*
X106372834Y-98538570D02*
X106372834Y-99038570D01*
X106372834Y-99038570D02*
X105622834Y-98717142D01*
X106372834Y-99467142D02*
X106372834Y-99538571D01*
X106372834Y-99538571D02*
X106337120Y-99609999D01*
X106337120Y-99609999D02*
X106301406Y-99645714D01*
X106301406Y-99645714D02*
X106229977Y-99681428D01*
X106229977Y-99681428D02*
X106087120Y-99717142D01*
X106087120Y-99717142D02*
X105908549Y-99717142D01*
X105908549Y-99717142D02*
X105765691Y-99681428D01*
X105765691Y-99681428D02*
X105694263Y-99645714D01*
X105694263Y-99645714D02*
X105658549Y-99609999D01*
X105658549Y-99609999D02*
X105622834Y-99538571D01*
X105622834Y-99538571D02*
X105622834Y-99467142D01*
X105622834Y-99467142D02*
X105658549Y-99395714D01*
X105658549Y-99395714D02*
X105694263Y-99359999D01*
X105694263Y-99359999D02*
X105765691Y-99324285D01*
X105765691Y-99324285D02*
X105908549Y-99288571D01*
X105908549Y-99288571D02*
X106087120Y-99288571D01*
X106087120Y-99288571D02*
X106229977Y-99324285D01*
X106229977Y-99324285D02*
X106301406Y-99359999D01*
X106301406Y-99359999D02*
X106337120Y-99395714D01*
X106337120Y-99395714D02*
X106372834Y-99467142D01*
X106372834Y-99967142D02*
X106372834Y-100431428D01*
X106372834Y-100431428D02*
X106087120Y-100181428D01*
X106087120Y-100181428D02*
X106087120Y-100288571D01*
X106087120Y-100288571D02*
X106051406Y-100360000D01*
X106051406Y-100360000D02*
X106015691Y-100395714D01*
X106015691Y-100395714D02*
X105944263Y-100431428D01*
X105944263Y-100431428D02*
X105765691Y-100431428D01*
X105765691Y-100431428D02*
X105694263Y-100395714D01*
X105694263Y-100395714D02*
X105658549Y-100360000D01*
X105658549Y-100360000D02*
X105622834Y-100288571D01*
X105622834Y-100288571D02*
X105622834Y-100074285D01*
X105622834Y-100074285D02*
X105658549Y-100002857D01*
X105658549Y-100002857D02*
X105694263Y-99967142D01*
X108884819Y-97519999D02*
X109122914Y-97519999D01*
X109027676Y-97758094D02*
X109122914Y-97519999D01*
X109122914Y-97519999D02*
X109027676Y-97281904D01*
X109313390Y-97662856D02*
X109122914Y-97519999D01*
X109122914Y-97519999D02*
X109313390Y-97377142D01*
X111119164Y-100066786D02*
X110762021Y-100316786D01*
X111119164Y-100495357D02*
X110369164Y-100495357D01*
X110369164Y-100495357D02*
X110369164Y-100209643D01*
X110369164Y-100209643D02*
X110404878Y-100138214D01*
X110404878Y-100138214D02*
X110440592Y-100102500D01*
X110440592Y-100102500D02*
X110512021Y-100066786D01*
X110512021Y-100066786D02*
X110619164Y-100066786D01*
X110619164Y-100066786D02*
X110690592Y-100102500D01*
X110690592Y-100102500D02*
X110726307Y-100138214D01*
X110726307Y-100138214D02*
X110762021Y-100209643D01*
X110762021Y-100209643D02*
X110762021Y-100495357D01*
X110369164Y-99816786D02*
X110369164Y-99316786D01*
X110369164Y-99316786D02*
X111119164Y-99638214D01*
X110369164Y-98888214D02*
X110369164Y-98816785D01*
X110369164Y-98816785D02*
X110404878Y-98745357D01*
X110404878Y-98745357D02*
X110440592Y-98709643D01*
X110440592Y-98709643D02*
X110512021Y-98673928D01*
X110512021Y-98673928D02*
X110654878Y-98638214D01*
X110654878Y-98638214D02*
X110833450Y-98638214D01*
X110833450Y-98638214D02*
X110976307Y-98673928D01*
X110976307Y-98673928D02*
X111047735Y-98709643D01*
X111047735Y-98709643D02*
X111083450Y-98745357D01*
X111083450Y-98745357D02*
X111119164Y-98816785D01*
X111119164Y-98816785D02*
X111119164Y-98888214D01*
X111119164Y-98888214D02*
X111083450Y-98959643D01*
X111083450Y-98959643D02*
X111047735Y-98995357D01*
X111047735Y-98995357D02*
X110976307Y-99031071D01*
X110976307Y-99031071D02*
X110833450Y-99066785D01*
X110833450Y-99066785D02*
X110654878Y-99066785D01*
X110654878Y-99066785D02*
X110512021Y-99031071D01*
X110512021Y-99031071D02*
X110440592Y-98995357D01*
X110440592Y-98995357D02*
X110404878Y-98959643D01*
X110404878Y-98959643D02*
X110369164Y-98888214D01*
X110619164Y-97995357D02*
X111119164Y-97995357D01*
X110333450Y-98173928D02*
X110869164Y-98352499D01*
X110869164Y-98352499D02*
X110869164Y-97888214D01*
X110029164Y-83775714D02*
X110636307Y-83775714D01*
X110636307Y-83775714D02*
X110707735Y-83740000D01*
X110707735Y-83740000D02*
X110743450Y-83704286D01*
X110743450Y-83704286D02*
X110779164Y-83632857D01*
X110779164Y-83632857D02*
X110779164Y-83490000D01*
X110779164Y-83490000D02*
X110743450Y-83418571D01*
X110743450Y-83418571D02*
X110707735Y-83382857D01*
X110707735Y-83382857D02*
X110636307Y-83347143D01*
X110636307Y-83347143D02*
X110029164Y-83347143D01*
X110279164Y-82668572D02*
X110779164Y-82668572D01*
X109993450Y-82847143D02*
X110529164Y-83025714D01*
X110529164Y-83025714D02*
X110529164Y-82561429D01*
X110029164Y-82132857D02*
X110029164Y-82061428D01*
X110029164Y-82061428D02*
X110064878Y-81990000D01*
X110064878Y-81990000D02*
X110100592Y-81954286D01*
X110100592Y-81954286D02*
X110172021Y-81918571D01*
X110172021Y-81918571D02*
X110314878Y-81882857D01*
X110314878Y-81882857D02*
X110493450Y-81882857D01*
X110493450Y-81882857D02*
X110636307Y-81918571D01*
X110636307Y-81918571D02*
X110707735Y-81954286D01*
X110707735Y-81954286D02*
X110743450Y-81990000D01*
X110743450Y-81990000D02*
X110779164Y-82061428D01*
X110779164Y-82061428D02*
X110779164Y-82132857D01*
X110779164Y-82132857D02*
X110743450Y-82204286D01*
X110743450Y-82204286D02*
X110707735Y-82240000D01*
X110707735Y-82240000D02*
X110636307Y-82275714D01*
X110636307Y-82275714D02*
X110493450Y-82311428D01*
X110493450Y-82311428D02*
X110314878Y-82311428D01*
X110314878Y-82311428D02*
X110172021Y-82275714D01*
X110172021Y-82275714D02*
X110100592Y-82240000D01*
X110100592Y-82240000D02*
X110064878Y-82204286D01*
X110064878Y-82204286D02*
X110029164Y-82132857D01*
X110100592Y-81597142D02*
X110064878Y-81561428D01*
X110064878Y-81561428D02*
X110029164Y-81490000D01*
X110029164Y-81490000D02*
X110029164Y-81311428D01*
X110029164Y-81311428D02*
X110064878Y-81240000D01*
X110064878Y-81240000D02*
X110100592Y-81204285D01*
X110100592Y-81204285D02*
X110172021Y-81168571D01*
X110172021Y-81168571D02*
X110243450Y-81168571D01*
X110243450Y-81168571D02*
X110350592Y-81204285D01*
X110350592Y-81204285D02*
X110779164Y-81632857D01*
X110779164Y-81632857D02*
X110779164Y-81168571D01*
X115350713Y-82107735D02*
X115314999Y-82143450D01*
X115314999Y-82143450D02*
X115207856Y-82179164D01*
X115207856Y-82179164D02*
X115136428Y-82179164D01*
X115136428Y-82179164D02*
X115029285Y-82143450D01*
X115029285Y-82143450D02*
X114957856Y-82072021D01*
X114957856Y-82072021D02*
X114922142Y-82000592D01*
X114922142Y-82000592D02*
X114886428Y-81857735D01*
X114886428Y-81857735D02*
X114886428Y-81750592D01*
X114886428Y-81750592D02*
X114922142Y-81607735D01*
X114922142Y-81607735D02*
X114957856Y-81536307D01*
X114957856Y-81536307D02*
X115029285Y-81464878D01*
X115029285Y-81464878D02*
X115136428Y-81429164D01*
X115136428Y-81429164D02*
X115207856Y-81429164D01*
X115207856Y-81429164D02*
X115314999Y-81464878D01*
X115314999Y-81464878D02*
X115350713Y-81500592D01*
X115993571Y-81679164D02*
X115993571Y-82179164D01*
X115814999Y-81393450D02*
X115636428Y-81929164D01*
X115636428Y-81929164D02*
X116100713Y-81929164D01*
X116529285Y-81429164D02*
X116600714Y-81429164D01*
X116600714Y-81429164D02*
X116672142Y-81464878D01*
X116672142Y-81464878D02*
X116707857Y-81500592D01*
X116707857Y-81500592D02*
X116743571Y-81572021D01*
X116743571Y-81572021D02*
X116779285Y-81714878D01*
X116779285Y-81714878D02*
X116779285Y-81893450D01*
X116779285Y-81893450D02*
X116743571Y-82036307D01*
X116743571Y-82036307D02*
X116707857Y-82107735D01*
X116707857Y-82107735D02*
X116672142Y-82143450D01*
X116672142Y-82143450D02*
X116600714Y-82179164D01*
X116600714Y-82179164D02*
X116529285Y-82179164D01*
X116529285Y-82179164D02*
X116457857Y-82143450D01*
X116457857Y-82143450D02*
X116422142Y-82107735D01*
X116422142Y-82107735D02*
X116386428Y-82036307D01*
X116386428Y-82036307D02*
X116350714Y-81893450D01*
X116350714Y-81893450D02*
X116350714Y-81714878D01*
X116350714Y-81714878D02*
X116386428Y-81572021D01*
X116386428Y-81572021D02*
X116422142Y-81500592D01*
X116422142Y-81500592D02*
X116457857Y-81464878D01*
X116457857Y-81464878D02*
X116529285Y-81429164D01*
X117493571Y-82179164D02*
X117065000Y-82179164D01*
X117279285Y-82179164D02*
X117279285Y-81429164D01*
X117279285Y-81429164D02*
X117207857Y-81536307D01*
X117207857Y-81536307D02*
X117136428Y-81607735D01*
X117136428Y-81607735D02*
X117065000Y-81643450D01*
X108363213Y-95379164D02*
X108113213Y-95022021D01*
X107934642Y-95379164D02*
X107934642Y-94629164D01*
X107934642Y-94629164D02*
X108220356Y-94629164D01*
X108220356Y-94629164D02*
X108291785Y-94664878D01*
X108291785Y-94664878D02*
X108327499Y-94700592D01*
X108327499Y-94700592D02*
X108363213Y-94772021D01*
X108363213Y-94772021D02*
X108363213Y-94879164D01*
X108363213Y-94879164D02*
X108327499Y-94950592D01*
X108327499Y-94950592D02*
X108291785Y-94986307D01*
X108291785Y-94986307D02*
X108220356Y-95022021D01*
X108220356Y-95022021D02*
X107934642Y-95022021D01*
X108613213Y-94629164D02*
X109113213Y-94629164D01*
X109113213Y-94629164D02*
X108791785Y-95379164D01*
X109791785Y-95379164D02*
X109363214Y-95379164D01*
X109577499Y-95379164D02*
X109577499Y-94629164D01*
X109577499Y-94629164D02*
X109506071Y-94736307D01*
X109506071Y-94736307D02*
X109434642Y-94807735D01*
X109434642Y-94807735D02*
X109363214Y-94843450D01*
X110470357Y-94629164D02*
X110113214Y-94629164D01*
X110113214Y-94629164D02*
X110077500Y-94986307D01*
X110077500Y-94986307D02*
X110113214Y-94950592D01*
X110113214Y-94950592D02*
X110184643Y-94914878D01*
X110184643Y-94914878D02*
X110363214Y-94914878D01*
X110363214Y-94914878D02*
X110434643Y-94950592D01*
X110434643Y-94950592D02*
X110470357Y-94986307D01*
X110470357Y-94986307D02*
X110506071Y-95057735D01*
X110506071Y-95057735D02*
X110506071Y-95236307D01*
X110506071Y-95236307D02*
X110470357Y-95307735D01*
X110470357Y-95307735D02*
X110434643Y-95343450D01*
X110434643Y-95343450D02*
X110363214Y-95379164D01*
X110363214Y-95379164D02*
X110184643Y-95379164D01*
X110184643Y-95379164D02*
X110113214Y-95343450D01*
X110113214Y-95343450D02*
X110077500Y-95307735D01*
X113759164Y-99046786D02*
X113402021Y-99296786D01*
X113759164Y-99475357D02*
X113009164Y-99475357D01*
X113009164Y-99475357D02*
X113009164Y-99189643D01*
X113009164Y-99189643D02*
X113044878Y-99118214D01*
X113044878Y-99118214D02*
X113080592Y-99082500D01*
X113080592Y-99082500D02*
X113152021Y-99046786D01*
X113152021Y-99046786D02*
X113259164Y-99046786D01*
X113259164Y-99046786D02*
X113330592Y-99082500D01*
X113330592Y-99082500D02*
X113366307Y-99118214D01*
X113366307Y-99118214D02*
X113402021Y-99189643D01*
X113402021Y-99189643D02*
X113402021Y-99475357D01*
X113009164Y-98796786D02*
X113009164Y-98296786D01*
X113009164Y-98296786D02*
X113759164Y-98618214D01*
X113009164Y-97868214D02*
X113009164Y-97796785D01*
X113009164Y-97796785D02*
X113044878Y-97725357D01*
X113044878Y-97725357D02*
X113080592Y-97689643D01*
X113080592Y-97689643D02*
X113152021Y-97653928D01*
X113152021Y-97653928D02*
X113294878Y-97618214D01*
X113294878Y-97618214D02*
X113473450Y-97618214D01*
X113473450Y-97618214D02*
X113616307Y-97653928D01*
X113616307Y-97653928D02*
X113687735Y-97689643D01*
X113687735Y-97689643D02*
X113723450Y-97725357D01*
X113723450Y-97725357D02*
X113759164Y-97796785D01*
X113759164Y-97796785D02*
X113759164Y-97868214D01*
X113759164Y-97868214D02*
X113723450Y-97939643D01*
X113723450Y-97939643D02*
X113687735Y-97975357D01*
X113687735Y-97975357D02*
X113616307Y-98011071D01*
X113616307Y-98011071D02*
X113473450Y-98046785D01*
X113473450Y-98046785D02*
X113294878Y-98046785D01*
X113294878Y-98046785D02*
X113152021Y-98011071D01*
X113152021Y-98011071D02*
X113080592Y-97975357D01*
X113080592Y-97975357D02*
X113044878Y-97939643D01*
X113044878Y-97939643D02*
X113009164Y-97868214D01*
X113759164Y-96903928D02*
X113759164Y-97332499D01*
X113759164Y-97118214D02*
X113009164Y-97118214D01*
X113009164Y-97118214D02*
X113116307Y-97189642D01*
X113116307Y-97189642D02*
X113187735Y-97261071D01*
X113187735Y-97261071D02*
X113223450Y-97332499D01*
X105769164Y-96174286D02*
X105412021Y-96424286D01*
X105769164Y-96602857D02*
X105019164Y-96602857D01*
X105019164Y-96602857D02*
X105019164Y-96317143D01*
X105019164Y-96317143D02*
X105054878Y-96245714D01*
X105054878Y-96245714D02*
X105090592Y-96210000D01*
X105090592Y-96210000D02*
X105162021Y-96174286D01*
X105162021Y-96174286D02*
X105269164Y-96174286D01*
X105269164Y-96174286D02*
X105340592Y-96210000D01*
X105340592Y-96210000D02*
X105376307Y-96245714D01*
X105376307Y-96245714D02*
X105412021Y-96317143D01*
X105412021Y-96317143D02*
X105412021Y-96602857D01*
X105019164Y-95924286D02*
X105019164Y-95424286D01*
X105019164Y-95424286D02*
X105769164Y-95745714D01*
X105769164Y-94745714D02*
X105769164Y-95174285D01*
X105769164Y-94960000D02*
X105019164Y-94960000D01*
X105019164Y-94960000D02*
X105126307Y-95031428D01*
X105126307Y-95031428D02*
X105197735Y-95102857D01*
X105197735Y-95102857D02*
X105233450Y-95174285D01*
X105019164Y-94495714D02*
X105019164Y-93995714D01*
X105019164Y-93995714D02*
X105769164Y-94317142D01*
X107666709Y-91206360D02*
X107742471Y-90777045D01*
X107363663Y-90903314D02*
X107893994Y-90372984D01*
X107893994Y-90372984D02*
X108096024Y-90575015D01*
X108096024Y-90575015D02*
X108121278Y-90650776D01*
X108121278Y-90650776D02*
X108121278Y-90701284D01*
X108121278Y-90701284D02*
X108096024Y-90777045D01*
X108096024Y-90777045D02*
X108020263Y-90852807D01*
X108020263Y-90852807D02*
X107944501Y-90878060D01*
X107944501Y-90878060D02*
X107893994Y-90878060D01*
X107893994Y-90878060D02*
X107818232Y-90852807D01*
X107818232Y-90852807D02*
X107616202Y-90650776D01*
X108373816Y-90852807D02*
X108702116Y-91181106D01*
X108702116Y-91181106D02*
X108323308Y-91206360D01*
X108323308Y-91206360D02*
X108399070Y-91282121D01*
X108399070Y-91282121D02*
X108424324Y-91357883D01*
X108424324Y-91357883D02*
X108424324Y-91408390D01*
X108424324Y-91408390D02*
X108399070Y-91484152D01*
X108399070Y-91484152D02*
X108272801Y-91610421D01*
X108272801Y-91610421D02*
X108197039Y-91635675D01*
X108197039Y-91635675D02*
X108146532Y-91635675D01*
X108146532Y-91635675D02*
X108070770Y-91610421D01*
X108070770Y-91610421D02*
X107919247Y-91458898D01*
X107919247Y-91458898D02*
X107893994Y-91383137D01*
X107893994Y-91383137D02*
X107893994Y-91332629D01*
X109030415Y-91509406D02*
X109080923Y-91559914D01*
X109080923Y-91559914D02*
X109106177Y-91635675D01*
X109106177Y-91635675D02*
X109106177Y-91686183D01*
X109106177Y-91686183D02*
X109080923Y-91761944D01*
X109080923Y-91761944D02*
X109005162Y-91888213D01*
X109005162Y-91888213D02*
X108878892Y-92014482D01*
X108878892Y-92014482D02*
X108752623Y-92090244D01*
X108752623Y-92090244D02*
X108676862Y-92115497D01*
X108676862Y-92115497D02*
X108626354Y-92115497D01*
X108626354Y-92115497D02*
X108550593Y-92090244D01*
X108550593Y-92090244D02*
X108500085Y-92039736D01*
X108500085Y-92039736D02*
X108474831Y-91963975D01*
X108474831Y-91963975D02*
X108474831Y-91913467D01*
X108474831Y-91913467D02*
X108500085Y-91837705D01*
X108500085Y-91837705D02*
X108575847Y-91711436D01*
X108575847Y-91711436D02*
X108702116Y-91585167D01*
X108702116Y-91585167D02*
X108828385Y-91509406D01*
X108828385Y-91509406D02*
X108904146Y-91484152D01*
X108904146Y-91484152D02*
X108954654Y-91484152D01*
X108954654Y-91484152D02*
X109030415Y-91509406D01*
X109484984Y-92317528D02*
X109131431Y-92671082D01*
X109560746Y-91989229D02*
X109055669Y-92241767D01*
X109055669Y-92241767D02*
X109383969Y-92570066D01*
X118409164Y-100405714D02*
X119016307Y-100405714D01*
X119016307Y-100405714D02*
X119087735Y-100370000D01*
X119087735Y-100370000D02*
X119123450Y-100334286D01*
X119123450Y-100334286D02*
X119159164Y-100262857D01*
X119159164Y-100262857D02*
X119159164Y-100120000D01*
X119159164Y-100120000D02*
X119123450Y-100048571D01*
X119123450Y-100048571D02*
X119087735Y-100012857D01*
X119087735Y-100012857D02*
X119016307Y-99977143D01*
X119016307Y-99977143D02*
X118409164Y-99977143D01*
X118409164Y-99691429D02*
X118409164Y-99191429D01*
X118409164Y-99191429D02*
X119159164Y-99512857D01*
X118409164Y-98762857D02*
X118409164Y-98691428D01*
X118409164Y-98691428D02*
X118444878Y-98620000D01*
X118444878Y-98620000D02*
X118480592Y-98584286D01*
X118480592Y-98584286D02*
X118552021Y-98548571D01*
X118552021Y-98548571D02*
X118694878Y-98512857D01*
X118694878Y-98512857D02*
X118873450Y-98512857D01*
X118873450Y-98512857D02*
X119016307Y-98548571D01*
X119016307Y-98548571D02*
X119087735Y-98584286D01*
X119087735Y-98584286D02*
X119123450Y-98620000D01*
X119123450Y-98620000D02*
X119159164Y-98691428D01*
X119159164Y-98691428D02*
X119159164Y-98762857D01*
X119159164Y-98762857D02*
X119123450Y-98834286D01*
X119123450Y-98834286D02*
X119087735Y-98870000D01*
X119087735Y-98870000D02*
X119016307Y-98905714D01*
X119016307Y-98905714D02*
X118873450Y-98941428D01*
X118873450Y-98941428D02*
X118694878Y-98941428D01*
X118694878Y-98941428D02*
X118552021Y-98905714D01*
X118552021Y-98905714D02*
X118480592Y-98870000D01*
X118480592Y-98870000D02*
X118444878Y-98834286D01*
X118444878Y-98834286D02*
X118409164Y-98762857D01*
X119159164Y-97798571D02*
X119159164Y-98227142D01*
X119159164Y-98012857D02*
X118409164Y-98012857D01*
X118409164Y-98012857D02*
X118516307Y-98084285D01*
X118516307Y-98084285D02*
X118587735Y-98155714D01*
X118587735Y-98155714D02*
X118623450Y-98227142D01*
X114974820Y-100474799D02*
X115212915Y-100474799D01*
X115117677Y-100712894D02*
X115212915Y-100474799D01*
X115212915Y-100474799D02*
X115117677Y-100236704D01*
X115403391Y-100617656D02*
X115212915Y-100474799D01*
X115212915Y-100474799D02*
X115403391Y-100331942D01*
X111989164Y-95579286D02*
X111632021Y-95829286D01*
X111989164Y-96007857D02*
X111239164Y-96007857D01*
X111239164Y-96007857D02*
X111239164Y-95722143D01*
X111239164Y-95722143D02*
X111274878Y-95650714D01*
X111274878Y-95650714D02*
X111310592Y-95615000D01*
X111310592Y-95615000D02*
X111382021Y-95579286D01*
X111382021Y-95579286D02*
X111489164Y-95579286D01*
X111489164Y-95579286D02*
X111560592Y-95615000D01*
X111560592Y-95615000D02*
X111596307Y-95650714D01*
X111596307Y-95650714D02*
X111632021Y-95722143D01*
X111632021Y-95722143D02*
X111632021Y-96007857D01*
X111239164Y-95329286D02*
X111239164Y-94829286D01*
X111239164Y-94829286D02*
X111989164Y-95150714D01*
X111989164Y-94150714D02*
X111989164Y-94579285D01*
X111989164Y-94365000D02*
X111239164Y-94365000D01*
X111239164Y-94365000D02*
X111346307Y-94436428D01*
X111346307Y-94436428D02*
X111417735Y-94507857D01*
X111417735Y-94507857D02*
X111453450Y-94579285D01*
X111310592Y-93864999D02*
X111274878Y-93829285D01*
X111274878Y-93829285D02*
X111239164Y-93757857D01*
X111239164Y-93757857D02*
X111239164Y-93579285D01*
X111239164Y-93579285D02*
X111274878Y-93507857D01*
X111274878Y-93507857D02*
X111310592Y-93472142D01*
X111310592Y-93472142D02*
X111382021Y-93436428D01*
X111382021Y-93436428D02*
X111453450Y-93436428D01*
X111453450Y-93436428D02*
X111560592Y-93472142D01*
X111560592Y-93472142D02*
X111989164Y-93900714D01*
X111989164Y-93900714D02*
X111989164Y-93436428D01*
X116250000Y-108939164D02*
X116500000Y-109689164D01*
X116500000Y-109689164D02*
X116750000Y-108939164D01*
X117428571Y-109617735D02*
X117392857Y-109653450D01*
X117392857Y-109653450D02*
X117285714Y-109689164D01*
X117285714Y-109689164D02*
X117214286Y-109689164D01*
X117214286Y-109689164D02*
X117107143Y-109653450D01*
X117107143Y-109653450D02*
X117035714Y-109582021D01*
X117035714Y-109582021D02*
X117000000Y-109510592D01*
X117000000Y-109510592D02*
X116964286Y-109367735D01*
X116964286Y-109367735D02*
X116964286Y-109260592D01*
X116964286Y-109260592D02*
X117000000Y-109117735D01*
X117000000Y-109117735D02*
X117035714Y-109046307D01*
X117035714Y-109046307D02*
X117107143Y-108974878D01*
X117107143Y-108974878D02*
X117214286Y-108939164D01*
X117214286Y-108939164D02*
X117285714Y-108939164D01*
X117285714Y-108939164D02*
X117392857Y-108974878D01*
X117392857Y-108974878D02*
X117428571Y-109010592D01*
X118178571Y-109617735D02*
X118142857Y-109653450D01*
X118142857Y-109653450D02*
X118035714Y-109689164D01*
X118035714Y-109689164D02*
X117964286Y-109689164D01*
X117964286Y-109689164D02*
X117857143Y-109653450D01*
X117857143Y-109653450D02*
X117785714Y-109582021D01*
X117785714Y-109582021D02*
X117750000Y-109510592D01*
X117750000Y-109510592D02*
X117714286Y-109367735D01*
X117714286Y-109367735D02*
X117714286Y-109260592D01*
X117714286Y-109260592D02*
X117750000Y-109117735D01*
X117750000Y-109117735D02*
X117785714Y-109046307D01*
X117785714Y-109046307D02*
X117857143Y-108974878D01*
X117857143Y-108974878D02*
X117964286Y-108939164D01*
X117964286Y-108939164D02*
X118035714Y-108939164D01*
X118035714Y-108939164D02*
X118142857Y-108974878D01*
X118142857Y-108974878D02*
X118178571Y-109010592D01*
X113474285Y-105240592D02*
X113402856Y-105204878D01*
X113402856Y-105204878D02*
X113331428Y-105133450D01*
X113331428Y-105133450D02*
X113224285Y-105026307D01*
X113224285Y-105026307D02*
X113152856Y-104990592D01*
X113152856Y-104990592D02*
X113081428Y-104990592D01*
X113117142Y-105169164D02*
X113045714Y-105133450D01*
X113045714Y-105133450D02*
X112974285Y-105062021D01*
X112974285Y-105062021D02*
X112938571Y-104919164D01*
X112938571Y-104919164D02*
X112938571Y-104669164D01*
X112938571Y-104669164D02*
X112974285Y-104526307D01*
X112974285Y-104526307D02*
X113045714Y-104454878D01*
X113045714Y-104454878D02*
X113117142Y-104419164D01*
X113117142Y-104419164D02*
X113259999Y-104419164D01*
X113259999Y-104419164D02*
X113331428Y-104454878D01*
X113331428Y-104454878D02*
X113402856Y-104526307D01*
X113402856Y-104526307D02*
X113438571Y-104669164D01*
X113438571Y-104669164D02*
X113438571Y-104919164D01*
X113438571Y-104919164D02*
X113402856Y-105062021D01*
X113402856Y-105062021D02*
X113331428Y-105133450D01*
X113331428Y-105133450D02*
X113259999Y-105169164D01*
X113259999Y-105169164D02*
X113117142Y-105169164D01*
X113688570Y-104419164D02*
X114188570Y-104419164D01*
X114188570Y-104419164D02*
X113867142Y-105169164D01*
X114617142Y-104419164D02*
X114688571Y-104419164D01*
X114688571Y-104419164D02*
X114759999Y-104454878D01*
X114759999Y-104454878D02*
X114795714Y-104490592D01*
X114795714Y-104490592D02*
X114831428Y-104562021D01*
X114831428Y-104562021D02*
X114867142Y-104704878D01*
X114867142Y-104704878D02*
X114867142Y-104883450D01*
X114867142Y-104883450D02*
X114831428Y-105026307D01*
X114831428Y-105026307D02*
X114795714Y-105097735D01*
X114795714Y-105097735D02*
X114759999Y-105133450D01*
X114759999Y-105133450D02*
X114688571Y-105169164D01*
X114688571Y-105169164D02*
X114617142Y-105169164D01*
X114617142Y-105169164D02*
X114545714Y-105133450D01*
X114545714Y-105133450D02*
X114509999Y-105097735D01*
X114509999Y-105097735D02*
X114474285Y-105026307D01*
X114474285Y-105026307D02*
X114438571Y-104883450D01*
X114438571Y-104883450D02*
X114438571Y-104704878D01*
X114438571Y-104704878D02*
X114474285Y-104562021D01*
X114474285Y-104562021D02*
X114509999Y-104490592D01*
X114509999Y-104490592D02*
X114545714Y-104454878D01*
X114545714Y-104454878D02*
X114617142Y-104419164D01*
X115581428Y-105169164D02*
X115152857Y-105169164D01*
X115367142Y-105169164D02*
X115367142Y-104419164D01*
X115367142Y-104419164D02*
X115295714Y-104526307D01*
X115295714Y-104526307D02*
X115224285Y-104597735D01*
X115224285Y-104597735D02*
X115152857Y-104633450D01*
X108658213Y-109719164D02*
X108408213Y-109362021D01*
X108229642Y-109719164D02*
X108229642Y-108969164D01*
X108229642Y-108969164D02*
X108515356Y-108969164D01*
X108515356Y-108969164D02*
X108586785Y-109004878D01*
X108586785Y-109004878D02*
X108622499Y-109040592D01*
X108622499Y-109040592D02*
X108658213Y-109112021D01*
X108658213Y-109112021D02*
X108658213Y-109219164D01*
X108658213Y-109219164D02*
X108622499Y-109290592D01*
X108622499Y-109290592D02*
X108586785Y-109326307D01*
X108586785Y-109326307D02*
X108515356Y-109362021D01*
X108515356Y-109362021D02*
X108229642Y-109362021D01*
X108943928Y-109040592D02*
X108979642Y-109004878D01*
X108979642Y-109004878D02*
X109051071Y-108969164D01*
X109051071Y-108969164D02*
X109229642Y-108969164D01*
X109229642Y-108969164D02*
X109301071Y-109004878D01*
X109301071Y-109004878D02*
X109336785Y-109040592D01*
X109336785Y-109040592D02*
X109372499Y-109112021D01*
X109372499Y-109112021D02*
X109372499Y-109183450D01*
X109372499Y-109183450D02*
X109336785Y-109290592D01*
X109336785Y-109290592D02*
X108908213Y-109719164D01*
X108908213Y-109719164D02*
X109372499Y-109719164D01*
X109836785Y-108969164D02*
X109908214Y-108969164D01*
X109908214Y-108969164D02*
X109979642Y-109004878D01*
X109979642Y-109004878D02*
X110015357Y-109040592D01*
X110015357Y-109040592D02*
X110051071Y-109112021D01*
X110051071Y-109112021D02*
X110086785Y-109254878D01*
X110086785Y-109254878D02*
X110086785Y-109433450D01*
X110086785Y-109433450D02*
X110051071Y-109576307D01*
X110051071Y-109576307D02*
X110015357Y-109647735D01*
X110015357Y-109647735D02*
X109979642Y-109683450D01*
X109979642Y-109683450D02*
X109908214Y-109719164D01*
X109908214Y-109719164D02*
X109836785Y-109719164D01*
X109836785Y-109719164D02*
X109765357Y-109683450D01*
X109765357Y-109683450D02*
X109729642Y-109647735D01*
X109729642Y-109647735D02*
X109693928Y-109576307D01*
X109693928Y-109576307D02*
X109658214Y-109433450D01*
X109658214Y-109433450D02*
X109658214Y-109254878D01*
X109658214Y-109254878D02*
X109693928Y-109112021D01*
X109693928Y-109112021D02*
X109729642Y-109040592D01*
X109729642Y-109040592D02*
X109765357Y-109004878D01*
X109765357Y-109004878D02*
X109836785Y-108969164D01*
X110801071Y-109719164D02*
X110372500Y-109719164D01*
X110586785Y-109719164D02*
X110586785Y-108969164D01*
X110586785Y-108969164D02*
X110515357Y-109076307D01*
X110515357Y-109076307D02*
X110443928Y-109147735D01*
X110443928Y-109147735D02*
X110372500Y-109183450D01*
X120594164Y-87900715D02*
X121201307Y-87900715D01*
X121201307Y-87900715D02*
X121272735Y-87865001D01*
X121272735Y-87865001D02*
X121308450Y-87829287D01*
X121308450Y-87829287D02*
X121344164Y-87757858D01*
X121344164Y-87757858D02*
X121344164Y-87615001D01*
X121344164Y-87615001D02*
X121308450Y-87543572D01*
X121308450Y-87543572D02*
X121272735Y-87507858D01*
X121272735Y-87507858D02*
X121201307Y-87472144D01*
X121201307Y-87472144D02*
X120594164Y-87472144D01*
X120844164Y-86793573D02*
X121344164Y-86793573D01*
X120558450Y-86972144D02*
X121094164Y-87150715D01*
X121094164Y-87150715D02*
X121094164Y-86686430D01*
X120594164Y-86257858D02*
X120594164Y-86186429D01*
X120594164Y-86186429D02*
X120629878Y-86115001D01*
X120629878Y-86115001D02*
X120665592Y-86079287D01*
X120665592Y-86079287D02*
X120737021Y-86043572D01*
X120737021Y-86043572D02*
X120879878Y-86007858D01*
X120879878Y-86007858D02*
X121058450Y-86007858D01*
X121058450Y-86007858D02*
X121201307Y-86043572D01*
X121201307Y-86043572D02*
X121272735Y-86079287D01*
X121272735Y-86079287D02*
X121308450Y-86115001D01*
X121308450Y-86115001D02*
X121344164Y-86186429D01*
X121344164Y-86186429D02*
X121344164Y-86257858D01*
X121344164Y-86257858D02*
X121308450Y-86329287D01*
X121308450Y-86329287D02*
X121272735Y-86365001D01*
X121272735Y-86365001D02*
X121201307Y-86400715D01*
X121201307Y-86400715D02*
X121058450Y-86436429D01*
X121058450Y-86436429D02*
X120879878Y-86436429D01*
X120879878Y-86436429D02*
X120737021Y-86400715D01*
X120737021Y-86400715D02*
X120665592Y-86365001D01*
X120665592Y-86365001D02*
X120629878Y-86329287D01*
X120629878Y-86329287D02*
X120594164Y-86257858D01*
X120594164Y-85757858D02*
X120594164Y-85293572D01*
X120594164Y-85293572D02*
X120879878Y-85543572D01*
X120879878Y-85543572D02*
X120879878Y-85436429D01*
X120879878Y-85436429D02*
X120915592Y-85365001D01*
X120915592Y-85365001D02*
X120951307Y-85329286D01*
X120951307Y-85329286D02*
X121022735Y-85293572D01*
X121022735Y-85293572D02*
X121201307Y-85293572D01*
X121201307Y-85293572D02*
X121272735Y-85329286D01*
X121272735Y-85329286D02*
X121308450Y-85365001D01*
X121308450Y-85365001D02*
X121344164Y-85436429D01*
X121344164Y-85436429D02*
X121344164Y-85650715D01*
X121344164Y-85650715D02*
X121308450Y-85722143D01*
X121308450Y-85722143D02*
X121272735Y-85757858D01*
X113750713Y-56967735D02*
X113714999Y-57003450D01*
X113714999Y-57003450D02*
X113607856Y-57039164D01*
X113607856Y-57039164D02*
X113536428Y-57039164D01*
X113536428Y-57039164D02*
X113429285Y-57003450D01*
X113429285Y-57003450D02*
X113357856Y-56932021D01*
X113357856Y-56932021D02*
X113322142Y-56860592D01*
X113322142Y-56860592D02*
X113286428Y-56717735D01*
X113286428Y-56717735D02*
X113286428Y-56610592D01*
X113286428Y-56610592D02*
X113322142Y-56467735D01*
X113322142Y-56467735D02*
X113357856Y-56396307D01*
X113357856Y-56396307D02*
X113429285Y-56324878D01*
X113429285Y-56324878D02*
X113536428Y-56289164D01*
X113536428Y-56289164D02*
X113607856Y-56289164D01*
X113607856Y-56289164D02*
X113714999Y-56324878D01*
X113714999Y-56324878D02*
X113750713Y-56360592D01*
X114393571Y-56539164D02*
X114393571Y-57039164D01*
X114214999Y-56253450D02*
X114036428Y-56789164D01*
X114036428Y-56789164D02*
X114500713Y-56789164D01*
X114929285Y-56289164D02*
X115000714Y-56289164D01*
X115000714Y-56289164D02*
X115072142Y-56324878D01*
X115072142Y-56324878D02*
X115107857Y-56360592D01*
X115107857Y-56360592D02*
X115143571Y-56432021D01*
X115143571Y-56432021D02*
X115179285Y-56574878D01*
X115179285Y-56574878D02*
X115179285Y-56753450D01*
X115179285Y-56753450D02*
X115143571Y-56896307D01*
X115143571Y-56896307D02*
X115107857Y-56967735D01*
X115107857Y-56967735D02*
X115072142Y-57003450D01*
X115072142Y-57003450D02*
X115000714Y-57039164D01*
X115000714Y-57039164D02*
X114929285Y-57039164D01*
X114929285Y-57039164D02*
X114857857Y-57003450D01*
X114857857Y-57003450D02*
X114822142Y-56967735D01*
X114822142Y-56967735D02*
X114786428Y-56896307D01*
X114786428Y-56896307D02*
X114750714Y-56753450D01*
X114750714Y-56753450D02*
X114750714Y-56574878D01*
X114750714Y-56574878D02*
X114786428Y-56432021D01*
X114786428Y-56432021D02*
X114822142Y-56360592D01*
X114822142Y-56360592D02*
X114857857Y-56324878D01*
X114857857Y-56324878D02*
X114929285Y-56289164D01*
X115857857Y-56289164D02*
X115500714Y-56289164D01*
X115500714Y-56289164D02*
X115465000Y-56646307D01*
X115465000Y-56646307D02*
X115500714Y-56610592D01*
X115500714Y-56610592D02*
X115572143Y-56574878D01*
X115572143Y-56574878D02*
X115750714Y-56574878D01*
X115750714Y-56574878D02*
X115822143Y-56610592D01*
X115822143Y-56610592D02*
X115857857Y-56646307D01*
X115857857Y-56646307D02*
X115893571Y-56717735D01*
X115893571Y-56717735D02*
X115893571Y-56896307D01*
X115893571Y-56896307D02*
X115857857Y-56967735D01*
X115857857Y-56967735D02*
X115822143Y-57003450D01*
X115822143Y-57003450D02*
X115750714Y-57039164D01*
X115750714Y-57039164D02*
X115572143Y-57039164D01*
X115572143Y-57039164D02*
X115500714Y-57003450D01*
X115500714Y-57003450D02*
X115465000Y-56967735D01*
X115638570Y-105489164D02*
X116102856Y-105489164D01*
X116102856Y-105489164D02*
X115852856Y-105774878D01*
X115852856Y-105774878D02*
X115959999Y-105774878D01*
X115959999Y-105774878D02*
X116031428Y-105810592D01*
X116031428Y-105810592D02*
X116067142Y-105846307D01*
X116067142Y-105846307D02*
X116102856Y-105917735D01*
X116102856Y-105917735D02*
X116102856Y-106096307D01*
X116102856Y-106096307D02*
X116067142Y-106167735D01*
X116067142Y-106167735D02*
X116031428Y-106203450D01*
X116031428Y-106203450D02*
X115959999Y-106239164D01*
X115959999Y-106239164D02*
X115745713Y-106239164D01*
X115745713Y-106239164D02*
X115674285Y-106203450D01*
X115674285Y-106203450D02*
X115638570Y-106167735D01*
X116424285Y-106167735D02*
X116459999Y-106203450D01*
X116459999Y-106203450D02*
X116424285Y-106239164D01*
X116424285Y-106239164D02*
X116388571Y-106203450D01*
X116388571Y-106203450D02*
X116424285Y-106167735D01*
X116424285Y-106167735D02*
X116424285Y-106239164D01*
X116709999Y-105489164D02*
X117174285Y-105489164D01*
X117174285Y-105489164D02*
X116924285Y-105774878D01*
X116924285Y-105774878D02*
X117031428Y-105774878D01*
X117031428Y-105774878D02*
X117102857Y-105810592D01*
X117102857Y-105810592D02*
X117138571Y-105846307D01*
X117138571Y-105846307D02*
X117174285Y-105917735D01*
X117174285Y-105917735D02*
X117174285Y-106096307D01*
X117174285Y-106096307D02*
X117138571Y-106167735D01*
X117138571Y-106167735D02*
X117102857Y-106203450D01*
X117102857Y-106203450D02*
X117031428Y-106239164D01*
X117031428Y-106239164D02*
X116817142Y-106239164D01*
X116817142Y-106239164D02*
X116745714Y-106203450D01*
X116745714Y-106203450D02*
X116709999Y-106167735D01*
X117424285Y-105739164D02*
X117602857Y-106239164D01*
X117602857Y-106239164D02*
X117781428Y-105739164D01*
X112407142Y-106769164D02*
X112407142Y-106019164D01*
X112407142Y-106019164D02*
X112585713Y-106019164D01*
X112585713Y-106019164D02*
X112692856Y-106054878D01*
X112692856Y-106054878D02*
X112764285Y-106126307D01*
X112764285Y-106126307D02*
X112799999Y-106197735D01*
X112799999Y-106197735D02*
X112835713Y-106340592D01*
X112835713Y-106340592D02*
X112835713Y-106447735D01*
X112835713Y-106447735D02*
X112799999Y-106590592D01*
X112799999Y-106590592D02*
X112764285Y-106662021D01*
X112764285Y-106662021D02*
X112692856Y-106733450D01*
X112692856Y-106733450D02*
X112585713Y-106769164D01*
X112585713Y-106769164D02*
X112407142Y-106769164D01*
X113121428Y-106090592D02*
X113157142Y-106054878D01*
X113157142Y-106054878D02*
X113228571Y-106019164D01*
X113228571Y-106019164D02*
X113407142Y-106019164D01*
X113407142Y-106019164D02*
X113478571Y-106054878D01*
X113478571Y-106054878D02*
X113514285Y-106090592D01*
X113514285Y-106090592D02*
X113549999Y-106162021D01*
X113549999Y-106162021D02*
X113549999Y-106233450D01*
X113549999Y-106233450D02*
X113514285Y-106340592D01*
X113514285Y-106340592D02*
X113085713Y-106769164D01*
X113085713Y-106769164D02*
X113549999Y-106769164D01*
X114014285Y-106019164D02*
X114085714Y-106019164D01*
X114085714Y-106019164D02*
X114157142Y-106054878D01*
X114157142Y-106054878D02*
X114192857Y-106090592D01*
X114192857Y-106090592D02*
X114228571Y-106162021D01*
X114228571Y-106162021D02*
X114264285Y-106304878D01*
X114264285Y-106304878D02*
X114264285Y-106483450D01*
X114264285Y-106483450D02*
X114228571Y-106626307D01*
X114228571Y-106626307D02*
X114192857Y-106697735D01*
X114192857Y-106697735D02*
X114157142Y-106733450D01*
X114157142Y-106733450D02*
X114085714Y-106769164D01*
X114085714Y-106769164D02*
X114014285Y-106769164D01*
X114014285Y-106769164D02*
X113942857Y-106733450D01*
X113942857Y-106733450D02*
X113907142Y-106697735D01*
X113907142Y-106697735D02*
X113871428Y-106626307D01*
X113871428Y-106626307D02*
X113835714Y-106483450D01*
X113835714Y-106483450D02*
X113835714Y-106304878D01*
X113835714Y-106304878D02*
X113871428Y-106162021D01*
X113871428Y-106162021D02*
X113907142Y-106090592D01*
X113907142Y-106090592D02*
X113942857Y-106054878D01*
X113942857Y-106054878D02*
X114014285Y-106019164D01*
X114550000Y-106090592D02*
X114585714Y-106054878D01*
X114585714Y-106054878D02*
X114657143Y-106019164D01*
X114657143Y-106019164D02*
X114835714Y-106019164D01*
X114835714Y-106019164D02*
X114907143Y-106054878D01*
X114907143Y-106054878D02*
X114942857Y-106090592D01*
X114942857Y-106090592D02*
X114978571Y-106162021D01*
X114978571Y-106162021D02*
X114978571Y-106233450D01*
X114978571Y-106233450D02*
X114942857Y-106340592D01*
X114942857Y-106340592D02*
X114514285Y-106769164D01*
X114514285Y-106769164D02*
X114978571Y-106769164D01*
X121159164Y-66706786D02*
X120802021Y-66956786D01*
X121159164Y-67135357D02*
X120409164Y-67135357D01*
X120409164Y-67135357D02*
X120409164Y-66849643D01*
X120409164Y-66849643D02*
X120444878Y-66778214D01*
X120444878Y-66778214D02*
X120480592Y-66742500D01*
X120480592Y-66742500D02*
X120552021Y-66706786D01*
X120552021Y-66706786D02*
X120659164Y-66706786D01*
X120659164Y-66706786D02*
X120730592Y-66742500D01*
X120730592Y-66742500D02*
X120766307Y-66778214D01*
X120766307Y-66778214D02*
X120802021Y-66849643D01*
X120802021Y-66849643D02*
X120802021Y-67135357D01*
X120659164Y-66063929D02*
X121159164Y-66063929D01*
X120373450Y-66242500D02*
X120909164Y-66421071D01*
X120909164Y-66421071D02*
X120909164Y-65956786D01*
X120409164Y-65528214D02*
X120409164Y-65456785D01*
X120409164Y-65456785D02*
X120444878Y-65385357D01*
X120444878Y-65385357D02*
X120480592Y-65349643D01*
X120480592Y-65349643D02*
X120552021Y-65313928D01*
X120552021Y-65313928D02*
X120694878Y-65278214D01*
X120694878Y-65278214D02*
X120873450Y-65278214D01*
X120873450Y-65278214D02*
X121016307Y-65313928D01*
X121016307Y-65313928D02*
X121087735Y-65349643D01*
X121087735Y-65349643D02*
X121123450Y-65385357D01*
X121123450Y-65385357D02*
X121159164Y-65456785D01*
X121159164Y-65456785D02*
X121159164Y-65528214D01*
X121159164Y-65528214D02*
X121123450Y-65599643D01*
X121123450Y-65599643D02*
X121087735Y-65635357D01*
X121087735Y-65635357D02*
X121016307Y-65671071D01*
X121016307Y-65671071D02*
X120873450Y-65706785D01*
X120873450Y-65706785D02*
X120694878Y-65706785D01*
X120694878Y-65706785D02*
X120552021Y-65671071D01*
X120552021Y-65671071D02*
X120480592Y-65635357D01*
X120480592Y-65635357D02*
X120444878Y-65599643D01*
X120444878Y-65599643D02*
X120409164Y-65528214D01*
X120480592Y-64992499D02*
X120444878Y-64956785D01*
X120444878Y-64956785D02*
X120409164Y-64885357D01*
X120409164Y-64885357D02*
X120409164Y-64706785D01*
X120409164Y-64706785D02*
X120444878Y-64635357D01*
X120444878Y-64635357D02*
X120480592Y-64599642D01*
X120480592Y-64599642D02*
X120552021Y-64563928D01*
X120552021Y-64563928D02*
X120623450Y-64563928D01*
X120623450Y-64563928D02*
X120730592Y-64599642D01*
X120730592Y-64599642D02*
X121159164Y-65028214D01*
X121159164Y-65028214D02*
X121159164Y-64563928D01*
X107877735Y-89354287D02*
X107913450Y-89390001D01*
X107913450Y-89390001D02*
X107949164Y-89497144D01*
X107949164Y-89497144D02*
X107949164Y-89568572D01*
X107949164Y-89568572D02*
X107913450Y-89675715D01*
X107913450Y-89675715D02*
X107842021Y-89747144D01*
X107842021Y-89747144D02*
X107770592Y-89782858D01*
X107770592Y-89782858D02*
X107627735Y-89818572D01*
X107627735Y-89818572D02*
X107520592Y-89818572D01*
X107520592Y-89818572D02*
X107377735Y-89782858D01*
X107377735Y-89782858D02*
X107306307Y-89747144D01*
X107306307Y-89747144D02*
X107234878Y-89675715D01*
X107234878Y-89675715D02*
X107199164Y-89568572D01*
X107199164Y-89568572D02*
X107199164Y-89497144D01*
X107199164Y-89497144D02*
X107234878Y-89390001D01*
X107234878Y-89390001D02*
X107270592Y-89354287D01*
X107449164Y-88711430D02*
X107949164Y-88711430D01*
X107163450Y-88890001D02*
X107699164Y-89068572D01*
X107699164Y-89068572D02*
X107699164Y-88604287D01*
X107199164Y-88175715D02*
X107199164Y-88104286D01*
X107199164Y-88104286D02*
X107234878Y-88032858D01*
X107234878Y-88032858D02*
X107270592Y-87997144D01*
X107270592Y-87997144D02*
X107342021Y-87961429D01*
X107342021Y-87961429D02*
X107484878Y-87925715D01*
X107484878Y-87925715D02*
X107663450Y-87925715D01*
X107663450Y-87925715D02*
X107806307Y-87961429D01*
X107806307Y-87961429D02*
X107877735Y-87997144D01*
X107877735Y-87997144D02*
X107913450Y-88032858D01*
X107913450Y-88032858D02*
X107949164Y-88104286D01*
X107949164Y-88104286D02*
X107949164Y-88175715D01*
X107949164Y-88175715D02*
X107913450Y-88247144D01*
X107913450Y-88247144D02*
X107877735Y-88282858D01*
X107877735Y-88282858D02*
X107806307Y-88318572D01*
X107806307Y-88318572D02*
X107663450Y-88354286D01*
X107663450Y-88354286D02*
X107484878Y-88354286D01*
X107484878Y-88354286D02*
X107342021Y-88318572D01*
X107342021Y-88318572D02*
X107270592Y-88282858D01*
X107270592Y-88282858D02*
X107234878Y-88247144D01*
X107234878Y-88247144D02*
X107199164Y-88175715D01*
X107199164Y-87675715D02*
X107199164Y-87211429D01*
X107199164Y-87211429D02*
X107484878Y-87461429D01*
X107484878Y-87461429D02*
X107484878Y-87354286D01*
X107484878Y-87354286D02*
X107520592Y-87282858D01*
X107520592Y-87282858D02*
X107556307Y-87247143D01*
X107556307Y-87247143D02*
X107627735Y-87211429D01*
X107627735Y-87211429D02*
X107806307Y-87211429D01*
X107806307Y-87211429D02*
X107877735Y-87247143D01*
X107877735Y-87247143D02*
X107913450Y-87282858D01*
X107913450Y-87282858D02*
X107949164Y-87354286D01*
X107949164Y-87354286D02*
X107949164Y-87568572D01*
X107949164Y-87568572D02*
X107913450Y-87640000D01*
X107913450Y-87640000D02*
X107877735Y-87675715D01*
X105840713Y-105989164D02*
X105590713Y-105632021D01*
X105412142Y-105989164D02*
X105412142Y-105239164D01*
X105412142Y-105239164D02*
X105697856Y-105239164D01*
X105697856Y-105239164D02*
X105769285Y-105274878D01*
X105769285Y-105274878D02*
X105804999Y-105310592D01*
X105804999Y-105310592D02*
X105840713Y-105382021D01*
X105840713Y-105382021D02*
X105840713Y-105489164D01*
X105840713Y-105489164D02*
X105804999Y-105560592D01*
X105804999Y-105560592D02*
X105769285Y-105596307D01*
X105769285Y-105596307D02*
X105697856Y-105632021D01*
X105697856Y-105632021D02*
X105412142Y-105632021D01*
X106090713Y-105239164D02*
X106590713Y-105239164D01*
X106590713Y-105239164D02*
X106269285Y-105989164D01*
X107269285Y-105989164D02*
X106840714Y-105989164D01*
X107054999Y-105989164D02*
X107054999Y-105239164D01*
X107054999Y-105239164D02*
X106983571Y-105346307D01*
X106983571Y-105346307D02*
X106912142Y-105417735D01*
X106912142Y-105417735D02*
X106840714Y-105453450D01*
X107912143Y-105489164D02*
X107912143Y-105989164D01*
X107733571Y-105203450D02*
X107555000Y-105739164D01*
X107555000Y-105739164D02*
X108019285Y-105739164D01*
D14*
%TO.C,R301*%
X125027500Y-86977224D02*
X125027500Y-86467776D01*
X126072500Y-86977224D02*
X126072500Y-86467776D01*
%TO.C,D201*%
X111982500Y-110075000D02*
X111982500Y-111545000D01*
X111982500Y-111545000D02*
X114442500Y-111545000D01*
X114442500Y-110075000D02*
X111982500Y-110075000D01*
%TO.C,R707*%
X111477500Y-102705276D02*
X111477500Y-103214724D01*
X112522500Y-102705276D02*
X112522500Y-103214724D01*
%TO.C,C402*%
X111710000Y-85673733D02*
X111710000Y-85966267D01*
X112730000Y-85673733D02*
X112730000Y-85966267D01*
%TO.C,R716*%
X105537500Y-102417258D02*
X105537500Y-101942742D01*
X106582500Y-102417258D02*
X106582500Y-101942742D01*
D15*
%TO.C,U702*%
X115699001Y-92863000D02*
X115699001Y-95217000D01*
X118053001Y-95217000D02*
X118053001Y-92863000D01*
D14*
%TO.C,R711*%
X116672742Y-96027500D02*
X117147258Y-96027500D01*
X116672742Y-97072500D02*
X117147258Y-97072500D01*
%TO.C,C301*%
X122673733Y-67130000D02*
X122966267Y-67130000D01*
X122673733Y-68150000D02*
X122966267Y-68150000D01*
%TO.C,R710*%
X114067500Y-92315276D02*
X114067500Y-92824724D01*
X115112500Y-92315276D02*
X115112500Y-92824724D01*
%TO.C,U401*%
X108150000Y-87220000D02*
X108150000Y-87980000D01*
X108150000Y-87980000D02*
X109230000Y-87980000D01*
X108470000Y-86900000D02*
X109230000Y-86900000D01*
X109230000Y-87980000D02*
X109230000Y-86900000D01*
X108150000Y-86900000D02*
X107650000Y-86900000D01*
X108150000Y-86400000D01*
X108150000Y-86900000D01*
G36*
X108150000Y-86900000D02*
G01*
X107650000Y-86900000D01*
X108150000Y-86400000D01*
X108150000Y-86900000D01*
G37*
D12*
%TO.C,G501*%
G36*
X105000979Y-88639362D02*
G01*
X105056319Y-88649851D01*
X105104224Y-88670213D01*
X105145827Y-88700851D01*
X105162752Y-88718047D01*
X105189834Y-88755660D01*
X105206042Y-88797261D01*
X105212372Y-88845614D01*
X105212541Y-88856121D01*
X105208174Y-88905471D01*
X105194289Y-88947685D01*
X105169708Y-88985971D01*
X105161152Y-88995974D01*
X105123396Y-89030191D01*
X105080061Y-89054377D01*
X105029819Y-89068992D01*
X104971341Y-89074491D01*
X104935312Y-89073803D01*
X104903509Y-89071625D01*
X104879838Y-89068140D01*
X104859142Y-89062027D01*
X104836265Y-89051966D01*
X104821734Y-89044705D01*
X104776485Y-89016214D01*
X104742834Y-88982193D01*
X104719882Y-88941283D01*
X104706729Y-88892127D01*
X104703744Y-88866662D01*
X104703943Y-88839213D01*
X104707640Y-88810931D01*
X104709650Y-88802500D01*
X104730156Y-88751710D01*
X104760278Y-88709987D01*
X104799732Y-88677536D01*
X104848230Y-88654565D01*
X104905484Y-88641280D01*
X104937067Y-88638347D01*
X105000979Y-88639362D01*
G37*
G36*
X105045793Y-87918448D02*
G01*
X105156099Y-87935015D01*
X105260033Y-87963223D01*
X105357821Y-88003183D01*
X105449690Y-88055003D01*
X105535868Y-88118792D01*
X105612281Y-88190169D01*
X105681842Y-88271027D01*
X105739870Y-88357604D01*
X105786917Y-88450903D01*
X105823536Y-88551926D01*
X105835504Y-88595185D01*
X105853686Y-88666767D01*
X105853686Y-90646678D01*
X105853683Y-90838989D01*
X105853676Y-91018469D01*
X105853659Y-91185572D01*
X105853631Y-91340756D01*
X105853589Y-91484476D01*
X105853529Y-91617189D01*
X105853450Y-91739351D01*
X105853348Y-91851417D01*
X105853221Y-91953843D01*
X105853066Y-92047089D01*
X105852879Y-92131606D01*
X105852660Y-92207853D01*
X105852402Y-92276285D01*
X105852106Y-92337358D01*
X105851768Y-92391530D01*
X105851384Y-92439255D01*
X105850953Y-92480989D01*
X105850472Y-92517190D01*
X105849937Y-92548313D01*
X105849345Y-92574814D01*
X105848695Y-92597149D01*
X105847984Y-92615775D01*
X105847206Y-92631147D01*
X105846364Y-92643722D01*
X105845450Y-92653955D01*
X105844464Y-92662304D01*
X105843401Y-92669223D01*
X105842261Y-92675170D01*
X105841241Y-92679741D01*
X105809587Y-92787702D01*
X105767003Y-92888643D01*
X105713884Y-92982046D01*
X105650626Y-93067398D01*
X105577625Y-93144181D01*
X105495274Y-93211879D01*
X105403969Y-93269977D01*
X105379293Y-93283198D01*
X105287751Y-93324719D01*
X105196013Y-93354320D01*
X105101391Y-93372646D01*
X105001200Y-93380343D01*
X104973657Y-93380683D01*
X104863234Y-93374721D01*
X104758459Y-93356755D01*
X104659039Y-93326668D01*
X104564677Y-93284342D01*
X104475081Y-93229657D01*
X104389955Y-93162496D01*
X104358846Y-93133802D01*
X104288187Y-93058708D01*
X104228737Y-92979427D01*
X104179600Y-92894356D01*
X104139888Y-92801890D01*
X104108708Y-92700427D01*
X104101594Y-92671097D01*
X104092123Y-92629911D01*
X104444196Y-92629911D01*
X104445158Y-92693029D01*
X104578880Y-92694825D01*
X104712602Y-92696622D01*
X104715411Y-92637888D01*
X104721058Y-92590401D01*
X104733704Y-92552186D01*
X104754499Y-92520580D01*
X104774853Y-92500686D01*
X104817474Y-92472478D01*
X104866375Y-92452896D01*
X104919158Y-92441867D01*
X104973419Y-92439317D01*
X105026757Y-92445175D01*
X105076768Y-92459366D01*
X105121052Y-92481818D01*
X105157087Y-92512325D01*
X105181886Y-92544604D01*
X105197164Y-92577702D01*
X105204498Y-92615918D01*
X105205750Y-92644995D01*
X105205896Y-92696621D01*
X105343759Y-92694825D01*
X105481622Y-92693029D01*
X105480555Y-92609979D01*
X105477186Y-92543849D01*
X105468238Y-92485767D01*
X105452686Y-92431296D01*
X105429502Y-92376000D01*
X105423710Y-92364151D01*
X105391091Y-92310755D01*
X105348714Y-92259549D01*
X105299823Y-92213822D01*
X105247659Y-92176863D01*
X105228774Y-92166376D01*
X105185260Y-92145472D01*
X105145590Y-92130053D01*
X105106327Y-92119376D01*
X105064031Y-92112700D01*
X105015264Y-92109282D01*
X104960068Y-92108377D01*
X104906852Y-92109019D01*
X104863550Y-92111395D01*
X104826831Y-92116194D01*
X104793359Y-92124111D01*
X104759803Y-92135840D01*
X104722830Y-92152076D01*
X104702039Y-92162091D01*
X104637309Y-92201117D01*
X104581077Y-92250225D01*
X104533985Y-92308781D01*
X104507111Y-92354455D01*
X104479059Y-92415567D01*
X104459894Y-92473780D01*
X104448615Y-92533474D01*
X104444221Y-92599031D01*
X104444196Y-92629911D01*
X104092123Y-92629911D01*
X104086775Y-92606657D01*
X104085654Y-91706396D01*
X104455124Y-91706396D01*
X104455124Y-91872496D01*
X104455124Y-92038596D01*
X104960068Y-92038596D01*
X104963390Y-92038596D01*
X105471656Y-92038596D01*
X105471656Y-91872496D01*
X105471656Y-91706396D01*
X104963390Y-91706396D01*
X104455124Y-91706396D01*
X104085654Y-91706396D01*
X104085157Y-91307756D01*
X104455124Y-91307756D01*
X104455124Y-91473856D01*
X104455124Y-91639956D01*
X104963390Y-91639957D01*
X105471656Y-91639956D01*
X105471656Y-91473856D01*
X105471656Y-91307756D01*
X104963390Y-91307756D01*
X104455124Y-91307756D01*
X104085157Y-91307756D01*
X104084787Y-91010437D01*
X104083738Y-90169197D01*
X104455125Y-90169197D01*
X104762409Y-90264436D01*
X104823735Y-90283499D01*
X104881190Y-90301471D01*
X104933525Y-90317949D01*
X104979490Y-90332537D01*
X105017838Y-90344837D01*
X105047317Y-90354448D01*
X105066681Y-90360974D01*
X105074678Y-90364016D01*
X105074777Y-90364085D01*
X105069645Y-90366838D01*
X105052983Y-90373054D01*
X105025980Y-90382345D01*
X104989825Y-90394323D01*
X104945706Y-90408599D01*
X104894811Y-90424787D01*
X104838330Y-90442498D01*
X104777450Y-90461343D01*
X104767501Y-90464401D01*
X104455140Y-90560306D01*
X104455132Y-90726447D01*
X104455125Y-90892587D01*
X104959096Y-91076918D01*
X105037305Y-91105504D01*
X105111903Y-91132733D01*
X105181950Y-91158265D01*
X105246507Y-91181758D01*
X105304632Y-91202873D01*
X105355387Y-91221266D01*
X105397833Y-91236600D01*
X105431028Y-91248531D01*
X105454033Y-91256717D01*
X105465909Y-91260824D01*
X105467362Y-91261249D01*
X105468552Y-91254905D01*
X105469614Y-91237078D01*
X105470503Y-91209570D01*
X105471169Y-91174190D01*
X105471564Y-91132734D01*
X105471656Y-91099728D01*
X105471656Y-90938208D01*
X105147761Y-90843030D01*
X105084052Y-90824271D01*
X105023736Y-90806437D01*
X104968108Y-90789917D01*
X104918465Y-90775100D01*
X104876101Y-90762372D01*
X104842311Y-90752123D01*
X104818393Y-90744740D01*
X104805641Y-90740612D01*
X104804442Y-90740171D01*
X104801119Y-90738698D01*
X104799210Y-90737111D01*
X104799461Y-90735173D01*
X104802619Y-90732647D01*
X104809431Y-90729298D01*
X104820645Y-90724888D01*
X104837007Y-90719182D01*
X104859265Y-90711943D01*
X104888167Y-90702934D01*
X104924459Y-90691919D01*
X104968888Y-90678664D01*
X105022203Y-90662929D01*
X105085149Y-90644480D01*
X105158474Y-90623079D01*
X105242927Y-90598489D01*
X105339252Y-90570477D01*
X105358708Y-90564821D01*
X105468334Y-90532951D01*
X105470112Y-90372661D01*
X105471890Y-90212372D01*
X105416960Y-90195810D01*
X105398854Y-90190442D01*
X105369617Y-90181881D01*
X105330890Y-90170607D01*
X105284315Y-90157093D01*
X105231532Y-90141816D01*
X105174183Y-90125253D01*
X105113908Y-90107877D01*
X105079660Y-90098019D01*
X105020756Y-90081011D01*
X104965794Y-90065020D01*
X104916090Y-90050438D01*
X104872962Y-90037657D01*
X104837727Y-90027068D01*
X104811701Y-90019065D01*
X104796201Y-90014037D01*
X104792310Y-90012492D01*
X104797523Y-90009857D01*
X104814341Y-90003875D01*
X104841607Y-89994906D01*
X104878168Y-89983311D01*
X104922867Y-89969449D01*
X104974547Y-89953680D01*
X105032056Y-89936366D01*
X105094236Y-89917867D01*
X105122334Y-89909575D01*
X105186640Y-89890601D01*
X105247165Y-89872658D01*
X105302695Y-89856111D01*
X105352021Y-89841327D01*
X105393928Y-89828670D01*
X105427208Y-89818504D01*
X105450643Y-89811196D01*
X105463025Y-89807110D01*
X105464614Y-89806458D01*
X105467101Y-89799368D01*
X105468897Y-89781258D01*
X105470019Y-89751606D01*
X105470481Y-89709892D01*
X105470304Y-89655593D01*
X105470111Y-89635310D01*
X105468334Y-89468657D01*
X104961843Y-89652384D01*
X104455353Y-89836111D01*
X104455239Y-90002654D01*
X104455125Y-90169197D01*
X104083738Y-90169197D01*
X104082796Y-89414216D01*
X104777227Y-89414217D01*
X105468334Y-89414217D01*
X105471656Y-89414217D01*
X105471656Y-89244795D01*
X105471656Y-89075373D01*
X105407105Y-89075373D01*
X105342552Y-89075374D01*
X105376555Y-89040492D01*
X105419460Y-88988641D01*
X105451706Y-88931173D01*
X105465658Y-88895985D01*
X105474060Y-88861755D01*
X105479432Y-88818633D01*
X105481718Y-88770679D01*
X105480861Y-88721952D01*
X105476806Y-88676512D01*
X105469496Y-88638418D01*
X105469229Y-88637444D01*
X105442581Y-88565092D01*
X105404879Y-88499894D01*
X105356647Y-88442479D01*
X105298407Y-88393479D01*
X105235794Y-88356050D01*
X105174223Y-88331067D01*
X105104518Y-88312929D01*
X105030248Y-88302201D01*
X104954988Y-88299439D01*
X104898550Y-88303102D01*
X104845138Y-88310308D01*
X104800449Y-88319262D01*
X104759929Y-88331240D01*
X104719020Y-88347517D01*
X104687664Y-88362178D01*
X104624620Y-88399731D01*
X104569196Y-88446470D01*
X104523076Y-88500738D01*
X104489706Y-88557141D01*
X104461806Y-88629582D01*
X104446011Y-88705764D01*
X104441836Y-88774717D01*
X104447649Y-88847527D01*
X104464980Y-88914235D01*
X104493666Y-88974417D01*
X104533546Y-89027649D01*
X104541475Y-89036025D01*
X104579977Y-89075374D01*
X104331519Y-89075373D01*
X104083060Y-89075373D01*
X104084177Y-88914256D01*
X104084592Y-88867684D01*
X104085150Y-88824127D01*
X104085811Y-88785812D01*
X104086533Y-88754962D01*
X104087273Y-88733805D01*
X104087719Y-88726563D01*
X104103655Y-88622045D01*
X104131627Y-88521021D01*
X104170888Y-88424495D01*
X104220687Y-88333474D01*
X104280275Y-88248966D01*
X104348904Y-88171977D01*
X104425823Y-88103516D01*
X104510285Y-88044589D01*
X104601539Y-87996203D01*
X104644478Y-87978191D01*
X104744849Y-87945609D01*
X104846575Y-87924599D01*
X104947665Y-87915457D01*
X105045793Y-87918448D01*
G37*
D14*
%TO.C,R202*%
X109260276Y-107337500D02*
X109769724Y-107337500D01*
X109260276Y-108382500D02*
X109769724Y-108382500D01*
%TO.C,R713*%
X108747500Y-102717224D02*
X108747500Y-102207776D01*
X109792500Y-102717224D02*
X109792500Y-102207776D01*
%TO.C,R708*%
X118004724Y-91097500D02*
X117495276Y-91097500D01*
X118004724Y-92142500D02*
X117495276Y-92142500D01*
%TO.C,U404*%
X102570000Y-58920000D02*
X102570000Y-74640000D01*
X113880000Y-58920000D02*
X102570000Y-58920000D01*
X118290000Y-58920000D02*
X114580000Y-58920000D01*
X118290000Y-58920000D02*
X118290000Y-74640000D01*
X118290000Y-74640000D02*
X102570000Y-74640000D01*
X114230000Y-58920000D02*
X113990001Y-58590000D01*
X114470000Y-58590000D01*
X114230000Y-58920000D01*
G36*
X114230000Y-58920000D02*
G01*
X113990001Y-58590000D01*
X114470000Y-58590000D01*
X114230000Y-58920000D01*
G37*
%TO.C,J504*%
X98420000Y-94960000D02*
X98420000Y-96280000D01*
X98420000Y-96880000D02*
X98420000Y-105820000D01*
X99039999Y-94960000D02*
X99040000Y-105820000D01*
X104340000Y-94960000D02*
X104340000Y-105820000D01*
X104860000Y-94960000D02*
X98420000Y-94960000D01*
X104860000Y-94960000D02*
X104860000Y-105820000D01*
X104860000Y-105820000D02*
X98420000Y-105820000D01*
X98420000Y-96580000D02*
X97810000Y-97020000D01*
X97810000Y-96140000D01*
X98420000Y-96580000D01*
G36*
X98420000Y-96580000D02*
G01*
X97810000Y-97020000D01*
X97810000Y-96140000D01*
X98420000Y-96580000D01*
G37*
%TO.C,R703*%
X118657500Y-104237258D02*
X118657500Y-103762742D01*
X119702500Y-104237258D02*
X119702500Y-103762742D01*
%TO.C,J505*%
X98255000Y-88220000D02*
X98255000Y-92100000D01*
X100225000Y-87050000D02*
X102725001Y-87050000D01*
X100225000Y-93270000D02*
X102725001Y-93270000D01*
X102725001Y-87050000D02*
X102725001Y-88100000D01*
X102725001Y-88100000D02*
X103715000Y-88100000D01*
X102725001Y-93270000D02*
X102725001Y-92220000D01*
%TO.C,J507*%
X98540000Y-60570000D02*
X99920000Y-60570000D01*
X98540000Y-61950000D02*
X98540000Y-60570000D01*
X98540000Y-63220000D02*
X98540000Y-73490000D01*
X98540000Y-63220000D02*
X101300000Y-63220000D01*
X98540000Y-73490000D02*
X101300000Y-73490000D01*
X101300000Y-63220000D02*
X101300000Y-73490000D01*
%TO.C,J502*%
X101450000Y-75540000D02*
X103150000Y-75540000D01*
X101450000Y-84880000D02*
X103150000Y-84880000D01*
%TO.C,J503*%
X120480000Y-89880000D02*
X126920000Y-89880000D01*
X120480000Y-105820000D02*
X120480000Y-89880000D01*
X120480000Y-105820000D02*
X126920000Y-105820000D01*
X121000000Y-105820000D02*
X121000000Y-89880000D01*
X126300001Y-105820000D02*
X126300001Y-89880000D01*
X126920000Y-103900000D02*
X126920000Y-89880000D01*
X126920000Y-105820000D02*
X126920000Y-104500000D01*
X127530000Y-104640000D02*
X126920000Y-104200000D01*
X127530000Y-103760000D01*
X127530000Y-104640000D01*
G36*
X127530000Y-104640000D02*
G01*
X126920000Y-104200000D01*
X127530000Y-103760000D01*
X127530000Y-104640000D01*
G37*
%TO.C,C404*%
X120083733Y-83430000D02*
X120376267Y-83430000D01*
X120083733Y-84450000D02*
X120376267Y-84450000D01*
%TO.C,U301*%
X119580000Y-70370000D02*
X119850000Y-70370000D01*
X119580000Y-73130000D02*
X119580000Y-70370000D01*
X119580000Y-73130000D02*
X119580000Y-75890000D01*
X119580000Y-75890000D02*
X119850000Y-75890000D01*
X125100000Y-70370000D02*
X124830000Y-70370000D01*
X125100000Y-73130000D02*
X125100000Y-70370000D01*
X125100000Y-73130000D02*
X125100000Y-75890000D01*
X125100000Y-75890000D02*
X124830000Y-75890000D01*
X119850001Y-76655000D02*
X119520000Y-76895000D01*
X119520000Y-76415000D01*
X119850001Y-76655000D01*
G36*
X119850001Y-76655000D02*
G01*
X119520000Y-76895000D01*
X119520000Y-76415000D01*
X119850001Y-76655000D01*
G37*
%TO.C,R706*%
X118447258Y-101077500D02*
X117972742Y-101077500D01*
X118447258Y-102122500D02*
X117972742Y-102122500D01*
D15*
%TO.C,U703*%
X106816999Y-97933000D02*
X106816999Y-100287000D01*
X109170999Y-100287000D02*
X109170999Y-97933000D01*
D14*
%TO.C,R704*%
X111477500Y-98972776D02*
X111477500Y-99482224D01*
X112522500Y-98972776D02*
X112522500Y-99482224D01*
%TO.C,U402*%
X111060000Y-83860000D02*
X111060000Y-83685000D01*
X111735000Y-81140000D02*
X111360000Y-81140000D01*
X111735000Y-83860000D02*
X111060000Y-83860000D01*
X113605000Y-81140000D02*
X114280000Y-81140000D01*
X113605000Y-83860000D02*
X114280000Y-83860000D01*
X114280000Y-81140000D02*
X114280000Y-81315000D01*
X114280000Y-83860000D02*
X114280000Y-83685000D01*
X111060000Y-81140000D02*
X110920000Y-80950000D01*
X111200000Y-80950000D01*
X111060000Y-81140000D01*
G36*
X111060000Y-81140000D02*
G01*
X110920000Y-80950000D01*
X111200000Y-80950000D01*
X111060000Y-81140000D01*
G37*
%TO.C,C401*%
X116043733Y-82760000D02*
X116336267Y-82760000D01*
X116043733Y-83780000D02*
X116336267Y-83780000D01*
%TO.C,R715*%
X109457224Y-95747500D02*
X108947776Y-95747500D01*
X109457224Y-96792500D02*
X108947776Y-96792500D01*
%TO.C,R701*%
X114087500Y-97952776D02*
X114087500Y-98462224D01*
X115132500Y-97952776D02*
X115132500Y-98462224D01*
%TO.C,R717*%
X106057500Y-95612224D02*
X106057500Y-95102776D01*
X107102500Y-95612224D02*
X107102500Y-95102776D01*
%TO.C,R304*%
X107510654Y-92889580D02*
X107150420Y-92529346D01*
X108249580Y-92150654D02*
X107889346Y-91790420D01*
D15*
%TO.C,U701*%
X115699001Y-97943000D02*
X115699001Y-100297000D01*
X118053001Y-100297000D02*
X118053001Y-97943000D01*
D14*
%TO.C,R712*%
X113934724Y-94597500D02*
X113425276Y-94597500D01*
X113934724Y-95642500D02*
X113425276Y-95642500D01*
%TO.C,TP201*%
X118200000Y-110800000D02*
G75*
G02*
X116300000Y-110800000I-950000J0D01*
G01*
X116300000Y-110800000D02*
G75*
G02*
X118200000Y-110800000I950000J0D01*
G01*
%TO.C,Q701*%
X114662500Y-101069999D02*
X114012500Y-101070000D01*
X114662500Y-101069999D02*
X115312500Y-101070000D01*
X114662500Y-104190001D02*
X114012500Y-104190000D01*
X114662500Y-104190001D02*
X115312500Y-104190000D01*
X116065000Y-104470000D02*
X115585000Y-104469999D01*
X115825000Y-104140000D01*
X116065000Y-104470000D01*
G36*
X116065000Y-104470000D02*
G01*
X115585000Y-104469999D01*
X115825000Y-104140000D01*
X116065000Y-104470000D01*
G37*
%TO.C,R201*%
X109242776Y-110287500D02*
X109752224Y-110287500D01*
X109242776Y-111332500D02*
X109752224Y-111332500D01*
%TO.C,U403*%
X114755000Y-84965001D02*
X115069000Y-84965001D01*
X114755000Y-85465001D02*
X114755000Y-84965001D01*
X114755000Y-88265001D02*
X114755000Y-87765001D01*
X115069000Y-88265001D02*
X114755000Y-88265001D01*
X119955000Y-85265001D02*
X119955001Y-86015001D01*
X119955000Y-87765001D02*
X119955000Y-88265001D01*
X119955000Y-88265001D02*
X119641000Y-88265001D01*
X120315001Y-85065001D02*
X119955000Y-85065001D01*
X119955001Y-84705001D01*
X120315001Y-85065001D01*
G36*
X120315001Y-85065001D02*
G01*
X119955000Y-85065001D01*
X119955001Y-84705001D01*
X120315001Y-85065001D01*
G37*
%TO.C,C405*%
X112811233Y-57490000D02*
X113103767Y-57490000D01*
X112811233Y-58510000D02*
X113103767Y-58510000D01*
%TO.C,TP202*%
X117650000Y-107370000D02*
G75*
G02*
X115750000Y-107370000I-950000J0D01*
G01*
X115750000Y-107370000D02*
G75*
G02*
X117650000Y-107370000I950000J0D01*
G01*
%TO.C,D202*%
X112015000Y-107125000D02*
X112015000Y-108595000D01*
X112015000Y-108595000D02*
X114475000Y-108595000D01*
X114475000Y-107125000D02*
X112015000Y-107125000D01*
%TO.C,R402*%
X118867500Y-65612776D02*
X118867500Y-66122224D01*
X119912500Y-65612776D02*
X119912500Y-66122224D01*
%TO.C,C403*%
X105970000Y-88396234D02*
X105970000Y-88688768D01*
X106990000Y-88396234D02*
X106990000Y-88688768D01*
%TO.C,R714*%
X107057258Y-103967500D02*
X106582742Y-103967500D01*
X107057258Y-105012500D02*
X106582742Y-105012500D01*
%TD*%
M02*
