%TF.GenerationSoftware,KiCad,Pcbnew,9.0.2*%
%TF.CreationDate,2025-05-21T13:46:10-05:00*%
%TF.ProjectId,Flight Computer v3,466c6967-6874-4204-936f-6d7075746572,rev?*%
%TF.SameCoordinates,Original*%
%TF.FileFunction,Copper,L3,Inr*%
%TF.FilePolarity,Positive*%
%FSLAX46Y46*%
G04 Gerber Fmt 4.6, Leading zero omitted, Abs format (unit mm)*
G04 Created by KiCad (PCBNEW 9.0.2) date 2025-05-21 13:46:10*
%MOMM*%
%LPD*%
G01*
G04 APERTURE LIST*
G04 Aperture macros list*
%AMRoundRect*
0 Rectangle with rounded corners*
0 $1 Rounding radius*
0 $2 $3 $4 $5 $6 $7 $8 $9 X,Y pos of 4 corners*
0 Add a 4 corners polygon primitive as box body*
4,1,4,$2,$3,$4,$5,$6,$7,$8,$9,$2,$3,0*
0 Add four circle primitives for the rounded corners*
1,1,$1+$1,$2,$3*
1,1,$1+$1,$4,$5*
1,1,$1+$1,$6,$7*
1,1,$1+$1,$8,$9*
0 Add four rect primitives between the rounded corners*
20,1,$1+$1,$2,$3,$4,$5,0*
20,1,$1+$1,$4,$5,$6,$7,0*
20,1,$1+$1,$6,$7,$8,$9,0*
20,1,$1+$1,$8,$9,$2,$3,0*%
G04 Aperture macros list end*
%TA.AperFunction,ComponentPad*%
%ADD10C,3.100000*%
%TD*%
%TA.AperFunction,ComponentPad*%
%ADD11C,2.050000*%
%TD*%
%TA.AperFunction,ComponentPad*%
%ADD12C,2.250000*%
%TD*%
%TA.AperFunction,ComponentPad*%
%ADD13R,1.700000X1.700000*%
%TD*%
%TA.AperFunction,ComponentPad*%
%ADD14C,1.700000*%
%TD*%
%TA.AperFunction,HeatsinkPad*%
%ADD15O,1.000000X2.100000*%
%TD*%
%TA.AperFunction,HeatsinkPad*%
%ADD16O,1.000000X1.800000*%
%TD*%
%TA.AperFunction,ComponentPad*%
%ADD17RoundRect,0.249999X0.850001X-0.850001X0.850001X0.850001X-0.850001X0.850001X-0.850001X-0.850001X0*%
%TD*%
%TA.AperFunction,ComponentPad*%
%ADD18C,2.200000*%
%TD*%
%TA.AperFunction,ViaPad*%
%ADD19C,0.600000*%
%TD*%
%TA.AperFunction,ViaPad*%
%ADD20C,0.550000*%
%TD*%
%TA.AperFunction,Conductor*%
%ADD21C,1.750000*%
%TD*%
%TA.AperFunction,Conductor*%
%ADD22C,0.200000*%
%TD*%
G04 APERTURE END LIST*
D10*
%TO.N,GND*%
%TO.C,H604*%
X124700000Y-109500000D03*
%TD*%
%TO.N,GND*%
%TO.C,H601*%
X100700000Y-55500000D03*
%TD*%
D11*
%TO.N,/Radio/radio_out*%
%TO.C,J701*%
X123010000Y-66890000D03*
D12*
%TO.N,GND*%
X120470000Y-64350000D03*
X120470000Y-69430000D03*
X125550000Y-64350000D03*
X125550000Y-69430000D03*
%TD*%
D13*
%TO.N,VCC*%
%TO.C,J604*%
X104400000Y-104690000D03*
D14*
%TO.N,GND*%
X101860000Y-104690000D03*
%TD*%
D10*
%TO.N,GND*%
%TO.C,H603*%
X100700000Y-109500000D03*
%TD*%
D15*
%TO.N,GND*%
%TO.C,J601*%
X108355000Y-105720000D03*
D16*
X108355000Y-109900000D03*
D15*
X116995000Y-105720000D03*
D16*
X116995000Y-109900000D03*
%TD*%
D17*
%TO.N,VCC*%
%TO.C,J603*%
X124000000Y-104330000D03*
D18*
%TO.N,Pyro_Power*%
X124000000Y-101790000D03*
%TO.N,Pyro1*%
X124000000Y-99250000D03*
%TO.N,GND*%
X124000000Y-96710000D03*
%TO.N,Pyro2*%
X124000000Y-94170000D03*
%TO.N,GND*%
X124000000Y-91630000D03*
%TO.N,Pyro3*%
X124000000Y-89090000D03*
%TO.N,GND*%
X124000000Y-86550000D03*
%TD*%
D10*
%TO.N,GND*%
%TO.C,H602*%
X124700000Y-55500000D03*
%TD*%
D13*
%TO.N,Servo1*%
%TO.C,J605*%
X100210000Y-80640000D03*
D14*
%TO.N,Servo2*%
X100210000Y-83180000D03*
%TO.N,Servo3*%
X100210000Y-85720000D03*
%TO.N,Servo4*%
X100210000Y-88260000D03*
%TO.N,GND*%
X100210000Y-90800000D03*
%TD*%
D19*
%TO.N,GND*%
X104770000Y-83370000D03*
X106280000Y-55300000D03*
X106450000Y-67038527D03*
X106040000Y-78030000D03*
X112940000Y-88110000D03*
X114100000Y-98040000D03*
X105068104Y-60177139D03*
X119290000Y-111200000D03*
X109000000Y-103590000D03*
X105270000Y-109810000D03*
X119000000Y-55250000D03*
X101850000Y-63950000D03*
X99380000Y-74050000D03*
X100864798Y-69474998D03*
X108890000Y-81940000D03*
X119660000Y-105690000D03*
%TO.N,+3.3V*%
X104804765Y-88295235D03*
X113300000Y-79170000D03*
X115370000Y-84220000D03*
X106170000Y-92490000D03*
X106670000Y-56740000D03*
X100804862Y-58698284D03*
X107950000Y-93070000D03*
X114260395Y-56896738D03*
X119870000Y-81430000D03*
X124830000Y-79746000D03*
X111092500Y-57714007D03*
X113190000Y-84910000D03*
X108500000Y-72899998D03*
X105430000Y-102340000D03*
X102150000Y-95990000D03*
X105120000Y-84700000D03*
X104696403Y-67697081D03*
X115585000Y-74335000D03*
X102150000Y-99490000D03*
X112400000Y-65410000D03*
X105230000Y-81070000D03*
X125020000Y-72520000D03*
X112370000Y-90140000D03*
%TO.N,/Radio/3v3_lora*%
X103300002Y-67050002D03*
X98424000Y-62350000D03*
%TO.N,Net-(U701-VREG)*%
X99250000Y-67025000D03*
%TO.N,VCC*%
X110340000Y-107890000D03*
X115070000Y-104070000D03*
X116220000Y-93120000D03*
X116220000Y-98150000D03*
X120265000Y-86310000D03*
X110840000Y-93090000D03*
%TO.N,Net-(J601-CC2)*%
X114430000Y-106120000D03*
%TO.N,USB_D_N*%
X116769231Y-91019231D03*
%TO.N,USB_D_P*%
X112294250Y-103898744D03*
X113417250Y-103880000D03*
X116230769Y-90480769D03*
%TO.N,SWO*%
X109957788Y-86272873D03*
X108715000Y-54500000D03*
D20*
%TO.N,SPI_MISO*%
X103450000Y-60869595D03*
D19*
X117160000Y-76400000D03*
D20*
%TO.N,SPI_SCK*%
X103400000Y-62000000D03*
D19*
X114199999Y-77807457D03*
%TO.N,BOOT0*%
X115910000Y-80580000D03*
X117760000Y-59290000D03*
%TO.N,SWDIO*%
X113770000Y-87500000D03*
X111898685Y-56432869D03*
%TO.N,I2C_SCL*%
X126810000Y-79320000D03*
X107580000Y-56500000D03*
X111750000Y-80770000D03*
X113610000Y-70130000D03*
%TO.N,I2C_SDA*%
X126110000Y-80420000D03*
X109490000Y-79780000D03*
X104534424Y-56496434D03*
X112670000Y-82500000D03*
%TO.N,SWCLK*%
X110091000Y-56542082D03*
X112110000Y-88370000D03*
%TO.N,SPI_MOSI*%
X117160001Y-77226326D03*
X102530246Y-60940821D03*
%TO.N,NRST*%
X112129000Y-79560000D03*
X115220000Y-56590000D03*
%TO.N,SPI_CS1*%
X111410000Y-54500000D03*
X117110000Y-72750002D03*
%TO.N,Pyro_Power*%
X115615000Y-99250000D03*
X121640000Y-92100000D03*
X121640000Y-87020000D03*
X121640000Y-97190000D03*
X115605000Y-94160000D03*
%TO.N,Servo4*%
X109900000Y-89860000D03*
%TO.N,Servo3*%
X112211735Y-76900002D03*
%TO.N,Servo2*%
X112129000Y-72470000D03*
%TO.N,Servo1*%
X110730000Y-71698998D03*
%TO.N,Net-(U701-DCC_SW)*%
X98450000Y-65275000D03*
%TO.N,{slash}GPS_RESET*%
X108094730Y-60905270D03*
X107580000Y-77770000D03*
%TO.N,{slash}GPS_SAFEBOOT*%
X108686681Y-80675154D03*
%TO.N,Pyro1_Trigger*%
X113455750Y-101760000D03*
%TO.N,Pyro2_Trigger*%
X115080000Y-96440000D03*
%TO.N,Pyro3_Trigger*%
X117195706Y-84225680D03*
%TO.N,Pyro3_Cont*%
X120270000Y-84790000D03*
%TO.N,/Radio/CTL*%
X115375000Y-61875000D03*
X99025000Y-63125000D03*
%TO.N,LORA_SEL*%
X119950000Y-85570000D03*
X103460000Y-63200000D03*
%TO.N,IMU_INT1*%
X108235000Y-82649000D03*
%TO.N,IMU_INT2*%
X116960000Y-80680000D03*
%TO.N,GPS_RX*%
X118854411Y-69604658D03*
X115492045Y-85010638D03*
%TO.N,GPS_TX*%
X114409165Y-83850000D03*
X118360000Y-70340000D03*
%TO.N,GPS_INT*%
X108860000Y-71060000D03*
%TO.N,/MCU/FLASH_MISO*%
X112129000Y-78351613D03*
%TO.N,/MCU/{slash}FLASH_WP*%
X120370000Y-75080000D03*
%TO.N,/MCU/FLASH_CLK*%
X120080000Y-77750000D03*
%TO.N,/MCU/FLASH_CS*%
X120460000Y-72530000D03*
%TO.N,/MCU/FLASH_MOSI*%
X113599999Y-77199048D03*
%TO.N,/MCU/{slash}FLASH_RESET*%
X122077077Y-74807199D03*
%TO.N,LORA_BUSY*%
X101826765Y-61321765D03*
X107940000Y-87580000D03*
%TO.N,LORA_DIO1*%
X118140000Y-83380000D03*
X100082155Y-62000000D03*
%TD*%
D21*
%TO.N,VCC*%
X116120000Y-107890000D02*
X120050000Y-107890000D01*
X120050000Y-107890000D02*
X120440000Y-107890000D01*
X107500000Y-107790000D02*
X107600000Y-107890000D01*
X110340000Y-107890000D02*
X116120000Y-107890000D01*
X107600000Y-107890000D02*
X110340000Y-107890000D01*
D22*
X115070000Y-104070000D02*
X116120000Y-105120000D01*
D21*
X104400000Y-104710000D02*
X107480000Y-107790000D01*
X120540000Y-107790000D02*
X124000000Y-104330000D01*
X120440000Y-107890000D02*
X120540000Y-107790000D01*
D22*
X116120000Y-105120000D02*
X116120000Y-107890000D01*
D21*
X104400000Y-104690000D02*
X104400000Y-104710000D01*
X107480000Y-107790000D02*
X107500000Y-107790000D01*
D22*
%TO.N,I2C_SCL*%
X110613252Y-68068632D02*
X110613252Y-67948632D01*
X111529000Y-64261450D02*
X111529000Y-60449000D01*
X111529000Y-72211000D02*
X111529000Y-70948632D01*
X112261000Y-81281000D02*
X111750000Y-80770000D01*
X111289000Y-70108632D02*
X111529000Y-70108632D01*
X111529000Y-69508632D02*
X110853252Y-69508632D01*
X111529000Y-60449000D02*
X107580000Y-56500000D01*
X111750000Y-80770000D02*
X111529000Y-80549000D01*
X126810000Y-79320000D02*
X126105943Y-79320000D01*
X111289000Y-70708632D02*
X110853252Y-70708632D01*
X111529000Y-68908632D02*
X112204752Y-68908632D01*
X111529000Y-68308632D02*
X111289000Y-68308632D01*
X112444752Y-68668632D02*
X112444752Y-68548632D01*
X111529000Y-67468632D02*
X111529000Y-67348632D01*
X110853252Y-70108632D02*
X111289000Y-70108632D01*
X111529000Y-67348632D02*
X111529000Y-64261450D01*
X110853252Y-68908632D02*
X111529000Y-68908632D01*
X111529000Y-80549000D02*
X111529000Y-79838209D01*
X111529000Y-79838209D02*
X111529000Y-76180000D01*
X111529000Y-76180000D02*
X111529000Y-72211000D01*
X110613252Y-69268632D02*
X110613252Y-69148632D01*
X119621057Y-80829000D02*
X119169057Y-81281000D01*
X110853252Y-67708632D02*
X111289000Y-67708632D01*
X111289000Y-68308632D02*
X110853252Y-68308632D01*
X112204749Y-69508632D02*
X111529000Y-69508632D01*
X111529000Y-70108632D02*
X112204749Y-70108632D01*
X126105943Y-79320000D02*
X124596943Y-80829000D01*
X110613252Y-70468632D02*
X110613252Y-70348632D01*
X112444749Y-69868632D02*
X112444749Y-69748632D01*
X112204752Y-68308632D02*
X111529000Y-68308632D01*
X111529000Y-72211000D02*
X113610000Y-70130000D01*
X119169057Y-81281000D02*
X112261000Y-81281000D01*
X124596943Y-80829000D02*
X119621057Y-80829000D01*
X112444749Y-69748632D02*
G75*
G03*
X112204749Y-69508651I-239949J32D01*
G01*
X110853252Y-68308632D02*
G75*
G02*
X110613268Y-68068632I48J240032D01*
G01*
X112204749Y-70108632D02*
G75*
G03*
X112444832Y-69868632I51J240032D01*
G01*
X112444752Y-68548632D02*
G75*
G03*
X112204752Y-68308648I-239952J32D01*
G01*
X110613252Y-69148632D02*
G75*
G02*
X110853252Y-68908552I240048J32D01*
G01*
X112204752Y-68908632D02*
G75*
G03*
X112444832Y-68668632I48J240032D01*
G01*
X110853252Y-70708632D02*
G75*
G02*
X110613268Y-70468632I48J240032D01*
G01*
X110613252Y-70348632D02*
G75*
G02*
X110853252Y-70108552I240048J32D01*
G01*
X111529000Y-70948632D02*
G75*
G03*
X111289000Y-70708600I-240000J32D01*
G01*
X110853252Y-69508632D02*
G75*
G02*
X110613268Y-69268632I48J240032D01*
G01*
X111289000Y-67708632D02*
G75*
G03*
X111529032Y-67468632I0J240032D01*
G01*
X110613252Y-67948632D02*
G75*
G02*
X110853252Y-67708552I240048J32D01*
G01*
%TO.N,I2C_SDA*%
X124285000Y-82245000D02*
X124030000Y-82500000D01*
X125666904Y-82219753D02*
X125582051Y-82304607D01*
X125055771Y-81269208D02*
X125158280Y-81371717D01*
X111453880Y-81743880D02*
X111524590Y-81673169D01*
X111100323Y-81248902D02*
X111029612Y-81319612D01*
X110524891Y-80127272D02*
X110350787Y-80301375D01*
X110775052Y-80725641D02*
X110949156Y-80551537D01*
X109490000Y-79780000D02*
X109490000Y-61452010D01*
X124564311Y-81965692D02*
X124479458Y-82050543D01*
X110984088Y-82213667D02*
X111284172Y-81913584D01*
X110605347Y-80895347D02*
X110775052Y-80725641D01*
X125158280Y-81371717D02*
X125327988Y-81541424D01*
X110605344Y-80895345D02*
X110605347Y-80895347D01*
X125296253Y-80823709D02*
X125055771Y-81064190D01*
X110240341Y-81769472D02*
X110155485Y-81684616D01*
X110155486Y-81345206D02*
X110605344Y-80895345D01*
X111284172Y-81913584D02*
X111453878Y-81743878D01*
X125242639Y-82304608D02*
X124903723Y-81965692D01*
X111453878Y-81743878D02*
X111453880Y-81743880D01*
X110949156Y-80212126D02*
X110864302Y-80127272D01*
X109490000Y-61452010D02*
X104534424Y-56496434D01*
X110011375Y-80301375D02*
X109926523Y-80216523D01*
X109926523Y-80216523D02*
X109490000Y-79780000D01*
X112210000Y-82500000D02*
X112047853Y-82337853D01*
X111708441Y-82337853D02*
X111408356Y-82637935D01*
X111029614Y-81319614D02*
X110579753Y-81769472D01*
X124030000Y-82500000D02*
X112670000Y-82500000D01*
X124479458Y-82050543D02*
X124285000Y-82245000D01*
X125327988Y-81541424D02*
X125666905Y-81880341D01*
X111029612Y-81319612D02*
X111029614Y-81319614D01*
X111524590Y-81531747D02*
X111241745Y-81248902D01*
X111068946Y-82637936D02*
X110984089Y-82553079D01*
X112670000Y-82500000D02*
X112210000Y-82500000D01*
X126110000Y-80420000D02*
X125706291Y-80823709D01*
X125501272Y-80823709D02*
G75*
G03*
X125296254Y-80823709I-102509J-102509D01*
G01*
X110579753Y-81769472D02*
G75*
G02*
X110240341Y-81769472I-169706J169701D01*
G01*
X125706291Y-80823709D02*
G75*
G02*
X125501273Y-80823709I-102509J102509D01*
G01*
X125666905Y-81880341D02*
G75*
G02*
X125666858Y-82219706I-169705J-169659D01*
G01*
X110984089Y-82553079D02*
G75*
G02*
X110984115Y-82213695I169711J169679D01*
G01*
X110350787Y-80301375D02*
G75*
G02*
X110011375Y-80301375I-169706J169704D01*
G01*
X124903723Y-81965692D02*
G75*
G03*
X124564311Y-81965692I-169706J-169701D01*
G01*
X110155485Y-81684616D02*
G75*
G02*
X110155474Y-81345195I169715J169716D01*
G01*
X125582051Y-82304607D02*
G75*
G02*
X125242595Y-82304653I-169751J169707D01*
G01*
X125055771Y-81064190D02*
G75*
G03*
X125055770Y-81269209I102529J-102510D01*
G01*
X110949156Y-80551537D02*
G75*
G03*
X110949188Y-80212094I-169656J169737D01*
G01*
X111241745Y-81248902D02*
G75*
G03*
X111100323Y-81248902I-70711J-70713D01*
G01*
X111524590Y-81673169D02*
G75*
G03*
X111524548Y-81531789I-70690J70669D01*
G01*
X111408356Y-82637935D02*
G75*
G02*
X111068995Y-82637887I-169656J169735D01*
G01*
X110864302Y-80127272D02*
G75*
G03*
X110524890Y-80127271I-169706J-169703D01*
G01*
X112047853Y-82337853D02*
G75*
G03*
X111708441Y-82337853I-169706J-169701D01*
G01*
D21*
%TO.N,Pyro_Power*%
X124000000Y-101790000D02*
X123250000Y-101790000D01*
X121640000Y-94160000D02*
X121640000Y-92100000D01*
X121640000Y-100180000D02*
X121640000Y-99250000D01*
D22*
X115615000Y-99250000D02*
X121640000Y-99250000D01*
D21*
X121640000Y-92100000D02*
X121640000Y-87020000D01*
X121640000Y-99250000D02*
X121640000Y-97190000D01*
D22*
X115605000Y-94160000D02*
X121640000Y-94160000D01*
D21*
X121640000Y-97190000D02*
X121640000Y-94160000D01*
X123250000Y-101790000D02*
X121640000Y-100180000D01*
D22*
%TO.N,{slash}GPS_RESET*%
X107580000Y-77770000D02*
X107580000Y-61420000D01*
X107580000Y-61420000D02*
X108094730Y-60905270D01*
%TO.N,LORA_BUSY*%
X99833212Y-61399000D02*
X99481155Y-61751057D01*
X99481155Y-61751057D02*
X99481155Y-62248943D01*
X99481155Y-62248943D02*
X99660000Y-62427788D01*
X100860354Y-61399000D02*
X99833212Y-61399000D01*
X107940000Y-85597100D02*
X107940000Y-87580000D01*
X101826765Y-61321765D02*
X100937589Y-61321765D01*
X98649000Y-65925943D02*
X98649000Y-76306100D01*
X99660000Y-64914943D02*
X98649000Y-65925943D01*
X98649000Y-76306100D02*
X107940000Y-85597100D01*
X100937589Y-61321765D02*
X100860354Y-61399000D01*
X99660000Y-62427788D02*
X99660000Y-64914943D01*
%TO.N,LORA_DIO1*%
X118009000Y-83249000D02*
X118140000Y-83380000D01*
X100082155Y-62000000D02*
X100082155Y-77172155D01*
X106159000Y-83249000D02*
X118009000Y-83249000D01*
X100082155Y-77172155D02*
X106159000Y-83249000D01*
%TD*%
%TA.AperFunction,Conductor*%
%TO.N,+3.3V*%
G36*
X98156494Y-65741206D02*
G01*
X98236502Y-65787399D01*
X98284716Y-65837966D01*
X98298500Y-65894785D01*
X98298500Y-76352244D01*
X98305209Y-76377280D01*
X98322386Y-76441387D01*
X98322387Y-76441390D01*
X98368527Y-76521308D01*
X98368531Y-76521313D01*
X101175037Y-79327819D01*
X101208522Y-79389142D01*
X101203538Y-79458834D01*
X101161666Y-79514767D01*
X101096202Y-79539184D01*
X101087356Y-79539500D01*
X99335323Y-79539500D01*
X99262264Y-79554032D01*
X99262260Y-79554033D01*
X99179399Y-79609399D01*
X99124033Y-79692260D01*
X99124032Y-79692264D01*
X99109500Y-79765321D01*
X99109500Y-81514678D01*
X99124032Y-81587735D01*
X99124033Y-81587739D01*
X99132232Y-81600009D01*
X99179399Y-81670601D01*
X99262260Y-81725966D01*
X99262264Y-81725967D01*
X99335321Y-81740499D01*
X99335324Y-81740500D01*
X99335326Y-81740500D01*
X101084676Y-81740500D01*
X101084677Y-81740499D01*
X101157740Y-81725966D01*
X101240601Y-81670601D01*
X101295966Y-81587740D01*
X101310500Y-81514674D01*
X101310500Y-79765326D01*
X101310500Y-79762644D01*
X101330185Y-79695605D01*
X101382989Y-79649850D01*
X101452147Y-79639906D01*
X101515703Y-79668931D01*
X101522181Y-79674963D01*
X104536262Y-82689044D01*
X104569747Y-82750367D01*
X104564763Y-82820059D01*
X104522891Y-82875992D01*
X104510583Y-82884111D01*
X104431988Y-82929489D01*
X104431982Y-82929493D01*
X104329493Y-83031982D01*
X104329488Y-83031988D01*
X104257017Y-83157511D01*
X104257016Y-83157515D01*
X104219500Y-83297525D01*
X104219500Y-83442475D01*
X104253129Y-83567979D01*
X104257017Y-83582488D01*
X104329488Y-83708011D01*
X104329490Y-83708013D01*
X104329491Y-83708015D01*
X104431985Y-83810509D01*
X104431986Y-83810510D01*
X104431988Y-83810511D01*
X104557511Y-83882982D01*
X104557512Y-83882982D01*
X104557515Y-83882984D01*
X104697525Y-83920500D01*
X104697528Y-83920500D01*
X104842472Y-83920500D01*
X104842475Y-83920500D01*
X104982485Y-83882984D01*
X105108015Y-83810509D01*
X105210509Y-83708015D01*
X105255887Y-83629417D01*
X105306454Y-83581202D01*
X105375061Y-83567979D01*
X105439926Y-83593947D01*
X105450955Y-83603737D01*
X107553181Y-85705963D01*
X107586666Y-85767286D01*
X107589500Y-85793644D01*
X107589500Y-87100614D01*
X107569815Y-87167653D01*
X107553181Y-87188295D01*
X107499493Y-87241982D01*
X107499488Y-87241988D01*
X107427017Y-87367511D01*
X107427016Y-87367515D01*
X107389500Y-87507525D01*
X107389500Y-87652475D01*
X107421522Y-87771982D01*
X107427017Y-87792488D01*
X107499488Y-87918011D01*
X107499490Y-87918013D01*
X107499491Y-87918015D01*
X107601985Y-88020509D01*
X107601986Y-88020510D01*
X107601988Y-88020511D01*
X107727511Y-88092982D01*
X107727512Y-88092982D01*
X107727515Y-88092984D01*
X107867525Y-88130500D01*
X107867528Y-88130500D01*
X108012472Y-88130500D01*
X108012475Y-88130500D01*
X108152485Y-88092984D01*
X108278015Y-88020509D01*
X108380509Y-87918015D01*
X108452984Y-87792485D01*
X108490500Y-87652475D01*
X108490500Y-87507525D01*
X108452984Y-87367515D01*
X108389651Y-87257820D01*
X108380511Y-87241988D01*
X108380506Y-87241982D01*
X108326819Y-87188295D01*
X108293334Y-87126972D01*
X108290500Y-87100614D01*
X108290500Y-86200398D01*
X109407288Y-86200398D01*
X109407288Y-86345348D01*
X109444804Y-86485358D01*
X109444805Y-86485361D01*
X109517276Y-86610884D01*
X109517278Y-86610886D01*
X109517279Y-86610888D01*
X109619773Y-86713382D01*
X109619774Y-86713383D01*
X109619776Y-86713384D01*
X109745299Y-86785855D01*
X109745300Y-86785855D01*
X109745303Y-86785857D01*
X109885313Y-86823373D01*
X109885316Y-86823373D01*
X110030260Y-86823373D01*
X110030263Y-86823373D01*
X110170273Y-86785857D01*
X110295803Y-86713382D01*
X110398297Y-86610888D01*
X110470772Y-86485358D01*
X110508288Y-86345348D01*
X110508288Y-86200398D01*
X110470772Y-86060388D01*
X110454144Y-86031588D01*
X110398299Y-85934861D01*
X110398294Y-85934855D01*
X110295805Y-85832366D01*
X110295799Y-85832361D01*
X110170276Y-85759890D01*
X110170277Y-85759890D01*
X110158794Y-85756813D01*
X110030263Y-85722373D01*
X109885313Y-85722373D01*
X109756781Y-85756813D01*
X109745299Y-85759890D01*
X109619776Y-85832361D01*
X109619770Y-85832366D01*
X109517281Y-85934855D01*
X109517276Y-85934861D01*
X109444805Y-86060384D01*
X109444804Y-86060388D01*
X109407288Y-86200398D01*
X108290500Y-86200398D01*
X108290500Y-85550958D01*
X108290500Y-85550956D01*
X108266614Y-85461812D01*
X108220470Y-85381888D01*
X107776745Y-84938163D01*
X114941545Y-84938163D01*
X114941545Y-85083113D01*
X114957649Y-85143212D01*
X114979062Y-85223126D01*
X115051533Y-85348649D01*
X115051535Y-85348651D01*
X115051536Y-85348653D01*
X115154030Y-85451147D01*
X115154031Y-85451148D01*
X115154033Y-85451149D01*
X115279556Y-85523620D01*
X115279557Y-85523620D01*
X115279560Y-85523622D01*
X115419570Y-85561138D01*
X115419573Y-85561138D01*
X115564517Y-85561138D01*
X115564520Y-85561138D01*
X115704530Y-85523622D01*
X115830060Y-85451147D01*
X115932554Y-85348653D01*
X116005029Y-85223123D01*
X116042545Y-85083113D01*
X116042545Y-84938163D01*
X116005029Y-84798153D01*
X115958479Y-84717527D01*
X115932556Y-84672626D01*
X115932551Y-84672620D01*
X115830062Y-84570131D01*
X115830056Y-84570126D01*
X115704533Y-84497655D01*
X115704534Y-84497655D01*
X115693051Y-84494578D01*
X115564520Y-84460138D01*
X115419570Y-84460138D01*
X115291038Y-84494578D01*
X115279556Y-84497655D01*
X115154033Y-84570126D01*
X115154027Y-84570131D01*
X115051538Y-84672620D01*
X115051533Y-84672626D01*
X114979062Y-84798149D01*
X114979061Y-84798153D01*
X114941545Y-84938163D01*
X107776745Y-84938163D01*
X106649763Y-83811181D01*
X106616278Y-83749858D01*
X106621262Y-83680166D01*
X106663134Y-83624233D01*
X106728598Y-83599816D01*
X106737444Y-83599500D01*
X113744767Y-83599500D01*
X113811806Y-83619185D01*
X113857561Y-83671989D01*
X113867505Y-83741147D01*
X113864542Y-83755588D01*
X113858665Y-83777525D01*
X113858665Y-83922475D01*
X113884640Y-84019414D01*
X113896182Y-84062488D01*
X113968653Y-84188011D01*
X113968655Y-84188013D01*
X113968656Y-84188015D01*
X114071150Y-84290509D01*
X114071151Y-84290510D01*
X114071153Y-84290511D01*
X114196676Y-84362982D01*
X114196677Y-84362982D01*
X114196680Y-84362984D01*
X114336690Y-84400500D01*
X114336693Y-84400500D01*
X114481637Y-84400500D01*
X114481640Y-84400500D01*
X114621650Y-84362984D01*
X114747180Y-84290509D01*
X114849674Y-84188015D01*
X114922149Y-84062485D01*
X114959665Y-83922475D01*
X114959665Y-83777525D01*
X114953788Y-83755592D01*
X114955451Y-83685743D01*
X114994614Y-83627881D01*
X115058842Y-83600377D01*
X115073563Y-83599500D01*
X116744000Y-83599500D01*
X116811039Y-83619185D01*
X116856794Y-83671989D01*
X116866738Y-83741147D01*
X116837713Y-83804703D01*
X116831681Y-83811181D01*
X116755199Y-83887662D01*
X116755194Y-83887668D01*
X116682723Y-84013191D01*
X116682722Y-84013195D01*
X116645206Y-84153205D01*
X116645206Y-84298155D01*
X116672630Y-84400500D01*
X116682723Y-84438168D01*
X116755194Y-84563691D01*
X116755196Y-84563693D01*
X116755197Y-84563695D01*
X116857691Y-84666189D01*
X116857692Y-84666190D01*
X116857694Y-84666191D01*
X116983217Y-84738662D01*
X116983218Y-84738662D01*
X116983221Y-84738664D01*
X117123231Y-84776180D01*
X117123234Y-84776180D01*
X117268178Y-84776180D01*
X117268181Y-84776180D01*
X117408191Y-84738664D01*
X117533721Y-84666189D01*
X117636215Y-84563695D01*
X117708690Y-84438165D01*
X117746206Y-84298155D01*
X117746206Y-84153205D01*
X117708690Y-84013195D01*
X117708688Y-84013191D01*
X117708017Y-84010686D01*
X117709680Y-83940836D01*
X117748842Y-83882973D01*
X117813070Y-83855469D01*
X117881973Y-83867055D01*
X117889792Y-83871205D01*
X117927511Y-83892982D01*
X117927512Y-83892982D01*
X117927515Y-83892984D01*
X118067525Y-83930500D01*
X118067528Y-83930500D01*
X118212472Y-83930500D01*
X118212475Y-83930500D01*
X118352485Y-83892984D01*
X118478015Y-83820509D01*
X118580509Y-83718015D01*
X118652984Y-83592485D01*
X118690500Y-83452475D01*
X118690500Y-83307525D01*
X118652984Y-83167515D01*
X118580509Y-83041985D01*
X118580507Y-83041983D01*
X118577342Y-83036501D01*
X118560869Y-82968601D01*
X118583721Y-82902574D01*
X118638642Y-82859383D01*
X118684729Y-82850500D01*
X124076142Y-82850500D01*
X124076144Y-82850500D01*
X124165288Y-82826614D01*
X124177610Y-82819500D01*
X124245212Y-82780470D01*
X124565469Y-82460213D01*
X124565469Y-82460212D01*
X124582897Y-82442784D01*
X124582902Y-82442777D01*
X124646335Y-82379345D01*
X124707658Y-82345862D01*
X124777349Y-82350847D01*
X124821696Y-82379347D01*
X124948857Y-82506508D01*
X124948929Y-82506592D01*
X124955571Y-82513232D01*
X124955573Y-82513235D01*
X124958748Y-82516409D01*
X124958855Y-82516605D01*
X125041843Y-82599570D01*
X125041845Y-82599572D01*
X125154416Y-82670283D01*
X125154529Y-82670354D01*
X125280141Y-82714288D01*
X125412380Y-82729170D01*
X125501216Y-82719148D01*
X125544608Y-82714254D01*
X125544609Y-82714253D01*
X125544614Y-82714253D01*
X125670215Y-82670285D01*
X125782882Y-82599471D01*
X125829924Y-82552416D01*
X125830800Y-82551538D01*
X125947375Y-82434964D01*
X125947482Y-82434777D01*
X125953403Y-82428853D01*
X125953413Y-82428847D01*
X125953448Y-82428808D01*
X125961713Y-82420546D01*
X126032521Y-82307891D01*
X126076485Y-82182304D01*
X126091402Y-82050083D01*
X126091386Y-82049943D01*
X126084305Y-81987017D01*
X126076522Y-81917858D01*
X126032593Y-81792259D01*
X125961816Y-81679584D01*
X125947388Y-81665152D01*
X125947375Y-81665129D01*
X125914780Y-81632534D01*
X125875531Y-81593274D01*
X125875529Y-81593273D01*
X125868888Y-81586630D01*
X125868804Y-81586558D01*
X125687463Y-81405217D01*
X125653978Y-81343894D01*
X125658962Y-81274202D01*
X125700834Y-81218269D01*
X125734190Y-81200494D01*
X125737931Y-81199185D01*
X125820118Y-81170427D01*
X125822232Y-81169099D01*
X125861512Y-81144417D01*
X125914656Y-81111024D01*
X125921498Y-81104181D01*
X125921503Y-81104179D01*
X126018864Y-81006818D01*
X126071057Y-80978319D01*
X126080186Y-80973334D01*
X126106544Y-80970500D01*
X126182472Y-80970500D01*
X126182475Y-80970500D01*
X126322485Y-80932984D01*
X126448015Y-80860509D01*
X126550509Y-80758015D01*
X126622984Y-80632485D01*
X126660500Y-80492475D01*
X126660500Y-80347525D01*
X126622984Y-80207515D01*
X126599602Y-80167017D01*
X126550511Y-80081988D01*
X126550506Y-80081982D01*
X126520392Y-80051868D01*
X126486907Y-79990545D01*
X126491891Y-79920853D01*
X126533763Y-79864920D01*
X126599227Y-79840503D01*
X126640162Y-79844411D01*
X126737525Y-79870500D01*
X126737528Y-79870500D01*
X126882472Y-79870500D01*
X126882475Y-79870500D01*
X127022485Y-79832984D01*
X127148015Y-79760509D01*
X127157819Y-79750705D01*
X127219142Y-79717220D01*
X127288834Y-79722204D01*
X127344767Y-79764076D01*
X127369184Y-79829540D01*
X127369500Y-79838386D01*
X127369500Y-109796249D01*
X127369274Y-109803736D01*
X127352457Y-110081741D01*
X127350652Y-110096605D01*
X127301126Y-110366862D01*
X127297542Y-110381402D01*
X127215803Y-110643709D01*
X127210494Y-110657709D01*
X127097729Y-110908264D01*
X127090770Y-110921523D01*
X126948630Y-111156652D01*
X126940124Y-111168975D01*
X126770675Y-111385261D01*
X126760745Y-111396469D01*
X126566469Y-111590745D01*
X126555261Y-111600675D01*
X126338975Y-111770124D01*
X126326652Y-111778630D01*
X126091523Y-111920770D01*
X126078264Y-111927729D01*
X125827709Y-112040494D01*
X125813709Y-112045803D01*
X125551402Y-112127542D01*
X125536862Y-112131126D01*
X125266605Y-112180652D01*
X125251741Y-112182457D01*
X124973736Y-112199274D01*
X124966249Y-112199500D01*
X100373752Y-112199500D01*
X100366265Y-112199274D01*
X100088259Y-112182457D01*
X100073394Y-112180652D01*
X99803134Y-112131125D01*
X99788600Y-112127543D01*
X99526282Y-112045802D01*
X99512292Y-112040496D01*
X99261736Y-111927730D01*
X99248477Y-111920771D01*
X99013347Y-111778630D01*
X99001024Y-111770124D01*
X98784738Y-111600675D01*
X98773530Y-111590745D01*
X98579254Y-111396469D01*
X98569324Y-111385261D01*
X98480960Y-111272472D01*
X98399871Y-111168969D01*
X98391373Y-111156658D01*
X98249225Y-110921516D01*
X98242270Y-110908264D01*
X98129501Y-110657702D01*
X98124200Y-110643726D01*
X98042453Y-110381387D01*
X98038874Y-110366865D01*
X97989347Y-110096605D01*
X97987542Y-110081740D01*
X97970726Y-109803735D01*
X97970500Y-109796248D01*
X97970500Y-109381995D01*
X98899500Y-109381995D01*
X98899500Y-109618004D01*
X98899501Y-109618020D01*
X98930306Y-109852010D01*
X98991394Y-110079993D01*
X99081714Y-110298045D01*
X99081719Y-110298056D01*
X99129840Y-110381402D01*
X99199727Y-110502450D01*
X99199729Y-110502453D01*
X99199730Y-110502454D01*
X99343406Y-110689697D01*
X99343412Y-110689704D01*
X99510295Y-110856587D01*
X99510302Y-110856593D01*
X99594921Y-110921523D01*
X99697550Y-111000273D01*
X99784546Y-111050500D01*
X99901943Y-111118280D01*
X99901948Y-111118282D01*
X99901951Y-111118284D01*
X100120007Y-111208606D01*
X100347986Y-111269693D01*
X100581989Y-111300500D01*
X100581996Y-111300500D01*
X100818004Y-111300500D01*
X100818011Y-111300500D01*
X101052014Y-111269693D01*
X101279993Y-111208606D01*
X101475739Y-111127525D01*
X118739500Y-111127525D01*
X118739500Y-111272475D01*
X118777016Y-111412485D01*
X118777017Y-111412488D01*
X118849488Y-111538011D01*
X118849490Y-111538013D01*
X118849491Y-111538015D01*
X118951985Y-111640509D01*
X118951986Y-111640510D01*
X118951988Y-111640511D01*
X119077511Y-111712982D01*
X119077512Y-111712982D01*
X119077515Y-111712984D01*
X119217525Y-111750500D01*
X119217528Y-111750500D01*
X119362472Y-111750500D01*
X119362475Y-111750500D01*
X119502485Y-111712984D01*
X119628015Y-111640509D01*
X119730509Y-111538015D01*
X119802984Y-111412485D01*
X119840500Y-111272475D01*
X119840500Y-111127525D01*
X119802984Y-110987515D01*
X119790033Y-110965084D01*
X119730511Y-110861988D01*
X119730506Y-110861982D01*
X119628017Y-110759493D01*
X119628011Y-110759488D01*
X119502488Y-110687017D01*
X119502489Y-110687017D01*
X119491006Y-110683940D01*
X119362475Y-110649500D01*
X119217525Y-110649500D01*
X119088993Y-110683940D01*
X119077511Y-110687017D01*
X118951988Y-110759488D01*
X118951982Y-110759493D01*
X118849493Y-110861982D01*
X118849488Y-110861988D01*
X118777017Y-110987511D01*
X118777016Y-110987515D01*
X118739500Y-111127525D01*
X101475739Y-111127525D01*
X101498049Y-111118284D01*
X101702450Y-111000273D01*
X101889699Y-110856592D01*
X102056592Y-110689699D01*
X102200273Y-110502450D01*
X102318284Y-110298049D01*
X102408606Y-110079993D01*
X102469693Y-109852014D01*
X102482807Y-109752404D01*
X102484766Y-109737525D01*
X104719500Y-109737525D01*
X104719500Y-109882475D01*
X104757016Y-110022485D01*
X104757017Y-110022488D01*
X104829488Y-110148011D01*
X104829490Y-110148013D01*
X104829491Y-110148015D01*
X104931985Y-110250509D01*
X104931986Y-110250510D01*
X104931988Y-110250511D01*
X105057511Y-110322982D01*
X105057512Y-110322982D01*
X105057515Y-110322984D01*
X105197525Y-110360500D01*
X105197528Y-110360500D01*
X105342472Y-110360500D01*
X105342475Y-110360500D01*
X105482485Y-110322984D01*
X105608015Y-110250509D01*
X105710509Y-110148015D01*
X105782984Y-110022485D01*
X105820500Y-109882475D01*
X105820500Y-109737525D01*
X105782984Y-109597515D01*
X105710509Y-109471985D01*
X105608015Y-109369491D01*
X105608013Y-109369490D01*
X105608011Y-109369488D01*
X105482488Y-109297017D01*
X105482489Y-109297017D01*
X105471006Y-109293940D01*
X105342475Y-109259500D01*
X105197525Y-109259500D01*
X105068993Y-109293940D01*
X105057511Y-109297017D01*
X104931988Y-109369488D01*
X104931982Y-109369493D01*
X104829493Y-109471982D01*
X104829488Y-109471988D01*
X104757017Y-109597511D01*
X104757016Y-109597515D01*
X104719500Y-109737525D01*
X102484766Y-109737525D01*
X102487967Y-109713212D01*
X102487967Y-109713211D01*
X102491658Y-109685166D01*
X102500500Y-109618011D01*
X102500500Y-109381989D01*
X102469693Y-109147986D01*
X102408606Y-108920007D01*
X102318284Y-108701951D01*
X102318282Y-108701948D01*
X102318280Y-108701943D01*
X102263903Y-108607761D01*
X102200273Y-108497550D01*
X102056592Y-108310301D01*
X102056587Y-108310295D01*
X101889704Y-108143412D01*
X101889697Y-108143406D01*
X101702454Y-107999730D01*
X101702453Y-107999729D01*
X101702450Y-107999727D01*
X101620957Y-107952677D01*
X101498056Y-107881719D01*
X101498045Y-107881714D01*
X101279993Y-107791394D01*
X101052010Y-107730306D01*
X100818020Y-107699501D01*
X100818017Y-107699500D01*
X100818011Y-107699500D01*
X100581989Y-107699500D01*
X100581983Y-107699500D01*
X100581979Y-107699501D01*
X100347989Y-107730306D01*
X100120006Y-107791394D01*
X99901954Y-107881714D01*
X99901943Y-107881719D01*
X99697545Y-107999730D01*
X99510302Y-108143406D01*
X99510295Y-108143412D01*
X99343412Y-108310295D01*
X99343406Y-108310302D01*
X99199730Y-108497545D01*
X99081719Y-108701943D01*
X99081714Y-108701954D01*
X98991394Y-108920006D01*
X98930306Y-109147989D01*
X98899501Y-109381979D01*
X98899500Y-109381995D01*
X97970500Y-109381995D01*
X97970500Y-104603389D01*
X100759500Y-104603389D01*
X100759500Y-104776611D01*
X100786598Y-104947701D01*
X100840127Y-105112445D01*
X100918768Y-105266788D01*
X101020586Y-105406928D01*
X101143072Y-105529414D01*
X101283212Y-105631232D01*
X101437555Y-105709873D01*
X101602299Y-105763402D01*
X101773389Y-105790500D01*
X101773390Y-105790500D01*
X101946610Y-105790500D01*
X101946611Y-105790500D01*
X102117701Y-105763402D01*
X102282445Y-105709873D01*
X102436788Y-105631232D01*
X102576928Y-105529414D01*
X102699414Y-105406928D01*
X102801232Y-105266788D01*
X102879873Y-105112445D01*
X102933402Y-104947701D01*
X102960500Y-104776611D01*
X102960500Y-104603389D01*
X102960188Y-104601421D01*
X103274500Y-104601421D01*
X103274500Y-104621421D01*
X103274500Y-104798579D01*
X103279232Y-104828456D01*
X103297973Y-104946779D01*
X103299500Y-104966177D01*
X103299500Y-105564678D01*
X103314032Y-105637735D01*
X103314033Y-105637739D01*
X103332405Y-105665235D01*
X103369399Y-105720601D01*
X103452260Y-105775966D01*
X103452264Y-105775967D01*
X103525321Y-105790499D01*
X103525324Y-105790500D01*
X103525326Y-105790500D01*
X103837441Y-105790500D01*
X103904480Y-105810185D01*
X103925122Y-105826819D01*
X106746787Y-108648485D01*
X106746789Y-108648487D01*
X106812029Y-108695885D01*
X106826826Y-108708523D01*
X106866786Y-108748483D01*
X107010110Y-108852614D01*
X107074890Y-108885621D01*
X107167960Y-108933043D01*
X107249268Y-108959461D01*
X107336444Y-108987786D01*
X107355660Y-108990829D01*
X107357892Y-108991183D01*
X107357895Y-108991183D01*
X107360368Y-108991575D01*
X107511421Y-109015500D01*
X107565024Y-109015500D01*
X107572230Y-109016346D01*
X107597970Y-109027303D01*
X107624811Y-109035185D01*
X107629677Y-109040801D01*
X107636517Y-109043713D01*
X107652249Y-109066850D01*
X107670566Y-109087989D01*
X107671623Y-109095344D01*
X107675803Y-109101491D01*
X107676528Y-109129456D01*
X107680510Y-109157147D01*
X107677528Y-109168013D01*
X107677615Y-109171338D01*
X107675792Y-109174342D01*
X107672333Y-109186952D01*
X107633343Y-109281082D01*
X107633340Y-109281092D01*
X107604500Y-109426079D01*
X107604500Y-109426081D01*
X107604500Y-109426082D01*
X107604500Y-110373918D01*
X107604500Y-110373920D01*
X107604499Y-110373920D01*
X107633340Y-110518907D01*
X107633343Y-110518917D01*
X107689912Y-110655488D01*
X107689919Y-110655501D01*
X107772048Y-110778415D01*
X107772051Y-110778419D01*
X107876580Y-110882948D01*
X107876584Y-110882951D01*
X107999498Y-110965080D01*
X107999511Y-110965087D01*
X108095475Y-111004836D01*
X108136087Y-111021658D01*
X108136091Y-111021658D01*
X108136092Y-111021659D01*
X108281079Y-111050500D01*
X108281082Y-111050500D01*
X108428920Y-111050500D01*
X108526462Y-111031096D01*
X108573913Y-111021658D01*
X108710495Y-110965084D01*
X108833416Y-110882951D01*
X108937951Y-110778416D01*
X109020084Y-110655495D01*
X109076658Y-110518913D01*
X109104011Y-110381403D01*
X109105500Y-110373920D01*
X109105500Y-109426079D01*
X109076659Y-109281092D01*
X109076658Y-109281091D01*
X109076658Y-109281087D01*
X109076656Y-109281082D01*
X109037667Y-109186952D01*
X109030198Y-109117483D01*
X109061474Y-109055004D01*
X109121563Y-109019352D01*
X109152228Y-109015500D01*
X110251421Y-109015500D01*
X116031421Y-109015500D01*
X116197772Y-109015500D01*
X116264811Y-109035185D01*
X116310566Y-109087989D01*
X116320510Y-109157147D01*
X116312333Y-109186952D01*
X116273343Y-109281082D01*
X116273340Y-109281092D01*
X116244500Y-109426079D01*
X116244500Y-109426081D01*
X116244500Y-109426082D01*
X116244500Y-110373918D01*
X116244500Y-110373920D01*
X116244499Y-110373920D01*
X116273340Y-110518907D01*
X116273343Y-110518917D01*
X116329912Y-110655488D01*
X116329919Y-110655501D01*
X116412048Y-110778415D01*
X116412051Y-110778419D01*
X116516580Y-110882948D01*
X116516584Y-110882951D01*
X116639498Y-110965080D01*
X116639511Y-110965087D01*
X116735475Y-111004836D01*
X116776087Y-111021658D01*
X116776091Y-111021658D01*
X116776092Y-111021659D01*
X116921079Y-111050500D01*
X116921082Y-111050500D01*
X117068920Y-111050500D01*
X117166462Y-111031096D01*
X117213913Y-111021658D01*
X117350495Y-110965084D01*
X117473416Y-110882951D01*
X117577951Y-110778416D01*
X117660084Y-110655495D01*
X117716658Y-110518913D01*
X117744011Y-110381403D01*
X117745500Y-110373920D01*
X117745500Y-109426081D01*
X117744905Y-109423090D01*
X117736730Y-109381995D01*
X122899500Y-109381995D01*
X122899500Y-109618004D01*
X122899501Y-109618020D01*
X122930306Y-109852010D01*
X122991394Y-110079993D01*
X123081714Y-110298045D01*
X123081719Y-110298056D01*
X123129840Y-110381402D01*
X123199727Y-110502450D01*
X123199729Y-110502453D01*
X123199730Y-110502454D01*
X123343406Y-110689697D01*
X123343412Y-110689704D01*
X123510295Y-110856587D01*
X123510302Y-110856593D01*
X123594921Y-110921523D01*
X123697550Y-111000273D01*
X123784546Y-111050500D01*
X123901943Y-111118280D01*
X123901948Y-111118282D01*
X123901951Y-111118284D01*
X124120007Y-111208606D01*
X124347986Y-111269693D01*
X124581989Y-111300500D01*
X124581996Y-111300500D01*
X124818004Y-111300500D01*
X124818011Y-111300500D01*
X125052014Y-111269693D01*
X125279993Y-111208606D01*
X125498049Y-111118284D01*
X125702450Y-111000273D01*
X125889699Y-110856592D01*
X126056592Y-110689699D01*
X126200273Y-110502450D01*
X126318284Y-110298049D01*
X126408606Y-110079993D01*
X126469693Y-109852014D01*
X126500500Y-109618011D01*
X126500500Y-109381989D01*
X126469693Y-109147986D01*
X126408606Y-108920007D01*
X126318284Y-108701951D01*
X126318282Y-108701948D01*
X126318280Y-108701943D01*
X126263903Y-108607761D01*
X126200273Y-108497550D01*
X126056592Y-108310301D01*
X126056587Y-108310295D01*
X125889704Y-108143412D01*
X125889697Y-108143406D01*
X125702454Y-107999730D01*
X125702453Y-107999729D01*
X125702450Y-107999727D01*
X125620957Y-107952677D01*
X125498056Y-107881719D01*
X125498045Y-107881714D01*
X125279993Y-107791394D01*
X125052010Y-107730306D01*
X124818020Y-107699501D01*
X124818017Y-107699500D01*
X124818011Y-107699500D01*
X124581989Y-107699500D01*
X124581983Y-107699500D01*
X124581979Y-107699501D01*
X124347989Y-107730306D01*
X124120006Y-107791394D01*
X123901954Y-107881714D01*
X123901943Y-107881719D01*
X123697545Y-107999730D01*
X123510302Y-108143406D01*
X123510295Y-108143412D01*
X123343412Y-108310295D01*
X123343406Y-108310302D01*
X123199730Y-108497545D01*
X123081719Y-108701943D01*
X123081714Y-108701954D01*
X122991394Y-108920006D01*
X122930306Y-109147989D01*
X122899501Y-109381979D01*
X122899500Y-109381995D01*
X117736730Y-109381995D01*
X117716658Y-109281087D01*
X117675134Y-109180839D01*
X117673266Y-109174487D01*
X117673253Y-109145904D01*
X117670198Y-109117483D01*
X117673238Y-109111408D01*
X117673236Y-109104617D01*
X117688679Y-109080563D01*
X117701474Y-109055004D01*
X117707314Y-109051538D01*
X117710984Y-109045823D01*
X117736983Y-109033935D01*
X117761563Y-109019352D01*
X117771651Y-109018084D01*
X117774527Y-109016770D01*
X117778072Y-109017278D01*
X117792228Y-109015500D01*
X120528578Y-109015500D01*
X120528579Y-109015500D01*
X120703556Y-108987786D01*
X120872042Y-108933042D01*
X120897624Y-108920007D01*
X121029890Y-108852614D01*
X121173214Y-108748483D01*
X121298483Y-108623214D01*
X121398483Y-108523214D01*
X121398482Y-108523214D01*
X124204879Y-105716819D01*
X124266202Y-105683334D01*
X124292560Y-105680500D01*
X124897865Y-105680500D01*
X124897874Y-105680500D01*
X124957484Y-105674091D01*
X125092331Y-105623796D01*
X125207547Y-105537547D01*
X125293796Y-105422331D01*
X125344091Y-105287484D01*
X125350500Y-105227874D01*
X125350500Y-103432126D01*
X125344091Y-103372516D01*
X125299136Y-103251985D01*
X125293797Y-103237671D01*
X125293796Y-103237669D01*
X125207547Y-103122453D01*
X125092331Y-103036204D01*
X125092330Y-103036203D01*
X125092328Y-103036202D01*
X124960917Y-102987189D01*
X124904983Y-102945318D01*
X124880566Y-102879853D01*
X124895418Y-102811580D01*
X124916563Y-102783332D01*
X125030104Y-102669792D01*
X125155051Y-102497816D01*
X125251557Y-102308412D01*
X125317246Y-102106243D01*
X125350500Y-101896287D01*
X125350500Y-101683713D01*
X125317246Y-101473757D01*
X125251557Y-101271588D01*
X125155051Y-101082184D01*
X125155049Y-101082181D01*
X125155048Y-101082179D01*
X125030109Y-100910213D01*
X124879786Y-100759890D01*
X124707820Y-100634951D01*
X124707115Y-100634591D01*
X124699054Y-100630485D01*
X124648259Y-100582512D01*
X124631463Y-100514692D01*
X124653999Y-100448556D01*
X124699054Y-100409515D01*
X124707816Y-100405051D01*
X124729789Y-100389086D01*
X124879786Y-100280109D01*
X124879788Y-100280106D01*
X124879792Y-100280104D01*
X125030104Y-100129792D01*
X125030106Y-100129788D01*
X125030109Y-100129786D01*
X125155048Y-99957820D01*
X125155047Y-99957820D01*
X125155051Y-99957816D01*
X125251557Y-99768412D01*
X125317246Y-99566243D01*
X125350500Y-99356287D01*
X125350500Y-99143713D01*
X125317246Y-98933757D01*
X125251557Y-98731588D01*
X125155051Y-98542184D01*
X125155049Y-98542181D01*
X125155048Y-98542179D01*
X125030109Y-98370213D01*
X124879786Y-98219890D01*
X124707820Y-98094951D01*
X124707115Y-98094591D01*
X124699054Y-98090485D01*
X124648259Y-98042512D01*
X124631463Y-97974692D01*
X124653999Y-97908556D01*
X124699054Y-97869515D01*
X124707816Y-97865051D01*
X124759486Y-97827511D01*
X124879786Y-97740109D01*
X124879788Y-97740106D01*
X124879792Y-97740104D01*
X125030104Y-97589792D01*
X125030106Y-97589788D01*
X125030109Y-97589786D01*
X125155048Y-97417820D01*
X125155047Y-97417820D01*
X125155051Y-97417816D01*
X125251557Y-97228412D01*
X125317246Y-97026243D01*
X125350500Y-96816287D01*
X125350500Y-96603713D01*
X125317246Y-96393757D01*
X125251557Y-96191588D01*
X125155051Y-96002184D01*
X125155049Y-96002181D01*
X125155048Y-96002179D01*
X125030109Y-95830213D01*
X124879786Y-95679890D01*
X124707820Y-95554951D01*
X124707115Y-95554591D01*
X124699054Y-95550485D01*
X124648259Y-95502512D01*
X124631463Y-95434692D01*
X124653999Y-95368556D01*
X124699054Y-95329515D01*
X124707816Y-95325051D01*
X124729789Y-95309086D01*
X124879786Y-95200109D01*
X124879788Y-95200106D01*
X124879792Y-95200104D01*
X125030104Y-95049792D01*
X125030106Y-95049788D01*
X125030109Y-95049786D01*
X125155048Y-94877820D01*
X125155047Y-94877820D01*
X125155051Y-94877816D01*
X125251557Y-94688412D01*
X125317246Y-94486243D01*
X125350500Y-94276287D01*
X125350500Y-94063713D01*
X125317246Y-93853757D01*
X125251557Y-93651588D01*
X125155051Y-93462184D01*
X125155049Y-93462181D01*
X125155048Y-93462179D01*
X125030109Y-93290213D01*
X124879786Y-93139890D01*
X124707820Y-93014951D01*
X124707115Y-93014591D01*
X124699054Y-93010485D01*
X124648259Y-92962512D01*
X124631463Y-92894692D01*
X124653999Y-92828556D01*
X124699054Y-92789515D01*
X124707816Y-92785051D01*
X124753332Y-92751982D01*
X124879786Y-92660109D01*
X124879788Y-92660106D01*
X124879792Y-92660104D01*
X125030104Y-92509792D01*
X125030106Y-92509788D01*
X125030109Y-92509786D01*
X125155048Y-92337820D01*
X125155047Y-92337820D01*
X125155051Y-92337816D01*
X125251557Y-92148412D01*
X125317246Y-91946243D01*
X125350500Y-91736287D01*
X125350500Y-91523713D01*
X125317246Y-91313757D01*
X125251557Y-91111588D01*
X125155051Y-90922184D01*
X125155049Y-90922181D01*
X125155048Y-90922179D01*
X125030109Y-90750213D01*
X124879786Y-90599890D01*
X124707820Y-90474951D01*
X124706911Y-90474488D01*
X124699054Y-90470485D01*
X124648259Y-90422512D01*
X124631463Y-90354692D01*
X124653999Y-90288556D01*
X124699054Y-90249515D01*
X124707816Y-90245051D01*
X124772556Y-90198015D01*
X124879786Y-90120109D01*
X124879788Y-90120106D01*
X124879792Y-90120104D01*
X125030104Y-89969792D01*
X125030106Y-89969788D01*
X125030109Y-89969786D01*
X125155048Y-89797820D01*
X125155047Y-89797820D01*
X125155051Y-89797816D01*
X125251557Y-89608412D01*
X125317246Y-89406243D01*
X125350500Y-89196287D01*
X125350500Y-88983713D01*
X125317246Y-88773757D01*
X125251557Y-88571588D01*
X125155051Y-88382184D01*
X125155049Y-88382181D01*
X125155048Y-88382179D01*
X125030109Y-88210213D01*
X124879786Y-88059890D01*
X124707820Y-87934951D01*
X124707115Y-87934591D01*
X124699054Y-87930485D01*
X124648259Y-87882512D01*
X124631463Y-87814692D01*
X124653999Y-87748556D01*
X124699054Y-87709515D01*
X124707816Y-87705051D01*
X124756758Y-87669493D01*
X124879786Y-87580109D01*
X124879788Y-87580106D01*
X124879792Y-87580104D01*
X125030104Y-87429792D01*
X125030106Y-87429788D01*
X125030109Y-87429786D01*
X125155048Y-87257820D01*
X125155047Y-87257820D01*
X125155051Y-87257816D01*
X125251557Y-87068412D01*
X125317246Y-86866243D01*
X125350500Y-86656287D01*
X125350500Y-86443713D01*
X125317246Y-86233757D01*
X125251557Y-86031588D01*
X125155051Y-85842184D01*
X125155049Y-85842181D01*
X125155048Y-85842179D01*
X125030109Y-85670213D01*
X124879786Y-85519890D01*
X124707820Y-85394951D01*
X124518414Y-85298444D01*
X124518413Y-85298443D01*
X124518412Y-85298443D01*
X124316243Y-85232754D01*
X124316241Y-85232753D01*
X124316240Y-85232753D01*
X124154957Y-85207208D01*
X124106287Y-85199500D01*
X123893713Y-85199500D01*
X123845042Y-85207208D01*
X123683760Y-85232753D01*
X123481585Y-85298444D01*
X123292179Y-85394951D01*
X123120213Y-85519890D01*
X122969890Y-85670213D01*
X122844951Y-85842179D01*
X122748444Y-86031583D01*
X122687088Y-86220417D01*
X122647650Y-86278092D01*
X122583291Y-86305290D01*
X122514445Y-86293375D01*
X122481476Y-86269779D01*
X122373216Y-86161519D01*
X122373214Y-86161517D01*
X122229890Y-86057386D01*
X122179259Y-86031588D01*
X122072042Y-85976957D01*
X122072039Y-85976956D01*
X121903556Y-85922214D01*
X121813882Y-85908011D01*
X121728579Y-85894500D01*
X121551421Y-85894500D01*
X121493095Y-85903738D01*
X121376443Y-85922214D01*
X121207960Y-85976956D01*
X121207957Y-85976957D01*
X121050106Y-86057388D01*
X120953492Y-86127582D01*
X120887686Y-86151062D01*
X120819632Y-86135236D01*
X120773220Y-86089264D01*
X120769594Y-86082984D01*
X120705509Y-85971985D01*
X120603015Y-85869491D01*
X120543954Y-85835392D01*
X120495739Y-85784824D01*
X120482517Y-85716217D01*
X120486178Y-85695923D01*
X120500500Y-85642475D01*
X120500500Y-85497525D01*
X120477568Y-85411942D01*
X120479231Y-85342098D01*
X120518393Y-85284235D01*
X120535340Y-85272467D01*
X120608015Y-85230509D01*
X120710509Y-85128015D01*
X120782984Y-85002485D01*
X120820500Y-84862475D01*
X120820500Y-84717525D01*
X120782984Y-84577515D01*
X120710509Y-84451985D01*
X120608015Y-84349491D01*
X120608013Y-84349490D01*
X120608011Y-84349488D01*
X120482488Y-84277017D01*
X120482489Y-84277017D01*
X120471006Y-84273940D01*
X120342475Y-84239500D01*
X120197525Y-84239500D01*
X120068993Y-84273940D01*
X120057511Y-84277017D01*
X119931988Y-84349488D01*
X119931982Y-84349493D01*
X119829493Y-84451982D01*
X119829488Y-84451988D01*
X119757017Y-84577511D01*
X119757016Y-84577515D01*
X119719500Y-84717525D01*
X119719500Y-84862475D01*
X119736715Y-84926724D01*
X119742431Y-84948054D01*
X119740768Y-85017904D01*
X119701605Y-85075766D01*
X119684656Y-85087534D01*
X119611988Y-85129489D01*
X119611982Y-85129493D01*
X119509493Y-85231982D01*
X119509488Y-85231988D01*
X119437017Y-85357511D01*
X119437016Y-85357515D01*
X119399500Y-85497525D01*
X119399500Y-85642475D01*
X119437016Y-85782485D01*
X119437017Y-85782488D01*
X119509488Y-85908011D01*
X119509490Y-85908013D01*
X119509491Y-85908015D01*
X119611985Y-86010509D01*
X119671045Y-86044607D01*
X119719259Y-86095172D01*
X119732483Y-86163779D01*
X119728819Y-86184086D01*
X119714500Y-86237525D01*
X119714500Y-86382475D01*
X119752016Y-86522485D01*
X119752017Y-86522488D01*
X119824488Y-86648011D01*
X119824490Y-86648013D01*
X119824491Y-86648015D01*
X119926985Y-86750509D01*
X119926986Y-86750510D01*
X119926988Y-86750511D01*
X120052511Y-86822982D01*
X120052512Y-86822982D01*
X120052515Y-86822984D01*
X120192525Y-86860500D01*
X120192528Y-86860500D01*
X120337472Y-86860500D01*
X120337475Y-86860500D01*
X120358407Y-86854891D01*
X120428253Y-86856552D01*
X120486117Y-86895713D01*
X120513623Y-86959940D01*
X120514500Y-86974665D01*
X120514500Y-93685500D01*
X120494815Y-93752539D01*
X120442011Y-93798294D01*
X120390500Y-93809500D01*
X116589524Y-93809500D01*
X116522485Y-93789815D01*
X116476730Y-93737011D01*
X116466786Y-93667853D01*
X116495811Y-93604297D01*
X116527524Y-93578113D01*
X116558015Y-93560509D01*
X116660509Y-93458015D01*
X116732984Y-93332485D01*
X116770500Y-93192475D01*
X116770500Y-93047525D01*
X116732984Y-92907515D01*
X116728645Y-92900000D01*
X116660511Y-92781988D01*
X116660506Y-92781982D01*
X116558017Y-92679493D01*
X116558011Y-92679488D01*
X116432488Y-92607017D01*
X116432489Y-92607017D01*
X116421006Y-92603940D01*
X116292475Y-92569500D01*
X116147525Y-92569500D01*
X116018993Y-92603940D01*
X116007511Y-92607017D01*
X115881988Y-92679488D01*
X115881982Y-92679493D01*
X115779493Y-92781982D01*
X115779488Y-92781988D01*
X115707017Y-92907511D01*
X115707016Y-92907515D01*
X115669500Y-93047525D01*
X115669500Y-93192475D01*
X115707016Y-93332485D01*
X115759564Y-93423501D01*
X115776037Y-93491399D01*
X115753185Y-93557426D01*
X115698264Y-93600617D01*
X115652177Y-93609500D01*
X115532525Y-93609500D01*
X115444883Y-93632984D01*
X115392511Y-93647017D01*
X115266988Y-93719488D01*
X115266982Y-93719493D01*
X115164493Y-93821982D01*
X115164488Y-93821988D01*
X115092017Y-93947511D01*
X115092016Y-93947515D01*
X115054500Y-94087525D01*
X115054500Y-94232475D01*
X115066240Y-94276287D01*
X115092017Y-94372488D01*
X115164488Y-94498011D01*
X115164490Y-94498013D01*
X115164491Y-94498015D01*
X115266985Y-94600509D01*
X115266986Y-94600510D01*
X115266988Y-94600511D01*
X115392511Y-94672982D01*
X115392512Y-94672982D01*
X115392515Y-94672984D01*
X115532525Y-94710500D01*
X115532528Y-94710500D01*
X115677472Y-94710500D01*
X115677475Y-94710500D01*
X115817485Y-94672984D01*
X115943015Y-94600509D01*
X115996705Y-94546819D01*
X116058028Y-94513334D01*
X116084386Y-94510500D01*
X120390500Y-94510500D01*
X120457539Y-94530185D01*
X120503294Y-94582989D01*
X120514500Y-94634500D01*
X120514500Y-98775500D01*
X120494815Y-98842539D01*
X120442011Y-98888294D01*
X120390500Y-98899500D01*
X116484876Y-98899500D01*
X116417837Y-98879815D01*
X116372082Y-98827011D01*
X116362138Y-98757853D01*
X116391163Y-98694297D01*
X116426476Y-98668831D01*
X116425447Y-98667048D01*
X116512731Y-98616653D01*
X116558015Y-98590509D01*
X116660509Y-98488015D01*
X116732984Y-98362485D01*
X116770500Y-98222475D01*
X116770500Y-98077525D01*
X116732984Y-97937515D01*
X116716264Y-97908556D01*
X116660511Y-97811988D01*
X116660506Y-97811982D01*
X116558017Y-97709493D01*
X116558011Y-97709488D01*
X116432488Y-97637017D01*
X116432489Y-97637017D01*
X116421006Y-97633940D01*
X116292475Y-97599500D01*
X116147525Y-97599500D01*
X116018993Y-97633940D01*
X116007511Y-97637017D01*
X115881988Y-97709488D01*
X115881982Y-97709493D01*
X115779493Y-97811982D01*
X115779488Y-97811988D01*
X115707017Y-97937511D01*
X115707016Y-97937515D01*
X115669500Y-98077525D01*
X115669500Y-98222475D01*
X115703551Y-98349552D01*
X115707017Y-98362488D01*
X115779488Y-98488011D01*
X115784438Y-98494461D01*
X115783369Y-98495280D01*
X115812780Y-98549142D01*
X115807796Y-98618834D01*
X115765924Y-98674767D01*
X115700460Y-98699184D01*
X115691614Y-98699500D01*
X115687475Y-98699500D01*
X115542525Y-98699500D01*
X115413993Y-98733940D01*
X115402511Y-98737017D01*
X115276988Y-98809488D01*
X115276982Y-98809493D01*
X115174493Y-98911982D01*
X115174488Y-98911988D01*
X115102017Y-99037511D01*
X115102016Y-99037515D01*
X115064500Y-99177525D01*
X115064500Y-99322475D01*
X115102016Y-99462485D01*
X115102017Y-99462488D01*
X115174488Y-99588011D01*
X115174490Y-99588013D01*
X115174491Y-99588015D01*
X115276985Y-99690509D01*
X115276986Y-99690510D01*
X115276988Y-99690511D01*
X115402511Y-99762982D01*
X115402512Y-99762982D01*
X115402515Y-99762984D01*
X115542525Y-99800500D01*
X115542528Y-99800500D01*
X115687472Y-99800500D01*
X115687475Y-99800500D01*
X115827485Y-99762984D01*
X115953015Y-99690509D01*
X116006705Y-99636819D01*
X116068028Y-99603334D01*
X116094386Y-99600500D01*
X120390500Y-99600500D01*
X120457539Y-99620185D01*
X120503294Y-99672989D01*
X120514500Y-99724500D01*
X120514500Y-100091421D01*
X120514500Y-100268579D01*
X120516326Y-100280109D01*
X120542214Y-100443557D01*
X120582403Y-100567246D01*
X120582404Y-100567248D01*
X120596957Y-100612041D01*
X120677388Y-100769893D01*
X120779328Y-100910202D01*
X120781254Y-100912852D01*
X120781517Y-100913214D01*
X122516786Y-102648484D01*
X122660110Y-102752614D01*
X122817957Y-102833042D01*
X122817963Y-102833044D01*
X122842341Y-102840965D01*
X122900017Y-102880402D01*
X122927216Y-102944760D01*
X122915302Y-103013607D01*
X122878335Y-103058163D01*
X122792451Y-103122454D01*
X122706203Y-103237669D01*
X122706202Y-103237671D01*
X122655910Y-103372511D01*
X122655908Y-103372518D01*
X122649501Y-103432115D01*
X122649500Y-103432134D01*
X122649500Y-104037440D01*
X122629815Y-104104479D01*
X122613181Y-104125121D01*
X120010122Y-106728181D01*
X119948799Y-106761666D01*
X119922441Y-106764500D01*
X117788085Y-106764500D01*
X117721046Y-106744815D01*
X117675291Y-106692011D01*
X117665347Y-106622853D01*
X117673524Y-106593047D01*
X117675205Y-106588989D01*
X117716658Y-106488913D01*
X117739485Y-106374159D01*
X117745500Y-106343920D01*
X117745500Y-105617525D01*
X119109500Y-105617525D01*
X119109500Y-105762475D01*
X119135072Y-105857910D01*
X119147017Y-105902488D01*
X119219488Y-106028011D01*
X119219490Y-106028013D01*
X119219491Y-106028015D01*
X119321985Y-106130509D01*
X119321986Y-106130510D01*
X119321988Y-106130511D01*
X119447511Y-106202982D01*
X119447512Y-106202982D01*
X119447515Y-106202984D01*
X119587525Y-106240500D01*
X119587528Y-106240500D01*
X119732472Y-106240500D01*
X119732475Y-106240500D01*
X119872485Y-106202984D01*
X119998015Y-106130509D01*
X120100509Y-106028015D01*
X120172984Y-105902485D01*
X120210500Y-105762475D01*
X120210500Y-105617525D01*
X120172984Y-105477515D01*
X120141123Y-105422331D01*
X120100511Y-105351988D01*
X120100506Y-105351982D01*
X119998017Y-105249493D01*
X119998011Y-105249488D01*
X119872488Y-105177017D01*
X119872489Y-105177017D01*
X119861006Y-105173940D01*
X119732475Y-105139500D01*
X119587525Y-105139500D01*
X119458993Y-105173940D01*
X119447511Y-105177017D01*
X119321988Y-105249488D01*
X119321982Y-105249493D01*
X119219493Y-105351982D01*
X119219488Y-105351988D01*
X119147017Y-105477511D01*
X119147016Y-105477515D01*
X119109500Y-105617525D01*
X117745500Y-105617525D01*
X117745500Y-105096079D01*
X117716659Y-104951092D01*
X117716658Y-104951091D01*
X117716658Y-104951087D01*
X117716656Y-104951082D01*
X117660087Y-104814511D01*
X117660080Y-104814498D01*
X117577951Y-104691584D01*
X117577948Y-104691580D01*
X117473419Y-104587051D01*
X117473415Y-104587048D01*
X117350501Y-104504919D01*
X117350488Y-104504912D01*
X117213917Y-104448343D01*
X117213907Y-104448340D01*
X117068920Y-104419500D01*
X117068918Y-104419500D01*
X116921082Y-104419500D01*
X116921080Y-104419500D01*
X116776092Y-104448340D01*
X116776082Y-104448343D01*
X116639511Y-104504912D01*
X116639498Y-104504919D01*
X116516584Y-104587048D01*
X116516580Y-104587051D01*
X116412051Y-104691580D01*
X116412046Y-104691586D01*
X116405955Y-104700703D01*
X116352343Y-104745507D01*
X116283018Y-104754214D01*
X116219991Y-104724059D01*
X116215173Y-104719492D01*
X115948901Y-104453220D01*
X115656819Y-104161137D01*
X115623334Y-104099814D01*
X115620500Y-104073456D01*
X115620500Y-103997527D01*
X115620500Y-103997525D01*
X115582984Y-103857515D01*
X115564945Y-103826271D01*
X115510511Y-103731988D01*
X115510506Y-103731982D01*
X115408017Y-103629493D01*
X115408011Y-103629488D01*
X115282488Y-103557017D01*
X115282489Y-103557017D01*
X115271006Y-103553940D01*
X115142475Y-103519500D01*
X114997525Y-103519500D01*
X114868993Y-103553940D01*
X114857511Y-103557017D01*
X114731988Y-103629488D01*
X114731982Y-103629493D01*
X114629493Y-103731982D01*
X114629488Y-103731988D01*
X114557017Y-103857511D01*
X114557016Y-103857515D01*
X114519500Y-103997525D01*
X114519500Y-104142475D01*
X114557016Y-104282485D01*
X114557017Y-104282488D01*
X114629488Y-104408011D01*
X114629490Y-104408013D01*
X114629491Y-104408015D01*
X114731985Y-104510509D01*
X114731986Y-104510510D01*
X114731988Y-104510511D01*
X114857511Y-104582982D01*
X114857512Y-104582982D01*
X114857515Y-104582984D01*
X114997525Y-104620500D01*
X115073456Y-104620500D01*
X115140495Y-104640185D01*
X115161137Y-104656819D01*
X115733181Y-105228862D01*
X115766666Y-105290185D01*
X115769500Y-105316543D01*
X115769500Y-105645185D01*
X115749815Y-105712224D01*
X115697011Y-105757979D01*
X115629316Y-105768124D01*
X115624576Y-105767500D01*
X115624573Y-105767500D01*
X115505427Y-105767500D01*
X115390339Y-105798337D01*
X115287158Y-105857910D01*
X115287155Y-105857912D01*
X115202912Y-105942155D01*
X115202908Y-105942161D01*
X115181397Y-105979418D01*
X115130829Y-106027633D01*
X115062222Y-106040854D01*
X114997357Y-106014885D01*
X114956830Y-105957970D01*
X114954241Y-105949526D01*
X114942984Y-105907515D01*
X114914344Y-105857910D01*
X114870511Y-105781988D01*
X114870506Y-105781982D01*
X114768017Y-105679493D01*
X114768011Y-105679488D01*
X114642488Y-105607017D01*
X114642489Y-105607017D01*
X114631006Y-105603940D01*
X114502475Y-105569500D01*
X114357525Y-105569500D01*
X114228993Y-105603940D01*
X114217511Y-105607017D01*
X114091988Y-105679488D01*
X114091982Y-105679493D01*
X113989493Y-105781982D01*
X113989488Y-105781988D01*
X113917017Y-105907511D01*
X113917016Y-105907515D01*
X113879500Y-106047525D01*
X113879500Y-106192475D01*
X113917016Y-106332485D01*
X113917017Y-106332488D01*
X113989488Y-106458011D01*
X113989493Y-106458017D01*
X114084295Y-106552819D01*
X114117780Y-106614142D01*
X114112796Y-106683834D01*
X114070924Y-106739767D01*
X114005460Y-106764184D01*
X113996614Y-106764500D01*
X110179794Y-106764500D01*
X110112755Y-106744815D01*
X110067000Y-106692011D01*
X110057056Y-106622853D01*
X110086081Y-106559297D01*
X110092113Y-106552819D01*
X110147090Y-106497842D01*
X110206663Y-106394659D01*
X110237500Y-106279573D01*
X110237500Y-106160427D01*
X110206663Y-106045341D01*
X110204072Y-106040854D01*
X110168602Y-105979418D01*
X110147090Y-105942158D01*
X110062842Y-105857910D01*
X109989499Y-105815565D01*
X109959660Y-105798337D01*
X109876172Y-105775967D01*
X109844573Y-105767500D01*
X109725427Y-105767500D01*
X109610339Y-105798337D01*
X109507158Y-105857910D01*
X109507155Y-105857912D01*
X109422912Y-105942155D01*
X109422910Y-105942158D01*
X109365928Y-106040854D01*
X109363337Y-106045341D01*
X109349275Y-106097823D01*
X109312910Y-106157483D01*
X109250063Y-106188012D01*
X109180687Y-106179717D01*
X109126809Y-106135232D01*
X109105535Y-106068680D01*
X109105500Y-106065729D01*
X109105500Y-105096079D01*
X109076659Y-104951092D01*
X109076658Y-104951091D01*
X109076658Y-104951087D01*
X109076656Y-104951082D01*
X109020087Y-104814511D01*
X109020080Y-104814498D01*
X108937951Y-104691584D01*
X108937948Y-104691580D01*
X108833419Y-104587051D01*
X108833415Y-104587048D01*
X108710501Y-104504919D01*
X108710488Y-104504912D01*
X108573917Y-104448343D01*
X108573907Y-104448340D01*
X108428920Y-104419500D01*
X108428918Y-104419500D01*
X108281082Y-104419500D01*
X108281080Y-104419500D01*
X108136092Y-104448340D01*
X108136082Y-104448343D01*
X107999511Y-104504912D01*
X107999498Y-104504919D01*
X107876584Y-104587048D01*
X107876580Y-104587051D01*
X107772051Y-104691580D01*
X107772048Y-104691584D01*
X107689919Y-104814498D01*
X107689912Y-104814511D01*
X107633343Y-104951082D01*
X107633340Y-104951092D01*
X107604500Y-105096079D01*
X107604500Y-106023440D01*
X107584815Y-106090479D01*
X107532011Y-106136234D01*
X107462853Y-106146178D01*
X107399297Y-106117153D01*
X107392819Y-106111121D01*
X105536819Y-104255121D01*
X105503334Y-104193798D01*
X105500500Y-104167440D01*
X105500500Y-103815323D01*
X105500499Y-103815321D01*
X105485967Y-103742264D01*
X105485966Y-103742260D01*
X105430601Y-103659399D01*
X105347740Y-103604034D01*
X105347735Y-103604032D01*
X105274677Y-103589500D01*
X105274674Y-103589500D01*
X104656177Y-103589500D01*
X104636779Y-103587973D01*
X104554367Y-103574920D01*
X104488579Y-103564500D01*
X104311421Y-103564500D01*
X104245633Y-103574920D01*
X104163221Y-103587973D01*
X104143823Y-103589500D01*
X103525323Y-103589500D01*
X103452264Y-103604032D01*
X103452260Y-103604033D01*
X103369399Y-103659399D01*
X103314033Y-103742260D01*
X103314032Y-103742264D01*
X103299500Y-103815321D01*
X103299500Y-104433822D01*
X103297973Y-104453220D01*
X103277420Y-104582984D01*
X103274500Y-104601421D01*
X102960188Y-104601421D01*
X102933402Y-104432299D01*
X102879873Y-104267555D01*
X102801232Y-104113212D01*
X102699414Y-103973072D01*
X102576928Y-103850586D01*
X102436788Y-103748768D01*
X102282445Y-103670127D01*
X102117701Y-103616598D01*
X102117699Y-103616597D01*
X102117698Y-103616597D01*
X101986271Y-103595781D01*
X101946611Y-103589500D01*
X101773389Y-103589500D01*
X101733728Y-103595781D01*
X101602302Y-103616597D01*
X101602299Y-103616598D01*
X101461115Y-103662472D01*
X101437552Y-103670128D01*
X101283211Y-103748768D01*
X101209280Y-103802483D01*
X101143072Y-103850586D01*
X101143070Y-103850588D01*
X101143069Y-103850588D01*
X101020588Y-103973069D01*
X101020588Y-103973070D01*
X101020586Y-103973072D01*
X100978858Y-104030506D01*
X100918768Y-104113211D01*
X100840128Y-104267552D01*
X100786597Y-104432302D01*
X100774210Y-104510511D01*
X100759500Y-104603389D01*
X97970500Y-104603389D01*
X97970500Y-103517525D01*
X108449500Y-103517525D01*
X108449500Y-103662475D01*
X108487016Y-103802485D01*
X108487017Y-103802488D01*
X108559488Y-103928011D01*
X108559490Y-103928013D01*
X108559491Y-103928015D01*
X108661985Y-104030509D01*
X108661986Y-104030510D01*
X108661988Y-104030511D01*
X108787511Y-104102982D01*
X108787512Y-104102982D01*
X108787515Y-104102984D01*
X108927525Y-104140500D01*
X108927528Y-104140500D01*
X109072472Y-104140500D01*
X109072475Y-104140500D01*
X109212485Y-104102984D01*
X109338015Y-104030509D01*
X109440509Y-103928015D01*
X109499252Y-103826269D01*
X111743750Y-103826269D01*
X111743750Y-103971219D01*
X111781266Y-104111229D01*
X111781267Y-104111232D01*
X111853738Y-104236755D01*
X111853740Y-104236757D01*
X111853741Y-104236759D01*
X111956235Y-104339253D01*
X111956236Y-104339254D01*
X111956238Y-104339255D01*
X112081761Y-104411726D01*
X112081762Y-104411726D01*
X112081765Y-104411728D01*
X112221775Y-104449244D01*
X112221778Y-104449244D01*
X112366722Y-104449244D01*
X112366725Y-104449244D01*
X112506735Y-104411728D01*
X112632265Y-104339253D01*
X112734759Y-104236759D01*
X112753774Y-104203824D01*
X112804338Y-104155609D01*
X112872945Y-104142385D01*
X112937810Y-104168352D01*
X112968545Y-104203821D01*
X112976736Y-104218008D01*
X112976739Y-104218012D01*
X112976741Y-104218015D01*
X113079235Y-104320509D01*
X113079236Y-104320510D01*
X113079238Y-104320511D01*
X113204761Y-104392982D01*
X113204762Y-104392982D01*
X113204765Y-104392984D01*
X113344775Y-104430500D01*
X113344778Y-104430500D01*
X113489722Y-104430500D01*
X113489725Y-104430500D01*
X113629735Y-104392984D01*
X113755265Y-104320509D01*
X113857759Y-104218015D01*
X113930234Y-104092485D01*
X113967750Y-103952475D01*
X113967750Y-103807525D01*
X113930234Y-103667515D01*
X113927322Y-103662472D01*
X113857761Y-103541988D01*
X113857756Y-103541982D01*
X113755267Y-103439493D01*
X113755261Y-103439488D01*
X113629738Y-103367017D01*
X113629739Y-103367017D01*
X113618256Y-103363940D01*
X113489725Y-103329500D01*
X113344775Y-103329500D01*
X113216243Y-103363940D01*
X113204761Y-103367017D01*
X113079238Y-103439488D01*
X113079232Y-103439493D01*
X112976743Y-103541982D01*
X112976737Y-103541991D01*
X112957725Y-103574920D01*
X112907158Y-103623135D01*
X112838551Y-103636357D01*
X112773686Y-103610389D01*
X112742953Y-103574921D01*
X112736936Y-103564500D01*
X112734759Y-103560729D01*
X112632265Y-103458235D01*
X112632263Y-103458234D01*
X112632261Y-103458232D01*
X112506738Y-103385761D01*
X112506739Y-103385761D01*
X112495256Y-103382684D01*
X112366725Y-103348244D01*
X112221775Y-103348244D01*
X112093243Y-103382684D01*
X112081761Y-103385761D01*
X111956238Y-103458232D01*
X111956232Y-103458237D01*
X111853743Y-103560726D01*
X111853738Y-103560732D01*
X111781267Y-103686255D01*
X111781266Y-103686259D01*
X111743750Y-103826269D01*
X109499252Y-103826269D01*
X109512984Y-103802485D01*
X109550500Y-103662475D01*
X109550500Y-103517525D01*
X109512984Y-103377515D01*
X109506922Y-103367016D01*
X109440511Y-103251988D01*
X109440506Y-103251982D01*
X109338017Y-103149493D01*
X109338011Y-103149488D01*
X109212488Y-103077017D01*
X109212489Y-103077017D01*
X109201006Y-103073940D01*
X109072475Y-103039500D01*
X108927525Y-103039500D01*
X108798993Y-103073940D01*
X108787511Y-103077017D01*
X108661988Y-103149488D01*
X108661982Y-103149493D01*
X108559493Y-103251982D01*
X108559488Y-103251988D01*
X108487017Y-103377511D01*
X108487016Y-103377515D01*
X108449500Y-103517525D01*
X97970500Y-103517525D01*
X97970500Y-101687525D01*
X112905250Y-101687525D01*
X112905250Y-101832475D01*
X112922349Y-101896287D01*
X112942767Y-101972488D01*
X113015238Y-102098011D01*
X113015240Y-102098013D01*
X113015241Y-102098015D01*
X113117735Y-102200509D01*
X113117736Y-102200510D01*
X113117738Y-102200511D01*
X113243261Y-102272982D01*
X113243262Y-102272982D01*
X113243265Y-102272984D01*
X113383275Y-102310500D01*
X113383278Y-102310500D01*
X113528222Y-102310500D01*
X113528225Y-102310500D01*
X113668235Y-102272984D01*
X113793765Y-102200509D01*
X113896259Y-102098015D01*
X113968734Y-101972485D01*
X114006250Y-101832475D01*
X114006250Y-101687525D01*
X113968734Y-101547515D01*
X113926151Y-101473760D01*
X113896261Y-101421988D01*
X113896256Y-101421982D01*
X113793767Y-101319493D01*
X113793761Y-101319488D01*
X113668238Y-101247017D01*
X113668239Y-101247017D01*
X113656756Y-101243940D01*
X113528225Y-101209500D01*
X113383275Y-101209500D01*
X113254743Y-101243940D01*
X113243261Y-101247017D01*
X113117738Y-101319488D01*
X113117732Y-101319493D01*
X113015243Y-101421982D01*
X113015238Y-101421988D01*
X112942767Y-101547511D01*
X112942766Y-101547515D01*
X112905250Y-101687525D01*
X97970500Y-101687525D01*
X97970500Y-97967525D01*
X113549500Y-97967525D01*
X113549500Y-98112475D01*
X113578284Y-98219896D01*
X113587017Y-98252488D01*
X113659488Y-98378011D01*
X113659490Y-98378013D01*
X113659491Y-98378015D01*
X113761985Y-98480509D01*
X113761986Y-98480510D01*
X113761988Y-98480511D01*
X113887511Y-98552982D01*
X113887512Y-98552982D01*
X113887515Y-98552984D01*
X114027525Y-98590500D01*
X114027528Y-98590500D01*
X114172472Y-98590500D01*
X114172475Y-98590500D01*
X114312485Y-98552984D01*
X114438015Y-98480509D01*
X114540509Y-98378015D01*
X114612984Y-98252485D01*
X114650500Y-98112475D01*
X114650500Y-97967525D01*
X114612984Y-97827515D01*
X114604019Y-97811988D01*
X114540511Y-97701988D01*
X114540506Y-97701982D01*
X114438017Y-97599493D01*
X114438011Y-97599488D01*
X114312488Y-97527017D01*
X114312489Y-97527017D01*
X114301006Y-97523940D01*
X114172475Y-97489500D01*
X114027525Y-97489500D01*
X113898993Y-97523940D01*
X113887511Y-97527017D01*
X113761988Y-97599488D01*
X113761982Y-97599493D01*
X113659493Y-97701982D01*
X113659488Y-97701988D01*
X113587017Y-97827511D01*
X113587016Y-97827515D01*
X113549500Y-97967525D01*
X97970500Y-97967525D01*
X97970500Y-96367525D01*
X114529500Y-96367525D01*
X114529500Y-96512475D01*
X114567016Y-96652485D01*
X114567017Y-96652488D01*
X114639488Y-96778011D01*
X114639490Y-96778013D01*
X114639491Y-96778015D01*
X114741985Y-96880509D01*
X114741986Y-96880510D01*
X114741988Y-96880511D01*
X114867511Y-96952982D01*
X114867512Y-96952982D01*
X114867515Y-96952984D01*
X115007525Y-96990500D01*
X115007528Y-96990500D01*
X115152472Y-96990500D01*
X115152475Y-96990500D01*
X115292485Y-96952984D01*
X115418015Y-96880509D01*
X115520509Y-96778015D01*
X115592984Y-96652485D01*
X115630500Y-96512475D01*
X115630500Y-96367525D01*
X115592984Y-96227515D01*
X115572241Y-96191588D01*
X115520511Y-96101988D01*
X115520506Y-96101982D01*
X115418017Y-95999493D01*
X115418011Y-95999488D01*
X115292488Y-95927017D01*
X115292489Y-95927017D01*
X115281006Y-95923940D01*
X115152475Y-95889500D01*
X115007525Y-95889500D01*
X114878993Y-95923940D01*
X114867511Y-95927017D01*
X114741988Y-95999488D01*
X114741982Y-95999493D01*
X114639493Y-96101982D01*
X114639488Y-96101988D01*
X114567017Y-96227511D01*
X114567016Y-96227515D01*
X114529500Y-96367525D01*
X97970500Y-96367525D01*
X97970500Y-93017525D01*
X110289500Y-93017525D01*
X110289500Y-93162475D01*
X110323728Y-93290213D01*
X110327017Y-93302488D01*
X110399488Y-93428011D01*
X110399490Y-93428013D01*
X110399491Y-93428015D01*
X110501985Y-93530509D01*
X110501986Y-93530510D01*
X110501988Y-93530511D01*
X110627511Y-93602982D01*
X110627512Y-93602982D01*
X110627515Y-93602984D01*
X110767525Y-93640500D01*
X110767528Y-93640500D01*
X110912472Y-93640500D01*
X110912475Y-93640500D01*
X111052485Y-93602984D01*
X111178015Y-93530509D01*
X111280509Y-93428015D01*
X111352984Y-93302485D01*
X111390500Y-93162475D01*
X111390500Y-93017525D01*
X111352984Y-92877515D01*
X111324717Y-92828556D01*
X111280511Y-92751988D01*
X111280506Y-92751982D01*
X111178017Y-92649493D01*
X111178011Y-92649488D01*
X111052488Y-92577017D01*
X111052489Y-92577017D01*
X111024435Y-92569500D01*
X110912475Y-92539500D01*
X110767525Y-92539500D01*
X110655565Y-92569500D01*
X110627511Y-92577017D01*
X110501988Y-92649488D01*
X110501982Y-92649493D01*
X110399493Y-92751982D01*
X110399488Y-92751988D01*
X110327017Y-92877511D01*
X110327016Y-92877515D01*
X110289500Y-93017525D01*
X97970500Y-93017525D01*
X97970500Y-90713389D01*
X99109500Y-90713389D01*
X99109500Y-90886610D01*
X99132411Y-91031269D01*
X99136598Y-91057701D01*
X99190127Y-91222445D01*
X99268768Y-91376788D01*
X99370586Y-91516928D01*
X99493072Y-91639414D01*
X99633212Y-91741232D01*
X99787555Y-91819873D01*
X99952299Y-91873402D01*
X100123389Y-91900500D01*
X100123390Y-91900500D01*
X100296610Y-91900500D01*
X100296611Y-91900500D01*
X100467701Y-91873402D01*
X100632445Y-91819873D01*
X100786788Y-91741232D01*
X100926928Y-91639414D01*
X101049414Y-91516928D01*
X101151232Y-91376788D01*
X101229873Y-91222445D01*
X101283402Y-91057701D01*
X101310500Y-90886611D01*
X101310500Y-90713389D01*
X101283402Y-90542299D01*
X101229873Y-90377555D01*
X101151232Y-90223212D01*
X101049414Y-90083072D01*
X100926928Y-89960586D01*
X100786788Y-89858768D01*
X100646965Y-89787525D01*
X109349500Y-89787525D01*
X109349500Y-89932475D01*
X109378382Y-90040262D01*
X109387017Y-90072488D01*
X109459488Y-90198011D01*
X109459490Y-90198013D01*
X109459491Y-90198015D01*
X109561985Y-90300509D01*
X109561986Y-90300510D01*
X109561988Y-90300511D01*
X109687511Y-90372982D01*
X109687512Y-90372982D01*
X109687515Y-90372984D01*
X109827525Y-90410500D01*
X109827528Y-90410500D01*
X109972472Y-90410500D01*
X109972475Y-90410500D01*
X109980708Y-90408294D01*
X115680269Y-90408294D01*
X115680269Y-90553244D01*
X115714560Y-90681219D01*
X115717786Y-90693257D01*
X115790257Y-90818780D01*
X115790259Y-90818782D01*
X115790260Y-90818784D01*
X115892754Y-90921278D01*
X115892755Y-90921279D01*
X115892757Y-90921280D01*
X116018280Y-90993751D01*
X116018281Y-90993751D01*
X116018284Y-90993753D01*
X116136808Y-91025511D01*
X116196467Y-91061876D01*
X116224488Y-91113191D01*
X116256248Y-91231720D01*
X116328719Y-91357242D01*
X116328721Y-91357244D01*
X116328722Y-91357246D01*
X116431216Y-91459740D01*
X116431217Y-91459741D01*
X116431219Y-91459742D01*
X116556742Y-91532213D01*
X116556743Y-91532213D01*
X116556746Y-91532215D01*
X116696756Y-91569731D01*
X116696759Y-91569731D01*
X116841703Y-91569731D01*
X116841706Y-91569731D01*
X116981716Y-91532215D01*
X117107246Y-91459740D01*
X117209740Y-91357246D01*
X117282215Y-91231716D01*
X117319731Y-91091706D01*
X117319731Y-90946756D01*
X117282215Y-90806746D01*
X117264699Y-90776408D01*
X117209742Y-90681219D01*
X117209737Y-90681213D01*
X117107248Y-90578724D01*
X117107242Y-90578719D01*
X116981720Y-90506248D01*
X116864919Y-90474951D01*
X116863190Y-90474487D01*
X116803531Y-90438122D01*
X116775511Y-90386808D01*
X116743753Y-90268284D01*
X116732917Y-90249516D01*
X116671280Y-90142757D01*
X116671275Y-90142751D01*
X116568786Y-90040262D01*
X116568780Y-90040257D01*
X116443257Y-89967786D01*
X116443258Y-89967786D01*
X116417122Y-89960783D01*
X116303244Y-89930269D01*
X116158294Y-89930269D01*
X116044416Y-89960783D01*
X116018280Y-89967786D01*
X115892757Y-90040257D01*
X115892751Y-90040262D01*
X115790262Y-90142751D01*
X115790257Y-90142757D01*
X115717786Y-90268280D01*
X115717785Y-90268284D01*
X115680269Y-90408294D01*
X109980708Y-90408294D01*
X110112485Y-90372984D01*
X110238015Y-90300509D01*
X110340509Y-90198015D01*
X110412984Y-90072485D01*
X110450500Y-89932475D01*
X110450500Y-89787525D01*
X110412984Y-89647515D01*
X110409735Y-89641888D01*
X110340511Y-89521988D01*
X110340506Y-89521982D01*
X110238017Y-89419493D01*
X110238011Y-89419488D01*
X110112488Y-89347017D01*
X110112489Y-89347017D01*
X110061677Y-89333402D01*
X109972475Y-89309500D01*
X109827525Y-89309500D01*
X109738323Y-89333402D01*
X109687511Y-89347017D01*
X109561988Y-89419488D01*
X109561982Y-89419493D01*
X109459493Y-89521982D01*
X109459488Y-89521988D01*
X109387017Y-89647511D01*
X109387016Y-89647515D01*
X109349500Y-89787525D01*
X100646965Y-89787525D01*
X100632445Y-89780127D01*
X100467701Y-89726598D01*
X100467699Y-89726597D01*
X100467698Y-89726597D01*
X100336271Y-89705781D01*
X100296611Y-89699500D01*
X100123389Y-89699500D01*
X100083728Y-89705781D01*
X99952302Y-89726597D01*
X99787552Y-89780128D01*
X99633211Y-89858768D01*
X99553256Y-89916859D01*
X99493072Y-89960586D01*
X99493070Y-89960588D01*
X99493069Y-89960588D01*
X99370588Y-90083069D01*
X99370588Y-90083070D01*
X99370586Y-90083072D01*
X99343681Y-90120104D01*
X99268768Y-90223211D01*
X99190128Y-90377552D01*
X99136597Y-90542302D01*
X99109500Y-90713389D01*
X97970500Y-90713389D01*
X97970500Y-88173389D01*
X99109500Y-88173389D01*
X99109500Y-88346611D01*
X99136598Y-88517701D01*
X99190127Y-88682445D01*
X99268768Y-88836788D01*
X99370586Y-88976928D01*
X99493072Y-89099414D01*
X99633212Y-89201232D01*
X99787555Y-89279873D01*
X99952299Y-89333402D01*
X100123389Y-89360500D01*
X100123390Y-89360500D01*
X100296610Y-89360500D01*
X100296611Y-89360500D01*
X100467701Y-89333402D01*
X100632445Y-89279873D01*
X100786788Y-89201232D01*
X100926928Y-89099414D01*
X101049414Y-88976928D01*
X101151232Y-88836788D01*
X101229873Y-88682445D01*
X101283402Y-88517701D01*
X101310500Y-88346611D01*
X101310500Y-88297525D01*
X111559500Y-88297525D01*
X111559500Y-88442475D01*
X111594096Y-88571588D01*
X111597017Y-88582488D01*
X111669488Y-88708011D01*
X111669490Y-88708013D01*
X111669491Y-88708015D01*
X111771985Y-88810509D01*
X111771986Y-88810510D01*
X111771988Y-88810511D01*
X111897511Y-88882982D01*
X111897512Y-88882982D01*
X111897515Y-88882984D01*
X112037525Y-88920500D01*
X112037528Y-88920500D01*
X112182472Y-88920500D01*
X112182475Y-88920500D01*
X112322485Y-88882984D01*
X112448015Y-88810509D01*
X112550509Y-88708015D01*
X112569916Y-88674400D01*
X112620481Y-88626187D01*
X112689088Y-88612963D01*
X112724749Y-88621839D01*
X112727507Y-88622981D01*
X112727512Y-88622982D01*
X112727515Y-88622984D01*
X112867525Y-88660500D01*
X112867528Y-88660500D01*
X113012472Y-88660500D01*
X113012475Y-88660500D01*
X113152485Y-88622984D01*
X113278015Y-88550509D01*
X113380509Y-88448015D01*
X113452984Y-88322485D01*
X113490500Y-88182475D01*
X113490500Y-88156627D01*
X113510185Y-88089588D01*
X113562989Y-88043833D01*
X113632147Y-88033889D01*
X113646579Y-88036848D01*
X113697525Y-88050500D01*
X113697528Y-88050500D01*
X113842472Y-88050500D01*
X113842475Y-88050500D01*
X113982485Y-88012984D01*
X114108015Y-87940509D01*
X114210509Y-87838015D01*
X114282984Y-87712485D01*
X114320500Y-87572475D01*
X114320500Y-87427525D01*
X114282984Y-87287515D01*
X114265837Y-87257816D01*
X114210511Y-87161988D01*
X114210506Y-87161982D01*
X114108017Y-87059493D01*
X114108011Y-87059488D01*
X113982488Y-86987017D01*
X113982489Y-86987017D01*
X113971006Y-86983940D01*
X113842475Y-86949500D01*
X113697525Y-86949500D01*
X113568993Y-86983940D01*
X113557511Y-86987017D01*
X113431988Y-87059488D01*
X113431982Y-87059493D01*
X113329493Y-87161982D01*
X113329488Y-87161988D01*
X113257017Y-87287511D01*
X113257016Y-87287515D01*
X113219500Y-87427525D01*
X113219500Y-87427527D01*
X113219500Y-87453372D01*
X113199815Y-87520411D01*
X113147011Y-87566166D01*
X113077853Y-87576110D01*
X113063408Y-87573147D01*
X113012476Y-87559500D01*
X113012475Y-87559500D01*
X112867525Y-87559500D01*
X112738993Y-87593940D01*
X112727511Y-87597017D01*
X112601988Y-87669488D01*
X112601982Y-87669493D01*
X112499493Y-87771982D01*
X112499491Y-87771985D01*
X112480084Y-87805599D01*
X112429516Y-87853814D01*
X112360909Y-87867036D01*
X112325246Y-87858160D01*
X112322486Y-87857016D01*
X112287482Y-87847637D01*
X112182475Y-87819500D01*
X112037525Y-87819500D01*
X111909465Y-87853814D01*
X111897511Y-87857017D01*
X111771988Y-87929488D01*
X111771982Y-87929493D01*
X111669493Y-88031982D01*
X111669488Y-88031988D01*
X111597017Y-88157511D01*
X111597016Y-88157515D01*
X111559500Y-88297525D01*
X101310500Y-88297525D01*
X101310500Y-88173389D01*
X101283402Y-88002299D01*
X101229873Y-87837555D01*
X101151232Y-87683212D01*
X101049414Y-87543072D01*
X100926928Y-87420586D01*
X100786788Y-87318768D01*
X100632445Y-87240127D01*
X100467701Y-87186598D01*
X100467699Y-87186597D01*
X100467698Y-87186597D01*
X100336271Y-87165781D01*
X100296611Y-87159500D01*
X100123389Y-87159500D01*
X100083728Y-87165781D01*
X99952302Y-87186597D01*
X99787552Y-87240128D01*
X99633211Y-87318768D01*
X99566123Y-87367511D01*
X99493072Y-87420586D01*
X99493070Y-87420588D01*
X99493069Y-87420588D01*
X99370588Y-87543069D01*
X99370588Y-87543070D01*
X99370586Y-87543072D01*
X99343681Y-87580104D01*
X99268768Y-87683211D01*
X99190128Y-87837552D01*
X99136597Y-88002302D01*
X99116293Y-88130500D01*
X99109500Y-88173389D01*
X97970500Y-88173389D01*
X97970500Y-85633389D01*
X99109500Y-85633389D01*
X99109500Y-85806611D01*
X99115133Y-85842179D01*
X99135692Y-85971985D01*
X99136598Y-85977701D01*
X99190127Y-86142445D01*
X99268768Y-86296788D01*
X99370586Y-86436928D01*
X99493072Y-86559414D01*
X99633212Y-86661232D01*
X99787555Y-86739873D01*
X99952299Y-86793402D01*
X100123389Y-86820500D01*
X100123390Y-86820500D01*
X100296610Y-86820500D01*
X100296611Y-86820500D01*
X100467701Y-86793402D01*
X100632445Y-86739873D01*
X100786788Y-86661232D01*
X100926928Y-86559414D01*
X101049414Y-86436928D01*
X101151232Y-86296788D01*
X101229873Y-86142445D01*
X101283402Y-85977701D01*
X101310500Y-85806611D01*
X101310500Y-85633389D01*
X101283402Y-85462299D01*
X101229873Y-85297555D01*
X101151232Y-85143212D01*
X101049414Y-85003072D01*
X100926928Y-84880586D01*
X100786788Y-84778768D01*
X100632445Y-84700127D01*
X100467701Y-84646598D01*
X100467699Y-84646597D01*
X100467698Y-84646597D01*
X100336271Y-84625781D01*
X100296611Y-84619500D01*
X100123389Y-84619500D01*
X100083728Y-84625781D01*
X99952302Y-84646597D01*
X99787552Y-84700128D01*
X99633211Y-84778768D01*
X99553256Y-84836859D01*
X99493072Y-84880586D01*
X99493070Y-84880588D01*
X99493069Y-84880588D01*
X99370588Y-85003069D01*
X99370588Y-85003070D01*
X99370586Y-85003072D01*
X99359810Y-85017904D01*
X99268768Y-85143211D01*
X99190128Y-85297552D01*
X99136597Y-85462302D01*
X99126885Y-85523622D01*
X99109500Y-85633389D01*
X97970500Y-85633389D01*
X97970500Y-83093389D01*
X99109500Y-83093389D01*
X99109500Y-83266611D01*
X99136598Y-83437701D01*
X99190127Y-83602445D01*
X99268768Y-83756788D01*
X99370586Y-83896928D01*
X99493072Y-84019414D01*
X99633212Y-84121232D01*
X99787555Y-84199873D01*
X99952299Y-84253402D01*
X100123389Y-84280500D01*
X100123390Y-84280500D01*
X100296610Y-84280500D01*
X100296611Y-84280500D01*
X100467701Y-84253402D01*
X100632445Y-84199873D01*
X100786788Y-84121232D01*
X100926928Y-84019414D01*
X101049414Y-83896928D01*
X101151232Y-83756788D01*
X101229873Y-83602445D01*
X101283402Y-83437701D01*
X101310500Y-83266611D01*
X101310500Y-83093389D01*
X101283402Y-82922299D01*
X101229873Y-82757555D01*
X101151232Y-82603212D01*
X101049414Y-82463072D01*
X100926928Y-82340586D01*
X100786788Y-82238768D01*
X100632445Y-82160127D01*
X100467701Y-82106598D01*
X100467699Y-82106597D01*
X100467698Y-82106597D01*
X100336271Y-82085781D01*
X100296611Y-82079500D01*
X100123389Y-82079500D01*
X100083728Y-82085781D01*
X99952302Y-82106597D01*
X99952299Y-82106598D01*
X99811075Y-82152485D01*
X99787552Y-82160128D01*
X99633211Y-82238768D01*
X99560404Y-82291666D01*
X99493072Y-82340586D01*
X99493070Y-82340588D01*
X99493069Y-82340588D01*
X99370588Y-82463069D01*
X99370588Y-82463070D01*
X99370586Y-82463072D01*
X99345279Y-82497904D01*
X99268768Y-82603211D01*
X99190128Y-82757552D01*
X99136597Y-82922302D01*
X99109500Y-83093389D01*
X97970500Y-83093389D01*
X97970500Y-65848596D01*
X97990185Y-65781557D01*
X98042989Y-65735802D01*
X98112147Y-65725858D01*
X98156494Y-65741206D01*
G37*
%TD.AperFunction*%
%TA.AperFunction,Conductor*%
G36*
X124973736Y-52800726D02*
G01*
X125251742Y-52817542D01*
X125266605Y-52819347D01*
X125341845Y-52833135D01*
X125536866Y-52868874D01*
X125551395Y-52872455D01*
X125813713Y-52954197D01*
X125827709Y-52959505D01*
X126078264Y-53072270D01*
X126091522Y-53079228D01*
X126326658Y-53221373D01*
X126338969Y-53229871D01*
X126555261Y-53399324D01*
X126566469Y-53409254D01*
X126760745Y-53603530D01*
X126770675Y-53614738D01*
X126940124Y-53831024D01*
X126948628Y-53843344D01*
X126971825Y-53881716D01*
X127090770Y-54078476D01*
X127097729Y-54091735D01*
X127210494Y-54342290D01*
X127215803Y-54356290D01*
X127297542Y-54618597D01*
X127301126Y-54633137D01*
X127350652Y-54903394D01*
X127352457Y-54918258D01*
X127369274Y-55196263D01*
X127369500Y-55203750D01*
X127369500Y-78801614D01*
X127349815Y-78868653D01*
X127297011Y-78914408D01*
X127227853Y-78924352D01*
X127164297Y-78895327D01*
X127157819Y-78889295D01*
X127148017Y-78879493D01*
X127148011Y-78879488D01*
X127022488Y-78807017D01*
X127022489Y-78807017D01*
X127011006Y-78803940D01*
X126882475Y-78769500D01*
X126737525Y-78769500D01*
X126608993Y-78803940D01*
X126597511Y-78807017D01*
X126471988Y-78879488D01*
X126471982Y-78879493D01*
X126418295Y-78933181D01*
X126356972Y-78966666D01*
X126330614Y-78969500D01*
X126059799Y-78969500D01*
X125970655Y-78993386D01*
X125970654Y-78993386D01*
X125970652Y-78993387D01*
X125970649Y-78993388D01*
X125890737Y-79039526D01*
X125890728Y-79039533D01*
X124488080Y-80442181D01*
X124426757Y-80475666D01*
X124400399Y-80478500D01*
X119574913Y-80478500D01*
X119485769Y-80502386D01*
X119485766Y-80502387D01*
X119405848Y-80548527D01*
X119405843Y-80548531D01*
X119060194Y-80894181D01*
X118998871Y-80927666D01*
X118972513Y-80930500D01*
X117624398Y-80930500D01*
X117557359Y-80910815D01*
X117511604Y-80858011D01*
X117501660Y-80788853D01*
X117504623Y-80774407D01*
X117510500Y-80752475D01*
X117510500Y-80607525D01*
X117472984Y-80467515D01*
X117458357Y-80442181D01*
X117400511Y-80341988D01*
X117400506Y-80341982D01*
X117298017Y-80239493D01*
X117298011Y-80239488D01*
X117172488Y-80167017D01*
X117172489Y-80167017D01*
X117154400Y-80162170D01*
X117032475Y-80129500D01*
X116887525Y-80129500D01*
X116765600Y-80162170D01*
X116747511Y-80167017D01*
X116621988Y-80239488D01*
X116563231Y-80298245D01*
X116501907Y-80331729D01*
X116432216Y-80326744D01*
X116376282Y-80284873D01*
X116368163Y-80272563D01*
X116359187Y-80257016D01*
X116350509Y-80241985D01*
X116248015Y-80139491D01*
X116248013Y-80139490D01*
X116248011Y-80139488D01*
X116122488Y-80067017D01*
X116122489Y-80067017D01*
X116111006Y-80063940D01*
X115982475Y-80029500D01*
X115837525Y-80029500D01*
X115708993Y-80063940D01*
X115697511Y-80067017D01*
X115571988Y-80139488D01*
X115571982Y-80139493D01*
X115469493Y-80241982D01*
X115469488Y-80241988D01*
X115397017Y-80367511D01*
X115397016Y-80367515D01*
X115359500Y-80507525D01*
X115359500Y-80652475D01*
X115391917Y-80773456D01*
X115392172Y-80774406D01*
X115390509Y-80844256D01*
X115351347Y-80902119D01*
X115287118Y-80929623D01*
X115272397Y-80930500D01*
X112457544Y-80930500D01*
X112428103Y-80921855D01*
X112398117Y-80915332D01*
X112393101Y-80911577D01*
X112390505Y-80910815D01*
X112369863Y-80894181D01*
X112336819Y-80861137D01*
X112303334Y-80799814D01*
X112300500Y-80773456D01*
X112300500Y-80697527D01*
X112300500Y-80697525D01*
X112262984Y-80557515D01*
X112257796Y-80548530D01*
X112190511Y-80431988D01*
X112190506Y-80431982D01*
X112082268Y-80323744D01*
X112084285Y-80321726D01*
X112051223Y-80276450D01*
X112047068Y-80206704D01*
X112081279Y-80145783D01*
X112142996Y-80113029D01*
X112167912Y-80110500D01*
X112201472Y-80110500D01*
X112201475Y-80110500D01*
X112341485Y-80072984D01*
X112467015Y-80000509D01*
X112569509Y-79898015D01*
X112641984Y-79772485D01*
X112679500Y-79632475D01*
X112679500Y-79487525D01*
X112641984Y-79347515D01*
X112630612Y-79327819D01*
X112569511Y-79221988D01*
X112569506Y-79221982D01*
X112467017Y-79119493D01*
X112467011Y-79119488D01*
X112369505Y-79063193D01*
X112321289Y-79012626D01*
X112308067Y-78944019D01*
X112334035Y-78879154D01*
X112369502Y-78848420D01*
X112467015Y-78792122D01*
X112569509Y-78689628D01*
X112641984Y-78564098D01*
X112679500Y-78424088D01*
X112679500Y-78279138D01*
X112641984Y-78139128D01*
X112620822Y-78102475D01*
X112569511Y-78013601D01*
X112569506Y-78013595D01*
X112467017Y-77911106D01*
X112467011Y-77911101D01*
X112341488Y-77838630D01*
X112341489Y-77838630D01*
X112330006Y-77835553D01*
X112201475Y-77801113D01*
X112056525Y-77801113D01*
X112035592Y-77806721D01*
X112010598Y-77806126D01*
X111985853Y-77809685D01*
X111976272Y-77805309D01*
X111965743Y-77805059D01*
X111945039Y-77791046D01*
X111922297Y-77780660D01*
X111916602Y-77771798D01*
X111907881Y-77765896D01*
X111898039Y-77742915D01*
X111884523Y-77721882D01*
X111882243Y-77706026D01*
X111880377Y-77701668D01*
X111879500Y-77686947D01*
X111879500Y-77542498D01*
X111899185Y-77475459D01*
X111951989Y-77429704D01*
X112021147Y-77419760D01*
X112035567Y-77422717D01*
X112139260Y-77450502D01*
X112139264Y-77450502D01*
X112284207Y-77450502D01*
X112284210Y-77450502D01*
X112424220Y-77412986D01*
X112549750Y-77340511D01*
X112652244Y-77238017D01*
X112716586Y-77126573D01*
X113049499Y-77126573D01*
X113049499Y-77271523D01*
X113075069Y-77366950D01*
X113087016Y-77411536D01*
X113159487Y-77537059D01*
X113159489Y-77537061D01*
X113159490Y-77537063D01*
X113261984Y-77639557D01*
X113261985Y-77639558D01*
X113261987Y-77639559D01*
X113387510Y-77712030D01*
X113387511Y-77712030D01*
X113387514Y-77712032D01*
X113527524Y-77749548D01*
X113527527Y-77749548D01*
X113535584Y-77750609D01*
X113535343Y-77752438D01*
X113592538Y-77769233D01*
X113638293Y-77822037D01*
X113649499Y-77873548D01*
X113649499Y-77879932D01*
X113685315Y-78013598D01*
X113687016Y-78019945D01*
X113759487Y-78145468D01*
X113759489Y-78145470D01*
X113759490Y-78145472D01*
X113861984Y-78247966D01*
X113861985Y-78247967D01*
X113861987Y-78247968D01*
X113987510Y-78320439D01*
X113987511Y-78320439D01*
X113987514Y-78320441D01*
X114127524Y-78357957D01*
X114127527Y-78357957D01*
X114272471Y-78357957D01*
X114272474Y-78357957D01*
X114412484Y-78320441D01*
X114538014Y-78247966D01*
X114640508Y-78145472D01*
X114712983Y-78019942D01*
X114750499Y-77879932D01*
X114750499Y-77734982D01*
X114712983Y-77594972D01*
X114705330Y-77581717D01*
X114640510Y-77469445D01*
X114640505Y-77469439D01*
X114538016Y-77366950D01*
X114538010Y-77366945D01*
X114412487Y-77294474D01*
X114412488Y-77294474D01*
X114272470Y-77256956D01*
X114264414Y-77255896D01*
X114264654Y-77254066D01*
X114207460Y-77237272D01*
X114161705Y-77184468D01*
X114150499Y-77132957D01*
X114150499Y-77126575D01*
X114150499Y-77126573D01*
X114112983Y-76986563D01*
X114104850Y-76972477D01*
X114040510Y-76861036D01*
X114040505Y-76861030D01*
X113938016Y-76758541D01*
X113938010Y-76758536D01*
X113812487Y-76686065D01*
X113812488Y-76686065D01*
X113795048Y-76681392D01*
X113672474Y-76648548D01*
X113527524Y-76648548D01*
X113404950Y-76681392D01*
X113387510Y-76686065D01*
X113261987Y-76758536D01*
X113261981Y-76758541D01*
X113159492Y-76861030D01*
X113159487Y-76861036D01*
X113087016Y-76986559D01*
X113087015Y-76986563D01*
X113049499Y-77126573D01*
X112716586Y-77126573D01*
X112724719Y-77112487D01*
X112762235Y-76972477D01*
X112762235Y-76827527D01*
X112724719Y-76687517D01*
X112724665Y-76687424D01*
X112652246Y-76561990D01*
X112652241Y-76561984D01*
X112549752Y-76459495D01*
X112549750Y-76459493D01*
X112493097Y-76426784D01*
X112493096Y-76426783D01*
X112424223Y-76387019D01*
X112424224Y-76387019D01*
X112412741Y-76383942D01*
X112284210Y-76349502D01*
X112139260Y-76349502D01*
X112035592Y-76377279D01*
X111965744Y-76375617D01*
X111907881Y-76336455D01*
X111904057Y-76327525D01*
X116609500Y-76327525D01*
X116609500Y-76472475D01*
X116647016Y-76612485D01*
X116647017Y-76612488D01*
X116723555Y-76745054D01*
X116722351Y-76745748D01*
X116744426Y-76802841D01*
X116730390Y-76871286D01*
X116719867Y-76887662D01*
X116719492Y-76888310D01*
X116719492Y-76888311D01*
X116647017Y-77013841D01*
X116609501Y-77153851D01*
X116609501Y-77298801D01*
X116642706Y-77422723D01*
X116647018Y-77438814D01*
X116719489Y-77564337D01*
X116719491Y-77564339D01*
X116719492Y-77564341D01*
X116821986Y-77666835D01*
X116821987Y-77666836D01*
X116821989Y-77666837D01*
X116947512Y-77739308D01*
X116947513Y-77739308D01*
X116947516Y-77739310D01*
X117087526Y-77776826D01*
X117087529Y-77776826D01*
X117232473Y-77776826D01*
X117232476Y-77776826D01*
X117372486Y-77739310D01*
X117479500Y-77677525D01*
X119529500Y-77677525D01*
X119529500Y-77822475D01*
X119567016Y-77962485D01*
X119567017Y-77962488D01*
X119639488Y-78088011D01*
X119639490Y-78088013D01*
X119639491Y-78088015D01*
X119741985Y-78190509D01*
X119741986Y-78190510D01*
X119741988Y-78190511D01*
X119867511Y-78262982D01*
X119867512Y-78262982D01*
X119867515Y-78262984D01*
X120007525Y-78300500D01*
X120007528Y-78300500D01*
X120152472Y-78300500D01*
X120152475Y-78300500D01*
X120292485Y-78262984D01*
X120418015Y-78190509D01*
X120520509Y-78088015D01*
X120592984Y-77962485D01*
X120630500Y-77822475D01*
X120630500Y-77677525D01*
X120592984Y-77537515D01*
X120592724Y-77537065D01*
X120520511Y-77411988D01*
X120520506Y-77411982D01*
X120418017Y-77309493D01*
X120418011Y-77309488D01*
X120292488Y-77237017D01*
X120292489Y-77237017D01*
X120281006Y-77233940D01*
X120152475Y-77199500D01*
X120007525Y-77199500D01*
X119878993Y-77233940D01*
X119867511Y-77237017D01*
X119741988Y-77309488D01*
X119741982Y-77309493D01*
X119639493Y-77411982D01*
X119639488Y-77411988D01*
X119567017Y-77537511D01*
X119567016Y-77537515D01*
X119529500Y-77677525D01*
X117479500Y-77677525D01*
X117498016Y-77666835D01*
X117600510Y-77564341D01*
X117672985Y-77438811D01*
X117710501Y-77298801D01*
X117710501Y-77153851D01*
X117672985Y-77013841D01*
X117649103Y-76972477D01*
X117596446Y-76881272D01*
X117597649Y-76880577D01*
X117575575Y-76823487D01*
X117589609Y-76755042D01*
X117600133Y-76738664D01*
X117600505Y-76738018D01*
X117600509Y-76738015D01*
X117672984Y-76612485D01*
X117710500Y-76472475D01*
X117710500Y-76327525D01*
X117672984Y-76187515D01*
X117600509Y-76061985D01*
X117498015Y-75959491D01*
X117498013Y-75959490D01*
X117498011Y-75959488D01*
X117372488Y-75887017D01*
X117372489Y-75887017D01*
X117361006Y-75883940D01*
X117232475Y-75849500D01*
X117087525Y-75849500D01*
X116958993Y-75883940D01*
X116947511Y-75887017D01*
X116821988Y-75959488D01*
X116821982Y-75959493D01*
X116719493Y-76061982D01*
X116719488Y-76061988D01*
X116647017Y-76187511D01*
X116647016Y-76187515D01*
X116609500Y-76327525D01*
X111904057Y-76327525D01*
X111880377Y-76272226D01*
X111879500Y-76257505D01*
X111879500Y-75007525D01*
X119819500Y-75007525D01*
X119819500Y-75152475D01*
X119857016Y-75292485D01*
X119857017Y-75292488D01*
X119929488Y-75418011D01*
X119929490Y-75418013D01*
X119929491Y-75418015D01*
X120031985Y-75520509D01*
X120031986Y-75520510D01*
X120031988Y-75520511D01*
X120157511Y-75592982D01*
X120157512Y-75592982D01*
X120157515Y-75592984D01*
X120297525Y-75630500D01*
X120297528Y-75630500D01*
X120442472Y-75630500D01*
X120442475Y-75630500D01*
X120582485Y-75592984D01*
X120708015Y-75520509D01*
X120810509Y-75418015D01*
X120882984Y-75292485D01*
X120920500Y-75152475D01*
X120920500Y-75007525D01*
X120882984Y-74867515D01*
X120810509Y-74741985D01*
X120803248Y-74734724D01*
X121526577Y-74734724D01*
X121526577Y-74879674D01*
X121560835Y-75007525D01*
X121564094Y-75019687D01*
X121636565Y-75145210D01*
X121636567Y-75145212D01*
X121636568Y-75145214D01*
X121739062Y-75247708D01*
X121739063Y-75247709D01*
X121739065Y-75247710D01*
X121864588Y-75320181D01*
X121864589Y-75320181D01*
X121864592Y-75320183D01*
X122004602Y-75357699D01*
X122004605Y-75357699D01*
X122149549Y-75357699D01*
X122149552Y-75357699D01*
X122289562Y-75320183D01*
X122415092Y-75247708D01*
X122517586Y-75145214D01*
X122590061Y-75019684D01*
X122627577Y-74879674D01*
X122627577Y-74734724D01*
X122590061Y-74594714D01*
X122575319Y-74569181D01*
X122517588Y-74469187D01*
X122517583Y-74469181D01*
X122415094Y-74366692D01*
X122415088Y-74366687D01*
X122289565Y-74294216D01*
X122289566Y-74294216D01*
X122278083Y-74291139D01*
X122149552Y-74256699D01*
X122004602Y-74256699D01*
X121876070Y-74291139D01*
X121864588Y-74294216D01*
X121739065Y-74366687D01*
X121739059Y-74366692D01*
X121636570Y-74469181D01*
X121636565Y-74469187D01*
X121564094Y-74594710D01*
X121564093Y-74594714D01*
X121526577Y-74734724D01*
X120803248Y-74734724D01*
X120708015Y-74639491D01*
X120708013Y-74639490D01*
X120708011Y-74639488D01*
X120582488Y-74567017D01*
X120582489Y-74567017D01*
X120571006Y-74563940D01*
X120442475Y-74529500D01*
X120297525Y-74529500D01*
X120168993Y-74563940D01*
X120157511Y-74567017D01*
X120031988Y-74639488D01*
X120031982Y-74639493D01*
X119929493Y-74741982D01*
X119929488Y-74741988D01*
X119857017Y-74867511D01*
X119857016Y-74867515D01*
X119819500Y-75007525D01*
X111879500Y-75007525D01*
X111879500Y-73134665D01*
X111899185Y-73067626D01*
X111951989Y-73021871D01*
X112021147Y-73011927D01*
X112035576Y-73014886D01*
X112056525Y-73020500D01*
X112056528Y-73020500D01*
X112201472Y-73020500D01*
X112201475Y-73020500D01*
X112341485Y-72982984D01*
X112467015Y-72910509D01*
X112569509Y-72808015D01*
X112641984Y-72682485D01*
X112643313Y-72677527D01*
X116559500Y-72677527D01*
X116559500Y-72822477D01*
X116583089Y-72910511D01*
X116597017Y-72962490D01*
X116669488Y-73088013D01*
X116669490Y-73088015D01*
X116669491Y-73088017D01*
X116771985Y-73190511D01*
X116771986Y-73190512D01*
X116771988Y-73190513D01*
X116897511Y-73262984D01*
X116897512Y-73262984D01*
X116897515Y-73262986D01*
X117037525Y-73300502D01*
X117037528Y-73300502D01*
X117182472Y-73300502D01*
X117182475Y-73300502D01*
X117322485Y-73262986D01*
X117448015Y-73190511D01*
X117550509Y-73088017D01*
X117622984Y-72962487D01*
X117660500Y-72822477D01*
X117660500Y-72677527D01*
X117622984Y-72537517D01*
X117622982Y-72537513D01*
X117607906Y-72511400D01*
X117607905Y-72511399D01*
X117595340Y-72489637D01*
X117576800Y-72457525D01*
X119909500Y-72457525D01*
X119909500Y-72602475D01*
X119930940Y-72682488D01*
X119947017Y-72742488D01*
X120019488Y-72868011D01*
X120019490Y-72868013D01*
X120019491Y-72868015D01*
X120121985Y-72970509D01*
X120121986Y-72970510D01*
X120121988Y-72970511D01*
X120247511Y-73042982D01*
X120247512Y-73042982D01*
X120247515Y-73042984D01*
X120387525Y-73080500D01*
X120387528Y-73080500D01*
X120532472Y-73080500D01*
X120532475Y-73080500D01*
X120672485Y-73042984D01*
X120798015Y-72970509D01*
X120900509Y-72868015D01*
X120972984Y-72742485D01*
X121010500Y-72602475D01*
X121010500Y-72457525D01*
X120972984Y-72317515D01*
X120968352Y-72309493D01*
X120900511Y-72191988D01*
X120900506Y-72191982D01*
X120798017Y-72089493D01*
X120798011Y-72089488D01*
X120672488Y-72017017D01*
X120672489Y-72017017D01*
X120661006Y-72013940D01*
X120532475Y-71979500D01*
X120387525Y-71979500D01*
X120258993Y-72013940D01*
X120247511Y-72017017D01*
X120121988Y-72089488D01*
X120121982Y-72089493D01*
X120019493Y-72191982D01*
X120019488Y-72191988D01*
X119947017Y-72317511D01*
X119947016Y-72317515D01*
X119909500Y-72457525D01*
X117576800Y-72457525D01*
X117550509Y-72411987D01*
X117448015Y-72309493D01*
X117448013Y-72309492D01*
X117448011Y-72309490D01*
X117322488Y-72237019D01*
X117322489Y-72237019D01*
X117311006Y-72233942D01*
X117182475Y-72199502D01*
X117037525Y-72199502D01*
X116908993Y-72233942D01*
X116897511Y-72237019D01*
X116771988Y-72309490D01*
X116771982Y-72309495D01*
X116669493Y-72411984D01*
X116669488Y-72411990D01*
X116597017Y-72537513D01*
X116597016Y-72537517D01*
X116559500Y-72677527D01*
X112643313Y-72677527D01*
X112679500Y-72542475D01*
X112679500Y-72397525D01*
X112641984Y-72257515D01*
X112637355Y-72249498D01*
X112569511Y-72131988D01*
X112569506Y-72131982D01*
X112467017Y-72029493D01*
X112467015Y-72029491D01*
X112441606Y-72014821D01*
X112393392Y-71964256D01*
X112380168Y-71895649D01*
X112406136Y-71830784D01*
X112415918Y-71819762D01*
X113518862Y-70716819D01*
X113580185Y-70683334D01*
X113606543Y-70680500D01*
X113682472Y-70680500D01*
X113682475Y-70680500D01*
X113822485Y-70642984D01*
X113948015Y-70570509D01*
X114050509Y-70468015D01*
X114122984Y-70342485D01*
X114143070Y-70267525D01*
X117809500Y-70267525D01*
X117809500Y-70412475D01*
X117838976Y-70522478D01*
X117847017Y-70552488D01*
X117919488Y-70678011D01*
X117919490Y-70678013D01*
X117919491Y-70678015D01*
X118021985Y-70780509D01*
X118021986Y-70780510D01*
X118021988Y-70780511D01*
X118147511Y-70852982D01*
X118147512Y-70852982D01*
X118147515Y-70852984D01*
X118287525Y-70890500D01*
X118287528Y-70890500D01*
X118432472Y-70890500D01*
X118432475Y-70890500D01*
X118572485Y-70852984D01*
X118698015Y-70780509D01*
X118800509Y-70678015D01*
X118872984Y-70552485D01*
X118910500Y-70412475D01*
X118910500Y-70267525D01*
X118910500Y-70259398D01*
X118912779Y-70259398D01*
X118915338Y-70242982D01*
X118916613Y-70214615D01*
X118920651Y-70208911D01*
X118921728Y-70202007D01*
X118940576Y-70180770D01*
X118956988Y-70157592D01*
X118964495Y-70153821D01*
X118968108Y-70149751D01*
X118987506Y-70139863D01*
X118994503Y-70137039D01*
X119066896Y-70117642D01*
X119123316Y-70085067D01*
X119131383Y-70081813D01*
X119157841Y-70079214D01*
X119183678Y-70072946D01*
X119192075Y-70075852D01*
X119200918Y-70074984D01*
X119224580Y-70087102D01*
X119249705Y-70095798D01*
X119256147Y-70103268D01*
X119263107Y-70106833D01*
X119271128Y-70120640D01*
X119288263Y-70140510D01*
X119293567Y-70150919D01*
X119420828Y-70326078D01*
X119573922Y-70479172D01*
X119749081Y-70606433D01*
X119774703Y-70619488D01*
X119941990Y-70704726D01*
X119941993Y-70704727D01*
X120044947Y-70738178D01*
X120147903Y-70771630D01*
X120361746Y-70805500D01*
X120361747Y-70805500D01*
X120578253Y-70805500D01*
X120578254Y-70805500D01*
X120792097Y-70771630D01*
X120998009Y-70704726D01*
X121190919Y-70606433D01*
X121366078Y-70479172D01*
X121519172Y-70326078D01*
X121646433Y-70150919D01*
X121744726Y-69958009D01*
X121811630Y-69752097D01*
X121845500Y-69538254D01*
X121845500Y-69321746D01*
X124174500Y-69321746D01*
X124174500Y-69538254D01*
X124176738Y-69552381D01*
X124208370Y-69752098D01*
X124275272Y-69958006D01*
X124275273Y-69958009D01*
X124341050Y-70087102D01*
X124373567Y-70150919D01*
X124500828Y-70326078D01*
X124653922Y-70479172D01*
X124829081Y-70606433D01*
X124854703Y-70619488D01*
X125021990Y-70704726D01*
X125021993Y-70704727D01*
X125124947Y-70738178D01*
X125227903Y-70771630D01*
X125441746Y-70805500D01*
X125441747Y-70805500D01*
X125658253Y-70805500D01*
X125658254Y-70805500D01*
X125872097Y-70771630D01*
X126078009Y-70704726D01*
X126270919Y-70606433D01*
X126446078Y-70479172D01*
X126599172Y-70326078D01*
X126726433Y-70150919D01*
X126824726Y-69958009D01*
X126891630Y-69752097D01*
X126925500Y-69538254D01*
X126925500Y-69321746D01*
X126891630Y-69107903D01*
X126858178Y-69004947D01*
X126824727Y-68901993D01*
X126824726Y-68901990D01*
X126736301Y-68728448D01*
X126726433Y-68709081D01*
X126599172Y-68533922D01*
X126446078Y-68380828D01*
X126270919Y-68253567D01*
X126229510Y-68232468D01*
X126078009Y-68155273D01*
X126078006Y-68155272D01*
X125872098Y-68088370D01*
X125747775Y-68068679D01*
X125658254Y-68054500D01*
X125441746Y-68054500D01*
X125370465Y-68065790D01*
X125227901Y-68088370D01*
X125021993Y-68155272D01*
X125021990Y-68155273D01*
X124829080Y-68253567D01*
X124729145Y-68326174D01*
X124653922Y-68380828D01*
X124653920Y-68380830D01*
X124653919Y-68380830D01*
X124500830Y-68533919D01*
X124500830Y-68533920D01*
X124500828Y-68533922D01*
X124475458Y-68568841D01*
X124373567Y-68709080D01*
X124275273Y-68901990D01*
X124275272Y-68901993D01*
X124208370Y-69107901D01*
X124183882Y-69262509D01*
X124174500Y-69321746D01*
X121845500Y-69321746D01*
X121811630Y-69107903D01*
X121778178Y-69004947D01*
X121744727Y-68901993D01*
X121744726Y-68901990D01*
X121656301Y-68728448D01*
X121646433Y-68709081D01*
X121519172Y-68533922D01*
X121366078Y-68380828D01*
X121190919Y-68253567D01*
X121149510Y-68232468D01*
X120998009Y-68155273D01*
X120998006Y-68155272D01*
X120792098Y-68088370D01*
X120667775Y-68068679D01*
X120578254Y-68054500D01*
X120361746Y-68054500D01*
X120290465Y-68065790D01*
X120147901Y-68088370D01*
X119941993Y-68155272D01*
X119941990Y-68155273D01*
X119749080Y-68253567D01*
X119649145Y-68326174D01*
X119573922Y-68380828D01*
X119573920Y-68380830D01*
X119573919Y-68380830D01*
X119420830Y-68533919D01*
X119420830Y-68533920D01*
X119420828Y-68533922D01*
X119395458Y-68568841D01*
X119293567Y-68709080D01*
X119195273Y-68901990D01*
X119195272Y-68901993D01*
X119164659Y-68996214D01*
X119125222Y-69053889D01*
X119060863Y-69081088D01*
X119014637Y-69077671D01*
X118926886Y-69054158D01*
X118781936Y-69054158D01*
X118653404Y-69088598D01*
X118641922Y-69091675D01*
X118516399Y-69164146D01*
X118516393Y-69164151D01*
X118413904Y-69266640D01*
X118413899Y-69266646D01*
X118341428Y-69392169D01*
X118341427Y-69392173D01*
X118303911Y-69532183D01*
X118303911Y-69532185D01*
X118303911Y-69685260D01*
X118301635Y-69685260D01*
X118292672Y-69742671D01*
X118246282Y-69794919D01*
X118212603Y-69809575D01*
X118168552Y-69821379D01*
X118147511Y-69827017D01*
X118021988Y-69899488D01*
X118021982Y-69899493D01*
X117919493Y-70001982D01*
X117919488Y-70001988D01*
X117847017Y-70127511D01*
X117847016Y-70127515D01*
X117809500Y-70267525D01*
X114143070Y-70267525D01*
X114160500Y-70202475D01*
X114160500Y-70057525D01*
X114122984Y-69917515D01*
X114094731Y-69868580D01*
X114050511Y-69791988D01*
X114050506Y-69791982D01*
X113948017Y-69689493D01*
X113948011Y-69689488D01*
X113822488Y-69617017D01*
X113822489Y-69617017D01*
X113811006Y-69613940D01*
X113682475Y-69579500D01*
X113537525Y-69579500D01*
X113408993Y-69613940D01*
X113397511Y-69617017D01*
X113271988Y-69689488D01*
X113271982Y-69689493D01*
X113169493Y-69791982D01*
X113169488Y-69791988D01*
X113097017Y-69917511D01*
X113097016Y-69917515D01*
X113059500Y-70057525D01*
X113059500Y-70057527D01*
X113059500Y-70133456D01*
X113039815Y-70200495D01*
X113023185Y-70221132D01*
X112918240Y-70326078D01*
X112884484Y-70359834D01*
X112823161Y-70393318D01*
X112753469Y-70388334D01*
X112697536Y-70346462D01*
X112673119Y-70280998D01*
X112687971Y-70212725D01*
X112699865Y-70194828D01*
X112707860Y-70184807D01*
X112765612Y-70064931D01*
X112795240Y-69935210D01*
X112795242Y-69914799D01*
X112795249Y-69914776D01*
X112795249Y-69868585D01*
X112795256Y-69813165D01*
X112795254Y-69813161D01*
X112795256Y-69803660D01*
X112795249Y-69803556D01*
X112795249Y-69800064D01*
X112795263Y-69800016D01*
X112795275Y-69682133D01*
X112795274Y-69682130D01*
X112773063Y-69584779D01*
X112765671Y-69552380D01*
X112707930Y-69432469D01*
X112624949Y-69328418D01*
X112624947Y-69328417D01*
X112624947Y-69328416D01*
X112607840Y-69314776D01*
X112596262Y-69305544D01*
X112556119Y-69248359D01*
X112553264Y-69178548D01*
X112588605Y-69118276D01*
X112596261Y-69111642D01*
X112624884Y-69088824D01*
X112707864Y-68984806D01*
X112765615Y-68864931D01*
X112795243Y-68735209D01*
X112795245Y-68714799D01*
X112795252Y-68714776D01*
X112795252Y-68668585D01*
X112795259Y-68613165D01*
X112795257Y-68613161D01*
X112795259Y-68603660D01*
X112795252Y-68603556D01*
X112795252Y-68600061D01*
X112795263Y-68600023D01*
X112795275Y-68482134D01*
X112795274Y-68482131D01*
X112765671Y-68352382D01*
X112707931Y-68232472D01*
X112707928Y-68232468D01*
X112624954Y-68128422D01*
X112624952Y-68128420D01*
X112574724Y-68088370D01*
X112520895Y-68045448D01*
X112400981Y-67987716D01*
X112271226Y-67958121D01*
X112204682Y-67958132D01*
X111905998Y-67958132D01*
X111838959Y-67938447D01*
X111793204Y-67885643D01*
X111783260Y-67816485D01*
X111794283Y-67780320D01*
X111849868Y-67664924D01*
X111849869Y-67664921D01*
X111867200Y-67589027D01*
X111879491Y-67535206D01*
X111879493Y-67514799D01*
X111879500Y-67514776D01*
X111879500Y-67465509D01*
X111879507Y-67413165D01*
X111879505Y-67413161D01*
X111879507Y-67403661D01*
X111879500Y-67403557D01*
X111879500Y-66789616D01*
X121734500Y-66789616D01*
X121734500Y-66990384D01*
X121756412Y-67128731D01*
X121765907Y-67188680D01*
X121827949Y-67379626D01*
X121915529Y-67551509D01*
X121919095Y-67558508D01*
X122037103Y-67720932D01*
X122179068Y-67862897D01*
X122341492Y-67980905D01*
X122404763Y-68013143D01*
X122520373Y-68072050D01*
X122520375Y-68072050D01*
X122520378Y-68072052D01*
X122711320Y-68134093D01*
X122909616Y-68165500D01*
X122909617Y-68165500D01*
X123110383Y-68165500D01*
X123110384Y-68165500D01*
X123308680Y-68134093D01*
X123499622Y-68072052D01*
X123678508Y-67980905D01*
X123840932Y-67862897D01*
X123982897Y-67720932D01*
X124100905Y-67558508D01*
X124192052Y-67379622D01*
X124254093Y-67188680D01*
X124285500Y-66990384D01*
X124285500Y-66789616D01*
X124254093Y-66591320D01*
X124192052Y-66400378D01*
X124192050Y-66400375D01*
X124192050Y-66400373D01*
X124100904Y-66221491D01*
X123982897Y-66059068D01*
X123840932Y-65917103D01*
X123678508Y-65799095D01*
X123499626Y-65707949D01*
X123308680Y-65645907D01*
X123260853Y-65638332D01*
X123110384Y-65614500D01*
X122909616Y-65614500D01*
X122814998Y-65629486D01*
X122711319Y-65645907D01*
X122520373Y-65707949D01*
X122341491Y-65799095D01*
X122248822Y-65866423D01*
X122179068Y-65917103D01*
X122179066Y-65917105D01*
X122179065Y-65917105D01*
X122037105Y-66059065D01*
X122037105Y-66059066D01*
X122037103Y-66059068D01*
X121991026Y-66122487D01*
X121919095Y-66221491D01*
X121827949Y-66400373D01*
X121765907Y-66591319D01*
X121764846Y-66598018D01*
X121734500Y-66789616D01*
X111879500Y-66789616D01*
X111879500Y-64241746D01*
X119094500Y-64241746D01*
X119094500Y-64458253D01*
X119128370Y-64672098D01*
X119195272Y-64878006D01*
X119195273Y-64878009D01*
X119248428Y-64982330D01*
X119293567Y-65070919D01*
X119420828Y-65246078D01*
X119573922Y-65399172D01*
X119749081Y-65526433D01*
X119822853Y-65564022D01*
X119941990Y-65624726D01*
X119941993Y-65624727D01*
X120007180Y-65645907D01*
X120147903Y-65691630D01*
X120361746Y-65725500D01*
X120361747Y-65725500D01*
X120578253Y-65725500D01*
X120578254Y-65725500D01*
X120792097Y-65691630D01*
X120998009Y-65624726D01*
X121190919Y-65526433D01*
X121366078Y-65399172D01*
X121519172Y-65246078D01*
X121646433Y-65070919D01*
X121744726Y-64878009D01*
X121811630Y-64672097D01*
X121845500Y-64458254D01*
X121845500Y-64241746D01*
X124174500Y-64241746D01*
X124174500Y-64458253D01*
X124208370Y-64672098D01*
X124275272Y-64878006D01*
X124275273Y-64878009D01*
X124328428Y-64982330D01*
X124373567Y-65070919D01*
X124500828Y-65246078D01*
X124653922Y-65399172D01*
X124829081Y-65526433D01*
X124902853Y-65564022D01*
X125021990Y-65624726D01*
X125021993Y-65624727D01*
X125087180Y-65645907D01*
X125227903Y-65691630D01*
X125441746Y-65725500D01*
X125441747Y-65725500D01*
X125658253Y-65725500D01*
X125658254Y-65725500D01*
X125872097Y-65691630D01*
X126078009Y-65624726D01*
X126270919Y-65526433D01*
X126446078Y-65399172D01*
X126599172Y-65246078D01*
X126726433Y-65070919D01*
X126824726Y-64878009D01*
X126891630Y-64672097D01*
X126925500Y-64458254D01*
X126925500Y-64241746D01*
X126891630Y-64027903D01*
X126824726Y-63821991D01*
X126824726Y-63821990D01*
X126742448Y-63660513D01*
X126726433Y-63629081D01*
X126599172Y-63453922D01*
X126446078Y-63300828D01*
X126270919Y-63173567D01*
X126078009Y-63075273D01*
X126078006Y-63075272D01*
X125872098Y-63008370D01*
X125740401Y-62987511D01*
X125658254Y-62974500D01*
X125441746Y-62974500D01*
X125370465Y-62985790D01*
X125227901Y-63008370D01*
X125021993Y-63075272D01*
X125021990Y-63075273D01*
X124829080Y-63173567D01*
X124729145Y-63246174D01*
X124653922Y-63300828D01*
X124653920Y-63300830D01*
X124653919Y-63300830D01*
X124500830Y-63453919D01*
X124500830Y-63453920D01*
X124500828Y-63453922D01*
X124460457Y-63509488D01*
X124373567Y-63629080D01*
X124275273Y-63821990D01*
X124275272Y-63821993D01*
X124208370Y-64027901D01*
X124174500Y-64241746D01*
X121845500Y-64241746D01*
X121811630Y-64027903D01*
X121744726Y-63821991D01*
X121744726Y-63821990D01*
X121662448Y-63660513D01*
X121646433Y-63629081D01*
X121519172Y-63453922D01*
X121366078Y-63300828D01*
X121190919Y-63173567D01*
X120998009Y-63075273D01*
X120998006Y-63075272D01*
X120792098Y-63008370D01*
X120660401Y-62987511D01*
X120578254Y-62974500D01*
X120361746Y-62974500D01*
X120290465Y-62985790D01*
X120147901Y-63008370D01*
X119941993Y-63075272D01*
X119941990Y-63075273D01*
X119749080Y-63173567D01*
X119649145Y-63246174D01*
X119573922Y-63300828D01*
X119573920Y-63300830D01*
X119573919Y-63300830D01*
X119420830Y-63453919D01*
X119420830Y-63453920D01*
X119420828Y-63453922D01*
X119380457Y-63509488D01*
X119293567Y-63629080D01*
X119195273Y-63821990D01*
X119195272Y-63821993D01*
X119128370Y-64027901D01*
X119094500Y-64241746D01*
X111879500Y-64241746D01*
X111879500Y-61802525D01*
X114824500Y-61802525D01*
X114824500Y-61947475D01*
X114862016Y-62087485D01*
X114862017Y-62087488D01*
X114934488Y-62213011D01*
X114934490Y-62213013D01*
X114934491Y-62213015D01*
X115036985Y-62315509D01*
X115036986Y-62315510D01*
X115036988Y-62315511D01*
X115162511Y-62387982D01*
X115162512Y-62387982D01*
X115162515Y-62387984D01*
X115302525Y-62425500D01*
X115302528Y-62425500D01*
X115447472Y-62425500D01*
X115447475Y-62425500D01*
X115587485Y-62387984D01*
X115713015Y-62315509D01*
X115815509Y-62213015D01*
X115887984Y-62087485D01*
X115925500Y-61947475D01*
X115925500Y-61802525D01*
X115887984Y-61662515D01*
X115840052Y-61579495D01*
X115815511Y-61536988D01*
X115815506Y-61536982D01*
X115713017Y-61434493D01*
X115713011Y-61434488D01*
X115587488Y-61362017D01*
X115587489Y-61362017D01*
X115576006Y-61358940D01*
X115447475Y-61324500D01*
X115302525Y-61324500D01*
X115173993Y-61358940D01*
X115162511Y-61362017D01*
X115036988Y-61434488D01*
X115036982Y-61434493D01*
X114934493Y-61536982D01*
X114934488Y-61536988D01*
X114862017Y-61662511D01*
X114862016Y-61662515D01*
X114824500Y-61802525D01*
X111879500Y-61802525D01*
X111879500Y-60402858D01*
X111879500Y-60402856D01*
X111855614Y-60313712D01*
X111855611Y-60313706D01*
X111809473Y-60233794D01*
X111809470Y-60233791D01*
X111809469Y-60233788D01*
X111744212Y-60168531D01*
X110793206Y-59217525D01*
X117209500Y-59217525D01*
X117209500Y-59362475D01*
X117247016Y-59502485D01*
X117247017Y-59502488D01*
X117319488Y-59628011D01*
X117319490Y-59628013D01*
X117319491Y-59628015D01*
X117421985Y-59730509D01*
X117421986Y-59730510D01*
X117421988Y-59730511D01*
X117547511Y-59802982D01*
X117547512Y-59802982D01*
X117547515Y-59802984D01*
X117687525Y-59840500D01*
X117687528Y-59840500D01*
X117832472Y-59840500D01*
X117832475Y-59840500D01*
X117972485Y-59802984D01*
X118098015Y-59730509D01*
X118200509Y-59628015D01*
X118272984Y-59502485D01*
X118310500Y-59362475D01*
X118310500Y-59217525D01*
X118272984Y-59077515D01*
X118200509Y-58951985D01*
X118098015Y-58849491D01*
X118098013Y-58849490D01*
X118098011Y-58849488D01*
X117972488Y-58777017D01*
X117972489Y-58777017D01*
X117961006Y-58773940D01*
X117832475Y-58739500D01*
X117687525Y-58739500D01*
X117558993Y-58773940D01*
X117547511Y-58777017D01*
X117421988Y-58849488D01*
X117421982Y-58849493D01*
X117319493Y-58951982D01*
X117319488Y-58951988D01*
X117247017Y-59077511D01*
X117247016Y-59077515D01*
X117209500Y-59217525D01*
X110793206Y-59217525D01*
X108166819Y-56591137D01*
X108152115Y-56564209D01*
X108135523Y-56538391D01*
X108134631Y-56532190D01*
X108133334Y-56529814D01*
X108130500Y-56503456D01*
X108130500Y-56469607D01*
X109540500Y-56469607D01*
X109540500Y-56614557D01*
X109566740Y-56712485D01*
X109578017Y-56754570D01*
X109650488Y-56880093D01*
X109650490Y-56880095D01*
X109650491Y-56880097D01*
X109752985Y-56982591D01*
X109752986Y-56982592D01*
X109752988Y-56982593D01*
X109878511Y-57055064D01*
X109878512Y-57055064D01*
X109878515Y-57055066D01*
X110018525Y-57092582D01*
X110018528Y-57092582D01*
X110163472Y-57092582D01*
X110163475Y-57092582D01*
X110303485Y-57055066D01*
X110429015Y-56982591D01*
X110531509Y-56880097D01*
X110603984Y-56754567D01*
X110641500Y-56614557D01*
X110641500Y-56469607D01*
X110612236Y-56360394D01*
X111348185Y-56360394D01*
X111348185Y-56505344D01*
X111377448Y-56614554D01*
X111385702Y-56645357D01*
X111458173Y-56770880D01*
X111458175Y-56770882D01*
X111458176Y-56770884D01*
X111560670Y-56873378D01*
X111560671Y-56873379D01*
X111560673Y-56873380D01*
X111686196Y-56945851D01*
X111686197Y-56945851D01*
X111686200Y-56945853D01*
X111826210Y-56983369D01*
X111826213Y-56983369D01*
X111971157Y-56983369D01*
X111971160Y-56983369D01*
X112111170Y-56945853D01*
X112236700Y-56873378D01*
X112339194Y-56770884D01*
X112411669Y-56645354D01*
X112445921Y-56517525D01*
X114669500Y-56517525D01*
X114669500Y-56662475D01*
X114698549Y-56770886D01*
X114707017Y-56802488D01*
X114779488Y-56928011D01*
X114779490Y-56928013D01*
X114779491Y-56928015D01*
X114881985Y-57030509D01*
X114881986Y-57030510D01*
X114881988Y-57030511D01*
X115007511Y-57102982D01*
X115007512Y-57102982D01*
X115007515Y-57102984D01*
X115147525Y-57140500D01*
X115147528Y-57140500D01*
X115292472Y-57140500D01*
X115292475Y-57140500D01*
X115432485Y-57102984D01*
X115558015Y-57030509D01*
X115660509Y-56928015D01*
X115732984Y-56802485D01*
X115770500Y-56662475D01*
X115770500Y-56517525D01*
X115732984Y-56377515D01*
X115723100Y-56360396D01*
X115660511Y-56251988D01*
X115660506Y-56251982D01*
X115558017Y-56149493D01*
X115558011Y-56149488D01*
X115432488Y-56077017D01*
X115432489Y-56077017D01*
X115421006Y-56073940D01*
X115292475Y-56039500D01*
X115147525Y-56039500D01*
X115018993Y-56073940D01*
X115007511Y-56077017D01*
X114881988Y-56149488D01*
X114881982Y-56149493D01*
X114779493Y-56251982D01*
X114779488Y-56251988D01*
X114707017Y-56377511D01*
X114707016Y-56377515D01*
X114669500Y-56517525D01*
X112445921Y-56517525D01*
X112449185Y-56505344D01*
X112449185Y-56360394D01*
X112411669Y-56220384D01*
X112402248Y-56204067D01*
X112339196Y-56094857D01*
X112339191Y-56094851D01*
X112236702Y-55992362D01*
X112236696Y-55992357D01*
X112111173Y-55919886D01*
X112111174Y-55919886D01*
X112099691Y-55916809D01*
X111971160Y-55882369D01*
X111826210Y-55882369D01*
X111697678Y-55916809D01*
X111686196Y-55919886D01*
X111560673Y-55992357D01*
X111560667Y-55992362D01*
X111458178Y-56094851D01*
X111458173Y-56094857D01*
X111385702Y-56220380D01*
X111385701Y-56220384D01*
X111348185Y-56360394D01*
X110612236Y-56360394D01*
X110603984Y-56329597D01*
X110603982Y-56329593D01*
X110603982Y-56329592D01*
X110531511Y-56204070D01*
X110531506Y-56204064D01*
X110429017Y-56101575D01*
X110429011Y-56101570D01*
X110303488Y-56029099D01*
X110303489Y-56029099D01*
X110292006Y-56026022D01*
X110163475Y-55991582D01*
X110018525Y-55991582D01*
X109889993Y-56026022D01*
X109878511Y-56029099D01*
X109752988Y-56101570D01*
X109752982Y-56101575D01*
X109650493Y-56204064D01*
X109650488Y-56204070D01*
X109578017Y-56329593D01*
X109578016Y-56329597D01*
X109540500Y-56469607D01*
X108130500Y-56469607D01*
X108130500Y-56427527D01*
X108130500Y-56427525D01*
X108092984Y-56287515D01*
X108072472Y-56251988D01*
X108020511Y-56161988D01*
X108020506Y-56161982D01*
X107918017Y-56059493D01*
X107918011Y-56059488D01*
X107792488Y-55987017D01*
X107792489Y-55987017D01*
X107779177Y-55983450D01*
X107652475Y-55949500D01*
X107507525Y-55949500D01*
X107380823Y-55983450D01*
X107367511Y-55987017D01*
X107241988Y-56059488D01*
X107241982Y-56059493D01*
X107139493Y-56161982D01*
X107139488Y-56161988D01*
X107067017Y-56287511D01*
X107062583Y-56304055D01*
X107029500Y-56427525D01*
X107029500Y-56572475D01*
X107066061Y-56708922D01*
X107067017Y-56712488D01*
X107139488Y-56838011D01*
X107139490Y-56838013D01*
X107139491Y-56838015D01*
X107241985Y-56940509D01*
X107241986Y-56940510D01*
X107241988Y-56940511D01*
X107367511Y-57012982D01*
X107367512Y-57012982D01*
X107367515Y-57012984D01*
X107507525Y-57050500D01*
X107583456Y-57050500D01*
X107650495Y-57070185D01*
X107671137Y-57086819D01*
X111142181Y-60557862D01*
X111175666Y-60619185D01*
X111178500Y-60645543D01*
X111178500Y-67234132D01*
X111175949Y-67242817D01*
X111177238Y-67251779D01*
X111166259Y-67275819D01*
X111158815Y-67301171D01*
X111151974Y-67307098D01*
X111148213Y-67315335D01*
X111125978Y-67329624D01*
X111106011Y-67346926D01*
X111095496Y-67349213D01*
X111089435Y-67353109D01*
X111054500Y-67358132D01*
X110918479Y-67358132D01*
X110918314Y-67358119D01*
X110904624Y-67358121D01*
X110904354Y-67358042D01*
X110786649Y-67358064D01*
X110786644Y-67358065D01*
X110656915Y-67387701D01*
X110537035Y-67445459D01*
X110537030Y-67445462D01*
X110433009Y-67528445D01*
X110433006Y-67528448D01*
X110425404Y-67537984D01*
X110358141Y-67622358D01*
X110350053Y-67632503D01*
X110292334Y-67752403D01*
X110292334Y-67752404D01*
X110262743Y-67882137D01*
X110262742Y-67882144D01*
X110262752Y-67948585D01*
X110262752Y-68003556D01*
X110262744Y-68003660D01*
X110262752Y-68068680D01*
X110262752Y-68122478D01*
X110262773Y-68122810D01*
X110262774Y-68135198D01*
X110292391Y-68264906D01*
X110292392Y-68264910D01*
X110350124Y-68384779D01*
X110433070Y-68488794D01*
X110433072Y-68488796D01*
X110433074Y-68488798D01*
X110433077Y-68488800D01*
X110461726Y-68511650D01*
X110501863Y-68568841D01*
X110504709Y-68638653D01*
X110469360Y-68698921D01*
X110461738Y-68705526D01*
X110433010Y-68728443D01*
X110433006Y-68728448D01*
X110350053Y-68832503D01*
X110292334Y-68952403D01*
X110292334Y-68952404D01*
X110262743Y-69082137D01*
X110262742Y-69082144D01*
X110262752Y-69148585D01*
X110262752Y-69203556D01*
X110262744Y-69203660D01*
X110262752Y-69268680D01*
X110262752Y-69322478D01*
X110262773Y-69322810D01*
X110262774Y-69335198D01*
X110292391Y-69464906D01*
X110292392Y-69464910D01*
X110350124Y-69584779D01*
X110433070Y-69688794D01*
X110433072Y-69688796D01*
X110433074Y-69688798D01*
X110447887Y-69700612D01*
X110461726Y-69711650D01*
X110501863Y-69768841D01*
X110504709Y-69838653D01*
X110469360Y-69898921D01*
X110461738Y-69905526D01*
X110433010Y-69928443D01*
X110433007Y-69928447D01*
X110374380Y-70001988D01*
X110350053Y-70032503D01*
X110292334Y-70152403D01*
X110292333Y-70152406D01*
X110262744Y-70282135D01*
X110262742Y-70282145D01*
X110262752Y-70345212D01*
X110262752Y-70403556D01*
X110262744Y-70403660D01*
X110262752Y-70468680D01*
X110262752Y-70522478D01*
X110262773Y-70522810D01*
X110262774Y-70535198D01*
X110292391Y-70664906D01*
X110292392Y-70664910D01*
X110350124Y-70784779D01*
X110433070Y-70888794D01*
X110433076Y-70888800D01*
X110542532Y-70976097D01*
X110540608Y-70978508D01*
X110577859Y-71020589D01*
X110588535Y-71089639D01*
X110560185Y-71153498D01*
X110523552Y-71180217D01*
X110524553Y-71181950D01*
X110391988Y-71258486D01*
X110391982Y-71258491D01*
X110289493Y-71360980D01*
X110289488Y-71360986D01*
X110217017Y-71486509D01*
X110217016Y-71486513D01*
X110179500Y-71626523D01*
X110179500Y-71771473D01*
X110217016Y-71911483D01*
X110217017Y-71911486D01*
X110289488Y-72037009D01*
X110289490Y-72037011D01*
X110289491Y-72037013D01*
X110391985Y-72139507D01*
X110391986Y-72139508D01*
X110391988Y-72139509D01*
X110517511Y-72211980D01*
X110517512Y-72211980D01*
X110517515Y-72211982D01*
X110657525Y-72249498D01*
X110657528Y-72249498D01*
X110802472Y-72249498D01*
X110802475Y-72249498D01*
X110942485Y-72211982D01*
X110992499Y-72183105D01*
X111060399Y-72166633D01*
X111126426Y-72189485D01*
X111169617Y-72244406D01*
X111178500Y-72290493D01*
X111178500Y-79679281D01*
X111158815Y-79746320D01*
X111106011Y-79792075D01*
X111036853Y-79802019D01*
X110988529Y-79784275D01*
X110952426Y-79761590D01*
X110826823Y-79717639D01*
X110694601Y-79702742D01*
X110694593Y-79702742D01*
X110562367Y-79717640D01*
X110436769Y-79761588D01*
X110436763Y-79761591D01*
X110324099Y-79832384D01*
X110324095Y-79832387D01*
X110312795Y-79843687D01*
X110312794Y-79843686D01*
X110312792Y-79843689D01*
X110312791Y-79843690D01*
X110268761Y-79887719D01*
X110207438Y-79921204D01*
X110137746Y-79916218D01*
X110093400Y-79887718D01*
X110076819Y-79871137D01*
X110043334Y-79809814D01*
X110040500Y-79783456D01*
X110040500Y-79707527D01*
X110040500Y-79707525D01*
X110002984Y-79567515D01*
X109986809Y-79539500D01*
X109930511Y-79441988D01*
X109930506Y-79441982D01*
X109876819Y-79388295D01*
X109843334Y-79326972D01*
X109840500Y-79300614D01*
X109840500Y-61405868D01*
X109840500Y-61405866D01*
X109816614Y-61316722D01*
X109810291Y-61305770D01*
X109770470Y-61236798D01*
X105121243Y-56587571D01*
X105087758Y-56526248D01*
X105084924Y-56499890D01*
X105084924Y-56423961D01*
X105084924Y-56423959D01*
X105047408Y-56283949D01*
X105028955Y-56251988D01*
X104974935Y-56158422D01*
X104974930Y-56158416D01*
X104872441Y-56055927D01*
X104872435Y-56055922D01*
X104746912Y-55983451D01*
X104746913Y-55983451D01*
X104735430Y-55980374D01*
X104606899Y-55945934D01*
X104461949Y-55945934D01*
X104333417Y-55980374D01*
X104321935Y-55983451D01*
X104196412Y-56055922D01*
X104196406Y-56055927D01*
X104093917Y-56158416D01*
X104093912Y-56158422D01*
X104021441Y-56283945D01*
X104020484Y-56287515D01*
X103983924Y-56423959D01*
X103983924Y-56568909D01*
X104021440Y-56708919D01*
X104021441Y-56708922D01*
X104093912Y-56834445D01*
X104093914Y-56834447D01*
X104093915Y-56834449D01*
X104196409Y-56936943D01*
X104196410Y-56936944D01*
X104196412Y-56936945D01*
X104321935Y-57009416D01*
X104321936Y-57009416D01*
X104321939Y-57009418D01*
X104461949Y-57046934D01*
X104537880Y-57046934D01*
X104604919Y-57066619D01*
X104625561Y-57083253D01*
X107801164Y-60258856D01*
X107834649Y-60320179D01*
X107829665Y-60389871D01*
X107787793Y-60445804D01*
X107775487Y-60453922D01*
X107756718Y-60464758D01*
X107756712Y-60464763D01*
X107654223Y-60567252D01*
X107654218Y-60567258D01*
X107581747Y-60692781D01*
X107581746Y-60692785D01*
X107544230Y-60832795D01*
X107544230Y-60832797D01*
X107544230Y-60908726D01*
X107524545Y-60975765D01*
X107507911Y-60996407D01*
X107299531Y-61204786D01*
X107299527Y-61204791D01*
X107253387Y-61284709D01*
X107253386Y-61284712D01*
X107229500Y-61373856D01*
X107229500Y-66878819D01*
X107209815Y-66945858D01*
X107157011Y-66991613D01*
X107087853Y-67001557D01*
X107024297Y-66972532D01*
X106986523Y-66913754D01*
X106985725Y-66910913D01*
X106962984Y-66826042D01*
X106941953Y-66789616D01*
X106890511Y-66700515D01*
X106890506Y-66700509D01*
X106788017Y-66598020D01*
X106788011Y-66598015D01*
X106662488Y-66525544D01*
X106662489Y-66525544D01*
X106651006Y-66522467D01*
X106522475Y-66488027D01*
X106377525Y-66488027D01*
X106248993Y-66522467D01*
X106237511Y-66525544D01*
X106111988Y-66598015D01*
X106111982Y-66598020D01*
X106009493Y-66700509D01*
X106009488Y-66700515D01*
X105937017Y-66826038D01*
X105937016Y-66826042D01*
X105899500Y-66966052D01*
X105899500Y-67111002D01*
X105922874Y-67198234D01*
X105937017Y-67251015D01*
X106009488Y-67376538D01*
X106009490Y-67376540D01*
X106009491Y-67376542D01*
X106111985Y-67479036D01*
X106111986Y-67479037D01*
X106111988Y-67479038D01*
X106237511Y-67551509D01*
X106237512Y-67551509D01*
X106237515Y-67551511D01*
X106377525Y-67589027D01*
X106377528Y-67589027D01*
X106522472Y-67589027D01*
X106522475Y-67589027D01*
X106662485Y-67551511D01*
X106788015Y-67479036D01*
X106890509Y-67376542D01*
X106962984Y-67251012D01*
X106985726Y-67166138D01*
X107022090Y-67106480D01*
X107084937Y-67075951D01*
X107154313Y-67084246D01*
X107208191Y-67128731D01*
X107229465Y-67195283D01*
X107229500Y-67198234D01*
X107229500Y-77290614D01*
X107209815Y-77357653D01*
X107193181Y-77378295D01*
X107139493Y-77431982D01*
X107139488Y-77431988D01*
X107067017Y-77557511D01*
X107067016Y-77557515D01*
X107029500Y-77697525D01*
X107029500Y-77842475D01*
X107061657Y-77962485D01*
X107067017Y-77982488D01*
X107139488Y-78108011D01*
X107139490Y-78108013D01*
X107139491Y-78108015D01*
X107241985Y-78210509D01*
X107241986Y-78210510D01*
X107241988Y-78210511D01*
X107367511Y-78282982D01*
X107367512Y-78282982D01*
X107367515Y-78282984D01*
X107507525Y-78320500D01*
X107507528Y-78320500D01*
X107652472Y-78320500D01*
X107652475Y-78320500D01*
X107792485Y-78282984D01*
X107918015Y-78210509D01*
X108020509Y-78108015D01*
X108092984Y-77982485D01*
X108130500Y-77842475D01*
X108130500Y-77697525D01*
X108092984Y-77557515D01*
X108069602Y-77517017D01*
X108020511Y-77431988D01*
X108020506Y-77431982D01*
X107966819Y-77378295D01*
X107933334Y-77316972D01*
X107930500Y-77290614D01*
X107930500Y-61616544D01*
X107939144Y-61587103D01*
X107945668Y-61557117D01*
X107949422Y-61552101D01*
X107950185Y-61549505D01*
X107966819Y-61528863D01*
X108003593Y-61492089D01*
X108064916Y-61458604D01*
X108091274Y-61455770D01*
X108167202Y-61455770D01*
X108167205Y-61455770D01*
X108307215Y-61418254D01*
X108432745Y-61345779D01*
X108535239Y-61243285D01*
X108546075Y-61224515D01*
X108596641Y-61176301D01*
X108665248Y-61163077D01*
X108730113Y-61189045D01*
X108741143Y-61198835D01*
X109103181Y-61560873D01*
X109136666Y-61622196D01*
X109139500Y-61648554D01*
X109139500Y-70403372D01*
X109119815Y-70470411D01*
X109067011Y-70516166D01*
X108997853Y-70526110D01*
X108983408Y-70523147D01*
X108932476Y-70509500D01*
X108932475Y-70509500D01*
X108787525Y-70509500D01*
X108658993Y-70543940D01*
X108647511Y-70547017D01*
X108521988Y-70619488D01*
X108521982Y-70619493D01*
X108419493Y-70721982D01*
X108419488Y-70721988D01*
X108347017Y-70847511D01*
X108347016Y-70847515D01*
X108309500Y-70987525D01*
X108309500Y-71132475D01*
X108347016Y-71272485D01*
X108347017Y-71272488D01*
X108419488Y-71398011D01*
X108419490Y-71398013D01*
X108419491Y-71398015D01*
X108521985Y-71500509D01*
X108521986Y-71500510D01*
X108521988Y-71500511D01*
X108647511Y-71572982D01*
X108647512Y-71572982D01*
X108647515Y-71572984D01*
X108787525Y-71610500D01*
X108787528Y-71610500D01*
X108932472Y-71610500D01*
X108932475Y-71610500D01*
X108983409Y-71596852D01*
X109053256Y-71598515D01*
X109111118Y-71637677D01*
X109138623Y-71701905D01*
X109139500Y-71716627D01*
X109139500Y-79300614D01*
X109119815Y-79367653D01*
X109103181Y-79388295D01*
X109049493Y-79441982D01*
X109049488Y-79441988D01*
X108977017Y-79567511D01*
X108977016Y-79567515D01*
X108939500Y-79707525D01*
X108939500Y-79852475D01*
X108976434Y-79990312D01*
X108974771Y-80060162D01*
X108935609Y-80118025D01*
X108871380Y-80145529D01*
X108824567Y-80142181D01*
X108759156Y-80124654D01*
X108614206Y-80124654D01*
X108485674Y-80159094D01*
X108474192Y-80162171D01*
X108348669Y-80234642D01*
X108348663Y-80234647D01*
X108246174Y-80337136D01*
X108246169Y-80337142D01*
X108173698Y-80462665D01*
X108170214Y-80475666D01*
X108136181Y-80602679D01*
X108136181Y-80747629D01*
X108172984Y-80884977D01*
X108173698Y-80887642D01*
X108246169Y-81013165D01*
X108246171Y-81013167D01*
X108246172Y-81013169D01*
X108348666Y-81115663D01*
X108348667Y-81115664D01*
X108348669Y-81115665D01*
X108474192Y-81188136D01*
X108474193Y-81188136D01*
X108474196Y-81188138D01*
X108606501Y-81223589D01*
X108666159Y-81259953D01*
X108696688Y-81322800D01*
X108688393Y-81392176D01*
X108643908Y-81446054D01*
X108636406Y-81450750D01*
X108551985Y-81499491D01*
X108551982Y-81499493D01*
X108449493Y-81601982D01*
X108449488Y-81601988D01*
X108377017Y-81727511D01*
X108377016Y-81727515D01*
X108339500Y-81867525D01*
X108339500Y-81867527D01*
X108339500Y-81974500D01*
X108319815Y-82041539D01*
X108267011Y-82087294D01*
X108215500Y-82098500D01*
X108162525Y-82098500D01*
X108045657Y-82129815D01*
X108022511Y-82136017D01*
X107896988Y-82208488D01*
X107896982Y-82208493D01*
X107794493Y-82310982D01*
X107794488Y-82310988D01*
X107722017Y-82436511D01*
X107722016Y-82436515D01*
X107684500Y-82576525D01*
X107684500Y-82576527D01*
X107684500Y-82721474D01*
X107690109Y-82742407D01*
X107688446Y-82812257D01*
X107649283Y-82870119D01*
X107585055Y-82897623D01*
X107570334Y-82898500D01*
X106355544Y-82898500D01*
X106288505Y-82878815D01*
X106267863Y-82862181D01*
X101363207Y-77957525D01*
X105489500Y-77957525D01*
X105489500Y-78102475D01*
X105527016Y-78242485D01*
X105527017Y-78242488D01*
X105599488Y-78368011D01*
X105599490Y-78368013D01*
X105599491Y-78368015D01*
X105701985Y-78470509D01*
X105701986Y-78470510D01*
X105701988Y-78470511D01*
X105827511Y-78542982D01*
X105827512Y-78542982D01*
X105827515Y-78542984D01*
X105967525Y-78580500D01*
X105967528Y-78580500D01*
X106112472Y-78580500D01*
X106112475Y-78580500D01*
X106252485Y-78542984D01*
X106378015Y-78470509D01*
X106480509Y-78368015D01*
X106552984Y-78242485D01*
X106590500Y-78102475D01*
X106590500Y-77957525D01*
X106552984Y-77817515D01*
X106548463Y-77809685D01*
X106480511Y-77691988D01*
X106480506Y-77691982D01*
X106378017Y-77589493D01*
X106378011Y-77589488D01*
X106252488Y-77517017D01*
X106252489Y-77517017D01*
X106241006Y-77513940D01*
X106112475Y-77479500D01*
X105967525Y-77479500D01*
X105838993Y-77513940D01*
X105827511Y-77517017D01*
X105701988Y-77589488D01*
X105701982Y-77589493D01*
X105599493Y-77691982D01*
X105599488Y-77691988D01*
X105527017Y-77817511D01*
X105527016Y-77817515D01*
X105489500Y-77957525D01*
X101363207Y-77957525D01*
X100468974Y-77063292D01*
X100435489Y-77001969D01*
X100432655Y-76975611D01*
X100432655Y-70075936D01*
X100452340Y-70008897D01*
X100505144Y-69963142D01*
X100574302Y-69953198D01*
X100618654Y-69968549D01*
X100652313Y-69987982D01*
X100792323Y-70025498D01*
X100792326Y-70025498D01*
X100937270Y-70025498D01*
X100937273Y-70025498D01*
X101077283Y-69987982D01*
X101202813Y-69915507D01*
X101305307Y-69813013D01*
X101377782Y-69687483D01*
X101415298Y-69547473D01*
X101415298Y-69402523D01*
X101377782Y-69262513D01*
X101320992Y-69164151D01*
X101305309Y-69136986D01*
X101305304Y-69136980D01*
X101202815Y-69034491D01*
X101202809Y-69034486D01*
X101077286Y-68962015D01*
X101077287Y-68962015D01*
X101041418Y-68952404D01*
X100937273Y-68924498D01*
X100792323Y-68924498D01*
X100688178Y-68952404D01*
X100652309Y-68962015D01*
X100618655Y-68981446D01*
X100550755Y-68997919D01*
X100484728Y-68975067D01*
X100441538Y-68920145D01*
X100432655Y-68874059D01*
X100432655Y-66977527D01*
X102749502Y-66977527D01*
X102749502Y-67122477D01*
X102783943Y-67251012D01*
X102787019Y-67262490D01*
X102859490Y-67388013D01*
X102859492Y-67388015D01*
X102859493Y-67388017D01*
X102961987Y-67490511D01*
X102961988Y-67490512D01*
X102961990Y-67490513D01*
X103087513Y-67562984D01*
X103087514Y-67562984D01*
X103087517Y-67562986D01*
X103227527Y-67600502D01*
X103227530Y-67600502D01*
X103372474Y-67600502D01*
X103372477Y-67600502D01*
X103512487Y-67562986D01*
X103638017Y-67490511D01*
X103740511Y-67388017D01*
X103812986Y-67262487D01*
X103850502Y-67122477D01*
X103850502Y-66977527D01*
X103812986Y-66837517D01*
X103785330Y-66789616D01*
X103740513Y-66711990D01*
X103740508Y-66711984D01*
X103638019Y-66609495D01*
X103638013Y-66609490D01*
X103512490Y-66537019D01*
X103512491Y-66537019D01*
X103501008Y-66533942D01*
X103372477Y-66499502D01*
X103227527Y-66499502D01*
X103098995Y-66533942D01*
X103087513Y-66537019D01*
X102961990Y-66609490D01*
X102961984Y-66609495D01*
X102859495Y-66711984D01*
X102859490Y-66711990D01*
X102787019Y-66837513D01*
X102787018Y-66837517D01*
X102749502Y-66977527D01*
X100432655Y-66977527D01*
X100432655Y-63877525D01*
X101299500Y-63877525D01*
X101299500Y-64022475D01*
X101337016Y-64162485D01*
X101337017Y-64162488D01*
X101409488Y-64288011D01*
X101409490Y-64288013D01*
X101409491Y-64288015D01*
X101511985Y-64390509D01*
X101511986Y-64390510D01*
X101511988Y-64390511D01*
X101637511Y-64462982D01*
X101637512Y-64462982D01*
X101637515Y-64462984D01*
X101777525Y-64500500D01*
X101777528Y-64500500D01*
X101922472Y-64500500D01*
X101922475Y-64500500D01*
X102062485Y-64462984D01*
X102188015Y-64390509D01*
X102290509Y-64288015D01*
X102362984Y-64162485D01*
X102400500Y-64022475D01*
X102400500Y-63877525D01*
X102362984Y-63737515D01*
X102319486Y-63662175D01*
X102290511Y-63611988D01*
X102290506Y-63611982D01*
X102188017Y-63509493D01*
X102188011Y-63509488D01*
X102062488Y-63437017D01*
X102062489Y-63437017D01*
X102051006Y-63433940D01*
X101922475Y-63399500D01*
X101777525Y-63399500D01*
X101648993Y-63433940D01*
X101637511Y-63437017D01*
X101511988Y-63509488D01*
X101511982Y-63509493D01*
X101409493Y-63611982D01*
X101409488Y-63611988D01*
X101337017Y-63737511D01*
X101337016Y-63737515D01*
X101299500Y-63877525D01*
X100432655Y-63877525D01*
X100432655Y-62479386D01*
X100452340Y-62412347D01*
X100468974Y-62391705D01*
X100487472Y-62373207D01*
X100522664Y-62338015D01*
X100595139Y-62212485D01*
X100632655Y-62072475D01*
X100632655Y-61927525D01*
X100626778Y-61905592D01*
X100628441Y-61835743D01*
X100667604Y-61777881D01*
X100731832Y-61750377D01*
X100746553Y-61749500D01*
X100906496Y-61749500D01*
X100906498Y-61749500D01*
X100995642Y-61725614D01*
X101031497Y-61704913D01*
X101059272Y-61688876D01*
X101121271Y-61672265D01*
X101347379Y-61672265D01*
X101414418Y-61691950D01*
X101435060Y-61708584D01*
X101488750Y-61762274D01*
X101488751Y-61762275D01*
X101488753Y-61762276D01*
X101614276Y-61834747D01*
X101614277Y-61834747D01*
X101614280Y-61834749D01*
X101754290Y-61872265D01*
X101754293Y-61872265D01*
X101899237Y-61872265D01*
X101899240Y-61872265D01*
X102039250Y-61834749D01*
X102164780Y-61762274D01*
X102267274Y-61659780D01*
X102329694Y-61551664D01*
X102380259Y-61503451D01*
X102448866Y-61490227D01*
X102453275Y-61490728D01*
X102457766Y-61491319D01*
X102457771Y-61491321D01*
X102457776Y-61491321D01*
X102602718Y-61491321D01*
X102602721Y-61491321D01*
X102742731Y-61453805D01*
X102868261Y-61381330D01*
X102955732Y-61293859D01*
X103017055Y-61260374D01*
X103086747Y-61265358D01*
X103109570Y-61276663D01*
X103121292Y-61284057D01*
X103127335Y-61290100D01*
X103169062Y-61314191D01*
X103171115Y-61315486D01*
X103192671Y-61339943D01*
X103215173Y-61363542D01*
X103215649Y-61366013D01*
X103217314Y-61367902D01*
X103222224Y-61400126D01*
X103228397Y-61432148D01*
X103227460Y-61434486D01*
X103227840Y-61436974D01*
X103214546Y-61466745D01*
X103202429Y-61497014D01*
X103200148Y-61498989D01*
X103199353Y-61500772D01*
X103194196Y-61504147D01*
X103166959Y-61527750D01*
X103077335Y-61579494D01*
X102979496Y-61677333D01*
X102979492Y-61677338D01*
X102910313Y-61797161D01*
X102910312Y-61797164D01*
X102874500Y-61930817D01*
X102874500Y-62069183D01*
X102892810Y-62137515D01*
X102910312Y-62202835D01*
X102910313Y-62202838D01*
X102979492Y-62322661D01*
X102979494Y-62322664D01*
X102979495Y-62322665D01*
X103077335Y-62420505D01*
X103077336Y-62420506D01*
X103077338Y-62420507D01*
X103204203Y-62493752D01*
X103202954Y-62495914D01*
X103247582Y-62531876D01*
X103269649Y-62598170D01*
X103252371Y-62665870D01*
X103207729Y-62709986D01*
X103121985Y-62759491D01*
X103121982Y-62759493D01*
X103019493Y-62861982D01*
X103019488Y-62861988D01*
X102947017Y-62987511D01*
X102947016Y-62987515D01*
X102909500Y-63127525D01*
X102909500Y-63272475D01*
X102943537Y-63399500D01*
X102947017Y-63412488D01*
X103019488Y-63538011D01*
X103019490Y-63538013D01*
X103019491Y-63538015D01*
X103121985Y-63640509D01*
X103121986Y-63640510D01*
X103121988Y-63640511D01*
X103247511Y-63712982D01*
X103247512Y-63712982D01*
X103247515Y-63712984D01*
X103387525Y-63750500D01*
X103387528Y-63750500D01*
X103532472Y-63750500D01*
X103532475Y-63750500D01*
X103672485Y-63712984D01*
X103798015Y-63640509D01*
X103900509Y-63538015D01*
X103972984Y-63412485D01*
X104010500Y-63272475D01*
X104010500Y-63127525D01*
X103972984Y-62987515D01*
X103964597Y-62972989D01*
X103900511Y-62861988D01*
X103900506Y-62861982D01*
X103798017Y-62759493D01*
X103798011Y-62759488D01*
X103672486Y-62687016D01*
X103665233Y-62684012D01*
X103610829Y-62640173D01*
X103588762Y-62573879D01*
X103606040Y-62506179D01*
X103650681Y-62462064D01*
X103722665Y-62420505D01*
X103820505Y-62322665D01*
X103889688Y-62202836D01*
X103925500Y-62069183D01*
X103925500Y-61930817D01*
X103889688Y-61797164D01*
X103820505Y-61677335D01*
X103722665Y-61579495D01*
X103722663Y-61579494D01*
X103722658Y-61579490D01*
X103683042Y-61556618D01*
X103634826Y-61506052D01*
X103621602Y-61437445D01*
X103647570Y-61372580D01*
X103683039Y-61341844D01*
X103772665Y-61290100D01*
X103870505Y-61192260D01*
X103939688Y-61072431D01*
X103975500Y-60938778D01*
X103975500Y-60800412D01*
X103939688Y-60666759D01*
X103897785Y-60594181D01*
X103870507Y-60546933D01*
X103870503Y-60546928D01*
X103772666Y-60449091D01*
X103772661Y-60449087D01*
X103652838Y-60379908D01*
X103652837Y-60379907D01*
X103652836Y-60379907D01*
X103519183Y-60344095D01*
X103380817Y-60344095D01*
X103247164Y-60379907D01*
X103247161Y-60379908D01*
X103127338Y-60449087D01*
X103127333Y-60449091D01*
X103059868Y-60516557D01*
X102998545Y-60550042D01*
X102928853Y-60545058D01*
X102884506Y-60516557D01*
X102868263Y-60500314D01*
X102868257Y-60500309D01*
X102742734Y-60427838D01*
X102742735Y-60427838D01*
X102731252Y-60424761D01*
X102602721Y-60390321D01*
X102457771Y-60390321D01*
X102329239Y-60424761D01*
X102317757Y-60427838D01*
X102192234Y-60500309D01*
X102192228Y-60500314D01*
X102089739Y-60602803D01*
X102089737Y-60602806D01*
X102027317Y-60710920D01*
X101976749Y-60759135D01*
X101908142Y-60772357D01*
X101903743Y-60771858D01*
X101899240Y-60771265D01*
X101754290Y-60771265D01*
X101645506Y-60800414D01*
X101614276Y-60808782D01*
X101488753Y-60881253D01*
X101488747Y-60881258D01*
X101435060Y-60934946D01*
X101373737Y-60968431D01*
X101347379Y-60971265D01*
X100891445Y-60971265D01*
X100802301Y-60995151D01*
X100802298Y-60995152D01*
X100738672Y-61031887D01*
X100676672Y-61048500D01*
X99787068Y-61048500D01*
X99697924Y-61072386D01*
X99697921Y-61072387D01*
X99618003Y-61118527D01*
X99617998Y-61118531D01*
X99200686Y-61535843D01*
X99200684Y-61535846D01*
X99188692Y-61556618D01*
X99155440Y-61614212D01*
X99155436Y-61614219D01*
X99154541Y-61615768D01*
X99154541Y-61615769D01*
X99130656Y-61704912D01*
X99130655Y-61704914D01*
X99130655Y-62010188D01*
X99110970Y-62077227D01*
X99058166Y-62122982D01*
X98989008Y-62132926D01*
X98925452Y-62103901D01*
X98899268Y-62072189D01*
X98896149Y-62066788D01*
X98864509Y-62011985D01*
X98762015Y-61909491D01*
X98762013Y-61909490D01*
X98762011Y-61909488D01*
X98636488Y-61837017D01*
X98636489Y-61837017D01*
X98625006Y-61833940D01*
X98496475Y-61799500D01*
X98351525Y-61799500D01*
X98222993Y-61833940D01*
X98211511Y-61837017D01*
X98156500Y-61868778D01*
X98088599Y-61885251D01*
X98022573Y-61862398D01*
X97979382Y-61807477D01*
X97970500Y-61761391D01*
X97970500Y-60104664D01*
X104517604Y-60104664D01*
X104517604Y-60249614D01*
X104552517Y-60379908D01*
X104555121Y-60389627D01*
X104627592Y-60515150D01*
X104627594Y-60515152D01*
X104627595Y-60515154D01*
X104730089Y-60617648D01*
X104730090Y-60617649D01*
X104730092Y-60617650D01*
X104855615Y-60690121D01*
X104855616Y-60690121D01*
X104855619Y-60690123D01*
X104995629Y-60727639D01*
X104995632Y-60727639D01*
X105140576Y-60727639D01*
X105140579Y-60727639D01*
X105280589Y-60690123D01*
X105406119Y-60617648D01*
X105508613Y-60515154D01*
X105581088Y-60389624D01*
X105618604Y-60249614D01*
X105618604Y-60104664D01*
X105581088Y-59964654D01*
X105509407Y-59840500D01*
X105508615Y-59839127D01*
X105508610Y-59839121D01*
X105406121Y-59736632D01*
X105406115Y-59736627D01*
X105280592Y-59664156D01*
X105280593Y-59664156D01*
X105269110Y-59661079D01*
X105140579Y-59626639D01*
X104995629Y-59626639D01*
X104867097Y-59661079D01*
X104855615Y-59664156D01*
X104730092Y-59736627D01*
X104730086Y-59736632D01*
X104627597Y-59839121D01*
X104627592Y-59839127D01*
X104555121Y-59964650D01*
X104555120Y-59964654D01*
X104517604Y-60104664D01*
X97970500Y-60104664D01*
X97970500Y-55381995D01*
X98899500Y-55381995D01*
X98899500Y-55618004D01*
X98899501Y-55618020D01*
X98930306Y-55852010D01*
X98991394Y-56079993D01*
X99081714Y-56298045D01*
X99081719Y-56298056D01*
X99152677Y-56420957D01*
X99199727Y-56502450D01*
X99199729Y-56502453D01*
X99199730Y-56502454D01*
X99343406Y-56689697D01*
X99343412Y-56689704D01*
X99510295Y-56856587D01*
X99510302Y-56856593D01*
X99540928Y-56880093D01*
X99697550Y-57000273D01*
X99812465Y-57066619D01*
X99901943Y-57118280D01*
X99901948Y-57118282D01*
X99901951Y-57118284D01*
X100120007Y-57208606D01*
X100347986Y-57269693D01*
X100581989Y-57300500D01*
X100581996Y-57300500D01*
X100818004Y-57300500D01*
X100818011Y-57300500D01*
X101052014Y-57269693D01*
X101279993Y-57208606D01*
X101498049Y-57118284D01*
X101702450Y-57000273D01*
X101889699Y-56856592D01*
X102056592Y-56689699D01*
X102200273Y-56502450D01*
X102318284Y-56298049D01*
X102408606Y-56079993D01*
X102469693Y-55852014D01*
X102500500Y-55618011D01*
X102500500Y-55381989D01*
X102480164Y-55227525D01*
X105729500Y-55227525D01*
X105729500Y-55372475D01*
X105767016Y-55512485D01*
X105767017Y-55512488D01*
X105839488Y-55638011D01*
X105839490Y-55638013D01*
X105839491Y-55638015D01*
X105941985Y-55740509D01*
X105941986Y-55740510D01*
X105941988Y-55740511D01*
X106067511Y-55812982D01*
X106067512Y-55812982D01*
X106067515Y-55812984D01*
X106207525Y-55850500D01*
X106207528Y-55850500D01*
X106352472Y-55850500D01*
X106352475Y-55850500D01*
X106492485Y-55812984D01*
X106618015Y-55740509D01*
X106720509Y-55638015D01*
X106792984Y-55512485D01*
X106830500Y-55372475D01*
X106830500Y-55227525D01*
X106817102Y-55177525D01*
X118449500Y-55177525D01*
X118449500Y-55322475D01*
X118465445Y-55381981D01*
X118487017Y-55462488D01*
X118559488Y-55588011D01*
X118559490Y-55588013D01*
X118559491Y-55588015D01*
X118661985Y-55690509D01*
X118661986Y-55690510D01*
X118661988Y-55690511D01*
X118787511Y-55762982D01*
X118787512Y-55762982D01*
X118787515Y-55762984D01*
X118927525Y-55800500D01*
X118927528Y-55800500D01*
X119072472Y-55800500D01*
X119072475Y-55800500D01*
X119212485Y-55762984D01*
X119338015Y-55690509D01*
X119440509Y-55588015D01*
X119512984Y-55462485D01*
X119534551Y-55381995D01*
X122899500Y-55381995D01*
X122899500Y-55618004D01*
X122899501Y-55618020D01*
X122930306Y-55852010D01*
X122991394Y-56079993D01*
X123081714Y-56298045D01*
X123081719Y-56298056D01*
X123152677Y-56420957D01*
X123199727Y-56502450D01*
X123199729Y-56502453D01*
X123199730Y-56502454D01*
X123343406Y-56689697D01*
X123343412Y-56689704D01*
X123510295Y-56856587D01*
X123510302Y-56856593D01*
X123540928Y-56880093D01*
X123697550Y-57000273D01*
X123812465Y-57066619D01*
X123901943Y-57118280D01*
X123901948Y-57118282D01*
X123901951Y-57118284D01*
X124120007Y-57208606D01*
X124347986Y-57269693D01*
X124581989Y-57300500D01*
X124581996Y-57300500D01*
X124818004Y-57300500D01*
X124818011Y-57300500D01*
X125052014Y-57269693D01*
X125279993Y-57208606D01*
X125498049Y-57118284D01*
X125702450Y-57000273D01*
X125889699Y-56856592D01*
X126056592Y-56689699D01*
X126200273Y-56502450D01*
X126318284Y-56298049D01*
X126408606Y-56079993D01*
X126469693Y-55852014D01*
X126500500Y-55618011D01*
X126500500Y-55381989D01*
X126469693Y-55147986D01*
X126408606Y-54920007D01*
X126318284Y-54701951D01*
X126318282Y-54701948D01*
X126318280Y-54701943D01*
X126274296Y-54625762D01*
X126200273Y-54497550D01*
X126091881Y-54356290D01*
X126056593Y-54310302D01*
X126056587Y-54310295D01*
X125889704Y-54143412D01*
X125889697Y-54143406D01*
X125702454Y-53999730D01*
X125702453Y-53999729D01*
X125702450Y-53999727D01*
X125615454Y-53949500D01*
X125498056Y-53881719D01*
X125498045Y-53881714D01*
X125279993Y-53791394D01*
X125052010Y-53730306D01*
X124818020Y-53699501D01*
X124818017Y-53699500D01*
X124818011Y-53699500D01*
X124581989Y-53699500D01*
X124581983Y-53699500D01*
X124581979Y-53699501D01*
X124347989Y-53730306D01*
X124120006Y-53791394D01*
X123901954Y-53881714D01*
X123901943Y-53881719D01*
X123697545Y-53999730D01*
X123510302Y-54143406D01*
X123510295Y-54143412D01*
X123343412Y-54310295D01*
X123343406Y-54310302D01*
X123199730Y-54497545D01*
X123081719Y-54701943D01*
X123081714Y-54701954D01*
X122991394Y-54920006D01*
X122930306Y-55147989D01*
X122899501Y-55381979D01*
X122899500Y-55381995D01*
X119534551Y-55381995D01*
X119550500Y-55322475D01*
X119550500Y-55177525D01*
X119512984Y-55037515D01*
X119469378Y-54961988D01*
X119440511Y-54911988D01*
X119440506Y-54911982D01*
X119338017Y-54809493D01*
X119338011Y-54809488D01*
X119212488Y-54737017D01*
X119212489Y-54737017D01*
X119186204Y-54729974D01*
X119072475Y-54699500D01*
X118927525Y-54699500D01*
X118813796Y-54729974D01*
X118787511Y-54737017D01*
X118661988Y-54809488D01*
X118661982Y-54809493D01*
X118559493Y-54911982D01*
X118559488Y-54911988D01*
X118487017Y-55037511D01*
X118487016Y-55037515D01*
X118449500Y-55177525D01*
X106817102Y-55177525D01*
X106792984Y-55087515D01*
X106771613Y-55050500D01*
X106720511Y-54961988D01*
X106720506Y-54961982D01*
X106618017Y-54859493D01*
X106618011Y-54859488D01*
X106492488Y-54787017D01*
X106492489Y-54787017D01*
X106481006Y-54783940D01*
X106352475Y-54749500D01*
X106207525Y-54749500D01*
X106078993Y-54783940D01*
X106067511Y-54787017D01*
X105941988Y-54859488D01*
X105941982Y-54859493D01*
X105839493Y-54961982D01*
X105839488Y-54961988D01*
X105767017Y-55087511D01*
X105767016Y-55087515D01*
X105729500Y-55227525D01*
X102480164Y-55227525D01*
X102469693Y-55147986D01*
X102408606Y-54920007D01*
X102318284Y-54701951D01*
X102318282Y-54701948D01*
X102318280Y-54701943D01*
X102274296Y-54625762D01*
X102200273Y-54497550D01*
X102199785Y-54496914D01*
X102198224Y-54494879D01*
X102198223Y-54494878D01*
X102146541Y-54427525D01*
X108164500Y-54427525D01*
X108164500Y-54572475D01*
X108199194Y-54701954D01*
X108202017Y-54712488D01*
X108274488Y-54838011D01*
X108274490Y-54838013D01*
X108274491Y-54838015D01*
X108376985Y-54940509D01*
X108376986Y-54940510D01*
X108376988Y-54940511D01*
X108502511Y-55012982D01*
X108502512Y-55012982D01*
X108502515Y-55012984D01*
X108642525Y-55050500D01*
X108642528Y-55050500D01*
X108787472Y-55050500D01*
X108787475Y-55050500D01*
X108927485Y-55012984D01*
X109053015Y-54940509D01*
X109155509Y-54838015D01*
X109227984Y-54712485D01*
X109265500Y-54572475D01*
X109265500Y-54427525D01*
X110859500Y-54427525D01*
X110859500Y-54572475D01*
X110894194Y-54701954D01*
X110897017Y-54712488D01*
X110969488Y-54838011D01*
X110969490Y-54838013D01*
X110969491Y-54838015D01*
X111071985Y-54940509D01*
X111071986Y-54940510D01*
X111071988Y-54940511D01*
X111197511Y-55012982D01*
X111197512Y-55012982D01*
X111197515Y-55012984D01*
X111337525Y-55050500D01*
X111337528Y-55050500D01*
X111482473Y-55050500D01*
X111482475Y-55050500D01*
X111622485Y-55012984D01*
X111748015Y-54940509D01*
X111850509Y-54838015D01*
X111922984Y-54712485D01*
X111960500Y-54572475D01*
X111960500Y-54427525D01*
X111922984Y-54287515D01*
X111850509Y-54161985D01*
X111748015Y-54059491D01*
X111748013Y-54059490D01*
X111748011Y-54059488D01*
X111622488Y-53987017D01*
X111622489Y-53987017D01*
X111611006Y-53983940D01*
X111482475Y-53949500D01*
X111337525Y-53949500D01*
X111208993Y-53983940D01*
X111197511Y-53987017D01*
X111071988Y-54059488D01*
X111071982Y-54059493D01*
X110969493Y-54161982D01*
X110969488Y-54161988D01*
X110897017Y-54287511D01*
X110897016Y-54287515D01*
X110859500Y-54427525D01*
X109265500Y-54427525D01*
X109227984Y-54287515D01*
X109155509Y-54161985D01*
X109053015Y-54059491D01*
X109053013Y-54059490D01*
X109053011Y-54059488D01*
X108927488Y-53987017D01*
X108927489Y-53987017D01*
X108916006Y-53983940D01*
X108787475Y-53949500D01*
X108642525Y-53949500D01*
X108513993Y-53983940D01*
X108502511Y-53987017D01*
X108376988Y-54059488D01*
X108376982Y-54059493D01*
X108274493Y-54161982D01*
X108274488Y-54161988D01*
X108202017Y-54287511D01*
X108202016Y-54287515D01*
X108164500Y-54427525D01*
X102146541Y-54427525D01*
X102056593Y-54310302D01*
X102056587Y-54310295D01*
X101889704Y-54143412D01*
X101889697Y-54143406D01*
X101702454Y-53999730D01*
X101702453Y-53999729D01*
X101702450Y-53999727D01*
X101615454Y-53949500D01*
X101498056Y-53881719D01*
X101498045Y-53881714D01*
X101279993Y-53791394D01*
X101052010Y-53730306D01*
X100818020Y-53699501D01*
X100818017Y-53699500D01*
X100818011Y-53699500D01*
X100581989Y-53699500D01*
X100581983Y-53699500D01*
X100581979Y-53699501D01*
X100347989Y-53730306D01*
X100120006Y-53791394D01*
X99901954Y-53881714D01*
X99901943Y-53881719D01*
X99697545Y-53999730D01*
X99510302Y-54143406D01*
X99510295Y-54143412D01*
X99343412Y-54310295D01*
X99343406Y-54310302D01*
X99199730Y-54497545D01*
X99081719Y-54701943D01*
X99081714Y-54701954D01*
X98991394Y-54920006D01*
X98930306Y-55147989D01*
X98899501Y-55381979D01*
X98899500Y-55381995D01*
X97970500Y-55381995D01*
X97970500Y-55203750D01*
X97970726Y-55196263D01*
X97980012Y-55042750D01*
X97987542Y-54918256D01*
X97989347Y-54903394D01*
X98006556Y-54809491D01*
X98038874Y-54633130D01*
X98042452Y-54618616D01*
X98124202Y-54356268D01*
X98129499Y-54342302D01*
X98242276Y-54091722D01*
X98249221Y-54078489D01*
X98391378Y-53843333D01*
X98399865Y-53831037D01*
X98569331Y-53614729D01*
X98579246Y-53603538D01*
X98773538Y-53409246D01*
X98784729Y-53399331D01*
X99001037Y-53229865D01*
X99013333Y-53221378D01*
X99248489Y-53079221D01*
X99261722Y-53072276D01*
X99512302Y-52959499D01*
X99526268Y-52954202D01*
X99788616Y-52872452D01*
X99803130Y-52868874D01*
X100073398Y-52819346D01*
X100088256Y-52817542D01*
X100366265Y-52800726D01*
X100373752Y-52800500D01*
X100417595Y-52800500D01*
X124922405Y-52800500D01*
X124966249Y-52800500D01*
X124973736Y-52800726D01*
G37*
%TD.AperFunction*%
%TA.AperFunction,Conductor*%
G36*
X124573652Y-81186182D02*
G01*
X124597264Y-81188496D01*
X124606563Y-81195846D01*
X124617933Y-81199185D01*
X124633463Y-81217108D01*
X124652079Y-81231822D01*
X124660567Y-81248387D01*
X124663688Y-81251989D01*
X124666171Y-81259323D01*
X124668174Y-81263233D01*
X124671721Y-81273564D01*
X124672180Y-81277637D01*
X124709048Y-81383015D01*
X124709604Y-81383900D01*
X124712306Y-81391769D01*
X124713565Y-81419656D01*
X124718095Y-81447200D01*
X124715119Y-81454079D01*
X124715458Y-81461567D01*
X124701440Y-81485708D01*
X124690360Y-81511329D01*
X124684137Y-81515507D01*
X124680374Y-81521990D01*
X124655528Y-81534721D01*
X124632357Y-81550283D01*
X124624864Y-81550434D01*
X124618193Y-81553853D01*
X124608915Y-81555256D01*
X124601790Y-81556059D01*
X124601786Y-81556059D01*
X124476190Y-81600009D01*
X124476188Y-81600009D01*
X124476185Y-81600011D01*
X124426073Y-81631499D01*
X124363514Y-81670807D01*
X124354740Y-81679582D01*
X124349102Y-81685220D01*
X124264249Y-81770071D01*
X124264246Y-81770073D01*
X124166793Y-81867525D01*
X124052349Y-81981967D01*
X124052345Y-81981973D01*
X123921135Y-82113182D01*
X123859815Y-82146666D01*
X123833456Y-82149500D01*
X113149386Y-82149500D01*
X113082347Y-82129815D01*
X113061705Y-82113181D01*
X113008017Y-82059493D01*
X113008011Y-82059488D01*
X112882488Y-81987017D01*
X112882489Y-81987017D01*
X112863642Y-81981967D01*
X112742475Y-81949500D01*
X112597525Y-81949500D01*
X112476358Y-81981967D01*
X112457511Y-81987017D01*
X112366966Y-82039294D01*
X112299066Y-82055767D01*
X112238994Y-82036901D01*
X112159604Y-81987017D01*
X112135979Y-81972172D01*
X112114140Y-81964530D01*
X112010377Y-81928220D01*
X112010373Y-81928219D01*
X111981420Y-81924957D01*
X111949782Y-81911661D01*
X111918063Y-81898739D01*
X111917657Y-81898162D01*
X111917007Y-81897889D01*
X111897564Y-81869578D01*
X111877882Y-81841578D01*
X111877852Y-81840875D01*
X111877453Y-81840293D01*
X111876403Y-81805963D01*
X111874983Y-81771769D01*
X111875317Y-81770472D01*
X111875317Y-81770456D01*
X111875329Y-81770425D01*
X111875494Y-81769784D01*
X111904431Y-81661689D01*
X111904430Y-81661684D01*
X111904791Y-81660340D01*
X111941142Y-81600671D01*
X112003981Y-81570127D01*
X112073359Y-81578405D01*
X112086570Y-81585015D01*
X112112543Y-81600011D01*
X112125712Y-81607614D01*
X112214856Y-81631500D01*
X112214858Y-81631500D01*
X119215199Y-81631500D01*
X119215201Y-81631500D01*
X119304345Y-81607614D01*
X119317514Y-81600011D01*
X119384269Y-81561470D01*
X119729920Y-81215819D01*
X119791243Y-81182334D01*
X119817601Y-81179500D01*
X124550894Y-81179500D01*
X124573652Y-81186182D01*
G37*
%TD.AperFunction*%
%TD*%
M02*
