M48
; DRILL file {KiCad 9.0.2} date 2025-06-24T12:42:29-0500
; FORMAT={-:-/ absolute / inch / decimal}
; #@! TF.CreationDate,2025-06-24T12:42:29-05:00
; #@! TF.GenerationSoftware,Kicad,Pcbnew,9.0.2
; #@! TF.FileFunction,Plated,1,6,PTH
FMAT,2
INCH
; #@! TA.AperFunction,Plated,PTH,ViaDrill
T1C0.0118
; #@! TA.AperFunction,Plated,PTH,ComponentDrill
T2C0.0236
; #@! TA.AperFunction,Plated,PTH,ComponentDrill
T3C0.0394
; #@! TA.AperFunction,Plated,PTH,ComponentDrill
T4C0.0433
; #@! TA.AperFunction,Plated,PTH,ComponentDrill
T5C0.1063
%
G90
G05
T1
X3.8992Y-3.6189
X3.9366Y-3.1701
X3.9906Y-3.5697
X4.0051Y-3.4878
X4.0344Y-3.2801
X4.0465Y-3.0693
X4.0551Y-3.1087
X4.063Y-3.2276
X4.0731Y-3.1392
X4.1005Y-3.1706
X4.1098Y-2.8921
X4.1378Y-3.4354
X4.1417Y-2.6291
X4.1429Y-4.0535
X4.172Y-2.7051
X4.1827Y-3.5772
X4.2083Y-3.2913
X4.2331Y-3.0248
X4.2386Y-4.2717
X4.2457Y-2.1516
X4.2465Y-2.1917
X4.2469Y-2.1126
X4.2499Y-2.9547
X4.2591Y-2.2343
X4.2634Y-2.2701
X4.2661Y-3.1906
X4.2898Y-3.1669
X4.2945Y-3.3996
X4.3012Y-4.1024
X4.3131Y-3.1503
X4.3142Y-2.2705
X4.3157Y-3.4735
X4.3173Y-3.4346
X4.3173Y-4.1618
X4.3189Y-2.2339
X4.3191Y-3.1793
X4.3264Y-3.561
X4.3307Y-3.8378
X4.3327Y-2.1913
X4.3339Y-2.1524
X4.335Y-2.1106
X4.3476Y-3.0626
X4.3681Y-2.4713
X4.3688Y-3.4524
X4.3705Y-3.7909
X4.3765Y-3.6339
X4.3768Y-2.2846
X4.3772Y-3.3638
X4.3846Y-3.1165
X4.3876Y-3.3175
X4.3945Y-3.5169
X4.4094Y-3.8224
X4.4122Y-3.6118
X4.4182Y-3.2482
X4.4212Y-3.4858
X4.422Y-3.0843
X4.4341Y-3.9861
X4.4467Y-3.6813
X4.4469Y-3.2409
X4.4492Y-3.039
X4.4531Y-3.6161
X4.4693Y-3.6638
X4.4771Y-4.3642
X4.4819Y-2.1488
X4.4843Y-3.1169
X4.4875Y-3.6404
X4.5055Y-4.0028
X4.5078Y-3.3328
X4.5128Y-3.7872
X4.5134Y-3.4185
X4.5199Y-3.1417
X4.528Y-4.0413
X4.528Y-3.0317
X4.5355Y-3.1657
X4.5389Y-3.5921
X4.55Y-2.55
X4.5508Y-2.7035
X4.563Y-3.5346
X4.5673Y-4.0409
X4.5689Y-3.3287
X4.5902Y-2.1398
X4.5918Y-3.4169
X4.6067Y-2.2992
X4.6067Y-3.0341
X4.6169Y-4.2717
X4.6233Y-3.4524
X4.6268Y-3.1598
X4.6285Y-3.4944
X4.6369Y-3.2487
X4.64Y-3.4032
X4.6566Y-3.4891
X4.6605Y-3.2649
X4.6606Y-4.035
X4.6634Y-4.1917
X4.6725Y-3.4535
X4.6854Y-3.0678
X4.6862Y-3.1898
X4.689Y-3.2632
X4.69Y-2.14
X4.7016Y-2.5106
X4.7075Y-3.1382
X4.708Y-3.8307
X4.7083Y-3.6382
X4.7103Y-3.4078
X4.7122Y-3.0437
X4.7131Y-3.571
X4.7209Y-3.1929
X4.7543Y-3.8602
X4.7543Y-4.1866
X4.7552Y-3.6677
X4.7646Y-3.0886
X4.7913Y-3.0685
X4.7913Y-2.7886
X4.7999Y-2.4654
X4.8413Y-3.0693
X4.8417Y-2.7945
X4.8492Y-3.2685
X4.9433Y-3.1669
X4.9433Y-3.4925
X4.9441Y-2.9539
T3
X3.9339Y-2.439
X3.9339Y-2.539
X3.9339Y-2.639
X3.9339Y-2.739
X3.9339Y-2.839
T4
X4.0016Y-3.8024
X4.0016Y-3.9024
X4.0016Y-4.0024
X4.0016Y-4.1024
X4.8701Y-3.6024
X4.8701Y-3.7024
X4.8701Y-3.8024
X4.8701Y-3.9024
X4.8701Y-4.0024
X4.8701Y-4.1024
T5
X3.9646Y-2.185
X3.9646Y-4.311
X4.9094Y-2.185
X4.9094Y-4.311
T2
G00X3.9636Y-2.9878
M15
G01X3.9321Y-2.9878
M16
G05
G00X3.9636Y-3.328
M15
G01X3.9321Y-3.328
M16
G05
G00X4.1341Y-2.9878
M15
G01X4.0907Y-2.9878
M16
G05
G00X4.1341Y-3.328
M15
G01X4.0907Y-3.328
M16
G05
M30
