%TF.GenerationSoftware,KiCad,Pcbnew,10.0.3*%
%TF.CreationDate,2026-06-07T12:26:31-05:00*%
%TF.ProjectId,Flight Computer,466c6967-6874-4204-936f-6d7075746572,rev?*%
%TF.SameCoordinates,Original*%
%TF.FileFunction,Legend,Bot*%
%TF.FilePolarity,Positive*%
%FSLAX45Y45*%
G04 Gerber Fmt 4.5, Leading zero omitted, Abs format (unit mm)*
G04 Created by KiCad (PCBNEW 10.0.3) date 2026-06-07 12:26:31*
%MOMM*%
%LPD*%
G01*
G04 APERTURE LIST*
%ADD10C,0.150000*%
%ADD11C,0.250000*%
%ADD12C,0.120000*%
%ADD13C,0.152400*%
%ADD14C,0.127000*%
%ADD15C,0.200000*%
G04 APERTURE END LIST*
D10*
G36*
X11946054Y-5696929D02*
G01*
X11935724Y-5696929D01*
X11927130Y-5694065D01*
X11921623Y-5688558D01*
X11918726Y-5682764D01*
X11915340Y-5669220D01*
X11915340Y-5659639D01*
X11918726Y-5646095D01*
X11921623Y-5640301D01*
X11927129Y-5634794D01*
X11935724Y-5631929D01*
X11946054Y-5631929D01*
X11946054Y-5696929D01*
G37*
G36*
X12137562Y-5720818D02*
G01*
X11400023Y-5720818D01*
X11400023Y-5670144D01*
X11408911Y-5670144D01*
X11408911Y-5689191D01*
X11409056Y-5690655D01*
X11409159Y-5690903D01*
X11409178Y-5691172D01*
X11409703Y-5692545D01*
X11413513Y-5700164D01*
X11413909Y-5700794D01*
X11413985Y-5700977D01*
X11414154Y-5701183D01*
X11414296Y-5701409D01*
X11414446Y-5701539D01*
X11414918Y-5702114D01*
X11418727Y-5705923D01*
X11419302Y-5706395D01*
X11419432Y-5706545D01*
X11419658Y-5706687D01*
X11419864Y-5706856D01*
X11420047Y-5706932D01*
X11420676Y-5707328D01*
X11428295Y-5711138D01*
X11429669Y-5711663D01*
X11429937Y-5711682D01*
X11430186Y-5711785D01*
X11431650Y-5711929D01*
X11454507Y-5711929D01*
X11455970Y-5711785D01*
X11456219Y-5711682D01*
X11456488Y-5711663D01*
X11457861Y-5711138D01*
X11465480Y-5707328D01*
X11466110Y-5706932D01*
X11466293Y-5706856D01*
X11466498Y-5706687D01*
X11466724Y-5706545D01*
X11466854Y-5706395D01*
X11467429Y-5705923D01*
X11471239Y-5702114D01*
X11472171Y-5700977D01*
X11473291Y-5698273D01*
X11473291Y-5695347D01*
X11472171Y-5692644D01*
X11470102Y-5690574D01*
X11467398Y-5689454D01*
X11464472Y-5689454D01*
X11461768Y-5690574D01*
X11460632Y-5691507D01*
X11457683Y-5694456D01*
X11452736Y-5696929D01*
X11433420Y-5696929D01*
X11428473Y-5694456D01*
X11426385Y-5692368D01*
X11423911Y-5687421D01*
X11423911Y-5671914D01*
X11426385Y-5666967D01*
X11428473Y-5664879D01*
X11433420Y-5662406D01*
X11443078Y-5662406D01*
X11443851Y-5662329D01*
X11444049Y-5662343D01*
X11444185Y-5662297D01*
X11444541Y-5662262D01*
X11445666Y-5661795D01*
X11446821Y-5661405D01*
X11447011Y-5661238D01*
X11447245Y-5661142D01*
X11448106Y-5660281D01*
X11449023Y-5659478D01*
X11449135Y-5659251D01*
X11449314Y-5659072D01*
X11449780Y-5657948D01*
X11450320Y-5656855D01*
X11450337Y-5656602D01*
X11450434Y-5656369D01*
X11450434Y-5655151D01*
X11450515Y-5653935D01*
X11450434Y-5653695D01*
X11450434Y-5653442D01*
X11449968Y-5652317D01*
X11449926Y-5652192D01*
X11481373Y-5652192D01*
X11481729Y-5653619D01*
X11500777Y-5706952D01*
X11501405Y-5708281D01*
X11501657Y-5708560D01*
X11501819Y-5708901D01*
X11502632Y-5709637D01*
X11503369Y-5710451D01*
X11503709Y-5710612D01*
X11503988Y-5710865D01*
X11505022Y-5711234D01*
X11506013Y-5711704D01*
X11506389Y-5711722D01*
X11506744Y-5711849D01*
X11507840Y-5711794D01*
X11508936Y-5711849D01*
X11509291Y-5711722D01*
X11509667Y-5711704D01*
X11510658Y-5711234D01*
X11511692Y-5710865D01*
X11511971Y-5710612D01*
X11512311Y-5710451D01*
X11513048Y-5709637D01*
X11513861Y-5708901D01*
X11514022Y-5708561D01*
X11514275Y-5708281D01*
X11514903Y-5706952D01*
X11528049Y-5670144D01*
X11546054Y-5670144D01*
X11546054Y-5689191D01*
X11546198Y-5690655D01*
X11546302Y-5690903D01*
X11546321Y-5691172D01*
X11546846Y-5692545D01*
X11550656Y-5700164D01*
X11551052Y-5700794D01*
X11551128Y-5700977D01*
X11551297Y-5701183D01*
X11551439Y-5701409D01*
X11551589Y-5701539D01*
X11552060Y-5702114D01*
X11555870Y-5705923D01*
X11556445Y-5706395D01*
X11556575Y-5706545D01*
X11556800Y-5706687D01*
X11557006Y-5706856D01*
X11557189Y-5706932D01*
X11557819Y-5707328D01*
X11565438Y-5711138D01*
X11566812Y-5711663D01*
X11567080Y-5711682D01*
X11567329Y-5711785D01*
X11568792Y-5711929D01*
X11591650Y-5711929D01*
X11593113Y-5711785D01*
X11593362Y-5711682D01*
X11593630Y-5711663D01*
X11595004Y-5711138D01*
X11602623Y-5707328D01*
X11603253Y-5706932D01*
X11603435Y-5706856D01*
X11603641Y-5706687D01*
X11603867Y-5706545D01*
X11603997Y-5706395D01*
X11604572Y-5705923D01*
X11608382Y-5702114D01*
X11609314Y-5700977D01*
X11610434Y-5698273D01*
X11610434Y-5695347D01*
X11609314Y-5692644D01*
X11607245Y-5690574D01*
X11604541Y-5689454D01*
X11601615Y-5689454D01*
X11598911Y-5690574D01*
X11597775Y-5691507D01*
X11594826Y-5694456D01*
X11589879Y-5696929D01*
X11570563Y-5696929D01*
X11565616Y-5694456D01*
X11563528Y-5692368D01*
X11561054Y-5687421D01*
X11561054Y-5681572D01*
X11683197Y-5681572D01*
X11683197Y-5689191D01*
X11683341Y-5690655D01*
X11683444Y-5690903D01*
X11683464Y-5691172D01*
X11683989Y-5692545D01*
X11687799Y-5700164D01*
X11688195Y-5700794D01*
X11688271Y-5700977D01*
X11688440Y-5701183D01*
X11688582Y-5701409D01*
X11688732Y-5701539D01*
X11689203Y-5702114D01*
X11693013Y-5705923D01*
X11693588Y-5706395D01*
X11693718Y-5706545D01*
X11693943Y-5706687D01*
X11694149Y-5706856D01*
X11694332Y-5706932D01*
X11694962Y-5707328D01*
X11702581Y-5711138D01*
X11703954Y-5711663D01*
X11704223Y-5711682D01*
X11704472Y-5711785D01*
X11705935Y-5711929D01*
X11724983Y-5711929D01*
X11725723Y-5711856D01*
X11725921Y-5711871D01*
X11726181Y-5711811D01*
X11726446Y-5711785D01*
X11726629Y-5711709D01*
X11727355Y-5711545D01*
X11738783Y-5707735D01*
X11740126Y-5707136D01*
X11742337Y-5705218D01*
X11743645Y-5702601D01*
X11743853Y-5699682D01*
X11742927Y-5696906D01*
X11741010Y-5694695D01*
X11738393Y-5693386D01*
X11735474Y-5693179D01*
X11734040Y-5693505D01*
X11723766Y-5696929D01*
X11707706Y-5696929D01*
X11702759Y-5694456D01*
X11700671Y-5692368D01*
X11698197Y-5687421D01*
X11698197Y-5683343D01*
X11700671Y-5678396D01*
X11702759Y-5676308D01*
X11708553Y-5673411D01*
X11722992Y-5669801D01*
X11723100Y-5669762D01*
X11723154Y-5669758D01*
X11723762Y-5669526D01*
X11724377Y-5669306D01*
X11724421Y-5669274D01*
X11724528Y-5669233D01*
X11732147Y-5665423D01*
X11732776Y-5665027D01*
X11732959Y-5664951D01*
X11733165Y-5664782D01*
X11733391Y-5664640D01*
X11733521Y-5664490D01*
X11734096Y-5664018D01*
X11737905Y-5660209D01*
X11738377Y-5659634D01*
X11738527Y-5659504D01*
X11738669Y-5659279D01*
X11738838Y-5659072D01*
X11738914Y-5658889D01*
X11739310Y-5658260D01*
X11743120Y-5650641D01*
X11743645Y-5649268D01*
X11743664Y-5648999D01*
X11743767Y-5648750D01*
X11743912Y-5647287D01*
X11743912Y-5639668D01*
X11743767Y-5638204D01*
X11743664Y-5637955D01*
X11743645Y-5637687D01*
X11743120Y-5636313D01*
X11740256Y-5630585D01*
X11759532Y-5630585D01*
X11759532Y-5633511D01*
X11760652Y-5636215D01*
X11762721Y-5638284D01*
X11765424Y-5639404D01*
X11768351Y-5639404D01*
X11771054Y-5638285D01*
X11772191Y-5637352D01*
X11774749Y-5634794D01*
X11783343Y-5631929D01*
X11788528Y-5631929D01*
X11797122Y-5634794D01*
X11802628Y-5640301D01*
X11805525Y-5646094D01*
X11808912Y-5659639D01*
X11808912Y-5669220D01*
X11805525Y-5682764D01*
X11802628Y-5688558D01*
X11797122Y-5694065D01*
X11788528Y-5696929D01*
X11783343Y-5696929D01*
X11774749Y-5694065D01*
X11772191Y-5691507D01*
X11771054Y-5690574D01*
X11768351Y-5689454D01*
X11765425Y-5689454D01*
X11762721Y-5690574D01*
X11760652Y-5692644D01*
X11759532Y-5695347D01*
X11759532Y-5698273D01*
X11760652Y-5700977D01*
X11761584Y-5702114D01*
X11765394Y-5705923D01*
X11766530Y-5706856D01*
X11766779Y-5706959D01*
X11766983Y-5707136D01*
X11768326Y-5707735D01*
X11779754Y-5711545D01*
X11780479Y-5711709D01*
X11780663Y-5711785D01*
X11780928Y-5711811D01*
X11781188Y-5711871D01*
X11781385Y-5711856D01*
X11782126Y-5711929D01*
X11789745Y-5711929D01*
X11790485Y-5711856D01*
X11790683Y-5711871D01*
X11790943Y-5711811D01*
X11791208Y-5711785D01*
X11791391Y-5711709D01*
X11792117Y-5711545D01*
X11803545Y-5707735D01*
X11804888Y-5707136D01*
X11805091Y-5706959D01*
X11805340Y-5706856D01*
X11806477Y-5705923D01*
X11814096Y-5698304D01*
X11814568Y-5697729D01*
X11814717Y-5697599D01*
X11814860Y-5697373D01*
X11815029Y-5697168D01*
X11815104Y-5696985D01*
X11815501Y-5696355D01*
X11819310Y-5688736D01*
X11819351Y-5688629D01*
X11819383Y-5688585D01*
X11819603Y-5687970D01*
X11819836Y-5687363D01*
X11819839Y-5687309D01*
X11819878Y-5687201D01*
X11823688Y-5671963D01*
X11823725Y-5671709D01*
X11823767Y-5671607D01*
X11823822Y-5671056D01*
X11823903Y-5670508D01*
X11823886Y-5670399D01*
X11823912Y-5670144D01*
X11823912Y-5658715D01*
X11900340Y-5658715D01*
X11900340Y-5670144D01*
X11900365Y-5670399D01*
X11900349Y-5670508D01*
X11900430Y-5671056D01*
X11900484Y-5671607D01*
X11900526Y-5671709D01*
X11900564Y-5671963D01*
X11904374Y-5687201D01*
X11904412Y-5687309D01*
X11904416Y-5687363D01*
X11904648Y-5687970D01*
X11904868Y-5688585D01*
X11904900Y-5688629D01*
X11904941Y-5688736D01*
X11908751Y-5696355D01*
X11909147Y-5696985D01*
X11909223Y-5697168D01*
X11909392Y-5697373D01*
X11909534Y-5697599D01*
X11909684Y-5697729D01*
X11910156Y-5698304D01*
X11917775Y-5705923D01*
X11918911Y-5706856D01*
X11919160Y-5706959D01*
X11919364Y-5707136D01*
X11920706Y-5707735D01*
X11932135Y-5711545D01*
X11932860Y-5711709D01*
X11933044Y-5711785D01*
X11933309Y-5711811D01*
X11933569Y-5711871D01*
X11933766Y-5711856D01*
X11934507Y-5711929D01*
X11953554Y-5711929D01*
X11955018Y-5711785D01*
X11957721Y-5710665D01*
X11959790Y-5708596D01*
X11960910Y-5705893D01*
X11961054Y-5704429D01*
X11961054Y-5624429D01*
X11984150Y-5624429D01*
X11984150Y-5704429D01*
X11984187Y-5704806D01*
X11984168Y-5704953D01*
X11984220Y-5705144D01*
X11984294Y-5705893D01*
X11984675Y-5706814D01*
X11984938Y-5707777D01*
X11985231Y-5708155D01*
X11985414Y-5708596D01*
X11986119Y-5709301D01*
X11986730Y-5710090D01*
X11987145Y-5710328D01*
X11987483Y-5710665D01*
X11988404Y-5711047D01*
X11989270Y-5711542D01*
X11989745Y-5711602D01*
X11990186Y-5711785D01*
X11991184Y-5711785D01*
X11992173Y-5711911D01*
X11992635Y-5711785D01*
X11993113Y-5711785D01*
X11994034Y-5711404D01*
X11994997Y-5711141D01*
X11995375Y-5710848D01*
X11995816Y-5710665D01*
X11996521Y-5709960D01*
X11997310Y-5709349D01*
X11997746Y-5708736D01*
X11997886Y-5708596D01*
X11997942Y-5708459D01*
X11998161Y-5708150D01*
X12029864Y-5652671D01*
X12029864Y-5704429D01*
X12030008Y-5705893D01*
X12031128Y-5708596D01*
X12033197Y-5710665D01*
X12035901Y-5711785D01*
X12038827Y-5711785D01*
X12041531Y-5710665D01*
X12043600Y-5708596D01*
X12044720Y-5705893D01*
X12044864Y-5704429D01*
X12044864Y-5670144D01*
X12064150Y-5670144D01*
X12064150Y-5696810D01*
X12064294Y-5698274D01*
X12064809Y-5699517D01*
X12065414Y-5700977D01*
X12066346Y-5702114D01*
X12070156Y-5705923D01*
X12071292Y-5706856D01*
X12071541Y-5706959D01*
X12071745Y-5707136D01*
X12073087Y-5707735D01*
X12084516Y-5711545D01*
X12085241Y-5711709D01*
X12085424Y-5711785D01*
X12085690Y-5711811D01*
X12085950Y-5711871D01*
X12086147Y-5711856D01*
X12086888Y-5711929D01*
X12094507Y-5711929D01*
X12095247Y-5711856D01*
X12095445Y-5711871D01*
X12095704Y-5711811D01*
X12095970Y-5711785D01*
X12096153Y-5711709D01*
X12096878Y-5711545D01*
X12108307Y-5707735D01*
X12109650Y-5707136D01*
X12109853Y-5706959D01*
X12110102Y-5706856D01*
X12111239Y-5705923D01*
X12118858Y-5698304D01*
X12119329Y-5697729D01*
X12119479Y-5697599D01*
X12119621Y-5697373D01*
X12119790Y-5697168D01*
X12119866Y-5696985D01*
X12120263Y-5696355D01*
X12124072Y-5688736D01*
X12124113Y-5688629D01*
X12124145Y-5688585D01*
X12124365Y-5687970D01*
X12124598Y-5687363D01*
X12124601Y-5687309D01*
X12124640Y-5687201D01*
X12128450Y-5671963D01*
X12128487Y-5671709D01*
X12128529Y-5671607D01*
X12128584Y-5671056D01*
X12128665Y-5670508D01*
X12128648Y-5670399D01*
X12128673Y-5670144D01*
X12128673Y-5658715D01*
X12128648Y-5658460D01*
X12128665Y-5658351D01*
X12128584Y-5657803D01*
X12128529Y-5657252D01*
X12128487Y-5657150D01*
X12128450Y-5656896D01*
X12124640Y-5641658D01*
X12124601Y-5641550D01*
X12124598Y-5641496D01*
X12124365Y-5640889D01*
X12124145Y-5640273D01*
X12124113Y-5640230D01*
X12124072Y-5640123D01*
X12120263Y-5632504D01*
X12119866Y-5631874D01*
X12119790Y-5631691D01*
X12119621Y-5631485D01*
X12119479Y-5631260D01*
X12119330Y-5631130D01*
X12118858Y-5630555D01*
X12111239Y-5622936D01*
X12110102Y-5622003D01*
X12109853Y-5621900D01*
X12109650Y-5621723D01*
X12108307Y-5621124D01*
X12096878Y-5617314D01*
X12096153Y-5617149D01*
X12095970Y-5617074D01*
X12095704Y-5617047D01*
X12095445Y-5616988D01*
X12095247Y-5617002D01*
X12094507Y-5616929D01*
X12083078Y-5616929D01*
X12081615Y-5617074D01*
X12081366Y-5617177D01*
X12081097Y-5617196D01*
X12079724Y-5617721D01*
X12072105Y-5621531D01*
X12070861Y-5622314D01*
X12068943Y-5624525D01*
X12068018Y-5627301D01*
X12068225Y-5630220D01*
X12069534Y-5632837D01*
X12071745Y-5634755D01*
X12074521Y-5635680D01*
X12077440Y-5635473D01*
X12078813Y-5634947D01*
X12084849Y-5631929D01*
X12093290Y-5631929D01*
X12101884Y-5634794D01*
X12107390Y-5640301D01*
X12110287Y-5646094D01*
X12113673Y-5659639D01*
X12113673Y-5669220D01*
X12110287Y-5682764D01*
X12107390Y-5688558D01*
X12101884Y-5694065D01*
X12093290Y-5696929D01*
X12088105Y-5696929D01*
X12079511Y-5694065D01*
X12079150Y-5693704D01*
X12079150Y-5677644D01*
X12086888Y-5677644D01*
X12088351Y-5677500D01*
X12091054Y-5676380D01*
X12093124Y-5674311D01*
X12094244Y-5671607D01*
X12094244Y-5668681D01*
X12093124Y-5665977D01*
X12091054Y-5663908D01*
X12088351Y-5662788D01*
X12086888Y-5662644D01*
X12071650Y-5662644D01*
X12070186Y-5662788D01*
X12067483Y-5663908D01*
X12065414Y-5665977D01*
X12064294Y-5668681D01*
X12064150Y-5670144D01*
X12044864Y-5670144D01*
X12044864Y-5624429D01*
X12044827Y-5624053D01*
X12044846Y-5623906D01*
X12044793Y-5623714D01*
X12044720Y-5622966D01*
X12044338Y-5622045D01*
X12044076Y-5621082D01*
X12043783Y-5620704D01*
X12043600Y-5620263D01*
X12042895Y-5619558D01*
X12042284Y-5618769D01*
X12041868Y-5618531D01*
X12041531Y-5618193D01*
X12040609Y-5617812D01*
X12039743Y-5617317D01*
X12039269Y-5617256D01*
X12038827Y-5617074D01*
X12037830Y-5617074D01*
X12036840Y-5616948D01*
X12036379Y-5617074D01*
X12035901Y-5617074D01*
X12034979Y-5617455D01*
X12034017Y-5617718D01*
X12033639Y-5618010D01*
X12033197Y-5618193D01*
X12032492Y-5618899D01*
X12031703Y-5619509D01*
X12031268Y-5620123D01*
X12031128Y-5620263D01*
X12031071Y-5620400D01*
X12030852Y-5620708D01*
X11999150Y-5676188D01*
X11999150Y-5624429D01*
X11999005Y-5622966D01*
X11997886Y-5620263D01*
X11995816Y-5618193D01*
X11993113Y-5617074D01*
X11990186Y-5617074D01*
X11987483Y-5618193D01*
X11985414Y-5620263D01*
X11984294Y-5622966D01*
X11984150Y-5624429D01*
X11961054Y-5624429D01*
X11960910Y-5622966D01*
X11959790Y-5620263D01*
X11957721Y-5618193D01*
X11955018Y-5617074D01*
X11953554Y-5616929D01*
X11934507Y-5616929D01*
X11933766Y-5617002D01*
X11933569Y-5616988D01*
X11933309Y-5617047D01*
X11933044Y-5617074D01*
X11932860Y-5617149D01*
X11932135Y-5617314D01*
X11920706Y-5621124D01*
X11919364Y-5621723D01*
X11919161Y-5621900D01*
X11918911Y-5622003D01*
X11917775Y-5622936D01*
X11910156Y-5630555D01*
X11909684Y-5631130D01*
X11909534Y-5631260D01*
X11909392Y-5631485D01*
X11909223Y-5631691D01*
X11909147Y-5631874D01*
X11908751Y-5632504D01*
X11904941Y-5640123D01*
X11904900Y-5640230D01*
X11904868Y-5640273D01*
X11904648Y-5640889D01*
X11904416Y-5641496D01*
X11904412Y-5641550D01*
X11904374Y-5641658D01*
X11900564Y-5656896D01*
X11900526Y-5657150D01*
X11900484Y-5657252D01*
X11900430Y-5657803D01*
X11900349Y-5658351D01*
X11900365Y-5658460D01*
X11900340Y-5658715D01*
X11823912Y-5658715D01*
X11823886Y-5658460D01*
X11823903Y-5658351D01*
X11823822Y-5657803D01*
X11823767Y-5657252D01*
X11823725Y-5657150D01*
X11823688Y-5656896D01*
X11819878Y-5641658D01*
X11819839Y-5641550D01*
X11819836Y-5641496D01*
X11819603Y-5640889D01*
X11819383Y-5640273D01*
X11819351Y-5640230D01*
X11819310Y-5640123D01*
X11815501Y-5632504D01*
X11815104Y-5631874D01*
X11815029Y-5631691D01*
X11814859Y-5631485D01*
X11814717Y-5631260D01*
X11814568Y-5631130D01*
X11814096Y-5630555D01*
X11806477Y-5622936D01*
X11805340Y-5622003D01*
X11805091Y-5621900D01*
X11804888Y-5621723D01*
X11803545Y-5621124D01*
X11792117Y-5617314D01*
X11791391Y-5617149D01*
X11791208Y-5617074D01*
X11790943Y-5617047D01*
X11790683Y-5616988D01*
X11790485Y-5617002D01*
X11789745Y-5616929D01*
X11782126Y-5616929D01*
X11781385Y-5617002D01*
X11781188Y-5616988D01*
X11780928Y-5617047D01*
X11780663Y-5617074D01*
X11780479Y-5617149D01*
X11779754Y-5617314D01*
X11768326Y-5621124D01*
X11766983Y-5621723D01*
X11766779Y-5621900D01*
X11766531Y-5622003D01*
X11765394Y-5622936D01*
X11761584Y-5626745D01*
X11760652Y-5627882D01*
X11759532Y-5630585D01*
X11740256Y-5630585D01*
X11739310Y-5628694D01*
X11738914Y-5628065D01*
X11738838Y-5627882D01*
X11738669Y-5627675D01*
X11738527Y-5627450D01*
X11738377Y-5627320D01*
X11737905Y-5626745D01*
X11734096Y-5622936D01*
X11733521Y-5622464D01*
X11733391Y-5622314D01*
X11733165Y-5622172D01*
X11732959Y-5622003D01*
X11732776Y-5621927D01*
X11732147Y-5621531D01*
X11724528Y-5617721D01*
X11723154Y-5617196D01*
X11722886Y-5617177D01*
X11722637Y-5617074D01*
X11721173Y-5616929D01*
X11702126Y-5616929D01*
X11701385Y-5617002D01*
X11701188Y-5616988D01*
X11700928Y-5617047D01*
X11700663Y-5617074D01*
X11700479Y-5617149D01*
X11699754Y-5617314D01*
X11688326Y-5621124D01*
X11686983Y-5621723D01*
X11684772Y-5623641D01*
X11683464Y-5626258D01*
X11683256Y-5629177D01*
X11684182Y-5631953D01*
X11686099Y-5634164D01*
X11688716Y-5635473D01*
X11691635Y-5635680D01*
X11693069Y-5635354D01*
X11703343Y-5631929D01*
X11719403Y-5631929D01*
X11724350Y-5634403D01*
X11726438Y-5636491D01*
X11728912Y-5641438D01*
X11728912Y-5645516D01*
X11726438Y-5650463D01*
X11724350Y-5652551D01*
X11718556Y-5655448D01*
X11704116Y-5659058D01*
X11704008Y-5659097D01*
X11703954Y-5659100D01*
X11703345Y-5659334D01*
X11702732Y-5659553D01*
X11702688Y-5659585D01*
X11702581Y-5659626D01*
X11694962Y-5663436D01*
X11694332Y-5663832D01*
X11694149Y-5663908D01*
X11693943Y-5664077D01*
X11693718Y-5664219D01*
X11693588Y-5664368D01*
X11693013Y-5664840D01*
X11689203Y-5668650D01*
X11688732Y-5669225D01*
X11688582Y-5669355D01*
X11688440Y-5669581D01*
X11688271Y-5669786D01*
X11688195Y-5669969D01*
X11687799Y-5670599D01*
X11683989Y-5678218D01*
X11683464Y-5679591D01*
X11683444Y-5679860D01*
X11683341Y-5680109D01*
X11683197Y-5681572D01*
X11561054Y-5681572D01*
X11561054Y-5671914D01*
X11563528Y-5666967D01*
X11565616Y-5664879D01*
X11570563Y-5662406D01*
X11580221Y-5662406D01*
X11580994Y-5662329D01*
X11581192Y-5662343D01*
X11581327Y-5662297D01*
X11581684Y-5662262D01*
X11582809Y-5661795D01*
X11583964Y-5661405D01*
X11584154Y-5661238D01*
X11584388Y-5661142D01*
X11585249Y-5660281D01*
X11586166Y-5659478D01*
X11586278Y-5659251D01*
X11586457Y-5659072D01*
X11586923Y-5657948D01*
X11587463Y-5656855D01*
X11587480Y-5656602D01*
X11587577Y-5656369D01*
X11587577Y-5655151D01*
X11587658Y-5653935D01*
X11587577Y-5653695D01*
X11587577Y-5653442D01*
X11587111Y-5652317D01*
X11586720Y-5651163D01*
X11586512Y-5650871D01*
X11586457Y-5650739D01*
X11586317Y-5650599D01*
X11585865Y-5649967D01*
X11570083Y-5631929D01*
X11603078Y-5631929D01*
X11604541Y-5631785D01*
X11607245Y-5630665D01*
X11609314Y-5628596D01*
X11610434Y-5625893D01*
X11610434Y-5622966D01*
X11609314Y-5620263D01*
X11607245Y-5618193D01*
X11604541Y-5617074D01*
X11603078Y-5616929D01*
X11553554Y-5616929D01*
X11552780Y-5617006D01*
X11552584Y-5616993D01*
X11552448Y-5617038D01*
X11552091Y-5617074D01*
X11550965Y-5617540D01*
X11549812Y-5617930D01*
X11549621Y-5618097D01*
X11549388Y-5618193D01*
X11548526Y-5619054D01*
X11547609Y-5619857D01*
X11547497Y-5620084D01*
X11547318Y-5620263D01*
X11546852Y-5621388D01*
X11546312Y-5622480D01*
X11546295Y-5622733D01*
X11546198Y-5622966D01*
X11546198Y-5624185D01*
X11546117Y-5625400D01*
X11546198Y-5625640D01*
X11546198Y-5625893D01*
X11546665Y-5627018D01*
X11547055Y-5628172D01*
X11547263Y-5628464D01*
X11547318Y-5628596D01*
X11547458Y-5628736D01*
X11547910Y-5629368D01*
X11564706Y-5648564D01*
X11557819Y-5652007D01*
X11557189Y-5652403D01*
X11557007Y-5652479D01*
X11556801Y-5652648D01*
X11556575Y-5652790D01*
X11556445Y-5652940D01*
X11555870Y-5653412D01*
X11552061Y-5657221D01*
X11551589Y-5657796D01*
X11551439Y-5657926D01*
X11551297Y-5658152D01*
X11551128Y-5658358D01*
X11551052Y-5658541D01*
X11550656Y-5659171D01*
X11546846Y-5666790D01*
X11546321Y-5668163D01*
X11546302Y-5668432D01*
X11546198Y-5668681D01*
X11546054Y-5670144D01*
X11528049Y-5670144D01*
X11533951Y-5653619D01*
X11534307Y-5652192D01*
X11534162Y-5649269D01*
X11532909Y-5646625D01*
X11530740Y-5644661D01*
X11527984Y-5643677D01*
X11525061Y-5643822D01*
X11522416Y-5645075D01*
X11520452Y-5647244D01*
X11519825Y-5648574D01*
X11507840Y-5682130D01*
X11495855Y-5648574D01*
X11495228Y-5647244D01*
X11493264Y-5645075D01*
X11490619Y-5643822D01*
X11487696Y-5643677D01*
X11484940Y-5644661D01*
X11482771Y-5646625D01*
X11481518Y-5649269D01*
X11481373Y-5652192D01*
X11449926Y-5652192D01*
X11449577Y-5651163D01*
X11449369Y-5650871D01*
X11449314Y-5650739D01*
X11449174Y-5650599D01*
X11448722Y-5649967D01*
X11432940Y-5631929D01*
X11465935Y-5631929D01*
X11467398Y-5631785D01*
X11470102Y-5630665D01*
X11472171Y-5628596D01*
X11473291Y-5625893D01*
X11473291Y-5622966D01*
X11472171Y-5620263D01*
X11470102Y-5618193D01*
X11467398Y-5617074D01*
X11465935Y-5616929D01*
X11416411Y-5616929D01*
X11415638Y-5617006D01*
X11415441Y-5616993D01*
X11415305Y-5617038D01*
X11414948Y-5617074D01*
X11413822Y-5617540D01*
X11412669Y-5617930D01*
X11412478Y-5618097D01*
X11412245Y-5618193D01*
X11411384Y-5619054D01*
X11410466Y-5619857D01*
X11410354Y-5620084D01*
X11410175Y-5620263D01*
X11409709Y-5621388D01*
X11409169Y-5622480D01*
X11409152Y-5622733D01*
X11409056Y-5622966D01*
X11409056Y-5624185D01*
X11408975Y-5625400D01*
X11409056Y-5625640D01*
X11409056Y-5625893D01*
X11409522Y-5627018D01*
X11409912Y-5628172D01*
X11410121Y-5628464D01*
X11410175Y-5628596D01*
X11410315Y-5628736D01*
X11410767Y-5629368D01*
X11427563Y-5648564D01*
X11420676Y-5652007D01*
X11420046Y-5652403D01*
X11419864Y-5652479D01*
X11419658Y-5652648D01*
X11419432Y-5652790D01*
X11419302Y-5652940D01*
X11418727Y-5653412D01*
X11414918Y-5657221D01*
X11414446Y-5657796D01*
X11414296Y-5657926D01*
X11414154Y-5658152D01*
X11413985Y-5658358D01*
X11413909Y-5658541D01*
X11413513Y-5659171D01*
X11409703Y-5666790D01*
X11409178Y-5668163D01*
X11409159Y-5668432D01*
X11409056Y-5668681D01*
X11408911Y-5670144D01*
X11400023Y-5670144D01*
X11400023Y-5608041D01*
X12137562Y-5608041D01*
X12137562Y-5720818D01*
G37*
D11*
G36*
X12135141Y-7941942D02*
G01*
X12125860Y-7941942D01*
X12116298Y-7938755D01*
X12110295Y-7932751D01*
X12107054Y-7926270D01*
X12102998Y-7910046D01*
X12102998Y-7898838D01*
X12107054Y-7882614D01*
X12110295Y-7876132D01*
X12116298Y-7870129D01*
X12125860Y-7866942D01*
X12135141Y-7866942D01*
X12135141Y-7941942D01*
G37*
G36*
X12382165Y-7979442D02*
G01*
X12065498Y-7979442D01*
X12065498Y-7897299D01*
X12077998Y-7897299D01*
X12077998Y-7911585D01*
X12078040Y-7912010D01*
X12078013Y-7912192D01*
X12078148Y-7913105D01*
X12078239Y-7914023D01*
X12078309Y-7914193D01*
X12078372Y-7914616D01*
X12083133Y-7933664D01*
X12083198Y-7933844D01*
X12083204Y-7933934D01*
X12083592Y-7934948D01*
X12083958Y-7935971D01*
X12084012Y-7936044D01*
X12084080Y-7936222D01*
X12088842Y-7945746D01*
X12089502Y-7946796D01*
X12089629Y-7947101D01*
X12089911Y-7947444D01*
X12090147Y-7947820D01*
X12090396Y-7948036D01*
X12091183Y-7948995D01*
X12100707Y-7958519D01*
X12102601Y-7960073D01*
X12103016Y-7960245D01*
X12103356Y-7960539D01*
X12105593Y-7961538D01*
X12119879Y-7966300D01*
X12121088Y-7966575D01*
X12121393Y-7966702D01*
X12121835Y-7966745D01*
X12122268Y-7966844D01*
X12122597Y-7966820D01*
X12123832Y-7966942D01*
X12147641Y-7966942D01*
X12150080Y-7966702D01*
X12154586Y-7964835D01*
X12158035Y-7961386D01*
X12159901Y-7956880D01*
X12160141Y-7954442D01*
X12160141Y-7854442D01*
X12182760Y-7854442D01*
X12182760Y-7954442D01*
X12182822Y-7955069D01*
X12182791Y-7955315D01*
X12182878Y-7955633D01*
X12183000Y-7956880D01*
X12183637Y-7958416D01*
X12184074Y-7960020D01*
X12184562Y-7960650D01*
X12184867Y-7961386D01*
X12186042Y-7962562D01*
X12187060Y-7963876D01*
X12187752Y-7964272D01*
X12188316Y-7964835D01*
X12189851Y-7965471D01*
X12191295Y-7966296D01*
X12192086Y-7966397D01*
X12192822Y-7966702D01*
X12194484Y-7966702D01*
X12196133Y-7966911D01*
X12196902Y-7966702D01*
X12197699Y-7966702D01*
X12199235Y-7966065D01*
X12200839Y-7965628D01*
X12201469Y-7965140D01*
X12202205Y-7964835D01*
X12203380Y-7963660D01*
X12204695Y-7962642D01*
X12205420Y-7961620D01*
X12205654Y-7961386D01*
X12205749Y-7961157D01*
X12206113Y-7960644D01*
X12239903Y-7901511D01*
X12239903Y-7954442D01*
X12240143Y-7956880D01*
X12242010Y-7961386D01*
X12245458Y-7964835D01*
X12249964Y-7966702D01*
X12254842Y-7966702D01*
X12259348Y-7964835D01*
X12262796Y-7961386D01*
X12264663Y-7956880D01*
X12264903Y-7954442D01*
X12264903Y-7911585D01*
X12282760Y-7911585D01*
X12282760Y-7944918D01*
X12283000Y-7947357D01*
X12284867Y-7951863D01*
X12284867Y-7951863D01*
X12286421Y-7953757D01*
X12291183Y-7958519D01*
X12293077Y-7960073D01*
X12293493Y-7960245D01*
X12293832Y-7960539D01*
X12296069Y-7961538D01*
X12310355Y-7966300D01*
X12311564Y-7966575D01*
X12311869Y-7966702D01*
X12312311Y-7966745D01*
X12312744Y-7966844D01*
X12313073Y-7966820D01*
X12314308Y-7966942D01*
X12323832Y-7966942D01*
X12325066Y-7966820D01*
X12325395Y-7966844D01*
X12325828Y-7966745D01*
X12326270Y-7966702D01*
X12326575Y-7966575D01*
X12327784Y-7966300D01*
X12342070Y-7961539D01*
X12344308Y-7960539D01*
X12344647Y-7960245D01*
X12345062Y-7960073D01*
X12346956Y-7958519D01*
X12356480Y-7948995D01*
X12357267Y-7948036D01*
X12357516Y-7947820D01*
X12357752Y-7947444D01*
X12358035Y-7947101D01*
X12358161Y-7946795D01*
X12358821Y-7945746D01*
X12363583Y-7936222D01*
X12363652Y-7936044D01*
X12363705Y-7935971D01*
X12364071Y-7934948D01*
X12364459Y-7933934D01*
X12364465Y-7933844D01*
X12364530Y-7933664D01*
X12369292Y-7914616D01*
X12369354Y-7914193D01*
X12369425Y-7914023D01*
X12369515Y-7913105D01*
X12369650Y-7912192D01*
X12369623Y-7912010D01*
X12369665Y-7911585D01*
X12369665Y-7897299D01*
X12369623Y-7896873D01*
X12369650Y-7896691D01*
X12369515Y-7895778D01*
X12369425Y-7894860D01*
X12369354Y-7894690D01*
X12369292Y-7894267D01*
X12364530Y-7875220D01*
X12364465Y-7875040D01*
X12364459Y-7874950D01*
X12364071Y-7873935D01*
X12363705Y-7872912D01*
X12363652Y-7872840D01*
X12363583Y-7872661D01*
X12358821Y-7863137D01*
X12358161Y-7862088D01*
X12358034Y-7861783D01*
X12357753Y-7861440D01*
X12357516Y-7861064D01*
X12357267Y-7860847D01*
X12356480Y-7859889D01*
X12346956Y-7850365D01*
X12345062Y-7848810D01*
X12344647Y-7848639D01*
X12344308Y-7848344D01*
X12342070Y-7847345D01*
X12327784Y-7842583D01*
X12326575Y-7842308D01*
X12326270Y-7842182D01*
X12325828Y-7842138D01*
X12325395Y-7842040D01*
X12325066Y-7842063D01*
X12323832Y-7841942D01*
X12309546Y-7841942D01*
X12307107Y-7842182D01*
X12306692Y-7842354D01*
X12306244Y-7842386D01*
X12303956Y-7843262D01*
X12294432Y-7848023D01*
X12292358Y-7849329D01*
X12289163Y-7853013D01*
X12287620Y-7857640D01*
X12287966Y-7862505D01*
X12290147Y-7866868D01*
X12293832Y-7870063D01*
X12298459Y-7871606D01*
X12303324Y-7871260D01*
X12305612Y-7870384D01*
X12312497Y-7866942D01*
X12321803Y-7866942D01*
X12331365Y-7870129D01*
X12337368Y-7876132D01*
X12340609Y-7882614D01*
X12344665Y-7898838D01*
X12344665Y-7910046D01*
X12340609Y-7926269D01*
X12337368Y-7932751D01*
X12331365Y-7938755D01*
X12321803Y-7941942D01*
X12316336Y-7941942D01*
X12307760Y-7939083D01*
X12307760Y-7924085D01*
X12314308Y-7924085D01*
X12316746Y-7923844D01*
X12321252Y-7921978D01*
X12324701Y-7918529D01*
X12326568Y-7914023D01*
X12326568Y-7909146D01*
X12324701Y-7904640D01*
X12321252Y-7901191D01*
X12316746Y-7899325D01*
X12314308Y-7899085D01*
X12295260Y-7899085D01*
X12292822Y-7899325D01*
X12288316Y-7901191D01*
X12284867Y-7904640D01*
X12283000Y-7909146D01*
X12282760Y-7911585D01*
X12264903Y-7911585D01*
X12264903Y-7854442D01*
X12264841Y-7853815D01*
X12264873Y-7853569D01*
X12264786Y-7853250D01*
X12264663Y-7852003D01*
X12264027Y-7850468D01*
X12263589Y-7848863D01*
X12263101Y-7848233D01*
X12262796Y-7847497D01*
X12261621Y-7846322D01*
X12260603Y-7845007D01*
X12259911Y-7844612D01*
X12259348Y-7844048D01*
X12257812Y-7843412D01*
X12256368Y-7842587D01*
X12255578Y-7842487D01*
X12254842Y-7842182D01*
X12253180Y-7842182D01*
X12251530Y-7841972D01*
X12250761Y-7842182D01*
X12249964Y-7842182D01*
X12248429Y-7842818D01*
X12246825Y-7843256D01*
X12246194Y-7843744D01*
X12245458Y-7844048D01*
X12244283Y-7845224D01*
X12242968Y-7846242D01*
X12242243Y-7847264D01*
X12242010Y-7847497D01*
X12241915Y-7847726D01*
X12241550Y-7848240D01*
X12207760Y-7907372D01*
X12207760Y-7854442D01*
X12207520Y-7852003D01*
X12205654Y-7847497D01*
X12202205Y-7844048D01*
X12197699Y-7842182D01*
X12192822Y-7842182D01*
X12188316Y-7844048D01*
X12184867Y-7847497D01*
X12183000Y-7852003D01*
X12182760Y-7854442D01*
X12160141Y-7854442D01*
X12159901Y-7852003D01*
X12158035Y-7847497D01*
X12154586Y-7844048D01*
X12150080Y-7842182D01*
X12147641Y-7841942D01*
X12123832Y-7841942D01*
X12122597Y-7842063D01*
X12122268Y-7842040D01*
X12121835Y-7842138D01*
X12121393Y-7842182D01*
X12121088Y-7842308D01*
X12119879Y-7842583D01*
X12105593Y-7847345D01*
X12103356Y-7848344D01*
X12103016Y-7848639D01*
X12102601Y-7848810D01*
X12100707Y-7850365D01*
X12091183Y-7859889D01*
X12090397Y-7860847D01*
X12090147Y-7861064D01*
X12089910Y-7861440D01*
X12089629Y-7861783D01*
X12089503Y-7862088D01*
X12088842Y-7863137D01*
X12084080Y-7872661D01*
X12084012Y-7872840D01*
X12083958Y-7872912D01*
X12083592Y-7873935D01*
X12083204Y-7874950D01*
X12083198Y-7875040D01*
X12083133Y-7875220D01*
X12078372Y-7894267D01*
X12078309Y-7894690D01*
X12078239Y-7894860D01*
X12078148Y-7895778D01*
X12078013Y-7896691D01*
X12078040Y-7896873D01*
X12077998Y-7897299D01*
X12065498Y-7897299D01*
X12065498Y-7829442D01*
X12382165Y-7829442D01*
X12382165Y-7979442D01*
G37*
G36*
X12133253Y-8374937D02*
G01*
X12138894Y-8380578D01*
X12142443Y-8394774D01*
X12142443Y-8425030D01*
X12138894Y-8439226D01*
X12133253Y-8444867D01*
X12128183Y-8447402D01*
X12115037Y-8447402D01*
X12109967Y-8444867D01*
X12104325Y-8439226D01*
X12100776Y-8425030D01*
X12100776Y-8394774D01*
X12104325Y-8380578D01*
X12109966Y-8374937D01*
X12115037Y-8372402D01*
X12128183Y-8372402D01*
X12133253Y-8374937D01*
G37*
G36*
X12238015Y-8374937D02*
G01*
X12243656Y-8380578D01*
X12247205Y-8394774D01*
X12247205Y-8425030D01*
X12243656Y-8439226D01*
X12238015Y-8444867D01*
X12232945Y-8447402D01*
X12219799Y-8447402D01*
X12214729Y-8444867D01*
X12209087Y-8439226D01*
X12205538Y-8425030D01*
X12205538Y-8394774D01*
X12209087Y-8380578D01*
X12214728Y-8374937D01*
X12219799Y-8372402D01*
X12232945Y-8372402D01*
X12238015Y-8374937D01*
G37*
G36*
X12342443Y-8447402D02*
G01*
X12319799Y-8447402D01*
X12314729Y-8444867D01*
X12312835Y-8442974D01*
X12310300Y-8437903D01*
X12310300Y-8429519D01*
X12312835Y-8424449D01*
X12314076Y-8423208D01*
X12323638Y-8420021D01*
X12342443Y-8420021D01*
X12342443Y-8447402D01*
G37*
G36*
X12342443Y-8395021D02*
G01*
X12324561Y-8395021D01*
X12319490Y-8392486D01*
X12317597Y-8390593D01*
X12315062Y-8385522D01*
X12315062Y-8381900D01*
X12317597Y-8376830D01*
X12319490Y-8374937D01*
X12324561Y-8372402D01*
X12342443Y-8372402D01*
X12342443Y-8395021D01*
G37*
G36*
X12379943Y-8484902D02*
G01*
X11977802Y-8484902D01*
X11977802Y-8357463D01*
X11990302Y-8357463D01*
X11990302Y-8362340D01*
X11992169Y-8366846D01*
X11995618Y-8370295D01*
X12000124Y-8372162D01*
X12002562Y-8372402D01*
X12018634Y-8372402D01*
X12018634Y-8459902D01*
X12018874Y-8462341D01*
X12020740Y-8466847D01*
X12024189Y-8470295D01*
X12028695Y-8472162D01*
X12033572Y-8472162D01*
X12038078Y-8470295D01*
X12041527Y-8466847D01*
X12043393Y-8462341D01*
X12043634Y-8459902D01*
X12043634Y-8393235D01*
X12075776Y-8393235D01*
X12075776Y-8426569D01*
X12075818Y-8426994D01*
X12075791Y-8427176D01*
X12075926Y-8428089D01*
X12076017Y-8429007D01*
X12076087Y-8429177D01*
X12076150Y-8429600D01*
X12080912Y-8448648D01*
X12081736Y-8450955D01*
X12082289Y-8451702D01*
X12082645Y-8452561D01*
X12084199Y-8454455D01*
X12093723Y-8463979D01*
X12094682Y-8464766D01*
X12094898Y-8465015D01*
X12095274Y-8465251D01*
X12095617Y-8465533D01*
X12095922Y-8465660D01*
X12096972Y-8466320D01*
X12106496Y-8471082D01*
X12108784Y-8471958D01*
X12109232Y-8471990D01*
X12109647Y-8472162D01*
X12112086Y-8472402D01*
X12131134Y-8472402D01*
X12133572Y-8472162D01*
X12133987Y-8471990D01*
X12134435Y-8471958D01*
X12136724Y-8471082D01*
X12146247Y-8466320D01*
X12147297Y-8465660D01*
X12147602Y-8465533D01*
X12147945Y-8465251D01*
X12148321Y-8465015D01*
X12148537Y-8464766D01*
X12149496Y-8463979D01*
X12159020Y-8454455D01*
X12160575Y-8452561D01*
X12160930Y-8451702D01*
X12161483Y-8450955D01*
X12162308Y-8448648D01*
X12167070Y-8429600D01*
X12167132Y-8429177D01*
X12167203Y-8429007D01*
X12167293Y-8428089D01*
X12167428Y-8427176D01*
X12167401Y-8426994D01*
X12167443Y-8426569D01*
X12167443Y-8393235D01*
X12180538Y-8393235D01*
X12180538Y-8426569D01*
X12180580Y-8426994D01*
X12180553Y-8427176D01*
X12180688Y-8428089D01*
X12180779Y-8429007D01*
X12180849Y-8429177D01*
X12180912Y-8429600D01*
X12185673Y-8448648D01*
X12186498Y-8450955D01*
X12187051Y-8451702D01*
X12187407Y-8452561D01*
X12188961Y-8454455D01*
X12198485Y-8463979D01*
X12199444Y-8464766D01*
X12199660Y-8465015D01*
X12200036Y-8465251D01*
X12200379Y-8465533D01*
X12200684Y-8465660D01*
X12201734Y-8466320D01*
X12211258Y-8471082D01*
X12213546Y-8471958D01*
X12213994Y-8471990D01*
X12214409Y-8472162D01*
X12216848Y-8472402D01*
X12235895Y-8472402D01*
X12238334Y-8472162D01*
X12238749Y-8471990D01*
X12239197Y-8471958D01*
X12241486Y-8471082D01*
X12251009Y-8466320D01*
X12252059Y-8465660D01*
X12252364Y-8465533D01*
X12252707Y-8465251D01*
X12253083Y-8465015D01*
X12253299Y-8464766D01*
X12254258Y-8463979D01*
X12263782Y-8454455D01*
X12265336Y-8452561D01*
X12265692Y-8451702D01*
X12266245Y-8450955D01*
X12267070Y-8448648D01*
X12271832Y-8429600D01*
X12271894Y-8429177D01*
X12271965Y-8429007D01*
X12272055Y-8428089D01*
X12272190Y-8427176D01*
X12272163Y-8426994D01*
X12272205Y-8426569D01*
X12285300Y-8426569D01*
X12285300Y-8440854D01*
X12285540Y-8443293D01*
X12285712Y-8443708D01*
X12285744Y-8444156D01*
X12286620Y-8446444D01*
X12291382Y-8455968D01*
X12292042Y-8457018D01*
X12292169Y-8457323D01*
X12292450Y-8457666D01*
X12292687Y-8458042D01*
X12292937Y-8458258D01*
X12293723Y-8459217D01*
X12298485Y-8463979D01*
X12299444Y-8464766D01*
X12299660Y-8465015D01*
X12300036Y-8465251D01*
X12300379Y-8465533D01*
X12300685Y-8465660D01*
X12301734Y-8466320D01*
X12311258Y-8471082D01*
X12313546Y-8471958D01*
X12313994Y-8471990D01*
X12314409Y-8472162D01*
X12316848Y-8472402D01*
X12354943Y-8472402D01*
X12357382Y-8472162D01*
X12361888Y-8470295D01*
X12365336Y-8466847D01*
X12367203Y-8462341D01*
X12367443Y-8459902D01*
X12367443Y-8359902D01*
X12367203Y-8357463D01*
X12365336Y-8352957D01*
X12361888Y-8349508D01*
X12357382Y-8347642D01*
X12354943Y-8347402D01*
X12321610Y-8347402D01*
X12319171Y-8347642D01*
X12318756Y-8347814D01*
X12318308Y-8347846D01*
X12316020Y-8348722D01*
X12306496Y-8353483D01*
X12305446Y-8354144D01*
X12305141Y-8354270D01*
X12304798Y-8354552D01*
X12304422Y-8354789D01*
X12304206Y-8355038D01*
X12303247Y-8355825D01*
X12298485Y-8360587D01*
X12297699Y-8361545D01*
X12297449Y-8361762D01*
X12297212Y-8362138D01*
X12296931Y-8362481D01*
X12296805Y-8362786D01*
X12296144Y-8363836D01*
X12291382Y-8373359D01*
X12290506Y-8375648D01*
X12290474Y-8376096D01*
X12290302Y-8376511D01*
X12290062Y-8378949D01*
X12290062Y-8388473D01*
X12290302Y-8390912D01*
X12290474Y-8391327D01*
X12290506Y-8391775D01*
X12291382Y-8394064D01*
X12296144Y-8403587D01*
X12296805Y-8404637D01*
X12296931Y-8404942D01*
X12296956Y-8404973D01*
X12293723Y-8408206D01*
X12292937Y-8409164D01*
X12292687Y-8409381D01*
X12292450Y-8409757D01*
X12292169Y-8410100D01*
X12292043Y-8410405D01*
X12291382Y-8411455D01*
X12286620Y-8420978D01*
X12285744Y-8423267D01*
X12285712Y-8423715D01*
X12285540Y-8424130D01*
X12285300Y-8426569D01*
X12272205Y-8426569D01*
X12272205Y-8393235D01*
X12272163Y-8392810D01*
X12272190Y-8392628D01*
X12272055Y-8391715D01*
X12271965Y-8390797D01*
X12271894Y-8390626D01*
X12271832Y-8390204D01*
X12267070Y-8371156D01*
X12266245Y-8368848D01*
X12265692Y-8368101D01*
X12265336Y-8367243D01*
X12263782Y-8365349D01*
X12254258Y-8355825D01*
X12253299Y-8355038D01*
X12253083Y-8354789D01*
X12252707Y-8354552D01*
X12252364Y-8354270D01*
X12252059Y-8354144D01*
X12251009Y-8353483D01*
X12241486Y-8348722D01*
X12239197Y-8347846D01*
X12238749Y-8347814D01*
X12238334Y-8347642D01*
X12235895Y-8347402D01*
X12216848Y-8347402D01*
X12214409Y-8347642D01*
X12213994Y-8347814D01*
X12213546Y-8347846D01*
X12211258Y-8348722D01*
X12201734Y-8353483D01*
X12200684Y-8354144D01*
X12200379Y-8354270D01*
X12200036Y-8354552D01*
X12199660Y-8354789D01*
X12199444Y-8355038D01*
X12198485Y-8355825D01*
X12188961Y-8365349D01*
X12187407Y-8367243D01*
X12187051Y-8368101D01*
X12186498Y-8368848D01*
X12185673Y-8371156D01*
X12180912Y-8390204D01*
X12180849Y-8390626D01*
X12180779Y-8390797D01*
X12180688Y-8391715D01*
X12180553Y-8392628D01*
X12180580Y-8392810D01*
X12180538Y-8393235D01*
X12167443Y-8393235D01*
X12167401Y-8392810D01*
X12167428Y-8392628D01*
X12167293Y-8391715D01*
X12167203Y-8390797D01*
X12167132Y-8390626D01*
X12167070Y-8390204D01*
X12162308Y-8371156D01*
X12161483Y-8368848D01*
X12160930Y-8368101D01*
X12160574Y-8367243D01*
X12159020Y-8365349D01*
X12149496Y-8355825D01*
X12148538Y-8355038D01*
X12148321Y-8354789D01*
X12147945Y-8354552D01*
X12147602Y-8354270D01*
X12147297Y-8354144D01*
X12146247Y-8353483D01*
X12136724Y-8348722D01*
X12134435Y-8347846D01*
X12133987Y-8347814D01*
X12133572Y-8347642D01*
X12131134Y-8347402D01*
X12112086Y-8347402D01*
X12109647Y-8347642D01*
X12109232Y-8347814D01*
X12108784Y-8347846D01*
X12106496Y-8348722D01*
X12096972Y-8353483D01*
X12095922Y-8354144D01*
X12095618Y-8354270D01*
X12095274Y-8354552D01*
X12094898Y-8354789D01*
X12094682Y-8355038D01*
X12093723Y-8355825D01*
X12084200Y-8365349D01*
X12082645Y-8367243D01*
X12082289Y-8368101D01*
X12081736Y-8368848D01*
X12080912Y-8371156D01*
X12076150Y-8390204D01*
X12076087Y-8390626D01*
X12076017Y-8390797D01*
X12075926Y-8391715D01*
X12075791Y-8392628D01*
X12075818Y-8392810D01*
X12075776Y-8393235D01*
X12043634Y-8393235D01*
X12043634Y-8372402D01*
X12059705Y-8372402D01*
X12062144Y-8372162D01*
X12066650Y-8370295D01*
X12070098Y-8366846D01*
X12071965Y-8362340D01*
X12071965Y-8357463D01*
X12070098Y-8352957D01*
X12066650Y-8349508D01*
X12062144Y-8347642D01*
X12059705Y-8347402D01*
X12002562Y-8347402D01*
X12000124Y-8347642D01*
X11995618Y-8349508D01*
X11992169Y-8352957D01*
X11990302Y-8357463D01*
X11977802Y-8357463D01*
X11977802Y-8334902D01*
X12379943Y-8334902D01*
X12379943Y-8484902D01*
G37*
G36*
X12133571Y-8123477D02*
G01*
X12139212Y-8129118D01*
X12142761Y-8143314D01*
X12142761Y-8173570D01*
X12139212Y-8187765D01*
X12133571Y-8193407D01*
X12128501Y-8195942D01*
X12115355Y-8195942D01*
X12110285Y-8193407D01*
X12104643Y-8187765D01*
X12101095Y-8173570D01*
X12101095Y-8143314D01*
X12104644Y-8129118D01*
X12110285Y-8123477D01*
X12115355Y-8120942D01*
X12128501Y-8120942D01*
X12133571Y-8123477D01*
G37*
G36*
X12389785Y-8233442D02*
G01*
X12063595Y-8233442D01*
X12063595Y-8141775D01*
X12076095Y-8141775D01*
X12076095Y-8175108D01*
X12076136Y-8175534D01*
X12076109Y-8175716D01*
X12076244Y-8176629D01*
X12076335Y-8177547D01*
X12076405Y-8177717D01*
X12076468Y-8178140D01*
X12081230Y-8197188D01*
X12082054Y-8199495D01*
X12082607Y-8200242D01*
X12082963Y-8201101D01*
X12084518Y-8202995D01*
X12094041Y-8212519D01*
X12095000Y-8213306D01*
X12095216Y-8213555D01*
X12095592Y-8213791D01*
X12095936Y-8214073D01*
X12096241Y-8214200D01*
X12097290Y-8214860D01*
X12106814Y-8219622D01*
X12109102Y-8220498D01*
X12109550Y-8220530D01*
X12109965Y-8220702D01*
X12112404Y-8220942D01*
X12131452Y-8220942D01*
X12133890Y-8220702D01*
X12134305Y-8220530D01*
X12134753Y-8220498D01*
X12137042Y-8219622D01*
X12146566Y-8214860D01*
X12147615Y-8214200D01*
X12147920Y-8214073D01*
X12148264Y-8213791D01*
X12148639Y-8213555D01*
X12148855Y-8213306D01*
X12149814Y-8212519D01*
X12159338Y-8202995D01*
X12160893Y-8201101D01*
X12161248Y-8200242D01*
X12161802Y-8199495D01*
X12162626Y-8197188D01*
X12167388Y-8178140D01*
X12167450Y-8177717D01*
X12167521Y-8177547D01*
X12167611Y-8176629D01*
X12167746Y-8175716D01*
X12167719Y-8175534D01*
X12167761Y-8175108D01*
X12167761Y-8141775D01*
X12167719Y-8141350D01*
X12167746Y-8141167D01*
X12167611Y-8140254D01*
X12167521Y-8139337D01*
X12167450Y-8139166D01*
X12167388Y-8138743D01*
X12162626Y-8119696D01*
X12161802Y-8117388D01*
X12161248Y-8116641D01*
X12160893Y-8115783D01*
X12159338Y-8113889D01*
X12154358Y-8108909D01*
X12176103Y-8108909D01*
X12176434Y-8111337D01*
X12200244Y-8211337D01*
X12200532Y-8212174D01*
X12200572Y-8212474D01*
X12200729Y-8212745D01*
X12201042Y-8213654D01*
X12202107Y-8215124D01*
X12203016Y-8216695D01*
X12203525Y-8217085D01*
X12203902Y-8217605D01*
X12205448Y-8218557D01*
X12206889Y-8219659D01*
X12207509Y-8219825D01*
X12208056Y-8220161D01*
X12209848Y-8220448D01*
X12211601Y-8220916D01*
X12212238Y-8220831D01*
X12212871Y-8220933D01*
X12214637Y-8220513D01*
X12216436Y-8220274D01*
X12216991Y-8219952D01*
X12217616Y-8219803D01*
X12219087Y-8218739D01*
X12220657Y-8217830D01*
X12221047Y-8217320D01*
X12221567Y-8216944D01*
X12222519Y-8215398D01*
X12223622Y-8213957D01*
X12223959Y-8213058D01*
X12224123Y-8212790D01*
X12224171Y-8212491D01*
X12224482Y-8211663D01*
X12231452Y-8185526D01*
X12238421Y-8211663D01*
X12238732Y-8212491D01*
X12238780Y-8212790D01*
X12238944Y-8213057D01*
X12239282Y-8213957D01*
X12240385Y-8215398D01*
X12241336Y-8216944D01*
X12241856Y-8217320D01*
X12242246Y-8217830D01*
X12243817Y-8218739D01*
X12245287Y-8219803D01*
X12245911Y-8219952D01*
X12246467Y-8220274D01*
X12248267Y-8220513D01*
X12250032Y-8220933D01*
X12250665Y-8220831D01*
X12251302Y-8220916D01*
X12253055Y-8220448D01*
X12254848Y-8220161D01*
X12255394Y-8219825D01*
X12256014Y-8219659D01*
X12257455Y-8218556D01*
X12259002Y-8217605D01*
X12259378Y-8217085D01*
X12259887Y-8216695D01*
X12260797Y-8215124D01*
X12261861Y-8213654D01*
X12262174Y-8212745D01*
X12262331Y-8212474D01*
X12262371Y-8212174D01*
X12262659Y-8211337D01*
X12270151Y-8179870D01*
X12295142Y-8179870D01*
X12295142Y-8189394D01*
X12295382Y-8191833D01*
X12295554Y-8192248D01*
X12295586Y-8192696D01*
X12296462Y-8194984D01*
X12301224Y-8204508D01*
X12301884Y-8205558D01*
X12302011Y-8205862D01*
X12302292Y-8206206D01*
X12302529Y-8206582D01*
X12302779Y-8206798D01*
X12303565Y-8207757D01*
X12308327Y-8212519D01*
X12309286Y-8213306D01*
X12309502Y-8213555D01*
X12309877Y-8213791D01*
X12310221Y-8214073D01*
X12310526Y-8214200D01*
X12311576Y-8214860D01*
X12321100Y-8219622D01*
X12323388Y-8220498D01*
X12323836Y-8220530D01*
X12324251Y-8220702D01*
X12326690Y-8220942D01*
X12350499Y-8220942D01*
X12351734Y-8220820D01*
X12352063Y-8220844D01*
X12352496Y-8220745D01*
X12352938Y-8220702D01*
X12353243Y-8220575D01*
X12354452Y-8220300D01*
X12368738Y-8215539D01*
X12370975Y-8214539D01*
X12374660Y-8211344D01*
X12376841Y-8206982D01*
X12377187Y-8202117D01*
X12375644Y-8197490D01*
X12372449Y-8193805D01*
X12368086Y-8191624D01*
X12363221Y-8191278D01*
X12360832Y-8191821D01*
X12348471Y-8195942D01*
X12329641Y-8195942D01*
X12324570Y-8193407D01*
X12322677Y-8191514D01*
X12320142Y-8186443D01*
X12320142Y-8182821D01*
X12322677Y-8177751D01*
X12324570Y-8175858D01*
X12331053Y-8172617D01*
X12348769Y-8168188D01*
X12348949Y-8168123D01*
X12349039Y-8168117D01*
X12350054Y-8167729D01*
X12351077Y-8167363D01*
X12351149Y-8167309D01*
X12351328Y-8167241D01*
X12360851Y-8162479D01*
X12361901Y-8161818D01*
X12362206Y-8161692D01*
X12362549Y-8161411D01*
X12362925Y-8161174D01*
X12363141Y-8160924D01*
X12364100Y-8160138D01*
X12368862Y-8155376D01*
X12369649Y-8154417D01*
X12369898Y-8154201D01*
X12370134Y-8153825D01*
X12370416Y-8153482D01*
X12370543Y-8153177D01*
X12371203Y-8152127D01*
X12375965Y-8142603D01*
X12376841Y-8140315D01*
X12376873Y-8139867D01*
X12377045Y-8139452D01*
X12377285Y-8137013D01*
X12377285Y-8127489D01*
X12377045Y-8125051D01*
X12376873Y-8124636D01*
X12376841Y-8124188D01*
X12375965Y-8121899D01*
X12371203Y-8112375D01*
X12370543Y-8111326D01*
X12370416Y-8111021D01*
X12370134Y-8110677D01*
X12369898Y-8110302D01*
X12369649Y-8110086D01*
X12368862Y-8109127D01*
X12364100Y-8104365D01*
X12363141Y-8103578D01*
X12362925Y-8103329D01*
X12362549Y-8103092D01*
X12362206Y-8102810D01*
X12361901Y-8102684D01*
X12360851Y-8102023D01*
X12351328Y-8097262D01*
X12349039Y-8096386D01*
X12348591Y-8096354D01*
X12348176Y-8096182D01*
X12345737Y-8095942D01*
X12321928Y-8095942D01*
X12320693Y-8096063D01*
X12320364Y-8096040D01*
X12319931Y-8096138D01*
X12319489Y-8096182D01*
X12319184Y-8096308D01*
X12317975Y-8096583D01*
X12303689Y-8101345D01*
X12301452Y-8102344D01*
X12297767Y-8105540D01*
X12295586Y-8109902D01*
X12295240Y-8114767D01*
X12296783Y-8119394D01*
X12299978Y-8123079D01*
X12304341Y-8125260D01*
X12309206Y-8125606D01*
X12311595Y-8125062D01*
X12323956Y-8120942D01*
X12342787Y-8120942D01*
X12347857Y-8123477D01*
X12349750Y-8125370D01*
X12352285Y-8130440D01*
X12352285Y-8134062D01*
X12349750Y-8139132D01*
X12347857Y-8141026D01*
X12341375Y-8144267D01*
X12323658Y-8148696D01*
X12323478Y-8148760D01*
X12323388Y-8148767D01*
X12322373Y-8149155D01*
X12321351Y-8149520D01*
X12321278Y-8149574D01*
X12321100Y-8149642D01*
X12311576Y-8154404D01*
X12310526Y-8155065D01*
X12310221Y-8155191D01*
X12309878Y-8155473D01*
X12309502Y-8155710D01*
X12309286Y-8155959D01*
X12308327Y-8156746D01*
X12303565Y-8161508D01*
X12302779Y-8162466D01*
X12302529Y-8162683D01*
X12302292Y-8163059D01*
X12302011Y-8163402D01*
X12301885Y-8163707D01*
X12301224Y-8164756D01*
X12296462Y-8174280D01*
X12295586Y-8176569D01*
X12295554Y-8177017D01*
X12295382Y-8177432D01*
X12295142Y-8179870D01*
X12270151Y-8179870D01*
X12286469Y-8111337D01*
X12286800Y-8108909D01*
X12286028Y-8104093D01*
X12283472Y-8099940D01*
X12279521Y-8097080D01*
X12274776Y-8095951D01*
X12269960Y-8096723D01*
X12265806Y-8099279D01*
X12262947Y-8103230D01*
X12262149Y-8105547D01*
X12249813Y-8157356D01*
X12243530Y-8133792D01*
X12243315Y-8133221D01*
X12243283Y-8132981D01*
X12243118Y-8132696D01*
X12242669Y-8131498D01*
X12241667Y-8130188D01*
X12240840Y-8128760D01*
X12240197Y-8128268D01*
X12239705Y-8127625D01*
X12238277Y-8126799D01*
X12236967Y-8125796D01*
X12236184Y-8125587D01*
X12235484Y-8125181D01*
X12233848Y-8124964D01*
X12232254Y-8124539D01*
X12231452Y-8124646D01*
X12230649Y-8124539D01*
X12229055Y-8124964D01*
X12227420Y-8125181D01*
X12226718Y-8125587D01*
X12225937Y-8125796D01*
X12224627Y-8126798D01*
X12223199Y-8127625D01*
X12222706Y-8128268D01*
X12222064Y-8128760D01*
X12221237Y-8130188D01*
X12220234Y-8131498D01*
X12219785Y-8132696D01*
X12219620Y-8132981D01*
X12219588Y-8133221D01*
X12219374Y-8133792D01*
X12213090Y-8157356D01*
X12200755Y-8105547D01*
X12199956Y-8103230D01*
X12197097Y-8099279D01*
X12192943Y-8096723D01*
X12188127Y-8095951D01*
X12183383Y-8097080D01*
X12179431Y-8099940D01*
X12176875Y-8104093D01*
X12176103Y-8108909D01*
X12154358Y-8108909D01*
X12149814Y-8104365D01*
X12148856Y-8103578D01*
X12148639Y-8103329D01*
X12148263Y-8103092D01*
X12147920Y-8102810D01*
X12147615Y-8102684D01*
X12146566Y-8102023D01*
X12137042Y-8097262D01*
X12134753Y-8096386D01*
X12134305Y-8096354D01*
X12133890Y-8096182D01*
X12131452Y-8095942D01*
X12112404Y-8095942D01*
X12109965Y-8096182D01*
X12109550Y-8096354D01*
X12109102Y-8096386D01*
X12106814Y-8097262D01*
X12097290Y-8102023D01*
X12096240Y-8102684D01*
X12095936Y-8102810D01*
X12095592Y-8103092D01*
X12095216Y-8103329D01*
X12095000Y-8103578D01*
X12094041Y-8104365D01*
X12084518Y-8113889D01*
X12082963Y-8115783D01*
X12082607Y-8116641D01*
X12082054Y-8117388D01*
X12081230Y-8119696D01*
X12076468Y-8138743D01*
X12076405Y-8139166D01*
X12076335Y-8139337D01*
X12076244Y-8140255D01*
X12076109Y-8141168D01*
X12076136Y-8141350D01*
X12076095Y-8141775D01*
X12063595Y-8141775D01*
X12063595Y-8083442D01*
X12389785Y-8083442D01*
X12389785Y-8233442D01*
G37*
G36*
X12738931Y-7551462D02*
G01*
X12432126Y-7551462D01*
X12432126Y-7433547D01*
X12444626Y-7433547D01*
X12444626Y-7438424D01*
X12446493Y-7442930D01*
X12449941Y-7446379D01*
X12454447Y-7448245D01*
X12459325Y-7448245D01*
X12463831Y-7446379D01*
X12465725Y-7444824D01*
X12468400Y-7442149D01*
X12477962Y-7438962D01*
X12483429Y-7438962D01*
X12492991Y-7442149D01*
X12498994Y-7448152D01*
X12502235Y-7454634D01*
X12506291Y-7470858D01*
X12506291Y-7482066D01*
X12502235Y-7498289D01*
X12498994Y-7504771D01*
X12492991Y-7510775D01*
X12483429Y-7513962D01*
X12477962Y-7513962D01*
X12468400Y-7510775D01*
X12465725Y-7508099D01*
X12463831Y-7506545D01*
X12459325Y-7504678D01*
X12454447Y-7504678D01*
X12449941Y-7506545D01*
X12446493Y-7509993D01*
X12444626Y-7514499D01*
X12444626Y-7519376D01*
X12446493Y-7523882D01*
X12448047Y-7525777D01*
X12452809Y-7530539D01*
X12454703Y-7532093D01*
X12455118Y-7532265D01*
X12455458Y-7532559D01*
X12457695Y-7533558D01*
X12471981Y-7538320D01*
X12473190Y-7538595D01*
X12473495Y-7538722D01*
X12473937Y-7538765D01*
X12474370Y-7538864D01*
X12474699Y-7538840D01*
X12475934Y-7538962D01*
X12485457Y-7538962D01*
X12486692Y-7538840D01*
X12487021Y-7538864D01*
X12487454Y-7538765D01*
X12487896Y-7538722D01*
X12488201Y-7538595D01*
X12489410Y-7538320D01*
X12503696Y-7533559D01*
X12505933Y-7532559D01*
X12506273Y-7532265D01*
X12506688Y-7532093D01*
X12508582Y-7530539D01*
X12518106Y-7521015D01*
X12518893Y-7520056D01*
X12519142Y-7519840D01*
X12519378Y-7519464D01*
X12519660Y-7519121D01*
X12519787Y-7518815D01*
X12520447Y-7517766D01*
X12525209Y-7508242D01*
X12525277Y-7508064D01*
X12525331Y-7507991D01*
X12525697Y-7506968D01*
X12526085Y-7505954D01*
X12526091Y-7505864D01*
X12526156Y-7505684D01*
X12530917Y-7486636D01*
X12530980Y-7486213D01*
X12531050Y-7486043D01*
X12531141Y-7485125D01*
X12531276Y-7484212D01*
X12531249Y-7484030D01*
X12531291Y-7483605D01*
X12531291Y-7469319D01*
X12531249Y-7468893D01*
X12531276Y-7468711D01*
X12531141Y-7467798D01*
X12531050Y-7466880D01*
X12530980Y-7466710D01*
X12530917Y-7466287D01*
X12526156Y-7447240D01*
X12526091Y-7447060D01*
X12526085Y-7446970D01*
X12525697Y-7445955D01*
X12525331Y-7444932D01*
X12525277Y-7444860D01*
X12525209Y-7444681D01*
X12520447Y-7435157D01*
X12519786Y-7434108D01*
X12519660Y-7433803D01*
X12519450Y-7433547D01*
X12544626Y-7433547D01*
X12544626Y-7438424D01*
X12546493Y-7442930D01*
X12549941Y-7446379D01*
X12554447Y-7448245D01*
X12559325Y-7448245D01*
X12563831Y-7446379D01*
X12565725Y-7444824D01*
X12568400Y-7442149D01*
X12577962Y-7438962D01*
X12583429Y-7438962D01*
X12592991Y-7442149D01*
X12598994Y-7448152D01*
X12602235Y-7454634D01*
X12606291Y-7470858D01*
X12606291Y-7482066D01*
X12602235Y-7498289D01*
X12598994Y-7504771D01*
X12592991Y-7510775D01*
X12583429Y-7513962D01*
X12577962Y-7513962D01*
X12568400Y-7510775D01*
X12565725Y-7508099D01*
X12563831Y-7506545D01*
X12559325Y-7504678D01*
X12554447Y-7504678D01*
X12549941Y-7506545D01*
X12546493Y-7509993D01*
X12544626Y-7514499D01*
X12544626Y-7519376D01*
X12546493Y-7523882D01*
X12548047Y-7525777D01*
X12552809Y-7530539D01*
X12554703Y-7532093D01*
X12555118Y-7532265D01*
X12555458Y-7532559D01*
X12557695Y-7533558D01*
X12571981Y-7538320D01*
X12573190Y-7538595D01*
X12573495Y-7538722D01*
X12573937Y-7538765D01*
X12574370Y-7538864D01*
X12574699Y-7538840D01*
X12575934Y-7538962D01*
X12585457Y-7538962D01*
X12586692Y-7538840D01*
X12587021Y-7538864D01*
X12587454Y-7538765D01*
X12587896Y-7538722D01*
X12588201Y-7538595D01*
X12589410Y-7538320D01*
X12603696Y-7533559D01*
X12605933Y-7532559D01*
X12606273Y-7532265D01*
X12606688Y-7532093D01*
X12608582Y-7530539D01*
X12618106Y-7521015D01*
X12618893Y-7520056D01*
X12619142Y-7519840D01*
X12619378Y-7519464D01*
X12619660Y-7519121D01*
X12619787Y-7518815D01*
X12620447Y-7517766D01*
X12625209Y-7508242D01*
X12625277Y-7508064D01*
X12625331Y-7507991D01*
X12625697Y-7506968D01*
X12626085Y-7505954D01*
X12626091Y-7505864D01*
X12626156Y-7505684D01*
X12630917Y-7486636D01*
X12630980Y-7486213D01*
X12631050Y-7486043D01*
X12631141Y-7485125D01*
X12631276Y-7484212D01*
X12631249Y-7484030D01*
X12631291Y-7483605D01*
X12631291Y-7469319D01*
X12631249Y-7468893D01*
X12631276Y-7468711D01*
X12631141Y-7467798D01*
X12631050Y-7466880D01*
X12630980Y-7466710D01*
X12630917Y-7466287D01*
X12626156Y-7447240D01*
X12626091Y-7447060D01*
X12626085Y-7446970D01*
X12625697Y-7445955D01*
X12625331Y-7444932D01*
X12625277Y-7444860D01*
X12625209Y-7444681D01*
X12620447Y-7435157D01*
X12619786Y-7434108D01*
X12619660Y-7433803D01*
X12619378Y-7433460D01*
X12619142Y-7433084D01*
X12618892Y-7432867D01*
X12618106Y-7431909D01*
X12614222Y-7428025D01*
X12634960Y-7428025D01*
X12635504Y-7430415D01*
X12668837Y-7530415D01*
X12669836Y-7532652D01*
X12670421Y-7533327D01*
X12670821Y-7534126D01*
X12672005Y-7535153D01*
X12673031Y-7536337D01*
X12673831Y-7536736D01*
X12674505Y-7537321D01*
X12675992Y-7537817D01*
X12677394Y-7538518D01*
X12678285Y-7538581D01*
X12679132Y-7538864D01*
X12680695Y-7538753D01*
X12682259Y-7538864D01*
X12683106Y-7538581D01*
X12683997Y-7538518D01*
X12685399Y-7537817D01*
X12686886Y-7537321D01*
X12687560Y-7536736D01*
X12688359Y-7536337D01*
X12689387Y-7535152D01*
X12690570Y-7534126D01*
X12690970Y-7533327D01*
X12691555Y-7532652D01*
X12692554Y-7530415D01*
X12725887Y-7430415D01*
X12726431Y-7428025D01*
X12726085Y-7423160D01*
X12723904Y-7418798D01*
X12720219Y-7415602D01*
X12715592Y-7414060D01*
X12710727Y-7414406D01*
X12706365Y-7416587D01*
X12703169Y-7420272D01*
X12702170Y-7422509D01*
X12680695Y-7486933D01*
X12659221Y-7422509D01*
X12658222Y-7420272D01*
X12655026Y-7416587D01*
X12650664Y-7414406D01*
X12645799Y-7414060D01*
X12641172Y-7415602D01*
X12637487Y-7418798D01*
X12635306Y-7423160D01*
X12634960Y-7428025D01*
X12614222Y-7428025D01*
X12608582Y-7422385D01*
X12606688Y-7420830D01*
X12606273Y-7420659D01*
X12605933Y-7420364D01*
X12603696Y-7419365D01*
X12589410Y-7414603D01*
X12588201Y-7414328D01*
X12587896Y-7414202D01*
X12587454Y-7414158D01*
X12587021Y-7414060D01*
X12586692Y-7414083D01*
X12585457Y-7413962D01*
X12575934Y-7413962D01*
X12574699Y-7414083D01*
X12574370Y-7414060D01*
X12573937Y-7414158D01*
X12573495Y-7414202D01*
X12573190Y-7414328D01*
X12571981Y-7414603D01*
X12557695Y-7419365D01*
X12555458Y-7420364D01*
X12555118Y-7420658D01*
X12554703Y-7420830D01*
X12552809Y-7422385D01*
X12548047Y-7427147D01*
X12546493Y-7429041D01*
X12544626Y-7433547D01*
X12519450Y-7433547D01*
X12519378Y-7433460D01*
X12519142Y-7433084D01*
X12518892Y-7432867D01*
X12518106Y-7431909D01*
X12508582Y-7422385D01*
X12506688Y-7420830D01*
X12506273Y-7420659D01*
X12505933Y-7420364D01*
X12503696Y-7419365D01*
X12489410Y-7414603D01*
X12488201Y-7414328D01*
X12487896Y-7414202D01*
X12487454Y-7414158D01*
X12487021Y-7414060D01*
X12486692Y-7414083D01*
X12485457Y-7413962D01*
X12475934Y-7413962D01*
X12474699Y-7414083D01*
X12474370Y-7414060D01*
X12473937Y-7414158D01*
X12473495Y-7414202D01*
X12473190Y-7414328D01*
X12471981Y-7414603D01*
X12457695Y-7419365D01*
X12455458Y-7420364D01*
X12455118Y-7420658D01*
X12454703Y-7420830D01*
X12452809Y-7422385D01*
X12448047Y-7427147D01*
X12446493Y-7429041D01*
X12444626Y-7433547D01*
X12432126Y-7433547D01*
X12432126Y-7401462D01*
X12738931Y-7401462D01*
X12738931Y-7551462D01*
G37*
D10*
X11023600Y-6066882D02*
X11023600Y-6090691D01*
X11047409Y-6081168D02*
X11023600Y-6090691D01*
X11023600Y-6090691D02*
X10999790Y-6081168D01*
X11037886Y-6109739D02*
X11023600Y-6090691D01*
X11023600Y-6090691D02*
X11009314Y-6109739D01*
%TO.C,R406*%
D12*
X12515670Y-6451482D02*
X12515670Y-6400538D01*
X12620170Y-6451482D02*
X12620170Y-6400538D01*
%TO.C,C208*%
X11670980Y-9592895D02*
X11650295Y-9613580D01*
X11743105Y-9665020D02*
X11722420Y-9685705D01*
%TO.C,U502*%
D13*
X10808970Y-6113820D02*
X10984230Y-6113820D01*
X10808970Y-6289080D02*
X10808970Y-6113820D01*
X10984230Y-6113820D02*
X10984230Y-6289080D01*
X10984230Y-6289080D02*
X10808970Y-6289080D01*
%TO.C,R608*%
D12*
X12069962Y-10519230D02*
X12019018Y-10519230D01*
X12069962Y-10623730D02*
X12019018Y-10623730D01*
%TO.C,R407*%
X12306228Y-7123250D02*
X12357172Y-7123250D01*
X12306228Y-7227750D02*
X12357172Y-7227750D01*
%TO.C,C501*%
X11646623Y-7048300D02*
X11675877Y-7048300D01*
X11646623Y-7150300D02*
X11675877Y-7150300D01*
%TO.C,C504*%
X11785400Y-6859927D02*
X11785400Y-6830673D01*
X11887400Y-6859927D02*
X11887400Y-6830673D01*
%TO.C,Q601*%
X11735240Y-10009080D02*
X11735240Y-10014080D01*
X11735240Y-10126080D02*
X11735240Y-10204080D01*
X11735240Y-10316080D02*
X11735240Y-10321080D01*
X11735240Y-10321080D02*
X11917240Y-10321080D01*
X11917240Y-10009080D02*
X11735240Y-10009080D01*
X11917240Y-10109080D02*
X11917240Y-10009080D01*
X11917240Y-10321080D02*
X11917240Y-10221080D01*
X11681240Y-10203080D02*
X11705240Y-10170080D01*
X11657240Y-10170080D01*
X11681240Y-10203080D01*
G36*
X11681240Y-10203080D02*
G01*
X11657240Y-10170080D01*
X11705240Y-10170080D01*
X11681240Y-10203080D01*
G37*
%TO.C,R204*%
X10177708Y-8126550D02*
X10228652Y-8126550D01*
X10177708Y-8231050D02*
X10228652Y-8231050D01*
%TO.C,L505*%
X11290100Y-6457427D02*
X11290100Y-6423173D01*
X11392100Y-6457427D02*
X11392100Y-6423173D01*
%TO.C,L503*%
X10862927Y-6832400D02*
X10828673Y-6832400D01*
X10862927Y-6934400D02*
X10828673Y-6934400D01*
%TO.C,R202*%
X12555148Y-8667570D02*
X12606092Y-8667570D01*
X12555148Y-8772070D02*
X12606092Y-8772070D01*
%TO.C,R401*%
X10103222Y-8998050D02*
X10052278Y-8998050D01*
X10103222Y-9102550D02*
X10052278Y-9102550D01*
%TO.C,R201*%
X12451152Y-8512630D02*
X12400208Y-8512630D01*
X12451152Y-8617130D02*
X12400208Y-8617130D01*
%TO.C,C204*%
X10545395Y-9195120D02*
X10566080Y-9215805D01*
X10617520Y-9122995D02*
X10638205Y-9143680D01*
%TO.C,R501*%
X10437950Y-6289222D02*
X10437950Y-6238278D01*
X10542450Y-6289222D02*
X10542450Y-6238278D01*
%TO.C,D405*%
X12161950Y-6289500D02*
X12161950Y-6389500D01*
X12161950Y-6501500D02*
X12161950Y-6601500D01*
X12161950Y-6601500D02*
X12313950Y-6601500D01*
X12313950Y-6289500D02*
X12161950Y-6289500D01*
X12313950Y-6294500D02*
X12313950Y-6289500D01*
X12313950Y-6484500D02*
X12313950Y-6406500D01*
X12313950Y-6601500D02*
X12313950Y-6596500D01*
X12367950Y-6407500D02*
X12343950Y-6440500D01*
X12391950Y-6440500D01*
X12367950Y-6407500D01*
G36*
X12391950Y-6440500D02*
G01*
X12343950Y-6440500D01*
X12367950Y-6407500D01*
X12391950Y-6440500D01*
G37*
%TO.C,R604*%
X11602792Y-9858830D02*
X11551848Y-9858830D01*
X11602792Y-9963330D02*
X11551848Y-9963330D01*
%TO.C,C503*%
X10949327Y-7810300D02*
X10920073Y-7810300D01*
X10949327Y-7912300D02*
X10920073Y-7912300D01*
%TO.C,R402*%
X10105472Y-8698050D02*
X10054528Y-8698050D01*
X10105472Y-8802550D02*
X10054528Y-8802550D01*
%TO.C,R408*%
X12571550Y-7035728D02*
X12571550Y-7086672D01*
X12676050Y-7035728D02*
X12676050Y-7086672D01*
%TO.C,Q101*%
X10385000Y-9934380D02*
X10385000Y-10116380D01*
X10385000Y-10116380D02*
X10485000Y-10116380D01*
X10390000Y-9934380D02*
X10385000Y-9934380D01*
X10580000Y-9934380D02*
X10502000Y-9934380D01*
X10597000Y-10116380D02*
X10697000Y-10116380D01*
X10697000Y-9934380D02*
X10692000Y-9934380D01*
X10697000Y-10116380D02*
X10697000Y-9934380D01*
X10503000Y-9880380D02*
X10536000Y-9904380D01*
X10536000Y-9856380D01*
X10503000Y-9880380D01*
G36*
X10536000Y-9904380D02*
G01*
X10503000Y-9880380D01*
X10536000Y-9856380D01*
X10536000Y-9904380D01*
G37*
%TO.C,R612*%
X12593392Y-8888550D02*
X12542448Y-8888550D01*
X12593392Y-8993050D02*
X12542448Y-8993050D01*
%TO.C,R203*%
X10044250Y-7820778D02*
X10044250Y-7871722D01*
X10148750Y-7820778D02*
X10148750Y-7871722D01*
%TO.C,C206*%
X11273023Y-7810300D02*
X11302277Y-7810300D01*
X11273023Y-7912300D02*
X11302277Y-7912300D01*
%TO.C,C205*%
X10363000Y-8879227D02*
X10363000Y-8849973D01*
X10465000Y-8879227D02*
X10465000Y-8849973D01*
%TO.C,R607*%
X12083870Y-10231238D02*
X12083870Y-10282182D01*
X12188370Y-10231238D02*
X12188370Y-10282182D01*
%TO.C,D401*%
X10385000Y-9517350D02*
X10385000Y-9669350D01*
X10385000Y-9669350D02*
X10485000Y-9669350D01*
X10390000Y-9517350D02*
X10385000Y-9517350D01*
X10580000Y-9517350D02*
X10502000Y-9517350D01*
X10597000Y-9669350D02*
X10697000Y-9669350D01*
X10697000Y-9517350D02*
X10692000Y-9517350D01*
X10697000Y-9669350D02*
X10697000Y-9517350D01*
X10503000Y-9463350D02*
X10536000Y-9487350D01*
X10536000Y-9439350D01*
X10503000Y-9463350D01*
G36*
X10536000Y-9487350D02*
G01*
X10503000Y-9463350D01*
X10536000Y-9439350D01*
X10536000Y-9487350D01*
G37*
%TO.C,R609*%
X12119430Y-9591112D02*
X12119430Y-9540168D01*
X12223930Y-9591112D02*
X12223930Y-9540168D01*
%TO.C,C510*%
X11620300Y-6453527D02*
X11620300Y-6424273D01*
X11722300Y-6453527D02*
X11722300Y-6424273D01*
%TO.C,Y501*%
X11530300Y-7219600D02*
X11812300Y-7219600D01*
X11530300Y-7461600D02*
X11530300Y-7219600D01*
%TO.C,C207*%
X11556680Y-9478595D02*
X11535995Y-9499280D01*
X11628805Y-9550720D02*
X11608120Y-9571405D01*
%TO.C,R602*%
X11780448Y-10371910D02*
X11831392Y-10371910D01*
X11780448Y-10476410D02*
X11831392Y-10476410D01*
%TO.C,C505*%
X11506000Y-7770473D02*
X11506000Y-7799727D01*
X11608000Y-7770473D02*
X11608000Y-7799727D01*
%TO.C,C201*%
X12211663Y-8776048D02*
X12232348Y-8796733D01*
X12283788Y-8703923D02*
X12304473Y-8724608D01*
%TO.C,L502*%
X11455200Y-6862427D02*
X11455200Y-6828173D01*
X11557200Y-6862427D02*
X11557200Y-6828173D01*
%TO.C,C518*%
X10631827Y-5765600D02*
X10602573Y-5765600D01*
X10631827Y-5867600D02*
X10602573Y-5867600D01*
%TO.C,R102*%
X10755450Y-9791628D02*
X10755450Y-9842572D01*
X10859950Y-9791628D02*
X10859950Y-9842572D01*
%TO.C,C516*%
X10969473Y-5943400D02*
X10998727Y-5943400D01*
X10969473Y-6045400D02*
X10998727Y-6045400D01*
%TO.C,C508*%
X10769400Y-6599423D02*
X10769400Y-6628677D01*
X10871400Y-6599423D02*
X10871400Y-6628677D01*
%TO.C,U501*%
X10971650Y-7104200D02*
X10971650Y-7151700D01*
X10971650Y-7478700D02*
X10971650Y-7526200D01*
X10971650Y-7526200D02*
X11019150Y-7526200D01*
X11019150Y-7104200D02*
X10971650Y-7104200D01*
X11346150Y-7526200D02*
X11393650Y-7526200D01*
X11393650Y-7104200D02*
X11346150Y-7104200D01*
X11393650Y-7151700D02*
X11393650Y-7104200D01*
X11393650Y-7526200D02*
X11393650Y-7478700D01*
X11443650Y-7190200D02*
X11476650Y-7214200D01*
X11476650Y-7166200D01*
X11443650Y-7190200D01*
G36*
X11476650Y-7214200D02*
G01*
X11443650Y-7190200D01*
X11476650Y-7166200D01*
X11476650Y-7214200D01*
G37*
%TO.C,C515*%
X11074200Y-6249123D02*
X11074200Y-6278377D01*
X11176200Y-6249123D02*
X11176200Y-6278377D01*
%TO.C,C506*%
X11620300Y-6859927D02*
X11620300Y-6830673D01*
X11722300Y-6859927D02*
X11722300Y-6830673D01*
%TO.C,C502*%
X10949327Y-7645200D02*
X10920073Y-7645200D01*
X10949327Y-7747200D02*
X10920073Y-7747200D01*
%TO.C,Q602*%
X11892720Y-9663640D02*
X11892720Y-9668640D01*
X11892720Y-9780640D02*
X11892720Y-9858640D01*
X11892720Y-9970640D02*
X11892720Y-9975640D01*
X11892720Y-9975640D02*
X12074720Y-9975640D01*
X12074720Y-9663640D02*
X11892720Y-9663640D01*
X12074720Y-9763640D02*
X12074720Y-9663640D01*
X12074720Y-9975640D02*
X12074720Y-9875640D01*
X11838720Y-9857640D02*
X11862720Y-9824640D01*
X11814720Y-9824640D01*
X11838720Y-9857640D01*
G36*
X11838720Y-9857640D02*
G01*
X11814720Y-9824640D01*
X11862720Y-9824640D01*
X11838720Y-9857640D01*
G37*
%TO.C,C101*%
X11358680Y-10550547D02*
X11358680Y-10521293D01*
X11460680Y-10550547D02*
X11460680Y-10521293D01*
%TO.C,U201*%
X10542442Y-8759329D02*
X10609617Y-8692154D01*
X10609617Y-8826504D02*
X10542442Y-8759329D01*
X11197930Y-9414817D02*
X11265105Y-9481992D01*
X11265105Y-8036665D02*
X11197930Y-8103841D01*
X11265105Y-9481992D02*
X11332280Y-9414817D01*
X11332280Y-8103841D02*
X11265105Y-8036665D01*
X11920593Y-8692154D02*
X11987768Y-8759329D01*
X11987768Y-8759329D02*
X11920593Y-8826504D01*
X11964080Y-8869991D02*
X12021356Y-8860798D01*
X11973273Y-8812715D01*
X11964080Y-8869991D01*
G36*
X12021356Y-8860798D02*
G01*
X11964080Y-8869991D01*
X11973273Y-8812715D01*
X12021356Y-8860798D01*
G37*
%TO.C,Q401*%
X12175700Y-6767000D02*
X12175700Y-6949000D01*
X12175700Y-6949000D02*
X12180700Y-6949000D01*
X12275700Y-6767000D02*
X12175700Y-6767000D01*
X12292700Y-6949000D02*
X12370700Y-6949000D01*
X12482700Y-6949000D02*
X12487700Y-6949000D01*
X12487700Y-6767000D02*
X12387700Y-6767000D01*
X12487700Y-6949000D02*
X12487700Y-6767000D01*
X12369700Y-7003000D02*
X12336700Y-6979000D01*
X12336700Y-7027000D01*
X12369700Y-7003000D01*
G36*
X12369700Y-7003000D02*
G01*
X12336700Y-7027000D01*
X12336700Y-6979000D01*
X12369700Y-7003000D01*
G37*
%TO.C,C507*%
X10540800Y-6811777D02*
X10540800Y-6782523D01*
X10642800Y-6811777D02*
X10642800Y-6782523D01*
%TO.C,R611*%
X12607110Y-9215192D02*
X12607110Y-9164248D01*
X12711610Y-9215192D02*
X12711610Y-9164248D01*
%TO.C,L501*%
X11273173Y-7645200D02*
X11307427Y-7645200D01*
X11273173Y-7747200D02*
X11307427Y-7747200D01*
%TO.C,R601*%
X11479350Y-10144688D02*
X11479350Y-10195632D01*
X11583850Y-10144688D02*
X11583850Y-10195632D01*
%TO.C,C509*%
X10581027Y-6476800D02*
X10551773Y-6476800D01*
X10581027Y-6578800D02*
X10551773Y-6578800D01*
%TO.C,U101*%
X10686200Y-10281280D02*
X11062200Y-10281280D01*
X10686200Y-10963280D02*
X11062200Y-10963280D01*
X11062200Y-10281280D02*
X11062200Y-10407280D01*
X11062200Y-10963280D02*
X11062200Y-10837280D01*
X10558200Y-10953280D02*
X10534200Y-10986280D01*
X10582200Y-10986280D01*
X10558200Y-10953280D01*
G36*
X10582200Y-10986280D02*
G01*
X10534200Y-10986280D01*
X10558200Y-10953280D01*
X10582200Y-10986280D01*
G37*
%TO.C,L504*%
X11455200Y-6457427D02*
X11455200Y-6423173D01*
X11557200Y-6457427D02*
X11557200Y-6423173D01*
%TO.C,C513*%
X11059773Y-6654600D02*
X11089027Y-6654600D01*
X11059773Y-6756600D02*
X11089027Y-6756600D01*
%TO.C,C202*%
X12084663Y-8903048D02*
X12105348Y-8923733D01*
X12156788Y-8830923D02*
X12177473Y-8851608D01*
%TO.C,J501*%
X10701500Y-5306000D02*
X10812500Y-5306000D01*
X10701500Y-5631000D02*
X10812500Y-5631000D01*
X10871500Y-5736000D02*
X10896500Y-5686000D01*
X10896500Y-5686000D02*
X10921500Y-5736000D01*
X10921500Y-5736000D02*
X10871500Y-5736000D01*
X10980500Y-5306000D02*
X11091500Y-5306000D01*
X10980500Y-5631000D02*
X11091500Y-5631000D01*
%TO.C,C511*%
X11290100Y-6110627D02*
X11290100Y-6081373D01*
X11392100Y-6110627D02*
X11392100Y-6081373D01*
%TO.C,Y201*%
D14*
X11879087Y-9421837D02*
X11787163Y-9329913D01*
X12122331Y-9178592D02*
X12030408Y-9086669D01*
D15*
X11807769Y-9411231D02*
G75*
G02*
X11787769Y-9411231I-10000J0D01*
G01*
X11787769Y-9411231D02*
G75*
G02*
X11807769Y-9411231I10000J0D01*
G01*
%TO.C,C203*%
D12*
X10939095Y-9576120D02*
X10959780Y-9596805D01*
X11011220Y-9503995D02*
X11031905Y-9524680D01*
%TO.C,C517*%
X11323823Y-5765600D02*
X11353077Y-5765600D01*
X11323823Y-5867600D02*
X11353077Y-5867600D01*
%TO.C,C512*%
X11059773Y-6476800D02*
X11089027Y-6476800D01*
X11059773Y-6578800D02*
X11089027Y-6578800D01*
%TO.C,C514*%
X10617000Y-6249123D02*
X10617000Y-6278377D01*
X10719000Y-6249123D02*
X10719000Y-6278377D01*
%TO.C,L506*%
X11001227Y-5765600D02*
X10966973Y-5765600D01*
X11001227Y-5867600D02*
X10966973Y-5867600D01*
%TD*%
M02*
