%TF.GenerationSoftware,KiCad,Pcbnew,10.0.4*%
%TF.CreationDate,2026-07-13T00:04:33+00:00*%
%TF.ProjectId,Flight Computer,466c6967-6874-4204-936f-6d7075746572,rev?*%
%TF.SameCoordinates,Original*%
%TF.FileFunction,Legend,Top*%
%TF.FilePolarity,Positive*%
%FSLAX45Y45*%
G04 Gerber Fmt 4.5, Leading zero omitted, Abs format (unit mm)*
G04 Created by KiCad (PCBNEW 10.0.4) date 2026-07-13 00:04:33*
%MOMM*%
%LPD*%
G01*
G04 APERTURE LIST*
%ADD10C,0.150000*%
%ADD11C,0.200000*%
%ADD12C,0.250000*%
%ADD13C,0.300000*%
%ADD14C,0.120000*%
%ADD15C,0.000000*%
%ADD16C,0.100000*%
G04 APERTURE END LIST*
D10*
G36*
X12175188Y-8927082D02*
G01*
X12176647Y-8928541D01*
X12178883Y-8933012D01*
X12178883Y-8940185D01*
X12176647Y-8944656D01*
X12174797Y-8946506D01*
X12170326Y-8948741D01*
X12151025Y-8948741D01*
X12151025Y-8924456D01*
X12167308Y-8924456D01*
X12175188Y-8927082D01*
G37*
G36*
X12171226Y-8890977D02*
G01*
X12173076Y-8892827D01*
X12175311Y-8897298D01*
X12175311Y-8900900D01*
X12173076Y-8905370D01*
X12171226Y-8907220D01*
X12166755Y-8909456D01*
X12151025Y-8909456D01*
X12151025Y-8888741D01*
X12166755Y-8888741D01*
X12171226Y-8890977D01*
G37*
G36*
X12249797Y-8890977D02*
G01*
X12254610Y-8895790D01*
X12257454Y-8907165D01*
X12257454Y-8930318D01*
X12254610Y-8941693D01*
X12249797Y-8946506D01*
X12245326Y-8948741D01*
X12234582Y-8948741D01*
X12230111Y-8946506D01*
X12225298Y-8941693D01*
X12222454Y-8930318D01*
X12222454Y-8907165D01*
X12225298Y-8895790D01*
X12230111Y-8890977D01*
X12234582Y-8888741D01*
X12245326Y-8888741D01*
X12249797Y-8890977D01*
G37*
G36*
X12328368Y-8890977D02*
G01*
X12333182Y-8895790D01*
X12336025Y-8907165D01*
X12336025Y-8930318D01*
X12333182Y-8941693D01*
X12328368Y-8946506D01*
X12323898Y-8948741D01*
X12313153Y-8948741D01*
X12308682Y-8946506D01*
X12303869Y-8941693D01*
X12301025Y-8930318D01*
X12301025Y-8907165D01*
X12303869Y-8895790D01*
X12308682Y-8890977D01*
X12313153Y-8888741D01*
X12323898Y-8888741D01*
X12328368Y-8890977D01*
G37*
G36*
X12423500Y-8972075D02*
G01*
X12127692Y-8972075D01*
X12127692Y-8881241D01*
X12136025Y-8881241D01*
X12136025Y-8956241D01*
X12136170Y-8957705D01*
X12137289Y-8960408D01*
X12139359Y-8962477D01*
X12142062Y-8963597D01*
X12143525Y-8963741D01*
X12172097Y-8963741D01*
X12173560Y-8963597D01*
X12173809Y-8963494D01*
X12174078Y-8963475D01*
X12175451Y-8962950D01*
X12182594Y-8959378D01*
X12183224Y-8958982D01*
X12183407Y-8958906D01*
X12183613Y-8958737D01*
X12183838Y-8958595D01*
X12183968Y-8958445D01*
X12184543Y-8957973D01*
X12188115Y-8954402D01*
X12188586Y-8953827D01*
X12188736Y-8953697D01*
X12188878Y-8953471D01*
X12189047Y-8953265D01*
X12189123Y-8953082D01*
X12189519Y-8952453D01*
X12193091Y-8945310D01*
X12193616Y-8943937D01*
X12193635Y-8943668D01*
X12193738Y-8943419D01*
X12193883Y-8941956D01*
X12193883Y-8931241D01*
X12193738Y-8929778D01*
X12193635Y-8929529D01*
X12193616Y-8929261D01*
X12193091Y-8927887D01*
X12189519Y-8920744D01*
X12189123Y-8920114D01*
X12189047Y-8919932D01*
X12188878Y-8919726D01*
X12188736Y-8919500D01*
X12188586Y-8919370D01*
X12188114Y-8918795D01*
X12184543Y-8915224D01*
X12184484Y-8915175D01*
X12184543Y-8915116D01*
X12185015Y-8914541D01*
X12185165Y-8914411D01*
X12185307Y-8914185D01*
X12185476Y-8913980D01*
X12185551Y-8913797D01*
X12185948Y-8913167D01*
X12189411Y-8906241D01*
X12207454Y-8906241D01*
X12207454Y-8931241D01*
X12207479Y-8931497D01*
X12207463Y-8931606D01*
X12207544Y-8932153D01*
X12207598Y-8932705D01*
X12207640Y-8932807D01*
X12207678Y-8933060D01*
X12211249Y-8947346D01*
X12211744Y-8948731D01*
X12212076Y-8949179D01*
X12212289Y-8949694D01*
X12213222Y-8950830D01*
X12220365Y-8957973D01*
X12220940Y-8958445D01*
X12221070Y-8958595D01*
X12221295Y-8958737D01*
X12221502Y-8958906D01*
X12221685Y-8958982D01*
X12222314Y-8959378D01*
X12229457Y-8962950D01*
X12230830Y-8963475D01*
X12231099Y-8963494D01*
X12231348Y-8963597D01*
X12232811Y-8963741D01*
X12247097Y-8963741D01*
X12248560Y-8963597D01*
X12248809Y-8963494D01*
X12249078Y-8963475D01*
X12250451Y-8962950D01*
X12257594Y-8959378D01*
X12258224Y-8958982D01*
X12258407Y-8958906D01*
X12258612Y-8958737D01*
X12258838Y-8958595D01*
X12258968Y-8958445D01*
X12259543Y-8957973D01*
X12266686Y-8950830D01*
X12267619Y-8949694D01*
X12267832Y-8949179D01*
X12268164Y-8948731D01*
X12268659Y-8947346D01*
X12272230Y-8933060D01*
X12272268Y-8932807D01*
X12272310Y-8932705D01*
X12272364Y-8932155D01*
X12272445Y-8931606D01*
X12272429Y-8931496D01*
X12272454Y-8931241D01*
X12272454Y-8906241D01*
X12286025Y-8906241D01*
X12286025Y-8931241D01*
X12286051Y-8931497D01*
X12286034Y-8931606D01*
X12286115Y-8932153D01*
X12286170Y-8932705D01*
X12286212Y-8932807D01*
X12286249Y-8933060D01*
X12289821Y-8947346D01*
X12290315Y-8948731D01*
X12290647Y-8949179D01*
X12290861Y-8949694D01*
X12291794Y-8950830D01*
X12298936Y-8957973D01*
X12299511Y-8958445D01*
X12299641Y-8958595D01*
X12299867Y-8958737D01*
X12300073Y-8958906D01*
X12300256Y-8958982D01*
X12300886Y-8959378D01*
X12308028Y-8962950D01*
X12309402Y-8963475D01*
X12309670Y-8963494D01*
X12309919Y-8963597D01*
X12311383Y-8963741D01*
X12325668Y-8963741D01*
X12327131Y-8963597D01*
X12327380Y-8963494D01*
X12327649Y-8963475D01*
X12329022Y-8962950D01*
X12336165Y-8959378D01*
X12336795Y-8958982D01*
X12336978Y-8958906D01*
X12337184Y-8958737D01*
X12337410Y-8958595D01*
X12337539Y-8958445D01*
X12338114Y-8957973D01*
X12345257Y-8950830D01*
X12346190Y-8949694D01*
X12346403Y-8949179D01*
X12346735Y-8948731D01*
X12347230Y-8947346D01*
X12350802Y-8933060D01*
X12350839Y-8932807D01*
X12350881Y-8932705D01*
X12350935Y-8932155D01*
X12351017Y-8931606D01*
X12351000Y-8931496D01*
X12351025Y-8931241D01*
X12351025Y-8906241D01*
X12351000Y-8905986D01*
X12351017Y-8905877D01*
X12350935Y-8905328D01*
X12350881Y-8904778D01*
X12350839Y-8904676D01*
X12350802Y-8904422D01*
X12347230Y-8890137D01*
X12346735Y-8888752D01*
X12346403Y-8888304D01*
X12346190Y-8887789D01*
X12345257Y-8886652D01*
X12338383Y-8879778D01*
X12357598Y-8879778D01*
X12357598Y-8882705D01*
X12358718Y-8885408D01*
X12360787Y-8887477D01*
X12363491Y-8888597D01*
X12364954Y-8888741D01*
X12378883Y-8888741D01*
X12378883Y-8956241D01*
X12379027Y-8957705D01*
X12380147Y-8960408D01*
X12382216Y-8962477D01*
X12384919Y-8963597D01*
X12387846Y-8963597D01*
X12390549Y-8962477D01*
X12392619Y-8960408D01*
X12393738Y-8957705D01*
X12393883Y-8956241D01*
X12393883Y-8888741D01*
X12407811Y-8888741D01*
X12409274Y-8888597D01*
X12411978Y-8887477D01*
X12414047Y-8885408D01*
X12415167Y-8882705D01*
X12415167Y-8879778D01*
X12414047Y-8877075D01*
X12411978Y-8875005D01*
X12409274Y-8873886D01*
X12407811Y-8873741D01*
X12364954Y-8873741D01*
X12363491Y-8873886D01*
X12360787Y-8875005D01*
X12358718Y-8877075D01*
X12357598Y-8879778D01*
X12338383Y-8879778D01*
X12338114Y-8879510D01*
X12337539Y-8879038D01*
X12337410Y-8878888D01*
X12337184Y-8878746D01*
X12336978Y-8878577D01*
X12336795Y-8878501D01*
X12336165Y-8878105D01*
X12329022Y-8874533D01*
X12327649Y-8874008D01*
X12327380Y-8873989D01*
X12327131Y-8873886D01*
X12325668Y-8873741D01*
X12311383Y-8873741D01*
X12309919Y-8873886D01*
X12309670Y-8873989D01*
X12309402Y-8874008D01*
X12308028Y-8874533D01*
X12300886Y-8878105D01*
X12300256Y-8878501D01*
X12300073Y-8878577D01*
X12299867Y-8878746D01*
X12299641Y-8878888D01*
X12299511Y-8879037D01*
X12298936Y-8879510D01*
X12291794Y-8886652D01*
X12290861Y-8887789D01*
X12290647Y-8888304D01*
X12290315Y-8888752D01*
X12289821Y-8890137D01*
X12286249Y-8904422D01*
X12286212Y-8904676D01*
X12286170Y-8904778D01*
X12286115Y-8905330D01*
X12286034Y-8905877D01*
X12286051Y-8905986D01*
X12286025Y-8906241D01*
X12272454Y-8906241D01*
X12272429Y-8905986D01*
X12272445Y-8905877D01*
X12272364Y-8905328D01*
X12272310Y-8904778D01*
X12272268Y-8904676D01*
X12272230Y-8904422D01*
X12268659Y-8890137D01*
X12268164Y-8888752D01*
X12267832Y-8888304D01*
X12267619Y-8887789D01*
X12266686Y-8886652D01*
X12259543Y-8879510D01*
X12258968Y-8879038D01*
X12258838Y-8878888D01*
X12258612Y-8878746D01*
X12258407Y-8878577D01*
X12258224Y-8878501D01*
X12257594Y-8878105D01*
X12250451Y-8874533D01*
X12249078Y-8874008D01*
X12248809Y-8873989D01*
X12248560Y-8873886D01*
X12247097Y-8873741D01*
X12232811Y-8873741D01*
X12231348Y-8873886D01*
X12231099Y-8873989D01*
X12230830Y-8874008D01*
X12229457Y-8874533D01*
X12222314Y-8878105D01*
X12221685Y-8878501D01*
X12221502Y-8878577D01*
X12221295Y-8878746D01*
X12221070Y-8878888D01*
X12220940Y-8879037D01*
X12220365Y-8879510D01*
X12213222Y-8886652D01*
X12212289Y-8887789D01*
X12212076Y-8888304D01*
X12211744Y-8888752D01*
X12211249Y-8890137D01*
X12207678Y-8904422D01*
X12207640Y-8904676D01*
X12207598Y-8904778D01*
X12207544Y-8905330D01*
X12207463Y-8905877D01*
X12207479Y-8905986D01*
X12207454Y-8906241D01*
X12189411Y-8906241D01*
X12189519Y-8906024D01*
X12190045Y-8904651D01*
X12190064Y-8904382D01*
X12190167Y-8904133D01*
X12190311Y-8902670D01*
X12190311Y-8895527D01*
X12190167Y-8894064D01*
X12190064Y-8893815D01*
X12190045Y-8893546D01*
X12189519Y-8892173D01*
X12185948Y-8885030D01*
X12185551Y-8884400D01*
X12185476Y-8884217D01*
X12185307Y-8884012D01*
X12185165Y-8883786D01*
X12185015Y-8883656D01*
X12184543Y-8883081D01*
X12180972Y-8879510D01*
X12180397Y-8879038D01*
X12180267Y-8878888D01*
X12180041Y-8878746D01*
X12179835Y-8878577D01*
X12179652Y-8878501D01*
X12179022Y-8878105D01*
X12171880Y-8874533D01*
X12170506Y-8874008D01*
X12170238Y-8873989D01*
X12169989Y-8873886D01*
X12168525Y-8873741D01*
X12143525Y-8873741D01*
X12142062Y-8873886D01*
X12139359Y-8875005D01*
X12137289Y-8877075D01*
X12136170Y-8879778D01*
X12136025Y-8881241D01*
X12127692Y-8881241D01*
X12127692Y-8865408D01*
X12423500Y-8865408D01*
X12423500Y-8972075D01*
G37*
G36*
X12555797Y-8890977D02*
G01*
X12557647Y-8892827D01*
X12559883Y-8897298D01*
X12559883Y-8904471D01*
X12557647Y-8908942D01*
X12555797Y-8910792D01*
X12551326Y-8913027D01*
X12532025Y-8913027D01*
X12532025Y-8888741D01*
X12551326Y-8888741D01*
X12555797Y-8890977D01*
G37*
G36*
X12718786Y-8972075D02*
G01*
X12508692Y-8972075D01*
X12508692Y-8881241D01*
X12517025Y-8881241D01*
X12517025Y-8956241D01*
X12517170Y-8957705D01*
X12518289Y-8960408D01*
X12520359Y-8962477D01*
X12523062Y-8963597D01*
X12525989Y-8963597D01*
X12528692Y-8962477D01*
X12530761Y-8960408D01*
X12531881Y-8957705D01*
X12532025Y-8956241D01*
X12532025Y-8928027D01*
X12538478Y-8928027D01*
X12561238Y-8960542D01*
X12562195Y-8961659D01*
X12564663Y-8963231D01*
X12567545Y-8963740D01*
X12570402Y-8963107D01*
X12572800Y-8961429D01*
X12574372Y-8958961D01*
X12574881Y-8956079D01*
X12574248Y-8953222D01*
X12573527Y-8951941D01*
X12556279Y-8927301D01*
X12556451Y-8927235D01*
X12563594Y-8923664D01*
X12564224Y-8923268D01*
X12564407Y-8923192D01*
X12564613Y-8923023D01*
X12564838Y-8922881D01*
X12564968Y-8922731D01*
X12565543Y-8922259D01*
X12569115Y-8918687D01*
X12569586Y-8918113D01*
X12569736Y-8917983D01*
X12569878Y-8917757D01*
X12570047Y-8917551D01*
X12570123Y-8917368D01*
X12570519Y-8916738D01*
X12574091Y-8909596D01*
X12574616Y-8908222D01*
X12574635Y-8907954D01*
X12574738Y-8907705D01*
X12574883Y-8906241D01*
X12574883Y-8895527D01*
X12588454Y-8895527D01*
X12588454Y-8902670D01*
X12588598Y-8904133D01*
X12588701Y-8904382D01*
X12588720Y-8904651D01*
X12589246Y-8906024D01*
X12592817Y-8913167D01*
X12593214Y-8913797D01*
X12593289Y-8913980D01*
X12593458Y-8914185D01*
X12593600Y-8914411D01*
X12593750Y-8914541D01*
X12594222Y-8915116D01*
X12597794Y-8918688D01*
X12598369Y-8919160D01*
X12598498Y-8919309D01*
X12598724Y-8919451D01*
X12598930Y-8919620D01*
X12599113Y-8919696D01*
X12599743Y-8920092D01*
X12606886Y-8923664D01*
X12606993Y-8923705D01*
X12607036Y-8923737D01*
X12607649Y-8923956D01*
X12608259Y-8924189D01*
X12608313Y-8924193D01*
X12608421Y-8924232D01*
X12621908Y-8927604D01*
X12627225Y-8930262D01*
X12629076Y-8932113D01*
X12631311Y-8936583D01*
X12631311Y-8940185D01*
X12629076Y-8944656D01*
X12627225Y-8946506D01*
X12622755Y-8948741D01*
X12607885Y-8948741D01*
X12598326Y-8945555D01*
X12596892Y-8945229D01*
X12593973Y-8945436D01*
X12591356Y-8946745D01*
X12589438Y-8948956D01*
X12588513Y-8951732D01*
X12588720Y-8954651D01*
X12590029Y-8957268D01*
X12592240Y-8959186D01*
X12593582Y-8959785D01*
X12604297Y-8963357D01*
X12605022Y-8963521D01*
X12605205Y-8963597D01*
X12605471Y-8963623D01*
X12605730Y-8963683D01*
X12605928Y-8963668D01*
X12606668Y-8963741D01*
X12624525Y-8963741D01*
X12625989Y-8963597D01*
X12626238Y-8963494D01*
X12626506Y-8963475D01*
X12627880Y-8962950D01*
X12635022Y-8959378D01*
X12635652Y-8958982D01*
X12635835Y-8958906D01*
X12636041Y-8958737D01*
X12636267Y-8958595D01*
X12636397Y-8958445D01*
X12636972Y-8957973D01*
X12640543Y-8954402D01*
X12641015Y-8953827D01*
X12641165Y-8953697D01*
X12641307Y-8953471D01*
X12641476Y-8953265D01*
X12641552Y-8953082D01*
X12641948Y-8952453D01*
X12645519Y-8945310D01*
X12646045Y-8943937D01*
X12646064Y-8943668D01*
X12646167Y-8943419D01*
X12646311Y-8941956D01*
X12646311Y-8934813D01*
X12646167Y-8933350D01*
X12646064Y-8933101D01*
X12646045Y-8932832D01*
X12645519Y-8931459D01*
X12641948Y-8924316D01*
X12641552Y-8923686D01*
X12641476Y-8923503D01*
X12641307Y-8923297D01*
X12641165Y-8923072D01*
X12641015Y-8922942D01*
X12640543Y-8922367D01*
X12636972Y-8918795D01*
X12636397Y-8918323D01*
X12636267Y-8918174D01*
X12636041Y-8918032D01*
X12635835Y-8917863D01*
X12635652Y-8917787D01*
X12635022Y-8917390D01*
X12627880Y-8913819D01*
X12627773Y-8913778D01*
X12627729Y-8913746D01*
X12627114Y-8913526D01*
X12626506Y-8913293D01*
X12626452Y-8913290D01*
X12626344Y-8913251D01*
X12612857Y-8909879D01*
X12607540Y-8907220D01*
X12605689Y-8905370D01*
X12603454Y-8900900D01*
X12603454Y-8897298D01*
X12605689Y-8892827D01*
X12607539Y-8890977D01*
X12612010Y-8888741D01*
X12626880Y-8888741D01*
X12636440Y-8891928D01*
X12637873Y-8892254D01*
X12640792Y-8892047D01*
X12643410Y-8890738D01*
X12645327Y-8888527D01*
X12646252Y-8885751D01*
X12646045Y-8882832D01*
X12644736Y-8880215D01*
X12644233Y-8879778D01*
X12652884Y-8879778D01*
X12652884Y-8882705D01*
X12654004Y-8885408D01*
X12656073Y-8887477D01*
X12658777Y-8888597D01*
X12660240Y-8888741D01*
X12674168Y-8888741D01*
X12674168Y-8956241D01*
X12674312Y-8957705D01*
X12675432Y-8960408D01*
X12677502Y-8962477D01*
X12680205Y-8963597D01*
X12683132Y-8963597D01*
X12685835Y-8962477D01*
X12687904Y-8960408D01*
X12689024Y-8957705D01*
X12689168Y-8956241D01*
X12689168Y-8888741D01*
X12703097Y-8888741D01*
X12704560Y-8888597D01*
X12707264Y-8887477D01*
X12709333Y-8885408D01*
X12710453Y-8882705D01*
X12710453Y-8879778D01*
X12709333Y-8877075D01*
X12707264Y-8875005D01*
X12704560Y-8873886D01*
X12703097Y-8873741D01*
X12660240Y-8873741D01*
X12658777Y-8873886D01*
X12656073Y-8875005D01*
X12654004Y-8877075D01*
X12652884Y-8879778D01*
X12644233Y-8879778D01*
X12642525Y-8878297D01*
X12641183Y-8877698D01*
X12630469Y-8874126D01*
X12629743Y-8873961D01*
X12629560Y-8873886D01*
X12629295Y-8873859D01*
X12629035Y-8873800D01*
X12628837Y-8873814D01*
X12628097Y-8873741D01*
X12610240Y-8873741D01*
X12608777Y-8873886D01*
X12608528Y-8873989D01*
X12608259Y-8874008D01*
X12606886Y-8874533D01*
X12599743Y-8878105D01*
X12599113Y-8878501D01*
X12598930Y-8878577D01*
X12598724Y-8878746D01*
X12598498Y-8878888D01*
X12598368Y-8879038D01*
X12597794Y-8879510D01*
X12594222Y-8883081D01*
X12593750Y-8883656D01*
X12593600Y-8883786D01*
X12593458Y-8884012D01*
X12593289Y-8884217D01*
X12593214Y-8884400D01*
X12592817Y-8885030D01*
X12589246Y-8892173D01*
X12588720Y-8893546D01*
X12588701Y-8893815D01*
X12588598Y-8894064D01*
X12588454Y-8895527D01*
X12574883Y-8895527D01*
X12574738Y-8894064D01*
X12574635Y-8893815D01*
X12574616Y-8893546D01*
X12574091Y-8892173D01*
X12570519Y-8885030D01*
X12570123Y-8884400D01*
X12570047Y-8884217D01*
X12569878Y-8884012D01*
X12569736Y-8883786D01*
X12569586Y-8883656D01*
X12569114Y-8883081D01*
X12565543Y-8879510D01*
X12564968Y-8879038D01*
X12564838Y-8878888D01*
X12564612Y-8878746D01*
X12564407Y-8878577D01*
X12564224Y-8878501D01*
X12563594Y-8878105D01*
X12556451Y-8874533D01*
X12555078Y-8874008D01*
X12554809Y-8873989D01*
X12554560Y-8873886D01*
X12553097Y-8873741D01*
X12524525Y-8873741D01*
X12523062Y-8873886D01*
X12520359Y-8875005D01*
X12518289Y-8877075D01*
X12517170Y-8879778D01*
X12517025Y-8881241D01*
X12508692Y-8881241D01*
X12508692Y-8865408D01*
X12718786Y-8865408D01*
X12718786Y-8972075D01*
G37*
G36*
X11480341Y-5634794D02*
G01*
X11485847Y-5640301D01*
X11488744Y-5646094D01*
X11492130Y-5659639D01*
X11492130Y-5669220D01*
X11488744Y-5682764D01*
X11485847Y-5688558D01*
X11480341Y-5694065D01*
X11471747Y-5696929D01*
X11461416Y-5696929D01*
X11461416Y-5631929D01*
X11471747Y-5631929D01*
X11480341Y-5634794D01*
G37*
G36*
X11956531Y-5634794D02*
G01*
X11962038Y-5640301D01*
X11964935Y-5646094D01*
X11968321Y-5659639D01*
X11968321Y-5669220D01*
X11964935Y-5682764D01*
X11962038Y-5688558D01*
X11956531Y-5694065D01*
X11947937Y-5696929D01*
X11937606Y-5696929D01*
X11937606Y-5631929D01*
X11947937Y-5631929D01*
X11956531Y-5634794D01*
G37*
G36*
X12043759Y-5634403D02*
G01*
X12049048Y-5639692D01*
X12052130Y-5652019D01*
X12052130Y-5676839D01*
X12049048Y-5689166D01*
X12043759Y-5694456D01*
X12038812Y-5696929D01*
X12027115Y-5696929D01*
X12022168Y-5694456D01*
X12016879Y-5689166D01*
X12013797Y-5676839D01*
X12013797Y-5652020D01*
X12016879Y-5639692D01*
X12022168Y-5634403D01*
X12027115Y-5631929D01*
X12038812Y-5631929D01*
X12043759Y-5634403D01*
G37*
G36*
X12076019Y-5720818D02*
G01*
X11437527Y-5720818D01*
X11437527Y-5624429D01*
X11446416Y-5624429D01*
X11446416Y-5704429D01*
X11446560Y-5705893D01*
X11447680Y-5708596D01*
X11449749Y-5710665D01*
X11452453Y-5711785D01*
X11453916Y-5711929D01*
X11472964Y-5711929D01*
X11473704Y-5711856D01*
X11473902Y-5711871D01*
X11474161Y-5711811D01*
X11474427Y-5711785D01*
X11474610Y-5711709D01*
X11475335Y-5711545D01*
X11486764Y-5707735D01*
X11488106Y-5707136D01*
X11488310Y-5706959D01*
X11488559Y-5706856D01*
X11489695Y-5705923D01*
X11497315Y-5698304D01*
X11497786Y-5697729D01*
X11497936Y-5697599D01*
X11498078Y-5697373D01*
X11498247Y-5697168D01*
X11498323Y-5696985D01*
X11498719Y-5696355D01*
X11502529Y-5688736D01*
X11502570Y-5688629D01*
X11502602Y-5688585D01*
X11502822Y-5687970D01*
X11503054Y-5687363D01*
X11503058Y-5687309D01*
X11503097Y-5687201D01*
X11506906Y-5671963D01*
X11506944Y-5671709D01*
X11506986Y-5671607D01*
X11507040Y-5671056D01*
X11507121Y-5670508D01*
X11507105Y-5670399D01*
X11507130Y-5670144D01*
X11507130Y-5658715D01*
X11507105Y-5658460D01*
X11507121Y-5658351D01*
X11507040Y-5657803D01*
X11506986Y-5657252D01*
X11506944Y-5657150D01*
X11506906Y-5656896D01*
X11503097Y-5641658D01*
X11503058Y-5641550D01*
X11503054Y-5641496D01*
X11502822Y-5640889D01*
X11502602Y-5640273D01*
X11502570Y-5640230D01*
X11502529Y-5640123D01*
X11498719Y-5632504D01*
X11498323Y-5631874D01*
X11498247Y-5631691D01*
X11498078Y-5631485D01*
X11497936Y-5631260D01*
X11497786Y-5631130D01*
X11497314Y-5630555D01*
X11491189Y-5624429D01*
X11526416Y-5624429D01*
X11526416Y-5704429D01*
X11526560Y-5705893D01*
X11527680Y-5708596D01*
X11529749Y-5710665D01*
X11532453Y-5711785D01*
X11535379Y-5711785D01*
X11538083Y-5710665D01*
X11540152Y-5708596D01*
X11541272Y-5705893D01*
X11541416Y-5704429D01*
X11541416Y-5639668D01*
X11621654Y-5639668D01*
X11621654Y-5647287D01*
X11621798Y-5648750D01*
X11621901Y-5648999D01*
X11621920Y-5649268D01*
X11622446Y-5650641D01*
X11626255Y-5658260D01*
X11626652Y-5658889D01*
X11626728Y-5659072D01*
X11626897Y-5659279D01*
X11627039Y-5659504D01*
X11627188Y-5659634D01*
X11627660Y-5660209D01*
X11631470Y-5664018D01*
X11632045Y-5664490D01*
X11632175Y-5664640D01*
X11632401Y-5664782D01*
X11632606Y-5664951D01*
X11632789Y-5665027D01*
X11633419Y-5665423D01*
X11641038Y-5669233D01*
X11641145Y-5669274D01*
X11641188Y-5669306D01*
X11641803Y-5669526D01*
X11642411Y-5669758D01*
X11642465Y-5669762D01*
X11642573Y-5669801D01*
X11657012Y-5673411D01*
X11662807Y-5676308D01*
X11664895Y-5678396D01*
X11667368Y-5683343D01*
X11667368Y-5687421D01*
X11664895Y-5692368D01*
X11662806Y-5694456D01*
X11657860Y-5696929D01*
X11641800Y-5696929D01*
X11631526Y-5693505D01*
X11630092Y-5693179D01*
X11627173Y-5693386D01*
X11624556Y-5694695D01*
X11622638Y-5696906D01*
X11621713Y-5699682D01*
X11621920Y-5702601D01*
X11623229Y-5705218D01*
X11625440Y-5707136D01*
X11626782Y-5707735D01*
X11638211Y-5711545D01*
X11638936Y-5711709D01*
X11639119Y-5711785D01*
X11639385Y-5711811D01*
X11639645Y-5711871D01*
X11639842Y-5711856D01*
X11640583Y-5711929D01*
X11659630Y-5711929D01*
X11661093Y-5711785D01*
X11661342Y-5711682D01*
X11661611Y-5711663D01*
X11662984Y-5711138D01*
X11670603Y-5707328D01*
X11671233Y-5706932D01*
X11671416Y-5706856D01*
X11671622Y-5706687D01*
X11671848Y-5706545D01*
X11671978Y-5706395D01*
X11672553Y-5705923D01*
X11676362Y-5702114D01*
X11676834Y-5701539D01*
X11676984Y-5701409D01*
X11677126Y-5701183D01*
X11677295Y-5700977D01*
X11677371Y-5700794D01*
X11677767Y-5700164D01*
X11681576Y-5692545D01*
X11682102Y-5691172D01*
X11682121Y-5690903D01*
X11682224Y-5690655D01*
X11682368Y-5689191D01*
X11682368Y-5681572D01*
X11682224Y-5680109D01*
X11682121Y-5679860D01*
X11682102Y-5679591D01*
X11681576Y-5678218D01*
X11677767Y-5670599D01*
X11677370Y-5669969D01*
X11677295Y-5669786D01*
X11677126Y-5669581D01*
X11676984Y-5669355D01*
X11676834Y-5669225D01*
X11676362Y-5668650D01*
X11672553Y-5664840D01*
X11671977Y-5664368D01*
X11671848Y-5664219D01*
X11671622Y-5664077D01*
X11671416Y-5663908D01*
X11671233Y-5663832D01*
X11670603Y-5663436D01*
X11662984Y-5659626D01*
X11662877Y-5659585D01*
X11662834Y-5659553D01*
X11662220Y-5659333D01*
X11661611Y-5659100D01*
X11661557Y-5659097D01*
X11661449Y-5659058D01*
X11660078Y-5658715D01*
X11697844Y-5658715D01*
X11697844Y-5670144D01*
X11697870Y-5670399D01*
X11697853Y-5670508D01*
X11697934Y-5671056D01*
X11697989Y-5671607D01*
X11698031Y-5671709D01*
X11698068Y-5671963D01*
X11701878Y-5687201D01*
X11701916Y-5687309D01*
X11701920Y-5687363D01*
X11702153Y-5687970D01*
X11702373Y-5688585D01*
X11702405Y-5688629D01*
X11702446Y-5688736D01*
X11706255Y-5696355D01*
X11706652Y-5696985D01*
X11706727Y-5697168D01*
X11706896Y-5697373D01*
X11707039Y-5697599D01*
X11707188Y-5697729D01*
X11707660Y-5698304D01*
X11715279Y-5705923D01*
X11716416Y-5706856D01*
X11716665Y-5706959D01*
X11716868Y-5707136D01*
X11718211Y-5707735D01*
X11729639Y-5711545D01*
X11730365Y-5711709D01*
X11730548Y-5711785D01*
X11730813Y-5711811D01*
X11731073Y-5711871D01*
X11731271Y-5711856D01*
X11732011Y-5711929D01*
X11739630Y-5711929D01*
X11740371Y-5711856D01*
X11740568Y-5711871D01*
X11740828Y-5711811D01*
X11741093Y-5711785D01*
X11741277Y-5711709D01*
X11742002Y-5711545D01*
X11753430Y-5707735D01*
X11754773Y-5707136D01*
X11754977Y-5706959D01*
X11755226Y-5706856D01*
X11756362Y-5705923D01*
X11760172Y-5702114D01*
X11761104Y-5700977D01*
X11762224Y-5698273D01*
X11762224Y-5695347D01*
X11761104Y-5692644D01*
X11759035Y-5690574D01*
X11756332Y-5689454D01*
X11753405Y-5689454D01*
X11750702Y-5690574D01*
X11749565Y-5691507D01*
X11747007Y-5694065D01*
X11738413Y-5696929D01*
X11733228Y-5696929D01*
X11724634Y-5694065D01*
X11719127Y-5688558D01*
X11716230Y-5682764D01*
X11712844Y-5669220D01*
X11712844Y-5659639D01*
X11716230Y-5646095D01*
X11719127Y-5640301D01*
X11724634Y-5634794D01*
X11733228Y-5631929D01*
X11738413Y-5631929D01*
X11747007Y-5634794D01*
X11749565Y-5637352D01*
X11750702Y-5638285D01*
X11753405Y-5639404D01*
X11756332Y-5639404D01*
X11759035Y-5638284D01*
X11761104Y-5636215D01*
X11762224Y-5633511D01*
X11762224Y-5630585D01*
X11761104Y-5627882D01*
X11760172Y-5626745D01*
X11757856Y-5624429D01*
X11781654Y-5624429D01*
X11781654Y-5704429D01*
X11781798Y-5705893D01*
X11782918Y-5708596D01*
X11784987Y-5710665D01*
X11787691Y-5711785D01*
X11790617Y-5711785D01*
X11793321Y-5710665D01*
X11795390Y-5708596D01*
X11796510Y-5705893D01*
X11796654Y-5704429D01*
X11796654Y-5673250D01*
X11799771Y-5670133D01*
X11828868Y-5708929D01*
X11829862Y-5710014D01*
X11832380Y-5711504D01*
X11835277Y-5711918D01*
X11838111Y-5711192D01*
X11840452Y-5709436D01*
X11841943Y-5706918D01*
X11842357Y-5704021D01*
X11841631Y-5701186D01*
X11840868Y-5699929D01*
X11810485Y-5659419D01*
X11840172Y-5629733D01*
X11841104Y-5628596D01*
X11842224Y-5625893D01*
X11842224Y-5624429D01*
X11922606Y-5624429D01*
X11922606Y-5704429D01*
X11922751Y-5705893D01*
X11923870Y-5708596D01*
X11925940Y-5710665D01*
X11928643Y-5711785D01*
X11930106Y-5711929D01*
X11949154Y-5711929D01*
X11949895Y-5711856D01*
X11950092Y-5711871D01*
X11950352Y-5711811D01*
X11950617Y-5711785D01*
X11950800Y-5711709D01*
X11951526Y-5711545D01*
X11962954Y-5707735D01*
X11964297Y-5707136D01*
X11964500Y-5706959D01*
X11964749Y-5706856D01*
X11965886Y-5705923D01*
X11973505Y-5698304D01*
X11973977Y-5697729D01*
X11974127Y-5697599D01*
X11974269Y-5697373D01*
X11974438Y-5697168D01*
X11974513Y-5696985D01*
X11974910Y-5696355D01*
X11978719Y-5688736D01*
X11978760Y-5688629D01*
X11978793Y-5688585D01*
X11979012Y-5687970D01*
X11979245Y-5687363D01*
X11979249Y-5687309D01*
X11979287Y-5687201D01*
X11983097Y-5671963D01*
X11983134Y-5671709D01*
X11983177Y-5671607D01*
X11983231Y-5671056D01*
X11983312Y-5670508D01*
X11983296Y-5670399D01*
X11983321Y-5670144D01*
X11983321Y-5658715D01*
X11983296Y-5658460D01*
X11983312Y-5658351D01*
X11983231Y-5657803D01*
X11983177Y-5657252D01*
X11983134Y-5657150D01*
X11983097Y-5656896D01*
X11981647Y-5651096D01*
X11998797Y-5651096D01*
X11998797Y-5677763D01*
X11998822Y-5678018D01*
X11998806Y-5678127D01*
X11998887Y-5678675D01*
X11998941Y-5679226D01*
X11998983Y-5679328D01*
X11999021Y-5679582D01*
X12002830Y-5694820D01*
X12003325Y-5696204D01*
X12003657Y-5696652D01*
X12003870Y-5697168D01*
X12004803Y-5698304D01*
X12012422Y-5705923D01*
X12012997Y-5706395D01*
X12013127Y-5706545D01*
X12013353Y-5706687D01*
X12013559Y-5706856D01*
X12013741Y-5706932D01*
X12014371Y-5707328D01*
X12021990Y-5711138D01*
X12023364Y-5711663D01*
X12023632Y-5711682D01*
X12023881Y-5711785D01*
X12025345Y-5711929D01*
X12040583Y-5711929D01*
X12042046Y-5711785D01*
X12042295Y-5711682D01*
X12042564Y-5711663D01*
X12043937Y-5711138D01*
X12051556Y-5707328D01*
X12052186Y-5706932D01*
X12052368Y-5706856D01*
X12052574Y-5706687D01*
X12052800Y-5706545D01*
X12052930Y-5706395D01*
X12053505Y-5705923D01*
X12061124Y-5698304D01*
X12062057Y-5697168D01*
X12062270Y-5696652D01*
X12062602Y-5696204D01*
X12063097Y-5694820D01*
X12066906Y-5679582D01*
X12066944Y-5679328D01*
X12066986Y-5679226D01*
X12067040Y-5678676D01*
X12067121Y-5678127D01*
X12067105Y-5678018D01*
X12067130Y-5677763D01*
X12067130Y-5651096D01*
X12067105Y-5650841D01*
X12067121Y-5650732D01*
X12067040Y-5650183D01*
X12066986Y-5649633D01*
X12066944Y-5649531D01*
X12066906Y-5649277D01*
X12063097Y-5634039D01*
X12062602Y-5632654D01*
X12062270Y-5632206D01*
X12062057Y-5631691D01*
X12061124Y-5630555D01*
X12053505Y-5622936D01*
X12052930Y-5622464D01*
X12052800Y-5622314D01*
X12052574Y-5622172D01*
X12052368Y-5622003D01*
X12052185Y-5621927D01*
X12051556Y-5621531D01*
X12043937Y-5617721D01*
X12042564Y-5617196D01*
X12042295Y-5617177D01*
X12042046Y-5617074D01*
X12040583Y-5616929D01*
X12025345Y-5616929D01*
X12023881Y-5617074D01*
X12023632Y-5617177D01*
X12023364Y-5617196D01*
X12021990Y-5617721D01*
X12014371Y-5621531D01*
X12013742Y-5621927D01*
X12013559Y-5622003D01*
X12013352Y-5622172D01*
X12013127Y-5622314D01*
X12012997Y-5622464D01*
X12012422Y-5622936D01*
X12004803Y-5630555D01*
X12003870Y-5631691D01*
X12003657Y-5632206D01*
X12003325Y-5632654D01*
X12002830Y-5634039D01*
X11999021Y-5649277D01*
X11998983Y-5649531D01*
X11998941Y-5649633D01*
X11998887Y-5650184D01*
X11998806Y-5650731D01*
X11998822Y-5650841D01*
X11998797Y-5651096D01*
X11981647Y-5651096D01*
X11979287Y-5641658D01*
X11979249Y-5641550D01*
X11979245Y-5641496D01*
X11979012Y-5640889D01*
X11978793Y-5640273D01*
X11978760Y-5640230D01*
X11978719Y-5640123D01*
X11974910Y-5632504D01*
X11974514Y-5631874D01*
X11974438Y-5631691D01*
X11974269Y-5631485D01*
X11974127Y-5631260D01*
X11973977Y-5631130D01*
X11973505Y-5630555D01*
X11965886Y-5622936D01*
X11964749Y-5622003D01*
X11964500Y-5621900D01*
X11964297Y-5621723D01*
X11962954Y-5621124D01*
X11951526Y-5617314D01*
X11950800Y-5617149D01*
X11950617Y-5617074D01*
X11950352Y-5617047D01*
X11950092Y-5616988D01*
X11949895Y-5617002D01*
X11949154Y-5616929D01*
X11930106Y-5616929D01*
X11928643Y-5617074D01*
X11925940Y-5618193D01*
X11923870Y-5620263D01*
X11922751Y-5622966D01*
X11922606Y-5624429D01*
X11842224Y-5624429D01*
X11842224Y-5622966D01*
X11841104Y-5620263D01*
X11839035Y-5618193D01*
X11836332Y-5617074D01*
X11833405Y-5617074D01*
X11830702Y-5618193D01*
X11829565Y-5619126D01*
X11796654Y-5652037D01*
X11796654Y-5624429D01*
X11796510Y-5622966D01*
X11795390Y-5620263D01*
X11793321Y-5618193D01*
X11790617Y-5617074D01*
X11787691Y-5617074D01*
X11784987Y-5618193D01*
X11782918Y-5620263D01*
X11781798Y-5622966D01*
X11781654Y-5624429D01*
X11757856Y-5624429D01*
X11756362Y-5622936D01*
X11755225Y-5622003D01*
X11754977Y-5621900D01*
X11754773Y-5621723D01*
X11753430Y-5621124D01*
X11742002Y-5617314D01*
X11741277Y-5617149D01*
X11741093Y-5617074D01*
X11740828Y-5617047D01*
X11740568Y-5616988D01*
X11740371Y-5617002D01*
X11739630Y-5616929D01*
X11732011Y-5616929D01*
X11731271Y-5617002D01*
X11731073Y-5616988D01*
X11730813Y-5617047D01*
X11730548Y-5617074D01*
X11730365Y-5617149D01*
X11729639Y-5617314D01*
X11718211Y-5621124D01*
X11716868Y-5621723D01*
X11716665Y-5621900D01*
X11716416Y-5622003D01*
X11715279Y-5622936D01*
X11707660Y-5630555D01*
X11707188Y-5631130D01*
X11707039Y-5631260D01*
X11706896Y-5631485D01*
X11706728Y-5631691D01*
X11706652Y-5631874D01*
X11706255Y-5632504D01*
X11702446Y-5640123D01*
X11702405Y-5640230D01*
X11702373Y-5640273D01*
X11702153Y-5640889D01*
X11701920Y-5641496D01*
X11701916Y-5641550D01*
X11701878Y-5641658D01*
X11698068Y-5656896D01*
X11698031Y-5657150D01*
X11697989Y-5657252D01*
X11697934Y-5657803D01*
X11697853Y-5658351D01*
X11697870Y-5658460D01*
X11697844Y-5658715D01*
X11660078Y-5658715D01*
X11647010Y-5655448D01*
X11641216Y-5652551D01*
X11639127Y-5650463D01*
X11636654Y-5645516D01*
X11636654Y-5641438D01*
X11639127Y-5636491D01*
X11641216Y-5634403D01*
X11646163Y-5631929D01*
X11662223Y-5631929D01*
X11672497Y-5635354D01*
X11673930Y-5635680D01*
X11676849Y-5635473D01*
X11679467Y-5634164D01*
X11681384Y-5631953D01*
X11682309Y-5629177D01*
X11682102Y-5626258D01*
X11680793Y-5623641D01*
X11678583Y-5621723D01*
X11677240Y-5621124D01*
X11665811Y-5617314D01*
X11665086Y-5617149D01*
X11664903Y-5617074D01*
X11664637Y-5617047D01*
X11664378Y-5616988D01*
X11664180Y-5617002D01*
X11663440Y-5616929D01*
X11644392Y-5616929D01*
X11642929Y-5617074D01*
X11642680Y-5617177D01*
X11642411Y-5617196D01*
X11641038Y-5617721D01*
X11633419Y-5621531D01*
X11632789Y-5621927D01*
X11632606Y-5622003D01*
X11632401Y-5622172D01*
X11632175Y-5622314D01*
X11632045Y-5622464D01*
X11631470Y-5622936D01*
X11627660Y-5626745D01*
X11627188Y-5627320D01*
X11627039Y-5627450D01*
X11626897Y-5627675D01*
X11626728Y-5627882D01*
X11626652Y-5628065D01*
X11626255Y-5628694D01*
X11622446Y-5636313D01*
X11621920Y-5637687D01*
X11621901Y-5637955D01*
X11621798Y-5638204D01*
X11621654Y-5639668D01*
X11541416Y-5639668D01*
X11541416Y-5624429D01*
X11541272Y-5622966D01*
X11540152Y-5620263D01*
X11538083Y-5618193D01*
X11535379Y-5617074D01*
X11532453Y-5617074D01*
X11529749Y-5618193D01*
X11527680Y-5620263D01*
X11526560Y-5622966D01*
X11526416Y-5624429D01*
X11491189Y-5624429D01*
X11489695Y-5622936D01*
X11488559Y-5622003D01*
X11488310Y-5621900D01*
X11488106Y-5621723D01*
X11486764Y-5621124D01*
X11475335Y-5617314D01*
X11474610Y-5617149D01*
X11474427Y-5617074D01*
X11474161Y-5617047D01*
X11473902Y-5616988D01*
X11473704Y-5617002D01*
X11472964Y-5616929D01*
X11453916Y-5616929D01*
X11452453Y-5617074D01*
X11449749Y-5618193D01*
X11447680Y-5620263D01*
X11446560Y-5622966D01*
X11446416Y-5624429D01*
X11437527Y-5624429D01*
X11437527Y-5608041D01*
X12076019Y-5608041D01*
X12076019Y-5720818D01*
G37*
D11*
G36*
X12717887Y-6034169D02*
G01*
X12441775Y-6034169D01*
X12441775Y-5935420D01*
X12451775Y-5935420D01*
X12452210Y-5937332D01*
X12478877Y-6017332D01*
X12479676Y-6019122D01*
X12480144Y-6019662D01*
X12480464Y-6020301D01*
X12481411Y-6021122D01*
X12482232Y-6022069D01*
X12482871Y-6022389D01*
X12483411Y-6022857D01*
X12484601Y-6023254D01*
X12485722Y-6023814D01*
X12486435Y-6023865D01*
X12487113Y-6024091D01*
X12488363Y-6024002D01*
X12489614Y-6024091D01*
X12490292Y-6023865D01*
X12491005Y-6023814D01*
X12492126Y-6023253D01*
X12493316Y-6022857D01*
X12493855Y-6022389D01*
X12494495Y-6022069D01*
X12495316Y-6021122D01*
X12496263Y-6020301D01*
X12496583Y-6019662D01*
X12497051Y-6019122D01*
X12497850Y-6017332D01*
X12518369Y-5955776D01*
X12527966Y-5955776D01*
X12528242Y-5959668D01*
X12529987Y-5963158D01*
X12532935Y-5965714D01*
X12536636Y-5966948D01*
X12540528Y-5966671D01*
X12542359Y-5965971D01*
X12549978Y-5962161D01*
X12550744Y-5961679D01*
X12550744Y-6004169D01*
X12537887Y-6004169D01*
X12535936Y-6004362D01*
X12532331Y-6005855D01*
X12529572Y-6008614D01*
X12528079Y-6012219D01*
X12528079Y-6016120D01*
X12529572Y-6019725D01*
X12532331Y-6022484D01*
X12535936Y-6023977D01*
X12537887Y-6024169D01*
X12583601Y-6024169D01*
X12585552Y-6023977D01*
X12589157Y-6022484D01*
X12591916Y-6019725D01*
X12593409Y-6016120D01*
X12593409Y-6012219D01*
X12591916Y-6008614D01*
X12591711Y-6008409D01*
X12604270Y-6008409D01*
X12604270Y-6012311D01*
X12604813Y-6013621D01*
X12605763Y-6015916D01*
X12607007Y-6017431D01*
X12610816Y-6021241D01*
X12612332Y-6022484D01*
X12614443Y-6023359D01*
X12615936Y-6023977D01*
X12615936Y-6023977D01*
X12619838Y-6023977D01*
X12623443Y-6022484D01*
X12623443Y-6022484D01*
X12624958Y-6021241D01*
X12628768Y-6017431D01*
X12630011Y-6015916D01*
X12631505Y-6012311D01*
X12631505Y-6012219D01*
X12638555Y-6012219D01*
X12638555Y-6016120D01*
X12640049Y-6019725D01*
X12642808Y-6022484D01*
X12646412Y-6023977D01*
X12648363Y-6024169D01*
X12697887Y-6024169D01*
X12699838Y-6023977D01*
X12703443Y-6022484D01*
X12706202Y-6019725D01*
X12707695Y-6016120D01*
X12707695Y-6012219D01*
X12706202Y-6008614D01*
X12703443Y-6005855D01*
X12699838Y-6004362D01*
X12697887Y-6004169D01*
X12672506Y-6004169D01*
X12701149Y-5975526D01*
X12702392Y-5974011D01*
X12702530Y-5973679D01*
X12702765Y-5973407D01*
X12703564Y-5971617D01*
X12707374Y-5960189D01*
X12707594Y-5959222D01*
X12707695Y-5958977D01*
X12707730Y-5958623D01*
X12707809Y-5958277D01*
X12707790Y-5958014D01*
X12707887Y-5957027D01*
X12707887Y-5949408D01*
X12707695Y-5947457D01*
X12707557Y-5947125D01*
X12707532Y-5946766D01*
X12706831Y-5944935D01*
X12703022Y-5937316D01*
X12702493Y-5936477D01*
X12702392Y-5936233D01*
X12702167Y-5935958D01*
X12701978Y-5935657D01*
X12701778Y-5935484D01*
X12701149Y-5934717D01*
X12697339Y-5930908D01*
X12696572Y-5930278D01*
X12696399Y-5930079D01*
X12696098Y-5929890D01*
X12695824Y-5929664D01*
X12695580Y-5929563D01*
X12694740Y-5929035D01*
X12687121Y-5925225D01*
X12685290Y-5924525D01*
X12684932Y-5924499D01*
X12684600Y-5924362D01*
X12682649Y-5924169D01*
X12663601Y-5924169D01*
X12661651Y-5924362D01*
X12661318Y-5924499D01*
X12660960Y-5924525D01*
X12659129Y-5925225D01*
X12651510Y-5929035D01*
X12650671Y-5929563D01*
X12650427Y-5929664D01*
X12650152Y-5929889D01*
X12649851Y-5930079D01*
X12649678Y-5930279D01*
X12648911Y-5930908D01*
X12645102Y-5934717D01*
X12643858Y-5936233D01*
X12642365Y-5939837D01*
X12642365Y-5943739D01*
X12643858Y-5947344D01*
X12646617Y-5950103D01*
X12650222Y-5951596D01*
X12654124Y-5951596D01*
X12657728Y-5950103D01*
X12659244Y-5948860D01*
X12661906Y-5946197D01*
X12665962Y-5944169D01*
X12680288Y-5944169D01*
X12684344Y-5946197D01*
X12685859Y-5947712D01*
X12687887Y-5951768D01*
X12687887Y-5955404D01*
X12685337Y-5963053D01*
X12641292Y-6007098D01*
X12640049Y-6008614D01*
X12640049Y-6008614D01*
X12638555Y-6012219D01*
X12631505Y-6012219D01*
X12631505Y-6011007D01*
X12631505Y-6008409D01*
X12630012Y-6004804D01*
X12628768Y-6003289D01*
X12624958Y-5999479D01*
X12623443Y-5998236D01*
X12621950Y-5997617D01*
X12619838Y-5996742D01*
X12615936Y-5996742D01*
X12614443Y-5997361D01*
X12612332Y-5998236D01*
X12612332Y-5998236D01*
X12610816Y-5999479D01*
X12607007Y-6003289D01*
X12605763Y-6004804D01*
X12605763Y-6004804D01*
X12605040Y-6006550D01*
X12604270Y-6008409D01*
X12591711Y-6008409D01*
X12589157Y-6005855D01*
X12585552Y-6004362D01*
X12583601Y-6004169D01*
X12570744Y-6004169D01*
X12570744Y-5934169D01*
X12570744Y-5934162D01*
X12570744Y-5934159D01*
X12570742Y-5934149D01*
X12570552Y-5932219D01*
X12570173Y-5931304D01*
X12569979Y-5930333D01*
X12569434Y-5929519D01*
X12569059Y-5928614D01*
X12568359Y-5927914D01*
X12567808Y-5927091D01*
X12566993Y-5926547D01*
X12566300Y-5925855D01*
X12565386Y-5925476D01*
X12564562Y-5924927D01*
X12563600Y-5924736D01*
X12562695Y-5924362D01*
X12561705Y-5924362D01*
X12560734Y-5924169D01*
X12559773Y-5924362D01*
X12558793Y-5924362D01*
X12557878Y-5924740D01*
X12556908Y-5924935D01*
X12556094Y-5925480D01*
X12555189Y-5925855D01*
X12554489Y-5926555D01*
X12553666Y-5927106D01*
X12552437Y-5928606D01*
X12552430Y-5928614D01*
X12552428Y-5928617D01*
X12552424Y-5928622D01*
X12545354Y-5939227D01*
X12539583Y-5944998D01*
X12533415Y-5948082D01*
X12531756Y-5949127D01*
X12529200Y-5952074D01*
X12527966Y-5955776D01*
X12518369Y-5955776D01*
X12524517Y-5937332D01*
X12524952Y-5935420D01*
X12524675Y-5931528D01*
X12522930Y-5928038D01*
X12519982Y-5925482D01*
X12516281Y-5924248D01*
X12512389Y-5924525D01*
X12508899Y-5926269D01*
X12506342Y-5929217D01*
X12505543Y-5931007D01*
X12488363Y-5982547D01*
X12471184Y-5931007D01*
X12470384Y-5929217D01*
X12467828Y-5926270D01*
X12464338Y-5924525D01*
X12460446Y-5924248D01*
X12456744Y-5925482D01*
X12453797Y-5928038D01*
X12452052Y-5931528D01*
X12451775Y-5935420D01*
X12441775Y-5935420D01*
X12441775Y-5914169D01*
X12717887Y-5914169D01*
X12717887Y-6034169D01*
G37*
G36*
X12110494Y-10785224D02*
G01*
X12117201Y-10791931D01*
X12120746Y-10799022D01*
X12124944Y-10815810D01*
X12124944Y-10827634D01*
X12120746Y-10844422D01*
X12117201Y-10851512D01*
X12110494Y-10858220D01*
X12099988Y-10861722D01*
X12087801Y-10861722D01*
X12087801Y-10781722D01*
X12099988Y-10781722D01*
X12110494Y-10785224D01*
G37*
G36*
X12156055Y-10892833D02*
G01*
X10409149Y-10892833D01*
X10409149Y-10772973D01*
X10420260Y-10772973D01*
X10420695Y-10774884D01*
X10454028Y-10874884D01*
X10454827Y-10876674D01*
X10455296Y-10877214D01*
X10455615Y-10877853D01*
X10456562Y-10878675D01*
X10457384Y-10879622D01*
X10458023Y-10879941D01*
X10458563Y-10880410D01*
X10459753Y-10880806D01*
X10460874Y-10881367D01*
X10461586Y-10881417D01*
X10462264Y-10881643D01*
X10463515Y-10881554D01*
X10464766Y-10881643D01*
X10465443Y-10881417D01*
X10466156Y-10881367D01*
X10467278Y-10880806D01*
X10468467Y-10880410D01*
X10469007Y-10879941D01*
X10469646Y-10879622D01*
X10470468Y-10878674D01*
X10471415Y-10877853D01*
X10471734Y-10877214D01*
X10472203Y-10876674D01*
X10473002Y-10874884D01*
X10493103Y-10814579D01*
X10515420Y-10814579D01*
X10515420Y-10828865D01*
X10515453Y-10829205D01*
X10515432Y-10829351D01*
X10515539Y-10830081D01*
X10515612Y-10830816D01*
X10515668Y-10830952D01*
X10515718Y-10831290D01*
X10520480Y-10850338D01*
X10520532Y-10850481D01*
X10520537Y-10850554D01*
X10520848Y-10851366D01*
X10521140Y-10852184D01*
X10521183Y-10852242D01*
X10521237Y-10852384D01*
X10525999Y-10861908D01*
X10526527Y-10862747D01*
X10526629Y-10862992D01*
X10526854Y-10863267D01*
X10527044Y-10863567D01*
X10527243Y-10863740D01*
X10527872Y-10864507D01*
X10537396Y-10874031D01*
X10538912Y-10875275D01*
X10539243Y-10875412D01*
X10539515Y-10875648D01*
X10541305Y-10876447D01*
X10555591Y-10881209D01*
X10556558Y-10881429D01*
X10556802Y-10881530D01*
X10557156Y-10881565D01*
X10557502Y-10881643D01*
X10557766Y-10881625D01*
X10558753Y-10881722D01*
X10568277Y-10881722D01*
X10569264Y-10881625D01*
X10569528Y-10881643D01*
X10569874Y-10881565D01*
X10570228Y-10881530D01*
X10570472Y-10881429D01*
X10571439Y-10881209D01*
X10585725Y-10876447D01*
X10587515Y-10875648D01*
X10587786Y-10875412D01*
X10588118Y-10875275D01*
X10589634Y-10874031D01*
X10594396Y-10869269D01*
X10595639Y-10867754D01*
X10597132Y-10864149D01*
X10597132Y-10860247D01*
X10595639Y-10856642D01*
X10592880Y-10853883D01*
X10589275Y-10852390D01*
X10585373Y-10852390D01*
X10581769Y-10853883D01*
X10580253Y-10855127D01*
X10577161Y-10858220D01*
X10566654Y-10861722D01*
X10560376Y-10861722D01*
X10549869Y-10858220D01*
X10543162Y-10851513D01*
X10539617Y-10844422D01*
X10535420Y-10827634D01*
X10535420Y-10815810D01*
X10535727Y-10814579D01*
X10615420Y-10814579D01*
X10615420Y-10828865D01*
X10615453Y-10829205D01*
X10615432Y-10829351D01*
X10615539Y-10830081D01*
X10615612Y-10830816D01*
X10615668Y-10830952D01*
X10615718Y-10831290D01*
X10620480Y-10850338D01*
X10620532Y-10850481D01*
X10620537Y-10850554D01*
X10620848Y-10851366D01*
X10621140Y-10852184D01*
X10621183Y-10852242D01*
X10621237Y-10852384D01*
X10625999Y-10861908D01*
X10626527Y-10862747D01*
X10626629Y-10862992D01*
X10626854Y-10863267D01*
X10627044Y-10863567D01*
X10627243Y-10863740D01*
X10627872Y-10864507D01*
X10637396Y-10874031D01*
X10638912Y-10875275D01*
X10639243Y-10875412D01*
X10639515Y-10875648D01*
X10641305Y-10876447D01*
X10655591Y-10881209D01*
X10656558Y-10881429D01*
X10656802Y-10881530D01*
X10657156Y-10881565D01*
X10657502Y-10881643D01*
X10657766Y-10881625D01*
X10658753Y-10881722D01*
X10668277Y-10881722D01*
X10669264Y-10881625D01*
X10669528Y-10881643D01*
X10669874Y-10881565D01*
X10670228Y-10881530D01*
X10670472Y-10881429D01*
X10671439Y-10881209D01*
X10685725Y-10876447D01*
X10687515Y-10875648D01*
X10687786Y-10875412D01*
X10688118Y-10875275D01*
X10689634Y-10874031D01*
X10694396Y-10869269D01*
X10695639Y-10867754D01*
X10697132Y-10864149D01*
X10697132Y-10860247D01*
X10695639Y-10856642D01*
X10692880Y-10853883D01*
X10689275Y-10852390D01*
X10685373Y-10852390D01*
X10681769Y-10853883D01*
X10680253Y-10855127D01*
X10677161Y-10858220D01*
X10666654Y-10861722D01*
X10660376Y-10861722D01*
X10649869Y-10858220D01*
X10643162Y-10851513D01*
X10639617Y-10844422D01*
X10635420Y-10827634D01*
X10635420Y-10815810D01*
X10639617Y-10799022D01*
X10643162Y-10791931D01*
X10649869Y-10785224D01*
X10660376Y-10781722D01*
X10666654Y-10781722D01*
X10677161Y-10785224D01*
X10680253Y-10788317D01*
X10681769Y-10789560D01*
X10685374Y-10791054D01*
X10689275Y-10791054D01*
X10689961Y-10790770D01*
X10791610Y-10790770D01*
X10791610Y-10800293D01*
X10791802Y-10802244D01*
X10791940Y-10802576D01*
X10791965Y-10802935D01*
X10792666Y-10804765D01*
X10797428Y-10814289D01*
X10797956Y-10815129D01*
X10798057Y-10815373D01*
X10798283Y-10815647D01*
X10798472Y-10815948D01*
X10798672Y-10816121D01*
X10799301Y-10816888D01*
X10804063Y-10821650D01*
X10804830Y-10822279D01*
X10805003Y-10822479D01*
X10805304Y-10822668D01*
X10805578Y-10822894D01*
X10805822Y-10822995D01*
X10806662Y-10823523D01*
X10816186Y-10828285D01*
X10816328Y-10828340D01*
X10816386Y-10828383D01*
X10817204Y-10828675D01*
X10818017Y-10828986D01*
X10818089Y-10828991D01*
X10818232Y-10829042D01*
X10836215Y-10833538D01*
X10843306Y-10837083D01*
X10845773Y-10839550D01*
X10848753Y-10845511D01*
X10848753Y-10850314D01*
X10845773Y-10856274D01*
X10843306Y-10858741D01*
X10837345Y-10861722D01*
X10817519Y-10861722D01*
X10804773Y-10857473D01*
X10802861Y-10857039D01*
X10798969Y-10857315D01*
X10795479Y-10859060D01*
X10792923Y-10862008D01*
X10791689Y-10865709D01*
X10791965Y-10869601D01*
X10793710Y-10873091D01*
X10796658Y-10875648D01*
X10798448Y-10876447D01*
X10812734Y-10881209D01*
X10813701Y-10881429D01*
X10813945Y-10881530D01*
X10814299Y-10881565D01*
X10814645Y-10881643D01*
X10814909Y-10881625D01*
X10815896Y-10881722D01*
X10839705Y-10881722D01*
X10841656Y-10881530D01*
X10841988Y-10881392D01*
X10842347Y-10881367D01*
X10844178Y-10880666D01*
X10853701Y-10875904D01*
X10854541Y-10875376D01*
X10854785Y-10875275D01*
X10855060Y-10875049D01*
X10855360Y-10874860D01*
X10855533Y-10874661D01*
X10856300Y-10874031D01*
X10861062Y-10869269D01*
X10861691Y-10868502D01*
X10861891Y-10868329D01*
X10862080Y-10868028D01*
X10862306Y-10867754D01*
X10862407Y-10867510D01*
X10862935Y-10866670D01*
X10867697Y-10857146D01*
X10868398Y-10855316D01*
X10868423Y-10854957D01*
X10868561Y-10854625D01*
X10868753Y-10852674D01*
X10868753Y-10843150D01*
X10868561Y-10841200D01*
X10868423Y-10840867D01*
X10868398Y-10840509D01*
X10867697Y-10838678D01*
X10862935Y-10829155D01*
X10862407Y-10828315D01*
X10862306Y-10828071D01*
X10862080Y-10827796D01*
X10861891Y-10827495D01*
X10861691Y-10827322D01*
X10861062Y-10826556D01*
X10856300Y-10821794D01*
X10855533Y-10821164D01*
X10855360Y-10820965D01*
X10855060Y-10820775D01*
X10854785Y-10820550D01*
X10854541Y-10820449D01*
X10853701Y-10819920D01*
X10844178Y-10815159D01*
X10844035Y-10815104D01*
X10843977Y-10815061D01*
X10843159Y-10814769D01*
X10842347Y-10814458D01*
X10842274Y-10814453D01*
X10842131Y-10814401D01*
X10824148Y-10809906D01*
X10817058Y-10806360D01*
X10814591Y-10803894D01*
X10812165Y-10799043D01*
X10886927Y-10799043D01*
X10887203Y-10802935D01*
X10888948Y-10806425D01*
X10891896Y-10808981D01*
X10895598Y-10810215D01*
X10899490Y-10809938D01*
X10901320Y-10809238D01*
X10910844Y-10804476D01*
X10911684Y-10803947D01*
X10911928Y-10803846D01*
X10912202Y-10803621D01*
X10912503Y-10803431D01*
X10912676Y-10803232D01*
X10913443Y-10802603D01*
X10915420Y-10800626D01*
X10915420Y-10861722D01*
X10896848Y-10861722D01*
X10894897Y-10861914D01*
X10891293Y-10863407D01*
X10888534Y-10866166D01*
X10887040Y-10869771D01*
X10887040Y-10873673D01*
X10888534Y-10877278D01*
X10891293Y-10880037D01*
X10894897Y-10881530D01*
X10896848Y-10881722D01*
X10953991Y-10881722D01*
X10955942Y-10881530D01*
X10959547Y-10880037D01*
X10962306Y-10877278D01*
X10963799Y-10873673D01*
X10963799Y-10869771D01*
X10962306Y-10866166D01*
X10959547Y-10863407D01*
X10955942Y-10861914D01*
X10953991Y-10861722D01*
X10935420Y-10861722D01*
X10935420Y-10790770D01*
X11058277Y-10790770D01*
X11058277Y-10800293D01*
X11058469Y-10802244D01*
X11058607Y-10802576D01*
X11058632Y-10802935D01*
X11059333Y-10804765D01*
X11064095Y-10814289D01*
X11064623Y-10815129D01*
X11064724Y-10815373D01*
X11064949Y-10815647D01*
X11065139Y-10815948D01*
X11065338Y-10816121D01*
X11065968Y-10816888D01*
X11070730Y-10821650D01*
X11071496Y-10822279D01*
X11071670Y-10822479D01*
X11071970Y-10822668D01*
X11072245Y-10822894D01*
X11072489Y-10822995D01*
X11073329Y-10823523D01*
X11082852Y-10828285D01*
X11082995Y-10828340D01*
X11083053Y-10828383D01*
X11083871Y-10828675D01*
X11084683Y-10828986D01*
X11084755Y-10828991D01*
X11084899Y-10829042D01*
X11102882Y-10833538D01*
X11109972Y-10837083D01*
X11112439Y-10839550D01*
X11115420Y-10845511D01*
X11115420Y-10850314D01*
X11112439Y-10856274D01*
X11109972Y-10858741D01*
X11104011Y-10861722D01*
X11084185Y-10861722D01*
X11071439Y-10857473D01*
X11069528Y-10857039D01*
X11065636Y-10857315D01*
X11062146Y-10859060D01*
X11059589Y-10862008D01*
X11058355Y-10865709D01*
X11058632Y-10869601D01*
X11060377Y-10873091D01*
X11063325Y-10875648D01*
X11065115Y-10876447D01*
X11079400Y-10881209D01*
X11080368Y-10881429D01*
X11080612Y-10881530D01*
X11080965Y-10881565D01*
X11081312Y-10881643D01*
X11081575Y-10881625D01*
X11082563Y-10881722D01*
X11106372Y-10881722D01*
X11108323Y-10881530D01*
X11108655Y-10881392D01*
X11109013Y-10881367D01*
X11110844Y-10880666D01*
X11120368Y-10875904D01*
X11121208Y-10875376D01*
X11121452Y-10875275D01*
X11121726Y-10875049D01*
X11122027Y-10874860D01*
X11122200Y-10874661D01*
X11122967Y-10874031D01*
X11127227Y-10869771D01*
X11148945Y-10869771D01*
X11148945Y-10873673D01*
X11150438Y-10877278D01*
X11153197Y-10880037D01*
X11156802Y-10881530D01*
X11158753Y-10881722D01*
X11220658Y-10881722D01*
X11222609Y-10881530D01*
X11226213Y-10880037D01*
X11228972Y-10877278D01*
X11230466Y-10873673D01*
X11230466Y-10869771D01*
X11228972Y-10866166D01*
X11226213Y-10863407D01*
X11222609Y-10861914D01*
X11220658Y-10861722D01*
X11182895Y-10861722D01*
X11222967Y-10821650D01*
X11224211Y-10820135D01*
X11224348Y-10819803D01*
X11224584Y-10819531D01*
X11225383Y-10817741D01*
X11230145Y-10803456D01*
X11230364Y-10802488D01*
X11230466Y-10802244D01*
X11230500Y-10801890D01*
X11230579Y-10801544D01*
X11230560Y-10801281D01*
X11230658Y-10800293D01*
X11230658Y-10790770D01*
X11324944Y-10790770D01*
X11324944Y-10800293D01*
X11325136Y-10802244D01*
X11325273Y-10802576D01*
X11325299Y-10802935D01*
X11325999Y-10804765D01*
X11330761Y-10814289D01*
X11331290Y-10815129D01*
X11331391Y-10815373D01*
X11331616Y-10815647D01*
X11331805Y-10815948D01*
X11332005Y-10816121D01*
X11332634Y-10816888D01*
X11337396Y-10821650D01*
X11338163Y-10822279D01*
X11338336Y-10822479D01*
X11338637Y-10822668D01*
X11338912Y-10822894D01*
X11339156Y-10822995D01*
X11339995Y-10823523D01*
X11349519Y-10828285D01*
X11349662Y-10828340D01*
X11349720Y-10828383D01*
X11350537Y-10828675D01*
X11351350Y-10828986D01*
X11351422Y-10828991D01*
X11351566Y-10829042D01*
X11369548Y-10833538D01*
X11376639Y-10837083D01*
X11379106Y-10839550D01*
X11382086Y-10845511D01*
X11382086Y-10850314D01*
X11379106Y-10856274D01*
X11376639Y-10858741D01*
X11370678Y-10861722D01*
X11350852Y-10861722D01*
X11338106Y-10857473D01*
X11336194Y-10857039D01*
X11332302Y-10857315D01*
X11328812Y-10859060D01*
X11326256Y-10862008D01*
X11325022Y-10865709D01*
X11325299Y-10869601D01*
X11327044Y-10873091D01*
X11329991Y-10875648D01*
X11331781Y-10876447D01*
X11346067Y-10881209D01*
X11347034Y-10881429D01*
X11347278Y-10881530D01*
X11347632Y-10881565D01*
X11347978Y-10881643D01*
X11348242Y-10881625D01*
X11349229Y-10881722D01*
X11373039Y-10881722D01*
X11374990Y-10881530D01*
X11375322Y-10881392D01*
X11375680Y-10881367D01*
X11377511Y-10880666D01*
X11387035Y-10875904D01*
X11387874Y-10875376D01*
X11388118Y-10875275D01*
X11388393Y-10875049D01*
X11388694Y-10874860D01*
X11388867Y-10874661D01*
X11389634Y-10874031D01*
X11394396Y-10869269D01*
X11395025Y-10868502D01*
X11395224Y-10868329D01*
X11395414Y-10868028D01*
X11395639Y-10867754D01*
X11395740Y-10867510D01*
X11396269Y-10866670D01*
X11401031Y-10857146D01*
X11401731Y-10855316D01*
X11401757Y-10854957D01*
X11401894Y-10854625D01*
X11402086Y-10852674D01*
X11402086Y-10843150D01*
X11401894Y-10841200D01*
X11401757Y-10840867D01*
X11401731Y-10840509D01*
X11401031Y-10838678D01*
X11396269Y-10829155D01*
X11395740Y-10828315D01*
X11395639Y-10828071D01*
X11395414Y-10827796D01*
X11395224Y-10827495D01*
X11395025Y-10827322D01*
X11394395Y-10826556D01*
X11389634Y-10821794D01*
X11388867Y-10821164D01*
X11388694Y-10820965D01*
X11388393Y-10820775D01*
X11388118Y-10820550D01*
X11387874Y-10820449D01*
X11387035Y-10819920D01*
X11377511Y-10815159D01*
X11377368Y-10815104D01*
X11377310Y-10815061D01*
X11376492Y-10814769D01*
X11375680Y-10814458D01*
X11375608Y-10814453D01*
X11375464Y-10814401D01*
X11357482Y-10809906D01*
X11350391Y-10806360D01*
X11347924Y-10803894D01*
X11344944Y-10797933D01*
X11344944Y-10793130D01*
X11347924Y-10787169D01*
X11350391Y-10784702D01*
X11356352Y-10781722D01*
X11376178Y-10781722D01*
X11388924Y-10785971D01*
X11390836Y-10786405D01*
X11394728Y-10786129D01*
X11398217Y-10784384D01*
X11400774Y-10781436D01*
X11402008Y-10777735D01*
X11401731Y-10773843D01*
X11399986Y-10770353D01*
X11399316Y-10769771D01*
X11415612Y-10769771D01*
X11415612Y-10773673D01*
X11417105Y-10777278D01*
X11419864Y-10780037D01*
X11423469Y-10781530D01*
X11425420Y-10781722D01*
X11465287Y-10781722D01*
X11446465Y-10803232D01*
X11445862Y-10804075D01*
X11445676Y-10804261D01*
X11445603Y-10804438D01*
X11445325Y-10804827D01*
X11444805Y-10806366D01*
X11444183Y-10807866D01*
X11444183Y-10808204D01*
X11444075Y-10808523D01*
X11444183Y-10810143D01*
X11444183Y-10811768D01*
X11444312Y-10812080D01*
X11444335Y-10812416D01*
X11445055Y-10813872D01*
X11445676Y-10815373D01*
X11445915Y-10815611D01*
X11446064Y-10815914D01*
X11447287Y-10816983D01*
X11448435Y-10818132D01*
X11448747Y-10818261D01*
X11449001Y-10818483D01*
X11450540Y-10819003D01*
X11452040Y-10819625D01*
X11452516Y-10819672D01*
X11452697Y-10819733D01*
X11452959Y-10819716D01*
X11453991Y-10819817D01*
X11465916Y-10819817D01*
X11471877Y-10822798D01*
X11474344Y-10825264D01*
X11477324Y-10831225D01*
X11477324Y-10850314D01*
X11474344Y-10856274D01*
X11471877Y-10858741D01*
X11465916Y-10861722D01*
X11442066Y-10861722D01*
X11436105Y-10858741D01*
X11432491Y-10855127D01*
X11430976Y-10853883D01*
X11427371Y-10852390D01*
X11423469Y-10852390D01*
X11419864Y-10853883D01*
X11417105Y-10856642D01*
X11415612Y-10860247D01*
X11415612Y-10864149D01*
X11417105Y-10867754D01*
X11418349Y-10869269D01*
X11423110Y-10874031D01*
X11423877Y-10874660D01*
X11424050Y-10874860D01*
X11424351Y-10875049D01*
X11424626Y-10875275D01*
X11424870Y-10875376D01*
X11425710Y-10875904D01*
X11435233Y-10880666D01*
X11437064Y-10881367D01*
X11437422Y-10881392D01*
X11437755Y-10881530D01*
X11439705Y-10881722D01*
X11468277Y-10881722D01*
X11470228Y-10881530D01*
X11470560Y-10881392D01*
X11470918Y-10881367D01*
X11472749Y-10880666D01*
X11482273Y-10875904D01*
X11483112Y-10875376D01*
X11483356Y-10875275D01*
X11483631Y-10875049D01*
X11483932Y-10874860D01*
X11484105Y-10874661D01*
X11484872Y-10874031D01*
X11489634Y-10869269D01*
X11490263Y-10868502D01*
X11490463Y-10868329D01*
X11490652Y-10868028D01*
X11490877Y-10867754D01*
X11490978Y-10867510D01*
X11491507Y-10866670D01*
X11496269Y-10857146D01*
X11496969Y-10855316D01*
X11496995Y-10854957D01*
X11497132Y-10854625D01*
X11497324Y-10852674D01*
X11497324Y-10828865D01*
X11497132Y-10826914D01*
X11496995Y-10826582D01*
X11496969Y-10826223D01*
X11496269Y-10824393D01*
X11491507Y-10814869D01*
X11490978Y-10814029D01*
X11490877Y-10813785D01*
X11490652Y-10813511D01*
X11490463Y-10813210D01*
X11490263Y-10813036D01*
X11489634Y-10812270D01*
X11484872Y-10807508D01*
X11484105Y-10806878D01*
X11483932Y-10806679D01*
X11483631Y-10806490D01*
X11483356Y-10806264D01*
X11483112Y-10806163D01*
X11482273Y-10805635D01*
X11474388Y-10801692D01*
X11483945Y-10790770D01*
X11591610Y-10790770D01*
X11591610Y-10800293D01*
X11591802Y-10802244D01*
X11591940Y-10802576D01*
X11591965Y-10802935D01*
X11592666Y-10804765D01*
X11597428Y-10814289D01*
X11597956Y-10815129D01*
X11598057Y-10815373D01*
X11598283Y-10815647D01*
X11598472Y-10815948D01*
X11598672Y-10816121D01*
X11599301Y-10816888D01*
X11604063Y-10821650D01*
X11604830Y-10822279D01*
X11605003Y-10822479D01*
X11605304Y-10822668D01*
X11605578Y-10822894D01*
X11605822Y-10822995D01*
X11606662Y-10823523D01*
X11616186Y-10828285D01*
X11616328Y-10828340D01*
X11616386Y-10828383D01*
X11617204Y-10828675D01*
X11618017Y-10828986D01*
X11618089Y-10828991D01*
X11618232Y-10829042D01*
X11636215Y-10833538D01*
X11643306Y-10837083D01*
X11645773Y-10839550D01*
X11648753Y-10845511D01*
X11648753Y-10850314D01*
X11645773Y-10856274D01*
X11643306Y-10858741D01*
X11637345Y-10861722D01*
X11617519Y-10861722D01*
X11604773Y-10857473D01*
X11602861Y-10857039D01*
X11598969Y-10857315D01*
X11595479Y-10859060D01*
X11592923Y-10862008D01*
X11591689Y-10865709D01*
X11591965Y-10869601D01*
X11593710Y-10873091D01*
X11596658Y-10875648D01*
X11598448Y-10876447D01*
X11612734Y-10881209D01*
X11613701Y-10881429D01*
X11613945Y-10881530D01*
X11614299Y-10881565D01*
X11614645Y-10881643D01*
X11614909Y-10881625D01*
X11615896Y-10881722D01*
X11639705Y-10881722D01*
X11641656Y-10881530D01*
X11641988Y-10881392D01*
X11642347Y-10881367D01*
X11644178Y-10880666D01*
X11653701Y-10875904D01*
X11654541Y-10875376D01*
X11654785Y-10875275D01*
X11655060Y-10875049D01*
X11655360Y-10874860D01*
X11655533Y-10874661D01*
X11656300Y-10874031D01*
X11661062Y-10869269D01*
X11661691Y-10868502D01*
X11661891Y-10868329D01*
X11662080Y-10868028D01*
X11662306Y-10867754D01*
X11662407Y-10867510D01*
X11662935Y-10866670D01*
X11667697Y-10857146D01*
X11668398Y-10855316D01*
X11668423Y-10854957D01*
X11668561Y-10854625D01*
X11668753Y-10852674D01*
X11668753Y-10843150D01*
X11668561Y-10841200D01*
X11668423Y-10840867D01*
X11668398Y-10840509D01*
X11667697Y-10838678D01*
X11666927Y-10837138D01*
X11686927Y-10837138D01*
X11687040Y-10838736D01*
X11687040Y-10840339D01*
X11687178Y-10840671D01*
X11687203Y-10841030D01*
X11687920Y-10842463D01*
X11688534Y-10843944D01*
X11688788Y-10844198D01*
X11688948Y-10844520D01*
X11690160Y-10845570D01*
X11691293Y-10846703D01*
X11691624Y-10846841D01*
X11691896Y-10847076D01*
X11693417Y-10847583D01*
X11694897Y-10848196D01*
X11695407Y-10848247D01*
X11695598Y-10848310D01*
X11695861Y-10848291D01*
X11696848Y-10848389D01*
X11734467Y-10848389D01*
X11734467Y-10871722D01*
X11734659Y-10873673D01*
X11736153Y-10877278D01*
X11738912Y-10880037D01*
X11742516Y-10881530D01*
X11746418Y-10881530D01*
X11750023Y-10880037D01*
X11752782Y-10877278D01*
X11754275Y-10873673D01*
X11754467Y-10871722D01*
X11754467Y-10848389D01*
X11758753Y-10848389D01*
X11760704Y-10848196D01*
X11764309Y-10846703D01*
X11767068Y-10843944D01*
X11768561Y-10840339D01*
X11768561Y-10836438D01*
X11767068Y-10832833D01*
X11764309Y-10830074D01*
X11760704Y-10828581D01*
X11758753Y-10828389D01*
X11754467Y-10828389D01*
X11754467Y-10814579D01*
X11858277Y-10814579D01*
X11858277Y-10828865D01*
X11858310Y-10829205D01*
X11858289Y-10829351D01*
X11858397Y-10830081D01*
X11858469Y-10830816D01*
X11858525Y-10830952D01*
X11858576Y-10831290D01*
X11863337Y-10850338D01*
X11863389Y-10850481D01*
X11863394Y-10850554D01*
X11863705Y-10851366D01*
X11863997Y-10852184D01*
X11864040Y-10852242D01*
X11864095Y-10852384D01*
X11868856Y-10861908D01*
X11869385Y-10862747D01*
X11869486Y-10862992D01*
X11869712Y-10863267D01*
X11869901Y-10863567D01*
X11870100Y-10863740D01*
X11870730Y-10864507D01*
X11880253Y-10874031D01*
X11881769Y-10875275D01*
X11882101Y-10875412D01*
X11882372Y-10875648D01*
X11884162Y-10876447D01*
X11898448Y-10881209D01*
X11899415Y-10881429D01*
X11899659Y-10881530D01*
X11900013Y-10881565D01*
X11900359Y-10881643D01*
X11900623Y-10881625D01*
X11901610Y-10881722D01*
X11911134Y-10881722D01*
X11912121Y-10881625D01*
X11912385Y-10881643D01*
X11912731Y-10881565D01*
X11913085Y-10881530D01*
X11913329Y-10881429D01*
X11914296Y-10881209D01*
X11928582Y-10876447D01*
X11930372Y-10875648D01*
X11930644Y-10875412D01*
X11930976Y-10875275D01*
X11932491Y-10874031D01*
X11937253Y-10869269D01*
X11938496Y-10867754D01*
X11939841Y-10864507D01*
X11939990Y-10864149D01*
X11940182Y-10862198D01*
X11940182Y-10828865D01*
X11939990Y-10826914D01*
X11938496Y-10823309D01*
X11935737Y-10820550D01*
X11932133Y-10819057D01*
X11930182Y-10818865D01*
X11911134Y-10818865D01*
X11909183Y-10819057D01*
X11905578Y-10820550D01*
X11902819Y-10823309D01*
X11901326Y-10826914D01*
X11901326Y-10830816D01*
X11902819Y-10834420D01*
X11905578Y-10837179D01*
X11909183Y-10838673D01*
X11911134Y-10838865D01*
X11920182Y-10838865D01*
X11920182Y-10858056D01*
X11920018Y-10858220D01*
X11909511Y-10861722D01*
X11903233Y-10861722D01*
X11892726Y-10858220D01*
X11886019Y-10851513D01*
X11882474Y-10844422D01*
X11878277Y-10827634D01*
X11878277Y-10815810D01*
X11882474Y-10799022D01*
X11886019Y-10791931D01*
X11892726Y-10785224D01*
X11903233Y-10781722D01*
X11913535Y-10781722D01*
X11920948Y-10785428D01*
X11922778Y-10786129D01*
X11926670Y-10786405D01*
X11930372Y-10785171D01*
X11933320Y-10782615D01*
X11935065Y-10779125D01*
X11935341Y-10775233D01*
X11934171Y-10771722D01*
X11963039Y-10771722D01*
X11963039Y-10871722D01*
X11963231Y-10873673D01*
X11964724Y-10877278D01*
X11967483Y-10880037D01*
X11971088Y-10881530D01*
X11974990Y-10881530D01*
X11978595Y-10880037D01*
X11981354Y-10877278D01*
X11982847Y-10873673D01*
X11983039Y-10871722D01*
X11983039Y-10809378D01*
X12021499Y-10876683D01*
X12021791Y-10877094D01*
X12021867Y-10877278D01*
X12022054Y-10877464D01*
X12022634Y-10878282D01*
X12023686Y-10879096D01*
X12024626Y-10880037D01*
X12025215Y-10880280D01*
X12025719Y-10880671D01*
X12027002Y-10881021D01*
X12028231Y-10881530D01*
X12028868Y-10881530D01*
X12029483Y-10881698D01*
X12030803Y-10881530D01*
X12032133Y-10881530D01*
X12032721Y-10881286D01*
X12033354Y-10881206D01*
X12034509Y-10880545D01*
X12035737Y-10880037D01*
X12036188Y-10879586D01*
X12036742Y-10879270D01*
X12037556Y-10878218D01*
X12038496Y-10877278D01*
X12038740Y-10876689D01*
X12039131Y-10876185D01*
X12039481Y-10874901D01*
X12039990Y-10873673D01*
X12040088Y-10872675D01*
X12040157Y-10872420D01*
X12040132Y-10872224D01*
X12040182Y-10871722D01*
X12040182Y-10771722D01*
X12067801Y-10771722D01*
X12067801Y-10871722D01*
X12067993Y-10873673D01*
X12069486Y-10877278D01*
X12072245Y-10880037D01*
X12075850Y-10881530D01*
X12077801Y-10881722D01*
X12101610Y-10881722D01*
X12102598Y-10881625D01*
X12102861Y-10881643D01*
X12103207Y-10881565D01*
X12103561Y-10881530D01*
X12103805Y-10881429D01*
X12104773Y-10881209D01*
X12119058Y-10876447D01*
X12120848Y-10875648D01*
X12121120Y-10875412D01*
X12121452Y-10875275D01*
X12122967Y-10874031D01*
X12132491Y-10864507D01*
X12133120Y-10863740D01*
X12133320Y-10863567D01*
X12133509Y-10863267D01*
X12133735Y-10862992D01*
X12133836Y-10862748D01*
X12134364Y-10861908D01*
X12139126Y-10852385D01*
X12139181Y-10852242D01*
X12139224Y-10852184D01*
X12139516Y-10851366D01*
X12139827Y-10850554D01*
X12139832Y-10850482D01*
X12139883Y-10850338D01*
X12144645Y-10831290D01*
X12144695Y-10830952D01*
X12144751Y-10830816D01*
X12144824Y-10830081D01*
X12144932Y-10829351D01*
X12144910Y-10829205D01*
X12144944Y-10828865D01*
X12144944Y-10814579D01*
X12144910Y-10814239D01*
X12144932Y-10814093D01*
X12144824Y-10813363D01*
X12144751Y-10812628D01*
X12144695Y-10812492D01*
X12144645Y-10812154D01*
X12139883Y-10793106D01*
X12139832Y-10792962D01*
X12139827Y-10792890D01*
X12139516Y-10792078D01*
X12139224Y-10791260D01*
X12139181Y-10791202D01*
X12139126Y-10791059D01*
X12134364Y-10781536D01*
X12133835Y-10780696D01*
X12133734Y-10780452D01*
X12133509Y-10780178D01*
X12133320Y-10779876D01*
X12133120Y-10779703D01*
X12132491Y-10778937D01*
X12122967Y-10769413D01*
X12121452Y-10768169D01*
X12121120Y-10768032D01*
X12120848Y-10767796D01*
X12119058Y-10766997D01*
X12104773Y-10762235D01*
X12103805Y-10762015D01*
X12103561Y-10761914D01*
X12103207Y-10761879D01*
X12102861Y-10761800D01*
X12102598Y-10761819D01*
X12101610Y-10761722D01*
X12077801Y-10761722D01*
X12075850Y-10761914D01*
X12072245Y-10763407D01*
X12069486Y-10766166D01*
X12067993Y-10769771D01*
X12067801Y-10771722D01*
X12040182Y-10771722D01*
X12039990Y-10769771D01*
X12038496Y-10766166D01*
X12035737Y-10763407D01*
X12032133Y-10761914D01*
X12028231Y-10761914D01*
X12024626Y-10763407D01*
X12021867Y-10766166D01*
X12020374Y-10769771D01*
X12020182Y-10771722D01*
X12020182Y-10834066D01*
X11981721Y-10766761D01*
X11981429Y-10766349D01*
X11981354Y-10766166D01*
X11981167Y-10765980D01*
X11980587Y-10765162D01*
X11979535Y-10764348D01*
X11978595Y-10763407D01*
X11978005Y-10763163D01*
X11977502Y-10762773D01*
X11976219Y-10762423D01*
X11974990Y-10761914D01*
X11974352Y-10761914D01*
X11973737Y-10761746D01*
X11972418Y-10761914D01*
X11971088Y-10761914D01*
X11970499Y-10762158D01*
X11969867Y-10762238D01*
X11968712Y-10762898D01*
X11967483Y-10763407D01*
X11967032Y-10763858D01*
X11966479Y-10764174D01*
X11965665Y-10765226D01*
X11964724Y-10766166D01*
X11964480Y-10766755D01*
X11964090Y-10767259D01*
X11963740Y-10768542D01*
X11963231Y-10769771D01*
X11963133Y-10770769D01*
X11963063Y-10771023D01*
X11963088Y-10771220D01*
X11963039Y-10771722D01*
X11934171Y-10771722D01*
X11934107Y-10771532D01*
X11931551Y-10768584D01*
X11929892Y-10767540D01*
X11920368Y-10762778D01*
X11918537Y-10762077D01*
X11918179Y-10762052D01*
X11917847Y-10761914D01*
X11915896Y-10761722D01*
X11901610Y-10761722D01*
X11900623Y-10761819D01*
X11900359Y-10761800D01*
X11900013Y-10761879D01*
X11899659Y-10761914D01*
X11899415Y-10762015D01*
X11898448Y-10762235D01*
X11884162Y-10766997D01*
X11882372Y-10767796D01*
X11882101Y-10768032D01*
X11881769Y-10768169D01*
X11880253Y-10769413D01*
X11870730Y-10778937D01*
X11870100Y-10779704D01*
X11869901Y-10779877D01*
X11869711Y-10780177D01*
X11869486Y-10780452D01*
X11869385Y-10780696D01*
X11868856Y-10781536D01*
X11864095Y-10791059D01*
X11864040Y-10791202D01*
X11863997Y-10791260D01*
X11863705Y-10792078D01*
X11863394Y-10792890D01*
X11863389Y-10792962D01*
X11863337Y-10793106D01*
X11858576Y-10812154D01*
X11858525Y-10812492D01*
X11858469Y-10812628D01*
X11858397Y-10813363D01*
X11858289Y-10814093D01*
X11858310Y-10814239D01*
X11858277Y-10814579D01*
X11754467Y-10814579D01*
X11754467Y-10805055D01*
X11754275Y-10803104D01*
X11752782Y-10799500D01*
X11750023Y-10796741D01*
X11746418Y-10795247D01*
X11742516Y-10795247D01*
X11738912Y-10796741D01*
X11736153Y-10799500D01*
X11734659Y-10803104D01*
X11734467Y-10805055D01*
X11734467Y-10828389D01*
X11710723Y-10828389D01*
X11730145Y-10770122D01*
X11730579Y-10768211D01*
X11730303Y-10764319D01*
X11728558Y-10760829D01*
X11725610Y-10758272D01*
X11721909Y-10757039D01*
X11718017Y-10757315D01*
X11714527Y-10759060D01*
X11711970Y-10762008D01*
X11711171Y-10763798D01*
X11687362Y-10835226D01*
X11687142Y-10836193D01*
X11687040Y-10836438D01*
X11687040Y-10836638D01*
X11686927Y-10837138D01*
X11666927Y-10837138D01*
X11662935Y-10829155D01*
X11662407Y-10828315D01*
X11662306Y-10828071D01*
X11662080Y-10827796D01*
X11661891Y-10827495D01*
X11661691Y-10827322D01*
X11661062Y-10826556D01*
X11656300Y-10821794D01*
X11655533Y-10821164D01*
X11655360Y-10820965D01*
X11655060Y-10820775D01*
X11654785Y-10820550D01*
X11654541Y-10820449D01*
X11653701Y-10819920D01*
X11644178Y-10815159D01*
X11644035Y-10815104D01*
X11643977Y-10815061D01*
X11643159Y-10814769D01*
X11642347Y-10814458D01*
X11642274Y-10814453D01*
X11642131Y-10814401D01*
X11624148Y-10809906D01*
X11617058Y-10806360D01*
X11614591Y-10803894D01*
X11611610Y-10797933D01*
X11611610Y-10793130D01*
X11614591Y-10787169D01*
X11617058Y-10784702D01*
X11623019Y-10781722D01*
X11642845Y-10781722D01*
X11655591Y-10785971D01*
X11657502Y-10786405D01*
X11661394Y-10786129D01*
X11664884Y-10784384D01*
X11667441Y-10781436D01*
X11668675Y-10777735D01*
X11668398Y-10773843D01*
X11666653Y-10770353D01*
X11663705Y-10767796D01*
X11661915Y-10766997D01*
X11647630Y-10762235D01*
X11646662Y-10762015D01*
X11646418Y-10761914D01*
X11646064Y-10761879D01*
X11645718Y-10761800D01*
X11645455Y-10761819D01*
X11644467Y-10761722D01*
X11620658Y-10761722D01*
X11618707Y-10761914D01*
X11618375Y-10762052D01*
X11618017Y-10762077D01*
X11616186Y-10762778D01*
X11606662Y-10767540D01*
X11605822Y-10768068D01*
X11605578Y-10768169D01*
X11605304Y-10768394D01*
X11605003Y-10768584D01*
X11604830Y-10768784D01*
X11604063Y-10769413D01*
X11599301Y-10774175D01*
X11598672Y-10774942D01*
X11598472Y-10775115D01*
X11598283Y-10775415D01*
X11598057Y-10775690D01*
X11597956Y-10775934D01*
X11597428Y-10776774D01*
X11592666Y-10786297D01*
X11591965Y-10788128D01*
X11591940Y-10788487D01*
X11591802Y-10788819D01*
X11591610Y-10790770D01*
X11483945Y-10790770D01*
X11494850Y-10778307D01*
X11495453Y-10777464D01*
X11495639Y-10777278D01*
X11495712Y-10777101D01*
X11495990Y-10776712D01*
X11496511Y-10775173D01*
X11497132Y-10773673D01*
X11497132Y-10773335D01*
X11497240Y-10773016D01*
X11497132Y-10771396D01*
X11497132Y-10769771D01*
X11497003Y-10769459D01*
X11496981Y-10769123D01*
X11496261Y-10767666D01*
X11495639Y-10766166D01*
X11495401Y-10765928D01*
X11495251Y-10765625D01*
X11494028Y-10764555D01*
X11492880Y-10763407D01*
X11492569Y-10763278D01*
X11492315Y-10763056D01*
X11490776Y-10762535D01*
X11489275Y-10761914D01*
X11488799Y-10761867D01*
X11488619Y-10761806D01*
X11488356Y-10761823D01*
X11487324Y-10761722D01*
X11425420Y-10761722D01*
X11423469Y-10761914D01*
X11419864Y-10763407D01*
X11417105Y-10766166D01*
X11415612Y-10769771D01*
X11399316Y-10769771D01*
X11397039Y-10767796D01*
X11395249Y-10766997D01*
X11380963Y-10762235D01*
X11379996Y-10762015D01*
X11379752Y-10761914D01*
X11379398Y-10761879D01*
X11379051Y-10761800D01*
X11378788Y-10761819D01*
X11377801Y-10761722D01*
X11353991Y-10761722D01*
X11352040Y-10761914D01*
X11351708Y-10762052D01*
X11351350Y-10762077D01*
X11349519Y-10762778D01*
X11339995Y-10767540D01*
X11339156Y-10768068D01*
X11338912Y-10768169D01*
X11338637Y-10768394D01*
X11338336Y-10768584D01*
X11338163Y-10768784D01*
X11337396Y-10769413D01*
X11332634Y-10774175D01*
X11332005Y-10774942D01*
X11331805Y-10775115D01*
X11331616Y-10775415D01*
X11331391Y-10775690D01*
X11331290Y-10775934D01*
X11330761Y-10776774D01*
X11325999Y-10786297D01*
X11325299Y-10788128D01*
X11325273Y-10788487D01*
X11325136Y-10788819D01*
X11324944Y-10790770D01*
X11230658Y-10790770D01*
X11230466Y-10788819D01*
X11230328Y-10788487D01*
X11230303Y-10788128D01*
X11229602Y-10786297D01*
X11224840Y-10776774D01*
X11224312Y-10775934D01*
X11224211Y-10775690D01*
X11223985Y-10775415D01*
X11223796Y-10775115D01*
X11223596Y-10774941D01*
X11222967Y-10774175D01*
X11218205Y-10769413D01*
X11217438Y-10768783D01*
X11217265Y-10768584D01*
X11216964Y-10768394D01*
X11216690Y-10768169D01*
X11216446Y-10768068D01*
X11215606Y-10767540D01*
X11206082Y-10762778D01*
X11204251Y-10762077D01*
X11203893Y-10762052D01*
X11203561Y-10761914D01*
X11201610Y-10761722D01*
X11177801Y-10761722D01*
X11175850Y-10761914D01*
X11175518Y-10762052D01*
X11175159Y-10762077D01*
X11173329Y-10762778D01*
X11163805Y-10767540D01*
X11162965Y-10768068D01*
X11162721Y-10768169D01*
X11162447Y-10768394D01*
X11162146Y-10768584D01*
X11161972Y-10768784D01*
X11161206Y-10769413D01*
X11156444Y-10774175D01*
X11155200Y-10775690D01*
X11153707Y-10779295D01*
X11153707Y-10783197D01*
X11155200Y-10786801D01*
X11157959Y-10789560D01*
X11161564Y-10791054D01*
X11165466Y-10791054D01*
X11169071Y-10789560D01*
X11170586Y-10788317D01*
X11174200Y-10784702D01*
X11180161Y-10781722D01*
X11199249Y-10781722D01*
X11205210Y-10784702D01*
X11207677Y-10787169D01*
X11210658Y-10793130D01*
X11210658Y-10798671D01*
X11207156Y-10809177D01*
X11151682Y-10864651D01*
X11150438Y-10866166D01*
X11148945Y-10869771D01*
X11127227Y-10869771D01*
X11127729Y-10869269D01*
X11128358Y-10868502D01*
X11128558Y-10868329D01*
X11128747Y-10868028D01*
X11128973Y-10867754D01*
X11129074Y-10867510D01*
X11129602Y-10866670D01*
X11134364Y-10857146D01*
X11135065Y-10855316D01*
X11135090Y-10854957D01*
X11135228Y-10854625D01*
X11135420Y-10852674D01*
X11135420Y-10843150D01*
X11135228Y-10841200D01*
X11135090Y-10840867D01*
X11135065Y-10840509D01*
X11134364Y-10838678D01*
X11129602Y-10829155D01*
X11129074Y-10828315D01*
X11128973Y-10828071D01*
X11128747Y-10827796D01*
X11128558Y-10827495D01*
X11128358Y-10827322D01*
X11127729Y-10826556D01*
X11122967Y-10821794D01*
X11122200Y-10821164D01*
X11122027Y-10820965D01*
X11121726Y-10820775D01*
X11121452Y-10820550D01*
X11121208Y-10820449D01*
X11120368Y-10819920D01*
X11110844Y-10815159D01*
X11110702Y-10815104D01*
X11110644Y-10815061D01*
X11109826Y-10814769D01*
X11109013Y-10814458D01*
X11108941Y-10814453D01*
X11108797Y-10814401D01*
X11090815Y-10809906D01*
X11083724Y-10806360D01*
X11081257Y-10803894D01*
X11078277Y-10797933D01*
X11078277Y-10793130D01*
X11081257Y-10787169D01*
X11083724Y-10784702D01*
X11089685Y-10781722D01*
X11109511Y-10781722D01*
X11122257Y-10785971D01*
X11124169Y-10786405D01*
X11128061Y-10786129D01*
X11131551Y-10784384D01*
X11134107Y-10781436D01*
X11135341Y-10777735D01*
X11135065Y-10773843D01*
X11133320Y-10770353D01*
X11130372Y-10767796D01*
X11128582Y-10766997D01*
X11114296Y-10762235D01*
X11113329Y-10762015D01*
X11113085Y-10761914D01*
X11112731Y-10761879D01*
X11112385Y-10761800D01*
X11112121Y-10761819D01*
X11111134Y-10761722D01*
X11087325Y-10761722D01*
X11085374Y-10761914D01*
X11085042Y-10762052D01*
X11084683Y-10762077D01*
X11082852Y-10762778D01*
X11073329Y-10767540D01*
X11072489Y-10768068D01*
X11072245Y-10768169D01*
X11071970Y-10768394D01*
X11071670Y-10768584D01*
X11071496Y-10768784D01*
X11070730Y-10769413D01*
X11065968Y-10774175D01*
X11065338Y-10774942D01*
X11065139Y-10775115D01*
X11064949Y-10775415D01*
X11064724Y-10775690D01*
X11064623Y-10775934D01*
X11064095Y-10776774D01*
X11059333Y-10786297D01*
X11058632Y-10788128D01*
X11058607Y-10788487D01*
X11058469Y-10788819D01*
X11058277Y-10790770D01*
X10935420Y-10790770D01*
X10935420Y-10771722D01*
X10935419Y-10771715D01*
X10935420Y-10771711D01*
X10935418Y-10771701D01*
X10935228Y-10769771D01*
X10934849Y-10768856D01*
X10934655Y-10767885D01*
X10934109Y-10767071D01*
X10933734Y-10766166D01*
X10933034Y-10765466D01*
X10932483Y-10764643D01*
X10931668Y-10764100D01*
X10930975Y-10763407D01*
X10930061Y-10763028D01*
X10929237Y-10762479D01*
X10928276Y-10762289D01*
X10927371Y-10761914D01*
X10926381Y-10761914D01*
X10925409Y-10761722D01*
X10924449Y-10761914D01*
X10923469Y-10761914D01*
X10922554Y-10762293D01*
X10921583Y-10762487D01*
X10920769Y-10763032D01*
X10919864Y-10763407D01*
X10919164Y-10764107D01*
X10918341Y-10764658D01*
X10917112Y-10766159D01*
X10917105Y-10766166D01*
X10917104Y-10766169D01*
X10917099Y-10766175D01*
X10908125Y-10779637D01*
X10900448Y-10787313D01*
X10892376Y-10791349D01*
X10890717Y-10792393D01*
X10888161Y-10795341D01*
X10886927Y-10799043D01*
X10812165Y-10799043D01*
X10811610Y-10797933D01*
X10811610Y-10793130D01*
X10814591Y-10787169D01*
X10817058Y-10784702D01*
X10823019Y-10781722D01*
X10842845Y-10781722D01*
X10855591Y-10785971D01*
X10857502Y-10786405D01*
X10861394Y-10786129D01*
X10864884Y-10784384D01*
X10867441Y-10781436D01*
X10868675Y-10777735D01*
X10868398Y-10773843D01*
X10866653Y-10770353D01*
X10863705Y-10767796D01*
X10861915Y-10766997D01*
X10847630Y-10762235D01*
X10846662Y-10762015D01*
X10846418Y-10761914D01*
X10846064Y-10761879D01*
X10845718Y-10761800D01*
X10845455Y-10761819D01*
X10844467Y-10761722D01*
X10820658Y-10761722D01*
X10818707Y-10761914D01*
X10818375Y-10762052D01*
X10818017Y-10762077D01*
X10816186Y-10762778D01*
X10806662Y-10767540D01*
X10805822Y-10768068D01*
X10805578Y-10768169D01*
X10805304Y-10768394D01*
X10805003Y-10768584D01*
X10804830Y-10768784D01*
X10804063Y-10769413D01*
X10799301Y-10774175D01*
X10798672Y-10774942D01*
X10798472Y-10775115D01*
X10798283Y-10775415D01*
X10798057Y-10775690D01*
X10797956Y-10775934D01*
X10797428Y-10776774D01*
X10792666Y-10786297D01*
X10791965Y-10788128D01*
X10791940Y-10788487D01*
X10791802Y-10788819D01*
X10791610Y-10790770D01*
X10689961Y-10790770D01*
X10692880Y-10789560D01*
X10695639Y-10786801D01*
X10697132Y-10783197D01*
X10697132Y-10779295D01*
X10695639Y-10775690D01*
X10694395Y-10774175D01*
X10689634Y-10769413D01*
X10688118Y-10768169D01*
X10687786Y-10768032D01*
X10687515Y-10767796D01*
X10685725Y-10766997D01*
X10671439Y-10762235D01*
X10670472Y-10762015D01*
X10670228Y-10761914D01*
X10669874Y-10761879D01*
X10669528Y-10761800D01*
X10669264Y-10761819D01*
X10668277Y-10761722D01*
X10658753Y-10761722D01*
X10657766Y-10761819D01*
X10657502Y-10761800D01*
X10657156Y-10761879D01*
X10656802Y-10761914D01*
X10656558Y-10762015D01*
X10655591Y-10762235D01*
X10641305Y-10766997D01*
X10639515Y-10767796D01*
X10639243Y-10768032D01*
X10638912Y-10768169D01*
X10637396Y-10769413D01*
X10627872Y-10778937D01*
X10627243Y-10779704D01*
X10627044Y-10779877D01*
X10626854Y-10780177D01*
X10626629Y-10780452D01*
X10626528Y-10780696D01*
X10625999Y-10781536D01*
X10621237Y-10791059D01*
X10621183Y-10791202D01*
X10621140Y-10791260D01*
X10620848Y-10792078D01*
X10620537Y-10792890D01*
X10620532Y-10792962D01*
X10620480Y-10793106D01*
X10615718Y-10812154D01*
X10615668Y-10812492D01*
X10615612Y-10812628D01*
X10615539Y-10813363D01*
X10615432Y-10814093D01*
X10615453Y-10814239D01*
X10615420Y-10814579D01*
X10535727Y-10814579D01*
X10539617Y-10799022D01*
X10543162Y-10791931D01*
X10549869Y-10785224D01*
X10560376Y-10781722D01*
X10566654Y-10781722D01*
X10577161Y-10785224D01*
X10580253Y-10788317D01*
X10581769Y-10789560D01*
X10585374Y-10791054D01*
X10589275Y-10791054D01*
X10592880Y-10789560D01*
X10595639Y-10786801D01*
X10597132Y-10783197D01*
X10597132Y-10779295D01*
X10595639Y-10775690D01*
X10594395Y-10774175D01*
X10589634Y-10769413D01*
X10588118Y-10768169D01*
X10587786Y-10768032D01*
X10587515Y-10767796D01*
X10585725Y-10766997D01*
X10571439Y-10762235D01*
X10570472Y-10762015D01*
X10570228Y-10761914D01*
X10569874Y-10761879D01*
X10569528Y-10761800D01*
X10569264Y-10761819D01*
X10568277Y-10761722D01*
X10558753Y-10761722D01*
X10557766Y-10761819D01*
X10557502Y-10761800D01*
X10557156Y-10761879D01*
X10556802Y-10761914D01*
X10556558Y-10762015D01*
X10555591Y-10762235D01*
X10541305Y-10766997D01*
X10539515Y-10767796D01*
X10539243Y-10768032D01*
X10538912Y-10768169D01*
X10537396Y-10769413D01*
X10527872Y-10778937D01*
X10527243Y-10779704D01*
X10527044Y-10779877D01*
X10526854Y-10780177D01*
X10526629Y-10780452D01*
X10526528Y-10780696D01*
X10525999Y-10781536D01*
X10521237Y-10791059D01*
X10521183Y-10791202D01*
X10521140Y-10791260D01*
X10520848Y-10792078D01*
X10520537Y-10792890D01*
X10520532Y-10792962D01*
X10520480Y-10793106D01*
X10515718Y-10812154D01*
X10515668Y-10812492D01*
X10515612Y-10812628D01*
X10515539Y-10813363D01*
X10515432Y-10814093D01*
X10515453Y-10814239D01*
X10515420Y-10814579D01*
X10493103Y-10814579D01*
X10506335Y-10774884D01*
X10506770Y-10772973D01*
X10506493Y-10769081D01*
X10504748Y-10765591D01*
X10501801Y-10763034D01*
X10498099Y-10761800D01*
X10494207Y-10762077D01*
X10490717Y-10763822D01*
X10488161Y-10766770D01*
X10487361Y-10768560D01*
X10463515Y-10840099D01*
X10439668Y-10768560D01*
X10438869Y-10766770D01*
X10436313Y-10763822D01*
X10432823Y-10762077D01*
X10428931Y-10761800D01*
X10425229Y-10763034D01*
X10422282Y-10765591D01*
X10420537Y-10769081D01*
X10420260Y-10772973D01*
X10409149Y-10772973D01*
X10409149Y-10745927D01*
X12156055Y-10745927D01*
X12156055Y-10892833D01*
G37*
D12*
G36*
X12161324Y-7674768D02*
G01*
X12162565Y-7676009D01*
X12165100Y-7681079D01*
X12165100Y-7689463D01*
X12162565Y-7694534D01*
X12160672Y-7696427D01*
X12155602Y-7698962D01*
X12132957Y-7698962D01*
X12132957Y-7671581D01*
X12151762Y-7671581D01*
X12161324Y-7674768D01*
G37*
G36*
X12155910Y-7626497D02*
G01*
X12157803Y-7628390D01*
X12160338Y-7633460D01*
X12160338Y-7637082D01*
X12157803Y-7642152D01*
X12155910Y-7644046D01*
X12150840Y-7646581D01*
X12132957Y-7646581D01*
X12132957Y-7623962D01*
X12150840Y-7623962D01*
X12155910Y-7626497D01*
G37*
G36*
X12245972Y-7670390D02*
G01*
X12233038Y-7670390D01*
X12239505Y-7650990D01*
X12245972Y-7670390D01*
G37*
G36*
X12373789Y-7736462D02*
G01*
X11995556Y-7736462D01*
X11995556Y-7613025D01*
X12008056Y-7613025D01*
X12008599Y-7615415D01*
X12041932Y-7715415D01*
X12042931Y-7717652D01*
X12043516Y-7718327D01*
X12043916Y-7719126D01*
X12045100Y-7720153D01*
X12046127Y-7721337D01*
X12046926Y-7721736D01*
X12047600Y-7722321D01*
X12049087Y-7722817D01*
X12050489Y-7723518D01*
X12051380Y-7723581D01*
X12052227Y-7723864D01*
X12053791Y-7723753D01*
X12055354Y-7723864D01*
X12056201Y-7723581D01*
X12057092Y-7723518D01*
X12058494Y-7722817D01*
X12059981Y-7722321D01*
X12060655Y-7721736D01*
X12061455Y-7721337D01*
X12062482Y-7720152D01*
X12063666Y-7719126D01*
X12064065Y-7718327D01*
X12064650Y-7717652D01*
X12065649Y-7715415D01*
X12098982Y-7615415D01*
X12099526Y-7613025D01*
X12099415Y-7611462D01*
X12107957Y-7611462D01*
X12107957Y-7711462D01*
X12108198Y-7713900D01*
X12110064Y-7718406D01*
X12113513Y-7721855D01*
X12118019Y-7723722D01*
X12120457Y-7723962D01*
X12158553Y-7723962D01*
X12160991Y-7723722D01*
X12161406Y-7723550D01*
X12161854Y-7723518D01*
X12164143Y-7722642D01*
X12173666Y-7717880D01*
X12174716Y-7717220D01*
X12175021Y-7717093D01*
X12175364Y-7716811D01*
X12175740Y-7716575D01*
X12175956Y-7716325D01*
X12176915Y-7715539D01*
X12181677Y-7710777D01*
X12182398Y-7709898D01*
X12193770Y-7709898D01*
X12194116Y-7714763D01*
X12196297Y-7719126D01*
X12199981Y-7722321D01*
X12204608Y-7723864D01*
X12209473Y-7723518D01*
X12213836Y-7721337D01*
X12217031Y-7717652D01*
X12218030Y-7715415D01*
X12224705Y-7695390D01*
X12254305Y-7695390D01*
X12260980Y-7715415D01*
X12261979Y-7717652D01*
X12265174Y-7721337D01*
X12269537Y-7723518D01*
X12274402Y-7723864D01*
X12279029Y-7722321D01*
X12282713Y-7719126D01*
X12284894Y-7714763D01*
X12285240Y-7709898D01*
X12284697Y-7707509D01*
X12251868Y-7609023D01*
X12279626Y-7609023D01*
X12279626Y-7613900D01*
X12281493Y-7618406D01*
X12284941Y-7621855D01*
X12289447Y-7623722D01*
X12291886Y-7623962D01*
X12307957Y-7623962D01*
X12307957Y-7711462D01*
X12308198Y-7713900D01*
X12310064Y-7718406D01*
X12313513Y-7721855D01*
X12318019Y-7723722D01*
X12322896Y-7723722D01*
X12327402Y-7721855D01*
X12330851Y-7718406D01*
X12332717Y-7713900D01*
X12332957Y-7711462D01*
X12332957Y-7623962D01*
X12349029Y-7623962D01*
X12351467Y-7623722D01*
X12355973Y-7621855D01*
X12359422Y-7618406D01*
X12361289Y-7613900D01*
X12361289Y-7609023D01*
X12359422Y-7604517D01*
X12355973Y-7601068D01*
X12351467Y-7599202D01*
X12349029Y-7598962D01*
X12291886Y-7598962D01*
X12289447Y-7599202D01*
X12284941Y-7601068D01*
X12281493Y-7604517D01*
X12279626Y-7609023D01*
X12251868Y-7609023D01*
X12251363Y-7607509D01*
X12250364Y-7605272D01*
X12249779Y-7604597D01*
X12249380Y-7603798D01*
X12248196Y-7602771D01*
X12247169Y-7601587D01*
X12246370Y-7601187D01*
X12245695Y-7600602D01*
X12244208Y-7600107D01*
X12242806Y-7599406D01*
X12241915Y-7599342D01*
X12241068Y-7599060D01*
X12239505Y-7599171D01*
X12237942Y-7599060D01*
X12237094Y-7599342D01*
X12236203Y-7599406D01*
X12234801Y-7600107D01*
X12233315Y-7600602D01*
X12232640Y-7601187D01*
X12231841Y-7601587D01*
X12230814Y-7602771D01*
X12229630Y-7603798D01*
X12229230Y-7604597D01*
X12228645Y-7605272D01*
X12227646Y-7607509D01*
X12194313Y-7707509D01*
X12193770Y-7709898D01*
X12182398Y-7709898D01*
X12182464Y-7709818D01*
X12182713Y-7709602D01*
X12182950Y-7709226D01*
X12183232Y-7708882D01*
X12183358Y-7708578D01*
X12184019Y-7707528D01*
X12188780Y-7698004D01*
X12189656Y-7695716D01*
X12189688Y-7695268D01*
X12189860Y-7694853D01*
X12190100Y-7692414D01*
X12190100Y-7678128D01*
X12189860Y-7675690D01*
X12189688Y-7675275D01*
X12189656Y-7674827D01*
X12188780Y-7672538D01*
X12184019Y-7663014D01*
X12183358Y-7661965D01*
X12183232Y-7661660D01*
X12182950Y-7661316D01*
X12182713Y-7660941D01*
X12182464Y-7660725D01*
X12181677Y-7659766D01*
X12178444Y-7656533D01*
X12178470Y-7656502D01*
X12178596Y-7656197D01*
X12179257Y-7655147D01*
X12184019Y-7645623D01*
X12184894Y-7643335D01*
X12184926Y-7642887D01*
X12185098Y-7642472D01*
X12185338Y-7640033D01*
X12185338Y-7630509D01*
X12185098Y-7628071D01*
X12184926Y-7627656D01*
X12184894Y-7627208D01*
X12184019Y-7624919D01*
X12179257Y-7615395D01*
X12178596Y-7614346D01*
X12178470Y-7614041D01*
X12178188Y-7613697D01*
X12177951Y-7613322D01*
X12177702Y-7613106D01*
X12176915Y-7612147D01*
X12172153Y-7607385D01*
X12171195Y-7606598D01*
X12170978Y-7606349D01*
X12170602Y-7606112D01*
X12170259Y-7605830D01*
X12169954Y-7605704D01*
X12168905Y-7605043D01*
X12159381Y-7600282D01*
X12157092Y-7599406D01*
X12156644Y-7599374D01*
X12156229Y-7599202D01*
X12153791Y-7598962D01*
X12120457Y-7598962D01*
X12118019Y-7599202D01*
X12113513Y-7601068D01*
X12110064Y-7604517D01*
X12108198Y-7609023D01*
X12107957Y-7611462D01*
X12099415Y-7611462D01*
X12099180Y-7608160D01*
X12096999Y-7603798D01*
X12093314Y-7600602D01*
X12088687Y-7599060D01*
X12083822Y-7599406D01*
X12079460Y-7601587D01*
X12076264Y-7605272D01*
X12075265Y-7607509D01*
X12053791Y-7671933D01*
X12032316Y-7607509D01*
X12031317Y-7605272D01*
X12028121Y-7601587D01*
X12023759Y-7599406D01*
X12018894Y-7599060D01*
X12014267Y-7600602D01*
X12010582Y-7603798D01*
X12008401Y-7608160D01*
X12008056Y-7613025D01*
X11995556Y-7613025D01*
X11995556Y-7586462D01*
X12373789Y-7586462D01*
X12373789Y-7736462D01*
G37*
G36*
X12364486Y-7991462D02*
G01*
X12057362Y-7991462D01*
X12057362Y-7885509D01*
X12069862Y-7885509D01*
X12069862Y-7895033D01*
X12070102Y-7897472D01*
X12070274Y-7897887D01*
X12070306Y-7898335D01*
X12071182Y-7900623D01*
X12075944Y-7910147D01*
X12076605Y-7911197D01*
X12076731Y-7911502D01*
X12077012Y-7911845D01*
X12077249Y-7912221D01*
X12077499Y-7912437D01*
X12078285Y-7913396D01*
X12083047Y-7918158D01*
X12084006Y-7918945D01*
X12084222Y-7919194D01*
X12084598Y-7919430D01*
X12084941Y-7919712D01*
X12085246Y-7919839D01*
X12086296Y-7920499D01*
X12095820Y-7925261D01*
X12095998Y-7925329D01*
X12096071Y-7925383D01*
X12097093Y-7925749D01*
X12098108Y-7926137D01*
X12098198Y-7926143D01*
X12098378Y-7926208D01*
X12116095Y-7930637D01*
X12122577Y-7933878D01*
X12124470Y-7935771D01*
X12127005Y-7940841D01*
X12127005Y-7944463D01*
X12124470Y-7949534D01*
X12122577Y-7951427D01*
X12117507Y-7953962D01*
X12098676Y-7953962D01*
X12086315Y-7949841D01*
X12083926Y-7949298D01*
X12079061Y-7949644D01*
X12074698Y-7951825D01*
X12071503Y-7955510D01*
X12069960Y-7960137D01*
X12070306Y-7965001D01*
X12072487Y-7969364D01*
X12076172Y-7972559D01*
X12078409Y-7973558D01*
X12092695Y-7978320D01*
X12093904Y-7978595D01*
X12094209Y-7978722D01*
X12094651Y-7978765D01*
X12095084Y-7978864D01*
X12095413Y-7978840D01*
X12096648Y-7978962D01*
X12120457Y-7978962D01*
X12122896Y-7978722D01*
X12123311Y-7978550D01*
X12123759Y-7978518D01*
X12126048Y-7977642D01*
X12135571Y-7972880D01*
X12136621Y-7972220D01*
X12136926Y-7972093D01*
X12137269Y-7971811D01*
X12137645Y-7971575D01*
X12137861Y-7971325D01*
X12138820Y-7970539D01*
X12143582Y-7965777D01*
X12144369Y-7964818D01*
X12144618Y-7964602D01*
X12144855Y-7964226D01*
X12145136Y-7963882D01*
X12145263Y-7963578D01*
X12145923Y-7962528D01*
X12150685Y-7953004D01*
X12151561Y-7950716D01*
X12151593Y-7950268D01*
X12151765Y-7949853D01*
X12152005Y-7947414D01*
X12152005Y-7937890D01*
X12151765Y-7935452D01*
X12151593Y-7935037D01*
X12151561Y-7934589D01*
X12150685Y-7932300D01*
X12145923Y-7922776D01*
X12145263Y-7921727D01*
X12145136Y-7921422D01*
X12144854Y-7921078D01*
X12144618Y-7920703D01*
X12144369Y-7920486D01*
X12143582Y-7919528D01*
X12138820Y-7914766D01*
X12137861Y-7913979D01*
X12137645Y-7913730D01*
X12137269Y-7913493D01*
X12136926Y-7913211D01*
X12136621Y-7913085D01*
X12135571Y-7912424D01*
X12129361Y-7909319D01*
X12165100Y-7909319D01*
X12165100Y-7923605D01*
X12165142Y-7924030D01*
X12165115Y-7924212D01*
X12165250Y-7925125D01*
X12165340Y-7926043D01*
X12165411Y-7926213D01*
X12165473Y-7926636D01*
X12170235Y-7945684D01*
X12170300Y-7945864D01*
X12170306Y-7945954D01*
X12170694Y-7946968D01*
X12171060Y-7947991D01*
X12171113Y-7948064D01*
X12171182Y-7948242D01*
X12175944Y-7957766D01*
X12176604Y-7958816D01*
X12176731Y-7959121D01*
X12177013Y-7959464D01*
X12177249Y-7959840D01*
X12177498Y-7960056D01*
X12178285Y-7961015D01*
X12187809Y-7970539D01*
X12189703Y-7972093D01*
X12190118Y-7972265D01*
X12190458Y-7972559D01*
X12192695Y-7973558D01*
X12206981Y-7978320D01*
X12208190Y-7978595D01*
X12208495Y-7978722D01*
X12208937Y-7978765D01*
X12209370Y-7978864D01*
X12209699Y-7978840D01*
X12210934Y-7978962D01*
X12220457Y-7978962D01*
X12221692Y-7978840D01*
X12222021Y-7978864D01*
X12222454Y-7978765D01*
X12222896Y-7978722D01*
X12223201Y-7978595D01*
X12224410Y-7978320D01*
X12238696Y-7973559D01*
X12240933Y-7972559D01*
X12241273Y-7972265D01*
X12241688Y-7972093D01*
X12243582Y-7970539D01*
X12248344Y-7965777D01*
X12249898Y-7963882D01*
X12251765Y-7959377D01*
X12251765Y-7954499D01*
X12249898Y-7949993D01*
X12246449Y-7946545D01*
X12241943Y-7944678D01*
X12237066Y-7944678D01*
X12232560Y-7946545D01*
X12230666Y-7948099D01*
X12227991Y-7950775D01*
X12218429Y-7953962D01*
X12212962Y-7953962D01*
X12203400Y-7950775D01*
X12197397Y-7944771D01*
X12194156Y-7938290D01*
X12190100Y-7922066D01*
X12190100Y-7910858D01*
X12194156Y-7894634D01*
X12197397Y-7888152D01*
X12203400Y-7882149D01*
X12212962Y-7878962D01*
X12218429Y-7878962D01*
X12227991Y-7882149D01*
X12230666Y-7884824D01*
X12232560Y-7886379D01*
X12237066Y-7888245D01*
X12241944Y-7888245D01*
X12246450Y-7886379D01*
X12249898Y-7882930D01*
X12251765Y-7878424D01*
X12251765Y-7873547D01*
X12249898Y-7869041D01*
X12248344Y-7867147D01*
X12247659Y-7866462D01*
X12269862Y-7866462D01*
X12269862Y-7966462D01*
X12270102Y-7968900D01*
X12271969Y-7973406D01*
X12275418Y-7976855D01*
X12279924Y-7978722D01*
X12284801Y-7978722D01*
X12289307Y-7976855D01*
X12292756Y-7973406D01*
X12294622Y-7968900D01*
X12294862Y-7966462D01*
X12294862Y-7928782D01*
X12295295Y-7928349D01*
X12329505Y-7973962D01*
X12331160Y-7975769D01*
X12335357Y-7978254D01*
X12340185Y-7978943D01*
X12344910Y-7977733D01*
X12348812Y-7974807D01*
X12351297Y-7970610D01*
X12351986Y-7965782D01*
X12350776Y-7961057D01*
X12349505Y-7958962D01*
X12313152Y-7910492D01*
X12348344Y-7875301D01*
X12349898Y-7873407D01*
X12351765Y-7868901D01*
X12351765Y-7864023D01*
X12349898Y-7859517D01*
X12346450Y-7856069D01*
X12341944Y-7854202D01*
X12337066Y-7854202D01*
X12332560Y-7856069D01*
X12330666Y-7857623D01*
X12294862Y-7893427D01*
X12294862Y-7866462D01*
X12294622Y-7864023D01*
X12292756Y-7859517D01*
X12289307Y-7856068D01*
X12284801Y-7854202D01*
X12279924Y-7854202D01*
X12275418Y-7856068D01*
X12271969Y-7859517D01*
X12270102Y-7864023D01*
X12269862Y-7866462D01*
X12247659Y-7866462D01*
X12243582Y-7862385D01*
X12241688Y-7860830D01*
X12241273Y-7860659D01*
X12240933Y-7860364D01*
X12238696Y-7859365D01*
X12224410Y-7854603D01*
X12223201Y-7854328D01*
X12222896Y-7854202D01*
X12222454Y-7854158D01*
X12222021Y-7854060D01*
X12221692Y-7854083D01*
X12220457Y-7853962D01*
X12210934Y-7853962D01*
X12209699Y-7854083D01*
X12209370Y-7854060D01*
X12208937Y-7854158D01*
X12208495Y-7854202D01*
X12208190Y-7854328D01*
X12206981Y-7854603D01*
X12192695Y-7859365D01*
X12190458Y-7860364D01*
X12190118Y-7860659D01*
X12189703Y-7860830D01*
X12187809Y-7862385D01*
X12178285Y-7871909D01*
X12177499Y-7872867D01*
X12177249Y-7873084D01*
X12177012Y-7873460D01*
X12176731Y-7873803D01*
X12176605Y-7874108D01*
X12175944Y-7875157D01*
X12171182Y-7884681D01*
X12171113Y-7884860D01*
X12171060Y-7884932D01*
X12170694Y-7885955D01*
X12170306Y-7886970D01*
X12170300Y-7887060D01*
X12170235Y-7887240D01*
X12165473Y-7906287D01*
X12165411Y-7906710D01*
X12165340Y-7906880D01*
X12165250Y-7907798D01*
X12165115Y-7908711D01*
X12165142Y-7908893D01*
X12165100Y-7909319D01*
X12129361Y-7909319D01*
X12126048Y-7907662D01*
X12125869Y-7907594D01*
X12125797Y-7907540D01*
X12124774Y-7907175D01*
X12123759Y-7906787D01*
X12123669Y-7906780D01*
X12123489Y-7906716D01*
X12105773Y-7902287D01*
X12099290Y-7899046D01*
X12097397Y-7897153D01*
X12094862Y-7892082D01*
X12094862Y-7888460D01*
X12097397Y-7883390D01*
X12099290Y-7881497D01*
X12104361Y-7878962D01*
X12123191Y-7878962D01*
X12135552Y-7883082D01*
X12137941Y-7883626D01*
X12142806Y-7883280D01*
X12147169Y-7881099D01*
X12150364Y-7877414D01*
X12151907Y-7872787D01*
X12151561Y-7867922D01*
X12149380Y-7863560D01*
X12145695Y-7860364D01*
X12143458Y-7859365D01*
X12129172Y-7854603D01*
X12127963Y-7854328D01*
X12127658Y-7854202D01*
X12127216Y-7854158D01*
X12126783Y-7854060D01*
X12126454Y-7854083D01*
X12125219Y-7853962D01*
X12101410Y-7853962D01*
X12098971Y-7854202D01*
X12098556Y-7854374D01*
X12098108Y-7854406D01*
X12095820Y-7855282D01*
X12086296Y-7860043D01*
X12085246Y-7860704D01*
X12084941Y-7860830D01*
X12084598Y-7861112D01*
X12084222Y-7861349D01*
X12084006Y-7861598D01*
X12083047Y-7862385D01*
X12078285Y-7867147D01*
X12077499Y-7868105D01*
X12077249Y-7868322D01*
X12077012Y-7868698D01*
X12076731Y-7869041D01*
X12076605Y-7869346D01*
X12075944Y-7870396D01*
X12071182Y-7879919D01*
X12070306Y-7882208D01*
X12070274Y-7882656D01*
X12070102Y-7883071D01*
X12069862Y-7885509D01*
X12057362Y-7885509D01*
X12057362Y-7841462D01*
X12364486Y-7841462D01*
X12364486Y-7991462D01*
G37*
G36*
X12161324Y-8137149D02*
G01*
X12167327Y-8143152D01*
X12170568Y-8149634D01*
X12174624Y-8165858D01*
X12174624Y-8177066D01*
X12170568Y-8193289D01*
X12167327Y-8199771D01*
X12161324Y-8205775D01*
X12151762Y-8208962D01*
X12142481Y-8208962D01*
X12142481Y-8133962D01*
X12151762Y-8133962D01*
X12161324Y-8137149D01*
G37*
G36*
X12317815Y-8136497D02*
G01*
X12323456Y-8142138D01*
X12327005Y-8156334D01*
X12327005Y-8186590D01*
X12323456Y-8200785D01*
X12317815Y-8206427D01*
X12312745Y-8208962D01*
X12299599Y-8208962D01*
X12294529Y-8206427D01*
X12288887Y-8200785D01*
X12285338Y-8186590D01*
X12285338Y-8156334D01*
X12288887Y-8142138D01*
X12294528Y-8136497D01*
X12299599Y-8133962D01*
X12312745Y-8133962D01*
X12317815Y-8136497D01*
G37*
G36*
X12364505Y-8246462D02*
G01*
X12104981Y-8246462D01*
X12104981Y-8121462D01*
X12117481Y-8121462D01*
X12117481Y-8221462D01*
X12117721Y-8223900D01*
X12119588Y-8228406D01*
X12123037Y-8231855D01*
X12127543Y-8233722D01*
X12129981Y-8233962D01*
X12153791Y-8233962D01*
X12155025Y-8233840D01*
X12155354Y-8233864D01*
X12155787Y-8233765D01*
X12156229Y-8233722D01*
X12156534Y-8233595D01*
X12157744Y-8233320D01*
X12172029Y-8228559D01*
X12174267Y-8227559D01*
X12174606Y-8227265D01*
X12175021Y-8227093D01*
X12176915Y-8225539D01*
X12186439Y-8216015D01*
X12187226Y-8215056D01*
X12187475Y-8214840D01*
X12187712Y-8214464D01*
X12187994Y-8214121D01*
X12188120Y-8213815D01*
X12188781Y-8212766D01*
X12193542Y-8203242D01*
X12193611Y-8203064D01*
X12193664Y-8202991D01*
X12194030Y-8201968D01*
X12194418Y-8200954D01*
X12194425Y-8200864D01*
X12194489Y-8200684D01*
X12199251Y-8181636D01*
X12199313Y-8181213D01*
X12199384Y-8181043D01*
X12199474Y-8180125D01*
X12199609Y-8179212D01*
X12199582Y-8179030D01*
X12199624Y-8178605D01*
X12199624Y-8164319D01*
X12199582Y-8163893D01*
X12199609Y-8163711D01*
X12199474Y-8162798D01*
X12199384Y-8161880D01*
X12199313Y-8161710D01*
X12199251Y-8161287D01*
X12194489Y-8142240D01*
X12194425Y-8142060D01*
X12194418Y-8141970D01*
X12194030Y-8140955D01*
X12193664Y-8139932D01*
X12193611Y-8139860D01*
X12193542Y-8139681D01*
X12188781Y-8130157D01*
X12188120Y-8129108D01*
X12187994Y-8128803D01*
X12187712Y-8128460D01*
X12187475Y-8128084D01*
X12187226Y-8127867D01*
X12186439Y-8126909D01*
X12180992Y-8121462D01*
X12217481Y-8121462D01*
X12217481Y-8221462D01*
X12217721Y-8223900D01*
X12219588Y-8228406D01*
X12223037Y-8231855D01*
X12227543Y-8233722D01*
X12232420Y-8233722D01*
X12236926Y-8231855D01*
X12240375Y-8228406D01*
X12242241Y-8223900D01*
X12242481Y-8221462D01*
X12242481Y-8154795D01*
X12260338Y-8154795D01*
X12260338Y-8188128D01*
X12260380Y-8188554D01*
X12260353Y-8188736D01*
X12260488Y-8189649D01*
X12260579Y-8190567D01*
X12260649Y-8190737D01*
X12260712Y-8191160D01*
X12265473Y-8210208D01*
X12266298Y-8212515D01*
X12266851Y-8213262D01*
X12267207Y-8214121D01*
X12268761Y-8216015D01*
X12278285Y-8225539D01*
X12279244Y-8226326D01*
X12279460Y-8226575D01*
X12279836Y-8226811D01*
X12280179Y-8227093D01*
X12280484Y-8227220D01*
X12281534Y-8227880D01*
X12291058Y-8232642D01*
X12293346Y-8233518D01*
X12293794Y-8233550D01*
X12294209Y-8233722D01*
X12296648Y-8233962D01*
X12315695Y-8233962D01*
X12318134Y-8233722D01*
X12318549Y-8233550D01*
X12318997Y-8233518D01*
X12321286Y-8232642D01*
X12330809Y-8227880D01*
X12331859Y-8227220D01*
X12332164Y-8227093D01*
X12332507Y-8226811D01*
X12332883Y-8226575D01*
X12333099Y-8226326D01*
X12334058Y-8225539D01*
X12343582Y-8216015D01*
X12345136Y-8214121D01*
X12345492Y-8213262D01*
X12346045Y-8212515D01*
X12346870Y-8210208D01*
X12351632Y-8191160D01*
X12351694Y-8190737D01*
X12351765Y-8190567D01*
X12351855Y-8189649D01*
X12351990Y-8188736D01*
X12351963Y-8188554D01*
X12352005Y-8188128D01*
X12352005Y-8154795D01*
X12351963Y-8154370D01*
X12351990Y-8154187D01*
X12351855Y-8153274D01*
X12351765Y-8152357D01*
X12351694Y-8152186D01*
X12351632Y-8151763D01*
X12346870Y-8132716D01*
X12346045Y-8130408D01*
X12345492Y-8129661D01*
X12345136Y-8128803D01*
X12343582Y-8126909D01*
X12334058Y-8117385D01*
X12333099Y-8116598D01*
X12332883Y-8116349D01*
X12332507Y-8116112D01*
X12332164Y-8115830D01*
X12331859Y-8115704D01*
X12330809Y-8115043D01*
X12321286Y-8110282D01*
X12318997Y-8109406D01*
X12318549Y-8109374D01*
X12318134Y-8109202D01*
X12315695Y-8108962D01*
X12296648Y-8108962D01*
X12294209Y-8109202D01*
X12293794Y-8109374D01*
X12293346Y-8109406D01*
X12291058Y-8110282D01*
X12281534Y-8115043D01*
X12280484Y-8115704D01*
X12280179Y-8115830D01*
X12279836Y-8116112D01*
X12279460Y-8116349D01*
X12279244Y-8116598D01*
X12278285Y-8117385D01*
X12268761Y-8126909D01*
X12267207Y-8128803D01*
X12266851Y-8129661D01*
X12266298Y-8130408D01*
X12265473Y-8132716D01*
X12260712Y-8151763D01*
X12260649Y-8152186D01*
X12260579Y-8152357D01*
X12260488Y-8153275D01*
X12260353Y-8154188D01*
X12260380Y-8154370D01*
X12260338Y-8154795D01*
X12242481Y-8154795D01*
X12242481Y-8121462D01*
X12242241Y-8119023D01*
X12240375Y-8114517D01*
X12236926Y-8111068D01*
X12232420Y-8109202D01*
X12227543Y-8109202D01*
X12223037Y-8111068D01*
X12219588Y-8114517D01*
X12217721Y-8119023D01*
X12217481Y-8121462D01*
X12180992Y-8121462D01*
X12176915Y-8117385D01*
X12175021Y-8115830D01*
X12174606Y-8115659D01*
X12174267Y-8115364D01*
X12172029Y-8114365D01*
X12157744Y-8109603D01*
X12156534Y-8109328D01*
X12156229Y-8109202D01*
X12155787Y-8109158D01*
X12155354Y-8109060D01*
X12155025Y-8109083D01*
X12153791Y-8108962D01*
X12129981Y-8108962D01*
X12127543Y-8109202D01*
X12123037Y-8111068D01*
X12119588Y-8114517D01*
X12117721Y-8119023D01*
X12117481Y-8121462D01*
X12104981Y-8121462D01*
X12104981Y-8096462D01*
X12364505Y-8096462D01*
X12364505Y-8246462D01*
G37*
G36*
X12151148Y-8391497D02*
G01*
X12153041Y-8393390D01*
X12155576Y-8398460D01*
X12155576Y-8406844D01*
X12153041Y-8411914D01*
X12151148Y-8413808D01*
X12146078Y-8416343D01*
X12123434Y-8416343D01*
X12123434Y-8388962D01*
X12146078Y-8388962D01*
X12151148Y-8391497D01*
G37*
G36*
X12373789Y-8501462D02*
G01*
X12085934Y-8501462D01*
X12085934Y-8376462D01*
X12098434Y-8376462D01*
X12098434Y-8476462D01*
X12098674Y-8478901D01*
X12100540Y-8483407D01*
X12103989Y-8486855D01*
X12108495Y-8488722D01*
X12113372Y-8488722D01*
X12117878Y-8486855D01*
X12121327Y-8483407D01*
X12123193Y-8478901D01*
X12123434Y-8476462D01*
X12123434Y-8441343D01*
X12128235Y-8441343D01*
X12157836Y-8483630D01*
X12159431Y-8485490D01*
X12163544Y-8488111D01*
X12168347Y-8488959D01*
X12173109Y-8487904D01*
X12177105Y-8485107D01*
X12179726Y-8480994D01*
X12180573Y-8476191D01*
X12179518Y-8471429D01*
X12178317Y-8469294D01*
X12156996Y-8438835D01*
X12164143Y-8435261D01*
X12165192Y-8434600D01*
X12165497Y-8434474D01*
X12165840Y-8434193D01*
X12166216Y-8433956D01*
X12166433Y-8433706D01*
X12167391Y-8432920D01*
X12172153Y-8428158D01*
X12172940Y-8427199D01*
X12173189Y-8426983D01*
X12173426Y-8426607D01*
X12173708Y-8426264D01*
X12173834Y-8425959D01*
X12174495Y-8424909D01*
X12179257Y-8415385D01*
X12180132Y-8413097D01*
X12180164Y-8412649D01*
X12180336Y-8412234D01*
X12180576Y-8409795D01*
X12180576Y-8395510D01*
X12193672Y-8395510D01*
X12193672Y-8405033D01*
X12193912Y-8407472D01*
X12194084Y-8407887D01*
X12194116Y-8408335D01*
X12194991Y-8410624D01*
X12199753Y-8420147D01*
X12200414Y-8421197D01*
X12200540Y-8421502D01*
X12200822Y-8421845D01*
X12201059Y-8422221D01*
X12201308Y-8422437D01*
X12202095Y-8423396D01*
X12206857Y-8428158D01*
X12207815Y-8428945D01*
X12208032Y-8429194D01*
X12208407Y-8429430D01*
X12208751Y-8429712D01*
X12209056Y-8429839D01*
X12210105Y-8430499D01*
X12219629Y-8435261D01*
X12219808Y-8435330D01*
X12219880Y-8435383D01*
X12220903Y-8435749D01*
X12221918Y-8436137D01*
X12222008Y-8436143D01*
X12222188Y-8436208D01*
X12239904Y-8440637D01*
X12246386Y-8443878D01*
X12248279Y-8445771D01*
X12250814Y-8450841D01*
X12250814Y-8454463D01*
X12248279Y-8459534D01*
X12246386Y-8461427D01*
X12241316Y-8463962D01*
X12222486Y-8463962D01*
X12210124Y-8459842D01*
X12207735Y-8459298D01*
X12202870Y-8459644D01*
X12198508Y-8461825D01*
X12195312Y-8465510D01*
X12193770Y-8470137D01*
X12194116Y-8475002D01*
X12196297Y-8479364D01*
X12199981Y-8482560D01*
X12202219Y-8483559D01*
X12216504Y-8488320D01*
X12217714Y-8488595D01*
X12218019Y-8488722D01*
X12218461Y-8488765D01*
X12218894Y-8488864D01*
X12219223Y-8488840D01*
X12220457Y-8488962D01*
X12244267Y-8488962D01*
X12246705Y-8488722D01*
X12247120Y-8488550D01*
X12247568Y-8488518D01*
X12249857Y-8487642D01*
X12259381Y-8482880D01*
X12260430Y-8482220D01*
X12260735Y-8482093D01*
X12261079Y-8481811D01*
X12261455Y-8481575D01*
X12261671Y-8481326D01*
X12262630Y-8480539D01*
X12267391Y-8475777D01*
X12268178Y-8474818D01*
X12268427Y-8474602D01*
X12268664Y-8474226D01*
X12268946Y-8473883D01*
X12269072Y-8473578D01*
X12269733Y-8472528D01*
X12274495Y-8463004D01*
X12275371Y-8460716D01*
X12275402Y-8460268D01*
X12275574Y-8459853D01*
X12275814Y-8457414D01*
X12275814Y-8447890D01*
X12275574Y-8445452D01*
X12275402Y-8445037D01*
X12275371Y-8444589D01*
X12274495Y-8442300D01*
X12269733Y-8432776D01*
X12269072Y-8431727D01*
X12268946Y-8431422D01*
X12268664Y-8431078D01*
X12268427Y-8430703D01*
X12268178Y-8430487D01*
X12267391Y-8429528D01*
X12262629Y-8424766D01*
X12261671Y-8423979D01*
X12261455Y-8423730D01*
X12261078Y-8423493D01*
X12260735Y-8423211D01*
X12260431Y-8423085D01*
X12259381Y-8422424D01*
X12249857Y-8417663D01*
X12249678Y-8417594D01*
X12249606Y-8417541D01*
X12248583Y-8417175D01*
X12247568Y-8416787D01*
X12247478Y-8416780D01*
X12247299Y-8416716D01*
X12229582Y-8412287D01*
X12223100Y-8409046D01*
X12221207Y-8407153D01*
X12218672Y-8402083D01*
X12218672Y-8398460D01*
X12221207Y-8393390D01*
X12223100Y-8391497D01*
X12228170Y-8388962D01*
X12247000Y-8388962D01*
X12259362Y-8393082D01*
X12261751Y-8393626D01*
X12266616Y-8393280D01*
X12270978Y-8391099D01*
X12274174Y-8387414D01*
X12275716Y-8382787D01*
X12275371Y-8377922D01*
X12273421Y-8374023D01*
X12279626Y-8374023D01*
X12279626Y-8378900D01*
X12281493Y-8383406D01*
X12284941Y-8386855D01*
X12289447Y-8388722D01*
X12291886Y-8388962D01*
X12307957Y-8388962D01*
X12307957Y-8476462D01*
X12308198Y-8478901D01*
X12310064Y-8483407D01*
X12313513Y-8486855D01*
X12318019Y-8488722D01*
X12322896Y-8488722D01*
X12327402Y-8486855D01*
X12330851Y-8483407D01*
X12332717Y-8478901D01*
X12332957Y-8476462D01*
X12332957Y-8388962D01*
X12349029Y-8388962D01*
X12351467Y-8388722D01*
X12355973Y-8386855D01*
X12359422Y-8383406D01*
X12361289Y-8378900D01*
X12361289Y-8374023D01*
X12359422Y-8369517D01*
X12355973Y-8366068D01*
X12351467Y-8364202D01*
X12349029Y-8363962D01*
X12291886Y-8363962D01*
X12289447Y-8364202D01*
X12284941Y-8366068D01*
X12281493Y-8369517D01*
X12279626Y-8374023D01*
X12273421Y-8374023D01*
X12273189Y-8373560D01*
X12269505Y-8370364D01*
X12267267Y-8369365D01*
X12252982Y-8364603D01*
X12251772Y-8364328D01*
X12251467Y-8364202D01*
X12251025Y-8364158D01*
X12250592Y-8364060D01*
X12250263Y-8364083D01*
X12249029Y-8363962D01*
X12225219Y-8363962D01*
X12222781Y-8364202D01*
X12222366Y-8364374D01*
X12221918Y-8364406D01*
X12219629Y-8365282D01*
X12210105Y-8370043D01*
X12209056Y-8370704D01*
X12208751Y-8370830D01*
X12208407Y-8371112D01*
X12208032Y-8371349D01*
X12207815Y-8371598D01*
X12206857Y-8372385D01*
X12202095Y-8377147D01*
X12201308Y-8378105D01*
X12201059Y-8378322D01*
X12200822Y-8378698D01*
X12200540Y-8379041D01*
X12200414Y-8379346D01*
X12199753Y-8380396D01*
X12194991Y-8389919D01*
X12194116Y-8392208D01*
X12194084Y-8392656D01*
X12193912Y-8393071D01*
X12193672Y-8395510D01*
X12180576Y-8395510D01*
X12180336Y-8393071D01*
X12180164Y-8392656D01*
X12180132Y-8392208D01*
X12179257Y-8389919D01*
X12174495Y-8380395D01*
X12173834Y-8379346D01*
X12173708Y-8379041D01*
X12173426Y-8378697D01*
X12173189Y-8378322D01*
X12172940Y-8378106D01*
X12172153Y-8377147D01*
X12167391Y-8372385D01*
X12166433Y-8371598D01*
X12166216Y-8371349D01*
X12165840Y-8371112D01*
X12165497Y-8370830D01*
X12165192Y-8370704D01*
X12164143Y-8370043D01*
X12154619Y-8365282D01*
X12152330Y-8364406D01*
X12151882Y-8364374D01*
X12151467Y-8364202D01*
X12149029Y-8363962D01*
X12110934Y-8363962D01*
X12108495Y-8364202D01*
X12103989Y-8366068D01*
X12100540Y-8369517D01*
X12098674Y-8374023D01*
X12098434Y-8376462D01*
X12085934Y-8376462D01*
X12085934Y-8351462D01*
X12373789Y-8351462D01*
X12373789Y-8501462D01*
G37*
D13*
G36*
X10635988Y-10381404D02*
G01*
X10609136Y-10372454D01*
X10635988Y-10363503D01*
X10635988Y-10381404D01*
G37*
G36*
X10716585Y-10444003D02*
G01*
X10531820Y-10444003D01*
X10531820Y-10370578D01*
X10546820Y-10370578D01*
X10546953Y-10372454D01*
X10546820Y-10374330D01*
X10547159Y-10375346D01*
X10547235Y-10376416D01*
X10548076Y-10378098D01*
X10548671Y-10379882D01*
X10549373Y-10380692D01*
X10549852Y-10381650D01*
X10551273Y-10382883D01*
X10552506Y-10384304D01*
X10553464Y-10384783D01*
X10554274Y-10385485D01*
X10556959Y-10386684D01*
X10681959Y-10428351D01*
X10684826Y-10429003D01*
X10690664Y-10428588D01*
X10695899Y-10425970D01*
X10699734Y-10421549D01*
X10701585Y-10415996D01*
X10701170Y-10410158D01*
X10698552Y-10404924D01*
X10694131Y-10401089D01*
X10691446Y-10399890D01*
X10665988Y-10391404D01*
X10665988Y-10353503D01*
X10691446Y-10345017D01*
X10694131Y-10343818D01*
X10698552Y-10339984D01*
X10701170Y-10334749D01*
X10701585Y-10328911D01*
X10699734Y-10323359D01*
X10695899Y-10318937D01*
X10690664Y-10316320D01*
X10684826Y-10315905D01*
X10681959Y-10316557D01*
X10556959Y-10358223D01*
X10554274Y-10359422D01*
X10553464Y-10360124D01*
X10552506Y-10360604D01*
X10551273Y-10362025D01*
X10549852Y-10363257D01*
X10549373Y-10364215D01*
X10548671Y-10365025D01*
X10548076Y-10366809D01*
X10547235Y-10368492D01*
X10547159Y-10369561D01*
X10546820Y-10370578D01*
X10531820Y-10370578D01*
X10531820Y-10253406D01*
X10588369Y-10253406D01*
X10588369Y-10265311D01*
X10588657Y-10268237D01*
X10588863Y-10268735D01*
X10588902Y-10269273D01*
X10589953Y-10272019D01*
X10593190Y-10278494D01*
X10590897Y-10280787D01*
X10588657Y-10286194D01*
X10588657Y-10292047D01*
X10590897Y-10297454D01*
X10595035Y-10301592D01*
X10600443Y-10303832D01*
X10603369Y-10304120D01*
X10686702Y-10304120D01*
X10689629Y-10303832D01*
X10695036Y-10301592D01*
X10699174Y-10297454D01*
X10701414Y-10292047D01*
X10701414Y-10286194D01*
X10699174Y-10280787D01*
X10695036Y-10276648D01*
X10689629Y-10274408D01*
X10686702Y-10274120D01*
X10630719Y-10274120D01*
X10624159Y-10270840D01*
X10621649Y-10268330D01*
X10618369Y-10261770D01*
X10618369Y-10253406D01*
X10618081Y-10250480D01*
X10615841Y-10245072D01*
X10611703Y-10240934D01*
X10606295Y-10238694D01*
X10600443Y-10238694D01*
X10595035Y-10240934D01*
X10590897Y-10245072D01*
X10588657Y-10250480D01*
X10588369Y-10253406D01*
X10531820Y-10253406D01*
X10531820Y-10122454D01*
X10588369Y-10122454D01*
X10588369Y-10140311D01*
X10588657Y-10143237D01*
X10588864Y-10143735D01*
X10588902Y-10144273D01*
X10589953Y-10147019D01*
X10595527Y-10158168D01*
X10589953Y-10169317D01*
X10588902Y-10172063D01*
X10588863Y-10172601D01*
X10588657Y-10173099D01*
X10588369Y-10176025D01*
X10588369Y-10193882D01*
X10588657Y-10196809D01*
X10588863Y-10197306D01*
X10588902Y-10197844D01*
X10589953Y-10200590D01*
X10591206Y-10203097D01*
X10590897Y-10203406D01*
X10588657Y-10208813D01*
X10588657Y-10214666D01*
X10590897Y-10220073D01*
X10595035Y-10224211D01*
X10600443Y-10226451D01*
X10603369Y-10226739D01*
X10686702Y-10226739D01*
X10689629Y-10226451D01*
X10695036Y-10224211D01*
X10699174Y-10220073D01*
X10701414Y-10214666D01*
X10701414Y-10208813D01*
X10699174Y-10203406D01*
X10695036Y-10199267D01*
X10689629Y-10197027D01*
X10686702Y-10196739D01*
X10621568Y-10196739D01*
X10618369Y-10190341D01*
X10618369Y-10179566D01*
X10620502Y-10175301D01*
X10624767Y-10173168D01*
X10686702Y-10173168D01*
X10689629Y-10172880D01*
X10695036Y-10170640D01*
X10699174Y-10166501D01*
X10701414Y-10161094D01*
X10701414Y-10155241D01*
X10699174Y-10149834D01*
X10695036Y-10145696D01*
X10689629Y-10143456D01*
X10686702Y-10143168D01*
X10624767Y-10143168D01*
X10620502Y-10141035D01*
X10618369Y-10136770D01*
X10618369Y-10125995D01*
X10620502Y-10121729D01*
X10624767Y-10119596D01*
X10686702Y-10119596D01*
X10689629Y-10119308D01*
X10695036Y-10117068D01*
X10699174Y-10112930D01*
X10701414Y-10107523D01*
X10701414Y-10101670D01*
X10699174Y-10096263D01*
X10695036Y-10092124D01*
X10689629Y-10089885D01*
X10686702Y-10089596D01*
X10621226Y-10089596D01*
X10618300Y-10089885D01*
X10617802Y-10090091D01*
X10617264Y-10090129D01*
X10614518Y-10091180D01*
X10602613Y-10097132D01*
X10602124Y-10097440D01*
X10601893Y-10097517D01*
X10601606Y-10097767D01*
X10600125Y-10098699D01*
X10598892Y-10100120D01*
X10597472Y-10101352D01*
X10596539Y-10102833D01*
X10596290Y-10103120D01*
X10596213Y-10103351D01*
X10595905Y-10103841D01*
X10589953Y-10115745D01*
X10588902Y-10118492D01*
X10588864Y-10119029D01*
X10588657Y-10119527D01*
X10588369Y-10122454D01*
X10531820Y-10122454D01*
X10531820Y-9899289D01*
X10576752Y-9899289D01*
X10576752Y-9905142D01*
X10578992Y-9910549D01*
X10583131Y-9914687D01*
X10588538Y-9916927D01*
X10591464Y-9917215D01*
X10624083Y-9917215D01*
X10624083Y-9949834D01*
X10624372Y-9952761D01*
X10626611Y-9958168D01*
X10630750Y-9962306D01*
X10636157Y-9964546D01*
X10642010Y-9964546D01*
X10647417Y-9962306D01*
X10651555Y-9958168D01*
X10653795Y-9952761D01*
X10654083Y-9949834D01*
X10654083Y-9917215D01*
X10686702Y-9917215D01*
X10689629Y-9916927D01*
X10695036Y-9914687D01*
X10699174Y-9910549D01*
X10701414Y-9905142D01*
X10701414Y-9899289D01*
X10699174Y-9893882D01*
X10695036Y-9889743D01*
X10689629Y-9887504D01*
X10686702Y-9887215D01*
X10654083Y-9887215D01*
X10654083Y-9854596D01*
X10653795Y-9851670D01*
X10651555Y-9846263D01*
X10647417Y-9842124D01*
X10642010Y-9839885D01*
X10636157Y-9839885D01*
X10630750Y-9842124D01*
X10626611Y-9846263D01*
X10624372Y-9851670D01*
X10624083Y-9854596D01*
X10624083Y-9887215D01*
X10591464Y-9887215D01*
X10588538Y-9887504D01*
X10583131Y-9889743D01*
X10578992Y-9893882D01*
X10576752Y-9899289D01*
X10531820Y-9899289D01*
X10531820Y-9604596D01*
X10624083Y-9604596D01*
X10624083Y-9699834D01*
X10624372Y-9702761D01*
X10626611Y-9708168D01*
X10630750Y-9712306D01*
X10636157Y-9714546D01*
X10642010Y-9714546D01*
X10647417Y-9712306D01*
X10651555Y-9708168D01*
X10653795Y-9702761D01*
X10654083Y-9699834D01*
X10654083Y-9604596D01*
X10653795Y-9601670D01*
X10651555Y-9596263D01*
X10647417Y-9592124D01*
X10642010Y-9589885D01*
X10636157Y-9589885D01*
X10630750Y-9592124D01*
X10626611Y-9596263D01*
X10624372Y-9601670D01*
X10624083Y-9604596D01*
X10531820Y-9604596D01*
X10531820Y-9574885D01*
X10716585Y-9574885D01*
X10716585Y-10444003D01*
G37*
G36*
X11891628Y-9320753D02*
G01*
X11894138Y-9323263D01*
X11897418Y-9329823D01*
X11897418Y-9358901D01*
X11861942Y-9358901D01*
X11861942Y-9329823D01*
X11865222Y-9323263D01*
X11867732Y-9320753D01*
X11874293Y-9317473D01*
X11885068Y-9317473D01*
X11891628Y-9320753D01*
G37*
G36*
X12001942Y-9403901D02*
G01*
X11816942Y-9403901D01*
X11816942Y-9326282D01*
X11831942Y-9326282D01*
X11831942Y-9373901D01*
X11832230Y-9376828D01*
X11834470Y-9382235D01*
X11838609Y-9386373D01*
X11844016Y-9388613D01*
X11846942Y-9388901D01*
X11971942Y-9388901D01*
X11974869Y-9388613D01*
X11980276Y-9386373D01*
X11984414Y-9382235D01*
X11986654Y-9376828D01*
X11986654Y-9370975D01*
X11984414Y-9365568D01*
X11980276Y-9361429D01*
X11974869Y-9359189D01*
X11971942Y-9358901D01*
X11927418Y-9358901D01*
X11927418Y-9326282D01*
X11927130Y-9323356D01*
X11926924Y-9322858D01*
X11926886Y-9322320D01*
X11925835Y-9319574D01*
X11919882Y-9307669D01*
X11919090Y-9306410D01*
X11918938Y-9306044D01*
X11918600Y-9305632D01*
X11918316Y-9305181D01*
X11918017Y-9304921D01*
X11917073Y-9303771D01*
X11911120Y-9297819D01*
X11909970Y-9296875D01*
X11909711Y-9296575D01*
X11909259Y-9296291D01*
X11908847Y-9295953D01*
X11908481Y-9295801D01*
X11907222Y-9295009D01*
X11895317Y-9289056D01*
X11892571Y-9288005D01*
X11892033Y-9287967D01*
X11891535Y-9287761D01*
X11888609Y-9287473D01*
X11870752Y-9287473D01*
X11867825Y-9287761D01*
X11867328Y-9287967D01*
X11866790Y-9288005D01*
X11864044Y-9289056D01*
X11852139Y-9295009D01*
X11850880Y-9295801D01*
X11850514Y-9295953D01*
X11850101Y-9296291D01*
X11849650Y-9296575D01*
X11849391Y-9296875D01*
X11848241Y-9297818D01*
X11842288Y-9303771D01*
X11841344Y-9304921D01*
X11841045Y-9305181D01*
X11840761Y-9305632D01*
X11840423Y-9306044D01*
X11840271Y-9306410D01*
X11839478Y-9307669D01*
X11833526Y-9319574D01*
X11832475Y-9322320D01*
X11832437Y-9322858D01*
X11832230Y-9323356D01*
X11831942Y-9326282D01*
X11816942Y-9326282D01*
X11816942Y-9183425D01*
X11831942Y-9183425D01*
X11831942Y-9260806D01*
X11832230Y-9263732D01*
X11834470Y-9269140D01*
X11838609Y-9273278D01*
X11844016Y-9275518D01*
X11849869Y-9275518D01*
X11855276Y-9273278D01*
X11859414Y-9269140D01*
X11861654Y-9263732D01*
X11861942Y-9260806D01*
X11861942Y-9216482D01*
X11884684Y-9236380D01*
X11885949Y-9237285D01*
X11886228Y-9237564D01*
X11886492Y-9237673D01*
X11887076Y-9238091D01*
X11889384Y-9238871D01*
X11891635Y-9239804D01*
X11892141Y-9239804D01*
X11892620Y-9239966D01*
X11895052Y-9239804D01*
X11897488Y-9239804D01*
X11897955Y-9239610D01*
X11898460Y-9239576D01*
X11900644Y-9238496D01*
X11902895Y-9237564D01*
X11903253Y-9237206D01*
X11903706Y-9236982D01*
X11905310Y-9235148D01*
X11907033Y-9233425D01*
X11907227Y-9232958D01*
X11907560Y-9232577D01*
X11908341Y-9230269D01*
X11909273Y-9228018D01*
X11909343Y-9227304D01*
X11909435Y-9227033D01*
X11909409Y-9226639D01*
X11909561Y-9225092D01*
X11909561Y-9210776D01*
X11912842Y-9204215D01*
X11915351Y-9201705D01*
X11921912Y-9198425D01*
X11944592Y-9198425D01*
X11951152Y-9201705D01*
X11953662Y-9204215D01*
X11956942Y-9210776D01*
X11956942Y-9239408D01*
X11953662Y-9245968D01*
X11949431Y-9250199D01*
X11947565Y-9252473D01*
X11945326Y-9257880D01*
X11945326Y-9263732D01*
X11947565Y-9269140D01*
X11951704Y-9273278D01*
X11957111Y-9275518D01*
X11962964Y-9275518D01*
X11968371Y-9273278D01*
X11970644Y-9271413D01*
X11976597Y-9265460D01*
X11977541Y-9264310D01*
X11977840Y-9264050D01*
X11978124Y-9263599D01*
X11978462Y-9263187D01*
X11978614Y-9262821D01*
X11979406Y-9261562D01*
X11985359Y-9249657D01*
X11986410Y-9246911D01*
X11986448Y-9246373D01*
X11986654Y-9245875D01*
X11986942Y-9242949D01*
X11986942Y-9207235D01*
X11986654Y-9204308D01*
X11986448Y-9203810D01*
X11986410Y-9203273D01*
X11985359Y-9200527D01*
X11979406Y-9188622D01*
X11978614Y-9187362D01*
X11978462Y-9186996D01*
X11978124Y-9186585D01*
X11977840Y-9186133D01*
X11977540Y-9185873D01*
X11976597Y-9184723D01*
X11970644Y-9178771D01*
X11969494Y-9177827D01*
X11969234Y-9177527D01*
X11968783Y-9177243D01*
X11968371Y-9176905D01*
X11968005Y-9176754D01*
X11966746Y-9175961D01*
X11954841Y-9170009D01*
X11952095Y-9168958D01*
X11951557Y-9168920D01*
X11951059Y-9168713D01*
X11948133Y-9168425D01*
X11918371Y-9168425D01*
X11915444Y-9168713D01*
X11914947Y-9168920D01*
X11914409Y-9168958D01*
X11911663Y-9170009D01*
X11899758Y-9175961D01*
X11898498Y-9176754D01*
X11898132Y-9176905D01*
X11897721Y-9177243D01*
X11897269Y-9177527D01*
X11897010Y-9177827D01*
X11895859Y-9178771D01*
X11889907Y-9184723D01*
X11888963Y-9185873D01*
X11888664Y-9186133D01*
X11888380Y-9186584D01*
X11888042Y-9186996D01*
X11887890Y-9187363D01*
X11887097Y-9188622D01*
X11883616Y-9195583D01*
X11856820Y-9172136D01*
X11855555Y-9171232D01*
X11855276Y-9170953D01*
X11855011Y-9170843D01*
X11854428Y-9170426D01*
X11852119Y-9169646D01*
X11849869Y-9168713D01*
X11849363Y-9168713D01*
X11848883Y-9168551D01*
X11846453Y-9168713D01*
X11844016Y-9168713D01*
X11843548Y-9168907D01*
X11843044Y-9168941D01*
X11840860Y-9170020D01*
X11838609Y-9170953D01*
X11838251Y-9171311D01*
X11837798Y-9171535D01*
X11836193Y-9173369D01*
X11834470Y-9175092D01*
X11834277Y-9175559D01*
X11833943Y-9175940D01*
X11833163Y-9178248D01*
X11832230Y-9180499D01*
X11832160Y-9181212D01*
X11832068Y-9181484D01*
X11832095Y-9181878D01*
X11831942Y-9183425D01*
X11816942Y-9183425D01*
X11816942Y-9153425D01*
X12001942Y-9153425D01*
X12001942Y-9403901D01*
G37*
G36*
X11891628Y-9828753D02*
G01*
X11894138Y-9831263D01*
X11897418Y-9837823D01*
X11897418Y-9866901D01*
X11861942Y-9866901D01*
X11861942Y-9837823D01*
X11865222Y-9831263D01*
X11867732Y-9828753D01*
X11874293Y-9825473D01*
X11885068Y-9825473D01*
X11891628Y-9828753D01*
G37*
G36*
X12001942Y-9911901D02*
G01*
X11816942Y-9911901D01*
X11816942Y-9834282D01*
X11831942Y-9834282D01*
X11831942Y-9881901D01*
X11832230Y-9884828D01*
X11834470Y-9890235D01*
X11838609Y-9894373D01*
X11844016Y-9896613D01*
X11846942Y-9896901D01*
X11971942Y-9896901D01*
X11974869Y-9896613D01*
X11980276Y-9894373D01*
X11984414Y-9890235D01*
X11986654Y-9884828D01*
X11986654Y-9878975D01*
X11984414Y-9873568D01*
X11980276Y-9869429D01*
X11974869Y-9867189D01*
X11971942Y-9866901D01*
X11927418Y-9866901D01*
X11927418Y-9834282D01*
X11927130Y-9831356D01*
X11926924Y-9830858D01*
X11926886Y-9830320D01*
X11925835Y-9827574D01*
X11919882Y-9815669D01*
X11919090Y-9814410D01*
X11918938Y-9814044D01*
X11918600Y-9813632D01*
X11918316Y-9813181D01*
X11918017Y-9812921D01*
X11917073Y-9811771D01*
X11911120Y-9805819D01*
X11909970Y-9804875D01*
X11909711Y-9804575D01*
X11909259Y-9804291D01*
X11908847Y-9803953D01*
X11908481Y-9803801D01*
X11907222Y-9803009D01*
X11895317Y-9797056D01*
X11892571Y-9796005D01*
X11892033Y-9795967D01*
X11891535Y-9795761D01*
X11888609Y-9795473D01*
X11870752Y-9795473D01*
X11867825Y-9795761D01*
X11867328Y-9795967D01*
X11866790Y-9796005D01*
X11864044Y-9797056D01*
X11852139Y-9803009D01*
X11850880Y-9803801D01*
X11850514Y-9803953D01*
X11850101Y-9804291D01*
X11849650Y-9804575D01*
X11849391Y-9804875D01*
X11848241Y-9805818D01*
X11842288Y-9811771D01*
X11841344Y-9812921D01*
X11841045Y-9813181D01*
X11840761Y-9813632D01*
X11840423Y-9814044D01*
X11840271Y-9814410D01*
X11839478Y-9815669D01*
X11833526Y-9827574D01*
X11832475Y-9830320D01*
X11832437Y-9830858D01*
X11832230Y-9831356D01*
X11831942Y-9834282D01*
X11816942Y-9834282D01*
X11816942Y-9715235D01*
X11831942Y-9715235D01*
X11831942Y-9744997D01*
X11832230Y-9747923D01*
X11832437Y-9748421D01*
X11832475Y-9748958D01*
X11833526Y-9751705D01*
X11839478Y-9763610D01*
X11840271Y-9764869D01*
X11840423Y-9765235D01*
X11840761Y-9765647D01*
X11841045Y-9766098D01*
X11841344Y-9766358D01*
X11842288Y-9767508D01*
X11848240Y-9773460D01*
X11850514Y-9775326D01*
X11855921Y-9777565D01*
X11861773Y-9777565D01*
X11867181Y-9775326D01*
X11871319Y-9771187D01*
X11873559Y-9765780D01*
X11873559Y-9759927D01*
X11871319Y-9754520D01*
X11869454Y-9752247D01*
X11865222Y-9748016D01*
X11861942Y-9741455D01*
X11861942Y-9718776D01*
X11865222Y-9712215D01*
X11867732Y-9709705D01*
X11874293Y-9706425D01*
X11880222Y-9706425D01*
X11892411Y-9710488D01*
X11961336Y-9779413D01*
X11963609Y-9781278D01*
X11967432Y-9782862D01*
X11969016Y-9783518D01*
X11969016Y-9783518D01*
X11974869Y-9783518D01*
X11974869Y-9783518D01*
X11977108Y-9782590D01*
X11980276Y-9781278D01*
X11984414Y-9777140D01*
X11985938Y-9773460D01*
X11986654Y-9771732D01*
X11986942Y-9768806D01*
X11986942Y-9691425D01*
X11986654Y-9688499D01*
X11984414Y-9683092D01*
X11980276Y-9678953D01*
X11974869Y-9676713D01*
X11969016Y-9676713D01*
X11963609Y-9678953D01*
X11959470Y-9683092D01*
X11957230Y-9688499D01*
X11956942Y-9691425D01*
X11956942Y-9732593D01*
X11911120Y-9686771D01*
X11908847Y-9684905D01*
X11908349Y-9684699D01*
X11907942Y-9684346D01*
X11905257Y-9683147D01*
X11887400Y-9677195D01*
X11885949Y-9676865D01*
X11885583Y-9676713D01*
X11885053Y-9676661D01*
X11884533Y-9676543D01*
X11884137Y-9676571D01*
X11882657Y-9676425D01*
X11870752Y-9676425D01*
X11867825Y-9676713D01*
X11867328Y-9676920D01*
X11866790Y-9676958D01*
X11864044Y-9678009D01*
X11852139Y-9683961D01*
X11850879Y-9684754D01*
X11850514Y-9684905D01*
X11850102Y-9685243D01*
X11849650Y-9685527D01*
X11849391Y-9685827D01*
X11848240Y-9686771D01*
X11842288Y-9692723D01*
X11841344Y-9693873D01*
X11841045Y-9694133D01*
X11840761Y-9694584D01*
X11840423Y-9694996D01*
X11840271Y-9695362D01*
X11839478Y-9696622D01*
X11833526Y-9708526D01*
X11832475Y-9711273D01*
X11832437Y-9711810D01*
X11832230Y-9712308D01*
X11831942Y-9715235D01*
X11816942Y-9715235D01*
X11816942Y-9661425D01*
X12001942Y-9661425D01*
X12001942Y-9911901D01*
G37*
G36*
X11891628Y-10336753D02*
G01*
X11894138Y-10339263D01*
X11897418Y-10345823D01*
X11897418Y-10374901D01*
X11861942Y-10374901D01*
X11861942Y-10345823D01*
X11865222Y-10339263D01*
X11867732Y-10336753D01*
X11874293Y-10333473D01*
X11885068Y-10333473D01*
X11891628Y-10336753D01*
G37*
G36*
X12001942Y-10419901D02*
G01*
X11816942Y-10419901D01*
X11816942Y-10342282D01*
X11831942Y-10342282D01*
X11831942Y-10389901D01*
X11832230Y-10392828D01*
X11834470Y-10398235D01*
X11838609Y-10402373D01*
X11844016Y-10404613D01*
X11846942Y-10404901D01*
X11971942Y-10404901D01*
X11974869Y-10404613D01*
X11980276Y-10402373D01*
X11984414Y-10398235D01*
X11986654Y-10392828D01*
X11986654Y-10386975D01*
X11984414Y-10381568D01*
X11980276Y-10377429D01*
X11974869Y-10375189D01*
X11971942Y-10374901D01*
X11927418Y-10374901D01*
X11927418Y-10342282D01*
X11927130Y-10339356D01*
X11926924Y-10338858D01*
X11926886Y-10338320D01*
X11925835Y-10335574D01*
X11919882Y-10323669D01*
X11919090Y-10322410D01*
X11918938Y-10322044D01*
X11918600Y-10321632D01*
X11918316Y-10321181D01*
X11918017Y-10320921D01*
X11917073Y-10319771D01*
X11911120Y-10313819D01*
X11909970Y-10312875D01*
X11909711Y-10312575D01*
X11909259Y-10312291D01*
X11908847Y-10311953D01*
X11908481Y-10311801D01*
X11907222Y-10311009D01*
X11895317Y-10305056D01*
X11892571Y-10304005D01*
X11892033Y-10303967D01*
X11891535Y-10303761D01*
X11888609Y-10303473D01*
X11870752Y-10303473D01*
X11867825Y-10303761D01*
X11867328Y-10303967D01*
X11866790Y-10304005D01*
X11864044Y-10305056D01*
X11852139Y-10311009D01*
X11850880Y-10311801D01*
X11850514Y-10311953D01*
X11850101Y-10312291D01*
X11849650Y-10312575D01*
X11849391Y-10312875D01*
X11848241Y-10313818D01*
X11842288Y-10319771D01*
X11841344Y-10320921D01*
X11841045Y-10321181D01*
X11840761Y-10321632D01*
X11840423Y-10322044D01*
X11840271Y-10322410D01*
X11839478Y-10323669D01*
X11833526Y-10335574D01*
X11832475Y-10338320D01*
X11832437Y-10338858D01*
X11832230Y-10339356D01*
X11831942Y-10342282D01*
X11816942Y-10342282D01*
X11816942Y-10235155D01*
X11831942Y-10235155D01*
X11832230Y-10236596D01*
X11832230Y-10238066D01*
X11832799Y-10239438D01*
X11833090Y-10240894D01*
X11833908Y-10242115D01*
X11834470Y-10243473D01*
X11835520Y-10244523D01*
X11836347Y-10245757D01*
X11838598Y-10247601D01*
X11838609Y-10247611D01*
X11838613Y-10247613D01*
X11838622Y-10247620D01*
X11855243Y-10258701D01*
X11864376Y-10267834D01*
X11869240Y-10277562D01*
X11870807Y-10280050D01*
X11875228Y-10283885D01*
X11880780Y-10285736D01*
X11886618Y-10285321D01*
X11891853Y-10282704D01*
X11895688Y-10278282D01*
X11897539Y-10272730D01*
X11897124Y-10266892D01*
X11896073Y-10264145D01*
X11890121Y-10252241D01*
X11889328Y-10250982D01*
X11889176Y-10250615D01*
X11888838Y-10250203D01*
X11888798Y-10250139D01*
X11956942Y-10250139D01*
X11956942Y-10270854D01*
X11957230Y-10273780D01*
X11959470Y-10279187D01*
X11963609Y-10283326D01*
X11969016Y-10285565D01*
X11974869Y-10285565D01*
X11980276Y-10283326D01*
X11984414Y-10279187D01*
X11986654Y-10273780D01*
X11986942Y-10270854D01*
X11986942Y-10199425D01*
X11986654Y-10196499D01*
X11984414Y-10191092D01*
X11980276Y-10186953D01*
X11974869Y-10184713D01*
X11969016Y-10184713D01*
X11963609Y-10186953D01*
X11959470Y-10191092D01*
X11957230Y-10196499D01*
X11956942Y-10199425D01*
X11956942Y-10220139D01*
X11846942Y-10220139D01*
X11846932Y-10220140D01*
X11846926Y-10220139D01*
X11846911Y-10220142D01*
X11844016Y-10220428D01*
X11842644Y-10220996D01*
X11841188Y-10221287D01*
X11839966Y-10222105D01*
X11838609Y-10222667D01*
X11837559Y-10223717D01*
X11836325Y-10224544D01*
X11835509Y-10225767D01*
X11834470Y-10226806D01*
X11833902Y-10228178D01*
X11833078Y-10229414D01*
X11832793Y-10230855D01*
X11832230Y-10232213D01*
X11832230Y-10233698D01*
X11831942Y-10235155D01*
X11816942Y-10235155D01*
X11816942Y-10169713D01*
X12001942Y-10169713D01*
X12001942Y-10419901D01*
G37*
%TO.C,D402*%
D14*
X11078500Y-9955000D02*
X11078500Y-9725000D01*
X11368500Y-9955000D02*
X11078500Y-9955000D01*
X11368500Y-9955000D02*
X11398500Y-9925000D01*
X11398500Y-9725000D02*
X11078500Y-9725000D01*
X11398500Y-9725000D02*
X11398500Y-9925000D01*
%TO.C,R605*%
X11235510Y-8930568D02*
X11235510Y-8981512D01*
X11340010Y-8930568D02*
X11340010Y-8981512D01*
%TO.C,C302*%
X11171000Y-8567373D02*
X11171000Y-8596627D01*
X11273000Y-8567373D02*
X11273000Y-8596627D01*
%TO.C,C402*%
X10929000Y-10164627D02*
X10929000Y-10135373D01*
X11031000Y-10164627D02*
X11031000Y-10135373D01*
%TO.C,U303*%
X11746000Y-7608000D02*
X11746000Y-7684000D01*
X11746000Y-7684000D02*
X11854000Y-7684000D01*
X11778000Y-7576000D02*
X11854000Y-7576000D01*
X11854000Y-7684000D02*
X11854000Y-7576000D01*
X11746000Y-7576000D02*
X11696000Y-7576000D01*
X11746000Y-7526000D01*
X11746000Y-7576000D01*
G36*
X11746000Y-7576000D02*
G01*
X11696000Y-7576000D01*
X11746000Y-7526000D01*
X11746000Y-7576000D01*
G37*
D15*
%TO.C,G401*%
G36*
X10522778Y-7721196D02*
G01*
X10528312Y-7722245D01*
X10533102Y-7724281D01*
X10537263Y-7727345D01*
X10538955Y-7729065D01*
X10541663Y-7732826D01*
X10543284Y-7736986D01*
X10543917Y-7741821D01*
X10543934Y-7742872D01*
X10543497Y-7747807D01*
X10542109Y-7752028D01*
X10539651Y-7755857D01*
X10538795Y-7756857D01*
X10535020Y-7760279D01*
X10530686Y-7762698D01*
X10525662Y-7764159D01*
X10519814Y-7764709D01*
X10516211Y-7764640D01*
X10513031Y-7764422D01*
X10510664Y-7764074D01*
X10508594Y-7763463D01*
X10506307Y-7762457D01*
X10504853Y-7761730D01*
X10500329Y-7758881D01*
X10496963Y-7755479D01*
X10494668Y-7751388D01*
X10493353Y-7746473D01*
X10493054Y-7743926D01*
X10493074Y-7741181D01*
X10493444Y-7738353D01*
X10493645Y-7737510D01*
X10495696Y-7732431D01*
X10498708Y-7728259D01*
X10502653Y-7725014D01*
X10507503Y-7722716D01*
X10513229Y-7721388D01*
X10516387Y-7721095D01*
X10522778Y-7721196D01*
G37*
G36*
X10527259Y-7649105D02*
G01*
X10538290Y-7650761D01*
X10548683Y-7653582D01*
X10558462Y-7657578D01*
X10567649Y-7662760D01*
X10576267Y-7669139D01*
X10583908Y-7676277D01*
X10590864Y-7684363D01*
X10596667Y-7693020D01*
X10601372Y-7702350D01*
X10605034Y-7712453D01*
X10606230Y-7716778D01*
X10608049Y-7723937D01*
X10608049Y-7921928D01*
X10608048Y-7941159D01*
X10608048Y-7959107D01*
X10608046Y-7975817D01*
X10608043Y-7991336D01*
X10608039Y-8005708D01*
X10608033Y-8018979D01*
X10608025Y-8031195D01*
X10608015Y-8042402D01*
X10608002Y-8052644D01*
X10607987Y-8061969D01*
X10607968Y-8070421D01*
X10607946Y-8078045D01*
X10607920Y-8084888D01*
X10607891Y-8090996D01*
X10607857Y-8096413D01*
X10607818Y-8101185D01*
X10607775Y-8105359D01*
X10607727Y-8108979D01*
X10607674Y-8112091D01*
X10607615Y-8114741D01*
X10607550Y-8116975D01*
X10607478Y-8118837D01*
X10607401Y-8120375D01*
X10607316Y-8121632D01*
X10607225Y-8122655D01*
X10607126Y-8123490D01*
X10607020Y-8124182D01*
X10606906Y-8124777D01*
X10606804Y-8125234D01*
X10603639Y-8136030D01*
X10599380Y-8146124D01*
X10594068Y-8155465D01*
X10587743Y-8164000D01*
X10580443Y-8171678D01*
X10572207Y-8178448D01*
X10563077Y-8184258D01*
X10560609Y-8185580D01*
X10551455Y-8189732D01*
X10542281Y-8192692D01*
X10532819Y-8194525D01*
X10522800Y-8195294D01*
X10520046Y-8195328D01*
X10509003Y-8194732D01*
X10498526Y-8192935D01*
X10488584Y-8189927D01*
X10479148Y-8185694D01*
X10470188Y-8180226D01*
X10461676Y-8173510D01*
X10458565Y-8170640D01*
X10451499Y-8163131D01*
X10445554Y-8155203D01*
X10440640Y-8146696D01*
X10436669Y-8137449D01*
X10433551Y-8127303D01*
X10432840Y-8124370D01*
X10431892Y-8120251D01*
X10467100Y-8120251D01*
X10467196Y-8126563D01*
X10480568Y-8126742D01*
X10493940Y-8126922D01*
X10494221Y-8121049D01*
X10494786Y-8116300D01*
X10496050Y-8112479D01*
X10498130Y-8109318D01*
X10500165Y-8107329D01*
X10504427Y-8104508D01*
X10509318Y-8102550D01*
X10514596Y-8101447D01*
X10520022Y-8101192D01*
X10525356Y-8101777D01*
X10530357Y-8103197D01*
X10534785Y-8105442D01*
X10538389Y-8108492D01*
X10540869Y-8111720D01*
X10542396Y-8115030D01*
X10543130Y-8118852D01*
X10543255Y-8121759D01*
X10543270Y-8126922D01*
X10557056Y-8126742D01*
X10570842Y-8126563D01*
X10570735Y-8118258D01*
X10570399Y-8111645D01*
X10569504Y-8105837D01*
X10567949Y-8100390D01*
X10565630Y-8094860D01*
X10565051Y-8093675D01*
X10561789Y-8088335D01*
X10557551Y-8083215D01*
X10552662Y-8078642D01*
X10547446Y-8074946D01*
X10545557Y-8073898D01*
X10541206Y-8071807D01*
X10537239Y-8070265D01*
X10533313Y-8069198D01*
X10529083Y-8068530D01*
X10524206Y-8068188D01*
X10518687Y-8068098D01*
X10513365Y-8068162D01*
X10509035Y-8068399D01*
X10505363Y-8068879D01*
X10502016Y-8069671D01*
X10498660Y-8070844D01*
X10494963Y-8072468D01*
X10492884Y-8073469D01*
X10486411Y-8077372D01*
X10480788Y-8082282D01*
X10476079Y-8088138D01*
X10473391Y-8092705D01*
X10470586Y-8098817D01*
X10468669Y-8104638D01*
X10467542Y-8110607D01*
X10467102Y-8117163D01*
X10467100Y-8120251D01*
X10431892Y-8120251D01*
X10431358Y-8117926D01*
X10431245Y-8027900D01*
X10468192Y-8027900D01*
X10468192Y-8044510D01*
X10468192Y-8061120D01*
X10518687Y-8061120D01*
X10519019Y-8061120D01*
X10569846Y-8061120D01*
X10569846Y-8044510D01*
X10569846Y-8027900D01*
X10519019Y-8027900D01*
X10468192Y-8027900D01*
X10431245Y-8027900D01*
X10431196Y-7988036D01*
X10468192Y-7988036D01*
X10468192Y-8004646D01*
X10468192Y-8021256D01*
X10519019Y-8021256D01*
X10569846Y-8021256D01*
X10569846Y-8004646D01*
X10569846Y-7988036D01*
X10519019Y-7988036D01*
X10468192Y-7988036D01*
X10431196Y-7988036D01*
X10431159Y-7958304D01*
X10431054Y-7874180D01*
X10468192Y-7874180D01*
X10498921Y-7883704D01*
X10505054Y-7885610D01*
X10510799Y-7887407D01*
X10516033Y-7889055D01*
X10520629Y-7890514D01*
X10524464Y-7891744D01*
X10527412Y-7892705D01*
X10529348Y-7893357D01*
X10530148Y-7893661D01*
X10530158Y-7893668D01*
X10529645Y-7893944D01*
X10527978Y-7894565D01*
X10525278Y-7895494D01*
X10521663Y-7896692D01*
X10517251Y-7898120D01*
X10512161Y-7899739D01*
X10506513Y-7901510D01*
X10500425Y-7903394D01*
X10499430Y-7903700D01*
X10468194Y-7913291D01*
X10468193Y-7929905D01*
X10468192Y-7946519D01*
X10518590Y-7964952D01*
X10526411Y-7967810D01*
X10533870Y-7970533D01*
X10540875Y-7973086D01*
X10547331Y-7975436D01*
X10553143Y-7977547D01*
X10558219Y-7979387D01*
X10562463Y-7980920D01*
X10565783Y-7982113D01*
X10568083Y-7982932D01*
X10569271Y-7983342D01*
X10569416Y-7983385D01*
X10569535Y-7982750D01*
X10569641Y-7980968D01*
X10569730Y-7978217D01*
X10569797Y-7974679D01*
X10569837Y-7970533D01*
X10569846Y-7967233D01*
X10569846Y-7951081D01*
X10537456Y-7941563D01*
X10531085Y-7939687D01*
X10525054Y-7937904D01*
X10519491Y-7936252D01*
X10514527Y-7934770D01*
X10510290Y-7933497D01*
X10506911Y-7932472D01*
X10504519Y-7931734D01*
X10503244Y-7931321D01*
X10503124Y-7931277D01*
X10502792Y-7931130D01*
X10502601Y-7930971D01*
X10502626Y-7930777D01*
X10502942Y-7930525D01*
X10503623Y-7930190D01*
X10504745Y-7929749D01*
X10506381Y-7929178D01*
X10508607Y-7928454D01*
X10511497Y-7927553D01*
X10515126Y-7926452D01*
X10519569Y-7925126D01*
X10524900Y-7923553D01*
X10531195Y-7921708D01*
X10538527Y-7919568D01*
X10546973Y-7917109D01*
X10556605Y-7914308D01*
X10558551Y-7913742D01*
X10569513Y-7910555D01*
X10569691Y-7894526D01*
X10569869Y-7878497D01*
X10564376Y-7876841D01*
X10562565Y-7876304D01*
X10559642Y-7875448D01*
X10555769Y-7874321D01*
X10551112Y-7872969D01*
X10545833Y-7871442D01*
X10540098Y-7869785D01*
X10534071Y-7868048D01*
X10530646Y-7867062D01*
X10524756Y-7865361D01*
X10519259Y-7863762D01*
X10514289Y-7862304D01*
X10509976Y-7861026D01*
X10506453Y-7859967D01*
X10503850Y-7859166D01*
X10502300Y-7858664D01*
X10501911Y-7858509D01*
X10502432Y-7858246D01*
X10504114Y-7857647D01*
X10506841Y-7856751D01*
X10510497Y-7855591D01*
X10514967Y-7854205D01*
X10520135Y-7852628D01*
X10525886Y-7850897D01*
X10532104Y-7849047D01*
X10534913Y-7848217D01*
X10541344Y-7846320D01*
X10547397Y-7844526D01*
X10552950Y-7842871D01*
X10557882Y-7841393D01*
X10562073Y-7840127D01*
X10565401Y-7839110D01*
X10567744Y-7838380D01*
X10568983Y-7837971D01*
X10569141Y-7837906D01*
X10569390Y-7837197D01*
X10569570Y-7835386D01*
X10569682Y-7832421D01*
X10569728Y-7828249D01*
X10569710Y-7822819D01*
X10569691Y-7820791D01*
X10569513Y-7804126D01*
X10518864Y-7822498D01*
X10468215Y-7840871D01*
X10468204Y-7857525D01*
X10468192Y-7874180D01*
X10431054Y-7874180D01*
X10430960Y-7798682D01*
X10500403Y-7798682D01*
X10569513Y-7798682D01*
X10569846Y-7798682D01*
X10569846Y-7781739D01*
X10569846Y-7764797D01*
X10563390Y-7764797D01*
X10556935Y-7764797D01*
X10560336Y-7761309D01*
X10564626Y-7756124D01*
X10567851Y-7750377D01*
X10569246Y-7746858D01*
X10570086Y-7743435D01*
X10570623Y-7739123D01*
X10570852Y-7734328D01*
X10570766Y-7729455D01*
X10570361Y-7724911D01*
X10569630Y-7721102D01*
X10569603Y-7721004D01*
X10566938Y-7713769D01*
X10563168Y-7707249D01*
X10558345Y-7701508D01*
X10552521Y-7696608D01*
X10546259Y-7692865D01*
X10540102Y-7690367D01*
X10533132Y-7688553D01*
X10525705Y-7687480D01*
X10518179Y-7687204D01*
X10512535Y-7687570D01*
X10507194Y-7688291D01*
X10502725Y-7689186D01*
X10498673Y-7690384D01*
X10494582Y-7692012D01*
X10491446Y-7693478D01*
X10485142Y-7697233D01*
X10479600Y-7701907D01*
X10474988Y-7707334D01*
X10471651Y-7712974D01*
X10468861Y-7720218D01*
X10467281Y-7727836D01*
X10466864Y-7734732D01*
X10467445Y-7742013D01*
X10469178Y-7748683D01*
X10472047Y-7754702D01*
X10476035Y-7760025D01*
X10476828Y-7760862D01*
X10480678Y-7764797D01*
X10455832Y-7764797D01*
X10430986Y-7764797D01*
X10431098Y-7748686D01*
X10431139Y-7744028D01*
X10431195Y-7739673D01*
X10431261Y-7735841D01*
X10431333Y-7732756D01*
X10431407Y-7730640D01*
X10431452Y-7729916D01*
X10433046Y-7719465D01*
X10435843Y-7709362D01*
X10439769Y-7699709D01*
X10444749Y-7690607D01*
X10450708Y-7682157D01*
X10457570Y-7674458D01*
X10465262Y-7667612D01*
X10473709Y-7661719D01*
X10482834Y-7656880D01*
X10487128Y-7655079D01*
X10497165Y-7651821D01*
X10507338Y-7649720D01*
X10517447Y-7648806D01*
X10527259Y-7649105D01*
G37*
%TO.C,C401*%
D14*
X10929000Y-9824627D02*
X10929000Y-9795373D01*
X11031000Y-9824627D02*
X11031000Y-9795373D01*
%TO.C,R606*%
X11235510Y-9270928D02*
X11235510Y-9321872D01*
X11340010Y-9270928D02*
X11340010Y-9321872D01*
%TO.C,C304*%
X11852363Y-7812840D02*
X11881617Y-7812840D01*
X11852363Y-7914840D02*
X11881617Y-7914840D01*
%TO.C,SW401*%
D16*
X12198200Y-8616800D02*
X12198200Y-8756800D01*
X12338200Y-8616800D02*
X12338200Y-8756800D01*
X12312921Y-8686800D02*
G75*
G02*
X12223479Y-8686800I-44721J0D01*
G01*
X12223479Y-8686800D02*
G75*
G02*
X12312921Y-8686800I44721J0D01*
G01*
%TO.C,R603*%
D14*
X11552038Y-9858830D02*
X11602982Y-9858830D01*
X11552038Y-9963330D02*
X11602982Y-9963330D01*
%TO.C,D404*%
X11080000Y-10295000D02*
X11080000Y-10065000D01*
X11370000Y-10295000D02*
X11080000Y-10295000D01*
X11370000Y-10295000D02*
X11400000Y-10265000D01*
X11400000Y-10065000D02*
X11080000Y-10065000D01*
X11400000Y-10065000D02*
X11400000Y-10265000D01*
%TO.C,J403*%
X9882000Y-5897000D02*
X10020000Y-5897000D01*
X9882000Y-6035000D02*
X9882000Y-5897000D01*
X9882000Y-6162000D02*
X9882000Y-7443000D01*
X9882000Y-6162000D02*
X10158000Y-6162000D01*
X9882000Y-7443000D02*
X10158000Y-7443000D01*
X10158000Y-6162000D02*
X10158000Y-7443000D01*
%TO.C,Q603*%
X11511720Y-8993080D02*
X11693720Y-8993080D01*
X11511720Y-8998080D02*
X11511720Y-8993080D01*
X11511720Y-9188080D02*
X11511720Y-9110080D01*
X11511720Y-9305080D02*
X11511720Y-9300080D01*
X11693720Y-8993080D02*
X11693720Y-9093080D01*
X11693720Y-9205080D02*
X11693720Y-9305080D01*
X11693720Y-9305080D02*
X11511720Y-9305080D01*
X11457720Y-9111080D02*
X11481720Y-9144080D01*
X11433720Y-9144080D01*
X11457720Y-9111080D01*
G36*
X11481720Y-9144080D02*
G01*
X11433720Y-9144080D01*
X11457720Y-9111080D01*
X11481720Y-9144080D01*
G37*
%TO.C,R403*%
X10641150Y-7787902D02*
X10641150Y-7736958D01*
X10745650Y-7787902D02*
X10745650Y-7736958D01*
%TO.C,U301*%
X10257000Y-5892000D02*
X10257000Y-7464000D01*
X11388000Y-5892000D02*
X10257000Y-5892000D01*
X11829000Y-5892000D02*
X11458000Y-5892000D01*
X11829000Y-5892000D02*
X11829000Y-7464000D01*
X11829000Y-7464000D02*
X10257000Y-7464000D01*
X11423000Y-5892000D02*
X11399000Y-5859000D01*
X11447000Y-5859000D01*
X11423000Y-5892000D01*
G36*
X11423000Y-5892000D02*
G01*
X11399000Y-5859000D01*
X11447000Y-5859000D01*
X11423000Y-5892000D01*
G37*
%TO.C,J405*%
X9842000Y-9496000D02*
X9842000Y-9628000D01*
X9842000Y-9688000D02*
X9842000Y-10582000D01*
X9904000Y-9496000D02*
X9904000Y-10582000D01*
X10434000Y-9496000D02*
X10434000Y-10582000D01*
X10486000Y-9496000D02*
X9842000Y-9496000D01*
X10486000Y-9496000D02*
X10486000Y-10582000D01*
X10486000Y-10582000D02*
X9842000Y-10582000D01*
X9842000Y-9658000D02*
X9781000Y-9702000D01*
X9781000Y-9614000D01*
X9842000Y-9658000D01*
G36*
X9842000Y-9658000D02*
G01*
X9781000Y-9702000D01*
X9781000Y-9614000D01*
X9842000Y-9658000D01*
G37*
D15*
%TO.C,G\u002A\u002A\u002A*%
G36*
X11946230Y-6063976D02*
G01*
X11954314Y-6064482D01*
X11960599Y-6065529D01*
X11965362Y-6067212D01*
X11968883Y-6069627D01*
X11971307Y-6072650D01*
X11973565Y-6078097D01*
X11974323Y-6084090D01*
X11973633Y-6090041D01*
X11971547Y-6095359D01*
X11968992Y-6098684D01*
X11965446Y-6101425D01*
X11961044Y-6103440D01*
X11955424Y-6104838D01*
X11948225Y-6105726D01*
X11944658Y-6105973D01*
X11933216Y-6106627D01*
X11933216Y-6085109D01*
X11933216Y-6063592D01*
X11946230Y-6063976D01*
G37*
G36*
X12249255Y-6052670D02*
G01*
X12257027Y-6052708D01*
X12263040Y-6052826D01*
X12267663Y-6053052D01*
X12271262Y-6053410D01*
X12274204Y-6053927D01*
X12276854Y-6054630D01*
X12276866Y-6054633D01*
X12283612Y-6057729D01*
X12289075Y-6062335D01*
X12293120Y-6068176D01*
X12295616Y-6074977D01*
X12296429Y-6082461D01*
X12295426Y-6090353D01*
X12294952Y-6092103D01*
X12291977Y-6098449D01*
X12287144Y-6103931D01*
X12280877Y-6108230D01*
X12275317Y-6111217D01*
X12287616Y-6131334D01*
X12291336Y-6137420D01*
X12294805Y-6143093D01*
X12297827Y-6148035D01*
X12300204Y-6151922D01*
X12301741Y-6154436D01*
X12302055Y-6154951D01*
X12304196Y-6158450D01*
X12296006Y-6158137D01*
X12287817Y-6157825D01*
X12275360Y-6136579D01*
X12262903Y-6115332D01*
X12252096Y-6115030D01*
X12241288Y-6114727D01*
X12241288Y-6136542D01*
X12241288Y-6158356D01*
X12234373Y-6158356D01*
X12227458Y-6158356D01*
X12227734Y-6105506D01*
X12227745Y-6103369D01*
X12241239Y-6103369D01*
X12254808Y-6102942D01*
X12260639Y-6102717D01*
X12264829Y-6102416D01*
X12267864Y-6101959D01*
X12270227Y-6101264D01*
X12272402Y-6100251D01*
X12273052Y-6099894D01*
X12277313Y-6096733D01*
X12280033Y-6092715D01*
X12281399Y-6087469D01*
X12281652Y-6082948D01*
X12281184Y-6077172D01*
X12279669Y-6072647D01*
X12276925Y-6069250D01*
X12272772Y-6066857D01*
X12267031Y-6065346D01*
X12259522Y-6064593D01*
X12254607Y-6064457D01*
X12241819Y-6064341D01*
X12241529Y-6083855D01*
X12241239Y-6103369D01*
X12227745Y-6103369D01*
X12228009Y-6052656D01*
X12249255Y-6052670D01*
G37*
G36*
X12040069Y-5897405D02*
G01*
X12039582Y-5899990D01*
X12038816Y-5903446D01*
X12037086Y-5911349D01*
X12035179Y-5920985D01*
X12033155Y-5931978D01*
X12031076Y-5943949D01*
X12029001Y-5956520D01*
X12026993Y-5969315D01*
X12025112Y-5981955D01*
X12023418Y-5994063D01*
X12021974Y-6005262D01*
X12020919Y-6014412D01*
X12019725Y-6027113D01*
X12018721Y-6040895D01*
X12017907Y-6055530D01*
X12017279Y-6070794D01*
X12016838Y-6086459D01*
X12016579Y-6102299D01*
X12016503Y-6118089D01*
X12016608Y-6133601D01*
X12016891Y-6148611D01*
X12017351Y-6162890D01*
X12017986Y-6176213D01*
X12018795Y-6188355D01*
X12019776Y-6199087D01*
X12020927Y-6208185D01*
X12022246Y-6215422D01*
X12022439Y-6216253D01*
X12022943Y-6219392D01*
X12022480Y-6221563D01*
X12021627Y-6222888D01*
X12019917Y-6225009D01*
X12017189Y-6228269D01*
X12013652Y-6232428D01*
X12009514Y-6237247D01*
X12004986Y-6242484D01*
X12000276Y-6247900D01*
X11995595Y-6253256D01*
X11991151Y-6258311D01*
X11987154Y-6262825D01*
X11983814Y-6266559D01*
X11981339Y-6269273D01*
X11979940Y-6270727D01*
X11979713Y-6270907D01*
X11978956Y-6270041D01*
X11978305Y-6268041D01*
X11977697Y-6265772D01*
X11976590Y-6262107D01*
X11975172Y-6257658D01*
X11974360Y-6255196D01*
X11972775Y-6250652D01*
X11971646Y-6247950D01*
X11970864Y-6246886D01*
X11970320Y-6247253D01*
X11970253Y-6247419D01*
X11969604Y-6249917D01*
X11968804Y-6254141D01*
X11967908Y-6259706D01*
X11966968Y-6266222D01*
X11966038Y-6273301D01*
X11965170Y-6280557D01*
X11964419Y-6287602D01*
X11963838Y-6294047D01*
X11963820Y-6294270D01*
X11963346Y-6299814D01*
X11962872Y-6304515D01*
X11962441Y-6308011D01*
X11962095Y-6309938D01*
X11961964Y-6310199D01*
X11960888Y-6309548D01*
X11958670Y-6307916D01*
X11956056Y-6305869D01*
X11939171Y-6291023D01*
X11923954Y-6274973D01*
X11910440Y-6257842D01*
X11898666Y-6239747D01*
X11888667Y-6220809D01*
X11880479Y-6201148D01*
X11874139Y-6180883D01*
X11869682Y-6160135D01*
X11867144Y-6139022D01*
X11866562Y-6117665D01*
X11867377Y-6105240D01*
X11920468Y-6105240D01*
X11920468Y-6158356D01*
X11926842Y-6158356D01*
X11933216Y-6158356D01*
X11933216Y-6137782D01*
X11933216Y-6117208D01*
X11946761Y-6116654D01*
X11956700Y-6115857D01*
X11964865Y-6114283D01*
X11971497Y-6111824D01*
X11976840Y-6108368D01*
X11981136Y-6103804D01*
X11983676Y-6099844D01*
X11985157Y-6096999D01*
X11986093Y-6094527D01*
X11986606Y-6091792D01*
X11986822Y-6088155D01*
X11986863Y-6083463D01*
X11986801Y-6078339D01*
X11986546Y-6074736D01*
X11985994Y-6072049D01*
X11985040Y-6069676D01*
X11984207Y-6068109D01*
X11981157Y-6063652D01*
X11977367Y-6060037D01*
X11972627Y-6057196D01*
X11966728Y-6055061D01*
X11959459Y-6053563D01*
X11950610Y-6052634D01*
X11939972Y-6052206D01*
X11935075Y-6052159D01*
X11920468Y-6052125D01*
X11920468Y-6105240D01*
X11867377Y-6105240D01*
X11867971Y-6096183D01*
X11871407Y-6074696D01*
X11876906Y-6053325D01*
X11877290Y-6052125D01*
X11878610Y-6048004D01*
X11886507Y-6027620D01*
X11896242Y-6008187D01*
X11907704Y-5989817D01*
X11920781Y-5972622D01*
X11935362Y-5956714D01*
X11951334Y-5942205D01*
X11968586Y-5929207D01*
X11987006Y-5917832D01*
X12006482Y-5908192D01*
X12025593Y-5900832D01*
X12030723Y-5899140D01*
X12035075Y-5897750D01*
X12038284Y-5896775D01*
X12039984Y-5896328D01*
X12040157Y-5896319D01*
X12040069Y-5897405D01*
G37*
G36*
X12095574Y-5737170D02*
G01*
X12095685Y-5738519D01*
X12095788Y-5740734D01*
X12095882Y-5743880D01*
X12095968Y-5748021D01*
X12096046Y-5753221D01*
X12096116Y-5759544D01*
X12096178Y-5767055D01*
X12096233Y-5775816D01*
X12096282Y-5785894D01*
X12096323Y-5797352D01*
X12096358Y-5810254D01*
X12096388Y-5824664D01*
X12096411Y-5840646D01*
X12096429Y-5858265D01*
X12096441Y-5877586D01*
X12096449Y-5898671D01*
X12096452Y-5921585D01*
X12096450Y-5946393D01*
X12096445Y-5973159D01*
X12096436Y-6001946D01*
X12096428Y-6020255D01*
X12096415Y-6045738D01*
X12096399Y-6070992D01*
X12096379Y-6095912D01*
X12096356Y-6120392D01*
X12096330Y-6144327D01*
X12096301Y-6167610D01*
X12096269Y-6190137D01*
X12096235Y-6211802D01*
X12096199Y-6232499D01*
X12096160Y-6252123D01*
X12096120Y-6270567D01*
X12096079Y-6287728D01*
X12096035Y-6303498D01*
X12095991Y-6317774D01*
X12095946Y-6330447D01*
X12095900Y-6341415D01*
X12095853Y-6350570D01*
X12095806Y-6357807D01*
X12095761Y-6362852D01*
X12095219Y-6411719D01*
X12090306Y-6404283D01*
X12086616Y-6398267D01*
X12082485Y-6390804D01*
X12078196Y-6382445D01*
X12074031Y-6373740D01*
X12070272Y-6365241D01*
X12070205Y-6365082D01*
X12067910Y-6359940D01*
X12066024Y-6356584D01*
X12064331Y-6354767D01*
X12062617Y-6354244D01*
X12061018Y-6354619D01*
X12059810Y-6355407D01*
X12057088Y-6357370D01*
X12053020Y-6360382D01*
X12047773Y-6364318D01*
X12041513Y-6369051D01*
X12034406Y-6374456D01*
X12026621Y-6380407D01*
X12018323Y-6386778D01*
X12015927Y-6388622D01*
X12006020Y-6396270D01*
X11997678Y-6402745D01*
X11990773Y-6408157D01*
X11985176Y-6412611D01*
X11980755Y-6416217D01*
X11977382Y-6419081D01*
X11974927Y-6421312D01*
X11973260Y-6423017D01*
X11972252Y-6424303D01*
X11971774Y-6425272D01*
X11970725Y-6428716D01*
X11970023Y-6423936D01*
X11968754Y-6413354D01*
X11967761Y-6401027D01*
X11967043Y-6387319D01*
X11966600Y-6372591D01*
X11966435Y-6357206D01*
X11966545Y-6341525D01*
X11966933Y-6325912D01*
X11967597Y-6310729D01*
X11968539Y-6296338D01*
X11969758Y-6283102D01*
X11969913Y-6281696D01*
X11970487Y-6276499D01*
X11970964Y-6272010D01*
X11971296Y-6268684D01*
X11971437Y-6266975D01*
X11971439Y-6266915D01*
X11971777Y-6265813D01*
X11972528Y-6266314D01*
X11973391Y-6268022D01*
X11974023Y-6270312D01*
X11975380Y-6274066D01*
X11977695Y-6275930D01*
X11980137Y-6276089D01*
X11981611Y-6275178D01*
X11984337Y-6272677D01*
X11988328Y-6268572D01*
X11993601Y-6262847D01*
X12000169Y-6255485D01*
X12005690Y-6249184D01*
X12012113Y-6241786D01*
X12017250Y-6235802D01*
X12021229Y-6231065D01*
X12024181Y-6227407D01*
X12026237Y-6224660D01*
X12027526Y-6222656D01*
X12028178Y-6221226D01*
X12028323Y-6220203D01*
X12028291Y-6219971D01*
X12026904Y-6212808D01*
X12025743Y-6206168D01*
X12024784Y-6199750D01*
X12024003Y-6193252D01*
X12023375Y-6186373D01*
X12022877Y-6178812D01*
X12022483Y-6170267D01*
X12022170Y-6160439D01*
X12021914Y-6149024D01*
X12021735Y-6138703D01*
X12021576Y-6121182D01*
X12021636Y-6103448D01*
X12021905Y-6085870D01*
X12022373Y-6068817D01*
X12023027Y-6052660D01*
X12023857Y-6037769D01*
X12024853Y-6024512D01*
X12025195Y-6020786D01*
X12026739Y-6006510D01*
X12028734Y-5990907D01*
X12031109Y-5974386D01*
X12033793Y-5957356D01*
X12036714Y-5940226D01*
X12039803Y-5923407D01*
X12042987Y-5907306D01*
X12046197Y-5892334D01*
X12049361Y-5878900D01*
X12050664Y-5873793D01*
X12054161Y-5862885D01*
X12059055Y-5851625D01*
X12065452Y-5839820D01*
X12073456Y-5827276D01*
X12082414Y-5814800D01*
X12092240Y-5801735D01*
X12093025Y-5775284D01*
X12093309Y-5767222D01*
X12093671Y-5759162D01*
X12094086Y-5751573D01*
X12094526Y-5744926D01*
X12094964Y-5739689D01*
X12095182Y-5737679D01*
X12095322Y-5736814D01*
X12095453Y-5736623D01*
X12095574Y-5737170D01*
G37*
G36*
X12103887Y-5682407D02*
G01*
X12105378Y-5685906D01*
X12106639Y-5689481D01*
X12107736Y-5693450D01*
X12108731Y-5698131D01*
X12109688Y-5703841D01*
X12110673Y-5710899D01*
X12111749Y-5719622D01*
X12112244Y-5723869D01*
X12114667Y-5751337D01*
X12115637Y-5773734D01*
X12116273Y-5799697D01*
X12122878Y-5808259D01*
X12132015Y-5820779D01*
X12140084Y-5833217D01*
X12146928Y-5845291D01*
X12152391Y-5856724D01*
X12156316Y-5867235D01*
X12156804Y-5868860D01*
X12158086Y-5873090D01*
X12159230Y-5876507D01*
X12160067Y-5878621D01*
X12160325Y-5879043D01*
X12161635Y-5879586D01*
X12164486Y-5880492D01*
X12168357Y-5881598D01*
X12170113Y-5882072D01*
X12181102Y-5885452D01*
X12193119Y-5889975D01*
X12205593Y-5895380D01*
X12217955Y-5901406D01*
X12229634Y-5907796D01*
X12238421Y-5913201D01*
X12257091Y-5926652D01*
X12274253Y-5941569D01*
X12289858Y-5957872D01*
X12303854Y-5975481D01*
X12316190Y-5994316D01*
X12326816Y-6014296D01*
X12335680Y-6035341D01*
X12342732Y-6057370D01*
X12347920Y-6080302D01*
X12349243Y-6088243D01*
X12350057Y-6095266D01*
X12350649Y-6103798D01*
X12351014Y-6113274D01*
X12351148Y-6123130D01*
X12351044Y-6132803D01*
X12350700Y-6141728D01*
X12350109Y-6149342D01*
X12349790Y-6151982D01*
X12345642Y-6175200D01*
X12339740Y-6197276D01*
X12332031Y-6218346D01*
X12322460Y-6238543D01*
X12310972Y-6258004D01*
X12301193Y-6272024D01*
X12296132Y-6278365D01*
X12289854Y-6285513D01*
X12282760Y-6293068D01*
X12275250Y-6300629D01*
X12267726Y-6307794D01*
X12260588Y-6314165D01*
X12254237Y-6319339D01*
X12252872Y-6320360D01*
X12242716Y-6327796D01*
X12242043Y-6362321D01*
X12241840Y-6371335D01*
X12241589Y-6380240D01*
X12241303Y-6388662D01*
X12240998Y-6396224D01*
X12240687Y-6402552D01*
X12240385Y-6407269D01*
X12240279Y-6408532D01*
X12239824Y-6413088D01*
X12239228Y-6418633D01*
X12238531Y-6424817D01*
X12237776Y-6431291D01*
X12237007Y-6437704D01*
X12236265Y-6443707D01*
X12235593Y-6448950D01*
X12235033Y-6453083D01*
X12234629Y-6455755D01*
X12234437Y-6456619D01*
X12234097Y-6455748D01*
X12233332Y-6453158D01*
X12232238Y-6449191D01*
X12230908Y-6444189D01*
X12230051Y-6440882D01*
X12225930Y-6424862D01*
X12188065Y-6395746D01*
X12150200Y-6366629D01*
X12143818Y-6367753D01*
X12137437Y-6368877D01*
X12130873Y-6381926D01*
X12125096Y-6392794D01*
X12119241Y-6402643D01*
X12113509Y-6411160D01*
X12108098Y-6418036D01*
X12106610Y-6419686D01*
X12101143Y-6425529D01*
X12101137Y-6411712D01*
X12106374Y-6411712D01*
X12110166Y-6406404D01*
X12113736Y-6401002D01*
X12117815Y-6394165D01*
X12122109Y-6386426D01*
X12126326Y-6378318D01*
X12130172Y-6370373D01*
X12131181Y-6368164D01*
X12133722Y-6362569D01*
X12135606Y-6358640D01*
X12137029Y-6356096D01*
X12138189Y-6354657D01*
X12139280Y-6354042D01*
X12140500Y-6353972D01*
X12141077Y-6354034D01*
X12142381Y-6354729D01*
X12145195Y-6356602D01*
X12149352Y-6359532D01*
X12154683Y-6363395D01*
X12161021Y-6368067D01*
X12168197Y-6373427D01*
X12176044Y-6379349D01*
X12184393Y-6385712D01*
X12187138Y-6387817D01*
X12197074Y-6395461D01*
X12205443Y-6401935D01*
X12212372Y-6407343D01*
X12217990Y-6411793D01*
X12222427Y-6415392D01*
X12225811Y-6418246D01*
X12228270Y-6420462D01*
X12229934Y-6422147D01*
X12230932Y-6423406D01*
X12231392Y-6424347D01*
X12231423Y-6424467D01*
X12232131Y-6427654D01*
X12232894Y-6423936D01*
X12233236Y-6421622D01*
X12233687Y-6417644D01*
X12234199Y-6412455D01*
X12234727Y-6406511D01*
X12235039Y-6402689D01*
X12235893Y-6388549D01*
X12236383Y-6372830D01*
X12236518Y-6356042D01*
X12236310Y-6338698D01*
X12235767Y-6321309D01*
X12234900Y-6304386D01*
X12233718Y-6288442D01*
X12232620Y-6277336D01*
X12231375Y-6266181D01*
X12229865Y-6270708D01*
X12227952Y-6274644D01*
X12225540Y-6276680D01*
X12222766Y-6276722D01*
X12221768Y-6276268D01*
X12220542Y-6275169D01*
X12218125Y-6272654D01*
X12214702Y-6268927D01*
X12210455Y-6264194D01*
X12205571Y-6258658D01*
X12200231Y-6252524D01*
X12197202Y-6249009D01*
X12190987Y-6241788D01*
X12186004Y-6235970D01*
X12182135Y-6231319D01*
X12179261Y-6227600D01*
X12177262Y-6224577D01*
X12176018Y-6222014D01*
X12175412Y-6219676D01*
X12175322Y-6217326D01*
X12175631Y-6214729D01*
X12176219Y-6211650D01*
X12176807Y-6208693D01*
X12177824Y-6202878D01*
X12178684Y-6196740D01*
X12179398Y-6190069D01*
X12179976Y-6182653D01*
X12180428Y-6174282D01*
X12180765Y-6164744D01*
X12180995Y-6153828D01*
X12181131Y-6141325D01*
X12181182Y-6127022D01*
X12181177Y-6118519D01*
X12181084Y-6099519D01*
X12180856Y-6082326D01*
X12180474Y-6066627D01*
X12179914Y-6052107D01*
X12179157Y-6038453D01*
X12178181Y-6025351D01*
X12176966Y-6012485D01*
X12175489Y-5999544D01*
X12173729Y-5986211D01*
X12171667Y-5972174D01*
X12171052Y-5968202D01*
X12169056Y-5955929D01*
X12166865Y-5943348D01*
X12164535Y-5930723D01*
X12162122Y-5918318D01*
X12159681Y-5906395D01*
X12157745Y-5897429D01*
X12164044Y-5897429D01*
X12164141Y-5898521D01*
X12164616Y-5901310D01*
X12165399Y-5905419D01*
X12166420Y-5910468D01*
X12166848Y-5912520D01*
X12167962Y-5918038D01*
X12169313Y-5925100D01*
X12170800Y-5933153D01*
X12172322Y-5941643D01*
X12173777Y-5950018D01*
X12174248Y-5952798D01*
X12177002Y-5969770D01*
X12179359Y-5985686D01*
X12181345Y-6000889D01*
X12182987Y-6015726D01*
X12184311Y-6030541D01*
X12185343Y-6045680D01*
X12186109Y-6061487D01*
X12186637Y-6078307D01*
X12186952Y-6096486D01*
X12187081Y-6116368D01*
X12187087Y-6120662D01*
X12187025Y-6137557D01*
X12186811Y-6152524D01*
X12186438Y-6165752D01*
X12185896Y-6177434D01*
X12185176Y-6187759D01*
X12184270Y-6196920D01*
X12183170Y-6205098D01*
X12182438Y-6210023D01*
X12181842Y-6214416D01*
X12181457Y-6217696D01*
X12181355Y-6218997D01*
X12181665Y-6220213D01*
X12182730Y-6222130D01*
X12184665Y-6224895D01*
X12187584Y-6228659D01*
X12191601Y-6233568D01*
X12196832Y-6239771D01*
X12202502Y-6246385D01*
X12208481Y-6253314D01*
X12213227Y-6258776D01*
X12216891Y-6262918D01*
X12219623Y-6265887D01*
X12221571Y-6267830D01*
X12222885Y-6268894D01*
X12223716Y-6269226D01*
X12224213Y-6268973D01*
X12224526Y-6268282D01*
X12224588Y-6268074D01*
X12226037Y-6263227D01*
X12227629Y-6258204D01*
X12229223Y-6253415D01*
X12230676Y-6249271D01*
X12231849Y-6246180D01*
X12232599Y-6244553D01*
X12232747Y-6244404D01*
X12233191Y-6245379D01*
X12233861Y-6248006D01*
X12234649Y-6251837D01*
X12235176Y-6254762D01*
X12235757Y-6258312D01*
X12236325Y-6262154D01*
X12236912Y-6266561D01*
X12237552Y-6271807D01*
X12238277Y-6278166D01*
X12239119Y-6285911D01*
X12240111Y-6295316D01*
X12240864Y-6302566D01*
X12241278Y-6305678D01*
X12241725Y-6307703D01*
X12241979Y-6308143D01*
X12242983Y-6307514D01*
X12245229Y-6305829D01*
X12248325Y-6303385D01*
X12250144Y-6301911D01*
X12266150Y-6287475D01*
X12280716Y-6271557D01*
X12293754Y-6254316D01*
X12305177Y-6235907D01*
X12314900Y-6216488D01*
X12322834Y-6196215D01*
X12328893Y-6175245D01*
X12332990Y-6153735D01*
X12333233Y-6151982D01*
X12334025Y-6143998D01*
X12334514Y-6134539D01*
X12334700Y-6124233D01*
X12334585Y-6113708D01*
X12334171Y-6103593D01*
X12333459Y-6094515D01*
X12333085Y-6091262D01*
X12329266Y-6069799D01*
X12323449Y-6048920D01*
X12315713Y-6028745D01*
X12306132Y-6009396D01*
X12294783Y-5990993D01*
X12281743Y-5973659D01*
X12267088Y-5957515D01*
X12250896Y-5942681D01*
X12233242Y-5929279D01*
X12229071Y-5926470D01*
X12221035Y-5921565D01*
X12211612Y-5916441D01*
X12201469Y-5911420D01*
X12191274Y-5906825D01*
X12181694Y-5902978D01*
X12177059Y-5901342D01*
X12172234Y-5899769D01*
X12168200Y-5898513D01*
X12165350Y-5897690D01*
X12164073Y-5897419D01*
X12164044Y-5897429D01*
X12157745Y-5897429D01*
X12157267Y-5895219D01*
X12154937Y-5885053D01*
X12152746Y-5876161D01*
X12150750Y-5868807D01*
X12149004Y-5863254D01*
X12148785Y-5862641D01*
X12145213Y-5854209D01*
X12140317Y-5844709D01*
X12134327Y-5834524D01*
X12127471Y-5824034D01*
X12119978Y-5813623D01*
X12117530Y-5810432D01*
X12110898Y-5801918D01*
X12110114Y-5775756D01*
X12109831Y-5767782D01*
X12109471Y-5759855D01*
X12109061Y-5752435D01*
X12108628Y-5745985D01*
X12108197Y-5740964D01*
X12107990Y-5739121D01*
X12107862Y-5738427D01*
X12107741Y-5738449D01*
X12107629Y-5739246D01*
X12107523Y-5740876D01*
X12107425Y-5743399D01*
X12107333Y-5746873D01*
X12107247Y-5751358D01*
X12107168Y-5756911D01*
X12107095Y-5763592D01*
X12107027Y-5771459D01*
X12106965Y-5780572D01*
X12106907Y-5790989D01*
X12106855Y-5802769D01*
X12106807Y-5815970D01*
X12106764Y-5830653D01*
X12106725Y-5846874D01*
X12106689Y-5864694D01*
X12106657Y-5884171D01*
X12106629Y-5905364D01*
X12106603Y-5928331D01*
X12106580Y-5953132D01*
X12106560Y-5979825D01*
X12106542Y-6008469D01*
X12106526Y-6039123D01*
X12106512Y-6070181D01*
X12106374Y-6411712D01*
X12101137Y-6411712D01*
X12101064Y-6246529D01*
X12101054Y-6226477D01*
X12101042Y-6206575D01*
X12101028Y-6186967D01*
X12101012Y-6167798D01*
X12100996Y-6149210D01*
X12100977Y-6131348D01*
X12100958Y-6114357D01*
X12100938Y-6098379D01*
X12100917Y-6083560D01*
X12100895Y-6070043D01*
X12100873Y-6057972D01*
X12100851Y-6047492D01*
X12100828Y-6038746D01*
X12100806Y-6031878D01*
X12100791Y-6028222D01*
X12100770Y-6022449D01*
X12100754Y-6014710D01*
X12100744Y-6005167D01*
X12100738Y-5993980D01*
X12100737Y-5981308D01*
X12100741Y-5967313D01*
X12100750Y-5952152D01*
X12100762Y-5935988D01*
X12100780Y-5918980D01*
X12100801Y-5901287D01*
X12100827Y-5883071D01*
X12100857Y-5864491D01*
X12100891Y-5845707D01*
X12100917Y-5832756D01*
X12101236Y-5676596D01*
X12103887Y-5682407D01*
G37*
%TO.C,SW402*%
D16*
X12528400Y-8616800D02*
X12528400Y-8756800D01*
X12668400Y-8616800D02*
X12668400Y-8756800D01*
X12643121Y-8686800D02*
G75*
G02*
X12553679Y-8686800I-44721J0D01*
G01*
X12553679Y-8686800D02*
G75*
G02*
X12643121Y-8686800I44721J0D01*
G01*
%TO.C,J408*%
D14*
X9825500Y-7693500D02*
X9825500Y-8081500D01*
X10022500Y-7576500D02*
X10272500Y-7576500D01*
X10022500Y-8198500D02*
X10272500Y-8198500D01*
X10272500Y-7576500D02*
X10272500Y-7681500D01*
X10272500Y-7681500D02*
X10371500Y-7681500D01*
X10272500Y-8198500D02*
X10272500Y-8093500D01*
%TO.C,J402*%
X10145000Y-8408300D02*
X10315000Y-8408300D01*
X10145000Y-9342300D02*
X10315000Y-9342300D01*
%TO.C,J404*%
X12048000Y-8988000D02*
X12692000Y-8988000D01*
X12048000Y-10582000D02*
X12048000Y-8988000D01*
X12048000Y-10582000D02*
X12692000Y-10582000D01*
X12100000Y-10582000D02*
X12100000Y-8988000D01*
X12630000Y-10582000D02*
X12630000Y-8988000D01*
X12692000Y-10390000D02*
X12692000Y-8988000D01*
X12692000Y-10582000D02*
X12692000Y-10450000D01*
X12692000Y-10420000D02*
X12753000Y-10376000D01*
X12753000Y-10464000D01*
X12692000Y-10420000D01*
G36*
X12753000Y-10464000D02*
G01*
X12692000Y-10420000D01*
X12753000Y-10376000D01*
X12753000Y-10464000D01*
G37*
%TO.C,BZ401*%
D16*
X12380000Y-6140000D02*
X12720000Y-6140000D01*
X12380000Y-6600000D02*
X12380000Y-6140000D01*
X12660000Y-6600000D02*
X12380000Y-6600000D01*
X12720000Y-6140000D02*
X12720000Y-6540000D01*
X12720000Y-6540000D02*
X12660000Y-6600000D01*
%TO.C,U202*%
D14*
X11971880Y-6840250D02*
X11998880Y-6840250D01*
X11971880Y-7392250D02*
X11971880Y-6840250D01*
X11998880Y-7392250D02*
X11971880Y-7392250D01*
X12496880Y-6840250D02*
X12523880Y-6840250D01*
X12523880Y-6840250D02*
X12523880Y-7392250D01*
X12523880Y-7392250D02*
X12496880Y-7392250D01*
X11997880Y-7475250D02*
X11950880Y-7509250D01*
X11950880Y-7441250D01*
X11997880Y-7475250D01*
G36*
X11997880Y-7475250D02*
G01*
X11950880Y-7509250D01*
X11950880Y-7441250D01*
X11997880Y-7475250D01*
G37*
%TO.C,U302*%
X11106000Y-8386000D02*
X11106000Y-8368500D01*
X11173500Y-8114000D02*
X11136000Y-8114000D01*
X11173500Y-8386000D02*
X11106000Y-8386000D01*
X11360500Y-8114000D02*
X11428000Y-8114000D01*
X11360500Y-8386000D02*
X11428000Y-8386000D01*
X11428000Y-8114000D02*
X11428000Y-8131500D01*
X11428000Y-8386000D02*
X11428000Y-8368500D01*
X11106000Y-8114000D02*
X11092000Y-8095000D01*
X11120000Y-8095000D01*
X11106000Y-8114000D01*
G36*
X11106000Y-8114000D02*
G01*
X11092000Y-8095000D01*
X11120000Y-8095000D01*
X11106000Y-8114000D01*
G37*
%TO.C,C301*%
X11604373Y-8276000D02*
X11633627Y-8276000D01*
X11604373Y-8378000D02*
X11633627Y-8378000D01*
%TO.C,D403*%
X10619900Y-7962190D02*
X10619900Y-8208190D01*
X10766900Y-7962190D02*
X10619900Y-7962190D01*
X10766900Y-8208190D02*
X10766900Y-7962190D01*
%TO.C,J401*%
X10493995Y-10912000D02*
X10493995Y-11188000D01*
X11774995Y-10912000D02*
X10493995Y-10912000D01*
X11774995Y-10912000D02*
X11774995Y-11188000D01*
X11774995Y-11188000D02*
X10493995Y-11188000D01*
X11901995Y-10912000D02*
X12039995Y-10912000D01*
X12039995Y-10912000D02*
X12039995Y-11050000D01*
%TO.C,C305*%
X11871760Y-8300217D02*
X11871760Y-8270963D01*
X11973760Y-8300217D02*
X11973760Y-8270963D01*
%TO.C,D101*%
X11001430Y-10673500D02*
X11247430Y-10673500D01*
X11247430Y-10526500D02*
X11001430Y-10526500D01*
X11247430Y-10673500D02*
X11247430Y-10526500D01*
%TO.C,R101*%
X11474253Y-10547750D02*
X11423308Y-10547750D01*
X11474253Y-10652250D02*
X11423308Y-10652250D01*
%TO.C,C209*%
X12129223Y-6506450D02*
X12158477Y-6506450D01*
X12129223Y-6608450D02*
X12158477Y-6608450D01*
%TO.C,U304*%
X11475500Y-8496500D02*
X11506900Y-8496500D01*
X11475500Y-8546500D02*
X11475500Y-8496500D01*
X11475500Y-8826500D02*
X11475500Y-8776500D01*
X11506900Y-8826500D02*
X11475500Y-8826500D01*
X11995500Y-8526500D02*
X11995500Y-8601500D01*
X11995500Y-8776500D02*
X11995500Y-8826500D01*
X11995500Y-8826500D02*
X11964100Y-8826500D01*
X11995500Y-8506500D02*
X11995500Y-8470500D01*
X12031500Y-8506500D01*
X11995500Y-8506500D01*
G36*
X12031500Y-8506500D02*
G01*
X11995500Y-8506500D01*
X11995500Y-8470500D01*
X12031500Y-8506500D01*
G37*
%TO.C,C303*%
X11301073Y-5749000D02*
X11330327Y-5749000D01*
X11301073Y-5851000D02*
X11330327Y-5851000D01*
%TO.C,R610*%
X11856982Y-9432110D02*
X11806038Y-9432110D01*
X11856982Y-9536610D02*
X11806038Y-9536610D01*
%TD*%
M02*
