%TF.GenerationSoftware,KiCad,Pcbnew,10.0.4*%
%TF.CreationDate,2026-07-12T15:04:36+00:00*%
%TF.ProjectId,Flight Computer,466c6967-6874-4204-936f-6d7075746572,rev?*%
%TF.SameCoordinates,Original*%
%TF.FileFunction,Legend,Bot*%
%TF.FilePolarity,Positive*%
%FSLAX45Y45*%
G04 Gerber Fmt 4.5, Leading zero omitted, Abs format (unit mm)*
G04 Created by KiCad (PCBNEW 10.0.4) date 2026-07-12 15:04:36*
%MOMM*%
%LPD*%
G01*
G04 APERTURE LIST*
%ADD10C,0.150000*%
%ADD11C,0.250000*%
%ADD12C,0.120000*%
%ADD13C,0.152400*%
%ADD14C,0.127000*%
%ADD15C,0.200000*%
G04 APERTURE END LIST*
D10*
G36*
X10261203Y-7404020D02*
G01*
X10252063Y-7404020D01*
X10244183Y-7401394D01*
X10239153Y-7396363D01*
X10236494Y-7391046D01*
X10233346Y-7378454D01*
X10233346Y-7369586D01*
X10236494Y-7356995D01*
X10239153Y-7351677D01*
X10244183Y-7346647D01*
X10252063Y-7344020D01*
X10261203Y-7344020D01*
X10261203Y-7404020D01*
G37*
G36*
X10339774Y-7283275D02*
G01*
X10320474Y-7283275D01*
X10316003Y-7281039D01*
X10314153Y-7279189D01*
X10311917Y-7274718D01*
X10311917Y-7267545D01*
X10314153Y-7263074D01*
X10315611Y-7261615D01*
X10323491Y-7258989D01*
X10339774Y-7258989D01*
X10339774Y-7283275D01*
G37*
G36*
X10339774Y-7243989D02*
G01*
X10324045Y-7243989D01*
X10319574Y-7241753D01*
X10317724Y-7239903D01*
X10315489Y-7235433D01*
X10315489Y-7231831D01*
X10317724Y-7227360D01*
X10319574Y-7225510D01*
X10324045Y-7223275D01*
X10339774Y-7223275D01*
X10339774Y-7243989D01*
G37*
G36*
X10414774Y-7247560D02*
G01*
X10395474Y-7247560D01*
X10391003Y-7245325D01*
X10389153Y-7243475D01*
X10386917Y-7239004D01*
X10386917Y-7231831D01*
X10389153Y-7227360D01*
X10391003Y-7225510D01*
X10395474Y-7223275D01*
X10414774Y-7223275D01*
X10414774Y-7247560D01*
G37*
G36*
X10414774Y-7126814D02*
G01*
X10395474Y-7126814D01*
X10391003Y-7124579D01*
X10389153Y-7122729D01*
X10386917Y-7118258D01*
X10386917Y-7111085D01*
X10389153Y-7106614D01*
X10391003Y-7104764D01*
X10395474Y-7102529D01*
X10414774Y-7102529D01*
X10414774Y-7126814D01*
G37*
G36*
X10340440Y-7020354D02*
G01*
X10325537Y-7020354D01*
X10332989Y-6998000D01*
X10340440Y-7020354D01*
G37*
G36*
X10414774Y-7006069D02*
G01*
X10395474Y-7006069D01*
X10391003Y-7003833D01*
X10389153Y-7001983D01*
X10386917Y-6997512D01*
X10386917Y-6990339D01*
X10389153Y-6985868D01*
X10391003Y-6984018D01*
X10395474Y-6981783D01*
X10414774Y-6981783D01*
X10414774Y-7006069D01*
G37*
G36*
X10336203Y-6885323D02*
G01*
X10316902Y-6885323D01*
X10312431Y-6883088D01*
X10310581Y-6881237D01*
X10308346Y-6876767D01*
X10308346Y-6869593D01*
X10310581Y-6865123D01*
X10312431Y-6863272D01*
X10316902Y-6861037D01*
X10336203Y-6861037D01*
X10336203Y-6885323D01*
G37*
G36*
X10445107Y-7427354D02*
G01*
X10145727Y-7427354D01*
X10145727Y-7368663D01*
X10218346Y-7368663D01*
X10218346Y-7379377D01*
X10218371Y-7379633D01*
X10218355Y-7379742D01*
X10218436Y-7380289D01*
X10218490Y-7380841D01*
X10218532Y-7380943D01*
X10218570Y-7381196D01*
X10222141Y-7395482D01*
X10222180Y-7395590D01*
X10222184Y-7395644D01*
X10222416Y-7396252D01*
X10222636Y-7396867D01*
X10222668Y-7396910D01*
X10222709Y-7397017D01*
X10226281Y-7404160D01*
X10226677Y-7404790D01*
X10226753Y-7404973D01*
X10226922Y-7405178D01*
X10227064Y-7405404D01*
X10227214Y-7405534D01*
X10227685Y-7406109D01*
X10234828Y-7413252D01*
X10235965Y-7414185D01*
X10236214Y-7414288D01*
X10236417Y-7414465D01*
X10237760Y-7415064D01*
X10248474Y-7418635D01*
X10249199Y-7418800D01*
X10249383Y-7418876D01*
X10249648Y-7418902D01*
X10249908Y-7418961D01*
X10250105Y-7418947D01*
X10250846Y-7419020D01*
X10268703Y-7419020D01*
X10270166Y-7418876D01*
X10272870Y-7417756D01*
X10274939Y-7415687D01*
X10276059Y-7412984D01*
X10276203Y-7411520D01*
X10276203Y-7336520D01*
X10296917Y-7336520D01*
X10296917Y-7411520D01*
X10296954Y-7411897D01*
X10296936Y-7412044D01*
X10296988Y-7412235D01*
X10297061Y-7412984D01*
X10297443Y-7413905D01*
X10297706Y-7414867D01*
X10297998Y-7415245D01*
X10298181Y-7415687D01*
X10298886Y-7416392D01*
X10299497Y-7417181D01*
X10299913Y-7417418D01*
X10300251Y-7417756D01*
X10301172Y-7418138D01*
X10302038Y-7418633D01*
X10302513Y-7418693D01*
X10302954Y-7418876D01*
X10303952Y-7418876D01*
X10304941Y-7419002D01*
X10305402Y-7418876D01*
X10305881Y-7418876D01*
X10306802Y-7418494D01*
X10307764Y-7418232D01*
X10308142Y-7417939D01*
X10308584Y-7417756D01*
X10309289Y-7417051D01*
X10310078Y-7416440D01*
X10310513Y-7415827D01*
X10310653Y-7415687D01*
X10310710Y-7415550D01*
X10310929Y-7415241D01*
X10339774Y-7364762D01*
X10339774Y-7411520D01*
X10339919Y-7412984D01*
X10341038Y-7415687D01*
X10343108Y-7417756D01*
X10345811Y-7418876D01*
X10348738Y-7418876D01*
X10351441Y-7417756D01*
X10353510Y-7415687D01*
X10354630Y-7412984D01*
X10354774Y-7411520D01*
X10354774Y-7379377D01*
X10371917Y-7379377D01*
X10371917Y-7404377D01*
X10372061Y-7405841D01*
X10372546Y-7407011D01*
X10373181Y-7408544D01*
X10374114Y-7409681D01*
X10377685Y-7413252D01*
X10378822Y-7414185D01*
X10379071Y-7414288D01*
X10379275Y-7414465D01*
X10380617Y-7415064D01*
X10391331Y-7418635D01*
X10392057Y-7418800D01*
X10392240Y-7418876D01*
X10392505Y-7418902D01*
X10392765Y-7418961D01*
X10392962Y-7418947D01*
X10393703Y-7419020D01*
X10400846Y-7419020D01*
X10401586Y-7418947D01*
X10401784Y-7418961D01*
X10402044Y-7418902D01*
X10402309Y-7418876D01*
X10402492Y-7418800D01*
X10403218Y-7418635D01*
X10413932Y-7415064D01*
X10415274Y-7414465D01*
X10415478Y-7414288D01*
X10415727Y-7414185D01*
X10416863Y-7413252D01*
X10424006Y-7406109D01*
X10424478Y-7405534D01*
X10424628Y-7405404D01*
X10424770Y-7405179D01*
X10424939Y-7404973D01*
X10425015Y-7404790D01*
X10425411Y-7404160D01*
X10428983Y-7397017D01*
X10429023Y-7396910D01*
X10429056Y-7396867D01*
X10429276Y-7396252D01*
X10429508Y-7395644D01*
X10429512Y-7395590D01*
X10429551Y-7395482D01*
X10433122Y-7381196D01*
X10433159Y-7380943D01*
X10433202Y-7380841D01*
X10433256Y-7380290D01*
X10433337Y-7379742D01*
X10433321Y-7379632D01*
X10433346Y-7379377D01*
X10433346Y-7368663D01*
X10433321Y-7368408D01*
X10433337Y-7368299D01*
X10433256Y-7367750D01*
X10433202Y-7367200D01*
X10433159Y-7367098D01*
X10433122Y-7366844D01*
X10429551Y-7352558D01*
X10429512Y-7352450D01*
X10429508Y-7352397D01*
X10429275Y-7351788D01*
X10429056Y-7351174D01*
X10429024Y-7351130D01*
X10428983Y-7351023D01*
X10425411Y-7343881D01*
X10425015Y-7343251D01*
X10424939Y-7343068D01*
X10424770Y-7342862D01*
X10424628Y-7342636D01*
X10424478Y-7342506D01*
X10424006Y-7341931D01*
X10416863Y-7334788D01*
X10415727Y-7333856D01*
X10415478Y-7333753D01*
X10415274Y-7333576D01*
X10413932Y-7332977D01*
X10403218Y-7329405D01*
X10402492Y-7329240D01*
X10402309Y-7329164D01*
X10402044Y-7329138D01*
X10401784Y-7329079D01*
X10401586Y-7329093D01*
X10400846Y-7329020D01*
X10390132Y-7329020D01*
X10388668Y-7329164D01*
X10388419Y-7329268D01*
X10388151Y-7329287D01*
X10386778Y-7329812D01*
X10379635Y-7333384D01*
X10378390Y-7334167D01*
X10376473Y-7336378D01*
X10375548Y-7339154D01*
X10375755Y-7342073D01*
X10377064Y-7344690D01*
X10379275Y-7346607D01*
X10382051Y-7347533D01*
X10384970Y-7347325D01*
X10386343Y-7346800D01*
X10391902Y-7344020D01*
X10399629Y-7344020D01*
X10407509Y-7346647D01*
X10412539Y-7351677D01*
X10415198Y-7356995D01*
X10418346Y-7369586D01*
X10418346Y-7378454D01*
X10415198Y-7391046D01*
X10412539Y-7396363D01*
X10407509Y-7401394D01*
X10399629Y-7404020D01*
X10394920Y-7404020D01*
X10387040Y-7401394D01*
X10386917Y-7401271D01*
X10386917Y-7386877D01*
X10393703Y-7386877D01*
X10395166Y-7386733D01*
X10397870Y-7385613D01*
X10399939Y-7383544D01*
X10401059Y-7380841D01*
X10401059Y-7377914D01*
X10399939Y-7375211D01*
X10397870Y-7373141D01*
X10395166Y-7372022D01*
X10393703Y-7371877D01*
X10379417Y-7371877D01*
X10377954Y-7372022D01*
X10375251Y-7373141D01*
X10373181Y-7375211D01*
X10372061Y-7377914D01*
X10371917Y-7379377D01*
X10354774Y-7379377D01*
X10354774Y-7336520D01*
X10354737Y-7336144D01*
X10354756Y-7335996D01*
X10354704Y-7335805D01*
X10354630Y-7335057D01*
X10354249Y-7334135D01*
X10353986Y-7333173D01*
X10353693Y-7332795D01*
X10353510Y-7332354D01*
X10352805Y-7331648D01*
X10352194Y-7330860D01*
X10351779Y-7330622D01*
X10351441Y-7330284D01*
X10350520Y-7329903D01*
X10349654Y-7329408D01*
X10349179Y-7329347D01*
X10348738Y-7329164D01*
X10347740Y-7329164D01*
X10346751Y-7329039D01*
X10346289Y-7329164D01*
X10345811Y-7329164D01*
X10344890Y-7329546D01*
X10343927Y-7329809D01*
X10343549Y-7330101D01*
X10343108Y-7330284D01*
X10342402Y-7330990D01*
X10341614Y-7331600D01*
X10341178Y-7332213D01*
X10341038Y-7332354D01*
X10340981Y-7332491D01*
X10340763Y-7332799D01*
X10311917Y-7383279D01*
X10311917Y-7336520D01*
X10311773Y-7335057D01*
X10310653Y-7332354D01*
X10308584Y-7330284D01*
X10305881Y-7329164D01*
X10302954Y-7329164D01*
X10300251Y-7330284D01*
X10298181Y-7332354D01*
X10297061Y-7335057D01*
X10296917Y-7336520D01*
X10276203Y-7336520D01*
X10276059Y-7335057D01*
X10274939Y-7332354D01*
X10272870Y-7330284D01*
X10270166Y-7329164D01*
X10268703Y-7329020D01*
X10250846Y-7329020D01*
X10250105Y-7329093D01*
X10249908Y-7329079D01*
X10249648Y-7329138D01*
X10249383Y-7329164D01*
X10249199Y-7329240D01*
X10248474Y-7329405D01*
X10237760Y-7332977D01*
X10236417Y-7333576D01*
X10236214Y-7333752D01*
X10235965Y-7333856D01*
X10234828Y-7334788D01*
X10227685Y-7341931D01*
X10227214Y-7342506D01*
X10227064Y-7342636D01*
X10226922Y-7342862D01*
X10226753Y-7343068D01*
X10226677Y-7343251D01*
X10226281Y-7343881D01*
X10222709Y-7351023D01*
X10222668Y-7351130D01*
X10222636Y-7351174D01*
X10222416Y-7351788D01*
X10222184Y-7352397D01*
X10222180Y-7352450D01*
X10222141Y-7352558D01*
X10218570Y-7366844D01*
X10218532Y-7367098D01*
X10218490Y-7367200D01*
X10218436Y-7367751D01*
X10218355Y-7368299D01*
X10218371Y-7368408D01*
X10218346Y-7368663D01*
X10145727Y-7368663D01*
X10145727Y-7258632D01*
X10154060Y-7258632D01*
X10154060Y-7276489D01*
X10154204Y-7277952D01*
X10154307Y-7278201D01*
X10154326Y-7278470D01*
X10154852Y-7279843D01*
X10158423Y-7286986D01*
X10158820Y-7287616D01*
X10158896Y-7287798D01*
X10159064Y-7288004D01*
X10159207Y-7288230D01*
X10159356Y-7288360D01*
X10159828Y-7288935D01*
X10163400Y-7292506D01*
X10163975Y-7292978D01*
X10164105Y-7293128D01*
X10164330Y-7293270D01*
X10164536Y-7293439D01*
X10164719Y-7293515D01*
X10165349Y-7293911D01*
X10172492Y-7297483D01*
X10173865Y-7298008D01*
X10174134Y-7298027D01*
X10174383Y-7298130D01*
X10175846Y-7298275D01*
X10193703Y-7298275D01*
X10195166Y-7298130D01*
X10195415Y-7298027D01*
X10195684Y-7298008D01*
X10197057Y-7297483D01*
X10204200Y-7293911D01*
X10204830Y-7293515D01*
X10205013Y-7293439D01*
X10205219Y-7293270D01*
X10205444Y-7293128D01*
X10205574Y-7292978D01*
X10206149Y-7292506D01*
X10209344Y-7289311D01*
X10225633Y-7289311D01*
X10225633Y-7292238D01*
X10226753Y-7294941D01*
X10228822Y-7297011D01*
X10231526Y-7298130D01*
X10232989Y-7298275D01*
X10275846Y-7298275D01*
X10277309Y-7298130D01*
X10280013Y-7297011D01*
X10282082Y-7294941D01*
X10283202Y-7292238D01*
X10283202Y-7289311D01*
X10282082Y-7286608D01*
X10280013Y-7284539D01*
X10277309Y-7283419D01*
X10275846Y-7283275D01*
X10261917Y-7283275D01*
X10261917Y-7265775D01*
X10296917Y-7265775D01*
X10296917Y-7276489D01*
X10297061Y-7277952D01*
X10297165Y-7278201D01*
X10297184Y-7278470D01*
X10297709Y-7279843D01*
X10301281Y-7286986D01*
X10301677Y-7287615D01*
X10301753Y-7287798D01*
X10301922Y-7288004D01*
X10302064Y-7288230D01*
X10302214Y-7288360D01*
X10302685Y-7288935D01*
X10306257Y-7292506D01*
X10306832Y-7292978D01*
X10306962Y-7293128D01*
X10307187Y-7293270D01*
X10307393Y-7293439D01*
X10307576Y-7293515D01*
X10308206Y-7293911D01*
X10315349Y-7297483D01*
X10316722Y-7298008D01*
X10316991Y-7298027D01*
X10317240Y-7298130D01*
X10318703Y-7298275D01*
X10347274Y-7298275D01*
X10348738Y-7298130D01*
X10351441Y-7297011D01*
X10353510Y-7294941D01*
X10354630Y-7292238D01*
X10354774Y-7290775D01*
X10354774Y-7230060D01*
X10371917Y-7230060D01*
X10371917Y-7240775D01*
X10372061Y-7242238D01*
X10372165Y-7242487D01*
X10372184Y-7242755D01*
X10372709Y-7244129D01*
X10376281Y-7251271D01*
X10376677Y-7251901D01*
X10376753Y-7252084D01*
X10376922Y-7252290D01*
X10377064Y-7252516D01*
X10377214Y-7252646D01*
X10377685Y-7253221D01*
X10381257Y-7256792D01*
X10381832Y-7257264D01*
X10381962Y-7257414D01*
X10382187Y-7257556D01*
X10382393Y-7257725D01*
X10382576Y-7257801D01*
X10383206Y-7258197D01*
X10390349Y-7261768D01*
X10391722Y-7262294D01*
X10391991Y-7262313D01*
X10392240Y-7262416D01*
X10393703Y-7262560D01*
X10414774Y-7262560D01*
X10414774Y-7290775D01*
X10414919Y-7292238D01*
X10416038Y-7294941D01*
X10418108Y-7297011D01*
X10420811Y-7298130D01*
X10423738Y-7298130D01*
X10426441Y-7297011D01*
X10428510Y-7294941D01*
X10429630Y-7292238D01*
X10429774Y-7290775D01*
X10429774Y-7215775D01*
X10429630Y-7214311D01*
X10428510Y-7211608D01*
X10426441Y-7209539D01*
X10423738Y-7208419D01*
X10422274Y-7208275D01*
X10393703Y-7208275D01*
X10392240Y-7208419D01*
X10391991Y-7208522D01*
X10391722Y-7208541D01*
X10390349Y-7209066D01*
X10383206Y-7212638D01*
X10382576Y-7213034D01*
X10382393Y-7213110D01*
X10382188Y-7213279D01*
X10381962Y-7213421D01*
X10381832Y-7213571D01*
X10381257Y-7214043D01*
X10377685Y-7217614D01*
X10377214Y-7218189D01*
X10377064Y-7218319D01*
X10376922Y-7218545D01*
X10376753Y-7218751D01*
X10376677Y-7218933D01*
X10376281Y-7219563D01*
X10372709Y-7226706D01*
X10372184Y-7228079D01*
X10372165Y-7228348D01*
X10372061Y-7228597D01*
X10371917Y-7230060D01*
X10354774Y-7230060D01*
X10354774Y-7215775D01*
X10354630Y-7214311D01*
X10353510Y-7211608D01*
X10351441Y-7209539D01*
X10348738Y-7208419D01*
X10347274Y-7208275D01*
X10322274Y-7208275D01*
X10320811Y-7208419D01*
X10320562Y-7208522D01*
X10320294Y-7208541D01*
X10318920Y-7209066D01*
X10311778Y-7212638D01*
X10311148Y-7213034D01*
X10310965Y-7213110D01*
X10310759Y-7213279D01*
X10310533Y-7213421D01*
X10310403Y-7213571D01*
X10309828Y-7214043D01*
X10306257Y-7217614D01*
X10305785Y-7218189D01*
X10305635Y-7218319D01*
X10305493Y-7218544D01*
X10305324Y-7218750D01*
X10305248Y-7218933D01*
X10304852Y-7219563D01*
X10301281Y-7226706D01*
X10300755Y-7228079D01*
X10300736Y-7228348D01*
X10300633Y-7228597D01*
X10300489Y-7230060D01*
X10300489Y-7237203D01*
X10300633Y-7238666D01*
X10300736Y-7238915D01*
X10300755Y-7239184D01*
X10301281Y-7240557D01*
X10304852Y-7247700D01*
X10305248Y-7248330D01*
X10305324Y-7248513D01*
X10305493Y-7248719D01*
X10305635Y-7248944D01*
X10305785Y-7249074D01*
X10306257Y-7249649D01*
X10306316Y-7249708D01*
X10306257Y-7249757D01*
X10302685Y-7253328D01*
X10302214Y-7253903D01*
X10302064Y-7254033D01*
X10301922Y-7254259D01*
X10301753Y-7254465D01*
X10301677Y-7254648D01*
X10301281Y-7255278D01*
X10297709Y-7262420D01*
X10297184Y-7263794D01*
X10297165Y-7264062D01*
X10297061Y-7264311D01*
X10296917Y-7265775D01*
X10261917Y-7265775D01*
X10261917Y-7237453D01*
X10263400Y-7238935D01*
X10263975Y-7239407D01*
X10264105Y-7239557D01*
X10264330Y-7239699D01*
X10264536Y-7239868D01*
X10264719Y-7239943D01*
X10265349Y-7240340D01*
X10272492Y-7243911D01*
X10273865Y-7244437D01*
X10276784Y-7244644D01*
X10279560Y-7243719D01*
X10281771Y-7241802D01*
X10283079Y-7239184D01*
X10283287Y-7236265D01*
X10282362Y-7233489D01*
X10280444Y-7231278D01*
X10279200Y-7230495D01*
X10273146Y-7227468D01*
X10267389Y-7221711D01*
X10260658Y-7211614D01*
X10260654Y-7211610D01*
X10260653Y-7211608D01*
X10260648Y-7211602D01*
X10259726Y-7210477D01*
X10259109Y-7210063D01*
X10258584Y-7209539D01*
X10257905Y-7209257D01*
X10257295Y-7208848D01*
X10256567Y-7208703D01*
X10255881Y-7208419D01*
X10255146Y-7208419D01*
X10254425Y-7208275D01*
X10253697Y-7208419D01*
X10252954Y-7208419D01*
X10252275Y-7208700D01*
X10251555Y-7208842D01*
X10250937Y-7209254D01*
X10250251Y-7209539D01*
X10249731Y-7210058D01*
X10249120Y-7210466D01*
X10248706Y-7211083D01*
X10248181Y-7211608D01*
X10247900Y-7212286D01*
X10247491Y-7212897D01*
X10247346Y-7213625D01*
X10247061Y-7214311D01*
X10246919Y-7215759D01*
X10246917Y-7215767D01*
X10246918Y-7215769D01*
X10246917Y-7215775D01*
X10246917Y-7283275D01*
X10232989Y-7283275D01*
X10231526Y-7283419D01*
X10228822Y-7284539D01*
X10226753Y-7286608D01*
X10225633Y-7289311D01*
X10209344Y-7289311D01*
X10209721Y-7288935D01*
X10210653Y-7287798D01*
X10211773Y-7285095D01*
X10211773Y-7282168D01*
X10210653Y-7279465D01*
X10208584Y-7277396D01*
X10205880Y-7276276D01*
X10202954Y-7276276D01*
X10200250Y-7277396D01*
X10199114Y-7278328D01*
X10196403Y-7281039D01*
X10191933Y-7283275D01*
X10177616Y-7283275D01*
X10173146Y-7281039D01*
X10171295Y-7279189D01*
X10169060Y-7274718D01*
X10169060Y-7260402D01*
X10171295Y-7255932D01*
X10173146Y-7254081D01*
X10177616Y-7251846D01*
X10191933Y-7251846D01*
X10196403Y-7254081D01*
X10199114Y-7256792D01*
X10200250Y-7257725D01*
X10200600Y-7257869D01*
X10200892Y-7258108D01*
X10201941Y-7258425D01*
X10202954Y-7258845D01*
X10203332Y-7258845D01*
X10203693Y-7258954D01*
X10204784Y-7258845D01*
X10205880Y-7258845D01*
X10206229Y-7258700D01*
X10206605Y-7258663D01*
X10207571Y-7258144D01*
X10208584Y-7257725D01*
X10208851Y-7257458D01*
X10209184Y-7257279D01*
X10209878Y-7256431D01*
X10210653Y-7255656D01*
X10210798Y-7255307D01*
X10211037Y-7255014D01*
X10211354Y-7253965D01*
X10211773Y-7252952D01*
X10211773Y-7252574D01*
X10211882Y-7252213D01*
X10211880Y-7250743D01*
X10208309Y-7215028D01*
X10208202Y-7214495D01*
X10208202Y-7214311D01*
X10208130Y-7214139D01*
X10208020Y-7213587D01*
X10207501Y-7212621D01*
X10207082Y-7211608D01*
X10206815Y-7211341D01*
X10206636Y-7211008D01*
X10205788Y-7210314D01*
X10205013Y-7209539D01*
X10204664Y-7209394D01*
X10204371Y-7209155D01*
X10203322Y-7208838D01*
X10202309Y-7208419D01*
X10201748Y-7208363D01*
X10201570Y-7208310D01*
X10201387Y-7208328D01*
X10200846Y-7208275D01*
X10165132Y-7208275D01*
X10163668Y-7208419D01*
X10160965Y-7209539D01*
X10158896Y-7211608D01*
X10157776Y-7214311D01*
X10157776Y-7217238D01*
X10158896Y-7219941D01*
X10160965Y-7222011D01*
X10163668Y-7223130D01*
X10165132Y-7223275D01*
X10194058Y-7223275D01*
X10195440Y-7237095D01*
X10195415Y-7237093D01*
X10195166Y-7236990D01*
X10193703Y-7236846D01*
X10175846Y-7236846D01*
X10174383Y-7236990D01*
X10174134Y-7237093D01*
X10173865Y-7237112D01*
X10172492Y-7237638D01*
X10165349Y-7241209D01*
X10164719Y-7241605D01*
X10164536Y-7241681D01*
X10164330Y-7241850D01*
X10164105Y-7241992D01*
X10163975Y-7242142D01*
X10163400Y-7242614D01*
X10159828Y-7246186D01*
X10159356Y-7246760D01*
X10159207Y-7246890D01*
X10159064Y-7247116D01*
X10158896Y-7247322D01*
X10158820Y-7247505D01*
X10158423Y-7248135D01*
X10154852Y-7255278D01*
X10154326Y-7256651D01*
X10154307Y-7256919D01*
X10154204Y-7257168D01*
X10154060Y-7258632D01*
X10145727Y-7258632D01*
X10145727Y-7137886D01*
X10225489Y-7137886D01*
X10225489Y-7155743D01*
X10225633Y-7157206D01*
X10225736Y-7157455D01*
X10225755Y-7157724D01*
X10226281Y-7159097D01*
X10229852Y-7166240D01*
X10230248Y-7166870D01*
X10230324Y-7167053D01*
X10230493Y-7167258D01*
X10230635Y-7167484D01*
X10230785Y-7167614D01*
X10231257Y-7168189D01*
X10234828Y-7171761D01*
X10235403Y-7172232D01*
X10235533Y-7172382D01*
X10235759Y-7172524D01*
X10235965Y-7172693D01*
X10236148Y-7172769D01*
X10236778Y-7173166D01*
X10243920Y-7176737D01*
X10245294Y-7177262D01*
X10245562Y-7177281D01*
X10245811Y-7177385D01*
X10247274Y-7177529D01*
X10265132Y-7177529D01*
X10266595Y-7177385D01*
X10266844Y-7177281D01*
X10267113Y-7177262D01*
X10268486Y-7176737D01*
X10275629Y-7173166D01*
X10276258Y-7172769D01*
X10276441Y-7172693D01*
X10276647Y-7172524D01*
X10276873Y-7172382D01*
X10277003Y-7172233D01*
X10277578Y-7171761D01*
X10281149Y-7168189D01*
X10282082Y-7167053D01*
X10283202Y-7164349D01*
X10283202Y-7161423D01*
X10282082Y-7158719D01*
X10280013Y-7156650D01*
X10277309Y-7155530D01*
X10274383Y-7155530D01*
X10271679Y-7156650D01*
X10270542Y-7157583D01*
X10267832Y-7160293D01*
X10263361Y-7162529D01*
X10249045Y-7162529D01*
X10244574Y-7160293D01*
X10242724Y-7158443D01*
X10240489Y-7153973D01*
X10240489Y-7139656D01*
X10242724Y-7135186D01*
X10244574Y-7133335D01*
X10249045Y-7131100D01*
X10263361Y-7131100D01*
X10267832Y-7133335D01*
X10270542Y-7136046D01*
X10271679Y-7136979D01*
X10272028Y-7137124D01*
X10272320Y-7137363D01*
X10273369Y-7137679D01*
X10274383Y-7138099D01*
X10274760Y-7138099D01*
X10275122Y-7138208D01*
X10276213Y-7138099D01*
X10277309Y-7138099D01*
X10277658Y-7137954D01*
X10278034Y-7137917D01*
X10279000Y-7137399D01*
X10280013Y-7136979D01*
X10280280Y-7136712D01*
X10280612Y-7136533D01*
X10281306Y-7135685D01*
X10282082Y-7134910D01*
X10282226Y-7134561D01*
X10282466Y-7134269D01*
X10282782Y-7133219D01*
X10283202Y-7132206D01*
X10283202Y-7131829D01*
X10283311Y-7131467D01*
X10283309Y-7129997D01*
X10280380Y-7100708D01*
X10297061Y-7100708D01*
X10297061Y-7103635D01*
X10298181Y-7106338D01*
X10300251Y-7108408D01*
X10302954Y-7109527D01*
X10305880Y-7109527D01*
X10308584Y-7108408D01*
X10309721Y-7107475D01*
X10312040Y-7105155D01*
X10319920Y-7102529D01*
X10324629Y-7102529D01*
X10332509Y-7105155D01*
X10337539Y-7110186D01*
X10340198Y-7115503D01*
X10343346Y-7128095D01*
X10343346Y-7136962D01*
X10340198Y-7149554D01*
X10337539Y-7154872D01*
X10332509Y-7159902D01*
X10324629Y-7162529D01*
X10319920Y-7162529D01*
X10312040Y-7159902D01*
X10309721Y-7157583D01*
X10308584Y-7156650D01*
X10305881Y-7155530D01*
X10302954Y-7155530D01*
X10300251Y-7156650D01*
X10298181Y-7158719D01*
X10297061Y-7161423D01*
X10297061Y-7164349D01*
X10298181Y-7167053D01*
X10299114Y-7168189D01*
X10302685Y-7171761D01*
X10303822Y-7172693D01*
X10304071Y-7172797D01*
X10304275Y-7172973D01*
X10305617Y-7173572D01*
X10316331Y-7177144D01*
X10317057Y-7177309D01*
X10317240Y-7177385D01*
X10317505Y-7177411D01*
X10317765Y-7177470D01*
X10317962Y-7177456D01*
X10318703Y-7177529D01*
X10325846Y-7177529D01*
X10326586Y-7177456D01*
X10326784Y-7177470D01*
X10327044Y-7177411D01*
X10327309Y-7177385D01*
X10327492Y-7177309D01*
X10328218Y-7177144D01*
X10338932Y-7173572D01*
X10340274Y-7172973D01*
X10340478Y-7172796D01*
X10340727Y-7172693D01*
X10341863Y-7171761D01*
X10349006Y-7164618D01*
X10349478Y-7164043D01*
X10349628Y-7163913D01*
X10349770Y-7163687D01*
X10349939Y-7163481D01*
X10350015Y-7163298D01*
X10350411Y-7162669D01*
X10353983Y-7155526D01*
X10354023Y-7155419D01*
X10354056Y-7155375D01*
X10354276Y-7154760D01*
X10354508Y-7154152D01*
X10354512Y-7154098D01*
X10354551Y-7153991D01*
X10358122Y-7139705D01*
X10358159Y-7139451D01*
X10358202Y-7139349D01*
X10358256Y-7138799D01*
X10358337Y-7138250D01*
X10358321Y-7138141D01*
X10358346Y-7137886D01*
X10358346Y-7127172D01*
X10358321Y-7126917D01*
X10358337Y-7126807D01*
X10358256Y-7126259D01*
X10358202Y-7125708D01*
X10358159Y-7125606D01*
X10358122Y-7125353D01*
X10354551Y-7111067D01*
X10354512Y-7110959D01*
X10354508Y-7110905D01*
X10354275Y-7110297D01*
X10354056Y-7109682D01*
X10354024Y-7109639D01*
X10353983Y-7109532D01*
X10353874Y-7109314D01*
X10371917Y-7109314D01*
X10371917Y-7120029D01*
X10372061Y-7121492D01*
X10372165Y-7121741D01*
X10372184Y-7122010D01*
X10372709Y-7123383D01*
X10376281Y-7130526D01*
X10376677Y-7131155D01*
X10376753Y-7131338D01*
X10376922Y-7131544D01*
X10377064Y-7131770D01*
X10377214Y-7131900D01*
X10377685Y-7132475D01*
X10381257Y-7136046D01*
X10381832Y-7136518D01*
X10381962Y-7136668D01*
X10382187Y-7136810D01*
X10382393Y-7136979D01*
X10382576Y-7137055D01*
X10383206Y-7137451D01*
X10390349Y-7141023D01*
X10391722Y-7141548D01*
X10391991Y-7141567D01*
X10392240Y-7141670D01*
X10393703Y-7141814D01*
X10414774Y-7141814D01*
X10414774Y-7170029D01*
X10414919Y-7171492D01*
X10416038Y-7174196D01*
X10418108Y-7176265D01*
X10420811Y-7177385D01*
X10423738Y-7177385D01*
X10426441Y-7176265D01*
X10428510Y-7174196D01*
X10429630Y-7171492D01*
X10429774Y-7170029D01*
X10429774Y-7095029D01*
X10429630Y-7093566D01*
X10428510Y-7090862D01*
X10426441Y-7088793D01*
X10423738Y-7087673D01*
X10422274Y-7087529D01*
X10393703Y-7087529D01*
X10392240Y-7087673D01*
X10391991Y-7087776D01*
X10391722Y-7087795D01*
X10390349Y-7088321D01*
X10383206Y-7091892D01*
X10382576Y-7092288D01*
X10382393Y-7092364D01*
X10382188Y-7092533D01*
X10381962Y-7092675D01*
X10381832Y-7092825D01*
X10381257Y-7093297D01*
X10377685Y-7096868D01*
X10377214Y-7097443D01*
X10377064Y-7097573D01*
X10376922Y-7097799D01*
X10376753Y-7098005D01*
X10376677Y-7098187D01*
X10376281Y-7098817D01*
X10372709Y-7105960D01*
X10372184Y-7107334D01*
X10372165Y-7107602D01*
X10372061Y-7107851D01*
X10371917Y-7109314D01*
X10353874Y-7109314D01*
X10350411Y-7102389D01*
X10350015Y-7101759D01*
X10349939Y-7101576D01*
X10349770Y-7101370D01*
X10349628Y-7101145D01*
X10349478Y-7101015D01*
X10349006Y-7100440D01*
X10341863Y-7093297D01*
X10340727Y-7092364D01*
X10340478Y-7092261D01*
X10340274Y-7092084D01*
X10338932Y-7091485D01*
X10328218Y-7087914D01*
X10327492Y-7087749D01*
X10327309Y-7087673D01*
X10327044Y-7087647D01*
X10326784Y-7087588D01*
X10326586Y-7087602D01*
X10325846Y-7087529D01*
X10318703Y-7087529D01*
X10317962Y-7087602D01*
X10317765Y-7087588D01*
X10317505Y-7087647D01*
X10317240Y-7087673D01*
X10317057Y-7087749D01*
X10316331Y-7087914D01*
X10305617Y-7091485D01*
X10304275Y-7092084D01*
X10304071Y-7092261D01*
X10303822Y-7092364D01*
X10302685Y-7093297D01*
X10299114Y-7096868D01*
X10298181Y-7098005D01*
X10297061Y-7100708D01*
X10280380Y-7100708D01*
X10279737Y-7094282D01*
X10279630Y-7093749D01*
X10279630Y-7093566D01*
X10279559Y-7093393D01*
X10279448Y-7092841D01*
X10278930Y-7091875D01*
X10278510Y-7090862D01*
X10278243Y-7090595D01*
X10278065Y-7090262D01*
X10277217Y-7089568D01*
X10276441Y-7088793D01*
X10276092Y-7088648D01*
X10275800Y-7088409D01*
X10274750Y-7088092D01*
X10273738Y-7087673D01*
X10273177Y-7087618D01*
X10272998Y-7087564D01*
X10272816Y-7087582D01*
X10272274Y-7087529D01*
X10236560Y-7087529D01*
X10235097Y-7087673D01*
X10232393Y-7088793D01*
X10230324Y-7090862D01*
X10229204Y-7093566D01*
X10229204Y-7096492D01*
X10230324Y-7099196D01*
X10232393Y-7101265D01*
X10235097Y-7102385D01*
X10236560Y-7102529D01*
X10265487Y-7102529D01*
X10266869Y-7116349D01*
X10266844Y-7116347D01*
X10266595Y-7116244D01*
X10265132Y-7116100D01*
X10247274Y-7116100D01*
X10245811Y-7116244D01*
X10245562Y-7116347D01*
X10245294Y-7116366D01*
X10243920Y-7116892D01*
X10236778Y-7120463D01*
X10236148Y-7120860D01*
X10235965Y-7120935D01*
X10235759Y-7121104D01*
X10235533Y-7121247D01*
X10235403Y-7121396D01*
X10234828Y-7121868D01*
X10231257Y-7125440D01*
X10230785Y-7126015D01*
X10230635Y-7126145D01*
X10230493Y-7126371D01*
X10230324Y-7126576D01*
X10230248Y-7126759D01*
X10229852Y-7127389D01*
X10226281Y-7134532D01*
X10225755Y-7135905D01*
X10225736Y-7136174D01*
X10225633Y-7136423D01*
X10225489Y-7137886D01*
X10145727Y-7137886D01*
X10145727Y-7022820D01*
X10232776Y-7022820D01*
X10232776Y-7025746D01*
X10233896Y-7028450D01*
X10235965Y-7030519D01*
X10238668Y-7031639D01*
X10240132Y-7031783D01*
X10243346Y-7031783D01*
X10243346Y-7049283D01*
X10243490Y-7050746D01*
X10244610Y-7053450D01*
X10246679Y-7055519D01*
X10249383Y-7056639D01*
X10252309Y-7056639D01*
X10255013Y-7055519D01*
X10257082Y-7053450D01*
X10258202Y-7050746D01*
X10258346Y-7049283D01*
X10258346Y-7048345D01*
X10300548Y-7048345D01*
X10300755Y-7051264D01*
X10302064Y-7053881D01*
X10304274Y-7055799D01*
X10307051Y-7056724D01*
X10309970Y-7056517D01*
X10312587Y-7055208D01*
X10314504Y-7052997D01*
X10315104Y-7051655D01*
X10320537Y-7035354D01*
X10345440Y-7035354D01*
X10350874Y-7051655D01*
X10351473Y-7052997D01*
X10353390Y-7055208D01*
X10356008Y-7056517D01*
X10358927Y-7056724D01*
X10361703Y-7055799D01*
X10363914Y-7053881D01*
X10365222Y-7051264D01*
X10365430Y-7048345D01*
X10365104Y-7046911D01*
X10345656Y-6988569D01*
X10371917Y-6988569D01*
X10371917Y-6999283D01*
X10372061Y-7000746D01*
X10372165Y-7000995D01*
X10372184Y-7001264D01*
X10372709Y-7002637D01*
X10376281Y-7009780D01*
X10376677Y-7010409D01*
X10376753Y-7010592D01*
X10376922Y-7010798D01*
X10377064Y-7011024D01*
X10377214Y-7011154D01*
X10377685Y-7011729D01*
X10381257Y-7015300D01*
X10381832Y-7015772D01*
X10381962Y-7015922D01*
X10382187Y-7016064D01*
X10382393Y-7016233D01*
X10382576Y-7016309D01*
X10383206Y-7016705D01*
X10390349Y-7020277D01*
X10391722Y-7020802D01*
X10391991Y-7020821D01*
X10392240Y-7020925D01*
X10393703Y-7021069D01*
X10414774Y-7021069D01*
X10414774Y-7049283D01*
X10414919Y-7050746D01*
X10416038Y-7053450D01*
X10418108Y-7055519D01*
X10420811Y-7056639D01*
X10423738Y-7056639D01*
X10426441Y-7055519D01*
X10428510Y-7053450D01*
X10429630Y-7050746D01*
X10429774Y-7049283D01*
X10429774Y-6974283D01*
X10429630Y-6972820D01*
X10428510Y-6970116D01*
X10426441Y-6968047D01*
X10423738Y-6966927D01*
X10422274Y-6966783D01*
X10393703Y-6966783D01*
X10392240Y-6966927D01*
X10391991Y-6967030D01*
X10391722Y-6967049D01*
X10390349Y-6967575D01*
X10383206Y-6971146D01*
X10382576Y-6971543D01*
X10382393Y-6971618D01*
X10382188Y-6971787D01*
X10381962Y-6971929D01*
X10381832Y-6972079D01*
X10381257Y-6972551D01*
X10377685Y-6976122D01*
X10377214Y-6976697D01*
X10377064Y-6976827D01*
X10376922Y-6977053D01*
X10376753Y-6977259D01*
X10376677Y-6977442D01*
X10376281Y-6978072D01*
X10372709Y-6985215D01*
X10372184Y-6986588D01*
X10372165Y-6986856D01*
X10372061Y-6987105D01*
X10371917Y-6988569D01*
X10345656Y-6988569D01*
X10340104Y-6971911D01*
X10339504Y-6970569D01*
X10339153Y-6970164D01*
X10338914Y-6969685D01*
X10338203Y-6969068D01*
X10337587Y-6968358D01*
X10337108Y-6968118D01*
X10336703Y-6967767D01*
X10335811Y-6967470D01*
X10334970Y-6967049D01*
X10334435Y-6967011D01*
X10333927Y-6966842D01*
X10332989Y-6966908D01*
X10332051Y-6966842D01*
X10331542Y-6967011D01*
X10331008Y-6967049D01*
X10330167Y-6967470D01*
X10329274Y-6967767D01*
X10328869Y-6968119D01*
X10328390Y-6968358D01*
X10327775Y-6969068D01*
X10327064Y-6969685D01*
X10326824Y-6970164D01*
X10326473Y-6970569D01*
X10325874Y-6971911D01*
X10300874Y-7046911D01*
X10300548Y-7048345D01*
X10258346Y-7048345D01*
X10258346Y-7031783D01*
X10286560Y-7031783D01*
X10287301Y-7031710D01*
X10287498Y-7031724D01*
X10287641Y-7031676D01*
X10288023Y-7031639D01*
X10289134Y-7031179D01*
X10290274Y-7030799D01*
X10290478Y-7030622D01*
X10290727Y-7030519D01*
X10291577Y-7029669D01*
X10292485Y-7028881D01*
X10292606Y-7028640D01*
X10292796Y-7028450D01*
X10293256Y-7027339D01*
X10293794Y-7026264D01*
X10293813Y-7025995D01*
X10293916Y-7025746D01*
X10293916Y-7024543D01*
X10294001Y-7023345D01*
X10293916Y-7022970D01*
X10293916Y-7022820D01*
X10293840Y-7022637D01*
X10293675Y-7021911D01*
X10275818Y-6968340D01*
X10275219Y-6966997D01*
X10273301Y-6964787D01*
X10270684Y-6963478D01*
X10267765Y-6963270D01*
X10264989Y-6964196D01*
X10262778Y-6966113D01*
X10261469Y-6968731D01*
X10261262Y-6971650D01*
X10261588Y-6973083D01*
X10276154Y-7016783D01*
X10258346Y-7016783D01*
X10258346Y-6999283D01*
X10258202Y-6997820D01*
X10257082Y-6995116D01*
X10255013Y-6993047D01*
X10252309Y-6991927D01*
X10249383Y-6991927D01*
X10246679Y-6993047D01*
X10244610Y-6995116D01*
X10243490Y-6997820D01*
X10243346Y-6999283D01*
X10243346Y-7016783D01*
X10240132Y-7016783D01*
X10238668Y-7016927D01*
X10235965Y-7018047D01*
X10233896Y-7020116D01*
X10232776Y-7022820D01*
X10145727Y-7022820D01*
X10145727Y-6867823D01*
X10293346Y-6867823D01*
X10293346Y-6878537D01*
X10293490Y-6880000D01*
X10293593Y-6880249D01*
X10293612Y-6880518D01*
X10294138Y-6881891D01*
X10297709Y-6889034D01*
X10298105Y-6889664D01*
X10298181Y-6889847D01*
X10298350Y-6890052D01*
X10298492Y-6890278D01*
X10298642Y-6890408D01*
X10299114Y-6890983D01*
X10302685Y-6894555D01*
X10303260Y-6895027D01*
X10303390Y-6895176D01*
X10303616Y-6895318D01*
X10303822Y-6895487D01*
X10304005Y-6895563D01*
X10304635Y-6895960D01*
X10311778Y-6899531D01*
X10313151Y-6900057D01*
X10313419Y-6900076D01*
X10313668Y-6900179D01*
X10315132Y-6900323D01*
X10336203Y-6900323D01*
X10336203Y-6928537D01*
X10336347Y-6930000D01*
X10337467Y-6932704D01*
X10339536Y-6934773D01*
X10342240Y-6935893D01*
X10345166Y-6935893D01*
X10347870Y-6934773D01*
X10349939Y-6932704D01*
X10351059Y-6930000D01*
X10351203Y-6928537D01*
X10351203Y-6853537D01*
X10371917Y-6853537D01*
X10371917Y-6928537D01*
X10371954Y-6928913D01*
X10371936Y-6929061D01*
X10371988Y-6929252D01*
X10372061Y-6930000D01*
X10372443Y-6930922D01*
X10372706Y-6931884D01*
X10372998Y-6932262D01*
X10373181Y-6932704D01*
X10373886Y-6933409D01*
X10374497Y-6934198D01*
X10374913Y-6934435D01*
X10375251Y-6934773D01*
X10376172Y-6935155D01*
X10377038Y-6935650D01*
X10377513Y-6935710D01*
X10377954Y-6935893D01*
X10378952Y-6935893D01*
X10379941Y-6936019D01*
X10380402Y-6935893D01*
X10380881Y-6935893D01*
X10381802Y-6935511D01*
X10382764Y-6935249D01*
X10383142Y-6934956D01*
X10383584Y-6934773D01*
X10384289Y-6934068D01*
X10385078Y-6933457D01*
X10385513Y-6932844D01*
X10385653Y-6932704D01*
X10385710Y-6932566D01*
X10385929Y-6932258D01*
X10414774Y-6881779D01*
X10414774Y-6928537D01*
X10414919Y-6930000D01*
X10416038Y-6932704D01*
X10418108Y-6934773D01*
X10420811Y-6935893D01*
X10423738Y-6935893D01*
X10426441Y-6934773D01*
X10428510Y-6932704D01*
X10429630Y-6930000D01*
X10429774Y-6928537D01*
X10429774Y-6853537D01*
X10429737Y-6853161D01*
X10429756Y-6853013D01*
X10429704Y-6852822D01*
X10429630Y-6852074D01*
X10429249Y-6851152D01*
X10428986Y-6850190D01*
X10428693Y-6849812D01*
X10428510Y-6849370D01*
X10427805Y-6848665D01*
X10427194Y-6847876D01*
X10426779Y-6847639D01*
X10426441Y-6847301D01*
X10425520Y-6846919D01*
X10424654Y-6846424D01*
X10424179Y-6846364D01*
X10423738Y-6846181D01*
X10422740Y-6846181D01*
X10421751Y-6846055D01*
X10421289Y-6846181D01*
X10420811Y-6846181D01*
X10419890Y-6846563D01*
X10418927Y-6846825D01*
X10418549Y-6847118D01*
X10418108Y-6847301D01*
X10417402Y-6848006D01*
X10416614Y-6848617D01*
X10416178Y-6849230D01*
X10416038Y-6849370D01*
X10415981Y-6849508D01*
X10415763Y-6849816D01*
X10386917Y-6900295D01*
X10386917Y-6853537D01*
X10386773Y-6852074D01*
X10385653Y-6849370D01*
X10383584Y-6847301D01*
X10380881Y-6846181D01*
X10377954Y-6846181D01*
X10375251Y-6847301D01*
X10373181Y-6849370D01*
X10372061Y-6852074D01*
X10371917Y-6853537D01*
X10351203Y-6853537D01*
X10351059Y-6852074D01*
X10349939Y-6849370D01*
X10347870Y-6847301D01*
X10345166Y-6846181D01*
X10343703Y-6846037D01*
X10315132Y-6846037D01*
X10313668Y-6846181D01*
X10313419Y-6846284D01*
X10313151Y-6846303D01*
X10311778Y-6846829D01*
X10304635Y-6850400D01*
X10304005Y-6850797D01*
X10303822Y-6850873D01*
X10303616Y-6851041D01*
X10303390Y-6851184D01*
X10303260Y-6851333D01*
X10302685Y-6851805D01*
X10299114Y-6855377D01*
X10298642Y-6855952D01*
X10298492Y-6856082D01*
X10298350Y-6856307D01*
X10298181Y-6856513D01*
X10298106Y-6856696D01*
X10297709Y-6857326D01*
X10294138Y-6864469D01*
X10293612Y-6865842D01*
X10293593Y-6866111D01*
X10293490Y-6866360D01*
X10293346Y-6867823D01*
X10145727Y-6867823D01*
X10145727Y-6775648D01*
X10246917Y-6775648D01*
X10246917Y-6793506D01*
X10247061Y-6794969D01*
X10247164Y-6795218D01*
X10247184Y-6795487D01*
X10247709Y-6796860D01*
X10251280Y-6804003D01*
X10251677Y-6804632D01*
X10251753Y-6804815D01*
X10251921Y-6805021D01*
X10252064Y-6805247D01*
X10252213Y-6805377D01*
X10252685Y-6805952D01*
X10256257Y-6809523D01*
X10256832Y-6809995D01*
X10256962Y-6810145D01*
X10257188Y-6810287D01*
X10257393Y-6810456D01*
X10257576Y-6810532D01*
X10258206Y-6810928D01*
X10265349Y-6814500D01*
X10266722Y-6815025D01*
X10266991Y-6815044D01*
X10267240Y-6815147D01*
X10268703Y-6815291D01*
X10290132Y-6815291D01*
X10291595Y-6815147D01*
X10291844Y-6815044D01*
X10292112Y-6815025D01*
X10293486Y-6814500D01*
X10300628Y-6810928D01*
X10301258Y-6810532D01*
X10301441Y-6810456D01*
X10301647Y-6810287D01*
X10301873Y-6810145D01*
X10302003Y-6809995D01*
X10302578Y-6809523D01*
X10306149Y-6805952D01*
X10307082Y-6804815D01*
X10308202Y-6802112D01*
X10308202Y-6799185D01*
X10307082Y-6796482D01*
X10305013Y-6794412D01*
X10302309Y-6793293D01*
X10299383Y-6793293D01*
X10296679Y-6794412D01*
X10295543Y-6795345D01*
X10292832Y-6798056D01*
X10288361Y-6800291D01*
X10270473Y-6800291D01*
X10266003Y-6798056D01*
X10264153Y-6796206D01*
X10261917Y-6791735D01*
X10261917Y-6777419D01*
X10264153Y-6772948D01*
X10266003Y-6771098D01*
X10270473Y-6768863D01*
X10279417Y-6768863D01*
X10280191Y-6768786D01*
X10280388Y-6768800D01*
X10280523Y-6768754D01*
X10280880Y-6768719D01*
X10282006Y-6768252D01*
X10283160Y-6767862D01*
X10283350Y-6767696D01*
X10283584Y-6767599D01*
X10284445Y-6766738D01*
X10285362Y-6765935D01*
X10285475Y-6765708D01*
X10285653Y-6765530D01*
X10286119Y-6764404D01*
X10286660Y-6763312D01*
X10286676Y-6763060D01*
X10286773Y-6762826D01*
X10286773Y-6761607D01*
X10286854Y-6760392D01*
X10286773Y-6760153D01*
X10286773Y-6759900D01*
X10286354Y-6758887D01*
X10314855Y-6758887D01*
X10315211Y-6760314D01*
X10333068Y-6810314D01*
X10333696Y-6811643D01*
X10333949Y-6811922D01*
X10334110Y-6812263D01*
X10334923Y-6812998D01*
X10335660Y-6813813D01*
X10336001Y-6813974D01*
X10336280Y-6814227D01*
X10337312Y-6814595D01*
X10338305Y-6815066D01*
X10338681Y-6815084D01*
X10339035Y-6815211D01*
X10340131Y-6815156D01*
X10341228Y-6815211D01*
X10341582Y-6815084D01*
X10341958Y-6815066D01*
X10342950Y-6814596D01*
X10343984Y-6814227D01*
X10344263Y-6813974D01*
X10344603Y-6813813D01*
X10345339Y-6812999D01*
X10346153Y-6812263D01*
X10346314Y-6811922D01*
X10346567Y-6811643D01*
X10347195Y-6810314D01*
X10359575Y-6775648D01*
X10375489Y-6775648D01*
X10375489Y-6793506D01*
X10375633Y-6794969D01*
X10375736Y-6795218D01*
X10375755Y-6795487D01*
X10376281Y-6796860D01*
X10379852Y-6804003D01*
X10380248Y-6804632D01*
X10380324Y-6804815D01*
X10380493Y-6805021D01*
X10380635Y-6805247D01*
X10380785Y-6805377D01*
X10381257Y-6805952D01*
X10384828Y-6809523D01*
X10385403Y-6809995D01*
X10385533Y-6810145D01*
X10385759Y-6810287D01*
X10385965Y-6810456D01*
X10386148Y-6810532D01*
X10386778Y-6810928D01*
X10393920Y-6814500D01*
X10395294Y-6815025D01*
X10395562Y-6815044D01*
X10395811Y-6815147D01*
X10397274Y-6815291D01*
X10418703Y-6815291D01*
X10420166Y-6815147D01*
X10420415Y-6815044D01*
X10420684Y-6815025D01*
X10422057Y-6814500D01*
X10429200Y-6810928D01*
X10429830Y-6810532D01*
X10430013Y-6810456D01*
X10430218Y-6810287D01*
X10430444Y-6810145D01*
X10430574Y-6809995D01*
X10431149Y-6809523D01*
X10434721Y-6805952D01*
X10435653Y-6804815D01*
X10436773Y-6802112D01*
X10436773Y-6799185D01*
X10435653Y-6796482D01*
X10433584Y-6794412D01*
X10430881Y-6793293D01*
X10427954Y-6793293D01*
X10425251Y-6794412D01*
X10424114Y-6795345D01*
X10421403Y-6798056D01*
X10416933Y-6800291D01*
X10399045Y-6800291D01*
X10394574Y-6798056D01*
X10392724Y-6796206D01*
X10390489Y-6791735D01*
X10390489Y-6777419D01*
X10392724Y-6772948D01*
X10394574Y-6771098D01*
X10399045Y-6768863D01*
X10407989Y-6768863D01*
X10408763Y-6768786D01*
X10408959Y-6768800D01*
X10409095Y-6768754D01*
X10409452Y-6768719D01*
X10410578Y-6768252D01*
X10411731Y-6767862D01*
X10411922Y-6767696D01*
X10412156Y-6767599D01*
X10413017Y-6766738D01*
X10413934Y-6765935D01*
X10414046Y-6765708D01*
X10414225Y-6765530D01*
X10414691Y-6764404D01*
X10415231Y-6763312D01*
X10415248Y-6763060D01*
X10415345Y-6762826D01*
X10415345Y-6761607D01*
X10415426Y-6760392D01*
X10415345Y-6760153D01*
X10415345Y-6759900D01*
X10414878Y-6758774D01*
X10414488Y-6757620D01*
X10414280Y-6757328D01*
X10414225Y-6757196D01*
X10414085Y-6757056D01*
X10413633Y-6756424D01*
X10399517Y-6740291D01*
X10429417Y-6740291D01*
X10430881Y-6740147D01*
X10433584Y-6739027D01*
X10435653Y-6736958D01*
X10436773Y-6734255D01*
X10436773Y-6731328D01*
X10435653Y-6728625D01*
X10433584Y-6726555D01*
X10430881Y-6725435D01*
X10429417Y-6725291D01*
X10382989Y-6725291D01*
X10382215Y-6725368D01*
X10382018Y-6725354D01*
X10381883Y-6725400D01*
X10381526Y-6725435D01*
X10380400Y-6725902D01*
X10379246Y-6726292D01*
X10379056Y-6726458D01*
X10378822Y-6726555D01*
X10377961Y-6727416D01*
X10377044Y-6728219D01*
X10376931Y-6728446D01*
X10376753Y-6728625D01*
X10376287Y-6729750D01*
X10375746Y-6730842D01*
X10375730Y-6731094D01*
X10375633Y-6731328D01*
X10375633Y-6732547D01*
X10375552Y-6733762D01*
X10375633Y-6734001D01*
X10375633Y-6734255D01*
X10376099Y-6735380D01*
X10376489Y-6736534D01*
X10376698Y-6736826D01*
X10376753Y-6736958D01*
X10376892Y-6737098D01*
X10377344Y-6737730D01*
X10392691Y-6755269D01*
X10386778Y-6758226D01*
X10386148Y-6758622D01*
X10385965Y-6758698D01*
X10385759Y-6758867D01*
X10385533Y-6759009D01*
X10385403Y-6759159D01*
X10384828Y-6759631D01*
X10381257Y-6763202D01*
X10380785Y-6763777D01*
X10380635Y-6763907D01*
X10380493Y-6764133D01*
X10380324Y-6764339D01*
X10380248Y-6764522D01*
X10379852Y-6765152D01*
X10376281Y-6772294D01*
X10375755Y-6773668D01*
X10375736Y-6773936D01*
X10375633Y-6774185D01*
X10375489Y-6775648D01*
X10359575Y-6775648D01*
X10365052Y-6760314D01*
X10365408Y-6758887D01*
X10365263Y-6755965D01*
X10364010Y-6753320D01*
X10361841Y-6751356D01*
X10359085Y-6750372D01*
X10356162Y-6750517D01*
X10353517Y-6751770D01*
X10351554Y-6753939D01*
X10350926Y-6755269D01*
X10340132Y-6785492D01*
X10329338Y-6755269D01*
X10328710Y-6753939D01*
X10326746Y-6751770D01*
X10324101Y-6750517D01*
X10321178Y-6750372D01*
X10318422Y-6751356D01*
X10316253Y-6753320D01*
X10315000Y-6755965D01*
X10314855Y-6758887D01*
X10286354Y-6758887D01*
X10286307Y-6758774D01*
X10285917Y-6757620D01*
X10285708Y-6757328D01*
X10285653Y-6757196D01*
X10285514Y-6757056D01*
X10285062Y-6756424D01*
X10270946Y-6740291D01*
X10300846Y-6740291D01*
X10302309Y-6740147D01*
X10305013Y-6739027D01*
X10307082Y-6736958D01*
X10308202Y-6734255D01*
X10308202Y-6731328D01*
X10307082Y-6728625D01*
X10305013Y-6726555D01*
X10302309Y-6725435D01*
X10300846Y-6725291D01*
X10254417Y-6725291D01*
X10253643Y-6725368D01*
X10253447Y-6725354D01*
X10253311Y-6725400D01*
X10252954Y-6725435D01*
X10251828Y-6725902D01*
X10250675Y-6726292D01*
X10250484Y-6726458D01*
X10250250Y-6726555D01*
X10249389Y-6727416D01*
X10248472Y-6728219D01*
X10248360Y-6728446D01*
X10248181Y-6728625D01*
X10247715Y-6729750D01*
X10247175Y-6730842D01*
X10247158Y-6731094D01*
X10247061Y-6731328D01*
X10247061Y-6732547D01*
X10246980Y-6733762D01*
X10247061Y-6734001D01*
X10247061Y-6734255D01*
X10247528Y-6735380D01*
X10247918Y-6736534D01*
X10248126Y-6736826D01*
X10248181Y-6736958D01*
X10248321Y-6737098D01*
X10248773Y-6737730D01*
X10264120Y-6755269D01*
X10258206Y-6758226D01*
X10257576Y-6758622D01*
X10257393Y-6758698D01*
X10257188Y-6758867D01*
X10256962Y-6759009D01*
X10256832Y-6759159D01*
X10256257Y-6759631D01*
X10252685Y-6763202D01*
X10252213Y-6763777D01*
X10252064Y-6763907D01*
X10251921Y-6764133D01*
X10251753Y-6764339D01*
X10251677Y-6764522D01*
X10251280Y-6765152D01*
X10247709Y-6772294D01*
X10247184Y-6773668D01*
X10247164Y-6773936D01*
X10247061Y-6774185D01*
X10246917Y-6775648D01*
X10145727Y-6775648D01*
X10145727Y-6716958D01*
X10445107Y-6716958D01*
X10445107Y-7427354D01*
G37*
G36*
X11946054Y-5696929D02*
G01*
X11935724Y-5696929D01*
X11927130Y-5694065D01*
X11921623Y-5688558D01*
X11918726Y-5682764D01*
X11915340Y-5669220D01*
X11915340Y-5659639D01*
X11918726Y-5646095D01*
X11921623Y-5640301D01*
X11927129Y-5634794D01*
X11935724Y-5631929D01*
X11946054Y-5631929D01*
X11946054Y-5696929D01*
G37*
G36*
X12137562Y-5720818D02*
G01*
X11400023Y-5720818D01*
X11400023Y-5670144D01*
X11408911Y-5670144D01*
X11408911Y-5689191D01*
X11409056Y-5690655D01*
X11409159Y-5690903D01*
X11409178Y-5691172D01*
X11409703Y-5692545D01*
X11413513Y-5700164D01*
X11413909Y-5700794D01*
X11413985Y-5700977D01*
X11414154Y-5701183D01*
X11414296Y-5701409D01*
X11414446Y-5701539D01*
X11414918Y-5702114D01*
X11418727Y-5705923D01*
X11419302Y-5706395D01*
X11419432Y-5706545D01*
X11419658Y-5706687D01*
X11419864Y-5706856D01*
X11420047Y-5706932D01*
X11420676Y-5707328D01*
X11428295Y-5711138D01*
X11429669Y-5711663D01*
X11429937Y-5711682D01*
X11430186Y-5711785D01*
X11431650Y-5711929D01*
X11454507Y-5711929D01*
X11455970Y-5711785D01*
X11456219Y-5711682D01*
X11456488Y-5711663D01*
X11457861Y-5711138D01*
X11465480Y-5707328D01*
X11466110Y-5706932D01*
X11466293Y-5706856D01*
X11466498Y-5706687D01*
X11466724Y-5706545D01*
X11466854Y-5706395D01*
X11467429Y-5705923D01*
X11471239Y-5702114D01*
X11472171Y-5700977D01*
X11473291Y-5698273D01*
X11473291Y-5695347D01*
X11472171Y-5692644D01*
X11470102Y-5690574D01*
X11467398Y-5689454D01*
X11464472Y-5689454D01*
X11461768Y-5690574D01*
X11460632Y-5691507D01*
X11457683Y-5694456D01*
X11452736Y-5696929D01*
X11433420Y-5696929D01*
X11428473Y-5694456D01*
X11426385Y-5692368D01*
X11423911Y-5687421D01*
X11423911Y-5671914D01*
X11426385Y-5666967D01*
X11428473Y-5664879D01*
X11433420Y-5662406D01*
X11443078Y-5662406D01*
X11443851Y-5662329D01*
X11444049Y-5662343D01*
X11444185Y-5662297D01*
X11444541Y-5662262D01*
X11445666Y-5661795D01*
X11446821Y-5661405D01*
X11447011Y-5661238D01*
X11447245Y-5661142D01*
X11448106Y-5660281D01*
X11449023Y-5659478D01*
X11449135Y-5659251D01*
X11449314Y-5659072D01*
X11449780Y-5657948D01*
X11450320Y-5656855D01*
X11450337Y-5656602D01*
X11450434Y-5656369D01*
X11450434Y-5655151D01*
X11450515Y-5653935D01*
X11450434Y-5653695D01*
X11450434Y-5653442D01*
X11449968Y-5652317D01*
X11449926Y-5652192D01*
X11481373Y-5652192D01*
X11481729Y-5653619D01*
X11500777Y-5706952D01*
X11501405Y-5708281D01*
X11501657Y-5708560D01*
X11501819Y-5708901D01*
X11502632Y-5709637D01*
X11503369Y-5710451D01*
X11503709Y-5710612D01*
X11503988Y-5710865D01*
X11505022Y-5711234D01*
X11506013Y-5711704D01*
X11506389Y-5711722D01*
X11506744Y-5711849D01*
X11507840Y-5711794D01*
X11508936Y-5711849D01*
X11509291Y-5711722D01*
X11509667Y-5711704D01*
X11510658Y-5711234D01*
X11511692Y-5710865D01*
X11511971Y-5710612D01*
X11512311Y-5710451D01*
X11513048Y-5709637D01*
X11513861Y-5708901D01*
X11514022Y-5708561D01*
X11514275Y-5708281D01*
X11514903Y-5706952D01*
X11528049Y-5670144D01*
X11546054Y-5670144D01*
X11546054Y-5689191D01*
X11546198Y-5690655D01*
X11546302Y-5690903D01*
X11546321Y-5691172D01*
X11546846Y-5692545D01*
X11550656Y-5700164D01*
X11551052Y-5700794D01*
X11551128Y-5700977D01*
X11551297Y-5701183D01*
X11551439Y-5701409D01*
X11551589Y-5701539D01*
X11552060Y-5702114D01*
X11555870Y-5705923D01*
X11556445Y-5706395D01*
X11556575Y-5706545D01*
X11556800Y-5706687D01*
X11557006Y-5706856D01*
X11557189Y-5706932D01*
X11557819Y-5707328D01*
X11565438Y-5711138D01*
X11566812Y-5711663D01*
X11567080Y-5711682D01*
X11567329Y-5711785D01*
X11568792Y-5711929D01*
X11591650Y-5711929D01*
X11593113Y-5711785D01*
X11593362Y-5711682D01*
X11593630Y-5711663D01*
X11595004Y-5711138D01*
X11602623Y-5707328D01*
X11603253Y-5706932D01*
X11603435Y-5706856D01*
X11603641Y-5706687D01*
X11603867Y-5706545D01*
X11603997Y-5706395D01*
X11604572Y-5705923D01*
X11608382Y-5702114D01*
X11609314Y-5700977D01*
X11610434Y-5698273D01*
X11610434Y-5695347D01*
X11609314Y-5692644D01*
X11607245Y-5690574D01*
X11604541Y-5689454D01*
X11601615Y-5689454D01*
X11598911Y-5690574D01*
X11597775Y-5691507D01*
X11594826Y-5694456D01*
X11589879Y-5696929D01*
X11570563Y-5696929D01*
X11565616Y-5694456D01*
X11563528Y-5692368D01*
X11561054Y-5687421D01*
X11561054Y-5681572D01*
X11683197Y-5681572D01*
X11683197Y-5689191D01*
X11683341Y-5690655D01*
X11683444Y-5690903D01*
X11683464Y-5691172D01*
X11683989Y-5692545D01*
X11687799Y-5700164D01*
X11688195Y-5700794D01*
X11688271Y-5700977D01*
X11688440Y-5701183D01*
X11688582Y-5701409D01*
X11688732Y-5701539D01*
X11689203Y-5702114D01*
X11693013Y-5705923D01*
X11693588Y-5706395D01*
X11693718Y-5706545D01*
X11693943Y-5706687D01*
X11694149Y-5706856D01*
X11694332Y-5706932D01*
X11694962Y-5707328D01*
X11702581Y-5711138D01*
X11703954Y-5711663D01*
X11704223Y-5711682D01*
X11704472Y-5711785D01*
X11705935Y-5711929D01*
X11724983Y-5711929D01*
X11725723Y-5711856D01*
X11725921Y-5711871D01*
X11726181Y-5711811D01*
X11726446Y-5711785D01*
X11726629Y-5711709D01*
X11727355Y-5711545D01*
X11738783Y-5707735D01*
X11740126Y-5707136D01*
X11742337Y-5705218D01*
X11743645Y-5702601D01*
X11743853Y-5699682D01*
X11742927Y-5696906D01*
X11741010Y-5694695D01*
X11738393Y-5693386D01*
X11735474Y-5693179D01*
X11734040Y-5693505D01*
X11723766Y-5696929D01*
X11707706Y-5696929D01*
X11702759Y-5694456D01*
X11700671Y-5692368D01*
X11698197Y-5687421D01*
X11698197Y-5683343D01*
X11700671Y-5678396D01*
X11702759Y-5676308D01*
X11708553Y-5673411D01*
X11722992Y-5669801D01*
X11723100Y-5669762D01*
X11723154Y-5669758D01*
X11723762Y-5669526D01*
X11724377Y-5669306D01*
X11724421Y-5669274D01*
X11724528Y-5669233D01*
X11732147Y-5665423D01*
X11732776Y-5665027D01*
X11732959Y-5664951D01*
X11733165Y-5664782D01*
X11733391Y-5664640D01*
X11733521Y-5664490D01*
X11734096Y-5664018D01*
X11737905Y-5660209D01*
X11738377Y-5659634D01*
X11738527Y-5659504D01*
X11738669Y-5659279D01*
X11738838Y-5659072D01*
X11738914Y-5658889D01*
X11739310Y-5658260D01*
X11743120Y-5650641D01*
X11743645Y-5649268D01*
X11743664Y-5648999D01*
X11743767Y-5648750D01*
X11743912Y-5647287D01*
X11743912Y-5639668D01*
X11743767Y-5638204D01*
X11743664Y-5637955D01*
X11743645Y-5637687D01*
X11743120Y-5636313D01*
X11740256Y-5630585D01*
X11759532Y-5630585D01*
X11759532Y-5633511D01*
X11760652Y-5636215D01*
X11762721Y-5638284D01*
X11765424Y-5639404D01*
X11768351Y-5639404D01*
X11771054Y-5638285D01*
X11772191Y-5637352D01*
X11774749Y-5634794D01*
X11783343Y-5631929D01*
X11788528Y-5631929D01*
X11797122Y-5634794D01*
X11802628Y-5640301D01*
X11805525Y-5646094D01*
X11808912Y-5659639D01*
X11808912Y-5669220D01*
X11805525Y-5682764D01*
X11802628Y-5688558D01*
X11797122Y-5694065D01*
X11788528Y-5696929D01*
X11783343Y-5696929D01*
X11774749Y-5694065D01*
X11772191Y-5691507D01*
X11771054Y-5690574D01*
X11768351Y-5689454D01*
X11765425Y-5689454D01*
X11762721Y-5690574D01*
X11760652Y-5692644D01*
X11759532Y-5695347D01*
X11759532Y-5698273D01*
X11760652Y-5700977D01*
X11761584Y-5702114D01*
X11765394Y-5705923D01*
X11766530Y-5706856D01*
X11766779Y-5706959D01*
X11766983Y-5707136D01*
X11768326Y-5707735D01*
X11779754Y-5711545D01*
X11780479Y-5711709D01*
X11780663Y-5711785D01*
X11780928Y-5711811D01*
X11781188Y-5711871D01*
X11781385Y-5711856D01*
X11782126Y-5711929D01*
X11789745Y-5711929D01*
X11790485Y-5711856D01*
X11790683Y-5711871D01*
X11790943Y-5711811D01*
X11791208Y-5711785D01*
X11791391Y-5711709D01*
X11792117Y-5711545D01*
X11803545Y-5707735D01*
X11804888Y-5707136D01*
X11805091Y-5706959D01*
X11805340Y-5706856D01*
X11806477Y-5705923D01*
X11814096Y-5698304D01*
X11814568Y-5697729D01*
X11814717Y-5697599D01*
X11814860Y-5697373D01*
X11815029Y-5697168D01*
X11815104Y-5696985D01*
X11815501Y-5696355D01*
X11819310Y-5688736D01*
X11819351Y-5688629D01*
X11819383Y-5688585D01*
X11819603Y-5687970D01*
X11819836Y-5687363D01*
X11819839Y-5687309D01*
X11819878Y-5687201D01*
X11823688Y-5671963D01*
X11823725Y-5671709D01*
X11823767Y-5671607D01*
X11823822Y-5671056D01*
X11823903Y-5670508D01*
X11823886Y-5670399D01*
X11823912Y-5670144D01*
X11823912Y-5658715D01*
X11900340Y-5658715D01*
X11900340Y-5670144D01*
X11900365Y-5670399D01*
X11900349Y-5670508D01*
X11900430Y-5671056D01*
X11900484Y-5671607D01*
X11900526Y-5671709D01*
X11900564Y-5671963D01*
X11904374Y-5687201D01*
X11904412Y-5687309D01*
X11904416Y-5687363D01*
X11904648Y-5687970D01*
X11904868Y-5688585D01*
X11904900Y-5688629D01*
X11904941Y-5688736D01*
X11908751Y-5696355D01*
X11909147Y-5696985D01*
X11909223Y-5697168D01*
X11909392Y-5697373D01*
X11909534Y-5697599D01*
X11909684Y-5697729D01*
X11910156Y-5698304D01*
X11917775Y-5705923D01*
X11918911Y-5706856D01*
X11919160Y-5706959D01*
X11919364Y-5707136D01*
X11920706Y-5707735D01*
X11932135Y-5711545D01*
X11932860Y-5711709D01*
X11933044Y-5711785D01*
X11933309Y-5711811D01*
X11933569Y-5711871D01*
X11933766Y-5711856D01*
X11934507Y-5711929D01*
X11953554Y-5711929D01*
X11955018Y-5711785D01*
X11957721Y-5710665D01*
X11959790Y-5708596D01*
X11960910Y-5705893D01*
X11961054Y-5704429D01*
X11961054Y-5624429D01*
X11984150Y-5624429D01*
X11984150Y-5704429D01*
X11984187Y-5704806D01*
X11984168Y-5704953D01*
X11984220Y-5705144D01*
X11984294Y-5705893D01*
X11984675Y-5706814D01*
X11984938Y-5707777D01*
X11985231Y-5708155D01*
X11985414Y-5708596D01*
X11986119Y-5709301D01*
X11986730Y-5710090D01*
X11987145Y-5710328D01*
X11987483Y-5710665D01*
X11988404Y-5711047D01*
X11989270Y-5711542D01*
X11989745Y-5711602D01*
X11990186Y-5711785D01*
X11991184Y-5711785D01*
X11992173Y-5711911D01*
X11992635Y-5711785D01*
X11993113Y-5711785D01*
X11994034Y-5711404D01*
X11994997Y-5711141D01*
X11995375Y-5710848D01*
X11995816Y-5710665D01*
X11996521Y-5709960D01*
X11997310Y-5709349D01*
X11997746Y-5708736D01*
X11997886Y-5708596D01*
X11997942Y-5708459D01*
X11998161Y-5708150D01*
X12029864Y-5652671D01*
X12029864Y-5704429D01*
X12030008Y-5705893D01*
X12031128Y-5708596D01*
X12033197Y-5710665D01*
X12035901Y-5711785D01*
X12038827Y-5711785D01*
X12041531Y-5710665D01*
X12043600Y-5708596D01*
X12044720Y-5705893D01*
X12044864Y-5704429D01*
X12044864Y-5670144D01*
X12064150Y-5670144D01*
X12064150Y-5696810D01*
X12064294Y-5698274D01*
X12064809Y-5699517D01*
X12065414Y-5700977D01*
X12066346Y-5702114D01*
X12070156Y-5705923D01*
X12071292Y-5706856D01*
X12071541Y-5706959D01*
X12071745Y-5707136D01*
X12073087Y-5707735D01*
X12084516Y-5711545D01*
X12085241Y-5711709D01*
X12085424Y-5711785D01*
X12085690Y-5711811D01*
X12085950Y-5711871D01*
X12086147Y-5711856D01*
X12086888Y-5711929D01*
X12094507Y-5711929D01*
X12095247Y-5711856D01*
X12095445Y-5711871D01*
X12095704Y-5711811D01*
X12095970Y-5711785D01*
X12096153Y-5711709D01*
X12096878Y-5711545D01*
X12108307Y-5707735D01*
X12109650Y-5707136D01*
X12109853Y-5706959D01*
X12110102Y-5706856D01*
X12111239Y-5705923D01*
X12118858Y-5698304D01*
X12119329Y-5697729D01*
X12119479Y-5697599D01*
X12119621Y-5697373D01*
X12119790Y-5697168D01*
X12119866Y-5696985D01*
X12120263Y-5696355D01*
X12124072Y-5688736D01*
X12124113Y-5688629D01*
X12124145Y-5688585D01*
X12124365Y-5687970D01*
X12124598Y-5687363D01*
X12124601Y-5687309D01*
X12124640Y-5687201D01*
X12128450Y-5671963D01*
X12128487Y-5671709D01*
X12128529Y-5671607D01*
X12128584Y-5671056D01*
X12128665Y-5670508D01*
X12128648Y-5670399D01*
X12128673Y-5670144D01*
X12128673Y-5658715D01*
X12128648Y-5658460D01*
X12128665Y-5658351D01*
X12128584Y-5657803D01*
X12128529Y-5657252D01*
X12128487Y-5657150D01*
X12128450Y-5656896D01*
X12124640Y-5641658D01*
X12124601Y-5641550D01*
X12124598Y-5641496D01*
X12124365Y-5640889D01*
X12124145Y-5640273D01*
X12124113Y-5640230D01*
X12124072Y-5640123D01*
X12120263Y-5632504D01*
X12119866Y-5631874D01*
X12119790Y-5631691D01*
X12119621Y-5631485D01*
X12119479Y-5631260D01*
X12119330Y-5631130D01*
X12118858Y-5630555D01*
X12111239Y-5622936D01*
X12110102Y-5622003D01*
X12109853Y-5621900D01*
X12109650Y-5621723D01*
X12108307Y-5621124D01*
X12096878Y-5617314D01*
X12096153Y-5617149D01*
X12095970Y-5617074D01*
X12095704Y-5617047D01*
X12095445Y-5616988D01*
X12095247Y-5617002D01*
X12094507Y-5616929D01*
X12083078Y-5616929D01*
X12081615Y-5617074D01*
X12081366Y-5617177D01*
X12081097Y-5617196D01*
X12079724Y-5617721D01*
X12072105Y-5621531D01*
X12070861Y-5622314D01*
X12068943Y-5624525D01*
X12068018Y-5627301D01*
X12068225Y-5630220D01*
X12069534Y-5632837D01*
X12071745Y-5634755D01*
X12074521Y-5635680D01*
X12077440Y-5635473D01*
X12078813Y-5634947D01*
X12084849Y-5631929D01*
X12093290Y-5631929D01*
X12101884Y-5634794D01*
X12107390Y-5640301D01*
X12110287Y-5646094D01*
X12113673Y-5659639D01*
X12113673Y-5669220D01*
X12110287Y-5682764D01*
X12107390Y-5688558D01*
X12101884Y-5694065D01*
X12093290Y-5696929D01*
X12088105Y-5696929D01*
X12079511Y-5694065D01*
X12079150Y-5693704D01*
X12079150Y-5677644D01*
X12086888Y-5677644D01*
X12088351Y-5677500D01*
X12091054Y-5676380D01*
X12093124Y-5674311D01*
X12094244Y-5671607D01*
X12094244Y-5668681D01*
X12093124Y-5665977D01*
X12091054Y-5663908D01*
X12088351Y-5662788D01*
X12086888Y-5662644D01*
X12071650Y-5662644D01*
X12070186Y-5662788D01*
X12067483Y-5663908D01*
X12065414Y-5665977D01*
X12064294Y-5668681D01*
X12064150Y-5670144D01*
X12044864Y-5670144D01*
X12044864Y-5624429D01*
X12044827Y-5624053D01*
X12044846Y-5623906D01*
X12044793Y-5623714D01*
X12044720Y-5622966D01*
X12044338Y-5622045D01*
X12044076Y-5621082D01*
X12043783Y-5620704D01*
X12043600Y-5620263D01*
X12042895Y-5619558D01*
X12042284Y-5618769D01*
X12041868Y-5618531D01*
X12041531Y-5618193D01*
X12040609Y-5617812D01*
X12039743Y-5617317D01*
X12039269Y-5617256D01*
X12038827Y-5617074D01*
X12037830Y-5617074D01*
X12036840Y-5616948D01*
X12036379Y-5617074D01*
X12035901Y-5617074D01*
X12034979Y-5617455D01*
X12034017Y-5617718D01*
X12033639Y-5618010D01*
X12033197Y-5618193D01*
X12032492Y-5618899D01*
X12031703Y-5619509D01*
X12031268Y-5620123D01*
X12031128Y-5620263D01*
X12031071Y-5620400D01*
X12030852Y-5620708D01*
X11999150Y-5676188D01*
X11999150Y-5624429D01*
X11999005Y-5622966D01*
X11997886Y-5620263D01*
X11995816Y-5618193D01*
X11993113Y-5617074D01*
X11990186Y-5617074D01*
X11987483Y-5618193D01*
X11985414Y-5620263D01*
X11984294Y-5622966D01*
X11984150Y-5624429D01*
X11961054Y-5624429D01*
X11960910Y-5622966D01*
X11959790Y-5620263D01*
X11957721Y-5618193D01*
X11955018Y-5617074D01*
X11953554Y-5616929D01*
X11934507Y-5616929D01*
X11933766Y-5617002D01*
X11933569Y-5616988D01*
X11933309Y-5617047D01*
X11933044Y-5617074D01*
X11932860Y-5617149D01*
X11932135Y-5617314D01*
X11920706Y-5621124D01*
X11919364Y-5621723D01*
X11919161Y-5621900D01*
X11918911Y-5622003D01*
X11917775Y-5622936D01*
X11910156Y-5630555D01*
X11909684Y-5631130D01*
X11909534Y-5631260D01*
X11909392Y-5631485D01*
X11909223Y-5631691D01*
X11909147Y-5631874D01*
X11908751Y-5632504D01*
X11904941Y-5640123D01*
X11904900Y-5640230D01*
X11904868Y-5640273D01*
X11904648Y-5640889D01*
X11904416Y-5641496D01*
X11904412Y-5641550D01*
X11904374Y-5641658D01*
X11900564Y-5656896D01*
X11900526Y-5657150D01*
X11900484Y-5657252D01*
X11900430Y-5657803D01*
X11900349Y-5658351D01*
X11900365Y-5658460D01*
X11900340Y-5658715D01*
X11823912Y-5658715D01*
X11823886Y-5658460D01*
X11823903Y-5658351D01*
X11823822Y-5657803D01*
X11823767Y-5657252D01*
X11823725Y-5657150D01*
X11823688Y-5656896D01*
X11819878Y-5641658D01*
X11819839Y-5641550D01*
X11819836Y-5641496D01*
X11819603Y-5640889D01*
X11819383Y-5640273D01*
X11819351Y-5640230D01*
X11819310Y-5640123D01*
X11815501Y-5632504D01*
X11815104Y-5631874D01*
X11815029Y-5631691D01*
X11814859Y-5631485D01*
X11814717Y-5631260D01*
X11814568Y-5631130D01*
X11814096Y-5630555D01*
X11806477Y-5622936D01*
X11805340Y-5622003D01*
X11805091Y-5621900D01*
X11804888Y-5621723D01*
X11803545Y-5621124D01*
X11792117Y-5617314D01*
X11791391Y-5617149D01*
X11791208Y-5617074D01*
X11790943Y-5617047D01*
X11790683Y-5616988D01*
X11790485Y-5617002D01*
X11789745Y-5616929D01*
X11782126Y-5616929D01*
X11781385Y-5617002D01*
X11781188Y-5616988D01*
X11780928Y-5617047D01*
X11780663Y-5617074D01*
X11780479Y-5617149D01*
X11779754Y-5617314D01*
X11768326Y-5621124D01*
X11766983Y-5621723D01*
X11766779Y-5621900D01*
X11766531Y-5622003D01*
X11765394Y-5622936D01*
X11761584Y-5626745D01*
X11760652Y-5627882D01*
X11759532Y-5630585D01*
X11740256Y-5630585D01*
X11739310Y-5628694D01*
X11738914Y-5628065D01*
X11738838Y-5627882D01*
X11738669Y-5627675D01*
X11738527Y-5627450D01*
X11738377Y-5627320D01*
X11737905Y-5626745D01*
X11734096Y-5622936D01*
X11733521Y-5622464D01*
X11733391Y-5622314D01*
X11733165Y-5622172D01*
X11732959Y-5622003D01*
X11732776Y-5621927D01*
X11732147Y-5621531D01*
X11724528Y-5617721D01*
X11723154Y-5617196D01*
X11722886Y-5617177D01*
X11722637Y-5617074D01*
X11721173Y-5616929D01*
X11702126Y-5616929D01*
X11701385Y-5617002D01*
X11701188Y-5616988D01*
X11700928Y-5617047D01*
X11700663Y-5617074D01*
X11700479Y-5617149D01*
X11699754Y-5617314D01*
X11688326Y-5621124D01*
X11686983Y-5621723D01*
X11684772Y-5623641D01*
X11683464Y-5626258D01*
X11683256Y-5629177D01*
X11684182Y-5631953D01*
X11686099Y-5634164D01*
X11688716Y-5635473D01*
X11691635Y-5635680D01*
X11693069Y-5635354D01*
X11703343Y-5631929D01*
X11719403Y-5631929D01*
X11724350Y-5634403D01*
X11726438Y-5636491D01*
X11728912Y-5641438D01*
X11728912Y-5645516D01*
X11726438Y-5650463D01*
X11724350Y-5652551D01*
X11718556Y-5655448D01*
X11704116Y-5659058D01*
X11704008Y-5659097D01*
X11703954Y-5659100D01*
X11703345Y-5659334D01*
X11702732Y-5659553D01*
X11702688Y-5659585D01*
X11702581Y-5659626D01*
X11694962Y-5663436D01*
X11694332Y-5663832D01*
X11694149Y-5663908D01*
X11693943Y-5664077D01*
X11693718Y-5664219D01*
X11693588Y-5664368D01*
X11693013Y-5664840D01*
X11689203Y-5668650D01*
X11688732Y-5669225D01*
X11688582Y-5669355D01*
X11688440Y-5669581D01*
X11688271Y-5669786D01*
X11688195Y-5669969D01*
X11687799Y-5670599D01*
X11683989Y-5678218D01*
X11683464Y-5679591D01*
X11683444Y-5679860D01*
X11683341Y-5680109D01*
X11683197Y-5681572D01*
X11561054Y-5681572D01*
X11561054Y-5671914D01*
X11563528Y-5666967D01*
X11565616Y-5664879D01*
X11570563Y-5662406D01*
X11580221Y-5662406D01*
X11580994Y-5662329D01*
X11581192Y-5662343D01*
X11581327Y-5662297D01*
X11581684Y-5662262D01*
X11582809Y-5661795D01*
X11583964Y-5661405D01*
X11584154Y-5661238D01*
X11584388Y-5661142D01*
X11585249Y-5660281D01*
X11586166Y-5659478D01*
X11586278Y-5659251D01*
X11586457Y-5659072D01*
X11586923Y-5657948D01*
X11587463Y-5656855D01*
X11587480Y-5656602D01*
X11587577Y-5656369D01*
X11587577Y-5655151D01*
X11587658Y-5653935D01*
X11587577Y-5653695D01*
X11587577Y-5653442D01*
X11587111Y-5652317D01*
X11586720Y-5651163D01*
X11586512Y-5650871D01*
X11586457Y-5650739D01*
X11586317Y-5650599D01*
X11585865Y-5649967D01*
X11570083Y-5631929D01*
X11603078Y-5631929D01*
X11604541Y-5631785D01*
X11607245Y-5630665D01*
X11609314Y-5628596D01*
X11610434Y-5625893D01*
X11610434Y-5622966D01*
X11609314Y-5620263D01*
X11607245Y-5618193D01*
X11604541Y-5617074D01*
X11603078Y-5616929D01*
X11553554Y-5616929D01*
X11552780Y-5617006D01*
X11552584Y-5616993D01*
X11552448Y-5617038D01*
X11552091Y-5617074D01*
X11550965Y-5617540D01*
X11549812Y-5617930D01*
X11549621Y-5618097D01*
X11549388Y-5618193D01*
X11548526Y-5619054D01*
X11547609Y-5619857D01*
X11547497Y-5620084D01*
X11547318Y-5620263D01*
X11546852Y-5621388D01*
X11546312Y-5622480D01*
X11546295Y-5622733D01*
X11546198Y-5622966D01*
X11546198Y-5624185D01*
X11546117Y-5625400D01*
X11546198Y-5625640D01*
X11546198Y-5625893D01*
X11546665Y-5627018D01*
X11547055Y-5628172D01*
X11547263Y-5628464D01*
X11547318Y-5628596D01*
X11547458Y-5628736D01*
X11547910Y-5629368D01*
X11564706Y-5648564D01*
X11557819Y-5652007D01*
X11557189Y-5652403D01*
X11557007Y-5652479D01*
X11556801Y-5652648D01*
X11556575Y-5652790D01*
X11556445Y-5652940D01*
X11555870Y-5653412D01*
X11552061Y-5657221D01*
X11551589Y-5657796D01*
X11551439Y-5657926D01*
X11551297Y-5658152D01*
X11551128Y-5658358D01*
X11551052Y-5658541D01*
X11550656Y-5659171D01*
X11546846Y-5666790D01*
X11546321Y-5668163D01*
X11546302Y-5668432D01*
X11546198Y-5668681D01*
X11546054Y-5670144D01*
X11528049Y-5670144D01*
X11533951Y-5653619D01*
X11534307Y-5652192D01*
X11534162Y-5649269D01*
X11532909Y-5646625D01*
X11530740Y-5644661D01*
X11527984Y-5643677D01*
X11525061Y-5643822D01*
X11522416Y-5645075D01*
X11520452Y-5647244D01*
X11519825Y-5648574D01*
X11507840Y-5682130D01*
X11495855Y-5648574D01*
X11495228Y-5647244D01*
X11493264Y-5645075D01*
X11490619Y-5643822D01*
X11487696Y-5643677D01*
X11484940Y-5644661D01*
X11482771Y-5646625D01*
X11481518Y-5649269D01*
X11481373Y-5652192D01*
X11449926Y-5652192D01*
X11449577Y-5651163D01*
X11449369Y-5650871D01*
X11449314Y-5650739D01*
X11449174Y-5650599D01*
X11448722Y-5649967D01*
X11432940Y-5631929D01*
X11465935Y-5631929D01*
X11467398Y-5631785D01*
X11470102Y-5630665D01*
X11472171Y-5628596D01*
X11473291Y-5625893D01*
X11473291Y-5622966D01*
X11472171Y-5620263D01*
X11470102Y-5618193D01*
X11467398Y-5617074D01*
X11465935Y-5616929D01*
X11416411Y-5616929D01*
X11415638Y-5617006D01*
X11415441Y-5616993D01*
X11415305Y-5617038D01*
X11414948Y-5617074D01*
X11413822Y-5617540D01*
X11412669Y-5617930D01*
X11412478Y-5618097D01*
X11412245Y-5618193D01*
X11411384Y-5619054D01*
X11410466Y-5619857D01*
X11410354Y-5620084D01*
X11410175Y-5620263D01*
X11409709Y-5621388D01*
X11409169Y-5622480D01*
X11409152Y-5622733D01*
X11409056Y-5622966D01*
X11409056Y-5624185D01*
X11408975Y-5625400D01*
X11409056Y-5625640D01*
X11409056Y-5625893D01*
X11409522Y-5627018D01*
X11409912Y-5628172D01*
X11410121Y-5628464D01*
X11410175Y-5628596D01*
X11410315Y-5628736D01*
X11410767Y-5629368D01*
X11427563Y-5648564D01*
X11420676Y-5652007D01*
X11420046Y-5652403D01*
X11419864Y-5652479D01*
X11419658Y-5652648D01*
X11419432Y-5652790D01*
X11419302Y-5652940D01*
X11418727Y-5653412D01*
X11414918Y-5657221D01*
X11414446Y-5657796D01*
X11414296Y-5657926D01*
X11414154Y-5658152D01*
X11413985Y-5658358D01*
X11413909Y-5658541D01*
X11413513Y-5659171D01*
X11409703Y-5666790D01*
X11409178Y-5668163D01*
X11409159Y-5668432D01*
X11409056Y-5668681D01*
X11408911Y-5670144D01*
X11400023Y-5670144D01*
X11400023Y-5608041D01*
X12137562Y-5608041D01*
X12137562Y-5720818D01*
G37*
D11*
G36*
X12383027Y-7736462D02*
G01*
X12099934Y-7736462D01*
X12099934Y-7668605D01*
X12112434Y-7668605D01*
X12112434Y-7692414D01*
X12112674Y-7694853D01*
X12112846Y-7695268D01*
X12112877Y-7695716D01*
X12113753Y-7698004D01*
X12118515Y-7707528D01*
X12119176Y-7708578D01*
X12119302Y-7708882D01*
X12119584Y-7709226D01*
X12119821Y-7709602D01*
X12120070Y-7709818D01*
X12120857Y-7710777D01*
X12125618Y-7715539D01*
X12126577Y-7716326D01*
X12126793Y-7716575D01*
X12127169Y-7716811D01*
X12127513Y-7717093D01*
X12127818Y-7717220D01*
X12128867Y-7717880D01*
X12138391Y-7722642D01*
X12140680Y-7723518D01*
X12141128Y-7723550D01*
X12141543Y-7723722D01*
X12143981Y-7723962D01*
X12172553Y-7723962D01*
X12174991Y-7723722D01*
X12175406Y-7723550D01*
X12175854Y-7723518D01*
X12178143Y-7722642D01*
X12187666Y-7717880D01*
X12188716Y-7717220D01*
X12189021Y-7717093D01*
X12189364Y-7716811D01*
X12189740Y-7716575D01*
X12189956Y-7716325D01*
X12190915Y-7715539D01*
X12195677Y-7710777D01*
X12197232Y-7708882D01*
X12199098Y-7704377D01*
X12199098Y-7699499D01*
X12197232Y-7694993D01*
X12193783Y-7691545D01*
X12189277Y-7689678D01*
X12184399Y-7689678D01*
X12179893Y-7691545D01*
X12177999Y-7693099D01*
X12174672Y-7696427D01*
X12169602Y-7698962D01*
X12146932Y-7698962D01*
X12141862Y-7696427D01*
X12139969Y-7694534D01*
X12137434Y-7689463D01*
X12137434Y-7671555D01*
X12139969Y-7666485D01*
X12141862Y-7664592D01*
X12146932Y-7662057D01*
X12158267Y-7662057D01*
X12159556Y-7661930D01*
X12159885Y-7661952D01*
X12160111Y-7661875D01*
X12160705Y-7661817D01*
X12162581Y-7661040D01*
X12164505Y-7660389D01*
X12164822Y-7660112D01*
X12165211Y-7659950D01*
X12166647Y-7658515D01*
X12168175Y-7657178D01*
X12168362Y-7656800D01*
X12168660Y-7656502D01*
X12169437Y-7654626D01*
X12170337Y-7652806D01*
X12170365Y-7652385D01*
X12170527Y-7651996D01*
X12170527Y-7649966D01*
X12170662Y-7647939D01*
X12170527Y-7647540D01*
X12170527Y-7647118D01*
X12170321Y-7646622D01*
X12203044Y-7646622D01*
X12203638Y-7648999D01*
X12227447Y-7715666D01*
X12228494Y-7717882D01*
X12228915Y-7718347D01*
X12229184Y-7718914D01*
X12230539Y-7720142D01*
X12231767Y-7721498D01*
X12232334Y-7721766D01*
X12232799Y-7722187D01*
X12234522Y-7722802D01*
X12236175Y-7723585D01*
X12236801Y-7723617D01*
X12237392Y-7723828D01*
X12239220Y-7723737D01*
X12241046Y-7723828D01*
X12241637Y-7723617D01*
X12242264Y-7723585D01*
X12243917Y-7722802D01*
X12245639Y-7722187D01*
X12246104Y-7721766D01*
X12246671Y-7721498D01*
X12247899Y-7720142D01*
X12249255Y-7718914D01*
X12249524Y-7718347D01*
X12249945Y-7717882D01*
X12250991Y-7715666D01*
X12267799Y-7668605D01*
X12283862Y-7668605D01*
X12283862Y-7692414D01*
X12284102Y-7694853D01*
X12284274Y-7695268D01*
X12284306Y-7695716D01*
X12285182Y-7698004D01*
X12289944Y-7707528D01*
X12290604Y-7708578D01*
X12290731Y-7708882D01*
X12291012Y-7709226D01*
X12291249Y-7709602D01*
X12291499Y-7709818D01*
X12292285Y-7710777D01*
X12297047Y-7715539D01*
X12298006Y-7716326D01*
X12298222Y-7716575D01*
X12298597Y-7716811D01*
X12298941Y-7717093D01*
X12299246Y-7717220D01*
X12300296Y-7717880D01*
X12309820Y-7722642D01*
X12312108Y-7723518D01*
X12312556Y-7723550D01*
X12312971Y-7723722D01*
X12315410Y-7723962D01*
X12343981Y-7723962D01*
X12346420Y-7723722D01*
X12346835Y-7723550D01*
X12347283Y-7723518D01*
X12349571Y-7722642D01*
X12359095Y-7717880D01*
X12360145Y-7717220D01*
X12360450Y-7717093D01*
X12360793Y-7716811D01*
X12361169Y-7716575D01*
X12361385Y-7716325D01*
X12362344Y-7715539D01*
X12367106Y-7710777D01*
X12368660Y-7708882D01*
X12370527Y-7704377D01*
X12370527Y-7699499D01*
X12368660Y-7694993D01*
X12365211Y-7691545D01*
X12360705Y-7689678D01*
X12355828Y-7689678D01*
X12351322Y-7691545D01*
X12349428Y-7693099D01*
X12346100Y-7696427D01*
X12341030Y-7698962D01*
X12318361Y-7698962D01*
X12313290Y-7696427D01*
X12311397Y-7694534D01*
X12308862Y-7689463D01*
X12308862Y-7671555D01*
X12311397Y-7666485D01*
X12313290Y-7664592D01*
X12318361Y-7662057D01*
X12329695Y-7662057D01*
X12330985Y-7661930D01*
X12331313Y-7661952D01*
X12331540Y-7661875D01*
X12332134Y-7661817D01*
X12334009Y-7661040D01*
X12335933Y-7660389D01*
X12336251Y-7660112D01*
X12336640Y-7659950D01*
X12338076Y-7658515D01*
X12339604Y-7657178D01*
X12339791Y-7656800D01*
X12340089Y-7656502D01*
X12340866Y-7654626D01*
X12341766Y-7652806D01*
X12341794Y-7652385D01*
X12341955Y-7651996D01*
X12341955Y-7649966D01*
X12342090Y-7647939D01*
X12341955Y-7647540D01*
X12341955Y-7647118D01*
X12341178Y-7645243D01*
X12340528Y-7643319D01*
X12340180Y-7642833D01*
X12340089Y-7642612D01*
X12339856Y-7642380D01*
X12339103Y-7641326D01*
X12323909Y-7623962D01*
X12358267Y-7623962D01*
X12360705Y-7623722D01*
X12365211Y-7621855D01*
X12368660Y-7618406D01*
X12370527Y-7613900D01*
X12370527Y-7609023D01*
X12368660Y-7604517D01*
X12365211Y-7601068D01*
X12360705Y-7599202D01*
X12358267Y-7598962D01*
X12296362Y-7598962D01*
X12295073Y-7599089D01*
X12294744Y-7599067D01*
X12294518Y-7599143D01*
X12293924Y-7599202D01*
X12292048Y-7599979D01*
X12290124Y-7600630D01*
X12289807Y-7600907D01*
X12289418Y-7601068D01*
X12287982Y-7602504D01*
X12286454Y-7603841D01*
X12286267Y-7604219D01*
X12285969Y-7604517D01*
X12285192Y-7606393D01*
X12284292Y-7608213D01*
X12284264Y-7608634D01*
X12284102Y-7609023D01*
X12284102Y-7611053D01*
X12283967Y-7613080D01*
X12284102Y-7613479D01*
X12284102Y-7613900D01*
X12284879Y-7615776D01*
X12285530Y-7617700D01*
X12285877Y-7618186D01*
X12285969Y-7618406D01*
X12286201Y-7618639D01*
X12286955Y-7619693D01*
X12305286Y-7640643D01*
X12300296Y-7643139D01*
X12299246Y-7643799D01*
X12298941Y-7643926D01*
X12298598Y-7644207D01*
X12298222Y-7644444D01*
X12298006Y-7644693D01*
X12297047Y-7645480D01*
X12292285Y-7650242D01*
X12291499Y-7651201D01*
X12291249Y-7651417D01*
X12291012Y-7651793D01*
X12290731Y-7652136D01*
X12290605Y-7652441D01*
X12289944Y-7653491D01*
X12285182Y-7663014D01*
X12284306Y-7665303D01*
X12284274Y-7665751D01*
X12284102Y-7666166D01*
X12283862Y-7668605D01*
X12267799Y-7668605D01*
X12274801Y-7648999D01*
X12275394Y-7646622D01*
X12275152Y-7641751D01*
X12273064Y-7637343D01*
X12269449Y-7634070D01*
X12264856Y-7632429D01*
X12259984Y-7632672D01*
X12255577Y-7634759D01*
X12252303Y-7638375D01*
X12251257Y-7640591D01*
X12239219Y-7674297D01*
X12227182Y-7640591D01*
X12226135Y-7638375D01*
X12222862Y-7634759D01*
X12218454Y-7632672D01*
X12213583Y-7632429D01*
X12208990Y-7634070D01*
X12205374Y-7637343D01*
X12203286Y-7641751D01*
X12203044Y-7646622D01*
X12170321Y-7646622D01*
X12169750Y-7645243D01*
X12169099Y-7643319D01*
X12168752Y-7642833D01*
X12168660Y-7642612D01*
X12168428Y-7642380D01*
X12167674Y-7641326D01*
X12152481Y-7623962D01*
X12186838Y-7623962D01*
X12189277Y-7623722D01*
X12193783Y-7621855D01*
X12197232Y-7618406D01*
X12199098Y-7613900D01*
X12199098Y-7609023D01*
X12197232Y-7604517D01*
X12193783Y-7601068D01*
X12189277Y-7599202D01*
X12186838Y-7598962D01*
X12124934Y-7598962D01*
X12123644Y-7599089D01*
X12123316Y-7599067D01*
X12123089Y-7599143D01*
X12122495Y-7599202D01*
X12120619Y-7599979D01*
X12118696Y-7600630D01*
X12118378Y-7600907D01*
X12117989Y-7601068D01*
X12116553Y-7602504D01*
X12115025Y-7603841D01*
X12114838Y-7604219D01*
X12114540Y-7604517D01*
X12113763Y-7606393D01*
X12112863Y-7608213D01*
X12112835Y-7608634D01*
X12112674Y-7609023D01*
X12112674Y-7611053D01*
X12112539Y-7613080D01*
X12112674Y-7613479D01*
X12112674Y-7613900D01*
X12113451Y-7615776D01*
X12114101Y-7617700D01*
X12114449Y-7618186D01*
X12114540Y-7618406D01*
X12114773Y-7618639D01*
X12115526Y-7619693D01*
X12133858Y-7640643D01*
X12128867Y-7643139D01*
X12127818Y-7643799D01*
X12127513Y-7643926D01*
X12127169Y-7644207D01*
X12126793Y-7644444D01*
X12126577Y-7644693D01*
X12125618Y-7645480D01*
X12120857Y-7650242D01*
X12120070Y-7651201D01*
X12119821Y-7651417D01*
X12119584Y-7651793D01*
X12119302Y-7652136D01*
X12119176Y-7652441D01*
X12118515Y-7653491D01*
X12113753Y-7663014D01*
X12112877Y-7665303D01*
X12112846Y-7665751D01*
X12112674Y-7666166D01*
X12112434Y-7668605D01*
X12099934Y-7668605D01*
X12099934Y-7586462D01*
X12383027Y-7586462D01*
X12383027Y-7736462D01*
G37*
G36*
X12131481Y-7953962D02*
G01*
X12122200Y-7953962D01*
X12112638Y-7950775D01*
X12106635Y-7944771D01*
X12103394Y-7938290D01*
X12099338Y-7922066D01*
X12099338Y-7910858D01*
X12103394Y-7894634D01*
X12106635Y-7888152D01*
X12112638Y-7882149D01*
X12122200Y-7878962D01*
X12131481Y-7878962D01*
X12131481Y-7953962D01*
G37*
G36*
X12378505Y-7991462D02*
G01*
X12061838Y-7991462D01*
X12061838Y-7909319D01*
X12074338Y-7909319D01*
X12074338Y-7923605D01*
X12074380Y-7924030D01*
X12074353Y-7924212D01*
X12074488Y-7925125D01*
X12074579Y-7926043D01*
X12074649Y-7926213D01*
X12074712Y-7926636D01*
X12079473Y-7945684D01*
X12079538Y-7945864D01*
X12079544Y-7945954D01*
X12079932Y-7946968D01*
X12080298Y-7947991D01*
X12080352Y-7948064D01*
X12080420Y-7948242D01*
X12085182Y-7957766D01*
X12085842Y-7958816D01*
X12085969Y-7959121D01*
X12086251Y-7959464D01*
X12086487Y-7959840D01*
X12086736Y-7960056D01*
X12087523Y-7961015D01*
X12097047Y-7970539D01*
X12098941Y-7972093D01*
X12099356Y-7972265D01*
X12099696Y-7972559D01*
X12101933Y-7973558D01*
X12116219Y-7978320D01*
X12117428Y-7978595D01*
X12117733Y-7978722D01*
X12118175Y-7978765D01*
X12118608Y-7978864D01*
X12118937Y-7978840D01*
X12120172Y-7978962D01*
X12143981Y-7978962D01*
X12146420Y-7978722D01*
X12150926Y-7976855D01*
X12154375Y-7973406D01*
X12156241Y-7968900D01*
X12156481Y-7966462D01*
X12156481Y-7866462D01*
X12179100Y-7866462D01*
X12179100Y-7966462D01*
X12179162Y-7967089D01*
X12179131Y-7967335D01*
X12179218Y-7967653D01*
X12179340Y-7968900D01*
X12179977Y-7970436D01*
X12180414Y-7972040D01*
X12180902Y-7972670D01*
X12181207Y-7973406D01*
X12182382Y-7974582D01*
X12183400Y-7975896D01*
X12184092Y-7976292D01*
X12184656Y-7976855D01*
X12186191Y-7977491D01*
X12187635Y-7978316D01*
X12188426Y-7978417D01*
X12189162Y-7978722D01*
X12190824Y-7978722D01*
X12192473Y-7978931D01*
X12193242Y-7978722D01*
X12194039Y-7978722D01*
X12195575Y-7978085D01*
X12197179Y-7977648D01*
X12197809Y-7977160D01*
X12198545Y-7976855D01*
X12199720Y-7975680D01*
X12201035Y-7974662D01*
X12201760Y-7973640D01*
X12201994Y-7973406D01*
X12202089Y-7973177D01*
X12202453Y-7972664D01*
X12236243Y-7913531D01*
X12236243Y-7966462D01*
X12236483Y-7968900D01*
X12238350Y-7973406D01*
X12241798Y-7976855D01*
X12246304Y-7978722D01*
X12251182Y-7978722D01*
X12255688Y-7976855D01*
X12259136Y-7973406D01*
X12261003Y-7968900D01*
X12261243Y-7966462D01*
X12261243Y-7923605D01*
X12279100Y-7923605D01*
X12279100Y-7956938D01*
X12279340Y-7959377D01*
X12281207Y-7963883D01*
X12281207Y-7963883D01*
X12282761Y-7965777D01*
X12287523Y-7970539D01*
X12289417Y-7972093D01*
X12289833Y-7972265D01*
X12290172Y-7972559D01*
X12292409Y-7973558D01*
X12306695Y-7978320D01*
X12307904Y-7978595D01*
X12308209Y-7978722D01*
X12308651Y-7978765D01*
X12309084Y-7978864D01*
X12309413Y-7978840D01*
X12310648Y-7978962D01*
X12320172Y-7978962D01*
X12321406Y-7978840D01*
X12321735Y-7978864D01*
X12322168Y-7978765D01*
X12322610Y-7978722D01*
X12322915Y-7978595D01*
X12324124Y-7978320D01*
X12338410Y-7973559D01*
X12340648Y-7972559D01*
X12340987Y-7972265D01*
X12341402Y-7972093D01*
X12343296Y-7970539D01*
X12352820Y-7961015D01*
X12353607Y-7960056D01*
X12353856Y-7959840D01*
X12354092Y-7959464D01*
X12354375Y-7959121D01*
X12354501Y-7958815D01*
X12355161Y-7957766D01*
X12359923Y-7948242D01*
X12359992Y-7948064D01*
X12360045Y-7947991D01*
X12360411Y-7946968D01*
X12360799Y-7945954D01*
X12360805Y-7945864D01*
X12360870Y-7945684D01*
X12365632Y-7926636D01*
X12365694Y-7926213D01*
X12365765Y-7926043D01*
X12365855Y-7925125D01*
X12365990Y-7924212D01*
X12365963Y-7924030D01*
X12366005Y-7923605D01*
X12366005Y-7909319D01*
X12365963Y-7908893D01*
X12365990Y-7908711D01*
X12365855Y-7907798D01*
X12365765Y-7906880D01*
X12365694Y-7906710D01*
X12365632Y-7906287D01*
X12360870Y-7887240D01*
X12360805Y-7887060D01*
X12360799Y-7886970D01*
X12360411Y-7885955D01*
X12360045Y-7884932D01*
X12359992Y-7884860D01*
X12359923Y-7884681D01*
X12355161Y-7875157D01*
X12354501Y-7874108D01*
X12354374Y-7873803D01*
X12354093Y-7873460D01*
X12353856Y-7873084D01*
X12353607Y-7872867D01*
X12352820Y-7871909D01*
X12343296Y-7862385D01*
X12341402Y-7860830D01*
X12340987Y-7860659D01*
X12340648Y-7860364D01*
X12338410Y-7859365D01*
X12324124Y-7854603D01*
X12322915Y-7854328D01*
X12322610Y-7854202D01*
X12322168Y-7854158D01*
X12321735Y-7854060D01*
X12321406Y-7854083D01*
X12320172Y-7853962D01*
X12305886Y-7853962D01*
X12303447Y-7854202D01*
X12303032Y-7854374D01*
X12302584Y-7854406D01*
X12300296Y-7855282D01*
X12290772Y-7860043D01*
X12288698Y-7861349D01*
X12285503Y-7865033D01*
X12283960Y-7869660D01*
X12284306Y-7874525D01*
X12286487Y-7878888D01*
X12290172Y-7882083D01*
X12294799Y-7883626D01*
X12299664Y-7883280D01*
X12301952Y-7882404D01*
X12308837Y-7878962D01*
X12318143Y-7878962D01*
X12327705Y-7882149D01*
X12333708Y-7888152D01*
X12336949Y-7894634D01*
X12341005Y-7910858D01*
X12341005Y-7922066D01*
X12336949Y-7938289D01*
X12333708Y-7944771D01*
X12327705Y-7950775D01*
X12318143Y-7953962D01*
X12312676Y-7953962D01*
X12304100Y-7951103D01*
X12304100Y-7936105D01*
X12310648Y-7936105D01*
X12313086Y-7935864D01*
X12317592Y-7933998D01*
X12321041Y-7930549D01*
X12322908Y-7926043D01*
X12322908Y-7921166D01*
X12321041Y-7916660D01*
X12317592Y-7913211D01*
X12313086Y-7911345D01*
X12310648Y-7911105D01*
X12291600Y-7911105D01*
X12289162Y-7911345D01*
X12284656Y-7913211D01*
X12281207Y-7916660D01*
X12279340Y-7921166D01*
X12279100Y-7923605D01*
X12261243Y-7923605D01*
X12261243Y-7866462D01*
X12261181Y-7865835D01*
X12261213Y-7865589D01*
X12261126Y-7865270D01*
X12261003Y-7864023D01*
X12260367Y-7862488D01*
X12259929Y-7860883D01*
X12259441Y-7860253D01*
X12259136Y-7859517D01*
X12257961Y-7858342D01*
X12256943Y-7857027D01*
X12256251Y-7856632D01*
X12255688Y-7856068D01*
X12254152Y-7855432D01*
X12252708Y-7854607D01*
X12251918Y-7854507D01*
X12251182Y-7854202D01*
X12249520Y-7854202D01*
X12247870Y-7853992D01*
X12247101Y-7854202D01*
X12246304Y-7854202D01*
X12244769Y-7854838D01*
X12243165Y-7855276D01*
X12242534Y-7855764D01*
X12241798Y-7856068D01*
X12240623Y-7857244D01*
X12239308Y-7858262D01*
X12238583Y-7859284D01*
X12238350Y-7859517D01*
X12238255Y-7859746D01*
X12237890Y-7860260D01*
X12204100Y-7919392D01*
X12204100Y-7866462D01*
X12203860Y-7864023D01*
X12201994Y-7859517D01*
X12198545Y-7856068D01*
X12194039Y-7854202D01*
X12189162Y-7854202D01*
X12184656Y-7856068D01*
X12181207Y-7859517D01*
X12179340Y-7864023D01*
X12179100Y-7866462D01*
X12156481Y-7866462D01*
X12156241Y-7864023D01*
X12154375Y-7859517D01*
X12150926Y-7856068D01*
X12146420Y-7854202D01*
X12143981Y-7853962D01*
X12120172Y-7853962D01*
X12118937Y-7854083D01*
X12118608Y-7854060D01*
X12118175Y-7854158D01*
X12117733Y-7854202D01*
X12117428Y-7854328D01*
X12116219Y-7854603D01*
X12101933Y-7859365D01*
X12099696Y-7860364D01*
X12099356Y-7860659D01*
X12098941Y-7860830D01*
X12097047Y-7862385D01*
X12087523Y-7871909D01*
X12086737Y-7872867D01*
X12086487Y-7873084D01*
X12086250Y-7873460D01*
X12085969Y-7873803D01*
X12085843Y-7874108D01*
X12085182Y-7875157D01*
X12080420Y-7884681D01*
X12080352Y-7884860D01*
X12080298Y-7884932D01*
X12079932Y-7885955D01*
X12079544Y-7886970D01*
X12079538Y-7887060D01*
X12079473Y-7887240D01*
X12074712Y-7906287D01*
X12074649Y-7906710D01*
X12074579Y-7906880D01*
X12074488Y-7907798D01*
X12074353Y-7908711D01*
X12074380Y-7908893D01*
X12074338Y-7909319D01*
X12061838Y-7909319D01*
X12061838Y-7841462D01*
X12378505Y-7841462D01*
X12378505Y-7991462D01*
G37*
G36*
X12122291Y-8136497D02*
G01*
X12127932Y-8142138D01*
X12131481Y-8156334D01*
X12131481Y-8186590D01*
X12127932Y-8200785D01*
X12122291Y-8206427D01*
X12117221Y-8208962D01*
X12104075Y-8208962D01*
X12099005Y-8206427D01*
X12093363Y-8200785D01*
X12089815Y-8186590D01*
X12089815Y-8156334D01*
X12093364Y-8142138D01*
X12099005Y-8136497D01*
X12104075Y-8133962D01*
X12117221Y-8133962D01*
X12122291Y-8136497D01*
G37*
G36*
X12378505Y-8246462D02*
G01*
X12052315Y-8246462D01*
X12052315Y-8154795D01*
X12064815Y-8154795D01*
X12064815Y-8188128D01*
X12064856Y-8188554D01*
X12064829Y-8188736D01*
X12064964Y-8189649D01*
X12065055Y-8190567D01*
X12065125Y-8190737D01*
X12065188Y-8191160D01*
X12069950Y-8210208D01*
X12070774Y-8212515D01*
X12071327Y-8213262D01*
X12071683Y-8214121D01*
X12073238Y-8216015D01*
X12082761Y-8225539D01*
X12083720Y-8226326D01*
X12083936Y-8226575D01*
X12084312Y-8226811D01*
X12084656Y-8227093D01*
X12084961Y-8227220D01*
X12086010Y-8227880D01*
X12095534Y-8232642D01*
X12097822Y-8233518D01*
X12098270Y-8233550D01*
X12098685Y-8233722D01*
X12101124Y-8233962D01*
X12120172Y-8233962D01*
X12122610Y-8233722D01*
X12123025Y-8233550D01*
X12123473Y-8233518D01*
X12125762Y-8232642D01*
X12135286Y-8227880D01*
X12136335Y-8227220D01*
X12136640Y-8227093D01*
X12136984Y-8226811D01*
X12137359Y-8226575D01*
X12137575Y-8226326D01*
X12138534Y-8225539D01*
X12148058Y-8216015D01*
X12149613Y-8214121D01*
X12149968Y-8213262D01*
X12150522Y-8212515D01*
X12151346Y-8210208D01*
X12156108Y-8191160D01*
X12156170Y-8190737D01*
X12156241Y-8190567D01*
X12156331Y-8189649D01*
X12156466Y-8188736D01*
X12156439Y-8188554D01*
X12156481Y-8188128D01*
X12156481Y-8154795D01*
X12156439Y-8154370D01*
X12156466Y-8154187D01*
X12156331Y-8153274D01*
X12156241Y-8152357D01*
X12156170Y-8152186D01*
X12156108Y-8151763D01*
X12151346Y-8132716D01*
X12150522Y-8130408D01*
X12149968Y-8129661D01*
X12149613Y-8128803D01*
X12148058Y-8126909D01*
X12143078Y-8121929D01*
X12164823Y-8121929D01*
X12165154Y-8124357D01*
X12188964Y-8224357D01*
X12189252Y-8225194D01*
X12189292Y-8225494D01*
X12189449Y-8225765D01*
X12189762Y-8226674D01*
X12190827Y-8228144D01*
X12191736Y-8229715D01*
X12192245Y-8230105D01*
X12192622Y-8230625D01*
X12194168Y-8231577D01*
X12195609Y-8232679D01*
X12196229Y-8232845D01*
X12196776Y-8233181D01*
X12198568Y-8233468D01*
X12200321Y-8233936D01*
X12200958Y-8233851D01*
X12201591Y-8233953D01*
X12203357Y-8233533D01*
X12205156Y-8233294D01*
X12205711Y-8232972D01*
X12206336Y-8232823D01*
X12207807Y-8231759D01*
X12209377Y-8230850D01*
X12209767Y-8230340D01*
X12210287Y-8229964D01*
X12211239Y-8228418D01*
X12212342Y-8226977D01*
X12212679Y-8226078D01*
X12212843Y-8225810D01*
X12212891Y-8225511D01*
X12213202Y-8224683D01*
X12220172Y-8198546D01*
X12227141Y-8224683D01*
X12227452Y-8225511D01*
X12227500Y-8225810D01*
X12227664Y-8226077D01*
X12228002Y-8226977D01*
X12229105Y-8228418D01*
X12230056Y-8229964D01*
X12230576Y-8230340D01*
X12230966Y-8230850D01*
X12232537Y-8231759D01*
X12234007Y-8232823D01*
X12234631Y-8232972D01*
X12235187Y-8233294D01*
X12236987Y-8233533D01*
X12238752Y-8233953D01*
X12239385Y-8233851D01*
X12240022Y-8233936D01*
X12241775Y-8233468D01*
X12243568Y-8233181D01*
X12244114Y-8232845D01*
X12244734Y-8232679D01*
X12246175Y-8231576D01*
X12247722Y-8230625D01*
X12248098Y-8230105D01*
X12248607Y-8229715D01*
X12249517Y-8228144D01*
X12250581Y-8226674D01*
X12250894Y-8225765D01*
X12251051Y-8225494D01*
X12251091Y-8225194D01*
X12251379Y-8224357D01*
X12258871Y-8192890D01*
X12283862Y-8192890D01*
X12283862Y-8202414D01*
X12284102Y-8204853D01*
X12284274Y-8205268D01*
X12284306Y-8205716D01*
X12285182Y-8208004D01*
X12289944Y-8217528D01*
X12290604Y-8218578D01*
X12290731Y-8218882D01*
X12291012Y-8219226D01*
X12291249Y-8219602D01*
X12291499Y-8219818D01*
X12292285Y-8220777D01*
X12297047Y-8225539D01*
X12298006Y-8226326D01*
X12298222Y-8226575D01*
X12298597Y-8226811D01*
X12298941Y-8227093D01*
X12299246Y-8227220D01*
X12300296Y-8227880D01*
X12309820Y-8232642D01*
X12312108Y-8233518D01*
X12312556Y-8233550D01*
X12312971Y-8233722D01*
X12315410Y-8233962D01*
X12339219Y-8233962D01*
X12340454Y-8233840D01*
X12340783Y-8233864D01*
X12341216Y-8233765D01*
X12341658Y-8233722D01*
X12341963Y-8233595D01*
X12343172Y-8233320D01*
X12357458Y-8228559D01*
X12359695Y-8227559D01*
X12363380Y-8224364D01*
X12365561Y-8220002D01*
X12365907Y-8215137D01*
X12364364Y-8210510D01*
X12361169Y-8206825D01*
X12356806Y-8204644D01*
X12351941Y-8204298D01*
X12349552Y-8204841D01*
X12337191Y-8208962D01*
X12318361Y-8208962D01*
X12313290Y-8206427D01*
X12311397Y-8204534D01*
X12308862Y-8199463D01*
X12308862Y-8195841D01*
X12311397Y-8190771D01*
X12313290Y-8188878D01*
X12319773Y-8185637D01*
X12337489Y-8181208D01*
X12337669Y-8181143D01*
X12337759Y-8181137D01*
X12338774Y-8180749D01*
X12339797Y-8180383D01*
X12339869Y-8180329D01*
X12340048Y-8180261D01*
X12349571Y-8175499D01*
X12350621Y-8174838D01*
X12350926Y-8174712D01*
X12351269Y-8174431D01*
X12351645Y-8174194D01*
X12351861Y-8173944D01*
X12352820Y-8173158D01*
X12357582Y-8168396D01*
X12358369Y-8167437D01*
X12358618Y-8167221D01*
X12358854Y-8166845D01*
X12359136Y-8166502D01*
X12359263Y-8166197D01*
X12359923Y-8165147D01*
X12364685Y-8155623D01*
X12365561Y-8153335D01*
X12365593Y-8152887D01*
X12365765Y-8152472D01*
X12366005Y-8150033D01*
X12366005Y-8140509D01*
X12365765Y-8138071D01*
X12365593Y-8137656D01*
X12365561Y-8137208D01*
X12364685Y-8134919D01*
X12359923Y-8125395D01*
X12359263Y-8124346D01*
X12359136Y-8124041D01*
X12358854Y-8123697D01*
X12358618Y-8123322D01*
X12358369Y-8123106D01*
X12357582Y-8122147D01*
X12352820Y-8117385D01*
X12351861Y-8116598D01*
X12351645Y-8116349D01*
X12351269Y-8116112D01*
X12350926Y-8115830D01*
X12350621Y-8115704D01*
X12349571Y-8115043D01*
X12340048Y-8110282D01*
X12337759Y-8109406D01*
X12337311Y-8109374D01*
X12336896Y-8109202D01*
X12334457Y-8108962D01*
X12310648Y-8108962D01*
X12309413Y-8109083D01*
X12309084Y-8109060D01*
X12308651Y-8109158D01*
X12308209Y-8109202D01*
X12307904Y-8109328D01*
X12306695Y-8109603D01*
X12292409Y-8114365D01*
X12290172Y-8115364D01*
X12286487Y-8118560D01*
X12284306Y-8122922D01*
X12283960Y-8127787D01*
X12285503Y-8132414D01*
X12288698Y-8136099D01*
X12293061Y-8138280D01*
X12297926Y-8138626D01*
X12300315Y-8138082D01*
X12312676Y-8133962D01*
X12331507Y-8133962D01*
X12336577Y-8136497D01*
X12338470Y-8138390D01*
X12341005Y-8143460D01*
X12341005Y-8147082D01*
X12338470Y-8152152D01*
X12336577Y-8154046D01*
X12330095Y-8157287D01*
X12312378Y-8161716D01*
X12312198Y-8161780D01*
X12312108Y-8161787D01*
X12311093Y-8162175D01*
X12310071Y-8162540D01*
X12309998Y-8162594D01*
X12309820Y-8162662D01*
X12300296Y-8167424D01*
X12299246Y-8168085D01*
X12298941Y-8168211D01*
X12298598Y-8168493D01*
X12298222Y-8168730D01*
X12298006Y-8168979D01*
X12297047Y-8169766D01*
X12292285Y-8174528D01*
X12291499Y-8175486D01*
X12291249Y-8175703D01*
X12291012Y-8176079D01*
X12290731Y-8176422D01*
X12290605Y-8176727D01*
X12289944Y-8177776D01*
X12285182Y-8187300D01*
X12284306Y-8189589D01*
X12284274Y-8190037D01*
X12284102Y-8190452D01*
X12283862Y-8192890D01*
X12258871Y-8192890D01*
X12275189Y-8124357D01*
X12275520Y-8121929D01*
X12274748Y-8117113D01*
X12272192Y-8112960D01*
X12268241Y-8110100D01*
X12263496Y-8108971D01*
X12258680Y-8109743D01*
X12254526Y-8112299D01*
X12251667Y-8116250D01*
X12250869Y-8118567D01*
X12238533Y-8170376D01*
X12232250Y-8146812D01*
X12232035Y-8146241D01*
X12232003Y-8146001D01*
X12231838Y-8145716D01*
X12231389Y-8144518D01*
X12230387Y-8143208D01*
X12229560Y-8141780D01*
X12228917Y-8141288D01*
X12228425Y-8140645D01*
X12226997Y-8139819D01*
X12225687Y-8138816D01*
X12224904Y-8138607D01*
X12224204Y-8138201D01*
X12222568Y-8137984D01*
X12220974Y-8137559D01*
X12220172Y-8137666D01*
X12219369Y-8137559D01*
X12217775Y-8137984D01*
X12216140Y-8138201D01*
X12215438Y-8138607D01*
X12214657Y-8138816D01*
X12213347Y-8139818D01*
X12211919Y-8140645D01*
X12211426Y-8141288D01*
X12210784Y-8141780D01*
X12209957Y-8143208D01*
X12208954Y-8144518D01*
X12208505Y-8145716D01*
X12208340Y-8146001D01*
X12208308Y-8146241D01*
X12208094Y-8146812D01*
X12201810Y-8170376D01*
X12189475Y-8118567D01*
X12188676Y-8116250D01*
X12185817Y-8112299D01*
X12181663Y-8109743D01*
X12176847Y-8108971D01*
X12172103Y-8110100D01*
X12168151Y-8112960D01*
X12165595Y-8117113D01*
X12164823Y-8121929D01*
X12143078Y-8121929D01*
X12138534Y-8117385D01*
X12137576Y-8116598D01*
X12137359Y-8116349D01*
X12136983Y-8116112D01*
X12136640Y-8115830D01*
X12136335Y-8115704D01*
X12135286Y-8115043D01*
X12125762Y-8110282D01*
X12123473Y-8109406D01*
X12123025Y-8109374D01*
X12122610Y-8109202D01*
X12120172Y-8108962D01*
X12101124Y-8108962D01*
X12098685Y-8109202D01*
X12098270Y-8109374D01*
X12097822Y-8109406D01*
X12095534Y-8110282D01*
X12086010Y-8115043D01*
X12084960Y-8115704D01*
X12084656Y-8115830D01*
X12084312Y-8116112D01*
X12083936Y-8116349D01*
X12083720Y-8116598D01*
X12082761Y-8117385D01*
X12073238Y-8126909D01*
X12071683Y-8128803D01*
X12071327Y-8129661D01*
X12070774Y-8130408D01*
X12069950Y-8132716D01*
X12065188Y-8151763D01*
X12065125Y-8152186D01*
X12065055Y-8152357D01*
X12064964Y-8153275D01*
X12064829Y-8154188D01*
X12064856Y-8154370D01*
X12064815Y-8154795D01*
X12052315Y-8154795D01*
X12052315Y-8096462D01*
X12378505Y-8096462D01*
X12378505Y-8246462D01*
G37*
G36*
X12127053Y-8391497D02*
G01*
X12132694Y-8397138D01*
X12136243Y-8411334D01*
X12136243Y-8441590D01*
X12132694Y-8455786D01*
X12127053Y-8461427D01*
X12121983Y-8463962D01*
X12108837Y-8463962D01*
X12103767Y-8461427D01*
X12098125Y-8455786D01*
X12094576Y-8441590D01*
X12094576Y-8411334D01*
X12098125Y-8397138D01*
X12103766Y-8391497D01*
X12108837Y-8388962D01*
X12121983Y-8388962D01*
X12127053Y-8391497D01*
G37*
G36*
X12231815Y-8391497D02*
G01*
X12237456Y-8397138D01*
X12241005Y-8411334D01*
X12241005Y-8441590D01*
X12237456Y-8455786D01*
X12231815Y-8461427D01*
X12226745Y-8463962D01*
X12213599Y-8463962D01*
X12208529Y-8461427D01*
X12202887Y-8455786D01*
X12199338Y-8441590D01*
X12199338Y-8411334D01*
X12202887Y-8397138D01*
X12208528Y-8391497D01*
X12213599Y-8388962D01*
X12226745Y-8388962D01*
X12231815Y-8391497D01*
G37*
G36*
X12336243Y-8463962D02*
G01*
X12313599Y-8463962D01*
X12308529Y-8461427D01*
X12306635Y-8459534D01*
X12304100Y-8454463D01*
X12304100Y-8446079D01*
X12306635Y-8441009D01*
X12307876Y-8439768D01*
X12317438Y-8436581D01*
X12336243Y-8436581D01*
X12336243Y-8463962D01*
G37*
G36*
X12336243Y-8411581D02*
G01*
X12318361Y-8411581D01*
X12313290Y-8409046D01*
X12311397Y-8407153D01*
X12308862Y-8402083D01*
X12308862Y-8398460D01*
X12311397Y-8393390D01*
X12313290Y-8391497D01*
X12318361Y-8388962D01*
X12336243Y-8388962D01*
X12336243Y-8411581D01*
G37*
G36*
X12373743Y-8501462D02*
G01*
X11971602Y-8501462D01*
X11971602Y-8374023D01*
X11984102Y-8374023D01*
X11984102Y-8378900D01*
X11985969Y-8383406D01*
X11989418Y-8386855D01*
X11993924Y-8388722D01*
X11996362Y-8388962D01*
X12012434Y-8388962D01*
X12012434Y-8476462D01*
X12012674Y-8478901D01*
X12014540Y-8483407D01*
X12017989Y-8486855D01*
X12022495Y-8488722D01*
X12027372Y-8488722D01*
X12031878Y-8486855D01*
X12035327Y-8483407D01*
X12037193Y-8478901D01*
X12037434Y-8476462D01*
X12037434Y-8409795D01*
X12069576Y-8409795D01*
X12069576Y-8443129D01*
X12069618Y-8443554D01*
X12069591Y-8443736D01*
X12069726Y-8444649D01*
X12069817Y-8445567D01*
X12069887Y-8445737D01*
X12069950Y-8446160D01*
X12074712Y-8465208D01*
X12075536Y-8467515D01*
X12076089Y-8468262D01*
X12076445Y-8469121D01*
X12077999Y-8471015D01*
X12087523Y-8480539D01*
X12088482Y-8481326D01*
X12088698Y-8481575D01*
X12089074Y-8481811D01*
X12089417Y-8482093D01*
X12089722Y-8482220D01*
X12090772Y-8482880D01*
X12100296Y-8487642D01*
X12102584Y-8488518D01*
X12103032Y-8488550D01*
X12103447Y-8488722D01*
X12105886Y-8488962D01*
X12124934Y-8488962D01*
X12127372Y-8488722D01*
X12127787Y-8488550D01*
X12128235Y-8488518D01*
X12130524Y-8487642D01*
X12140047Y-8482880D01*
X12141097Y-8482220D01*
X12141402Y-8482093D01*
X12141745Y-8481811D01*
X12142121Y-8481575D01*
X12142337Y-8481326D01*
X12143296Y-8480539D01*
X12152820Y-8471015D01*
X12154375Y-8469121D01*
X12154730Y-8468262D01*
X12155283Y-8467515D01*
X12156108Y-8465208D01*
X12160870Y-8446160D01*
X12160932Y-8445737D01*
X12161003Y-8445567D01*
X12161093Y-8444649D01*
X12161228Y-8443736D01*
X12161201Y-8443554D01*
X12161243Y-8443129D01*
X12161243Y-8409795D01*
X12174338Y-8409795D01*
X12174338Y-8443129D01*
X12174380Y-8443554D01*
X12174353Y-8443736D01*
X12174488Y-8444649D01*
X12174579Y-8445567D01*
X12174649Y-8445737D01*
X12174712Y-8446160D01*
X12179473Y-8465208D01*
X12180298Y-8467515D01*
X12180851Y-8468262D01*
X12181207Y-8469121D01*
X12182761Y-8471015D01*
X12192285Y-8480539D01*
X12193244Y-8481326D01*
X12193460Y-8481575D01*
X12193836Y-8481811D01*
X12194179Y-8482093D01*
X12194484Y-8482220D01*
X12195534Y-8482880D01*
X12205058Y-8487642D01*
X12207346Y-8488518D01*
X12207794Y-8488550D01*
X12208209Y-8488722D01*
X12210648Y-8488962D01*
X12229695Y-8488962D01*
X12232134Y-8488722D01*
X12232549Y-8488550D01*
X12232997Y-8488518D01*
X12235286Y-8487642D01*
X12244809Y-8482880D01*
X12245859Y-8482220D01*
X12246164Y-8482093D01*
X12246507Y-8481811D01*
X12246883Y-8481575D01*
X12247099Y-8481326D01*
X12248058Y-8480539D01*
X12257582Y-8471015D01*
X12259136Y-8469121D01*
X12259492Y-8468262D01*
X12260045Y-8467515D01*
X12260870Y-8465208D01*
X12265632Y-8446160D01*
X12265694Y-8445737D01*
X12265765Y-8445567D01*
X12265855Y-8444649D01*
X12265990Y-8443736D01*
X12265963Y-8443554D01*
X12266005Y-8443129D01*
X12279100Y-8443129D01*
X12279100Y-8457414D01*
X12279340Y-8459853D01*
X12279512Y-8460268D01*
X12279544Y-8460716D01*
X12280420Y-8463004D01*
X12285182Y-8472528D01*
X12285842Y-8473578D01*
X12285969Y-8473883D01*
X12286250Y-8474226D01*
X12286487Y-8474602D01*
X12286737Y-8474818D01*
X12287523Y-8475777D01*
X12292285Y-8480539D01*
X12293244Y-8481326D01*
X12293460Y-8481575D01*
X12293836Y-8481811D01*
X12294179Y-8482093D01*
X12294485Y-8482220D01*
X12295534Y-8482880D01*
X12305058Y-8487642D01*
X12307346Y-8488518D01*
X12307794Y-8488550D01*
X12308209Y-8488722D01*
X12310648Y-8488962D01*
X12348743Y-8488962D01*
X12351182Y-8488722D01*
X12355688Y-8486855D01*
X12359136Y-8483407D01*
X12361003Y-8478901D01*
X12361243Y-8476462D01*
X12361243Y-8376462D01*
X12361003Y-8374023D01*
X12359136Y-8369517D01*
X12355688Y-8366068D01*
X12351182Y-8364202D01*
X12348743Y-8363962D01*
X12315410Y-8363962D01*
X12312971Y-8364202D01*
X12312556Y-8364374D01*
X12312108Y-8364406D01*
X12309820Y-8365282D01*
X12300296Y-8370043D01*
X12299246Y-8370704D01*
X12298941Y-8370830D01*
X12298598Y-8371112D01*
X12298222Y-8371349D01*
X12298006Y-8371598D01*
X12297047Y-8372385D01*
X12292285Y-8377147D01*
X12291499Y-8378105D01*
X12291249Y-8378322D01*
X12291012Y-8378698D01*
X12290731Y-8379041D01*
X12290605Y-8379346D01*
X12289944Y-8380396D01*
X12285182Y-8389919D01*
X12284306Y-8392208D01*
X12284274Y-8392656D01*
X12284102Y-8393071D01*
X12283862Y-8395510D01*
X12283862Y-8405033D01*
X12284102Y-8407472D01*
X12284274Y-8407887D01*
X12284306Y-8408335D01*
X12285182Y-8410624D01*
X12289944Y-8420147D01*
X12290605Y-8421197D01*
X12290731Y-8421502D01*
X12290756Y-8421533D01*
X12287523Y-8424766D01*
X12286737Y-8425724D01*
X12286487Y-8425941D01*
X12286250Y-8426317D01*
X12285969Y-8426660D01*
X12285843Y-8426965D01*
X12285182Y-8428015D01*
X12280420Y-8437538D01*
X12279544Y-8439827D01*
X12279512Y-8440275D01*
X12279340Y-8440690D01*
X12279100Y-8443129D01*
X12266005Y-8443129D01*
X12266005Y-8409795D01*
X12265963Y-8409370D01*
X12265990Y-8409188D01*
X12265855Y-8408275D01*
X12265765Y-8407357D01*
X12265694Y-8407186D01*
X12265632Y-8406764D01*
X12260870Y-8387716D01*
X12260045Y-8385408D01*
X12259492Y-8384661D01*
X12259136Y-8383803D01*
X12257582Y-8381909D01*
X12248058Y-8372385D01*
X12247099Y-8371598D01*
X12246883Y-8371349D01*
X12246507Y-8371112D01*
X12246164Y-8370830D01*
X12245859Y-8370704D01*
X12244809Y-8370043D01*
X12235286Y-8365282D01*
X12232997Y-8364406D01*
X12232549Y-8364374D01*
X12232134Y-8364202D01*
X12229695Y-8363962D01*
X12210648Y-8363962D01*
X12208209Y-8364202D01*
X12207794Y-8364374D01*
X12207346Y-8364406D01*
X12205058Y-8365282D01*
X12195534Y-8370043D01*
X12194484Y-8370704D01*
X12194179Y-8370830D01*
X12193836Y-8371112D01*
X12193460Y-8371349D01*
X12193244Y-8371598D01*
X12192285Y-8372385D01*
X12182761Y-8381909D01*
X12181207Y-8383803D01*
X12180851Y-8384661D01*
X12180298Y-8385408D01*
X12179473Y-8387716D01*
X12174712Y-8406764D01*
X12174649Y-8407186D01*
X12174579Y-8407357D01*
X12174488Y-8408275D01*
X12174353Y-8409188D01*
X12174380Y-8409370D01*
X12174338Y-8409795D01*
X12161243Y-8409795D01*
X12161201Y-8409370D01*
X12161228Y-8409188D01*
X12161093Y-8408275D01*
X12161003Y-8407357D01*
X12160932Y-8407186D01*
X12160870Y-8406764D01*
X12156108Y-8387716D01*
X12155283Y-8385408D01*
X12154730Y-8384661D01*
X12154374Y-8383803D01*
X12152820Y-8381909D01*
X12143296Y-8372385D01*
X12142338Y-8371598D01*
X12142121Y-8371349D01*
X12141745Y-8371112D01*
X12141402Y-8370830D01*
X12141097Y-8370704D01*
X12140047Y-8370043D01*
X12130524Y-8365282D01*
X12128235Y-8364406D01*
X12127787Y-8364374D01*
X12127372Y-8364202D01*
X12124934Y-8363962D01*
X12105886Y-8363962D01*
X12103447Y-8364202D01*
X12103032Y-8364374D01*
X12102584Y-8364406D01*
X12100296Y-8365282D01*
X12090772Y-8370043D01*
X12089722Y-8370704D01*
X12089418Y-8370830D01*
X12089074Y-8371112D01*
X12088698Y-8371349D01*
X12088482Y-8371598D01*
X12087523Y-8372385D01*
X12078000Y-8381909D01*
X12076445Y-8383803D01*
X12076089Y-8384661D01*
X12075536Y-8385408D01*
X12074712Y-8387716D01*
X12069950Y-8406764D01*
X12069887Y-8407186D01*
X12069817Y-8407357D01*
X12069726Y-8408275D01*
X12069591Y-8409188D01*
X12069618Y-8409370D01*
X12069576Y-8409795D01*
X12037434Y-8409795D01*
X12037434Y-8388962D01*
X12053505Y-8388962D01*
X12055944Y-8388722D01*
X12060450Y-8386855D01*
X12063898Y-8383406D01*
X12065765Y-8378900D01*
X12065765Y-8374023D01*
X12063898Y-8369517D01*
X12060450Y-8366068D01*
X12055944Y-8364202D01*
X12053505Y-8363962D01*
X11996362Y-8363962D01*
X11993924Y-8364202D01*
X11989418Y-8366068D01*
X11985969Y-8369517D01*
X11984102Y-8374023D01*
X11971602Y-8374023D01*
X11971602Y-8351462D01*
X12373743Y-8351462D01*
X12373743Y-8501462D01*
G37*
D10*
X11023600Y-6066882D02*
X11023600Y-6090691D01*
X11047409Y-6081168D02*
X11023600Y-6090691D01*
X11023600Y-6090691D02*
X10999790Y-6081168D01*
X11037886Y-6109739D02*
X11023600Y-6090691D01*
X11023600Y-6090691D02*
X11009314Y-6109739D01*
%TO.C,R404*%
D12*
X12515670Y-6451482D02*
X12515670Y-6400538D01*
X12620170Y-6451482D02*
X12620170Y-6400538D01*
%TO.C,C208*%
X11670980Y-9592895D02*
X11650295Y-9613580D01*
X11743105Y-9665020D02*
X11722420Y-9685705D01*
%TO.C,U502*%
D13*
X10808970Y-6113820D02*
X10984230Y-6113820D01*
X10808970Y-6289080D02*
X10808970Y-6113820D01*
X10984230Y-6113820D02*
X10984230Y-6289080D01*
X10984230Y-6289080D02*
X10808970Y-6289080D01*
%TO.C,R608*%
D12*
X12069962Y-10519230D02*
X12019018Y-10519230D01*
X12069962Y-10623730D02*
X12019018Y-10623730D01*
%TO.C,R405*%
X12306228Y-7123250D02*
X12357172Y-7123250D01*
X12306228Y-7227750D02*
X12357172Y-7227750D01*
%TO.C,C501*%
X11646623Y-7048300D02*
X11675877Y-7048300D01*
X11646623Y-7150300D02*
X11675877Y-7150300D01*
%TO.C,C504*%
X11785400Y-6859927D02*
X11785400Y-6830673D01*
X11887400Y-6859927D02*
X11887400Y-6830673D01*
%TO.C,Q601*%
X11735240Y-10009080D02*
X11735240Y-10014080D01*
X11735240Y-10126080D02*
X11735240Y-10204080D01*
X11735240Y-10316080D02*
X11735240Y-10321080D01*
X11735240Y-10321080D02*
X11917240Y-10321080D01*
X11917240Y-10009080D02*
X11735240Y-10009080D01*
X11917240Y-10109080D02*
X11917240Y-10009080D01*
X11917240Y-10321080D02*
X11917240Y-10221080D01*
X11681240Y-10203080D02*
X11705240Y-10170080D01*
X11657240Y-10170080D01*
X11681240Y-10203080D01*
G36*
X11681240Y-10203080D02*
G01*
X11657240Y-10170080D01*
X11705240Y-10170080D01*
X11681240Y-10203080D01*
G37*
%TO.C,L505*%
X11290100Y-6457427D02*
X11290100Y-6423173D01*
X11392100Y-6457427D02*
X11392100Y-6423173D01*
%TO.C,L503*%
X10862927Y-6832400D02*
X10828673Y-6832400D01*
X10862927Y-6934400D02*
X10828673Y-6934400D01*
%TO.C,R203*%
X12555148Y-8667570D02*
X12606092Y-8667570D01*
X12555148Y-8772070D02*
X12606092Y-8772070D01*
%TO.C,R401*%
X10103222Y-8998050D02*
X10052278Y-8998050D01*
X10103222Y-9102550D02*
X10052278Y-9102550D01*
%TO.C,R201*%
X12451152Y-8512630D02*
X12400208Y-8512630D01*
X12451152Y-8617130D02*
X12400208Y-8617130D01*
%TO.C,R205*%
X12430472Y-7407750D02*
X12379528Y-7407750D01*
X12430472Y-7512250D02*
X12379528Y-7512250D01*
%TO.C,C204*%
X10545395Y-9195120D02*
X10566080Y-9215805D01*
X10617520Y-9122995D02*
X10638205Y-9143680D01*
%TO.C,R501*%
X10437950Y-6289222D02*
X10437950Y-6238278D01*
X10542450Y-6289222D02*
X10542450Y-6238278D01*
%TO.C,D405*%
X12161950Y-6289500D02*
X12161950Y-6389500D01*
X12161950Y-6501500D02*
X12161950Y-6601500D01*
X12161950Y-6601500D02*
X12313950Y-6601500D01*
X12313950Y-6289500D02*
X12161950Y-6289500D01*
X12313950Y-6294500D02*
X12313950Y-6289500D01*
X12313950Y-6484500D02*
X12313950Y-6406500D01*
X12313950Y-6601500D02*
X12313950Y-6596500D01*
X12367950Y-6407500D02*
X12343950Y-6440500D01*
X12391950Y-6440500D01*
X12367950Y-6407500D01*
G36*
X12391950Y-6440500D02*
G01*
X12343950Y-6440500D01*
X12367950Y-6407500D01*
X12391950Y-6440500D01*
G37*
%TO.C,R604*%
X11602792Y-9858830D02*
X11551848Y-9858830D01*
X11602792Y-9963330D02*
X11551848Y-9963330D01*
%TO.C,C503*%
X10949327Y-7810300D02*
X10920073Y-7810300D01*
X10949327Y-7912300D02*
X10920073Y-7912300D01*
%TO.C,R402*%
X10105472Y-8698050D02*
X10054528Y-8698050D01*
X10105472Y-8802550D02*
X10054528Y-8802550D01*
%TO.C,R406*%
X12571550Y-7035728D02*
X12571550Y-7086672D01*
X12676050Y-7035728D02*
X12676050Y-7086672D01*
%TO.C,Q101*%
X10385000Y-9934380D02*
X10385000Y-10116380D01*
X10385000Y-10116380D02*
X10485000Y-10116380D01*
X10390000Y-9934380D02*
X10385000Y-9934380D01*
X10580000Y-9934380D02*
X10502000Y-9934380D01*
X10597000Y-10116380D02*
X10697000Y-10116380D01*
X10697000Y-9934380D02*
X10692000Y-9934380D01*
X10697000Y-10116380D02*
X10697000Y-9934380D01*
X10503000Y-9880380D02*
X10536000Y-9904380D01*
X10536000Y-9856380D01*
X10503000Y-9880380D01*
G36*
X10536000Y-9904380D02*
G01*
X10503000Y-9880380D01*
X10536000Y-9856380D01*
X10536000Y-9904380D01*
G37*
%TO.C,R612*%
X12593392Y-8888550D02*
X12542448Y-8888550D01*
X12593392Y-8993050D02*
X12542448Y-8993050D01*
%TO.C,R613*%
X11084528Y-10120250D02*
X11135472Y-10120250D01*
X11084528Y-10224750D02*
X11135472Y-10224750D01*
%TO.C,R202*%
X10044250Y-7820778D02*
X10044250Y-7871722D01*
X10148750Y-7820778D02*
X10148750Y-7871722D01*
%TO.C,C206*%
X11273023Y-7810300D02*
X11302277Y-7810300D01*
X11273023Y-7912300D02*
X11302277Y-7912300D01*
%TO.C,R204*%
X10177708Y-8126550D02*
X10228652Y-8126550D01*
X10177708Y-8231050D02*
X10228652Y-8231050D01*
%TO.C,C205*%
X10363000Y-8879227D02*
X10363000Y-8849973D01*
X10465000Y-8879227D02*
X10465000Y-8849973D01*
%TO.C,R607*%
X12083870Y-10231238D02*
X12083870Y-10282182D01*
X12188370Y-10231238D02*
X12188370Y-10282182D01*
%TO.C,D401*%
X10385000Y-9517350D02*
X10385000Y-9669350D01*
X10385000Y-9669350D02*
X10485000Y-9669350D01*
X10390000Y-9517350D02*
X10385000Y-9517350D01*
X10580000Y-9517350D02*
X10502000Y-9517350D01*
X10597000Y-9669350D02*
X10697000Y-9669350D01*
X10697000Y-9517350D02*
X10692000Y-9517350D01*
X10697000Y-9669350D02*
X10697000Y-9517350D01*
X10503000Y-9463350D02*
X10536000Y-9487350D01*
X10536000Y-9439350D01*
X10503000Y-9463350D01*
G36*
X10536000Y-9487350D02*
G01*
X10503000Y-9463350D01*
X10536000Y-9439350D01*
X10536000Y-9487350D01*
G37*
%TO.C,R609*%
X12119430Y-9591112D02*
X12119430Y-9540168D01*
X12223930Y-9591112D02*
X12223930Y-9540168D01*
%TO.C,C510*%
X11620300Y-6453527D02*
X11620300Y-6424273D01*
X11722300Y-6453527D02*
X11722300Y-6424273D01*
%TO.C,Y501*%
X11530300Y-7219600D02*
X11812300Y-7219600D01*
X11530300Y-7461600D02*
X11530300Y-7219600D01*
%TO.C,C207*%
X11556680Y-9478595D02*
X11535995Y-9499280D01*
X11628805Y-9550720D02*
X11608120Y-9571405D01*
%TO.C,R602*%
X11780448Y-10371910D02*
X11831392Y-10371910D01*
X11780448Y-10476410D02*
X11831392Y-10476410D01*
%TO.C,C505*%
X11506000Y-7770473D02*
X11506000Y-7799727D01*
X11608000Y-7770473D02*
X11608000Y-7799727D01*
%TO.C,C201*%
X12211663Y-8776048D02*
X12232348Y-8796733D01*
X12283788Y-8703923D02*
X12304473Y-8724608D01*
%TO.C,L502*%
X11455200Y-6862427D02*
X11455200Y-6828173D01*
X11557200Y-6862427D02*
X11557200Y-6828173D01*
%TO.C,C518*%
X10631827Y-5765600D02*
X10602573Y-5765600D01*
X10631827Y-5867600D02*
X10602573Y-5867600D01*
%TO.C,R102*%
X10755450Y-9791628D02*
X10755450Y-9842572D01*
X10859950Y-9791628D02*
X10859950Y-9842572D01*
%TO.C,C516*%
X10969473Y-5943400D02*
X10998727Y-5943400D01*
X10969473Y-6045400D02*
X10998727Y-6045400D01*
%TO.C,C508*%
X10769400Y-6599423D02*
X10769400Y-6628677D01*
X10871400Y-6599423D02*
X10871400Y-6628677D01*
%TO.C,U501*%
X10971650Y-7104200D02*
X10971650Y-7151700D01*
X10971650Y-7478700D02*
X10971650Y-7526200D01*
X10971650Y-7526200D02*
X11019150Y-7526200D01*
X11019150Y-7104200D02*
X10971650Y-7104200D01*
X11346150Y-7526200D02*
X11393650Y-7526200D01*
X11393650Y-7104200D02*
X11346150Y-7104200D01*
X11393650Y-7151700D02*
X11393650Y-7104200D01*
X11393650Y-7526200D02*
X11393650Y-7478700D01*
X11443650Y-7190200D02*
X11476650Y-7214200D01*
X11476650Y-7166200D01*
X11443650Y-7190200D01*
G36*
X11476650Y-7214200D02*
G01*
X11443650Y-7190200D01*
X11476650Y-7166200D01*
X11476650Y-7214200D01*
G37*
%TO.C,C515*%
X11074200Y-6249123D02*
X11074200Y-6278377D01*
X11176200Y-6249123D02*
X11176200Y-6278377D01*
%TO.C,C506*%
X11620300Y-6859927D02*
X11620300Y-6830673D01*
X11722300Y-6859927D02*
X11722300Y-6830673D01*
%TO.C,C502*%
X10949327Y-7645200D02*
X10920073Y-7645200D01*
X10949327Y-7747200D02*
X10920073Y-7747200D01*
%TO.C,Q602*%
X11892720Y-9663640D02*
X11892720Y-9668640D01*
X11892720Y-9780640D02*
X11892720Y-9858640D01*
X11892720Y-9970640D02*
X11892720Y-9975640D01*
X11892720Y-9975640D02*
X12074720Y-9975640D01*
X12074720Y-9663640D02*
X11892720Y-9663640D01*
X12074720Y-9763640D02*
X12074720Y-9663640D01*
X12074720Y-9975640D02*
X12074720Y-9875640D01*
X11838720Y-9857640D02*
X11862720Y-9824640D01*
X11814720Y-9824640D01*
X11838720Y-9857640D01*
G36*
X11838720Y-9857640D02*
G01*
X11814720Y-9824640D01*
X11862720Y-9824640D01*
X11838720Y-9857640D01*
G37*
%TO.C,C101*%
X11358680Y-10550547D02*
X11358680Y-10521293D01*
X11460680Y-10550547D02*
X11460680Y-10521293D01*
%TO.C,U201*%
X10542442Y-8759329D02*
X10609617Y-8692154D01*
X10609617Y-8826504D02*
X10542442Y-8759329D01*
X11197930Y-9414817D02*
X11265105Y-9481992D01*
X11265105Y-8036665D02*
X11197930Y-8103841D01*
X11265105Y-9481992D02*
X11332280Y-9414817D01*
X11332280Y-8103841D02*
X11265105Y-8036665D01*
X11920593Y-8692154D02*
X11987768Y-8759329D01*
X11987768Y-8759329D02*
X11920593Y-8826504D01*
X11964080Y-8869991D02*
X12021356Y-8860798D01*
X11973273Y-8812715D01*
X11964080Y-8869991D01*
G36*
X12021356Y-8860798D02*
G01*
X11964080Y-8869991D01*
X11973273Y-8812715D01*
X12021356Y-8860798D01*
G37*
%TO.C,Q401*%
X12175700Y-6767000D02*
X12175700Y-6949000D01*
X12175700Y-6949000D02*
X12180700Y-6949000D01*
X12275700Y-6767000D02*
X12175700Y-6767000D01*
X12292700Y-6949000D02*
X12370700Y-6949000D01*
X12482700Y-6949000D02*
X12487700Y-6949000D01*
X12487700Y-6767000D02*
X12387700Y-6767000D01*
X12487700Y-6949000D02*
X12487700Y-6767000D01*
X12369700Y-7003000D02*
X12336700Y-6979000D01*
X12336700Y-7027000D01*
X12369700Y-7003000D01*
G36*
X12369700Y-7003000D02*
G01*
X12336700Y-7027000D01*
X12336700Y-6979000D01*
X12369700Y-7003000D01*
G37*
%TO.C,C507*%
X10540800Y-6811777D02*
X10540800Y-6782523D01*
X10642800Y-6811777D02*
X10642800Y-6782523D01*
%TO.C,R611*%
X12607110Y-9215192D02*
X12607110Y-9164248D01*
X12711610Y-9215192D02*
X12711610Y-9164248D01*
%TO.C,L501*%
X11273173Y-7645200D02*
X11307427Y-7645200D01*
X11273173Y-7747200D02*
X11307427Y-7747200D01*
%TO.C,R601*%
X11479350Y-10144688D02*
X11479350Y-10195632D01*
X11583850Y-10144688D02*
X11583850Y-10195632D01*
%TO.C,C509*%
X10581027Y-6476800D02*
X10551773Y-6476800D01*
X10581027Y-6578800D02*
X10551773Y-6578800D01*
%TO.C,U101*%
X10686200Y-10271280D02*
X11062200Y-10271280D01*
X10686200Y-10953280D02*
X11062200Y-10953280D01*
X11062200Y-10271280D02*
X11062200Y-10397280D01*
X11062200Y-10953280D02*
X11062200Y-10827280D01*
X10558200Y-10943280D02*
X10534200Y-10976280D01*
X10582200Y-10976280D01*
X10558200Y-10943280D01*
G36*
X10582200Y-10976280D02*
G01*
X10534200Y-10976280D01*
X10558200Y-10943280D01*
X10582200Y-10976280D01*
G37*
%TO.C,L504*%
X11455200Y-6457427D02*
X11455200Y-6423173D01*
X11557200Y-6457427D02*
X11557200Y-6423173D01*
%TO.C,C513*%
X11059773Y-6654600D02*
X11089027Y-6654600D01*
X11059773Y-6756600D02*
X11089027Y-6756600D01*
%TO.C,C202*%
X12084663Y-8903048D02*
X12105348Y-8923733D01*
X12156788Y-8830923D02*
X12177473Y-8851608D01*
%TO.C,J501*%
X10701500Y-5306000D02*
X10812500Y-5306000D01*
X10701500Y-5631000D02*
X10812500Y-5631000D01*
X10871500Y-5736000D02*
X10896500Y-5686000D01*
X10896500Y-5686000D02*
X10921500Y-5736000D01*
X10921500Y-5736000D02*
X10871500Y-5736000D01*
X10980500Y-5306000D02*
X11091500Y-5306000D01*
X10980500Y-5631000D02*
X11091500Y-5631000D01*
%TO.C,C511*%
X11290100Y-6110627D02*
X11290100Y-6081373D01*
X11392100Y-6110627D02*
X11392100Y-6081373D01*
%TO.C,Y201*%
D14*
X11879087Y-9421837D02*
X11787163Y-9329913D01*
X12122331Y-9178592D02*
X12030408Y-9086669D01*
D15*
X11807769Y-9411231D02*
G75*
G02*
X11787769Y-9411231I-10000J0D01*
G01*
X11787769Y-9411231D02*
G75*
G02*
X11807769Y-9411231I10000J0D01*
G01*
%TO.C,C203*%
D12*
X10939095Y-9576120D02*
X10959780Y-9596805D01*
X11011220Y-9503995D02*
X11031905Y-9524680D01*
%TO.C,C517*%
X11323823Y-5765600D02*
X11353077Y-5765600D01*
X11323823Y-5867600D02*
X11353077Y-5867600D01*
%TO.C,C512*%
X11059773Y-6476800D02*
X11089027Y-6476800D01*
X11059773Y-6578800D02*
X11089027Y-6578800D01*
%TO.C,C514*%
X10617000Y-6249123D02*
X10617000Y-6278377D01*
X10719000Y-6249123D02*
X10719000Y-6278377D01*
%TO.C,R614*%
X11135472Y-9950250D02*
X11084528Y-9950250D01*
X11135472Y-10054750D02*
X11084528Y-10054750D01*
%TO.C,L506*%
X11001227Y-5765600D02*
X10966973Y-5765600D01*
X11001227Y-5867600D02*
X10966973Y-5867600D01*
%TD*%
M02*
