%TF.GenerationSoftware,KiCad,Pcbnew,10.0.4*%
%TF.CreationDate,2026-07-11T11:11:14-05:00*%
%TF.ProjectId,Flight Computer,466c6967-6874-4204-936f-6d7075746572,rev?*%
%TF.SameCoordinates,Original*%
%TF.FileFunction,Copper,L3,Inr*%
%TF.FilePolarity,Positive*%
%FSLAX45Y45*%
G04 Gerber Fmt 4.5, Leading zero omitted, Abs format (unit mm)*
G04 Created by KiCad (PCBNEW 10.0.4) date 2026-07-11 11:11:14*
%MOMM*%
%LPD*%
G01*
G04 APERTURE LIST*
G04 Aperture macros list*
%AMRoundRect*
0 Rectangle with rounded corners*
0 $1 Rounding radius*
0 $2 $3 $4 $5 $6 $7 $8 $9 X,Y pos of 4 corners*
0 Add a 4 corners polygon primitive as box body*
4,1,4,$2,$3,$4,$5,$6,$7,$8,$9,$2,$3,0*
0 Add four circle primitives for the rounded corners*
1,1,$1+$1,$2,$3*
1,1,$1+$1,$4,$5*
1,1,$1+$1,$6,$7*
1,1,$1+$1,$8,$9*
0 Add four rect primitives between the rounded corners*
20,1,$1+$1,$2,$3,$4,$5,0*
20,1,$1+$1,$4,$5,$6,$7,0*
20,1,$1+$1,$6,$7,$8,$9,0*
20,1,$1+$1,$8,$9,$2,$3,0*%
G04 Aperture macros list end*
%TA.AperFunction,ComponentPad*%
%ADD10C,3.100000*%
%TD*%
%TA.AperFunction,ComponentPad*%
%ADD11R,1.700000X1.700000*%
%TD*%
%TA.AperFunction,ComponentPad*%
%ADD12C,1.700000*%
%TD*%
%TA.AperFunction,ComponentPad*%
%ADD13RoundRect,0.249999X-0.850001X0.850001X-0.850001X-0.850001X0.850001X-0.850001X0.850001X0.850001X0*%
%TD*%
%TA.AperFunction,ComponentPad*%
%ADD14C,2.200000*%
%TD*%
%TA.AperFunction,HeatsinkPad*%
%ADD15O,2.100000X1.000000*%
%TD*%
%TA.AperFunction,HeatsinkPad*%
%ADD16O,1.800000X1.000000*%
%TD*%
%TA.AperFunction,ComponentPad*%
%ADD17RoundRect,0.249999X0.850001X-0.850001X0.850001X0.850001X-0.850001X0.850001X-0.850001X-0.850001X0*%
%TD*%
%TA.AperFunction,ViaPad*%
%ADD18C,0.600000*%
%TD*%
%TA.AperFunction,Conductor*%
%ADD19C,0.200000*%
%TD*%
%TA.AperFunction,Conductor*%
%ADD20C,0.600000*%
%TD*%
%TA.AperFunction,Conductor*%
%ADD21C,2.000000*%
%TD*%
G04 APERTURE END LIST*
D10*
%TO.N,GND*%
%TO.C,H404*%
X12470000Y-10950000D03*
%TD*%
%TO.N,GND*%
%TO.C,H401*%
X10070000Y-5550000D03*
%TD*%
D11*
%TO.N,+3.3V*%
%TO.C,J403*%
X10020000Y-6035000D03*
D12*
%TO.N,/IO/NEOPIXEL_DO*%
X10020000Y-6289000D03*
%TO.N,/PB15*%
X10020000Y-6543000D03*
%TO.N,/PB13*%
X10020000Y-6797000D03*
%TO.N,/PB12*%
X10020000Y-7051000D03*
%TO.N,GND*%
X10020000Y-7305000D03*
%TD*%
D13*
%TO.N,GND*%
%TO.C,J405*%
X10164000Y-9658000D03*
D14*
%TO.N,VBAT*%
X10164000Y-9912000D03*
%TO.N,VCC*%
X10164000Y-10166000D03*
%TO.N,Pyro_Power*%
X10164000Y-10420000D03*
%TD*%
D15*
%TO.N,GND*%
%TO.C,J402*%
X10445500Y-8443300D03*
D16*
X10027500Y-8443300D03*
D15*
X10445500Y-9307300D03*
D16*
X10027500Y-9307300D03*
%TD*%
D17*
%TO.N,Pyro_Power*%
%TO.C,J404*%
X12370000Y-10420000D03*
D14*
%TO.N,/Pyro1*%
X12370000Y-10166000D03*
%TO.N,Pyro_Power*%
X12370000Y-9912000D03*
%TO.N,/Pyro2*%
X12370000Y-9658000D03*
%TO.N,Pyro_Power*%
X12370000Y-9404000D03*
%TO.N,/Pyro3*%
X12370000Y-9150000D03*
%TD*%
D10*
%TO.N,GND*%
%TO.C,H403*%
X10070000Y-10950000D03*
%TD*%
D11*
%TO.N,GND*%
%TO.C,J401*%
X11774995Y-11050000D03*
D12*
%TO.N,/PB0*%
X11520995Y-11050000D03*
%TO.N,/PB1*%
X11266995Y-11050000D03*
%TO.N,/PB2*%
X11012995Y-11050000D03*
%TO.N,/PB10*%
X10758995Y-11050000D03*
%TD*%
D10*
%TO.N,GND*%
%TO.C,H402*%
X12470000Y-5550000D03*
%TD*%
D18*
%TO.N,GND*%
X10776000Y-5971000D03*
X11109960Y-7777480D03*
X11836400Y-6654800D03*
X11115000Y-7975000D03*
X10310500Y-8834120D03*
X10652788Y-9326880D03*
X12044680Y-9326880D03*
X11699240Y-7609840D03*
X10307500Y-7532500D03*
X10964000Y-5702000D03*
X11606000Y-8636000D03*
X10706100Y-6705600D03*
X11983720Y-7752080D03*
X10896600Y-6350000D03*
X12192000Y-8285480D03*
X11990000Y-6470000D03*
X10765200Y-6350000D03*
X12487075Y-8847255D03*
X11655357Y-7835000D03*
X10773000Y-6080000D03*
X11868160Y-7027622D03*
X11465560Y-9794240D03*
X11074400Y-6794500D03*
X11378365Y-8423475D03*
X10948680Y-7970486D03*
X10581640Y-7503160D03*
X12065000Y-8696960D03*
X10784840Y-7767320D03*
X10827000Y-5710000D03*
%TO.N,/PA9*%
X11106780Y-8494937D03*
X11253950Y-9675000D03*
%TO.N,+3.3V*%
X11023600Y-6177500D03*
X11455400Y-8327700D03*
X12654280Y-6517640D03*
X10310500Y-8950960D03*
X10017760Y-7757160D03*
X10972800Y-9540240D03*
X11583989Y-9396411D03*
X10887500Y-10255000D03*
X10114280Y-8102600D03*
X11107650Y-7612150D03*
X10810000Y-10652700D03*
X11441800Y-5435600D03*
X11922760Y-8300720D03*
X12550000Y-7557800D03*
X12133580Y-8752840D03*
X11455000Y-7111600D03*
X11194189Y-8027678D03*
X12038271Y-8566460D03*
X12379960Y-8727440D03*
X11060000Y-9895000D03*
X11780740Y-7741920D03*
X10185400Y-7838440D03*
X11217000Y-8407400D03*
X12059920Y-6643810D03*
%TO.N,/PC1*%
X11592384Y-9013820D03*
%TO.N,/I2C_SCL*%
X10294000Y-8102600D03*
X10798725Y-8253775D03*
%TO.N,/I2C_SDA*%
X10185400Y-7937500D03*
%TO.N,/BOOT0*%
X12425880Y-8554300D03*
%TO.N,/PA0*%
X11540558Y-9483159D03*
%TO.N,/Pyro/P2_FET_G*%
X11760200Y-9914640D03*
%TO.N,/PB15*%
X10625974Y-8438396D03*
%TO.N,/PB13*%
X10787485Y-8709224D03*
%TO.N,/PB12*%
X10736078Y-8760631D03*
%TO.N,/PC11*%
X11631865Y-8076865D03*
%TO.N,/PC10*%
X11650180Y-7907515D03*
%TO.N,/PB9*%
X11798057Y-8675557D03*
%TO.N,VBAT*%
X12550000Y-7790000D03*
%TO.N,Pyro_Power*%
X11020000Y-10420000D03*
%TO.N,/NRST*%
X12636500Y-8615680D03*
X11784983Y-9229280D03*
%TO.N,/SWCLK*%
X11517010Y-8005430D03*
X12561227Y-8029227D03*
%TO.N,/SWDIO*%
X10948680Y-8043186D03*
X12034520Y-8148200D03*
%TO.N,VBUS*%
X10363200Y-8658033D03*
X10363200Y-9093200D03*
%TO.N,/IO/USB_CC1*%
X10310500Y-8750300D03*
%TO.N,/USB_DP_P*%
X10875980Y-8052005D03*
%TO.N,/USB_DP_N*%
X10874723Y-8125277D03*
%TO.N,/IO/USB_CC2*%
X10304736Y-9049988D03*
%TO.N,/IO/BUZZER_POS*%
X12630000Y-6240000D03*
%TO.N,/IO/BUZZER_NEG*%
X12552246Y-6608710D03*
%TO.N,/MCU/FLASH_CS*%
X11846560Y-8285480D03*
%TO.N,/SPI_MISO*%
X11590000Y-8900160D03*
X11054080Y-8900160D03*
X11054080Y-8346440D03*
X10806865Y-7491295D03*
X11973560Y-7360000D03*
%TO.N,/MCU/{slash}FLASH_WP*%
X12310000Y-7360000D03*
%TO.N,/SPI_MOSI*%
X11733375Y-8847375D03*
X11001380Y-8847460D03*
X10713491Y-7546980D03*
X12436358Y-7265700D03*
%TO.N,/SPI_SCK*%
X11868200Y-8768080D03*
X11236805Y-8231509D03*
X10657840Y-7498080D03*
X12308840Y-7076440D03*
%TO.N,/PC8*%
X10948680Y-8548029D03*
X11144840Y-8416245D03*
%TO.N,/PA15*%
X11309300Y-8226056D03*
%TO.N,/PB14*%
X10578460Y-8229226D03*
%TO.N,/PB0*%
X10942252Y-8979426D03*
%TO.N,/PB1*%
X10885587Y-8933882D03*
%TO.N,/PB2*%
X10815200Y-8897300D03*
%TO.N,/PB10*%
X10762500Y-8840000D03*
%TO.N,/PC13*%
X11906200Y-5435600D03*
X12496000Y-8300000D03*
X12007540Y-8989144D03*
%TO.N,/PB5*%
X11602720Y-8458200D03*
%TO.N,/PC3*%
X12075160Y-9479280D03*
%TO.N,/PB7*%
X12110720Y-8265160D03*
X12240450Y-7315200D03*
%TO.N,/PC14*%
X12141200Y-9042400D03*
X10993120Y-7546980D03*
%TO.N,/PC7*%
X10683240Y-8310890D03*
X10866120Y-7546980D03*
%TO.N,/PC6*%
X10647680Y-7122160D03*
X10631366Y-8365895D03*
%TD*%
%TO.N,/PB15*%
D19*
X10616919Y-8429341D02*
X10616919Y-8426919D01*
X10020000Y-6543000D02*
X10020000Y-6532000D01*
X10493060Y-8305481D02*
X10493060Y-7016060D01*
X10625974Y-8438396D02*
X10493060Y-8305481D01*
X10493060Y-7016060D02*
X10020000Y-6543000D01*
X10625974Y-8438396D02*
X10616919Y-8429341D01*
%TO.N,/PB13*%
X10020000Y-6797000D02*
X10020000Y-6786000D01*
X10603260Y-8525000D02*
X10352500Y-8525000D01*
X10240000Y-8412500D02*
X10240000Y-7017000D01*
X10787485Y-8709224D02*
X10603260Y-8525000D01*
X10352500Y-8525000D02*
X10240000Y-8412500D01*
X10240000Y-7017000D02*
X10020000Y-6797000D01*
%TO.N,VBAT*%
D20*
X10164000Y-9912000D02*
X10827094Y-9912000D01*
X12245000Y-8410000D02*
X12405000Y-8250000D01*
X12405000Y-8250000D02*
X12405000Y-7935000D01*
X10827094Y-9912000D02*
X11950000Y-8789094D01*
X12065000Y-8410000D02*
X12245000Y-8410000D01*
X12405000Y-7935000D02*
X12550000Y-7790000D01*
X11950000Y-8525000D02*
X12065000Y-8410000D01*
X11950000Y-8789094D02*
X11950000Y-8525000D01*
%TO.N,Pyro_Power*%
D21*
X10164000Y-10420000D02*
X11020000Y-10420000D01*
X11020000Y-10420000D02*
X12370000Y-10420000D01*
%TO.N,/NRST*%
D19*
X12636500Y-8623300D02*
X12636500Y-8615680D01*
X11784983Y-9229280D02*
X12030520Y-9229280D01*
X12030520Y-9229280D02*
X12636500Y-8623300D01*
%TO.N,/SWDIO*%
X11053694Y-8148200D02*
X12034520Y-8148200D01*
X10948680Y-8043186D02*
X11053694Y-8148200D01*
%TO.N,/PC8*%
X11080464Y-8416245D02*
X10948680Y-8548029D01*
X11144840Y-8416245D02*
X11080464Y-8416245D01*
%TO.N,/PC13*%
X12498700Y-6047100D02*
X11906200Y-5454600D01*
X12651100Y-8144900D02*
X12651100Y-6588989D01*
X11906200Y-5454600D02*
X11906200Y-5435600D01*
X12496000Y-8300000D02*
X12651100Y-8144900D01*
X12651100Y-6588989D02*
X12498700Y-6436589D01*
X12498700Y-6436589D02*
X12498700Y-6047100D01*
%TO.N,/PB7*%
X12240450Y-8135430D02*
X12240450Y-7315200D01*
X12110720Y-8265160D02*
X12240450Y-8135430D01*
%TO.N,/PC7*%
X10683240Y-8310890D02*
X10683240Y-8036560D01*
X10683240Y-8036560D02*
X10866120Y-7853680D01*
X10866120Y-7853680D02*
X10866120Y-7546980D01*
%TO.N,/PC6*%
X10525760Y-8260289D02*
X10525760Y-7244080D01*
X10525760Y-7244080D02*
X10647680Y-7122160D01*
X10631366Y-8365895D02*
X10525760Y-8260289D01*
%TD*%
%TA.AperFunction,Conductor*%
%TO.N,+3.3V*%
G36*
X12497374Y-5280073D02*
G01*
X12525174Y-5281754D01*
X12526660Y-5281935D01*
X12534184Y-5283314D01*
X12553687Y-5286887D01*
X12555139Y-5287246D01*
X12581371Y-5295420D01*
X12582771Y-5295950D01*
X12607827Y-5307227D01*
X12609152Y-5307923D01*
X12632666Y-5322137D01*
X12633897Y-5322987D01*
X12644014Y-5330913D01*
X12655526Y-5339933D01*
X12656647Y-5340926D01*
X12676074Y-5360353D01*
X12677067Y-5361474D01*
X12694012Y-5383102D01*
X12694863Y-5384334D01*
X12706835Y-5404139D01*
X12709077Y-5407848D01*
X12709773Y-5409174D01*
X12721049Y-5434229D01*
X12721580Y-5435629D01*
X12729754Y-5461860D01*
X12730113Y-5463314D01*
X12735065Y-5490339D01*
X12735246Y-5491826D01*
X12736927Y-5519626D01*
X12736950Y-5520375D01*
X12736950Y-10979625D01*
X12736927Y-10980374D01*
X12735246Y-11008174D01*
X12735065Y-11009661D01*
X12730113Y-11036686D01*
X12729754Y-11038140D01*
X12721580Y-11064371D01*
X12721049Y-11065771D01*
X12709773Y-11090826D01*
X12709077Y-11092152D01*
X12694863Y-11115665D01*
X12694012Y-11116898D01*
X12677067Y-11138526D01*
X12676074Y-11139647D01*
X12656647Y-11159074D01*
X12655526Y-11160067D01*
X12633897Y-11177012D01*
X12632665Y-11177863D01*
X12609152Y-11192077D01*
X12607826Y-11192773D01*
X12582771Y-11204049D01*
X12581371Y-11204580D01*
X12555140Y-11212754D01*
X12553686Y-11213113D01*
X12526660Y-11218065D01*
X12525174Y-11218246D01*
X12497374Y-11219927D01*
X12496625Y-11219950D01*
X10037375Y-11219950D01*
X10036627Y-11219927D01*
X10008826Y-11218246D01*
X10007340Y-11218065D01*
X9980314Y-11213113D01*
X9978860Y-11212754D01*
X9952629Y-11204580D01*
X9951229Y-11204049D01*
X9926174Y-11192773D01*
X9924848Y-11192077D01*
X9901335Y-11177863D01*
X9900102Y-11177012D01*
X9878474Y-11160067D01*
X9877353Y-11159074D01*
X9857926Y-11139647D01*
X9856933Y-11138526D01*
X9846375Y-11125050D01*
X9839987Y-11116897D01*
X9839137Y-11115666D01*
X9824923Y-11092152D01*
X9824227Y-11090826D01*
X9812951Y-11065771D01*
X9812420Y-11064371D01*
X9811166Y-11060347D01*
X9804246Y-11038139D01*
X9803887Y-11036686D01*
X9802113Y-11027003D01*
X9798935Y-11009660D01*
X9798754Y-11008174D01*
X9797073Y-10980374D01*
X9797050Y-10979625D01*
X9797050Y-10938526D01*
X9894950Y-10938526D01*
X9894950Y-10961474D01*
X9895862Y-10968402D01*
X9897945Y-10984224D01*
X9897945Y-10984224D01*
X9903884Y-11006389D01*
X9912665Y-11027588D01*
X9912666Y-11027589D01*
X9924139Y-11047462D01*
X9938108Y-11065666D01*
X9938109Y-11065667D01*
X9954333Y-11081891D01*
X9954334Y-11081892D01*
X9972538Y-11095861D01*
X9972539Y-11095861D01*
X9972539Y-11095861D01*
X9992411Y-11107334D01*
X9992412Y-11107335D01*
X9992412Y-11107335D01*
X10001548Y-11111119D01*
X10013611Y-11116116D01*
X10035776Y-11122055D01*
X10058527Y-11125050D01*
X10058527Y-11125050D01*
X10081473Y-11125050D01*
X10081473Y-11125050D01*
X10104224Y-11122055D01*
X10126389Y-11116116D01*
X10147589Y-11107334D01*
X10167461Y-11095861D01*
X10185666Y-11081892D01*
X10185667Y-11081891D01*
X10185667Y-11081891D01*
X10201891Y-11065667D01*
X10201891Y-11065667D01*
X10201892Y-11065666D01*
X10215861Y-11047461D01*
X10220369Y-11039653D01*
X10653945Y-11039653D01*
X10653945Y-11060347D01*
X10657982Y-11080641D01*
X10657982Y-11080642D01*
X10665901Y-11099760D01*
X10677398Y-11116966D01*
X10692029Y-11131598D01*
X10692030Y-11131598D01*
X10709235Y-11143094D01*
X10728353Y-11151013D01*
X10742800Y-11153887D01*
X10748648Y-11155050D01*
X10748649Y-11155050D01*
X10748649Y-11155050D01*
X10769342Y-11155050D01*
X10769342Y-11155050D01*
X10789637Y-11151013D01*
X10808755Y-11143094D01*
X10825961Y-11131598D01*
X10840593Y-11116966D01*
X10852089Y-11099760D01*
X10860008Y-11080642D01*
X10864045Y-11060347D01*
X10864045Y-11039654D01*
X10864045Y-11039653D01*
X10907945Y-11039653D01*
X10907945Y-11060347D01*
X10911982Y-11080641D01*
X10911982Y-11080642D01*
X10919901Y-11099760D01*
X10931398Y-11116966D01*
X10946029Y-11131598D01*
X10946030Y-11131598D01*
X10963235Y-11143094D01*
X10982353Y-11151013D01*
X10996800Y-11153887D01*
X11002648Y-11155050D01*
X11002649Y-11155050D01*
X11002649Y-11155050D01*
X11023342Y-11155050D01*
X11023342Y-11155050D01*
X11043637Y-11151013D01*
X11062755Y-11143094D01*
X11079961Y-11131598D01*
X11094593Y-11116966D01*
X11106089Y-11099760D01*
X11114008Y-11080642D01*
X11118045Y-11060347D01*
X11118045Y-11039654D01*
X11118045Y-11039653D01*
X11161945Y-11039653D01*
X11161945Y-11060347D01*
X11165982Y-11080641D01*
X11165982Y-11080642D01*
X11173901Y-11099760D01*
X11185398Y-11116966D01*
X11200029Y-11131598D01*
X11200030Y-11131598D01*
X11217235Y-11143094D01*
X11236353Y-11151013D01*
X11250800Y-11153887D01*
X11256648Y-11155050D01*
X11256649Y-11155050D01*
X11256649Y-11155050D01*
X11277342Y-11155050D01*
X11277342Y-11155050D01*
X11297637Y-11151013D01*
X11316755Y-11143094D01*
X11333961Y-11131598D01*
X11348593Y-11116966D01*
X11360089Y-11099760D01*
X11368008Y-11080642D01*
X11372045Y-11060347D01*
X11372045Y-11039654D01*
X11372045Y-11039653D01*
X11415945Y-11039653D01*
X11415945Y-11060347D01*
X11419982Y-11080641D01*
X11419982Y-11080642D01*
X11427901Y-11099760D01*
X11439398Y-11116966D01*
X11454029Y-11131598D01*
X11454030Y-11131598D01*
X11471235Y-11143094D01*
X11490353Y-11151013D01*
X11504800Y-11153887D01*
X11510648Y-11155050D01*
X11510649Y-11155050D01*
X11510649Y-11155050D01*
X11531342Y-11155050D01*
X11531342Y-11155050D01*
X11551637Y-11151013D01*
X11570755Y-11143094D01*
X11587961Y-11131598D01*
X11602593Y-11116966D01*
X11614089Y-11099760D01*
X11622008Y-11080642D01*
X11626045Y-11060347D01*
X11626045Y-11039654D01*
X11622008Y-11019358D01*
X11614089Y-11000240D01*
X11602593Y-10983035D01*
X11602593Y-10983034D01*
X11587961Y-10968402D01*
X11579912Y-10963025D01*
X11669945Y-10963025D01*
X11669945Y-11136975D01*
X11671108Y-11142823D01*
X11671108Y-11142823D01*
X11675540Y-11149455D01*
X11682172Y-11153887D01*
X11682172Y-11153887D01*
X11688020Y-11155050D01*
X11688020Y-11155050D01*
X11688020Y-11155050D01*
X11861970Y-11155050D01*
X11861970Y-11155050D01*
X11863452Y-11154755D01*
X11867818Y-11153887D01*
X11867818Y-11153887D01*
X11867818Y-11153887D01*
X11874450Y-11149455D01*
X11878882Y-11142823D01*
X11878882Y-11142823D01*
X11878882Y-11142823D01*
X11880045Y-11136975D01*
X11880045Y-11136975D01*
X11880045Y-10963025D01*
X11880045Y-10963025D01*
X11878882Y-10957177D01*
X11878882Y-10957177D01*
X11874450Y-10950545D01*
X11871292Y-10948434D01*
X11871290Y-10948433D01*
X11867818Y-10946113D01*
X11867818Y-10946113D01*
X11867818Y-10946113D01*
X11867818Y-10946113D01*
X11861970Y-10944950D01*
X11861970Y-10944950D01*
X11688020Y-10944950D01*
X11688020Y-10944950D01*
X11682172Y-10946113D01*
X11682172Y-10946113D01*
X11675540Y-10950545D01*
X11671108Y-10957177D01*
X11671108Y-10957177D01*
X11669945Y-10963025D01*
X11579912Y-10963025D01*
X11571161Y-10957177D01*
X11570755Y-10956906D01*
X11551637Y-10948987D01*
X11551636Y-10948987D01*
X11531342Y-10944950D01*
X11531342Y-10944950D01*
X11510649Y-10944950D01*
X11510648Y-10944950D01*
X11490354Y-10948987D01*
X11490353Y-10948987D01*
X11471235Y-10956906D01*
X11454029Y-10968402D01*
X11439398Y-10983034D01*
X11427901Y-11000240D01*
X11419982Y-11019358D01*
X11419982Y-11019359D01*
X11415945Y-11039653D01*
X11372045Y-11039653D01*
X11368008Y-11019358D01*
X11360089Y-11000240D01*
X11348593Y-10983035D01*
X11348593Y-10983034D01*
X11333961Y-10968402D01*
X11317161Y-10957177D01*
X11316755Y-10956906D01*
X11297637Y-10948987D01*
X11297636Y-10948987D01*
X11277342Y-10944950D01*
X11277342Y-10944950D01*
X11256649Y-10944950D01*
X11256648Y-10944950D01*
X11236354Y-10948987D01*
X11236353Y-10948987D01*
X11217235Y-10956906D01*
X11200029Y-10968402D01*
X11185398Y-10983034D01*
X11173901Y-11000240D01*
X11165982Y-11019358D01*
X11165982Y-11019359D01*
X11161945Y-11039653D01*
X11118045Y-11039653D01*
X11114008Y-11019358D01*
X11106089Y-11000240D01*
X11094593Y-10983035D01*
X11094593Y-10983034D01*
X11079961Y-10968402D01*
X11063161Y-10957177D01*
X11062755Y-10956906D01*
X11043637Y-10948987D01*
X11043636Y-10948987D01*
X11023342Y-10944950D01*
X11023342Y-10944950D01*
X11002649Y-10944950D01*
X11002648Y-10944950D01*
X10982354Y-10948987D01*
X10982353Y-10948987D01*
X10963236Y-10956906D01*
X10946029Y-10968402D01*
X10931398Y-10983034D01*
X10919901Y-11000240D01*
X10911982Y-11019358D01*
X10911982Y-11019359D01*
X10907945Y-11039653D01*
X10864045Y-11039653D01*
X10860008Y-11019358D01*
X10852089Y-11000240D01*
X10840593Y-10983035D01*
X10840593Y-10983034D01*
X10825961Y-10968402D01*
X10809161Y-10957177D01*
X10808755Y-10956906D01*
X10789637Y-10948987D01*
X10789636Y-10948987D01*
X10769342Y-10944950D01*
X10769342Y-10944950D01*
X10748649Y-10944950D01*
X10748648Y-10944950D01*
X10728354Y-10948987D01*
X10728353Y-10948987D01*
X10709236Y-10956906D01*
X10692029Y-10968402D01*
X10677398Y-10983034D01*
X10665901Y-11000240D01*
X10657982Y-11019358D01*
X10657982Y-11019359D01*
X10653945Y-11039653D01*
X10220369Y-11039653D01*
X10227334Y-11027589D01*
X10236116Y-11006389D01*
X10242055Y-10984224D01*
X10245050Y-10961473D01*
X10245050Y-10938527D01*
X10245050Y-10938526D01*
X12294950Y-10938526D01*
X12294950Y-10961474D01*
X12295862Y-10968402D01*
X12297945Y-10984224D01*
X12297945Y-10984224D01*
X12303884Y-11006389D01*
X12312665Y-11027588D01*
X12312666Y-11027589D01*
X12324139Y-11047462D01*
X12338108Y-11065666D01*
X12338109Y-11065667D01*
X12354333Y-11081891D01*
X12354334Y-11081892D01*
X12372538Y-11095861D01*
X12372538Y-11095861D01*
X12372539Y-11095861D01*
X12392411Y-11107334D01*
X12392412Y-11107335D01*
X12392412Y-11107335D01*
X12401548Y-11111119D01*
X12413611Y-11116116D01*
X12435776Y-11122055D01*
X12458527Y-11125050D01*
X12458527Y-11125050D01*
X12481473Y-11125050D01*
X12481473Y-11125050D01*
X12504224Y-11122055D01*
X12526389Y-11116116D01*
X12547589Y-11107334D01*
X12567461Y-11095861D01*
X12585666Y-11081892D01*
X12585666Y-11081891D01*
X12585667Y-11081891D01*
X12601891Y-11065667D01*
X12601891Y-11065667D01*
X12601892Y-11065666D01*
X12615861Y-11047461D01*
X12627334Y-11027589D01*
X12636116Y-11006389D01*
X12642055Y-10984224D01*
X12645050Y-10961473D01*
X12645050Y-10938527D01*
X12642055Y-10915776D01*
X12636116Y-10893611D01*
X12627334Y-10872411D01*
X12615861Y-10852539D01*
X12615861Y-10852539D01*
X12615861Y-10852538D01*
X12601892Y-10834334D01*
X12601891Y-10834333D01*
X12585667Y-10818109D01*
X12585666Y-10818108D01*
X12567462Y-10804139D01*
X12547589Y-10792666D01*
X12547588Y-10792665D01*
X12526389Y-10783884D01*
X12504224Y-10777945D01*
X12500421Y-10777445D01*
X12481474Y-10774950D01*
X12481473Y-10774950D01*
X12458527Y-10774950D01*
X12458526Y-10774950D01*
X12436871Y-10777801D01*
X12435776Y-10777945D01*
X12426408Y-10780455D01*
X12413611Y-10783884D01*
X12392412Y-10792665D01*
X12392411Y-10792666D01*
X12372538Y-10804139D01*
X12354334Y-10818108D01*
X12338108Y-10834334D01*
X12324139Y-10852538D01*
X12312666Y-10872411D01*
X12312665Y-10872412D01*
X12303884Y-10893611D01*
X12297945Y-10915776D01*
X12297945Y-10915777D01*
X12294950Y-10938526D01*
X10245050Y-10938526D01*
X10242055Y-10915776D01*
X10236116Y-10893611D01*
X10227334Y-10872411D01*
X10215861Y-10852539D01*
X10215861Y-10852539D01*
X10215861Y-10852538D01*
X10201892Y-10834334D01*
X10201891Y-10834333D01*
X10185667Y-10818109D01*
X10185666Y-10818108D01*
X10167462Y-10804139D01*
X10147589Y-10792666D01*
X10147588Y-10792665D01*
X10126389Y-10783884D01*
X10104224Y-10777945D01*
X10100422Y-10777445D01*
X10081474Y-10774950D01*
X10081473Y-10774950D01*
X10058527Y-10774950D01*
X10058526Y-10774950D01*
X10036872Y-10777801D01*
X10035776Y-10777945D01*
X10026408Y-10780455D01*
X10013611Y-10783884D01*
X9992412Y-10792665D01*
X9992411Y-10792666D01*
X9972538Y-10804139D01*
X9954334Y-10818108D01*
X9938108Y-10834334D01*
X9924139Y-10852538D01*
X9912666Y-10872411D01*
X9912665Y-10872412D01*
X9903884Y-10893611D01*
X9897945Y-10915776D01*
X9897945Y-10915777D01*
X9894950Y-10938526D01*
X9797050Y-10938526D01*
X9797050Y-9567573D01*
X10033950Y-9567573D01*
X10033950Y-9748426D01*
X10033950Y-9748427D01*
X10034235Y-9751470D01*
X10034235Y-9751470D01*
X10034236Y-9751470D01*
X10034236Y-9751471D01*
X10038721Y-9764288D01*
X10046785Y-9775215D01*
X10050363Y-9777855D01*
X10057712Y-9783279D01*
X10061111Y-9784469D01*
X10070530Y-9787765D01*
X10071443Y-9787850D01*
X10073573Y-9788050D01*
X10075185Y-9788050D01*
X10081888Y-9790018D01*
X10086464Y-9795298D01*
X10087459Y-9802214D01*
X10084557Y-9808570D01*
X10082474Y-9810482D01*
X10079278Y-9812803D01*
X10064803Y-9827279D01*
X10052772Y-9843839D01*
X10043478Y-9862078D01*
X10037152Y-9881547D01*
X10033950Y-9901765D01*
X10033950Y-9922235D01*
X10037152Y-9942453D01*
X10043478Y-9961922D01*
X10052772Y-9980161D01*
X10064803Y-9996721D01*
X10079279Y-10011197D01*
X10095839Y-10023228D01*
X10095839Y-10023229D01*
X10095839Y-10023229D01*
X10105108Y-10027952D01*
X10110188Y-10032749D01*
X10111867Y-10039531D01*
X10109613Y-10046144D01*
X10105108Y-10050048D01*
X10095839Y-10054771D01*
X10095839Y-10054771D01*
X10079279Y-10066803D01*
X10064803Y-10081279D01*
X10052772Y-10097839D01*
X10043478Y-10116078D01*
X10037152Y-10135546D01*
X10033950Y-10155765D01*
X10033950Y-10176235D01*
X10037152Y-10196453D01*
X10043478Y-10215922D01*
X10052772Y-10234161D01*
X10064803Y-10250721D01*
X10079279Y-10265197D01*
X10095839Y-10277228D01*
X10095839Y-10277228D01*
X10095839Y-10277229D01*
X10105108Y-10281952D01*
X10110188Y-10286749D01*
X10111867Y-10293531D01*
X10109614Y-10300144D01*
X10105108Y-10304048D01*
X10095839Y-10308771D01*
X10095839Y-10308771D01*
X10079279Y-10320803D01*
X10064803Y-10335279D01*
X10052772Y-10351839D01*
X10043478Y-10370078D01*
X10037152Y-10389547D01*
X10033950Y-10409765D01*
X10033950Y-10430235D01*
X10037152Y-10450453D01*
X10043478Y-10469922D01*
X10052772Y-10488161D01*
X10064803Y-10504721D01*
X10079279Y-10519197D01*
X10094775Y-10530456D01*
X10095839Y-10531229D01*
X10107461Y-10537150D01*
X10114078Y-10540522D01*
X10114078Y-10540522D01*
X10114078Y-10540522D01*
X10118684Y-10542019D01*
X10133547Y-10546848D01*
X10143656Y-10548449D01*
X10153765Y-10550050D01*
X10153765Y-10550050D01*
X10174235Y-10550050D01*
X10174235Y-10550050D01*
X10194453Y-10546848D01*
X10194454Y-10546848D01*
X10194454Y-10546848D01*
X10213507Y-10540657D01*
X10217339Y-10540050D01*
X11010552Y-10540050D01*
X12252546Y-10540050D01*
X12259250Y-10542019D01*
X12259909Y-10542473D01*
X12262872Y-10544660D01*
X12263712Y-10545279D01*
X12269884Y-10547439D01*
X12276530Y-10549765D01*
X12277232Y-10549830D01*
X12279573Y-10550050D01*
X12460427Y-10550050D01*
X12463470Y-10549765D01*
X12476288Y-10545279D01*
X12487215Y-10537215D01*
X12495279Y-10526288D01*
X12497761Y-10519197D01*
X12499765Y-10513470D01*
X12499765Y-10513470D01*
X12500050Y-10510427D01*
X12500050Y-10329573D01*
X12499765Y-10326530D01*
X12495279Y-10313712D01*
X12491633Y-10308771D01*
X12487215Y-10302785D01*
X12479812Y-10297322D01*
X12476288Y-10294721D01*
X12476288Y-10294721D01*
X12463470Y-10290235D01*
X12460427Y-10289950D01*
X12460427Y-10289950D01*
X12458815Y-10289950D01*
X12452111Y-10287982D01*
X12447536Y-10282701D01*
X12446541Y-10275785D01*
X12449444Y-10269430D01*
X12451527Y-10267518D01*
X12454721Y-10265197D01*
X12454721Y-10265197D01*
X12454722Y-10265197D01*
X12469197Y-10250722D01*
X12469197Y-10250722D01*
X12469197Y-10250721D01*
X12474473Y-10243459D01*
X12481229Y-10234161D01*
X12490522Y-10215922D01*
X12496848Y-10196453D01*
X12500050Y-10176235D01*
X12500050Y-10155765D01*
X12496848Y-10135547D01*
X12496848Y-10135546D01*
X12490522Y-10116078D01*
X12487150Y-10109461D01*
X12481229Y-10097839D01*
X12480456Y-10096775D01*
X12469197Y-10081279D01*
X12454721Y-10066803D01*
X12438161Y-10054772D01*
X12438161Y-10054771D01*
X12438161Y-10054771D01*
X12428892Y-10050049D01*
X12423812Y-10045251D01*
X12422133Y-10038469D01*
X12424387Y-10031855D01*
X12428892Y-10027952D01*
X12438161Y-10023229D01*
X12443114Y-10019630D01*
X12454721Y-10011197D01*
X12454721Y-10011197D01*
X12454722Y-10011197D01*
X12469197Y-9996722D01*
X12469197Y-9996722D01*
X12469197Y-9996721D01*
X12474473Y-9989459D01*
X12481229Y-9980161D01*
X12490522Y-9961922D01*
X12496848Y-9942454D01*
X12500050Y-9922235D01*
X12500050Y-9901765D01*
X12497222Y-9883909D01*
X12496848Y-9881547D01*
X12490522Y-9862078D01*
X12481458Y-9844290D01*
X12481229Y-9843839D01*
X12479078Y-9840879D01*
X12469197Y-9827279D01*
X12454721Y-9812803D01*
X12438161Y-9800772D01*
X12438161Y-9800772D01*
X12438161Y-9800771D01*
X12428892Y-9796048D01*
X12423812Y-9791251D01*
X12422133Y-9784469D01*
X12424386Y-9777855D01*
X12428892Y-9773952D01*
X12438161Y-9769229D01*
X12446034Y-9763508D01*
X12454721Y-9757197D01*
X12454721Y-9757197D01*
X12454722Y-9757197D01*
X12469197Y-9742722D01*
X12469197Y-9742722D01*
X12469197Y-9742721D01*
X12474473Y-9735459D01*
X12481229Y-9726161D01*
X12490522Y-9707922D01*
X12496848Y-9688453D01*
X12500050Y-9668235D01*
X12500050Y-9647765D01*
X12496848Y-9627547D01*
X12490522Y-9608078D01*
X12487150Y-9601461D01*
X12481229Y-9589839D01*
X12480456Y-9588775D01*
X12469197Y-9573279D01*
X12454721Y-9558803D01*
X12438161Y-9546772D01*
X12437501Y-9546435D01*
X12428892Y-9542048D01*
X12423812Y-9537251D01*
X12422133Y-9530469D01*
X12424386Y-9523856D01*
X12428892Y-9519952D01*
X12438161Y-9515229D01*
X12445342Y-9510011D01*
X12454721Y-9503197D01*
X12454721Y-9503197D01*
X12454722Y-9503197D01*
X12469197Y-9488722D01*
X12469197Y-9488722D01*
X12469197Y-9488721D01*
X12474473Y-9481459D01*
X12481229Y-9472161D01*
X12490522Y-9453922D01*
X12496848Y-9434453D01*
X12500050Y-9414235D01*
X12500050Y-9393765D01*
X12497384Y-9376930D01*
X12496848Y-9373547D01*
X12490522Y-9354078D01*
X12486507Y-9346199D01*
X12481229Y-9335839D01*
X12479507Y-9333469D01*
X12469197Y-9319279D01*
X12454721Y-9304803D01*
X12438161Y-9292772D01*
X12437501Y-9292435D01*
X12428892Y-9288048D01*
X12423812Y-9283251D01*
X12422133Y-9276469D01*
X12424386Y-9269856D01*
X12428892Y-9265952D01*
X12438161Y-9261229D01*
X12443593Y-9257282D01*
X12454721Y-9249197D01*
X12454721Y-9249197D01*
X12454722Y-9249197D01*
X12469197Y-9234722D01*
X12469197Y-9234722D01*
X12469197Y-9234721D01*
X12477938Y-9222691D01*
X12481229Y-9218161D01*
X12490522Y-9199922D01*
X12496848Y-9180453D01*
X12500050Y-9160235D01*
X12500050Y-9139765D01*
X12496848Y-9119547D01*
X12490522Y-9100078D01*
X12490522Y-9100078D01*
X12490522Y-9100078D01*
X12485406Y-9090038D01*
X12481229Y-9081839D01*
X12479246Y-9079110D01*
X12469197Y-9065279D01*
X12454721Y-9050803D01*
X12438161Y-9038772D01*
X12438161Y-9038771D01*
X12438161Y-9038771D01*
X12432296Y-9035783D01*
X12419922Y-9029478D01*
X12400453Y-9023152D01*
X12382999Y-9020388D01*
X12380235Y-9019950D01*
X12359765Y-9019950D01*
X12357333Y-9020335D01*
X12339546Y-9023152D01*
X12320078Y-9029478D01*
X12301839Y-9038771D01*
X12289198Y-9047955D01*
X12282618Y-9050303D01*
X12275812Y-9048720D01*
X12270943Y-9043710D01*
X12269556Y-9036862D01*
X12272091Y-9030351D01*
X12273141Y-9029156D01*
X12427284Y-8875013D01*
X12433416Y-8871664D01*
X12440385Y-8872163D01*
X12445979Y-8876350D01*
X12446791Y-8877581D01*
X12447025Y-8877986D01*
X12456343Y-8887305D01*
X12466227Y-8893011D01*
X12467648Y-8893832D01*
X12467756Y-8893894D01*
X12480485Y-8897305D01*
X12480486Y-8897305D01*
X12493664Y-8897305D01*
X12493664Y-8897305D01*
X12506393Y-8893894D01*
X12517806Y-8887305D01*
X12527125Y-8877986D01*
X12533714Y-8866573D01*
X12537125Y-8853844D01*
X12537125Y-8840665D01*
X12533714Y-8827936D01*
X12527125Y-8816523D01*
X12517806Y-8807205D01*
X12517401Y-8806971D01*
X12512579Y-8801914D01*
X12511257Y-8795054D01*
X12513854Y-8788567D01*
X12514832Y-8787465D01*
X12632935Y-8669362D01*
X12639067Y-8666013D01*
X12641703Y-8665730D01*
X12643089Y-8665730D01*
X12643089Y-8665730D01*
X12655819Y-8662319D01*
X12667231Y-8655730D01*
X12676550Y-8646411D01*
X12683139Y-8634999D01*
X12686550Y-8622269D01*
X12686550Y-8609091D01*
X12683139Y-8596361D01*
X12676550Y-8584949D01*
X12667231Y-8575630D01*
X12658622Y-8570659D01*
X12655819Y-8569041D01*
X12649454Y-8567335D01*
X12643089Y-8565630D01*
X12629911Y-8565630D01*
X12617181Y-8569041D01*
X12605769Y-8575630D01*
X12605768Y-8575630D01*
X12596450Y-8584948D01*
X12596450Y-8584949D01*
X12589861Y-8596361D01*
X12586450Y-8609091D01*
X12586450Y-8622269D01*
X12586556Y-8623075D01*
X12586388Y-8623097D01*
X12586244Y-8629110D01*
X12583202Y-8634101D01*
X12201602Y-9015701D01*
X12195470Y-9019049D01*
X12188500Y-9018551D01*
X12182907Y-9014364D01*
X12182096Y-9013134D01*
X12181250Y-9011669D01*
X12171931Y-9002350D01*
X12165687Y-8998745D01*
X12160519Y-8995761D01*
X12150671Y-8993122D01*
X12147789Y-8992350D01*
X12134611Y-8992350D01*
X12121881Y-8995761D01*
X12110469Y-9002350D01*
X12110468Y-9002350D01*
X12101150Y-9011668D01*
X12101150Y-9011669D01*
X12094561Y-9023081D01*
X12092528Y-9030669D01*
X12091150Y-9035811D01*
X12091150Y-9048989D01*
X12091636Y-9050803D01*
X12094561Y-9061719D01*
X12094994Y-9062468D01*
X12101150Y-9073131D01*
X12110469Y-9082450D01*
X12111933Y-9083295D01*
X12116754Y-9088352D01*
X12118076Y-9095212D01*
X12115480Y-9101699D01*
X12114501Y-9102802D01*
X12021705Y-9195598D01*
X12015572Y-9198947D01*
X12012937Y-9199230D01*
X11830850Y-9199230D01*
X11824147Y-9197262D01*
X11822082Y-9195598D01*
X11815714Y-9189230D01*
X11815714Y-9189230D01*
X11810008Y-9185935D01*
X11804302Y-9182641D01*
X11796138Y-9180453D01*
X11791572Y-9179230D01*
X11778394Y-9179230D01*
X11765664Y-9182641D01*
X11754251Y-9189230D01*
X11754251Y-9189230D01*
X11744933Y-9198548D01*
X11744933Y-9198549D01*
X11738344Y-9209961D01*
X11734933Y-9222691D01*
X11734933Y-9235869D01*
X11738344Y-9248599D01*
X11741073Y-9253326D01*
X11744933Y-9260011D01*
X11754251Y-9269330D01*
X11765664Y-9275919D01*
X11778394Y-9279330D01*
X11778394Y-9279330D01*
X11791572Y-9279330D01*
X11791572Y-9279330D01*
X11804301Y-9275919D01*
X11815714Y-9269330D01*
X11822082Y-9262962D01*
X11828215Y-9259613D01*
X11830850Y-9259330D01*
X12015302Y-9259330D01*
X12022006Y-9261299D01*
X12026582Y-9266579D01*
X12027576Y-9273495D01*
X12024674Y-9279850D01*
X12021503Y-9282469D01*
X12013949Y-9286830D01*
X12013948Y-9286830D01*
X12004630Y-9296148D01*
X12004630Y-9296149D01*
X11998041Y-9307561D01*
X11994630Y-9320291D01*
X11994630Y-9333469D01*
X11998041Y-9346199D01*
X12001335Y-9351905D01*
X12004630Y-9357611D01*
X12013949Y-9366930D01*
X12025361Y-9373519D01*
X12038091Y-9376930D01*
X12038091Y-9376930D01*
X12051269Y-9376930D01*
X12051269Y-9376930D01*
X12063999Y-9373519D01*
X12075411Y-9366930D01*
X12084730Y-9357611D01*
X12091319Y-9346199D01*
X12094730Y-9333469D01*
X12094730Y-9320291D01*
X12091319Y-9307561D01*
X12084730Y-9296149D01*
X12075411Y-9286830D01*
X12063999Y-9280241D01*
X12051269Y-9276830D01*
X12051269Y-9276830D01*
X12050810Y-9276707D01*
X12044844Y-9273071D01*
X12041791Y-9266786D01*
X12042621Y-9259848D01*
X12047069Y-9254460D01*
X12047818Y-9253992D01*
X12048971Y-9253326D01*
X12054566Y-9247731D01*
X12249155Y-9053142D01*
X12255287Y-9049794D01*
X12262256Y-9050292D01*
X12267850Y-9054479D01*
X12270291Y-9061026D01*
X12268806Y-9067853D01*
X12267955Y-9069199D01*
X12258771Y-9081839D01*
X12249478Y-9100078D01*
X12243152Y-9119547D01*
X12239950Y-9139765D01*
X12239950Y-9160235D01*
X12243152Y-9180453D01*
X12249478Y-9199922D01*
X12258771Y-9218161D01*
X12270803Y-9234721D01*
X12285279Y-9249197D01*
X12296407Y-9257282D01*
X12301839Y-9261229D01*
X12310984Y-9265888D01*
X12311108Y-9265952D01*
X12316188Y-9270749D01*
X12317867Y-9277531D01*
X12315613Y-9284145D01*
X12311108Y-9288049D01*
X12301839Y-9292772D01*
X12285279Y-9304803D01*
X12270803Y-9319279D01*
X12258771Y-9335839D01*
X12249478Y-9354078D01*
X12243152Y-9373547D01*
X12239950Y-9393765D01*
X12239950Y-9414235D01*
X12243152Y-9434453D01*
X12249478Y-9453922D01*
X12258771Y-9472161D01*
X12270803Y-9488721D01*
X12285279Y-9503197D01*
X12299996Y-9513890D01*
X12301839Y-9515229D01*
X12310984Y-9519888D01*
X12311108Y-9519952D01*
X12316188Y-9524749D01*
X12317867Y-9531531D01*
X12315613Y-9538145D01*
X12311108Y-9542049D01*
X12301839Y-9546772D01*
X12285279Y-9558803D01*
X12270803Y-9573279D01*
X12258771Y-9589839D01*
X12249478Y-9608078D01*
X12243152Y-9627547D01*
X12239950Y-9647765D01*
X12239950Y-9668235D01*
X12240388Y-9671000D01*
X12243152Y-9688453D01*
X12249478Y-9707922D01*
X12255869Y-9720465D01*
X12258205Y-9725050D01*
X12258771Y-9726161D01*
X12270803Y-9742721D01*
X12285279Y-9757197D01*
X12301838Y-9769228D01*
X12301839Y-9769229D01*
X12301839Y-9769229D01*
X12311108Y-9773952D01*
X12316188Y-9778749D01*
X12317867Y-9785531D01*
X12315613Y-9792145D01*
X12311108Y-9796048D01*
X12301839Y-9800771D01*
X12301839Y-9800771D01*
X12285279Y-9812803D01*
X12270803Y-9827279D01*
X12258771Y-9843839D01*
X12249478Y-9862078D01*
X12243152Y-9881547D01*
X12239950Y-9901765D01*
X12239950Y-9922235D01*
X12243152Y-9942454D01*
X12249478Y-9961922D01*
X12255869Y-9974465D01*
X12258771Y-9980161D01*
X12258771Y-9980161D01*
X12270803Y-9996721D01*
X12285279Y-10011197D01*
X12301838Y-10023229D01*
X12301839Y-10023229D01*
X12301839Y-10023229D01*
X12311108Y-10027952D01*
X12316187Y-10032749D01*
X12317867Y-10039531D01*
X12315613Y-10046145D01*
X12311108Y-10050048D01*
X12301839Y-10054771D01*
X12301839Y-10054771D01*
X12285279Y-10066803D01*
X12270803Y-10081279D01*
X12258771Y-10097839D01*
X12249478Y-10116078D01*
X12243152Y-10135547D01*
X12239950Y-10155765D01*
X12239950Y-10176235D01*
X12243152Y-10196453D01*
X12249478Y-10215922D01*
X12255869Y-10228465D01*
X12258771Y-10234161D01*
X12258771Y-10234161D01*
X12270803Y-10250721D01*
X12285278Y-10265197D01*
X12285278Y-10265197D01*
X12288473Y-10267518D01*
X12292740Y-10273051D01*
X12293338Y-10280012D01*
X12290078Y-10286192D01*
X12283994Y-10289628D01*
X12281186Y-10289950D01*
X12279574Y-10289950D01*
X12278494Y-10290051D01*
X12276530Y-10290235D01*
X12276530Y-10290235D01*
X12276530Y-10290236D01*
X12276529Y-10290236D01*
X12263712Y-10294721D01*
X12263711Y-10294721D01*
X12259909Y-10297527D01*
X12253346Y-10299924D01*
X12252546Y-10299950D01*
X10239050Y-10299950D01*
X10232346Y-10297982D01*
X10227771Y-10292701D01*
X10226776Y-10285785D01*
X10229679Y-10279430D01*
X10231830Y-10277602D01*
X10231767Y-10277515D01*
X10248721Y-10265197D01*
X10248722Y-10265197D01*
X10248722Y-10265197D01*
X10263197Y-10250722D01*
X10263197Y-10250721D01*
X10263197Y-10250721D01*
X10268473Y-10243459D01*
X10275229Y-10234161D01*
X10284522Y-10215922D01*
X10290848Y-10196453D01*
X10294050Y-10176235D01*
X10294050Y-10155765D01*
X10290848Y-10135547D01*
X10284522Y-10116078D01*
X10284522Y-10116078D01*
X10284522Y-10116078D01*
X10281150Y-10109461D01*
X10275229Y-10097839D01*
X10274456Y-10096775D01*
X10263197Y-10081279D01*
X10248721Y-10066803D01*
X10232161Y-10054771D01*
X10232161Y-10054771D01*
X10232161Y-10054771D01*
X10222892Y-10050048D01*
X10217812Y-10045251D01*
X10216133Y-10038469D01*
X10218387Y-10031855D01*
X10222892Y-10027952D01*
X10232161Y-10023229D01*
X10237114Y-10019630D01*
X10248721Y-10011197D01*
X10248722Y-10011197D01*
X10248722Y-10011197D01*
X10263197Y-9996722D01*
X10263197Y-9996721D01*
X10263197Y-9996721D01*
X10268473Y-9989459D01*
X10275229Y-9980161D01*
X10281007Y-9968821D01*
X10285805Y-9963741D01*
X10292056Y-9962050D01*
X10833683Y-9962050D01*
X10833683Y-9962050D01*
X10846412Y-9958639D01*
X10857825Y-9952050D01*
X10901824Y-9908051D01*
X11710150Y-9908051D01*
X11710150Y-9921229D01*
X11710420Y-9922235D01*
X11713561Y-9933959D01*
X11716855Y-9939665D01*
X11720150Y-9945371D01*
X11729469Y-9954690D01*
X11740881Y-9961279D01*
X11753611Y-9964690D01*
X11753611Y-9964690D01*
X11766789Y-9964690D01*
X11766789Y-9964690D01*
X11779519Y-9961279D01*
X11790931Y-9954690D01*
X11800250Y-9945371D01*
X11806839Y-9933959D01*
X11810250Y-9921229D01*
X11810250Y-9908051D01*
X11806839Y-9895321D01*
X11800250Y-9883909D01*
X11790931Y-9874590D01*
X11785225Y-9871295D01*
X11779519Y-9868001D01*
X11773154Y-9866295D01*
X11766789Y-9864590D01*
X11753611Y-9864590D01*
X11740881Y-9868001D01*
X11729469Y-9874590D01*
X11729468Y-9874590D01*
X11720150Y-9883908D01*
X11720150Y-9883909D01*
X11713561Y-9895321D01*
X11712717Y-9898470D01*
X11710150Y-9908051D01*
X10901824Y-9908051D01*
X11022224Y-9787651D01*
X11415510Y-9787651D01*
X11415510Y-9800829D01*
X11418921Y-9813559D01*
X11422215Y-9819265D01*
X11425510Y-9824971D01*
X11434829Y-9834290D01*
X11446241Y-9840879D01*
X11458971Y-9844290D01*
X11458971Y-9844290D01*
X11472149Y-9844290D01*
X11472149Y-9844290D01*
X11484879Y-9840879D01*
X11496291Y-9834290D01*
X11505610Y-9824971D01*
X11512199Y-9813559D01*
X11515610Y-9800829D01*
X11515610Y-9787651D01*
X11512199Y-9774921D01*
X11505610Y-9763509D01*
X11496291Y-9754190D01*
X11490585Y-9750895D01*
X11484879Y-9747601D01*
X11478514Y-9745895D01*
X11472149Y-9744190D01*
X11458971Y-9744190D01*
X11446241Y-9747601D01*
X11434829Y-9754190D01*
X11434828Y-9754190D01*
X11425510Y-9763508D01*
X11425510Y-9763509D01*
X11418921Y-9774921D01*
X11415510Y-9787651D01*
X11022224Y-9787651D01*
X11141464Y-9668411D01*
X11203900Y-9668411D01*
X11203900Y-9681589D01*
X11207311Y-9694319D01*
X11210605Y-9700025D01*
X11213900Y-9705731D01*
X11223219Y-9715050D01*
X11234631Y-9721639D01*
X11247361Y-9725050D01*
X11247361Y-9725050D01*
X11260539Y-9725050D01*
X11260539Y-9725050D01*
X11273269Y-9721639D01*
X11284681Y-9715050D01*
X11294000Y-9705731D01*
X11300589Y-9694319D01*
X11304000Y-9681589D01*
X11304000Y-9668411D01*
X11300589Y-9655681D01*
X11294000Y-9644269D01*
X11284681Y-9634950D01*
X11278975Y-9631655D01*
X11273269Y-9628361D01*
X11266904Y-9626655D01*
X11260539Y-9624950D01*
X11247361Y-9624950D01*
X11234631Y-9628361D01*
X11223219Y-9634950D01*
X11223218Y-9634950D01*
X11213900Y-9644268D01*
X11213900Y-9644269D01*
X11207311Y-9655681D01*
X11203900Y-9668411D01*
X11141464Y-9668411D01*
X11333306Y-9476569D01*
X11490508Y-9476569D01*
X11490508Y-9489748D01*
X11493919Y-9502477D01*
X11497214Y-9508184D01*
X11500508Y-9513890D01*
X11509827Y-9523209D01*
X11521240Y-9529798D01*
X11533969Y-9533209D01*
X11533969Y-9533209D01*
X11547147Y-9533209D01*
X11547148Y-9533209D01*
X11559877Y-9529798D01*
X11571290Y-9523209D01*
X11580608Y-9513890D01*
X11587198Y-9502477D01*
X11590608Y-9489748D01*
X11590608Y-9476569D01*
X11589569Y-9472691D01*
X12025110Y-9472691D01*
X12025110Y-9485869D01*
X12028521Y-9498599D01*
X12031815Y-9504305D01*
X12035110Y-9510011D01*
X12044429Y-9519330D01*
X12055841Y-9525919D01*
X12068571Y-9529330D01*
X12068571Y-9529330D01*
X12081749Y-9529330D01*
X12081749Y-9529330D01*
X12094479Y-9525919D01*
X12105891Y-9519330D01*
X12115210Y-9510011D01*
X12121799Y-9498599D01*
X12125210Y-9485869D01*
X12125210Y-9472691D01*
X12121799Y-9459961D01*
X12115210Y-9448549D01*
X12105891Y-9439230D01*
X12100185Y-9435935D01*
X12094479Y-9432641D01*
X12088114Y-9430935D01*
X12081749Y-9429230D01*
X12068571Y-9429230D01*
X12055841Y-9432641D01*
X12044429Y-9439230D01*
X12044428Y-9439230D01*
X12035110Y-9448548D01*
X12035110Y-9448549D01*
X12028521Y-9459961D01*
X12025110Y-9472691D01*
X11589569Y-9472691D01*
X11587198Y-9463840D01*
X11580608Y-9452427D01*
X11571290Y-9443109D01*
X11564572Y-9439230D01*
X11559877Y-9436519D01*
X11552167Y-9434453D01*
X11547148Y-9433109D01*
X11533969Y-9433109D01*
X11521240Y-9436519D01*
X11509827Y-9443109D01*
X11509827Y-9443109D01*
X11500509Y-9452427D01*
X11500508Y-9452427D01*
X11493919Y-9463840D01*
X11490508Y-9476569D01*
X11333306Y-9476569D01*
X11827320Y-8982555D01*
X11957490Y-8982555D01*
X11957490Y-8995733D01*
X11958616Y-8999938D01*
X11960901Y-9008463D01*
X11962751Y-9011668D01*
X11967490Y-9019875D01*
X11976808Y-9029194D01*
X11988221Y-9035783D01*
X12000951Y-9039194D01*
X12000951Y-9039194D01*
X12014129Y-9039194D01*
X12014129Y-9039194D01*
X12026858Y-9035783D01*
X12038271Y-9029194D01*
X12047590Y-9019875D01*
X12054179Y-9008463D01*
X12057590Y-8995733D01*
X12057590Y-8982555D01*
X12054179Y-8969825D01*
X12047590Y-8958413D01*
X12038271Y-8949094D01*
X12032155Y-8945563D01*
X12026859Y-8942505D01*
X12020494Y-8940799D01*
X12014129Y-8939094D01*
X12000951Y-8939094D01*
X11988221Y-8942505D01*
X11976808Y-8949094D01*
X11976808Y-8949094D01*
X11967490Y-8958412D01*
X11967490Y-8958413D01*
X11960901Y-8969825D01*
X11958035Y-8980521D01*
X11957490Y-8982555D01*
X11827320Y-8982555D01*
X11990050Y-8819825D01*
X11996639Y-8808412D01*
X12000050Y-8795683D01*
X12000050Y-8782504D01*
X12000050Y-8730841D01*
X12002018Y-8724137D01*
X12007299Y-8719561D01*
X12014215Y-8718567D01*
X12020570Y-8721469D01*
X12023189Y-8724641D01*
X12024950Y-8727691D01*
X12034269Y-8737010D01*
X12045681Y-8743599D01*
X12058411Y-8747010D01*
X12058411Y-8747010D01*
X12071589Y-8747010D01*
X12071589Y-8747010D01*
X12084319Y-8743599D01*
X12095731Y-8737010D01*
X12105050Y-8727691D01*
X12111639Y-8716279D01*
X12115050Y-8703549D01*
X12115050Y-8690371D01*
X12111639Y-8677641D01*
X12105050Y-8666229D01*
X12095731Y-8656910D01*
X12090025Y-8653615D01*
X12084319Y-8650321D01*
X12077954Y-8648615D01*
X12071589Y-8646910D01*
X12058411Y-8646910D01*
X12045681Y-8650321D01*
X12034269Y-8656910D01*
X12034268Y-8656910D01*
X12024950Y-8666228D01*
X12024950Y-8666229D01*
X12023249Y-8669174D01*
X12023189Y-8669279D01*
X12018132Y-8674101D01*
X12011271Y-8675423D01*
X12004785Y-8672826D01*
X12000732Y-8667135D01*
X12000050Y-8663079D01*
X12000050Y-8550868D01*
X12000914Y-8547924D01*
X12000961Y-8547711D01*
X12375830Y-8547711D01*
X12375830Y-8560889D01*
X12379241Y-8573619D01*
X12382209Y-8578760D01*
X12385830Y-8585031D01*
X12395149Y-8594350D01*
X12406561Y-8600939D01*
X12419291Y-8604350D01*
X12419291Y-8604350D01*
X12432469Y-8604350D01*
X12432469Y-8604350D01*
X12445199Y-8600939D01*
X12456611Y-8594350D01*
X12465930Y-8585031D01*
X12472519Y-8573619D01*
X12475930Y-8560889D01*
X12475930Y-8547711D01*
X12472519Y-8534981D01*
X12465930Y-8523569D01*
X12456611Y-8514250D01*
X12450390Y-8510658D01*
X12445199Y-8507661D01*
X12437811Y-8505681D01*
X12432469Y-8504250D01*
X12419291Y-8504250D01*
X12406561Y-8507661D01*
X12395149Y-8514250D01*
X12395148Y-8514250D01*
X12385830Y-8523568D01*
X12385830Y-8523569D01*
X12379241Y-8534981D01*
X12375830Y-8547711D01*
X12000961Y-8547711D01*
X12001567Y-8544925D01*
X12001942Y-8544423D01*
X12002018Y-8544164D01*
X12003682Y-8542100D01*
X12082099Y-8463682D01*
X12088232Y-8460333D01*
X12090868Y-8460050D01*
X12251589Y-8460050D01*
X12251589Y-8460050D01*
X12264319Y-8456639D01*
X12275731Y-8450050D01*
X12425109Y-8300672D01*
X12431241Y-8297324D01*
X12438210Y-8297823D01*
X12443803Y-8302010D01*
X12445854Y-8306231D01*
X12449361Y-8319319D01*
X12452024Y-8323932D01*
X12455950Y-8330731D01*
X12465269Y-8340050D01*
X12476681Y-8346639D01*
X12489411Y-8350050D01*
X12489411Y-8350050D01*
X12502589Y-8350050D01*
X12502589Y-8350050D01*
X12515319Y-8346639D01*
X12526731Y-8340050D01*
X12536050Y-8330731D01*
X12542639Y-8319319D01*
X12546050Y-8306589D01*
X12546050Y-8297583D01*
X12548018Y-8290879D01*
X12549682Y-8288815D01*
X12609228Y-8229269D01*
X12675146Y-8163351D01*
X12676892Y-8160327D01*
X12679102Y-8156499D01*
X12681150Y-8148856D01*
X12681150Y-6585033D01*
X12679102Y-6577390D01*
X12676938Y-6573642D01*
X12675146Y-6570539D01*
X12675146Y-6570538D01*
X12532382Y-6427774D01*
X12529033Y-6421642D01*
X12528750Y-6419006D01*
X12528750Y-6233411D01*
X12579950Y-6233411D01*
X12579950Y-6246589D01*
X12583361Y-6259319D01*
X12586655Y-6265025D01*
X12589950Y-6270731D01*
X12599269Y-6280050D01*
X12610681Y-6286639D01*
X12623411Y-6290050D01*
X12623411Y-6290050D01*
X12636589Y-6290050D01*
X12636589Y-6290050D01*
X12649319Y-6286639D01*
X12660731Y-6280050D01*
X12670050Y-6270731D01*
X12676639Y-6259319D01*
X12680050Y-6246589D01*
X12680050Y-6233411D01*
X12676639Y-6220681D01*
X12670050Y-6209269D01*
X12660731Y-6199950D01*
X12655025Y-6196655D01*
X12649319Y-6193361D01*
X12642954Y-6191655D01*
X12636589Y-6189950D01*
X12623411Y-6189950D01*
X12610681Y-6193361D01*
X12599269Y-6199950D01*
X12599268Y-6199950D01*
X12589950Y-6209268D01*
X12589950Y-6209269D01*
X12583361Y-6220681D01*
X12579950Y-6233411D01*
X12528750Y-6233411D01*
X12528750Y-6043144D01*
X12528750Y-6043144D01*
X12526702Y-6035501D01*
X12525466Y-6033361D01*
X12522746Y-6028649D01*
X12522746Y-6028649D01*
X12032623Y-5538526D01*
X12294950Y-5538526D01*
X12294950Y-5561474D01*
X12297445Y-5580422D01*
X12297945Y-5584224D01*
X12297945Y-5584224D01*
X12303884Y-5606389D01*
X12312665Y-5627588D01*
X12312666Y-5627589D01*
X12324139Y-5647462D01*
X12338108Y-5665666D01*
X12338109Y-5665667D01*
X12354333Y-5681891D01*
X12354334Y-5681892D01*
X12354334Y-5681892D01*
X12355363Y-5682681D01*
X12372538Y-5695861D01*
X12372538Y-5695861D01*
X12372539Y-5695861D01*
X12392411Y-5707334D01*
X12392412Y-5707335D01*
X12392412Y-5707335D01*
X12395440Y-5708589D01*
X12413611Y-5716116D01*
X12435776Y-5722055D01*
X12458527Y-5725050D01*
X12458527Y-5725050D01*
X12481473Y-5725050D01*
X12481473Y-5725050D01*
X12504224Y-5722055D01*
X12526389Y-5716116D01*
X12547589Y-5707334D01*
X12567461Y-5695861D01*
X12585666Y-5681892D01*
X12585666Y-5681891D01*
X12585667Y-5681891D01*
X12601891Y-5665667D01*
X12601891Y-5665666D01*
X12601892Y-5665666D01*
X12615861Y-5647461D01*
X12627334Y-5627589D01*
X12636116Y-5606389D01*
X12642055Y-5584224D01*
X12645050Y-5561473D01*
X12645050Y-5538527D01*
X12642055Y-5515776D01*
X12636116Y-5493611D01*
X12628676Y-5475650D01*
X12627335Y-5472412D01*
X12627335Y-5472412D01*
X12627334Y-5472411D01*
X12615861Y-5452539D01*
X12615861Y-5452539D01*
X12615861Y-5452538D01*
X12602886Y-5435629D01*
X12601892Y-5434334D01*
X12601892Y-5434334D01*
X12601891Y-5434333D01*
X12585667Y-5418109D01*
X12585666Y-5418108D01*
X12567462Y-5404139D01*
X12547589Y-5392666D01*
X12547588Y-5392665D01*
X12526389Y-5383884D01*
X12504224Y-5377945D01*
X12500421Y-5377445D01*
X12481474Y-5374950D01*
X12481473Y-5374950D01*
X12458527Y-5374950D01*
X12458526Y-5374950D01*
X12436871Y-5377801D01*
X12435776Y-5377945D01*
X12426408Y-5380455D01*
X12413611Y-5383884D01*
X12392412Y-5392665D01*
X12392411Y-5392666D01*
X12372538Y-5404139D01*
X12354334Y-5418108D01*
X12338108Y-5434334D01*
X12324139Y-5452538D01*
X12312666Y-5472411D01*
X12312665Y-5472412D01*
X12303884Y-5493611D01*
X12297945Y-5515776D01*
X12297945Y-5515777D01*
X12294950Y-5538526D01*
X12032623Y-5538526D01*
X11957093Y-5462996D01*
X11953745Y-5456864D01*
X11953884Y-5451019D01*
X11956250Y-5442189D01*
X11956250Y-5429011D01*
X11952839Y-5416281D01*
X11946250Y-5404869D01*
X11936931Y-5395550D01*
X11931225Y-5392255D01*
X11925519Y-5388961D01*
X11919154Y-5387255D01*
X11912789Y-5385550D01*
X11899611Y-5385550D01*
X11886881Y-5388961D01*
X11875469Y-5395550D01*
X11875468Y-5395550D01*
X11866150Y-5404868D01*
X11866150Y-5404869D01*
X11859561Y-5416281D01*
X11856150Y-5429011D01*
X11856150Y-5442189D01*
X11859561Y-5454919D01*
X11860960Y-5457343D01*
X11866150Y-5466331D01*
X11875469Y-5475650D01*
X11886881Y-5482239D01*
X11889765Y-5483012D01*
X11895324Y-5486221D01*
X12465018Y-6055915D01*
X12468367Y-6062047D01*
X12468650Y-6064683D01*
X12468650Y-6440545D01*
X12469036Y-6441987D01*
X12470698Y-6448188D01*
X12472137Y-6450681D01*
X12472137Y-6450682D01*
X12474653Y-6455039D01*
X12474654Y-6455040D01*
X12557106Y-6537492D01*
X12560454Y-6543624D01*
X12559956Y-6550593D01*
X12555769Y-6556187D01*
X12549222Y-6558628D01*
X12548338Y-6558660D01*
X12545657Y-6558660D01*
X12532927Y-6562071D01*
X12521514Y-6568660D01*
X12521514Y-6568660D01*
X12512196Y-6577978D01*
X12512196Y-6577979D01*
X12505607Y-6589391D01*
X12502196Y-6602121D01*
X12502196Y-6615299D01*
X12505607Y-6628029D01*
X12506580Y-6629715D01*
X12512196Y-6639441D01*
X12521514Y-6648760D01*
X12532927Y-6655349D01*
X12545657Y-6658760D01*
X12545657Y-6658760D01*
X12558835Y-6658760D01*
X12558835Y-6658760D01*
X12571564Y-6655349D01*
X12582977Y-6648760D01*
X12592296Y-6639441D01*
X12597911Y-6629715D01*
X12602968Y-6624893D01*
X12609829Y-6623571D01*
X12616315Y-6626168D01*
X12620368Y-6631859D01*
X12621050Y-6635915D01*
X12621050Y-7767596D01*
X12619081Y-7774300D01*
X12613801Y-7778876D01*
X12606885Y-7779870D01*
X12600530Y-7776968D01*
X12596967Y-7771425D01*
X12596950Y-7771432D01*
X12596910Y-7771335D01*
X12596752Y-7771090D01*
X12596674Y-7770810D01*
X12596639Y-7770681D01*
X12590050Y-7759268D01*
X12580731Y-7749950D01*
X12580731Y-7749950D01*
X12580731Y-7749950D01*
X12569319Y-7743361D01*
X12569319Y-7743361D01*
X12569319Y-7743361D01*
X12556589Y-7739950D01*
X12543411Y-7739950D01*
X12530681Y-7743361D01*
X12519269Y-7749950D01*
X12519268Y-7749950D01*
X12364950Y-7904268D01*
X12364950Y-7904269D01*
X12358361Y-7915681D01*
X12354950Y-7928411D01*
X12354950Y-8224132D01*
X12352981Y-8230836D01*
X12351318Y-8232900D01*
X12227900Y-8356318D01*
X12221768Y-8359667D01*
X12219132Y-8359950D01*
X12058411Y-8359950D01*
X12045681Y-8363361D01*
X12034269Y-8369950D01*
X12034268Y-8369950D01*
X11909950Y-8494268D01*
X11909950Y-8494269D01*
X11903361Y-8505681D01*
X11899950Y-8518411D01*
X11899950Y-8708612D01*
X11897981Y-8715316D01*
X11892701Y-8719891D01*
X11885785Y-8720886D01*
X11884341Y-8720589D01*
X11874789Y-8718030D01*
X11874789Y-8718030D01*
X11861611Y-8718030D01*
X11861611Y-8718030D01*
X11854701Y-8719881D01*
X11847716Y-8719715D01*
X11841930Y-8715799D01*
X11839180Y-8709376D01*
X11840338Y-8702486D01*
X11840752Y-8701706D01*
X11844696Y-8694875D01*
X11848107Y-8682146D01*
X11848107Y-8668968D01*
X11844696Y-8656238D01*
X11844402Y-8655730D01*
X11841928Y-8651444D01*
X11838107Y-8644825D01*
X11828788Y-8635507D01*
X11823082Y-8632212D01*
X11817375Y-8628918D01*
X11808894Y-8626645D01*
X11804646Y-8625507D01*
X11791467Y-8625507D01*
X11778738Y-8628918D01*
X11767325Y-8635507D01*
X11767325Y-8635507D01*
X11758007Y-8644825D01*
X11758007Y-8644825D01*
X11751417Y-8656238D01*
X11748007Y-8668968D01*
X11748007Y-8682146D01*
X11751417Y-8694875D01*
X11753269Y-8698083D01*
X11758007Y-8706288D01*
X11767325Y-8715607D01*
X11778738Y-8722196D01*
X11791467Y-8725607D01*
X11791468Y-8725607D01*
X11804646Y-8725607D01*
X11804646Y-8725607D01*
X11811556Y-8723755D01*
X11818540Y-8723922D01*
X11824327Y-8727838D01*
X11827077Y-8734261D01*
X11825918Y-8741151D01*
X11825503Y-8741933D01*
X11821561Y-8748761D01*
X11821561Y-8748761D01*
X11821561Y-8748761D01*
X11821561Y-8748761D01*
X11818150Y-8761491D01*
X11818150Y-8774669D01*
X11819855Y-8781031D01*
X11821561Y-8787399D01*
X11824065Y-8791736D01*
X11828150Y-8798811D01*
X11837469Y-8808130D01*
X11837873Y-8808363D01*
X11842695Y-8813420D01*
X11844017Y-8820281D01*
X11841421Y-8826767D01*
X11840442Y-8827870D01*
X11804567Y-8863745D01*
X11798435Y-8867093D01*
X11791466Y-8866595D01*
X11785872Y-8862408D01*
X11783431Y-8855861D01*
X11783463Y-8854777D01*
X11783425Y-8854777D01*
X11783425Y-8840786D01*
X11783425Y-8840786D01*
X11780015Y-8828057D01*
X11779945Y-8827936D01*
X11779132Y-8826528D01*
X11773425Y-8816644D01*
X11764107Y-8807325D01*
X11757288Y-8803388D01*
X11752694Y-8800736D01*
X11745510Y-8798811D01*
X11739965Y-8797325D01*
X11726786Y-8797325D01*
X11714057Y-8800736D01*
X11702644Y-8807325D01*
X11702644Y-8807326D01*
X11693326Y-8816644D01*
X11693325Y-8816644D01*
X11686736Y-8828057D01*
X11684352Y-8836954D01*
X11683325Y-8840786D01*
X11683325Y-8853965D01*
X11683348Y-8854049D01*
X11686736Y-8866694D01*
X11688315Y-8869429D01*
X11693325Y-8878107D01*
X11702644Y-8887425D01*
X11708334Y-8890711D01*
X11713847Y-8893894D01*
X11714057Y-8894015D01*
X11726786Y-8897425D01*
X11726786Y-8897425D01*
X11740777Y-8897425D01*
X11740777Y-8897727D01*
X11746259Y-8898581D01*
X11751486Y-8903217D01*
X11753376Y-8909944D01*
X11751329Y-8916624D01*
X11749745Y-8918567D01*
X11661562Y-9006750D01*
X11655429Y-9010099D01*
X11648460Y-9009600D01*
X11642867Y-9005413D01*
X11640816Y-9001192D01*
X11639024Y-8994501D01*
X11632434Y-8983089D01*
X11623116Y-8973770D01*
X11611703Y-8967181D01*
X11611460Y-8967040D01*
X11606638Y-8961984D01*
X11605316Y-8955123D01*
X11607913Y-8948636D01*
X11611459Y-8945563D01*
X11620731Y-8940210D01*
X11630050Y-8930891D01*
X11636639Y-8919479D01*
X11640050Y-8906749D01*
X11640050Y-8893571D01*
X11636639Y-8880841D01*
X11636592Y-8880759D01*
X11635109Y-8878191D01*
X11630050Y-8869429D01*
X11620731Y-8860110D01*
X11613372Y-8855861D01*
X11609319Y-8853521D01*
X11598645Y-8850661D01*
X11596589Y-8850110D01*
X11583411Y-8850110D01*
X11570681Y-8853521D01*
X11559269Y-8860110D01*
X11559268Y-8860110D01*
X11549950Y-8869428D01*
X11549950Y-8869429D01*
X11543361Y-8880841D01*
X11539950Y-8893571D01*
X11539950Y-8906749D01*
X11543361Y-8919479D01*
X11546655Y-8925185D01*
X11549950Y-8930891D01*
X11559269Y-8940210D01*
X11559269Y-8940210D01*
X11559269Y-8940210D01*
X11570924Y-8946940D01*
X11575746Y-8951996D01*
X11577068Y-8958857D01*
X11574471Y-8965344D01*
X11570925Y-8968417D01*
X11561653Y-8973770D01*
X11561653Y-8973770D01*
X11552335Y-8983088D01*
X11552334Y-8983089D01*
X11545745Y-8994501D01*
X11542334Y-9007231D01*
X11542334Y-9020409D01*
X11545745Y-9033139D01*
X11547288Y-9035811D01*
X11552334Y-9044551D01*
X11561653Y-9053870D01*
X11573066Y-9060459D01*
X11579756Y-9062252D01*
X11585722Y-9065888D01*
X11588775Y-9072173D01*
X11587945Y-9079110D01*
X11585315Y-9082997D01*
X10809994Y-9858318D01*
X10803862Y-9861667D01*
X10801226Y-9861950D01*
X10292056Y-9861950D01*
X10285352Y-9859982D01*
X10281007Y-9855180D01*
X10279424Y-9852073D01*
X10275229Y-9843839D01*
X10273078Y-9840879D01*
X10263197Y-9827279D01*
X10248722Y-9812803D01*
X10248721Y-9812803D01*
X10245527Y-9810482D01*
X10241260Y-9804949D01*
X10240662Y-9797987D01*
X10243923Y-9791808D01*
X10250006Y-9788372D01*
X10252815Y-9788050D01*
X10254426Y-9788050D01*
X10254427Y-9788050D01*
X10257470Y-9787765D01*
X10270288Y-9783279D01*
X10281215Y-9775215D01*
X10289279Y-9764288D01*
X10292813Y-9754190D01*
X10293765Y-9751470D01*
X10293765Y-9751470D01*
X10294050Y-9748427D01*
X10294050Y-9567573D01*
X10293765Y-9564530D01*
X10289279Y-9551712D01*
X10285633Y-9546771D01*
X10281215Y-9540785D01*
X10270949Y-9533208D01*
X10270288Y-9532721D01*
X10270288Y-9532721D01*
X10257470Y-9528235D01*
X10254427Y-9527950D01*
X10073574Y-9527950D01*
X10072175Y-9528081D01*
X10070530Y-9528235D01*
X10070530Y-9528235D01*
X10070530Y-9528236D01*
X10070529Y-9528236D01*
X10057712Y-9532721D01*
X10046785Y-9540785D01*
X10038721Y-9551712D01*
X10034235Y-9564530D01*
X10034235Y-9564530D01*
X10033950Y-9567573D01*
X9797050Y-9567573D01*
X9797050Y-9314200D01*
X9917450Y-9314200D01*
X9920142Y-9327732D01*
X9920142Y-9327733D01*
X9925422Y-9340480D01*
X9925423Y-9340482D01*
X9933089Y-9351954D01*
X9933089Y-9351955D01*
X9942845Y-9361711D01*
X9942846Y-9361711D01*
X9954318Y-9369377D01*
X9954320Y-9369378D01*
X9964384Y-9373547D01*
X9967067Y-9374658D01*
X9967068Y-9374658D01*
X9967068Y-9374658D01*
X9980600Y-9377350D01*
X9980601Y-9377350D01*
X10074400Y-9377350D01*
X10083504Y-9375539D01*
X10087933Y-9374658D01*
X10100681Y-9369378D01*
X10112154Y-9361711D01*
X10121911Y-9351954D01*
X10129578Y-9340481D01*
X10134858Y-9327733D01*
X10137550Y-9314200D01*
X10320450Y-9314200D01*
X10323142Y-9327732D01*
X10323142Y-9327733D01*
X10328422Y-9340480D01*
X10328423Y-9340482D01*
X10336089Y-9351954D01*
X10336089Y-9351955D01*
X10345845Y-9361711D01*
X10345846Y-9361711D01*
X10357318Y-9369377D01*
X10357320Y-9369378D01*
X10367384Y-9373547D01*
X10370067Y-9374658D01*
X10370068Y-9374658D01*
X10370068Y-9374658D01*
X10383600Y-9377350D01*
X10383601Y-9377350D01*
X10507400Y-9377350D01*
X10516504Y-9375539D01*
X10520933Y-9374658D01*
X10533681Y-9369378D01*
X10545154Y-9361711D01*
X10554911Y-9351954D01*
X10562578Y-9340481D01*
X10567858Y-9327733D01*
X10569338Y-9320291D01*
X10602738Y-9320291D01*
X10602738Y-9333469D01*
X10606149Y-9346199D01*
X10609443Y-9351905D01*
X10612738Y-9357611D01*
X10622057Y-9366930D01*
X10633469Y-9373519D01*
X10646199Y-9376930D01*
X10646199Y-9376930D01*
X10659377Y-9376930D01*
X10659377Y-9376930D01*
X10672107Y-9373519D01*
X10683519Y-9366930D01*
X10692838Y-9357611D01*
X10699427Y-9346199D01*
X10702838Y-9333469D01*
X10702838Y-9320291D01*
X10699427Y-9307561D01*
X10692838Y-9296149D01*
X10683519Y-9286830D01*
X10677321Y-9283251D01*
X10672107Y-9280241D01*
X10665742Y-9278535D01*
X10659377Y-9276830D01*
X10646199Y-9276830D01*
X10633469Y-9280241D01*
X10622057Y-9286830D01*
X10622056Y-9286830D01*
X10612738Y-9296148D01*
X10612738Y-9296149D01*
X10606149Y-9307561D01*
X10602738Y-9320291D01*
X10569338Y-9320291D01*
X10570550Y-9314199D01*
X10570550Y-9300401D01*
X10570550Y-9300400D01*
X10567858Y-9286868D01*
X10567858Y-9286868D01*
X10567858Y-9286867D01*
X10563701Y-9276830D01*
X10562578Y-9274120D01*
X10562577Y-9274118D01*
X10554911Y-9262646D01*
X10554911Y-9262645D01*
X10545155Y-9252889D01*
X10545154Y-9252889D01*
X10533682Y-9245223D01*
X10533680Y-9245222D01*
X10520933Y-9239942D01*
X10520932Y-9239942D01*
X10507400Y-9237250D01*
X10507399Y-9237250D01*
X10383601Y-9237250D01*
X10383601Y-9237250D01*
X10370068Y-9239942D01*
X10370067Y-9239942D01*
X10357320Y-9245222D01*
X10357318Y-9245223D01*
X10345846Y-9252889D01*
X10345845Y-9252889D01*
X10336089Y-9262645D01*
X10336089Y-9262646D01*
X10328423Y-9274118D01*
X10328422Y-9274120D01*
X10323142Y-9286867D01*
X10323142Y-9286868D01*
X10320450Y-9300400D01*
X10320450Y-9300401D01*
X10320450Y-9314199D01*
X10320450Y-9314200D01*
X10320450Y-9314200D01*
X10137550Y-9314200D01*
X10137550Y-9314199D01*
X10137550Y-9300401D01*
X10137550Y-9300400D01*
X10134858Y-9286868D01*
X10134858Y-9286868D01*
X10134858Y-9286867D01*
X10130701Y-9276830D01*
X10129578Y-9274120D01*
X10129577Y-9274118D01*
X10121911Y-9262646D01*
X10121911Y-9262645D01*
X10112155Y-9252889D01*
X10112154Y-9252889D01*
X10100682Y-9245223D01*
X10100680Y-9245222D01*
X10087933Y-9239942D01*
X10087932Y-9239942D01*
X10074400Y-9237250D01*
X10074399Y-9237250D01*
X9980601Y-9237250D01*
X9980601Y-9237250D01*
X9967068Y-9239942D01*
X9967067Y-9239942D01*
X9954320Y-9245222D01*
X9954318Y-9245223D01*
X9942846Y-9252889D01*
X9942845Y-9252889D01*
X9933089Y-9262645D01*
X9933089Y-9262646D01*
X9925423Y-9274118D01*
X9925422Y-9274120D01*
X9920142Y-9286867D01*
X9920142Y-9286868D01*
X9917450Y-9300400D01*
X9917450Y-9300401D01*
X9917450Y-9314199D01*
X9917450Y-9314200D01*
X9917450Y-9314200D01*
X9797050Y-9314200D01*
X9797050Y-9043398D01*
X10254686Y-9043398D01*
X10254686Y-9056577D01*
X10255727Y-9060459D01*
X10258097Y-9069306D01*
X10259752Y-9072173D01*
X10264686Y-9080719D01*
X10274005Y-9090038D01*
X10285418Y-9096627D01*
X10298147Y-9100038D01*
X10298147Y-9100038D01*
X10303702Y-9100038D01*
X10310406Y-9102006D01*
X10314981Y-9107287D01*
X10315679Y-9109228D01*
X10316561Y-9112519D01*
X10323150Y-9123931D01*
X10332469Y-9133250D01*
X10343881Y-9139839D01*
X10343882Y-9139839D01*
X10344030Y-9139901D01*
X10344135Y-9139986D01*
X10344585Y-9140246D01*
X10344545Y-9140316D01*
X10349470Y-9144285D01*
X10351677Y-9150914D01*
X10351262Y-9154566D01*
X10350250Y-9158342D01*
X10350250Y-9170257D01*
X10353334Y-9181766D01*
X10353839Y-9182641D01*
X10359291Y-9192084D01*
X10367716Y-9200509D01*
X10378034Y-9206466D01*
X10389543Y-9209550D01*
X10389543Y-9209550D01*
X10401457Y-9209550D01*
X10401457Y-9209550D01*
X10412966Y-9206466D01*
X10423284Y-9200509D01*
X10431709Y-9192084D01*
X10437666Y-9181766D01*
X10440750Y-9170257D01*
X10440750Y-9158343D01*
X10437666Y-9146834D01*
X10431709Y-9136516D01*
X10423284Y-9128091D01*
X10416267Y-9124039D01*
X10411445Y-9118983D01*
X10410123Y-9112122D01*
X10410489Y-9110093D01*
X10413250Y-9099789D01*
X10413250Y-9086611D01*
X10409839Y-9073881D01*
X10403250Y-9062469D01*
X10393931Y-9053150D01*
X10386725Y-9048989D01*
X10382519Y-9046561D01*
X10375019Y-9044551D01*
X10369789Y-9043150D01*
X10364235Y-9043150D01*
X10357531Y-9041182D01*
X10352955Y-9035901D01*
X10352257Y-9033960D01*
X10351375Y-9030669D01*
X10344786Y-9019256D01*
X10335468Y-9009938D01*
X10329761Y-9006643D01*
X10324055Y-9003348D01*
X10316005Y-9001191D01*
X10311325Y-8999938D01*
X10298147Y-8999938D01*
X10285417Y-9003348D01*
X10274005Y-9009938D01*
X10274005Y-9009938D01*
X10264686Y-9019256D01*
X10264686Y-9019256D01*
X10258097Y-9030669D01*
X10255280Y-9041182D01*
X10254686Y-9043398D01*
X9797050Y-9043398D01*
X9797050Y-8450200D01*
X9917450Y-8450200D01*
X9920142Y-8463732D01*
X9920142Y-8463733D01*
X9925422Y-8476480D01*
X9925423Y-8476482D01*
X9933089Y-8487954D01*
X9933089Y-8487955D01*
X9942845Y-8497711D01*
X9942846Y-8497711D01*
X9954318Y-8505377D01*
X9954320Y-8505378D01*
X9962024Y-8508569D01*
X9967067Y-8510658D01*
X9967068Y-8510658D01*
X9967068Y-8510658D01*
X9980600Y-8513350D01*
X9980601Y-8513350D01*
X10074400Y-8513350D01*
X10083504Y-8511539D01*
X10087933Y-8510658D01*
X10100681Y-8505378D01*
X10112154Y-8497711D01*
X10121911Y-8487954D01*
X10129578Y-8476481D01*
X10134858Y-8463733D01*
X10136753Y-8454207D01*
X10137550Y-8450200D01*
X10137550Y-8436400D01*
X10134858Y-8422868D01*
X10134858Y-8422868D01*
X10134858Y-8422867D01*
X10133288Y-8419077D01*
X10129578Y-8410120D01*
X10129577Y-8410118D01*
X10121911Y-8398646D01*
X10121911Y-8398645D01*
X10112155Y-8388889D01*
X10112154Y-8388889D01*
X10100682Y-8381223D01*
X10100680Y-8381222D01*
X10087933Y-8375942D01*
X10087932Y-8375942D01*
X10074400Y-8373250D01*
X10074399Y-8373250D01*
X9980601Y-8373250D01*
X9980601Y-8373250D01*
X9967068Y-8375942D01*
X9967067Y-8375942D01*
X9954320Y-8381222D01*
X9954318Y-8381223D01*
X9942846Y-8388889D01*
X9942845Y-8388889D01*
X9933089Y-8398645D01*
X9933089Y-8398646D01*
X9925423Y-8410118D01*
X9925422Y-8410120D01*
X9920142Y-8422867D01*
X9920142Y-8422868D01*
X9917450Y-8436400D01*
X9917450Y-8436401D01*
X9917450Y-8450199D01*
X9917450Y-8450200D01*
X9917450Y-8450200D01*
X9797050Y-8450200D01*
X9797050Y-7294653D01*
X9914950Y-7294653D01*
X9914950Y-7315347D01*
X9918987Y-7335641D01*
X9918987Y-7335642D01*
X9926906Y-7354760D01*
X9931121Y-7361068D01*
X9938402Y-7371966D01*
X9953034Y-7386597D01*
X9953035Y-7386598D01*
X9970240Y-7398094D01*
X9989358Y-7406013D01*
X10008201Y-7409761D01*
X10009653Y-7410050D01*
X10009653Y-7410050D01*
X10009654Y-7410050D01*
X10030347Y-7410050D01*
X10030347Y-7410050D01*
X10050642Y-7406013D01*
X10069760Y-7398094D01*
X10086966Y-7386598D01*
X10101598Y-7371965D01*
X10113094Y-7354760D01*
X10121013Y-7335642D01*
X10125050Y-7315346D01*
X10125050Y-7294653D01*
X10121013Y-7274358D01*
X10113094Y-7255240D01*
X10101598Y-7238034D01*
X10101598Y-7238034D01*
X10086966Y-7223402D01*
X10075363Y-7215650D01*
X10069760Y-7211906D01*
X10050642Y-7203987D01*
X10050641Y-7203987D01*
X10030347Y-7199950D01*
X10030347Y-7199950D01*
X10009654Y-7199950D01*
X10009653Y-7199950D01*
X9989359Y-7203987D01*
X9989358Y-7203987D01*
X9970240Y-7211906D01*
X9953034Y-7223402D01*
X9938402Y-7238034D01*
X9926906Y-7255240D01*
X9918987Y-7274358D01*
X9918987Y-7274359D01*
X9914950Y-7294653D01*
X9797050Y-7294653D01*
X9797050Y-7040653D01*
X9914950Y-7040653D01*
X9914950Y-7061347D01*
X9918987Y-7081641D01*
X9918987Y-7081642D01*
X9926906Y-7100760D01*
X9928297Y-7102841D01*
X9938402Y-7117966D01*
X9953034Y-7132597D01*
X9953035Y-7132598D01*
X9970240Y-7144094D01*
X9989358Y-7152013D01*
X10009653Y-7156050D01*
X10009653Y-7156050D01*
X10009654Y-7156050D01*
X10030347Y-7156050D01*
X10030347Y-7156050D01*
X10050642Y-7152013D01*
X10069760Y-7144094D01*
X10086966Y-7132598D01*
X10101598Y-7117965D01*
X10113094Y-7100760D01*
X10121013Y-7081642D01*
X10125050Y-7061346D01*
X10125050Y-7040653D01*
X10121013Y-7020358D01*
X10113094Y-7001240D01*
X10101598Y-6984034D01*
X10101598Y-6984034D01*
X10086966Y-6969402D01*
X10078363Y-6963654D01*
X10069760Y-6957906D01*
X10050642Y-6949987D01*
X10050641Y-6949987D01*
X10030347Y-6945950D01*
X10030347Y-6945950D01*
X10009654Y-6945950D01*
X10009653Y-6945950D01*
X9989359Y-6949987D01*
X9989358Y-6949987D01*
X9970240Y-6957906D01*
X9953034Y-6969402D01*
X9938402Y-6984034D01*
X9926906Y-7001240D01*
X9918987Y-7020358D01*
X9918987Y-7020359D01*
X9914950Y-7040653D01*
X9797050Y-7040653D01*
X9797050Y-6532653D01*
X9914950Y-6532653D01*
X9914950Y-6553347D01*
X9918987Y-6573641D01*
X9918987Y-6573642D01*
X9926906Y-6592760D01*
X9938402Y-6609966D01*
X9953034Y-6624597D01*
X9953035Y-6624598D01*
X9970240Y-6636094D01*
X9989358Y-6644013D01*
X10009653Y-6648050D01*
X10009653Y-6648050D01*
X10009654Y-6648050D01*
X10030347Y-6648050D01*
X10030347Y-6648050D01*
X10050642Y-6644013D01*
X10062697Y-6639019D01*
X10069644Y-6638273D01*
X10075892Y-6641400D01*
X10076210Y-6641707D01*
X10459378Y-7024875D01*
X10462727Y-7031007D01*
X10463010Y-7033643D01*
X10463010Y-8309438D01*
X10463643Y-8311799D01*
X10465058Y-8317080D01*
X10465058Y-8317081D01*
X10469014Y-8323932D01*
X10469014Y-8323933D01*
X10497163Y-8352082D01*
X10500512Y-8358214D01*
X10500014Y-8365183D01*
X10495826Y-8370777D01*
X10489280Y-8373218D01*
X10488395Y-8373250D01*
X10383601Y-8373250D01*
X10370068Y-8375942D01*
X10370067Y-8375942D01*
X10357320Y-8381222D01*
X10357318Y-8381223D01*
X10345846Y-8388889D01*
X10345845Y-8388889D01*
X10336089Y-8398645D01*
X10336089Y-8398646D01*
X10328423Y-8410118D01*
X10328422Y-8410120D01*
X10323142Y-8422867D01*
X10323142Y-8422868D01*
X10322644Y-8425369D01*
X10319406Y-8431560D01*
X10313334Y-8435017D01*
X10306357Y-8434643D01*
X10301715Y-8431718D01*
X10273682Y-8403685D01*
X10270333Y-8397553D01*
X10270050Y-8394917D01*
X10270050Y-8164158D01*
X10272019Y-8157454D01*
X10277299Y-8152879D01*
X10284215Y-8151884D01*
X10285658Y-8152180D01*
X10287411Y-8152650D01*
X10287411Y-8152650D01*
X10300589Y-8152650D01*
X10300589Y-8152650D01*
X10313319Y-8149239D01*
X10324731Y-8142650D01*
X10334050Y-8133331D01*
X10340639Y-8121919D01*
X10344050Y-8109189D01*
X10344050Y-8096011D01*
X10340639Y-8083281D01*
X10334050Y-8071869D01*
X10324731Y-8062550D01*
X10316858Y-8058004D01*
X10313319Y-8055961D01*
X10306536Y-8054143D01*
X10300589Y-8052550D01*
X10287411Y-8052550D01*
X10287410Y-8052550D01*
X10285659Y-8053019D01*
X10278674Y-8052853D01*
X10272888Y-8048937D01*
X10270138Y-8042514D01*
X10270050Y-8041042D01*
X10270050Y-7590148D01*
X10272019Y-7583445D01*
X10277299Y-7578869D01*
X10284215Y-7577875D01*
X10287372Y-7578967D01*
X10287430Y-7578828D01*
X10288181Y-7579139D01*
X10288181Y-7579139D01*
X10300911Y-7582550D01*
X10300911Y-7582550D01*
X10314089Y-7582550D01*
X10314089Y-7582550D01*
X10326819Y-7579139D01*
X10338231Y-7572550D01*
X10347550Y-7563231D01*
X10354139Y-7551819D01*
X10357550Y-7539089D01*
X10357550Y-7525911D01*
X10354139Y-7513181D01*
X10347550Y-7501769D01*
X10338231Y-7492450D01*
X10332525Y-7489155D01*
X10326819Y-7485861D01*
X10320454Y-7484155D01*
X10314089Y-7482450D01*
X10300911Y-7482450D01*
X10288181Y-7485861D01*
X10288181Y-7485861D01*
X10288181Y-7485861D01*
X10287430Y-7486172D01*
X10287323Y-7485913D01*
X10281856Y-7487237D01*
X10275254Y-7484950D01*
X10270937Y-7479457D01*
X10270050Y-7474851D01*
X10270050Y-7013044D01*
X10268780Y-7008303D01*
X10268002Y-7005401D01*
X10265600Y-7001240D01*
X10264046Y-6998549D01*
X10264046Y-6998549D01*
X10118708Y-6853210D01*
X10115359Y-6847078D01*
X10115857Y-6840109D01*
X10116016Y-6839705D01*
X10121013Y-6827642D01*
X10125050Y-6807346D01*
X10125050Y-6786653D01*
X10121013Y-6766358D01*
X10113094Y-6747240D01*
X10101598Y-6730034D01*
X10101598Y-6730034D01*
X10086966Y-6715402D01*
X10078363Y-6709654D01*
X10069760Y-6703906D01*
X10057943Y-6699011D01*
X10050642Y-6695987D01*
X10050641Y-6695987D01*
X10030347Y-6691950D01*
X10030347Y-6691950D01*
X10009654Y-6691950D01*
X10009653Y-6691950D01*
X9989359Y-6695987D01*
X9989358Y-6695987D01*
X9970240Y-6703906D01*
X9953034Y-6715402D01*
X9938402Y-6730034D01*
X9926906Y-6747240D01*
X9918987Y-6766358D01*
X9918987Y-6766359D01*
X9914950Y-6786653D01*
X9914950Y-6807347D01*
X9918987Y-6827641D01*
X9918987Y-6827642D01*
X9926906Y-6846760D01*
X9938402Y-6863966D01*
X9953034Y-6878597D01*
X9953035Y-6878598D01*
X9970240Y-6890094D01*
X9989358Y-6898013D01*
X10009653Y-6902050D01*
X10009653Y-6902050D01*
X10009654Y-6902050D01*
X10030347Y-6902050D01*
X10030347Y-6902050D01*
X10050642Y-6898013D01*
X10062697Y-6893019D01*
X10069644Y-6892273D01*
X10075892Y-6895400D01*
X10076210Y-6895707D01*
X10206318Y-7025815D01*
X10209667Y-7031947D01*
X10209950Y-7034583D01*
X10209950Y-7876103D01*
X10207982Y-7882806D01*
X10202701Y-7887382D01*
X10195785Y-7888376D01*
X10194341Y-7888080D01*
X10191989Y-7887450D01*
X10178811Y-7887450D01*
X10166081Y-7890861D01*
X10154669Y-7897450D01*
X10154668Y-7897450D01*
X10145350Y-7906768D01*
X10145350Y-7906769D01*
X10138761Y-7918181D01*
X10135350Y-7930911D01*
X10135350Y-7944089D01*
X10138761Y-7956819D01*
X10141099Y-7960868D01*
X10145350Y-7968231D01*
X10154669Y-7977550D01*
X10166081Y-7984139D01*
X10178811Y-7987550D01*
X10178811Y-7987550D01*
X10191989Y-7987550D01*
X10191989Y-7987550D01*
X10194341Y-7986920D01*
X10201325Y-7987086D01*
X10207112Y-7991002D01*
X10209862Y-7997425D01*
X10209950Y-7998897D01*
X10209950Y-8416456D01*
X10211998Y-8424099D01*
X10215012Y-8429319D01*
X10215954Y-8430951D01*
X10328454Y-8543451D01*
X10334049Y-8549046D01*
X10334049Y-8549046D01*
X10334050Y-8549046D01*
X10337204Y-8550868D01*
X10340901Y-8553002D01*
X10344482Y-8553962D01*
X10350447Y-8557598D01*
X10353500Y-8563883D01*
X10353250Y-8569148D01*
X10350674Y-8578760D01*
X10350250Y-8580343D01*
X10350250Y-8592257D01*
X10351240Y-8595950D01*
X10351415Y-8596603D01*
X10351248Y-8603588D01*
X10347332Y-8609375D01*
X10344183Y-8611269D01*
X10343882Y-8611393D01*
X10332469Y-8617983D01*
X10332468Y-8617983D01*
X10323150Y-8627301D01*
X10323150Y-8627301D01*
X10316561Y-8638714D01*
X10314365Y-8646910D01*
X10313150Y-8651443D01*
X10313150Y-8664622D01*
X10314314Y-8668968D01*
X10316561Y-8677351D01*
X10319043Y-8681650D01*
X10320690Y-8688440D01*
X10318405Y-8695043D01*
X10312913Y-8699362D01*
X10308304Y-8700250D01*
X10303911Y-8700250D01*
X10291181Y-8703661D01*
X10279769Y-8710250D01*
X10279768Y-8710250D01*
X10270450Y-8719568D01*
X10270450Y-8719569D01*
X10263861Y-8730981D01*
X10262155Y-8737349D01*
X10260450Y-8743711D01*
X10260450Y-8756889D01*
X10261089Y-8759274D01*
X10263861Y-8769619D01*
X10266777Y-8774669D01*
X10270450Y-8781031D01*
X10270450Y-8781032D01*
X10272861Y-8783442D01*
X10276209Y-8789574D01*
X10275711Y-8796543D01*
X10272861Y-8800978D01*
X10270450Y-8803388D01*
X10270450Y-8803389D01*
X10263861Y-8814801D01*
X10260655Y-8826767D01*
X10260450Y-8827531D01*
X10260450Y-8840709D01*
X10261225Y-8843601D01*
X10263861Y-8853439D01*
X10266061Y-8857250D01*
X10270450Y-8864851D01*
X10279769Y-8874170D01*
X10291181Y-8880759D01*
X10303911Y-8884170D01*
X10303911Y-8884170D01*
X10317089Y-8884170D01*
X10317089Y-8884170D01*
X10329819Y-8880759D01*
X10341231Y-8874170D01*
X10350550Y-8864851D01*
X10357139Y-8853439D01*
X10360550Y-8840709D01*
X10360550Y-8827531D01*
X10357139Y-8814801D01*
X10357092Y-8814719D01*
X10353945Y-8809269D01*
X10350550Y-8803389D01*
X10348140Y-8800978D01*
X10344791Y-8794846D01*
X10345289Y-8787877D01*
X10348140Y-8783442D01*
X10349193Y-8782389D01*
X10350550Y-8781031D01*
X10357139Y-8769619D01*
X10360550Y-8756889D01*
X10360550Y-8743711D01*
X10357139Y-8730981D01*
X10354657Y-8726683D01*
X10353010Y-8719893D01*
X10355295Y-8713290D01*
X10360787Y-8708971D01*
X10365396Y-8708083D01*
X10369789Y-8708083D01*
X10369789Y-8708083D01*
X10382519Y-8704672D01*
X10393931Y-8698083D01*
X10403250Y-8688764D01*
X10409839Y-8677351D01*
X10413250Y-8664622D01*
X10413250Y-8651443D01*
X10410343Y-8640593D01*
X10410509Y-8633608D01*
X10414425Y-8627822D01*
X10416119Y-8626646D01*
X10423284Y-8622509D01*
X10431709Y-8614084D01*
X10437666Y-8603766D01*
X10440750Y-8592257D01*
X10440750Y-8580343D01*
X10438155Y-8570659D01*
X10438322Y-8563674D01*
X10442238Y-8557888D01*
X10448661Y-8555138D01*
X10450133Y-8555050D01*
X10585677Y-8555050D01*
X10592381Y-8557019D01*
X10594445Y-8558682D01*
X10727595Y-8691832D01*
X10730944Y-8697965D01*
X10730446Y-8704934D01*
X10726258Y-8710527D01*
X10722037Y-8712578D01*
X10716759Y-8713992D01*
X10716759Y-8713992D01*
X10716759Y-8713992D01*
X10705346Y-8720581D01*
X10705346Y-8720581D01*
X10696028Y-8729900D01*
X10696028Y-8729900D01*
X10689439Y-8741312D01*
X10686028Y-8754042D01*
X10686028Y-8767220D01*
X10689439Y-8779950D01*
X10692169Y-8784680D01*
X10696028Y-8791363D01*
X10705346Y-8800681D01*
X10711154Y-8804034D01*
X10715975Y-8809091D01*
X10717298Y-8815952D01*
X10716043Y-8819877D01*
X10716172Y-8819930D01*
X10715861Y-8820681D01*
X10712450Y-8833411D01*
X10712450Y-8846589D01*
X10715861Y-8859319D01*
X10716318Y-8860110D01*
X10722450Y-8870731D01*
X10731769Y-8880050D01*
X10743181Y-8886639D01*
X10755911Y-8890050D01*
X10755911Y-8890050D01*
X10755959Y-8890063D01*
X10761925Y-8893699D01*
X10764978Y-8899984D01*
X10765150Y-8902040D01*
X10765150Y-8903889D01*
X10768561Y-8916619D01*
X10771741Y-8922127D01*
X10775150Y-8928031D01*
X10784469Y-8937350D01*
X10795881Y-8943939D01*
X10808611Y-8947350D01*
X10808611Y-8947350D01*
X10821789Y-8947350D01*
X10821789Y-8947350D01*
X10824548Y-8946611D01*
X10831533Y-8946777D01*
X10837319Y-8950693D01*
X10838440Y-8952555D01*
X10838541Y-8952496D01*
X10838947Y-8953200D01*
X10838947Y-8953200D01*
X10845537Y-8964613D01*
X10854855Y-8973932D01*
X10866268Y-8980521D01*
X10878997Y-8983932D01*
X10878998Y-8983932D01*
X10882129Y-8983932D01*
X10888833Y-8985900D01*
X10893409Y-8991181D01*
X10894107Y-8993122D01*
X10895613Y-8998745D01*
X10902202Y-9010158D01*
X10911521Y-9019476D01*
X10922934Y-9026065D01*
X10935663Y-9029476D01*
X10935663Y-9029476D01*
X10948841Y-9029476D01*
X10948842Y-9029476D01*
X10961571Y-9026065D01*
X10972984Y-9019476D01*
X10982302Y-9010158D01*
X10988892Y-8998745D01*
X10992302Y-8986015D01*
X10992302Y-8972837D01*
X10988892Y-8960108D01*
X10982302Y-8948695D01*
X10972984Y-8939376D01*
X10967277Y-8936082D01*
X10961571Y-8932787D01*
X10954497Y-8930891D01*
X10948842Y-8929376D01*
X10945710Y-8929376D01*
X10939006Y-8927408D01*
X10934430Y-8922127D01*
X10933732Y-8920186D01*
X10933543Y-8919479D01*
X10932226Y-8914563D01*
X10925637Y-8903150D01*
X10916318Y-8893832D01*
X10910612Y-8890537D01*
X10904905Y-8887242D01*
X10893439Y-8884170D01*
X10892176Y-8883832D01*
X10878997Y-8883832D01*
X10876238Y-8884571D01*
X10869253Y-8884404D01*
X10863467Y-8880488D01*
X10862348Y-8878626D01*
X10862246Y-8878685D01*
X10858480Y-8872163D01*
X10855250Y-8866569D01*
X10845931Y-8857250D01*
X10839330Y-8853439D01*
X10836007Y-8851520D01*
X10836007Y-8851520D01*
X10834519Y-8850661D01*
X10821789Y-8847250D01*
X10821765Y-8847250D01*
X10821389Y-8847137D01*
X10818608Y-8845327D01*
X10815775Y-8843601D01*
X10815692Y-8843430D01*
X10815533Y-8843326D01*
X10814428Y-8840871D01*
X10951330Y-8840871D01*
X10951330Y-8854049D01*
X10952188Y-8857250D01*
X10954741Y-8866779D01*
X10957023Y-8870732D01*
X10961330Y-8878191D01*
X10970649Y-8887510D01*
X10980532Y-8893216D01*
X10981915Y-8894015D01*
X10982061Y-8894099D01*
X10994791Y-8897510D01*
X10994791Y-8897510D01*
X10995162Y-8897610D01*
X11001128Y-8901246D01*
X11003930Y-8906378D01*
X11004030Y-8906749D01*
X11007441Y-8919479D01*
X11014030Y-8930891D01*
X11023349Y-8940210D01*
X11034761Y-8946799D01*
X11047491Y-8950210D01*
X11047491Y-8950210D01*
X11060669Y-8950210D01*
X11060669Y-8950210D01*
X11073399Y-8946799D01*
X11084811Y-8940210D01*
X11094130Y-8930891D01*
X11100719Y-8919479D01*
X11104130Y-8906749D01*
X11104130Y-8893571D01*
X11100719Y-8880841D01*
X11100672Y-8880759D01*
X11099189Y-8878191D01*
X11094130Y-8869429D01*
X11084811Y-8860110D01*
X11073399Y-8853521D01*
X11064197Y-8851055D01*
X11060298Y-8850010D01*
X11054332Y-8846374D01*
X11051530Y-8841242D01*
X11051375Y-8840666D01*
X11048019Y-8828141D01*
X11047970Y-8828057D01*
X11047136Y-8826612D01*
X11041430Y-8816729D01*
X11032111Y-8807410D01*
X11026264Y-8804034D01*
X11020699Y-8800821D01*
X11013199Y-8798811D01*
X11007969Y-8797410D01*
X10994791Y-8797410D01*
X10982061Y-8800821D01*
X10970649Y-8807410D01*
X10970648Y-8807410D01*
X10961330Y-8816728D01*
X10961330Y-8816729D01*
X10954741Y-8828141D01*
X10951483Y-8840299D01*
X10951330Y-8840871D01*
X10814428Y-8840871D01*
X10814171Y-8840299D01*
X10812722Y-8837316D01*
X10812697Y-8837023D01*
X10812666Y-8836954D01*
X10812682Y-8836846D01*
X10812550Y-8835260D01*
X10812550Y-8833411D01*
X10812550Y-8833411D01*
X10809139Y-8820681D01*
X10808675Y-8819877D01*
X10806857Y-8816729D01*
X10802550Y-8809269D01*
X10793231Y-8799950D01*
X10792659Y-8799620D01*
X10787424Y-8796597D01*
X10782602Y-8791540D01*
X10781280Y-8784680D01*
X10781719Y-8782389D01*
X10782138Y-8780953D01*
X10782717Y-8779950D01*
X10785989Y-8767737D01*
X10786027Y-8767609D01*
X10787840Y-8764775D01*
X10789591Y-8761903D01*
X10789724Y-8761830D01*
X10789792Y-8761723D01*
X10790590Y-8761357D01*
X10794722Y-8759101D01*
X10806803Y-8755864D01*
X10818216Y-8749274D01*
X10827535Y-8739956D01*
X10834124Y-8728543D01*
X10837535Y-8715814D01*
X10837535Y-8702635D01*
X10834124Y-8689906D01*
X10827535Y-8678493D01*
X10818216Y-8669174D01*
X10810331Y-8664622D01*
X10806803Y-8662585D01*
X10800439Y-8660880D01*
X10794074Y-8659174D01*
X10785068Y-8659174D01*
X10778364Y-8657206D01*
X10776300Y-8655543D01*
X10750168Y-8629411D01*
X11555950Y-8629411D01*
X11555950Y-8642589D01*
X11557655Y-8648954D01*
X11559361Y-8655319D01*
X11561704Y-8659378D01*
X11565950Y-8666731D01*
X11575269Y-8676050D01*
X11586681Y-8682639D01*
X11599411Y-8686050D01*
X11599411Y-8686050D01*
X11612589Y-8686050D01*
X11612589Y-8686050D01*
X11625319Y-8682639D01*
X11636731Y-8676050D01*
X11646050Y-8666731D01*
X11652639Y-8655319D01*
X11656050Y-8642589D01*
X11656050Y-8629411D01*
X11652639Y-8616681D01*
X11646050Y-8605269D01*
X11636731Y-8595950D01*
X11630335Y-8592257D01*
X11625319Y-8589361D01*
X11618954Y-8587655D01*
X11612589Y-8585950D01*
X11599411Y-8585950D01*
X11586681Y-8589361D01*
X11575269Y-8595950D01*
X11575268Y-8595950D01*
X11565950Y-8605268D01*
X11565950Y-8605269D01*
X11559361Y-8616681D01*
X11557799Y-8622509D01*
X11555950Y-8629411D01*
X10750168Y-8629411D01*
X10662197Y-8541440D01*
X10898630Y-8541440D01*
X10898630Y-8554618D01*
X10902041Y-8567348D01*
X10903081Y-8569148D01*
X10908630Y-8578760D01*
X10917949Y-8588079D01*
X10929362Y-8594668D01*
X10942091Y-8598079D01*
X10942091Y-8598079D01*
X10955269Y-8598079D01*
X10955269Y-8598079D01*
X10967999Y-8594668D01*
X10979412Y-8588079D01*
X10988730Y-8578760D01*
X10995319Y-8567347D01*
X10998730Y-8554618D01*
X10998730Y-8545612D01*
X11000699Y-8538908D01*
X11002362Y-8536844D01*
X11015638Y-8523568D01*
X11037518Y-8501688D01*
X11043650Y-8498340D01*
X11050619Y-8498838D01*
X11056212Y-8503026D01*
X11058263Y-8507247D01*
X11058617Y-8508569D01*
X11060141Y-8514256D01*
X11062540Y-8518411D01*
X11066730Y-8525669D01*
X11076049Y-8534987D01*
X11087461Y-8541577D01*
X11100191Y-8544987D01*
X11100191Y-8544987D01*
X11113369Y-8544987D01*
X11113369Y-8544987D01*
X11126099Y-8541577D01*
X11137511Y-8534987D01*
X11146830Y-8525669D01*
X11153419Y-8514256D01*
X11156830Y-8501527D01*
X11156830Y-8488348D01*
X11154164Y-8478400D01*
X11154331Y-8471415D01*
X11158247Y-8465629D01*
X11162933Y-8463213D01*
X11164158Y-8462885D01*
X11175571Y-8456295D01*
X11184890Y-8446977D01*
X11191479Y-8435564D01*
X11194890Y-8422835D01*
X11194890Y-8416886D01*
X11328315Y-8416886D01*
X11328315Y-8430065D01*
X11329541Y-8434643D01*
X11331725Y-8442794D01*
X11334175Y-8447037D01*
X11338315Y-8454207D01*
X11347633Y-8463525D01*
X11359046Y-8470115D01*
X11371775Y-8473525D01*
X11371776Y-8473525D01*
X11384954Y-8473525D01*
X11384954Y-8473525D01*
X11397683Y-8470115D01*
X11409096Y-8463525D01*
X11418415Y-8454207D01*
X11419913Y-8451611D01*
X11552670Y-8451611D01*
X11552670Y-8464789D01*
X11553832Y-8469127D01*
X11556081Y-8477519D01*
X11556616Y-8478446D01*
X11562670Y-8488931D01*
X11571989Y-8498250D01*
X11583401Y-8504839D01*
X11596131Y-8508250D01*
X11596131Y-8508250D01*
X11609309Y-8508250D01*
X11609309Y-8508250D01*
X11622039Y-8504839D01*
X11633451Y-8498250D01*
X11642770Y-8488931D01*
X11649359Y-8477519D01*
X11652770Y-8464789D01*
X11652770Y-8451611D01*
X11649359Y-8438881D01*
X11642770Y-8427469D01*
X11633451Y-8418150D01*
X11625984Y-8413839D01*
X11622039Y-8411561D01*
X11614930Y-8409656D01*
X11609309Y-8408150D01*
X11596131Y-8408150D01*
X11583401Y-8411561D01*
X11571989Y-8418150D01*
X11571988Y-8418150D01*
X11562670Y-8427468D01*
X11562670Y-8427469D01*
X11556081Y-8438881D01*
X11552963Y-8450516D01*
X11552670Y-8451611D01*
X11419913Y-8451611D01*
X11425004Y-8442794D01*
X11428415Y-8430065D01*
X11428415Y-8416886D01*
X11425004Y-8404157D01*
X11418415Y-8392744D01*
X11409096Y-8383425D01*
X11403390Y-8380131D01*
X11397683Y-8376836D01*
X11391318Y-8375131D01*
X11384954Y-8373425D01*
X11371775Y-8373425D01*
X11359046Y-8376836D01*
X11347633Y-8383425D01*
X11347633Y-8383426D01*
X11338315Y-8392744D01*
X11338315Y-8392744D01*
X11331725Y-8404157D01*
X11330128Y-8410120D01*
X11328315Y-8416886D01*
X11194890Y-8416886D01*
X11194890Y-8409656D01*
X11191479Y-8396927D01*
X11184890Y-8385514D01*
X11175571Y-8376195D01*
X11166186Y-8370777D01*
X11164159Y-8369606D01*
X11157794Y-8367901D01*
X11151429Y-8366195D01*
X11138251Y-8366195D01*
X11125521Y-8369606D01*
X11125521Y-8369606D01*
X11125521Y-8369606D01*
X11125521Y-8369606D01*
X11120886Y-8372282D01*
X11114096Y-8373930D01*
X11107493Y-8371644D01*
X11103174Y-8366152D01*
X11102510Y-8359197D01*
X11102708Y-8358336D01*
X11104130Y-8353029D01*
X11104130Y-8339851D01*
X11100719Y-8327121D01*
X11094130Y-8315709D01*
X11084811Y-8306390D01*
X11077225Y-8302010D01*
X11073399Y-8299801D01*
X11064156Y-8297324D01*
X11060669Y-8296390D01*
X11047491Y-8296390D01*
X11034761Y-8299801D01*
X11023349Y-8306390D01*
X11023348Y-8306390D01*
X11014030Y-8315708D01*
X11014030Y-8315709D01*
X11007441Y-8327121D01*
X11005188Y-8335530D01*
X11004030Y-8339851D01*
X11004030Y-8353029D01*
X11005236Y-8357529D01*
X11007441Y-8365759D01*
X11009662Y-8369606D01*
X11014030Y-8377171D01*
X11023349Y-8386490D01*
X11034761Y-8393079D01*
X11034813Y-8393093D01*
X11034852Y-8393117D01*
X11035512Y-8393390D01*
X11035469Y-8393493D01*
X11040780Y-8396729D01*
X11043833Y-8403014D01*
X11043004Y-8409951D01*
X11040373Y-8413839D01*
X10959865Y-8494347D01*
X10953733Y-8497695D01*
X10951097Y-8497979D01*
X10942091Y-8497979D01*
X10929361Y-8501390D01*
X10917949Y-8507979D01*
X10917948Y-8507979D01*
X10908630Y-8517297D01*
X10908630Y-8517297D01*
X10902041Y-8528710D01*
X10898630Y-8541440D01*
X10662197Y-8541440D01*
X10629326Y-8508569D01*
X10625978Y-8502437D01*
X10626476Y-8495467D01*
X10630663Y-8489874D01*
X10634885Y-8487824D01*
X10645293Y-8485035D01*
X10656706Y-8478446D01*
X10666024Y-8469127D01*
X10672613Y-8457714D01*
X10676024Y-8444985D01*
X10676024Y-8431806D01*
X10672613Y-8419077D01*
X10671349Y-8416886D01*
X10668715Y-8412325D01*
X10667068Y-8405535D01*
X10669353Y-8398933D01*
X10670685Y-8397358D01*
X10671416Y-8396627D01*
X10678006Y-8385214D01*
X10681416Y-8372485D01*
X10681416Y-8372484D01*
X10681522Y-8371679D01*
X10681712Y-8371704D01*
X10683385Y-8366005D01*
X10688665Y-8361430D01*
X10690606Y-8360732D01*
X10702559Y-8357529D01*
X10713971Y-8350940D01*
X10723290Y-8341621D01*
X10729879Y-8330209D01*
X10733290Y-8317479D01*
X10733290Y-8304301D01*
X10729879Y-8291571D01*
X10723290Y-8280159D01*
X10716922Y-8273790D01*
X10715451Y-8271097D01*
X10713792Y-8268516D01*
X10713703Y-8267895D01*
X10713573Y-8267658D01*
X10713290Y-8265022D01*
X10713290Y-8247186D01*
X10748675Y-8247186D01*
X10748675Y-8260364D01*
X10750229Y-8266161D01*
X10752086Y-8273093D01*
X10755004Y-8278148D01*
X10758675Y-8284506D01*
X10767994Y-8293825D01*
X10779407Y-8300414D01*
X10792136Y-8303825D01*
X10792136Y-8303825D01*
X10805314Y-8303825D01*
X10805314Y-8303825D01*
X10818044Y-8300414D01*
X10829457Y-8293825D01*
X10838775Y-8284506D01*
X10845364Y-8273093D01*
X10848775Y-8260364D01*
X10848775Y-8247186D01*
X10845364Y-8234456D01*
X10838775Y-8223043D01*
X10829457Y-8213725D01*
X10822844Y-8209907D01*
X10818044Y-8207136D01*
X10811679Y-8205430D01*
X10805314Y-8203725D01*
X10792136Y-8203725D01*
X10779406Y-8207136D01*
X10767994Y-8213725D01*
X10767994Y-8213725D01*
X10758675Y-8223043D01*
X10758675Y-8223043D01*
X10752086Y-8234456D01*
X10749035Y-8245841D01*
X10748675Y-8247186D01*
X10713290Y-8247186D01*
X10713290Y-8118688D01*
X10824673Y-8118688D01*
X10824673Y-8131866D01*
X10828084Y-8144596D01*
X10830764Y-8149239D01*
X10834673Y-8156009D01*
X10843991Y-8165327D01*
X10855404Y-8171916D01*
X10868134Y-8175327D01*
X10868134Y-8175327D01*
X10881312Y-8175327D01*
X10881312Y-8175327D01*
X10894041Y-8171916D01*
X10905454Y-8165327D01*
X10914773Y-8156009D01*
X10921362Y-8144596D01*
X10924773Y-8131866D01*
X10924773Y-8118688D01*
X10921645Y-8107014D01*
X10921811Y-8100029D01*
X10925727Y-8094243D01*
X10932150Y-8091492D01*
X10934915Y-8091472D01*
X10935887Y-8091574D01*
X10942091Y-8093236D01*
X10951745Y-8093236D01*
X10952390Y-8093304D01*
X10955045Y-8094396D01*
X10957801Y-8095205D01*
X10958621Y-8095866D01*
X10958852Y-8095961D01*
X10958997Y-8096169D01*
X10959865Y-8096868D01*
X11035243Y-8172246D01*
X11042095Y-8176202D01*
X11049738Y-8178250D01*
X11057650Y-8178250D01*
X11189346Y-8178250D01*
X11196050Y-8180218D01*
X11200626Y-8185499D01*
X11201620Y-8192415D01*
X11198718Y-8198770D01*
X11198114Y-8199418D01*
X11196755Y-8200777D01*
X11196755Y-8200778D01*
X11190166Y-8212190D01*
X11186755Y-8224920D01*
X11186755Y-8238098D01*
X11190166Y-8250828D01*
X11191628Y-8253361D01*
X11196755Y-8262240D01*
X11206073Y-8271559D01*
X11217486Y-8278148D01*
X11230216Y-8281559D01*
X11230216Y-8281559D01*
X11243394Y-8281559D01*
X11243394Y-8281559D01*
X11253352Y-8278891D01*
X11796510Y-8278891D01*
X11796510Y-8292069D01*
X11797918Y-8297324D01*
X11799921Y-8304799D01*
X11802389Y-8309074D01*
X11806510Y-8316211D01*
X11815829Y-8325530D01*
X11827241Y-8332119D01*
X11839971Y-8335530D01*
X11839971Y-8335530D01*
X11853149Y-8335530D01*
X11853149Y-8335530D01*
X11865879Y-8332119D01*
X11877291Y-8325530D01*
X11886610Y-8316211D01*
X11893199Y-8304799D01*
X11896610Y-8292069D01*
X11896610Y-8278891D01*
X11893199Y-8266161D01*
X11888817Y-8258571D01*
X12060670Y-8258571D01*
X12060670Y-8271749D01*
X12061837Y-8276106D01*
X12064081Y-8284479D01*
X12065112Y-8286264D01*
X12070670Y-8295891D01*
X12079989Y-8305210D01*
X12091401Y-8311799D01*
X12104131Y-8315210D01*
X12104131Y-8315210D01*
X12117309Y-8315210D01*
X12117309Y-8315210D01*
X12130039Y-8311799D01*
X12133823Y-8309614D01*
X12140613Y-8307967D01*
X12147215Y-8310252D01*
X12150761Y-8314153D01*
X12151950Y-8316211D01*
X12161269Y-8325530D01*
X12172681Y-8332119D01*
X12185411Y-8335530D01*
X12198589Y-8335530D01*
X12211319Y-8332119D01*
X12222731Y-8325530D01*
X12232050Y-8316211D01*
X12238639Y-8304799D01*
X12242050Y-8292069D01*
X12242050Y-8278891D01*
X12238639Y-8266161D01*
X12232050Y-8254749D01*
X12222731Y-8245430D01*
X12217025Y-8242135D01*
X12211319Y-8238841D01*
X12209495Y-8238352D01*
X12206998Y-8237683D01*
X12201032Y-8234047D01*
X12197979Y-8227762D01*
X12198809Y-8220824D01*
X12201439Y-8216938D01*
X12223538Y-8194839D01*
X12264496Y-8153881D01*
X12264817Y-8153324D01*
X12268452Y-8147029D01*
X12270500Y-8139386D01*
X12270500Y-7416465D01*
X12272468Y-7409761D01*
X12277749Y-7405185D01*
X12284665Y-7404191D01*
X12289100Y-7405726D01*
X12290681Y-7406639D01*
X12290681Y-7406639D01*
X12290681Y-7406639D01*
X12303411Y-7410050D01*
X12303411Y-7410050D01*
X12316589Y-7410050D01*
X12316589Y-7410050D01*
X12329319Y-7406639D01*
X12340731Y-7400050D01*
X12350050Y-7390731D01*
X12356639Y-7379319D01*
X12360050Y-7366589D01*
X12360050Y-7353411D01*
X12356639Y-7340681D01*
X12350050Y-7329269D01*
X12340731Y-7319950D01*
X12333457Y-7315750D01*
X12329319Y-7313361D01*
X12322954Y-7311655D01*
X12316589Y-7309950D01*
X12303411Y-7309950D01*
X12303411Y-7309950D01*
X12302605Y-7310056D01*
X12302578Y-7309853D01*
X12296690Y-7309711D01*
X12290904Y-7305794D01*
X12288490Y-7301110D01*
X12287089Y-7295881D01*
X12280500Y-7284469D01*
X12271181Y-7275150D01*
X12260593Y-7269037D01*
X12260593Y-7269037D01*
X12260593Y-7269037D01*
X12259769Y-7268561D01*
X12251282Y-7266287D01*
X12247039Y-7265150D01*
X12233861Y-7265150D01*
X12221131Y-7268561D01*
X12209719Y-7275150D01*
X12209718Y-7275150D01*
X12200400Y-7284468D01*
X12200400Y-7284469D01*
X12193811Y-7295881D01*
X12190400Y-7308611D01*
X12190400Y-7321789D01*
X12193811Y-7334519D01*
X12194459Y-7335641D01*
X12200400Y-7345931D01*
X12200400Y-7345932D01*
X12206768Y-7352299D01*
X12210117Y-7358432D01*
X12210400Y-7361068D01*
X12210400Y-8117847D01*
X12208431Y-8124550D01*
X12206768Y-8126615D01*
X12121905Y-8211478D01*
X12115772Y-8214827D01*
X12113137Y-8215110D01*
X12104131Y-8215110D01*
X12091401Y-8218521D01*
X12079989Y-8225110D01*
X12079988Y-8225110D01*
X12070670Y-8234428D01*
X12070670Y-8234429D01*
X12064081Y-8245841D01*
X12062745Y-8250828D01*
X12060670Y-8258571D01*
X11888817Y-8258571D01*
X11886610Y-8254749D01*
X11877291Y-8245430D01*
X11871585Y-8242135D01*
X11865879Y-8238841D01*
X11856514Y-8236332D01*
X11853149Y-8235430D01*
X11839971Y-8235430D01*
X11827241Y-8238841D01*
X11815829Y-8245430D01*
X11815828Y-8245430D01*
X11806510Y-8254748D01*
X11806510Y-8254749D01*
X11799921Y-8266161D01*
X11797877Y-8273790D01*
X11796510Y-8278891D01*
X11253352Y-8278891D01*
X11256123Y-8278148D01*
X11267536Y-8271559D01*
X11268303Y-8270792D01*
X11274435Y-8267443D01*
X11281404Y-8267941D01*
X11283272Y-8268821D01*
X11284133Y-8269319D01*
X11289982Y-8272695D01*
X11302711Y-8276106D01*
X11302711Y-8276106D01*
X11315889Y-8276106D01*
X11315889Y-8276106D01*
X11328619Y-8272695D01*
X11340032Y-8266106D01*
X11349350Y-8256787D01*
X11355939Y-8245374D01*
X11359350Y-8232645D01*
X11359350Y-8219467D01*
X11355939Y-8206737D01*
X11355939Y-8206737D01*
X11350231Y-8196850D01*
X11348584Y-8190060D01*
X11350869Y-8183457D01*
X11356361Y-8179138D01*
X11360970Y-8178250D01*
X11988652Y-8178250D01*
X11995356Y-8180218D01*
X11997420Y-8181882D01*
X12003789Y-8188250D01*
X12015201Y-8194839D01*
X12027931Y-8198250D01*
X12027931Y-8198250D01*
X12041109Y-8198250D01*
X12041109Y-8198250D01*
X12053839Y-8194839D01*
X12065251Y-8188250D01*
X12074570Y-8178931D01*
X12081159Y-8167519D01*
X12084570Y-8154789D01*
X12084570Y-8141611D01*
X12081159Y-8128881D01*
X12074570Y-8117469D01*
X12065251Y-8108150D01*
X12059545Y-8104855D01*
X12053839Y-8101561D01*
X12046334Y-8099550D01*
X12041109Y-8098150D01*
X12027931Y-8098150D01*
X12015201Y-8101561D01*
X12003789Y-8108150D01*
X12003788Y-8108150D01*
X11997420Y-8114518D01*
X11991288Y-8117867D01*
X11988652Y-8118150D01*
X11687299Y-8118150D01*
X11680595Y-8116181D01*
X11676019Y-8110901D01*
X11675025Y-8103985D01*
X11676560Y-8099550D01*
X11678504Y-8096183D01*
X11681915Y-8083454D01*
X11681915Y-8070275D01*
X11678504Y-8057546D01*
X11671915Y-8046133D01*
X11662596Y-8036815D01*
X11655303Y-8032604D01*
X11651183Y-8030225D01*
X11644818Y-8028520D01*
X11638454Y-8026815D01*
X11625275Y-8026815D01*
X11612546Y-8030225D01*
X11601133Y-8036815D01*
X11601133Y-8036815D01*
X11591815Y-8046133D01*
X11591815Y-8046133D01*
X11585225Y-8057546D01*
X11581815Y-8070275D01*
X11581815Y-8083454D01*
X11585225Y-8096183D01*
X11587169Y-8099550D01*
X11588816Y-8106340D01*
X11586531Y-8112943D01*
X11581039Y-8117262D01*
X11576430Y-8118150D01*
X11071277Y-8118150D01*
X11064573Y-8116181D01*
X11062509Y-8114518D01*
X11002362Y-8054371D01*
X10999014Y-8048239D01*
X10998730Y-8045603D01*
X10998730Y-8036597D01*
X10998730Y-8036597D01*
X10995319Y-8023868D01*
X10989066Y-8013036D01*
X10987418Y-8006246D01*
X10989065Y-8000636D01*
X10995319Y-7989805D01*
X10998730Y-7977075D01*
X10998730Y-7968411D01*
X11064950Y-7968411D01*
X11064950Y-7981589D01*
X11066547Y-7987550D01*
X11068361Y-7994319D01*
X11070772Y-7998495D01*
X11074950Y-8005731D01*
X11084269Y-8015050D01*
X11094152Y-8020756D01*
X11095049Y-8021274D01*
X11095681Y-8021639D01*
X11108411Y-8025050D01*
X11108411Y-8025050D01*
X11121589Y-8025050D01*
X11121589Y-8025050D01*
X11134319Y-8021639D01*
X11145731Y-8015050D01*
X11155050Y-8005731D01*
X11159028Y-7998841D01*
X11466960Y-7998841D01*
X11466960Y-8012019D01*
X11470370Y-8024749D01*
X11473532Y-8030225D01*
X11476960Y-8036162D01*
X11486278Y-8045480D01*
X11497691Y-8052070D01*
X11510420Y-8055480D01*
X11510421Y-8055480D01*
X11523599Y-8055480D01*
X11523599Y-8055480D01*
X11536328Y-8052070D01*
X11547741Y-8045480D01*
X11557060Y-8036162D01*
X11563649Y-8024749D01*
X11567060Y-8012020D01*
X11567060Y-7998841D01*
X11563649Y-7986112D01*
X11557060Y-7974699D01*
X11547741Y-7965380D01*
X11542035Y-7962086D01*
X11536328Y-7958791D01*
X11529963Y-7957086D01*
X11523599Y-7955380D01*
X11510420Y-7955380D01*
X11497691Y-7958791D01*
X11486278Y-7965380D01*
X11486278Y-7965381D01*
X11476960Y-7974699D01*
X11476960Y-7974699D01*
X11470370Y-7986112D01*
X11466960Y-7998841D01*
X11159028Y-7998841D01*
X11161639Y-7994319D01*
X11165050Y-7981589D01*
X11165050Y-7968411D01*
X11161639Y-7955681D01*
X11155050Y-7944269D01*
X11145731Y-7934950D01*
X11138735Y-7930911D01*
X11134319Y-7928361D01*
X11127954Y-7926655D01*
X11121589Y-7924950D01*
X11108411Y-7924950D01*
X11095681Y-7928361D01*
X11084269Y-7934950D01*
X11084268Y-7934950D01*
X11074950Y-7944268D01*
X11074950Y-7944269D01*
X11068361Y-7955681D01*
X11066159Y-7963897D01*
X11064950Y-7968411D01*
X10998730Y-7968411D01*
X10998730Y-7963897D01*
X10995319Y-7951168D01*
X10988730Y-7939755D01*
X10979411Y-7930436D01*
X10973172Y-7926834D01*
X10967999Y-7923847D01*
X10961634Y-7922142D01*
X10955269Y-7920436D01*
X10942091Y-7920436D01*
X10929361Y-7923847D01*
X10917949Y-7930436D01*
X10917948Y-7930436D01*
X10908630Y-7939754D01*
X10908630Y-7939755D01*
X10902041Y-7951167D01*
X10901791Y-7952099D01*
X10898630Y-7963897D01*
X10898630Y-7977075D01*
X10901437Y-7987550D01*
X10901496Y-7987771D01*
X10901330Y-7994756D01*
X10897413Y-8000542D01*
X10890990Y-8003292D01*
X10886309Y-8002957D01*
X10882569Y-8001955D01*
X10869391Y-8001955D01*
X10856661Y-8005366D01*
X10845249Y-8011955D01*
X10845248Y-8011956D01*
X10835930Y-8021274D01*
X10835930Y-8021274D01*
X10829341Y-8032687D01*
X10828235Y-8036815D01*
X10825930Y-8045416D01*
X10825930Y-8058595D01*
X10829060Y-8070275D01*
X10829341Y-8071324D01*
X10829341Y-8071324D01*
X10835138Y-8081365D01*
X10836785Y-8088155D01*
X10834861Y-8093716D01*
X10835079Y-8093842D01*
X10834673Y-8094546D01*
X10834673Y-8094546D01*
X10833332Y-8096868D01*
X10828084Y-8105958D01*
X10824673Y-8118688D01*
X10713290Y-8118688D01*
X10713290Y-8054143D01*
X10715259Y-8047439D01*
X10716922Y-8045375D01*
X10861371Y-7900926D01*
X11600130Y-7900926D01*
X11600130Y-7914105D01*
X11603540Y-7926834D01*
X11604422Y-7928361D01*
X11610130Y-7938247D01*
X11619448Y-7947565D01*
X11630861Y-7954155D01*
X11643590Y-7957565D01*
X11643591Y-7957565D01*
X11656769Y-7957565D01*
X11656769Y-7957565D01*
X11669498Y-7954155D01*
X11680911Y-7947565D01*
X11690230Y-7938247D01*
X11696819Y-7926834D01*
X11700230Y-7914105D01*
X11700230Y-7900926D01*
X11696819Y-7888197D01*
X11696388Y-7887450D01*
X11692836Y-7881299D01*
X11691189Y-7874509D01*
X11693474Y-7867906D01*
X11694806Y-7866332D01*
X11695407Y-7865731D01*
X11701996Y-7854318D01*
X11705407Y-7841589D01*
X11705407Y-7828411D01*
X11701996Y-7815681D01*
X11695407Y-7804268D01*
X11686088Y-7794950D01*
X11680382Y-7791655D01*
X11674676Y-7788361D01*
X11668249Y-7786639D01*
X11661946Y-7784950D01*
X11648768Y-7784950D01*
X11636038Y-7788361D01*
X11624626Y-7794950D01*
X11624625Y-7794950D01*
X11615307Y-7804268D01*
X11615307Y-7804268D01*
X11608718Y-7815681D01*
X11605543Y-7827530D01*
X11605307Y-7828411D01*
X11605307Y-7841589D01*
X11606185Y-7844865D01*
X11608718Y-7854319D01*
X11608718Y-7854319D01*
X11612700Y-7861216D01*
X11614347Y-7868006D01*
X11612062Y-7874609D01*
X11610730Y-7876184D01*
X11610130Y-7876784D01*
X11603540Y-7888197D01*
X11600130Y-7900926D01*
X10861371Y-7900926D01*
X10870952Y-7891345D01*
X10879491Y-7882806D01*
X10890166Y-7872131D01*
X10894122Y-7865279D01*
X10896170Y-7857636D01*
X10896170Y-7849724D01*
X10896170Y-7770891D01*
X11059910Y-7770891D01*
X11059910Y-7784069D01*
X11063321Y-7796799D01*
X11065270Y-7800175D01*
X11069910Y-7808211D01*
X11079229Y-7817530D01*
X11090641Y-7824119D01*
X11103371Y-7827530D01*
X11103371Y-7827530D01*
X11116549Y-7827530D01*
X11116549Y-7827530D01*
X11129279Y-7824119D01*
X11140691Y-7817530D01*
X11150010Y-7808211D01*
X11156599Y-7796799D01*
X11160010Y-7784069D01*
X11160010Y-7770891D01*
X11156599Y-7758161D01*
X11150010Y-7746749D01*
X11148752Y-7745491D01*
X11933670Y-7745491D01*
X11933670Y-7758669D01*
X11933831Y-7759268D01*
X11937081Y-7771399D01*
X11940296Y-7776968D01*
X11943670Y-7782811D01*
X11952989Y-7792130D01*
X11964401Y-7798719D01*
X11977131Y-7802130D01*
X11977131Y-7802130D01*
X11990309Y-7802130D01*
X11990309Y-7802130D01*
X12003039Y-7798719D01*
X12014451Y-7792130D01*
X12023770Y-7782811D01*
X12030359Y-7771399D01*
X12033770Y-7758669D01*
X12033770Y-7745491D01*
X12030359Y-7732761D01*
X12023770Y-7721349D01*
X12014451Y-7712030D01*
X12008745Y-7708735D01*
X12003039Y-7705441D01*
X11996674Y-7703735D01*
X11990309Y-7702030D01*
X11977131Y-7702030D01*
X11964401Y-7705441D01*
X11952989Y-7712030D01*
X11952988Y-7712030D01*
X11943670Y-7721348D01*
X11943670Y-7721349D01*
X11937081Y-7732761D01*
X11935830Y-7737430D01*
X11933670Y-7745491D01*
X11148752Y-7745491D01*
X11140691Y-7737430D01*
X11132605Y-7732761D01*
X11129279Y-7730841D01*
X11122908Y-7729134D01*
X11116549Y-7727430D01*
X11103371Y-7727430D01*
X11090641Y-7730841D01*
X11079229Y-7737430D01*
X11079228Y-7737430D01*
X11069910Y-7746748D01*
X11069910Y-7746749D01*
X11063321Y-7758161D01*
X11059910Y-7770891D01*
X10896170Y-7770891D01*
X10896170Y-7603251D01*
X11649190Y-7603251D01*
X11649190Y-7616429D01*
X11652601Y-7629159D01*
X11655895Y-7634865D01*
X11659190Y-7640571D01*
X11668509Y-7649890D01*
X11679921Y-7656479D01*
X11692651Y-7659890D01*
X11692651Y-7659890D01*
X11705829Y-7659890D01*
X11705829Y-7659890D01*
X11718559Y-7656479D01*
X11729971Y-7649890D01*
X11739290Y-7640571D01*
X11745879Y-7629159D01*
X11749290Y-7616429D01*
X11749290Y-7603251D01*
X11745879Y-7590521D01*
X11739290Y-7579109D01*
X11729971Y-7569790D01*
X11723115Y-7565831D01*
X11718559Y-7563201D01*
X11712194Y-7561495D01*
X11705829Y-7559790D01*
X11692651Y-7559790D01*
X11679921Y-7563201D01*
X11668509Y-7569790D01*
X11668508Y-7569790D01*
X11659190Y-7579108D01*
X11659190Y-7579109D01*
X11652601Y-7590521D01*
X11649190Y-7603251D01*
X10896170Y-7603251D01*
X10896170Y-7592848D01*
X10898139Y-7586144D01*
X10899802Y-7584079D01*
X10901332Y-7582550D01*
X10906170Y-7577711D01*
X10912759Y-7566299D01*
X10916170Y-7553569D01*
X10916170Y-7540391D01*
X10943070Y-7540391D01*
X10943070Y-7553569D01*
X10946481Y-7566299D01*
X10948497Y-7569790D01*
X10953070Y-7577711D01*
X10962389Y-7587030D01*
X10968436Y-7590521D01*
X10973801Y-7593619D01*
X10973801Y-7593619D01*
X10986531Y-7597030D01*
X10986531Y-7597030D01*
X10999709Y-7597030D01*
X10999709Y-7597030D01*
X11012439Y-7593619D01*
X11023851Y-7587030D01*
X11033170Y-7577711D01*
X11039759Y-7566299D01*
X11043170Y-7553569D01*
X11043170Y-7540391D01*
X11039759Y-7527661D01*
X11033170Y-7516249D01*
X11023851Y-7506930D01*
X11017844Y-7503461D01*
X11012439Y-7500341D01*
X11003272Y-7497885D01*
X10999709Y-7496930D01*
X10986531Y-7496930D01*
X10973801Y-7500341D01*
X10962389Y-7506930D01*
X10962388Y-7506930D01*
X10953070Y-7516248D01*
X10953070Y-7516249D01*
X10946481Y-7527661D01*
X10943070Y-7540391D01*
X10916170Y-7540391D01*
X10912759Y-7527661D01*
X10906170Y-7516249D01*
X10896851Y-7506930D01*
X10890844Y-7503461D01*
X10885439Y-7500341D01*
X10876272Y-7497885D01*
X10872709Y-7496930D01*
X10869315Y-7496930D01*
X10862611Y-7494961D01*
X10858035Y-7489681D01*
X10857125Y-7485498D01*
X10857021Y-7485512D01*
X10856915Y-7484707D01*
X10856915Y-7484706D01*
X10853504Y-7471977D01*
X10846915Y-7460564D01*
X10837596Y-7451245D01*
X10831890Y-7447951D01*
X10826183Y-7444656D01*
X10819819Y-7442951D01*
X10813454Y-7441245D01*
X10800275Y-7441245D01*
X10787546Y-7444656D01*
X10776133Y-7451245D01*
X10776133Y-7451246D01*
X10766815Y-7460564D01*
X10766815Y-7460564D01*
X10760225Y-7471977D01*
X10756815Y-7484706D01*
X10756815Y-7492723D01*
X10754846Y-7499426D01*
X10749566Y-7504002D01*
X10742650Y-7504996D01*
X10738215Y-7503461D01*
X10732810Y-7500341D01*
X10732810Y-7500341D01*
X10720080Y-7496930D01*
X10720080Y-7496930D01*
X10718862Y-7496930D01*
X10712158Y-7494961D01*
X10707583Y-7489681D01*
X10706885Y-7487739D01*
X10704479Y-7478761D01*
X10697890Y-7467349D01*
X10688571Y-7458030D01*
X10681447Y-7453917D01*
X10677159Y-7451441D01*
X10670794Y-7449735D01*
X10664429Y-7448030D01*
X10651251Y-7448030D01*
X10638521Y-7451441D01*
X10627109Y-7458030D01*
X10627108Y-7458030D01*
X10625222Y-7459917D01*
X10619089Y-7463265D01*
X10612120Y-7462767D01*
X10610254Y-7461887D01*
X10600959Y-7456521D01*
X10600959Y-7456521D01*
X10588229Y-7453110D01*
X10575051Y-7453110D01*
X10575050Y-7453110D01*
X10571419Y-7454083D01*
X10564434Y-7453917D01*
X10558648Y-7450000D01*
X10555898Y-7443577D01*
X10555810Y-7442105D01*
X10555810Y-7353411D01*
X11923510Y-7353411D01*
X11923510Y-7366589D01*
X11926921Y-7379319D01*
X11930215Y-7385025D01*
X11933510Y-7390731D01*
X11942829Y-7400050D01*
X11950001Y-7404191D01*
X11954241Y-7406639D01*
X11954241Y-7406639D01*
X11966971Y-7410050D01*
X11966971Y-7410050D01*
X11980149Y-7410050D01*
X11980149Y-7410050D01*
X11992879Y-7406639D01*
X12004291Y-7400050D01*
X12013610Y-7390731D01*
X12020199Y-7379319D01*
X12023610Y-7366589D01*
X12023610Y-7353411D01*
X12020199Y-7340681D01*
X12013610Y-7329269D01*
X12004291Y-7319950D01*
X11997017Y-7315750D01*
X11992879Y-7313361D01*
X11986514Y-7311655D01*
X11980149Y-7309950D01*
X11966971Y-7309950D01*
X11954241Y-7313361D01*
X11942829Y-7319950D01*
X11942828Y-7319950D01*
X11933510Y-7329268D01*
X11933510Y-7329269D01*
X11926921Y-7340681D01*
X11923510Y-7353411D01*
X10555810Y-7353411D01*
X10555810Y-7261663D01*
X10556560Y-7259111D01*
X12386308Y-7259111D01*
X12386308Y-7272289D01*
X12387075Y-7275150D01*
X12389719Y-7285019D01*
X12393014Y-7290725D01*
X12396308Y-7296431D01*
X12405627Y-7305750D01*
X12417040Y-7312339D01*
X12429769Y-7315750D01*
X12429769Y-7315750D01*
X12442947Y-7315750D01*
X12442947Y-7315750D01*
X12455677Y-7312339D01*
X12467090Y-7305750D01*
X12476408Y-7296431D01*
X12482997Y-7285019D01*
X12486408Y-7272289D01*
X12486408Y-7259111D01*
X12482997Y-7246381D01*
X12476408Y-7234969D01*
X12467090Y-7225650D01*
X12461383Y-7222355D01*
X12455677Y-7219061D01*
X12449312Y-7217355D01*
X12442947Y-7215650D01*
X12429769Y-7215650D01*
X12417039Y-7219061D01*
X12405627Y-7225650D01*
X12405627Y-7225650D01*
X12396308Y-7234968D01*
X12396308Y-7234969D01*
X12389719Y-7246381D01*
X12387421Y-7254959D01*
X12386308Y-7259111D01*
X10556560Y-7259111D01*
X10557779Y-7254959D01*
X10559442Y-7252895D01*
X10636495Y-7175842D01*
X10642627Y-7172493D01*
X10645263Y-7172210D01*
X10654269Y-7172210D01*
X10654269Y-7172210D01*
X10666999Y-7168799D01*
X10678411Y-7162210D01*
X10687730Y-7152891D01*
X10694319Y-7141479D01*
X10697730Y-7128749D01*
X10697730Y-7115571D01*
X10694319Y-7102841D01*
X10687730Y-7091429D01*
X10678411Y-7082110D01*
X10672705Y-7078815D01*
X10666999Y-7075521D01*
X10660634Y-7073815D01*
X10654269Y-7072110D01*
X10641091Y-7072110D01*
X10628361Y-7075521D01*
X10616949Y-7082110D01*
X10616948Y-7082110D01*
X10607630Y-7091428D01*
X10607630Y-7091429D01*
X10601041Y-7102841D01*
X10597630Y-7115571D01*
X10597630Y-7124577D01*
X10595662Y-7131280D01*
X10593998Y-7133345D01*
X10544278Y-7183065D01*
X10538146Y-7186413D01*
X10531177Y-7185915D01*
X10525583Y-7181728D01*
X10523142Y-7175181D01*
X10523110Y-7174297D01*
X10523110Y-7021033D01*
X11818110Y-7021033D01*
X11818110Y-7034211D01*
X11821521Y-7046940D01*
X11824815Y-7052647D01*
X11828110Y-7058353D01*
X11837429Y-7067672D01*
X11848841Y-7074261D01*
X11861571Y-7077672D01*
X11861571Y-7077672D01*
X11874749Y-7077672D01*
X11874749Y-7077672D01*
X11887479Y-7074261D01*
X11895117Y-7069851D01*
X12258790Y-7069851D01*
X12258790Y-7083029D01*
X12262201Y-7095759D01*
X12265495Y-7101465D01*
X12268790Y-7107171D01*
X12278109Y-7116490D01*
X12289521Y-7123079D01*
X12302251Y-7126490D01*
X12302251Y-7126490D01*
X12315429Y-7126490D01*
X12315429Y-7126490D01*
X12328159Y-7123079D01*
X12339571Y-7116490D01*
X12348890Y-7107171D01*
X12355479Y-7095759D01*
X12358890Y-7083029D01*
X12358890Y-7069851D01*
X12355479Y-7057121D01*
X12348890Y-7045709D01*
X12339571Y-7036390D01*
X12330249Y-7031007D01*
X12328159Y-7029801D01*
X12321794Y-7028095D01*
X12315429Y-7026390D01*
X12302251Y-7026390D01*
X12289521Y-7029801D01*
X12278109Y-7036390D01*
X12278108Y-7036390D01*
X12268790Y-7045708D01*
X12268790Y-7045709D01*
X12262201Y-7057121D01*
X12258790Y-7069851D01*
X11895117Y-7069851D01*
X11898891Y-7067672D01*
X11908210Y-7058353D01*
X11914799Y-7046940D01*
X11918210Y-7034211D01*
X11918210Y-7021033D01*
X11914799Y-7008303D01*
X11908210Y-6996890D01*
X11898891Y-6987572D01*
X11892764Y-6984034D01*
X11887479Y-6980983D01*
X11881114Y-6979277D01*
X11874749Y-6977572D01*
X11861571Y-6977572D01*
X11848841Y-6980983D01*
X11837429Y-6987572D01*
X11837428Y-6987572D01*
X11828110Y-6996890D01*
X11828110Y-6996890D01*
X11821521Y-7008303D01*
X11818110Y-7021033D01*
X10523110Y-7021033D01*
X10523110Y-7020809D01*
X10523110Y-7012104D01*
X10522092Y-7008303D01*
X10521062Y-7004461D01*
X10517106Y-6997609D01*
X10307408Y-6787911D01*
X11024350Y-6787911D01*
X11024350Y-6801089D01*
X11027761Y-6813819D01*
X11031055Y-6819525D01*
X11034350Y-6825231D01*
X11043669Y-6834550D01*
X11055081Y-6841139D01*
X11067811Y-6844550D01*
X11067811Y-6844550D01*
X11080989Y-6844550D01*
X11080989Y-6844550D01*
X11093719Y-6841139D01*
X11105131Y-6834550D01*
X11114450Y-6825231D01*
X11121039Y-6813819D01*
X11124450Y-6801089D01*
X11124450Y-6787911D01*
X11121039Y-6775181D01*
X11114450Y-6763769D01*
X11105131Y-6754450D01*
X11099425Y-6751155D01*
X11093719Y-6747861D01*
X11085467Y-6745650D01*
X11080989Y-6744450D01*
X11067811Y-6744450D01*
X11055081Y-6747861D01*
X11043669Y-6754450D01*
X11043668Y-6754450D01*
X11034350Y-6763768D01*
X11034350Y-6763769D01*
X11027761Y-6775181D01*
X11024350Y-6787911D01*
X10307408Y-6787911D01*
X10218508Y-6699011D01*
X10656050Y-6699011D01*
X10656050Y-6712189D01*
X10656911Y-6715402D01*
X10659461Y-6724919D01*
X10662414Y-6730034D01*
X10666050Y-6736331D01*
X10675369Y-6745650D01*
X10686781Y-6752239D01*
X10699511Y-6755650D01*
X10699511Y-6755650D01*
X10712689Y-6755650D01*
X10712689Y-6755650D01*
X10725419Y-6752239D01*
X10736831Y-6745650D01*
X10746150Y-6736331D01*
X10752739Y-6724919D01*
X10756150Y-6712189D01*
X10756150Y-6699011D01*
X10752739Y-6686281D01*
X10746150Y-6674869D01*
X10736831Y-6665550D01*
X10729625Y-6661389D01*
X10725419Y-6658961D01*
X10719054Y-6657255D01*
X10712689Y-6655550D01*
X10699511Y-6655550D01*
X10686781Y-6658961D01*
X10675369Y-6665550D01*
X10675368Y-6665550D01*
X10666050Y-6674868D01*
X10666050Y-6674869D01*
X10659461Y-6686281D01*
X10657165Y-6694850D01*
X10656050Y-6699011D01*
X10218508Y-6699011D01*
X10167708Y-6648211D01*
X11786350Y-6648211D01*
X11786350Y-6661389D01*
X11789761Y-6674119D01*
X11790194Y-6674868D01*
X11796350Y-6685531D01*
X11805669Y-6694850D01*
X11817081Y-6701439D01*
X11829811Y-6704850D01*
X11829811Y-6704850D01*
X11842989Y-6704850D01*
X11842989Y-6704850D01*
X11855719Y-6701439D01*
X11867131Y-6694850D01*
X11876450Y-6685531D01*
X11883039Y-6674119D01*
X11886450Y-6661389D01*
X11886450Y-6648211D01*
X11883039Y-6635481D01*
X11876450Y-6624069D01*
X11867131Y-6614750D01*
X11858845Y-6609966D01*
X11855719Y-6608161D01*
X11849354Y-6606455D01*
X11842989Y-6604750D01*
X11829811Y-6604750D01*
X11817081Y-6608161D01*
X11805669Y-6614750D01*
X11805668Y-6614750D01*
X11796350Y-6624068D01*
X11796350Y-6624069D01*
X11789761Y-6635481D01*
X11786350Y-6648211D01*
X10167708Y-6648211D01*
X10118708Y-6599210D01*
X10115359Y-6593078D01*
X10115857Y-6586109D01*
X10116016Y-6585705D01*
X10121013Y-6573642D01*
X10125050Y-6553346D01*
X10125050Y-6532653D01*
X10121013Y-6512358D01*
X10113094Y-6493240D01*
X10101598Y-6476034D01*
X10101598Y-6476034D01*
X10088974Y-6463411D01*
X11939950Y-6463411D01*
X11939950Y-6476589D01*
X11943361Y-6489319D01*
X11945625Y-6493240D01*
X11949950Y-6500731D01*
X11959269Y-6510050D01*
X11970681Y-6516639D01*
X11983411Y-6520050D01*
X11983411Y-6520050D01*
X11996589Y-6520050D01*
X11996589Y-6520050D01*
X12009319Y-6516639D01*
X12020731Y-6510050D01*
X12030050Y-6500731D01*
X12036639Y-6489319D01*
X12040050Y-6476589D01*
X12040050Y-6463411D01*
X12036639Y-6450681D01*
X12030050Y-6439269D01*
X12020731Y-6429950D01*
X12015025Y-6426655D01*
X12009319Y-6423361D01*
X12002902Y-6421642D01*
X11996589Y-6419950D01*
X11983411Y-6419950D01*
X11970681Y-6423361D01*
X11959269Y-6429950D01*
X11959268Y-6429950D01*
X11949950Y-6439268D01*
X11949950Y-6439269D01*
X11943361Y-6450681D01*
X11939950Y-6463411D01*
X10088974Y-6463411D01*
X10086966Y-6461402D01*
X10070921Y-6450682D01*
X10069760Y-6449906D01*
X10065612Y-6448188D01*
X10050642Y-6441987D01*
X10050641Y-6441987D01*
X10030347Y-6437950D01*
X10030347Y-6437950D01*
X10009654Y-6437950D01*
X10009653Y-6437950D01*
X9989359Y-6441987D01*
X9989358Y-6441987D01*
X9970240Y-6449906D01*
X9953034Y-6461402D01*
X9938402Y-6476034D01*
X9926906Y-6493240D01*
X9918987Y-6512358D01*
X9918987Y-6512359D01*
X9914950Y-6532653D01*
X9797050Y-6532653D01*
X9797050Y-5945215D01*
X9885000Y-5945215D01*
X9885000Y-6010000D01*
X9976699Y-6010000D01*
X9973408Y-6015701D01*
X9970000Y-6028417D01*
X9970000Y-6041583D01*
X9973408Y-6054299D01*
X9976699Y-6060000D01*
X9885000Y-6060000D01*
X9885000Y-6124784D01*
X9885640Y-6130737D01*
X9885640Y-6130738D01*
X9890665Y-6144209D01*
X9890665Y-6144209D01*
X9899281Y-6155719D01*
X9899281Y-6155719D01*
X9910791Y-6164335D01*
X9910791Y-6164335D01*
X9924262Y-6169360D01*
X9924263Y-6169360D01*
X9930216Y-6170000D01*
X9930217Y-6170000D01*
X9970444Y-6170000D01*
X9977147Y-6171968D01*
X9981723Y-6177249D01*
X9982717Y-6184165D01*
X9979815Y-6190520D01*
X9975189Y-6193856D01*
X9970240Y-6195906D01*
X9953034Y-6207402D01*
X9938402Y-6222034D01*
X9926906Y-6239240D01*
X9918987Y-6258358D01*
X9918987Y-6258359D01*
X9914950Y-6278653D01*
X9914950Y-6299347D01*
X9918987Y-6319641D01*
X9918987Y-6319642D01*
X9926906Y-6338760D01*
X9938402Y-6355966D01*
X9953034Y-6370597D01*
X9953035Y-6370598D01*
X9970240Y-6382094D01*
X9989358Y-6390013D01*
X10009653Y-6394050D01*
X10009653Y-6394050D01*
X10009654Y-6394050D01*
X10030347Y-6394050D01*
X10030347Y-6394050D01*
X10050642Y-6390013D01*
X10069760Y-6382094D01*
X10086966Y-6370598D01*
X10101598Y-6355965D01*
X10109986Y-6343411D01*
X10715150Y-6343411D01*
X10715150Y-6356589D01*
X10718561Y-6369319D01*
X10721855Y-6375025D01*
X10725150Y-6380731D01*
X10734469Y-6390050D01*
X10745881Y-6396639D01*
X10758611Y-6400050D01*
X10758611Y-6400050D01*
X10771789Y-6400050D01*
X10771789Y-6400050D01*
X10784519Y-6396639D01*
X10795931Y-6390050D01*
X10805250Y-6380731D01*
X10811839Y-6369319D01*
X10815250Y-6356589D01*
X10815250Y-6343411D01*
X10846550Y-6343411D01*
X10846550Y-6356589D01*
X10849961Y-6369319D01*
X10853255Y-6375025D01*
X10856550Y-6380731D01*
X10865869Y-6390050D01*
X10877281Y-6396639D01*
X10890011Y-6400050D01*
X10890011Y-6400050D01*
X10903189Y-6400050D01*
X10903189Y-6400050D01*
X10915919Y-6396639D01*
X10927331Y-6390050D01*
X10936650Y-6380731D01*
X10943239Y-6369319D01*
X10946650Y-6356589D01*
X10946650Y-6343411D01*
X10943239Y-6330681D01*
X10936650Y-6319269D01*
X10927331Y-6309950D01*
X10921625Y-6306655D01*
X10915919Y-6303361D01*
X10909554Y-6301655D01*
X10903189Y-6299950D01*
X10890011Y-6299950D01*
X10877281Y-6303361D01*
X10865869Y-6309950D01*
X10865868Y-6309950D01*
X10856550Y-6319268D01*
X10856550Y-6319269D01*
X10849961Y-6330681D01*
X10846550Y-6343411D01*
X10815250Y-6343411D01*
X10811839Y-6330681D01*
X10805250Y-6319269D01*
X10795931Y-6309950D01*
X10790225Y-6306655D01*
X10784519Y-6303361D01*
X10778154Y-6301655D01*
X10771789Y-6299950D01*
X10758611Y-6299950D01*
X10745881Y-6303361D01*
X10734469Y-6309950D01*
X10734468Y-6309950D01*
X10725150Y-6319268D01*
X10725150Y-6319269D01*
X10718561Y-6330681D01*
X10715150Y-6343411D01*
X10109986Y-6343411D01*
X10113094Y-6338760D01*
X10121013Y-6319642D01*
X10125050Y-6299346D01*
X10125050Y-6278653D01*
X10121013Y-6258358D01*
X10113094Y-6239240D01*
X10101598Y-6222034D01*
X10101598Y-6222034D01*
X10086966Y-6207402D01*
X10075812Y-6199950D01*
X10069760Y-6195906D01*
X10064811Y-6193856D01*
X10059371Y-6189472D01*
X10057164Y-6182843D01*
X10058892Y-6176073D01*
X10064006Y-6171312D01*
X10069557Y-6170000D01*
X10109783Y-6170000D01*
X10109784Y-6170000D01*
X10115737Y-6169360D01*
X10115738Y-6169360D01*
X10129209Y-6164335D01*
X10129209Y-6164335D01*
X10140719Y-6155719D01*
X10140719Y-6155719D01*
X10149335Y-6144209D01*
X10149335Y-6144209D01*
X10154360Y-6130738D01*
X10154360Y-6130737D01*
X10155000Y-6124784D01*
X10155000Y-6124783D01*
X10155000Y-6073411D01*
X10722950Y-6073411D01*
X10722950Y-6086589D01*
X10726361Y-6099319D01*
X10729655Y-6105025D01*
X10732950Y-6110731D01*
X10742269Y-6120050D01*
X10753681Y-6126639D01*
X10766411Y-6130050D01*
X10766411Y-6130050D01*
X10779589Y-6130050D01*
X10779589Y-6130050D01*
X10792319Y-6126639D01*
X10803731Y-6120050D01*
X10813050Y-6110731D01*
X10819639Y-6099319D01*
X10823050Y-6086589D01*
X10823050Y-6073411D01*
X10819639Y-6060681D01*
X10813050Y-6049269D01*
X10803731Y-6039950D01*
X10798803Y-6037105D01*
X10793982Y-6032048D01*
X10792660Y-6025187D01*
X10795256Y-6018701D01*
X10798803Y-6015627D01*
X10806731Y-6011050D01*
X10816050Y-6001731D01*
X10822639Y-5990319D01*
X10826050Y-5977589D01*
X10826050Y-5964411D01*
X10822639Y-5951681D01*
X10816050Y-5940269D01*
X10806731Y-5930950D01*
X10797795Y-5925791D01*
X10795319Y-5924361D01*
X10788954Y-5922655D01*
X10782589Y-5920950D01*
X10769411Y-5920950D01*
X10756681Y-5924361D01*
X10745269Y-5930950D01*
X10745268Y-5930950D01*
X10735950Y-5940268D01*
X10735950Y-5940269D01*
X10729361Y-5951681D01*
X10725950Y-5964411D01*
X10725950Y-5977589D01*
X10729361Y-5990319D01*
X10732058Y-5994990D01*
X10735950Y-6001731D01*
X10745269Y-6011050D01*
X10749573Y-6013535D01*
X10750197Y-6013895D01*
X10755018Y-6018952D01*
X10756340Y-6025813D01*
X10753744Y-6032299D01*
X10750197Y-6035372D01*
X10742269Y-6039950D01*
X10742268Y-6039950D01*
X10732950Y-6049268D01*
X10732950Y-6049269D01*
X10726361Y-6060681D01*
X10722950Y-6073411D01*
X10155000Y-6073411D01*
X10155000Y-6060000D01*
X10063301Y-6060000D01*
X10066593Y-6054299D01*
X10070000Y-6041583D01*
X10070000Y-6028417D01*
X10066593Y-6015701D01*
X10063301Y-6010000D01*
X10155000Y-6010000D01*
X10155000Y-5945217D01*
X10155000Y-5945215D01*
X10154360Y-5939263D01*
X10154360Y-5939262D01*
X10149335Y-5925791D01*
X10149335Y-5925791D01*
X10140719Y-5914281D01*
X10140719Y-5914281D01*
X10129209Y-5905665D01*
X10129209Y-5905664D01*
X10115738Y-5900640D01*
X10115737Y-5900640D01*
X10109784Y-5900000D01*
X10045000Y-5900000D01*
X10045000Y-5991699D01*
X10039299Y-5988407D01*
X10026583Y-5985000D01*
X10013417Y-5985000D01*
X10000701Y-5988407D01*
X9995000Y-5991699D01*
X9995000Y-5900000D01*
X9930216Y-5900000D01*
X9924263Y-5900640D01*
X9924262Y-5900640D01*
X9910791Y-5905664D01*
X9910791Y-5905665D01*
X9899281Y-5914281D01*
X9899281Y-5914281D01*
X9890665Y-5925791D01*
X9890665Y-5925791D01*
X9885640Y-5939262D01*
X9885640Y-5939263D01*
X9885000Y-5945215D01*
X9797050Y-5945215D01*
X9797050Y-5538526D01*
X9894950Y-5538526D01*
X9894950Y-5561474D01*
X9897445Y-5580422D01*
X9897945Y-5584224D01*
X9897945Y-5584224D01*
X9903884Y-5606389D01*
X9912665Y-5627588D01*
X9912666Y-5627589D01*
X9924139Y-5647462D01*
X9938108Y-5665666D01*
X9938109Y-5665667D01*
X9954333Y-5681891D01*
X9954334Y-5681892D01*
X9954334Y-5681892D01*
X9955363Y-5682681D01*
X9972538Y-5695861D01*
X9972539Y-5695861D01*
X9972539Y-5695861D01*
X9992411Y-5707334D01*
X9992412Y-5707335D01*
X9992412Y-5707335D01*
X9995441Y-5708589D01*
X10013611Y-5716116D01*
X10035776Y-5722055D01*
X10058527Y-5725050D01*
X10058527Y-5725050D01*
X10081473Y-5725050D01*
X10081473Y-5725050D01*
X10104224Y-5722055D01*
X10126389Y-5716116D01*
X10147589Y-5707334D01*
X10154385Y-5703411D01*
X10776950Y-5703411D01*
X10776950Y-5716589D01*
X10780361Y-5729319D01*
X10782331Y-5732731D01*
X10786950Y-5740731D01*
X10796269Y-5750050D01*
X10807681Y-5756639D01*
X10820411Y-5760050D01*
X10820411Y-5760050D01*
X10833589Y-5760050D01*
X10833589Y-5760050D01*
X10846319Y-5756639D01*
X10857731Y-5750050D01*
X10867050Y-5740731D01*
X10873639Y-5729319D01*
X10877050Y-5716589D01*
X10877050Y-5703411D01*
X10876338Y-5700754D01*
X10875549Y-5697808D01*
X10875549Y-5697807D01*
X10874906Y-5695411D01*
X10913950Y-5695411D01*
X10913950Y-5708589D01*
X10917361Y-5721319D01*
X10917786Y-5722055D01*
X10923950Y-5732731D01*
X10933269Y-5742050D01*
X10944681Y-5748639D01*
X10957411Y-5752050D01*
X10957411Y-5752050D01*
X10970589Y-5752050D01*
X10970589Y-5752050D01*
X10983319Y-5748639D01*
X10994731Y-5742050D01*
X11004050Y-5732731D01*
X11010639Y-5721319D01*
X11014050Y-5708589D01*
X11014050Y-5695411D01*
X11010639Y-5682681D01*
X11004050Y-5671269D01*
X10994731Y-5661950D01*
X10989025Y-5658655D01*
X10983319Y-5655361D01*
X10976954Y-5653655D01*
X10970589Y-5651950D01*
X10957411Y-5651950D01*
X10944681Y-5655361D01*
X10933269Y-5661950D01*
X10933268Y-5661950D01*
X10923950Y-5671268D01*
X10923950Y-5671269D01*
X10917361Y-5682681D01*
X10913950Y-5695411D01*
X10874906Y-5695411D01*
X10873639Y-5690681D01*
X10867050Y-5679269D01*
X10857731Y-5669950D01*
X10852025Y-5666655D01*
X10846319Y-5663361D01*
X10839954Y-5661655D01*
X10833589Y-5659950D01*
X10820411Y-5659950D01*
X10807681Y-5663361D01*
X10796269Y-5669950D01*
X10796268Y-5669950D01*
X10786950Y-5679268D01*
X10786950Y-5679269D01*
X10780361Y-5690681D01*
X10776950Y-5703411D01*
X10154385Y-5703411D01*
X10167461Y-5695861D01*
X10185666Y-5681892D01*
X10185667Y-5681891D01*
X10185667Y-5681891D01*
X10201891Y-5665667D01*
X10201891Y-5665666D01*
X10201892Y-5665666D01*
X10215861Y-5647461D01*
X10227334Y-5627589D01*
X10236116Y-5606389D01*
X10242055Y-5584224D01*
X10245050Y-5561473D01*
X10245050Y-5538527D01*
X10242055Y-5515776D01*
X10236116Y-5493611D01*
X10228676Y-5475650D01*
X10227335Y-5472412D01*
X10227335Y-5472412D01*
X10227334Y-5472411D01*
X10215861Y-5452539D01*
X10215861Y-5452539D01*
X10215861Y-5452538D01*
X10202886Y-5435629D01*
X10201892Y-5434334D01*
X10201892Y-5434334D01*
X10201891Y-5434333D01*
X10185667Y-5418109D01*
X10185666Y-5418108D01*
X10167462Y-5404139D01*
X10147589Y-5392666D01*
X10147588Y-5392665D01*
X10126389Y-5383884D01*
X10104224Y-5377945D01*
X10100422Y-5377445D01*
X10081474Y-5374950D01*
X10081473Y-5374950D01*
X10058527Y-5374950D01*
X10058526Y-5374950D01*
X10036872Y-5377801D01*
X10035776Y-5377945D01*
X10026408Y-5380455D01*
X10013611Y-5383884D01*
X9992412Y-5392665D01*
X9992411Y-5392666D01*
X9972538Y-5404139D01*
X9954334Y-5418108D01*
X9938108Y-5434334D01*
X9924139Y-5452538D01*
X9912666Y-5472411D01*
X9912665Y-5472412D01*
X9903884Y-5493611D01*
X9897945Y-5515776D01*
X9897945Y-5515777D01*
X9894950Y-5538526D01*
X9797050Y-5538526D01*
X9797050Y-5520375D01*
X9797073Y-5519626D01*
X9798754Y-5491826D01*
X9798935Y-5490340D01*
X9800419Y-5482239D01*
X9803887Y-5463313D01*
X9804245Y-5461861D01*
X9812420Y-5435628D01*
X9812950Y-5434230D01*
X9824227Y-5409173D01*
X9824922Y-5407848D01*
X9839138Y-5384333D01*
X9839987Y-5383103D01*
X9856933Y-5361473D01*
X9857925Y-5360354D01*
X9877354Y-5340925D01*
X9878473Y-5339933D01*
X9900103Y-5322987D01*
X9901333Y-5322138D01*
X9924848Y-5307922D01*
X9926173Y-5307227D01*
X9951230Y-5295950D01*
X9952628Y-5295420D01*
X9978861Y-5287245D01*
X9980313Y-5286887D01*
X10007340Y-5281935D01*
X10008826Y-5281754D01*
X10036627Y-5280073D01*
X10037375Y-5280050D01*
X10041760Y-5280050D01*
X12492240Y-5280050D01*
X12496625Y-5280050D01*
X12497374Y-5280073D01*
G37*
%TD.AperFunction*%
%TD*%
M02*
