%TF.GenerationSoftware,KiCad,Pcbnew,10.0.6*%
%TF.CreationDate,2026-09-11T19:42:05-05:00*%
%TF.ProjectId,Flight Computer,466c6967-6874-4204-936f-6d7075746572,rev?*%
%TF.SameCoordinates,Original*%
%TF.FileFunction,Copper,L2,Inr*%
%TF.FilePolarity,Positive*%
%FSLAX45Y45*%
G04 Gerber Fmt 4.5, Leading zero omitted, Abs format (unit mm)*
G04 Created by KiCad (PCBNEW 10.0.6) date 2026-09-11 19:42:05*
%MOMM*%
%LPD*%
G01*
G04 APERTURE LIST*
G04 Aperture macros list*
%AMRoundRect*
0 Rectangle with rounded corners*
0 $1 Rounding radius*
0 $2 $3 $4 $5 $6 $7 $8 $9 X,Y pos of 4 corners*
0 Add a 4 corners polygon primitive as box body*
4,1,4,$2,$3,$4,$5,$6,$7,$8,$9,$2,$3,0*
0 Add four circle primitives for the rounded corners*
1,1,$1+$1,$2,$3*
1,1,$1+$1,$4,$5*
1,1,$1+$1,$6,$7*
1,1,$1+$1,$8,$9*
0 Add four rect primitives between the rounded corners*
20,1,$1+$1,$2,$3,$4,$5,0*
20,1,$1+$1,$4,$5,$6,$7,0*
20,1,$1+$1,$6,$7,$8,$9,0*
20,1,$1+$1,$8,$9,$2,$3,0*%
G04 Aperture macros list end*
%TA.AperFunction,ComponentPad*%
%ADD10C,3.100000*%
%TD*%
%TA.AperFunction,ComponentPad*%
%ADD11R,1.700000X1.700000*%
%TD*%
%TA.AperFunction,ComponentPad*%
%ADD12C,1.700000*%
%TD*%
%TA.AperFunction,ComponentPad*%
%ADD13RoundRect,0.249999X-0.850001X0.850001X-0.850001X-0.850001X0.850001X-0.850001X0.850001X0.850001X0*%
%TD*%
%TA.AperFunction,ComponentPad*%
%ADD14C,2.200000*%
%TD*%
%TA.AperFunction,HeatsinkPad*%
%ADD15O,2.100000X1.000000*%
%TD*%
%TA.AperFunction,HeatsinkPad*%
%ADD16O,1.800000X1.000000*%
%TD*%
%TA.AperFunction,ComponentPad*%
%ADD17RoundRect,0.249999X0.850001X-0.850001X0.850001X0.850001X-0.850001X0.850001X-0.850001X-0.850001X0*%
%TD*%
%TA.AperFunction,ViaPad*%
%ADD18C,0.600000*%
%TD*%
G04 APERTURE END LIST*
D10*
%TO.N,GND*%
%TO.C,H404*%
X12470000Y-10950000D03*
%TD*%
%TO.N,GND*%
%TO.C,H401*%
X10070000Y-5550000D03*
%TD*%
D11*
%TO.N,+3.3V*%
%TO.C,J403*%
X10020000Y-6035000D03*
D12*
%TO.N,/IO/NEOPIXEL_DO*%
X10020000Y-6289000D03*
%TO.N,/PB15*%
X10020000Y-6543000D03*
%TO.N,/PB13*%
X10020000Y-6797000D03*
%TO.N,/PB12*%
X10020000Y-7051000D03*
%TO.N,GND*%
X10020000Y-7305000D03*
%TD*%
D13*
%TO.N,GND*%
%TO.C,J405*%
X10164000Y-9658000D03*
D14*
%TO.N,VBAT*%
X10164000Y-9912000D03*
%TO.N,VCC*%
X10164000Y-10166000D03*
%TO.N,Pyro_Power*%
X10164000Y-10420000D03*
%TD*%
D15*
%TO.N,GND*%
%TO.C,J402*%
X10445500Y-8443300D03*
D16*
X10027500Y-8443300D03*
D15*
X10445500Y-9307300D03*
D16*
X10027500Y-9307300D03*
%TD*%
D17*
%TO.N,Pyro_Power*%
%TO.C,J404*%
X12370000Y-10420000D03*
D14*
%TO.N,/Pyro1*%
X12370000Y-10166000D03*
%TO.N,Pyro_Power*%
X12370000Y-9912000D03*
%TO.N,/Pyro2*%
X12370000Y-9658000D03*
%TO.N,Pyro_Power*%
X12370000Y-9404000D03*
%TO.N,/Pyro3*%
X12370000Y-9150000D03*
%TD*%
D10*
%TO.N,GND*%
%TO.C,H403*%
X10070000Y-10950000D03*
%TD*%
D11*
%TO.N,GND*%
%TO.C,J401*%
X11901995Y-11050000D03*
D12*
%TO.N,/PB0*%
X11647995Y-11050000D03*
%TO.N,/PB1*%
X11393995Y-11050000D03*
%TO.N,/PB2*%
X11139995Y-11050000D03*
%TO.N,/PB10*%
X10885995Y-11050000D03*
%TO.N,VCC*%
X10631995Y-11050000D03*
%TD*%
D10*
%TO.N,GND*%
%TO.C,H402*%
X12470000Y-5550000D03*
%TD*%
D18*
%TO.N,GND*%
X10776000Y-5971000D03*
X11109960Y-7777480D03*
X11836400Y-6654800D03*
X11115000Y-7975000D03*
X10310500Y-8834120D03*
X10652788Y-9326880D03*
X12044680Y-9326880D03*
X11699240Y-7609840D03*
X10802500Y-10692500D03*
X10307500Y-7532500D03*
X10964000Y-5702000D03*
X11606000Y-8636000D03*
X10706100Y-6705600D03*
X11983720Y-7752080D03*
X10896600Y-6350000D03*
X12192000Y-8285480D03*
X11990000Y-6470000D03*
X10765200Y-6350000D03*
X12487075Y-8847255D03*
X11655357Y-7835000D03*
X10773000Y-6080000D03*
X11868160Y-7055000D03*
X11465560Y-9794240D03*
X11074400Y-6794500D03*
X10380000Y-10715000D03*
X11378365Y-8423475D03*
X10948680Y-7970486D03*
X10581640Y-7503160D03*
X12065000Y-8696960D03*
X10784840Y-7767320D03*
X10827000Y-5710000D03*
%TO.N,/PA9*%
X11106780Y-8494937D03*
X11253950Y-9675000D03*
%TO.N,+3.3V*%
X11023600Y-6177500D03*
X11455400Y-8327700D03*
X12654280Y-6517640D03*
X10310500Y-8950960D03*
X10017760Y-7757160D03*
X10972800Y-9540240D03*
X11583989Y-9396411D03*
X10887735Y-10237265D03*
X10114280Y-8102600D03*
X11107650Y-7612150D03*
X10415000Y-10622500D03*
X11441800Y-5435600D03*
X11922760Y-8300720D03*
X12550000Y-7557800D03*
X12133580Y-8752840D03*
X11455000Y-7111600D03*
X11194189Y-8027678D03*
X12038271Y-8566460D03*
X12379960Y-8727440D03*
X11060000Y-9895000D03*
X11780740Y-7741920D03*
X10185400Y-7838440D03*
X11217000Y-8407400D03*
X12059920Y-6643810D03*
%TO.N,/PC1*%
X11592384Y-9013820D03*
%TO.N,/I2C_SCL*%
X10294000Y-8102600D03*
X10798725Y-8253775D03*
%TO.N,/I2C_SDA*%
X10185400Y-7937500D03*
%TO.N,/BOOT0*%
X12425880Y-8554300D03*
%TO.N,/PA0*%
X11540558Y-9483159D03*
%TO.N,/Pyro/P2_FET_G*%
X11760200Y-9914640D03*
%TO.N,/PB15*%
X10625974Y-8438396D03*
%TO.N,/PB13*%
X10787485Y-8709224D03*
%TO.N,/PB12*%
X10736078Y-8760631D03*
%TO.N,/PC11*%
X11631865Y-8076865D03*
%TO.N,/PC10*%
X11650180Y-7907515D03*
%TO.N,/PB9*%
X11798057Y-8675557D03*
%TO.N,VBAT*%
X12550000Y-7790000D03*
%TO.N,Pyro_Power*%
X11020000Y-10420000D03*
%TO.N,/NRST*%
X12636500Y-8615680D03*
X11784983Y-9229280D03*
%TO.N,/SWCLK*%
X11517010Y-8005430D03*
X12561227Y-8029227D03*
%TO.N,/SWDIO*%
X10948680Y-8043186D03*
X12034520Y-8148200D03*
%TO.N,VBUS*%
X10363200Y-8658033D03*
X10363200Y-9093200D03*
%TO.N,/IO/USB_CC1*%
X10310500Y-8750300D03*
%TO.N,/USB_DP_P*%
X10875980Y-8052005D03*
%TO.N,/USB_DP_N*%
X10874723Y-8125277D03*
%TO.N,/IO/USB_CC2*%
X10304736Y-9049988D03*
%TO.N,/IO/BUZZER_POS*%
X12630000Y-6240000D03*
%TO.N,/IO/BUZZER_NEG*%
X12552246Y-6608710D03*
%TO.N,/MCU/FLASH_CS*%
X11846560Y-8285480D03*
%TO.N,/SPI_MISO*%
X11590000Y-8900160D03*
X11054080Y-8900160D03*
X11054080Y-8346440D03*
X10806865Y-7491295D03*
X11973560Y-7360000D03*
%TO.N,/MCU/{slash}FLASH_WP*%
X12310000Y-7360000D03*
%TO.N,/SPI_MOSI*%
X11733375Y-8847375D03*
X11001380Y-8847460D03*
X10713491Y-7546980D03*
X12436358Y-7265700D03*
%TO.N,/SPI_SCK*%
X11868200Y-8768080D03*
X11236805Y-8231509D03*
X10657840Y-7498080D03*
X12308840Y-7076440D03*
%TO.N,/PC8*%
X10948680Y-8548029D03*
X11144840Y-8416245D03*
%TO.N,/PA15*%
X11309300Y-8226056D03*
%TO.N,/PB14*%
X10578460Y-8229226D03*
%TO.N,/PB0*%
X10942252Y-8979426D03*
%TO.N,/PB1*%
X10885587Y-8933882D03*
%TO.N,/PB2*%
X10815200Y-8897300D03*
%TO.N,/PB10*%
X10762500Y-8840000D03*
%TO.N,/PC13*%
X11906200Y-5435600D03*
X12496000Y-8300000D03*
X12007540Y-8989144D03*
%TO.N,/PB5*%
X11602720Y-8458200D03*
%TO.N,/PC3*%
X12075160Y-9479280D03*
%TO.N,/PB7*%
X12110720Y-8265160D03*
X12240450Y-7315200D03*
%TO.N,/PC14*%
X12141200Y-9042400D03*
X10993120Y-7546980D03*
%TO.N,/PC7*%
X10683240Y-8310890D03*
X10866120Y-7546980D03*
%TO.N,/PC6*%
X10647680Y-7122160D03*
X10631366Y-8365895D03*
%TD*%
%TA.AperFunction,Conductor*%
%TO.N,GND*%
G36*
X12497374Y-5280073D02*
G01*
X12525174Y-5281754D01*
X12526660Y-5281935D01*
X12534184Y-5283314D01*
X12553687Y-5286887D01*
X12555139Y-5287246D01*
X12581371Y-5295420D01*
X12582771Y-5295950D01*
X12607827Y-5307227D01*
X12609152Y-5307923D01*
X12632666Y-5322137D01*
X12633897Y-5322987D01*
X12644014Y-5330913D01*
X12655526Y-5339933D01*
X12656647Y-5340926D01*
X12676074Y-5360353D01*
X12677067Y-5361474D01*
X12694012Y-5383102D01*
X12694863Y-5384335D01*
X12709077Y-5407848D01*
X12709773Y-5409174D01*
X12721049Y-5434229D01*
X12721580Y-5435629D01*
X12729754Y-5461860D01*
X12730113Y-5463314D01*
X12735065Y-5490339D01*
X12735246Y-5491826D01*
X12736927Y-5519626D01*
X12736950Y-5520375D01*
X12736950Y-10979625D01*
X12736927Y-10980374D01*
X12735246Y-11008174D01*
X12735065Y-11009661D01*
X12730113Y-11036686D01*
X12729754Y-11038140D01*
X12721580Y-11064371D01*
X12721049Y-11065771D01*
X12709773Y-11090826D01*
X12709077Y-11092152D01*
X12694863Y-11115665D01*
X12694012Y-11116898D01*
X12677067Y-11138526D01*
X12676074Y-11139647D01*
X12656647Y-11159074D01*
X12655526Y-11160067D01*
X12633897Y-11177012D01*
X12632665Y-11177863D01*
X12609152Y-11192077D01*
X12607826Y-11192773D01*
X12582771Y-11204049D01*
X12581371Y-11204580D01*
X12555140Y-11212754D01*
X12553686Y-11213113D01*
X12526660Y-11218065D01*
X12525174Y-11218246D01*
X12497374Y-11219927D01*
X12496625Y-11219950D01*
X10037375Y-11219950D01*
X10036627Y-11219927D01*
X10008826Y-11218246D01*
X10007340Y-11218065D01*
X9980314Y-11213113D01*
X9978860Y-11212754D01*
X9952629Y-11204580D01*
X9951229Y-11204049D01*
X9926174Y-11192773D01*
X9924848Y-11192077D01*
X9901335Y-11177863D01*
X9900102Y-11177012D01*
X9878474Y-11160067D01*
X9877353Y-11159074D01*
X9857926Y-11139647D01*
X9856933Y-11138526D01*
X9839988Y-11116898D01*
X9839988Y-11116898D01*
X9839987Y-11116897D01*
X9839137Y-11115666D01*
X9824923Y-11092152D01*
X9824227Y-11090826D01*
X9812951Y-11065771D01*
X9812420Y-11064371D01*
X9812124Y-11063422D01*
X9804717Y-11039653D01*
X10526945Y-11039653D01*
X10526945Y-11060347D01*
X10530982Y-11080641D01*
X10530982Y-11080642D01*
X10538901Y-11099760D01*
X10550398Y-11116966D01*
X10565029Y-11131598D01*
X10565030Y-11131598D01*
X10582235Y-11143094D01*
X10601353Y-11151013D01*
X10621648Y-11155050D01*
X10621649Y-11155050D01*
X10621649Y-11155050D01*
X10642342Y-11155050D01*
X10642342Y-11155050D01*
X10662637Y-11151013D01*
X10681755Y-11143094D01*
X10698961Y-11131598D01*
X10713593Y-11116966D01*
X10725089Y-11099760D01*
X10733008Y-11080642D01*
X10737045Y-11060347D01*
X10737045Y-11039654D01*
X10737045Y-11039653D01*
X10780945Y-11039653D01*
X10780945Y-11060347D01*
X10784982Y-11080641D01*
X10784982Y-11080642D01*
X10792901Y-11099760D01*
X10804398Y-11116966D01*
X10819029Y-11131598D01*
X10819030Y-11131598D01*
X10836235Y-11143094D01*
X10855353Y-11151013D01*
X10875648Y-11155050D01*
X10875649Y-11155050D01*
X10875649Y-11155050D01*
X10896342Y-11155050D01*
X10896342Y-11155050D01*
X10916637Y-11151013D01*
X10935755Y-11143094D01*
X10952961Y-11131598D01*
X10967593Y-11116966D01*
X10979089Y-11099760D01*
X10987008Y-11080642D01*
X10991045Y-11060347D01*
X10991045Y-11039654D01*
X10991045Y-11039653D01*
X11034945Y-11039653D01*
X11034945Y-11060347D01*
X11038982Y-11080641D01*
X11038982Y-11080642D01*
X11046901Y-11099760D01*
X11058398Y-11116966D01*
X11073029Y-11131598D01*
X11073030Y-11131598D01*
X11090235Y-11143094D01*
X11109353Y-11151013D01*
X11129648Y-11155050D01*
X11129649Y-11155050D01*
X11129649Y-11155050D01*
X11150342Y-11155050D01*
X11150342Y-11155050D01*
X11170637Y-11151013D01*
X11189755Y-11143094D01*
X11206961Y-11131598D01*
X11221593Y-11116966D01*
X11233089Y-11099760D01*
X11241008Y-11080642D01*
X11245045Y-11060347D01*
X11245045Y-11039654D01*
X11245045Y-11039653D01*
X11288945Y-11039653D01*
X11288945Y-11060347D01*
X11292982Y-11080641D01*
X11292982Y-11080642D01*
X11300901Y-11099760D01*
X11312398Y-11116966D01*
X11327029Y-11131598D01*
X11327030Y-11131598D01*
X11344235Y-11143094D01*
X11363353Y-11151013D01*
X11383648Y-11155050D01*
X11383649Y-11155050D01*
X11383649Y-11155050D01*
X11404342Y-11155050D01*
X11404342Y-11155050D01*
X11424637Y-11151013D01*
X11443755Y-11143094D01*
X11460961Y-11131598D01*
X11475593Y-11116966D01*
X11487089Y-11099760D01*
X11495008Y-11080642D01*
X11499045Y-11060347D01*
X11499045Y-11039654D01*
X11499045Y-11039653D01*
X11542945Y-11039653D01*
X11542945Y-11060347D01*
X11546982Y-11080641D01*
X11546982Y-11080642D01*
X11554901Y-11099760D01*
X11566398Y-11116966D01*
X11581029Y-11131598D01*
X11581030Y-11131598D01*
X11598235Y-11143094D01*
X11617353Y-11151013D01*
X11637648Y-11155050D01*
X11637649Y-11155050D01*
X11637649Y-11155050D01*
X11658342Y-11155050D01*
X11658342Y-11155050D01*
X11678637Y-11151013D01*
X11697755Y-11143094D01*
X11714961Y-11131598D01*
X11729593Y-11116966D01*
X11741089Y-11099760D01*
X11749008Y-11080642D01*
X11752433Y-11063422D01*
X11755672Y-11057231D01*
X11761743Y-11053773D01*
X11768720Y-11054147D01*
X11774388Y-11058234D01*
X11776946Y-11064736D01*
X11776995Y-11065841D01*
X11776995Y-11138148D01*
X11778479Y-11147515D01*
X11778479Y-11147516D01*
X11784231Y-11158804D01*
X11784231Y-11158805D01*
X11793190Y-11167764D01*
X11793190Y-11167764D01*
X11804481Y-11173517D01*
X11813847Y-11175000D01*
X11876995Y-11175000D01*
X11876995Y-11175000D01*
X11876995Y-11093301D01*
X11882696Y-11096593D01*
X11895413Y-11100000D01*
X11908578Y-11100000D01*
X11921294Y-11096593D01*
X11926995Y-11093301D01*
X11926995Y-11175000D01*
X11990143Y-11175000D01*
X11999510Y-11173516D01*
X11999511Y-11173516D01*
X12010799Y-11167764D01*
X12010800Y-11167764D01*
X12019759Y-11158805D01*
X12019759Y-11158805D01*
X12025512Y-11147514D01*
X12026995Y-11138149D01*
X12026995Y-11075000D01*
X11945296Y-11075000D01*
X11948588Y-11069299D01*
X11951995Y-11056583D01*
X11951995Y-11043417D01*
X11948588Y-11030701D01*
X11945296Y-11025000D01*
X12026995Y-11025000D01*
X12026995Y-10961852D01*
X12025512Y-10952485D01*
X12025511Y-10952484D01*
X12019759Y-10941196D01*
X12019759Y-10941195D01*
X12010800Y-10932236D01*
X12010800Y-10932236D01*
X11999510Y-10926483D01*
X11990144Y-10925000D01*
X11926995Y-10925000D01*
X11926995Y-11006699D01*
X11921294Y-11003408D01*
X11908578Y-11000000D01*
X11895413Y-11000000D01*
X11882696Y-11003408D01*
X11876995Y-11006699D01*
X11876995Y-10925000D01*
X11813847Y-10925000D01*
X11804480Y-10926484D01*
X11804480Y-10926484D01*
X11793191Y-10932236D01*
X11793190Y-10932236D01*
X11784231Y-10941195D01*
X11784231Y-10941195D01*
X11778478Y-10952486D01*
X11776995Y-10961851D01*
X11776995Y-11034159D01*
X11775027Y-11040863D01*
X11769746Y-11045439D01*
X11762830Y-11046433D01*
X11756475Y-11043530D01*
X11752697Y-11037653D01*
X11752433Y-11036578D01*
X11750529Y-11027003D01*
X11749008Y-11019358D01*
X11741089Y-11000240D01*
X11729593Y-10983035D01*
X11729593Y-10983034D01*
X11714961Y-10968402D01*
X11705156Y-10961851D01*
X11697755Y-10956906D01*
X11678637Y-10948987D01*
X11678636Y-10948987D01*
X11658342Y-10944950D01*
X11658342Y-10944950D01*
X11637649Y-10944950D01*
X11637648Y-10944950D01*
X11617354Y-10948987D01*
X11617353Y-10948987D01*
X11598235Y-10956906D01*
X11581029Y-10968402D01*
X11566398Y-10983034D01*
X11554901Y-11000240D01*
X11546982Y-11019358D01*
X11546982Y-11019359D01*
X11542945Y-11039653D01*
X11499045Y-11039653D01*
X11495008Y-11019358D01*
X11487089Y-11000240D01*
X11475593Y-10983035D01*
X11475593Y-10983034D01*
X11460961Y-10968402D01*
X11451156Y-10961851D01*
X11443755Y-10956906D01*
X11424637Y-10948987D01*
X11424636Y-10948987D01*
X11404342Y-10944950D01*
X11404342Y-10944950D01*
X11383649Y-10944950D01*
X11383648Y-10944950D01*
X11363354Y-10948987D01*
X11363353Y-10948987D01*
X11344235Y-10956906D01*
X11327029Y-10968402D01*
X11312398Y-10983034D01*
X11300901Y-11000240D01*
X11292982Y-11019358D01*
X11292982Y-11019359D01*
X11288945Y-11039653D01*
X11245045Y-11039653D01*
X11241008Y-11019358D01*
X11233089Y-11000240D01*
X11221593Y-10983035D01*
X11221593Y-10983034D01*
X11206961Y-10968402D01*
X11197156Y-10961851D01*
X11189755Y-10956906D01*
X11170637Y-10948987D01*
X11170636Y-10948987D01*
X11150342Y-10944950D01*
X11150342Y-10944950D01*
X11129649Y-10944950D01*
X11129648Y-10944950D01*
X11109354Y-10948987D01*
X11109353Y-10948987D01*
X11090236Y-10956906D01*
X11073029Y-10968402D01*
X11058398Y-10983034D01*
X11046901Y-11000240D01*
X11038982Y-11019358D01*
X11038982Y-11019359D01*
X11034945Y-11039653D01*
X10991045Y-11039653D01*
X10987008Y-11019358D01*
X10979089Y-11000240D01*
X10967593Y-10983035D01*
X10967593Y-10983034D01*
X10952961Y-10968402D01*
X10943157Y-10961851D01*
X10935755Y-10956906D01*
X10916637Y-10948987D01*
X10916636Y-10948987D01*
X10896342Y-10944950D01*
X10896342Y-10944950D01*
X10875649Y-10944950D01*
X10875648Y-10944950D01*
X10855354Y-10948987D01*
X10855353Y-10948987D01*
X10836236Y-10956906D01*
X10819029Y-10968402D01*
X10804398Y-10983034D01*
X10792901Y-11000240D01*
X10784982Y-11019358D01*
X10784982Y-11019359D01*
X10780945Y-11039653D01*
X10737045Y-11039653D01*
X10733008Y-11019358D01*
X10725089Y-11000240D01*
X10713593Y-10983035D01*
X10713593Y-10983034D01*
X10698961Y-10968402D01*
X10689157Y-10961851D01*
X10681755Y-10956906D01*
X10662637Y-10948987D01*
X10662636Y-10948987D01*
X10642342Y-10944950D01*
X10642342Y-10944950D01*
X10621649Y-10944950D01*
X10621648Y-10944950D01*
X10601354Y-10948987D01*
X10601353Y-10948987D01*
X10582236Y-10956906D01*
X10565029Y-10968402D01*
X10550398Y-10983034D01*
X10538901Y-11000240D01*
X10530982Y-11019358D01*
X10530982Y-11019359D01*
X10526945Y-11039653D01*
X9804717Y-11039653D01*
X9804245Y-11038138D01*
X9803887Y-11036686D01*
X9803868Y-11036578D01*
X9798935Y-11009660D01*
X9798754Y-11008174D01*
X9797073Y-10980374D01*
X9797050Y-10979625D01*
X9797050Y-10615911D01*
X10364950Y-10615911D01*
X10364950Y-10629089D01*
X10368361Y-10641819D01*
X10371655Y-10647525D01*
X10374950Y-10653231D01*
X10384269Y-10662550D01*
X10395681Y-10669139D01*
X10408411Y-10672550D01*
X10408411Y-10672550D01*
X10421589Y-10672550D01*
X10421589Y-10672550D01*
X10434319Y-10669139D01*
X10445731Y-10662550D01*
X10455050Y-10653231D01*
X10461639Y-10641819D01*
X10465050Y-10629089D01*
X10465050Y-10615911D01*
X10461639Y-10603181D01*
X10455050Y-10591769D01*
X10445731Y-10582450D01*
X10440025Y-10579155D01*
X10434319Y-10575861D01*
X10427954Y-10574155D01*
X10421589Y-10572450D01*
X10408411Y-10572450D01*
X10395681Y-10575861D01*
X10384269Y-10582450D01*
X10384268Y-10582450D01*
X10374950Y-10591768D01*
X10374950Y-10591769D01*
X10368361Y-10603181D01*
X10364950Y-10615911D01*
X9797050Y-10615911D01*
X9797050Y-9566435D01*
X10014000Y-9566435D01*
X10014000Y-9633000D01*
X10114925Y-9633000D01*
X10112748Y-9636771D01*
X10109000Y-9650759D01*
X10109000Y-9665241D01*
X10112748Y-9679229D01*
X10114925Y-9683000D01*
X10014000Y-9683000D01*
X10014000Y-9749565D01*
X10014290Y-9753249D01*
X10014290Y-9753250D01*
X10018872Y-9769019D01*
X10018872Y-9769020D01*
X10027231Y-9783155D01*
X10027232Y-9783156D01*
X10038844Y-9794768D01*
X10038845Y-9794769D01*
X10052980Y-9803128D01*
X10060720Y-9805377D01*
X10066609Y-9809138D01*
X10069529Y-9815485D01*
X10068555Y-9822403D01*
X10066029Y-9826052D01*
X10064803Y-9827279D01*
X10052772Y-9843839D01*
X10043478Y-9862078D01*
X10037152Y-9881547D01*
X10033950Y-9901765D01*
X10033950Y-9922235D01*
X10037152Y-9942453D01*
X10043478Y-9961922D01*
X10052772Y-9980161D01*
X10064803Y-9996721D01*
X10079279Y-10011197D01*
X10095839Y-10023228D01*
X10095839Y-10023229D01*
X10095839Y-10023229D01*
X10105108Y-10027952D01*
X10110188Y-10032749D01*
X10111867Y-10039531D01*
X10109613Y-10046144D01*
X10105108Y-10050048D01*
X10095839Y-10054771D01*
X10095839Y-10054771D01*
X10079279Y-10066803D01*
X10064803Y-10081279D01*
X10052772Y-10097839D01*
X10043478Y-10116078D01*
X10037152Y-10135546D01*
X10033950Y-10155765D01*
X10033950Y-10176235D01*
X10037152Y-10196453D01*
X10043478Y-10215922D01*
X10049869Y-10228465D01*
X10050995Y-10230676D01*
X10052772Y-10234161D01*
X10064803Y-10250721D01*
X10079279Y-10265197D01*
X10095839Y-10277228D01*
X10095839Y-10277228D01*
X10095839Y-10277229D01*
X10105108Y-10281952D01*
X10110188Y-10286749D01*
X10111867Y-10293531D01*
X10109614Y-10300144D01*
X10105108Y-10304048D01*
X10095839Y-10308771D01*
X10095839Y-10308771D01*
X10079279Y-10320803D01*
X10064803Y-10335279D01*
X10052772Y-10351839D01*
X10043478Y-10370078D01*
X10037152Y-10389547D01*
X10033950Y-10409765D01*
X10033950Y-10430235D01*
X10037152Y-10450453D01*
X10043478Y-10469922D01*
X10052772Y-10488161D01*
X10064803Y-10504721D01*
X10079279Y-10519197D01*
X10094775Y-10530456D01*
X10095839Y-10531229D01*
X10107461Y-10537150D01*
X10114078Y-10540522D01*
X10114078Y-10540522D01*
X10114078Y-10540522D01*
X10124514Y-10543913D01*
X10133547Y-10546848D01*
X10143656Y-10548449D01*
X10153765Y-10550050D01*
X10153765Y-10550050D01*
X10174235Y-10550050D01*
X10174235Y-10550050D01*
X10194453Y-10546848D01*
X10213922Y-10540522D01*
X10232161Y-10531229D01*
X10241459Y-10524473D01*
X10248721Y-10519197D01*
X10248722Y-10519197D01*
X10248722Y-10519197D01*
X10263197Y-10504722D01*
X10263197Y-10504722D01*
X10263197Y-10504721D01*
X10268473Y-10497459D01*
X10275229Y-10488161D01*
X10284522Y-10469922D01*
X10290848Y-10450453D01*
X10294050Y-10430235D01*
X10294050Y-10413411D01*
X10969950Y-10413411D01*
X10969950Y-10426589D01*
X10973361Y-10439319D01*
X10976655Y-10445025D01*
X10979950Y-10450731D01*
X10989269Y-10460050D01*
X11000681Y-10466639D01*
X11013411Y-10470050D01*
X11013411Y-10470050D01*
X11026589Y-10470050D01*
X11026589Y-10470050D01*
X11039319Y-10466639D01*
X11050731Y-10460050D01*
X11060050Y-10450731D01*
X11066639Y-10439319D01*
X11070050Y-10426589D01*
X11070050Y-10413411D01*
X11066639Y-10400681D01*
X11060050Y-10389269D01*
X11050731Y-10379950D01*
X11045025Y-10376655D01*
X11039319Y-10373361D01*
X11032954Y-10371655D01*
X11026589Y-10369950D01*
X11013411Y-10369950D01*
X11000681Y-10373361D01*
X10989269Y-10379950D01*
X10989268Y-10379950D01*
X10979950Y-10389268D01*
X10979950Y-10389269D01*
X10973361Y-10400681D01*
X10969950Y-10413411D01*
X10294050Y-10413411D01*
X10294050Y-10409765D01*
X10290848Y-10389547D01*
X10284522Y-10370078D01*
X10284522Y-10370078D01*
X10284522Y-10370078D01*
X10281150Y-10363461D01*
X10275229Y-10351839D01*
X10274456Y-10350775D01*
X10263197Y-10335279D01*
X10248721Y-10320803D01*
X10232161Y-10308772D01*
X10232161Y-10308771D01*
X10232161Y-10308771D01*
X10222892Y-10304048D01*
X10217812Y-10299251D01*
X10216133Y-10292469D01*
X10218386Y-10285855D01*
X10222892Y-10281952D01*
X10232161Y-10277229D01*
X10242895Y-10269430D01*
X10248721Y-10265197D01*
X10248722Y-10265197D01*
X10248722Y-10265197D01*
X10263197Y-10250722D01*
X10263197Y-10250721D01*
X10263197Y-10250721D01*
X10275228Y-10234161D01*
X10275229Y-10234161D01*
X10275229Y-10234161D01*
X10277005Y-10230675D01*
X10837685Y-10230675D01*
X10837685Y-10243854D01*
X10841096Y-10256583D01*
X10844391Y-10262290D01*
X10847685Y-10267996D01*
X10857004Y-10277315D01*
X10868417Y-10283904D01*
X10881146Y-10287315D01*
X10881146Y-10287315D01*
X10894324Y-10287315D01*
X10894325Y-10287315D01*
X10907054Y-10283904D01*
X10918467Y-10277315D01*
X10927785Y-10267996D01*
X10934375Y-10256583D01*
X10937785Y-10243854D01*
X10937785Y-10230675D01*
X10934375Y-10217946D01*
X10927785Y-10206533D01*
X10918467Y-10197215D01*
X10912760Y-10193920D01*
X10907054Y-10190625D01*
X10900689Y-10188920D01*
X10894325Y-10187215D01*
X10881146Y-10187215D01*
X10868417Y-10190625D01*
X10857004Y-10197215D01*
X10857004Y-10197215D01*
X10847686Y-10206533D01*
X10847685Y-10206533D01*
X10841096Y-10217946D01*
X10837685Y-10230675D01*
X10277005Y-10230675D01*
X10284522Y-10215922D01*
X10290848Y-10196453D01*
X10294050Y-10176235D01*
X10294050Y-10155765D01*
X10290848Y-10135547D01*
X10284522Y-10116078D01*
X10284522Y-10116078D01*
X10284522Y-10116078D01*
X10281150Y-10109461D01*
X10275229Y-10097839D01*
X10274456Y-10096775D01*
X10263197Y-10081279D01*
X10248721Y-10066803D01*
X10232161Y-10054771D01*
X10232161Y-10054771D01*
X10232161Y-10054771D01*
X10222892Y-10050048D01*
X10217812Y-10045251D01*
X10216133Y-10038469D01*
X10218387Y-10031855D01*
X10222892Y-10027952D01*
X10232161Y-10023229D01*
X10237114Y-10019630D01*
X10248721Y-10011197D01*
X10248722Y-10011197D01*
X10248722Y-10011197D01*
X10263197Y-9996722D01*
X10263197Y-9996721D01*
X10263197Y-9996721D01*
X10268473Y-9989459D01*
X10275229Y-9980161D01*
X10284522Y-9961922D01*
X10290848Y-9942453D01*
X10294050Y-9922235D01*
X10294050Y-9901765D01*
X10291935Y-9888411D01*
X11009950Y-9888411D01*
X11009950Y-9901589D01*
X11013361Y-9914319D01*
X11016655Y-9920025D01*
X11019950Y-9925731D01*
X11029269Y-9935050D01*
X11040681Y-9941639D01*
X11053411Y-9945050D01*
X11053411Y-9945050D01*
X11066589Y-9945050D01*
X11066589Y-9945050D01*
X11079319Y-9941639D01*
X11090731Y-9935050D01*
X11100050Y-9925731D01*
X11106639Y-9914319D01*
X11108319Y-9908051D01*
X11710150Y-9908051D01*
X11710150Y-9921229D01*
X11711356Y-9925732D01*
X11713561Y-9933959D01*
X11714191Y-9935050D01*
X11720150Y-9945371D01*
X11729469Y-9954690D01*
X11740881Y-9961279D01*
X11753611Y-9964690D01*
X11753611Y-9964690D01*
X11766789Y-9964690D01*
X11766789Y-9964690D01*
X11779519Y-9961279D01*
X11790931Y-9954690D01*
X11800250Y-9945371D01*
X11806839Y-9933959D01*
X11810250Y-9921229D01*
X11810250Y-9908051D01*
X11806839Y-9895321D01*
X11800250Y-9883909D01*
X11790931Y-9874590D01*
X11785225Y-9871295D01*
X11779519Y-9868001D01*
X11773154Y-9866295D01*
X11766789Y-9864590D01*
X11753611Y-9864590D01*
X11740881Y-9868001D01*
X11729469Y-9874590D01*
X11729468Y-9874590D01*
X11720150Y-9883908D01*
X11720150Y-9883909D01*
X11713561Y-9895321D01*
X11711834Y-9901765D01*
X11710150Y-9908051D01*
X11108319Y-9908051D01*
X11110050Y-9901589D01*
X11110050Y-9888411D01*
X11106639Y-9875681D01*
X11100050Y-9864269D01*
X11090731Y-9854950D01*
X11085025Y-9851655D01*
X11079319Y-9848361D01*
X11072954Y-9846655D01*
X11066589Y-9844950D01*
X11053411Y-9844950D01*
X11040681Y-9848361D01*
X11029269Y-9854950D01*
X11029268Y-9854950D01*
X11019950Y-9864268D01*
X11019950Y-9864269D01*
X11013361Y-9875681D01*
X11009950Y-9888411D01*
X10291935Y-9888411D01*
X10290848Y-9881547D01*
X10284522Y-9862078D01*
X10284522Y-9862078D01*
X10284522Y-9862078D01*
X10280890Y-9854950D01*
X10275229Y-9843839D01*
X10274456Y-9842775D01*
X10263197Y-9827279D01*
X10261971Y-9826053D01*
X10258623Y-9819920D01*
X10259121Y-9812951D01*
X10263308Y-9807358D01*
X10267280Y-9805377D01*
X10275020Y-9803128D01*
X10289155Y-9794769D01*
X10289156Y-9794768D01*
X10300768Y-9783156D01*
X10300769Y-9783155D01*
X10309128Y-9769020D01*
X10309128Y-9769019D01*
X10313710Y-9753250D01*
X10313710Y-9753249D01*
X10314000Y-9749565D01*
X10314000Y-9749563D01*
X10314000Y-9683000D01*
X10213075Y-9683000D01*
X10215252Y-9679229D01*
X10218151Y-9668411D01*
X11203900Y-9668411D01*
X11203900Y-9681589D01*
X11207311Y-9694319D01*
X11210605Y-9700025D01*
X11213900Y-9705731D01*
X11223219Y-9715050D01*
X11234631Y-9721639D01*
X11247361Y-9725050D01*
X11247361Y-9725050D01*
X11260539Y-9725050D01*
X11260539Y-9725050D01*
X11273269Y-9721639D01*
X11284681Y-9715050D01*
X11294000Y-9705731D01*
X11300589Y-9694319D01*
X11304000Y-9681589D01*
X11304000Y-9668411D01*
X11300589Y-9655681D01*
X11294000Y-9644269D01*
X11284681Y-9634950D01*
X11278975Y-9631655D01*
X11273269Y-9628361D01*
X11266904Y-9626655D01*
X11260539Y-9624950D01*
X11247361Y-9624950D01*
X11234631Y-9628361D01*
X11223219Y-9634950D01*
X11223218Y-9634950D01*
X11213900Y-9644268D01*
X11213900Y-9644269D01*
X11207311Y-9655681D01*
X11203900Y-9668411D01*
X10218151Y-9668411D01*
X10219000Y-9665241D01*
X10219000Y-9650759D01*
X10215252Y-9636771D01*
X10213075Y-9633000D01*
X10314000Y-9633000D01*
X10314000Y-9566437D01*
X10314000Y-9566435D01*
X10313710Y-9562751D01*
X10313710Y-9562750D01*
X10309128Y-9546981D01*
X10309128Y-9546980D01*
X10304498Y-9539150D01*
X10304497Y-9539150D01*
X10301245Y-9533651D01*
X10922750Y-9533651D01*
X10922750Y-9546829D01*
X10926161Y-9559559D01*
X10928004Y-9562750D01*
X10932750Y-9570971D01*
X10942069Y-9580290D01*
X10953481Y-9586879D01*
X10966211Y-9590290D01*
X10966211Y-9590290D01*
X10979389Y-9590290D01*
X10979389Y-9590290D01*
X10992119Y-9586879D01*
X11003531Y-9580290D01*
X11012850Y-9570971D01*
X11019439Y-9559559D01*
X11022850Y-9546829D01*
X11022850Y-9533651D01*
X11019439Y-9520921D01*
X11012850Y-9509509D01*
X11003531Y-9500190D01*
X10997825Y-9496895D01*
X10992119Y-9493601D01*
X10985754Y-9491895D01*
X10979389Y-9490190D01*
X10966211Y-9490190D01*
X10953481Y-9493601D01*
X10942069Y-9500190D01*
X10942068Y-9500190D01*
X10932750Y-9509508D01*
X10932750Y-9509509D01*
X10926161Y-9520921D01*
X10922750Y-9533651D01*
X10301245Y-9533651D01*
X10300769Y-9532845D01*
X10300768Y-9532844D01*
X10289156Y-9521232D01*
X10289155Y-9521231D01*
X10275020Y-9512872D01*
X10275019Y-9512872D01*
X10259250Y-9508290D01*
X10259249Y-9508290D01*
X10255565Y-9508000D01*
X10189000Y-9508000D01*
X10189000Y-9608925D01*
X10185229Y-9606748D01*
X10171241Y-9603000D01*
X10156759Y-9603000D01*
X10142771Y-9606748D01*
X10139000Y-9608925D01*
X10139000Y-9508000D01*
X10072435Y-9508000D01*
X10068751Y-9508290D01*
X10068750Y-9508290D01*
X10052981Y-9512872D01*
X10052980Y-9512872D01*
X10038845Y-9521231D01*
X10038844Y-9521232D01*
X10027232Y-9532844D01*
X10027231Y-9532845D01*
X10018872Y-9546980D01*
X10018872Y-9546981D01*
X10014290Y-9562750D01*
X10014290Y-9562751D01*
X10014000Y-9566435D01*
X9797050Y-9566435D01*
X9797050Y-9476569D01*
X11490508Y-9476569D01*
X11490508Y-9489748D01*
X11493919Y-9502477D01*
X11497108Y-9508000D01*
X11500508Y-9513890D01*
X11509827Y-9523209D01*
X11521240Y-9529798D01*
X11533969Y-9533209D01*
X11533969Y-9533209D01*
X11547147Y-9533209D01*
X11547148Y-9533209D01*
X11559877Y-9529798D01*
X11571290Y-9523209D01*
X11580608Y-9513890D01*
X11587198Y-9502477D01*
X11590608Y-9489748D01*
X11590608Y-9476569D01*
X11589569Y-9472691D01*
X12025110Y-9472691D01*
X12025110Y-9485869D01*
X12026815Y-9492234D01*
X12028521Y-9498599D01*
X12031815Y-9504305D01*
X12035110Y-9510011D01*
X12044429Y-9519330D01*
X12055841Y-9525919D01*
X12068571Y-9529330D01*
X12068571Y-9529330D01*
X12081749Y-9529330D01*
X12081749Y-9529330D01*
X12094479Y-9525919D01*
X12105891Y-9519330D01*
X12115210Y-9510011D01*
X12121799Y-9498599D01*
X12125210Y-9485869D01*
X12125210Y-9472691D01*
X12121799Y-9459961D01*
X12115210Y-9448549D01*
X12105891Y-9439230D01*
X12100185Y-9435935D01*
X12094479Y-9432641D01*
X12088114Y-9430935D01*
X12081749Y-9429230D01*
X12068571Y-9429230D01*
X12055841Y-9432641D01*
X12044429Y-9439230D01*
X12044428Y-9439230D01*
X12035110Y-9448548D01*
X12035110Y-9448549D01*
X12028521Y-9459961D01*
X12025252Y-9472161D01*
X12025110Y-9472691D01*
X11589569Y-9472691D01*
X11587198Y-9463840D01*
X11586329Y-9462336D01*
X11585915Y-9460974D01*
X11585895Y-9458847D01*
X11585394Y-9456779D01*
X11585863Y-9455423D01*
X11585850Y-9453987D01*
X11586983Y-9452187D01*
X11587679Y-9450176D01*
X11588807Y-9449289D01*
X11589572Y-9448074D01*
X11591498Y-9447172D01*
X11593170Y-9445857D01*
X11594569Y-9445391D01*
X11603308Y-9443050D01*
X11614721Y-9436461D01*
X11624039Y-9427142D01*
X11630628Y-9415729D01*
X11634039Y-9403000D01*
X11634039Y-9389822D01*
X11630628Y-9377092D01*
X11624039Y-9365679D01*
X11614721Y-9356361D01*
X11609014Y-9353066D01*
X11603308Y-9349772D01*
X11596943Y-9348066D01*
X11590578Y-9346361D01*
X11577400Y-9346361D01*
X11564670Y-9349772D01*
X11553258Y-9356361D01*
X11553258Y-9356361D01*
X11543939Y-9365679D01*
X11543939Y-9365679D01*
X11537350Y-9377092D01*
X11533939Y-9389822D01*
X11533939Y-9403000D01*
X11537350Y-9415730D01*
X11537507Y-9416000D01*
X11537569Y-9416258D01*
X11537661Y-9416481D01*
X11537627Y-9416495D01*
X11539154Y-9422790D01*
X11536869Y-9429393D01*
X11531377Y-9433712D01*
X11529977Y-9434178D01*
X11528950Y-9434453D01*
X11521240Y-9436519D01*
X11521240Y-9436519D01*
X11521240Y-9436519D01*
X11509827Y-9443109D01*
X11509827Y-9443109D01*
X11500509Y-9452427D01*
X11500508Y-9452427D01*
X11493919Y-9463840D01*
X11490508Y-9476569D01*
X9797050Y-9476569D01*
X9797050Y-9282300D01*
X9900710Y-9282300D01*
X9970801Y-9282300D01*
X9969080Y-9283294D01*
X9963494Y-9288880D01*
X9959544Y-9295720D01*
X9957500Y-9303350D01*
X9957500Y-9311250D01*
X9959544Y-9318880D01*
X9963494Y-9325721D01*
X9969080Y-9331306D01*
X9970801Y-9332300D01*
X9900710Y-9332300D01*
X9900958Y-9333552D01*
X9900959Y-9333552D01*
X9907743Y-9349931D01*
X9907743Y-9349932D01*
X9917592Y-9364672D01*
X9917593Y-9364672D01*
X9930128Y-9377207D01*
X9930128Y-9377208D01*
X9944868Y-9387057D01*
X9944869Y-9387057D01*
X9961248Y-9393841D01*
X9961249Y-9393842D01*
X9978635Y-9397300D01*
X9978636Y-9397300D01*
X10002500Y-9397300D01*
X10002500Y-9337300D01*
X10052500Y-9337300D01*
X10052500Y-9397300D01*
X10076364Y-9397300D01*
X10076365Y-9397300D01*
X10093751Y-9393842D01*
X10093752Y-9393841D01*
X10110131Y-9387057D01*
X10110132Y-9387057D01*
X10124872Y-9377208D01*
X10124872Y-9377207D01*
X10137407Y-9364672D01*
X10137408Y-9364672D01*
X10147257Y-9349932D01*
X10147257Y-9349931D01*
X10154041Y-9333552D01*
X10154042Y-9333552D01*
X10154290Y-9332300D01*
X10084199Y-9332300D01*
X10085921Y-9331306D01*
X10091506Y-9325721D01*
X10095456Y-9318880D01*
X10097500Y-9311250D01*
X10097500Y-9303350D01*
X10095456Y-9295720D01*
X10091506Y-9288880D01*
X10085921Y-9283294D01*
X10084199Y-9282300D01*
X10154290Y-9282300D01*
X10154042Y-9281048D01*
X10154041Y-9281048D01*
X10147257Y-9264669D01*
X10147257Y-9264668D01*
X10137408Y-9249928D01*
X10137407Y-9249928D01*
X10124872Y-9237393D01*
X10124872Y-9237392D01*
X10110132Y-9227543D01*
X10110131Y-9227543D01*
X10093752Y-9220759D01*
X10093751Y-9220758D01*
X10076365Y-9217300D01*
X10052500Y-9217300D01*
X10052500Y-9277300D01*
X10002500Y-9277300D01*
X10002500Y-9217300D01*
X9978635Y-9217300D01*
X9961249Y-9220758D01*
X9961248Y-9220759D01*
X9944869Y-9227543D01*
X9944868Y-9227543D01*
X9930128Y-9237392D01*
X9930128Y-9237393D01*
X9917593Y-9249928D01*
X9917592Y-9249928D01*
X9907743Y-9264668D01*
X9907743Y-9264669D01*
X9900959Y-9281048D01*
X9900958Y-9281048D01*
X9900710Y-9282300D01*
X9797050Y-9282300D01*
X9797050Y-9043398D01*
X10254686Y-9043398D01*
X10254686Y-9056577D01*
X10255727Y-9060459D01*
X10258097Y-9069306D01*
X10260305Y-9073131D01*
X10264686Y-9080719D01*
X10274005Y-9090038D01*
X10285418Y-9096627D01*
X10298147Y-9100038D01*
X10298147Y-9100038D01*
X10303702Y-9100038D01*
X10310406Y-9102006D01*
X10314981Y-9107287D01*
X10315679Y-9109228D01*
X10316561Y-9112519D01*
X10323150Y-9123931D01*
X10332469Y-9133250D01*
X10343881Y-9139839D01*
X10343882Y-9139839D01*
X10344030Y-9139901D01*
X10344135Y-9139986D01*
X10344585Y-9140246D01*
X10344545Y-9140316D01*
X10349470Y-9144285D01*
X10351677Y-9150914D01*
X10351262Y-9154566D01*
X10350250Y-9158342D01*
X10350250Y-9170257D01*
X10353334Y-9181766D01*
X10353839Y-9182641D01*
X10359291Y-9192084D01*
X10359291Y-9192084D01*
X10367896Y-9200690D01*
X10371245Y-9206822D01*
X10370746Y-9213791D01*
X10366559Y-9219384D01*
X10363874Y-9220914D01*
X10347869Y-9227543D01*
X10347868Y-9227543D01*
X10333128Y-9237392D01*
X10333128Y-9237393D01*
X10320593Y-9249928D01*
X10320592Y-9249928D01*
X10310743Y-9264668D01*
X10310743Y-9264669D01*
X10303959Y-9281048D01*
X10303958Y-9281048D01*
X10303710Y-9282300D01*
X10373801Y-9282300D01*
X10372080Y-9283294D01*
X10366494Y-9288880D01*
X10362544Y-9295720D01*
X10360500Y-9303350D01*
X10360500Y-9311250D01*
X10362544Y-9318880D01*
X10366494Y-9325721D01*
X10372080Y-9331306D01*
X10373801Y-9332300D01*
X10303710Y-9332300D01*
X10303958Y-9333552D01*
X10303959Y-9333552D01*
X10310743Y-9349931D01*
X10310743Y-9349932D01*
X10320592Y-9364672D01*
X10320593Y-9364672D01*
X10333128Y-9377207D01*
X10333128Y-9377208D01*
X10347868Y-9387057D01*
X10347869Y-9387057D01*
X10364248Y-9393841D01*
X10364249Y-9393842D01*
X10381635Y-9397300D01*
X10381636Y-9397300D01*
X10420500Y-9397300D01*
X10420500Y-9337300D01*
X10470500Y-9337300D01*
X10470500Y-9397300D01*
X10509364Y-9397300D01*
X10509365Y-9397300D01*
X10526751Y-9393842D01*
X10526752Y-9393841D01*
X10543131Y-9387057D01*
X10543132Y-9387057D01*
X10557872Y-9377208D01*
X10557872Y-9377207D01*
X10570407Y-9364672D01*
X10570408Y-9364672D01*
X10580257Y-9349932D01*
X10580257Y-9349931D01*
X10587041Y-9333552D01*
X10587042Y-9333552D01*
X10587290Y-9332300D01*
X10517199Y-9332300D01*
X10518921Y-9331306D01*
X10524506Y-9325721D01*
X10528456Y-9318880D01*
X10530500Y-9311250D01*
X10530500Y-9303350D01*
X10528456Y-9295720D01*
X10524506Y-9288880D01*
X10518921Y-9283294D01*
X10517199Y-9282300D01*
X10587290Y-9282300D01*
X10587042Y-9281048D01*
X10587041Y-9281048D01*
X10580257Y-9264669D01*
X10580257Y-9264668D01*
X10570408Y-9249928D01*
X10570407Y-9249928D01*
X10557872Y-9237393D01*
X10557872Y-9237392D01*
X10550083Y-9232188D01*
X10543132Y-9227543D01*
X10543131Y-9227543D01*
X10531417Y-9222691D01*
X11734933Y-9222691D01*
X11734933Y-9235869D01*
X11738344Y-9248599D01*
X11739111Y-9249928D01*
X11744933Y-9260011D01*
X11754251Y-9269330D01*
X11765664Y-9275919D01*
X11778394Y-9279330D01*
X11778394Y-9279330D01*
X11791572Y-9279330D01*
X11791572Y-9279330D01*
X11804301Y-9275919D01*
X11815714Y-9269330D01*
X11825033Y-9260011D01*
X11831622Y-9248599D01*
X11835033Y-9235869D01*
X11835033Y-9222691D01*
X11831622Y-9209961D01*
X11825033Y-9198549D01*
X11815714Y-9189230D01*
X11810008Y-9185935D01*
X11804302Y-9182641D01*
X11796138Y-9180453D01*
X11791572Y-9179230D01*
X11778394Y-9179230D01*
X11765664Y-9182641D01*
X11754251Y-9189230D01*
X11754251Y-9189230D01*
X11744933Y-9198548D01*
X11744933Y-9198549D01*
X11738344Y-9209961D01*
X11734933Y-9222691D01*
X10531417Y-9222691D01*
X10526752Y-9220759D01*
X10526751Y-9220758D01*
X10509365Y-9217300D01*
X10470500Y-9217300D01*
X10470500Y-9277300D01*
X10420500Y-9277300D01*
X10420500Y-9215882D01*
X10418858Y-9212874D01*
X10419356Y-9205905D01*
X10422831Y-9201205D01*
X10422710Y-9201084D01*
X10425245Y-9198548D01*
X10431709Y-9192084D01*
X10437666Y-9181766D01*
X10440750Y-9170257D01*
X10440750Y-9158343D01*
X10437666Y-9146834D01*
X10437666Y-9146834D01*
X10437666Y-9146833D01*
X10436883Y-9145478D01*
X10436883Y-9145478D01*
X10435435Y-9142970D01*
X10433585Y-9139765D01*
X12239950Y-9139765D01*
X12239950Y-9160235D01*
X12243152Y-9180453D01*
X12249478Y-9199922D01*
X12258771Y-9218161D01*
X12270803Y-9234721D01*
X12285279Y-9249197D01*
X12300163Y-9260011D01*
X12301839Y-9261229D01*
X12310984Y-9265888D01*
X12311108Y-9265952D01*
X12316188Y-9270749D01*
X12317867Y-9277531D01*
X12315613Y-9284145D01*
X12311108Y-9288049D01*
X12301839Y-9292772D01*
X12285279Y-9304803D01*
X12270803Y-9319279D01*
X12258771Y-9335839D01*
X12249478Y-9354078D01*
X12243152Y-9373547D01*
X12240574Y-9389822D01*
X12239950Y-9393765D01*
X12239950Y-9414235D01*
X12240187Y-9415729D01*
X12243152Y-9434453D01*
X12249478Y-9453922D01*
X12258771Y-9472161D01*
X12270803Y-9488721D01*
X12285279Y-9503197D01*
X12298595Y-9512872D01*
X12301839Y-9515229D01*
X12310984Y-9519888D01*
X12311108Y-9519952D01*
X12316188Y-9524749D01*
X12317867Y-9531531D01*
X12315613Y-9538145D01*
X12311108Y-9542049D01*
X12301839Y-9546772D01*
X12285279Y-9558803D01*
X12270803Y-9573279D01*
X12258771Y-9589839D01*
X12249478Y-9608078D01*
X12243152Y-9627547D01*
X12239950Y-9647765D01*
X12239950Y-9668235D01*
X12240388Y-9671000D01*
X12243152Y-9688453D01*
X12249478Y-9707922D01*
X12255869Y-9720465D01*
X12258205Y-9725050D01*
X12258771Y-9726161D01*
X12270803Y-9742721D01*
X12285279Y-9757197D01*
X12301838Y-9769228D01*
X12301839Y-9769229D01*
X12301839Y-9769229D01*
X12311108Y-9773952D01*
X12316188Y-9778749D01*
X12317867Y-9785531D01*
X12315613Y-9792145D01*
X12311108Y-9796048D01*
X12301839Y-9800771D01*
X12301839Y-9800771D01*
X12285279Y-9812803D01*
X12270803Y-9827279D01*
X12258771Y-9843839D01*
X12249478Y-9862078D01*
X12243152Y-9881547D01*
X12239950Y-9901765D01*
X12239950Y-9922235D01*
X12243152Y-9942454D01*
X12249478Y-9961922D01*
X12255869Y-9974465D01*
X12258771Y-9980161D01*
X12258771Y-9980161D01*
X12270803Y-9996721D01*
X12285279Y-10011197D01*
X12301838Y-10023229D01*
X12301839Y-10023229D01*
X12301839Y-10023229D01*
X12311108Y-10027952D01*
X12316187Y-10032749D01*
X12317867Y-10039531D01*
X12315613Y-10046145D01*
X12311108Y-10050048D01*
X12301839Y-10054771D01*
X12301839Y-10054771D01*
X12285279Y-10066803D01*
X12270803Y-10081279D01*
X12258771Y-10097839D01*
X12249478Y-10116078D01*
X12243152Y-10135547D01*
X12239950Y-10155765D01*
X12239950Y-10176235D01*
X12243152Y-10196453D01*
X12249478Y-10215922D01*
X12253713Y-10224233D01*
X12258771Y-10234161D01*
X12258771Y-10234161D01*
X12270803Y-10250721D01*
X12285278Y-10265197D01*
X12285278Y-10265197D01*
X12288473Y-10267518D01*
X12292740Y-10273051D01*
X12293338Y-10280012D01*
X12290078Y-10286192D01*
X12283994Y-10289628D01*
X12281186Y-10289950D01*
X12279574Y-10289950D01*
X12278494Y-10290051D01*
X12276530Y-10290235D01*
X12276530Y-10290235D01*
X12276530Y-10290236D01*
X12276529Y-10290236D01*
X12263712Y-10294721D01*
X12252785Y-10302785D01*
X12244721Y-10313712D01*
X12240235Y-10326530D01*
X12240235Y-10326530D01*
X12239950Y-10329573D01*
X12239950Y-10510426D01*
X12239950Y-10510427D01*
X12240235Y-10513470D01*
X12240235Y-10513470D01*
X12240235Y-10513470D01*
X12240235Y-10513471D01*
X12244721Y-10526288D01*
X12252785Y-10537215D01*
X12257265Y-10540522D01*
X12263712Y-10545279D01*
X12267984Y-10546774D01*
X12276530Y-10549765D01*
X12277232Y-10549830D01*
X12279573Y-10550050D01*
X12460427Y-10550050D01*
X12463470Y-10549765D01*
X12476288Y-10545279D01*
X12487215Y-10537215D01*
X12495279Y-10526288D01*
X12497761Y-10519197D01*
X12499765Y-10513470D01*
X12499765Y-10513470D01*
X12500050Y-10510427D01*
X12500050Y-10329573D01*
X12499765Y-10326530D01*
X12495279Y-10313712D01*
X12491633Y-10308771D01*
X12487215Y-10302785D01*
X12479812Y-10297322D01*
X12476288Y-10294721D01*
X12476288Y-10294721D01*
X12463470Y-10290235D01*
X12460427Y-10289950D01*
X12460427Y-10289950D01*
X12458815Y-10289950D01*
X12452111Y-10287982D01*
X12447536Y-10282701D01*
X12446541Y-10275785D01*
X12449444Y-10269430D01*
X12451527Y-10267518D01*
X12454721Y-10265197D01*
X12454721Y-10265197D01*
X12454722Y-10265197D01*
X12469197Y-10250722D01*
X12469197Y-10250722D01*
X12469197Y-10250721D01*
X12474473Y-10243459D01*
X12481229Y-10234161D01*
X12490522Y-10215922D01*
X12496848Y-10196453D01*
X12500050Y-10176235D01*
X12500050Y-10155765D01*
X12496848Y-10135547D01*
X12496848Y-10135546D01*
X12490522Y-10116078D01*
X12487150Y-10109461D01*
X12481229Y-10097839D01*
X12480456Y-10096775D01*
X12469197Y-10081279D01*
X12454721Y-10066803D01*
X12438161Y-10054772D01*
X12438161Y-10054771D01*
X12438161Y-10054771D01*
X12428892Y-10050049D01*
X12423812Y-10045251D01*
X12422133Y-10038469D01*
X12424387Y-10031855D01*
X12428892Y-10027952D01*
X12438161Y-10023229D01*
X12443114Y-10019630D01*
X12454721Y-10011197D01*
X12454721Y-10011197D01*
X12454722Y-10011197D01*
X12469197Y-9996722D01*
X12469197Y-9996722D01*
X12469197Y-9996721D01*
X12474473Y-9989459D01*
X12481229Y-9980161D01*
X12490522Y-9961922D01*
X12496848Y-9942454D01*
X12500050Y-9922235D01*
X12500050Y-9901765D01*
X12497222Y-9883909D01*
X12496848Y-9881547D01*
X12490522Y-9862078D01*
X12483533Y-9848361D01*
X12481229Y-9843839D01*
X12480456Y-9842775D01*
X12469197Y-9827279D01*
X12454721Y-9812803D01*
X12438161Y-9800772D01*
X12438161Y-9800772D01*
X12438161Y-9800771D01*
X12428892Y-9796048D01*
X12423812Y-9791251D01*
X12422133Y-9784469D01*
X12424386Y-9777855D01*
X12428892Y-9773952D01*
X12438161Y-9769229D01*
X12443114Y-9765630D01*
X12454721Y-9757197D01*
X12454721Y-9757197D01*
X12454722Y-9757197D01*
X12469197Y-9742722D01*
X12469197Y-9742722D01*
X12469197Y-9742721D01*
X12474473Y-9735459D01*
X12481229Y-9726161D01*
X12490522Y-9707922D01*
X12496848Y-9688453D01*
X12500050Y-9668235D01*
X12500050Y-9647765D01*
X12496848Y-9627547D01*
X12490522Y-9608078D01*
X12487150Y-9601461D01*
X12481229Y-9589839D01*
X12479078Y-9586879D01*
X12469197Y-9573279D01*
X12454721Y-9558803D01*
X12438161Y-9546772D01*
X12437501Y-9546435D01*
X12428892Y-9542048D01*
X12423812Y-9537251D01*
X12422133Y-9530469D01*
X12424386Y-9523856D01*
X12428892Y-9519952D01*
X12438161Y-9515229D01*
X12446034Y-9509509D01*
X12454721Y-9503197D01*
X12454721Y-9503197D01*
X12454722Y-9503197D01*
X12469197Y-9488722D01*
X12469197Y-9488722D01*
X12469197Y-9488721D01*
X12474473Y-9481459D01*
X12481229Y-9472161D01*
X12490522Y-9453922D01*
X12496848Y-9434453D01*
X12500050Y-9414235D01*
X12500050Y-9393765D01*
X12496848Y-9373547D01*
X12490522Y-9354078D01*
X12490522Y-9354078D01*
X12490522Y-9354078D01*
X12486590Y-9346361D01*
X12481229Y-9335839D01*
X12477935Y-9331306D01*
X12469197Y-9319279D01*
X12454721Y-9304803D01*
X12438161Y-9292772D01*
X12437501Y-9292435D01*
X12428892Y-9288048D01*
X12423812Y-9283251D01*
X12422133Y-9276469D01*
X12424386Y-9269856D01*
X12428892Y-9265952D01*
X12438161Y-9261229D01*
X12440277Y-9259691D01*
X12454721Y-9249197D01*
X12454721Y-9249197D01*
X12454722Y-9249197D01*
X12469197Y-9234722D01*
X12469197Y-9234722D01*
X12469197Y-9234721D01*
X12474473Y-9227459D01*
X12481229Y-9218161D01*
X12490522Y-9199922D01*
X12496848Y-9180453D01*
X12500050Y-9160235D01*
X12500050Y-9139765D01*
X12496848Y-9119547D01*
X12490522Y-9100078D01*
X12490522Y-9100078D01*
X12490522Y-9100078D01*
X12485406Y-9090038D01*
X12481229Y-9081839D01*
X12480415Y-9080719D01*
X12469197Y-9065279D01*
X12454721Y-9050803D01*
X12438161Y-9038772D01*
X12438161Y-9038771D01*
X12438161Y-9038771D01*
X12432296Y-9035783D01*
X12419922Y-9029478D01*
X12400453Y-9023152D01*
X12382999Y-9020388D01*
X12380235Y-9019950D01*
X12359765Y-9019950D01*
X12357333Y-9020335D01*
X12339546Y-9023152D01*
X12320078Y-9029478D01*
X12301839Y-9038772D01*
X12285279Y-9050803D01*
X12270803Y-9065279D01*
X12258771Y-9081839D01*
X12249478Y-9100078D01*
X12243152Y-9119547D01*
X12239950Y-9139765D01*
X10433585Y-9139765D01*
X10431709Y-9136516D01*
X10423284Y-9128091D01*
X10416267Y-9124039D01*
X10411445Y-9118983D01*
X10410123Y-9112122D01*
X10410489Y-9110093D01*
X10413250Y-9099789D01*
X10413250Y-9086611D01*
X10409839Y-9073881D01*
X10403250Y-9062469D01*
X10393931Y-9053150D01*
X10386725Y-9048989D01*
X10382519Y-9046561D01*
X10371613Y-9043639D01*
X10369789Y-9043150D01*
X10364235Y-9043150D01*
X10357531Y-9041182D01*
X10352955Y-9035901D01*
X10352257Y-9033960D01*
X10351375Y-9030669D01*
X10344786Y-9019256D01*
X10337005Y-9011475D01*
X10333656Y-9005342D01*
X10334154Y-8998373D01*
X10338342Y-8992780D01*
X10339573Y-8991968D01*
X10341231Y-8991010D01*
X10350550Y-8981691D01*
X10357139Y-8970279D01*
X10360550Y-8957549D01*
X10360550Y-8944371D01*
X10357139Y-8931641D01*
X10350550Y-8920229D01*
X10341231Y-8910910D01*
X10334025Y-8906749D01*
X10329819Y-8904321D01*
X10323454Y-8902615D01*
X10317089Y-8900910D01*
X10303911Y-8900910D01*
X10291181Y-8904321D01*
X10279769Y-8910910D01*
X10279768Y-8910910D01*
X10270450Y-8920228D01*
X10270450Y-8920229D01*
X10263861Y-8931641D01*
X10261565Y-8940210D01*
X10260450Y-8944371D01*
X10260450Y-8957549D01*
X10261136Y-8960108D01*
X10263861Y-8970279D01*
X10267155Y-8975985D01*
X10270450Y-8981691D01*
X10270450Y-8981692D01*
X10278232Y-8989473D01*
X10281580Y-8995605D01*
X10281082Y-9002575D01*
X10276895Y-9008168D01*
X10275664Y-9008980D01*
X10274005Y-9009937D01*
X10274005Y-9009938D01*
X10264686Y-9019256D01*
X10264686Y-9019256D01*
X10258097Y-9030669D01*
X10255280Y-9041182D01*
X10254686Y-9043398D01*
X9797050Y-9043398D01*
X9797050Y-8743711D01*
X10260450Y-8743711D01*
X10260450Y-8756889D01*
X10261089Y-8759274D01*
X10263861Y-8769619D01*
X10265327Y-8772159D01*
X10270450Y-8781031D01*
X10279769Y-8790350D01*
X10291181Y-8796939D01*
X10303911Y-8800350D01*
X10303911Y-8800350D01*
X10317089Y-8800350D01*
X10317089Y-8800350D01*
X10329819Y-8796939D01*
X10341231Y-8790350D01*
X10350550Y-8781031D01*
X10357139Y-8769619D01*
X10360550Y-8756889D01*
X10360550Y-8754042D01*
X10686028Y-8754042D01*
X10686028Y-8767220D01*
X10686670Y-8769619D01*
X10689439Y-8779950D01*
X10692169Y-8784680D01*
X10696028Y-8791363D01*
X10705346Y-8800681D01*
X10711154Y-8804034D01*
X10715975Y-8809091D01*
X10717298Y-8815952D01*
X10716043Y-8819877D01*
X10716172Y-8819930D01*
X10715861Y-8820681D01*
X10712450Y-8833411D01*
X10712450Y-8846589D01*
X10715861Y-8859319D01*
X10716318Y-8860110D01*
X10722450Y-8870731D01*
X10731769Y-8880050D01*
X10743181Y-8886639D01*
X10755911Y-8890050D01*
X10755911Y-8890050D01*
X10755959Y-8890063D01*
X10761925Y-8893699D01*
X10764978Y-8899984D01*
X10765150Y-8902040D01*
X10765150Y-8903889D01*
X10765817Y-8906378D01*
X10768561Y-8916619D01*
X10770645Y-8920229D01*
X10775150Y-8928031D01*
X10784469Y-8937350D01*
X10795881Y-8943939D01*
X10808611Y-8947350D01*
X10808611Y-8947350D01*
X10821789Y-8947350D01*
X10821789Y-8947350D01*
X10824548Y-8946611D01*
X10831533Y-8946777D01*
X10837319Y-8950693D01*
X10838440Y-8952555D01*
X10838541Y-8952496D01*
X10838947Y-8953200D01*
X10838947Y-8953200D01*
X10845537Y-8964613D01*
X10854855Y-8973932D01*
X10866268Y-8980521D01*
X10878997Y-8983932D01*
X10878998Y-8983932D01*
X10882129Y-8983932D01*
X10888833Y-8985900D01*
X10893409Y-8991181D01*
X10894107Y-8993122D01*
X10895613Y-8998745D01*
X10902202Y-9010158D01*
X10911521Y-9019476D01*
X10922934Y-9026065D01*
X10935663Y-9029476D01*
X10935663Y-9029476D01*
X10948841Y-9029476D01*
X10948842Y-9029476D01*
X10961571Y-9026065D01*
X10972984Y-9019476D01*
X10982302Y-9010158D01*
X10988892Y-8998745D01*
X10992302Y-8986015D01*
X10992302Y-8972837D01*
X10988892Y-8960108D01*
X10982302Y-8948695D01*
X10972984Y-8939376D01*
X10967277Y-8936082D01*
X10961571Y-8932787D01*
X10954497Y-8930891D01*
X10948842Y-8929376D01*
X10945710Y-8929376D01*
X10939006Y-8927408D01*
X10934430Y-8922127D01*
X10933732Y-8920186D01*
X10933543Y-8919479D01*
X10932226Y-8914563D01*
X10925637Y-8903150D01*
X10916318Y-8893832D01*
X10910612Y-8890537D01*
X10904905Y-8887242D01*
X10894313Y-8884404D01*
X10892176Y-8883832D01*
X10878997Y-8883832D01*
X10876238Y-8884571D01*
X10869253Y-8884404D01*
X10863467Y-8880488D01*
X10862348Y-8878626D01*
X10862246Y-8878685D01*
X10856901Y-8869429D01*
X10855250Y-8866569D01*
X10845931Y-8857250D01*
X10836753Y-8851951D01*
X10836007Y-8851520D01*
X10836007Y-8851520D01*
X10834519Y-8850661D01*
X10821789Y-8847250D01*
X10821765Y-8847250D01*
X10821389Y-8847137D01*
X10818608Y-8845327D01*
X10815775Y-8843601D01*
X10815692Y-8843430D01*
X10815533Y-8843326D01*
X10814428Y-8840871D01*
X10951330Y-8840871D01*
X10951330Y-8854049D01*
X10952188Y-8857250D01*
X10954741Y-8866779D01*
X10957023Y-8870732D01*
X10961330Y-8878191D01*
X10970649Y-8887510D01*
X10980532Y-8893216D01*
X10981915Y-8894015D01*
X10982061Y-8894099D01*
X10994791Y-8897510D01*
X10994791Y-8897510D01*
X10995162Y-8897610D01*
X11001128Y-8901246D01*
X11003930Y-8906378D01*
X11004030Y-8906749D01*
X11007441Y-8919479D01*
X11014030Y-8930891D01*
X11023349Y-8940210D01*
X11034761Y-8946799D01*
X11047491Y-8950210D01*
X11047491Y-8950210D01*
X11060669Y-8950210D01*
X11060669Y-8950210D01*
X11073399Y-8946799D01*
X11084811Y-8940210D01*
X11094130Y-8930891D01*
X11100719Y-8919479D01*
X11104130Y-8906749D01*
X11104130Y-8893571D01*
X11539950Y-8893571D01*
X11539950Y-8906749D01*
X11543361Y-8919479D01*
X11546655Y-8925185D01*
X11549950Y-8930891D01*
X11559269Y-8940210D01*
X11559269Y-8940210D01*
X11559269Y-8940210D01*
X11570924Y-8946940D01*
X11575746Y-8951996D01*
X11577068Y-8958857D01*
X11574471Y-8965344D01*
X11570925Y-8968417D01*
X11561653Y-8973770D01*
X11561653Y-8973770D01*
X11552335Y-8983088D01*
X11552334Y-8983089D01*
X11545745Y-8994501D01*
X11542334Y-9007231D01*
X11542334Y-9020409D01*
X11545745Y-9033139D01*
X11547288Y-9035811D01*
X11552334Y-9044551D01*
X11561653Y-9053870D01*
X11573066Y-9060459D01*
X11585795Y-9063870D01*
X11585795Y-9063870D01*
X11598973Y-9063870D01*
X11598974Y-9063870D01*
X11611703Y-9060459D01*
X11623116Y-9053870D01*
X11632434Y-9044551D01*
X11639024Y-9033139D01*
X11642434Y-9020409D01*
X11642434Y-9007231D01*
X11639024Y-8994501D01*
X11632921Y-8983932D01*
X11632435Y-8983089D01*
X11632434Y-8983088D01*
X11631901Y-8982555D01*
X11957490Y-8982555D01*
X11957490Y-8995733D01*
X11958616Y-8999938D01*
X11960901Y-9008463D01*
X11962640Y-9011475D01*
X11967490Y-9019875D01*
X11976808Y-9029194D01*
X11988221Y-9035783D01*
X12000951Y-9039194D01*
X12000951Y-9039194D01*
X12014129Y-9039194D01*
X12014129Y-9039194D01*
X12026755Y-9035811D01*
X12091150Y-9035811D01*
X12091150Y-9048989D01*
X12091636Y-9050803D01*
X12094561Y-9061719D01*
X12095803Y-9063870D01*
X12101150Y-9073131D01*
X12110469Y-9082450D01*
X12121881Y-9089039D01*
X12134611Y-9092450D01*
X12134611Y-9092450D01*
X12147789Y-9092450D01*
X12147789Y-9092450D01*
X12160519Y-9089039D01*
X12171931Y-9082450D01*
X12181250Y-9073131D01*
X12187839Y-9061719D01*
X12191250Y-9048989D01*
X12191250Y-9035811D01*
X12187839Y-9023081D01*
X12181250Y-9011669D01*
X12171931Y-9002350D01*
X12163703Y-8997599D01*
X12160519Y-8995761D01*
X12150671Y-8993122D01*
X12147789Y-8992350D01*
X12134611Y-8992350D01*
X12121881Y-8995761D01*
X12110469Y-9002350D01*
X12110468Y-9002350D01*
X12101150Y-9011668D01*
X12101150Y-9011669D01*
X12094561Y-9023081D01*
X12092847Y-9029478D01*
X12091150Y-9035811D01*
X12026755Y-9035811D01*
X12026858Y-9035783D01*
X12038271Y-9029194D01*
X12047590Y-9019875D01*
X12054179Y-9008463D01*
X12057590Y-8995733D01*
X12057590Y-8982555D01*
X12054179Y-8969825D01*
X12047590Y-8958413D01*
X12038271Y-8949094D01*
X12032155Y-8945563D01*
X12026859Y-8942505D01*
X12020494Y-8940799D01*
X12014129Y-8939094D01*
X12000951Y-8939094D01*
X11988221Y-8942505D01*
X11976808Y-8949094D01*
X11976808Y-8949094D01*
X11967490Y-8958412D01*
X11967490Y-8958413D01*
X11960901Y-8969825D01*
X11958035Y-8980521D01*
X11957490Y-8982555D01*
X11631901Y-8982555D01*
X11623116Y-8973770D01*
X11623116Y-8973770D01*
X11611703Y-8967181D01*
X11611460Y-8967040D01*
X11606638Y-8961984D01*
X11605316Y-8955123D01*
X11607913Y-8948636D01*
X11611459Y-8945563D01*
X11620731Y-8940210D01*
X11630050Y-8930891D01*
X11636639Y-8919479D01*
X11640050Y-8906749D01*
X11640050Y-8893571D01*
X11636639Y-8880841D01*
X11630050Y-8869429D01*
X11620731Y-8860110D01*
X11615025Y-8856815D01*
X11609319Y-8853521D01*
X11607156Y-8852941D01*
X11596589Y-8850110D01*
X11583411Y-8850110D01*
X11570681Y-8853521D01*
X11559269Y-8860110D01*
X11559268Y-8860110D01*
X11549950Y-8869428D01*
X11549950Y-8869429D01*
X11543361Y-8880841D01*
X11539950Y-8893571D01*
X11104130Y-8893571D01*
X11100719Y-8880841D01*
X11094130Y-8869429D01*
X11084811Y-8860110D01*
X11073399Y-8853521D01*
X11064197Y-8851055D01*
X11060298Y-8850010D01*
X11054332Y-8846374D01*
X11051530Y-8841242D01*
X11051407Y-8840786D01*
X11683325Y-8840786D01*
X11683325Y-8853965D01*
X11683348Y-8854049D01*
X11686736Y-8866694D01*
X11688315Y-8869429D01*
X11693325Y-8878107D01*
X11702644Y-8887425D01*
X11708334Y-8890711D01*
X11713511Y-8893699D01*
X11714057Y-8894015D01*
X11726786Y-8897425D01*
X11726786Y-8897425D01*
X11739964Y-8897425D01*
X11739965Y-8897425D01*
X11752694Y-8894015D01*
X11764107Y-8887425D01*
X11773425Y-8878107D01*
X11780015Y-8866694D01*
X11783425Y-8853965D01*
X11783425Y-8840786D01*
X11780015Y-8828057D01*
X11773425Y-8816644D01*
X11764107Y-8807325D01*
X11756424Y-8802890D01*
X11752694Y-8800736D01*
X11745510Y-8798811D01*
X11739965Y-8797325D01*
X11726786Y-8797325D01*
X11714057Y-8800736D01*
X11702644Y-8807325D01*
X11702644Y-8807326D01*
X11693326Y-8816644D01*
X11693325Y-8816644D01*
X11686736Y-8828057D01*
X11684352Y-8836954D01*
X11683325Y-8840786D01*
X11051407Y-8840786D01*
X11050399Y-8837023D01*
X11048019Y-8828141D01*
X11047970Y-8828057D01*
X11047136Y-8826612D01*
X11041430Y-8816729D01*
X11032111Y-8807410D01*
X11024282Y-8802890D01*
X11020699Y-8800821D01*
X11013199Y-8798811D01*
X11007969Y-8797410D01*
X10994791Y-8797410D01*
X10982061Y-8800821D01*
X10970649Y-8807410D01*
X10970648Y-8807410D01*
X10961330Y-8816728D01*
X10961330Y-8816729D01*
X10954741Y-8828141D01*
X10951483Y-8840299D01*
X10951330Y-8840871D01*
X10814428Y-8840871D01*
X10814171Y-8840299D01*
X10812722Y-8837316D01*
X10812697Y-8837023D01*
X10812666Y-8836954D01*
X10812682Y-8836846D01*
X10812550Y-8835260D01*
X10812550Y-8833411D01*
X10812550Y-8833411D01*
X10809139Y-8820681D01*
X10808675Y-8819877D01*
X10806857Y-8816729D01*
X10802550Y-8809269D01*
X10793231Y-8799950D01*
X10792416Y-8799479D01*
X10787424Y-8796597D01*
X10782602Y-8791540D01*
X10781280Y-8784680D01*
X10782535Y-8780755D01*
X10782406Y-8780701D01*
X10782717Y-8779950D01*
X10782717Y-8779950D01*
X10782717Y-8779950D01*
X10785954Y-8767869D01*
X10789591Y-8761903D01*
X10794722Y-8759101D01*
X10806803Y-8755864D01*
X10818216Y-8749274D01*
X10827535Y-8739956D01*
X10834124Y-8728543D01*
X10837535Y-8715814D01*
X10837535Y-8702635D01*
X10834124Y-8689906D01*
X10827535Y-8678493D01*
X10818216Y-8669174D01*
X10817858Y-8668968D01*
X11748007Y-8668968D01*
X11748007Y-8682146D01*
X11751417Y-8694875D01*
X11753269Y-8698083D01*
X11758007Y-8706288D01*
X11767325Y-8715607D01*
X11774729Y-8719881D01*
X11778586Y-8722108D01*
X11778738Y-8722196D01*
X11791467Y-8725607D01*
X11791468Y-8725607D01*
X11804646Y-8725607D01*
X11804646Y-8725607D01*
X11811556Y-8723755D01*
X11818540Y-8723922D01*
X11824327Y-8727838D01*
X11827077Y-8734261D01*
X11825918Y-8741151D01*
X11825503Y-8741933D01*
X11821561Y-8748761D01*
X11821561Y-8748761D01*
X11821561Y-8748761D01*
X11821561Y-8748761D01*
X11818150Y-8761491D01*
X11818150Y-8774669D01*
X11819565Y-8779950D01*
X11821561Y-8787399D01*
X11824065Y-8791736D01*
X11828150Y-8798811D01*
X11837469Y-8808130D01*
X11848882Y-8814719D01*
X11861611Y-8818130D01*
X11861611Y-8818130D01*
X11874789Y-8818130D01*
X11874789Y-8818130D01*
X11887519Y-8814719D01*
X11898932Y-8808130D01*
X11908250Y-8798811D01*
X11914839Y-8787399D01*
X11918250Y-8774669D01*
X11918250Y-8761491D01*
X11914839Y-8748761D01*
X11913390Y-8746251D01*
X12083530Y-8746251D01*
X12083530Y-8759429D01*
X12086941Y-8772159D01*
X12088390Y-8774669D01*
X12093530Y-8783571D01*
X12102849Y-8792890D01*
X12114261Y-8799479D01*
X12126991Y-8802890D01*
X12126991Y-8802890D01*
X12140169Y-8802890D01*
X12140169Y-8802890D01*
X12152899Y-8799479D01*
X12164311Y-8792890D01*
X12173630Y-8783571D01*
X12180219Y-8772159D01*
X12183630Y-8759429D01*
X12183630Y-8746251D01*
X12180219Y-8733521D01*
X12178753Y-8730981D01*
X12176014Y-8726238D01*
X12176014Y-8726238D01*
X12175650Y-8725607D01*
X12173630Y-8722109D01*
X12172372Y-8720851D01*
X12329910Y-8720851D01*
X12329910Y-8734029D01*
X12330799Y-8737349D01*
X12333321Y-8746759D01*
X12334477Y-8748761D01*
X12339910Y-8758171D01*
X12349229Y-8767490D01*
X12360641Y-8774079D01*
X12373371Y-8777490D01*
X12373371Y-8777490D01*
X12386549Y-8777490D01*
X12386549Y-8777490D01*
X12399279Y-8774079D01*
X12410691Y-8767490D01*
X12420010Y-8758171D01*
X12426599Y-8746759D01*
X12430010Y-8734029D01*
X12430010Y-8720851D01*
X12426599Y-8708121D01*
X12426577Y-8708083D01*
X12425490Y-8706201D01*
X12420010Y-8696709D01*
X12410691Y-8687390D01*
X12401608Y-8682146D01*
X12399279Y-8680801D01*
X12390666Y-8678493D01*
X12386549Y-8677390D01*
X12373371Y-8677390D01*
X12360641Y-8680801D01*
X12349229Y-8687390D01*
X12349228Y-8687390D01*
X12339910Y-8696708D01*
X12339910Y-8696709D01*
X12333321Y-8708121D01*
X12331260Y-8715814D01*
X12329910Y-8720851D01*
X12172372Y-8720851D01*
X12164311Y-8712790D01*
X12158398Y-8709376D01*
X12152899Y-8706201D01*
X12143419Y-8703661D01*
X12140169Y-8702790D01*
X12126991Y-8702790D01*
X12114261Y-8706201D01*
X12102849Y-8712790D01*
X12102848Y-8712790D01*
X12093530Y-8722108D01*
X12093530Y-8722109D01*
X12086941Y-8733521D01*
X12083530Y-8746251D01*
X11913390Y-8746251D01*
X11908250Y-8737349D01*
X11898932Y-8728030D01*
X11891815Y-8723922D01*
X11887519Y-8721441D01*
X11880530Y-8719568D01*
X11874789Y-8718030D01*
X11861611Y-8718030D01*
X11861611Y-8718030D01*
X11854701Y-8719881D01*
X11847716Y-8719715D01*
X11841930Y-8715799D01*
X11839180Y-8709376D01*
X11840338Y-8702486D01*
X11840752Y-8701706D01*
X11844696Y-8694875D01*
X11848107Y-8682146D01*
X11848107Y-8668968D01*
X11844696Y-8656238D01*
X11844402Y-8655730D01*
X11841928Y-8651444D01*
X11838107Y-8644825D01*
X11828788Y-8635507D01*
X11823082Y-8632212D01*
X11817375Y-8628918D01*
X11808894Y-8626645D01*
X11804646Y-8625507D01*
X11791467Y-8625507D01*
X11778738Y-8628918D01*
X11767325Y-8635507D01*
X11767325Y-8635507D01*
X11758007Y-8644825D01*
X11758007Y-8644825D01*
X11751417Y-8656238D01*
X11748007Y-8668968D01*
X10817858Y-8668968D01*
X10810331Y-8664622D01*
X10806803Y-8662585D01*
X10800439Y-8660880D01*
X10794074Y-8659174D01*
X10780895Y-8659174D01*
X10768166Y-8662585D01*
X10756753Y-8669174D01*
X10756753Y-8669175D01*
X10747435Y-8678493D01*
X10747435Y-8678493D01*
X10740845Y-8689906D01*
X10739514Y-8694875D01*
X10737608Y-8701987D01*
X10733972Y-8707953D01*
X10728840Y-8710755D01*
X10723513Y-8712182D01*
X10716759Y-8713992D01*
X10716759Y-8713992D01*
X10716759Y-8713992D01*
X10705346Y-8720581D01*
X10705346Y-8720581D01*
X10696028Y-8729900D01*
X10696028Y-8729900D01*
X10689439Y-8741312D01*
X10686028Y-8754042D01*
X10360550Y-8754042D01*
X10360550Y-8743711D01*
X10357139Y-8730981D01*
X10354657Y-8726683D01*
X10353010Y-8719893D01*
X10355295Y-8713290D01*
X10360787Y-8708971D01*
X10365396Y-8708083D01*
X10369789Y-8708083D01*
X10369789Y-8708083D01*
X10382519Y-8704672D01*
X10393931Y-8698083D01*
X10403250Y-8688764D01*
X10409839Y-8677351D01*
X10413250Y-8664622D01*
X10413250Y-8651443D01*
X10410343Y-8640593D01*
X10410509Y-8633608D01*
X10414425Y-8627822D01*
X10416119Y-8626646D01*
X10423284Y-8622509D01*
X10431709Y-8614084D01*
X10437666Y-8603766D01*
X10440750Y-8592257D01*
X10440750Y-8580343D01*
X10437666Y-8568834D01*
X10431709Y-8558516D01*
X10423284Y-8550091D01*
X10422710Y-8549516D01*
X10422835Y-8549391D01*
X10419305Y-8544556D01*
X10419120Y-8541440D01*
X10898630Y-8541440D01*
X10898630Y-8554618D01*
X10902041Y-8567348D01*
X10905333Y-8573049D01*
X10908630Y-8578760D01*
X10917949Y-8588079D01*
X10929362Y-8594668D01*
X10942091Y-8598079D01*
X10942091Y-8598079D01*
X10955269Y-8598079D01*
X10955269Y-8598079D01*
X10967999Y-8594668D01*
X10979412Y-8588079D01*
X10988730Y-8578760D01*
X10995319Y-8567347D01*
X10997323Y-8559871D01*
X11988221Y-8559871D01*
X11988221Y-8573049D01*
X11988913Y-8575630D01*
X11991632Y-8585779D01*
X11994927Y-8591485D01*
X11998221Y-8597191D01*
X12007540Y-8606510D01*
X12018953Y-8613099D01*
X12031682Y-8616510D01*
X12031682Y-8616510D01*
X12044860Y-8616510D01*
X12044860Y-8616510D01*
X12057590Y-8613099D01*
X12064532Y-8609091D01*
X12586450Y-8609091D01*
X12586450Y-8622269D01*
X12586514Y-8622509D01*
X12589861Y-8634999D01*
X12592006Y-8638714D01*
X12596450Y-8646411D01*
X12605769Y-8655730D01*
X12617181Y-8662319D01*
X12629911Y-8665730D01*
X12629911Y-8665730D01*
X12643089Y-8665730D01*
X12643089Y-8665730D01*
X12655819Y-8662319D01*
X12667231Y-8655730D01*
X12676550Y-8646411D01*
X12683139Y-8634999D01*
X12686550Y-8622269D01*
X12686550Y-8609091D01*
X12683139Y-8596361D01*
X12676550Y-8584949D01*
X12667231Y-8575630D01*
X12661525Y-8572335D01*
X12655819Y-8569041D01*
X12649454Y-8567335D01*
X12643089Y-8565630D01*
X12629911Y-8565630D01*
X12617181Y-8569041D01*
X12605769Y-8575630D01*
X12605768Y-8575630D01*
X12596450Y-8584948D01*
X12596450Y-8584949D01*
X12589861Y-8596361D01*
X12587720Y-8604350D01*
X12586450Y-8609091D01*
X12064532Y-8609091D01*
X12069003Y-8606510D01*
X12078321Y-8597191D01*
X12084910Y-8585779D01*
X12088321Y-8573049D01*
X12088321Y-8559871D01*
X12085063Y-8547711D01*
X12375830Y-8547711D01*
X12375830Y-8560889D01*
X12379241Y-8573619D01*
X12382209Y-8578760D01*
X12385830Y-8585031D01*
X12395149Y-8594350D01*
X12400673Y-8597540D01*
X12406561Y-8600939D01*
X12406561Y-8600939D01*
X12419291Y-8604350D01*
X12419291Y-8604350D01*
X12432469Y-8604350D01*
X12432469Y-8604350D01*
X12445199Y-8600939D01*
X12456611Y-8594350D01*
X12465930Y-8585031D01*
X12472519Y-8573619D01*
X12475930Y-8560889D01*
X12475930Y-8547711D01*
X12472519Y-8534981D01*
X12465930Y-8523569D01*
X12456611Y-8514250D01*
X12450905Y-8510955D01*
X12445199Y-8507661D01*
X12434668Y-8504839D01*
X12432469Y-8504250D01*
X12419291Y-8504250D01*
X12406561Y-8507661D01*
X12395149Y-8514250D01*
X12395148Y-8514250D01*
X12385830Y-8523568D01*
X12385830Y-8523569D01*
X12379241Y-8534981D01*
X12375830Y-8547711D01*
X12085063Y-8547711D01*
X12084910Y-8547141D01*
X12078321Y-8535729D01*
X12069003Y-8526410D01*
X12063194Y-8523057D01*
X12057590Y-8519821D01*
X12048171Y-8517297D01*
X12044860Y-8516410D01*
X12031682Y-8516410D01*
X12018952Y-8519821D01*
X12007540Y-8526410D01*
X12007539Y-8526410D01*
X11998221Y-8535728D01*
X11998221Y-8535729D01*
X11991632Y-8547141D01*
X11989629Y-8554618D01*
X11988221Y-8559871D01*
X10997323Y-8559871D01*
X10998730Y-8554618D01*
X10998730Y-8541440D01*
X10995319Y-8528710D01*
X10988730Y-8517297D01*
X10979412Y-8507979D01*
X10973705Y-8504684D01*
X10967999Y-8501390D01*
X10956281Y-8498250D01*
X10955269Y-8497979D01*
X10942091Y-8497979D01*
X10929361Y-8501390D01*
X10917949Y-8507979D01*
X10917948Y-8507979D01*
X10908630Y-8517297D01*
X10908630Y-8517297D01*
X10902041Y-8528710D01*
X10898630Y-8541440D01*
X10419120Y-8541440D01*
X10418890Y-8537582D01*
X10420500Y-8534674D01*
X10420500Y-8473300D01*
X10470500Y-8473300D01*
X10470500Y-8533300D01*
X10509364Y-8533300D01*
X10509365Y-8533300D01*
X10526751Y-8529842D01*
X10526752Y-8529841D01*
X10528371Y-8529171D01*
X10528371Y-8529171D01*
X10543130Y-8523057D01*
X10543132Y-8523057D01*
X10557872Y-8513208D01*
X10557872Y-8513207D01*
X10570407Y-8500672D01*
X10570408Y-8500671D01*
X10580256Y-8485932D01*
X10580544Y-8485394D01*
X10580657Y-8485454D01*
X10584623Y-8480532D01*
X10591252Y-8478324D01*
X10597896Y-8479978D01*
X10606656Y-8485035D01*
X10619385Y-8488446D01*
X10619385Y-8488446D01*
X10632563Y-8488446D01*
X10632563Y-8488446D01*
X10645293Y-8485035D01*
X10656706Y-8478446D01*
X10666024Y-8469127D01*
X10672613Y-8457714D01*
X10676024Y-8444985D01*
X10676024Y-8431806D01*
X10672613Y-8419077D01*
X10671442Y-8417048D01*
X10668715Y-8412325D01*
X10667068Y-8405535D01*
X10669353Y-8398933D01*
X10670685Y-8397358D01*
X10671416Y-8396627D01*
X10678006Y-8385214D01*
X10681416Y-8372485D01*
X10681416Y-8372484D01*
X10681522Y-8371679D01*
X10681712Y-8371704D01*
X10683385Y-8366005D01*
X10688665Y-8361430D01*
X10690606Y-8360732D01*
X10702559Y-8357529D01*
X10713971Y-8350940D01*
X10723290Y-8341621D01*
X10724312Y-8339851D01*
X11004030Y-8339851D01*
X11004030Y-8353029D01*
X11005236Y-8357529D01*
X11007441Y-8365759D01*
X11008591Y-8367750D01*
X11014030Y-8377171D01*
X11023349Y-8386490D01*
X11034761Y-8393079D01*
X11047491Y-8396490D01*
X11047491Y-8396490D01*
X11060669Y-8396490D01*
X11060669Y-8396490D01*
X11073399Y-8393079D01*
X11078034Y-8390403D01*
X11084824Y-8388756D01*
X11091426Y-8391041D01*
X11095746Y-8396533D01*
X11096410Y-8403488D01*
X11096211Y-8404351D01*
X11094790Y-8409656D01*
X11094790Y-8422835D01*
X11097455Y-8432783D01*
X11097289Y-8439768D01*
X11093373Y-8445554D01*
X11088688Y-8447970D01*
X11087461Y-8448298D01*
X11076049Y-8454887D01*
X11076048Y-8454888D01*
X11066730Y-8464206D01*
X11066730Y-8464206D01*
X11060141Y-8475619D01*
X11056730Y-8488348D01*
X11056730Y-8501527D01*
X11060141Y-8514256D01*
X11063354Y-8519821D01*
X11066730Y-8525669D01*
X11076049Y-8534987D01*
X11085932Y-8540694D01*
X11087224Y-8541440D01*
X11087461Y-8541577D01*
X11100191Y-8544987D01*
X11100191Y-8544987D01*
X11113369Y-8544987D01*
X11113369Y-8544987D01*
X11126099Y-8541577D01*
X11137511Y-8534987D01*
X11146830Y-8525669D01*
X11153419Y-8514256D01*
X11156830Y-8501527D01*
X11156830Y-8488348D01*
X11154164Y-8478400D01*
X11154331Y-8471415D01*
X11158247Y-8465629D01*
X11162933Y-8463213D01*
X11164158Y-8462885D01*
X11175571Y-8456295D01*
X11178367Y-8453500D01*
X11184499Y-8450152D01*
X11191468Y-8450650D01*
X11193335Y-8451530D01*
X11197681Y-8454039D01*
X11197681Y-8454039D01*
X11197681Y-8454039D01*
X11210411Y-8457450D01*
X11210411Y-8457450D01*
X11223589Y-8457450D01*
X11223589Y-8457450D01*
X11236319Y-8454039D01*
X11240525Y-8451611D01*
X11552670Y-8451611D01*
X11552670Y-8464789D01*
X11553832Y-8469127D01*
X11556081Y-8477519D01*
X11556616Y-8478446D01*
X11562670Y-8488931D01*
X11571989Y-8498250D01*
X11583401Y-8504839D01*
X11596131Y-8508250D01*
X11596131Y-8508250D01*
X11609309Y-8508250D01*
X11609309Y-8508250D01*
X11622039Y-8504839D01*
X11633451Y-8498250D01*
X11642770Y-8488931D01*
X11649359Y-8477519D01*
X11652770Y-8464789D01*
X11652770Y-8451611D01*
X11649359Y-8438881D01*
X11642770Y-8427469D01*
X11633451Y-8418150D01*
X11626245Y-8413989D01*
X11622039Y-8411561D01*
X11614930Y-8409656D01*
X11609309Y-8408150D01*
X11596131Y-8408150D01*
X11583401Y-8411561D01*
X11571989Y-8418150D01*
X11571988Y-8418150D01*
X11562670Y-8427468D01*
X11562670Y-8427469D01*
X11556081Y-8438881D01*
X11553785Y-8447450D01*
X11552670Y-8451611D01*
X11240525Y-8451611D01*
X11247731Y-8447450D01*
X11257050Y-8438131D01*
X11263639Y-8426719D01*
X11267050Y-8413989D01*
X11267050Y-8400811D01*
X11263639Y-8388081D01*
X11257050Y-8376669D01*
X11247731Y-8367350D01*
X11241137Y-8363543D01*
X11236319Y-8360761D01*
X11227626Y-8358432D01*
X11223589Y-8357350D01*
X11210411Y-8357350D01*
X11197681Y-8360761D01*
X11186269Y-8367350D01*
X11183473Y-8370145D01*
X11177341Y-8373494D01*
X11170372Y-8372995D01*
X11168505Y-8372116D01*
X11167748Y-8371679D01*
X11167186Y-8371354D01*
X11164159Y-8369606D01*
X11155739Y-8367350D01*
X11151429Y-8366195D01*
X11138251Y-8366195D01*
X11125521Y-8369606D01*
X11125521Y-8369606D01*
X11125521Y-8369606D01*
X11125521Y-8369606D01*
X11120886Y-8372282D01*
X11114096Y-8373930D01*
X11107493Y-8371644D01*
X11103174Y-8366152D01*
X11102510Y-8359197D01*
X11102708Y-8358336D01*
X11104130Y-8353029D01*
X11104130Y-8339851D01*
X11100719Y-8327121D01*
X11097249Y-8321111D01*
X11405350Y-8321111D01*
X11405350Y-8334289D01*
X11405682Y-8335530D01*
X11408761Y-8347019D01*
X11411025Y-8350940D01*
X11415350Y-8358431D01*
X11424669Y-8367750D01*
X11432869Y-8372485D01*
X11435372Y-8373930D01*
X11436081Y-8374339D01*
X11448811Y-8377750D01*
X11448811Y-8377750D01*
X11461989Y-8377750D01*
X11461989Y-8377750D01*
X11474719Y-8374339D01*
X11486131Y-8367750D01*
X11495450Y-8358431D01*
X11502039Y-8347019D01*
X11505450Y-8334289D01*
X11505450Y-8321111D01*
X11502039Y-8308381D01*
X11501420Y-8307309D01*
X11499971Y-8304799D01*
X11495450Y-8296969D01*
X11486131Y-8287650D01*
X11480638Y-8284479D01*
X11474719Y-8281061D01*
X11468057Y-8279276D01*
X11466620Y-8278891D01*
X11796510Y-8278891D01*
X11796510Y-8292069D01*
X11797823Y-8296968D01*
X11799921Y-8304799D01*
X11800158Y-8305210D01*
X11806510Y-8316211D01*
X11815829Y-8325530D01*
X11827241Y-8332119D01*
X11839971Y-8335530D01*
X11839971Y-8335530D01*
X11853149Y-8335530D01*
X11853149Y-8335530D01*
X11865879Y-8332119D01*
X11868732Y-8330471D01*
X11875522Y-8328824D01*
X11882125Y-8331109D01*
X11883701Y-8332442D01*
X11892029Y-8340770D01*
X11901912Y-8346476D01*
X11902851Y-8347019D01*
X11903441Y-8347359D01*
X11916171Y-8350770D01*
X11916171Y-8350770D01*
X11929349Y-8350770D01*
X11929349Y-8350770D01*
X11942079Y-8347359D01*
X11953491Y-8340770D01*
X11962810Y-8331451D01*
X11969399Y-8320039D01*
X11972810Y-8307309D01*
X11972810Y-8294131D01*
X11969399Y-8281401D01*
X11962810Y-8269989D01*
X11953491Y-8260670D01*
X11949855Y-8258571D01*
X12060670Y-8258571D01*
X12060670Y-8271749D01*
X12061837Y-8276106D01*
X12064081Y-8284479D01*
X12065912Y-8287650D01*
X12070670Y-8295891D01*
X12079989Y-8305210D01*
X12091401Y-8311799D01*
X12104131Y-8315210D01*
X12104131Y-8315210D01*
X12117309Y-8315210D01*
X12117309Y-8315210D01*
X12130039Y-8311799D01*
X12141451Y-8305210D01*
X12150770Y-8295891D01*
X12152202Y-8293411D01*
X12445950Y-8293411D01*
X12445950Y-8306589D01*
X12449361Y-8319319D01*
X12450395Y-8321111D01*
X12455950Y-8330731D01*
X12465269Y-8340050D01*
X12476681Y-8346639D01*
X12489411Y-8350050D01*
X12489411Y-8350050D01*
X12502589Y-8350050D01*
X12502589Y-8350050D01*
X12515319Y-8346639D01*
X12526731Y-8340050D01*
X12536050Y-8330731D01*
X12542639Y-8319319D01*
X12546050Y-8306589D01*
X12546050Y-8293411D01*
X12542639Y-8280681D01*
X12536050Y-8269269D01*
X12526731Y-8259950D01*
X12519420Y-8255728D01*
X12515319Y-8253361D01*
X12508954Y-8251655D01*
X12502589Y-8249950D01*
X12489411Y-8249950D01*
X12476681Y-8253361D01*
X12465269Y-8259950D01*
X12465268Y-8259950D01*
X12455950Y-8269268D01*
X12455950Y-8269269D01*
X12449361Y-8280681D01*
X12445950Y-8293411D01*
X12152202Y-8293411D01*
X12157359Y-8284479D01*
X12160770Y-8271749D01*
X12160770Y-8258571D01*
X12157359Y-8245841D01*
X12150770Y-8234429D01*
X12141451Y-8225110D01*
X12135745Y-8221815D01*
X12130039Y-8218521D01*
X12123674Y-8216815D01*
X12117309Y-8215110D01*
X12104131Y-8215110D01*
X12091401Y-8218521D01*
X12079989Y-8225110D01*
X12079988Y-8225110D01*
X12070670Y-8234428D01*
X12070670Y-8234429D01*
X12064081Y-8245841D01*
X12061694Y-8254748D01*
X12060670Y-8258571D01*
X11949855Y-8258571D01*
X11944932Y-8255728D01*
X11942079Y-8254081D01*
X11935714Y-8252375D01*
X11929349Y-8250670D01*
X11916171Y-8250670D01*
X11903441Y-8254081D01*
X11903441Y-8254081D01*
X11903441Y-8254081D01*
X11903441Y-8254081D01*
X11900587Y-8255728D01*
X11893797Y-8257376D01*
X11887195Y-8255090D01*
X11885619Y-8253758D01*
X11877292Y-8245430D01*
X11877291Y-8245430D01*
X11871585Y-8242135D01*
X11865879Y-8238841D01*
X11859514Y-8237135D01*
X11853149Y-8235430D01*
X11839971Y-8235430D01*
X11827241Y-8238841D01*
X11815829Y-8245430D01*
X11815828Y-8245430D01*
X11806510Y-8254748D01*
X11806510Y-8254749D01*
X11799921Y-8266161D01*
X11797321Y-8275865D01*
X11796510Y-8278891D01*
X11466620Y-8278891D01*
X11461989Y-8277650D01*
X11448811Y-8277650D01*
X11436081Y-8281061D01*
X11424669Y-8287650D01*
X11424668Y-8287650D01*
X11415350Y-8296968D01*
X11415350Y-8296969D01*
X11408761Y-8308381D01*
X11408118Y-8310780D01*
X11405350Y-8321111D01*
X11097249Y-8321111D01*
X11094130Y-8315709D01*
X11084811Y-8306390D01*
X11079105Y-8303095D01*
X11073399Y-8299801D01*
X11067034Y-8298095D01*
X11060669Y-8296390D01*
X11047491Y-8296390D01*
X11034761Y-8299801D01*
X11023349Y-8306390D01*
X11023348Y-8306390D01*
X11014030Y-8315708D01*
X11014030Y-8315709D01*
X11007441Y-8327121D01*
X11005286Y-8335164D01*
X11004030Y-8339851D01*
X10724312Y-8339851D01*
X10729879Y-8330209D01*
X10733290Y-8317479D01*
X10733290Y-8304301D01*
X10729879Y-8291571D01*
X10723290Y-8280159D01*
X10713971Y-8270840D01*
X10708088Y-8267443D01*
X10702559Y-8264251D01*
X10696194Y-8262545D01*
X10689829Y-8260840D01*
X10676651Y-8260840D01*
X10663921Y-8264251D01*
X10652509Y-8270840D01*
X10652508Y-8270840D01*
X10643190Y-8280158D01*
X10643190Y-8280159D01*
X10636601Y-8291571D01*
X10633190Y-8304301D01*
X10633084Y-8305107D01*
X10632895Y-8305082D01*
X10631222Y-8310780D01*
X10625941Y-8315356D01*
X10624000Y-8316054D01*
X10612048Y-8319256D01*
X10612048Y-8319256D01*
X10612048Y-8319256D01*
X10600635Y-8325845D01*
X10600635Y-8325846D01*
X10591317Y-8335164D01*
X10591316Y-8335164D01*
X10584727Y-8346577D01*
X10581316Y-8359306D01*
X10581316Y-8366901D01*
X10579348Y-8373605D01*
X10574067Y-8378180D01*
X10567152Y-8379174D01*
X10560796Y-8376272D01*
X10560148Y-8375669D01*
X10557872Y-8373393D01*
X10557872Y-8373392D01*
X10543132Y-8363543D01*
X10543131Y-8363543D01*
X10526752Y-8356759D01*
X10526751Y-8356758D01*
X10509365Y-8353300D01*
X10470500Y-8353300D01*
X10470500Y-8413300D01*
X10420500Y-8413300D01*
X10420500Y-8353300D01*
X10381635Y-8353300D01*
X10364249Y-8356758D01*
X10364248Y-8356759D01*
X10347869Y-8363543D01*
X10347868Y-8363543D01*
X10333128Y-8373392D01*
X10333128Y-8373393D01*
X10320593Y-8385928D01*
X10320592Y-8385928D01*
X10310743Y-8400668D01*
X10310743Y-8400669D01*
X10303959Y-8417048D01*
X10303958Y-8417048D01*
X10303710Y-8418300D01*
X10373801Y-8418300D01*
X10372080Y-8419294D01*
X10366494Y-8424880D01*
X10362544Y-8431720D01*
X10360500Y-8439350D01*
X10360500Y-8447250D01*
X10362544Y-8454880D01*
X10366494Y-8461721D01*
X10372080Y-8467306D01*
X10373801Y-8468300D01*
X10303710Y-8468300D01*
X10303958Y-8469552D01*
X10303959Y-8469552D01*
X10310743Y-8485931D01*
X10310743Y-8485932D01*
X10320592Y-8500672D01*
X10320593Y-8500672D01*
X10333128Y-8513207D01*
X10333128Y-8513208D01*
X10347868Y-8523057D01*
X10347870Y-8523057D01*
X10363873Y-8529686D01*
X10369314Y-8534070D01*
X10371520Y-8540700D01*
X10369792Y-8547470D01*
X10367896Y-8549910D01*
X10359291Y-8558516D01*
X10353334Y-8568834D01*
X10350674Y-8578760D01*
X10350250Y-8580343D01*
X10350250Y-8592257D01*
X10351350Y-8596361D01*
X10351415Y-8596603D01*
X10351248Y-8603588D01*
X10347332Y-8609375D01*
X10344183Y-8611269D01*
X10343882Y-8611393D01*
X10332469Y-8617983D01*
X10332468Y-8617983D01*
X10323150Y-8627301D01*
X10323150Y-8627301D01*
X10316561Y-8638714D01*
X10313150Y-8651443D01*
X10313150Y-8664622D01*
X10314314Y-8668968D01*
X10316561Y-8677351D01*
X10317220Y-8678493D01*
X10318552Y-8680801D01*
X10319043Y-8681650D01*
X10320690Y-8688440D01*
X10318405Y-8695043D01*
X10312913Y-8699362D01*
X10308304Y-8700250D01*
X10303911Y-8700250D01*
X10291181Y-8703661D01*
X10279769Y-8710250D01*
X10279768Y-8710250D01*
X10270450Y-8719568D01*
X10270450Y-8719569D01*
X10263861Y-8730981D01*
X10262155Y-8737348D01*
X10260450Y-8743711D01*
X9797050Y-8743711D01*
X9797050Y-8418300D01*
X9900710Y-8418300D01*
X9970801Y-8418300D01*
X9969080Y-8419294D01*
X9963494Y-8424880D01*
X9959544Y-8431720D01*
X9957500Y-8439350D01*
X9957500Y-8447250D01*
X9959544Y-8454880D01*
X9963494Y-8461721D01*
X9969080Y-8467306D01*
X9970801Y-8468300D01*
X9900710Y-8468300D01*
X9900958Y-8469552D01*
X9900959Y-8469552D01*
X9907743Y-8485931D01*
X9907743Y-8485932D01*
X9917592Y-8500672D01*
X9917593Y-8500672D01*
X9930128Y-8513207D01*
X9930128Y-8513208D01*
X9944868Y-8523057D01*
X9944869Y-8523057D01*
X9961248Y-8529841D01*
X9961249Y-8529842D01*
X9978635Y-8533300D01*
X9978636Y-8533300D01*
X10002500Y-8533300D01*
X10002500Y-8473300D01*
X10052500Y-8473300D01*
X10052500Y-8533300D01*
X10076364Y-8533300D01*
X10076365Y-8533300D01*
X10093751Y-8529842D01*
X10093752Y-8529841D01*
X10110131Y-8523057D01*
X10110132Y-8523057D01*
X10124872Y-8513208D01*
X10124872Y-8513207D01*
X10137407Y-8500672D01*
X10137408Y-8500672D01*
X10147257Y-8485932D01*
X10147257Y-8485931D01*
X10154041Y-8469552D01*
X10154042Y-8469552D01*
X10154290Y-8468300D01*
X10084199Y-8468300D01*
X10085921Y-8467306D01*
X10091506Y-8461721D01*
X10095456Y-8454880D01*
X10097500Y-8447250D01*
X10097500Y-8439350D01*
X10095456Y-8431720D01*
X10091506Y-8424880D01*
X10085921Y-8419294D01*
X10084199Y-8418300D01*
X10154290Y-8418300D01*
X10154042Y-8417048D01*
X10154041Y-8417048D01*
X10147257Y-8400669D01*
X10147257Y-8400668D01*
X10137408Y-8385928D01*
X10137407Y-8385928D01*
X10124872Y-8373393D01*
X10124872Y-8373392D01*
X10110132Y-8363543D01*
X10110131Y-8363543D01*
X10093752Y-8356759D01*
X10093751Y-8356758D01*
X10076365Y-8353300D01*
X10052500Y-8353300D01*
X10052500Y-8413300D01*
X10002500Y-8413300D01*
X10002500Y-8353300D01*
X9978635Y-8353300D01*
X9961249Y-8356758D01*
X9961248Y-8356759D01*
X9944869Y-8363543D01*
X9944868Y-8363543D01*
X9930128Y-8373392D01*
X9930128Y-8373393D01*
X9917593Y-8385928D01*
X9917592Y-8385928D01*
X9907743Y-8400668D01*
X9907743Y-8400669D01*
X9900959Y-8417048D01*
X9900958Y-8417048D01*
X9900710Y-8418300D01*
X9797050Y-8418300D01*
X9797050Y-8222637D01*
X10528410Y-8222637D01*
X10528410Y-8235815D01*
X10529221Y-8238841D01*
X10531821Y-8248545D01*
X10535115Y-8254251D01*
X10538410Y-8259957D01*
X10547729Y-8269276D01*
X10559141Y-8275865D01*
X10571871Y-8279276D01*
X10571871Y-8279276D01*
X10585049Y-8279276D01*
X10585049Y-8279276D01*
X10597779Y-8275865D01*
X10609191Y-8269276D01*
X10618510Y-8259957D01*
X10625099Y-8248544D01*
X10625463Y-8247186D01*
X10748675Y-8247186D01*
X10748675Y-8260364D01*
X10749178Y-8262240D01*
X10752086Y-8273093D01*
X10755004Y-8278148D01*
X10758675Y-8284506D01*
X10767994Y-8293825D01*
X10779407Y-8300414D01*
X10792136Y-8303825D01*
X10792136Y-8303825D01*
X10805314Y-8303825D01*
X10805314Y-8303825D01*
X10818044Y-8300414D01*
X10829457Y-8293825D01*
X10838775Y-8284506D01*
X10845364Y-8273093D01*
X10848775Y-8260364D01*
X10848775Y-8247186D01*
X10845364Y-8234456D01*
X10844319Y-8232645D01*
X10842969Y-8230307D01*
X10842969Y-8230307D01*
X10839859Y-8224920D01*
X11186755Y-8224920D01*
X11186755Y-8238098D01*
X11190166Y-8250828D01*
X11191628Y-8253361D01*
X11196755Y-8262240D01*
X11206073Y-8271559D01*
X11217486Y-8278148D01*
X11230216Y-8281559D01*
X11230216Y-8281559D01*
X11243394Y-8281559D01*
X11243394Y-8281559D01*
X11256123Y-8278148D01*
X11267536Y-8271559D01*
X11268303Y-8270792D01*
X11274435Y-8267443D01*
X11281404Y-8267941D01*
X11283272Y-8268821D01*
X11285293Y-8269988D01*
X11289982Y-8272695D01*
X11302711Y-8276106D01*
X11302711Y-8276106D01*
X11315889Y-8276106D01*
X11315889Y-8276106D01*
X11328619Y-8272695D01*
X11340032Y-8266106D01*
X11349350Y-8256787D01*
X11355939Y-8245374D01*
X11359350Y-8232645D01*
X11359350Y-8219467D01*
X11355939Y-8206737D01*
X11349350Y-8195324D01*
X11340032Y-8186006D01*
X11332156Y-8181459D01*
X11328619Y-8179417D01*
X11322254Y-8177711D01*
X11315889Y-8176006D01*
X11302711Y-8176006D01*
X11289981Y-8179417D01*
X11278569Y-8186006D01*
X11278569Y-8186006D01*
X11277801Y-8186773D01*
X11271669Y-8190122D01*
X11264700Y-8189623D01*
X11262833Y-8188744D01*
X11256124Y-8184870D01*
X11256123Y-8184870D01*
X11243394Y-8181459D01*
X11230216Y-8181459D01*
X11217486Y-8184870D01*
X11206073Y-8191459D01*
X11206073Y-8191459D01*
X11196755Y-8200777D01*
X11196755Y-8200778D01*
X11190166Y-8212190D01*
X11186755Y-8224920D01*
X10839859Y-8224920D01*
X10838775Y-8223043D01*
X10829457Y-8213725D01*
X10822844Y-8209907D01*
X10818044Y-8207136D01*
X10811679Y-8205430D01*
X10805314Y-8203725D01*
X10792136Y-8203725D01*
X10779406Y-8207136D01*
X10767994Y-8213725D01*
X10767994Y-8213725D01*
X10758675Y-8223043D01*
X10758675Y-8223043D01*
X10752086Y-8234456D01*
X10749035Y-8245841D01*
X10748675Y-8247186D01*
X10625463Y-8247186D01*
X10628510Y-8235815D01*
X10628510Y-8222637D01*
X10625099Y-8209907D01*
X10618510Y-8198494D01*
X10609191Y-8189176D01*
X10601733Y-8184870D01*
X10597779Y-8182587D01*
X10591414Y-8180881D01*
X10585049Y-8179176D01*
X10571871Y-8179176D01*
X10559141Y-8182587D01*
X10547729Y-8189176D01*
X10547728Y-8189176D01*
X10538410Y-8198494D01*
X10538410Y-8198494D01*
X10531821Y-8209907D01*
X10529513Y-8218521D01*
X10528410Y-8222637D01*
X9797050Y-8222637D01*
X9797050Y-8096011D01*
X10064230Y-8096011D01*
X10064230Y-8109189D01*
X10067641Y-8121919D01*
X10068556Y-8123504D01*
X10074230Y-8133331D01*
X10083549Y-8142650D01*
X10094961Y-8149239D01*
X10107691Y-8152650D01*
X10107691Y-8152650D01*
X10120869Y-8152650D01*
X10120869Y-8152650D01*
X10133599Y-8149239D01*
X10145011Y-8142650D01*
X10154330Y-8133331D01*
X10160919Y-8121919D01*
X10164330Y-8109189D01*
X10164330Y-8096011D01*
X10243950Y-8096011D01*
X10243950Y-8109189D01*
X10247361Y-8121919D01*
X10248276Y-8123504D01*
X10253950Y-8133331D01*
X10263269Y-8142650D01*
X10274681Y-8149239D01*
X10287411Y-8152650D01*
X10287411Y-8152650D01*
X10300589Y-8152650D01*
X10300589Y-8152650D01*
X10313319Y-8149239D01*
X10324731Y-8142650D01*
X10334050Y-8133331D01*
X10340639Y-8121919D01*
X10341505Y-8118688D01*
X10824673Y-8118688D01*
X10824673Y-8131866D01*
X10828084Y-8144596D01*
X10830764Y-8149239D01*
X10834673Y-8156009D01*
X10843991Y-8165327D01*
X10855404Y-8171916D01*
X10868134Y-8175327D01*
X10868134Y-8175327D01*
X10881312Y-8175327D01*
X10881312Y-8175327D01*
X10894041Y-8171916D01*
X10905454Y-8165327D01*
X10914773Y-8156009D01*
X10921362Y-8144596D01*
X10922162Y-8141611D01*
X11984470Y-8141611D01*
X11984470Y-8154789D01*
X11984797Y-8156009D01*
X11987881Y-8167519D01*
X11990420Y-8171916D01*
X11994470Y-8178931D01*
X12003789Y-8188250D01*
X12015201Y-8194839D01*
X12027931Y-8198250D01*
X12027931Y-8198250D01*
X12041109Y-8198250D01*
X12041109Y-8198250D01*
X12053839Y-8194839D01*
X12065251Y-8188250D01*
X12074570Y-8178931D01*
X12081159Y-8167519D01*
X12084570Y-8154789D01*
X12084570Y-8141611D01*
X12081159Y-8128881D01*
X12074570Y-8117469D01*
X12065251Y-8108150D01*
X12059545Y-8104855D01*
X12053839Y-8101561D01*
X12047474Y-8099855D01*
X12041109Y-8098150D01*
X12027931Y-8098150D01*
X12015201Y-8101561D01*
X12003789Y-8108150D01*
X12003788Y-8108150D01*
X11994470Y-8117468D01*
X11994470Y-8117469D01*
X11987881Y-8128881D01*
X11985548Y-8137589D01*
X11984470Y-8141611D01*
X10922162Y-8141611D01*
X10924773Y-8131866D01*
X10924773Y-8118688D01*
X10921645Y-8107014D01*
X10921811Y-8100029D01*
X10925727Y-8094243D01*
X10932150Y-8091492D01*
X10936831Y-8091827D01*
X10942091Y-8093236D01*
X10942091Y-8093236D01*
X10955269Y-8093236D01*
X10955269Y-8093236D01*
X10967999Y-8089826D01*
X10979412Y-8083236D01*
X10988730Y-8073918D01*
X10995319Y-8062505D01*
X10998730Y-8049776D01*
X10998730Y-8036597D01*
X10995319Y-8023868D01*
X10993715Y-8021089D01*
X11144139Y-8021089D01*
X11144139Y-8034268D01*
X11144647Y-8036162D01*
X11147550Y-8046997D01*
X11149154Y-8049776D01*
X11154139Y-8058410D01*
X11163458Y-8067728D01*
X11173341Y-8073435D01*
X11174178Y-8073918D01*
X11174871Y-8074318D01*
X11187600Y-8077728D01*
X11187600Y-8077728D01*
X11200778Y-8077728D01*
X11200778Y-8077728D01*
X11213508Y-8074318D01*
X11220509Y-8070275D01*
X11581815Y-8070275D01*
X11581815Y-8083454D01*
X11585225Y-8096183D01*
X11588330Y-8101561D01*
X11591815Y-8107596D01*
X11601133Y-8116915D01*
X11612546Y-8123504D01*
X11625275Y-8126915D01*
X11625276Y-8126915D01*
X11638454Y-8126915D01*
X11638454Y-8126915D01*
X11651183Y-8123504D01*
X11662596Y-8116915D01*
X11671915Y-8107596D01*
X11678504Y-8096183D01*
X11681915Y-8083454D01*
X11681915Y-8070275D01*
X11678504Y-8057546D01*
X11671915Y-8046133D01*
X11662596Y-8036815D01*
X11655233Y-8032563D01*
X11655233Y-8032563D01*
X11651183Y-8030225D01*
X11651183Y-8030225D01*
X11638454Y-8026815D01*
X11625275Y-8026815D01*
X11612546Y-8030225D01*
X11601133Y-8036815D01*
X11601133Y-8036815D01*
X11591815Y-8046133D01*
X11591815Y-8046133D01*
X11585225Y-8057546D01*
X11581815Y-8070275D01*
X11220509Y-8070275D01*
X11224921Y-8067728D01*
X11234239Y-8058410D01*
X11240828Y-8046997D01*
X11244239Y-8034268D01*
X11244239Y-8021089D01*
X11240828Y-8008360D01*
X11235333Y-7998841D01*
X11466960Y-7998841D01*
X11466960Y-8012019D01*
X11470370Y-8024749D01*
X11473532Y-8030225D01*
X11476960Y-8036162D01*
X11486278Y-8045480D01*
X11497691Y-8052070D01*
X11510420Y-8055480D01*
X11510421Y-8055480D01*
X11523599Y-8055480D01*
X11523599Y-8055480D01*
X11536328Y-8052070D01*
X11547741Y-8045480D01*
X11557060Y-8036162D01*
X11563649Y-8024749D01*
X11564215Y-8022637D01*
X12511177Y-8022637D01*
X12511177Y-8035816D01*
X12511386Y-8036597D01*
X12514587Y-8048545D01*
X12516900Y-8052550D01*
X12521177Y-8059958D01*
X12530495Y-8069277D01*
X12541908Y-8075866D01*
X12554637Y-8079277D01*
X12554638Y-8079277D01*
X12567816Y-8079277D01*
X12567816Y-8079277D01*
X12580545Y-8075866D01*
X12591958Y-8069277D01*
X12601277Y-8059958D01*
X12607866Y-8048545D01*
X12611277Y-8035816D01*
X12611277Y-8022637D01*
X12607866Y-8009908D01*
X12601277Y-7998495D01*
X12591958Y-7989177D01*
X12586252Y-7985882D01*
X12580545Y-7982587D01*
X12574181Y-7980882D01*
X12567816Y-7979177D01*
X12554637Y-7979177D01*
X12541908Y-7982587D01*
X12530495Y-7989177D01*
X12530495Y-7989177D01*
X12521177Y-7998495D01*
X12521177Y-7998495D01*
X12514587Y-8009908D01*
X12513664Y-8013355D01*
X12511177Y-8022637D01*
X11564215Y-8022637D01*
X11567060Y-8012020D01*
X11567060Y-7998841D01*
X11563649Y-7986112D01*
X11557060Y-7974699D01*
X11547741Y-7965380D01*
X11542035Y-7962086D01*
X11536328Y-7958791D01*
X11529963Y-7957086D01*
X11523599Y-7955380D01*
X11510420Y-7955380D01*
X11497691Y-7958791D01*
X11486278Y-7965380D01*
X11486278Y-7965381D01*
X11476960Y-7974699D01*
X11476960Y-7974699D01*
X11470370Y-7986112D01*
X11466960Y-7998841D01*
X11235333Y-7998841D01*
X11234239Y-7996947D01*
X11224921Y-7987628D01*
X11218877Y-7984139D01*
X11213508Y-7981039D01*
X11206557Y-7979177D01*
X11200778Y-7977628D01*
X11187600Y-7977628D01*
X11174870Y-7981039D01*
X11163458Y-7987628D01*
X11163458Y-7987629D01*
X11154139Y-7996947D01*
X11154139Y-7996947D01*
X11147550Y-8008360D01*
X11144139Y-8021089D01*
X10993715Y-8021089D01*
X10988730Y-8012455D01*
X10979412Y-8003136D01*
X10971372Y-7998495D01*
X10967999Y-7996547D01*
X10961634Y-7994842D01*
X10955269Y-7993136D01*
X10942091Y-7993136D01*
X10929361Y-7996547D01*
X10917949Y-8003136D01*
X10917948Y-8003137D01*
X10914972Y-8006113D01*
X10908840Y-8009461D01*
X10901871Y-8008962D01*
X10900005Y-8008083D01*
X10895299Y-8005366D01*
X10882569Y-8001955D01*
X10869391Y-8001955D01*
X10856661Y-8005366D01*
X10845249Y-8011955D01*
X10845248Y-8011956D01*
X10835930Y-8021274D01*
X10835930Y-8021274D01*
X10829341Y-8032687D01*
X10828235Y-8036815D01*
X10825930Y-8045416D01*
X10825930Y-8058595D01*
X10829060Y-8070275D01*
X10829341Y-8071324D01*
X10829341Y-8071324D01*
X10835138Y-8081365D01*
X10836785Y-8088155D01*
X10834861Y-8093716D01*
X10835079Y-8093842D01*
X10834673Y-8094546D01*
X10834673Y-8094546D01*
X10832691Y-8097978D01*
X10828084Y-8105958D01*
X10824673Y-8118688D01*
X10341505Y-8118688D01*
X10344050Y-8109189D01*
X10344050Y-8096011D01*
X10340639Y-8083281D01*
X10340613Y-8083236D01*
X10338327Y-8079277D01*
X10334050Y-8071869D01*
X10324731Y-8062550D01*
X10317880Y-8058594D01*
X10313319Y-8055961D01*
X10306954Y-8054255D01*
X10300589Y-8052550D01*
X10287411Y-8052550D01*
X10274681Y-8055961D01*
X10263269Y-8062550D01*
X10263268Y-8062550D01*
X10253950Y-8071868D01*
X10253950Y-8071869D01*
X10247361Y-8083281D01*
X10243950Y-8096011D01*
X10164330Y-8096011D01*
X10160919Y-8083281D01*
X10160893Y-8083236D01*
X10158607Y-8079277D01*
X10154330Y-8071869D01*
X10145011Y-8062550D01*
X10138160Y-8058594D01*
X10133599Y-8055961D01*
X10127234Y-8054255D01*
X10120869Y-8052550D01*
X10107691Y-8052550D01*
X10094961Y-8055961D01*
X10083549Y-8062550D01*
X10083548Y-8062550D01*
X10074230Y-8071868D01*
X10074230Y-8071869D01*
X10067641Y-8083281D01*
X10064230Y-8096011D01*
X9797050Y-8096011D01*
X9797050Y-7831851D01*
X10135350Y-7831851D01*
X10135350Y-7845029D01*
X10138761Y-7857759D01*
X10140561Y-7860876D01*
X10145350Y-7869171D01*
X10145350Y-7869172D01*
X10155243Y-7879065D01*
X10155036Y-7879272D01*
X10158324Y-7883778D01*
X10158738Y-7890753D01*
X10155315Y-7896844D01*
X10155013Y-7897105D01*
X10145350Y-7906768D01*
X10145350Y-7906769D01*
X10138761Y-7918181D01*
X10135350Y-7930911D01*
X10135350Y-7944089D01*
X10138761Y-7956819D01*
X10142055Y-7962525D01*
X10145350Y-7968231D01*
X10154669Y-7977550D01*
X10166081Y-7984139D01*
X10178811Y-7987550D01*
X10178811Y-7987550D01*
X10191989Y-7987550D01*
X10191989Y-7987550D01*
X10204719Y-7984139D01*
X10216131Y-7977550D01*
X10225450Y-7968231D01*
X10232039Y-7956819D01*
X10235450Y-7944089D01*
X10235450Y-7930911D01*
X10232039Y-7918181D01*
X10225450Y-7906769D01*
X10219608Y-7900926D01*
X11600130Y-7900926D01*
X11600130Y-7914105D01*
X11603540Y-7926834D01*
X11605894Y-7930911D01*
X11610130Y-7938247D01*
X11619448Y-7947565D01*
X11630861Y-7954155D01*
X11643590Y-7957565D01*
X11643591Y-7957565D01*
X11656769Y-7957565D01*
X11656769Y-7957565D01*
X11669498Y-7954155D01*
X11680911Y-7947565D01*
X11690230Y-7938247D01*
X11696819Y-7926834D01*
X11700230Y-7914105D01*
X11700230Y-7900926D01*
X11696819Y-7888197D01*
X11690230Y-7876784D01*
X11680911Y-7867465D01*
X11675205Y-7864171D01*
X11669498Y-7860876D01*
X11657863Y-7857759D01*
X11656769Y-7857465D01*
X11643590Y-7857465D01*
X11630861Y-7860876D01*
X11619448Y-7867465D01*
X11619448Y-7867466D01*
X11610130Y-7876784D01*
X11610130Y-7876784D01*
X11603540Y-7888197D01*
X11600130Y-7900926D01*
X10219608Y-7900926D01*
X10216131Y-7897450D01*
X10215984Y-7897365D01*
X10215246Y-7896604D01*
X10214023Y-7894282D01*
X10212477Y-7892165D01*
X10212422Y-7891241D01*
X10211991Y-7890421D01*
X10212218Y-7887808D01*
X10212062Y-7885190D01*
X10212515Y-7884383D01*
X10212595Y-7883461D01*
X10214199Y-7881385D01*
X10215483Y-7879098D01*
X10215785Y-7878836D01*
X10216131Y-7878490D01*
X10216131Y-7878490D01*
X10225450Y-7869171D01*
X10232039Y-7857759D01*
X10235450Y-7845029D01*
X10235450Y-7831851D01*
X10232039Y-7819121D01*
X10225450Y-7807709D01*
X10216131Y-7798390D01*
X10210425Y-7795095D01*
X10204719Y-7791801D01*
X10198354Y-7790095D01*
X10191989Y-7788390D01*
X10178811Y-7788390D01*
X10166081Y-7791801D01*
X10154669Y-7798390D01*
X10154668Y-7798390D01*
X10145350Y-7807708D01*
X10145350Y-7807709D01*
X10138761Y-7819121D01*
X10135350Y-7831851D01*
X9797050Y-7831851D01*
X9797050Y-7750571D01*
X9967710Y-7750571D01*
X9967710Y-7763749D01*
X9971121Y-7776479D01*
X9974291Y-7781970D01*
X9977710Y-7787891D01*
X9987029Y-7797210D01*
X9998441Y-7803799D01*
X10011171Y-7807210D01*
X10011171Y-7807210D01*
X10024349Y-7807210D01*
X10024349Y-7807210D01*
X10037079Y-7803799D01*
X10048491Y-7797210D01*
X10057810Y-7787891D01*
X10064399Y-7776479D01*
X10067810Y-7763749D01*
X10067810Y-7750571D01*
X10064399Y-7737841D01*
X10062950Y-7735331D01*
X11730690Y-7735331D01*
X11730690Y-7748509D01*
X11734101Y-7761239D01*
X11735550Y-7763749D01*
X11740690Y-7772651D01*
X11750009Y-7781970D01*
X11761421Y-7788559D01*
X11774151Y-7791970D01*
X11774151Y-7791970D01*
X11787329Y-7791970D01*
X11787329Y-7791970D01*
X11800059Y-7788559D01*
X11808976Y-7783411D01*
X12499950Y-7783411D01*
X12499950Y-7796589D01*
X12500432Y-7798390D01*
X12503361Y-7809319D01*
X12506655Y-7815025D01*
X12509950Y-7820731D01*
X12519269Y-7830050D01*
X12530681Y-7836639D01*
X12543411Y-7840050D01*
X12543411Y-7840050D01*
X12556589Y-7840050D01*
X12556589Y-7840050D01*
X12569319Y-7836639D01*
X12580731Y-7830050D01*
X12590050Y-7820731D01*
X12596639Y-7809319D01*
X12600050Y-7796589D01*
X12600050Y-7783411D01*
X12596639Y-7770681D01*
X12590050Y-7759269D01*
X12580731Y-7749950D01*
X12575025Y-7746655D01*
X12569319Y-7743361D01*
X12562954Y-7741655D01*
X12556589Y-7739950D01*
X12543411Y-7739950D01*
X12530681Y-7743361D01*
X12519269Y-7749950D01*
X12519268Y-7749950D01*
X12509950Y-7759268D01*
X12509950Y-7759269D01*
X12503361Y-7770681D01*
X12501807Y-7776479D01*
X12499950Y-7783411D01*
X11808976Y-7783411D01*
X11811471Y-7781970D01*
X11820790Y-7772651D01*
X11827379Y-7761239D01*
X11830790Y-7748509D01*
X11830790Y-7735331D01*
X11827379Y-7722601D01*
X11820790Y-7711189D01*
X11811471Y-7701870D01*
X11805765Y-7698575D01*
X11800059Y-7695281D01*
X11793694Y-7693575D01*
X11787329Y-7691870D01*
X11774151Y-7691870D01*
X11761421Y-7695281D01*
X11750009Y-7701870D01*
X11750008Y-7701870D01*
X11740690Y-7711188D01*
X11740690Y-7711189D01*
X11734101Y-7722601D01*
X11730690Y-7735331D01*
X10062950Y-7735331D01*
X10057810Y-7726429D01*
X10048491Y-7717110D01*
X10038235Y-7711189D01*
X10037079Y-7710521D01*
X10030714Y-7708815D01*
X10024349Y-7707110D01*
X10011171Y-7707110D01*
X9998441Y-7710521D01*
X9987029Y-7717110D01*
X9987028Y-7717110D01*
X9977710Y-7726428D01*
X9977710Y-7726429D01*
X9971121Y-7737841D01*
X9967710Y-7750571D01*
X9797050Y-7750571D01*
X9797050Y-7605561D01*
X11057600Y-7605561D01*
X11057600Y-7618739D01*
X11061011Y-7631469D01*
X11064305Y-7637175D01*
X11067600Y-7642881D01*
X11076919Y-7652200D01*
X11088331Y-7658789D01*
X11101061Y-7662200D01*
X11101061Y-7662200D01*
X11114239Y-7662200D01*
X11114239Y-7662200D01*
X11126969Y-7658789D01*
X11138381Y-7652200D01*
X11147700Y-7642881D01*
X11154289Y-7631469D01*
X11157700Y-7618739D01*
X11157700Y-7605561D01*
X11154289Y-7592831D01*
X11147700Y-7581419D01*
X11138381Y-7572100D01*
X11132675Y-7568805D01*
X11126969Y-7565511D01*
X11122519Y-7564319D01*
X11114239Y-7562100D01*
X11101061Y-7562100D01*
X11088331Y-7565511D01*
X11076919Y-7572100D01*
X11076918Y-7572100D01*
X11067600Y-7581418D01*
X11067600Y-7581419D01*
X11061011Y-7592831D01*
X11057600Y-7605561D01*
X9797050Y-7605561D01*
X9797050Y-7491491D01*
X10607790Y-7491491D01*
X10607790Y-7504669D01*
X10611201Y-7517399D01*
X10613873Y-7522027D01*
X10617790Y-7528811D01*
X10627109Y-7538130D01*
X10638521Y-7544719D01*
X10651251Y-7548130D01*
X10652469Y-7548130D01*
X10659173Y-7550098D01*
X10663748Y-7555379D01*
X10664446Y-7557320D01*
X10666852Y-7566299D01*
X10673441Y-7577711D01*
X10682760Y-7587030D01*
X10694172Y-7593619D01*
X10706902Y-7597030D01*
X10706902Y-7597030D01*
X10720080Y-7597030D01*
X10720080Y-7597030D01*
X10732810Y-7593619D01*
X10744222Y-7587030D01*
X10753541Y-7577711D01*
X10760130Y-7566299D01*
X10763541Y-7553569D01*
X10763541Y-7545553D01*
X10765510Y-7538849D01*
X10770790Y-7534273D01*
X10777706Y-7533279D01*
X10782141Y-7534814D01*
X10787546Y-7537935D01*
X10800275Y-7541345D01*
X10800276Y-7541345D01*
X10803670Y-7541345D01*
X10810374Y-7543314D01*
X10814949Y-7548594D01*
X10815859Y-7552777D01*
X10815964Y-7552763D01*
X10816070Y-7553569D01*
X10819481Y-7566299D01*
X10822775Y-7572005D01*
X10826070Y-7577711D01*
X10835389Y-7587030D01*
X10846801Y-7593619D01*
X10859531Y-7597030D01*
X10859531Y-7597030D01*
X10872709Y-7597030D01*
X10872709Y-7597030D01*
X10885439Y-7593619D01*
X10896851Y-7587030D01*
X10906170Y-7577711D01*
X10912759Y-7566299D01*
X10916170Y-7553569D01*
X10916170Y-7540391D01*
X10943070Y-7540391D01*
X10943070Y-7553569D01*
X10946481Y-7566299D01*
X10949775Y-7572005D01*
X10953070Y-7577711D01*
X10962389Y-7587030D01*
X10973801Y-7593619D01*
X10986531Y-7597030D01*
X10986531Y-7597030D01*
X10999709Y-7597030D01*
X10999709Y-7597030D01*
X11012439Y-7593619D01*
X11023851Y-7587030D01*
X11033170Y-7577711D01*
X11039759Y-7566299D01*
X11043170Y-7553569D01*
X11043170Y-7551211D01*
X12499950Y-7551211D01*
X12499950Y-7564389D01*
X12501655Y-7570754D01*
X12503361Y-7577119D01*
X12505843Y-7581418D01*
X12509950Y-7588531D01*
X12519269Y-7597850D01*
X12530681Y-7604439D01*
X12543411Y-7607850D01*
X12543411Y-7607850D01*
X12556589Y-7607850D01*
X12556589Y-7607850D01*
X12569319Y-7604439D01*
X12580731Y-7597850D01*
X12590050Y-7588531D01*
X12596639Y-7577119D01*
X12600050Y-7564389D01*
X12600050Y-7551211D01*
X12596639Y-7538481D01*
X12596436Y-7538130D01*
X12592519Y-7531345D01*
X12590050Y-7527069D01*
X12580731Y-7517750D01*
X12575025Y-7514455D01*
X12569319Y-7511161D01*
X12562954Y-7509455D01*
X12556589Y-7507750D01*
X12543411Y-7507750D01*
X12530681Y-7511161D01*
X12519269Y-7517750D01*
X12519268Y-7517750D01*
X12509950Y-7527068D01*
X12509950Y-7527069D01*
X12503361Y-7538481D01*
X12500775Y-7548130D01*
X12499950Y-7551211D01*
X11043170Y-7551211D01*
X11043170Y-7540391D01*
X11039759Y-7527661D01*
X11039417Y-7527069D01*
X11038876Y-7526132D01*
X11033170Y-7516249D01*
X11023851Y-7506930D01*
X11017844Y-7503461D01*
X11012439Y-7500341D01*
X11003272Y-7497885D01*
X10999709Y-7496930D01*
X10986531Y-7496930D01*
X10973801Y-7500341D01*
X10962389Y-7506930D01*
X10962388Y-7506930D01*
X10953070Y-7516248D01*
X10953070Y-7516249D01*
X10946481Y-7527661D01*
X10943070Y-7540391D01*
X10916170Y-7540391D01*
X10912759Y-7527661D01*
X10912417Y-7527069D01*
X10911876Y-7526132D01*
X10906170Y-7516249D01*
X10896851Y-7506930D01*
X10890844Y-7503461D01*
X10885439Y-7500341D01*
X10876272Y-7497885D01*
X10872709Y-7496930D01*
X10869315Y-7496930D01*
X10862611Y-7494961D01*
X10858035Y-7489681D01*
X10857125Y-7485498D01*
X10857021Y-7485512D01*
X10856915Y-7484707D01*
X10856915Y-7484706D01*
X10853504Y-7471977D01*
X10846915Y-7460564D01*
X10837596Y-7451245D01*
X10831890Y-7447951D01*
X10826183Y-7444656D01*
X10819819Y-7442951D01*
X10813454Y-7441245D01*
X10800275Y-7441245D01*
X10787546Y-7444656D01*
X10776133Y-7451245D01*
X10776133Y-7451246D01*
X10766815Y-7460564D01*
X10766815Y-7460564D01*
X10760225Y-7471977D01*
X10756815Y-7484706D01*
X10756815Y-7492723D01*
X10754846Y-7499426D01*
X10749566Y-7504002D01*
X10742650Y-7504996D01*
X10738215Y-7503461D01*
X10732810Y-7500341D01*
X10732810Y-7500341D01*
X10720080Y-7496930D01*
X10720080Y-7496930D01*
X10718862Y-7496930D01*
X10712158Y-7494961D01*
X10707583Y-7489681D01*
X10706885Y-7487739D01*
X10704479Y-7478761D01*
X10697890Y-7467349D01*
X10688571Y-7458030D01*
X10682865Y-7454735D01*
X10677159Y-7451441D01*
X10670794Y-7449735D01*
X10664429Y-7448030D01*
X10651251Y-7448030D01*
X10638521Y-7451441D01*
X10627109Y-7458030D01*
X10627108Y-7458030D01*
X10617790Y-7467348D01*
X10617790Y-7467349D01*
X10611201Y-7478761D01*
X10607790Y-7491491D01*
X9797050Y-7491491D01*
X9797050Y-7295162D01*
X9895000Y-7295162D01*
X9895000Y-7314838D01*
X9898078Y-7334270D01*
X9904158Y-7352983D01*
X9913091Y-7370514D01*
X9915632Y-7374012D01*
X9915632Y-7374012D01*
X9971704Y-7317941D01*
X9973408Y-7324299D01*
X9979990Y-7335701D01*
X9989299Y-7345010D01*
X10000701Y-7351592D01*
X10007059Y-7353296D01*
X9950987Y-7409368D01*
X9950987Y-7409368D01*
X9954486Y-7411910D01*
X9972016Y-7420842D01*
X9990729Y-7426922D01*
X10010162Y-7430000D01*
X10029838Y-7430000D01*
X10049271Y-7426922D01*
X10067984Y-7420842D01*
X10085514Y-7411909D01*
X10089013Y-7409368D01*
X10089013Y-7409368D01*
X10032941Y-7353296D01*
X10039299Y-7351592D01*
X10050701Y-7345010D01*
X10060010Y-7335701D01*
X10066593Y-7324299D01*
X10068296Y-7317941D01*
X10124368Y-7374013D01*
X10124368Y-7374012D01*
X10126910Y-7370514D01*
X10135624Y-7353411D01*
X11923510Y-7353411D01*
X11923510Y-7366589D01*
X11926921Y-7379319D01*
X11930215Y-7385025D01*
X11933510Y-7390731D01*
X11942829Y-7400050D01*
X11954241Y-7406639D01*
X11966971Y-7410050D01*
X11966971Y-7410050D01*
X11980149Y-7410050D01*
X11980149Y-7410050D01*
X11992879Y-7406639D01*
X12004291Y-7400050D01*
X12013610Y-7390731D01*
X12020199Y-7379319D01*
X12023610Y-7366589D01*
X12023610Y-7353411D01*
X12020199Y-7340681D01*
X12013610Y-7329269D01*
X12004291Y-7319950D01*
X12001843Y-7318537D01*
X12001843Y-7318537D01*
X11992879Y-7313361D01*
X11992879Y-7313361D01*
X11992879Y-7313361D01*
X11980149Y-7309950D01*
X11966971Y-7309950D01*
X11954241Y-7313361D01*
X11942829Y-7319950D01*
X11942828Y-7319950D01*
X11933510Y-7329268D01*
X11933510Y-7329269D01*
X11926921Y-7340681D01*
X11923510Y-7353411D01*
X10135624Y-7353411D01*
X10135842Y-7352984D01*
X10137212Y-7348766D01*
X10137212Y-7348766D01*
X10141922Y-7334270D01*
X10145000Y-7314838D01*
X10145000Y-7308611D01*
X12190400Y-7308611D01*
X12190400Y-7321789D01*
X12193811Y-7334519D01*
X12197105Y-7340225D01*
X12200400Y-7345931D01*
X12209719Y-7355250D01*
X12221131Y-7361839D01*
X12233861Y-7365250D01*
X12233861Y-7365250D01*
X12247039Y-7365250D01*
X12247039Y-7365250D01*
X12247039Y-7365250D01*
X12247845Y-7365144D01*
X12247872Y-7365347D01*
X12253757Y-7365487D01*
X12259544Y-7369404D01*
X12261960Y-7374089D01*
X12263361Y-7379319D01*
X12269950Y-7390731D01*
X12279269Y-7400050D01*
X12290681Y-7406639D01*
X12303411Y-7410050D01*
X12303411Y-7410050D01*
X12316589Y-7410050D01*
X12316589Y-7410050D01*
X12329319Y-7406639D01*
X12340731Y-7400050D01*
X12350050Y-7390731D01*
X12356639Y-7379319D01*
X12360050Y-7366589D01*
X12360050Y-7353411D01*
X12356639Y-7340681D01*
X12350050Y-7329269D01*
X12340731Y-7319950D01*
X12333457Y-7315750D01*
X12329319Y-7313361D01*
X12322682Y-7311583D01*
X12316589Y-7309950D01*
X12303411Y-7309950D01*
X12303411Y-7309950D01*
X12302605Y-7310056D01*
X12302578Y-7309853D01*
X12296690Y-7309711D01*
X12290904Y-7305794D01*
X12288490Y-7301110D01*
X12287089Y-7295881D01*
X12280500Y-7284469D01*
X12271181Y-7275150D01*
X12260593Y-7269037D01*
X12260593Y-7269037D01*
X12260593Y-7269037D01*
X12259769Y-7268561D01*
X12251282Y-7266287D01*
X12247039Y-7265150D01*
X12233861Y-7265150D01*
X12221131Y-7268561D01*
X12209719Y-7275150D01*
X12209718Y-7275150D01*
X12200400Y-7284468D01*
X12200400Y-7284469D01*
X12193811Y-7295881D01*
X12190400Y-7308611D01*
X10145000Y-7308611D01*
X10145000Y-7295162D01*
X10141922Y-7275729D01*
X10136522Y-7259111D01*
X12386308Y-7259111D01*
X12386308Y-7272289D01*
X12387075Y-7275150D01*
X12389719Y-7285019D01*
X12390113Y-7285701D01*
X12396308Y-7296431D01*
X12405627Y-7305750D01*
X12417040Y-7312339D01*
X12429769Y-7315750D01*
X12429769Y-7315750D01*
X12442947Y-7315750D01*
X12442947Y-7315750D01*
X12455677Y-7312339D01*
X12467090Y-7305750D01*
X12476408Y-7296431D01*
X12482997Y-7285019D01*
X12486408Y-7272289D01*
X12486408Y-7259111D01*
X12482997Y-7246381D01*
X12476408Y-7234969D01*
X12467090Y-7225650D01*
X12461383Y-7222355D01*
X12455677Y-7219061D01*
X12449312Y-7217355D01*
X12442947Y-7215650D01*
X12429769Y-7215650D01*
X12417039Y-7219061D01*
X12405627Y-7225650D01*
X12405627Y-7225650D01*
X12396308Y-7234968D01*
X12396308Y-7234969D01*
X12389719Y-7246381D01*
X12387410Y-7255000D01*
X12386308Y-7259111D01*
X10136522Y-7259111D01*
X10135842Y-7257016D01*
X10126910Y-7239486D01*
X10124368Y-7235987D01*
X10124368Y-7235987D01*
X10068296Y-7292059D01*
X10066593Y-7285701D01*
X10060010Y-7274299D01*
X10050701Y-7264990D01*
X10039299Y-7258407D01*
X10032941Y-7256704D01*
X10089013Y-7200632D01*
X10089013Y-7200632D01*
X10085515Y-7198090D01*
X10067984Y-7189158D01*
X10049271Y-7183078D01*
X10049271Y-7183078D01*
X10031673Y-7180290D01*
X10025359Y-7177297D01*
X10021666Y-7171366D01*
X10021766Y-7164380D01*
X10025627Y-7158557D01*
X10031193Y-7155881D01*
X10050642Y-7152013D01*
X10069760Y-7144094D01*
X10086966Y-7132598D01*
X10101598Y-7117965D01*
X10103198Y-7115571D01*
X10597630Y-7115571D01*
X10597630Y-7128749D01*
X10601041Y-7141479D01*
X10604335Y-7147185D01*
X10607630Y-7152891D01*
X10616949Y-7162210D01*
X10628361Y-7168799D01*
X10641091Y-7172210D01*
X10641091Y-7172210D01*
X10654269Y-7172210D01*
X10654269Y-7172210D01*
X10666999Y-7168799D01*
X10678411Y-7162210D01*
X10687730Y-7152891D01*
X10694319Y-7141479D01*
X10697730Y-7128749D01*
X10697730Y-7115571D01*
X10694901Y-7105011D01*
X11404950Y-7105011D01*
X11404950Y-7118189D01*
X11408361Y-7130919D01*
X11409330Y-7132597D01*
X11414950Y-7142331D01*
X11424269Y-7151650D01*
X11435681Y-7158239D01*
X11448411Y-7161650D01*
X11448411Y-7161650D01*
X11461589Y-7161650D01*
X11461589Y-7161650D01*
X11474319Y-7158239D01*
X11485731Y-7151650D01*
X11495050Y-7142331D01*
X11501639Y-7130919D01*
X11505050Y-7118189D01*
X11505050Y-7105011D01*
X11501639Y-7092281D01*
X11495050Y-7080869D01*
X11485731Y-7071550D01*
X11482788Y-7069851D01*
X12258790Y-7069851D01*
X12258790Y-7083029D01*
X12262201Y-7095759D01*
X12265495Y-7101465D01*
X12268790Y-7107171D01*
X12278109Y-7116490D01*
X12289521Y-7123079D01*
X12302251Y-7126490D01*
X12302251Y-7126490D01*
X12315429Y-7126490D01*
X12315429Y-7126490D01*
X12328159Y-7123079D01*
X12339571Y-7116490D01*
X12348890Y-7107171D01*
X12355479Y-7095759D01*
X12358890Y-7083029D01*
X12358890Y-7069851D01*
X12355479Y-7057121D01*
X12348890Y-7045709D01*
X12339571Y-7036390D01*
X12333865Y-7033095D01*
X12328159Y-7029801D01*
X12321794Y-7028095D01*
X12315429Y-7026390D01*
X12302251Y-7026390D01*
X12289521Y-7029801D01*
X12278109Y-7036390D01*
X12278108Y-7036390D01*
X12268790Y-7045708D01*
X12268790Y-7045709D01*
X12262201Y-7057121D01*
X12258790Y-7069851D01*
X11482788Y-7069851D01*
X11480025Y-7068255D01*
X11474319Y-7064961D01*
X11467954Y-7063255D01*
X11461589Y-7061550D01*
X11448411Y-7061550D01*
X11435681Y-7064961D01*
X11424269Y-7071550D01*
X11424268Y-7071550D01*
X11414950Y-7080868D01*
X11414950Y-7080869D01*
X11408361Y-7092281D01*
X11404950Y-7105011D01*
X10694901Y-7105011D01*
X10694319Y-7102841D01*
X10687730Y-7091429D01*
X10678411Y-7082110D01*
X10672705Y-7078815D01*
X10666999Y-7075521D01*
X10660634Y-7073815D01*
X10654269Y-7072110D01*
X10641091Y-7072110D01*
X10628361Y-7075521D01*
X10616949Y-7082110D01*
X10616948Y-7082110D01*
X10607630Y-7091428D01*
X10607630Y-7091429D01*
X10601041Y-7102841D01*
X10597630Y-7115571D01*
X10103198Y-7115571D01*
X10113094Y-7100760D01*
X10121013Y-7081642D01*
X10125050Y-7061346D01*
X10125050Y-7040653D01*
X10121013Y-7020358D01*
X10113094Y-7001240D01*
X10101598Y-6984034D01*
X10101598Y-6984034D01*
X10086966Y-6969402D01*
X10078363Y-6963654D01*
X10069760Y-6957906D01*
X10050642Y-6949987D01*
X10050641Y-6949987D01*
X10030347Y-6945950D01*
X10030347Y-6945950D01*
X10009654Y-6945950D01*
X10009653Y-6945950D01*
X9989359Y-6949987D01*
X9989358Y-6949987D01*
X9970240Y-6957906D01*
X9953034Y-6969402D01*
X9938402Y-6984034D01*
X9926906Y-7001240D01*
X9918987Y-7020358D01*
X9918987Y-7020359D01*
X9914950Y-7040653D01*
X9914950Y-7061347D01*
X9918987Y-7081641D01*
X9918987Y-7081642D01*
X9926906Y-7100760D01*
X9932654Y-7109363D01*
X9938402Y-7117966D01*
X9953034Y-7132597D01*
X9953035Y-7132598D01*
X9970240Y-7144094D01*
X9989358Y-7152013D01*
X10008806Y-7155881D01*
X10014998Y-7159120D01*
X10018455Y-7165191D01*
X10018081Y-7172168D01*
X10013994Y-7177836D01*
X10008327Y-7180290D01*
X9990729Y-7183078D01*
X9972016Y-7189158D01*
X9954486Y-7198090D01*
X9954486Y-7198090D01*
X9950987Y-7200632D01*
X9950987Y-7200632D01*
X10007059Y-7256704D01*
X10000701Y-7258407D01*
X9989299Y-7264990D01*
X9979990Y-7274299D01*
X9973408Y-7285701D01*
X9971704Y-7292059D01*
X9915632Y-7235987D01*
X9915632Y-7235987D01*
X9913090Y-7239486D01*
X9913090Y-7239486D01*
X9904158Y-7257016D01*
X9898078Y-7275729D01*
X9895000Y-7295162D01*
X9797050Y-7295162D01*
X9797050Y-6786653D01*
X9914950Y-6786653D01*
X9914950Y-6807347D01*
X9918987Y-6827641D01*
X9918987Y-6827642D01*
X9926906Y-6846760D01*
X9938402Y-6863966D01*
X9953034Y-6878597D01*
X9953035Y-6878598D01*
X9970240Y-6890094D01*
X9989358Y-6898013D01*
X10009653Y-6902050D01*
X10009653Y-6902050D01*
X10009654Y-6902050D01*
X10030347Y-6902050D01*
X10030347Y-6902050D01*
X10050642Y-6898013D01*
X10069760Y-6890094D01*
X10086966Y-6878598D01*
X10101598Y-6863965D01*
X10113094Y-6846760D01*
X10121013Y-6827642D01*
X10125050Y-6807346D01*
X10125050Y-6786653D01*
X10121013Y-6766358D01*
X10113094Y-6747240D01*
X10101598Y-6730034D01*
X10101598Y-6730034D01*
X10086966Y-6715402D01*
X10078363Y-6709654D01*
X10069760Y-6703906D01*
X10050642Y-6695987D01*
X10050641Y-6695987D01*
X10030347Y-6691950D01*
X10030347Y-6691950D01*
X10009654Y-6691950D01*
X10009653Y-6691950D01*
X9989359Y-6695987D01*
X9989358Y-6695987D01*
X9970240Y-6703906D01*
X9953034Y-6715402D01*
X9938402Y-6730034D01*
X9926906Y-6747240D01*
X9918987Y-6766358D01*
X9918987Y-6766359D01*
X9914950Y-6786653D01*
X9797050Y-6786653D01*
X9797050Y-6532653D01*
X9914950Y-6532653D01*
X9914950Y-6553347D01*
X9918987Y-6573641D01*
X9918987Y-6573642D01*
X9926906Y-6592760D01*
X9938402Y-6609966D01*
X9953034Y-6624597D01*
X9953035Y-6624598D01*
X9970240Y-6636094D01*
X9989358Y-6644013D01*
X10009653Y-6648050D01*
X10009653Y-6648050D01*
X10009654Y-6648050D01*
X10030347Y-6648050D01*
X10030347Y-6648050D01*
X10050642Y-6644013D01*
X10067040Y-6637221D01*
X12009870Y-6637221D01*
X12009870Y-6650399D01*
X12013281Y-6663129D01*
X12016575Y-6668835D01*
X12019870Y-6674541D01*
X12029189Y-6683860D01*
X12040601Y-6690449D01*
X12053331Y-6693860D01*
X12053331Y-6693860D01*
X12066509Y-6693860D01*
X12066509Y-6693860D01*
X12079239Y-6690449D01*
X12090651Y-6683860D01*
X12099970Y-6674541D01*
X12106559Y-6663129D01*
X12109970Y-6650399D01*
X12109970Y-6637221D01*
X12106559Y-6624491D01*
X12099970Y-6613079D01*
X12090651Y-6603760D01*
X12087812Y-6602121D01*
X12502196Y-6602121D01*
X12502196Y-6615299D01*
X12505607Y-6628029D01*
X12508901Y-6633735D01*
X12512196Y-6639441D01*
X12521514Y-6648760D01*
X12532927Y-6655349D01*
X12545657Y-6658760D01*
X12545657Y-6658760D01*
X12558835Y-6658760D01*
X12558835Y-6658760D01*
X12571564Y-6655349D01*
X12582977Y-6648760D01*
X12592296Y-6639441D01*
X12598885Y-6628029D01*
X12602296Y-6615299D01*
X12602296Y-6602121D01*
X12598885Y-6589391D01*
X12592296Y-6577979D01*
X12582977Y-6568660D01*
X12575389Y-6564279D01*
X12571564Y-6562071D01*
X12565200Y-6560365D01*
X12558835Y-6558660D01*
X12545657Y-6558660D01*
X12532927Y-6562071D01*
X12521514Y-6568660D01*
X12521514Y-6568660D01*
X12512196Y-6577978D01*
X12512196Y-6577979D01*
X12505607Y-6589391D01*
X12502196Y-6602121D01*
X12087812Y-6602121D01*
X12084945Y-6600465D01*
X12079239Y-6597171D01*
X12072874Y-6595465D01*
X12066509Y-6593760D01*
X12053331Y-6593760D01*
X12040601Y-6597171D01*
X12029189Y-6603760D01*
X12029188Y-6603760D01*
X12019870Y-6613078D01*
X12019870Y-6613079D01*
X12013281Y-6624491D01*
X12009870Y-6637221D01*
X10067040Y-6637221D01*
X10069760Y-6636094D01*
X10069760Y-6636094D01*
X10069760Y-6636094D01*
X10084720Y-6626098D01*
X10084720Y-6626098D01*
X10086966Y-6624598D01*
X10101598Y-6609965D01*
X10113094Y-6592760D01*
X10121013Y-6573642D01*
X10125050Y-6553346D01*
X10125050Y-6532653D01*
X10123374Y-6524229D01*
X10121073Y-6512657D01*
X10121073Y-6512657D01*
X10121013Y-6512359D01*
X10121013Y-6512359D01*
X10121013Y-6512358D01*
X10120472Y-6511051D01*
X12604230Y-6511051D01*
X12604230Y-6524229D01*
X12607641Y-6536959D01*
X12610935Y-6542665D01*
X12614230Y-6548371D01*
X12623549Y-6557690D01*
X12634961Y-6564279D01*
X12647691Y-6567690D01*
X12647691Y-6567690D01*
X12660869Y-6567690D01*
X12660869Y-6567690D01*
X12673599Y-6564279D01*
X12685011Y-6557690D01*
X12694330Y-6548371D01*
X12700919Y-6536959D01*
X12704330Y-6524229D01*
X12704330Y-6511051D01*
X12700919Y-6498321D01*
X12694330Y-6486909D01*
X12685011Y-6477590D01*
X12679305Y-6474295D01*
X12673599Y-6471001D01*
X12667234Y-6469295D01*
X12660869Y-6467590D01*
X12647691Y-6467590D01*
X12634961Y-6471001D01*
X12623549Y-6477590D01*
X12623548Y-6477590D01*
X12614230Y-6486908D01*
X12614230Y-6486909D01*
X12607641Y-6498321D01*
X12604230Y-6511051D01*
X10120472Y-6511051D01*
X10113094Y-6493240D01*
X10101598Y-6476034D01*
X10101598Y-6476034D01*
X10086966Y-6461402D01*
X10078363Y-6455654D01*
X10069760Y-6449906D01*
X10050642Y-6441987D01*
X10050641Y-6441987D01*
X10030347Y-6437950D01*
X10030347Y-6437950D01*
X10009654Y-6437950D01*
X10009653Y-6437950D01*
X9989359Y-6441987D01*
X9989358Y-6441987D01*
X9970240Y-6449906D01*
X9953034Y-6461402D01*
X9938402Y-6476034D01*
X9926906Y-6493240D01*
X9918987Y-6512358D01*
X9918987Y-6512359D01*
X9914950Y-6532653D01*
X9797050Y-6532653D01*
X9797050Y-6278653D01*
X9914950Y-6278653D01*
X9914950Y-6299347D01*
X9918987Y-6319641D01*
X9918987Y-6319642D01*
X9926906Y-6338760D01*
X9938402Y-6355966D01*
X9953034Y-6370597D01*
X9953035Y-6370598D01*
X9970240Y-6382094D01*
X9989358Y-6390013D01*
X10009653Y-6394050D01*
X10009653Y-6394050D01*
X10009654Y-6394050D01*
X10030347Y-6394050D01*
X10030347Y-6394050D01*
X10050642Y-6390013D01*
X10069760Y-6382094D01*
X10086966Y-6370598D01*
X10101598Y-6355965D01*
X10113094Y-6338760D01*
X10121013Y-6319642D01*
X10125050Y-6299346D01*
X10125050Y-6278653D01*
X10121013Y-6258358D01*
X10113094Y-6239240D01*
X10109199Y-6233411D01*
X12579950Y-6233411D01*
X12579950Y-6246589D01*
X12583361Y-6259319D01*
X12586655Y-6265025D01*
X12589950Y-6270731D01*
X12599269Y-6280050D01*
X12610681Y-6286639D01*
X12623411Y-6290050D01*
X12623411Y-6290050D01*
X12636589Y-6290050D01*
X12636589Y-6290050D01*
X12649319Y-6286639D01*
X12660731Y-6280050D01*
X12670050Y-6270731D01*
X12676639Y-6259319D01*
X12680050Y-6246589D01*
X12680050Y-6233411D01*
X12676639Y-6220681D01*
X12670050Y-6209269D01*
X12660731Y-6199950D01*
X12655025Y-6196655D01*
X12649319Y-6193361D01*
X12642954Y-6191655D01*
X12636589Y-6189950D01*
X12623411Y-6189950D01*
X12610681Y-6193361D01*
X12599269Y-6199950D01*
X12599268Y-6199950D01*
X12589950Y-6209268D01*
X12589950Y-6209269D01*
X12583361Y-6220681D01*
X12579950Y-6233411D01*
X10109199Y-6233411D01*
X10101598Y-6222034D01*
X10101598Y-6222034D01*
X10086966Y-6207402D01*
X10071126Y-6196819D01*
X10069760Y-6195906D01*
X10063615Y-6193361D01*
X10050642Y-6187987D01*
X10050641Y-6187987D01*
X10030347Y-6183950D01*
X10030347Y-6183950D01*
X10009654Y-6183950D01*
X10009653Y-6183950D01*
X9989359Y-6187987D01*
X9989358Y-6187987D01*
X9970240Y-6195906D01*
X9953034Y-6207402D01*
X9938402Y-6222034D01*
X9926906Y-6239240D01*
X9918987Y-6258358D01*
X9918987Y-6258359D01*
X9914950Y-6278653D01*
X9797050Y-6278653D01*
X9797050Y-6170911D01*
X10973550Y-6170911D01*
X10973550Y-6184089D01*
X10974594Y-6187987D01*
X10976961Y-6196819D01*
X10978769Y-6199950D01*
X10983550Y-6208231D01*
X10992869Y-6217550D01*
X11000636Y-6222034D01*
X11004281Y-6224139D01*
X11004281Y-6224139D01*
X11017011Y-6227550D01*
X11017011Y-6227550D01*
X11030189Y-6227550D01*
X11030189Y-6227550D01*
X11042919Y-6224139D01*
X11054331Y-6217550D01*
X11063650Y-6208231D01*
X11070239Y-6196819D01*
X11073650Y-6184089D01*
X11073650Y-6170911D01*
X11070239Y-6158181D01*
X11063650Y-6146769D01*
X11054331Y-6137450D01*
X11048625Y-6134155D01*
X11042919Y-6130861D01*
X11031582Y-6127823D01*
X11030189Y-6127450D01*
X11017011Y-6127450D01*
X11004281Y-6130861D01*
X10992869Y-6137450D01*
X10992868Y-6137450D01*
X10983550Y-6146768D01*
X10983550Y-6146769D01*
X10976961Y-6158181D01*
X10973550Y-6170911D01*
X9797050Y-6170911D01*
X9797050Y-5948025D01*
X9914950Y-5948025D01*
X9914950Y-6121975D01*
X9916113Y-6127823D01*
X9916113Y-6127823D01*
X9920545Y-6134455D01*
X9927177Y-6138887D01*
X9927177Y-6138887D01*
X9933025Y-6140050D01*
X9933025Y-6140050D01*
X9933025Y-6140050D01*
X10106975Y-6140050D01*
X10106975Y-6140050D01*
X10108457Y-6139755D01*
X10112823Y-6138887D01*
X10112823Y-6138887D01*
X10112823Y-6138887D01*
X10119455Y-6134455D01*
X10123887Y-6127823D01*
X10123887Y-6127823D01*
X10123887Y-6127823D01*
X10125050Y-6121975D01*
X10125050Y-6121975D01*
X10125050Y-5948025D01*
X10125050Y-5948025D01*
X10123887Y-5942177D01*
X10123887Y-5942177D01*
X10119455Y-5935545D01*
X10112823Y-5931113D01*
X10112823Y-5931113D01*
X10106975Y-5929950D01*
X10106975Y-5929950D01*
X9933025Y-5929950D01*
X9933025Y-5929950D01*
X9927177Y-5931113D01*
X9927177Y-5931113D01*
X9920545Y-5935545D01*
X9916113Y-5942177D01*
X9916113Y-5942177D01*
X9914950Y-5948025D01*
X9797050Y-5948025D01*
X9797050Y-5520375D01*
X9797073Y-5519626D01*
X9798754Y-5491826D01*
X9798935Y-5490340D01*
X9800419Y-5482239D01*
X9803887Y-5463313D01*
X9804245Y-5461861D01*
X9812420Y-5435628D01*
X9812950Y-5434230D01*
X9815299Y-5429011D01*
X11391750Y-5429011D01*
X11391750Y-5442189D01*
X11395161Y-5454919D01*
X11398455Y-5460625D01*
X11401750Y-5466331D01*
X11411069Y-5475650D01*
X11422481Y-5482239D01*
X11435211Y-5485650D01*
X11435211Y-5485650D01*
X11448389Y-5485650D01*
X11448389Y-5485650D01*
X11461119Y-5482239D01*
X11472531Y-5475650D01*
X11481850Y-5466331D01*
X11488439Y-5454919D01*
X11491850Y-5442189D01*
X11491850Y-5429011D01*
X11856150Y-5429011D01*
X11856150Y-5442189D01*
X11859561Y-5454919D01*
X11862855Y-5460625D01*
X11866150Y-5466331D01*
X11875469Y-5475650D01*
X11886881Y-5482239D01*
X11899611Y-5485650D01*
X11899611Y-5485650D01*
X11912789Y-5485650D01*
X11912789Y-5485650D01*
X11925519Y-5482239D01*
X11936931Y-5475650D01*
X11946250Y-5466331D01*
X11952839Y-5454919D01*
X11956250Y-5442189D01*
X11956250Y-5429011D01*
X11952839Y-5416281D01*
X11946250Y-5404869D01*
X11936931Y-5395550D01*
X11931225Y-5392255D01*
X11925519Y-5388961D01*
X11919154Y-5387255D01*
X11912789Y-5385550D01*
X11899611Y-5385550D01*
X11886881Y-5388961D01*
X11875469Y-5395550D01*
X11875468Y-5395550D01*
X11866150Y-5404868D01*
X11866150Y-5404869D01*
X11859561Y-5416281D01*
X11856150Y-5429011D01*
X11491850Y-5429011D01*
X11488439Y-5416281D01*
X11481850Y-5404869D01*
X11472531Y-5395550D01*
X11466825Y-5392255D01*
X11461119Y-5388961D01*
X11454754Y-5387255D01*
X11448389Y-5385550D01*
X11435211Y-5385550D01*
X11422481Y-5388961D01*
X11411069Y-5395550D01*
X11411068Y-5395550D01*
X11401750Y-5404868D01*
X11401750Y-5404869D01*
X11395161Y-5416281D01*
X11391750Y-5429011D01*
X9815299Y-5429011D01*
X9824227Y-5409173D01*
X9824922Y-5407848D01*
X9839138Y-5384333D01*
X9839987Y-5383103D01*
X9856933Y-5361473D01*
X9857925Y-5360354D01*
X9877354Y-5340925D01*
X9878473Y-5339933D01*
X9900103Y-5322987D01*
X9901333Y-5322138D01*
X9924848Y-5307922D01*
X9926173Y-5307227D01*
X9951230Y-5295950D01*
X9952628Y-5295420D01*
X9978861Y-5287245D01*
X9980313Y-5286887D01*
X10007340Y-5281935D01*
X10008826Y-5281754D01*
X10036627Y-5280073D01*
X10037375Y-5280050D01*
X10041760Y-5280050D01*
X12492240Y-5280050D01*
X12496625Y-5280050D01*
X12497374Y-5280073D01*
G37*
%TD.AperFunction*%
%TD*%
M02*
