%TF.GenerationSoftware,KiCad,Pcbnew,10.0.3*%
%TF.CreationDate,2026-06-09T21:39:26-05:00*%
%TF.ProjectId,Flight Computer,466c6967-6874-4204-936f-6d7075746572,rev?*%
%TF.SameCoordinates,Original*%
%TF.FileFunction,Copper,L2,Inr*%
%TF.FilePolarity,Positive*%
%FSLAX45Y45*%
G04 Gerber Fmt 4.5, Leading zero omitted, Abs format (unit mm)*
G04 Created by KiCad (PCBNEW 10.0.3) date 2026-06-09 21:39:26*
%MOMM*%
%LPD*%
G01*
G04 APERTURE LIST*
G04 Aperture macros list*
%AMRoundRect*
0 Rectangle with rounded corners*
0 $1 Rounding radius*
0 $2 $3 $4 $5 $6 $7 $8 $9 X,Y pos of 4 corners*
0 Add a 4 corners polygon primitive as box body*
4,1,4,$2,$3,$4,$5,$6,$7,$8,$9,$2,$3,0*
0 Add four circle primitives for the rounded corners*
1,1,$1+$1,$2,$3*
1,1,$1+$1,$4,$5*
1,1,$1+$1,$6,$7*
1,1,$1+$1,$8,$9*
0 Add four rect primitives between the rounded corners*
20,1,$1+$1,$2,$3,$4,$5,0*
20,1,$1+$1,$4,$5,$6,$7,0*
20,1,$1+$1,$6,$7,$8,$9,0*
20,1,$1+$1,$8,$9,$2,$3,0*%
G04 Aperture macros list end*
%TA.AperFunction,ComponentPad*%
%ADD10C,3.100000*%
%TD*%
%TA.AperFunction,ComponentPad*%
%ADD11RoundRect,0.249999X-0.850001X0.850001X-0.850001X-0.850001X0.850001X-0.850001X0.850001X0.850001X0*%
%TD*%
%TA.AperFunction,ComponentPad*%
%ADD12C,2.200000*%
%TD*%
%TA.AperFunction,HeatsinkPad*%
%ADD13O,2.100000X1.000000*%
%TD*%
%TA.AperFunction,HeatsinkPad*%
%ADD14O,1.800000X1.000000*%
%TD*%
%TA.AperFunction,ComponentPad*%
%ADD15RoundRect,0.249999X0.850001X-0.850001X0.850001X0.850001X-0.850001X0.850001X-0.850001X-0.850001X0*%
%TD*%
%TA.AperFunction,ComponentPad*%
%ADD16R,1.700000X1.700000*%
%TD*%
%TA.AperFunction,ComponentPad*%
%ADD17C,1.700000*%
%TD*%
%TA.AperFunction,ViaPad*%
%ADD18C,0.600000*%
%TD*%
G04 APERTURE END LIST*
D10*
%TO.N,GND*%
%TO.C,H404*%
X12470000Y-10950000D03*
%TD*%
%TO.N,GND*%
%TO.C,H401*%
X10070000Y-5550000D03*
%TD*%
D11*
%TO.N,GND*%
%TO.C,J404*%
X10164000Y-9658000D03*
D12*
%TO.N,VIN*%
X10164000Y-9912000D03*
%TO.N,VCC*%
X10164000Y-10166000D03*
%TO.N,Pyro_Power*%
X10164000Y-10420000D03*
%TD*%
D13*
%TO.N,GND*%
%TO.C,J402*%
X10445500Y-8443300D03*
D14*
X10027500Y-8443300D03*
D13*
X10445500Y-9307300D03*
D14*
X10027500Y-9307300D03*
%TD*%
D15*
%TO.N,Pyro_Power*%
%TO.C,J403*%
X12370000Y-10420000D03*
D12*
%TO.N,/Pyro1*%
X12370000Y-10166000D03*
%TO.N,Pyro_Power*%
X12370000Y-9912000D03*
%TO.N,/Pyro2*%
X12370000Y-9658000D03*
%TO.N,Pyro_Power*%
X12370000Y-9404000D03*
%TO.N,/Pyro3*%
X12370000Y-9150000D03*
%TD*%
D10*
%TO.N,GND*%
%TO.C,H403*%
X10070000Y-10950000D03*
%TD*%
D16*
%TO.N,GND*%
%TO.C,J401*%
X10033000Y-7289800D03*
D17*
%TO.N,/PC9*%
X10033000Y-7035800D03*
%TO.N,/PA8*%
X10033000Y-6781800D03*
%TO.N,/PA9*%
X10033000Y-6527800D03*
%TO.N,/PA10*%
X10033000Y-6273800D03*
%TD*%
D10*
%TO.N,GND*%
%TO.C,H402*%
X12470000Y-5550000D03*
%TD*%
D18*
%TO.N,GND*%
X11861800Y-10571480D03*
X11109960Y-7777480D03*
X10808848Y-8843157D03*
X11836400Y-6654800D03*
X10310500Y-8834120D03*
X10652788Y-9326880D03*
X12044680Y-9326880D03*
X11595100Y-11163300D03*
X11699240Y-7609840D03*
X10434320Y-7609840D03*
X11628120Y-8651240D03*
X10706100Y-6705600D03*
X11983720Y-7752080D03*
X10896600Y-6350000D03*
X12192000Y-8285480D03*
X12075160Y-6537960D03*
X10765200Y-6350000D03*
X12487075Y-8847255D03*
X11668760Y-7823200D03*
X11861800Y-7099300D03*
X11465560Y-9794240D03*
X11074400Y-6794500D03*
X11378365Y-8423475D03*
X10948680Y-7970486D03*
X10581640Y-7503160D03*
X12065000Y-8696960D03*
X10784840Y-7767320D03*
%TO.N,/PB0*%
X10779760Y-9413240D03*
%TO.N,+3.3V*%
X11023600Y-6177500D03*
X11455400Y-8327700D03*
X12654280Y-6517640D03*
X10310500Y-8950960D03*
X10017760Y-7757160D03*
X10972800Y-9540240D03*
X11583989Y-9396411D03*
X10114280Y-8102600D03*
X11107650Y-7612150D03*
X11441800Y-5435600D03*
X11922760Y-8300720D03*
X10683240Y-10622280D03*
X11140440Y-9123680D03*
X12133580Y-8752840D03*
X11455000Y-7111600D03*
X11194189Y-8027678D03*
X11823700Y-11049000D03*
X12039600Y-8549640D03*
X12379960Y-8727440D03*
X11780740Y-7741920D03*
X10185400Y-7838440D03*
X11318240Y-10622280D03*
X11217000Y-8407400D03*
X12059920Y-6741160D03*
%TO.N,/PA4*%
X11201400Y-9265920D03*
%TO.N,/PC1*%
X11592384Y-9013820D03*
%TO.N,VCC*%
X10807700Y-11049000D03*
X12598400Y-7772400D03*
X10668000Y-10139130D03*
%TO.N,/PC5*%
X10876280Y-9596120D03*
%TO.N,/I2C_SCL*%
X10294000Y-8102600D03*
%TO.N,/I2C_SDA*%
X10185400Y-7937500D03*
X11856720Y-7721600D03*
%TO.N,/BOOT0*%
X12425880Y-8554300D03*
%TO.N,/PA0*%
X11540558Y-9483159D03*
%TO.N,/Pyro/P2_FET_G*%
X11760200Y-9914640D03*
%TO.N,Pyro_Power*%
X10906760Y-10420000D03*
%TO.N,/PA3*%
X10906760Y-10078720D03*
%TO.N,/PC11*%
X11649397Y-8063289D03*
%TO.N,/PC10*%
X11643360Y-7952730D03*
%TO.N,/PB9*%
X11794632Y-8650697D03*
%TO.N,/NRST*%
X12636500Y-8615680D03*
X11784983Y-9229280D03*
%TO.N,/PB15*%
X10625900Y-8426845D03*
%TO.N,VBUS*%
X10363200Y-8658033D03*
X10363200Y-9093200D03*
%TO.N,/IO/USB_CC1*%
X10310500Y-8750300D03*
%TO.N,/USB_DP_P*%
X10841235Y-8010268D03*
%TO.N,/USB_DP_N*%
X10840041Y-8082959D03*
%TO.N,/IO/USB_CC2*%
X10304736Y-9049988D03*
%TO.N,/IO/BUZZER_POS*%
X12446000Y-6337300D03*
%TO.N,/IO/BUZZER_NEG*%
X12452350Y-6559550D03*
%TO.N,/MCU/FLASH_CS*%
X11846560Y-8285480D03*
%TO.N,/SPI_MISO*%
X11546840Y-8900160D03*
X11054080Y-8900160D03*
X11054080Y-8346440D03*
X10806865Y-7491295D03*
X11973560Y-7426960D03*
%TO.N,/SPI_MOSI*%
X11696700Y-8882380D03*
X11001380Y-8847460D03*
X10711637Y-7546980D03*
X12436358Y-7265700D03*
%TO.N,/SPI_SCK*%
X11868200Y-8768080D03*
X11236805Y-8231509D03*
X10657840Y-7498080D03*
X12308840Y-7076440D03*
%TO.N,/PC8*%
X11115040Y-8417560D03*
%TO.N,/PA15*%
X11309300Y-8226056D03*
%TO.N,/PB14*%
X10578460Y-8217720D03*
%TO.N,/PC13*%
X11906200Y-5435600D03*
X12374880Y-8290560D03*
X12007540Y-8989144D03*
%TO.N,/PB5*%
X11602720Y-8458200D03*
%TO.N,/PC3*%
X12075160Y-9479280D03*
%TO.N,/SWCLK*%
X11517010Y-8005430D03*
X12557760Y-8009200D03*
%TO.N,/SWDIO*%
X10948680Y-8043186D03*
X12034520Y-8148200D03*
%TO.N,/PB7*%
X12110720Y-8265160D03*
X12240450Y-7315200D03*
%TO.N,/PC14*%
X12141200Y-9042400D03*
X10993120Y-7546980D03*
%TO.N,/PC7*%
X10683240Y-8310890D03*
X10866120Y-7546980D03*
%TO.N,/PC6*%
X10647680Y-7122160D03*
X10624814Y-8354153D03*
%TD*%
%TA.AperFunction,Conductor*%
%TO.N,GND*%
G36*
X12497374Y-5280073D02*
G01*
X12525174Y-5281754D01*
X12526660Y-5281935D01*
X12534184Y-5283314D01*
X12553687Y-5286887D01*
X12555139Y-5287246D01*
X12581371Y-5295420D01*
X12582771Y-5295950D01*
X12607827Y-5307227D01*
X12609152Y-5307923D01*
X12632666Y-5322137D01*
X12633897Y-5322987D01*
X12644014Y-5330913D01*
X12655526Y-5339933D01*
X12656647Y-5340926D01*
X12676074Y-5360353D01*
X12677067Y-5361474D01*
X12694012Y-5383102D01*
X12694863Y-5384335D01*
X12709077Y-5407848D01*
X12709773Y-5409174D01*
X12721049Y-5434229D01*
X12721580Y-5435629D01*
X12729754Y-5461860D01*
X12730113Y-5463314D01*
X12735065Y-5490339D01*
X12735246Y-5491826D01*
X12736927Y-5519626D01*
X12736950Y-5520375D01*
X12736950Y-10979625D01*
X12736927Y-10980374D01*
X12735246Y-11008174D01*
X12735065Y-11009661D01*
X12730113Y-11036686D01*
X12729754Y-11038140D01*
X12721580Y-11064371D01*
X12721049Y-11065771D01*
X12709773Y-11090826D01*
X12709077Y-11092152D01*
X12694863Y-11115665D01*
X12694012Y-11116898D01*
X12677067Y-11138526D01*
X12676074Y-11139647D01*
X12656647Y-11159074D01*
X12655526Y-11160067D01*
X12633897Y-11177012D01*
X12632665Y-11177863D01*
X12609152Y-11192077D01*
X12607826Y-11192773D01*
X12582771Y-11204049D01*
X12581371Y-11204580D01*
X12555140Y-11212754D01*
X12553686Y-11213113D01*
X12526660Y-11218065D01*
X12525174Y-11218246D01*
X12497374Y-11219927D01*
X12496625Y-11219950D01*
X10037375Y-11219950D01*
X10036627Y-11219927D01*
X10008826Y-11218246D01*
X10007340Y-11218065D01*
X9980314Y-11213113D01*
X9978860Y-11212754D01*
X9952629Y-11204580D01*
X9951229Y-11204049D01*
X9926174Y-11192773D01*
X9924848Y-11192077D01*
X9901335Y-11177863D01*
X9900102Y-11177012D01*
X9878474Y-11160067D01*
X9877353Y-11159074D01*
X9857926Y-11139647D01*
X9856933Y-11138526D01*
X9839988Y-11116898D01*
X9839988Y-11116898D01*
X9839987Y-11116897D01*
X9839137Y-11115666D01*
X9824923Y-11092152D01*
X9824227Y-11090826D01*
X9812951Y-11065771D01*
X9812420Y-11064371D01*
X9805577Y-11042411D01*
X10757650Y-11042411D01*
X10757650Y-11055589D01*
X10761061Y-11068319D01*
X10764355Y-11074025D01*
X10767650Y-11079731D01*
X10776969Y-11089050D01*
X10788381Y-11095639D01*
X10801111Y-11099050D01*
X10801111Y-11099050D01*
X10814289Y-11099050D01*
X10814289Y-11099050D01*
X10827019Y-11095639D01*
X10838431Y-11089050D01*
X10847750Y-11079731D01*
X10854339Y-11068319D01*
X10857750Y-11055589D01*
X10857750Y-11042411D01*
X11773650Y-11042411D01*
X11773650Y-11055589D01*
X11777061Y-11068319D01*
X11780355Y-11074025D01*
X11783650Y-11079731D01*
X11792969Y-11089050D01*
X11804381Y-11095639D01*
X11817111Y-11099050D01*
X11817111Y-11099050D01*
X11830289Y-11099050D01*
X11830289Y-11099050D01*
X11843019Y-11095639D01*
X11854431Y-11089050D01*
X11863750Y-11079731D01*
X11870339Y-11068319D01*
X11873750Y-11055589D01*
X11873750Y-11042411D01*
X11870339Y-11029681D01*
X11863750Y-11018269D01*
X11854431Y-11008950D01*
X11848725Y-11005655D01*
X11843019Y-11002361D01*
X11836654Y-11000655D01*
X11830289Y-10998950D01*
X11817111Y-10998950D01*
X11804381Y-11002361D01*
X11792969Y-11008950D01*
X11792968Y-11008950D01*
X11783650Y-11018268D01*
X11783650Y-11018269D01*
X11777061Y-11029681D01*
X11773650Y-11042411D01*
X10857750Y-11042411D01*
X10854339Y-11029681D01*
X10847750Y-11018269D01*
X10838431Y-11008950D01*
X10832725Y-11005655D01*
X10827019Y-11002361D01*
X10820654Y-11000655D01*
X10814289Y-10998950D01*
X10801111Y-10998950D01*
X10788381Y-11002361D01*
X10776969Y-11008950D01*
X10776968Y-11008950D01*
X10767650Y-11018268D01*
X10767650Y-11018269D01*
X10761061Y-11029681D01*
X10757650Y-11042411D01*
X9805577Y-11042411D01*
X9804245Y-11038138D01*
X9803887Y-11036686D01*
X9802113Y-11027003D01*
X9798935Y-11009660D01*
X9798754Y-11008174D01*
X9797073Y-10980374D01*
X9797050Y-10979625D01*
X9797050Y-10615691D01*
X10633190Y-10615691D01*
X10633190Y-10628869D01*
X10636601Y-10641599D01*
X10639895Y-10647305D01*
X10643190Y-10653011D01*
X10652509Y-10662330D01*
X10663921Y-10668919D01*
X10676651Y-10672330D01*
X10676651Y-10672330D01*
X10689829Y-10672330D01*
X10689829Y-10672330D01*
X10702559Y-10668919D01*
X10713971Y-10662330D01*
X10723290Y-10653011D01*
X10729879Y-10641599D01*
X10733290Y-10628869D01*
X10733290Y-10615691D01*
X11268190Y-10615691D01*
X11268190Y-10628869D01*
X11271601Y-10641599D01*
X11274895Y-10647305D01*
X11278190Y-10653011D01*
X11287509Y-10662330D01*
X11298921Y-10668919D01*
X11311651Y-10672330D01*
X11311651Y-10672330D01*
X11324829Y-10672330D01*
X11324829Y-10672330D01*
X11337559Y-10668919D01*
X11348971Y-10662330D01*
X11358290Y-10653011D01*
X11364879Y-10641599D01*
X11368290Y-10628869D01*
X11368290Y-10615691D01*
X11364879Y-10602961D01*
X11358290Y-10591549D01*
X11348971Y-10582230D01*
X11343265Y-10578935D01*
X11337559Y-10575641D01*
X11331194Y-10573935D01*
X11324829Y-10572230D01*
X11311651Y-10572230D01*
X11298921Y-10575641D01*
X11287509Y-10582230D01*
X11287508Y-10582230D01*
X11278190Y-10591548D01*
X11278190Y-10591549D01*
X11271601Y-10602961D01*
X11268190Y-10615691D01*
X10733290Y-10615691D01*
X10729879Y-10602961D01*
X10723290Y-10591549D01*
X10713971Y-10582230D01*
X10708265Y-10578935D01*
X10702559Y-10575641D01*
X10696194Y-10573935D01*
X10689829Y-10572230D01*
X10676651Y-10572230D01*
X10663921Y-10575641D01*
X10652509Y-10582230D01*
X10652508Y-10582230D01*
X10643190Y-10591548D01*
X10643190Y-10591549D01*
X10636601Y-10602961D01*
X10633190Y-10615691D01*
X9797050Y-10615691D01*
X9797050Y-9566435D01*
X10014000Y-9566435D01*
X10014000Y-9633000D01*
X10114925Y-9633000D01*
X10112748Y-9636771D01*
X10109000Y-9650759D01*
X10109000Y-9665241D01*
X10112748Y-9679229D01*
X10114925Y-9683000D01*
X10014000Y-9683000D01*
X10014000Y-9749565D01*
X10014290Y-9753249D01*
X10014290Y-9753250D01*
X10018872Y-9769019D01*
X10018872Y-9769020D01*
X10027231Y-9783155D01*
X10027232Y-9783156D01*
X10038844Y-9794768D01*
X10038845Y-9794769D01*
X10052980Y-9803128D01*
X10060720Y-9805377D01*
X10066609Y-9809138D01*
X10069529Y-9815485D01*
X10068555Y-9822403D01*
X10066029Y-9826052D01*
X10064803Y-9827279D01*
X10052772Y-9843839D01*
X10043478Y-9862078D01*
X10037152Y-9881547D01*
X10033950Y-9901765D01*
X10033950Y-9922235D01*
X10037152Y-9942453D01*
X10043478Y-9961922D01*
X10052772Y-9980161D01*
X10064803Y-9996721D01*
X10079279Y-10011197D01*
X10095839Y-10023228D01*
X10095839Y-10023229D01*
X10095839Y-10023229D01*
X10105108Y-10027952D01*
X10110188Y-10032749D01*
X10111867Y-10039531D01*
X10109613Y-10046144D01*
X10105108Y-10050048D01*
X10095839Y-10054771D01*
X10095839Y-10054771D01*
X10079279Y-10066803D01*
X10064803Y-10081279D01*
X10052772Y-10097839D01*
X10043478Y-10116078D01*
X10037152Y-10135546D01*
X10033950Y-10155765D01*
X10033950Y-10176235D01*
X10037152Y-10196453D01*
X10043478Y-10215922D01*
X10052772Y-10234161D01*
X10064803Y-10250721D01*
X10079279Y-10265197D01*
X10095839Y-10277228D01*
X10095839Y-10277228D01*
X10095839Y-10277229D01*
X10105108Y-10281952D01*
X10110188Y-10286749D01*
X10111867Y-10293531D01*
X10109614Y-10300144D01*
X10105108Y-10304048D01*
X10095839Y-10308771D01*
X10095839Y-10308771D01*
X10079279Y-10320803D01*
X10064803Y-10335279D01*
X10052772Y-10351839D01*
X10043478Y-10370078D01*
X10037152Y-10389547D01*
X10033950Y-10409765D01*
X10033950Y-10430235D01*
X10037152Y-10450453D01*
X10043478Y-10469922D01*
X10052772Y-10488161D01*
X10064803Y-10504721D01*
X10079279Y-10519197D01*
X10094775Y-10530456D01*
X10095839Y-10531229D01*
X10107461Y-10537150D01*
X10114078Y-10540522D01*
X10114078Y-10540522D01*
X10114078Y-10540522D01*
X10124514Y-10543913D01*
X10133547Y-10546848D01*
X10143656Y-10548449D01*
X10153765Y-10550050D01*
X10153765Y-10550050D01*
X10174235Y-10550050D01*
X10174235Y-10550050D01*
X10194453Y-10546848D01*
X10213922Y-10540522D01*
X10232161Y-10531229D01*
X10241459Y-10524473D01*
X10248721Y-10519197D01*
X10248722Y-10519197D01*
X10248722Y-10519197D01*
X10263197Y-10504722D01*
X10263197Y-10504722D01*
X10263197Y-10504721D01*
X10268473Y-10497459D01*
X10275229Y-10488161D01*
X10284522Y-10469922D01*
X10290848Y-10450453D01*
X10294050Y-10430235D01*
X10294050Y-10413411D01*
X10856710Y-10413411D01*
X10856710Y-10426589D01*
X10860121Y-10439319D01*
X10863415Y-10445025D01*
X10866710Y-10450731D01*
X10876029Y-10460050D01*
X10887441Y-10466639D01*
X10900171Y-10470050D01*
X10900171Y-10470050D01*
X10913349Y-10470050D01*
X10913349Y-10470050D01*
X10926079Y-10466639D01*
X10937491Y-10460050D01*
X10946810Y-10450731D01*
X10953399Y-10439319D01*
X10956810Y-10426589D01*
X10956810Y-10413411D01*
X10953399Y-10400681D01*
X10946810Y-10389269D01*
X10937491Y-10379950D01*
X10931785Y-10376655D01*
X10926079Y-10373361D01*
X10919714Y-10371655D01*
X10913349Y-10369950D01*
X10900171Y-10369950D01*
X10887441Y-10373361D01*
X10876029Y-10379950D01*
X10876028Y-10379950D01*
X10866710Y-10389268D01*
X10866710Y-10389269D01*
X10860121Y-10400681D01*
X10856710Y-10413411D01*
X10294050Y-10413411D01*
X10294050Y-10409765D01*
X10290848Y-10389547D01*
X10284522Y-10370078D01*
X10284522Y-10370078D01*
X10284522Y-10370078D01*
X10281150Y-10363461D01*
X10275229Y-10351839D01*
X10274456Y-10350775D01*
X10263197Y-10335279D01*
X10248721Y-10320803D01*
X10232161Y-10308772D01*
X10232161Y-10308771D01*
X10232161Y-10308771D01*
X10222892Y-10304048D01*
X10217812Y-10299251D01*
X10216133Y-10292469D01*
X10218386Y-10285855D01*
X10222892Y-10281952D01*
X10232161Y-10277229D01*
X10242895Y-10269430D01*
X10248721Y-10265197D01*
X10248722Y-10265197D01*
X10248722Y-10265197D01*
X10263197Y-10250722D01*
X10263197Y-10250721D01*
X10263197Y-10250721D01*
X10268473Y-10243459D01*
X10275229Y-10234161D01*
X10284522Y-10215922D01*
X10290848Y-10196453D01*
X10294050Y-10176235D01*
X10294050Y-10155765D01*
X10290848Y-10135547D01*
X10289871Y-10132541D01*
X10617950Y-10132541D01*
X10617950Y-10145719D01*
X10621361Y-10158449D01*
X10624655Y-10164155D01*
X10627950Y-10169861D01*
X10637269Y-10179180D01*
X10648681Y-10185769D01*
X10661411Y-10189180D01*
X10661411Y-10189180D01*
X10674589Y-10189180D01*
X10674589Y-10189180D01*
X10687319Y-10185769D01*
X10698731Y-10179180D01*
X10708050Y-10169861D01*
X10714639Y-10158449D01*
X10718050Y-10145719D01*
X10718050Y-10132541D01*
X10714639Y-10119811D01*
X10714038Y-10118770D01*
X10712483Y-10116078D01*
X10708050Y-10108399D01*
X10698731Y-10099080D01*
X10693025Y-10095785D01*
X10687319Y-10092491D01*
X10680954Y-10090785D01*
X10674589Y-10089080D01*
X10661411Y-10089080D01*
X10648681Y-10092491D01*
X10637269Y-10099080D01*
X10637268Y-10099080D01*
X10627950Y-10108398D01*
X10627950Y-10108399D01*
X10621361Y-10119811D01*
X10617950Y-10132541D01*
X10289871Y-10132541D01*
X10284522Y-10116078D01*
X10284522Y-10116078D01*
X10284522Y-10116078D01*
X10280609Y-10108398D01*
X10275229Y-10097839D01*
X10271343Y-10092491D01*
X10263197Y-10081279D01*
X10254049Y-10072131D01*
X10856710Y-10072131D01*
X10856710Y-10085309D01*
X10860121Y-10098039D01*
X10863415Y-10103745D01*
X10866710Y-10109451D01*
X10876029Y-10118770D01*
X10887441Y-10125359D01*
X10900171Y-10128770D01*
X10900171Y-10128770D01*
X10913349Y-10128770D01*
X10913349Y-10128770D01*
X10926079Y-10125359D01*
X10937491Y-10118770D01*
X10946810Y-10109451D01*
X10953399Y-10098039D01*
X10956810Y-10085309D01*
X10956810Y-10072131D01*
X10953399Y-10059401D01*
X10946810Y-10047989D01*
X10937491Y-10038670D01*
X10931785Y-10035375D01*
X10926079Y-10032081D01*
X10919714Y-10030375D01*
X10913349Y-10028670D01*
X10900171Y-10028670D01*
X10887441Y-10032081D01*
X10876029Y-10038670D01*
X10876028Y-10038670D01*
X10866710Y-10047988D01*
X10866710Y-10047989D01*
X10860121Y-10059401D01*
X10856710Y-10072131D01*
X10254049Y-10072131D01*
X10248721Y-10066803D01*
X10232161Y-10054771D01*
X10232161Y-10054771D01*
X10232161Y-10054771D01*
X10222892Y-10050048D01*
X10217812Y-10045251D01*
X10216133Y-10038469D01*
X10218387Y-10031855D01*
X10222892Y-10027952D01*
X10232161Y-10023229D01*
X10237114Y-10019630D01*
X10248721Y-10011197D01*
X10248722Y-10011197D01*
X10248722Y-10011197D01*
X10263197Y-9996722D01*
X10263197Y-9996721D01*
X10263197Y-9996721D01*
X10268473Y-9989459D01*
X10275229Y-9980161D01*
X10284522Y-9961922D01*
X10290848Y-9942453D01*
X10294050Y-9922235D01*
X10294050Y-9908051D01*
X11710150Y-9908051D01*
X11710150Y-9921229D01*
X11710420Y-9922235D01*
X11713561Y-9933959D01*
X11716855Y-9939665D01*
X11720150Y-9945371D01*
X11729469Y-9954690D01*
X11740881Y-9961279D01*
X11753611Y-9964690D01*
X11753611Y-9964690D01*
X11766789Y-9964690D01*
X11766789Y-9964690D01*
X11779519Y-9961279D01*
X11790931Y-9954690D01*
X11800250Y-9945371D01*
X11806839Y-9933959D01*
X11810250Y-9921229D01*
X11810250Y-9908051D01*
X11806839Y-9895321D01*
X11800250Y-9883909D01*
X11790931Y-9874590D01*
X11785225Y-9871295D01*
X11779519Y-9868001D01*
X11773154Y-9866295D01*
X11766789Y-9864590D01*
X11753611Y-9864590D01*
X11740881Y-9868001D01*
X11729469Y-9874590D01*
X11729468Y-9874590D01*
X11720150Y-9883908D01*
X11720150Y-9883909D01*
X11713561Y-9895321D01*
X11711834Y-9901765D01*
X11710150Y-9908051D01*
X10294050Y-9908051D01*
X10294050Y-9901765D01*
X10290848Y-9881547D01*
X10286446Y-9868001D01*
X10284522Y-9862078D01*
X10284522Y-9862078D01*
X10284522Y-9862078D01*
X10281150Y-9855461D01*
X10275229Y-9843839D01*
X10274456Y-9842775D01*
X10263197Y-9827279D01*
X10261971Y-9826053D01*
X10258623Y-9819920D01*
X10259121Y-9812951D01*
X10263308Y-9807358D01*
X10267280Y-9805377D01*
X10275020Y-9803128D01*
X10289155Y-9794769D01*
X10289156Y-9794768D01*
X10300768Y-9783156D01*
X10300769Y-9783155D01*
X10309128Y-9769020D01*
X10309128Y-9769019D01*
X10313710Y-9753250D01*
X10313710Y-9753249D01*
X10314000Y-9749565D01*
X10314000Y-9749563D01*
X10314000Y-9683000D01*
X10213075Y-9683000D01*
X10215252Y-9679229D01*
X10219000Y-9665241D01*
X10219000Y-9650759D01*
X10215252Y-9636771D01*
X10213075Y-9633000D01*
X10314000Y-9633000D01*
X10314000Y-9589531D01*
X10826230Y-9589531D01*
X10826230Y-9602709D01*
X10829641Y-9615439D01*
X10832935Y-9621145D01*
X10836230Y-9626851D01*
X10845549Y-9636170D01*
X10856961Y-9642759D01*
X10869691Y-9646170D01*
X10869691Y-9646170D01*
X10882869Y-9646170D01*
X10882869Y-9646170D01*
X10895599Y-9642759D01*
X10907011Y-9636170D01*
X10916330Y-9626851D01*
X10922919Y-9615439D01*
X10926330Y-9602709D01*
X10926330Y-9592681D01*
X10928299Y-9585977D01*
X10933579Y-9581401D01*
X10940495Y-9580407D01*
X10944930Y-9581942D01*
X10953481Y-9586879D01*
X10966211Y-9590290D01*
X10966211Y-9590290D01*
X10979389Y-9590290D01*
X10979389Y-9590290D01*
X10992119Y-9586879D01*
X11003531Y-9580290D01*
X11012850Y-9570971D01*
X11019439Y-9559559D01*
X11022850Y-9546829D01*
X11022850Y-9533651D01*
X11019439Y-9520921D01*
X11012850Y-9509509D01*
X11003531Y-9500190D01*
X10997825Y-9496895D01*
X10992119Y-9493601D01*
X10985754Y-9491895D01*
X10979389Y-9490190D01*
X10966211Y-9490190D01*
X10953481Y-9493601D01*
X10942069Y-9500190D01*
X10942068Y-9500190D01*
X10932750Y-9509508D01*
X10932750Y-9509509D01*
X10926161Y-9520921D01*
X10922750Y-9533651D01*
X10922750Y-9543679D01*
X10920782Y-9550383D01*
X10915501Y-9554959D01*
X10908585Y-9555953D01*
X10904150Y-9554418D01*
X10895599Y-9549481D01*
X10895599Y-9549481D01*
X10882869Y-9546070D01*
X10869691Y-9546070D01*
X10856961Y-9549481D01*
X10845549Y-9556070D01*
X10845548Y-9556070D01*
X10836230Y-9565388D01*
X10836230Y-9565389D01*
X10829641Y-9576801D01*
X10826230Y-9589531D01*
X10314000Y-9589531D01*
X10314000Y-9566437D01*
X10314000Y-9566435D01*
X10313710Y-9562751D01*
X10313710Y-9562750D01*
X10309128Y-9546981D01*
X10309128Y-9546980D01*
X10300769Y-9532845D01*
X10300768Y-9532844D01*
X10289156Y-9521232D01*
X10289155Y-9521231D01*
X10275020Y-9512872D01*
X10275019Y-9512872D01*
X10259250Y-9508290D01*
X10259249Y-9508290D01*
X10255565Y-9508000D01*
X10189000Y-9508000D01*
X10189000Y-9608925D01*
X10185229Y-9606748D01*
X10171241Y-9603000D01*
X10156759Y-9603000D01*
X10142771Y-9606748D01*
X10139000Y-9608925D01*
X10139000Y-9508000D01*
X10072435Y-9508000D01*
X10068751Y-9508290D01*
X10068750Y-9508290D01*
X10052981Y-9512872D01*
X10052980Y-9512872D01*
X10038845Y-9521231D01*
X10038844Y-9521232D01*
X10027232Y-9532844D01*
X10027231Y-9532845D01*
X10018872Y-9546980D01*
X10018872Y-9546981D01*
X10014290Y-9562750D01*
X10014290Y-9562751D01*
X10014000Y-9566435D01*
X9797050Y-9566435D01*
X9797050Y-9476569D01*
X11490508Y-9476569D01*
X11490508Y-9489748D01*
X11493919Y-9502477D01*
X11497108Y-9508000D01*
X11500508Y-9513890D01*
X11509827Y-9523209D01*
X11521240Y-9529798D01*
X11533969Y-9533209D01*
X11533969Y-9533209D01*
X11547147Y-9533209D01*
X11547148Y-9533209D01*
X11559877Y-9529798D01*
X11571290Y-9523209D01*
X11580608Y-9513890D01*
X11587198Y-9502477D01*
X11590608Y-9489748D01*
X11590608Y-9476569D01*
X11589569Y-9472691D01*
X12025110Y-9472691D01*
X12025110Y-9485869D01*
X12026815Y-9492234D01*
X12028521Y-9498599D01*
X12031815Y-9504305D01*
X12035110Y-9510011D01*
X12044429Y-9519330D01*
X12055841Y-9525919D01*
X12068571Y-9529330D01*
X12068571Y-9529330D01*
X12081749Y-9529330D01*
X12081749Y-9529330D01*
X12094479Y-9525919D01*
X12105891Y-9519330D01*
X12115210Y-9510011D01*
X12121799Y-9498599D01*
X12125210Y-9485869D01*
X12125210Y-9472691D01*
X12121799Y-9459961D01*
X12121752Y-9459879D01*
X12119962Y-9456779D01*
X12115210Y-9448549D01*
X12105891Y-9439230D01*
X12100185Y-9435935D01*
X12094479Y-9432641D01*
X12088114Y-9430935D01*
X12081749Y-9429230D01*
X12068571Y-9429230D01*
X12055841Y-9432641D01*
X12044429Y-9439230D01*
X12044428Y-9439230D01*
X12035110Y-9448548D01*
X12035110Y-9448549D01*
X12028521Y-9459961D01*
X12025252Y-9472161D01*
X12025110Y-9472691D01*
X11589569Y-9472691D01*
X11587198Y-9463840D01*
X11586329Y-9462336D01*
X11585915Y-9460974D01*
X11585895Y-9458847D01*
X11585394Y-9456779D01*
X11585863Y-9455423D01*
X11585850Y-9453987D01*
X11586983Y-9452187D01*
X11587679Y-9450176D01*
X11588807Y-9449289D01*
X11589572Y-9448074D01*
X11591498Y-9447172D01*
X11593170Y-9445857D01*
X11594569Y-9445391D01*
X11603308Y-9443050D01*
X11614721Y-9436461D01*
X11624039Y-9427142D01*
X11630628Y-9415729D01*
X11634039Y-9403000D01*
X11634039Y-9389822D01*
X11630628Y-9377092D01*
X11624039Y-9365679D01*
X11614721Y-9356361D01*
X11609014Y-9353066D01*
X11603308Y-9349772D01*
X11596943Y-9348066D01*
X11590578Y-9346361D01*
X11577400Y-9346361D01*
X11564670Y-9349772D01*
X11553258Y-9356361D01*
X11553258Y-9356361D01*
X11543939Y-9365679D01*
X11543939Y-9365679D01*
X11537350Y-9377092D01*
X11534680Y-9387057D01*
X11533939Y-9389822D01*
X11533939Y-9403000D01*
X11534918Y-9406651D01*
X11537350Y-9415730D01*
X11537507Y-9416000D01*
X11537569Y-9416258D01*
X11537661Y-9416481D01*
X11537627Y-9416495D01*
X11539154Y-9422790D01*
X11536869Y-9429393D01*
X11531377Y-9433712D01*
X11529977Y-9434178D01*
X11528950Y-9434453D01*
X11521240Y-9436519D01*
X11521240Y-9436519D01*
X11521240Y-9436519D01*
X11509827Y-9443109D01*
X11509827Y-9443109D01*
X11500509Y-9452427D01*
X11500508Y-9452427D01*
X11493919Y-9463840D01*
X11490508Y-9476569D01*
X9797050Y-9476569D01*
X9797050Y-9406651D01*
X10729710Y-9406651D01*
X10729710Y-9419829D01*
X10731415Y-9426194D01*
X10733121Y-9432559D01*
X10735374Y-9436460D01*
X10739710Y-9443971D01*
X10749029Y-9453290D01*
X10760441Y-9459879D01*
X10773171Y-9463290D01*
X10773171Y-9463290D01*
X10786349Y-9463290D01*
X10786349Y-9463290D01*
X10799079Y-9459879D01*
X10810491Y-9453290D01*
X10819810Y-9443971D01*
X10826399Y-9432559D01*
X10829810Y-9419829D01*
X10829810Y-9406651D01*
X10826399Y-9393921D01*
X10819810Y-9382509D01*
X10810491Y-9373190D01*
X10804785Y-9369895D01*
X10799079Y-9366601D01*
X10792714Y-9364895D01*
X10786349Y-9363190D01*
X10773171Y-9363190D01*
X10760441Y-9366601D01*
X10749029Y-9373190D01*
X10749028Y-9373190D01*
X10739710Y-9382508D01*
X10739710Y-9382509D01*
X10733121Y-9393921D01*
X10732216Y-9397300D01*
X10729710Y-9406651D01*
X9797050Y-9406651D01*
X9797050Y-9282300D01*
X9900710Y-9282300D01*
X9970801Y-9282300D01*
X9969080Y-9283294D01*
X9963494Y-9288880D01*
X9959544Y-9295720D01*
X9957500Y-9303350D01*
X9957500Y-9311250D01*
X9959544Y-9318880D01*
X9963494Y-9325721D01*
X9969080Y-9331306D01*
X9970801Y-9332300D01*
X9900710Y-9332300D01*
X9900958Y-9333552D01*
X9900959Y-9333552D01*
X9907743Y-9349931D01*
X9907743Y-9349932D01*
X9917592Y-9364672D01*
X9917593Y-9364672D01*
X9930128Y-9377207D01*
X9930128Y-9377208D01*
X9944868Y-9387057D01*
X9944869Y-9387057D01*
X9961248Y-9393841D01*
X9961249Y-9393842D01*
X9978635Y-9397300D01*
X9978636Y-9397300D01*
X10002500Y-9397300D01*
X10002500Y-9337300D01*
X10052500Y-9337300D01*
X10052500Y-9397300D01*
X10076364Y-9397300D01*
X10076365Y-9397300D01*
X10093751Y-9393842D01*
X10093752Y-9393841D01*
X10110131Y-9387057D01*
X10110132Y-9387057D01*
X10124872Y-9377208D01*
X10124872Y-9377207D01*
X10137407Y-9364672D01*
X10137408Y-9364672D01*
X10147257Y-9349932D01*
X10147257Y-9349931D01*
X10154041Y-9333552D01*
X10154042Y-9333552D01*
X10154290Y-9332300D01*
X10084199Y-9332300D01*
X10085921Y-9331306D01*
X10091506Y-9325721D01*
X10095456Y-9318880D01*
X10097500Y-9311250D01*
X10097500Y-9303350D01*
X10095456Y-9295720D01*
X10091506Y-9288880D01*
X10085921Y-9283294D01*
X10084199Y-9282300D01*
X10154290Y-9282300D01*
X10154042Y-9281048D01*
X10154041Y-9281048D01*
X10147257Y-9264669D01*
X10147257Y-9264668D01*
X10137408Y-9249928D01*
X10137407Y-9249928D01*
X10124872Y-9237393D01*
X10124872Y-9237392D01*
X10110132Y-9227543D01*
X10110131Y-9227543D01*
X10093752Y-9220759D01*
X10093751Y-9220758D01*
X10076365Y-9217300D01*
X10052500Y-9217300D01*
X10052500Y-9277300D01*
X10002500Y-9277300D01*
X10002500Y-9217300D01*
X9978635Y-9217300D01*
X9961249Y-9220758D01*
X9961248Y-9220759D01*
X9944869Y-9227543D01*
X9944868Y-9227543D01*
X9930128Y-9237392D01*
X9930128Y-9237393D01*
X9917593Y-9249928D01*
X9917592Y-9249928D01*
X9907743Y-9264668D01*
X9907743Y-9264669D01*
X9900959Y-9281048D01*
X9900958Y-9281048D01*
X9900710Y-9282300D01*
X9797050Y-9282300D01*
X9797050Y-9043398D01*
X10254686Y-9043398D01*
X10254686Y-9056577D01*
X10255727Y-9060459D01*
X10258097Y-9069306D01*
X10260738Y-9073881D01*
X10264686Y-9080719D01*
X10274005Y-9090038D01*
X10285418Y-9096627D01*
X10298147Y-9100038D01*
X10298147Y-9100038D01*
X10303702Y-9100038D01*
X10310406Y-9102006D01*
X10314981Y-9107287D01*
X10315679Y-9109228D01*
X10316561Y-9112519D01*
X10323150Y-9123931D01*
X10332469Y-9133250D01*
X10343881Y-9139839D01*
X10343882Y-9139839D01*
X10344030Y-9139901D01*
X10344135Y-9139986D01*
X10344585Y-9140246D01*
X10344545Y-9140316D01*
X10349470Y-9144285D01*
X10351677Y-9150914D01*
X10351262Y-9154566D01*
X10350250Y-9158342D01*
X10350250Y-9170257D01*
X10353334Y-9181766D01*
X10353839Y-9182641D01*
X10359291Y-9192084D01*
X10359291Y-9192084D01*
X10367896Y-9200690D01*
X10371245Y-9206822D01*
X10370746Y-9213791D01*
X10366559Y-9219384D01*
X10363874Y-9220914D01*
X10347869Y-9227543D01*
X10347868Y-9227543D01*
X10333128Y-9237392D01*
X10333128Y-9237393D01*
X10320593Y-9249928D01*
X10320592Y-9249928D01*
X10310743Y-9264668D01*
X10310743Y-9264669D01*
X10303959Y-9281048D01*
X10303958Y-9281048D01*
X10303710Y-9282300D01*
X10373801Y-9282300D01*
X10372080Y-9283294D01*
X10366494Y-9288880D01*
X10362544Y-9295720D01*
X10360500Y-9303350D01*
X10360500Y-9311250D01*
X10362544Y-9318880D01*
X10366494Y-9325721D01*
X10372080Y-9331306D01*
X10373801Y-9332300D01*
X10303710Y-9332300D01*
X10303958Y-9333552D01*
X10303959Y-9333552D01*
X10310743Y-9349931D01*
X10310743Y-9349932D01*
X10320592Y-9364672D01*
X10320593Y-9364672D01*
X10333128Y-9377207D01*
X10333128Y-9377208D01*
X10347868Y-9387057D01*
X10347869Y-9387057D01*
X10364248Y-9393841D01*
X10364249Y-9393842D01*
X10381635Y-9397300D01*
X10381636Y-9397300D01*
X10420500Y-9397300D01*
X10420500Y-9337300D01*
X10470500Y-9337300D01*
X10470500Y-9397300D01*
X10509364Y-9397300D01*
X10509365Y-9397300D01*
X10526751Y-9393842D01*
X10526752Y-9393841D01*
X10543131Y-9387057D01*
X10543132Y-9387057D01*
X10557872Y-9377208D01*
X10557872Y-9377207D01*
X10570407Y-9364672D01*
X10570408Y-9364672D01*
X10580257Y-9349932D01*
X10580257Y-9349931D01*
X10587041Y-9333552D01*
X10587042Y-9333552D01*
X10587290Y-9332300D01*
X10517199Y-9332300D01*
X10518921Y-9331306D01*
X10524506Y-9325721D01*
X10528456Y-9318880D01*
X10530500Y-9311250D01*
X10530500Y-9303350D01*
X10528456Y-9295720D01*
X10524506Y-9288880D01*
X10518921Y-9283294D01*
X10517199Y-9282300D01*
X10587290Y-9282300D01*
X10587042Y-9281048D01*
X10587041Y-9281048D01*
X10580257Y-9264669D01*
X10576690Y-9259331D01*
X11151350Y-9259331D01*
X11151350Y-9272509D01*
X11154761Y-9285239D01*
X11156383Y-9288049D01*
X11161350Y-9296651D01*
X11170669Y-9305970D01*
X11182081Y-9312559D01*
X11194811Y-9315970D01*
X11194811Y-9315970D01*
X11207989Y-9315970D01*
X11207989Y-9315970D01*
X11220719Y-9312559D01*
X11232131Y-9305970D01*
X11241450Y-9296651D01*
X11248039Y-9285239D01*
X11251450Y-9272509D01*
X11251450Y-9259331D01*
X11248039Y-9246601D01*
X11241450Y-9235189D01*
X11232131Y-9225870D01*
X11226625Y-9222691D01*
X11734933Y-9222691D01*
X11734933Y-9235869D01*
X11738344Y-9248599D01*
X11739111Y-9249928D01*
X11744933Y-9260011D01*
X11754251Y-9269330D01*
X11765664Y-9275919D01*
X11778394Y-9279330D01*
X11778394Y-9279330D01*
X11791572Y-9279330D01*
X11791572Y-9279330D01*
X11804301Y-9275919D01*
X11815714Y-9269330D01*
X11825033Y-9260011D01*
X11831622Y-9248599D01*
X11835033Y-9235869D01*
X11835033Y-9222691D01*
X11831622Y-9209961D01*
X11825033Y-9198549D01*
X11815714Y-9189230D01*
X11810008Y-9185935D01*
X11804302Y-9182641D01*
X11796138Y-9180453D01*
X11791572Y-9179230D01*
X11778394Y-9179230D01*
X11765664Y-9182641D01*
X11754251Y-9189230D01*
X11754251Y-9189230D01*
X11744933Y-9198548D01*
X11744933Y-9198549D01*
X11738344Y-9209961D01*
X11734933Y-9222691D01*
X11226625Y-9222691D01*
X11223547Y-9220914D01*
X11220719Y-9219281D01*
X11213326Y-9217300D01*
X11207989Y-9215870D01*
X11194811Y-9215870D01*
X11182081Y-9219281D01*
X11170669Y-9225870D01*
X11170668Y-9225870D01*
X11161350Y-9235188D01*
X11161350Y-9235189D01*
X11154761Y-9246601D01*
X11151350Y-9259331D01*
X10576690Y-9259331D01*
X10570408Y-9249928D01*
X10570407Y-9249928D01*
X10557872Y-9237393D01*
X10557872Y-9237392D01*
X10543132Y-9227543D01*
X10543131Y-9227543D01*
X10526752Y-9220759D01*
X10526751Y-9220758D01*
X10509365Y-9217300D01*
X10470500Y-9217300D01*
X10470500Y-9277300D01*
X10420500Y-9277300D01*
X10420500Y-9215882D01*
X10418858Y-9212874D01*
X10419356Y-9205905D01*
X10422831Y-9201205D01*
X10422710Y-9201084D01*
X10425245Y-9198548D01*
X10431709Y-9192084D01*
X10437666Y-9181766D01*
X10440750Y-9170257D01*
X10440750Y-9158343D01*
X10437666Y-9146834D01*
X10431709Y-9136516D01*
X10423284Y-9128091D01*
X10423284Y-9128091D01*
X10423284Y-9128091D01*
X10421424Y-9127017D01*
X10421424Y-9127017D01*
X10416267Y-9124040D01*
X10411445Y-9118983D01*
X10411081Y-9117091D01*
X11090390Y-9117091D01*
X11090390Y-9130269D01*
X11092064Y-9136516D01*
X11093801Y-9142999D01*
X11094543Y-9144285D01*
X11100390Y-9154411D01*
X11109709Y-9163730D01*
X11121121Y-9170319D01*
X11133851Y-9173730D01*
X11133851Y-9173730D01*
X11147029Y-9173730D01*
X11147029Y-9173730D01*
X11159759Y-9170319D01*
X11171171Y-9163730D01*
X11180490Y-9154411D01*
X11187079Y-9142999D01*
X11187946Y-9139765D01*
X12239950Y-9139765D01*
X12239950Y-9160235D01*
X12243152Y-9180453D01*
X12249478Y-9199922D01*
X12258771Y-9218161D01*
X12270803Y-9234721D01*
X12285279Y-9249197D01*
X12299227Y-9259331D01*
X12301839Y-9261229D01*
X12310984Y-9265888D01*
X12311108Y-9265952D01*
X12316188Y-9270749D01*
X12317867Y-9277531D01*
X12315613Y-9284145D01*
X12311108Y-9288049D01*
X12301839Y-9292772D01*
X12285279Y-9304803D01*
X12270803Y-9319279D01*
X12258771Y-9335839D01*
X12249478Y-9354078D01*
X12243152Y-9373547D01*
X12240574Y-9389822D01*
X12239950Y-9393765D01*
X12239950Y-9414235D01*
X12240187Y-9415729D01*
X12243152Y-9434453D01*
X12249478Y-9453922D01*
X12258771Y-9472161D01*
X12270803Y-9488721D01*
X12285279Y-9503197D01*
X12298595Y-9512872D01*
X12301839Y-9515229D01*
X12310984Y-9519888D01*
X12311108Y-9519952D01*
X12316188Y-9524749D01*
X12317867Y-9531531D01*
X12315613Y-9538145D01*
X12311108Y-9542049D01*
X12301839Y-9546772D01*
X12285279Y-9558803D01*
X12270803Y-9573279D01*
X12258771Y-9589839D01*
X12249478Y-9608078D01*
X12243152Y-9627547D01*
X12239950Y-9647765D01*
X12239950Y-9668235D01*
X12243152Y-9688453D01*
X12249478Y-9707922D01*
X12258771Y-9726161D01*
X12270803Y-9742721D01*
X12285279Y-9757197D01*
X12301838Y-9769228D01*
X12301839Y-9769229D01*
X12301839Y-9769229D01*
X12311108Y-9773952D01*
X12316188Y-9778749D01*
X12317867Y-9785531D01*
X12315613Y-9792145D01*
X12311108Y-9796048D01*
X12301839Y-9800771D01*
X12301839Y-9800771D01*
X12285279Y-9812803D01*
X12270803Y-9827279D01*
X12258771Y-9843839D01*
X12249478Y-9862078D01*
X12243152Y-9881547D01*
X12239950Y-9901765D01*
X12239950Y-9922235D01*
X12243152Y-9942454D01*
X12249478Y-9961922D01*
X12255869Y-9974465D01*
X12258771Y-9980161D01*
X12258771Y-9980161D01*
X12270803Y-9996721D01*
X12285279Y-10011197D01*
X12301838Y-10023229D01*
X12301839Y-10023229D01*
X12301839Y-10023229D01*
X12311108Y-10027952D01*
X12316187Y-10032749D01*
X12317867Y-10039531D01*
X12315613Y-10046145D01*
X12311108Y-10050048D01*
X12301839Y-10054771D01*
X12301839Y-10054771D01*
X12285279Y-10066803D01*
X12270803Y-10081279D01*
X12258771Y-10097839D01*
X12249478Y-10116078D01*
X12243152Y-10135547D01*
X12239950Y-10155765D01*
X12239950Y-10176235D01*
X12243152Y-10196453D01*
X12249478Y-10215922D01*
X12255869Y-10228465D01*
X12258771Y-10234161D01*
X12258771Y-10234161D01*
X12270803Y-10250721D01*
X12285278Y-10265197D01*
X12285278Y-10265197D01*
X12288473Y-10267518D01*
X12292740Y-10273051D01*
X12293338Y-10280012D01*
X12290078Y-10286192D01*
X12283994Y-10289628D01*
X12281186Y-10289950D01*
X12279574Y-10289950D01*
X12278494Y-10290051D01*
X12276530Y-10290235D01*
X12276530Y-10290235D01*
X12276530Y-10290236D01*
X12276529Y-10290236D01*
X12263712Y-10294721D01*
X12252785Y-10302785D01*
X12244721Y-10313712D01*
X12240235Y-10326530D01*
X12240235Y-10326530D01*
X12239950Y-10329573D01*
X12239950Y-10510426D01*
X12239950Y-10510427D01*
X12240235Y-10513470D01*
X12240235Y-10513470D01*
X12240235Y-10513470D01*
X12240235Y-10513471D01*
X12244721Y-10526288D01*
X12252785Y-10537215D01*
X12257265Y-10540522D01*
X12263712Y-10545279D01*
X12267984Y-10546774D01*
X12276530Y-10549765D01*
X12277232Y-10549830D01*
X12279573Y-10550050D01*
X12460427Y-10550050D01*
X12463470Y-10549765D01*
X12476288Y-10545279D01*
X12487215Y-10537215D01*
X12495279Y-10526288D01*
X12497761Y-10519197D01*
X12499765Y-10513470D01*
X12499765Y-10513470D01*
X12500050Y-10510427D01*
X12500050Y-10329573D01*
X12499765Y-10326530D01*
X12495279Y-10313712D01*
X12491633Y-10308771D01*
X12487215Y-10302785D01*
X12479812Y-10297322D01*
X12476288Y-10294721D01*
X12476288Y-10294721D01*
X12463470Y-10290235D01*
X12460427Y-10289950D01*
X12460427Y-10289950D01*
X12458815Y-10289950D01*
X12452111Y-10287982D01*
X12447536Y-10282701D01*
X12446541Y-10275785D01*
X12449444Y-10269430D01*
X12451527Y-10267518D01*
X12454721Y-10265197D01*
X12454721Y-10265197D01*
X12454722Y-10265197D01*
X12469197Y-10250722D01*
X12469197Y-10250722D01*
X12469197Y-10250721D01*
X12474473Y-10243459D01*
X12481229Y-10234161D01*
X12490522Y-10215922D01*
X12496848Y-10196453D01*
X12500050Y-10176235D01*
X12500050Y-10155765D01*
X12496848Y-10135547D01*
X12496848Y-10135546D01*
X12491735Y-10119811D01*
X12490522Y-10116078D01*
X12490522Y-10116078D01*
X12490522Y-10116078D01*
X12486609Y-10108398D01*
X12481229Y-10097839D01*
X12480456Y-10096775D01*
X12469197Y-10081279D01*
X12454721Y-10066803D01*
X12438161Y-10054772D01*
X12438161Y-10054771D01*
X12438161Y-10054771D01*
X12428892Y-10050049D01*
X12423812Y-10045251D01*
X12422133Y-10038469D01*
X12424387Y-10031855D01*
X12428892Y-10027952D01*
X12438161Y-10023229D01*
X12443114Y-10019630D01*
X12454721Y-10011197D01*
X12454721Y-10011197D01*
X12454722Y-10011197D01*
X12469197Y-9996722D01*
X12469197Y-9996722D01*
X12469197Y-9996721D01*
X12474473Y-9989459D01*
X12481229Y-9980161D01*
X12490522Y-9961922D01*
X12496848Y-9942454D01*
X12500050Y-9922235D01*
X12500050Y-9901765D01*
X12497222Y-9883909D01*
X12496848Y-9881547D01*
X12490522Y-9862078D01*
X12487150Y-9855461D01*
X12481229Y-9843839D01*
X12480456Y-9842775D01*
X12469197Y-9827279D01*
X12454721Y-9812803D01*
X12438161Y-9800772D01*
X12438161Y-9800772D01*
X12438161Y-9800771D01*
X12428892Y-9796048D01*
X12423812Y-9791251D01*
X12422133Y-9784469D01*
X12424386Y-9777855D01*
X12428892Y-9773952D01*
X12438161Y-9769229D01*
X12443114Y-9765630D01*
X12454721Y-9757197D01*
X12454721Y-9757197D01*
X12454722Y-9757197D01*
X12469197Y-9742722D01*
X12469197Y-9742722D01*
X12469197Y-9742721D01*
X12474473Y-9735459D01*
X12481229Y-9726161D01*
X12490522Y-9707922D01*
X12496848Y-9688453D01*
X12500050Y-9668235D01*
X12500050Y-9647765D01*
X12498213Y-9636170D01*
X12496848Y-9627547D01*
X12490522Y-9608078D01*
X12487150Y-9601461D01*
X12481229Y-9589839D01*
X12478423Y-9585977D01*
X12469197Y-9573279D01*
X12454721Y-9558803D01*
X12438161Y-9546772D01*
X12432092Y-9543679D01*
X12428892Y-9542048D01*
X12423812Y-9537251D01*
X12422133Y-9530469D01*
X12424386Y-9523856D01*
X12428892Y-9519952D01*
X12438161Y-9515229D01*
X12446034Y-9509509D01*
X12454721Y-9503197D01*
X12454721Y-9503197D01*
X12454722Y-9503197D01*
X12469197Y-9488722D01*
X12469197Y-9488722D01*
X12469197Y-9488721D01*
X12474473Y-9481459D01*
X12481229Y-9472161D01*
X12490522Y-9453922D01*
X12496848Y-9434453D01*
X12500050Y-9414235D01*
X12500050Y-9393765D01*
X12496848Y-9373547D01*
X12496732Y-9373190D01*
X12491264Y-9356361D01*
X12490522Y-9354078D01*
X12490522Y-9354078D01*
X12490522Y-9354078D01*
X12486590Y-9346361D01*
X12481229Y-9335839D01*
X12477935Y-9331306D01*
X12469197Y-9319279D01*
X12454721Y-9304803D01*
X12438161Y-9292772D01*
X12437501Y-9292435D01*
X12428892Y-9288048D01*
X12423812Y-9283251D01*
X12422133Y-9276469D01*
X12424386Y-9269856D01*
X12428892Y-9265952D01*
X12438161Y-9261229D01*
X12440773Y-9259331D01*
X12454721Y-9249197D01*
X12454721Y-9249197D01*
X12454722Y-9249197D01*
X12469197Y-9234722D01*
X12469197Y-9234722D01*
X12469197Y-9234721D01*
X12475628Y-9225870D01*
X12481229Y-9218161D01*
X12490522Y-9199922D01*
X12496848Y-9180453D01*
X12500050Y-9160235D01*
X12500050Y-9139765D01*
X12498201Y-9128091D01*
X12496848Y-9119547D01*
X12493495Y-9109228D01*
X12490522Y-9100078D01*
X12490522Y-9100078D01*
X12490522Y-9100078D01*
X12485406Y-9090038D01*
X12481229Y-9081839D01*
X12480415Y-9080719D01*
X12469197Y-9065279D01*
X12454721Y-9050803D01*
X12438161Y-9038772D01*
X12438161Y-9038771D01*
X12438161Y-9038771D01*
X12432296Y-9035783D01*
X12419922Y-9029478D01*
X12400453Y-9023152D01*
X12382999Y-9020388D01*
X12380235Y-9019950D01*
X12359765Y-9019950D01*
X12357333Y-9020335D01*
X12339546Y-9023152D01*
X12320078Y-9029478D01*
X12301839Y-9038772D01*
X12285279Y-9050803D01*
X12270803Y-9065279D01*
X12258771Y-9081839D01*
X12249478Y-9100078D01*
X12243152Y-9119547D01*
X12239950Y-9139765D01*
X11187946Y-9139765D01*
X11190490Y-9130269D01*
X11190490Y-9117091D01*
X11187079Y-9104361D01*
X11180490Y-9092949D01*
X11171171Y-9083630D01*
X11165465Y-9080335D01*
X11159759Y-9077041D01*
X11147967Y-9073881D01*
X11147029Y-9073630D01*
X11133851Y-9073630D01*
X11121121Y-9077041D01*
X11109709Y-9083630D01*
X11109708Y-9083630D01*
X11100390Y-9092948D01*
X11100390Y-9092949D01*
X11093801Y-9104361D01*
X11091721Y-9112122D01*
X11090390Y-9117091D01*
X10411081Y-9117091D01*
X10410123Y-9112122D01*
X10410489Y-9110093D01*
X10413250Y-9099789D01*
X10413250Y-9086611D01*
X10409839Y-9073881D01*
X10403250Y-9062469D01*
X10393931Y-9053150D01*
X10386725Y-9048989D01*
X10382519Y-9046561D01*
X10371613Y-9043639D01*
X10369789Y-9043150D01*
X10364235Y-9043150D01*
X10357531Y-9041182D01*
X10352955Y-9035901D01*
X10352257Y-9033960D01*
X10351375Y-9030669D01*
X10344786Y-9019256D01*
X10337005Y-9011475D01*
X10333656Y-9005342D01*
X10334154Y-8998373D01*
X10338342Y-8992780D01*
X10339573Y-8991968D01*
X10341231Y-8991010D01*
X10350550Y-8981691D01*
X10357139Y-8970279D01*
X10360550Y-8957549D01*
X10360550Y-8944371D01*
X10357139Y-8931641D01*
X10350550Y-8920229D01*
X10341231Y-8910910D01*
X10334025Y-8906749D01*
X10329819Y-8904321D01*
X10323454Y-8902615D01*
X10317089Y-8900910D01*
X10303911Y-8900910D01*
X10291181Y-8904321D01*
X10279769Y-8910910D01*
X10279768Y-8910910D01*
X10270450Y-8920228D01*
X10270450Y-8920229D01*
X10263861Y-8931641D01*
X10260950Y-8942505D01*
X10260450Y-8944371D01*
X10260450Y-8957549D01*
X10261060Y-8959825D01*
X10263861Y-8970279D01*
X10265877Y-8973770D01*
X10270450Y-8981691D01*
X10270450Y-8981692D01*
X10278232Y-8989473D01*
X10281580Y-8995605D01*
X10281082Y-9002575D01*
X10276895Y-9008168D01*
X10275664Y-9008980D01*
X10274005Y-9009937D01*
X10274005Y-9009938D01*
X10264686Y-9019256D01*
X10264686Y-9019256D01*
X10258097Y-9030669D01*
X10255280Y-9041182D01*
X10254686Y-9043398D01*
X9797050Y-9043398D01*
X9797050Y-8840871D01*
X10951330Y-8840871D01*
X10951330Y-8854049D01*
X10954741Y-8866779D01*
X10956271Y-8869428D01*
X10961330Y-8878191D01*
X10970649Y-8887510D01*
X10982061Y-8894099D01*
X10994791Y-8897510D01*
X10994791Y-8897510D01*
X10995162Y-8897610D01*
X11001128Y-8901246D01*
X11003930Y-8906378D01*
X11004030Y-8906749D01*
X11007441Y-8919479D01*
X11014030Y-8930891D01*
X11023349Y-8940210D01*
X11034761Y-8946799D01*
X11047491Y-8950210D01*
X11047491Y-8950210D01*
X11060669Y-8950210D01*
X11060669Y-8950210D01*
X11073399Y-8946799D01*
X11084811Y-8940210D01*
X11094130Y-8930891D01*
X11100719Y-8919479D01*
X11104130Y-8906749D01*
X11104130Y-8893571D01*
X11496790Y-8893571D01*
X11496790Y-8906749D01*
X11500201Y-8919479D01*
X11500634Y-8920228D01*
X11506790Y-8930891D01*
X11516109Y-8940210D01*
X11527521Y-8946799D01*
X11540251Y-8950210D01*
X11540251Y-8950210D01*
X11553429Y-8950210D01*
X11553429Y-8950210D01*
X11553944Y-8950072D01*
X11560929Y-8950238D01*
X11566715Y-8954154D01*
X11569466Y-8960577D01*
X11568307Y-8967467D01*
X11563608Y-8972637D01*
X11563354Y-8972788D01*
X11561653Y-8973770D01*
X11561653Y-8973770D01*
X11552335Y-8983088D01*
X11552334Y-8983089D01*
X11545745Y-8994501D01*
X11542334Y-9007231D01*
X11542334Y-9020409D01*
X11545745Y-9033139D01*
X11547288Y-9035811D01*
X11552334Y-9044551D01*
X11561653Y-9053870D01*
X11573066Y-9060459D01*
X11585795Y-9063870D01*
X11585795Y-9063870D01*
X11598973Y-9063870D01*
X11598974Y-9063870D01*
X11611703Y-9060459D01*
X11623116Y-9053870D01*
X11632434Y-9044551D01*
X11639024Y-9033139D01*
X11642434Y-9020409D01*
X11642434Y-9007231D01*
X11639024Y-8994501D01*
X11632434Y-8983089D01*
X11631901Y-8982555D01*
X11957490Y-8982555D01*
X11957490Y-8995733D01*
X11960901Y-9008463D01*
X11961199Y-9008980D01*
X11967490Y-9019875D01*
X11976808Y-9029194D01*
X11988221Y-9035783D01*
X12000951Y-9039194D01*
X12000951Y-9039194D01*
X12014129Y-9039194D01*
X12014129Y-9039194D01*
X12026755Y-9035811D01*
X12091150Y-9035811D01*
X12091150Y-9048989D01*
X12091636Y-9050803D01*
X12094561Y-9061719D01*
X12095803Y-9063870D01*
X12101150Y-9073131D01*
X12110469Y-9082450D01*
X12121881Y-9089039D01*
X12134611Y-9092450D01*
X12134611Y-9092450D01*
X12147789Y-9092450D01*
X12147789Y-9092450D01*
X12160519Y-9089039D01*
X12171931Y-9082450D01*
X12181250Y-9073131D01*
X12187839Y-9061719D01*
X12191250Y-9048989D01*
X12191250Y-9035811D01*
X12187839Y-9023081D01*
X12181250Y-9011669D01*
X12171931Y-9002350D01*
X12163703Y-8997599D01*
X12160519Y-8995761D01*
X12154154Y-8994055D01*
X12147789Y-8992350D01*
X12134611Y-8992350D01*
X12121881Y-8995761D01*
X12110469Y-9002350D01*
X12110468Y-9002350D01*
X12101150Y-9011668D01*
X12101150Y-9011669D01*
X12094561Y-9023081D01*
X12092847Y-9029478D01*
X12091150Y-9035811D01*
X12026755Y-9035811D01*
X12026858Y-9035783D01*
X12038271Y-9029194D01*
X12047590Y-9019875D01*
X12054179Y-9008463D01*
X12057590Y-8995733D01*
X12057590Y-8982555D01*
X12054179Y-8969825D01*
X12047590Y-8958413D01*
X12038271Y-8949094D01*
X12032565Y-8945799D01*
X12026859Y-8942505D01*
X12018293Y-8940210D01*
X12014129Y-8939094D01*
X12000951Y-8939094D01*
X11988221Y-8942505D01*
X11976808Y-8949094D01*
X11976808Y-8949094D01*
X11967490Y-8958412D01*
X11967490Y-8958413D01*
X11960901Y-8969825D01*
X11957490Y-8982555D01*
X11631901Y-8982555D01*
X11623116Y-8973770D01*
X11612199Y-8967467D01*
X11611703Y-8967181D01*
X11605338Y-8965475D01*
X11598974Y-8963770D01*
X11585795Y-8963770D01*
X11585795Y-8963770D01*
X11585279Y-8963908D01*
X11578294Y-8963742D01*
X11572508Y-8959825D01*
X11569758Y-8953402D01*
X11570917Y-8946512D01*
X11575618Y-8941342D01*
X11575863Y-8941196D01*
X11577571Y-8940210D01*
X11586890Y-8930891D01*
X11593479Y-8919479D01*
X11596890Y-8906749D01*
X11596890Y-8893571D01*
X11593479Y-8880841D01*
X11593479Y-8880841D01*
X11593479Y-8880841D01*
X11590563Y-8875791D01*
X11646650Y-8875791D01*
X11646650Y-8888969D01*
X11650061Y-8901699D01*
X11651575Y-8904321D01*
X11656650Y-8913111D01*
X11665969Y-8922430D01*
X11677381Y-8929019D01*
X11690111Y-8932430D01*
X11690111Y-8932430D01*
X11703289Y-8932430D01*
X11703289Y-8932430D01*
X11716019Y-8929019D01*
X11727431Y-8922430D01*
X11736750Y-8913111D01*
X11743339Y-8901699D01*
X11746750Y-8888969D01*
X11746750Y-8875791D01*
X11743339Y-8863061D01*
X11736750Y-8851649D01*
X11727431Y-8842330D01*
X11721725Y-8839035D01*
X11716019Y-8835741D01*
X11709654Y-8834035D01*
X11703289Y-8832330D01*
X11690111Y-8832330D01*
X11677381Y-8835741D01*
X11665969Y-8842330D01*
X11665968Y-8842330D01*
X11656650Y-8851648D01*
X11656650Y-8851649D01*
X11650061Y-8863061D01*
X11646650Y-8875791D01*
X11590563Y-8875791D01*
X11586890Y-8869429D01*
X11577571Y-8860110D01*
X11571865Y-8856815D01*
X11566159Y-8853521D01*
X11559170Y-8851648D01*
X11553429Y-8850110D01*
X11540251Y-8850110D01*
X11527521Y-8853521D01*
X11516109Y-8860110D01*
X11516108Y-8860110D01*
X11506790Y-8869428D01*
X11506790Y-8869429D01*
X11500201Y-8880841D01*
X11496790Y-8893571D01*
X11104130Y-8893571D01*
X11100719Y-8880841D01*
X11094130Y-8869429D01*
X11084811Y-8860110D01*
X11073399Y-8853521D01*
X11064197Y-8851055D01*
X11060298Y-8850010D01*
X11054332Y-8846374D01*
X11051530Y-8841242D01*
X11048019Y-8828141D01*
X11047136Y-8826612D01*
X11041430Y-8816729D01*
X11032111Y-8807410D01*
X11024282Y-8802890D01*
X11020699Y-8800821D01*
X11013199Y-8798811D01*
X11007969Y-8797410D01*
X10994791Y-8797410D01*
X10982061Y-8800821D01*
X10970649Y-8807410D01*
X10970648Y-8807410D01*
X10961330Y-8816728D01*
X10961330Y-8816729D01*
X10954741Y-8828141D01*
X10951330Y-8840871D01*
X9797050Y-8840871D01*
X9797050Y-8743711D01*
X10260450Y-8743711D01*
X10260450Y-8756889D01*
X10260794Y-8758171D01*
X10263861Y-8769619D01*
X10265327Y-8772159D01*
X10270450Y-8781031D01*
X10279769Y-8790350D01*
X10291181Y-8796939D01*
X10303911Y-8800350D01*
X10303911Y-8800350D01*
X10317089Y-8800350D01*
X10317089Y-8800350D01*
X10329819Y-8796939D01*
X10341231Y-8790350D01*
X10350550Y-8781031D01*
X10357139Y-8769619D01*
X10359317Y-8761491D01*
X11818150Y-8761491D01*
X11818150Y-8774669D01*
X11821561Y-8787399D01*
X11823265Y-8790350D01*
X11828150Y-8798811D01*
X11837469Y-8808130D01*
X11848882Y-8814719D01*
X11861611Y-8818130D01*
X11861611Y-8818130D01*
X11874789Y-8818130D01*
X11874789Y-8818130D01*
X11887519Y-8814719D01*
X11898932Y-8808130D01*
X11908250Y-8798811D01*
X11914839Y-8787399D01*
X11918250Y-8774669D01*
X11918250Y-8761491D01*
X11914839Y-8748761D01*
X11913390Y-8746251D01*
X12083530Y-8746251D01*
X12083530Y-8759429D01*
X12086941Y-8772159D01*
X12088390Y-8774669D01*
X12093530Y-8783571D01*
X12102849Y-8792890D01*
X12114261Y-8799479D01*
X12126991Y-8802890D01*
X12126991Y-8802890D01*
X12140169Y-8802890D01*
X12140169Y-8802890D01*
X12152899Y-8799479D01*
X12164311Y-8792890D01*
X12173630Y-8783571D01*
X12180219Y-8772159D01*
X12183630Y-8759429D01*
X12183630Y-8746251D01*
X12180219Y-8733521D01*
X12178753Y-8730981D01*
X12176014Y-8726238D01*
X12176014Y-8726238D01*
X12173630Y-8722109D01*
X12172372Y-8720851D01*
X12329910Y-8720851D01*
X12329910Y-8734029D01*
X12330799Y-8737349D01*
X12333321Y-8746759D01*
X12334477Y-8748761D01*
X12339910Y-8758171D01*
X12349229Y-8767490D01*
X12360641Y-8774079D01*
X12373371Y-8777490D01*
X12373371Y-8777490D01*
X12386549Y-8777490D01*
X12386549Y-8777490D01*
X12399279Y-8774079D01*
X12410691Y-8767490D01*
X12420010Y-8758171D01*
X12426599Y-8746759D01*
X12430010Y-8734029D01*
X12430010Y-8720851D01*
X12426599Y-8708121D01*
X12426577Y-8708083D01*
X12425490Y-8706201D01*
X12420010Y-8696709D01*
X12410691Y-8687390D01*
X12404985Y-8684095D01*
X12399279Y-8680801D01*
X12392914Y-8679095D01*
X12386549Y-8677390D01*
X12373371Y-8677390D01*
X12360641Y-8680801D01*
X12349229Y-8687390D01*
X12349228Y-8687390D01*
X12339910Y-8696708D01*
X12339910Y-8696709D01*
X12333321Y-8708121D01*
X12332070Y-8712790D01*
X12329910Y-8720851D01*
X12172372Y-8720851D01*
X12164311Y-8712790D01*
X12158605Y-8709495D01*
X12152899Y-8706201D01*
X12143419Y-8703661D01*
X12140169Y-8702790D01*
X12126991Y-8702790D01*
X12114261Y-8706201D01*
X12102849Y-8712790D01*
X12102848Y-8712790D01*
X12093530Y-8722108D01*
X12093530Y-8722109D01*
X12086941Y-8733521D01*
X12083530Y-8746251D01*
X11913390Y-8746251D01*
X11908250Y-8737349D01*
X11898932Y-8728030D01*
X11888675Y-8722109D01*
X11887519Y-8721441D01*
X11880530Y-8719568D01*
X11874789Y-8718030D01*
X11861611Y-8718030D01*
X11848881Y-8721441D01*
X11837469Y-8728030D01*
X11837468Y-8728030D01*
X11828150Y-8737348D01*
X11828150Y-8737349D01*
X11821561Y-8748761D01*
X11818150Y-8761491D01*
X10359317Y-8761491D01*
X10360550Y-8756889D01*
X10360550Y-8743711D01*
X10357139Y-8730981D01*
X10354657Y-8726683D01*
X10353010Y-8719893D01*
X10355295Y-8713290D01*
X10360787Y-8708971D01*
X10365396Y-8708083D01*
X10369789Y-8708083D01*
X10369789Y-8708083D01*
X10382519Y-8704672D01*
X10393931Y-8698083D01*
X10403250Y-8688764D01*
X10409839Y-8677351D01*
X10413250Y-8664622D01*
X10413250Y-8651443D01*
X10411285Y-8644108D01*
X11744582Y-8644108D01*
X11744582Y-8657286D01*
X11746287Y-8663651D01*
X11747993Y-8670016D01*
X11751287Y-8675722D01*
X11754582Y-8681429D01*
X11763900Y-8690747D01*
X11775313Y-8697336D01*
X11788043Y-8700747D01*
X11788043Y-8700747D01*
X11801221Y-8700747D01*
X11801221Y-8700747D01*
X11813950Y-8697336D01*
X11825363Y-8690747D01*
X11834682Y-8681429D01*
X11841271Y-8670016D01*
X11844682Y-8657286D01*
X11844682Y-8644108D01*
X11841271Y-8631379D01*
X11834682Y-8619966D01*
X11825363Y-8610647D01*
X11822668Y-8609091D01*
X12586450Y-8609091D01*
X12586450Y-8622269D01*
X12586514Y-8622509D01*
X12589861Y-8634999D01*
X12592006Y-8638714D01*
X12596450Y-8646411D01*
X12605769Y-8655730D01*
X12617181Y-8662319D01*
X12629911Y-8665730D01*
X12629911Y-8665730D01*
X12643089Y-8665730D01*
X12643089Y-8665730D01*
X12655819Y-8662319D01*
X12667231Y-8655730D01*
X12676550Y-8646411D01*
X12683139Y-8634999D01*
X12686550Y-8622269D01*
X12686550Y-8609091D01*
X12683139Y-8596361D01*
X12683092Y-8596279D01*
X12680770Y-8592257D01*
X12676550Y-8584949D01*
X12667231Y-8575630D01*
X12661525Y-8572335D01*
X12655819Y-8569041D01*
X12649454Y-8567335D01*
X12643089Y-8565630D01*
X12629911Y-8565630D01*
X12617181Y-8569041D01*
X12605769Y-8575630D01*
X12605768Y-8575630D01*
X12596450Y-8584948D01*
X12596450Y-8584949D01*
X12589861Y-8596361D01*
X12587798Y-8604058D01*
X12586450Y-8609091D01*
X11822668Y-8609091D01*
X11819657Y-8607353D01*
X11813951Y-8604058D01*
X11802311Y-8600939D01*
X11801221Y-8600647D01*
X11788043Y-8600647D01*
X11775313Y-8604058D01*
X11763900Y-8610647D01*
X11763900Y-8610647D01*
X11754582Y-8619965D01*
X11754582Y-8619966D01*
X11747993Y-8631378D01*
X11744582Y-8644108D01*
X10411285Y-8644108D01*
X10410343Y-8640593D01*
X10410509Y-8633608D01*
X10414425Y-8627822D01*
X10416119Y-8626646D01*
X10423284Y-8622509D01*
X10431709Y-8614084D01*
X10437666Y-8603766D01*
X10440750Y-8592257D01*
X10440750Y-8580343D01*
X10437666Y-8568834D01*
X10431709Y-8558516D01*
X10423284Y-8550091D01*
X10422710Y-8549516D01*
X10422835Y-8549391D01*
X10419305Y-8544556D01*
X10419216Y-8543051D01*
X11989550Y-8543051D01*
X11989550Y-8556229D01*
X11992961Y-8568959D01*
X11995651Y-8573619D01*
X11999550Y-8580371D01*
X12008869Y-8589690D01*
X12020281Y-8596279D01*
X12033011Y-8599690D01*
X12033011Y-8599690D01*
X12046189Y-8599690D01*
X12046189Y-8599690D01*
X12058919Y-8596279D01*
X12070331Y-8589690D01*
X12079650Y-8580371D01*
X12086239Y-8568959D01*
X12089650Y-8556229D01*
X12089650Y-8547711D01*
X12375830Y-8547711D01*
X12375830Y-8560889D01*
X12379241Y-8573619D01*
X12380402Y-8575630D01*
X12385830Y-8585031D01*
X12395149Y-8594350D01*
X12400673Y-8597540D01*
X12406561Y-8600939D01*
X12406561Y-8600939D01*
X12419291Y-8604350D01*
X12419291Y-8604350D01*
X12432469Y-8604350D01*
X12432469Y-8604350D01*
X12445199Y-8600939D01*
X12456611Y-8594350D01*
X12465930Y-8585031D01*
X12472519Y-8573619D01*
X12475930Y-8560889D01*
X12475930Y-8547711D01*
X12472519Y-8534981D01*
X12465930Y-8523569D01*
X12456611Y-8514250D01*
X12450905Y-8510955D01*
X12445199Y-8507661D01*
X12434668Y-8504839D01*
X12432469Y-8504250D01*
X12419291Y-8504250D01*
X12406561Y-8507661D01*
X12395149Y-8514250D01*
X12395148Y-8514250D01*
X12385830Y-8523568D01*
X12385830Y-8523569D01*
X12379241Y-8534981D01*
X12375830Y-8547711D01*
X12089650Y-8547711D01*
X12089650Y-8543051D01*
X12086239Y-8530321D01*
X12086098Y-8530076D01*
X12085356Y-8528792D01*
X12079650Y-8518909D01*
X12070331Y-8509590D01*
X12062103Y-8504839D01*
X12058919Y-8503001D01*
X12050226Y-8500672D01*
X12046189Y-8499590D01*
X12033011Y-8499590D01*
X12020281Y-8503001D01*
X12008869Y-8509590D01*
X12008868Y-8509590D01*
X11999550Y-8518908D01*
X11999550Y-8518909D01*
X11992961Y-8530321D01*
X11989550Y-8543051D01*
X10419216Y-8543051D01*
X10418890Y-8537582D01*
X10420500Y-8534674D01*
X10420500Y-8473300D01*
X10470500Y-8473300D01*
X10470500Y-8533300D01*
X10509364Y-8533300D01*
X10509365Y-8533300D01*
X10525571Y-8530076D01*
X10526751Y-8529842D01*
X10526752Y-8529841D01*
X10543131Y-8523057D01*
X10543132Y-8523057D01*
X10557872Y-8513208D01*
X10557872Y-8513207D01*
X10570407Y-8500672D01*
X10570408Y-8500672D01*
X10580257Y-8485932D01*
X10580257Y-8485930D01*
X10584087Y-8476685D01*
X10588471Y-8471244D01*
X10595100Y-8469038D01*
X10601743Y-8470691D01*
X10604146Y-8472079D01*
X10606581Y-8473484D01*
X10606581Y-8473484D01*
X10606581Y-8473484D01*
X10619311Y-8476895D01*
X10619311Y-8476895D01*
X10632489Y-8476895D01*
X10632489Y-8476895D01*
X10645219Y-8473484D01*
X10656631Y-8466895D01*
X10665950Y-8457577D01*
X10672539Y-8446164D01*
X10675950Y-8433434D01*
X10675950Y-8420256D01*
X10672539Y-8407527D01*
X10665950Y-8396114D01*
X10665950Y-8396114D01*
X10665745Y-8395759D01*
X10665569Y-8395035D01*
X10665094Y-8394461D01*
X10664757Y-8391686D01*
X10664098Y-8388969D01*
X10664320Y-8388092D01*
X10664252Y-8387525D01*
X10664985Y-8385478D01*
X10665320Y-8384161D01*
X10665517Y-8383753D01*
X10671453Y-8373472D01*
X10672652Y-8368998D01*
X10673162Y-8367942D01*
X10674752Y-8366187D01*
X10675985Y-8364164D01*
X10677055Y-8363645D01*
X10677853Y-8362764D01*
X10680139Y-8362146D01*
X10682270Y-8361112D01*
X10684326Y-8360940D01*
X10689829Y-8360940D01*
X10689829Y-8360940D01*
X10702559Y-8357529D01*
X10713971Y-8350940D01*
X10723290Y-8341621D01*
X10724312Y-8339851D01*
X11004030Y-8339851D01*
X11004030Y-8353029D01*
X11005236Y-8357529D01*
X11007441Y-8365759D01*
X11008591Y-8367750D01*
X11014030Y-8377171D01*
X11023349Y-8386490D01*
X11034761Y-8393079D01*
X11047491Y-8396490D01*
X11047491Y-8396490D01*
X11052757Y-8396490D01*
X11059461Y-8398459D01*
X11064036Y-8403739D01*
X11065051Y-8410509D01*
X11064990Y-8410970D01*
X11064990Y-8410971D01*
X11064990Y-8424149D01*
X11065879Y-8427469D01*
X11068401Y-8436879D01*
X11071375Y-8442030D01*
X11074990Y-8448291D01*
X11084309Y-8457610D01*
X11095721Y-8464199D01*
X11108451Y-8467610D01*
X11108451Y-8467610D01*
X11121629Y-8467610D01*
X11121629Y-8467610D01*
X11134359Y-8464199D01*
X11145771Y-8457610D01*
X11155090Y-8448291D01*
X11158730Y-8441986D01*
X11163787Y-8437165D01*
X11170647Y-8435843D01*
X11177134Y-8438439D01*
X11178237Y-8439418D01*
X11186269Y-8447450D01*
X11197681Y-8454039D01*
X11210411Y-8457450D01*
X11210411Y-8457450D01*
X11223589Y-8457450D01*
X11223589Y-8457450D01*
X11236319Y-8454039D01*
X11240525Y-8451611D01*
X11552670Y-8451611D01*
X11552670Y-8464789D01*
X11553946Y-8469552D01*
X11556081Y-8477519D01*
X11559375Y-8483225D01*
X11562670Y-8488931D01*
X11571989Y-8498250D01*
X11583401Y-8504839D01*
X11596131Y-8508250D01*
X11596131Y-8508250D01*
X11609309Y-8508250D01*
X11609309Y-8508250D01*
X11622039Y-8504839D01*
X11633451Y-8498250D01*
X11642770Y-8488931D01*
X11649359Y-8477519D01*
X11652770Y-8464789D01*
X11652770Y-8451611D01*
X11649359Y-8438881D01*
X11642770Y-8427469D01*
X11633451Y-8418150D01*
X11626245Y-8413989D01*
X11622039Y-8411561D01*
X11615674Y-8409855D01*
X11609309Y-8408150D01*
X11596131Y-8408150D01*
X11583401Y-8411561D01*
X11571989Y-8418150D01*
X11571988Y-8418150D01*
X11562670Y-8427468D01*
X11562670Y-8427469D01*
X11556081Y-8438881D01*
X11553785Y-8447450D01*
X11552670Y-8451611D01*
X11240525Y-8451611D01*
X11247731Y-8447450D01*
X11257050Y-8438131D01*
X11263639Y-8426719D01*
X11267050Y-8413989D01*
X11267050Y-8400811D01*
X11263639Y-8388081D01*
X11257050Y-8376669D01*
X11247731Y-8367350D01*
X11241137Y-8363543D01*
X11236319Y-8360761D01*
X11227626Y-8358432D01*
X11223589Y-8357350D01*
X11210411Y-8357350D01*
X11197681Y-8360761D01*
X11186269Y-8367350D01*
X11186268Y-8367350D01*
X11176950Y-8376668D01*
X11176950Y-8376669D01*
X11173310Y-8382974D01*
X11168253Y-8387795D01*
X11161392Y-8389117D01*
X11154906Y-8386520D01*
X11153803Y-8385542D01*
X11145772Y-8377510D01*
X11145771Y-8377510D01*
X11137544Y-8372760D01*
X11134359Y-8370921D01*
X11127994Y-8369215D01*
X11121629Y-8367510D01*
X11116363Y-8367510D01*
X11109659Y-8365541D01*
X11105084Y-8360261D01*
X11104069Y-8353491D01*
X11104130Y-8353030D01*
X11104130Y-8353029D01*
X11104130Y-8339851D01*
X11100719Y-8327121D01*
X11097249Y-8321111D01*
X11405350Y-8321111D01*
X11405350Y-8334289D01*
X11405682Y-8335530D01*
X11408761Y-8347019D01*
X11411025Y-8350940D01*
X11415350Y-8358431D01*
X11424669Y-8367750D01*
X11436081Y-8374339D01*
X11448811Y-8377750D01*
X11448811Y-8377750D01*
X11461989Y-8377750D01*
X11461989Y-8377750D01*
X11474719Y-8374339D01*
X11486131Y-8367750D01*
X11495450Y-8358431D01*
X11502039Y-8347019D01*
X11505450Y-8334289D01*
X11505450Y-8321111D01*
X11502039Y-8308381D01*
X11501420Y-8307309D01*
X11499971Y-8304799D01*
X11495450Y-8296969D01*
X11486131Y-8287650D01*
X11479759Y-8283971D01*
X11474719Y-8281061D01*
X11468354Y-8279355D01*
X11466620Y-8278891D01*
X11796510Y-8278891D01*
X11796510Y-8292069D01*
X11797823Y-8296968D01*
X11799921Y-8304799D01*
X11801989Y-8308381D01*
X11806510Y-8316211D01*
X11815829Y-8325530D01*
X11827241Y-8332119D01*
X11839971Y-8335530D01*
X11839971Y-8335530D01*
X11853149Y-8335530D01*
X11853149Y-8335530D01*
X11865879Y-8332119D01*
X11868732Y-8330471D01*
X11875522Y-8328824D01*
X11882125Y-8331109D01*
X11883701Y-8332442D01*
X11892029Y-8340770D01*
X11901912Y-8346476D01*
X11902851Y-8347019D01*
X11903441Y-8347359D01*
X11916171Y-8350770D01*
X11916171Y-8350770D01*
X11929349Y-8350770D01*
X11929349Y-8350770D01*
X11942079Y-8347359D01*
X11953491Y-8340770D01*
X11962810Y-8331451D01*
X11969399Y-8320039D01*
X11972810Y-8307309D01*
X11972810Y-8294131D01*
X11969399Y-8281401D01*
X11962810Y-8269989D01*
X11953491Y-8260670D01*
X11949855Y-8258571D01*
X12060670Y-8258571D01*
X12060670Y-8271749D01*
X12064081Y-8284479D01*
X12065912Y-8287650D01*
X12070670Y-8295891D01*
X12079989Y-8305210D01*
X12091401Y-8311799D01*
X12104131Y-8315210D01*
X12104131Y-8315210D01*
X12117309Y-8315210D01*
X12117309Y-8315210D01*
X12130039Y-8311799D01*
X12141451Y-8305210D01*
X12150770Y-8295891D01*
X12157359Y-8284479D01*
X12157495Y-8283971D01*
X12324830Y-8283971D01*
X12324830Y-8297149D01*
X12328241Y-8309879D01*
X12330680Y-8314103D01*
X12334830Y-8321291D01*
X12344149Y-8330610D01*
X12355561Y-8337199D01*
X12368291Y-8340610D01*
X12368291Y-8340610D01*
X12381469Y-8340610D01*
X12381469Y-8340610D01*
X12394199Y-8337199D01*
X12405611Y-8330610D01*
X12414930Y-8321291D01*
X12421519Y-8309879D01*
X12424930Y-8297149D01*
X12424930Y-8283971D01*
X12421519Y-8271241D01*
X12414930Y-8259829D01*
X12405611Y-8250510D01*
X12397525Y-8245841D01*
X12394199Y-8243921D01*
X12387834Y-8242215D01*
X12381469Y-8240510D01*
X12368291Y-8240510D01*
X12355561Y-8243921D01*
X12344149Y-8250510D01*
X12344148Y-8250510D01*
X12334830Y-8259828D01*
X12334830Y-8259829D01*
X12328241Y-8271241D01*
X12324830Y-8283971D01*
X12157495Y-8283971D01*
X12160770Y-8271749D01*
X12160770Y-8258571D01*
X12157359Y-8245841D01*
X12150770Y-8234429D01*
X12141451Y-8225110D01*
X12135745Y-8221815D01*
X12130039Y-8218521D01*
X12123674Y-8216815D01*
X12117309Y-8215110D01*
X12104131Y-8215110D01*
X12091401Y-8218521D01*
X12079989Y-8225110D01*
X12079988Y-8225110D01*
X12070670Y-8234428D01*
X12070670Y-8234429D01*
X12064081Y-8245841D01*
X12060670Y-8258571D01*
X11949855Y-8258571D01*
X11944932Y-8255728D01*
X11942079Y-8254081D01*
X11935714Y-8252375D01*
X11929349Y-8250670D01*
X11916171Y-8250670D01*
X11903441Y-8254081D01*
X11903441Y-8254081D01*
X11903441Y-8254081D01*
X11903441Y-8254081D01*
X11900587Y-8255728D01*
X11893797Y-8257376D01*
X11887195Y-8255090D01*
X11885619Y-8253758D01*
X11877292Y-8245430D01*
X11877291Y-8245430D01*
X11871585Y-8242135D01*
X11865879Y-8238841D01*
X11859153Y-8237039D01*
X11853149Y-8235430D01*
X11839971Y-8235430D01*
X11827241Y-8238841D01*
X11815829Y-8245430D01*
X11815828Y-8245430D01*
X11806510Y-8254748D01*
X11806510Y-8254749D01*
X11799921Y-8266161D01*
X11798170Y-8272695D01*
X11796510Y-8278891D01*
X11466620Y-8278891D01*
X11461989Y-8277650D01*
X11448811Y-8277650D01*
X11436081Y-8281061D01*
X11424669Y-8287650D01*
X11424668Y-8287650D01*
X11415350Y-8296968D01*
X11415350Y-8296969D01*
X11408761Y-8308381D01*
X11406931Y-8315210D01*
X11405350Y-8321111D01*
X11097249Y-8321111D01*
X11094130Y-8315709D01*
X11084811Y-8306390D01*
X11079105Y-8303095D01*
X11073399Y-8299801D01*
X11067034Y-8298095D01*
X11060669Y-8296390D01*
X11047491Y-8296390D01*
X11034761Y-8299801D01*
X11023349Y-8306390D01*
X11023348Y-8306390D01*
X11014030Y-8315708D01*
X11014030Y-8315709D01*
X11007441Y-8327121D01*
X11005520Y-8334289D01*
X11004030Y-8339851D01*
X10724312Y-8339851D01*
X10729879Y-8330209D01*
X10733290Y-8317479D01*
X10733290Y-8304301D01*
X10729879Y-8291571D01*
X10723290Y-8280159D01*
X10713971Y-8270840D01*
X10708088Y-8267443D01*
X10702559Y-8264251D01*
X10696194Y-8262545D01*
X10689829Y-8260840D01*
X10676651Y-8260840D01*
X10663921Y-8264251D01*
X10652509Y-8270840D01*
X10652508Y-8270840D01*
X10643190Y-8280158D01*
X10643190Y-8280159D01*
X10636601Y-8291571D01*
X10635706Y-8294913D01*
X10632069Y-8300879D01*
X10625784Y-8303932D01*
X10623728Y-8304103D01*
X10618225Y-8304103D01*
X10605495Y-8307514D01*
X10594083Y-8314103D01*
X10594082Y-8314104D01*
X10584764Y-8323422D01*
X10584764Y-8323422D01*
X10578175Y-8334835D01*
X10574764Y-8347564D01*
X10574764Y-8361481D01*
X10572795Y-8368184D01*
X10567515Y-8372760D01*
X10560599Y-8373754D01*
X10555475Y-8371791D01*
X10543132Y-8363543D01*
X10543131Y-8363543D01*
X10526752Y-8356759D01*
X10526751Y-8356758D01*
X10509365Y-8353300D01*
X10470500Y-8353300D01*
X10470500Y-8413300D01*
X10420500Y-8413300D01*
X10420500Y-8353300D01*
X10381635Y-8353300D01*
X10364249Y-8356758D01*
X10364248Y-8356759D01*
X10347869Y-8363543D01*
X10347868Y-8363543D01*
X10333128Y-8373392D01*
X10333128Y-8373393D01*
X10320593Y-8385928D01*
X10320592Y-8385928D01*
X10310743Y-8400668D01*
X10310743Y-8400669D01*
X10303959Y-8417048D01*
X10303958Y-8417048D01*
X10303710Y-8418300D01*
X10373801Y-8418300D01*
X10372080Y-8419294D01*
X10366494Y-8424880D01*
X10362544Y-8431720D01*
X10360500Y-8439350D01*
X10360500Y-8447250D01*
X10362544Y-8454880D01*
X10366494Y-8461721D01*
X10372080Y-8467306D01*
X10373801Y-8468300D01*
X10303710Y-8468300D01*
X10303958Y-8469552D01*
X10303959Y-8469552D01*
X10310743Y-8485931D01*
X10310743Y-8485932D01*
X10320592Y-8500672D01*
X10320593Y-8500672D01*
X10333128Y-8513207D01*
X10333128Y-8513208D01*
X10347868Y-8523057D01*
X10347870Y-8523057D01*
X10363873Y-8529686D01*
X10369314Y-8534070D01*
X10371520Y-8540700D01*
X10369792Y-8547470D01*
X10367896Y-8549910D01*
X10359291Y-8558516D01*
X10353334Y-8568834D01*
X10350250Y-8580343D01*
X10350250Y-8592257D01*
X10351415Y-8596603D01*
X10351248Y-8603588D01*
X10347332Y-8609375D01*
X10344183Y-8611269D01*
X10343882Y-8611393D01*
X10332469Y-8617983D01*
X10332468Y-8617983D01*
X10323150Y-8627301D01*
X10323150Y-8627301D01*
X10316561Y-8638714D01*
X10314473Y-8646505D01*
X10313150Y-8651443D01*
X10313150Y-8664622D01*
X10314595Y-8670016D01*
X10316561Y-8677351D01*
X10318057Y-8679942D01*
X10318915Y-8681429D01*
X10319043Y-8681650D01*
X10320690Y-8688440D01*
X10318405Y-8695043D01*
X10312913Y-8699362D01*
X10308304Y-8700250D01*
X10303911Y-8700250D01*
X10291181Y-8703661D01*
X10279769Y-8710250D01*
X10279768Y-8710250D01*
X10270450Y-8719568D01*
X10270450Y-8719569D01*
X10263861Y-8730981D01*
X10262155Y-8737348D01*
X10260450Y-8743711D01*
X9797050Y-8743711D01*
X9797050Y-8418300D01*
X9900710Y-8418300D01*
X9970801Y-8418300D01*
X9969080Y-8419294D01*
X9963494Y-8424880D01*
X9959544Y-8431720D01*
X9957500Y-8439350D01*
X9957500Y-8447250D01*
X9959544Y-8454880D01*
X9963494Y-8461721D01*
X9969080Y-8467306D01*
X9970801Y-8468300D01*
X9900710Y-8468300D01*
X9900958Y-8469552D01*
X9900959Y-8469552D01*
X9907743Y-8485931D01*
X9907743Y-8485932D01*
X9917592Y-8500672D01*
X9917593Y-8500672D01*
X9930128Y-8513207D01*
X9930128Y-8513208D01*
X9944868Y-8523057D01*
X9944869Y-8523057D01*
X9961248Y-8529841D01*
X9961249Y-8529842D01*
X9978635Y-8533300D01*
X9978636Y-8533300D01*
X10002500Y-8533300D01*
X10002500Y-8473300D01*
X10052500Y-8473300D01*
X10052500Y-8533300D01*
X10076364Y-8533300D01*
X10076365Y-8533300D01*
X10093751Y-8529842D01*
X10093752Y-8529841D01*
X10110131Y-8523057D01*
X10110132Y-8523057D01*
X10124872Y-8513208D01*
X10124872Y-8513207D01*
X10137407Y-8500672D01*
X10137408Y-8500672D01*
X10147257Y-8485932D01*
X10147257Y-8485931D01*
X10154041Y-8469552D01*
X10154042Y-8469552D01*
X10154290Y-8468300D01*
X10084199Y-8468300D01*
X10085921Y-8467306D01*
X10091506Y-8461721D01*
X10095456Y-8454880D01*
X10097500Y-8447250D01*
X10097500Y-8439350D01*
X10095456Y-8431720D01*
X10091506Y-8424880D01*
X10085921Y-8419294D01*
X10084199Y-8418300D01*
X10154290Y-8418300D01*
X10154042Y-8417048D01*
X10154041Y-8417048D01*
X10147257Y-8400669D01*
X10147257Y-8400668D01*
X10137408Y-8385928D01*
X10137407Y-8385928D01*
X10124872Y-8373393D01*
X10124872Y-8373392D01*
X10110132Y-8363543D01*
X10110131Y-8363543D01*
X10093752Y-8356759D01*
X10093751Y-8356758D01*
X10076365Y-8353300D01*
X10052500Y-8353300D01*
X10052500Y-8413300D01*
X10002500Y-8413300D01*
X10002500Y-8353300D01*
X9978635Y-8353300D01*
X9961249Y-8356758D01*
X9961248Y-8356759D01*
X9944869Y-8363543D01*
X9944868Y-8363543D01*
X9930128Y-8373392D01*
X9930128Y-8373393D01*
X9917593Y-8385928D01*
X9917592Y-8385928D01*
X9907743Y-8400668D01*
X9907743Y-8400669D01*
X9900959Y-8417048D01*
X9900958Y-8417048D01*
X9900710Y-8418300D01*
X9797050Y-8418300D01*
X9797050Y-8211131D01*
X10528410Y-8211131D01*
X10528410Y-8224309D01*
X10531821Y-8237039D01*
X10532861Y-8238841D01*
X10538410Y-8248451D01*
X10547729Y-8257770D01*
X10559141Y-8264359D01*
X10571871Y-8267770D01*
X10571871Y-8267770D01*
X10585049Y-8267770D01*
X10585049Y-8267770D01*
X10597779Y-8264359D01*
X10609191Y-8257770D01*
X10618510Y-8248451D01*
X10625099Y-8237039D01*
X10628346Y-8224920D01*
X11186755Y-8224920D01*
X11186755Y-8238098D01*
X11188315Y-8243921D01*
X11190166Y-8250828D01*
X11191857Y-8253758D01*
X11196755Y-8262240D01*
X11206073Y-8271559D01*
X11217486Y-8278148D01*
X11230216Y-8281559D01*
X11230216Y-8281559D01*
X11243394Y-8281559D01*
X11243394Y-8281559D01*
X11256123Y-8278148D01*
X11267536Y-8271559D01*
X11268303Y-8270792D01*
X11274435Y-8267443D01*
X11281404Y-8267941D01*
X11283272Y-8268821D01*
X11285293Y-8269988D01*
X11289982Y-8272695D01*
X11302711Y-8276106D01*
X11302711Y-8276106D01*
X11315889Y-8276106D01*
X11315889Y-8276106D01*
X11328619Y-8272695D01*
X11340032Y-8266106D01*
X11349350Y-8256787D01*
X11355939Y-8245374D01*
X11359350Y-8232645D01*
X11359350Y-8219467D01*
X11355939Y-8206737D01*
X11349350Y-8195324D01*
X11340032Y-8186006D01*
X11332156Y-8181459D01*
X11328619Y-8179417D01*
X11322100Y-8177670D01*
X11315889Y-8176006D01*
X11302711Y-8176006D01*
X11289981Y-8179417D01*
X11278569Y-8186006D01*
X11278569Y-8186006D01*
X11277801Y-8186773D01*
X11271669Y-8190122D01*
X11264700Y-8189623D01*
X11262833Y-8188744D01*
X11256124Y-8184870D01*
X11256123Y-8184870D01*
X11243394Y-8181459D01*
X11230216Y-8181459D01*
X11217486Y-8184870D01*
X11206073Y-8191459D01*
X11206073Y-8191459D01*
X11196755Y-8200777D01*
X11196755Y-8200778D01*
X11190166Y-8212190D01*
X11189383Y-8215110D01*
X11186755Y-8224920D01*
X10628346Y-8224920D01*
X10628510Y-8224309D01*
X10628510Y-8211131D01*
X10625099Y-8198401D01*
X10618510Y-8186989D01*
X10609191Y-8177670D01*
X10603485Y-8174375D01*
X10597779Y-8171081D01*
X10591414Y-8169375D01*
X10585049Y-8167670D01*
X10571871Y-8167670D01*
X10559141Y-8171081D01*
X10547729Y-8177670D01*
X10547728Y-8177670D01*
X10538410Y-8186988D01*
X10538410Y-8186989D01*
X10531821Y-8198401D01*
X10528410Y-8211131D01*
X9797050Y-8211131D01*
X9797050Y-8096011D01*
X10064230Y-8096011D01*
X10064230Y-8109189D01*
X10065342Y-8113339D01*
X10067641Y-8121919D01*
X10068270Y-8123009D01*
X10074230Y-8133331D01*
X10083549Y-8142650D01*
X10094961Y-8149239D01*
X10107691Y-8152650D01*
X10107691Y-8152650D01*
X10120869Y-8152650D01*
X10120869Y-8152650D01*
X10133599Y-8149239D01*
X10145011Y-8142650D01*
X10154330Y-8133331D01*
X10160919Y-8121919D01*
X10164330Y-8109189D01*
X10164330Y-8096011D01*
X10243950Y-8096011D01*
X10243950Y-8109189D01*
X10245062Y-8113339D01*
X10247361Y-8121919D01*
X10247990Y-8123009D01*
X10253950Y-8133331D01*
X10263269Y-8142650D01*
X10274681Y-8149239D01*
X10287411Y-8152650D01*
X10287411Y-8152650D01*
X10300589Y-8152650D01*
X10300589Y-8152650D01*
X10313319Y-8149239D01*
X10324731Y-8142650D01*
X10325771Y-8141611D01*
X11984470Y-8141611D01*
X11984470Y-8154789D01*
X11987881Y-8167519D01*
X11987968Y-8167670D01*
X11994470Y-8178931D01*
X12003789Y-8188250D01*
X12015201Y-8194839D01*
X12027931Y-8198250D01*
X12027931Y-8198250D01*
X12041109Y-8198250D01*
X12041109Y-8198250D01*
X12053839Y-8194839D01*
X12065251Y-8188250D01*
X12074570Y-8178931D01*
X12081159Y-8167519D01*
X12084570Y-8154789D01*
X12084570Y-8141611D01*
X12081159Y-8128881D01*
X12074570Y-8117469D01*
X12065251Y-8108150D01*
X12056919Y-8103339D01*
X12053839Y-8101561D01*
X12047474Y-8099855D01*
X12041109Y-8098150D01*
X12027931Y-8098150D01*
X12015201Y-8101561D01*
X12003789Y-8108150D01*
X12003788Y-8108150D01*
X11994470Y-8117468D01*
X11994470Y-8117469D01*
X11987881Y-8128881D01*
X11984470Y-8141611D01*
X10325771Y-8141611D01*
X10334050Y-8133331D01*
X10340639Y-8121919D01*
X10344050Y-8109189D01*
X10344050Y-8096011D01*
X10340639Y-8083281D01*
X10340639Y-8083281D01*
X10339759Y-8081757D01*
X10339759Y-8081757D01*
X10339014Y-8080467D01*
X10336649Y-8076370D01*
X10789991Y-8076370D01*
X10789991Y-8089548D01*
X10791697Y-8095913D01*
X10793402Y-8102277D01*
X10796697Y-8107984D01*
X10799991Y-8113690D01*
X10809310Y-8123009D01*
X10819193Y-8128715D01*
X10820722Y-8129598D01*
X10820723Y-8129598D01*
X10833452Y-8133009D01*
X10833452Y-8133009D01*
X10846630Y-8133009D01*
X10846630Y-8133009D01*
X10859360Y-8129598D01*
X10870773Y-8123009D01*
X10880091Y-8113690D01*
X10886680Y-8102277D01*
X10890091Y-8089548D01*
X10890091Y-8085315D01*
X10892060Y-8078611D01*
X10897340Y-8074036D01*
X10904256Y-8073041D01*
X10910612Y-8075944D01*
X10911259Y-8076547D01*
X10917949Y-8083236D01*
X10929362Y-8089826D01*
X10942091Y-8093236D01*
X10942091Y-8093236D01*
X10955269Y-8093236D01*
X10955269Y-8093236D01*
X10967999Y-8089826D01*
X10979412Y-8083236D01*
X10988730Y-8073918D01*
X10995319Y-8062505D01*
X10998730Y-8049776D01*
X10998730Y-8036597D01*
X10995319Y-8023868D01*
X10993715Y-8021089D01*
X11144139Y-8021089D01*
X11144139Y-8034268D01*
X11144647Y-8036162D01*
X11147550Y-8046997D01*
X11149154Y-8049776D01*
X11154139Y-8058410D01*
X11163458Y-8067728D01*
X11172660Y-8073041D01*
X11174178Y-8073918D01*
X11174871Y-8074318D01*
X11187600Y-8077728D01*
X11187600Y-8077728D01*
X11200778Y-8077728D01*
X11200778Y-8077728D01*
X11213508Y-8074318D01*
X11224921Y-8067728D01*
X11234239Y-8058410D01*
X11240828Y-8046997D01*
X11244239Y-8034268D01*
X11244239Y-8021089D01*
X11240828Y-8008360D01*
X11235333Y-7998841D01*
X11466960Y-7998841D01*
X11466960Y-8012019D01*
X11470370Y-8024749D01*
X11472547Y-8028519D01*
X11476960Y-8036162D01*
X11486278Y-8045480D01*
X11497691Y-8052070D01*
X11510420Y-8055480D01*
X11510421Y-8055480D01*
X11523599Y-8055480D01*
X11523599Y-8055480D01*
X11536328Y-8052070D01*
X11547741Y-8045480D01*
X11557060Y-8036162D01*
X11563649Y-8024749D01*
X11567060Y-8012020D01*
X11567060Y-7998841D01*
X11563649Y-7986112D01*
X11557060Y-7974699D01*
X11547741Y-7965380D01*
X11542035Y-7962086D01*
X11536328Y-7958791D01*
X11533630Y-7958068D01*
X11523599Y-7955380D01*
X11510420Y-7955380D01*
X11497691Y-7958791D01*
X11486278Y-7965380D01*
X11486278Y-7965381D01*
X11476960Y-7974699D01*
X11476960Y-7974699D01*
X11470370Y-7986112D01*
X11466960Y-7998841D01*
X11235333Y-7998841D01*
X11234239Y-7996947D01*
X11224921Y-7987628D01*
X11217704Y-7983462D01*
X11213508Y-7981039D01*
X11207143Y-7979334D01*
X11200778Y-7977628D01*
X11187600Y-7977628D01*
X11174870Y-7981039D01*
X11163458Y-7987628D01*
X11163458Y-7987629D01*
X11154139Y-7996947D01*
X11154139Y-7996947D01*
X11147550Y-8008360D01*
X11146453Y-8012455D01*
X11144139Y-8021089D01*
X10993715Y-8021089D01*
X10988730Y-8012455D01*
X10979412Y-8003136D01*
X10972887Y-7999370D01*
X10967999Y-7996547D01*
X10961634Y-7994842D01*
X10955269Y-7993136D01*
X10942091Y-7993136D01*
X10929361Y-7996547D01*
X10917949Y-8003136D01*
X10911992Y-8009093D01*
X10905860Y-8012441D01*
X10898891Y-8011943D01*
X10893297Y-8007756D01*
X10891247Y-8003534D01*
X10891140Y-8003136D01*
X10887875Y-7990950D01*
X10881285Y-7979537D01*
X10871967Y-7970218D01*
X10863588Y-7965381D01*
X10860554Y-7963629D01*
X10854189Y-7961924D01*
X10847825Y-7960218D01*
X10834646Y-7960218D01*
X10821917Y-7963629D01*
X10810504Y-7970218D01*
X10810504Y-7970218D01*
X10801186Y-7979537D01*
X10801185Y-7979537D01*
X10794596Y-7990949D01*
X10792546Y-7998601D01*
X10791185Y-8003679D01*
X10791185Y-8016857D01*
X10794310Y-8028519D01*
X10794596Y-8029587D01*
X10794596Y-8029587D01*
X10800250Y-8039379D01*
X10801897Y-8046169D01*
X10800250Y-8051779D01*
X10793402Y-8063640D01*
X10793402Y-8063640D01*
X10793402Y-8063640D01*
X10793402Y-8063640D01*
X10789991Y-8076370D01*
X10336649Y-8076370D01*
X10334050Y-8071869D01*
X10324731Y-8062550D01*
X10319016Y-8059250D01*
X10313319Y-8055961D01*
X10306954Y-8054255D01*
X10300589Y-8052550D01*
X10287411Y-8052550D01*
X10274681Y-8055961D01*
X10263269Y-8062550D01*
X10263268Y-8062550D01*
X10253950Y-8071868D01*
X10253950Y-8071869D01*
X10247361Y-8083281D01*
X10245682Y-8089548D01*
X10243950Y-8096011D01*
X10164330Y-8096011D01*
X10160919Y-8083281D01*
X10160893Y-8083236D01*
X10160036Y-8081752D01*
X10154330Y-8071869D01*
X10145011Y-8062550D01*
X10139296Y-8059250D01*
X10133599Y-8055961D01*
X10127234Y-8054255D01*
X10120869Y-8052550D01*
X10107691Y-8052550D01*
X10094961Y-8055961D01*
X10083549Y-8062550D01*
X10083548Y-8062550D01*
X10074230Y-8071868D01*
X10074230Y-8071869D01*
X10067641Y-8083281D01*
X10065962Y-8089548D01*
X10064230Y-8096011D01*
X9797050Y-8096011D01*
X9797050Y-7831851D01*
X10135350Y-7831851D01*
X10135350Y-7845029D01*
X10138761Y-7857759D01*
X10142055Y-7863465D01*
X10145350Y-7869171D01*
X10145350Y-7869172D01*
X10155243Y-7879065D01*
X10155036Y-7879272D01*
X10158324Y-7883778D01*
X10158738Y-7890753D01*
X10155315Y-7896844D01*
X10155013Y-7897105D01*
X10145350Y-7906768D01*
X10145350Y-7906769D01*
X10138761Y-7918181D01*
X10135350Y-7930911D01*
X10135350Y-7944089D01*
X10138761Y-7956819D01*
X10140724Y-7960218D01*
X10145350Y-7968231D01*
X10154669Y-7977550D01*
X10166081Y-7984139D01*
X10178811Y-7987550D01*
X10178811Y-7987550D01*
X10191989Y-7987550D01*
X10191989Y-7987550D01*
X10204719Y-7984139D01*
X10216131Y-7977550D01*
X10225450Y-7968231D01*
X10232039Y-7956819D01*
X10234900Y-7946141D01*
X11593310Y-7946141D01*
X11593310Y-7959319D01*
X11596721Y-7972049D01*
X11598251Y-7974699D01*
X11603310Y-7983462D01*
X11612629Y-7992780D01*
X11619846Y-7996947D01*
X11623425Y-7999014D01*
X11628247Y-8004071D01*
X11629569Y-8010931D01*
X11626972Y-8017418D01*
X11623425Y-8020491D01*
X11618667Y-8023239D01*
X11618666Y-8023239D01*
X11609348Y-8032557D01*
X11609347Y-8032558D01*
X11602758Y-8043970D01*
X11599674Y-8055480D01*
X11599347Y-8056700D01*
X11599347Y-8069878D01*
X11600430Y-8073918D01*
X11602758Y-8082608D01*
X11604321Y-8085315D01*
X11609347Y-8094020D01*
X11618666Y-8103339D01*
X11630079Y-8109928D01*
X11642808Y-8113339D01*
X11642808Y-8113339D01*
X11655986Y-8113339D01*
X11655987Y-8113339D01*
X11668716Y-8109928D01*
X11680129Y-8103339D01*
X11689447Y-8094020D01*
X11696037Y-8082608D01*
X11699447Y-8069878D01*
X11699447Y-8056700D01*
X11696037Y-8043970D01*
X11689447Y-8032558D01*
X11680129Y-8023239D01*
X11674271Y-8019857D01*
X11669332Y-8017005D01*
X11669086Y-8016747D01*
X11668744Y-8016644D01*
X11666693Y-8014237D01*
X11664510Y-8011949D01*
X11664443Y-8011598D01*
X11664212Y-8011327D01*
X11663787Y-8008193D01*
X11663188Y-8005088D01*
X11663321Y-8004757D01*
X11663273Y-8004403D01*
X11664109Y-8002611D01*
X12507710Y-8002611D01*
X12507710Y-8015789D01*
X12507941Y-8016650D01*
X12511121Y-8028519D01*
X12513453Y-8032558D01*
X12517710Y-8039931D01*
X12527029Y-8049250D01*
X12538441Y-8055839D01*
X12551171Y-8059250D01*
X12551171Y-8059250D01*
X12564349Y-8059250D01*
X12564349Y-8059250D01*
X12577079Y-8055839D01*
X12588491Y-8049250D01*
X12597810Y-8039931D01*
X12604399Y-8028519D01*
X12607810Y-8015789D01*
X12607810Y-8002611D01*
X12604399Y-7989881D01*
X12597810Y-7978469D01*
X12588491Y-7969150D01*
X12578929Y-7963629D01*
X12577079Y-7962561D01*
X12568336Y-7960218D01*
X12564349Y-7959150D01*
X12551171Y-7959150D01*
X12538441Y-7962561D01*
X12527029Y-7969150D01*
X12527028Y-7969150D01*
X12517710Y-7978468D01*
X12517710Y-7978469D01*
X12511121Y-7989881D01*
X12508784Y-7998601D01*
X12507710Y-8002611D01*
X11664109Y-8002611D01*
X11664610Y-8001538D01*
X11665785Y-7998601D01*
X11666120Y-7998299D01*
X11666226Y-7998071D01*
X11667822Y-7996765D01*
X11668912Y-7995782D01*
X11669117Y-7995652D01*
X11674091Y-7992780D01*
X11683410Y-7983462D01*
X11689999Y-7972049D01*
X11693410Y-7959320D01*
X11693410Y-7946141D01*
X11689999Y-7933412D01*
X11683410Y-7921999D01*
X11674091Y-7912680D01*
X11668385Y-7909386D01*
X11662679Y-7906091D01*
X11656314Y-7904386D01*
X11649949Y-7902680D01*
X11636771Y-7902680D01*
X11624041Y-7906091D01*
X11612629Y-7912680D01*
X11612628Y-7912681D01*
X11603310Y-7921999D01*
X11603310Y-7921999D01*
X11596721Y-7933412D01*
X11593310Y-7946141D01*
X10234900Y-7946141D01*
X10235450Y-7944089D01*
X10235450Y-7930911D01*
X10232039Y-7918181D01*
X10225450Y-7906769D01*
X10216131Y-7897450D01*
X10215557Y-7896875D01*
X10215765Y-7896667D01*
X10212477Y-7892165D01*
X10212062Y-7885190D01*
X10215483Y-7879098D01*
X10215785Y-7878836D01*
X10216131Y-7878490D01*
X10216131Y-7878490D01*
X10225450Y-7869171D01*
X10232039Y-7857759D01*
X10235450Y-7845029D01*
X10235450Y-7831851D01*
X10232039Y-7819121D01*
X10231992Y-7819039D01*
X10231156Y-7817592D01*
X10225450Y-7807709D01*
X10216131Y-7798390D01*
X10210425Y-7795095D01*
X10204719Y-7791801D01*
X10198354Y-7790095D01*
X10191989Y-7788390D01*
X10178811Y-7788390D01*
X10166081Y-7791801D01*
X10154669Y-7798390D01*
X10154668Y-7798390D01*
X10145350Y-7807708D01*
X10145350Y-7807709D01*
X10138761Y-7819121D01*
X10135350Y-7831851D01*
X9797050Y-7831851D01*
X9797050Y-7750571D01*
X9967710Y-7750571D01*
X9967710Y-7763749D01*
X9971121Y-7776479D01*
X9972570Y-7778989D01*
X9977710Y-7787891D01*
X9987029Y-7797210D01*
X9998441Y-7803799D01*
X10011171Y-7807210D01*
X10011171Y-7807210D01*
X10024349Y-7807210D01*
X10024349Y-7807210D01*
X10037079Y-7803799D01*
X10048491Y-7797210D01*
X10057810Y-7787891D01*
X10064399Y-7776479D01*
X10067810Y-7763749D01*
X10067810Y-7750571D01*
X10064399Y-7737841D01*
X10062950Y-7735331D01*
X11730690Y-7735331D01*
X11730690Y-7748509D01*
X11731714Y-7752332D01*
X11734101Y-7761239D01*
X11734338Y-7761650D01*
X11740690Y-7772651D01*
X11750009Y-7781970D01*
X11761421Y-7788559D01*
X11774151Y-7791970D01*
X11774151Y-7791970D01*
X11787329Y-7791970D01*
X11787329Y-7791970D01*
X11800059Y-7788559D01*
X11811471Y-7781970D01*
X11820790Y-7772651D01*
X11820790Y-7772651D01*
X11821285Y-7772006D01*
X11821447Y-7772131D01*
X11825709Y-7768067D01*
X11832570Y-7766744D01*
X11836606Y-7768034D01*
X11836650Y-7767928D01*
X11837401Y-7768239D01*
X11837401Y-7768239D01*
X11850131Y-7771650D01*
X11850131Y-7771650D01*
X11863309Y-7771650D01*
X11863309Y-7771650D01*
X11876039Y-7768239D01*
X11880245Y-7765811D01*
X12548350Y-7765811D01*
X12548350Y-7778989D01*
X12551761Y-7791719D01*
X12551906Y-7791970D01*
X12558350Y-7803131D01*
X12567669Y-7812450D01*
X12579081Y-7819039D01*
X12591811Y-7822450D01*
X12591811Y-7822450D01*
X12604989Y-7822450D01*
X12604989Y-7822450D01*
X12617719Y-7819039D01*
X12629131Y-7812450D01*
X12638450Y-7803131D01*
X12645039Y-7791719D01*
X12648450Y-7778989D01*
X12648450Y-7765811D01*
X12645039Y-7753081D01*
X12638450Y-7741669D01*
X12629131Y-7732350D01*
X12621925Y-7728189D01*
X12617719Y-7725761D01*
X12605927Y-7722601D01*
X12604989Y-7722350D01*
X12591811Y-7722350D01*
X12579081Y-7725761D01*
X12567669Y-7732350D01*
X12567668Y-7732350D01*
X12558350Y-7741668D01*
X12558350Y-7741669D01*
X12551761Y-7753081D01*
X12548350Y-7765811D01*
X11880245Y-7765811D01*
X11887451Y-7761650D01*
X11896770Y-7752331D01*
X11903359Y-7740919D01*
X11906770Y-7728189D01*
X11906770Y-7715011D01*
X11903359Y-7702281D01*
X11896770Y-7690869D01*
X11887451Y-7681550D01*
X11881745Y-7678255D01*
X11876039Y-7674961D01*
X11869674Y-7673255D01*
X11863309Y-7671550D01*
X11850131Y-7671550D01*
X11837401Y-7674961D01*
X11825989Y-7681550D01*
X11825988Y-7681550D01*
X11816670Y-7690868D01*
X11816175Y-7691513D01*
X11816013Y-7691389D01*
X11811749Y-7695454D01*
X11804888Y-7696776D01*
X11800854Y-7695486D01*
X11800810Y-7695592D01*
X11800059Y-7695281D01*
X11800059Y-7695281D01*
X11800059Y-7695281D01*
X11787329Y-7691870D01*
X11774151Y-7691870D01*
X11761421Y-7695281D01*
X11750009Y-7701870D01*
X11750008Y-7701870D01*
X11740690Y-7711188D01*
X11740690Y-7711189D01*
X11734101Y-7722601D01*
X11731489Y-7732350D01*
X11730690Y-7735331D01*
X10062950Y-7735331D01*
X10057810Y-7726429D01*
X10048491Y-7717110D01*
X10038235Y-7711189D01*
X10037079Y-7710521D01*
X10030714Y-7708815D01*
X10024349Y-7707110D01*
X10011171Y-7707110D01*
X9998441Y-7710521D01*
X9987029Y-7717110D01*
X9987028Y-7717110D01*
X9977710Y-7726428D01*
X9977710Y-7726429D01*
X9971121Y-7737841D01*
X9967710Y-7750571D01*
X9797050Y-7750571D01*
X9797050Y-7605561D01*
X11057600Y-7605561D01*
X11057600Y-7618739D01*
X11061011Y-7631469D01*
X11064305Y-7637175D01*
X11067600Y-7642881D01*
X11076919Y-7652200D01*
X11088331Y-7658789D01*
X11101061Y-7662200D01*
X11101061Y-7662200D01*
X11114239Y-7662200D01*
X11114239Y-7662200D01*
X11126969Y-7658789D01*
X11138381Y-7652200D01*
X11147700Y-7642881D01*
X11154289Y-7631469D01*
X11157700Y-7618739D01*
X11157700Y-7605561D01*
X11154289Y-7592831D01*
X11147700Y-7581419D01*
X11138381Y-7572100D01*
X11132675Y-7568805D01*
X11126969Y-7565511D01*
X11120604Y-7563805D01*
X11114239Y-7562100D01*
X11101061Y-7562100D01*
X11088331Y-7565511D01*
X11076919Y-7572100D01*
X11076918Y-7572100D01*
X11067600Y-7581418D01*
X11067600Y-7581419D01*
X11061011Y-7592831D01*
X11057600Y-7605561D01*
X9797050Y-7605561D01*
X9797050Y-7491491D01*
X10607790Y-7491491D01*
X10607790Y-7504669D01*
X10611201Y-7517399D01*
X10613873Y-7522027D01*
X10617790Y-7528811D01*
X10627109Y-7538130D01*
X10638521Y-7544719D01*
X10651251Y-7548130D01*
X10651252Y-7548130D01*
X10652057Y-7548236D01*
X10652017Y-7548542D01*
X10657318Y-7550098D01*
X10661894Y-7555379D01*
X10662592Y-7557320D01*
X10664998Y-7566299D01*
X10671587Y-7577711D01*
X10680905Y-7587030D01*
X10692318Y-7593619D01*
X10705048Y-7597030D01*
X10705048Y-7597030D01*
X10718226Y-7597030D01*
X10718226Y-7597030D01*
X10730955Y-7593619D01*
X10742368Y-7587030D01*
X10751687Y-7577711D01*
X10758276Y-7566299D01*
X10761687Y-7553569D01*
X10761687Y-7544482D01*
X10763655Y-7537778D01*
X10768936Y-7533203D01*
X10775852Y-7532208D01*
X10780287Y-7533743D01*
X10787546Y-7537935D01*
X10800275Y-7541345D01*
X10800276Y-7541345D01*
X10803670Y-7541345D01*
X10810374Y-7543314D01*
X10814949Y-7548594D01*
X10815859Y-7552777D01*
X10815964Y-7552763D01*
X10816070Y-7553569D01*
X10819481Y-7566299D01*
X10822775Y-7572005D01*
X10826070Y-7577711D01*
X10835389Y-7587030D01*
X10846801Y-7593619D01*
X10859531Y-7597030D01*
X10859531Y-7597030D01*
X10872709Y-7597030D01*
X10872709Y-7597030D01*
X10885439Y-7593619D01*
X10896851Y-7587030D01*
X10906170Y-7577711D01*
X10912759Y-7566299D01*
X10916170Y-7553569D01*
X10916170Y-7540391D01*
X10943070Y-7540391D01*
X10943070Y-7553569D01*
X10946481Y-7566299D01*
X10949775Y-7572005D01*
X10953070Y-7577711D01*
X10962389Y-7587030D01*
X10973801Y-7593619D01*
X10986531Y-7597030D01*
X10986531Y-7597030D01*
X10999709Y-7597030D01*
X10999709Y-7597030D01*
X11012439Y-7593619D01*
X11023851Y-7587030D01*
X11033170Y-7577711D01*
X11039759Y-7566299D01*
X11043170Y-7553569D01*
X11043170Y-7540391D01*
X11039759Y-7527661D01*
X11033170Y-7516249D01*
X11023851Y-7506930D01*
X11018145Y-7503635D01*
X11012439Y-7500341D01*
X11003272Y-7497885D01*
X10999709Y-7496930D01*
X10986531Y-7496930D01*
X10973801Y-7500341D01*
X10962389Y-7506930D01*
X10962388Y-7506930D01*
X10953070Y-7516248D01*
X10953070Y-7516249D01*
X10946481Y-7527661D01*
X10943070Y-7540391D01*
X10916170Y-7540391D01*
X10912759Y-7527661D01*
X10906170Y-7516249D01*
X10896851Y-7506930D01*
X10891145Y-7503635D01*
X10885439Y-7500341D01*
X10876272Y-7497885D01*
X10872709Y-7496930D01*
X10869315Y-7496930D01*
X10862611Y-7494961D01*
X10858035Y-7489681D01*
X10857125Y-7485498D01*
X10857021Y-7485512D01*
X10856915Y-7484707D01*
X10856915Y-7484706D01*
X10853504Y-7471977D01*
X10846915Y-7460564D01*
X10837596Y-7451245D01*
X10831890Y-7447951D01*
X10826183Y-7444656D01*
X10819819Y-7442951D01*
X10813454Y-7441245D01*
X10800275Y-7441245D01*
X10787546Y-7444656D01*
X10776133Y-7451245D01*
X10776133Y-7451246D01*
X10766815Y-7460564D01*
X10766815Y-7460564D01*
X10760225Y-7471977D01*
X10756815Y-7484706D01*
X10756815Y-7493793D01*
X10754846Y-7500497D01*
X10749566Y-7505072D01*
X10742650Y-7506067D01*
X10738215Y-7504532D01*
X10730956Y-7500341D01*
X10730955Y-7500341D01*
X10718226Y-7496930D01*
X10718226Y-7496930D01*
X10717420Y-7496824D01*
X10717460Y-7496518D01*
X10712158Y-7494961D01*
X10707583Y-7489681D01*
X10706885Y-7487739D01*
X10704479Y-7478761D01*
X10697890Y-7467349D01*
X10688571Y-7458030D01*
X10682865Y-7454735D01*
X10677159Y-7451441D01*
X10670794Y-7449735D01*
X10664429Y-7448030D01*
X10651251Y-7448030D01*
X10638521Y-7451441D01*
X10627109Y-7458030D01*
X10627108Y-7458030D01*
X10617790Y-7467348D01*
X10617790Y-7467349D01*
X10611201Y-7478761D01*
X10607790Y-7491491D01*
X9797050Y-7491491D01*
X9797050Y-7420371D01*
X11923510Y-7420371D01*
X11923510Y-7433549D01*
X11926921Y-7446279D01*
X11929788Y-7451245D01*
X11933510Y-7457691D01*
X11942829Y-7467010D01*
X11954241Y-7473599D01*
X11966971Y-7477010D01*
X11966971Y-7477010D01*
X11980149Y-7477010D01*
X11980149Y-7477010D01*
X11992879Y-7473599D01*
X12004291Y-7467010D01*
X12013610Y-7457691D01*
X12020199Y-7446279D01*
X12023610Y-7433549D01*
X12023610Y-7420371D01*
X12020199Y-7407641D01*
X12013610Y-7396229D01*
X12004291Y-7386910D01*
X11998585Y-7383615D01*
X11992879Y-7380321D01*
X11984023Y-7377948D01*
X11980149Y-7376910D01*
X11966971Y-7376910D01*
X11954241Y-7380321D01*
X11942829Y-7386910D01*
X11942828Y-7386910D01*
X11933510Y-7396228D01*
X11933510Y-7396229D01*
X11926921Y-7407641D01*
X11923510Y-7420371D01*
X9797050Y-7420371D01*
X9797050Y-7201651D01*
X9908000Y-7201651D01*
X9908000Y-7264800D01*
X9989699Y-7264800D01*
X9986408Y-7270501D01*
X9983000Y-7283217D01*
X9983000Y-7296383D01*
X9986408Y-7309099D01*
X9989699Y-7314800D01*
X9908000Y-7314800D01*
X9908000Y-7377948D01*
X9909484Y-7387315D01*
X9909484Y-7387315D01*
X9915236Y-7398604D01*
X9915236Y-7398605D01*
X9924195Y-7407564D01*
X9924195Y-7407564D01*
X9935486Y-7413317D01*
X9944851Y-7414800D01*
X10008000Y-7414800D01*
X10008000Y-7414800D01*
X10008000Y-7333101D01*
X10013701Y-7336392D01*
X10026417Y-7339800D01*
X10039583Y-7339800D01*
X10052299Y-7336392D01*
X10058000Y-7333101D01*
X10058000Y-7414800D01*
X10121148Y-7414800D01*
X10130515Y-7413316D01*
X10139949Y-7408510D01*
X10139949Y-7408509D01*
X10141804Y-7407564D01*
X10141805Y-7407564D01*
X10150764Y-7398605D01*
X10150764Y-7398605D01*
X10156517Y-7387314D01*
X10158000Y-7377949D01*
X10158000Y-7314800D01*
X10076301Y-7314800D01*
X10079593Y-7309099D01*
X10079723Y-7308611D01*
X12190400Y-7308611D01*
X12190400Y-7321789D01*
X12193811Y-7334519D01*
X12194893Y-7336392D01*
X12200400Y-7345931D01*
X12209719Y-7355250D01*
X12221131Y-7361839D01*
X12233861Y-7365250D01*
X12233861Y-7365250D01*
X12247039Y-7365250D01*
X12247039Y-7365250D01*
X12259769Y-7361839D01*
X12271181Y-7355250D01*
X12280500Y-7345931D01*
X12287089Y-7334519D01*
X12290500Y-7321789D01*
X12290500Y-7308611D01*
X12287089Y-7295881D01*
X12280500Y-7284469D01*
X12271181Y-7275150D01*
X12260593Y-7269037D01*
X12260593Y-7269037D01*
X12260593Y-7269037D01*
X12259769Y-7268561D01*
X12251282Y-7266287D01*
X12247039Y-7265150D01*
X12233861Y-7265150D01*
X12221131Y-7268561D01*
X12209719Y-7275150D01*
X12209718Y-7275150D01*
X12200400Y-7284468D01*
X12200400Y-7284469D01*
X12193811Y-7295881D01*
X12190400Y-7308611D01*
X10079723Y-7308611D01*
X10083000Y-7296383D01*
X10083000Y-7283217D01*
X10079593Y-7270501D01*
X10076301Y-7264800D01*
X10158000Y-7264800D01*
X10158000Y-7259111D01*
X12386308Y-7259111D01*
X12386308Y-7272289D01*
X12387075Y-7275150D01*
X12389719Y-7285019D01*
X12393014Y-7290725D01*
X12396308Y-7296431D01*
X12405627Y-7305750D01*
X12417040Y-7312339D01*
X12429769Y-7315750D01*
X12429769Y-7315750D01*
X12442947Y-7315750D01*
X12442947Y-7315750D01*
X12455677Y-7312339D01*
X12467090Y-7305750D01*
X12476408Y-7296431D01*
X12482997Y-7285019D01*
X12486408Y-7272289D01*
X12486408Y-7259111D01*
X12482997Y-7246381D01*
X12476408Y-7234969D01*
X12467090Y-7225650D01*
X12461383Y-7222355D01*
X12455677Y-7219061D01*
X12449312Y-7217355D01*
X12442947Y-7215650D01*
X12429769Y-7215650D01*
X12417039Y-7219061D01*
X12405627Y-7225650D01*
X12405627Y-7225650D01*
X12396308Y-7234968D01*
X12396308Y-7234969D01*
X12389719Y-7246381D01*
X12386311Y-7259099D01*
X12386308Y-7259111D01*
X10158000Y-7259111D01*
X10158000Y-7201652D01*
X10156516Y-7192285D01*
X10156516Y-7192284D01*
X10150764Y-7180996D01*
X10150764Y-7180995D01*
X10141805Y-7172036D01*
X10141805Y-7172036D01*
X10130514Y-7166283D01*
X10121149Y-7164800D01*
X10048841Y-7164800D01*
X10042137Y-7162831D01*
X10037561Y-7157551D01*
X10036567Y-7150635D01*
X10039470Y-7144280D01*
X10045347Y-7140502D01*
X10046422Y-7140238D01*
X10063642Y-7136813D01*
X10082760Y-7128894D01*
X10099966Y-7117398D01*
X10101792Y-7115571D01*
X10597630Y-7115571D01*
X10597630Y-7128749D01*
X10598211Y-7130919D01*
X10601041Y-7141479D01*
X10602194Y-7143477D01*
X10607630Y-7152891D01*
X10616949Y-7162210D01*
X10628361Y-7168799D01*
X10641091Y-7172210D01*
X10641091Y-7172210D01*
X10654269Y-7172210D01*
X10654269Y-7172210D01*
X10666999Y-7168799D01*
X10678411Y-7162210D01*
X10687730Y-7152891D01*
X10694319Y-7141479D01*
X10697730Y-7128749D01*
X10697730Y-7115571D01*
X10694901Y-7105011D01*
X11404950Y-7105011D01*
X11404950Y-7118189D01*
X11408361Y-7130919D01*
X11411655Y-7136625D01*
X11414950Y-7142331D01*
X11424269Y-7151650D01*
X11435681Y-7158239D01*
X11448411Y-7161650D01*
X11448411Y-7161650D01*
X11461589Y-7161650D01*
X11461589Y-7161650D01*
X11474319Y-7158239D01*
X11485731Y-7151650D01*
X11495050Y-7142331D01*
X11501639Y-7130919D01*
X11505050Y-7118189D01*
X11505050Y-7105011D01*
X11501639Y-7092281D01*
X11495050Y-7080869D01*
X11485731Y-7071550D01*
X11482788Y-7069851D01*
X12258790Y-7069851D01*
X12258790Y-7083029D01*
X12262201Y-7095759D01*
X12265495Y-7101465D01*
X12268790Y-7107171D01*
X12278109Y-7116490D01*
X12289521Y-7123079D01*
X12302251Y-7126490D01*
X12302251Y-7126490D01*
X12315429Y-7126490D01*
X12315429Y-7126490D01*
X12328159Y-7123079D01*
X12339571Y-7116490D01*
X12348890Y-7107171D01*
X12355479Y-7095759D01*
X12358890Y-7083029D01*
X12358890Y-7069851D01*
X12355479Y-7057121D01*
X12348890Y-7045709D01*
X12339571Y-7036390D01*
X12333865Y-7033095D01*
X12328159Y-7029801D01*
X12321794Y-7028095D01*
X12315429Y-7026390D01*
X12302251Y-7026390D01*
X12289521Y-7029801D01*
X12278109Y-7036390D01*
X12278108Y-7036390D01*
X12268790Y-7045708D01*
X12268790Y-7045709D01*
X12262201Y-7057121D01*
X12258790Y-7069851D01*
X11482788Y-7069851D01*
X11480025Y-7068255D01*
X11474319Y-7064961D01*
X11467954Y-7063255D01*
X11461589Y-7061550D01*
X11448411Y-7061550D01*
X11435681Y-7064961D01*
X11424269Y-7071550D01*
X11424268Y-7071550D01*
X11414950Y-7080868D01*
X11414950Y-7080869D01*
X11408361Y-7092281D01*
X11404950Y-7105011D01*
X10694901Y-7105011D01*
X10694319Y-7102841D01*
X10687730Y-7091429D01*
X10678411Y-7082110D01*
X10672705Y-7078815D01*
X10666999Y-7075521D01*
X10660634Y-7073815D01*
X10654269Y-7072110D01*
X10641091Y-7072110D01*
X10628361Y-7075521D01*
X10616949Y-7082110D01*
X10616948Y-7082110D01*
X10607630Y-7091428D01*
X10607630Y-7091429D01*
X10601041Y-7102841D01*
X10597630Y-7115571D01*
X10101792Y-7115571D01*
X10111373Y-7105990D01*
X10114597Y-7102766D01*
X10114598Y-7102766D01*
X10114598Y-7102765D01*
X10126094Y-7085560D01*
X10134013Y-7066442D01*
X10138050Y-7046146D01*
X10138050Y-7025453D01*
X10134013Y-7005158D01*
X10126094Y-6986040D01*
X10114598Y-6968834D01*
X10114598Y-6968834D01*
X10099966Y-6954202D01*
X10091363Y-6948454D01*
X10082760Y-6942706D01*
X10063642Y-6934787D01*
X10063641Y-6934787D01*
X10043347Y-6930750D01*
X10043347Y-6930750D01*
X10022654Y-6930750D01*
X10022653Y-6930750D01*
X10002359Y-6934787D01*
X10002358Y-6934787D01*
X9983240Y-6942706D01*
X9966034Y-6954202D01*
X9951402Y-6968834D01*
X9939906Y-6986040D01*
X9931987Y-7005158D01*
X9931987Y-7005159D01*
X9927950Y-7025453D01*
X9927950Y-7046147D01*
X9931987Y-7066441D01*
X9931987Y-7066442D01*
X9939906Y-7085560D01*
X9951402Y-7102766D01*
X9966034Y-7117397D01*
X9966035Y-7117398D01*
X9983240Y-7128894D01*
X10002358Y-7136813D01*
X10015736Y-7139474D01*
X10019578Y-7140238D01*
X10025769Y-7143477D01*
X10029227Y-7149548D01*
X10028853Y-7156525D01*
X10024766Y-7162192D01*
X10018264Y-7164751D01*
X10017159Y-7164800D01*
X9944852Y-7164800D01*
X9935485Y-7166283D01*
X9935484Y-7166284D01*
X9924196Y-7172036D01*
X9924195Y-7172036D01*
X9915236Y-7180995D01*
X9915236Y-7180995D01*
X9909483Y-7192285D01*
X9908000Y-7201651D01*
X9797050Y-7201651D01*
X9797050Y-6771453D01*
X9927950Y-6771453D01*
X9927950Y-6792147D01*
X9931987Y-6812441D01*
X9931987Y-6812442D01*
X9939906Y-6831560D01*
X9951402Y-6848766D01*
X9966034Y-6863397D01*
X9966035Y-6863398D01*
X9983240Y-6874894D01*
X10002358Y-6882813D01*
X10022653Y-6886850D01*
X10022653Y-6886850D01*
X10022654Y-6886850D01*
X10043347Y-6886850D01*
X10043347Y-6886850D01*
X10063642Y-6882813D01*
X10082760Y-6874894D01*
X10099966Y-6863398D01*
X10114598Y-6848765D01*
X10126094Y-6831560D01*
X10134013Y-6812442D01*
X10138050Y-6792146D01*
X10138050Y-6771453D01*
X10134013Y-6751158D01*
X10127142Y-6734571D01*
X12009870Y-6734571D01*
X12009870Y-6747749D01*
X12010783Y-6751158D01*
X12013281Y-6760479D01*
X12016575Y-6766185D01*
X12019870Y-6771891D01*
X12029189Y-6781210D01*
X12040601Y-6787799D01*
X12053331Y-6791210D01*
X12053331Y-6791210D01*
X12066509Y-6791210D01*
X12066509Y-6791210D01*
X12079239Y-6787799D01*
X12090651Y-6781210D01*
X12099970Y-6771891D01*
X12106559Y-6760479D01*
X12109970Y-6747749D01*
X12109970Y-6734571D01*
X12106559Y-6721841D01*
X12099970Y-6710429D01*
X12090651Y-6701110D01*
X12084945Y-6697815D01*
X12079239Y-6694521D01*
X12072874Y-6692815D01*
X12066509Y-6691110D01*
X12053331Y-6691110D01*
X12040601Y-6694521D01*
X12029189Y-6701110D01*
X12029188Y-6701110D01*
X12019870Y-6710428D01*
X12019870Y-6710429D01*
X12013281Y-6721841D01*
X12010548Y-6732040D01*
X12009870Y-6734571D01*
X10127142Y-6734571D01*
X10126094Y-6732040D01*
X10114598Y-6714834D01*
X10114598Y-6714834D01*
X10099966Y-6700202D01*
X10086358Y-6691110D01*
X10082760Y-6688706D01*
X10063642Y-6680787D01*
X10063641Y-6680787D01*
X10043347Y-6676750D01*
X10043347Y-6676750D01*
X10022654Y-6676750D01*
X10022653Y-6676750D01*
X10002359Y-6680787D01*
X10002358Y-6680787D01*
X9983240Y-6688706D01*
X9966034Y-6700202D01*
X9951402Y-6714834D01*
X9939906Y-6732040D01*
X9931987Y-6751158D01*
X9931987Y-6751159D01*
X9927950Y-6771453D01*
X9797050Y-6771453D01*
X9797050Y-6517453D01*
X9927950Y-6517453D01*
X9927950Y-6538147D01*
X9931987Y-6558441D01*
X9931987Y-6558442D01*
X9939906Y-6577560D01*
X9951402Y-6594766D01*
X9966034Y-6609397D01*
X9966035Y-6609398D01*
X9983240Y-6620894D01*
X10002358Y-6628813D01*
X10022653Y-6632850D01*
X10022653Y-6632850D01*
X10022654Y-6632850D01*
X10043347Y-6632850D01*
X10043347Y-6632850D01*
X10063642Y-6628813D01*
X10082760Y-6620894D01*
X10099966Y-6609398D01*
X10114598Y-6594765D01*
X10126094Y-6577560D01*
X10134013Y-6558442D01*
X10134398Y-6556507D01*
X10135103Y-6552961D01*
X12402300Y-6552961D01*
X12402300Y-6566139D01*
X12404005Y-6572504D01*
X12405711Y-6578869D01*
X12409005Y-6584575D01*
X12412300Y-6590281D01*
X12421619Y-6599600D01*
X12433031Y-6606189D01*
X12445761Y-6609600D01*
X12445761Y-6609600D01*
X12458939Y-6609600D01*
X12458939Y-6609600D01*
X12471669Y-6606189D01*
X12483081Y-6599600D01*
X12492400Y-6590281D01*
X12498989Y-6578869D01*
X12502400Y-6566139D01*
X12502400Y-6552961D01*
X12498989Y-6540231D01*
X12492400Y-6528819D01*
X12483081Y-6519500D01*
X12477375Y-6516205D01*
X12471669Y-6512911D01*
X12464727Y-6511051D01*
X12604230Y-6511051D01*
X12604230Y-6524229D01*
X12607641Y-6536959D01*
X12610935Y-6542665D01*
X12614230Y-6548371D01*
X12623549Y-6557690D01*
X12634961Y-6564279D01*
X12647691Y-6567690D01*
X12647691Y-6567690D01*
X12660869Y-6567690D01*
X12660869Y-6567690D01*
X12673599Y-6564279D01*
X12685011Y-6557690D01*
X12694330Y-6548371D01*
X12700919Y-6536959D01*
X12704330Y-6524229D01*
X12704330Y-6511051D01*
X12700919Y-6498321D01*
X12694330Y-6486909D01*
X12685011Y-6477590D01*
X12679305Y-6474295D01*
X12673599Y-6471001D01*
X12667234Y-6469295D01*
X12660869Y-6467590D01*
X12647691Y-6467590D01*
X12634961Y-6471001D01*
X12623549Y-6477590D01*
X12623548Y-6477590D01*
X12614230Y-6486908D01*
X12614230Y-6486909D01*
X12607641Y-6498321D01*
X12604230Y-6511051D01*
X12464727Y-6511051D01*
X12458939Y-6509500D01*
X12445761Y-6509500D01*
X12433031Y-6512911D01*
X12421619Y-6519500D01*
X12421618Y-6519500D01*
X12412300Y-6528818D01*
X12412300Y-6528819D01*
X12405711Y-6540231D01*
X12403166Y-6549729D01*
X12402300Y-6552961D01*
X10135103Y-6552961D01*
X10135746Y-6549729D01*
X10135746Y-6549729D01*
X10138050Y-6538147D01*
X10138050Y-6538147D01*
X10138050Y-6517453D01*
X10138050Y-6517453D01*
X10136776Y-6511051D01*
X10134013Y-6497158D01*
X10126094Y-6478040D01*
X10114598Y-6460834D01*
X10114598Y-6460834D01*
X10099966Y-6446202D01*
X10091363Y-6440454D01*
X10082760Y-6434706D01*
X10063642Y-6426787D01*
X10063641Y-6426787D01*
X10043347Y-6422750D01*
X10043347Y-6422750D01*
X10022654Y-6422750D01*
X10022653Y-6422750D01*
X10002359Y-6426787D01*
X10002358Y-6426787D01*
X9983240Y-6434706D01*
X9966034Y-6446202D01*
X9951402Y-6460834D01*
X9939906Y-6478040D01*
X9931987Y-6497158D01*
X9931987Y-6497159D01*
X9927950Y-6517453D01*
X9797050Y-6517453D01*
X9797050Y-6263453D01*
X9927950Y-6263453D01*
X9927950Y-6284147D01*
X9931987Y-6304441D01*
X9931987Y-6304442D01*
X9937595Y-6317981D01*
X9939906Y-6323560D01*
X9945654Y-6332163D01*
X9951402Y-6340766D01*
X9966034Y-6355397D01*
X9966035Y-6355398D01*
X9983240Y-6366894D01*
X10002358Y-6374813D01*
X10022653Y-6378850D01*
X10022653Y-6378850D01*
X10022654Y-6378850D01*
X10043347Y-6378850D01*
X10043347Y-6378850D01*
X10063642Y-6374813D01*
X10082760Y-6366894D01*
X10099966Y-6355398D01*
X10114598Y-6340765D01*
X10121316Y-6330711D01*
X12395950Y-6330711D01*
X12395950Y-6343889D01*
X12399361Y-6356619D01*
X12402655Y-6362325D01*
X12405950Y-6368031D01*
X12415269Y-6377350D01*
X12426681Y-6383939D01*
X12439411Y-6387350D01*
X12439411Y-6387350D01*
X12452589Y-6387350D01*
X12452589Y-6387350D01*
X12465319Y-6383939D01*
X12476731Y-6377350D01*
X12486050Y-6368031D01*
X12492639Y-6356619D01*
X12496050Y-6343889D01*
X12496050Y-6330711D01*
X12492639Y-6317981D01*
X12486050Y-6306569D01*
X12476731Y-6297250D01*
X12471025Y-6293955D01*
X12465319Y-6290661D01*
X12458954Y-6288955D01*
X12452589Y-6287250D01*
X12439411Y-6287250D01*
X12426681Y-6290661D01*
X12415269Y-6297250D01*
X12415268Y-6297250D01*
X12405950Y-6306568D01*
X12405950Y-6306569D01*
X12399361Y-6317981D01*
X12395950Y-6330711D01*
X10121316Y-6330711D01*
X10126094Y-6323560D01*
X10134013Y-6304442D01*
X10138050Y-6284146D01*
X10138050Y-6263453D01*
X10134013Y-6243158D01*
X10126094Y-6224040D01*
X10114598Y-6206834D01*
X10114598Y-6206834D01*
X10099966Y-6192202D01*
X10082760Y-6180706D01*
X10063642Y-6172787D01*
X10063641Y-6172787D01*
X10054210Y-6170911D01*
X10973550Y-6170911D01*
X10973550Y-6184089D01*
X10976961Y-6196819D01*
X10980255Y-6202525D01*
X10983550Y-6208231D01*
X10992869Y-6217550D01*
X11004281Y-6224139D01*
X11017011Y-6227550D01*
X11017011Y-6227550D01*
X11030189Y-6227550D01*
X11030189Y-6227550D01*
X11042919Y-6224139D01*
X11054331Y-6217550D01*
X11063650Y-6208231D01*
X11070239Y-6196819D01*
X11073650Y-6184089D01*
X11073650Y-6170911D01*
X11070239Y-6158181D01*
X11063650Y-6146769D01*
X11054331Y-6137450D01*
X11048625Y-6134155D01*
X11042919Y-6130861D01*
X11036554Y-6129155D01*
X11030189Y-6127450D01*
X11017011Y-6127450D01*
X11004281Y-6130861D01*
X10992869Y-6137450D01*
X10992868Y-6137450D01*
X10983550Y-6146768D01*
X10983550Y-6146769D01*
X10976961Y-6158181D01*
X10973550Y-6170911D01*
X10054210Y-6170911D01*
X10043347Y-6168750D01*
X10043347Y-6168750D01*
X10022654Y-6168750D01*
X10022653Y-6168750D01*
X10002359Y-6172787D01*
X10002358Y-6172787D01*
X9983240Y-6180706D01*
X9966034Y-6192202D01*
X9951402Y-6206834D01*
X9939906Y-6224040D01*
X9931987Y-6243158D01*
X9931987Y-6243159D01*
X9927950Y-6263453D01*
X9797050Y-6263453D01*
X9797050Y-5520375D01*
X9797073Y-5519626D01*
X9798754Y-5491826D01*
X9798935Y-5490340D01*
X9800419Y-5482239D01*
X9803887Y-5463313D01*
X9804245Y-5461861D01*
X9812420Y-5435628D01*
X9812950Y-5434230D01*
X9815299Y-5429011D01*
X11391750Y-5429011D01*
X11391750Y-5442189D01*
X11395161Y-5454919D01*
X11398455Y-5460625D01*
X11401750Y-5466331D01*
X11411069Y-5475650D01*
X11422481Y-5482239D01*
X11435211Y-5485650D01*
X11435211Y-5485650D01*
X11448389Y-5485650D01*
X11448389Y-5485650D01*
X11461119Y-5482239D01*
X11472531Y-5475650D01*
X11481850Y-5466331D01*
X11488439Y-5454919D01*
X11491850Y-5442189D01*
X11491850Y-5429011D01*
X11856150Y-5429011D01*
X11856150Y-5442189D01*
X11859561Y-5454919D01*
X11862855Y-5460625D01*
X11866150Y-5466331D01*
X11875469Y-5475650D01*
X11886881Y-5482239D01*
X11899611Y-5485650D01*
X11899611Y-5485650D01*
X11912789Y-5485650D01*
X11912789Y-5485650D01*
X11925519Y-5482239D01*
X11936931Y-5475650D01*
X11946250Y-5466331D01*
X11952839Y-5454919D01*
X11956250Y-5442189D01*
X11956250Y-5429011D01*
X11952839Y-5416281D01*
X11946250Y-5404869D01*
X11936931Y-5395550D01*
X11931225Y-5392255D01*
X11925519Y-5388961D01*
X11919154Y-5387255D01*
X11912789Y-5385550D01*
X11899611Y-5385550D01*
X11886881Y-5388961D01*
X11875469Y-5395550D01*
X11875468Y-5395550D01*
X11866150Y-5404868D01*
X11866150Y-5404869D01*
X11859561Y-5416281D01*
X11856150Y-5429011D01*
X11491850Y-5429011D01*
X11488439Y-5416281D01*
X11481850Y-5404869D01*
X11472531Y-5395550D01*
X11466825Y-5392255D01*
X11461119Y-5388961D01*
X11454754Y-5387255D01*
X11448389Y-5385550D01*
X11435211Y-5385550D01*
X11422481Y-5388961D01*
X11411069Y-5395550D01*
X11411068Y-5395550D01*
X11401750Y-5404868D01*
X11401750Y-5404869D01*
X11395161Y-5416281D01*
X11391750Y-5429011D01*
X9815299Y-5429011D01*
X9824227Y-5409173D01*
X9824922Y-5407848D01*
X9839138Y-5384333D01*
X9839987Y-5383103D01*
X9856933Y-5361473D01*
X9857925Y-5360354D01*
X9877354Y-5340925D01*
X9878473Y-5339933D01*
X9900103Y-5322987D01*
X9901333Y-5322138D01*
X9924848Y-5307922D01*
X9926173Y-5307227D01*
X9951230Y-5295950D01*
X9952628Y-5295420D01*
X9978861Y-5287245D01*
X9980313Y-5286887D01*
X10007340Y-5281935D01*
X10008826Y-5281754D01*
X10036627Y-5280073D01*
X10037375Y-5280050D01*
X10041760Y-5280050D01*
X12492240Y-5280050D01*
X12496625Y-5280050D01*
X12497374Y-5280073D01*
G37*
%TD.AperFunction*%
%TD*%
M02*
