%TF.GenerationSoftware,KiCad,Pcbnew,10.0.3*%
%TF.CreationDate,2026-06-09T21:39:27-05:00*%
%TF.ProjectId,Flight Computer,466c6967-6874-4204-936f-6d7075746572,rev?*%
%TF.SameCoordinates,Original*%
%TF.FileFunction,Legend,Top*%
%TF.FilePolarity,Positive*%
%FSLAX45Y45*%
G04 Gerber Fmt 4.5, Leading zero omitted, Abs format (unit mm)*
G04 Created by KiCad (PCBNEW 10.0.3) date 2026-06-09 21:39:27*
%MOMM*%
%LPD*%
G01*
G04 APERTURE LIST*
%ADD10C,0.150000*%
%ADD11C,0.250000*%
%ADD12C,0.300000*%
%ADD13C,0.120000*%
%ADD14C,0.000000*%
%ADD15C,0.100000*%
G04 APERTURE END LIST*
D10*
X12168525Y-8916956D02*
X12179240Y-8920527D01*
X12179240Y-8920527D02*
X12182811Y-8924099D01*
X12182811Y-8924099D02*
X12186383Y-8931241D01*
X12186383Y-8931241D02*
X12186383Y-8941956D01*
X12186383Y-8941956D02*
X12182811Y-8949099D01*
X12182811Y-8949099D02*
X12179240Y-8952670D01*
X12179240Y-8952670D02*
X12172097Y-8956241D01*
X12172097Y-8956241D02*
X12143525Y-8956241D01*
X12143525Y-8956241D02*
X12143525Y-8881241D01*
X12143525Y-8881241D02*
X12168525Y-8881241D01*
X12168525Y-8881241D02*
X12175668Y-8884813D01*
X12175668Y-8884813D02*
X12179240Y-8888384D01*
X12179240Y-8888384D02*
X12182811Y-8895527D01*
X12182811Y-8895527D02*
X12182811Y-8902670D01*
X12182811Y-8902670D02*
X12179240Y-8909813D01*
X12179240Y-8909813D02*
X12175668Y-8913384D01*
X12175668Y-8913384D02*
X12168525Y-8916956D01*
X12168525Y-8916956D02*
X12143525Y-8916956D01*
X12232811Y-8881241D02*
X12247097Y-8881241D01*
X12247097Y-8881241D02*
X12254240Y-8884813D01*
X12254240Y-8884813D02*
X12261383Y-8891956D01*
X12261383Y-8891956D02*
X12264954Y-8906241D01*
X12264954Y-8906241D02*
X12264954Y-8931241D01*
X12264954Y-8931241D02*
X12261383Y-8945527D01*
X12261383Y-8945527D02*
X12254240Y-8952670D01*
X12254240Y-8952670D02*
X12247097Y-8956241D01*
X12247097Y-8956241D02*
X12232811Y-8956241D01*
X12232811Y-8956241D02*
X12225668Y-8952670D01*
X12225668Y-8952670D02*
X12218525Y-8945527D01*
X12218525Y-8945527D02*
X12214954Y-8931241D01*
X12214954Y-8931241D02*
X12214954Y-8906241D01*
X12214954Y-8906241D02*
X12218525Y-8891956D01*
X12218525Y-8891956D02*
X12225668Y-8884813D01*
X12225668Y-8884813D02*
X12232811Y-8881241D01*
X12311383Y-8881241D02*
X12325668Y-8881241D01*
X12325668Y-8881241D02*
X12332811Y-8884813D01*
X12332811Y-8884813D02*
X12339954Y-8891956D01*
X12339954Y-8891956D02*
X12343525Y-8906241D01*
X12343525Y-8906241D02*
X12343525Y-8931241D01*
X12343525Y-8931241D02*
X12339954Y-8945527D01*
X12339954Y-8945527D02*
X12332811Y-8952670D01*
X12332811Y-8952670D02*
X12325668Y-8956241D01*
X12325668Y-8956241D02*
X12311383Y-8956241D01*
X12311383Y-8956241D02*
X12304240Y-8952670D01*
X12304240Y-8952670D02*
X12297097Y-8945527D01*
X12297097Y-8945527D02*
X12293525Y-8931241D01*
X12293525Y-8931241D02*
X12293525Y-8906241D01*
X12293525Y-8906241D02*
X12297097Y-8891956D01*
X12297097Y-8891956D02*
X12304240Y-8884813D01*
X12304240Y-8884813D02*
X12311383Y-8881241D01*
X12364954Y-8881241D02*
X12407811Y-8881241D01*
X12386383Y-8956241D02*
X12386383Y-8881241D01*
X12567383Y-8956241D02*
X12542383Y-8920527D01*
X12524525Y-8956241D02*
X12524525Y-8881241D01*
X12524525Y-8881241D02*
X12553097Y-8881241D01*
X12553097Y-8881241D02*
X12560240Y-8884813D01*
X12560240Y-8884813D02*
X12563811Y-8888384D01*
X12563811Y-8888384D02*
X12567383Y-8895527D01*
X12567383Y-8895527D02*
X12567383Y-8906241D01*
X12567383Y-8906241D02*
X12563811Y-8913384D01*
X12563811Y-8913384D02*
X12560240Y-8916956D01*
X12560240Y-8916956D02*
X12553097Y-8920527D01*
X12553097Y-8920527D02*
X12524525Y-8920527D01*
X12595954Y-8952670D02*
X12606668Y-8956241D01*
X12606668Y-8956241D02*
X12624525Y-8956241D01*
X12624525Y-8956241D02*
X12631668Y-8952670D01*
X12631668Y-8952670D02*
X12635240Y-8949099D01*
X12635240Y-8949099D02*
X12638811Y-8941956D01*
X12638811Y-8941956D02*
X12638811Y-8934813D01*
X12638811Y-8934813D02*
X12635240Y-8927670D01*
X12635240Y-8927670D02*
X12631668Y-8924099D01*
X12631668Y-8924099D02*
X12624525Y-8920527D01*
X12624525Y-8920527D02*
X12610240Y-8916956D01*
X12610240Y-8916956D02*
X12603097Y-8913384D01*
X12603097Y-8913384D02*
X12599525Y-8909813D01*
X12599525Y-8909813D02*
X12595954Y-8902670D01*
X12595954Y-8902670D02*
X12595954Y-8895527D01*
X12595954Y-8895527D02*
X12599525Y-8888384D01*
X12599525Y-8888384D02*
X12603097Y-8884813D01*
X12603097Y-8884813D02*
X12610240Y-8881241D01*
X12610240Y-8881241D02*
X12628097Y-8881241D01*
X12628097Y-8881241D02*
X12638811Y-8884813D01*
X12660240Y-8881241D02*
X12703097Y-8881241D01*
X12681668Y-8956241D02*
X12681668Y-8881241D01*
G36*
X11510741Y-5634794D02*
G01*
X11516247Y-5640301D01*
X11519144Y-5646094D01*
X11522530Y-5659639D01*
X11522530Y-5669220D01*
X11519144Y-5682764D01*
X11516247Y-5688558D01*
X11510741Y-5694065D01*
X11502147Y-5696929D01*
X11491816Y-5696929D01*
X11491816Y-5631929D01*
X11502147Y-5631929D01*
X11510741Y-5634794D01*
G37*
G36*
X11986931Y-5634794D02*
G01*
X11992438Y-5640301D01*
X11995335Y-5646094D01*
X11998721Y-5659639D01*
X11998721Y-5669220D01*
X11995335Y-5682764D01*
X11992438Y-5688558D01*
X11986931Y-5694065D01*
X11978337Y-5696929D01*
X11968006Y-5696929D01*
X11968006Y-5631929D01*
X11978337Y-5631929D01*
X11986931Y-5634794D01*
G37*
G36*
X12074159Y-5634403D02*
G01*
X12079448Y-5639692D01*
X12082530Y-5652019D01*
X12082530Y-5676839D01*
X12079448Y-5689166D01*
X12074159Y-5694456D01*
X12069212Y-5696929D01*
X12057515Y-5696929D01*
X12052568Y-5694456D01*
X12047279Y-5689166D01*
X12044197Y-5676839D01*
X12044197Y-5652020D01*
X12047279Y-5639692D01*
X12052568Y-5634403D01*
X12057515Y-5631929D01*
X12069212Y-5631929D01*
X12074159Y-5634403D01*
G37*
G36*
X12106419Y-5720818D02*
G01*
X11467927Y-5720818D01*
X11467927Y-5624429D01*
X11476816Y-5624429D01*
X11476816Y-5704429D01*
X11476960Y-5705893D01*
X11478080Y-5708596D01*
X11480149Y-5710665D01*
X11482853Y-5711785D01*
X11484316Y-5711929D01*
X11503364Y-5711929D01*
X11504104Y-5711856D01*
X11504302Y-5711871D01*
X11504561Y-5711811D01*
X11504827Y-5711785D01*
X11505010Y-5711709D01*
X11505735Y-5711545D01*
X11517164Y-5707735D01*
X11518506Y-5707136D01*
X11518710Y-5706959D01*
X11518959Y-5706856D01*
X11520095Y-5705923D01*
X11527715Y-5698304D01*
X11528186Y-5697729D01*
X11528336Y-5697599D01*
X11528478Y-5697373D01*
X11528647Y-5697168D01*
X11528723Y-5696985D01*
X11529119Y-5696355D01*
X11532929Y-5688736D01*
X11532970Y-5688629D01*
X11533002Y-5688585D01*
X11533222Y-5687970D01*
X11533454Y-5687363D01*
X11533458Y-5687309D01*
X11533497Y-5687201D01*
X11537306Y-5671963D01*
X11537344Y-5671709D01*
X11537386Y-5671607D01*
X11537440Y-5671056D01*
X11537521Y-5670508D01*
X11537505Y-5670399D01*
X11537530Y-5670144D01*
X11537530Y-5658715D01*
X11537505Y-5658460D01*
X11537521Y-5658351D01*
X11537440Y-5657803D01*
X11537386Y-5657252D01*
X11537344Y-5657150D01*
X11537306Y-5656896D01*
X11533497Y-5641658D01*
X11533458Y-5641550D01*
X11533454Y-5641496D01*
X11533222Y-5640889D01*
X11533002Y-5640273D01*
X11532970Y-5640230D01*
X11532929Y-5640123D01*
X11529119Y-5632504D01*
X11528723Y-5631874D01*
X11528647Y-5631691D01*
X11528478Y-5631485D01*
X11528336Y-5631260D01*
X11528186Y-5631130D01*
X11527714Y-5630555D01*
X11521589Y-5624429D01*
X11556816Y-5624429D01*
X11556816Y-5704429D01*
X11556960Y-5705893D01*
X11558080Y-5708596D01*
X11560149Y-5710665D01*
X11562853Y-5711785D01*
X11565779Y-5711785D01*
X11568483Y-5710665D01*
X11570552Y-5708596D01*
X11571672Y-5705893D01*
X11571816Y-5704429D01*
X11571816Y-5639668D01*
X11652054Y-5639668D01*
X11652054Y-5647287D01*
X11652198Y-5648750D01*
X11652301Y-5648999D01*
X11652320Y-5649268D01*
X11652846Y-5650641D01*
X11656655Y-5658260D01*
X11657052Y-5658889D01*
X11657128Y-5659072D01*
X11657297Y-5659279D01*
X11657439Y-5659504D01*
X11657588Y-5659634D01*
X11658060Y-5660209D01*
X11661870Y-5664018D01*
X11662445Y-5664490D01*
X11662575Y-5664640D01*
X11662801Y-5664782D01*
X11663006Y-5664951D01*
X11663189Y-5665027D01*
X11663819Y-5665423D01*
X11671438Y-5669233D01*
X11671545Y-5669274D01*
X11671588Y-5669306D01*
X11672203Y-5669526D01*
X11672811Y-5669758D01*
X11672865Y-5669762D01*
X11672973Y-5669801D01*
X11687412Y-5673411D01*
X11693207Y-5676308D01*
X11695295Y-5678396D01*
X11697768Y-5683343D01*
X11697768Y-5687421D01*
X11695295Y-5692368D01*
X11693206Y-5694456D01*
X11688260Y-5696929D01*
X11672200Y-5696929D01*
X11661926Y-5693505D01*
X11660492Y-5693179D01*
X11657573Y-5693386D01*
X11654956Y-5694695D01*
X11653038Y-5696906D01*
X11652113Y-5699682D01*
X11652320Y-5702601D01*
X11653629Y-5705218D01*
X11655840Y-5707136D01*
X11657182Y-5707735D01*
X11668611Y-5711545D01*
X11669336Y-5711709D01*
X11669519Y-5711785D01*
X11669785Y-5711811D01*
X11670045Y-5711871D01*
X11670242Y-5711856D01*
X11670983Y-5711929D01*
X11690030Y-5711929D01*
X11691493Y-5711785D01*
X11691742Y-5711682D01*
X11692011Y-5711663D01*
X11693384Y-5711138D01*
X11701003Y-5707328D01*
X11701633Y-5706932D01*
X11701816Y-5706856D01*
X11702022Y-5706687D01*
X11702248Y-5706545D01*
X11702378Y-5706395D01*
X11702953Y-5705923D01*
X11706762Y-5702114D01*
X11707234Y-5701539D01*
X11707384Y-5701409D01*
X11707526Y-5701183D01*
X11707695Y-5700977D01*
X11707771Y-5700794D01*
X11708167Y-5700164D01*
X11711976Y-5692545D01*
X11712502Y-5691172D01*
X11712521Y-5690903D01*
X11712624Y-5690655D01*
X11712768Y-5689191D01*
X11712768Y-5681572D01*
X11712624Y-5680109D01*
X11712521Y-5679860D01*
X11712502Y-5679591D01*
X11711976Y-5678218D01*
X11708167Y-5670599D01*
X11707770Y-5669969D01*
X11707695Y-5669786D01*
X11707526Y-5669581D01*
X11707384Y-5669355D01*
X11707234Y-5669225D01*
X11706762Y-5668650D01*
X11702953Y-5664840D01*
X11702377Y-5664368D01*
X11702248Y-5664219D01*
X11702022Y-5664077D01*
X11701816Y-5663908D01*
X11701633Y-5663832D01*
X11701003Y-5663436D01*
X11693384Y-5659626D01*
X11693277Y-5659585D01*
X11693234Y-5659553D01*
X11692620Y-5659333D01*
X11692011Y-5659100D01*
X11691957Y-5659097D01*
X11691849Y-5659058D01*
X11690478Y-5658715D01*
X11728244Y-5658715D01*
X11728244Y-5670144D01*
X11728270Y-5670399D01*
X11728253Y-5670508D01*
X11728334Y-5671056D01*
X11728389Y-5671607D01*
X11728431Y-5671709D01*
X11728468Y-5671963D01*
X11732278Y-5687201D01*
X11732316Y-5687309D01*
X11732320Y-5687363D01*
X11732553Y-5687970D01*
X11732773Y-5688585D01*
X11732805Y-5688629D01*
X11732846Y-5688736D01*
X11736655Y-5696355D01*
X11737052Y-5696985D01*
X11737127Y-5697168D01*
X11737296Y-5697373D01*
X11737439Y-5697599D01*
X11737588Y-5697729D01*
X11738060Y-5698304D01*
X11745679Y-5705923D01*
X11746816Y-5706856D01*
X11747065Y-5706959D01*
X11747268Y-5707136D01*
X11748611Y-5707735D01*
X11760039Y-5711545D01*
X11760765Y-5711709D01*
X11760948Y-5711785D01*
X11761213Y-5711811D01*
X11761473Y-5711871D01*
X11761671Y-5711856D01*
X11762411Y-5711929D01*
X11770030Y-5711929D01*
X11770771Y-5711856D01*
X11770968Y-5711871D01*
X11771228Y-5711811D01*
X11771493Y-5711785D01*
X11771677Y-5711709D01*
X11772402Y-5711545D01*
X11783830Y-5707735D01*
X11785173Y-5707136D01*
X11785377Y-5706959D01*
X11785626Y-5706856D01*
X11786762Y-5705923D01*
X11790572Y-5702114D01*
X11791504Y-5700977D01*
X11792624Y-5698273D01*
X11792624Y-5695347D01*
X11791504Y-5692644D01*
X11789435Y-5690574D01*
X11786732Y-5689454D01*
X11783805Y-5689454D01*
X11781102Y-5690574D01*
X11779965Y-5691507D01*
X11777407Y-5694065D01*
X11768813Y-5696929D01*
X11763628Y-5696929D01*
X11755034Y-5694065D01*
X11749527Y-5688558D01*
X11746630Y-5682764D01*
X11743244Y-5669220D01*
X11743244Y-5659639D01*
X11746630Y-5646095D01*
X11749527Y-5640301D01*
X11755034Y-5634794D01*
X11763628Y-5631929D01*
X11768813Y-5631929D01*
X11777407Y-5634794D01*
X11779965Y-5637352D01*
X11781102Y-5638285D01*
X11783805Y-5639404D01*
X11786732Y-5639404D01*
X11789435Y-5638284D01*
X11791504Y-5636215D01*
X11792624Y-5633511D01*
X11792624Y-5630585D01*
X11791504Y-5627882D01*
X11790572Y-5626745D01*
X11788256Y-5624429D01*
X11812054Y-5624429D01*
X11812054Y-5704429D01*
X11812198Y-5705893D01*
X11813318Y-5708596D01*
X11815387Y-5710665D01*
X11818091Y-5711785D01*
X11821017Y-5711785D01*
X11823721Y-5710665D01*
X11825790Y-5708596D01*
X11826910Y-5705893D01*
X11827054Y-5704429D01*
X11827054Y-5673250D01*
X11830171Y-5670133D01*
X11859268Y-5708929D01*
X11860262Y-5710014D01*
X11862780Y-5711504D01*
X11865677Y-5711918D01*
X11868511Y-5711192D01*
X11870852Y-5709436D01*
X11872343Y-5706918D01*
X11872757Y-5704021D01*
X11872031Y-5701186D01*
X11871268Y-5699929D01*
X11840885Y-5659419D01*
X11870572Y-5629733D01*
X11871504Y-5628596D01*
X11872624Y-5625893D01*
X11872624Y-5624429D01*
X11953006Y-5624429D01*
X11953006Y-5704429D01*
X11953151Y-5705893D01*
X11954270Y-5708596D01*
X11956340Y-5710665D01*
X11959043Y-5711785D01*
X11960506Y-5711929D01*
X11979554Y-5711929D01*
X11980295Y-5711856D01*
X11980492Y-5711871D01*
X11980752Y-5711811D01*
X11981017Y-5711785D01*
X11981200Y-5711709D01*
X11981926Y-5711545D01*
X11993354Y-5707735D01*
X11994697Y-5707136D01*
X11994900Y-5706959D01*
X11995149Y-5706856D01*
X11996286Y-5705923D01*
X12003905Y-5698304D01*
X12004377Y-5697729D01*
X12004527Y-5697599D01*
X12004669Y-5697373D01*
X12004838Y-5697168D01*
X12004913Y-5696985D01*
X12005310Y-5696355D01*
X12009119Y-5688736D01*
X12009160Y-5688629D01*
X12009193Y-5688585D01*
X12009412Y-5687970D01*
X12009645Y-5687363D01*
X12009649Y-5687309D01*
X12009687Y-5687201D01*
X12013497Y-5671963D01*
X12013534Y-5671709D01*
X12013577Y-5671607D01*
X12013631Y-5671056D01*
X12013712Y-5670508D01*
X12013696Y-5670399D01*
X12013721Y-5670144D01*
X12013721Y-5658715D01*
X12013696Y-5658460D01*
X12013712Y-5658351D01*
X12013631Y-5657803D01*
X12013577Y-5657252D01*
X12013534Y-5657150D01*
X12013497Y-5656896D01*
X12012047Y-5651096D01*
X12029197Y-5651096D01*
X12029197Y-5677763D01*
X12029222Y-5678018D01*
X12029206Y-5678127D01*
X12029287Y-5678675D01*
X12029341Y-5679226D01*
X12029383Y-5679328D01*
X12029421Y-5679582D01*
X12033230Y-5694820D01*
X12033725Y-5696204D01*
X12034057Y-5696652D01*
X12034270Y-5697168D01*
X12035203Y-5698304D01*
X12042822Y-5705923D01*
X12043397Y-5706395D01*
X12043527Y-5706545D01*
X12043753Y-5706687D01*
X12043959Y-5706856D01*
X12044141Y-5706932D01*
X12044771Y-5707328D01*
X12052390Y-5711138D01*
X12053764Y-5711663D01*
X12054032Y-5711682D01*
X12054281Y-5711785D01*
X12055745Y-5711929D01*
X12070983Y-5711929D01*
X12072446Y-5711785D01*
X12072695Y-5711682D01*
X12072964Y-5711663D01*
X12074337Y-5711138D01*
X12081956Y-5707328D01*
X12082586Y-5706932D01*
X12082768Y-5706856D01*
X12082974Y-5706687D01*
X12083200Y-5706545D01*
X12083330Y-5706395D01*
X12083905Y-5705923D01*
X12091524Y-5698304D01*
X12092457Y-5697168D01*
X12092670Y-5696652D01*
X12093002Y-5696204D01*
X12093497Y-5694820D01*
X12097306Y-5679582D01*
X12097344Y-5679328D01*
X12097386Y-5679226D01*
X12097440Y-5678676D01*
X12097521Y-5678127D01*
X12097505Y-5678018D01*
X12097530Y-5677763D01*
X12097530Y-5651096D01*
X12097505Y-5650841D01*
X12097521Y-5650732D01*
X12097440Y-5650183D01*
X12097386Y-5649633D01*
X12097344Y-5649531D01*
X12097306Y-5649277D01*
X12093497Y-5634039D01*
X12093002Y-5632654D01*
X12092670Y-5632206D01*
X12092457Y-5631691D01*
X12091524Y-5630555D01*
X12083905Y-5622936D01*
X12083330Y-5622464D01*
X12083200Y-5622314D01*
X12082974Y-5622172D01*
X12082768Y-5622003D01*
X12082585Y-5621927D01*
X12081956Y-5621531D01*
X12074337Y-5617721D01*
X12072964Y-5617196D01*
X12072695Y-5617177D01*
X12072446Y-5617074D01*
X12070983Y-5616929D01*
X12055745Y-5616929D01*
X12054281Y-5617074D01*
X12054032Y-5617177D01*
X12053764Y-5617196D01*
X12052390Y-5617721D01*
X12044771Y-5621531D01*
X12044142Y-5621927D01*
X12043959Y-5622003D01*
X12043752Y-5622172D01*
X12043527Y-5622314D01*
X12043397Y-5622464D01*
X12042822Y-5622936D01*
X12035203Y-5630555D01*
X12034270Y-5631691D01*
X12034057Y-5632206D01*
X12033725Y-5632654D01*
X12033230Y-5634039D01*
X12029421Y-5649277D01*
X12029383Y-5649531D01*
X12029341Y-5649633D01*
X12029287Y-5650184D01*
X12029206Y-5650731D01*
X12029222Y-5650841D01*
X12029197Y-5651096D01*
X12012047Y-5651096D01*
X12009687Y-5641658D01*
X12009649Y-5641550D01*
X12009645Y-5641496D01*
X12009412Y-5640889D01*
X12009193Y-5640273D01*
X12009160Y-5640230D01*
X12009119Y-5640123D01*
X12005310Y-5632504D01*
X12004914Y-5631874D01*
X12004838Y-5631691D01*
X12004669Y-5631485D01*
X12004527Y-5631260D01*
X12004377Y-5631130D01*
X12003905Y-5630555D01*
X11996286Y-5622936D01*
X11995149Y-5622003D01*
X11994900Y-5621900D01*
X11994697Y-5621723D01*
X11993354Y-5621124D01*
X11981926Y-5617314D01*
X11981200Y-5617149D01*
X11981017Y-5617074D01*
X11980752Y-5617047D01*
X11980492Y-5616988D01*
X11980295Y-5617002D01*
X11979554Y-5616929D01*
X11960506Y-5616929D01*
X11959043Y-5617074D01*
X11956340Y-5618193D01*
X11954270Y-5620263D01*
X11953151Y-5622966D01*
X11953006Y-5624429D01*
X11872624Y-5624429D01*
X11872624Y-5622966D01*
X11871504Y-5620263D01*
X11869435Y-5618193D01*
X11866732Y-5617074D01*
X11863805Y-5617074D01*
X11861102Y-5618193D01*
X11859965Y-5619126D01*
X11827054Y-5652037D01*
X11827054Y-5624429D01*
X11826910Y-5622966D01*
X11825790Y-5620263D01*
X11823721Y-5618193D01*
X11821017Y-5617074D01*
X11818091Y-5617074D01*
X11815387Y-5618193D01*
X11813318Y-5620263D01*
X11812198Y-5622966D01*
X11812054Y-5624429D01*
X11788256Y-5624429D01*
X11786762Y-5622936D01*
X11785625Y-5622003D01*
X11785377Y-5621900D01*
X11785173Y-5621723D01*
X11783830Y-5621124D01*
X11772402Y-5617314D01*
X11771677Y-5617149D01*
X11771493Y-5617074D01*
X11771228Y-5617047D01*
X11770968Y-5616988D01*
X11770771Y-5617002D01*
X11770030Y-5616929D01*
X11762411Y-5616929D01*
X11761671Y-5617002D01*
X11761473Y-5616988D01*
X11761213Y-5617047D01*
X11760948Y-5617074D01*
X11760765Y-5617149D01*
X11760039Y-5617314D01*
X11748611Y-5621124D01*
X11747268Y-5621723D01*
X11747065Y-5621900D01*
X11746816Y-5622003D01*
X11745679Y-5622936D01*
X11738060Y-5630555D01*
X11737588Y-5631130D01*
X11737439Y-5631260D01*
X11737296Y-5631485D01*
X11737128Y-5631691D01*
X11737052Y-5631874D01*
X11736655Y-5632504D01*
X11732846Y-5640123D01*
X11732805Y-5640230D01*
X11732773Y-5640273D01*
X11732553Y-5640889D01*
X11732320Y-5641496D01*
X11732316Y-5641550D01*
X11732278Y-5641658D01*
X11728468Y-5656896D01*
X11728431Y-5657150D01*
X11728389Y-5657252D01*
X11728334Y-5657803D01*
X11728253Y-5658351D01*
X11728270Y-5658460D01*
X11728244Y-5658715D01*
X11690478Y-5658715D01*
X11677410Y-5655448D01*
X11671616Y-5652551D01*
X11669527Y-5650463D01*
X11667054Y-5645516D01*
X11667054Y-5641438D01*
X11669527Y-5636491D01*
X11671616Y-5634403D01*
X11676563Y-5631929D01*
X11692623Y-5631929D01*
X11702897Y-5635354D01*
X11704330Y-5635680D01*
X11707249Y-5635473D01*
X11709867Y-5634164D01*
X11711784Y-5631953D01*
X11712709Y-5629177D01*
X11712502Y-5626258D01*
X11711193Y-5623641D01*
X11708983Y-5621723D01*
X11707640Y-5621124D01*
X11696211Y-5617314D01*
X11695486Y-5617149D01*
X11695303Y-5617074D01*
X11695037Y-5617047D01*
X11694778Y-5616988D01*
X11694580Y-5617002D01*
X11693840Y-5616929D01*
X11674792Y-5616929D01*
X11673329Y-5617074D01*
X11673080Y-5617177D01*
X11672811Y-5617196D01*
X11671438Y-5617721D01*
X11663819Y-5621531D01*
X11663189Y-5621927D01*
X11663006Y-5622003D01*
X11662801Y-5622172D01*
X11662575Y-5622314D01*
X11662445Y-5622464D01*
X11661870Y-5622936D01*
X11658060Y-5626745D01*
X11657588Y-5627320D01*
X11657439Y-5627450D01*
X11657297Y-5627675D01*
X11657128Y-5627882D01*
X11657052Y-5628065D01*
X11656655Y-5628694D01*
X11652846Y-5636313D01*
X11652320Y-5637687D01*
X11652301Y-5637955D01*
X11652198Y-5638204D01*
X11652054Y-5639668D01*
X11571816Y-5639668D01*
X11571816Y-5624429D01*
X11571672Y-5622966D01*
X11570552Y-5620263D01*
X11568483Y-5618193D01*
X11565779Y-5617074D01*
X11562853Y-5617074D01*
X11560149Y-5618193D01*
X11558080Y-5620263D01*
X11556960Y-5622966D01*
X11556816Y-5624429D01*
X11521589Y-5624429D01*
X11520095Y-5622936D01*
X11518959Y-5622003D01*
X11518710Y-5621900D01*
X11518506Y-5621723D01*
X11517164Y-5621124D01*
X11505735Y-5617314D01*
X11505010Y-5617149D01*
X11504827Y-5617074D01*
X11504561Y-5617047D01*
X11504302Y-5616988D01*
X11504104Y-5617002D01*
X11503364Y-5616929D01*
X11484316Y-5616929D01*
X11482853Y-5617074D01*
X11480149Y-5618193D01*
X11478080Y-5620263D01*
X11476960Y-5622966D01*
X11476816Y-5624429D01*
X11467927Y-5624429D01*
X11467927Y-5608041D01*
X12106419Y-5608041D01*
X12106419Y-5720818D01*
G37*
G36*
X10963002Y-10914893D02*
G01*
X10668840Y-10914893D01*
X10668840Y-10797220D01*
X10679951Y-10797220D01*
X10680277Y-10798654D01*
X10713610Y-10898654D01*
X10714210Y-10899996D01*
X10714561Y-10900401D01*
X10714801Y-10900880D01*
X10715511Y-10901497D01*
X10716127Y-10902207D01*
X10716606Y-10902446D01*
X10717011Y-10902798D01*
X10717904Y-10903095D01*
X10718745Y-10903516D01*
X10719279Y-10903553D01*
X10719788Y-10903723D01*
X10720726Y-10903656D01*
X10721664Y-10903723D01*
X10722172Y-10903553D01*
X10722707Y-10903516D01*
X10723548Y-10903095D01*
X10724440Y-10902798D01*
X10724844Y-10902447D01*
X10725324Y-10902207D01*
X10725940Y-10901496D01*
X10726651Y-10900880D01*
X10726890Y-10900401D01*
X10727241Y-10899996D01*
X10727841Y-10898654D01*
X10747679Y-10839139D01*
X10775130Y-10839139D01*
X10775130Y-10853425D01*
X10775155Y-10853680D01*
X10775139Y-10853789D01*
X10775220Y-10854337D01*
X10775274Y-10854888D01*
X10775317Y-10854990D01*
X10775354Y-10855244D01*
X10780116Y-10874291D01*
X10780155Y-10874399D01*
X10780159Y-10874453D01*
X10780391Y-10875061D01*
X10780611Y-10875676D01*
X10780643Y-10875719D01*
X10780684Y-10875826D01*
X10785446Y-10885350D01*
X10785842Y-10885980D01*
X10785918Y-10886163D01*
X10786087Y-10886369D01*
X10786229Y-10886595D01*
X10786379Y-10886724D01*
X10786851Y-10887299D01*
X10796375Y-10896823D01*
X10797511Y-10897756D01*
X10797760Y-10897859D01*
X10797964Y-10898036D01*
X10799306Y-10898635D01*
X10813592Y-10903397D01*
X10814317Y-10903562D01*
X10814500Y-10903638D01*
X10814766Y-10903664D01*
X10815026Y-10903723D01*
X10815223Y-10903709D01*
X10815964Y-10903782D01*
X10825487Y-10903782D01*
X10826228Y-10903709D01*
X10826425Y-10903723D01*
X10826685Y-10903664D01*
X10826951Y-10903638D01*
X10827134Y-10903562D01*
X10827859Y-10903397D01*
X10842145Y-10898635D01*
X10843487Y-10898036D01*
X10843691Y-10897859D01*
X10843940Y-10897756D01*
X10845077Y-10896823D01*
X10849838Y-10892061D01*
X10850771Y-10890925D01*
X10851891Y-10888221D01*
X10851891Y-10885295D01*
X10850771Y-10882591D01*
X10848702Y-10880522D01*
X10845998Y-10879402D01*
X10843072Y-10879402D01*
X10840368Y-10880522D01*
X10839232Y-10881455D01*
X10835722Y-10884965D01*
X10824270Y-10888782D01*
X10817181Y-10888782D01*
X10805729Y-10884965D01*
X10798318Y-10877553D01*
X10794469Y-10869855D01*
X10790130Y-10852501D01*
X10790130Y-10840062D01*
X10790361Y-10839139D01*
X10875130Y-10839139D01*
X10875130Y-10853425D01*
X10875155Y-10853680D01*
X10875139Y-10853789D01*
X10875220Y-10854337D01*
X10875274Y-10854888D01*
X10875317Y-10854990D01*
X10875354Y-10855244D01*
X10880116Y-10874291D01*
X10880155Y-10874399D01*
X10880159Y-10874453D01*
X10880391Y-10875061D01*
X10880611Y-10875676D01*
X10880643Y-10875719D01*
X10880684Y-10875826D01*
X10885446Y-10885350D01*
X10885842Y-10885980D01*
X10885918Y-10886163D01*
X10886087Y-10886369D01*
X10886229Y-10886595D01*
X10886379Y-10886724D01*
X10886851Y-10887299D01*
X10896375Y-10896823D01*
X10897511Y-10897756D01*
X10897760Y-10897859D01*
X10897964Y-10898036D01*
X10899306Y-10898635D01*
X10913592Y-10903397D01*
X10914317Y-10903562D01*
X10914500Y-10903638D01*
X10914766Y-10903664D01*
X10915026Y-10903723D01*
X10915223Y-10903709D01*
X10915964Y-10903782D01*
X10925487Y-10903782D01*
X10926228Y-10903709D01*
X10926425Y-10903723D01*
X10926685Y-10903664D01*
X10926951Y-10903638D01*
X10927134Y-10903562D01*
X10927859Y-10903397D01*
X10942145Y-10898635D01*
X10943487Y-10898036D01*
X10943691Y-10897859D01*
X10943940Y-10897756D01*
X10945077Y-10896823D01*
X10949838Y-10892061D01*
X10950771Y-10890925D01*
X10951891Y-10888221D01*
X10951891Y-10885295D01*
X10950771Y-10882591D01*
X10948702Y-10880522D01*
X10945998Y-10879402D01*
X10943072Y-10879402D01*
X10940368Y-10880522D01*
X10939232Y-10881455D01*
X10935722Y-10884965D01*
X10924270Y-10888782D01*
X10917181Y-10888782D01*
X10905729Y-10884965D01*
X10898318Y-10877553D01*
X10894469Y-10869855D01*
X10890130Y-10852501D01*
X10890130Y-10840062D01*
X10894469Y-10822709D01*
X10898318Y-10815010D01*
X10905729Y-10807599D01*
X10917181Y-10803782D01*
X10924270Y-10803782D01*
X10935722Y-10807599D01*
X10939232Y-10811109D01*
X10940368Y-10812042D01*
X10943072Y-10813162D01*
X10945998Y-10813162D01*
X10948702Y-10812042D01*
X10950771Y-10809972D01*
X10951891Y-10807269D01*
X10951891Y-10804343D01*
X10950771Y-10801639D01*
X10949838Y-10800502D01*
X10945076Y-10795741D01*
X10943940Y-10794808D01*
X10943691Y-10794705D01*
X10943487Y-10794528D01*
X10942145Y-10793929D01*
X10927859Y-10789167D01*
X10927134Y-10789002D01*
X10926951Y-10788926D01*
X10926685Y-10788900D01*
X10926425Y-10788841D01*
X10926228Y-10788855D01*
X10925487Y-10788782D01*
X10915964Y-10788782D01*
X10915223Y-10788855D01*
X10915026Y-10788841D01*
X10914766Y-10788900D01*
X10914500Y-10788926D01*
X10914317Y-10789002D01*
X10913592Y-10789167D01*
X10899306Y-10793929D01*
X10897964Y-10794528D01*
X10897760Y-10794705D01*
X10897511Y-10794808D01*
X10896375Y-10795741D01*
X10886851Y-10805264D01*
X10886379Y-10805839D01*
X10886229Y-10805969D01*
X10886087Y-10806195D01*
X10885918Y-10806401D01*
X10885842Y-10806584D01*
X10885446Y-10807214D01*
X10880684Y-10816737D01*
X10880643Y-10816844D01*
X10880611Y-10816888D01*
X10880391Y-10817502D01*
X10880159Y-10818111D01*
X10880155Y-10818164D01*
X10880116Y-10818272D01*
X10875354Y-10837320D01*
X10875317Y-10837574D01*
X10875274Y-10837676D01*
X10875220Y-10838227D01*
X10875139Y-10838774D01*
X10875155Y-10838884D01*
X10875130Y-10839139D01*
X10790361Y-10839139D01*
X10794469Y-10822709D01*
X10798318Y-10815010D01*
X10805729Y-10807599D01*
X10817181Y-10803782D01*
X10824270Y-10803782D01*
X10835722Y-10807599D01*
X10839232Y-10811109D01*
X10840368Y-10812042D01*
X10843072Y-10813162D01*
X10845998Y-10813162D01*
X10848702Y-10812042D01*
X10850771Y-10809972D01*
X10851891Y-10807269D01*
X10851891Y-10804343D01*
X10850771Y-10801639D01*
X10849838Y-10800502D01*
X10845076Y-10795741D01*
X10843940Y-10794808D01*
X10843691Y-10794705D01*
X10843487Y-10794528D01*
X10842145Y-10793929D01*
X10827859Y-10789167D01*
X10827134Y-10789002D01*
X10826951Y-10788926D01*
X10826685Y-10788900D01*
X10826425Y-10788841D01*
X10826228Y-10788855D01*
X10825487Y-10788782D01*
X10815964Y-10788782D01*
X10815223Y-10788855D01*
X10815026Y-10788841D01*
X10814766Y-10788900D01*
X10814500Y-10788926D01*
X10814317Y-10789002D01*
X10813592Y-10789167D01*
X10799306Y-10793929D01*
X10797964Y-10794528D01*
X10797760Y-10794705D01*
X10797511Y-10794808D01*
X10796375Y-10795741D01*
X10786851Y-10805264D01*
X10786379Y-10805839D01*
X10786229Y-10805969D01*
X10786087Y-10806195D01*
X10785918Y-10806401D01*
X10785842Y-10806584D01*
X10785446Y-10807214D01*
X10780684Y-10816737D01*
X10780643Y-10816844D01*
X10780611Y-10816888D01*
X10780391Y-10817502D01*
X10780159Y-10818111D01*
X10780155Y-10818164D01*
X10780116Y-10818272D01*
X10775354Y-10837320D01*
X10775317Y-10837574D01*
X10775274Y-10837676D01*
X10775220Y-10838227D01*
X10775139Y-10838774D01*
X10775155Y-10838884D01*
X10775130Y-10839139D01*
X10747679Y-10839139D01*
X10761174Y-10798654D01*
X10761500Y-10797220D01*
X10761292Y-10794301D01*
X10759984Y-10791684D01*
X10757773Y-10789766D01*
X10754997Y-10788841D01*
X10752078Y-10789048D01*
X10749461Y-10790357D01*
X10747543Y-10792568D01*
X10746944Y-10793910D01*
X10720726Y-10872565D01*
X10694507Y-10793910D01*
X10693908Y-10792568D01*
X10691991Y-10790357D01*
X10689373Y-10789048D01*
X10686454Y-10788841D01*
X10683678Y-10789766D01*
X10681467Y-10791684D01*
X10680159Y-10794301D01*
X10679951Y-10797220D01*
X10668840Y-10797220D01*
X10668840Y-10777671D01*
X10963002Y-10777671D01*
X10963002Y-10914893D01*
G37*
G36*
X12012399Y-10914893D02*
G01*
X11689687Y-10914893D01*
X11689687Y-10794819D01*
X11700798Y-10794819D01*
X11700798Y-10797745D01*
X11701918Y-10800449D01*
X11703987Y-10802518D01*
X11706691Y-10803638D01*
X11708154Y-10803782D01*
X11753531Y-10803782D01*
X11731081Y-10829438D01*
X11730629Y-10830071D01*
X11730489Y-10830210D01*
X11730435Y-10830343D01*
X11730226Y-10830634D01*
X11729836Y-10831788D01*
X11729370Y-10832914D01*
X11729370Y-10833167D01*
X11729289Y-10833407D01*
X11729370Y-10834622D01*
X11729370Y-10835840D01*
X11729466Y-10836074D01*
X11729483Y-10836326D01*
X11730023Y-10837419D01*
X11730489Y-10838544D01*
X11730668Y-10838723D01*
X11730780Y-10838950D01*
X11731698Y-10839752D01*
X11732559Y-10840613D01*
X11732792Y-10840710D01*
X11732983Y-10840877D01*
X11734136Y-10841267D01*
X11735262Y-10841733D01*
X11735619Y-10841768D01*
X11735755Y-10841814D01*
X11735952Y-10841801D01*
X11736725Y-10841877D01*
X11749241Y-10841877D01*
X11756092Y-10845303D01*
X11759133Y-10848344D01*
X11762559Y-10855195D01*
X11762559Y-10875464D01*
X11759133Y-10882315D01*
X11756092Y-10885356D01*
X11749241Y-10888782D01*
X11724210Y-10888782D01*
X11717359Y-10885356D01*
X11713457Y-10881455D01*
X11712321Y-10880522D01*
X11709617Y-10879402D01*
X11706691Y-10879402D01*
X11703987Y-10880522D01*
X11701918Y-10882591D01*
X11700798Y-10885295D01*
X11700798Y-10888221D01*
X11701918Y-10890925D01*
X11702851Y-10892061D01*
X11707613Y-10896823D01*
X11708187Y-10897295D01*
X11708318Y-10897445D01*
X11708543Y-10897587D01*
X11708749Y-10897756D01*
X11708932Y-10897832D01*
X11709562Y-10898228D01*
X11719086Y-10902990D01*
X11720459Y-10903516D01*
X11720728Y-10903535D01*
X11720977Y-10903638D01*
X11722440Y-10903782D01*
X11751011Y-10903782D01*
X11752474Y-10903638D01*
X11752723Y-10903535D01*
X11752992Y-10903516D01*
X11754365Y-10902990D01*
X11763889Y-10898228D01*
X11764519Y-10897832D01*
X11764702Y-10897756D01*
X11764907Y-10897587D01*
X11765133Y-10897445D01*
X11765263Y-10897295D01*
X11765838Y-10896823D01*
X11770600Y-10892061D01*
X11771072Y-10891486D01*
X11771222Y-10891356D01*
X11771364Y-10891131D01*
X11771533Y-10890925D01*
X11771609Y-10890742D01*
X11772005Y-10890112D01*
X11772033Y-10890057D01*
X11800798Y-10890057D01*
X11800798Y-10892983D01*
X11801302Y-10894199D01*
X11801918Y-10895687D01*
X11802851Y-10896823D01*
X11807613Y-10901585D01*
X11808749Y-10902518D01*
X11811453Y-10903638D01*
X11811453Y-10903638D01*
X11814379Y-10903638D01*
X11814379Y-10903638D01*
X11817083Y-10902518D01*
X11818219Y-10901585D01*
X11822981Y-10896823D01*
X11823914Y-10895687D01*
X11825034Y-10892983D01*
X11825034Y-10890057D01*
X11825029Y-10890046D01*
X11823914Y-10887353D01*
X11822981Y-10886217D01*
X11818219Y-10881455D01*
X11817083Y-10880522D01*
X11817083Y-10880522D01*
X11815499Y-10879866D01*
X11814379Y-10879402D01*
X11814379Y-10879402D01*
X11811453Y-10879402D01*
X11810333Y-10879866D01*
X11808749Y-10880522D01*
X11808749Y-10880522D01*
X11807613Y-10881455D01*
X11802851Y-10886217D01*
X11801918Y-10887353D01*
X11800798Y-10890057D01*
X11772033Y-10890057D01*
X11776767Y-10880588D01*
X11777292Y-10879215D01*
X11777312Y-10878946D01*
X11777415Y-10878697D01*
X11777559Y-10877234D01*
X11777559Y-10853425D01*
X11777415Y-10851962D01*
X11777312Y-10851713D01*
X11777292Y-10851444D01*
X11776767Y-10850071D01*
X11772005Y-10840547D01*
X11771609Y-10839917D01*
X11771533Y-10839734D01*
X11771364Y-10839528D01*
X11771222Y-10839303D01*
X11771072Y-10839173D01*
X11770600Y-10838598D01*
X11765838Y-10833836D01*
X11765263Y-10833364D01*
X11765133Y-10833214D01*
X11764907Y-10833072D01*
X11764702Y-10832903D01*
X11764519Y-10832827D01*
X11763889Y-10832431D01*
X11754365Y-10827669D01*
X11753013Y-10827152D01*
X11775703Y-10801221D01*
X11776155Y-10800588D01*
X11776295Y-10800449D01*
X11776350Y-10800316D01*
X11776558Y-10800025D01*
X11776948Y-10798871D01*
X11777415Y-10797745D01*
X11777415Y-10797492D01*
X11777496Y-10797253D01*
X11777415Y-10796037D01*
X11777415Y-10794819D01*
X11843655Y-10794819D01*
X11843655Y-10797745D01*
X11844775Y-10800449D01*
X11846844Y-10802518D01*
X11849548Y-10803638D01*
X11851011Y-10803782D01*
X11896388Y-10803782D01*
X11873938Y-10829438D01*
X11873486Y-10830071D01*
X11873347Y-10830210D01*
X11873292Y-10830343D01*
X11873083Y-10830634D01*
X11872693Y-10831788D01*
X11872227Y-10832914D01*
X11872227Y-10833167D01*
X11872146Y-10833407D01*
X11872227Y-10834622D01*
X11872227Y-10835840D01*
X11872323Y-10836074D01*
X11872340Y-10836326D01*
X11872880Y-10837419D01*
X11873347Y-10838544D01*
X11873525Y-10838723D01*
X11873637Y-10838950D01*
X11874555Y-10839752D01*
X11875416Y-10840613D01*
X11875649Y-10840710D01*
X11875840Y-10840877D01*
X11876994Y-10841267D01*
X11878119Y-10841733D01*
X11878476Y-10841768D01*
X11878612Y-10841814D01*
X11878809Y-10841801D01*
X11879583Y-10841877D01*
X11892098Y-10841877D01*
X11898949Y-10845303D01*
X11901990Y-10848344D01*
X11905416Y-10855195D01*
X11905416Y-10875464D01*
X11901990Y-10882315D01*
X11898949Y-10885356D01*
X11892098Y-10888782D01*
X11867067Y-10888782D01*
X11860216Y-10885356D01*
X11856315Y-10881455D01*
X11855178Y-10880522D01*
X11852474Y-10879402D01*
X11849548Y-10879402D01*
X11846844Y-10880522D01*
X11844775Y-10882591D01*
X11843655Y-10885295D01*
X11843655Y-10888221D01*
X11844775Y-10890925D01*
X11845708Y-10892061D01*
X11850470Y-10896823D01*
X11851045Y-10897295D01*
X11851175Y-10897445D01*
X11851401Y-10897587D01*
X11851606Y-10897756D01*
X11851789Y-10897832D01*
X11852419Y-10898228D01*
X11861943Y-10902990D01*
X11863316Y-10903516D01*
X11863585Y-10903535D01*
X11863834Y-10903638D01*
X11865297Y-10903782D01*
X11893868Y-10903782D01*
X11895331Y-10903638D01*
X11895580Y-10903535D01*
X11895849Y-10903516D01*
X11897222Y-10902990D01*
X11906746Y-10898228D01*
X11907376Y-10897832D01*
X11907559Y-10897756D01*
X11907764Y-10897587D01*
X11907990Y-10897445D01*
X11908120Y-10897295D01*
X11908695Y-10896823D01*
X11913457Y-10892061D01*
X11913929Y-10891486D01*
X11914079Y-10891356D01*
X11914221Y-10891131D01*
X11914390Y-10890925D01*
X11914466Y-10890742D01*
X11914862Y-10890112D01*
X11919624Y-10880588D01*
X11920150Y-10879215D01*
X11920169Y-10878946D01*
X11920272Y-10878697D01*
X11920416Y-10877234D01*
X11920416Y-10853425D01*
X11920272Y-10851962D01*
X11920169Y-10851713D01*
X11920150Y-10851444D01*
X11919624Y-10850071D01*
X11914862Y-10840547D01*
X11914466Y-10839917D01*
X11914390Y-10839734D01*
X11914221Y-10839528D01*
X11914079Y-10839303D01*
X11913929Y-10839173D01*
X11913457Y-10838598D01*
X11908695Y-10833836D01*
X11908120Y-10833364D01*
X11907990Y-10833214D01*
X11907764Y-10833072D01*
X11907559Y-10832903D01*
X11907376Y-10832827D01*
X11906746Y-10832431D01*
X11903307Y-10830711D01*
X11938830Y-10830711D01*
X11939186Y-10832138D01*
X11962996Y-10898804D01*
X11963624Y-10900134D01*
X11963876Y-10900413D01*
X11964037Y-10900753D01*
X11964851Y-10901490D01*
X11965587Y-10902303D01*
X11965928Y-10902464D01*
X11966207Y-10902717D01*
X11967240Y-10903086D01*
X11968232Y-10903556D01*
X11968608Y-10903575D01*
X11968963Y-10903701D01*
X11970059Y-10903647D01*
X11971155Y-10903701D01*
X11971510Y-10903575D01*
X11971885Y-10903556D01*
X11972877Y-10903086D01*
X11973911Y-10902717D01*
X11974190Y-10902464D01*
X11974530Y-10902303D01*
X11975267Y-10901489D01*
X11976080Y-10900753D01*
X11976241Y-10900413D01*
X11976494Y-10900134D01*
X11977122Y-10898804D01*
X12000931Y-10832138D01*
X12001288Y-10830711D01*
X12001142Y-10827789D01*
X11999890Y-10825144D01*
X11997720Y-10823180D01*
X11994964Y-10822196D01*
X11992042Y-10822341D01*
X11989397Y-10823594D01*
X11987433Y-10825763D01*
X11986805Y-10827093D01*
X11970059Y-10873983D01*
X11953312Y-10827093D01*
X11952684Y-10825763D01*
X11950721Y-10823594D01*
X11948076Y-10822341D01*
X11945153Y-10822196D01*
X11942397Y-10823180D01*
X11940228Y-10825144D01*
X11938975Y-10827789D01*
X11938830Y-10830711D01*
X11903307Y-10830711D01*
X11897222Y-10827669D01*
X11895871Y-10827152D01*
X11918560Y-10801221D01*
X11919012Y-10800588D01*
X11919152Y-10800449D01*
X11919207Y-10800316D01*
X11919415Y-10800025D01*
X11919805Y-10798871D01*
X11920272Y-10797745D01*
X11920272Y-10797492D01*
X11920353Y-10797253D01*
X11920272Y-10796037D01*
X11920272Y-10794819D01*
X11920175Y-10794585D01*
X11920158Y-10794333D01*
X11919618Y-10793240D01*
X11919152Y-10792115D01*
X11918973Y-10791936D01*
X11918861Y-10791710D01*
X11917944Y-10790907D01*
X11917083Y-10790046D01*
X11916849Y-10789949D01*
X11916659Y-10789783D01*
X11915505Y-10789392D01*
X11914379Y-10788926D01*
X11914022Y-10788891D01*
X11913886Y-10788845D01*
X11913690Y-10788858D01*
X11912916Y-10788782D01*
X11851011Y-10788782D01*
X11849548Y-10788926D01*
X11846844Y-10790046D01*
X11844775Y-10792115D01*
X11843655Y-10794819D01*
X11777415Y-10794819D01*
X11777318Y-10794585D01*
X11777301Y-10794333D01*
X11776761Y-10793240D01*
X11776295Y-10792115D01*
X11776116Y-10791936D01*
X11776004Y-10791710D01*
X11775087Y-10790907D01*
X11774226Y-10790046D01*
X11773992Y-10789949D01*
X11773801Y-10789783D01*
X11772648Y-10789392D01*
X11771522Y-10788926D01*
X11771165Y-10788891D01*
X11771029Y-10788845D01*
X11770833Y-10788858D01*
X11770059Y-10788782D01*
X11708154Y-10788782D01*
X11706691Y-10788926D01*
X11703987Y-10790046D01*
X11701918Y-10792115D01*
X11700798Y-10794819D01*
X11689687Y-10794819D01*
X11689687Y-10777671D01*
X12012399Y-10777671D01*
X12012399Y-10914893D01*
G37*
D11*
G36*
X12382619Y-7979442D02*
G01*
X12075495Y-7979442D01*
X12075495Y-7873489D01*
X12087995Y-7873489D01*
X12087995Y-7883013D01*
X12088235Y-7885452D01*
X12088407Y-7885867D01*
X12088439Y-7886315D01*
X12089315Y-7888603D01*
X12094076Y-7898127D01*
X12094737Y-7899177D01*
X12094863Y-7899482D01*
X12095145Y-7899825D01*
X12095382Y-7900201D01*
X12095631Y-7900417D01*
X12096418Y-7901376D01*
X12101180Y-7906138D01*
X12102139Y-7906925D01*
X12102355Y-7907174D01*
X12102730Y-7907410D01*
X12103074Y-7907692D01*
X12103379Y-7907819D01*
X12104428Y-7908479D01*
X12113952Y-7913241D01*
X12114131Y-7913309D01*
X12114203Y-7913363D01*
X12115226Y-7913729D01*
X12116241Y-7914117D01*
X12116331Y-7914123D01*
X12116511Y-7914188D01*
X12134227Y-7918617D01*
X12140709Y-7921858D01*
X12142603Y-7923751D01*
X12145138Y-7928821D01*
X12145138Y-7932443D01*
X12142602Y-7937514D01*
X12140709Y-7939407D01*
X12135639Y-7941942D01*
X12116809Y-7941942D01*
X12104448Y-7937821D01*
X12102058Y-7937278D01*
X12097193Y-7937624D01*
X12092831Y-7939805D01*
X12089635Y-7943490D01*
X12088093Y-7948117D01*
X12088439Y-7952981D01*
X12090620Y-7957344D01*
X12094305Y-7960539D01*
X12096542Y-7961538D01*
X12110828Y-7966300D01*
X12112037Y-7966575D01*
X12112342Y-7966702D01*
X12112784Y-7966745D01*
X12113217Y-7966844D01*
X12113546Y-7966820D01*
X12114781Y-7966942D01*
X12138590Y-7966942D01*
X12141029Y-7966702D01*
X12141443Y-7966530D01*
X12141892Y-7966498D01*
X12144180Y-7965622D01*
X12153704Y-7960860D01*
X12154754Y-7960200D01*
X12155059Y-7960073D01*
X12155402Y-7959791D01*
X12155778Y-7959555D01*
X12155994Y-7959305D01*
X12156953Y-7958519D01*
X12161715Y-7953757D01*
X12162501Y-7952798D01*
X12162751Y-7952582D01*
X12162987Y-7952206D01*
X12163269Y-7951862D01*
X12163395Y-7951558D01*
X12164056Y-7950508D01*
X12168818Y-7940984D01*
X12169694Y-7938696D01*
X12169726Y-7938248D01*
X12169897Y-7937833D01*
X12170138Y-7935394D01*
X12170138Y-7925870D01*
X12169897Y-7923432D01*
X12169726Y-7923017D01*
X12169694Y-7922569D01*
X12168818Y-7920280D01*
X12164056Y-7910756D01*
X12163395Y-7909707D01*
X12163269Y-7909402D01*
X12162987Y-7909058D01*
X12162751Y-7908683D01*
X12162501Y-7908466D01*
X12161715Y-7907508D01*
X12156953Y-7902746D01*
X12155994Y-7901959D01*
X12155778Y-7901710D01*
X12155402Y-7901473D01*
X12155058Y-7901191D01*
X12154754Y-7901065D01*
X12153704Y-7900404D01*
X12147493Y-7897299D01*
X12183233Y-7897299D01*
X12183233Y-7911585D01*
X12183275Y-7912010D01*
X12183248Y-7912192D01*
X12183383Y-7913105D01*
X12183473Y-7914023D01*
X12183544Y-7914193D01*
X12183606Y-7914616D01*
X12188368Y-7933664D01*
X12188432Y-7933844D01*
X12188439Y-7933934D01*
X12188827Y-7934948D01*
X12189193Y-7935971D01*
X12189246Y-7936044D01*
X12189315Y-7936222D01*
X12194076Y-7945746D01*
X12194737Y-7946796D01*
X12194863Y-7947101D01*
X12195145Y-7947444D01*
X12195382Y-7947820D01*
X12195631Y-7948036D01*
X12196418Y-7948995D01*
X12205942Y-7958519D01*
X12207836Y-7960073D01*
X12208251Y-7960245D01*
X12208590Y-7960539D01*
X12210828Y-7961538D01*
X12225113Y-7966300D01*
X12226323Y-7966575D01*
X12226628Y-7966702D01*
X12227070Y-7966745D01*
X12227503Y-7966844D01*
X12227832Y-7966820D01*
X12229066Y-7966942D01*
X12238590Y-7966942D01*
X12239824Y-7966820D01*
X12240153Y-7966844D01*
X12240586Y-7966745D01*
X12241029Y-7966702D01*
X12241334Y-7966575D01*
X12242543Y-7966300D01*
X12256829Y-7961539D01*
X12259066Y-7960539D01*
X12259405Y-7960245D01*
X12259820Y-7960073D01*
X12261715Y-7958519D01*
X12266477Y-7953757D01*
X12268031Y-7951862D01*
X12269897Y-7947357D01*
X12269897Y-7942479D01*
X12268031Y-7937973D01*
X12264582Y-7934525D01*
X12260076Y-7932658D01*
X12255199Y-7932658D01*
X12250693Y-7934525D01*
X12248799Y-7936079D01*
X12246123Y-7938755D01*
X12236562Y-7941942D01*
X12231095Y-7941942D01*
X12221533Y-7938755D01*
X12215530Y-7932751D01*
X12212289Y-7926270D01*
X12208233Y-7910046D01*
X12208233Y-7898838D01*
X12212289Y-7882614D01*
X12215530Y-7876132D01*
X12221533Y-7870129D01*
X12231095Y-7866942D01*
X12236562Y-7866942D01*
X12246123Y-7870129D01*
X12248799Y-7872804D01*
X12250693Y-7874359D01*
X12255199Y-7876225D01*
X12260076Y-7876225D01*
X12264582Y-7874359D01*
X12268031Y-7870910D01*
X12269897Y-7866404D01*
X12269897Y-7861527D01*
X12268031Y-7857021D01*
X12266476Y-7855127D01*
X12265792Y-7854442D01*
X12287995Y-7854442D01*
X12287995Y-7954442D01*
X12288235Y-7956880D01*
X12290101Y-7961386D01*
X12293550Y-7964835D01*
X12298056Y-7966702D01*
X12302933Y-7966702D01*
X12307439Y-7964835D01*
X12310888Y-7961386D01*
X12312755Y-7956880D01*
X12312995Y-7954442D01*
X12312995Y-7916762D01*
X12313428Y-7916329D01*
X12347638Y-7961942D01*
X12349293Y-7963749D01*
X12353490Y-7966234D01*
X12358318Y-7966923D01*
X12363043Y-7965713D01*
X12366944Y-7962787D01*
X12369429Y-7958590D01*
X12370119Y-7953762D01*
X12368909Y-7949037D01*
X12367638Y-7946942D01*
X12331285Y-7898472D01*
X12366476Y-7863281D01*
X12368031Y-7861387D01*
X12369897Y-7856881D01*
X12369897Y-7852003D01*
X12368031Y-7847497D01*
X12364582Y-7844049D01*
X12360076Y-7842182D01*
X12355199Y-7842182D01*
X12350693Y-7844049D01*
X12348799Y-7845603D01*
X12312995Y-7881407D01*
X12312995Y-7854442D01*
X12312755Y-7852003D01*
X12310888Y-7847497D01*
X12307439Y-7844048D01*
X12302933Y-7842182D01*
X12298056Y-7842182D01*
X12293550Y-7844048D01*
X12290101Y-7847497D01*
X12288235Y-7852003D01*
X12287995Y-7854442D01*
X12265792Y-7854442D01*
X12261715Y-7850365D01*
X12259820Y-7848810D01*
X12259405Y-7848639D01*
X12259066Y-7848344D01*
X12256829Y-7847345D01*
X12242543Y-7842583D01*
X12241334Y-7842308D01*
X12241029Y-7842182D01*
X12240586Y-7842138D01*
X12240153Y-7842040D01*
X12239824Y-7842063D01*
X12238590Y-7841942D01*
X12229066Y-7841942D01*
X12227832Y-7842063D01*
X12227503Y-7842040D01*
X12227070Y-7842138D01*
X12226628Y-7842182D01*
X12226323Y-7842308D01*
X12225113Y-7842583D01*
X12210828Y-7847345D01*
X12208590Y-7848344D01*
X12208251Y-7848639D01*
X12207836Y-7848810D01*
X12205942Y-7850365D01*
X12196418Y-7859889D01*
X12195631Y-7860847D01*
X12195382Y-7861064D01*
X12195145Y-7861440D01*
X12194863Y-7861783D01*
X12194737Y-7862088D01*
X12194076Y-7863137D01*
X12189315Y-7872661D01*
X12189246Y-7872840D01*
X12189193Y-7872912D01*
X12188827Y-7873935D01*
X12188439Y-7874950D01*
X12188432Y-7875040D01*
X12188368Y-7875220D01*
X12183606Y-7894267D01*
X12183544Y-7894690D01*
X12183473Y-7894860D01*
X12183383Y-7895778D01*
X12183248Y-7896691D01*
X12183275Y-7896873D01*
X12183233Y-7897299D01*
X12147493Y-7897299D01*
X12144180Y-7895642D01*
X12144002Y-7895574D01*
X12143929Y-7895520D01*
X12142906Y-7895155D01*
X12141892Y-7894767D01*
X12141802Y-7894760D01*
X12141622Y-7894696D01*
X12123905Y-7890267D01*
X12117423Y-7887026D01*
X12115530Y-7885133D01*
X12112995Y-7880062D01*
X12112995Y-7876440D01*
X12115530Y-7871370D01*
X12117423Y-7869477D01*
X12122493Y-7866942D01*
X12141324Y-7866942D01*
X12153685Y-7871062D01*
X12156074Y-7871606D01*
X12160939Y-7871260D01*
X12165302Y-7869079D01*
X12168497Y-7865394D01*
X12170039Y-7860767D01*
X12169694Y-7855902D01*
X12167513Y-7851540D01*
X12163828Y-7848344D01*
X12161590Y-7847345D01*
X12147305Y-7842583D01*
X12146096Y-7842308D01*
X12145791Y-7842182D01*
X12145348Y-7842138D01*
X12144915Y-7842040D01*
X12144586Y-7842063D01*
X12143352Y-7841942D01*
X12119542Y-7841942D01*
X12117104Y-7842182D01*
X12116689Y-7842354D01*
X12116241Y-7842386D01*
X12113952Y-7843262D01*
X12104428Y-7848023D01*
X12103379Y-7848684D01*
X12103074Y-7848810D01*
X12102730Y-7849092D01*
X12102355Y-7849329D01*
X12102139Y-7849578D01*
X12101180Y-7850365D01*
X12096418Y-7855127D01*
X12095631Y-7856085D01*
X12095382Y-7856302D01*
X12095145Y-7856678D01*
X12094863Y-7857021D01*
X12094737Y-7857326D01*
X12094076Y-7858376D01*
X12089315Y-7867899D01*
X12088439Y-7870188D01*
X12088407Y-7870636D01*
X12088235Y-7871051D01*
X12087995Y-7873489D01*
X12075495Y-7873489D01*
X12075495Y-7829442D01*
X12382619Y-7829442D01*
X12382619Y-7979442D01*
G37*
G36*
X12136600Y-8124129D02*
G01*
X12142602Y-8130132D01*
X12145844Y-8136614D01*
X12149900Y-8152838D01*
X12149900Y-8164046D01*
X12145844Y-8180269D01*
X12142603Y-8186751D01*
X12136600Y-8192755D01*
X12127038Y-8195942D01*
X12117757Y-8195942D01*
X12117757Y-8120942D01*
X12127038Y-8120942D01*
X12136600Y-8124129D01*
G37*
G36*
X12293090Y-8123477D02*
G01*
X12298731Y-8129118D01*
X12302280Y-8143314D01*
X12302280Y-8173570D01*
X12298731Y-8187765D01*
X12293090Y-8193407D01*
X12288020Y-8195942D01*
X12274874Y-8195942D01*
X12269804Y-8193407D01*
X12264163Y-8187765D01*
X12260614Y-8173570D01*
X12260614Y-8143314D01*
X12264163Y-8129118D01*
X12269804Y-8123477D01*
X12274874Y-8120942D01*
X12288020Y-8120942D01*
X12293090Y-8123477D01*
G37*
G36*
X12339780Y-8233442D02*
G01*
X12080257Y-8233442D01*
X12080257Y-8108442D01*
X12092757Y-8108442D01*
X12092757Y-8208442D01*
X12092997Y-8210880D01*
X12094863Y-8215386D01*
X12098312Y-8218835D01*
X12102818Y-8220702D01*
X12105257Y-8220942D01*
X12129066Y-8220942D01*
X12130301Y-8220820D01*
X12130630Y-8220844D01*
X12131063Y-8220745D01*
X12131505Y-8220702D01*
X12131810Y-8220575D01*
X12133019Y-8220300D01*
X12147305Y-8215539D01*
X12149542Y-8214539D01*
X12149881Y-8214245D01*
X12150297Y-8214073D01*
X12152191Y-8212519D01*
X12161715Y-8202995D01*
X12162501Y-8202036D01*
X12162751Y-8201820D01*
X12162987Y-8201444D01*
X12163269Y-8201101D01*
X12163396Y-8200795D01*
X12164056Y-8199746D01*
X12168818Y-8190222D01*
X12168886Y-8190044D01*
X12168940Y-8189971D01*
X12169305Y-8188948D01*
X12169694Y-8187934D01*
X12169700Y-8187844D01*
X12169764Y-8187664D01*
X12174526Y-8168616D01*
X12174589Y-8168193D01*
X12174659Y-8168023D01*
X12174750Y-8167105D01*
X12174885Y-8166192D01*
X12174858Y-8166010D01*
X12174900Y-8165585D01*
X12174900Y-8151299D01*
X12174858Y-8150873D01*
X12174885Y-8150691D01*
X12174750Y-8149778D01*
X12174659Y-8148860D01*
X12174589Y-8148690D01*
X12174526Y-8148267D01*
X12169764Y-8129220D01*
X12169700Y-8129040D01*
X12169694Y-8128950D01*
X12169305Y-8127935D01*
X12168940Y-8126912D01*
X12168886Y-8126840D01*
X12168818Y-8126661D01*
X12164056Y-8117137D01*
X12163395Y-8116088D01*
X12163269Y-8115783D01*
X12162987Y-8115440D01*
X12162751Y-8115064D01*
X12162501Y-8114847D01*
X12161715Y-8113889D01*
X12156268Y-8108442D01*
X12192757Y-8108442D01*
X12192757Y-8208442D01*
X12192997Y-8210880D01*
X12194863Y-8215386D01*
X12198312Y-8218835D01*
X12202818Y-8220702D01*
X12207695Y-8220702D01*
X12212201Y-8218835D01*
X12215650Y-8215386D01*
X12217517Y-8210880D01*
X12217757Y-8208442D01*
X12217757Y-8141775D01*
X12235614Y-8141775D01*
X12235614Y-8175108D01*
X12235656Y-8175534D01*
X12235629Y-8175716D01*
X12235764Y-8176629D01*
X12235854Y-8177547D01*
X12235924Y-8177717D01*
X12235987Y-8178140D01*
X12240749Y-8197188D01*
X12241573Y-8199495D01*
X12242127Y-8200242D01*
X12242482Y-8201101D01*
X12244037Y-8202995D01*
X12253561Y-8212519D01*
X12254519Y-8213306D01*
X12254736Y-8213555D01*
X12255111Y-8213791D01*
X12255455Y-8214073D01*
X12255760Y-8214200D01*
X12256809Y-8214860D01*
X12266333Y-8219622D01*
X12268622Y-8220498D01*
X12269070Y-8220530D01*
X12269485Y-8220702D01*
X12271923Y-8220942D01*
X12290971Y-8220942D01*
X12293410Y-8220702D01*
X12293824Y-8220530D01*
X12294273Y-8220498D01*
X12296561Y-8219622D01*
X12306085Y-8214860D01*
X12307134Y-8214200D01*
X12307439Y-8214073D01*
X12307783Y-8213791D01*
X12308159Y-8213555D01*
X12308375Y-8213306D01*
X12309334Y-8212519D01*
X12318857Y-8202995D01*
X12320412Y-8201101D01*
X12320768Y-8200242D01*
X12321321Y-8199495D01*
X12322145Y-8197188D01*
X12326907Y-8178140D01*
X12326970Y-8177717D01*
X12327040Y-8177547D01*
X12327131Y-8176629D01*
X12327266Y-8175716D01*
X12327238Y-8175534D01*
X12327280Y-8175108D01*
X12327280Y-8141775D01*
X12327238Y-8141350D01*
X12327266Y-8141167D01*
X12327131Y-8140254D01*
X12327040Y-8139337D01*
X12326970Y-8139166D01*
X12326907Y-8138743D01*
X12322145Y-8119696D01*
X12321321Y-8117388D01*
X12320767Y-8116641D01*
X12320412Y-8115783D01*
X12318857Y-8113889D01*
X12309334Y-8104365D01*
X12308375Y-8103578D01*
X12308159Y-8103329D01*
X12307782Y-8103092D01*
X12307439Y-8102810D01*
X12307135Y-8102684D01*
X12306085Y-8102023D01*
X12296561Y-8097262D01*
X12294273Y-8096386D01*
X12293824Y-8096354D01*
X12293410Y-8096182D01*
X12290971Y-8095942D01*
X12271923Y-8095942D01*
X12269485Y-8096182D01*
X12269070Y-8096354D01*
X12268622Y-8096386D01*
X12266333Y-8097262D01*
X12256809Y-8102023D01*
X12255760Y-8102684D01*
X12255455Y-8102810D01*
X12255112Y-8103092D01*
X12254736Y-8103329D01*
X12254519Y-8103578D01*
X12253561Y-8104365D01*
X12244037Y-8113889D01*
X12242482Y-8115783D01*
X12242127Y-8116641D01*
X12241573Y-8117388D01*
X12240749Y-8119696D01*
X12235987Y-8138743D01*
X12235924Y-8139166D01*
X12235854Y-8139337D01*
X12235764Y-8140255D01*
X12235629Y-8141168D01*
X12235656Y-8141350D01*
X12235614Y-8141775D01*
X12217757Y-8141775D01*
X12217757Y-8108442D01*
X12217517Y-8106003D01*
X12215650Y-8101497D01*
X12212201Y-8098048D01*
X12207695Y-8096182D01*
X12202818Y-8096182D01*
X12198312Y-8098048D01*
X12194863Y-8101497D01*
X12192997Y-8106003D01*
X12192757Y-8108442D01*
X12156268Y-8108442D01*
X12152191Y-8104365D01*
X12150297Y-8102810D01*
X12149882Y-8102639D01*
X12149542Y-8102344D01*
X12147305Y-8101345D01*
X12133019Y-8096583D01*
X12131810Y-8096308D01*
X12131505Y-8096182D01*
X12131063Y-8096138D01*
X12130630Y-8096040D01*
X12130301Y-8096063D01*
X12129066Y-8095942D01*
X12105257Y-8095942D01*
X12102818Y-8096182D01*
X12098312Y-8098048D01*
X12094863Y-8101497D01*
X12092997Y-8106003D01*
X12092757Y-8108442D01*
X12080257Y-8108442D01*
X12080257Y-8083442D01*
X12339780Y-8083442D01*
X12339780Y-8233442D01*
G37*
G36*
X12145471Y-8374937D02*
G01*
X12147364Y-8376830D01*
X12149900Y-8381900D01*
X12149900Y-8390284D01*
X12147364Y-8395354D01*
X12145471Y-8397248D01*
X12140401Y-8399783D01*
X12117757Y-8399783D01*
X12117757Y-8372402D01*
X12140401Y-8372402D01*
X12145471Y-8374937D01*
G37*
G36*
X12368112Y-8484902D02*
G01*
X12080257Y-8484902D01*
X12080257Y-8359902D01*
X12092757Y-8359902D01*
X12092757Y-8459902D01*
X12092997Y-8462341D01*
X12094863Y-8466847D01*
X12098312Y-8470295D01*
X12102818Y-8472162D01*
X12107695Y-8472162D01*
X12112201Y-8470295D01*
X12115650Y-8466847D01*
X12117517Y-8462341D01*
X12117757Y-8459902D01*
X12117757Y-8424783D01*
X12122558Y-8424783D01*
X12152159Y-8467070D01*
X12153754Y-8468930D01*
X12157867Y-8471551D01*
X12162671Y-8472399D01*
X12167432Y-8471344D01*
X12171428Y-8468547D01*
X12174049Y-8464434D01*
X12174897Y-8459631D01*
X12173842Y-8454869D01*
X12172640Y-8452734D01*
X12151319Y-8422275D01*
X12158466Y-8418701D01*
X12159516Y-8418040D01*
X12159820Y-8417914D01*
X12160163Y-8417633D01*
X12160540Y-8417396D01*
X12160756Y-8417146D01*
X12161715Y-8416360D01*
X12166476Y-8411598D01*
X12167263Y-8410639D01*
X12167513Y-8410423D01*
X12167749Y-8410047D01*
X12168031Y-8409704D01*
X12168157Y-8409399D01*
X12168818Y-8408349D01*
X12173580Y-8398825D01*
X12174456Y-8396537D01*
X12174487Y-8396089D01*
X12174659Y-8395674D01*
X12174900Y-8393235D01*
X12174900Y-8378949D01*
X12187995Y-8378949D01*
X12187995Y-8388473D01*
X12188235Y-8390912D01*
X12188407Y-8391327D01*
X12188439Y-8391775D01*
X12189315Y-8394064D01*
X12194076Y-8403587D01*
X12194737Y-8404637D01*
X12194863Y-8404942D01*
X12195145Y-8405285D01*
X12195382Y-8405661D01*
X12195631Y-8405877D01*
X12196418Y-8406836D01*
X12201180Y-8411598D01*
X12202139Y-8412385D01*
X12202355Y-8412634D01*
X12202730Y-8412870D01*
X12203074Y-8413152D01*
X12203379Y-8413279D01*
X12204428Y-8413939D01*
X12213952Y-8418701D01*
X12214131Y-8418770D01*
X12214203Y-8418823D01*
X12215226Y-8419189D01*
X12216241Y-8419577D01*
X12216331Y-8419583D01*
X12216511Y-8419648D01*
X12234227Y-8424077D01*
X12240709Y-8427318D01*
X12242603Y-8429211D01*
X12245138Y-8434281D01*
X12245138Y-8437903D01*
X12242602Y-8442974D01*
X12240709Y-8444867D01*
X12235639Y-8447402D01*
X12216809Y-8447402D01*
X12204448Y-8443282D01*
X12202058Y-8442738D01*
X12197193Y-8443084D01*
X12192831Y-8445265D01*
X12189635Y-8448950D01*
X12188093Y-8453577D01*
X12188439Y-8458442D01*
X12190620Y-8462804D01*
X12194305Y-8466000D01*
X12196542Y-8466999D01*
X12210828Y-8471760D01*
X12212037Y-8472035D01*
X12212342Y-8472162D01*
X12212784Y-8472205D01*
X12213217Y-8472304D01*
X12213546Y-8472280D01*
X12214781Y-8472402D01*
X12238590Y-8472402D01*
X12241029Y-8472162D01*
X12241443Y-8471990D01*
X12241892Y-8471958D01*
X12244180Y-8471082D01*
X12253704Y-8466320D01*
X12254754Y-8465660D01*
X12255059Y-8465533D01*
X12255402Y-8465251D01*
X12255778Y-8465015D01*
X12255994Y-8464766D01*
X12256953Y-8463979D01*
X12261715Y-8459217D01*
X12262501Y-8458258D01*
X12262751Y-8458042D01*
X12262987Y-8457666D01*
X12263269Y-8457323D01*
X12263395Y-8457018D01*
X12264056Y-8455968D01*
X12268818Y-8446444D01*
X12269694Y-8444156D01*
X12269726Y-8443708D01*
X12269897Y-8443293D01*
X12270138Y-8440854D01*
X12270138Y-8431330D01*
X12269897Y-8428892D01*
X12269726Y-8428477D01*
X12269694Y-8428029D01*
X12268818Y-8425740D01*
X12264056Y-8416216D01*
X12263395Y-8415167D01*
X12263269Y-8414862D01*
X12262987Y-8414518D01*
X12262751Y-8414143D01*
X12262501Y-8413927D01*
X12261715Y-8412968D01*
X12256953Y-8408206D01*
X12255994Y-8407419D01*
X12255778Y-8407170D01*
X12255402Y-8406933D01*
X12255058Y-8406651D01*
X12254754Y-8406525D01*
X12253704Y-8405864D01*
X12244180Y-8401103D01*
X12244002Y-8401034D01*
X12243929Y-8400981D01*
X12242906Y-8400615D01*
X12241892Y-8400227D01*
X12241802Y-8400220D01*
X12241622Y-8400156D01*
X12223905Y-8395727D01*
X12217423Y-8392486D01*
X12215530Y-8390593D01*
X12212995Y-8385522D01*
X12212995Y-8381900D01*
X12215530Y-8376830D01*
X12217423Y-8374937D01*
X12222493Y-8372402D01*
X12241324Y-8372402D01*
X12253685Y-8376522D01*
X12256074Y-8377066D01*
X12260939Y-8376720D01*
X12265302Y-8374539D01*
X12268497Y-8370854D01*
X12270039Y-8366227D01*
X12269694Y-8361362D01*
X12267744Y-8357463D01*
X12273949Y-8357463D01*
X12273949Y-8362340D01*
X12275816Y-8366846D01*
X12279265Y-8370295D01*
X12283771Y-8372162D01*
X12286209Y-8372402D01*
X12302281Y-8372402D01*
X12302281Y-8459902D01*
X12302521Y-8462341D01*
X12304387Y-8466847D01*
X12307836Y-8470295D01*
X12312342Y-8472162D01*
X12317219Y-8472162D01*
X12321725Y-8470295D01*
X12325174Y-8466847D01*
X12327040Y-8462341D01*
X12327281Y-8459902D01*
X12327281Y-8372402D01*
X12343352Y-8372402D01*
X12345791Y-8372162D01*
X12350297Y-8370295D01*
X12353745Y-8366846D01*
X12355612Y-8362340D01*
X12355612Y-8357463D01*
X12353745Y-8352957D01*
X12350297Y-8349508D01*
X12345791Y-8347642D01*
X12343352Y-8347402D01*
X12286209Y-8347402D01*
X12283771Y-8347642D01*
X12279265Y-8349508D01*
X12275816Y-8352957D01*
X12273949Y-8357463D01*
X12267744Y-8357463D01*
X12267513Y-8357000D01*
X12263828Y-8353804D01*
X12261590Y-8352805D01*
X12247305Y-8348043D01*
X12246096Y-8347768D01*
X12245791Y-8347642D01*
X12245348Y-8347598D01*
X12244915Y-8347500D01*
X12244586Y-8347523D01*
X12243352Y-8347402D01*
X12219542Y-8347402D01*
X12217104Y-8347642D01*
X12216689Y-8347814D01*
X12216241Y-8347846D01*
X12213952Y-8348722D01*
X12204428Y-8353483D01*
X12203379Y-8354144D01*
X12203074Y-8354270D01*
X12202730Y-8354552D01*
X12202355Y-8354789D01*
X12202139Y-8355038D01*
X12201180Y-8355825D01*
X12196418Y-8360587D01*
X12195631Y-8361545D01*
X12195382Y-8361762D01*
X12195145Y-8362138D01*
X12194863Y-8362481D01*
X12194737Y-8362786D01*
X12194076Y-8363836D01*
X12189315Y-8373359D01*
X12188439Y-8375648D01*
X12188407Y-8376096D01*
X12188235Y-8376511D01*
X12187995Y-8378949D01*
X12174900Y-8378949D01*
X12174659Y-8376511D01*
X12174487Y-8376096D01*
X12174456Y-8375648D01*
X12173580Y-8373359D01*
X12168818Y-8363835D01*
X12168157Y-8362786D01*
X12168031Y-8362481D01*
X12167749Y-8362137D01*
X12167513Y-8361762D01*
X12167263Y-8361546D01*
X12166476Y-8360587D01*
X12161715Y-8355825D01*
X12160756Y-8355038D01*
X12160540Y-8354789D01*
X12160163Y-8354552D01*
X12159820Y-8354270D01*
X12159516Y-8354144D01*
X12158466Y-8353483D01*
X12148942Y-8348722D01*
X12146654Y-8347846D01*
X12146205Y-8347814D01*
X12145791Y-8347642D01*
X12143352Y-8347402D01*
X12105257Y-8347402D01*
X12102818Y-8347642D01*
X12098312Y-8349508D01*
X12094863Y-8352957D01*
X12092997Y-8357463D01*
X12092757Y-8359902D01*
X12080257Y-8359902D01*
X12080257Y-8334902D01*
X12368112Y-8334902D01*
X12368112Y-8484902D01*
G37*
D12*
G36*
X10635988Y-10381404D02*
G01*
X10609136Y-10372454D01*
X10635988Y-10363503D01*
X10635988Y-10381404D01*
G37*
G36*
X10716585Y-10444003D02*
G01*
X10531820Y-10444003D01*
X10531820Y-10370578D01*
X10546820Y-10370578D01*
X10546953Y-10372454D01*
X10546820Y-10374330D01*
X10547159Y-10375346D01*
X10547235Y-10376416D01*
X10548076Y-10378098D01*
X10548671Y-10379882D01*
X10549373Y-10380692D01*
X10549852Y-10381650D01*
X10551273Y-10382883D01*
X10552506Y-10384304D01*
X10553464Y-10384783D01*
X10554274Y-10385485D01*
X10556959Y-10386684D01*
X10681959Y-10428351D01*
X10684826Y-10429003D01*
X10690664Y-10428588D01*
X10695899Y-10425970D01*
X10699734Y-10421549D01*
X10701585Y-10415996D01*
X10701170Y-10410158D01*
X10698552Y-10404924D01*
X10694131Y-10401089D01*
X10691446Y-10399890D01*
X10665988Y-10391404D01*
X10665988Y-10353503D01*
X10691446Y-10345017D01*
X10694131Y-10343818D01*
X10698552Y-10339984D01*
X10701170Y-10334749D01*
X10701585Y-10328911D01*
X10699734Y-10323359D01*
X10695899Y-10318937D01*
X10690664Y-10316320D01*
X10684826Y-10315905D01*
X10681959Y-10316557D01*
X10556959Y-10358223D01*
X10554274Y-10359422D01*
X10553464Y-10360124D01*
X10552506Y-10360604D01*
X10551273Y-10362025D01*
X10549852Y-10363257D01*
X10549373Y-10364215D01*
X10548671Y-10365025D01*
X10548076Y-10366809D01*
X10547235Y-10368492D01*
X10547159Y-10369561D01*
X10546820Y-10370578D01*
X10531820Y-10370578D01*
X10531820Y-10253406D01*
X10588369Y-10253406D01*
X10588369Y-10265311D01*
X10588657Y-10268237D01*
X10588863Y-10268735D01*
X10588902Y-10269273D01*
X10589953Y-10272019D01*
X10593190Y-10278494D01*
X10590897Y-10280787D01*
X10588657Y-10286194D01*
X10588657Y-10292047D01*
X10590897Y-10297454D01*
X10595035Y-10301592D01*
X10600443Y-10303832D01*
X10603369Y-10304120D01*
X10686702Y-10304120D01*
X10689629Y-10303832D01*
X10695036Y-10301592D01*
X10699174Y-10297454D01*
X10701414Y-10292047D01*
X10701414Y-10286194D01*
X10699174Y-10280787D01*
X10695036Y-10276648D01*
X10689629Y-10274408D01*
X10686702Y-10274120D01*
X10630719Y-10274120D01*
X10624159Y-10270840D01*
X10621649Y-10268330D01*
X10618369Y-10261770D01*
X10618369Y-10253406D01*
X10618081Y-10250480D01*
X10615841Y-10245072D01*
X10611703Y-10240934D01*
X10606295Y-10238694D01*
X10600443Y-10238694D01*
X10595035Y-10240934D01*
X10590897Y-10245072D01*
X10588657Y-10250480D01*
X10588369Y-10253406D01*
X10531820Y-10253406D01*
X10531820Y-10122454D01*
X10588369Y-10122454D01*
X10588369Y-10140311D01*
X10588657Y-10143237D01*
X10588864Y-10143735D01*
X10588902Y-10144273D01*
X10589953Y-10147019D01*
X10595527Y-10158168D01*
X10589953Y-10169317D01*
X10588902Y-10172063D01*
X10588863Y-10172601D01*
X10588657Y-10173099D01*
X10588369Y-10176025D01*
X10588369Y-10193882D01*
X10588657Y-10196809D01*
X10588863Y-10197306D01*
X10588902Y-10197844D01*
X10589953Y-10200590D01*
X10591206Y-10203097D01*
X10590897Y-10203406D01*
X10588657Y-10208813D01*
X10588657Y-10214666D01*
X10590897Y-10220073D01*
X10595035Y-10224211D01*
X10600443Y-10226451D01*
X10603369Y-10226739D01*
X10686702Y-10226739D01*
X10689629Y-10226451D01*
X10695036Y-10224211D01*
X10699174Y-10220073D01*
X10701414Y-10214666D01*
X10701414Y-10208813D01*
X10699174Y-10203406D01*
X10695036Y-10199267D01*
X10689629Y-10197027D01*
X10686702Y-10196739D01*
X10621568Y-10196739D01*
X10618369Y-10190341D01*
X10618369Y-10179566D01*
X10620502Y-10175301D01*
X10624767Y-10173168D01*
X10686702Y-10173168D01*
X10689629Y-10172880D01*
X10695036Y-10170640D01*
X10699174Y-10166501D01*
X10701414Y-10161094D01*
X10701414Y-10155241D01*
X10699174Y-10149834D01*
X10695036Y-10145696D01*
X10689629Y-10143456D01*
X10686702Y-10143168D01*
X10624767Y-10143168D01*
X10620502Y-10141035D01*
X10618369Y-10136770D01*
X10618369Y-10125995D01*
X10620502Y-10121729D01*
X10624767Y-10119596D01*
X10686702Y-10119596D01*
X10689629Y-10119308D01*
X10695036Y-10117068D01*
X10699174Y-10112930D01*
X10701414Y-10107523D01*
X10701414Y-10101670D01*
X10699174Y-10096263D01*
X10695036Y-10092124D01*
X10689629Y-10089885D01*
X10686702Y-10089596D01*
X10621226Y-10089596D01*
X10618300Y-10089885D01*
X10617802Y-10090091D01*
X10617264Y-10090129D01*
X10614518Y-10091180D01*
X10602613Y-10097132D01*
X10602124Y-10097440D01*
X10601893Y-10097517D01*
X10601606Y-10097767D01*
X10600125Y-10098699D01*
X10598892Y-10100120D01*
X10597472Y-10101352D01*
X10596539Y-10102833D01*
X10596290Y-10103120D01*
X10596213Y-10103351D01*
X10595905Y-10103841D01*
X10589953Y-10115745D01*
X10588902Y-10118492D01*
X10588864Y-10119029D01*
X10588657Y-10119527D01*
X10588369Y-10122454D01*
X10531820Y-10122454D01*
X10531820Y-9899289D01*
X10576752Y-9899289D01*
X10576752Y-9905142D01*
X10578992Y-9910549D01*
X10583131Y-9914687D01*
X10588538Y-9916927D01*
X10591464Y-9917215D01*
X10624083Y-9917215D01*
X10624083Y-9949834D01*
X10624372Y-9952761D01*
X10626611Y-9958168D01*
X10630750Y-9962306D01*
X10636157Y-9964546D01*
X10642010Y-9964546D01*
X10647417Y-9962306D01*
X10651555Y-9958168D01*
X10653795Y-9952761D01*
X10654083Y-9949834D01*
X10654083Y-9917215D01*
X10686702Y-9917215D01*
X10689629Y-9916927D01*
X10695036Y-9914687D01*
X10699174Y-9910549D01*
X10701414Y-9905142D01*
X10701414Y-9899289D01*
X10699174Y-9893882D01*
X10695036Y-9889743D01*
X10689629Y-9887504D01*
X10686702Y-9887215D01*
X10654083Y-9887215D01*
X10654083Y-9854596D01*
X10653795Y-9851670D01*
X10651555Y-9846263D01*
X10647417Y-9842124D01*
X10642010Y-9839885D01*
X10636157Y-9839885D01*
X10630750Y-9842124D01*
X10626611Y-9846263D01*
X10624372Y-9851670D01*
X10624083Y-9854596D01*
X10624083Y-9887215D01*
X10591464Y-9887215D01*
X10588538Y-9887504D01*
X10583131Y-9889743D01*
X10578992Y-9893882D01*
X10576752Y-9899289D01*
X10531820Y-9899289D01*
X10531820Y-9604596D01*
X10624083Y-9604596D01*
X10624083Y-9699834D01*
X10624372Y-9702761D01*
X10626611Y-9708168D01*
X10630750Y-9712306D01*
X10636157Y-9714546D01*
X10642010Y-9714546D01*
X10647417Y-9712306D01*
X10651555Y-9708168D01*
X10653795Y-9702761D01*
X10654083Y-9699834D01*
X10654083Y-9604596D01*
X10653795Y-9601670D01*
X10651555Y-9596263D01*
X10647417Y-9592124D01*
X10642010Y-9589885D01*
X10636157Y-9589885D01*
X10630750Y-9592124D01*
X10626611Y-9596263D01*
X10624372Y-9601670D01*
X10624083Y-9604596D01*
X10531820Y-9604596D01*
X10531820Y-9574885D01*
X10716585Y-9574885D01*
X10716585Y-10444003D01*
G37*
G36*
X11891628Y-9320753D02*
G01*
X11894138Y-9323263D01*
X11897418Y-9329823D01*
X11897418Y-9358901D01*
X11861942Y-9358901D01*
X11861942Y-9329823D01*
X11865222Y-9323263D01*
X11867732Y-9320753D01*
X11874293Y-9317473D01*
X11885068Y-9317473D01*
X11891628Y-9320753D01*
G37*
G36*
X12001942Y-9403901D02*
G01*
X11816942Y-9403901D01*
X11816942Y-9326282D01*
X11831942Y-9326282D01*
X11831942Y-9373901D01*
X11832230Y-9376828D01*
X11834470Y-9382235D01*
X11838609Y-9386373D01*
X11844016Y-9388613D01*
X11846942Y-9388901D01*
X11971942Y-9388901D01*
X11974869Y-9388613D01*
X11980276Y-9386373D01*
X11984414Y-9382235D01*
X11986654Y-9376828D01*
X11986654Y-9370975D01*
X11984414Y-9365568D01*
X11980276Y-9361429D01*
X11974869Y-9359189D01*
X11971942Y-9358901D01*
X11927418Y-9358901D01*
X11927418Y-9326282D01*
X11927130Y-9323356D01*
X11926924Y-9322858D01*
X11926886Y-9322320D01*
X11925835Y-9319574D01*
X11919882Y-9307669D01*
X11919090Y-9306410D01*
X11918938Y-9306044D01*
X11918600Y-9305632D01*
X11918316Y-9305181D01*
X11918017Y-9304921D01*
X11917073Y-9303771D01*
X11911120Y-9297819D01*
X11909970Y-9296875D01*
X11909711Y-9296575D01*
X11909259Y-9296291D01*
X11908847Y-9295953D01*
X11908481Y-9295801D01*
X11907222Y-9295009D01*
X11895317Y-9289056D01*
X11892571Y-9288005D01*
X11892033Y-9287967D01*
X11891535Y-9287761D01*
X11888609Y-9287473D01*
X11870752Y-9287473D01*
X11867825Y-9287761D01*
X11867328Y-9287967D01*
X11866790Y-9288005D01*
X11864044Y-9289056D01*
X11852139Y-9295009D01*
X11850880Y-9295801D01*
X11850514Y-9295953D01*
X11850101Y-9296291D01*
X11849650Y-9296575D01*
X11849391Y-9296875D01*
X11848241Y-9297818D01*
X11842288Y-9303771D01*
X11841344Y-9304921D01*
X11841045Y-9305181D01*
X11840761Y-9305632D01*
X11840423Y-9306044D01*
X11840271Y-9306410D01*
X11839478Y-9307669D01*
X11833526Y-9319574D01*
X11832475Y-9322320D01*
X11832437Y-9322858D01*
X11832230Y-9323356D01*
X11831942Y-9326282D01*
X11816942Y-9326282D01*
X11816942Y-9183425D01*
X11831942Y-9183425D01*
X11831942Y-9260806D01*
X11832230Y-9263732D01*
X11834470Y-9269140D01*
X11838609Y-9273278D01*
X11844016Y-9275518D01*
X11849869Y-9275518D01*
X11855276Y-9273278D01*
X11859414Y-9269140D01*
X11861654Y-9263732D01*
X11861942Y-9260806D01*
X11861942Y-9216482D01*
X11884684Y-9236380D01*
X11885949Y-9237285D01*
X11886228Y-9237564D01*
X11886492Y-9237673D01*
X11887076Y-9238091D01*
X11889384Y-9238871D01*
X11891635Y-9239804D01*
X11892141Y-9239804D01*
X11892620Y-9239966D01*
X11895052Y-9239804D01*
X11897488Y-9239804D01*
X11897955Y-9239610D01*
X11898460Y-9239576D01*
X11900644Y-9238496D01*
X11902895Y-9237564D01*
X11903253Y-9237206D01*
X11903706Y-9236982D01*
X11905310Y-9235148D01*
X11907033Y-9233425D01*
X11907227Y-9232958D01*
X11907560Y-9232577D01*
X11908341Y-9230269D01*
X11909273Y-9228018D01*
X11909343Y-9227304D01*
X11909435Y-9227033D01*
X11909409Y-9226639D01*
X11909561Y-9225092D01*
X11909561Y-9210776D01*
X11912842Y-9204215D01*
X11915351Y-9201705D01*
X11921912Y-9198425D01*
X11944592Y-9198425D01*
X11951152Y-9201705D01*
X11953662Y-9204215D01*
X11956942Y-9210776D01*
X11956942Y-9239408D01*
X11953662Y-9245968D01*
X11949431Y-9250199D01*
X11947565Y-9252473D01*
X11945326Y-9257880D01*
X11945326Y-9263732D01*
X11947565Y-9269140D01*
X11951704Y-9273278D01*
X11957111Y-9275518D01*
X11962964Y-9275518D01*
X11968371Y-9273278D01*
X11970644Y-9271413D01*
X11976597Y-9265460D01*
X11977541Y-9264310D01*
X11977840Y-9264050D01*
X11978124Y-9263599D01*
X11978462Y-9263187D01*
X11978614Y-9262821D01*
X11979406Y-9261562D01*
X11985359Y-9249657D01*
X11986410Y-9246911D01*
X11986448Y-9246373D01*
X11986654Y-9245875D01*
X11986942Y-9242949D01*
X11986942Y-9207235D01*
X11986654Y-9204308D01*
X11986448Y-9203810D01*
X11986410Y-9203273D01*
X11985359Y-9200527D01*
X11979406Y-9188622D01*
X11978614Y-9187362D01*
X11978462Y-9186996D01*
X11978124Y-9186585D01*
X11977840Y-9186133D01*
X11977540Y-9185873D01*
X11976597Y-9184723D01*
X11970644Y-9178771D01*
X11969494Y-9177827D01*
X11969234Y-9177527D01*
X11968783Y-9177243D01*
X11968371Y-9176905D01*
X11968005Y-9176754D01*
X11966746Y-9175961D01*
X11954841Y-9170009D01*
X11952095Y-9168958D01*
X11951557Y-9168920D01*
X11951059Y-9168713D01*
X11948133Y-9168425D01*
X11918371Y-9168425D01*
X11915444Y-9168713D01*
X11914947Y-9168920D01*
X11914409Y-9168958D01*
X11911663Y-9170009D01*
X11899758Y-9175961D01*
X11898498Y-9176754D01*
X11898132Y-9176905D01*
X11897721Y-9177243D01*
X11897269Y-9177527D01*
X11897010Y-9177827D01*
X11895859Y-9178771D01*
X11889907Y-9184723D01*
X11888963Y-9185873D01*
X11888664Y-9186133D01*
X11888380Y-9186584D01*
X11888042Y-9186996D01*
X11887890Y-9187363D01*
X11887097Y-9188622D01*
X11883616Y-9195583D01*
X11856820Y-9172136D01*
X11855555Y-9171232D01*
X11855276Y-9170953D01*
X11855011Y-9170843D01*
X11854428Y-9170426D01*
X11852119Y-9169646D01*
X11849869Y-9168713D01*
X11849363Y-9168713D01*
X11848883Y-9168551D01*
X11846453Y-9168713D01*
X11844016Y-9168713D01*
X11843548Y-9168907D01*
X11843044Y-9168941D01*
X11840860Y-9170020D01*
X11838609Y-9170953D01*
X11838251Y-9171311D01*
X11837798Y-9171535D01*
X11836193Y-9173369D01*
X11834470Y-9175092D01*
X11834277Y-9175559D01*
X11833943Y-9175940D01*
X11833163Y-9178248D01*
X11832230Y-9180499D01*
X11832160Y-9181212D01*
X11832068Y-9181484D01*
X11832095Y-9181878D01*
X11831942Y-9183425D01*
X11816942Y-9183425D01*
X11816942Y-9153425D01*
X12001942Y-9153425D01*
X12001942Y-9403901D01*
G37*
G36*
X11891628Y-9828753D02*
G01*
X11894138Y-9831263D01*
X11897418Y-9837823D01*
X11897418Y-9866901D01*
X11861942Y-9866901D01*
X11861942Y-9837823D01*
X11865222Y-9831263D01*
X11867732Y-9828753D01*
X11874293Y-9825473D01*
X11885068Y-9825473D01*
X11891628Y-9828753D01*
G37*
G36*
X12001942Y-9911901D02*
G01*
X11816942Y-9911901D01*
X11816942Y-9834282D01*
X11831942Y-9834282D01*
X11831942Y-9881901D01*
X11832230Y-9884828D01*
X11834470Y-9890235D01*
X11838609Y-9894373D01*
X11844016Y-9896613D01*
X11846942Y-9896901D01*
X11971942Y-9896901D01*
X11974869Y-9896613D01*
X11980276Y-9894373D01*
X11984414Y-9890235D01*
X11986654Y-9884828D01*
X11986654Y-9878975D01*
X11984414Y-9873568D01*
X11980276Y-9869429D01*
X11974869Y-9867189D01*
X11971942Y-9866901D01*
X11927418Y-9866901D01*
X11927418Y-9834282D01*
X11927130Y-9831356D01*
X11926924Y-9830858D01*
X11926886Y-9830320D01*
X11925835Y-9827574D01*
X11919882Y-9815669D01*
X11919090Y-9814410D01*
X11918938Y-9814044D01*
X11918600Y-9813632D01*
X11918316Y-9813181D01*
X11918017Y-9812921D01*
X11917073Y-9811771D01*
X11911120Y-9805819D01*
X11909970Y-9804875D01*
X11909711Y-9804575D01*
X11909259Y-9804291D01*
X11908847Y-9803953D01*
X11908481Y-9803801D01*
X11907222Y-9803009D01*
X11895317Y-9797056D01*
X11892571Y-9796005D01*
X11892033Y-9795967D01*
X11891535Y-9795761D01*
X11888609Y-9795473D01*
X11870752Y-9795473D01*
X11867825Y-9795761D01*
X11867328Y-9795967D01*
X11866790Y-9796005D01*
X11864044Y-9797056D01*
X11852139Y-9803009D01*
X11850880Y-9803801D01*
X11850514Y-9803953D01*
X11850101Y-9804291D01*
X11849650Y-9804575D01*
X11849391Y-9804875D01*
X11848241Y-9805818D01*
X11842288Y-9811771D01*
X11841344Y-9812921D01*
X11841045Y-9813181D01*
X11840761Y-9813632D01*
X11840423Y-9814044D01*
X11840271Y-9814410D01*
X11839478Y-9815669D01*
X11833526Y-9827574D01*
X11832475Y-9830320D01*
X11832437Y-9830858D01*
X11832230Y-9831356D01*
X11831942Y-9834282D01*
X11816942Y-9834282D01*
X11816942Y-9715235D01*
X11831942Y-9715235D01*
X11831942Y-9744997D01*
X11832230Y-9747923D01*
X11832437Y-9748421D01*
X11832475Y-9748958D01*
X11833526Y-9751705D01*
X11839478Y-9763610D01*
X11840271Y-9764869D01*
X11840423Y-9765235D01*
X11840761Y-9765647D01*
X11841045Y-9766098D01*
X11841344Y-9766358D01*
X11842288Y-9767508D01*
X11848240Y-9773460D01*
X11850514Y-9775326D01*
X11855921Y-9777565D01*
X11861773Y-9777565D01*
X11867181Y-9775326D01*
X11871319Y-9771187D01*
X11873559Y-9765780D01*
X11873559Y-9759927D01*
X11871319Y-9754520D01*
X11869454Y-9752247D01*
X11865222Y-9748016D01*
X11861942Y-9741455D01*
X11861942Y-9718776D01*
X11865222Y-9712215D01*
X11867732Y-9709705D01*
X11874293Y-9706425D01*
X11880222Y-9706425D01*
X11892411Y-9710488D01*
X11961336Y-9779413D01*
X11963609Y-9781278D01*
X11967432Y-9782862D01*
X11969016Y-9783518D01*
X11969016Y-9783518D01*
X11974869Y-9783518D01*
X11974869Y-9783518D01*
X11977108Y-9782590D01*
X11980276Y-9781278D01*
X11984414Y-9777140D01*
X11985938Y-9773460D01*
X11986654Y-9771732D01*
X11986942Y-9768806D01*
X11986942Y-9691425D01*
X11986654Y-9688499D01*
X11984414Y-9683092D01*
X11980276Y-9678953D01*
X11974869Y-9676713D01*
X11969016Y-9676713D01*
X11963609Y-9678953D01*
X11959470Y-9683092D01*
X11957230Y-9688499D01*
X11956942Y-9691425D01*
X11956942Y-9732593D01*
X11911120Y-9686771D01*
X11908847Y-9684905D01*
X11908349Y-9684699D01*
X11907942Y-9684346D01*
X11905257Y-9683147D01*
X11887400Y-9677195D01*
X11885949Y-9676865D01*
X11885583Y-9676713D01*
X11885053Y-9676661D01*
X11884533Y-9676543D01*
X11884137Y-9676571D01*
X11882657Y-9676425D01*
X11870752Y-9676425D01*
X11867825Y-9676713D01*
X11867328Y-9676920D01*
X11866790Y-9676958D01*
X11864044Y-9678009D01*
X11852139Y-9683961D01*
X11850879Y-9684754D01*
X11850514Y-9684905D01*
X11850102Y-9685243D01*
X11849650Y-9685527D01*
X11849391Y-9685827D01*
X11848240Y-9686771D01*
X11842288Y-9692723D01*
X11841344Y-9693873D01*
X11841045Y-9694133D01*
X11840761Y-9694584D01*
X11840423Y-9694996D01*
X11840271Y-9695362D01*
X11839478Y-9696622D01*
X11833526Y-9708526D01*
X11832475Y-9711273D01*
X11832437Y-9711810D01*
X11832230Y-9712308D01*
X11831942Y-9715235D01*
X11816942Y-9715235D01*
X11816942Y-9661425D01*
X12001942Y-9661425D01*
X12001942Y-9911901D01*
G37*
G36*
X11891628Y-10336753D02*
G01*
X11894138Y-10339263D01*
X11897418Y-10345823D01*
X11897418Y-10374901D01*
X11861942Y-10374901D01*
X11861942Y-10345823D01*
X11865222Y-10339263D01*
X11867732Y-10336753D01*
X11874293Y-10333473D01*
X11885068Y-10333473D01*
X11891628Y-10336753D01*
G37*
G36*
X12001942Y-10419901D02*
G01*
X11816942Y-10419901D01*
X11816942Y-10342282D01*
X11831942Y-10342282D01*
X11831942Y-10389901D01*
X11832230Y-10392828D01*
X11834470Y-10398235D01*
X11838609Y-10402373D01*
X11844016Y-10404613D01*
X11846942Y-10404901D01*
X11971942Y-10404901D01*
X11974869Y-10404613D01*
X11980276Y-10402373D01*
X11984414Y-10398235D01*
X11986654Y-10392828D01*
X11986654Y-10386975D01*
X11984414Y-10381568D01*
X11980276Y-10377429D01*
X11974869Y-10375189D01*
X11971942Y-10374901D01*
X11927418Y-10374901D01*
X11927418Y-10342282D01*
X11927130Y-10339356D01*
X11926924Y-10338858D01*
X11926886Y-10338320D01*
X11925835Y-10335574D01*
X11919882Y-10323669D01*
X11919090Y-10322410D01*
X11918938Y-10322044D01*
X11918600Y-10321632D01*
X11918316Y-10321181D01*
X11918017Y-10320921D01*
X11917073Y-10319771D01*
X11911120Y-10313819D01*
X11909970Y-10312875D01*
X11909711Y-10312575D01*
X11909259Y-10312291D01*
X11908847Y-10311953D01*
X11908481Y-10311801D01*
X11907222Y-10311009D01*
X11895317Y-10305056D01*
X11892571Y-10304005D01*
X11892033Y-10303967D01*
X11891535Y-10303761D01*
X11888609Y-10303473D01*
X11870752Y-10303473D01*
X11867825Y-10303761D01*
X11867328Y-10303967D01*
X11866790Y-10304005D01*
X11864044Y-10305056D01*
X11852139Y-10311009D01*
X11850880Y-10311801D01*
X11850514Y-10311953D01*
X11850101Y-10312291D01*
X11849650Y-10312575D01*
X11849391Y-10312875D01*
X11848241Y-10313818D01*
X11842288Y-10319771D01*
X11841344Y-10320921D01*
X11841045Y-10321181D01*
X11840761Y-10321632D01*
X11840423Y-10322044D01*
X11840271Y-10322410D01*
X11839478Y-10323669D01*
X11833526Y-10335574D01*
X11832475Y-10338320D01*
X11832437Y-10338858D01*
X11832230Y-10339356D01*
X11831942Y-10342282D01*
X11816942Y-10342282D01*
X11816942Y-10235155D01*
X11831942Y-10235155D01*
X11832230Y-10236596D01*
X11832230Y-10238066D01*
X11832799Y-10239438D01*
X11833090Y-10240894D01*
X11833908Y-10242115D01*
X11834470Y-10243473D01*
X11835520Y-10244523D01*
X11836347Y-10245757D01*
X11838598Y-10247601D01*
X11838609Y-10247611D01*
X11838613Y-10247613D01*
X11838622Y-10247620D01*
X11855243Y-10258701D01*
X11864376Y-10267834D01*
X11869240Y-10277562D01*
X11870807Y-10280050D01*
X11875228Y-10283885D01*
X11880780Y-10285736D01*
X11886618Y-10285321D01*
X11891853Y-10282704D01*
X11895688Y-10278282D01*
X11897539Y-10272730D01*
X11897124Y-10266892D01*
X11896073Y-10264145D01*
X11890121Y-10252241D01*
X11889328Y-10250982D01*
X11889176Y-10250615D01*
X11888838Y-10250203D01*
X11888798Y-10250139D01*
X11956942Y-10250139D01*
X11956942Y-10270854D01*
X11957230Y-10273780D01*
X11959470Y-10279187D01*
X11963609Y-10283326D01*
X11969016Y-10285565D01*
X11974869Y-10285565D01*
X11980276Y-10283326D01*
X11984414Y-10279187D01*
X11986654Y-10273780D01*
X11986942Y-10270854D01*
X11986942Y-10199425D01*
X11986654Y-10196499D01*
X11984414Y-10191092D01*
X11980276Y-10186953D01*
X11974869Y-10184713D01*
X11969016Y-10184713D01*
X11963609Y-10186953D01*
X11959470Y-10191092D01*
X11957230Y-10196499D01*
X11956942Y-10199425D01*
X11956942Y-10220139D01*
X11846942Y-10220139D01*
X11846932Y-10220140D01*
X11846926Y-10220139D01*
X11846911Y-10220142D01*
X11844016Y-10220428D01*
X11842644Y-10220996D01*
X11841188Y-10221287D01*
X11839966Y-10222105D01*
X11838609Y-10222667D01*
X11837559Y-10223717D01*
X11836325Y-10224544D01*
X11835509Y-10225767D01*
X11834470Y-10226806D01*
X11833902Y-10228178D01*
X11833078Y-10229414D01*
X11832793Y-10230855D01*
X11832230Y-10232213D01*
X11832230Y-10233698D01*
X11831942Y-10235155D01*
X11816942Y-10235155D01*
X11816942Y-10169713D01*
X12001942Y-10169713D01*
X12001942Y-10419901D01*
G37*
%TO.C,D402*%
D13*
X10718100Y-9236280D02*
X10718100Y-9556280D01*
X10718100Y-9236280D02*
X10918100Y-9236280D01*
X10948100Y-9266280D02*
X10918100Y-9236280D01*
X10948100Y-9266280D02*
X10948100Y-9556280D01*
X10948100Y-9556280D02*
X10718100Y-9556280D01*
%TO.C,TP401*%
X11255760Y-9926320D02*
G75*
G02*
X11065760Y-9926320I-95000J0D01*
G01*
X11065760Y-9926320D02*
G75*
G02*
X11255760Y-9926320I95000J0D01*
G01*
%TO.C,R605*%
X11235510Y-8930568D02*
X11235510Y-8981512D01*
X11340010Y-8930568D02*
X11340010Y-8981512D01*
%TO.C,C302*%
X11171000Y-8567373D02*
X11171000Y-8596627D01*
X11273000Y-8567373D02*
X11273000Y-8596627D01*
%TO.C,TP101*%
X10902700Y-11049000D02*
G75*
G02*
X10712700Y-11049000I-95000J0D01*
G01*
X10712700Y-11049000D02*
G75*
G02*
X10902700Y-11049000I95000J0D01*
G01*
%TO.C,TP402*%
X11362440Y-9641840D02*
G75*
G02*
X11172440Y-9641840I-95000J0D01*
G01*
X11172440Y-9641840D02*
G75*
G02*
X11362440Y-9641840I95000J0D01*
G01*
%TO.C,TP102*%
X11918700Y-11049000D02*
G75*
G02*
X11728700Y-11049000I-95000J0D01*
G01*
X11728700Y-11049000D02*
G75*
G02*
X11918700Y-11049000I95000J0D01*
G01*
%TO.C,TP404*%
X10986520Y-8737600D02*
G75*
G02*
X10796520Y-8737600I-95000J0D01*
G01*
X10796520Y-8737600D02*
G75*
G02*
X10986520Y-8737600I95000J0D01*
G01*
%TO.C,C402*%
X10999660Y-9559623D02*
X10999660Y-9588877D01*
X11101660Y-9559623D02*
X11101660Y-9588877D01*
%TO.C,U303*%
X11746000Y-7608000D02*
X11746000Y-7684000D01*
X11746000Y-7684000D02*
X11854000Y-7684000D01*
X11778000Y-7576000D02*
X11854000Y-7576000D01*
X11854000Y-7684000D02*
X11854000Y-7576000D01*
X11746000Y-7576000D02*
X11696000Y-7576000D01*
X11746000Y-7526000D01*
X11746000Y-7576000D01*
G36*
X11746000Y-7576000D02*
G01*
X11696000Y-7576000D01*
X11746000Y-7526000D01*
X11746000Y-7576000D01*
G37*
D14*
%TO.C,G401*%
G36*
X10522778Y-7721196D02*
G01*
X10528312Y-7722245D01*
X10533102Y-7724281D01*
X10537263Y-7727345D01*
X10538955Y-7729065D01*
X10541663Y-7732826D01*
X10543284Y-7736986D01*
X10543917Y-7741821D01*
X10543934Y-7742872D01*
X10543497Y-7747807D01*
X10542109Y-7752028D01*
X10539651Y-7755857D01*
X10538795Y-7756857D01*
X10535020Y-7760279D01*
X10530686Y-7762698D01*
X10525662Y-7764159D01*
X10519814Y-7764709D01*
X10516211Y-7764640D01*
X10513031Y-7764422D01*
X10510664Y-7764074D01*
X10508594Y-7763463D01*
X10506307Y-7762457D01*
X10504853Y-7761730D01*
X10500329Y-7758881D01*
X10496963Y-7755479D01*
X10494668Y-7751388D01*
X10493353Y-7746473D01*
X10493054Y-7743926D01*
X10493074Y-7741181D01*
X10493444Y-7738353D01*
X10493645Y-7737510D01*
X10495696Y-7732431D01*
X10498708Y-7728259D01*
X10502653Y-7725014D01*
X10507503Y-7722716D01*
X10513229Y-7721388D01*
X10516387Y-7721095D01*
X10522778Y-7721196D01*
G37*
G36*
X10527259Y-7649105D02*
G01*
X10538290Y-7650761D01*
X10548683Y-7653582D01*
X10558462Y-7657578D01*
X10567649Y-7662760D01*
X10576267Y-7669139D01*
X10583908Y-7676277D01*
X10590864Y-7684363D01*
X10596667Y-7693020D01*
X10601372Y-7702350D01*
X10605034Y-7712453D01*
X10606230Y-7716778D01*
X10608049Y-7723937D01*
X10608049Y-7921928D01*
X10608048Y-7941159D01*
X10608048Y-7959107D01*
X10608046Y-7975817D01*
X10608043Y-7991336D01*
X10608039Y-8005708D01*
X10608033Y-8018979D01*
X10608025Y-8031195D01*
X10608015Y-8042402D01*
X10608002Y-8052644D01*
X10607987Y-8061969D01*
X10607968Y-8070421D01*
X10607946Y-8078045D01*
X10607920Y-8084888D01*
X10607891Y-8090996D01*
X10607857Y-8096413D01*
X10607818Y-8101185D01*
X10607775Y-8105359D01*
X10607727Y-8108979D01*
X10607674Y-8112091D01*
X10607615Y-8114741D01*
X10607550Y-8116975D01*
X10607478Y-8118837D01*
X10607401Y-8120375D01*
X10607316Y-8121632D01*
X10607225Y-8122655D01*
X10607126Y-8123490D01*
X10607020Y-8124182D01*
X10606906Y-8124777D01*
X10606804Y-8125234D01*
X10603639Y-8136030D01*
X10599380Y-8146124D01*
X10594068Y-8155465D01*
X10587743Y-8164000D01*
X10580443Y-8171678D01*
X10572207Y-8178448D01*
X10563077Y-8184258D01*
X10560609Y-8185580D01*
X10551455Y-8189732D01*
X10542281Y-8192692D01*
X10532819Y-8194525D01*
X10522800Y-8195294D01*
X10520046Y-8195328D01*
X10509003Y-8194732D01*
X10498526Y-8192935D01*
X10488584Y-8189927D01*
X10479148Y-8185694D01*
X10470188Y-8180226D01*
X10461676Y-8173510D01*
X10458565Y-8170640D01*
X10451499Y-8163131D01*
X10445554Y-8155203D01*
X10440640Y-8146696D01*
X10436669Y-8137449D01*
X10433551Y-8127303D01*
X10432840Y-8124370D01*
X10431892Y-8120251D01*
X10467100Y-8120251D01*
X10467196Y-8126563D01*
X10480568Y-8126742D01*
X10493940Y-8126922D01*
X10494221Y-8121049D01*
X10494786Y-8116300D01*
X10496050Y-8112479D01*
X10498130Y-8109318D01*
X10500165Y-8107329D01*
X10504427Y-8104508D01*
X10509318Y-8102550D01*
X10514596Y-8101447D01*
X10520022Y-8101192D01*
X10525356Y-8101777D01*
X10530357Y-8103197D01*
X10534785Y-8105442D01*
X10538389Y-8108492D01*
X10540869Y-8111720D01*
X10542396Y-8115030D01*
X10543130Y-8118852D01*
X10543255Y-8121759D01*
X10543270Y-8126922D01*
X10557056Y-8126742D01*
X10570842Y-8126563D01*
X10570735Y-8118258D01*
X10570399Y-8111645D01*
X10569504Y-8105837D01*
X10567949Y-8100390D01*
X10565630Y-8094860D01*
X10565051Y-8093675D01*
X10561789Y-8088335D01*
X10557551Y-8083215D01*
X10552662Y-8078642D01*
X10547446Y-8074946D01*
X10545557Y-8073898D01*
X10541206Y-8071807D01*
X10537239Y-8070265D01*
X10533313Y-8069198D01*
X10529083Y-8068530D01*
X10524206Y-8068188D01*
X10518687Y-8068098D01*
X10513365Y-8068162D01*
X10509035Y-8068399D01*
X10505363Y-8068879D01*
X10502016Y-8069671D01*
X10498660Y-8070844D01*
X10494963Y-8072468D01*
X10492884Y-8073469D01*
X10486411Y-8077372D01*
X10480788Y-8082282D01*
X10476079Y-8088138D01*
X10473391Y-8092705D01*
X10470586Y-8098817D01*
X10468669Y-8104638D01*
X10467542Y-8110607D01*
X10467102Y-8117163D01*
X10467100Y-8120251D01*
X10431892Y-8120251D01*
X10431358Y-8117926D01*
X10431245Y-8027900D01*
X10468192Y-8027900D01*
X10468192Y-8044510D01*
X10468192Y-8061120D01*
X10518687Y-8061120D01*
X10519019Y-8061120D01*
X10569846Y-8061120D01*
X10569846Y-8044510D01*
X10569846Y-8027900D01*
X10519019Y-8027900D01*
X10468192Y-8027900D01*
X10431245Y-8027900D01*
X10431196Y-7988036D01*
X10468192Y-7988036D01*
X10468192Y-8004646D01*
X10468192Y-8021256D01*
X10519019Y-8021256D01*
X10569846Y-8021256D01*
X10569846Y-8004646D01*
X10569846Y-7988036D01*
X10519019Y-7988036D01*
X10468192Y-7988036D01*
X10431196Y-7988036D01*
X10431159Y-7958304D01*
X10431054Y-7874180D01*
X10468192Y-7874180D01*
X10498921Y-7883704D01*
X10505054Y-7885610D01*
X10510799Y-7887407D01*
X10516033Y-7889055D01*
X10520629Y-7890514D01*
X10524464Y-7891744D01*
X10527412Y-7892705D01*
X10529348Y-7893357D01*
X10530148Y-7893661D01*
X10530158Y-7893668D01*
X10529645Y-7893944D01*
X10527978Y-7894565D01*
X10525278Y-7895494D01*
X10521663Y-7896692D01*
X10517251Y-7898120D01*
X10512161Y-7899739D01*
X10506513Y-7901510D01*
X10500425Y-7903394D01*
X10499430Y-7903700D01*
X10468194Y-7913291D01*
X10468193Y-7929905D01*
X10468192Y-7946519D01*
X10518590Y-7964952D01*
X10526411Y-7967810D01*
X10533870Y-7970533D01*
X10540875Y-7973086D01*
X10547331Y-7975436D01*
X10553143Y-7977547D01*
X10558219Y-7979387D01*
X10562463Y-7980920D01*
X10565783Y-7982113D01*
X10568083Y-7982932D01*
X10569271Y-7983342D01*
X10569416Y-7983385D01*
X10569535Y-7982750D01*
X10569641Y-7980968D01*
X10569730Y-7978217D01*
X10569797Y-7974679D01*
X10569837Y-7970533D01*
X10569846Y-7967233D01*
X10569846Y-7951081D01*
X10537456Y-7941563D01*
X10531085Y-7939687D01*
X10525054Y-7937904D01*
X10519491Y-7936252D01*
X10514527Y-7934770D01*
X10510290Y-7933497D01*
X10506911Y-7932472D01*
X10504519Y-7931734D01*
X10503244Y-7931321D01*
X10503124Y-7931277D01*
X10502792Y-7931130D01*
X10502601Y-7930971D01*
X10502626Y-7930777D01*
X10502942Y-7930525D01*
X10503623Y-7930190D01*
X10504745Y-7929749D01*
X10506381Y-7929178D01*
X10508607Y-7928454D01*
X10511497Y-7927553D01*
X10515126Y-7926452D01*
X10519569Y-7925126D01*
X10524900Y-7923553D01*
X10531195Y-7921708D01*
X10538527Y-7919568D01*
X10546973Y-7917109D01*
X10556605Y-7914308D01*
X10558551Y-7913742D01*
X10569513Y-7910555D01*
X10569691Y-7894526D01*
X10569869Y-7878497D01*
X10564376Y-7876841D01*
X10562565Y-7876304D01*
X10559642Y-7875448D01*
X10555769Y-7874321D01*
X10551112Y-7872969D01*
X10545833Y-7871442D01*
X10540098Y-7869785D01*
X10534071Y-7868048D01*
X10530646Y-7867062D01*
X10524756Y-7865361D01*
X10519259Y-7863762D01*
X10514289Y-7862304D01*
X10509976Y-7861026D01*
X10506453Y-7859967D01*
X10503850Y-7859166D01*
X10502300Y-7858664D01*
X10501911Y-7858509D01*
X10502432Y-7858246D01*
X10504114Y-7857647D01*
X10506841Y-7856751D01*
X10510497Y-7855591D01*
X10514967Y-7854205D01*
X10520135Y-7852628D01*
X10525886Y-7850897D01*
X10532104Y-7849047D01*
X10534913Y-7848217D01*
X10541344Y-7846320D01*
X10547397Y-7844526D01*
X10552950Y-7842871D01*
X10557882Y-7841393D01*
X10562073Y-7840127D01*
X10565401Y-7839110D01*
X10567744Y-7838380D01*
X10568983Y-7837971D01*
X10569141Y-7837906D01*
X10569390Y-7837197D01*
X10569570Y-7835386D01*
X10569682Y-7832421D01*
X10569728Y-7828249D01*
X10569710Y-7822819D01*
X10569691Y-7820791D01*
X10569513Y-7804126D01*
X10518864Y-7822498D01*
X10468215Y-7840871D01*
X10468204Y-7857525D01*
X10468192Y-7874180D01*
X10431054Y-7874180D01*
X10430960Y-7798682D01*
X10500403Y-7798682D01*
X10569513Y-7798682D01*
X10569846Y-7798682D01*
X10569846Y-7781739D01*
X10569846Y-7764797D01*
X10563390Y-7764797D01*
X10556935Y-7764797D01*
X10560336Y-7761309D01*
X10564626Y-7756124D01*
X10567851Y-7750377D01*
X10569246Y-7746858D01*
X10570086Y-7743435D01*
X10570623Y-7739123D01*
X10570852Y-7734328D01*
X10570766Y-7729455D01*
X10570361Y-7724911D01*
X10569630Y-7721102D01*
X10569603Y-7721004D01*
X10566938Y-7713769D01*
X10563168Y-7707249D01*
X10558345Y-7701508D01*
X10552521Y-7696608D01*
X10546259Y-7692865D01*
X10540102Y-7690367D01*
X10533132Y-7688553D01*
X10525705Y-7687480D01*
X10518179Y-7687204D01*
X10512535Y-7687570D01*
X10507194Y-7688291D01*
X10502725Y-7689186D01*
X10498673Y-7690384D01*
X10494582Y-7692012D01*
X10491446Y-7693478D01*
X10485142Y-7697233D01*
X10479600Y-7701907D01*
X10474988Y-7707334D01*
X10471651Y-7712974D01*
X10468861Y-7720218D01*
X10467281Y-7727836D01*
X10466864Y-7734732D01*
X10467445Y-7742013D01*
X10469178Y-7748683D01*
X10472047Y-7754702D01*
X10476035Y-7760025D01*
X10476828Y-7760862D01*
X10480678Y-7764797D01*
X10455832Y-7764797D01*
X10430986Y-7764797D01*
X10431098Y-7748686D01*
X10431139Y-7744028D01*
X10431195Y-7739673D01*
X10431261Y-7735841D01*
X10431333Y-7732756D01*
X10431407Y-7730640D01*
X10431452Y-7729916D01*
X10433046Y-7719465D01*
X10435843Y-7709362D01*
X10439769Y-7699709D01*
X10444749Y-7690607D01*
X10450708Y-7682157D01*
X10457570Y-7674458D01*
X10465262Y-7667612D01*
X10473709Y-7661719D01*
X10482834Y-7656880D01*
X10487128Y-7655079D01*
X10497165Y-7651821D01*
X10507338Y-7649720D01*
X10517447Y-7648806D01*
X10527259Y-7649105D01*
G37*
%TO.C,C401*%
D13*
X10999660Y-9198833D02*
X10999660Y-9228087D01*
X11101660Y-9198833D02*
X11101660Y-9228087D01*
%TO.C,R606*%
X11235510Y-9270928D02*
X11235510Y-9321872D01*
X11340010Y-9270928D02*
X11340010Y-9321872D01*
%TO.C,C304*%
X11852363Y-7812840D02*
X11881617Y-7812840D01*
X11852363Y-7914840D02*
X11881617Y-7914840D01*
%TO.C,SW401*%
D15*
X12198200Y-8616800D02*
X12198200Y-8756800D01*
X12338200Y-8616800D02*
X12338200Y-8756800D01*
X12312921Y-8686800D02*
G75*
G02*
X12223479Y-8686800I-44721J0D01*
G01*
X12223479Y-8686800D02*
G75*
G02*
X12312921Y-8686800I44721J0D01*
G01*
%TO.C,R603*%
D13*
X11552038Y-9858830D02*
X11602982Y-9858830D01*
X11552038Y-9963330D02*
X11602982Y-9963330D01*
%TO.C,D403*%
X10718100Y-8875600D02*
X10718100Y-9195600D01*
X10718100Y-8875600D02*
X10918100Y-8875600D01*
X10948100Y-8905600D02*
X10918100Y-8875600D01*
X10948100Y-8905600D02*
X10948100Y-9195600D01*
X10948100Y-9195600D02*
X10718100Y-9195600D01*
%TO.C,Q603*%
X11511720Y-8993080D02*
X11693720Y-8993080D01*
X11511720Y-8998080D02*
X11511720Y-8993080D01*
X11511720Y-9188080D02*
X11511720Y-9110080D01*
X11511720Y-9305080D02*
X11511720Y-9300080D01*
X11693720Y-8993080D02*
X11693720Y-9093080D01*
X11693720Y-9205080D02*
X11693720Y-9305080D01*
X11693720Y-9305080D02*
X11511720Y-9305080D01*
X11457720Y-9111080D02*
X11481720Y-9144080D01*
X11433720Y-9144080D01*
X11457720Y-9111080D01*
G36*
X11481720Y-9144080D02*
G01*
X11433720Y-9144080D01*
X11457720Y-9111080D01*
X11481720Y-9144080D01*
G37*
%TO.C,R404*%
X10641150Y-7787902D02*
X10641150Y-7736958D01*
X10745650Y-7787902D02*
X10745650Y-7736958D01*
%TO.C,R613*%
X10854510Y-10276722D02*
X10854510Y-10225778D01*
X10959010Y-10276722D02*
X10959010Y-10225778D01*
%TO.C,U301*%
X10257000Y-5892000D02*
X10257000Y-7464000D01*
X11388000Y-5892000D02*
X10257000Y-5892000D01*
X11829000Y-5892000D02*
X11458000Y-5892000D01*
X11829000Y-5892000D02*
X11829000Y-7464000D01*
X11829000Y-7464000D02*
X10257000Y-7464000D01*
X11423000Y-5892000D02*
X11399000Y-5859000D01*
X11447000Y-5859000D01*
X11423000Y-5892000D01*
G36*
X11423000Y-5892000D02*
G01*
X11399000Y-5859000D01*
X11447000Y-5859000D01*
X11423000Y-5892000D01*
G37*
%TO.C,J404*%
X9842000Y-9496000D02*
X9842000Y-9628000D01*
X9842000Y-9688000D02*
X9842000Y-10582000D01*
X9904000Y-9496000D02*
X9904000Y-10582000D01*
X10434000Y-9496000D02*
X10434000Y-10582000D01*
X10486000Y-9496000D02*
X9842000Y-9496000D01*
X10486000Y-9496000D02*
X10486000Y-10582000D01*
X10486000Y-10582000D02*
X9842000Y-10582000D01*
X9842000Y-9658000D02*
X9781000Y-9702000D01*
X9781000Y-9614000D01*
X9842000Y-9658000D01*
G36*
X9842000Y-9658000D02*
G01*
X9781000Y-9702000D01*
X9781000Y-9614000D01*
X9842000Y-9658000D01*
G37*
D14*
%TO.C,G\u002A\u002A\u002A*%
G36*
X11962030Y-6109976D02*
G01*
X11970114Y-6110482D01*
X11976399Y-6111529D01*
X11981162Y-6113212D01*
X11984683Y-6115627D01*
X11987107Y-6118650D01*
X11989365Y-6124097D01*
X11990123Y-6130090D01*
X11989433Y-6136041D01*
X11987347Y-6141359D01*
X11984792Y-6144684D01*
X11981246Y-6147425D01*
X11976844Y-6149440D01*
X11971224Y-6150838D01*
X11964025Y-6151726D01*
X11960458Y-6151973D01*
X11949016Y-6152627D01*
X11949016Y-6131109D01*
X11949016Y-6109592D01*
X11962030Y-6109976D01*
G37*
G36*
X12265055Y-6098670D02*
G01*
X12272827Y-6098708D01*
X12278840Y-6098826D01*
X12283463Y-6099052D01*
X12287062Y-6099410D01*
X12290004Y-6099927D01*
X12292654Y-6100630D01*
X12292666Y-6100633D01*
X12299412Y-6103729D01*
X12304875Y-6108335D01*
X12308920Y-6114176D01*
X12311416Y-6120977D01*
X12312229Y-6128461D01*
X12311226Y-6136353D01*
X12310752Y-6138103D01*
X12307777Y-6144449D01*
X12302944Y-6149931D01*
X12296677Y-6154230D01*
X12291117Y-6157217D01*
X12303416Y-6177334D01*
X12307136Y-6183420D01*
X12310605Y-6189093D01*
X12313627Y-6194035D01*
X12316004Y-6197922D01*
X12317541Y-6200436D01*
X12317855Y-6200951D01*
X12319996Y-6204450D01*
X12311806Y-6204137D01*
X12303617Y-6203825D01*
X12291160Y-6182579D01*
X12278703Y-6161332D01*
X12267896Y-6161030D01*
X12257088Y-6160727D01*
X12257088Y-6182542D01*
X12257088Y-6204356D01*
X12250173Y-6204356D01*
X12243258Y-6204356D01*
X12243534Y-6151506D01*
X12243545Y-6149369D01*
X12257039Y-6149369D01*
X12270608Y-6148942D01*
X12276439Y-6148717D01*
X12280629Y-6148416D01*
X12283664Y-6147959D01*
X12286027Y-6147264D01*
X12288202Y-6146251D01*
X12288852Y-6145894D01*
X12293113Y-6142733D01*
X12295833Y-6138715D01*
X12297199Y-6133469D01*
X12297452Y-6128948D01*
X12296984Y-6123172D01*
X12295469Y-6118647D01*
X12292725Y-6115250D01*
X12288572Y-6112857D01*
X12282831Y-6111346D01*
X12275322Y-6110593D01*
X12270407Y-6110457D01*
X12257619Y-6110341D01*
X12257329Y-6129855D01*
X12257039Y-6149369D01*
X12243545Y-6149369D01*
X12243809Y-6098656D01*
X12265055Y-6098670D01*
G37*
G36*
X12055869Y-5943405D02*
G01*
X12055382Y-5945990D01*
X12054616Y-5949446D01*
X12052886Y-5957349D01*
X12050979Y-5966985D01*
X12048955Y-5977978D01*
X12046876Y-5989949D01*
X12044801Y-6002520D01*
X12042793Y-6015315D01*
X12040912Y-6027955D01*
X12039218Y-6040063D01*
X12037774Y-6051262D01*
X12036719Y-6060412D01*
X12035525Y-6073113D01*
X12034521Y-6086895D01*
X12033707Y-6101530D01*
X12033079Y-6116794D01*
X12032638Y-6132459D01*
X12032379Y-6148299D01*
X12032303Y-6164089D01*
X12032408Y-6179601D01*
X12032691Y-6194611D01*
X12033151Y-6208890D01*
X12033786Y-6222213D01*
X12034595Y-6234355D01*
X12035576Y-6245087D01*
X12036727Y-6254185D01*
X12038046Y-6261422D01*
X12038239Y-6262253D01*
X12038743Y-6265392D01*
X12038280Y-6267563D01*
X12037427Y-6268888D01*
X12035717Y-6271009D01*
X12032989Y-6274269D01*
X12029452Y-6278428D01*
X12025314Y-6283247D01*
X12020786Y-6288484D01*
X12016076Y-6293900D01*
X12011395Y-6299256D01*
X12006951Y-6304311D01*
X12002954Y-6308825D01*
X11999614Y-6312559D01*
X11997139Y-6315273D01*
X11995740Y-6316727D01*
X11995513Y-6316907D01*
X11994756Y-6316041D01*
X11994105Y-6314041D01*
X11993497Y-6311772D01*
X11992390Y-6308107D01*
X11990972Y-6303658D01*
X11990160Y-6301196D01*
X11988575Y-6296652D01*
X11987446Y-6293950D01*
X11986664Y-6292886D01*
X11986120Y-6293253D01*
X11986053Y-6293419D01*
X11985404Y-6295917D01*
X11984604Y-6300141D01*
X11983708Y-6305706D01*
X11982768Y-6312222D01*
X11981838Y-6319301D01*
X11980970Y-6326557D01*
X11980219Y-6333602D01*
X11979638Y-6340047D01*
X11979620Y-6340270D01*
X11979146Y-6345814D01*
X11978672Y-6350515D01*
X11978241Y-6354011D01*
X11977895Y-6355938D01*
X11977764Y-6356199D01*
X11976688Y-6355548D01*
X11974470Y-6353916D01*
X11971856Y-6351869D01*
X11954971Y-6337023D01*
X11939754Y-6320973D01*
X11926240Y-6303842D01*
X11914466Y-6285747D01*
X11904467Y-6266809D01*
X11896279Y-6247148D01*
X11889939Y-6226883D01*
X11885482Y-6206135D01*
X11882944Y-6185022D01*
X11882362Y-6163665D01*
X11883177Y-6151240D01*
X11936268Y-6151240D01*
X11936268Y-6204356D01*
X11942642Y-6204356D01*
X11949016Y-6204356D01*
X11949016Y-6183782D01*
X11949016Y-6163208D01*
X11962561Y-6162654D01*
X11972500Y-6161857D01*
X11980665Y-6160283D01*
X11987297Y-6157824D01*
X11992640Y-6154368D01*
X11996936Y-6149804D01*
X11999476Y-6145844D01*
X12000957Y-6142999D01*
X12001893Y-6140527D01*
X12002406Y-6137792D01*
X12002622Y-6134155D01*
X12002663Y-6129463D01*
X12002601Y-6124339D01*
X12002346Y-6120736D01*
X12001794Y-6118049D01*
X12000840Y-6115676D01*
X12000007Y-6114109D01*
X11996957Y-6109652D01*
X11993167Y-6106037D01*
X11988427Y-6103196D01*
X11982528Y-6101061D01*
X11975259Y-6099563D01*
X11966410Y-6098634D01*
X11955772Y-6098206D01*
X11950875Y-6098159D01*
X11936268Y-6098125D01*
X11936268Y-6151240D01*
X11883177Y-6151240D01*
X11883771Y-6142183D01*
X11887207Y-6120696D01*
X11892706Y-6099325D01*
X11893090Y-6098125D01*
X11894410Y-6094004D01*
X11902307Y-6073620D01*
X11912042Y-6054187D01*
X11923504Y-6035817D01*
X11936581Y-6018622D01*
X11951162Y-6002714D01*
X11967134Y-5988205D01*
X11984386Y-5975207D01*
X12002806Y-5963832D01*
X12022282Y-5954192D01*
X12041393Y-5946832D01*
X12046523Y-5945140D01*
X12050875Y-5943750D01*
X12054084Y-5942775D01*
X12055784Y-5942328D01*
X12055957Y-5942319D01*
X12055869Y-5943405D01*
G37*
G36*
X12111374Y-5783170D02*
G01*
X12111485Y-5784519D01*
X12111588Y-5786734D01*
X12111682Y-5789880D01*
X12111768Y-5794021D01*
X12111846Y-5799221D01*
X12111916Y-5805544D01*
X12111978Y-5813055D01*
X12112033Y-5821816D01*
X12112082Y-5831894D01*
X12112123Y-5843352D01*
X12112158Y-5856254D01*
X12112188Y-5870664D01*
X12112211Y-5886646D01*
X12112229Y-5904265D01*
X12112241Y-5923586D01*
X12112249Y-5944671D01*
X12112252Y-5967585D01*
X12112250Y-5992393D01*
X12112245Y-6019159D01*
X12112236Y-6047946D01*
X12112228Y-6066255D01*
X12112215Y-6091738D01*
X12112199Y-6116992D01*
X12112179Y-6141912D01*
X12112156Y-6166392D01*
X12112130Y-6190327D01*
X12112101Y-6213610D01*
X12112069Y-6236137D01*
X12112035Y-6257802D01*
X12111999Y-6278499D01*
X12111960Y-6298123D01*
X12111920Y-6316567D01*
X12111879Y-6333728D01*
X12111835Y-6349498D01*
X12111791Y-6363774D01*
X12111746Y-6376447D01*
X12111700Y-6387415D01*
X12111653Y-6396570D01*
X12111606Y-6403807D01*
X12111561Y-6408852D01*
X12111019Y-6457719D01*
X12106106Y-6450283D01*
X12102416Y-6444267D01*
X12098285Y-6436804D01*
X12093996Y-6428445D01*
X12089831Y-6419740D01*
X12086072Y-6411241D01*
X12086005Y-6411082D01*
X12083710Y-6405940D01*
X12081824Y-6402584D01*
X12080131Y-6400767D01*
X12078417Y-6400244D01*
X12076818Y-6400619D01*
X12075610Y-6401407D01*
X12072888Y-6403370D01*
X12068820Y-6406382D01*
X12063573Y-6410318D01*
X12057313Y-6415051D01*
X12050206Y-6420456D01*
X12042421Y-6426407D01*
X12034123Y-6432778D01*
X12031727Y-6434622D01*
X12021820Y-6442270D01*
X12013478Y-6448745D01*
X12006573Y-6454157D01*
X12000976Y-6458611D01*
X11996555Y-6462217D01*
X11993182Y-6465081D01*
X11990727Y-6467312D01*
X11989060Y-6469017D01*
X11988052Y-6470303D01*
X11987574Y-6471272D01*
X11986525Y-6474716D01*
X11985823Y-6469936D01*
X11984554Y-6459354D01*
X11983561Y-6447027D01*
X11982843Y-6433319D01*
X11982400Y-6418591D01*
X11982235Y-6403206D01*
X11982345Y-6387525D01*
X11982733Y-6371912D01*
X11983397Y-6356729D01*
X11984339Y-6342338D01*
X11985558Y-6329102D01*
X11985713Y-6327696D01*
X11986287Y-6322499D01*
X11986764Y-6318010D01*
X11987096Y-6314684D01*
X11987237Y-6312975D01*
X11987239Y-6312915D01*
X11987577Y-6311813D01*
X11988328Y-6312314D01*
X11989191Y-6314022D01*
X11989823Y-6316312D01*
X11991180Y-6320066D01*
X11993495Y-6321930D01*
X11995937Y-6322089D01*
X11997411Y-6321178D01*
X12000137Y-6318677D01*
X12004128Y-6314572D01*
X12009401Y-6308847D01*
X12015969Y-6301485D01*
X12021490Y-6295184D01*
X12027913Y-6287786D01*
X12033050Y-6281802D01*
X12037029Y-6277065D01*
X12039981Y-6273407D01*
X12042037Y-6270660D01*
X12043326Y-6268656D01*
X12043978Y-6267226D01*
X12044123Y-6266203D01*
X12044091Y-6265971D01*
X12042704Y-6258808D01*
X12041543Y-6252168D01*
X12040584Y-6245750D01*
X12039803Y-6239252D01*
X12039175Y-6232373D01*
X12038677Y-6224812D01*
X12038283Y-6216267D01*
X12037970Y-6206439D01*
X12037714Y-6195024D01*
X12037535Y-6184703D01*
X12037376Y-6167182D01*
X12037436Y-6149448D01*
X12037705Y-6131870D01*
X12038173Y-6114817D01*
X12038827Y-6098660D01*
X12039657Y-6083769D01*
X12040653Y-6070512D01*
X12040995Y-6066786D01*
X12042539Y-6052510D01*
X12044534Y-6036907D01*
X12046909Y-6020386D01*
X12049593Y-6003356D01*
X12052514Y-5986226D01*
X12055603Y-5969407D01*
X12058787Y-5953306D01*
X12061997Y-5938334D01*
X12065161Y-5924900D01*
X12066464Y-5919793D01*
X12069961Y-5908885D01*
X12074855Y-5897625D01*
X12081252Y-5885820D01*
X12089256Y-5873276D01*
X12098214Y-5860800D01*
X12108040Y-5847735D01*
X12108825Y-5821284D01*
X12109109Y-5813222D01*
X12109471Y-5805162D01*
X12109886Y-5797573D01*
X12110326Y-5790926D01*
X12110764Y-5785689D01*
X12110982Y-5783679D01*
X12111122Y-5782814D01*
X12111253Y-5782623D01*
X12111374Y-5783170D01*
G37*
G36*
X12119687Y-5728407D02*
G01*
X12121178Y-5731906D01*
X12122439Y-5735481D01*
X12123536Y-5739450D01*
X12124531Y-5744131D01*
X12125488Y-5749841D01*
X12126473Y-5756899D01*
X12127549Y-5765622D01*
X12128044Y-5769869D01*
X12130467Y-5797337D01*
X12131437Y-5819734D01*
X12132073Y-5845697D01*
X12138678Y-5854259D01*
X12147815Y-5866779D01*
X12155884Y-5879217D01*
X12162728Y-5891291D01*
X12168191Y-5902724D01*
X12172116Y-5913235D01*
X12172604Y-5914860D01*
X12173886Y-5919090D01*
X12175030Y-5922507D01*
X12175867Y-5924621D01*
X12176125Y-5925043D01*
X12177435Y-5925586D01*
X12180286Y-5926492D01*
X12184157Y-5927598D01*
X12185913Y-5928072D01*
X12196902Y-5931452D01*
X12208919Y-5935975D01*
X12221393Y-5941380D01*
X12233755Y-5947406D01*
X12245434Y-5953796D01*
X12254221Y-5959201D01*
X12272891Y-5972652D01*
X12290053Y-5987569D01*
X12305658Y-6003872D01*
X12319654Y-6021481D01*
X12331990Y-6040316D01*
X12342616Y-6060296D01*
X12351480Y-6081341D01*
X12358532Y-6103370D01*
X12363720Y-6126302D01*
X12365043Y-6134243D01*
X12365857Y-6141266D01*
X12366449Y-6149798D01*
X12366814Y-6159274D01*
X12366948Y-6169130D01*
X12366844Y-6178803D01*
X12366500Y-6187728D01*
X12365909Y-6195342D01*
X12365590Y-6197982D01*
X12361442Y-6221200D01*
X12355540Y-6243276D01*
X12347831Y-6264346D01*
X12338260Y-6284543D01*
X12326772Y-6304004D01*
X12316993Y-6318024D01*
X12311932Y-6324365D01*
X12305654Y-6331513D01*
X12298560Y-6339068D01*
X12291050Y-6346629D01*
X12283526Y-6353794D01*
X12276388Y-6360165D01*
X12270037Y-6365339D01*
X12268672Y-6366360D01*
X12258516Y-6373796D01*
X12257843Y-6408321D01*
X12257640Y-6417335D01*
X12257389Y-6426240D01*
X12257103Y-6434662D01*
X12256798Y-6442224D01*
X12256487Y-6448552D01*
X12256185Y-6453269D01*
X12256079Y-6454532D01*
X12255624Y-6459088D01*
X12255028Y-6464633D01*
X12254331Y-6470817D01*
X12253576Y-6477291D01*
X12252807Y-6483704D01*
X12252065Y-6489707D01*
X12251393Y-6494950D01*
X12250833Y-6499083D01*
X12250429Y-6501755D01*
X12250237Y-6502619D01*
X12249897Y-6501748D01*
X12249132Y-6499158D01*
X12248038Y-6495191D01*
X12246708Y-6490189D01*
X12245851Y-6486882D01*
X12241730Y-6470862D01*
X12203865Y-6441746D01*
X12166000Y-6412629D01*
X12159618Y-6413753D01*
X12153237Y-6414877D01*
X12146673Y-6427926D01*
X12140896Y-6438794D01*
X12135041Y-6448643D01*
X12129309Y-6457160D01*
X12123898Y-6464036D01*
X12122410Y-6465686D01*
X12116943Y-6471529D01*
X12116937Y-6457712D01*
X12122174Y-6457712D01*
X12125966Y-6452404D01*
X12129536Y-6447002D01*
X12133615Y-6440165D01*
X12137909Y-6432426D01*
X12142126Y-6424318D01*
X12145972Y-6416373D01*
X12146981Y-6414164D01*
X12149522Y-6408569D01*
X12151406Y-6404640D01*
X12152829Y-6402096D01*
X12153989Y-6400657D01*
X12155080Y-6400042D01*
X12156300Y-6399972D01*
X12156877Y-6400034D01*
X12158181Y-6400729D01*
X12160995Y-6402602D01*
X12165152Y-6405532D01*
X12170483Y-6409395D01*
X12176821Y-6414067D01*
X12183997Y-6419427D01*
X12191844Y-6425349D01*
X12200193Y-6431712D01*
X12202938Y-6433817D01*
X12212874Y-6441461D01*
X12221243Y-6447935D01*
X12228172Y-6453343D01*
X12233790Y-6457793D01*
X12238227Y-6461392D01*
X12241611Y-6464246D01*
X12244070Y-6466462D01*
X12245734Y-6468147D01*
X12246732Y-6469406D01*
X12247192Y-6470347D01*
X12247223Y-6470467D01*
X12247931Y-6473654D01*
X12248694Y-6469936D01*
X12249036Y-6467622D01*
X12249487Y-6463644D01*
X12249999Y-6458455D01*
X12250527Y-6452511D01*
X12250839Y-6448689D01*
X12251693Y-6434549D01*
X12252183Y-6418830D01*
X12252318Y-6402042D01*
X12252110Y-6384698D01*
X12251567Y-6367309D01*
X12250700Y-6350386D01*
X12249518Y-6334442D01*
X12248420Y-6323336D01*
X12247175Y-6312181D01*
X12245665Y-6316708D01*
X12243752Y-6320644D01*
X12241340Y-6322680D01*
X12238566Y-6322722D01*
X12237568Y-6322268D01*
X12236342Y-6321169D01*
X12233925Y-6318654D01*
X12230502Y-6314927D01*
X12226255Y-6310194D01*
X12221371Y-6304658D01*
X12216031Y-6298524D01*
X12213002Y-6295009D01*
X12206787Y-6287788D01*
X12201804Y-6281970D01*
X12197935Y-6277319D01*
X12195061Y-6273600D01*
X12193062Y-6270577D01*
X12191818Y-6268014D01*
X12191212Y-6265676D01*
X12191122Y-6263326D01*
X12191431Y-6260729D01*
X12192019Y-6257650D01*
X12192607Y-6254693D01*
X12193624Y-6248878D01*
X12194484Y-6242740D01*
X12195198Y-6236069D01*
X12195776Y-6228653D01*
X12196228Y-6220282D01*
X12196565Y-6210744D01*
X12196795Y-6199828D01*
X12196931Y-6187325D01*
X12196982Y-6173022D01*
X12196977Y-6164519D01*
X12196884Y-6145519D01*
X12196656Y-6128326D01*
X12196274Y-6112627D01*
X12195714Y-6098107D01*
X12194957Y-6084453D01*
X12193981Y-6071351D01*
X12192766Y-6058485D01*
X12191289Y-6045544D01*
X12189529Y-6032211D01*
X12187467Y-6018174D01*
X12186852Y-6014202D01*
X12184856Y-6001929D01*
X12182665Y-5989348D01*
X12180335Y-5976723D01*
X12177922Y-5964318D01*
X12175481Y-5952395D01*
X12173545Y-5943429D01*
X12179844Y-5943429D01*
X12179941Y-5944521D01*
X12180416Y-5947310D01*
X12181199Y-5951419D01*
X12182220Y-5956468D01*
X12182648Y-5958520D01*
X12183762Y-5964038D01*
X12185113Y-5971100D01*
X12186600Y-5979153D01*
X12188122Y-5987643D01*
X12189577Y-5996018D01*
X12190048Y-5998798D01*
X12192802Y-6015770D01*
X12195159Y-6031686D01*
X12197145Y-6046889D01*
X12198787Y-6061726D01*
X12200111Y-6076541D01*
X12201143Y-6091680D01*
X12201909Y-6107487D01*
X12202437Y-6124307D01*
X12202752Y-6142486D01*
X12202881Y-6162368D01*
X12202887Y-6166662D01*
X12202825Y-6183557D01*
X12202611Y-6198524D01*
X12202238Y-6211752D01*
X12201696Y-6223434D01*
X12200976Y-6233759D01*
X12200070Y-6242920D01*
X12198970Y-6251098D01*
X12198238Y-6256023D01*
X12197642Y-6260416D01*
X12197257Y-6263696D01*
X12197155Y-6264997D01*
X12197465Y-6266213D01*
X12198530Y-6268130D01*
X12200465Y-6270895D01*
X12203384Y-6274659D01*
X12207401Y-6279568D01*
X12212632Y-6285771D01*
X12218302Y-6292385D01*
X12224281Y-6299314D01*
X12229027Y-6304776D01*
X12232691Y-6308918D01*
X12235423Y-6311887D01*
X12237371Y-6313830D01*
X12238685Y-6314894D01*
X12239516Y-6315226D01*
X12240013Y-6314973D01*
X12240326Y-6314282D01*
X12240388Y-6314074D01*
X12241837Y-6309227D01*
X12243429Y-6304204D01*
X12245023Y-6299415D01*
X12246476Y-6295271D01*
X12247649Y-6292180D01*
X12248399Y-6290553D01*
X12248547Y-6290404D01*
X12248991Y-6291379D01*
X12249661Y-6294006D01*
X12250449Y-6297837D01*
X12250976Y-6300762D01*
X12251557Y-6304312D01*
X12252125Y-6308154D01*
X12252712Y-6312561D01*
X12253352Y-6317807D01*
X12254077Y-6324166D01*
X12254919Y-6331911D01*
X12255911Y-6341316D01*
X12256664Y-6348566D01*
X12257078Y-6351678D01*
X12257525Y-6353703D01*
X12257779Y-6354143D01*
X12258783Y-6353514D01*
X12261029Y-6351829D01*
X12264125Y-6349385D01*
X12265944Y-6347911D01*
X12281950Y-6333475D01*
X12296516Y-6317557D01*
X12309554Y-6300316D01*
X12320977Y-6281907D01*
X12330700Y-6262488D01*
X12338634Y-6242215D01*
X12344693Y-6221245D01*
X12348790Y-6199735D01*
X12349033Y-6197982D01*
X12349825Y-6189998D01*
X12350314Y-6180539D01*
X12350500Y-6170233D01*
X12350385Y-6159708D01*
X12349971Y-6149593D01*
X12349259Y-6140515D01*
X12348885Y-6137262D01*
X12345066Y-6115799D01*
X12339249Y-6094920D01*
X12331513Y-6074745D01*
X12321932Y-6055396D01*
X12310583Y-6036993D01*
X12297543Y-6019659D01*
X12282888Y-6003515D01*
X12266696Y-5988681D01*
X12249042Y-5975279D01*
X12244871Y-5972470D01*
X12236835Y-5967565D01*
X12227412Y-5962441D01*
X12217269Y-5957420D01*
X12207074Y-5952825D01*
X12197494Y-5948978D01*
X12192859Y-5947342D01*
X12188034Y-5945769D01*
X12184000Y-5944513D01*
X12181150Y-5943690D01*
X12179873Y-5943419D01*
X12179844Y-5943429D01*
X12173545Y-5943429D01*
X12173067Y-5941219D01*
X12170737Y-5931053D01*
X12168546Y-5922161D01*
X12166550Y-5914807D01*
X12164804Y-5909254D01*
X12164585Y-5908641D01*
X12161013Y-5900209D01*
X12156117Y-5890709D01*
X12150127Y-5880524D01*
X12143271Y-5870034D01*
X12135778Y-5859623D01*
X12133330Y-5856432D01*
X12126698Y-5847918D01*
X12125914Y-5821756D01*
X12125631Y-5813782D01*
X12125271Y-5805855D01*
X12124861Y-5798435D01*
X12124428Y-5791985D01*
X12123997Y-5786964D01*
X12123790Y-5785121D01*
X12123662Y-5784427D01*
X12123541Y-5784449D01*
X12123429Y-5785246D01*
X12123323Y-5786876D01*
X12123225Y-5789399D01*
X12123133Y-5792873D01*
X12123047Y-5797358D01*
X12122968Y-5802911D01*
X12122895Y-5809592D01*
X12122827Y-5817459D01*
X12122765Y-5826572D01*
X12122707Y-5836989D01*
X12122655Y-5848769D01*
X12122607Y-5861970D01*
X12122564Y-5876653D01*
X12122525Y-5892874D01*
X12122489Y-5910694D01*
X12122457Y-5930171D01*
X12122429Y-5951364D01*
X12122403Y-5974331D01*
X12122380Y-5999132D01*
X12122360Y-6025825D01*
X12122342Y-6054469D01*
X12122326Y-6085123D01*
X12122312Y-6116181D01*
X12122174Y-6457712D01*
X12116937Y-6457712D01*
X12116864Y-6292529D01*
X12116854Y-6272477D01*
X12116842Y-6252575D01*
X12116828Y-6232967D01*
X12116812Y-6213798D01*
X12116796Y-6195210D01*
X12116777Y-6177348D01*
X12116758Y-6160357D01*
X12116738Y-6144379D01*
X12116717Y-6129560D01*
X12116695Y-6116043D01*
X12116673Y-6103972D01*
X12116651Y-6093492D01*
X12116628Y-6084746D01*
X12116606Y-6077878D01*
X12116591Y-6074222D01*
X12116570Y-6068449D01*
X12116554Y-6060710D01*
X12116544Y-6051167D01*
X12116538Y-6039980D01*
X12116537Y-6027308D01*
X12116541Y-6013313D01*
X12116550Y-5998152D01*
X12116562Y-5981988D01*
X12116580Y-5964980D01*
X12116601Y-5947287D01*
X12116627Y-5929071D01*
X12116657Y-5910491D01*
X12116691Y-5891707D01*
X12116717Y-5878756D01*
X12117036Y-5722596D01*
X12119687Y-5728407D01*
G37*
%TO.C,SW402*%
D15*
X12528400Y-8616800D02*
X12528400Y-8756800D01*
X12668400Y-8616800D02*
X12668400Y-8756800D01*
X12643121Y-8686800D02*
G75*
G02*
X12553679Y-8686800I-44721J0D01*
G01*
X12553679Y-8686800D02*
G75*
G02*
X12643121Y-8686800I44721J0D01*
G01*
%TO.C,TP403*%
D13*
X10844280Y-8458200D02*
G75*
G02*
X10654280Y-8458200I-95000J0D01*
G01*
X10654280Y-8458200D02*
G75*
G02*
X10844280Y-8458200I95000J0D01*
G01*
%TO.C,J408*%
X9825500Y-7693500D02*
X9825500Y-8081500D01*
X10022500Y-7576500D02*
X10272500Y-7576500D01*
X10022500Y-8198500D02*
X10272500Y-8198500D01*
X10272500Y-7576500D02*
X10272500Y-7681500D01*
X10272500Y-7681500D02*
X10371500Y-7681500D01*
X10272500Y-8198500D02*
X10272500Y-8093500D01*
%TO.C,J402*%
X10145000Y-8408300D02*
X10315000Y-8408300D01*
X10145000Y-9342300D02*
X10315000Y-9342300D01*
%TO.C,J403*%
X12048000Y-8988000D02*
X12692000Y-8988000D01*
X12048000Y-10582000D02*
X12048000Y-8988000D01*
X12048000Y-10582000D02*
X12692000Y-10582000D01*
X12100000Y-10582000D02*
X12100000Y-8988000D01*
X12630000Y-10582000D02*
X12630000Y-8988000D01*
X12692000Y-10390000D02*
X12692000Y-8988000D01*
X12692000Y-10582000D02*
X12692000Y-10450000D01*
X12692000Y-10420000D02*
X12753000Y-10376000D01*
X12753000Y-10464000D01*
X12692000Y-10420000D01*
G36*
X12753000Y-10464000D02*
G01*
X12692000Y-10420000D01*
X12753000Y-10376000D01*
X12753000Y-10464000D01*
G37*
%TO.C,BZ401*%
D15*
X12377600Y-6221600D02*
X12717600Y-6221600D01*
X12377600Y-6681600D02*
X12377600Y-6221600D01*
X12657600Y-6681600D02*
X12377600Y-6681600D01*
X12717600Y-6221600D02*
X12717600Y-6621600D01*
X12717600Y-6621600D02*
X12657600Y-6681600D01*
%TO.C,U202*%
D13*
X11971880Y-6937600D02*
X11998880Y-6937600D01*
X11971880Y-7489600D02*
X11971880Y-6937600D01*
X11998880Y-7489600D02*
X11971880Y-7489600D01*
X12496880Y-6937600D02*
X12523880Y-6937600D01*
X12523880Y-6937600D02*
X12523880Y-7489600D01*
X12523880Y-7489600D02*
X12496880Y-7489600D01*
X11997880Y-7572600D02*
X11950880Y-7606600D01*
X11950880Y-7538600D01*
X11997880Y-7572600D01*
G36*
X11997880Y-7572600D02*
G01*
X11950880Y-7606600D01*
X11950880Y-7538600D01*
X11997880Y-7572600D01*
G37*
%TO.C,U302*%
X11106000Y-8386000D02*
X11106000Y-8368500D01*
X11173500Y-8114000D02*
X11136000Y-8114000D01*
X11173500Y-8386000D02*
X11106000Y-8386000D01*
X11360500Y-8114000D02*
X11428000Y-8114000D01*
X11360500Y-8386000D02*
X11428000Y-8386000D01*
X11428000Y-8114000D02*
X11428000Y-8131500D01*
X11428000Y-8386000D02*
X11428000Y-8368500D01*
X11106000Y-8114000D02*
X11092000Y-8095000D01*
X11120000Y-8095000D01*
X11106000Y-8114000D01*
G36*
X11106000Y-8114000D02*
G01*
X11092000Y-8095000D01*
X11120000Y-8095000D01*
X11106000Y-8114000D01*
G37*
%TO.C,C301*%
X11604373Y-8276000D02*
X11633627Y-8276000D01*
X11604373Y-8378000D02*
X11633627Y-8378000D01*
%TO.C,D406*%
X10619900Y-7962190D02*
X10619900Y-8208190D01*
X10766900Y-7962190D02*
X10619900Y-7962190D01*
X10766900Y-8208190D02*
X10766900Y-7962190D01*
%TO.C,J401*%
X9895000Y-7162800D02*
X9895000Y-6135800D01*
X10171000Y-6135800D02*
X9895000Y-6135800D01*
X10171000Y-7162800D02*
X9895000Y-7162800D01*
X10171000Y-7162800D02*
X10171000Y-6135800D01*
X10171000Y-7289800D02*
X10171000Y-7427800D01*
X10171000Y-7427800D02*
X10033000Y-7427800D01*
%TO.C,C305*%
X11871760Y-8300217D02*
X11871760Y-8270963D01*
X11973760Y-8300217D02*
X11973760Y-8270963D01*
%TO.C,D101*%
X11056500Y-11122500D02*
X11302500Y-11122500D01*
X11302500Y-10975500D02*
X11056500Y-10975500D01*
X11302500Y-11122500D02*
X11302500Y-10975500D01*
%TO.C,R101*%
X11529322Y-10996750D02*
X11478378Y-10996750D01*
X11529322Y-11101250D02*
X11478378Y-11101250D01*
%TO.C,C209*%
X12129223Y-6603800D02*
X12158477Y-6603800D01*
X12129223Y-6705800D02*
X12158477Y-6705800D01*
%TO.C,U304*%
X11475500Y-8496500D02*
X11506900Y-8496500D01*
X11475500Y-8546500D02*
X11475500Y-8496500D01*
X11475500Y-8826500D02*
X11475500Y-8776500D01*
X11506900Y-8826500D02*
X11475500Y-8826500D01*
X11995500Y-8526500D02*
X11995500Y-8601500D01*
X11995500Y-8776500D02*
X11995500Y-8826500D01*
X11995500Y-8826500D02*
X11964100Y-8826500D01*
X11995500Y-8506500D02*
X11995500Y-8470500D01*
X12031500Y-8506500D01*
X11995500Y-8506500D01*
G36*
X12031500Y-8506500D02*
G01*
X11995500Y-8506500D01*
X11995500Y-8470500D01*
X12031500Y-8506500D01*
G37*
%TO.C,C303*%
X11301073Y-5749000D02*
X11330327Y-5749000D01*
X11301073Y-5851000D02*
X11330327Y-5851000D01*
%TO.C,R610*%
X11856982Y-9432110D02*
X11806038Y-9432110D01*
X11856982Y-9536610D02*
X11806038Y-9536610D01*
%TO.C,R614*%
X10854510Y-9936552D02*
X10854510Y-9885608D01*
X10959010Y-9936552D02*
X10959010Y-9885608D01*
%TD*%
M02*
