%TF.GenerationSoftware,KiCad,Pcbnew,10.0.4*%
%TF.CreationDate,2026-07-11T11:56:12-05:00*%
%TF.ProjectId,Flight Computer,466c6967-6874-4204-936f-6d7075746572,rev?*%
%TF.SameCoordinates,Original*%
%TF.FileFunction,Soldermask,Bot*%
%TF.FilePolarity,Negative*%
%FSLAX45Y45*%
G04 Gerber Fmt 4.5, Leading zero omitted, Abs format (unit mm)*
G04 Created by KiCad (PCBNEW 10.0.4) date 2026-07-11 11:56:12*
%MOMM*%
%LPD*%
G01*
G04 APERTURE LIST*
G04 Aperture macros list*
%AMRoundRect*
0 Rectangle with rounded corners*
0 $1 Rounding radius*
0 $2 $3 $4 $5 $6 $7 $8 $9 X,Y pos of 4 corners*
0 Add a 4 corners polygon primitive as box body*
4,1,4,$2,$3,$4,$5,$6,$7,$8,$9,$2,$3,0*
0 Add four circle primitives for the rounded corners*
1,1,$1+$1,$2,$3*
1,1,$1+$1,$4,$5*
1,1,$1+$1,$6,$7*
1,1,$1+$1,$8,$9*
0 Add four rect primitives between the rounded corners*
20,1,$1+$1,$2,$3,$4,$5,0*
20,1,$1+$1,$4,$5,$6,$7,0*
20,1,$1+$1,$6,$7,$8,$9,0*
20,1,$1+$1,$8,$9,$2,$3,0*%
G04 Aperture macros list end*
%ADD10C,3.201600*%
%ADD11C,5.501600*%
%ADD12RoundRect,0.050800X-0.850000X-0.850000X0.850000X-0.850000X0.850000X0.850000X-0.850000X0.850000X0*%
%ADD13C,1.801600*%
%ADD14RoundRect,0.300799X-0.850001X0.850001X-0.850001X-0.850001X0.850001X-0.850001X0.850001X0.850001X0*%
%ADD15C,2.301600*%
%ADD16RoundRect,0.238300X-1.312500X0.437500X-1.312500X-0.437500X1.312500X-0.437500X1.312500X0.437500X0*%
%ADD17C,0.751600*%
%ADD18O,2.201600X1.101600*%
%ADD19O,1.901600X1.101600*%
%ADD20RoundRect,0.300799X0.850001X-0.850001X0.850001X0.850001X-0.850001X0.850001X-0.850001X-0.850001X0*%
%ADD21RoundRect,0.050800X-0.850000X0.850000X-0.850000X-0.850000X0.850000X-0.850000X0.850000X0.850000X0*%
%ADD22RoundRect,0.238300X-0.437500X-1.312500X0.437500X-1.312500X0.437500X1.312500X-0.437500X1.312500X0*%
%ADD23RoundRect,0.288300X0.237500X-0.250000X0.237500X0.250000X-0.237500X0.250000X-0.237500X-0.250000X0*%
%ADD24RoundRect,0.288300X0.044194X0.380070X-0.380070X-0.044194X-0.044194X-0.380070X0.380070X0.044194X0*%
%ADD25RoundRect,0.050800X0.114300X-0.127000X0.114300X0.127000X-0.114300X0.127000X-0.114300X-0.127000X0*%
%ADD26RoundRect,0.050800X0.127000X0.203200X-0.127000X0.203200X-0.127000X-0.203200X0.127000X-0.203200X0*%
%ADD27RoundRect,0.288300X0.250000X0.237500X-0.250000X0.237500X-0.250000X-0.237500X0.250000X-0.237500X0*%
%ADD28RoundRect,0.288300X-0.250000X-0.237500X0.250000X-0.237500X0.250000X0.237500X-0.250000X0.237500X0*%
%ADD29RoundRect,0.288300X-0.300000X-0.237500X0.300000X-0.237500X0.300000X0.237500X-0.300000X0.237500X0*%
%ADD30RoundRect,0.288300X0.237500X-0.300000X0.237500X0.300000X-0.237500X0.300000X-0.237500X-0.300000X0*%
%ADD31RoundRect,0.200800X-0.512500X-0.150000X0.512500X-0.150000X0.512500X0.150000X-0.512500X0.150000X0*%
%ADD32RoundRect,0.288300X0.237500X-0.287500X0.237500X0.287500X-0.237500X0.287500X-0.237500X-0.287500X0*%
%ADD33RoundRect,0.288300X0.287500X0.237500X-0.287500X0.237500X-0.287500X-0.237500X0.287500X-0.237500X0*%
%ADD34RoundRect,0.288300X-0.380070X0.044194X0.044194X-0.380070X0.380070X-0.044194X-0.044194X0.380070X0*%
%ADD35RoundRect,0.200800X0.587500X0.150000X-0.587500X0.150000X-0.587500X-0.150000X0.587500X-0.150000X0*%
%ADD36RoundRect,0.288300X0.300000X0.237500X-0.300000X0.237500X-0.300000X-0.237500X0.300000X-0.237500X0*%
%ADD37RoundRect,0.288300X-0.237500X0.250000X-0.237500X-0.250000X0.237500X-0.250000X0.237500X0.250000X0*%
%ADD38RoundRect,0.200800X-0.150000X0.512500X-0.150000X-0.512500X0.150000X-0.512500X0.150000X0.512500X0*%
%ADD39C,2.000000*%
%ADD40RoundRect,0.200800X-0.150000X0.587500X-0.150000X-0.587500X0.150000X-0.587500X0.150000X0.587500X0*%
%ADD41RoundRect,0.250800X-0.250000X-0.200000X0.250000X-0.200000X0.250000X0.200000X-0.250000X0.200000X0*%
%ADD42RoundRect,0.288300X-0.237500X0.300000X-0.237500X-0.300000X0.237500X-0.300000X0.237500X0.300000X0*%
%ADD43RoundRect,0.113300X0.350000X0.062500X-0.350000X0.062500X-0.350000X-0.062500X0.350000X-0.062500X0*%
%ADD44RoundRect,0.113300X0.062500X0.350000X-0.062500X0.350000X-0.062500X-0.350000X0.062500X-0.350000X0*%
%ADD45RoundRect,0.050800X1.300000X1.300000X-1.300000X1.300000X-1.300000X-1.300000X1.300000X-1.300000X0*%
%ADD46RoundRect,0.125800X0.548008X-0.441942X-0.441942X0.548008X-0.548008X0.441942X0.441942X-0.548008X0*%
%ADD47RoundRect,0.125800X0.548008X0.441942X0.441942X0.548008X-0.548008X-0.441942X-0.441942X-0.548008X0*%
%ADD48RoundRect,0.200800X0.150000X-0.512500X0.150000X0.512500X-0.150000X0.512500X-0.150000X-0.512500X0*%
%ADD49RoundRect,0.288300X-0.287500X-0.237500X0.287500X-0.237500X0.287500X0.237500X-0.287500X0.237500X0*%
%ADD50RoundRect,0.425800X-0.625000X-0.375000X0.625000X-0.375000X0.625000X0.375000X-0.625000X0.375000X0*%
%ADD51RoundRect,0.550800X-0.500000X-1.400000X0.500000X-1.400000X0.500000X1.400000X-0.500000X1.400000X0*%
%ADD52RoundRect,0.300800X-0.385000X-1.350000X0.385000X-1.350000X0.385000X1.350000X-0.385000X1.350000X0*%
%ADD53RoundRect,0.300800X-0.425000X-1.600000X0.425000X-1.600000X0.425000X1.600000X-0.425000X1.600000X0*%
%ADD54RoundRect,0.102000X0.530330X-0.813173X0.813173X-0.530330X-0.530330X0.813173X-0.813173X0.530330X0*%
G04 APERTURE END LIST*
D10*
%TO.C,H404*%
X12470000Y-10950000D03*
D11*
X12470000Y-10950000D03*
%TD*%
D10*
%TO.C,H401*%
X10070000Y-5550000D03*
D11*
X10070000Y-5550000D03*
%TD*%
D12*
%TO.C,J403*%
X10020000Y-6035000D03*
D13*
X10020000Y-6289000D03*
X10020000Y-6543000D03*
X10020000Y-6797000D03*
X10020000Y-7051000D03*
X10020000Y-7305000D03*
%TD*%
D14*
%TO.C,J405*%
X10164000Y-9658000D03*
D15*
X10164000Y-9912000D03*
X10164000Y-10166000D03*
X10164000Y-10420000D03*
%TD*%
D16*
%TO.C,J406*%
X12550000Y-8425000D03*
X12550000Y-8171000D03*
X12550000Y-7917000D03*
X12550000Y-7663000D03*
%TD*%
D17*
%TO.C,J402*%
X10395500Y-8586300D03*
X10395500Y-9164300D03*
D18*
X10445500Y-8443300D03*
D19*
X10027500Y-8443300D03*
D18*
X10445500Y-9307300D03*
D19*
X10027500Y-9307300D03*
%TD*%
D20*
%TO.C,J404*%
X12370000Y-10420000D03*
D15*
X12370000Y-10166000D03*
X12370000Y-9912000D03*
X12370000Y-9658000D03*
X12370000Y-9404000D03*
X12370000Y-9150000D03*
%TD*%
D10*
%TO.C,H403*%
X10070000Y-10950000D03*
D11*
X10070000Y-10950000D03*
%TD*%
D21*
%TO.C,J401*%
X11774995Y-11050000D03*
D13*
X11520995Y-11050000D03*
X11266995Y-11050000D03*
X11012995Y-11050000D03*
X10758995Y-11050000D03*
%TD*%
D22*
%TO.C,J407*%
X12055000Y-5435000D03*
X11801000Y-5435000D03*
X11547000Y-5435000D03*
%TD*%
D10*
%TO.C,H402*%
X12470000Y-5550000D03*
D11*
X12470000Y-5550000D03*
%TD*%
D23*
%TO.C,R404*%
X12567920Y-6517260D03*
X12567920Y-6334760D03*
%TD*%
D24*
%TO.C,C208*%
X11757688Y-9578312D03*
X11635712Y-9700288D03*
%TD*%
D25*
%TO.C,U502*%
X10934950Y-6176444D03*
X10934950Y-6226456D03*
D26*
X10896600Y-6230700D03*
D25*
X10858250Y-6226456D03*
X10858250Y-6176444D03*
D26*
X10896600Y-6172200D03*
%TD*%
D27*
%TO.C,R608*%
X12135740Y-10571480D03*
X11953240Y-10571480D03*
%TD*%
D28*
%TO.C,R405*%
X12240450Y-7175500D03*
X12422950Y-7175500D03*
%TD*%
D29*
%TO.C,C501*%
X11575000Y-7099300D03*
X11747500Y-7099300D03*
%TD*%
D30*
%TO.C,C504*%
X11836400Y-6931550D03*
X11836400Y-6759050D03*
%TD*%
D31*
%TO.C,Q601*%
X11712490Y-10260080D03*
X11712490Y-10070080D03*
X11939990Y-10165080D03*
%TD*%
D32*
%TO.C,L505*%
X11341100Y-6527800D03*
X11341100Y-6352800D03*
%TD*%
D33*
%TO.C,L503*%
X10933300Y-6883400D03*
X10758300Y-6883400D03*
%TD*%
D28*
%TO.C,R203*%
X12489370Y-8719820D03*
X12671870Y-8719820D03*
%TD*%
D27*
%TO.C,R401*%
X10169000Y-9050300D03*
X9986500Y-9050300D03*
%TD*%
%TO.C,R201*%
X12516930Y-8564880D03*
X12334430Y-8564880D03*
%TD*%
%TO.C,R205*%
X12496250Y-7460000D03*
X12313750Y-7460000D03*
%TD*%
D34*
%TO.C,C204*%
X10530812Y-9108412D03*
X10652788Y-9230388D03*
%TD*%
D23*
%TO.C,R501*%
X10490200Y-6355000D03*
X10490200Y-6172500D03*
%TD*%
D35*
%TO.C,D405*%
X12331700Y-6350500D03*
X12331700Y-6540500D03*
X12144200Y-6445500D03*
%TD*%
D27*
%TO.C,R604*%
X11668570Y-9911080D03*
X11486070Y-9911080D03*
%TD*%
D36*
%TO.C,C503*%
X11020950Y-7861300D03*
X10848450Y-7861300D03*
%TD*%
D27*
%TO.C,R402*%
X10171250Y-8750300D03*
X9988750Y-8750300D03*
%TD*%
D37*
%TO.C,R406*%
X12623800Y-6969950D03*
X12623800Y-7152450D03*
%TD*%
D38*
%TO.C,Q101*%
X10446000Y-9911630D03*
X10636000Y-9911630D03*
X10541000Y-10139130D03*
%TD*%
D27*
%TO.C,R612*%
X12659170Y-8940800D03*
X12476670Y-8940800D03*
%TD*%
D28*
%TO.C,R613*%
X11018750Y-10172500D03*
X11201250Y-10172500D03*
%TD*%
D37*
%TO.C,R202*%
X10096500Y-7755000D03*
X10096500Y-7937500D03*
%TD*%
D29*
%TO.C,C206*%
X11201400Y-7861300D03*
X11373900Y-7861300D03*
%TD*%
D28*
%TO.C,R204*%
X10111930Y-8178800D03*
X10294430Y-8178800D03*
%TD*%
D30*
%TO.C,C205*%
X10414000Y-8950850D03*
X10414000Y-8778350D03*
%TD*%
D37*
%TO.C,R607*%
X12136120Y-10165460D03*
X12136120Y-10347960D03*
%TD*%
D39*
%TO.C,FID402*%
X12020000Y-6024000D03*
%TD*%
D40*
%TO.C,D401*%
X10446000Y-9499600D03*
X10636000Y-9499600D03*
X10541000Y-9687100D03*
%TD*%
D23*
%TO.C,R609*%
X12171680Y-9656890D03*
X12171680Y-9474390D03*
%TD*%
D30*
%TO.C,C510*%
X11671300Y-6525150D03*
X11671300Y-6352650D03*
%TD*%
D41*
%TO.C,Y501*%
X11601300Y-7285600D03*
X11741300Y-7285600D03*
X11741300Y-7395600D03*
X11601300Y-7395600D03*
%TD*%
D24*
%TO.C,C207*%
X11643388Y-9464012D03*
X11521412Y-9585988D03*
%TD*%
D28*
%TO.C,R602*%
X11714670Y-10424160D03*
X11897170Y-10424160D03*
%TD*%
D42*
%TO.C,C505*%
X11557000Y-7698850D03*
X11557000Y-7871350D03*
%TD*%
D34*
%TO.C,C201*%
X12197080Y-8689340D03*
X12319056Y-8811316D03*
%TD*%
D32*
%TO.C,L502*%
X11506200Y-6932800D03*
X11506200Y-6757800D03*
%TD*%
D36*
%TO.C,C518*%
X10703450Y-5816600D03*
X10530950Y-5816600D03*
%TD*%
D37*
%TO.C,R102*%
X10807700Y-9725850D03*
X10807700Y-9908350D03*
%TD*%
D29*
%TO.C,C516*%
X10897850Y-5994400D03*
X11070350Y-5994400D03*
%TD*%
D42*
%TO.C,C508*%
X10820400Y-6527800D03*
X10820400Y-6700300D03*
%TD*%
D43*
%TO.C,U501*%
X11376400Y-7190200D03*
X11376400Y-7240200D03*
X11376400Y-7290200D03*
X11376400Y-7340200D03*
X11376400Y-7390200D03*
X11376400Y-7440200D03*
D44*
X11307650Y-7508950D03*
X11257650Y-7508950D03*
X11207650Y-7508950D03*
X11157650Y-7508950D03*
X11107650Y-7508950D03*
X11057650Y-7508950D03*
D43*
X10988900Y-7440200D03*
X10988900Y-7390200D03*
X10988900Y-7340200D03*
X10988900Y-7290200D03*
X10988900Y-7240200D03*
X10988900Y-7190200D03*
D44*
X11057650Y-7121450D03*
X11107650Y-7121450D03*
X11157650Y-7121450D03*
X11207650Y-7121450D03*
X11257650Y-7121450D03*
X11307650Y-7121450D03*
D45*
X11182650Y-7315200D03*
%TD*%
D42*
%TO.C,C515*%
X11125200Y-6177500D03*
X11125200Y-6350000D03*
%TD*%
D30*
%TO.C,C506*%
X11671300Y-6931550D03*
X11671300Y-6759050D03*
%TD*%
D36*
%TO.C,C502*%
X11020950Y-7696200D03*
X10848450Y-7696200D03*
%TD*%
D31*
%TO.C,Q602*%
X11869970Y-9914640D03*
X11869970Y-9724640D03*
X12097470Y-9819640D03*
%TD*%
D30*
%TO.C,C101*%
X11409680Y-10622170D03*
X11409680Y-10449670D03*
%TD*%
D46*
%TO.C,U201*%
X11931553Y-8895447D03*
X11896198Y-8930802D03*
X11860843Y-8966157D03*
X11825487Y-9001513D03*
X11790132Y-9036868D03*
X11754777Y-9072223D03*
X11719421Y-9107579D03*
X11684066Y-9142934D03*
X11648711Y-9178289D03*
X11613355Y-9213645D03*
X11578000Y-9249000D03*
X11542645Y-9284355D03*
X11507289Y-9319711D03*
X11471934Y-9355066D03*
X11436579Y-9390421D03*
X11401223Y-9425777D03*
D47*
X11128987Y-9425777D03*
X11093632Y-9390421D03*
X11058277Y-9355066D03*
X11022921Y-9319711D03*
X10987566Y-9284355D03*
X10952210Y-9249000D03*
X10916855Y-9213645D03*
X10881500Y-9178289D03*
X10846144Y-9142934D03*
X10810789Y-9107579D03*
X10775434Y-9072223D03*
X10740078Y-9036868D03*
X10704723Y-9001513D03*
X10669368Y-8966157D03*
X10634012Y-8930802D03*
X10598657Y-8895447D03*
D46*
X10598657Y-8623211D03*
X10634012Y-8587855D03*
X10669368Y-8552500D03*
X10704723Y-8517145D03*
X10740078Y-8481789D03*
X10775434Y-8446434D03*
X10810789Y-8411079D03*
X10846144Y-8375723D03*
X10881500Y-8340368D03*
X10916855Y-8305012D03*
X10952210Y-8269657D03*
X10987566Y-8234302D03*
X11022921Y-8198946D03*
X11058277Y-8163591D03*
X11093632Y-8128236D03*
X11128987Y-8092880D03*
D47*
X11401223Y-8092880D03*
X11436579Y-8128236D03*
X11471934Y-8163591D03*
X11507289Y-8198946D03*
X11542645Y-8234302D03*
X11578000Y-8269657D03*
X11613355Y-8305012D03*
X11648711Y-8340368D03*
X11684066Y-8375723D03*
X11719421Y-8411079D03*
X11754777Y-8446434D03*
X11790132Y-8481789D03*
X11825487Y-8517145D03*
X11860843Y-8552500D03*
X11896198Y-8587855D03*
X11931553Y-8623211D03*
%TD*%
D48*
%TO.C,Q401*%
X12426700Y-6971750D03*
X12236700Y-6971750D03*
X12331700Y-6744250D03*
%TD*%
D30*
%TO.C,C507*%
X10591800Y-6883400D03*
X10591800Y-6710900D03*
%TD*%
D23*
%TO.C,R611*%
X12659360Y-9280970D03*
X12659360Y-9098470D03*
%TD*%
D49*
%TO.C,L501*%
X11202800Y-7696200D03*
X11377800Y-7696200D03*
%TD*%
D37*
%TO.C,R601*%
X11531600Y-10078910D03*
X11531600Y-10261410D03*
%TD*%
D39*
%TO.C,FID401*%
X10275000Y-6015000D03*
%TD*%
D36*
%TO.C,C509*%
X10652650Y-6527800D03*
X10480150Y-6527800D03*
%TD*%
D50*
%TO.C,U101*%
X10556200Y-10842280D03*
X10556200Y-10612280D03*
D51*
X11186200Y-10612280D03*
D50*
X10556200Y-10382280D03*
%TD*%
D32*
%TO.C,L504*%
X11506200Y-6527800D03*
X11506200Y-6352800D03*
%TD*%
D29*
%TO.C,C513*%
X10988150Y-6705600D03*
X11160650Y-6705600D03*
%TD*%
D34*
%TO.C,C202*%
X12070080Y-8816340D03*
X12192056Y-8938316D03*
%TD*%
D52*
%TO.C,J501*%
X10896500Y-5460000D03*
D53*
X10614000Y-5485000D03*
X11179000Y-5485000D03*
%TD*%
D30*
%TO.C,C511*%
X11341100Y-6182250D03*
X11341100Y-6009750D03*
%TD*%
D39*
%TO.C,FID403*%
X12032000Y-10917000D03*
%TD*%
D54*
%TO.C,Y201*%
X11869894Y-9339106D03*
X11954747Y-9254253D03*
X12039600Y-9169400D03*
%TD*%
D34*
%TO.C,C203*%
X10924512Y-9489412D03*
X11046488Y-9611388D03*
%TD*%
D29*
%TO.C,C517*%
X11252200Y-5816600D03*
X11424700Y-5816600D03*
%TD*%
%TO.C,C512*%
X10988150Y-6527800D03*
X11160650Y-6527800D03*
%TD*%
D42*
%TO.C,C514*%
X10668000Y-6177500D03*
X10668000Y-6350000D03*
%TD*%
D27*
%TO.C,R614*%
X11201250Y-10002500D03*
X11018750Y-10002500D03*
%TD*%
D33*
%TO.C,L506*%
X11071600Y-5816600D03*
X10896600Y-5816600D03*
%TD*%
M02*
