%TF.GenerationSoftware,KiCad,Pcbnew,10.0.3*%
%TF.CreationDate,2026-06-07T12:26:31-05:00*%
%TF.ProjectId,Flight Computer,466c6967-6874-4204-936f-6d7075746572,rev?*%
%TF.SameCoordinates,Original*%
%TF.FileFunction,Legend,Top*%
%TF.FilePolarity,Positive*%
%FSLAX45Y45*%
G04 Gerber Fmt 4.5, Leading zero omitted, Abs format (unit mm)*
G04 Created by KiCad (PCBNEW 10.0.3) date 2026-06-07 12:26:31*
%MOMM*%
%LPD*%
G01*
G04 APERTURE LIST*
%ADD10C,0.150000*%
%ADD11C,0.250000*%
%ADD12C,0.300000*%
%ADD13C,0.120000*%
%ADD14C,0.000000*%
%ADD15C,0.100000*%
G04 APERTURE END LIST*
D10*
X12168525Y-8916956D02*
X12179240Y-8920527D01*
X12179240Y-8920527D02*
X12182811Y-8924099D01*
X12182811Y-8924099D02*
X12186383Y-8931241D01*
X12186383Y-8931241D02*
X12186383Y-8941956D01*
X12186383Y-8941956D02*
X12182811Y-8949099D01*
X12182811Y-8949099D02*
X12179240Y-8952670D01*
X12179240Y-8952670D02*
X12172097Y-8956241D01*
X12172097Y-8956241D02*
X12143525Y-8956241D01*
X12143525Y-8956241D02*
X12143525Y-8881241D01*
X12143525Y-8881241D02*
X12168525Y-8881241D01*
X12168525Y-8881241D02*
X12175668Y-8884813D01*
X12175668Y-8884813D02*
X12179240Y-8888384D01*
X12179240Y-8888384D02*
X12182811Y-8895527D01*
X12182811Y-8895527D02*
X12182811Y-8902670D01*
X12182811Y-8902670D02*
X12179240Y-8909813D01*
X12179240Y-8909813D02*
X12175668Y-8913384D01*
X12175668Y-8913384D02*
X12168525Y-8916956D01*
X12168525Y-8916956D02*
X12143525Y-8916956D01*
X12232811Y-8881241D02*
X12247097Y-8881241D01*
X12247097Y-8881241D02*
X12254240Y-8884813D01*
X12254240Y-8884813D02*
X12261383Y-8891956D01*
X12261383Y-8891956D02*
X12264954Y-8906241D01*
X12264954Y-8906241D02*
X12264954Y-8931241D01*
X12264954Y-8931241D02*
X12261383Y-8945527D01*
X12261383Y-8945527D02*
X12254240Y-8952670D01*
X12254240Y-8952670D02*
X12247097Y-8956241D01*
X12247097Y-8956241D02*
X12232811Y-8956241D01*
X12232811Y-8956241D02*
X12225668Y-8952670D01*
X12225668Y-8952670D02*
X12218525Y-8945527D01*
X12218525Y-8945527D02*
X12214954Y-8931241D01*
X12214954Y-8931241D02*
X12214954Y-8906241D01*
X12214954Y-8906241D02*
X12218525Y-8891956D01*
X12218525Y-8891956D02*
X12225668Y-8884813D01*
X12225668Y-8884813D02*
X12232811Y-8881241D01*
X12311383Y-8881241D02*
X12325668Y-8881241D01*
X12325668Y-8881241D02*
X12332811Y-8884813D01*
X12332811Y-8884813D02*
X12339954Y-8891956D01*
X12339954Y-8891956D02*
X12343525Y-8906241D01*
X12343525Y-8906241D02*
X12343525Y-8931241D01*
X12343525Y-8931241D02*
X12339954Y-8945527D01*
X12339954Y-8945527D02*
X12332811Y-8952670D01*
X12332811Y-8952670D02*
X12325668Y-8956241D01*
X12325668Y-8956241D02*
X12311383Y-8956241D01*
X12311383Y-8956241D02*
X12304240Y-8952670D01*
X12304240Y-8952670D02*
X12297097Y-8945527D01*
X12297097Y-8945527D02*
X12293525Y-8931241D01*
X12293525Y-8931241D02*
X12293525Y-8906241D01*
X12293525Y-8906241D02*
X12297097Y-8891956D01*
X12297097Y-8891956D02*
X12304240Y-8884813D01*
X12304240Y-8884813D02*
X12311383Y-8881241D01*
X12364954Y-8881241D02*
X12407811Y-8881241D01*
X12386383Y-8956241D02*
X12386383Y-8881241D01*
X12567383Y-8956241D02*
X12542383Y-8920527D01*
X12524525Y-8956241D02*
X12524525Y-8881241D01*
X12524525Y-8881241D02*
X12553097Y-8881241D01*
X12553097Y-8881241D02*
X12560240Y-8884813D01*
X12560240Y-8884813D02*
X12563811Y-8888384D01*
X12563811Y-8888384D02*
X12567383Y-8895527D01*
X12567383Y-8895527D02*
X12567383Y-8906241D01*
X12567383Y-8906241D02*
X12563811Y-8913384D01*
X12563811Y-8913384D02*
X12560240Y-8916956D01*
X12560240Y-8916956D02*
X12553097Y-8920527D01*
X12553097Y-8920527D02*
X12524525Y-8920527D01*
X12595954Y-8952670D02*
X12606668Y-8956241D01*
X12606668Y-8956241D02*
X12624525Y-8956241D01*
X12624525Y-8956241D02*
X12631668Y-8952670D01*
X12631668Y-8952670D02*
X12635240Y-8949099D01*
X12635240Y-8949099D02*
X12638811Y-8941956D01*
X12638811Y-8941956D02*
X12638811Y-8934813D01*
X12638811Y-8934813D02*
X12635240Y-8927670D01*
X12635240Y-8927670D02*
X12631668Y-8924099D01*
X12631668Y-8924099D02*
X12624525Y-8920527D01*
X12624525Y-8920527D02*
X12610240Y-8916956D01*
X12610240Y-8916956D02*
X12603097Y-8913384D01*
X12603097Y-8913384D02*
X12599525Y-8909813D01*
X12599525Y-8909813D02*
X12595954Y-8902670D01*
X12595954Y-8902670D02*
X12595954Y-8895527D01*
X12595954Y-8895527D02*
X12599525Y-8888384D01*
X12599525Y-8888384D02*
X12603097Y-8884813D01*
X12603097Y-8884813D02*
X12610240Y-8881241D01*
X12610240Y-8881241D02*
X12628097Y-8881241D01*
X12628097Y-8881241D02*
X12638811Y-8884813D01*
X12660240Y-8881241D02*
X12703097Y-8881241D01*
X12681668Y-8956241D02*
X12681668Y-8881241D01*
G36*
X11510741Y-5634794D02*
G01*
X11516247Y-5640301D01*
X11519144Y-5646094D01*
X11522530Y-5659639D01*
X11522530Y-5669220D01*
X11519144Y-5682764D01*
X11516247Y-5688558D01*
X11510741Y-5694065D01*
X11502147Y-5696929D01*
X11491816Y-5696929D01*
X11491816Y-5631929D01*
X11502147Y-5631929D01*
X11510741Y-5634794D01*
G37*
G36*
X11986931Y-5634794D02*
G01*
X11992438Y-5640301D01*
X11995335Y-5646094D01*
X11998721Y-5659639D01*
X11998721Y-5669220D01*
X11995335Y-5682764D01*
X11992438Y-5688558D01*
X11986931Y-5694065D01*
X11978337Y-5696929D01*
X11968006Y-5696929D01*
X11968006Y-5631929D01*
X11978337Y-5631929D01*
X11986931Y-5634794D01*
G37*
G36*
X12074159Y-5634403D02*
G01*
X12079448Y-5639692D01*
X12082530Y-5652019D01*
X12082530Y-5676839D01*
X12079448Y-5689166D01*
X12074159Y-5694456D01*
X12069212Y-5696929D01*
X12057515Y-5696929D01*
X12052568Y-5694456D01*
X12047279Y-5689166D01*
X12044197Y-5676839D01*
X12044197Y-5652020D01*
X12047279Y-5639692D01*
X12052568Y-5634403D01*
X12057515Y-5631929D01*
X12069212Y-5631929D01*
X12074159Y-5634403D01*
G37*
G36*
X12106419Y-5720818D02*
G01*
X11467927Y-5720818D01*
X11467927Y-5624429D01*
X11476816Y-5624429D01*
X11476816Y-5704429D01*
X11476960Y-5705893D01*
X11478080Y-5708596D01*
X11480149Y-5710665D01*
X11482853Y-5711785D01*
X11484316Y-5711929D01*
X11503364Y-5711929D01*
X11504104Y-5711856D01*
X11504302Y-5711871D01*
X11504561Y-5711811D01*
X11504827Y-5711785D01*
X11505010Y-5711709D01*
X11505735Y-5711545D01*
X11517164Y-5707735D01*
X11518506Y-5707136D01*
X11518710Y-5706959D01*
X11518959Y-5706856D01*
X11520095Y-5705923D01*
X11527715Y-5698304D01*
X11528186Y-5697729D01*
X11528336Y-5697599D01*
X11528478Y-5697373D01*
X11528647Y-5697168D01*
X11528723Y-5696985D01*
X11529119Y-5696355D01*
X11532929Y-5688736D01*
X11532970Y-5688629D01*
X11533002Y-5688585D01*
X11533222Y-5687970D01*
X11533454Y-5687363D01*
X11533458Y-5687309D01*
X11533497Y-5687201D01*
X11537306Y-5671963D01*
X11537344Y-5671709D01*
X11537386Y-5671607D01*
X11537440Y-5671056D01*
X11537521Y-5670508D01*
X11537505Y-5670399D01*
X11537530Y-5670144D01*
X11537530Y-5658715D01*
X11537505Y-5658460D01*
X11537521Y-5658351D01*
X11537440Y-5657803D01*
X11537386Y-5657252D01*
X11537344Y-5657150D01*
X11537306Y-5656896D01*
X11533497Y-5641658D01*
X11533458Y-5641550D01*
X11533454Y-5641496D01*
X11533222Y-5640889D01*
X11533002Y-5640273D01*
X11532970Y-5640230D01*
X11532929Y-5640123D01*
X11529119Y-5632504D01*
X11528723Y-5631874D01*
X11528647Y-5631691D01*
X11528478Y-5631485D01*
X11528336Y-5631260D01*
X11528186Y-5631130D01*
X11527714Y-5630555D01*
X11521589Y-5624429D01*
X11556816Y-5624429D01*
X11556816Y-5704429D01*
X11556960Y-5705893D01*
X11558080Y-5708596D01*
X11560149Y-5710665D01*
X11562853Y-5711785D01*
X11565779Y-5711785D01*
X11568483Y-5710665D01*
X11570552Y-5708596D01*
X11571672Y-5705893D01*
X11571816Y-5704429D01*
X11571816Y-5639668D01*
X11652054Y-5639668D01*
X11652054Y-5647287D01*
X11652198Y-5648750D01*
X11652301Y-5648999D01*
X11652320Y-5649268D01*
X11652846Y-5650641D01*
X11656655Y-5658260D01*
X11657052Y-5658889D01*
X11657128Y-5659072D01*
X11657297Y-5659279D01*
X11657439Y-5659504D01*
X11657588Y-5659634D01*
X11658060Y-5660209D01*
X11661870Y-5664018D01*
X11662445Y-5664490D01*
X11662575Y-5664640D01*
X11662801Y-5664782D01*
X11663006Y-5664951D01*
X11663189Y-5665027D01*
X11663819Y-5665423D01*
X11671438Y-5669233D01*
X11671545Y-5669274D01*
X11671588Y-5669306D01*
X11672203Y-5669526D01*
X11672811Y-5669758D01*
X11672865Y-5669762D01*
X11672973Y-5669801D01*
X11687412Y-5673411D01*
X11693207Y-5676308D01*
X11695295Y-5678396D01*
X11697768Y-5683343D01*
X11697768Y-5687421D01*
X11695295Y-5692368D01*
X11693206Y-5694456D01*
X11688260Y-5696929D01*
X11672200Y-5696929D01*
X11661926Y-5693505D01*
X11660492Y-5693179D01*
X11657573Y-5693386D01*
X11654956Y-5694695D01*
X11653038Y-5696906D01*
X11652113Y-5699682D01*
X11652320Y-5702601D01*
X11653629Y-5705218D01*
X11655840Y-5707136D01*
X11657182Y-5707735D01*
X11668611Y-5711545D01*
X11669336Y-5711709D01*
X11669519Y-5711785D01*
X11669785Y-5711811D01*
X11670045Y-5711871D01*
X11670242Y-5711856D01*
X11670983Y-5711929D01*
X11690030Y-5711929D01*
X11691493Y-5711785D01*
X11691742Y-5711682D01*
X11692011Y-5711663D01*
X11693384Y-5711138D01*
X11701003Y-5707328D01*
X11701633Y-5706932D01*
X11701816Y-5706856D01*
X11702022Y-5706687D01*
X11702248Y-5706545D01*
X11702378Y-5706395D01*
X11702953Y-5705923D01*
X11706762Y-5702114D01*
X11707234Y-5701539D01*
X11707384Y-5701409D01*
X11707526Y-5701183D01*
X11707695Y-5700977D01*
X11707771Y-5700794D01*
X11708167Y-5700164D01*
X11711976Y-5692545D01*
X11712502Y-5691172D01*
X11712521Y-5690903D01*
X11712624Y-5690655D01*
X11712768Y-5689191D01*
X11712768Y-5681572D01*
X11712624Y-5680109D01*
X11712521Y-5679860D01*
X11712502Y-5679591D01*
X11711976Y-5678218D01*
X11708167Y-5670599D01*
X11707770Y-5669969D01*
X11707695Y-5669786D01*
X11707526Y-5669581D01*
X11707384Y-5669355D01*
X11707234Y-5669225D01*
X11706762Y-5668650D01*
X11702953Y-5664840D01*
X11702377Y-5664368D01*
X11702248Y-5664219D01*
X11702022Y-5664077D01*
X11701816Y-5663908D01*
X11701633Y-5663832D01*
X11701003Y-5663436D01*
X11693384Y-5659626D01*
X11693277Y-5659585D01*
X11693234Y-5659553D01*
X11692620Y-5659333D01*
X11692011Y-5659100D01*
X11691957Y-5659097D01*
X11691849Y-5659058D01*
X11690478Y-5658715D01*
X11728244Y-5658715D01*
X11728244Y-5670144D01*
X11728270Y-5670399D01*
X11728253Y-5670508D01*
X11728334Y-5671056D01*
X11728389Y-5671607D01*
X11728431Y-5671709D01*
X11728468Y-5671963D01*
X11732278Y-5687201D01*
X11732316Y-5687309D01*
X11732320Y-5687363D01*
X11732553Y-5687970D01*
X11732773Y-5688585D01*
X11732805Y-5688629D01*
X11732846Y-5688736D01*
X11736655Y-5696355D01*
X11737052Y-5696985D01*
X11737127Y-5697168D01*
X11737296Y-5697373D01*
X11737439Y-5697599D01*
X11737588Y-5697729D01*
X11738060Y-5698304D01*
X11745679Y-5705923D01*
X11746816Y-5706856D01*
X11747065Y-5706959D01*
X11747268Y-5707136D01*
X11748611Y-5707735D01*
X11760039Y-5711545D01*
X11760765Y-5711709D01*
X11760948Y-5711785D01*
X11761213Y-5711811D01*
X11761473Y-5711871D01*
X11761671Y-5711856D01*
X11762411Y-5711929D01*
X11770030Y-5711929D01*
X11770771Y-5711856D01*
X11770968Y-5711871D01*
X11771228Y-5711811D01*
X11771493Y-5711785D01*
X11771677Y-5711709D01*
X11772402Y-5711545D01*
X11783830Y-5707735D01*
X11785173Y-5707136D01*
X11785377Y-5706959D01*
X11785626Y-5706856D01*
X11786762Y-5705923D01*
X11790572Y-5702114D01*
X11791504Y-5700977D01*
X11792624Y-5698273D01*
X11792624Y-5695347D01*
X11791504Y-5692644D01*
X11789435Y-5690574D01*
X11786732Y-5689454D01*
X11783805Y-5689454D01*
X11781102Y-5690574D01*
X11779965Y-5691507D01*
X11777407Y-5694065D01*
X11768813Y-5696929D01*
X11763628Y-5696929D01*
X11755034Y-5694065D01*
X11749527Y-5688558D01*
X11746630Y-5682764D01*
X11743244Y-5669220D01*
X11743244Y-5659639D01*
X11746630Y-5646095D01*
X11749527Y-5640301D01*
X11755034Y-5634794D01*
X11763628Y-5631929D01*
X11768813Y-5631929D01*
X11777407Y-5634794D01*
X11779965Y-5637352D01*
X11781102Y-5638285D01*
X11783805Y-5639404D01*
X11786732Y-5639404D01*
X11789435Y-5638284D01*
X11791504Y-5636215D01*
X11792624Y-5633511D01*
X11792624Y-5630585D01*
X11791504Y-5627882D01*
X11790572Y-5626745D01*
X11788256Y-5624429D01*
X11812054Y-5624429D01*
X11812054Y-5704429D01*
X11812198Y-5705893D01*
X11813318Y-5708596D01*
X11815387Y-5710665D01*
X11818091Y-5711785D01*
X11821017Y-5711785D01*
X11823721Y-5710665D01*
X11825790Y-5708596D01*
X11826910Y-5705893D01*
X11827054Y-5704429D01*
X11827054Y-5673250D01*
X11830171Y-5670133D01*
X11859268Y-5708929D01*
X11860262Y-5710014D01*
X11862780Y-5711504D01*
X11865677Y-5711918D01*
X11868511Y-5711192D01*
X11870852Y-5709436D01*
X11872343Y-5706918D01*
X11872757Y-5704021D01*
X11872031Y-5701186D01*
X11871268Y-5699929D01*
X11840885Y-5659419D01*
X11870572Y-5629733D01*
X11871504Y-5628596D01*
X11872624Y-5625893D01*
X11872624Y-5624429D01*
X11953006Y-5624429D01*
X11953006Y-5704429D01*
X11953151Y-5705893D01*
X11954270Y-5708596D01*
X11956340Y-5710665D01*
X11959043Y-5711785D01*
X11960506Y-5711929D01*
X11979554Y-5711929D01*
X11980295Y-5711856D01*
X11980492Y-5711871D01*
X11980752Y-5711811D01*
X11981017Y-5711785D01*
X11981200Y-5711709D01*
X11981926Y-5711545D01*
X11993354Y-5707735D01*
X11994697Y-5707136D01*
X11994900Y-5706959D01*
X11995149Y-5706856D01*
X11996286Y-5705923D01*
X12003905Y-5698304D01*
X12004377Y-5697729D01*
X12004527Y-5697599D01*
X12004669Y-5697373D01*
X12004838Y-5697168D01*
X12004913Y-5696985D01*
X12005310Y-5696355D01*
X12009119Y-5688736D01*
X12009160Y-5688629D01*
X12009193Y-5688585D01*
X12009412Y-5687970D01*
X12009645Y-5687363D01*
X12009649Y-5687309D01*
X12009687Y-5687201D01*
X12013497Y-5671963D01*
X12013534Y-5671709D01*
X12013577Y-5671607D01*
X12013631Y-5671056D01*
X12013712Y-5670508D01*
X12013696Y-5670399D01*
X12013721Y-5670144D01*
X12013721Y-5658715D01*
X12013696Y-5658460D01*
X12013712Y-5658351D01*
X12013631Y-5657803D01*
X12013577Y-5657252D01*
X12013534Y-5657150D01*
X12013497Y-5656896D01*
X12012047Y-5651096D01*
X12029197Y-5651096D01*
X12029197Y-5677763D01*
X12029222Y-5678018D01*
X12029206Y-5678127D01*
X12029287Y-5678675D01*
X12029341Y-5679226D01*
X12029383Y-5679328D01*
X12029421Y-5679582D01*
X12033230Y-5694820D01*
X12033725Y-5696204D01*
X12034057Y-5696652D01*
X12034270Y-5697168D01*
X12035203Y-5698304D01*
X12042822Y-5705923D01*
X12043397Y-5706395D01*
X12043527Y-5706545D01*
X12043753Y-5706687D01*
X12043959Y-5706856D01*
X12044141Y-5706932D01*
X12044771Y-5707328D01*
X12052390Y-5711138D01*
X12053764Y-5711663D01*
X12054032Y-5711682D01*
X12054281Y-5711785D01*
X12055745Y-5711929D01*
X12070983Y-5711929D01*
X12072446Y-5711785D01*
X12072695Y-5711682D01*
X12072964Y-5711663D01*
X12074337Y-5711138D01*
X12081956Y-5707328D01*
X12082586Y-5706932D01*
X12082768Y-5706856D01*
X12082974Y-5706687D01*
X12083200Y-5706545D01*
X12083330Y-5706395D01*
X12083905Y-5705923D01*
X12091524Y-5698304D01*
X12092457Y-5697168D01*
X12092670Y-5696652D01*
X12093002Y-5696204D01*
X12093497Y-5694820D01*
X12097306Y-5679582D01*
X12097344Y-5679328D01*
X12097386Y-5679226D01*
X12097440Y-5678676D01*
X12097521Y-5678127D01*
X12097505Y-5678018D01*
X12097530Y-5677763D01*
X12097530Y-5651096D01*
X12097505Y-5650841D01*
X12097521Y-5650732D01*
X12097440Y-5650183D01*
X12097386Y-5649633D01*
X12097344Y-5649531D01*
X12097306Y-5649277D01*
X12093497Y-5634039D01*
X12093002Y-5632654D01*
X12092670Y-5632206D01*
X12092457Y-5631691D01*
X12091524Y-5630555D01*
X12083905Y-5622936D01*
X12083330Y-5622464D01*
X12083200Y-5622314D01*
X12082974Y-5622172D01*
X12082768Y-5622003D01*
X12082585Y-5621927D01*
X12081956Y-5621531D01*
X12074337Y-5617721D01*
X12072964Y-5617196D01*
X12072695Y-5617177D01*
X12072446Y-5617074D01*
X12070983Y-5616929D01*
X12055745Y-5616929D01*
X12054281Y-5617074D01*
X12054032Y-5617177D01*
X12053764Y-5617196D01*
X12052390Y-5617721D01*
X12044771Y-5621531D01*
X12044142Y-5621927D01*
X12043959Y-5622003D01*
X12043752Y-5622172D01*
X12043527Y-5622314D01*
X12043397Y-5622464D01*
X12042822Y-5622936D01*
X12035203Y-5630555D01*
X12034270Y-5631691D01*
X12034057Y-5632206D01*
X12033725Y-5632654D01*
X12033230Y-5634039D01*
X12029421Y-5649277D01*
X12029383Y-5649531D01*
X12029341Y-5649633D01*
X12029287Y-5650184D01*
X12029206Y-5650731D01*
X12029222Y-5650841D01*
X12029197Y-5651096D01*
X12012047Y-5651096D01*
X12009687Y-5641658D01*
X12009649Y-5641550D01*
X12009645Y-5641496D01*
X12009412Y-5640889D01*
X12009193Y-5640273D01*
X12009160Y-5640230D01*
X12009119Y-5640123D01*
X12005310Y-5632504D01*
X12004914Y-5631874D01*
X12004838Y-5631691D01*
X12004669Y-5631485D01*
X12004527Y-5631260D01*
X12004377Y-5631130D01*
X12003905Y-5630555D01*
X11996286Y-5622936D01*
X11995149Y-5622003D01*
X11994900Y-5621900D01*
X11994697Y-5621723D01*
X11993354Y-5621124D01*
X11981926Y-5617314D01*
X11981200Y-5617149D01*
X11981017Y-5617074D01*
X11980752Y-5617047D01*
X11980492Y-5616988D01*
X11980295Y-5617002D01*
X11979554Y-5616929D01*
X11960506Y-5616929D01*
X11959043Y-5617074D01*
X11956340Y-5618193D01*
X11954270Y-5620263D01*
X11953151Y-5622966D01*
X11953006Y-5624429D01*
X11872624Y-5624429D01*
X11872624Y-5622966D01*
X11871504Y-5620263D01*
X11869435Y-5618193D01*
X11866732Y-5617074D01*
X11863805Y-5617074D01*
X11861102Y-5618193D01*
X11859965Y-5619126D01*
X11827054Y-5652037D01*
X11827054Y-5624429D01*
X11826910Y-5622966D01*
X11825790Y-5620263D01*
X11823721Y-5618193D01*
X11821017Y-5617074D01*
X11818091Y-5617074D01*
X11815387Y-5618193D01*
X11813318Y-5620263D01*
X11812198Y-5622966D01*
X11812054Y-5624429D01*
X11788256Y-5624429D01*
X11786762Y-5622936D01*
X11785625Y-5622003D01*
X11785377Y-5621900D01*
X11785173Y-5621723D01*
X11783830Y-5621124D01*
X11772402Y-5617314D01*
X11771677Y-5617149D01*
X11771493Y-5617074D01*
X11771228Y-5617047D01*
X11770968Y-5616988D01*
X11770771Y-5617002D01*
X11770030Y-5616929D01*
X11762411Y-5616929D01*
X11761671Y-5617002D01*
X11761473Y-5616988D01*
X11761213Y-5617047D01*
X11760948Y-5617074D01*
X11760765Y-5617149D01*
X11760039Y-5617314D01*
X11748611Y-5621124D01*
X11747268Y-5621723D01*
X11747065Y-5621900D01*
X11746816Y-5622003D01*
X11745679Y-5622936D01*
X11738060Y-5630555D01*
X11737588Y-5631130D01*
X11737439Y-5631260D01*
X11737296Y-5631485D01*
X11737128Y-5631691D01*
X11737052Y-5631874D01*
X11736655Y-5632504D01*
X11732846Y-5640123D01*
X11732805Y-5640230D01*
X11732773Y-5640273D01*
X11732553Y-5640889D01*
X11732320Y-5641496D01*
X11732316Y-5641550D01*
X11732278Y-5641658D01*
X11728468Y-5656896D01*
X11728431Y-5657150D01*
X11728389Y-5657252D01*
X11728334Y-5657803D01*
X11728253Y-5658351D01*
X11728270Y-5658460D01*
X11728244Y-5658715D01*
X11690478Y-5658715D01*
X11677410Y-5655448D01*
X11671616Y-5652551D01*
X11669527Y-5650463D01*
X11667054Y-5645516D01*
X11667054Y-5641438D01*
X11669527Y-5636491D01*
X11671616Y-5634403D01*
X11676563Y-5631929D01*
X11692623Y-5631929D01*
X11702897Y-5635354D01*
X11704330Y-5635680D01*
X11707249Y-5635473D01*
X11709867Y-5634164D01*
X11711784Y-5631953D01*
X11712709Y-5629177D01*
X11712502Y-5626258D01*
X11711193Y-5623641D01*
X11708983Y-5621723D01*
X11707640Y-5621124D01*
X11696211Y-5617314D01*
X11695486Y-5617149D01*
X11695303Y-5617074D01*
X11695037Y-5617047D01*
X11694778Y-5616988D01*
X11694580Y-5617002D01*
X11693840Y-5616929D01*
X11674792Y-5616929D01*
X11673329Y-5617074D01*
X11673080Y-5617177D01*
X11672811Y-5617196D01*
X11671438Y-5617721D01*
X11663819Y-5621531D01*
X11663189Y-5621927D01*
X11663006Y-5622003D01*
X11662801Y-5622172D01*
X11662575Y-5622314D01*
X11662445Y-5622464D01*
X11661870Y-5622936D01*
X11658060Y-5626745D01*
X11657588Y-5627320D01*
X11657439Y-5627450D01*
X11657297Y-5627675D01*
X11657128Y-5627882D01*
X11657052Y-5628065D01*
X11656655Y-5628694D01*
X11652846Y-5636313D01*
X11652320Y-5637687D01*
X11652301Y-5637955D01*
X11652198Y-5638204D01*
X11652054Y-5639668D01*
X11571816Y-5639668D01*
X11571816Y-5624429D01*
X11571672Y-5622966D01*
X11570552Y-5620263D01*
X11568483Y-5618193D01*
X11565779Y-5617074D01*
X11562853Y-5617074D01*
X11560149Y-5618193D01*
X11558080Y-5620263D01*
X11556960Y-5622966D01*
X11556816Y-5624429D01*
X11521589Y-5624429D01*
X11520095Y-5622936D01*
X11518959Y-5622003D01*
X11518710Y-5621900D01*
X11518506Y-5621723D01*
X11517164Y-5621124D01*
X11505735Y-5617314D01*
X11505010Y-5617149D01*
X11504827Y-5617074D01*
X11504561Y-5617047D01*
X11504302Y-5616988D01*
X11504104Y-5617002D01*
X11503364Y-5616929D01*
X11484316Y-5616929D01*
X11482853Y-5617074D01*
X11480149Y-5618193D01*
X11478080Y-5620263D01*
X11476960Y-5622966D01*
X11476816Y-5624429D01*
X11467927Y-5624429D01*
X11467927Y-5608041D01*
X12106419Y-5608041D01*
X12106419Y-5720818D01*
G37*
G36*
X10963002Y-10914893D02*
G01*
X10668840Y-10914893D01*
X10668840Y-10797220D01*
X10679951Y-10797220D01*
X10680277Y-10798654D01*
X10713610Y-10898654D01*
X10714210Y-10899996D01*
X10714561Y-10900401D01*
X10714801Y-10900880D01*
X10715511Y-10901497D01*
X10716127Y-10902207D01*
X10716606Y-10902446D01*
X10717011Y-10902798D01*
X10717904Y-10903095D01*
X10718745Y-10903516D01*
X10719279Y-10903553D01*
X10719788Y-10903723D01*
X10720726Y-10903656D01*
X10721664Y-10903723D01*
X10722172Y-10903553D01*
X10722707Y-10903516D01*
X10723548Y-10903095D01*
X10724440Y-10902798D01*
X10724844Y-10902447D01*
X10725324Y-10902207D01*
X10725940Y-10901496D01*
X10726651Y-10900880D01*
X10726890Y-10900401D01*
X10727241Y-10899996D01*
X10727841Y-10898654D01*
X10747679Y-10839139D01*
X10775130Y-10839139D01*
X10775130Y-10853425D01*
X10775155Y-10853680D01*
X10775139Y-10853789D01*
X10775220Y-10854337D01*
X10775274Y-10854888D01*
X10775317Y-10854990D01*
X10775354Y-10855244D01*
X10780116Y-10874291D01*
X10780155Y-10874399D01*
X10780159Y-10874453D01*
X10780391Y-10875061D01*
X10780611Y-10875676D01*
X10780643Y-10875719D01*
X10780684Y-10875826D01*
X10785446Y-10885350D01*
X10785842Y-10885980D01*
X10785918Y-10886163D01*
X10786087Y-10886369D01*
X10786229Y-10886595D01*
X10786379Y-10886724D01*
X10786851Y-10887299D01*
X10796375Y-10896823D01*
X10797511Y-10897756D01*
X10797760Y-10897859D01*
X10797964Y-10898036D01*
X10799306Y-10898635D01*
X10813592Y-10903397D01*
X10814317Y-10903562D01*
X10814500Y-10903638D01*
X10814766Y-10903664D01*
X10815026Y-10903723D01*
X10815223Y-10903709D01*
X10815964Y-10903782D01*
X10825487Y-10903782D01*
X10826228Y-10903709D01*
X10826425Y-10903723D01*
X10826685Y-10903664D01*
X10826951Y-10903638D01*
X10827134Y-10903562D01*
X10827859Y-10903397D01*
X10842145Y-10898635D01*
X10843487Y-10898036D01*
X10843691Y-10897859D01*
X10843940Y-10897756D01*
X10845077Y-10896823D01*
X10849838Y-10892061D01*
X10850771Y-10890925D01*
X10851891Y-10888221D01*
X10851891Y-10885295D01*
X10850771Y-10882591D01*
X10848702Y-10880522D01*
X10845998Y-10879402D01*
X10843072Y-10879402D01*
X10840368Y-10880522D01*
X10839232Y-10881455D01*
X10835722Y-10884965D01*
X10824270Y-10888782D01*
X10817181Y-10888782D01*
X10805729Y-10884965D01*
X10798318Y-10877553D01*
X10794469Y-10869855D01*
X10790130Y-10852501D01*
X10790130Y-10840062D01*
X10790361Y-10839139D01*
X10875130Y-10839139D01*
X10875130Y-10853425D01*
X10875155Y-10853680D01*
X10875139Y-10853789D01*
X10875220Y-10854337D01*
X10875274Y-10854888D01*
X10875317Y-10854990D01*
X10875354Y-10855244D01*
X10880116Y-10874291D01*
X10880155Y-10874399D01*
X10880159Y-10874453D01*
X10880391Y-10875061D01*
X10880611Y-10875676D01*
X10880643Y-10875719D01*
X10880684Y-10875826D01*
X10885446Y-10885350D01*
X10885842Y-10885980D01*
X10885918Y-10886163D01*
X10886087Y-10886369D01*
X10886229Y-10886595D01*
X10886379Y-10886724D01*
X10886851Y-10887299D01*
X10896375Y-10896823D01*
X10897511Y-10897756D01*
X10897760Y-10897859D01*
X10897964Y-10898036D01*
X10899306Y-10898635D01*
X10913592Y-10903397D01*
X10914317Y-10903562D01*
X10914500Y-10903638D01*
X10914766Y-10903664D01*
X10915026Y-10903723D01*
X10915223Y-10903709D01*
X10915964Y-10903782D01*
X10925487Y-10903782D01*
X10926228Y-10903709D01*
X10926425Y-10903723D01*
X10926685Y-10903664D01*
X10926951Y-10903638D01*
X10927134Y-10903562D01*
X10927859Y-10903397D01*
X10942145Y-10898635D01*
X10943487Y-10898036D01*
X10943691Y-10897859D01*
X10943940Y-10897756D01*
X10945077Y-10896823D01*
X10949838Y-10892061D01*
X10950771Y-10890925D01*
X10951891Y-10888221D01*
X10951891Y-10885295D01*
X10950771Y-10882591D01*
X10948702Y-10880522D01*
X10945998Y-10879402D01*
X10943072Y-10879402D01*
X10940368Y-10880522D01*
X10939232Y-10881455D01*
X10935722Y-10884965D01*
X10924270Y-10888782D01*
X10917181Y-10888782D01*
X10905729Y-10884965D01*
X10898318Y-10877553D01*
X10894469Y-10869855D01*
X10890130Y-10852501D01*
X10890130Y-10840062D01*
X10894469Y-10822709D01*
X10898318Y-10815010D01*
X10905729Y-10807599D01*
X10917181Y-10803782D01*
X10924270Y-10803782D01*
X10935722Y-10807599D01*
X10939232Y-10811109D01*
X10940368Y-10812042D01*
X10943072Y-10813162D01*
X10945998Y-10813162D01*
X10948702Y-10812042D01*
X10950771Y-10809972D01*
X10951891Y-10807269D01*
X10951891Y-10804343D01*
X10950771Y-10801639D01*
X10949838Y-10800502D01*
X10945076Y-10795741D01*
X10943940Y-10794808D01*
X10943691Y-10794705D01*
X10943487Y-10794528D01*
X10942145Y-10793929D01*
X10927859Y-10789167D01*
X10927134Y-10789002D01*
X10926951Y-10788926D01*
X10926685Y-10788900D01*
X10926425Y-10788841D01*
X10926228Y-10788855D01*
X10925487Y-10788782D01*
X10915964Y-10788782D01*
X10915223Y-10788855D01*
X10915026Y-10788841D01*
X10914766Y-10788900D01*
X10914500Y-10788926D01*
X10914317Y-10789002D01*
X10913592Y-10789167D01*
X10899306Y-10793929D01*
X10897964Y-10794528D01*
X10897760Y-10794705D01*
X10897511Y-10794808D01*
X10896375Y-10795741D01*
X10886851Y-10805264D01*
X10886379Y-10805839D01*
X10886229Y-10805969D01*
X10886087Y-10806195D01*
X10885918Y-10806401D01*
X10885842Y-10806584D01*
X10885446Y-10807214D01*
X10880684Y-10816737D01*
X10880643Y-10816844D01*
X10880611Y-10816888D01*
X10880391Y-10817502D01*
X10880159Y-10818111D01*
X10880155Y-10818164D01*
X10880116Y-10818272D01*
X10875354Y-10837320D01*
X10875317Y-10837574D01*
X10875274Y-10837676D01*
X10875220Y-10838227D01*
X10875139Y-10838774D01*
X10875155Y-10838884D01*
X10875130Y-10839139D01*
X10790361Y-10839139D01*
X10794469Y-10822709D01*
X10798318Y-10815010D01*
X10805729Y-10807599D01*
X10817181Y-10803782D01*
X10824270Y-10803782D01*
X10835722Y-10807599D01*
X10839232Y-10811109D01*
X10840368Y-10812042D01*
X10843072Y-10813162D01*
X10845998Y-10813162D01*
X10848702Y-10812042D01*
X10850771Y-10809972D01*
X10851891Y-10807269D01*
X10851891Y-10804343D01*
X10850771Y-10801639D01*
X10849838Y-10800502D01*
X10845076Y-10795741D01*
X10843940Y-10794808D01*
X10843691Y-10794705D01*
X10843487Y-10794528D01*
X10842145Y-10793929D01*
X10827859Y-10789167D01*
X10827134Y-10789002D01*
X10826951Y-10788926D01*
X10826685Y-10788900D01*
X10826425Y-10788841D01*
X10826228Y-10788855D01*
X10825487Y-10788782D01*
X10815964Y-10788782D01*
X10815223Y-10788855D01*
X10815026Y-10788841D01*
X10814766Y-10788900D01*
X10814500Y-10788926D01*
X10814317Y-10789002D01*
X10813592Y-10789167D01*
X10799306Y-10793929D01*
X10797964Y-10794528D01*
X10797760Y-10794705D01*
X10797511Y-10794808D01*
X10796375Y-10795741D01*
X10786851Y-10805264D01*
X10786379Y-10805839D01*
X10786229Y-10805969D01*
X10786087Y-10806195D01*
X10785918Y-10806401D01*
X10785842Y-10806584D01*
X10785446Y-10807214D01*
X10780684Y-10816737D01*
X10780643Y-10816844D01*
X10780611Y-10816888D01*
X10780391Y-10817502D01*
X10780159Y-10818111D01*
X10780155Y-10818164D01*
X10780116Y-10818272D01*
X10775354Y-10837320D01*
X10775317Y-10837574D01*
X10775274Y-10837676D01*
X10775220Y-10838227D01*
X10775139Y-10838774D01*
X10775155Y-10838884D01*
X10775130Y-10839139D01*
X10747679Y-10839139D01*
X10761174Y-10798654D01*
X10761500Y-10797220D01*
X10761292Y-10794301D01*
X10759984Y-10791684D01*
X10757773Y-10789766D01*
X10754997Y-10788841D01*
X10752078Y-10789048D01*
X10749461Y-10790357D01*
X10747543Y-10792568D01*
X10746944Y-10793910D01*
X10720726Y-10872565D01*
X10694507Y-10793910D01*
X10693908Y-10792568D01*
X10691991Y-10790357D01*
X10689373Y-10789048D01*
X10686454Y-10788841D01*
X10683678Y-10789766D01*
X10681467Y-10791684D01*
X10680159Y-10794301D01*
X10679951Y-10797220D01*
X10668840Y-10797220D01*
X10668840Y-10777671D01*
X10963002Y-10777671D01*
X10963002Y-10914893D01*
G37*
G36*
X12012399Y-10914893D02*
G01*
X11689687Y-10914893D01*
X11689687Y-10794819D01*
X11700798Y-10794819D01*
X11700798Y-10797745D01*
X11701918Y-10800449D01*
X11703987Y-10802518D01*
X11706691Y-10803638D01*
X11708154Y-10803782D01*
X11753531Y-10803782D01*
X11731081Y-10829438D01*
X11730629Y-10830071D01*
X11730489Y-10830210D01*
X11730435Y-10830343D01*
X11730226Y-10830634D01*
X11729836Y-10831788D01*
X11729370Y-10832914D01*
X11729370Y-10833167D01*
X11729289Y-10833407D01*
X11729370Y-10834622D01*
X11729370Y-10835840D01*
X11729466Y-10836074D01*
X11729483Y-10836326D01*
X11730023Y-10837419D01*
X11730489Y-10838544D01*
X11730668Y-10838723D01*
X11730780Y-10838950D01*
X11731698Y-10839752D01*
X11732559Y-10840613D01*
X11732792Y-10840710D01*
X11732983Y-10840877D01*
X11734136Y-10841267D01*
X11735262Y-10841733D01*
X11735619Y-10841768D01*
X11735755Y-10841814D01*
X11735952Y-10841801D01*
X11736725Y-10841877D01*
X11749241Y-10841877D01*
X11756092Y-10845303D01*
X11759133Y-10848344D01*
X11762559Y-10855195D01*
X11762559Y-10875464D01*
X11759133Y-10882315D01*
X11756092Y-10885356D01*
X11749241Y-10888782D01*
X11724210Y-10888782D01*
X11717359Y-10885356D01*
X11713457Y-10881455D01*
X11712321Y-10880522D01*
X11709617Y-10879402D01*
X11706691Y-10879402D01*
X11703987Y-10880522D01*
X11701918Y-10882591D01*
X11700798Y-10885295D01*
X11700798Y-10888221D01*
X11701918Y-10890925D01*
X11702851Y-10892061D01*
X11707613Y-10896823D01*
X11708187Y-10897295D01*
X11708318Y-10897445D01*
X11708543Y-10897587D01*
X11708749Y-10897756D01*
X11708932Y-10897832D01*
X11709562Y-10898228D01*
X11719086Y-10902990D01*
X11720459Y-10903516D01*
X11720728Y-10903535D01*
X11720977Y-10903638D01*
X11722440Y-10903782D01*
X11751011Y-10903782D01*
X11752474Y-10903638D01*
X11752723Y-10903535D01*
X11752992Y-10903516D01*
X11754365Y-10902990D01*
X11763889Y-10898228D01*
X11764519Y-10897832D01*
X11764702Y-10897756D01*
X11764907Y-10897587D01*
X11765133Y-10897445D01*
X11765263Y-10897295D01*
X11765838Y-10896823D01*
X11770600Y-10892061D01*
X11771072Y-10891486D01*
X11771222Y-10891356D01*
X11771364Y-10891131D01*
X11771533Y-10890925D01*
X11771609Y-10890742D01*
X11772005Y-10890112D01*
X11772033Y-10890057D01*
X11800798Y-10890057D01*
X11800798Y-10892983D01*
X11801302Y-10894199D01*
X11801918Y-10895687D01*
X11802851Y-10896823D01*
X11807613Y-10901585D01*
X11808749Y-10902518D01*
X11811453Y-10903638D01*
X11811453Y-10903638D01*
X11814379Y-10903638D01*
X11814379Y-10903638D01*
X11817083Y-10902518D01*
X11818219Y-10901585D01*
X11822981Y-10896823D01*
X11823914Y-10895687D01*
X11825034Y-10892983D01*
X11825034Y-10890057D01*
X11825029Y-10890046D01*
X11823914Y-10887353D01*
X11822981Y-10886217D01*
X11818219Y-10881455D01*
X11817083Y-10880522D01*
X11817083Y-10880522D01*
X11815499Y-10879866D01*
X11814379Y-10879402D01*
X11814379Y-10879402D01*
X11811453Y-10879402D01*
X11810333Y-10879866D01*
X11808749Y-10880522D01*
X11808749Y-10880522D01*
X11807613Y-10881455D01*
X11802851Y-10886217D01*
X11801918Y-10887353D01*
X11800798Y-10890057D01*
X11772033Y-10890057D01*
X11776767Y-10880588D01*
X11777292Y-10879215D01*
X11777312Y-10878946D01*
X11777415Y-10878697D01*
X11777559Y-10877234D01*
X11777559Y-10853425D01*
X11777415Y-10851962D01*
X11777312Y-10851713D01*
X11777292Y-10851444D01*
X11776767Y-10850071D01*
X11772005Y-10840547D01*
X11771609Y-10839917D01*
X11771533Y-10839734D01*
X11771364Y-10839528D01*
X11771222Y-10839303D01*
X11771072Y-10839173D01*
X11770600Y-10838598D01*
X11765838Y-10833836D01*
X11765263Y-10833364D01*
X11765133Y-10833214D01*
X11764907Y-10833072D01*
X11764702Y-10832903D01*
X11764519Y-10832827D01*
X11763889Y-10832431D01*
X11754365Y-10827669D01*
X11753013Y-10827152D01*
X11775703Y-10801221D01*
X11776155Y-10800588D01*
X11776295Y-10800449D01*
X11776350Y-10800316D01*
X11776558Y-10800025D01*
X11776948Y-10798871D01*
X11777415Y-10797745D01*
X11777415Y-10797492D01*
X11777496Y-10797253D01*
X11777415Y-10796037D01*
X11777415Y-10794819D01*
X11843655Y-10794819D01*
X11843655Y-10797745D01*
X11844775Y-10800449D01*
X11846844Y-10802518D01*
X11849548Y-10803638D01*
X11851011Y-10803782D01*
X11896388Y-10803782D01*
X11873938Y-10829438D01*
X11873486Y-10830071D01*
X11873347Y-10830210D01*
X11873292Y-10830343D01*
X11873083Y-10830634D01*
X11872693Y-10831788D01*
X11872227Y-10832914D01*
X11872227Y-10833167D01*
X11872146Y-10833407D01*
X11872227Y-10834622D01*
X11872227Y-10835840D01*
X11872323Y-10836074D01*
X11872340Y-10836326D01*
X11872880Y-10837419D01*
X11873347Y-10838544D01*
X11873525Y-10838723D01*
X11873637Y-10838950D01*
X11874555Y-10839752D01*
X11875416Y-10840613D01*
X11875649Y-10840710D01*
X11875840Y-10840877D01*
X11876994Y-10841267D01*
X11878119Y-10841733D01*
X11878476Y-10841768D01*
X11878612Y-10841814D01*
X11878809Y-10841801D01*
X11879583Y-10841877D01*
X11892098Y-10841877D01*
X11898949Y-10845303D01*
X11901990Y-10848344D01*
X11905416Y-10855195D01*
X11905416Y-10875464D01*
X11901990Y-10882315D01*
X11898949Y-10885356D01*
X11892098Y-10888782D01*
X11867067Y-10888782D01*
X11860216Y-10885356D01*
X11856315Y-10881455D01*
X11855178Y-10880522D01*
X11852474Y-10879402D01*
X11849548Y-10879402D01*
X11846844Y-10880522D01*
X11844775Y-10882591D01*
X11843655Y-10885295D01*
X11843655Y-10888221D01*
X11844775Y-10890925D01*
X11845708Y-10892061D01*
X11850470Y-10896823D01*
X11851045Y-10897295D01*
X11851175Y-10897445D01*
X11851401Y-10897587D01*
X11851606Y-10897756D01*
X11851789Y-10897832D01*
X11852419Y-10898228D01*
X11861943Y-10902990D01*
X11863316Y-10903516D01*
X11863585Y-10903535D01*
X11863834Y-10903638D01*
X11865297Y-10903782D01*
X11893868Y-10903782D01*
X11895331Y-10903638D01*
X11895580Y-10903535D01*
X11895849Y-10903516D01*
X11897222Y-10902990D01*
X11906746Y-10898228D01*
X11907376Y-10897832D01*
X11907559Y-10897756D01*
X11907764Y-10897587D01*
X11907990Y-10897445D01*
X11908120Y-10897295D01*
X11908695Y-10896823D01*
X11913457Y-10892061D01*
X11913929Y-10891486D01*
X11914079Y-10891356D01*
X11914221Y-10891131D01*
X11914390Y-10890925D01*
X11914466Y-10890742D01*
X11914862Y-10890112D01*
X11919624Y-10880588D01*
X11920150Y-10879215D01*
X11920169Y-10878946D01*
X11920272Y-10878697D01*
X11920416Y-10877234D01*
X11920416Y-10853425D01*
X11920272Y-10851962D01*
X11920169Y-10851713D01*
X11920150Y-10851444D01*
X11919624Y-10850071D01*
X11914862Y-10840547D01*
X11914466Y-10839917D01*
X11914390Y-10839734D01*
X11914221Y-10839528D01*
X11914079Y-10839303D01*
X11913929Y-10839173D01*
X11913457Y-10838598D01*
X11908695Y-10833836D01*
X11908120Y-10833364D01*
X11907990Y-10833214D01*
X11907764Y-10833072D01*
X11907559Y-10832903D01*
X11907376Y-10832827D01*
X11906746Y-10832431D01*
X11903307Y-10830711D01*
X11938830Y-10830711D01*
X11939186Y-10832138D01*
X11962996Y-10898804D01*
X11963624Y-10900134D01*
X11963876Y-10900413D01*
X11964037Y-10900753D01*
X11964851Y-10901490D01*
X11965587Y-10902303D01*
X11965928Y-10902464D01*
X11966207Y-10902717D01*
X11967240Y-10903086D01*
X11968232Y-10903556D01*
X11968608Y-10903575D01*
X11968963Y-10903701D01*
X11970059Y-10903647D01*
X11971155Y-10903701D01*
X11971510Y-10903575D01*
X11971885Y-10903556D01*
X11972877Y-10903086D01*
X11973911Y-10902717D01*
X11974190Y-10902464D01*
X11974530Y-10902303D01*
X11975267Y-10901489D01*
X11976080Y-10900753D01*
X11976241Y-10900413D01*
X11976494Y-10900134D01*
X11977122Y-10898804D01*
X12000931Y-10832138D01*
X12001288Y-10830711D01*
X12001142Y-10827789D01*
X11999890Y-10825144D01*
X11997720Y-10823180D01*
X11994964Y-10822196D01*
X11992042Y-10822341D01*
X11989397Y-10823594D01*
X11987433Y-10825763D01*
X11986805Y-10827093D01*
X11970059Y-10873983D01*
X11953312Y-10827093D01*
X11952684Y-10825763D01*
X11950721Y-10823594D01*
X11948076Y-10822341D01*
X11945153Y-10822196D01*
X11942397Y-10823180D01*
X11940228Y-10825144D01*
X11938975Y-10827789D01*
X11938830Y-10830711D01*
X11903307Y-10830711D01*
X11897222Y-10827669D01*
X11895871Y-10827152D01*
X11918560Y-10801221D01*
X11919012Y-10800588D01*
X11919152Y-10800449D01*
X11919207Y-10800316D01*
X11919415Y-10800025D01*
X11919805Y-10798871D01*
X11920272Y-10797745D01*
X11920272Y-10797492D01*
X11920353Y-10797253D01*
X11920272Y-10796037D01*
X11920272Y-10794819D01*
X11920175Y-10794585D01*
X11920158Y-10794333D01*
X11919618Y-10793240D01*
X11919152Y-10792115D01*
X11918973Y-10791936D01*
X11918861Y-10791710D01*
X11917944Y-10790907D01*
X11917083Y-10790046D01*
X11916849Y-10789949D01*
X11916659Y-10789783D01*
X11915505Y-10789392D01*
X11914379Y-10788926D01*
X11914022Y-10788891D01*
X11913886Y-10788845D01*
X11913690Y-10788858D01*
X11912916Y-10788782D01*
X11851011Y-10788782D01*
X11849548Y-10788926D01*
X11846844Y-10790046D01*
X11844775Y-10792115D01*
X11843655Y-10794819D01*
X11777415Y-10794819D01*
X11777318Y-10794585D01*
X11777301Y-10794333D01*
X11776761Y-10793240D01*
X11776295Y-10792115D01*
X11776116Y-10791936D01*
X11776004Y-10791710D01*
X11775087Y-10790907D01*
X11774226Y-10790046D01*
X11773992Y-10789949D01*
X11773801Y-10789783D01*
X11772648Y-10789392D01*
X11771522Y-10788926D01*
X11771165Y-10788891D01*
X11771029Y-10788845D01*
X11770833Y-10788858D01*
X11770059Y-10788782D01*
X11708154Y-10788782D01*
X11706691Y-10788926D01*
X11703987Y-10790046D01*
X11701918Y-10792115D01*
X11700798Y-10794819D01*
X11689687Y-10794819D01*
X11689687Y-10777671D01*
X12012399Y-10777671D01*
X12012399Y-10914893D01*
G37*
D11*
G36*
X12382619Y-7979442D02*
G01*
X12075495Y-7979442D01*
X12075495Y-7873489D01*
X12087995Y-7873489D01*
X12087995Y-7883013D01*
X12088235Y-7885452D01*
X12088407Y-7885867D01*
X12088439Y-7886315D01*
X12089315Y-7888603D01*
X12094076Y-7898127D01*
X12094737Y-7899177D01*
X12094863Y-7899482D01*
X12095145Y-7899825D01*
X12095382Y-7900201D01*
X12095631Y-7900417D01*
X12096418Y-7901376D01*
X12101180Y-7906138D01*
X12102139Y-7906925D01*
X12102355Y-7907174D01*
X12102730Y-7907410D01*
X12103074Y-7907692D01*
X12103379Y-7907819D01*
X12104428Y-7908479D01*
X12113952Y-7913241D01*
X12114131Y-7913309D01*
X12114203Y-7913363D01*
X12115226Y-7913729D01*
X12116241Y-7914117D01*
X12116331Y-7914123D01*
X12116511Y-7914188D01*
X12134227Y-7918617D01*
X12140709Y-7921858D01*
X12142603Y-7923751D01*
X12145138Y-7928821D01*
X12145138Y-7932443D01*
X12142602Y-7937514D01*
X12140709Y-7939407D01*
X12135639Y-7941942D01*
X12116809Y-7941942D01*
X12104448Y-7937821D01*
X12102058Y-7937278D01*
X12097193Y-7937624D01*
X12092831Y-7939805D01*
X12089635Y-7943490D01*
X12088093Y-7948117D01*
X12088439Y-7952981D01*
X12090620Y-7957344D01*
X12094305Y-7960539D01*
X12096542Y-7961538D01*
X12110828Y-7966300D01*
X12112037Y-7966575D01*
X12112342Y-7966702D01*
X12112784Y-7966745D01*
X12113217Y-7966844D01*
X12113546Y-7966820D01*
X12114781Y-7966942D01*
X12138590Y-7966942D01*
X12141029Y-7966702D01*
X12141443Y-7966530D01*
X12141892Y-7966498D01*
X12144180Y-7965622D01*
X12153704Y-7960860D01*
X12154754Y-7960200D01*
X12155059Y-7960073D01*
X12155402Y-7959791D01*
X12155778Y-7959555D01*
X12155994Y-7959305D01*
X12156953Y-7958519D01*
X12161715Y-7953757D01*
X12162501Y-7952798D01*
X12162751Y-7952582D01*
X12162987Y-7952206D01*
X12163269Y-7951862D01*
X12163395Y-7951558D01*
X12164056Y-7950508D01*
X12168818Y-7940984D01*
X12169694Y-7938696D01*
X12169726Y-7938248D01*
X12169897Y-7937833D01*
X12170138Y-7935394D01*
X12170138Y-7925870D01*
X12169897Y-7923432D01*
X12169726Y-7923017D01*
X12169694Y-7922569D01*
X12168818Y-7920280D01*
X12164056Y-7910756D01*
X12163395Y-7909707D01*
X12163269Y-7909402D01*
X12162987Y-7909058D01*
X12162751Y-7908683D01*
X12162501Y-7908466D01*
X12161715Y-7907508D01*
X12156953Y-7902746D01*
X12155994Y-7901959D01*
X12155778Y-7901710D01*
X12155402Y-7901473D01*
X12155058Y-7901191D01*
X12154754Y-7901065D01*
X12153704Y-7900404D01*
X12147493Y-7897299D01*
X12183233Y-7897299D01*
X12183233Y-7911585D01*
X12183275Y-7912010D01*
X12183248Y-7912192D01*
X12183383Y-7913105D01*
X12183473Y-7914023D01*
X12183544Y-7914193D01*
X12183606Y-7914616D01*
X12188368Y-7933664D01*
X12188432Y-7933844D01*
X12188439Y-7933934D01*
X12188827Y-7934948D01*
X12189193Y-7935971D01*
X12189246Y-7936044D01*
X12189315Y-7936222D01*
X12194076Y-7945746D01*
X12194737Y-7946796D01*
X12194863Y-7947101D01*
X12195145Y-7947444D01*
X12195382Y-7947820D01*
X12195631Y-7948036D01*
X12196418Y-7948995D01*
X12205942Y-7958519D01*
X12207836Y-7960073D01*
X12208251Y-7960245D01*
X12208590Y-7960539D01*
X12210828Y-7961538D01*
X12225113Y-7966300D01*
X12226323Y-7966575D01*
X12226628Y-7966702D01*
X12227070Y-7966745D01*
X12227503Y-7966844D01*
X12227832Y-7966820D01*
X12229066Y-7966942D01*
X12238590Y-7966942D01*
X12239824Y-7966820D01*
X12240153Y-7966844D01*
X12240586Y-7966745D01*
X12241029Y-7966702D01*
X12241334Y-7966575D01*
X12242543Y-7966300D01*
X12256829Y-7961539D01*
X12259066Y-7960539D01*
X12259405Y-7960245D01*
X12259820Y-7960073D01*
X12261715Y-7958519D01*
X12266477Y-7953757D01*
X12268031Y-7951862D01*
X12269897Y-7947357D01*
X12269897Y-7942479D01*
X12268031Y-7937973D01*
X12264582Y-7934525D01*
X12260076Y-7932658D01*
X12255199Y-7932658D01*
X12250693Y-7934525D01*
X12248799Y-7936079D01*
X12246123Y-7938755D01*
X12236562Y-7941942D01*
X12231095Y-7941942D01*
X12221533Y-7938755D01*
X12215530Y-7932751D01*
X12212289Y-7926270D01*
X12208233Y-7910046D01*
X12208233Y-7898838D01*
X12212289Y-7882614D01*
X12215530Y-7876132D01*
X12221533Y-7870129D01*
X12231095Y-7866942D01*
X12236562Y-7866942D01*
X12246123Y-7870129D01*
X12248799Y-7872804D01*
X12250693Y-7874359D01*
X12255199Y-7876225D01*
X12260076Y-7876225D01*
X12264582Y-7874359D01*
X12268031Y-7870910D01*
X12269897Y-7866404D01*
X12269897Y-7861527D01*
X12268031Y-7857021D01*
X12266476Y-7855127D01*
X12265792Y-7854442D01*
X12287995Y-7854442D01*
X12287995Y-7954442D01*
X12288235Y-7956880D01*
X12290101Y-7961386D01*
X12293550Y-7964835D01*
X12298056Y-7966702D01*
X12302933Y-7966702D01*
X12307439Y-7964835D01*
X12310888Y-7961386D01*
X12312755Y-7956880D01*
X12312995Y-7954442D01*
X12312995Y-7916762D01*
X12313428Y-7916329D01*
X12347638Y-7961942D01*
X12349293Y-7963749D01*
X12353490Y-7966234D01*
X12358318Y-7966923D01*
X12363043Y-7965713D01*
X12366944Y-7962787D01*
X12369429Y-7958590D01*
X12370119Y-7953762D01*
X12368909Y-7949037D01*
X12367638Y-7946942D01*
X12331285Y-7898472D01*
X12366476Y-7863281D01*
X12368031Y-7861387D01*
X12369897Y-7856881D01*
X12369897Y-7852003D01*
X12368031Y-7847497D01*
X12364582Y-7844049D01*
X12360076Y-7842182D01*
X12355199Y-7842182D01*
X12350693Y-7844049D01*
X12348799Y-7845603D01*
X12312995Y-7881407D01*
X12312995Y-7854442D01*
X12312755Y-7852003D01*
X12310888Y-7847497D01*
X12307439Y-7844048D01*
X12302933Y-7842182D01*
X12298056Y-7842182D01*
X12293550Y-7844048D01*
X12290101Y-7847497D01*
X12288235Y-7852003D01*
X12287995Y-7854442D01*
X12265792Y-7854442D01*
X12261715Y-7850365D01*
X12259820Y-7848810D01*
X12259405Y-7848639D01*
X12259066Y-7848344D01*
X12256829Y-7847345D01*
X12242543Y-7842583D01*
X12241334Y-7842308D01*
X12241029Y-7842182D01*
X12240586Y-7842138D01*
X12240153Y-7842040D01*
X12239824Y-7842063D01*
X12238590Y-7841942D01*
X12229066Y-7841942D01*
X12227832Y-7842063D01*
X12227503Y-7842040D01*
X12227070Y-7842138D01*
X12226628Y-7842182D01*
X12226323Y-7842308D01*
X12225113Y-7842583D01*
X12210828Y-7847345D01*
X12208590Y-7848344D01*
X12208251Y-7848639D01*
X12207836Y-7848810D01*
X12205942Y-7850365D01*
X12196418Y-7859889D01*
X12195631Y-7860847D01*
X12195382Y-7861064D01*
X12195145Y-7861440D01*
X12194863Y-7861783D01*
X12194737Y-7862088D01*
X12194076Y-7863137D01*
X12189315Y-7872661D01*
X12189246Y-7872840D01*
X12189193Y-7872912D01*
X12188827Y-7873935D01*
X12188439Y-7874950D01*
X12188432Y-7875040D01*
X12188368Y-7875220D01*
X12183606Y-7894267D01*
X12183544Y-7894690D01*
X12183473Y-7894860D01*
X12183383Y-7895778D01*
X12183248Y-7896691D01*
X12183275Y-7896873D01*
X12183233Y-7897299D01*
X12147493Y-7897299D01*
X12144180Y-7895642D01*
X12144002Y-7895574D01*
X12143929Y-7895520D01*
X12142906Y-7895155D01*
X12141892Y-7894767D01*
X12141802Y-7894760D01*
X12141622Y-7894696D01*
X12123905Y-7890267D01*
X12117423Y-7887026D01*
X12115530Y-7885133D01*
X12112995Y-7880062D01*
X12112995Y-7876440D01*
X12115530Y-7871370D01*
X12117423Y-7869477D01*
X12122493Y-7866942D01*
X12141324Y-7866942D01*
X12153685Y-7871062D01*
X12156074Y-7871606D01*
X12160939Y-7871260D01*
X12165302Y-7869079D01*
X12168497Y-7865394D01*
X12170039Y-7860767D01*
X12169694Y-7855902D01*
X12167513Y-7851540D01*
X12163828Y-7848344D01*
X12161590Y-7847345D01*
X12147305Y-7842583D01*
X12146096Y-7842308D01*
X12145791Y-7842182D01*
X12145348Y-7842138D01*
X12144915Y-7842040D01*
X12144586Y-7842063D01*
X12143352Y-7841942D01*
X12119542Y-7841942D01*
X12117104Y-7842182D01*
X12116689Y-7842354D01*
X12116241Y-7842386D01*
X12113952Y-7843262D01*
X12104428Y-7848023D01*
X12103379Y-7848684D01*
X12103074Y-7848810D01*
X12102730Y-7849092D01*
X12102355Y-7849329D01*
X12102139Y-7849578D01*
X12101180Y-7850365D01*
X12096418Y-7855127D01*
X12095631Y-7856085D01*
X12095382Y-7856302D01*
X12095145Y-7856678D01*
X12094863Y-7857021D01*
X12094737Y-7857326D01*
X12094076Y-7858376D01*
X12089315Y-7867899D01*
X12088439Y-7870188D01*
X12088407Y-7870636D01*
X12088235Y-7871051D01*
X12087995Y-7873489D01*
X12075495Y-7873489D01*
X12075495Y-7829442D01*
X12382619Y-7829442D01*
X12382619Y-7979442D01*
G37*
G36*
X12136600Y-8124129D02*
G01*
X12142602Y-8130132D01*
X12145844Y-8136614D01*
X12149900Y-8152838D01*
X12149900Y-8164046D01*
X12145844Y-8180269D01*
X12142603Y-8186751D01*
X12136600Y-8192755D01*
X12127038Y-8195942D01*
X12117757Y-8195942D01*
X12117757Y-8120942D01*
X12127038Y-8120942D01*
X12136600Y-8124129D01*
G37*
G36*
X12293090Y-8123477D02*
G01*
X12298731Y-8129118D01*
X12302280Y-8143314D01*
X12302280Y-8173570D01*
X12298731Y-8187765D01*
X12293090Y-8193407D01*
X12288020Y-8195942D01*
X12274874Y-8195942D01*
X12269804Y-8193407D01*
X12264163Y-8187765D01*
X12260614Y-8173570D01*
X12260614Y-8143314D01*
X12264163Y-8129118D01*
X12269804Y-8123477D01*
X12274874Y-8120942D01*
X12288020Y-8120942D01*
X12293090Y-8123477D01*
G37*
G36*
X12339780Y-8233442D02*
G01*
X12080257Y-8233442D01*
X12080257Y-8108442D01*
X12092757Y-8108442D01*
X12092757Y-8208442D01*
X12092997Y-8210880D01*
X12094863Y-8215386D01*
X12098312Y-8218835D01*
X12102818Y-8220702D01*
X12105257Y-8220942D01*
X12129066Y-8220942D01*
X12130301Y-8220820D01*
X12130630Y-8220844D01*
X12131063Y-8220745D01*
X12131505Y-8220702D01*
X12131810Y-8220575D01*
X12133019Y-8220300D01*
X12147305Y-8215539D01*
X12149542Y-8214539D01*
X12149881Y-8214245D01*
X12150297Y-8214073D01*
X12152191Y-8212519D01*
X12161715Y-8202995D01*
X12162501Y-8202036D01*
X12162751Y-8201820D01*
X12162987Y-8201444D01*
X12163269Y-8201101D01*
X12163396Y-8200795D01*
X12164056Y-8199746D01*
X12168818Y-8190222D01*
X12168886Y-8190044D01*
X12168940Y-8189971D01*
X12169305Y-8188948D01*
X12169694Y-8187934D01*
X12169700Y-8187844D01*
X12169764Y-8187664D01*
X12174526Y-8168616D01*
X12174589Y-8168193D01*
X12174659Y-8168023D01*
X12174750Y-8167105D01*
X12174885Y-8166192D01*
X12174858Y-8166010D01*
X12174900Y-8165585D01*
X12174900Y-8151299D01*
X12174858Y-8150873D01*
X12174885Y-8150691D01*
X12174750Y-8149778D01*
X12174659Y-8148860D01*
X12174589Y-8148690D01*
X12174526Y-8148267D01*
X12169764Y-8129220D01*
X12169700Y-8129040D01*
X12169694Y-8128950D01*
X12169305Y-8127935D01*
X12168940Y-8126912D01*
X12168886Y-8126840D01*
X12168818Y-8126661D01*
X12164056Y-8117137D01*
X12163395Y-8116088D01*
X12163269Y-8115783D01*
X12162987Y-8115440D01*
X12162751Y-8115064D01*
X12162501Y-8114847D01*
X12161715Y-8113889D01*
X12156268Y-8108442D01*
X12192757Y-8108442D01*
X12192757Y-8208442D01*
X12192997Y-8210880D01*
X12194863Y-8215386D01*
X12198312Y-8218835D01*
X12202818Y-8220702D01*
X12207695Y-8220702D01*
X12212201Y-8218835D01*
X12215650Y-8215386D01*
X12217517Y-8210880D01*
X12217757Y-8208442D01*
X12217757Y-8141775D01*
X12235614Y-8141775D01*
X12235614Y-8175108D01*
X12235656Y-8175534D01*
X12235629Y-8175716D01*
X12235764Y-8176629D01*
X12235854Y-8177547D01*
X12235924Y-8177717D01*
X12235987Y-8178140D01*
X12240749Y-8197188D01*
X12241573Y-8199495D01*
X12242127Y-8200242D01*
X12242482Y-8201101D01*
X12244037Y-8202995D01*
X12253561Y-8212519D01*
X12254519Y-8213306D01*
X12254736Y-8213555D01*
X12255111Y-8213791D01*
X12255455Y-8214073D01*
X12255760Y-8214200D01*
X12256809Y-8214860D01*
X12266333Y-8219622D01*
X12268622Y-8220498D01*
X12269070Y-8220530D01*
X12269485Y-8220702D01*
X12271923Y-8220942D01*
X12290971Y-8220942D01*
X12293410Y-8220702D01*
X12293824Y-8220530D01*
X12294273Y-8220498D01*
X12296561Y-8219622D01*
X12306085Y-8214860D01*
X12307134Y-8214200D01*
X12307439Y-8214073D01*
X12307783Y-8213791D01*
X12308159Y-8213555D01*
X12308375Y-8213306D01*
X12309334Y-8212519D01*
X12318857Y-8202995D01*
X12320412Y-8201101D01*
X12320768Y-8200242D01*
X12321321Y-8199495D01*
X12322145Y-8197188D01*
X12326907Y-8178140D01*
X12326970Y-8177717D01*
X12327040Y-8177547D01*
X12327131Y-8176629D01*
X12327266Y-8175716D01*
X12327238Y-8175534D01*
X12327280Y-8175108D01*
X12327280Y-8141775D01*
X12327238Y-8141350D01*
X12327266Y-8141167D01*
X12327131Y-8140254D01*
X12327040Y-8139337D01*
X12326970Y-8139166D01*
X12326907Y-8138743D01*
X12322145Y-8119696D01*
X12321321Y-8117388D01*
X12320767Y-8116641D01*
X12320412Y-8115783D01*
X12318857Y-8113889D01*
X12309334Y-8104365D01*
X12308375Y-8103578D01*
X12308159Y-8103329D01*
X12307782Y-8103092D01*
X12307439Y-8102810D01*
X12307135Y-8102684D01*
X12306085Y-8102023D01*
X12296561Y-8097262D01*
X12294273Y-8096386D01*
X12293824Y-8096354D01*
X12293410Y-8096182D01*
X12290971Y-8095942D01*
X12271923Y-8095942D01*
X12269485Y-8096182D01*
X12269070Y-8096354D01*
X12268622Y-8096386D01*
X12266333Y-8097262D01*
X12256809Y-8102023D01*
X12255760Y-8102684D01*
X12255455Y-8102810D01*
X12255112Y-8103092D01*
X12254736Y-8103329D01*
X12254519Y-8103578D01*
X12253561Y-8104365D01*
X12244037Y-8113889D01*
X12242482Y-8115783D01*
X12242127Y-8116641D01*
X12241573Y-8117388D01*
X12240749Y-8119696D01*
X12235987Y-8138743D01*
X12235924Y-8139166D01*
X12235854Y-8139337D01*
X12235764Y-8140255D01*
X12235629Y-8141168D01*
X12235656Y-8141350D01*
X12235614Y-8141775D01*
X12217757Y-8141775D01*
X12217757Y-8108442D01*
X12217517Y-8106003D01*
X12215650Y-8101497D01*
X12212201Y-8098048D01*
X12207695Y-8096182D01*
X12202818Y-8096182D01*
X12198312Y-8098048D01*
X12194863Y-8101497D01*
X12192997Y-8106003D01*
X12192757Y-8108442D01*
X12156268Y-8108442D01*
X12152191Y-8104365D01*
X12150297Y-8102810D01*
X12149882Y-8102639D01*
X12149542Y-8102344D01*
X12147305Y-8101345D01*
X12133019Y-8096583D01*
X12131810Y-8096308D01*
X12131505Y-8096182D01*
X12131063Y-8096138D01*
X12130630Y-8096040D01*
X12130301Y-8096063D01*
X12129066Y-8095942D01*
X12105257Y-8095942D01*
X12102818Y-8096182D01*
X12098312Y-8098048D01*
X12094863Y-8101497D01*
X12092997Y-8106003D01*
X12092757Y-8108442D01*
X12080257Y-8108442D01*
X12080257Y-8083442D01*
X12339780Y-8083442D01*
X12339780Y-8233442D01*
G37*
G36*
X12145471Y-8374937D02*
G01*
X12147364Y-8376830D01*
X12149900Y-8381900D01*
X12149900Y-8390284D01*
X12147364Y-8395354D01*
X12145471Y-8397248D01*
X12140401Y-8399783D01*
X12117757Y-8399783D01*
X12117757Y-8372402D01*
X12140401Y-8372402D01*
X12145471Y-8374937D01*
G37*
G36*
X12368112Y-8484902D02*
G01*
X12080257Y-8484902D01*
X12080257Y-8359902D01*
X12092757Y-8359902D01*
X12092757Y-8459902D01*
X12092997Y-8462341D01*
X12094863Y-8466847D01*
X12098312Y-8470295D01*
X12102818Y-8472162D01*
X12107695Y-8472162D01*
X12112201Y-8470295D01*
X12115650Y-8466847D01*
X12117517Y-8462341D01*
X12117757Y-8459902D01*
X12117757Y-8424783D01*
X12122558Y-8424783D01*
X12152159Y-8467070D01*
X12153754Y-8468930D01*
X12157867Y-8471551D01*
X12162671Y-8472399D01*
X12167432Y-8471344D01*
X12171428Y-8468547D01*
X12174049Y-8464434D01*
X12174897Y-8459631D01*
X12173842Y-8454869D01*
X12172640Y-8452734D01*
X12151319Y-8422275D01*
X12158466Y-8418701D01*
X12159516Y-8418040D01*
X12159820Y-8417914D01*
X12160163Y-8417633D01*
X12160540Y-8417396D01*
X12160756Y-8417146D01*
X12161715Y-8416360D01*
X12166476Y-8411598D01*
X12167263Y-8410639D01*
X12167513Y-8410423D01*
X12167749Y-8410047D01*
X12168031Y-8409704D01*
X12168157Y-8409399D01*
X12168818Y-8408349D01*
X12173580Y-8398825D01*
X12174456Y-8396537D01*
X12174487Y-8396089D01*
X12174659Y-8395674D01*
X12174900Y-8393235D01*
X12174900Y-8378949D01*
X12187995Y-8378949D01*
X12187995Y-8388473D01*
X12188235Y-8390912D01*
X12188407Y-8391327D01*
X12188439Y-8391775D01*
X12189315Y-8394064D01*
X12194076Y-8403587D01*
X12194737Y-8404637D01*
X12194863Y-8404942D01*
X12195145Y-8405285D01*
X12195382Y-8405661D01*
X12195631Y-8405877D01*
X12196418Y-8406836D01*
X12201180Y-8411598D01*
X12202139Y-8412385D01*
X12202355Y-8412634D01*
X12202730Y-8412870D01*
X12203074Y-8413152D01*
X12203379Y-8413279D01*
X12204428Y-8413939D01*
X12213952Y-8418701D01*
X12214131Y-8418770D01*
X12214203Y-8418823D01*
X12215226Y-8419189D01*
X12216241Y-8419577D01*
X12216331Y-8419583D01*
X12216511Y-8419648D01*
X12234227Y-8424077D01*
X12240709Y-8427318D01*
X12242603Y-8429211D01*
X12245138Y-8434281D01*
X12245138Y-8437903D01*
X12242602Y-8442974D01*
X12240709Y-8444867D01*
X12235639Y-8447402D01*
X12216809Y-8447402D01*
X12204448Y-8443282D01*
X12202058Y-8442738D01*
X12197193Y-8443084D01*
X12192831Y-8445265D01*
X12189635Y-8448950D01*
X12188093Y-8453577D01*
X12188439Y-8458442D01*
X12190620Y-8462804D01*
X12194305Y-8466000D01*
X12196542Y-8466999D01*
X12210828Y-8471760D01*
X12212037Y-8472035D01*
X12212342Y-8472162D01*
X12212784Y-8472205D01*
X12213217Y-8472304D01*
X12213546Y-8472280D01*
X12214781Y-8472402D01*
X12238590Y-8472402D01*
X12241029Y-8472162D01*
X12241443Y-8471990D01*
X12241892Y-8471958D01*
X12244180Y-8471082D01*
X12253704Y-8466320D01*
X12254754Y-8465660D01*
X12255059Y-8465533D01*
X12255402Y-8465251D01*
X12255778Y-8465015D01*
X12255994Y-8464766D01*
X12256953Y-8463979D01*
X12261715Y-8459217D01*
X12262501Y-8458258D01*
X12262751Y-8458042D01*
X12262987Y-8457666D01*
X12263269Y-8457323D01*
X12263395Y-8457018D01*
X12264056Y-8455968D01*
X12268818Y-8446444D01*
X12269694Y-8444156D01*
X12269726Y-8443708D01*
X12269897Y-8443293D01*
X12270138Y-8440854D01*
X12270138Y-8431330D01*
X12269897Y-8428892D01*
X12269726Y-8428477D01*
X12269694Y-8428029D01*
X12268818Y-8425740D01*
X12264056Y-8416216D01*
X12263395Y-8415167D01*
X12263269Y-8414862D01*
X12262987Y-8414518D01*
X12262751Y-8414143D01*
X12262501Y-8413927D01*
X12261715Y-8412968D01*
X12256953Y-8408206D01*
X12255994Y-8407419D01*
X12255778Y-8407170D01*
X12255402Y-8406933D01*
X12255058Y-8406651D01*
X12254754Y-8406525D01*
X12253704Y-8405864D01*
X12244180Y-8401103D01*
X12244002Y-8401034D01*
X12243929Y-8400981D01*
X12242906Y-8400615D01*
X12241892Y-8400227D01*
X12241802Y-8400220D01*
X12241622Y-8400156D01*
X12223905Y-8395727D01*
X12217423Y-8392486D01*
X12215530Y-8390593D01*
X12212995Y-8385522D01*
X12212995Y-8381900D01*
X12215530Y-8376830D01*
X12217423Y-8374937D01*
X12222493Y-8372402D01*
X12241324Y-8372402D01*
X12253685Y-8376522D01*
X12256074Y-8377066D01*
X12260939Y-8376720D01*
X12265302Y-8374539D01*
X12268497Y-8370854D01*
X12270039Y-8366227D01*
X12269694Y-8361362D01*
X12267744Y-8357463D01*
X12273949Y-8357463D01*
X12273949Y-8362340D01*
X12275816Y-8366846D01*
X12279265Y-8370295D01*
X12283771Y-8372162D01*
X12286209Y-8372402D01*
X12302281Y-8372402D01*
X12302281Y-8459902D01*
X12302521Y-8462341D01*
X12304387Y-8466847D01*
X12307836Y-8470295D01*
X12312342Y-8472162D01*
X12317219Y-8472162D01*
X12321725Y-8470295D01*
X12325174Y-8466847D01*
X12327040Y-8462341D01*
X12327281Y-8459902D01*
X12327281Y-8372402D01*
X12343352Y-8372402D01*
X12345791Y-8372162D01*
X12350297Y-8370295D01*
X12353745Y-8366846D01*
X12355612Y-8362340D01*
X12355612Y-8357463D01*
X12353745Y-8352957D01*
X12350297Y-8349508D01*
X12345791Y-8347642D01*
X12343352Y-8347402D01*
X12286209Y-8347402D01*
X12283771Y-8347642D01*
X12279265Y-8349508D01*
X12275816Y-8352957D01*
X12273949Y-8357463D01*
X12267744Y-8357463D01*
X12267513Y-8357000D01*
X12263828Y-8353804D01*
X12261590Y-8352805D01*
X12247305Y-8348043D01*
X12246096Y-8347768D01*
X12245791Y-8347642D01*
X12245348Y-8347598D01*
X12244915Y-8347500D01*
X12244586Y-8347523D01*
X12243352Y-8347402D01*
X12219542Y-8347402D01*
X12217104Y-8347642D01*
X12216689Y-8347814D01*
X12216241Y-8347846D01*
X12213952Y-8348722D01*
X12204428Y-8353483D01*
X12203379Y-8354144D01*
X12203074Y-8354270D01*
X12202730Y-8354552D01*
X12202355Y-8354789D01*
X12202139Y-8355038D01*
X12201180Y-8355825D01*
X12196418Y-8360587D01*
X12195631Y-8361545D01*
X12195382Y-8361762D01*
X12195145Y-8362138D01*
X12194863Y-8362481D01*
X12194737Y-8362786D01*
X12194076Y-8363836D01*
X12189315Y-8373359D01*
X12188439Y-8375648D01*
X12188407Y-8376096D01*
X12188235Y-8376511D01*
X12187995Y-8378949D01*
X12174900Y-8378949D01*
X12174659Y-8376511D01*
X12174487Y-8376096D01*
X12174456Y-8375648D01*
X12173580Y-8373359D01*
X12168818Y-8363835D01*
X12168157Y-8362786D01*
X12168031Y-8362481D01*
X12167749Y-8362137D01*
X12167513Y-8361762D01*
X12167263Y-8361546D01*
X12166476Y-8360587D01*
X12161715Y-8355825D01*
X12160756Y-8355038D01*
X12160540Y-8354789D01*
X12160163Y-8354552D01*
X12159820Y-8354270D01*
X12159516Y-8354144D01*
X12158466Y-8353483D01*
X12148942Y-8348722D01*
X12146654Y-8347846D01*
X12146205Y-8347814D01*
X12145791Y-8347642D01*
X12143352Y-8347402D01*
X12105257Y-8347402D01*
X12102818Y-8347642D01*
X12098312Y-8349508D01*
X12094863Y-8352957D01*
X12092997Y-8357463D01*
X12092757Y-8359902D01*
X12080257Y-8359902D01*
X12080257Y-8334902D01*
X12368112Y-8334902D01*
X12368112Y-8484902D01*
G37*
D12*
G36*
X10635988Y-10381404D02*
G01*
X10609136Y-10372454D01*
X10635988Y-10363503D01*
X10635988Y-10381404D01*
G37*
G36*
X10716585Y-10444003D02*
G01*
X10531820Y-10444003D01*
X10531820Y-10370578D01*
X10546820Y-10370578D01*
X10546953Y-10372454D01*
X10546820Y-10374330D01*
X10547159Y-10375346D01*
X10547235Y-10376416D01*
X10548076Y-10378098D01*
X10548671Y-10379882D01*
X10549373Y-10380692D01*
X10549852Y-10381650D01*
X10551273Y-10382883D01*
X10552506Y-10384304D01*
X10553464Y-10384783D01*
X10554274Y-10385485D01*
X10556959Y-10386684D01*
X10681959Y-10428351D01*
X10684826Y-10429003D01*
X10690664Y-10428588D01*
X10695899Y-10425970D01*
X10699734Y-10421549D01*
X10701585Y-10415996D01*
X10701170Y-10410158D01*
X10698552Y-10404924D01*
X10694131Y-10401089D01*
X10691446Y-10399890D01*
X10665988Y-10391404D01*
X10665988Y-10353503D01*
X10691446Y-10345017D01*
X10694131Y-10343818D01*
X10698552Y-10339984D01*
X10701170Y-10334749D01*
X10701585Y-10328911D01*
X10699734Y-10323359D01*
X10695899Y-10318937D01*
X10690664Y-10316320D01*
X10684826Y-10315905D01*
X10681959Y-10316557D01*
X10556959Y-10358223D01*
X10554274Y-10359422D01*
X10553464Y-10360124D01*
X10552506Y-10360604D01*
X10551273Y-10362025D01*
X10549852Y-10363257D01*
X10549373Y-10364215D01*
X10548671Y-10365025D01*
X10548076Y-10366809D01*
X10547235Y-10368492D01*
X10547159Y-10369561D01*
X10546820Y-10370578D01*
X10531820Y-10370578D01*
X10531820Y-10253406D01*
X10588369Y-10253406D01*
X10588369Y-10265311D01*
X10588657Y-10268237D01*
X10588863Y-10268735D01*
X10588902Y-10269273D01*
X10589953Y-10272019D01*
X10593190Y-10278494D01*
X10590897Y-10280787D01*
X10588657Y-10286194D01*
X10588657Y-10292047D01*
X10590897Y-10297454D01*
X10595035Y-10301592D01*
X10600443Y-10303832D01*
X10603369Y-10304120D01*
X10686702Y-10304120D01*
X10689629Y-10303832D01*
X10695036Y-10301592D01*
X10699174Y-10297454D01*
X10701414Y-10292047D01*
X10701414Y-10286194D01*
X10699174Y-10280787D01*
X10695036Y-10276648D01*
X10689629Y-10274408D01*
X10686702Y-10274120D01*
X10630719Y-10274120D01*
X10624159Y-10270840D01*
X10621649Y-10268330D01*
X10618369Y-10261770D01*
X10618369Y-10253406D01*
X10618081Y-10250480D01*
X10615841Y-10245072D01*
X10611703Y-10240934D01*
X10606295Y-10238694D01*
X10600443Y-10238694D01*
X10595035Y-10240934D01*
X10590897Y-10245072D01*
X10588657Y-10250480D01*
X10588369Y-10253406D01*
X10531820Y-10253406D01*
X10531820Y-10122454D01*
X10588369Y-10122454D01*
X10588369Y-10140311D01*
X10588657Y-10143237D01*
X10588864Y-10143735D01*
X10588902Y-10144273D01*
X10589953Y-10147019D01*
X10595527Y-10158168D01*
X10589953Y-10169317D01*
X10588902Y-10172063D01*
X10588863Y-10172601D01*
X10588657Y-10173099D01*
X10588369Y-10176025D01*
X10588369Y-10193882D01*
X10588657Y-10196809D01*
X10588863Y-10197306D01*
X10588902Y-10197844D01*
X10589953Y-10200590D01*
X10591206Y-10203097D01*
X10590897Y-10203406D01*
X10588657Y-10208813D01*
X10588657Y-10214666D01*
X10590897Y-10220073D01*
X10595035Y-10224211D01*
X10600443Y-10226451D01*
X10603369Y-10226739D01*
X10686702Y-10226739D01*
X10689629Y-10226451D01*
X10695036Y-10224211D01*
X10699174Y-10220073D01*
X10701414Y-10214666D01*
X10701414Y-10208813D01*
X10699174Y-10203406D01*
X10695036Y-10199267D01*
X10689629Y-10197027D01*
X10686702Y-10196739D01*
X10621568Y-10196739D01*
X10618369Y-10190341D01*
X10618369Y-10179566D01*
X10620502Y-10175301D01*
X10624767Y-10173168D01*
X10686702Y-10173168D01*
X10689629Y-10172880D01*
X10695036Y-10170640D01*
X10699174Y-10166501D01*
X10701414Y-10161094D01*
X10701414Y-10155241D01*
X10699174Y-10149834D01*
X10695036Y-10145696D01*
X10689629Y-10143456D01*
X10686702Y-10143168D01*
X10624767Y-10143168D01*
X10620502Y-10141035D01*
X10618369Y-10136770D01*
X10618369Y-10125995D01*
X10620502Y-10121729D01*
X10624767Y-10119596D01*
X10686702Y-10119596D01*
X10689629Y-10119308D01*
X10695036Y-10117068D01*
X10699174Y-10112930D01*
X10701414Y-10107523D01*
X10701414Y-10101670D01*
X10699174Y-10096263D01*
X10695036Y-10092124D01*
X10689629Y-10089885D01*
X10686702Y-10089596D01*
X10621226Y-10089596D01*
X10618300Y-10089885D01*
X10617802Y-10090091D01*
X10617264Y-10090129D01*
X10614518Y-10091180D01*
X10602613Y-10097132D01*
X10602124Y-10097440D01*
X10601893Y-10097517D01*
X10601606Y-10097767D01*
X10600125Y-10098699D01*
X10598892Y-10100120D01*
X10597472Y-10101352D01*
X10596539Y-10102833D01*
X10596290Y-10103120D01*
X10596213Y-10103351D01*
X10595905Y-10103841D01*
X10589953Y-10115745D01*
X10588902Y-10118492D01*
X10588864Y-10119029D01*
X10588657Y-10119527D01*
X10588369Y-10122454D01*
X10531820Y-10122454D01*
X10531820Y-9899289D01*
X10576752Y-9899289D01*
X10576752Y-9905142D01*
X10578992Y-9910549D01*
X10583131Y-9914687D01*
X10588538Y-9916927D01*
X10591464Y-9917215D01*
X10624083Y-9917215D01*
X10624083Y-9949834D01*
X10624372Y-9952761D01*
X10626611Y-9958168D01*
X10630750Y-9962306D01*
X10636157Y-9964546D01*
X10642010Y-9964546D01*
X10647417Y-9962306D01*
X10651555Y-9958168D01*
X10653795Y-9952761D01*
X10654083Y-9949834D01*
X10654083Y-9917215D01*
X10686702Y-9917215D01*
X10689629Y-9916927D01*
X10695036Y-9914687D01*
X10699174Y-9910549D01*
X10701414Y-9905142D01*
X10701414Y-9899289D01*
X10699174Y-9893882D01*
X10695036Y-9889743D01*
X10689629Y-9887504D01*
X10686702Y-9887215D01*
X10654083Y-9887215D01*
X10654083Y-9854596D01*
X10653795Y-9851670D01*
X10651555Y-9846263D01*
X10647417Y-9842124D01*
X10642010Y-9839885D01*
X10636157Y-9839885D01*
X10630750Y-9842124D01*
X10626611Y-9846263D01*
X10624372Y-9851670D01*
X10624083Y-9854596D01*
X10624083Y-9887215D01*
X10591464Y-9887215D01*
X10588538Y-9887504D01*
X10583131Y-9889743D01*
X10578992Y-9893882D01*
X10576752Y-9899289D01*
X10531820Y-9899289D01*
X10531820Y-9604596D01*
X10624083Y-9604596D01*
X10624083Y-9699834D01*
X10624372Y-9702761D01*
X10626611Y-9708168D01*
X10630750Y-9712306D01*
X10636157Y-9714546D01*
X10642010Y-9714546D01*
X10647417Y-9712306D01*
X10651555Y-9708168D01*
X10653795Y-9702761D01*
X10654083Y-9699834D01*
X10654083Y-9604596D01*
X10653795Y-9601670D01*
X10651555Y-9596263D01*
X10647417Y-9592124D01*
X10642010Y-9589885D01*
X10636157Y-9589885D01*
X10630750Y-9592124D01*
X10626611Y-9596263D01*
X10624372Y-9601670D01*
X10624083Y-9604596D01*
X10531820Y-9604596D01*
X10531820Y-9574885D01*
X10716585Y-9574885D01*
X10716585Y-10444003D01*
G37*
G36*
X11891628Y-9320753D02*
G01*
X11894138Y-9323263D01*
X11897418Y-9329823D01*
X11897418Y-9358901D01*
X11861942Y-9358901D01*
X11861942Y-9329823D01*
X11865222Y-9323263D01*
X11867732Y-9320753D01*
X11874293Y-9317473D01*
X11885068Y-9317473D01*
X11891628Y-9320753D01*
G37*
G36*
X12001942Y-9403901D02*
G01*
X11816942Y-9403901D01*
X11816942Y-9326282D01*
X11831942Y-9326282D01*
X11831942Y-9373901D01*
X11832230Y-9376828D01*
X11834470Y-9382235D01*
X11838609Y-9386373D01*
X11844016Y-9388613D01*
X11846942Y-9388901D01*
X11971942Y-9388901D01*
X11974869Y-9388613D01*
X11980276Y-9386373D01*
X11984414Y-9382235D01*
X11986654Y-9376828D01*
X11986654Y-9370975D01*
X11984414Y-9365568D01*
X11980276Y-9361429D01*
X11974869Y-9359189D01*
X11971942Y-9358901D01*
X11927418Y-9358901D01*
X11927418Y-9326282D01*
X11927130Y-9323356D01*
X11926924Y-9322858D01*
X11926886Y-9322320D01*
X11925835Y-9319574D01*
X11919882Y-9307669D01*
X11919090Y-9306410D01*
X11918938Y-9306044D01*
X11918600Y-9305632D01*
X11918316Y-9305181D01*
X11918017Y-9304921D01*
X11917073Y-9303771D01*
X11911120Y-9297819D01*
X11909970Y-9296875D01*
X11909711Y-9296575D01*
X11909259Y-9296291D01*
X11908847Y-9295953D01*
X11908481Y-9295801D01*
X11907222Y-9295009D01*
X11895317Y-9289056D01*
X11892571Y-9288005D01*
X11892033Y-9287967D01*
X11891535Y-9287761D01*
X11888609Y-9287473D01*
X11870752Y-9287473D01*
X11867825Y-9287761D01*
X11867328Y-9287967D01*
X11866790Y-9288005D01*
X11864044Y-9289056D01*
X11852139Y-9295009D01*
X11850880Y-9295801D01*
X11850514Y-9295953D01*
X11850101Y-9296291D01*
X11849650Y-9296575D01*
X11849391Y-9296875D01*
X11848241Y-9297818D01*
X11842288Y-9303771D01*
X11841344Y-9304921D01*
X11841045Y-9305181D01*
X11840761Y-9305632D01*
X11840423Y-9306044D01*
X11840271Y-9306410D01*
X11839478Y-9307669D01*
X11833526Y-9319574D01*
X11832475Y-9322320D01*
X11832437Y-9322858D01*
X11832230Y-9323356D01*
X11831942Y-9326282D01*
X11816942Y-9326282D01*
X11816942Y-9183425D01*
X11831942Y-9183425D01*
X11831942Y-9260806D01*
X11832230Y-9263732D01*
X11834470Y-9269140D01*
X11838609Y-9273278D01*
X11844016Y-9275518D01*
X11849869Y-9275518D01*
X11855276Y-9273278D01*
X11859414Y-9269140D01*
X11861654Y-9263732D01*
X11861942Y-9260806D01*
X11861942Y-9216482D01*
X11884684Y-9236380D01*
X11885949Y-9237285D01*
X11886228Y-9237564D01*
X11886492Y-9237673D01*
X11887076Y-9238091D01*
X11889384Y-9238871D01*
X11891635Y-9239804D01*
X11892141Y-9239804D01*
X11892620Y-9239966D01*
X11895052Y-9239804D01*
X11897488Y-9239804D01*
X11897955Y-9239610D01*
X11898460Y-9239576D01*
X11900644Y-9238496D01*
X11902895Y-9237564D01*
X11903253Y-9237206D01*
X11903706Y-9236982D01*
X11905310Y-9235148D01*
X11907033Y-9233425D01*
X11907227Y-9232958D01*
X11907560Y-9232577D01*
X11908341Y-9230269D01*
X11909273Y-9228018D01*
X11909343Y-9227304D01*
X11909435Y-9227033D01*
X11909409Y-9226639D01*
X11909561Y-9225092D01*
X11909561Y-9210776D01*
X11912842Y-9204215D01*
X11915351Y-9201705D01*
X11921912Y-9198425D01*
X11944592Y-9198425D01*
X11951152Y-9201705D01*
X11953662Y-9204215D01*
X11956942Y-9210776D01*
X11956942Y-9239408D01*
X11953662Y-9245968D01*
X11949431Y-9250199D01*
X11947565Y-9252473D01*
X11945326Y-9257880D01*
X11945326Y-9263732D01*
X11947565Y-9269140D01*
X11951704Y-9273278D01*
X11957111Y-9275518D01*
X11962964Y-9275518D01*
X11968371Y-9273278D01*
X11970644Y-9271413D01*
X11976597Y-9265460D01*
X11977541Y-9264310D01*
X11977840Y-9264050D01*
X11978124Y-9263599D01*
X11978462Y-9263187D01*
X11978614Y-9262821D01*
X11979406Y-9261562D01*
X11985359Y-9249657D01*
X11986410Y-9246911D01*
X11986448Y-9246373D01*
X11986654Y-9245875D01*
X11986942Y-9242949D01*
X11986942Y-9207235D01*
X11986654Y-9204308D01*
X11986448Y-9203810D01*
X11986410Y-9203273D01*
X11985359Y-9200527D01*
X11979406Y-9188622D01*
X11978614Y-9187362D01*
X11978462Y-9186996D01*
X11978124Y-9186585D01*
X11977840Y-9186133D01*
X11977540Y-9185873D01*
X11976597Y-9184723D01*
X11970644Y-9178771D01*
X11969494Y-9177827D01*
X11969234Y-9177527D01*
X11968783Y-9177243D01*
X11968371Y-9176905D01*
X11968005Y-9176754D01*
X11966746Y-9175961D01*
X11954841Y-9170009D01*
X11952095Y-9168958D01*
X11951557Y-9168920D01*
X11951059Y-9168713D01*
X11948133Y-9168425D01*
X11918371Y-9168425D01*
X11915444Y-9168713D01*
X11914947Y-9168920D01*
X11914409Y-9168958D01*
X11911663Y-9170009D01*
X11899758Y-9175961D01*
X11898498Y-9176754D01*
X11898132Y-9176905D01*
X11897721Y-9177243D01*
X11897269Y-9177527D01*
X11897010Y-9177827D01*
X11895859Y-9178771D01*
X11889907Y-9184723D01*
X11888963Y-9185873D01*
X11888664Y-9186133D01*
X11888380Y-9186584D01*
X11888042Y-9186996D01*
X11887890Y-9187363D01*
X11887097Y-9188622D01*
X11883616Y-9195583D01*
X11856820Y-9172136D01*
X11855555Y-9171232D01*
X11855276Y-9170953D01*
X11855011Y-9170843D01*
X11854428Y-9170426D01*
X11852119Y-9169646D01*
X11849869Y-9168713D01*
X11849363Y-9168713D01*
X11848883Y-9168551D01*
X11846453Y-9168713D01*
X11844016Y-9168713D01*
X11843548Y-9168907D01*
X11843044Y-9168941D01*
X11840860Y-9170020D01*
X11838609Y-9170953D01*
X11838251Y-9171311D01*
X11837798Y-9171535D01*
X11836193Y-9173369D01*
X11834470Y-9175092D01*
X11834277Y-9175559D01*
X11833943Y-9175940D01*
X11833163Y-9178248D01*
X11832230Y-9180499D01*
X11832160Y-9181212D01*
X11832068Y-9181484D01*
X11832095Y-9181878D01*
X11831942Y-9183425D01*
X11816942Y-9183425D01*
X11816942Y-9153425D01*
X12001942Y-9153425D01*
X12001942Y-9403901D01*
G37*
G36*
X11891628Y-9828753D02*
G01*
X11894138Y-9831263D01*
X11897418Y-9837823D01*
X11897418Y-9866901D01*
X11861942Y-9866901D01*
X11861942Y-9837823D01*
X11865222Y-9831263D01*
X11867732Y-9828753D01*
X11874293Y-9825473D01*
X11885068Y-9825473D01*
X11891628Y-9828753D01*
G37*
G36*
X12001942Y-9911901D02*
G01*
X11816942Y-9911901D01*
X11816942Y-9834282D01*
X11831942Y-9834282D01*
X11831942Y-9881901D01*
X11832230Y-9884828D01*
X11834470Y-9890235D01*
X11838609Y-9894373D01*
X11844016Y-9896613D01*
X11846942Y-9896901D01*
X11971942Y-9896901D01*
X11974869Y-9896613D01*
X11980276Y-9894373D01*
X11984414Y-9890235D01*
X11986654Y-9884828D01*
X11986654Y-9878975D01*
X11984414Y-9873568D01*
X11980276Y-9869429D01*
X11974869Y-9867189D01*
X11971942Y-9866901D01*
X11927418Y-9866901D01*
X11927418Y-9834282D01*
X11927130Y-9831356D01*
X11926924Y-9830858D01*
X11926886Y-9830320D01*
X11925835Y-9827574D01*
X11919882Y-9815669D01*
X11919090Y-9814410D01*
X11918938Y-9814044D01*
X11918600Y-9813632D01*
X11918316Y-9813181D01*
X11918017Y-9812921D01*
X11917073Y-9811771D01*
X11911120Y-9805819D01*
X11909970Y-9804875D01*
X11909711Y-9804575D01*
X11909259Y-9804291D01*
X11908847Y-9803953D01*
X11908481Y-9803801D01*
X11907222Y-9803009D01*
X11895317Y-9797056D01*
X11892571Y-9796005D01*
X11892033Y-9795967D01*
X11891535Y-9795761D01*
X11888609Y-9795473D01*
X11870752Y-9795473D01*
X11867825Y-9795761D01*
X11867328Y-9795967D01*
X11866790Y-9796005D01*
X11864044Y-9797056D01*
X11852139Y-9803009D01*
X11850880Y-9803801D01*
X11850514Y-9803953D01*
X11850101Y-9804291D01*
X11849650Y-9804575D01*
X11849391Y-9804875D01*
X11848241Y-9805818D01*
X11842288Y-9811771D01*
X11841344Y-9812921D01*
X11841045Y-9813181D01*
X11840761Y-9813632D01*
X11840423Y-9814044D01*
X11840271Y-9814410D01*
X11839478Y-9815669D01*
X11833526Y-9827574D01*
X11832475Y-9830320D01*
X11832437Y-9830858D01*
X11832230Y-9831356D01*
X11831942Y-9834282D01*
X11816942Y-9834282D01*
X11816942Y-9715235D01*
X11831942Y-9715235D01*
X11831942Y-9744997D01*
X11832230Y-9747923D01*
X11832437Y-9748421D01*
X11832475Y-9748958D01*
X11833526Y-9751705D01*
X11839478Y-9763610D01*
X11840271Y-9764869D01*
X11840423Y-9765235D01*
X11840761Y-9765647D01*
X11841045Y-9766098D01*
X11841344Y-9766358D01*
X11842288Y-9767508D01*
X11848240Y-9773460D01*
X11850514Y-9775326D01*
X11855921Y-9777565D01*
X11861773Y-9777565D01*
X11867181Y-9775326D01*
X11871319Y-9771187D01*
X11873559Y-9765780D01*
X11873559Y-9759927D01*
X11871319Y-9754520D01*
X11869454Y-9752247D01*
X11865222Y-9748016D01*
X11861942Y-9741455D01*
X11861942Y-9718776D01*
X11865222Y-9712215D01*
X11867732Y-9709705D01*
X11874293Y-9706425D01*
X11880222Y-9706425D01*
X11892411Y-9710488D01*
X11961336Y-9779413D01*
X11963609Y-9781278D01*
X11967432Y-9782862D01*
X11969016Y-9783518D01*
X11969016Y-9783518D01*
X11974869Y-9783518D01*
X11974869Y-9783518D01*
X11977108Y-9782590D01*
X11980276Y-9781278D01*
X11984414Y-9777140D01*
X11985938Y-9773460D01*
X11986654Y-9771732D01*
X11986942Y-9768806D01*
X11986942Y-9691425D01*
X11986654Y-9688499D01*
X11984414Y-9683092D01*
X11980276Y-9678953D01*
X11974869Y-9676713D01*
X11969016Y-9676713D01*
X11963609Y-9678953D01*
X11959470Y-9683092D01*
X11957230Y-9688499D01*
X11956942Y-9691425D01*
X11956942Y-9732593D01*
X11911120Y-9686771D01*
X11908847Y-9684905D01*
X11908349Y-9684699D01*
X11907942Y-9684346D01*
X11905257Y-9683147D01*
X11887400Y-9677195D01*
X11885949Y-9676865D01*
X11885583Y-9676713D01*
X11885053Y-9676661D01*
X11884533Y-9676543D01*
X11884137Y-9676571D01*
X11882657Y-9676425D01*
X11870752Y-9676425D01*
X11867825Y-9676713D01*
X11867328Y-9676920D01*
X11866790Y-9676958D01*
X11864044Y-9678009D01*
X11852139Y-9683961D01*
X11850879Y-9684754D01*
X11850514Y-9684905D01*
X11850102Y-9685243D01*
X11849650Y-9685527D01*
X11849391Y-9685827D01*
X11848240Y-9686771D01*
X11842288Y-9692723D01*
X11841344Y-9693873D01*
X11841045Y-9694133D01*
X11840761Y-9694584D01*
X11840423Y-9694996D01*
X11840271Y-9695362D01*
X11839478Y-9696622D01*
X11833526Y-9708526D01*
X11832475Y-9711273D01*
X11832437Y-9711810D01*
X11832230Y-9712308D01*
X11831942Y-9715235D01*
X11816942Y-9715235D01*
X11816942Y-9661425D01*
X12001942Y-9661425D01*
X12001942Y-9911901D01*
G37*
G36*
X11891628Y-10336753D02*
G01*
X11894138Y-10339263D01*
X11897418Y-10345823D01*
X11897418Y-10374901D01*
X11861942Y-10374901D01*
X11861942Y-10345823D01*
X11865222Y-10339263D01*
X11867732Y-10336753D01*
X11874293Y-10333473D01*
X11885068Y-10333473D01*
X11891628Y-10336753D01*
G37*
G36*
X12001942Y-10419901D02*
G01*
X11816942Y-10419901D01*
X11816942Y-10342282D01*
X11831942Y-10342282D01*
X11831942Y-10389901D01*
X11832230Y-10392828D01*
X11834470Y-10398235D01*
X11838609Y-10402373D01*
X11844016Y-10404613D01*
X11846942Y-10404901D01*
X11971942Y-10404901D01*
X11974869Y-10404613D01*
X11980276Y-10402373D01*
X11984414Y-10398235D01*
X11986654Y-10392828D01*
X11986654Y-10386975D01*
X11984414Y-10381568D01*
X11980276Y-10377429D01*
X11974869Y-10375189D01*
X11971942Y-10374901D01*
X11927418Y-10374901D01*
X11927418Y-10342282D01*
X11927130Y-10339356D01*
X11926924Y-10338858D01*
X11926886Y-10338320D01*
X11925835Y-10335574D01*
X11919882Y-10323669D01*
X11919090Y-10322410D01*
X11918938Y-10322044D01*
X11918600Y-10321632D01*
X11918316Y-10321181D01*
X11918017Y-10320921D01*
X11917073Y-10319771D01*
X11911120Y-10313819D01*
X11909970Y-10312875D01*
X11909711Y-10312575D01*
X11909259Y-10312291D01*
X11908847Y-10311953D01*
X11908481Y-10311801D01*
X11907222Y-10311009D01*
X11895317Y-10305056D01*
X11892571Y-10304005D01*
X11892033Y-10303967D01*
X11891535Y-10303761D01*
X11888609Y-10303473D01*
X11870752Y-10303473D01*
X11867825Y-10303761D01*
X11867328Y-10303967D01*
X11866790Y-10304005D01*
X11864044Y-10305056D01*
X11852139Y-10311009D01*
X11850880Y-10311801D01*
X11850514Y-10311953D01*
X11850101Y-10312291D01*
X11849650Y-10312575D01*
X11849391Y-10312875D01*
X11848241Y-10313818D01*
X11842288Y-10319771D01*
X11841344Y-10320921D01*
X11841045Y-10321181D01*
X11840761Y-10321632D01*
X11840423Y-10322044D01*
X11840271Y-10322410D01*
X11839478Y-10323669D01*
X11833526Y-10335574D01*
X11832475Y-10338320D01*
X11832437Y-10338858D01*
X11832230Y-10339356D01*
X11831942Y-10342282D01*
X11816942Y-10342282D01*
X11816942Y-10235155D01*
X11831942Y-10235155D01*
X11832230Y-10236596D01*
X11832230Y-10238066D01*
X11832799Y-10239438D01*
X11833090Y-10240894D01*
X11833908Y-10242115D01*
X11834470Y-10243473D01*
X11835520Y-10244523D01*
X11836347Y-10245757D01*
X11838598Y-10247601D01*
X11838609Y-10247611D01*
X11838613Y-10247613D01*
X11838622Y-10247620D01*
X11855243Y-10258701D01*
X11864376Y-10267834D01*
X11869240Y-10277562D01*
X11870807Y-10280050D01*
X11875228Y-10283885D01*
X11880780Y-10285736D01*
X11886618Y-10285321D01*
X11891853Y-10282704D01*
X11895688Y-10278282D01*
X11897539Y-10272730D01*
X11897124Y-10266892D01*
X11896073Y-10264145D01*
X11890121Y-10252241D01*
X11889328Y-10250982D01*
X11889176Y-10250615D01*
X11888838Y-10250203D01*
X11888798Y-10250139D01*
X11956942Y-10250139D01*
X11956942Y-10270854D01*
X11957230Y-10273780D01*
X11959470Y-10279187D01*
X11963609Y-10283326D01*
X11969016Y-10285565D01*
X11974869Y-10285565D01*
X11980276Y-10283326D01*
X11984414Y-10279187D01*
X11986654Y-10273780D01*
X11986942Y-10270854D01*
X11986942Y-10199425D01*
X11986654Y-10196499D01*
X11984414Y-10191092D01*
X11980276Y-10186953D01*
X11974869Y-10184713D01*
X11969016Y-10184713D01*
X11963609Y-10186953D01*
X11959470Y-10191092D01*
X11957230Y-10196499D01*
X11956942Y-10199425D01*
X11956942Y-10220139D01*
X11846942Y-10220139D01*
X11846932Y-10220140D01*
X11846926Y-10220139D01*
X11846911Y-10220142D01*
X11844016Y-10220428D01*
X11842644Y-10220996D01*
X11841188Y-10221287D01*
X11839966Y-10222105D01*
X11838609Y-10222667D01*
X11837559Y-10223717D01*
X11836325Y-10224544D01*
X11835509Y-10225767D01*
X11834470Y-10226806D01*
X11833902Y-10228178D01*
X11833078Y-10229414D01*
X11832793Y-10230855D01*
X11832230Y-10232213D01*
X11832230Y-10233698D01*
X11831942Y-10235155D01*
X11816942Y-10235155D01*
X11816942Y-10169713D01*
X12001942Y-10169713D01*
X12001942Y-10419901D01*
G37*
%TO.C,D402*%
D13*
X10718100Y-9236280D02*
X10718100Y-9556280D01*
X10718100Y-9236280D02*
X10918100Y-9236280D01*
X10948100Y-9266280D02*
X10918100Y-9236280D01*
X10948100Y-9266280D02*
X10948100Y-9556280D01*
X10948100Y-9556280D02*
X10718100Y-9556280D01*
%TO.C,TP401*%
X11255760Y-9926320D02*
G75*
G02*
X11065760Y-9926320I-95000J0D01*
G01*
X11065760Y-9926320D02*
G75*
G02*
X11255760Y-9926320I95000J0D01*
G01*
%TO.C,R605*%
X11235510Y-8930568D02*
X11235510Y-8981512D01*
X11340010Y-8930568D02*
X11340010Y-8981512D01*
%TO.C,C302*%
X11171000Y-8567373D02*
X11171000Y-8596627D01*
X11273000Y-8567373D02*
X11273000Y-8596627D01*
%TO.C,TP101*%
X10902700Y-11049000D02*
G75*
G02*
X10712700Y-11049000I-95000J0D01*
G01*
X10712700Y-11049000D02*
G75*
G02*
X10902700Y-11049000I95000J0D01*
G01*
%TO.C,TP402*%
X11362440Y-9641840D02*
G75*
G02*
X11172440Y-9641840I-95000J0D01*
G01*
X11172440Y-9641840D02*
G75*
G02*
X11362440Y-9641840I95000J0D01*
G01*
%TO.C,TP102*%
X11918700Y-11049000D02*
G75*
G02*
X11728700Y-11049000I-95000J0D01*
G01*
X11728700Y-11049000D02*
G75*
G02*
X11918700Y-11049000I95000J0D01*
G01*
%TO.C,TP404*%
X10986520Y-8737600D02*
G75*
G02*
X10796520Y-8737600I-95000J0D01*
G01*
X10796520Y-8737600D02*
G75*
G02*
X10986520Y-8737600I95000J0D01*
G01*
%TO.C,C402*%
X10999660Y-9559623D02*
X10999660Y-9588877D01*
X11101660Y-9559623D02*
X11101660Y-9588877D01*
%TO.C,U303*%
X11746000Y-7608000D02*
X11746000Y-7684000D01*
X11746000Y-7684000D02*
X11854000Y-7684000D01*
X11778000Y-7576000D02*
X11854000Y-7576000D01*
X11854000Y-7684000D02*
X11854000Y-7576000D01*
X11746000Y-7576000D02*
X11696000Y-7576000D01*
X11746000Y-7526000D01*
X11746000Y-7576000D01*
G36*
X11746000Y-7576000D02*
G01*
X11696000Y-7576000D01*
X11746000Y-7526000D01*
X11746000Y-7576000D01*
G37*
D14*
%TO.C,G401*%
G36*
X10522778Y-7721196D02*
G01*
X10528312Y-7722245D01*
X10533102Y-7724281D01*
X10537263Y-7727345D01*
X10538955Y-7729065D01*
X10541663Y-7732826D01*
X10543284Y-7736986D01*
X10543917Y-7741821D01*
X10543934Y-7742872D01*
X10543497Y-7747807D01*
X10542109Y-7752028D01*
X10539651Y-7755857D01*
X10538795Y-7756857D01*
X10535020Y-7760279D01*
X10530686Y-7762698D01*
X10525662Y-7764159D01*
X10519814Y-7764709D01*
X10516211Y-7764640D01*
X10513031Y-7764422D01*
X10510664Y-7764074D01*
X10508594Y-7763463D01*
X10506307Y-7762457D01*
X10504853Y-7761730D01*
X10500329Y-7758881D01*
X10496963Y-7755479D01*
X10494668Y-7751388D01*
X10493353Y-7746473D01*
X10493054Y-7743926D01*
X10493074Y-7741181D01*
X10493444Y-7738353D01*
X10493645Y-7737510D01*
X10495696Y-7732431D01*
X10498708Y-7728259D01*
X10502653Y-7725014D01*
X10507503Y-7722716D01*
X10513229Y-7721388D01*
X10516387Y-7721095D01*
X10522778Y-7721196D01*
G37*
G36*
X10527259Y-7649105D02*
G01*
X10538290Y-7650761D01*
X10548683Y-7653582D01*
X10558462Y-7657578D01*
X10567649Y-7662760D01*
X10576267Y-7669139D01*
X10583908Y-7676277D01*
X10590864Y-7684363D01*
X10596667Y-7693020D01*
X10601372Y-7702350D01*
X10605034Y-7712453D01*
X10606230Y-7716778D01*
X10608049Y-7723937D01*
X10608049Y-7921928D01*
X10608048Y-7941159D01*
X10608048Y-7959107D01*
X10608046Y-7975817D01*
X10608043Y-7991336D01*
X10608039Y-8005708D01*
X10608033Y-8018979D01*
X10608025Y-8031195D01*
X10608015Y-8042402D01*
X10608002Y-8052644D01*
X10607987Y-8061969D01*
X10607968Y-8070421D01*
X10607946Y-8078045D01*
X10607920Y-8084888D01*
X10607891Y-8090996D01*
X10607857Y-8096413D01*
X10607818Y-8101185D01*
X10607775Y-8105359D01*
X10607727Y-8108979D01*
X10607674Y-8112091D01*
X10607615Y-8114741D01*
X10607550Y-8116975D01*
X10607478Y-8118837D01*
X10607401Y-8120375D01*
X10607316Y-8121632D01*
X10607225Y-8122655D01*
X10607126Y-8123490D01*
X10607020Y-8124182D01*
X10606906Y-8124777D01*
X10606804Y-8125234D01*
X10603639Y-8136030D01*
X10599380Y-8146124D01*
X10594068Y-8155465D01*
X10587743Y-8164000D01*
X10580443Y-8171678D01*
X10572207Y-8178448D01*
X10563077Y-8184258D01*
X10560609Y-8185580D01*
X10551455Y-8189732D01*
X10542281Y-8192692D01*
X10532819Y-8194525D01*
X10522800Y-8195294D01*
X10520046Y-8195328D01*
X10509003Y-8194732D01*
X10498526Y-8192935D01*
X10488584Y-8189927D01*
X10479148Y-8185694D01*
X10470188Y-8180226D01*
X10461676Y-8173510D01*
X10458565Y-8170640D01*
X10451499Y-8163131D01*
X10445554Y-8155203D01*
X10440640Y-8146696D01*
X10436669Y-8137449D01*
X10433551Y-8127303D01*
X10432840Y-8124370D01*
X10431892Y-8120251D01*
X10467100Y-8120251D01*
X10467196Y-8126563D01*
X10480568Y-8126742D01*
X10493940Y-8126922D01*
X10494221Y-8121049D01*
X10494786Y-8116300D01*
X10496050Y-8112479D01*
X10498130Y-8109318D01*
X10500165Y-8107329D01*
X10504427Y-8104508D01*
X10509318Y-8102550D01*
X10514596Y-8101447D01*
X10520022Y-8101192D01*
X10525356Y-8101777D01*
X10530357Y-8103197D01*
X10534785Y-8105442D01*
X10538389Y-8108492D01*
X10540869Y-8111720D01*
X10542396Y-8115030D01*
X10543130Y-8118852D01*
X10543255Y-8121759D01*
X10543270Y-8126922D01*
X10557056Y-8126742D01*
X10570842Y-8126563D01*
X10570735Y-8118258D01*
X10570399Y-8111645D01*
X10569504Y-8105837D01*
X10567949Y-8100390D01*
X10565630Y-8094860D01*
X10565051Y-8093675D01*
X10561789Y-8088335D01*
X10557551Y-8083215D01*
X10552662Y-8078642D01*
X10547446Y-8074946D01*
X10545557Y-8073898D01*
X10541206Y-8071807D01*
X10537239Y-8070265D01*
X10533313Y-8069198D01*
X10529083Y-8068530D01*
X10524206Y-8068188D01*
X10518687Y-8068098D01*
X10513365Y-8068162D01*
X10509035Y-8068399D01*
X10505363Y-8068879D01*
X10502016Y-8069671D01*
X10498660Y-8070844D01*
X10494963Y-8072468D01*
X10492884Y-8073469D01*
X10486411Y-8077372D01*
X10480788Y-8082282D01*
X10476079Y-8088138D01*
X10473391Y-8092705D01*
X10470586Y-8098817D01*
X10468669Y-8104638D01*
X10467542Y-8110607D01*
X10467102Y-8117163D01*
X10467100Y-8120251D01*
X10431892Y-8120251D01*
X10431358Y-8117926D01*
X10431245Y-8027900D01*
X10468192Y-8027900D01*
X10468192Y-8044510D01*
X10468192Y-8061120D01*
X10518687Y-8061120D01*
X10519019Y-8061120D01*
X10569846Y-8061120D01*
X10569846Y-8044510D01*
X10569846Y-8027900D01*
X10519019Y-8027900D01*
X10468192Y-8027900D01*
X10431245Y-8027900D01*
X10431196Y-7988036D01*
X10468192Y-7988036D01*
X10468192Y-8004646D01*
X10468192Y-8021256D01*
X10519019Y-8021256D01*
X10569846Y-8021256D01*
X10569846Y-8004646D01*
X10569846Y-7988036D01*
X10519019Y-7988036D01*
X10468192Y-7988036D01*
X10431196Y-7988036D01*
X10431159Y-7958304D01*
X10431054Y-7874180D01*
X10468192Y-7874180D01*
X10498921Y-7883704D01*
X10505054Y-7885610D01*
X10510799Y-7887407D01*
X10516033Y-7889055D01*
X10520629Y-7890514D01*
X10524464Y-7891744D01*
X10527412Y-7892705D01*
X10529348Y-7893357D01*
X10530148Y-7893661D01*
X10530158Y-7893668D01*
X10529645Y-7893944D01*
X10527978Y-7894565D01*
X10525278Y-7895494D01*
X10521663Y-7896692D01*
X10517251Y-7898120D01*
X10512161Y-7899739D01*
X10506513Y-7901510D01*
X10500425Y-7903394D01*
X10499430Y-7903700D01*
X10468194Y-7913291D01*
X10468193Y-7929905D01*
X10468192Y-7946519D01*
X10518590Y-7964952D01*
X10526411Y-7967810D01*
X10533870Y-7970533D01*
X10540875Y-7973086D01*
X10547331Y-7975436D01*
X10553143Y-7977547D01*
X10558219Y-7979387D01*
X10562463Y-7980920D01*
X10565783Y-7982113D01*
X10568083Y-7982932D01*
X10569271Y-7983342D01*
X10569416Y-7983385D01*
X10569535Y-7982750D01*
X10569641Y-7980968D01*
X10569730Y-7978217D01*
X10569797Y-7974679D01*
X10569837Y-7970533D01*
X10569846Y-7967233D01*
X10569846Y-7951081D01*
X10537456Y-7941563D01*
X10531085Y-7939687D01*
X10525054Y-7937904D01*
X10519491Y-7936252D01*
X10514527Y-7934770D01*
X10510290Y-7933497D01*
X10506911Y-7932472D01*
X10504519Y-7931734D01*
X10503244Y-7931321D01*
X10503124Y-7931277D01*
X10502792Y-7931130D01*
X10502601Y-7930971D01*
X10502626Y-7930777D01*
X10502942Y-7930525D01*
X10503623Y-7930190D01*
X10504745Y-7929749D01*
X10506381Y-7929178D01*
X10508607Y-7928454D01*
X10511497Y-7927553D01*
X10515126Y-7926452D01*
X10519569Y-7925126D01*
X10524900Y-7923553D01*
X10531195Y-7921708D01*
X10538527Y-7919568D01*
X10546973Y-7917109D01*
X10556605Y-7914308D01*
X10558551Y-7913742D01*
X10569513Y-7910555D01*
X10569691Y-7894526D01*
X10569869Y-7878497D01*
X10564376Y-7876841D01*
X10562565Y-7876304D01*
X10559642Y-7875448D01*
X10555769Y-7874321D01*
X10551112Y-7872969D01*
X10545833Y-7871442D01*
X10540098Y-7869785D01*
X10534071Y-7868048D01*
X10530646Y-7867062D01*
X10524756Y-7865361D01*
X10519259Y-7863762D01*
X10514289Y-7862304D01*
X10509976Y-7861026D01*
X10506453Y-7859967D01*
X10503850Y-7859166D01*
X10502300Y-7858664D01*
X10501911Y-7858509D01*
X10502432Y-7858246D01*
X10504114Y-7857647D01*
X10506841Y-7856751D01*
X10510497Y-7855591D01*
X10514967Y-7854205D01*
X10520135Y-7852628D01*
X10525886Y-7850897D01*
X10532104Y-7849047D01*
X10534913Y-7848217D01*
X10541344Y-7846320D01*
X10547397Y-7844526D01*
X10552950Y-7842871D01*
X10557882Y-7841393D01*
X10562073Y-7840127D01*
X10565401Y-7839110D01*
X10567744Y-7838380D01*
X10568983Y-7837971D01*
X10569141Y-7837906D01*
X10569390Y-7837197D01*
X10569570Y-7835386D01*
X10569682Y-7832421D01*
X10569728Y-7828249D01*
X10569710Y-7822819D01*
X10569691Y-7820791D01*
X10569513Y-7804126D01*
X10518864Y-7822498D01*
X10468215Y-7840871D01*
X10468204Y-7857525D01*
X10468192Y-7874180D01*
X10431054Y-7874180D01*
X10430960Y-7798682D01*
X10500403Y-7798682D01*
X10569513Y-7798682D01*
X10569846Y-7798682D01*
X10569846Y-7781739D01*
X10569846Y-7764797D01*
X10563390Y-7764797D01*
X10556935Y-7764797D01*
X10560336Y-7761309D01*
X10564626Y-7756124D01*
X10567851Y-7750377D01*
X10569246Y-7746858D01*
X10570086Y-7743435D01*
X10570623Y-7739123D01*
X10570852Y-7734328D01*
X10570766Y-7729455D01*
X10570361Y-7724911D01*
X10569630Y-7721102D01*
X10569603Y-7721004D01*
X10566938Y-7713769D01*
X10563168Y-7707249D01*
X10558345Y-7701508D01*
X10552521Y-7696608D01*
X10546259Y-7692865D01*
X10540102Y-7690367D01*
X10533132Y-7688553D01*
X10525705Y-7687480D01*
X10518179Y-7687204D01*
X10512535Y-7687570D01*
X10507194Y-7688291D01*
X10502725Y-7689186D01*
X10498673Y-7690384D01*
X10494582Y-7692012D01*
X10491446Y-7693478D01*
X10485142Y-7697233D01*
X10479600Y-7701907D01*
X10474988Y-7707334D01*
X10471651Y-7712974D01*
X10468861Y-7720218D01*
X10467281Y-7727836D01*
X10466864Y-7734732D01*
X10467445Y-7742013D01*
X10469178Y-7748683D01*
X10472047Y-7754702D01*
X10476035Y-7760025D01*
X10476828Y-7760862D01*
X10480678Y-7764797D01*
X10455832Y-7764797D01*
X10430986Y-7764797D01*
X10431098Y-7748686D01*
X10431139Y-7744028D01*
X10431195Y-7739673D01*
X10431261Y-7735841D01*
X10431333Y-7732756D01*
X10431407Y-7730640D01*
X10431452Y-7729916D01*
X10433046Y-7719465D01*
X10435843Y-7709362D01*
X10439769Y-7699709D01*
X10444749Y-7690607D01*
X10450708Y-7682157D01*
X10457570Y-7674458D01*
X10465262Y-7667612D01*
X10473709Y-7661719D01*
X10482834Y-7656880D01*
X10487128Y-7655079D01*
X10497165Y-7651821D01*
X10507338Y-7649720D01*
X10517447Y-7648806D01*
X10527259Y-7649105D01*
G37*
%TO.C,C401*%
D13*
X10999660Y-9198833D02*
X10999660Y-9228087D01*
X11101660Y-9198833D02*
X11101660Y-9228087D01*
%TO.C,R606*%
X11235510Y-9270928D02*
X11235510Y-9321872D01*
X11340010Y-9270928D02*
X11340010Y-9321872D01*
%TO.C,C304*%
X11852363Y-7812840D02*
X11881617Y-7812840D01*
X11852363Y-7914840D02*
X11881617Y-7914840D01*
%TO.C,SW401*%
D15*
X12198200Y-8616800D02*
X12198200Y-8756800D01*
X12338200Y-8616800D02*
X12338200Y-8756800D01*
X12312921Y-8686800D02*
G75*
G02*
X12223479Y-8686800I-44721J0D01*
G01*
X12223479Y-8686800D02*
G75*
G02*
X12312921Y-8686800I44721J0D01*
G01*
%TO.C,R603*%
D13*
X11552038Y-9858830D02*
X11602982Y-9858830D01*
X11552038Y-9963330D02*
X11602982Y-9963330D01*
%TO.C,D403*%
X10718100Y-8875600D02*
X10718100Y-9195600D01*
X10718100Y-8875600D02*
X10918100Y-8875600D01*
X10948100Y-8905600D02*
X10918100Y-8875600D01*
X10948100Y-8905600D02*
X10948100Y-9195600D01*
X10948100Y-9195600D02*
X10718100Y-9195600D01*
%TO.C,Q603*%
X11511720Y-8993080D02*
X11693720Y-8993080D01*
X11511720Y-8998080D02*
X11511720Y-8993080D01*
X11511720Y-9188080D02*
X11511720Y-9110080D01*
X11511720Y-9305080D02*
X11511720Y-9300080D01*
X11693720Y-8993080D02*
X11693720Y-9093080D01*
X11693720Y-9205080D02*
X11693720Y-9305080D01*
X11693720Y-9305080D02*
X11511720Y-9305080D01*
X11457720Y-9111080D02*
X11481720Y-9144080D01*
X11433720Y-9144080D01*
X11457720Y-9111080D01*
G36*
X11481720Y-9144080D02*
G01*
X11433720Y-9144080D01*
X11457720Y-9111080D01*
X11481720Y-9144080D01*
G37*
%TO.C,R404*%
X10641150Y-7787902D02*
X10641150Y-7736958D01*
X10745650Y-7787902D02*
X10745650Y-7736958D01*
%TO.C,R613*%
X10854510Y-10276722D02*
X10854510Y-10225778D01*
X10959010Y-10276722D02*
X10959010Y-10225778D01*
%TO.C,U301*%
X10257000Y-5892000D02*
X10257000Y-7464000D01*
X11388000Y-5892000D02*
X10257000Y-5892000D01*
X11829000Y-5892000D02*
X11458000Y-5892000D01*
X11829000Y-5892000D02*
X11829000Y-7464000D01*
X11829000Y-7464000D02*
X10257000Y-7464000D01*
X11423000Y-5892000D02*
X11399000Y-5859000D01*
X11447000Y-5859000D01*
X11423000Y-5892000D01*
G36*
X11423000Y-5892000D02*
G01*
X11399000Y-5859000D01*
X11447000Y-5859000D01*
X11423000Y-5892000D01*
G37*
%TO.C,J404*%
X9842000Y-9496000D02*
X9842000Y-9628000D01*
X9842000Y-9688000D02*
X9842000Y-10582000D01*
X9904000Y-9496000D02*
X9904000Y-10582000D01*
X10434000Y-9496000D02*
X10434000Y-10582000D01*
X10486000Y-9496000D02*
X9842000Y-9496000D01*
X10486000Y-9496000D02*
X10486000Y-10582000D01*
X10486000Y-10582000D02*
X9842000Y-10582000D01*
X9842000Y-9658000D02*
X9781000Y-9702000D01*
X9781000Y-9614000D01*
X9842000Y-9658000D01*
G36*
X9842000Y-9658000D02*
G01*
X9781000Y-9702000D01*
X9781000Y-9614000D01*
X9842000Y-9658000D01*
G37*
%TO.C,SW402*%
D15*
X12528400Y-8616800D02*
X12528400Y-8756800D01*
X12668400Y-8616800D02*
X12668400Y-8756800D01*
X12643121Y-8686800D02*
G75*
G02*
X12553679Y-8686800I-44721J0D01*
G01*
X12553679Y-8686800D02*
G75*
G02*
X12643121Y-8686800I44721J0D01*
G01*
%TO.C,TP403*%
D13*
X10844280Y-8458200D02*
G75*
G02*
X10654280Y-8458200I-95000J0D01*
G01*
X10654280Y-8458200D02*
G75*
G02*
X10844280Y-8458200I95000J0D01*
G01*
D14*
%TO.C,G\u002A\u002A\u002A*%
G36*
X11940475Y-6131469D02*
G01*
X11948559Y-6131975D01*
X11954844Y-6133021D01*
X11959608Y-6134704D01*
X11963128Y-6137120D01*
X11965552Y-6140142D01*
X11967810Y-6145590D01*
X11968568Y-6151583D01*
X11967878Y-6157533D01*
X11965792Y-6162852D01*
X11963238Y-6166176D01*
X11959691Y-6168917D01*
X11955289Y-6170933D01*
X11949670Y-6172330D01*
X11942470Y-6173219D01*
X11938903Y-6173465D01*
X11927461Y-6174120D01*
X11927461Y-6152602D01*
X11927461Y-6131084D01*
X11940475Y-6131469D01*
G37*
G36*
X12243501Y-6120163D02*
G01*
X12251272Y-6120200D01*
X12257286Y-6120319D01*
X12261909Y-6120544D01*
X12265508Y-6120902D01*
X12268449Y-6121420D01*
X12271099Y-6122122D01*
X12271111Y-6122126D01*
X12277858Y-6125222D01*
X12283320Y-6129828D01*
X12287366Y-6135669D01*
X12289861Y-6142469D01*
X12290674Y-6149953D01*
X12289671Y-6157846D01*
X12289198Y-6159595D01*
X12286222Y-6165942D01*
X12281389Y-6171424D01*
X12275122Y-6175723D01*
X12269562Y-6178709D01*
X12281861Y-6198826D01*
X12285582Y-6204912D01*
X12289051Y-6210586D01*
X12292072Y-6215527D01*
X12294449Y-6219415D01*
X12295986Y-6221929D01*
X12296301Y-6222443D01*
X12298441Y-6225942D01*
X12290251Y-6225630D01*
X12282062Y-6225318D01*
X12269605Y-6204071D01*
X12257148Y-6182825D01*
X12246341Y-6182522D01*
X12235533Y-6182219D01*
X12235533Y-6204034D01*
X12235533Y-6225849D01*
X12228618Y-6225849D01*
X12221703Y-6225849D01*
X12221979Y-6172999D01*
X12221990Y-6170861D01*
X12235484Y-6170861D01*
X12249053Y-6170435D01*
X12254884Y-6170209D01*
X12259075Y-6169909D01*
X12262109Y-6169451D01*
X12264472Y-6168757D01*
X12266647Y-6167743D01*
X12267297Y-6167387D01*
X12271558Y-6164225D01*
X12274278Y-6160207D01*
X12275645Y-6154961D01*
X12275897Y-6150441D01*
X12275430Y-6144665D01*
X12273914Y-6140140D01*
X12271170Y-6136742D01*
X12267018Y-6134350D01*
X12261277Y-6132838D01*
X12253767Y-6132085D01*
X12248852Y-6131950D01*
X12236064Y-6131834D01*
X12235774Y-6151347D01*
X12235484Y-6170861D01*
X12221990Y-6170861D01*
X12222254Y-6120148D01*
X12243501Y-6120163D01*
G37*
G36*
X12034315Y-5964897D02*
G01*
X12033827Y-5967482D01*
X12033061Y-5970938D01*
X12031331Y-5978841D01*
X12029424Y-5988478D01*
X12027400Y-5999470D01*
X12025321Y-6011441D01*
X12023247Y-6024013D01*
X12021238Y-6036808D01*
X12019357Y-6049448D01*
X12017663Y-6061556D01*
X12016219Y-6072754D01*
X12015164Y-6081905D01*
X12013970Y-6094606D01*
X12012967Y-6108387D01*
X12012152Y-6123023D01*
X12011525Y-6138286D01*
X12011083Y-6153951D01*
X12010825Y-6169792D01*
X12010749Y-6185582D01*
X12010853Y-6201094D01*
X12011136Y-6216103D01*
X12011596Y-6230382D01*
X12012232Y-6243706D01*
X12013040Y-6255847D01*
X12014021Y-6266580D01*
X12015172Y-6275678D01*
X12016492Y-6282915D01*
X12016684Y-6283745D01*
X12017188Y-6286884D01*
X12016725Y-6289055D01*
X12015872Y-6290380D01*
X12014163Y-6292502D01*
X12011434Y-6295762D01*
X12007897Y-6299921D01*
X12003759Y-6304739D01*
X11999231Y-6309976D01*
X11994522Y-6315392D01*
X11989840Y-6320748D01*
X11985396Y-6325803D01*
X11981400Y-6330318D01*
X11978059Y-6334052D01*
X11975584Y-6336766D01*
X11974185Y-6338219D01*
X11973958Y-6338399D01*
X11973201Y-6337533D01*
X11972550Y-6335533D01*
X11971942Y-6333264D01*
X11970835Y-6329599D01*
X11969417Y-6325151D01*
X11968605Y-6322689D01*
X11967021Y-6318144D01*
X11965892Y-6315442D01*
X11965110Y-6314378D01*
X11964566Y-6314746D01*
X11964498Y-6314911D01*
X11963849Y-6317409D01*
X11963049Y-6321634D01*
X11962153Y-6327198D01*
X11961213Y-6333714D01*
X11960283Y-6340794D01*
X11959416Y-6348050D01*
X11958665Y-6355094D01*
X11958083Y-6361539D01*
X11958065Y-6361763D01*
X11957591Y-6367307D01*
X11957117Y-6372008D01*
X11956686Y-6375503D01*
X11956340Y-6377430D01*
X11956209Y-6377692D01*
X11955134Y-6377041D01*
X11952915Y-6375409D01*
X11950301Y-6373362D01*
X11933416Y-6358515D01*
X11918199Y-6342466D01*
X11904685Y-6325334D01*
X11892911Y-6307239D01*
X11882912Y-6288302D01*
X11874724Y-6268640D01*
X11868384Y-6248376D01*
X11863927Y-6227627D01*
X11861390Y-6206514D01*
X11860807Y-6185157D01*
X11861622Y-6172733D01*
X11914714Y-6172733D01*
X11914714Y-6225849D01*
X11921087Y-6225849D01*
X11927461Y-6225849D01*
X11927461Y-6205275D01*
X11927461Y-6184700D01*
X11941006Y-6184146D01*
X11950946Y-6183349D01*
X11959110Y-6181776D01*
X11965743Y-6179316D01*
X11971085Y-6175860D01*
X11975381Y-6171297D01*
X11977921Y-6167337D01*
X11979403Y-6164492D01*
X11980338Y-6162020D01*
X11980851Y-6159284D01*
X11981067Y-6155648D01*
X11981108Y-6150955D01*
X11981047Y-6145832D01*
X11980792Y-6142228D01*
X11980239Y-6139542D01*
X11979285Y-6137169D01*
X11978453Y-6135601D01*
X11975402Y-6131145D01*
X11971612Y-6127530D01*
X11966872Y-6124689D01*
X11960973Y-6122553D01*
X11953704Y-6121055D01*
X11944855Y-6120126D01*
X11934217Y-6119698D01*
X11929320Y-6119652D01*
X11914714Y-6119617D01*
X11914714Y-6172733D01*
X11861622Y-6172733D01*
X11862216Y-6163675D01*
X11865652Y-6142189D01*
X11871151Y-6120817D01*
X11871535Y-6119617D01*
X11872856Y-6115496D01*
X11880752Y-6095112D01*
X11890487Y-6075679D01*
X11901949Y-6057310D01*
X11915026Y-6040115D01*
X11929607Y-6024207D01*
X11945580Y-6009698D01*
X11962832Y-5996700D01*
X11981251Y-5985325D01*
X12000727Y-5975684D01*
X12019838Y-5968324D01*
X12024968Y-5966633D01*
X12029320Y-5965243D01*
X12032529Y-5964267D01*
X12034229Y-5963820D01*
X12034402Y-5963812D01*
X12034315Y-5964897D01*
G37*
G36*
X12089819Y-5804662D02*
G01*
X12089931Y-5806011D01*
X12090033Y-5808227D01*
X12090127Y-5811373D01*
X12090213Y-5815514D01*
X12090291Y-5820714D01*
X12090361Y-5827037D01*
X12090423Y-5834547D01*
X12090478Y-5843309D01*
X12090527Y-5853387D01*
X12090568Y-5864844D01*
X12090604Y-5877746D01*
X12090633Y-5892156D01*
X12090656Y-5908139D01*
X12090674Y-5925758D01*
X12090686Y-5945078D01*
X12090694Y-5966163D01*
X12090697Y-5989078D01*
X12090696Y-6013886D01*
X12090690Y-6040651D01*
X12090681Y-6069439D01*
X12090673Y-6087748D01*
X12090661Y-6113231D01*
X12090644Y-6138485D01*
X12090624Y-6163405D01*
X12090601Y-6187885D01*
X12090575Y-6211819D01*
X12090546Y-6235103D01*
X12090514Y-6257630D01*
X12090480Y-6279294D01*
X12090444Y-6299991D01*
X12090406Y-6319615D01*
X12090365Y-6338060D01*
X12090324Y-6355220D01*
X12090281Y-6370991D01*
X12090236Y-6385266D01*
X12090191Y-6397940D01*
X12090145Y-6408907D01*
X12090099Y-6418062D01*
X12090052Y-6425300D01*
X12090006Y-6430345D01*
X12089465Y-6479211D01*
X12084551Y-6471775D01*
X12080861Y-6465759D01*
X12076730Y-6458297D01*
X12072441Y-6449938D01*
X12068276Y-6441233D01*
X12064518Y-6432734D01*
X12064450Y-6432574D01*
X12062155Y-6427433D01*
X12060269Y-6424076D01*
X12058577Y-6422259D01*
X12056862Y-6421737D01*
X12055263Y-6422111D01*
X12054055Y-6422900D01*
X12051334Y-6424863D01*
X12047266Y-6427875D01*
X12042018Y-6431811D01*
X12035758Y-6436544D01*
X12028651Y-6441949D01*
X12020866Y-6447899D01*
X12012568Y-6454271D01*
X12010172Y-6456115D01*
X12000265Y-6463762D01*
X11991923Y-6470238D01*
X11985019Y-6475649D01*
X11979421Y-6480104D01*
X11975000Y-6483710D01*
X11971627Y-6486574D01*
X11969172Y-6488805D01*
X11967506Y-6490509D01*
X11966497Y-6491796D01*
X11966020Y-6492765D01*
X11964970Y-6496208D01*
X11964268Y-6491428D01*
X11962999Y-6480846D01*
X11962006Y-6468520D01*
X11961288Y-6454811D01*
X11960846Y-6440083D01*
X11960680Y-6424698D01*
X11960790Y-6409018D01*
X11961178Y-6393405D01*
X11961842Y-6378222D01*
X11962784Y-6363831D01*
X11964003Y-6350594D01*
X11964158Y-6349189D01*
X11964732Y-6343991D01*
X11965209Y-6339503D01*
X11965541Y-6336177D01*
X11965682Y-6334467D01*
X11965684Y-6334408D01*
X11966022Y-6333305D01*
X11966773Y-6333806D01*
X11967636Y-6335515D01*
X11968268Y-6337805D01*
X11969625Y-6341558D01*
X11971940Y-6343423D01*
X11974382Y-6343582D01*
X11975857Y-6342670D01*
X11978582Y-6340170D01*
X11982574Y-6336065D01*
X11987846Y-6330339D01*
X11994414Y-6322977D01*
X11999935Y-6316677D01*
X12006359Y-6309278D01*
X12011495Y-6303294D01*
X12015474Y-6298557D01*
X12018426Y-6294900D01*
X12020482Y-6292153D01*
X12021771Y-6290148D01*
X12022423Y-6288719D01*
X12022568Y-6287696D01*
X12022536Y-6287463D01*
X12021149Y-6280301D01*
X12019988Y-6273661D01*
X12019029Y-6267242D01*
X12018248Y-6260744D01*
X12017620Y-6253865D01*
X12017122Y-6246304D01*
X12016728Y-6237760D01*
X12016415Y-6227931D01*
X12016159Y-6216516D01*
X12015980Y-6206196D01*
X12015821Y-6188675D01*
X12015881Y-6170940D01*
X12016151Y-6153362D01*
X12016618Y-6136310D01*
X12017272Y-6120153D01*
X12018103Y-6105261D01*
X12019099Y-6092005D01*
X12019440Y-6088279D01*
X12020984Y-6074003D01*
X12022980Y-6058399D01*
X12025355Y-6041878D01*
X12028038Y-6024848D01*
X12030960Y-6007719D01*
X12034048Y-5990899D01*
X12037233Y-5974799D01*
X12040442Y-5959827D01*
X12043606Y-5946392D01*
X12044910Y-5941285D01*
X12048406Y-5930377D01*
X12053300Y-5919118D01*
X12059697Y-5907313D01*
X12067701Y-5894768D01*
X12076660Y-5882293D01*
X12086485Y-5869228D01*
X12087271Y-5842777D01*
X12087554Y-5834715D01*
X12087916Y-5826654D01*
X12088331Y-5819066D01*
X12088771Y-5812418D01*
X12089209Y-5807181D01*
X12089427Y-5805171D01*
X12089568Y-5804306D01*
X12089698Y-5804115D01*
X12089819Y-5804662D01*
G37*
G36*
X12098132Y-5749900D02*
G01*
X12099623Y-5753399D01*
X12100885Y-5756974D01*
X12101981Y-5760943D01*
X12102976Y-5765623D01*
X12103934Y-5771334D01*
X12104918Y-5778391D01*
X12105994Y-5787114D01*
X12106490Y-5791361D01*
X12108912Y-5818830D01*
X12109882Y-5841227D01*
X12110518Y-5867190D01*
X12117123Y-5875752D01*
X12126260Y-5888272D01*
X12134329Y-5900709D01*
X12141173Y-5912784D01*
X12146636Y-5924217D01*
X12150561Y-5934728D01*
X12151049Y-5936352D01*
X12152331Y-5940583D01*
X12153475Y-5944000D01*
X12154312Y-5946114D01*
X12154570Y-5946536D01*
X12155880Y-5947079D01*
X12158731Y-5947984D01*
X12162603Y-5949091D01*
X12164358Y-5949564D01*
X12175347Y-5952945D01*
X12187364Y-5957468D01*
X12199838Y-5962872D01*
X12212200Y-5968899D01*
X12223879Y-5975289D01*
X12232666Y-5980694D01*
X12251336Y-5994144D01*
X12268499Y-6009061D01*
X12284103Y-6025364D01*
X12298099Y-6042974D01*
X12310436Y-6061809D01*
X12321061Y-6081789D01*
X12329925Y-6102833D01*
X12336977Y-6124862D01*
X12342165Y-6147795D01*
X12343488Y-6155736D01*
X12344302Y-6162759D01*
X12344894Y-6171290D01*
X12345259Y-6180766D01*
X12345393Y-6190623D01*
X12345290Y-6200295D01*
X12344945Y-6209221D01*
X12344354Y-6216834D01*
X12344035Y-6219475D01*
X12339887Y-6242693D01*
X12333986Y-6264769D01*
X12326277Y-6285838D01*
X12316705Y-6306036D01*
X12305217Y-6325496D01*
X12295439Y-6339517D01*
X12290377Y-6345857D01*
X12284099Y-6353006D01*
X12277005Y-6360560D01*
X12269495Y-6368121D01*
X12261971Y-6375287D01*
X12254833Y-6381657D01*
X12248482Y-6386832D01*
X12247117Y-6387852D01*
X12236961Y-6395288D01*
X12236289Y-6429814D01*
X12236085Y-6438827D01*
X12235834Y-6447733D01*
X12235548Y-6456154D01*
X12235243Y-6463717D01*
X12234932Y-6470044D01*
X12234630Y-6474762D01*
X12234524Y-6476024D01*
X12234070Y-6480580D01*
X12233473Y-6486125D01*
X12232776Y-6492310D01*
X12232021Y-6498784D01*
X12231252Y-6505197D01*
X12230510Y-6511200D01*
X12229838Y-6516443D01*
X12229278Y-6520575D01*
X12228874Y-6523248D01*
X12228682Y-6524112D01*
X12228342Y-6523241D01*
X12227577Y-6520651D01*
X12226483Y-6516684D01*
X12225153Y-6511681D01*
X12224296Y-6508375D01*
X12220175Y-6492355D01*
X12182310Y-6463238D01*
X12144445Y-6434121D01*
X12138064Y-6435245D01*
X12131683Y-6436369D01*
X12125119Y-6449418D01*
X12119341Y-6460287D01*
X12113487Y-6470136D01*
X12107754Y-6478653D01*
X12102343Y-6485528D01*
X12100855Y-6487179D01*
X12095388Y-6493022D01*
X12095382Y-6479205D01*
X12100619Y-6479205D01*
X12104411Y-6473896D01*
X12107982Y-6468495D01*
X12112060Y-6461658D01*
X12116354Y-6453919D01*
X12120571Y-6445810D01*
X12124417Y-6437865D01*
X12125426Y-6435656D01*
X12127967Y-6430062D01*
X12129851Y-6426132D01*
X12131275Y-6423588D01*
X12132434Y-6422149D01*
X12133525Y-6421535D01*
X12134745Y-6421464D01*
X12135322Y-6421527D01*
X12136626Y-6422221D01*
X12139440Y-6424095D01*
X12143597Y-6427024D01*
X12148928Y-6430887D01*
X12155266Y-6435560D01*
X12162442Y-6440919D01*
X12170289Y-6446842D01*
X12178638Y-6453205D01*
X12181383Y-6455309D01*
X12191320Y-6462954D01*
X12199688Y-6469427D01*
X12206617Y-6474836D01*
X12212236Y-6479286D01*
X12216672Y-6482885D01*
X12220056Y-6485739D01*
X12222515Y-6487955D01*
X12224179Y-6489639D01*
X12225177Y-6490898D01*
X12225637Y-6491840D01*
X12225668Y-6491959D01*
X12226376Y-6495146D01*
X12227139Y-6491428D01*
X12227482Y-6489114D01*
X12227932Y-6485136D01*
X12228444Y-6479948D01*
X12228972Y-6474004D01*
X12229284Y-6470182D01*
X12230138Y-6456042D01*
X12230628Y-6440322D01*
X12230764Y-6423535D01*
X12230555Y-6406190D01*
X12230012Y-6388801D01*
X12229145Y-6371879D01*
X12227963Y-6355935D01*
X12226865Y-6344828D01*
X12225620Y-6333674D01*
X12224110Y-6338201D01*
X12222197Y-6342137D01*
X12219786Y-6344172D01*
X12217011Y-6344214D01*
X12216013Y-6343761D01*
X12214787Y-6342661D01*
X12212370Y-6340146D01*
X12208947Y-6336420D01*
X12204701Y-6331687D01*
X12199816Y-6326151D01*
X12194477Y-6320016D01*
X12191447Y-6316501D01*
X12185232Y-6309280D01*
X12180249Y-6303462D01*
X12176381Y-6298812D01*
X12173506Y-6295093D01*
X12171507Y-6292070D01*
X12170264Y-6289507D01*
X12169657Y-6287169D01*
X12169568Y-6284819D01*
X12169876Y-6282222D01*
X12170464Y-6279142D01*
X12171052Y-6276186D01*
X12172069Y-6270371D01*
X12172930Y-6264233D01*
X12173644Y-6257562D01*
X12174222Y-6250146D01*
X12174673Y-6241774D01*
X12175010Y-6232236D01*
X12175241Y-6221321D01*
X12175376Y-6208817D01*
X12175427Y-6194514D01*
X12175422Y-6186012D01*
X12175329Y-6167012D01*
X12175102Y-6149819D01*
X12174719Y-6134120D01*
X12174159Y-6119600D01*
X12173402Y-6105946D01*
X12172426Y-6092843D01*
X12171211Y-6079978D01*
X12169734Y-6067036D01*
X12167975Y-6053704D01*
X12165912Y-6039667D01*
X12165297Y-6035694D01*
X12163301Y-6023421D01*
X12161110Y-6010841D01*
X12158780Y-5998216D01*
X12156367Y-5985810D01*
X12153926Y-5973888D01*
X12151990Y-5964921D01*
X12158290Y-5964921D01*
X12158386Y-5966013D01*
X12158861Y-5968803D01*
X12159644Y-5972911D01*
X12160665Y-5977961D01*
X12161094Y-5980013D01*
X12162207Y-5985530D01*
X12163558Y-5992592D01*
X12165045Y-6000645D01*
X12166567Y-6009136D01*
X12168022Y-6017511D01*
X12168493Y-6020290D01*
X12171247Y-6037263D01*
X12173604Y-6053178D01*
X12175591Y-6068382D01*
X12177232Y-6083219D01*
X12178556Y-6098034D01*
X12179588Y-6113172D01*
X12180354Y-6128979D01*
X12180882Y-6145799D01*
X12181197Y-6163978D01*
X12181326Y-6183861D01*
X12181332Y-6188155D01*
X12181270Y-6205050D01*
X12181057Y-6220016D01*
X12180683Y-6233244D01*
X12180141Y-6244926D01*
X12179422Y-6255252D01*
X12178515Y-6264413D01*
X12177415Y-6272591D01*
X12176683Y-6277515D01*
X12176087Y-6281909D01*
X12175702Y-6285188D01*
X12175600Y-6286489D01*
X12175910Y-6287706D01*
X12176975Y-6289622D01*
X12178910Y-6292388D01*
X12181829Y-6296151D01*
X12185846Y-6301060D01*
X12191078Y-6307263D01*
X12196747Y-6313878D01*
X12202726Y-6320806D01*
X12207473Y-6326268D01*
X12211137Y-6330410D01*
X12213868Y-6333379D01*
X12215816Y-6335322D01*
X12217131Y-6336386D01*
X12217962Y-6336719D01*
X12218458Y-6336466D01*
X12218771Y-6335775D01*
X12218833Y-6335567D01*
X12220282Y-6330719D01*
X12221874Y-6325697D01*
X12223468Y-6320908D01*
X12224921Y-6316763D01*
X12226094Y-6313673D01*
X12226845Y-6312046D01*
X12226992Y-6311896D01*
X12227437Y-6312871D01*
X12228106Y-6315498D01*
X12228894Y-6319329D01*
X12229421Y-6322254D01*
X12230002Y-6325805D01*
X12230570Y-6329647D01*
X12231157Y-6334054D01*
X12231797Y-6339300D01*
X12232522Y-6345658D01*
X12233364Y-6353403D01*
X12234357Y-6362808D01*
X12235110Y-6370058D01*
X12235524Y-6373171D01*
X12235970Y-6375195D01*
X12236224Y-6375635D01*
X12237229Y-6375007D01*
X12239475Y-6373321D01*
X12242570Y-6370878D01*
X12244389Y-6369404D01*
X12260395Y-6354967D01*
X12274961Y-6339050D01*
X12287999Y-6321808D01*
X12299422Y-6303399D01*
X12309145Y-6283980D01*
X12317079Y-6263707D01*
X12323138Y-6242738D01*
X12327236Y-6221228D01*
X12327478Y-6219475D01*
X12328270Y-6211490D01*
X12328759Y-6202031D01*
X12328945Y-6191725D01*
X12328830Y-6181201D01*
X12328416Y-6171086D01*
X12327704Y-6162007D01*
X12327330Y-6158755D01*
X12323511Y-6137292D01*
X12317695Y-6116412D01*
X12309958Y-6096237D01*
X12300377Y-6076888D01*
X12289028Y-6058486D01*
X12275988Y-6041152D01*
X12261334Y-6025007D01*
X12245141Y-6010173D01*
X12227487Y-5996772D01*
X12223317Y-5993963D01*
X12215281Y-5989058D01*
X12205857Y-5983934D01*
X12195714Y-5978913D01*
X12185519Y-5974318D01*
X12175939Y-5970471D01*
X12171305Y-5968834D01*
X12166479Y-5967262D01*
X12162445Y-5966005D01*
X12159595Y-5965183D01*
X12158318Y-5964912D01*
X12158290Y-5964921D01*
X12151990Y-5964921D01*
X12151513Y-5962712D01*
X12149183Y-5952546D01*
X12146992Y-5943654D01*
X12144995Y-5936299D01*
X12143249Y-5930746D01*
X12143030Y-5930133D01*
X12139458Y-5921702D01*
X12134562Y-5912202D01*
X12128572Y-5902016D01*
X12121716Y-5891527D01*
X12114223Y-5881116D01*
X12111776Y-5877925D01*
X12105144Y-5869411D01*
X12104359Y-5843248D01*
X12104076Y-5835275D01*
X12103716Y-5827348D01*
X12103306Y-5819928D01*
X12102873Y-5813477D01*
X12102442Y-5808457D01*
X12102235Y-5806614D01*
X12102107Y-5805920D01*
X12101987Y-5805942D01*
X12101874Y-5806738D01*
X12101768Y-5808369D01*
X12101670Y-5810892D01*
X12101578Y-5814366D01*
X12101492Y-5818850D01*
X12101413Y-5824403D01*
X12101340Y-5831084D01*
X12101272Y-5838952D01*
X12101210Y-5848064D01*
X12101153Y-5858481D01*
X12101100Y-5870261D01*
X12101053Y-5883463D01*
X12101009Y-5898145D01*
X12100970Y-5914367D01*
X12100935Y-5932187D01*
X12100903Y-5951663D01*
X12100874Y-5972856D01*
X12100848Y-5995824D01*
X12100826Y-6020624D01*
X12100805Y-6047318D01*
X12100787Y-6075962D01*
X12100771Y-6106616D01*
X12100758Y-6137673D01*
X12100619Y-6479205D01*
X12095382Y-6479205D01*
X12095309Y-6314021D01*
X12095299Y-6293969D01*
X12095287Y-6274068D01*
X12095273Y-6254460D01*
X12095258Y-6235290D01*
X12095241Y-6216702D01*
X12095222Y-6198841D01*
X12095203Y-6181849D01*
X12095183Y-6165872D01*
X12095162Y-6151052D01*
X12095140Y-6137535D01*
X12095118Y-6125465D01*
X12095096Y-6114984D01*
X12095074Y-6106238D01*
X12095051Y-6099370D01*
X12095036Y-6095715D01*
X12095015Y-6089941D01*
X12095000Y-6082203D01*
X12094989Y-6072660D01*
X12094983Y-6061473D01*
X12094982Y-6048801D01*
X12094986Y-6034805D01*
X12094995Y-6019645D01*
X12095008Y-6003481D01*
X12095025Y-5986472D01*
X12095047Y-5968780D01*
X12095073Y-5950564D01*
X12095102Y-5931984D01*
X12095136Y-5913200D01*
X12095162Y-5900249D01*
X12095482Y-5744088D01*
X12098132Y-5749900D01*
G37*
%TO.C,J408*%
D13*
X9825500Y-7693500D02*
X9825500Y-8081500D01*
X10022500Y-7576500D02*
X10272500Y-7576500D01*
X10022500Y-8198500D02*
X10272500Y-8198500D01*
X10272500Y-7576500D02*
X10272500Y-7681500D01*
X10272500Y-7681500D02*
X10371500Y-7681500D01*
X10272500Y-8198500D02*
X10272500Y-8093500D01*
%TO.C,J402*%
X10145000Y-8408300D02*
X10315000Y-8408300D01*
X10145000Y-9342300D02*
X10315000Y-9342300D01*
%TO.C,J403*%
X12048000Y-8988000D02*
X12692000Y-8988000D01*
X12048000Y-10582000D02*
X12048000Y-8988000D01*
X12048000Y-10582000D02*
X12692000Y-10582000D01*
X12100000Y-10582000D02*
X12100000Y-8988000D01*
X12630000Y-10582000D02*
X12630000Y-8988000D01*
X12692000Y-10390000D02*
X12692000Y-8988000D01*
X12692000Y-10582000D02*
X12692000Y-10450000D01*
X12692000Y-10420000D02*
X12753000Y-10376000D01*
X12753000Y-10464000D01*
X12692000Y-10420000D01*
G36*
X12753000Y-10464000D02*
G01*
X12692000Y-10420000D01*
X12753000Y-10376000D01*
X12753000Y-10464000D01*
G37*
%TO.C,BZ401*%
D15*
X12377600Y-6221600D02*
X12717600Y-6221600D01*
X12377600Y-6681600D02*
X12377600Y-6221600D01*
X12657600Y-6681600D02*
X12377600Y-6681600D01*
X12717600Y-6221600D02*
X12717600Y-6621600D01*
X12717600Y-6621600D02*
X12657600Y-6681600D01*
%TO.C,U202*%
D13*
X11971880Y-6937600D02*
X11998880Y-6937600D01*
X11971880Y-7489600D02*
X11971880Y-6937600D01*
X11998880Y-7489600D02*
X11971880Y-7489600D01*
X12496880Y-6937600D02*
X12523880Y-6937600D01*
X12523880Y-6937600D02*
X12523880Y-7489600D01*
X12523880Y-7489600D02*
X12496880Y-7489600D01*
X11997880Y-7572600D02*
X11950880Y-7606600D01*
X11950880Y-7538600D01*
X11997880Y-7572600D01*
G36*
X11997880Y-7572600D02*
G01*
X11950880Y-7606600D01*
X11950880Y-7538600D01*
X11997880Y-7572600D01*
G37*
%TO.C,U302*%
X11106000Y-8386000D02*
X11106000Y-8368500D01*
X11173500Y-8114000D02*
X11136000Y-8114000D01*
X11173500Y-8386000D02*
X11106000Y-8386000D01*
X11360500Y-8114000D02*
X11428000Y-8114000D01*
X11360500Y-8386000D02*
X11428000Y-8386000D01*
X11428000Y-8114000D02*
X11428000Y-8131500D01*
X11428000Y-8386000D02*
X11428000Y-8368500D01*
X11106000Y-8114000D02*
X11092000Y-8095000D01*
X11120000Y-8095000D01*
X11106000Y-8114000D01*
G36*
X11106000Y-8114000D02*
G01*
X11092000Y-8095000D01*
X11120000Y-8095000D01*
X11106000Y-8114000D01*
G37*
%TO.C,C301*%
X11604373Y-8276000D02*
X11633627Y-8276000D01*
X11604373Y-8378000D02*
X11633627Y-8378000D01*
%TO.C,D406*%
X10619900Y-7962190D02*
X10619900Y-8208190D01*
X10766900Y-7962190D02*
X10619900Y-7962190D01*
X10766900Y-8208190D02*
X10766900Y-7962190D01*
%TO.C,J401*%
X9895000Y-7162800D02*
X9895000Y-6135800D01*
X10171000Y-6135800D02*
X9895000Y-6135800D01*
X10171000Y-7162800D02*
X9895000Y-7162800D01*
X10171000Y-7162800D02*
X10171000Y-6135800D01*
X10171000Y-7289800D02*
X10171000Y-7427800D01*
X10171000Y-7427800D02*
X10033000Y-7427800D01*
%TO.C,C305*%
X11871760Y-8300217D02*
X11871760Y-8270963D01*
X11973760Y-8300217D02*
X11973760Y-8270963D01*
%TO.C,D101*%
X11056500Y-11122500D02*
X11302500Y-11122500D01*
X11302500Y-10975500D02*
X11056500Y-10975500D01*
X11302500Y-11122500D02*
X11302500Y-10975500D01*
%TO.C,R101*%
X11529322Y-10996750D02*
X11478378Y-10996750D01*
X11529322Y-11101250D02*
X11478378Y-11101250D01*
%TO.C,C209*%
X12129223Y-6603800D02*
X12158477Y-6603800D01*
X12129223Y-6705800D02*
X12158477Y-6705800D01*
%TO.C,U304*%
X11475500Y-8496500D02*
X11506900Y-8496500D01*
X11475500Y-8546500D02*
X11475500Y-8496500D01*
X11475500Y-8826500D02*
X11475500Y-8776500D01*
X11506900Y-8826500D02*
X11475500Y-8826500D01*
X11995500Y-8526500D02*
X11995500Y-8601500D01*
X11995500Y-8776500D02*
X11995500Y-8826500D01*
X11995500Y-8826500D02*
X11964100Y-8826500D01*
X11995500Y-8506500D02*
X11995500Y-8470500D01*
X12031500Y-8506500D01*
X11995500Y-8506500D01*
G36*
X12031500Y-8506500D02*
G01*
X11995500Y-8506500D01*
X11995500Y-8470500D01*
X12031500Y-8506500D01*
G37*
%TO.C,C303*%
X11301073Y-5749000D02*
X11330327Y-5749000D01*
X11301073Y-5851000D02*
X11330327Y-5851000D01*
%TO.C,R610*%
X11856982Y-9432110D02*
X11806038Y-9432110D01*
X11856982Y-9536610D02*
X11806038Y-9536610D01*
%TO.C,R614*%
X10854510Y-9936552D02*
X10854510Y-9885608D01*
X10959010Y-9936552D02*
X10959010Y-9885608D01*
%TD*%
M02*
