%TF.GenerationSoftware,KiCad,Pcbnew,10.0.3*%
%TF.CreationDate,2026-06-07T12:26:31-05:00*%
%TF.ProjectId,Flight Computer,466c6967-6874-4204-936f-6d7075746572,rev?*%
%TF.SameCoordinates,Original*%
%TF.FileFunction,Paste,Top*%
%TF.FilePolarity,Positive*%
%FSLAX45Y45*%
G04 Gerber Fmt 4.5, Leading zero omitted, Abs format (unit mm)*
G04 Created by KiCad (PCBNEW 10.0.3) date 2026-06-07 12:26:31*
%MOMM*%
%LPD*%
G01*
G04 APERTURE LIST*
G04 Aperture macros list*
%AMRoundRect*
0 Rectangle with rounded corners*
0 $1 Rounding radius*
0 $2 $3 $4 $5 $6 $7 $8 $9 X,Y pos of 4 corners*
0 Add a 4 corners polygon primitive as box body*
4,1,4,$2,$3,$4,$5,$6,$7,$8,$9,$2,$3,0*
0 Add four circle primitives for the rounded corners*
1,1,$1+$1,$2,$3*
1,1,$1+$1,$4,$5*
1,1,$1+$1,$6,$7*
1,1,$1+$1,$8,$9*
0 Add four rect primitives between the rounded corners*
20,1,$1+$1,$2,$3,$4,$5,0*
20,1,$1+$1,$4,$5,$6,$7,0*
20,1,$1+$1,$6,$7,$8,$9,0*
20,1,$1+$1,$8,$9,$2,$3,0*%
G04 Aperture macros list end*
%ADD10R,0.700000X0.700000*%
%ADD11RoundRect,0.237500X-0.237500X0.250000X-0.237500X-0.250000X0.237500X-0.250000X0.237500X0.250000X0*%
%ADD12RoundRect,0.237500X-0.237500X0.300000X-0.237500X-0.300000X0.237500X-0.300000X0.237500X0.300000X0*%
%ADD13C,0.250000*%
%ADD14RoundRect,0.237500X-0.300000X-0.237500X0.300000X-0.237500X0.300000X0.237500X-0.300000X0.237500X0*%
%ADD15RoundRect,0.125000X-0.125000X0.150000X-0.125000X-0.150000X0.125000X-0.150000X0.125000X0.150000X0*%
%ADD16RoundRect,0.237500X-0.250000X-0.237500X0.250000X-0.237500X0.250000X0.237500X-0.250000X0.237500X0*%
%ADD17RoundRect,0.150000X-0.512500X-0.150000X0.512500X-0.150000X0.512500X0.150000X-0.512500X0.150000X0*%
%ADD18RoundRect,0.237500X0.237500X-0.250000X0.237500X0.250000X-0.237500X0.250000X-0.237500X-0.250000X0*%
%ADD19R,0.580000X0.720000*%
%ADD20R,0.720000X0.580000*%
%ADD21RoundRect,0.150000X-0.625000X0.150000X-0.625000X-0.150000X0.625000X-0.150000X0.625000X0.150000X0*%
%ADD22RoundRect,0.250000X-0.650000X0.350000X-0.650000X-0.350000X0.650000X-0.350000X0.650000X0.350000X0*%
%ADD23RoundRect,0.150000X-0.425000X0.150000X-0.425000X-0.150000X0.425000X-0.150000X0.425000X0.150000X0*%
%ADD24RoundRect,0.075000X-0.500000X0.075000X-0.500000X-0.075000X0.500000X-0.075000X0.500000X0.075000X0*%
%ADD25O,2.100000X1.000000*%
%ADD26O,1.800000X1.000000*%
%ADD27RoundRect,0.150000X-0.350000X0.450000X-0.350000X-0.450000X0.350000X-0.450000X0.350000X0.450000X0*%
%ADD28RoundRect,0.162500X0.162500X-0.650000X0.162500X0.650000X-0.162500X0.650000X-0.162500X-0.650000X0*%
%ADD29RoundRect,0.087500X-0.225000X-0.087500X0.225000X-0.087500X0.225000X0.087500X-0.225000X0.087500X0*%
%ADD30RoundRect,0.087500X-0.087500X-0.225000X0.087500X-0.225000X0.087500X0.225000X-0.087500X0.225000X0*%
%ADD31RoundRect,0.237500X-0.237500X0.287500X-0.237500X-0.287500X0.237500X-0.287500X0.237500X0.287500X0*%
%ADD32RoundRect,0.237500X0.237500X-0.300000X0.237500X0.300000X-0.237500X0.300000X-0.237500X-0.300000X0*%
%ADD33RoundRect,0.187500X-0.437500X-1.312500X0.437500X-1.312500X0.437500X1.312500X-0.437500X1.312500X0*%
%ADD34RoundRect,0.237500X0.287500X0.237500X-0.287500X0.237500X-0.287500X-0.237500X0.287500X-0.237500X0*%
%ADD35RoundRect,0.237500X0.250000X0.237500X-0.250000X0.237500X-0.250000X-0.237500X0.250000X-0.237500X0*%
%ADD36R,0.550000X0.950000*%
%ADD37RoundRect,0.187500X1.312500X-0.437500X1.312500X0.437500X-1.312500X0.437500X-1.312500X-0.437500X0*%
G04 APERTURE END LIST*
D10*
%TO.C,D402*%
X10888100Y-9304780D03*
X10778100Y-9304780D03*
X10778100Y-9487780D03*
X10888100Y-9487780D03*
%TD*%
D11*
%TO.C,R605*%
X11287760Y-8864790D03*
X11287760Y-9047290D03*
%TD*%
D12*
%TO.C,C302*%
X11222000Y-8495750D03*
X11222000Y-8668250D03*
%TD*%
%TO.C,C402*%
X11050660Y-9488000D03*
X11050660Y-9660500D03*
%TD*%
D13*
%TO.C,U303*%
X11780000Y-7610000D03*
X11820000Y-7610000D03*
X11780000Y-7650000D03*
X11820000Y-7650000D03*
%TD*%
D12*
%TO.C,C401*%
X11050660Y-9127210D03*
X11050660Y-9299710D03*
%TD*%
D11*
%TO.C,R606*%
X11287760Y-9205150D03*
X11287760Y-9387650D03*
%TD*%
D14*
%TO.C,C304*%
X11780740Y-7863840D03*
X11953240Y-7863840D03*
%TD*%
D15*
%TO.C,SW401*%
X12308200Y-8554300D03*
X12228200Y-8554300D03*
X12308200Y-8819300D03*
X12228200Y-8819300D03*
%TD*%
D16*
%TO.C,R603*%
X11486260Y-9911080D03*
X11668760Y-9911080D03*
%TD*%
D10*
%TO.C,D403*%
X10888100Y-8944100D03*
X10778100Y-8944100D03*
X10778100Y-9127100D03*
X10888100Y-9127100D03*
%TD*%
D17*
%TO.C,Q603*%
X11488970Y-9054080D03*
X11488970Y-9244080D03*
X11716470Y-9149080D03*
%TD*%
D18*
%TO.C,R404*%
X10693400Y-7853680D03*
X10693400Y-7671180D03*
%TD*%
%TO.C,R613*%
X10906760Y-10342500D03*
X10906760Y-10160000D03*
%TD*%
D19*
%TO.C,U301*%
X11380500Y-5968000D03*
X11190500Y-5968000D03*
X11085500Y-5968000D03*
X11000500Y-5968000D03*
X10895500Y-5968000D03*
X10705500Y-5968000D03*
X11465500Y-5968000D03*
X11275500Y-5968000D03*
X10810500Y-5968000D03*
X10620500Y-5968000D03*
X11465500Y-6068000D03*
X11380500Y-6068000D03*
X11275500Y-6068000D03*
X11190500Y-6068000D03*
X11085500Y-6068000D03*
X11000500Y-6068000D03*
X10895500Y-6068000D03*
X10810500Y-6068000D03*
X10705500Y-6068000D03*
X10620500Y-6068000D03*
D20*
X11753000Y-6255500D03*
X11653000Y-6255500D03*
X10433000Y-6255500D03*
X10333000Y-6255500D03*
X11753000Y-6340500D03*
X11653000Y-6340500D03*
X10433000Y-6340500D03*
X10333000Y-6340500D03*
X11753000Y-6445500D03*
X11653000Y-6445500D03*
X10433000Y-6445500D03*
X10333000Y-6445500D03*
X11753000Y-6530500D03*
X11653000Y-6530500D03*
X10433000Y-6530500D03*
X10333000Y-6530500D03*
X11753000Y-6635500D03*
X11653000Y-6635500D03*
X10433000Y-6635500D03*
X10333000Y-6635500D03*
X11753000Y-6720500D03*
X11653000Y-6720500D03*
X10433000Y-6720500D03*
X10333000Y-6720500D03*
X11753000Y-6825500D03*
X11653000Y-6825500D03*
X10433000Y-6825500D03*
X10333000Y-6825500D03*
X11753000Y-6910500D03*
X11653000Y-6910500D03*
X10433000Y-6910500D03*
X10333000Y-6910500D03*
X11753000Y-7015500D03*
X11653000Y-7015500D03*
X10433000Y-7015500D03*
X10333000Y-7015500D03*
X11753000Y-7100500D03*
X11653000Y-7100500D03*
X10433000Y-7100500D03*
X10333000Y-7100500D03*
D19*
X11465500Y-7288000D03*
X11380500Y-7288000D03*
X11275500Y-7288000D03*
X11190500Y-7288000D03*
X11085500Y-7288000D03*
X11000500Y-7288000D03*
X10895500Y-7288000D03*
X10810500Y-7288000D03*
X10705500Y-7288000D03*
X10620500Y-7288000D03*
X11465500Y-7388000D03*
X11275500Y-7388000D03*
X10810500Y-7388000D03*
X10620500Y-7388000D03*
X11380500Y-7388000D03*
X11190500Y-7388000D03*
X11085500Y-7388000D03*
X11000500Y-7388000D03*
X10895500Y-7388000D03*
X10705500Y-7388000D03*
%TD*%
D15*
%TO.C,SW402*%
X12638400Y-8554300D03*
X12558400Y-8554300D03*
X12638400Y-8819300D03*
X12558400Y-8819300D03*
%TD*%
D21*
%TO.C,J408*%
X10294000Y-7737500D03*
X10294000Y-7837500D03*
X10294000Y-7937500D03*
X10294000Y-8037500D03*
D22*
X9906500Y-7607500D03*
X9906500Y-8167500D03*
%TD*%
D23*
%TO.C,J402*%
X10503000Y-8555300D03*
X10503000Y-8635300D03*
D24*
X10503000Y-8750300D03*
X10503000Y-8850300D03*
X10503000Y-8900300D03*
X10503000Y-9000300D03*
D23*
X10503000Y-9115300D03*
X10503000Y-9195300D03*
X10503000Y-9195300D03*
X10503000Y-9115300D03*
D24*
X10503000Y-9050300D03*
X10503000Y-8950300D03*
X10503000Y-8800300D03*
X10503000Y-8700300D03*
D23*
X10503000Y-8635300D03*
X10503000Y-8555300D03*
D25*
X10445500Y-8443300D03*
D26*
X10027500Y-8443300D03*
D25*
X10445500Y-9307300D03*
D26*
X10027500Y-9307300D03*
%TD*%
D27*
%TO.C,BZ401*%
X12547600Y-6321600D03*
X12547600Y-6581600D03*
%TD*%
D28*
%TO.C,U202*%
X12057380Y-7572350D03*
X12184380Y-7572350D03*
X12311380Y-7572350D03*
X12438380Y-7572350D03*
X12438380Y-6854850D03*
X12311380Y-6854850D03*
X12184380Y-6854850D03*
X12057380Y-6854850D03*
%TD*%
D29*
%TO.C,U302*%
X11150750Y-8175000D03*
X11150750Y-8225000D03*
X11150750Y-8275000D03*
X11150750Y-8325000D03*
D30*
X11217000Y-8341250D03*
X11267000Y-8341250D03*
X11317000Y-8341250D03*
D29*
X11383250Y-8325000D03*
X11383250Y-8275000D03*
X11383250Y-8225000D03*
X11383250Y-8175000D03*
D30*
X11317000Y-8158750D03*
X11267000Y-8158750D03*
X11217000Y-8158750D03*
%TD*%
D14*
%TO.C,C301*%
X11532750Y-8327000D03*
X11705250Y-8327000D03*
%TD*%
D31*
%TO.C,D406*%
X10693400Y-8040690D03*
X10693400Y-8215690D03*
%TD*%
D32*
%TO.C,C305*%
X11922760Y-8371840D03*
X11922760Y-8199340D03*
%TD*%
D33*
%TO.C,J406*%
X11547000Y-5435000D03*
X11801000Y-5435000D03*
X12055000Y-5435000D03*
%TD*%
D34*
%TO.C,D101*%
X11224000Y-11049000D03*
X11049000Y-11049000D03*
%TD*%
D35*
%TO.C,R101*%
X11595100Y-11049000D03*
X11412600Y-11049000D03*
%TD*%
D14*
%TO.C,C209*%
X12057600Y-6654800D03*
X12230100Y-6654800D03*
%TD*%
D36*
%TO.C,U304*%
X11923000Y-8554000D03*
X11798000Y-8554000D03*
X11673000Y-8554000D03*
X11548000Y-8554000D03*
X11548000Y-8769000D03*
X11673000Y-8769000D03*
X11798000Y-8769000D03*
X11923000Y-8769000D03*
%TD*%
D14*
%TO.C,C303*%
X11229450Y-5800000D03*
X11401950Y-5800000D03*
%TD*%
D35*
%TO.C,R610*%
X11922760Y-9484360D03*
X11740260Y-9484360D03*
%TD*%
D18*
%TO.C,R614*%
X10906760Y-10002330D03*
X10906760Y-9819830D03*
%TD*%
D37*
%TO.C,J405*%
X12556000Y-7904000D03*
X12556000Y-8158000D03*
X12556000Y-8412000D03*
%TD*%
M02*
